<svg width="32" height="32" viewBox="0 0 32 32" fill="none" xmlns="http://www.w3.org/2000/svg">
<path d="M18 14V23H19V14H18ZM15.5 14V23H16.5V14H15.5ZM22 6.5L22.5 2H9.5L10 6.5H11V9H10V12.5H11V21.39C10.62 21.26 10.1025 21.1 9.86247 20.88C9.68248 20.72 9.15251 20.21 8.62248 20.51C8.27251 20.7 8.1425 21.15 8.2625 21.76C8.32249 22.07 8.47252 22.32 8.59251 22.55C8.63249 22.62 8.67247 22.68 8.7025 22.74L6.85252 25.06C6.38249 25.52 6.38249 26.28 6.85252 26.75L7.63249 27.52C8.0825 27.99 8.88249 27.98 9.32249 27.52L9.82249 27.03L9.92247 26.93C9.90251 26.97 9.86247 27.02 9.82249 27.06L9.66252 27.22C8.79247 28.01 8.98247 29.42 9.0125 29.58L9.07249 30H22V26.5H21.21C21.4 26.2 21.5 25.85 21.5 25.47C21.5 25.13 21.3 24.83 21 24.7V12.5H22V9H21V6.5H22ZM13.25 27.5C13.08 27.94 13 28.41 13 28.9V29H9.97252C9.99248 28.65 10.0725 28.2 10.3425 27.96C11.2625 27.12 11.0225 26.36 10.9925 26.28L10.8925 25.99L10.8225 25.98L10.4625 25.94C10.3125 25.93 10.3125 25.93 10.2125 25.85L9.86247 25.57L8.61247 26.82C8.52251 26.92 8.4525 26.93 8.34251 26.81L7.55247 26.04C7.48247 25.96 7.48247 25.84 7.59251 25.72L9.82249 22.95L9.75249 22.7C9.69249 22.47 9.5825 22.26 9.47252 22.06C9.40251 21.94 9.3325 21.82 9.29247 21.71C9.72252 22.07 10.45 22.28 11 22.44L11.54 22.59C11.7 22.64 11.86 22.68 12 22.72C12.18 22.78 12.34 22.83 12.47 22.89C13.48 23.34 14.12 24.25 14.37 25.6C14.38 25.65 14.39 25.7 14.4 25.75C14.16 25.97 13.94 26.23 13.76 26.5C13.54 26.81 13.37 27.14 13.25 27.5ZM13 14V22.03C12.96 22.01 12.92 21.99 12.88 21.97C12.62 21.85 12.32 21.77 12 21.69V12.5H20V24.62H18.07C17.68 24.61 17.28 24.61 16.9 24.64C16.32 24.69 15.77 24.86 15.28 25.12C15.06 24.11 14.63 23.31 14 22.72V14H13ZM18 28.27C18 28.67 17.67 29 17.27 29H14V28.9C14 28.4 14.11 27.92 14.32 27.5C14.41 27.32 14.51 27.15 14.63 26.99C14.74 26.84 14.86 26.69 15 26.57C15.02 26.54 15.05 26.52 15.07 26.5C15.2 26.38 15.35 26.27 15.5 26.17C15.94 25.87 16.44 25.69 16.99 25.64C17.34 25.61 17.7 25.61 18.05 25.62H20.49C20.45 25.93 20.26 26.2 20 26.35C19.85 26.45 19.66 26.5 19.47 26.5H18V28.27ZM21 29H18.83C18.94 28.78 19 28.53 19 28.27V27.5H21V29ZM21 11.5H11V10H21V11.5ZM12 9V6.5H20V9H12ZM10.9 5.5L10.62 3H21.38L21.1 5.5H10.9Z" fill="#0D2B49"/>
</svg>
