<svg width="32" height="32" viewBox="0 0 32 32" fill="none" xmlns="http://www.w3.org/2000/svg">
<path d="M29.9147 7.10095C29.9647 6.38098 29.4448 5.73095 28.7247 5.62097L24.1647 4.97095C24.1147 4.97095 24.0748 4.96094 24.0248 4.96094C23.8048 4.96094 23.5947 5.03095 23.4247 5.16095C23.2147 5.32092 23.0748 5.56097 23.0347 5.82092L22.8948 6.81097C22.8148 7.36096 23.1948 7.87097 23.7448 7.94097L24.8148 8.09093L2.90473 24.001L2.09473 24.5909L3.27478 26.2109L3.86475 27.0109L4.67475 26.421L26.9747 10.2209L26.9948 11.631C27.0048 11.8909 27.1148 12.1509 27.3048 12.3309C27.4948 12.5109 27.7347 12.6109 27.9948 12.6109H28.0148L29.0148 12.5909C29.5648 12.5809 30.0048 12.131 29.9948 11.5709L29.9147 7.10095ZM27.9948 11.611L27.9548 9.51092L27.9448 8.90093V8.89092L27.9348 8.28093L27.4448 8.64092L26.9548 9.00097L4.08478 25.611L3.49475 24.811L26.2247 8.30096L26.8048 7.87097L27.3948 7.45093L26.6748 7.35095L25.9747 7.25097L23.8848 6.95092L24.0248 5.96093L27.1348 6.40093L28.2247 6.56096L28.5748 6.61095C28.7948 6.64092 28.9448 6.85094 28.9148 7.06096L28.9248 7.52092L28.9448 8.79094L28.9948 11.5909L27.9948 11.611Z" fill="#0D2B49"/>
</svg>
