<svg width="32" height="32" viewBox="0 0 32 32" fill="none" xmlns="http://www.w3.org/2000/svg">
<path d="M6 2V30.5H26V2H6ZM25 29.5H7V3H25V29.5ZM21 15.5H20C19.72 15.5 19.5 15.28 19.5 15V9C19.5 7.07001 17.93 5.5 16 5.5H15C13.17 5.5 11.66 6.90997 11.52 8.70001C11.5 8.79999 11.5 8.90002 11.5 9V17.9C10.43 19.08 10.4 19.83 10.42 20.4V27.95H22.5V17C22.5 16.17 21.83 15.5 21 15.5ZM16 6.5C17.38 6.5 18.5 7.62 18.5 9V15C18.5 15.61 18.86 16.13 19.38 16.36L17.5 18.1V9C17.5 7.62 16.38 6.5 15 6.5H16ZM12.5 9C12.5 8.90002 12.52 8.79999 12.53 8.70001C12.55 8.59998 12.58 8.51001 12.62 8.41998C12.65 8.33002 12.7 8.25 12.75 8.16998C12.76 8.15997 12.76 8.15002 12.77 8.14001C12.82 8.06 12.88 8 12.94 7.94C13.01 7.87 13.08 7.81 13.16 7.76001C13.24 7.70001 13.33 7.65002 13.42 7.62C13.51 7.58002 13.6 7.54999 13.7 7.53003C13.8 7.51001 13.9 7.5 14 7.5H15C15.83 7.5 16.5 8.16998 16.5 9V12C16.5 12.83 15.83 13.5 15 13.5H14C13.17 13.5 12.5 12.83 12.5 12V9ZM16.5 14V19.03L16.15 19.36C14.38 19.13 13.62 17.85 13.39 17.35C14.17 16.44 14.44 15.7 14.49 14.5H15C15.56 14.5 16.09 14.31 16.5 14ZM12.5 14C12.78 14.22 13.12 14.37 13.49 14.45C13.45 15.43 13.26 16.01 12.5 16.86V14ZM12.58 18.21C12.61 18.18 12.64 18.15 12.67 18.13C13.06 18.79 13.84 19.77 15.25 20.18L13.17 22.13H13.16C11.75 21.91 11.45 21.25 11.42 20.57V20.46C11.4 19.93 11.39 19.39 12.58 18.21ZM14.29 23.2L13.6 24.32C13.29 24.31 13.01 24.21 12.83 24.08L11.42 22.6V22.52C12.07 22.97 13.01 23.2 14.25 23.2H14.29ZM11.42 26.95V24.05L12.17 24.83C12.6333 25.2558 13.0207 25.3259 13.67 25.33H14.27L14.06 26.94L11.42 26.95ZM21.5 26.95H15.07L15.28 25.33H17.88C18.16 25.33 18.38 25.1 18.38 24.83C18.38 24.75 18.36 24.67 18.32 24.6C18.32 24.59 18.31 24.57 18.29 24.54C18.22 24.39 18.02 24.01 17.63 23.6L21.5 20.12V26.95ZM14.77 24.33L15.37 23.35C16.12 23.56 16.63 23.97 16.94 24.33H14.77ZM21.5 18.78L16.87 22.95C16.58 22.76 16.25 22.58 15.86 22.46C15.76 22.42 15.66 22.39 15.56 22.37C15.51 22.35 15.45 22.34 15.4 22.33C15.35 22.32 15.3 22.31 15.24 22.3C15.22 22.29 15.2 22.28 15.18 22.29C15.11 22.27 15.03 22.26 14.95 22.25C14.93 22.24 14.92 22.24 14.9 22.25C14.78 22.23 14.66 22.22 14.54 22.22L20.7 16.5H21C21.28 16.5 21.5 16.72 21.5 17V18.78Z" fill="#0D2B49"/>
</svg>
