<svg width="32" height="32" viewBox="0 0 32 32" fill="none" xmlns="http://www.w3.org/2000/svg">
<path d="M11.875 17.2851C10.705 18.5451 10.755 20.5251 12.005 21.7151C12.595 22.2851 13.365 22.5951 14.185 22.5951C15.035 22.5951 15.825 22.2751 16.415 21.6751L16.505 21.5751L16.545 21.5351L18.325 19.6851L20.305 17.6051L21.075 16.8151L22.055 15.7951L24.305 13.4451L24.455 13.2751C26.395 11.1851 26.295 7.92512 24.235 5.95512C23.255 5.01512 21.975 4.49512 20.615 4.49512C19.185 4.49512 17.865 5.06512 16.865 6.07512L16.805 6.13512L14.495 8.54512L10.935 12.2751L8.35502 14.9651C8.29502 15.0151 8.24402 15.0801 8.18402 15.1401L8.02502 15.3151C6.77502 16.7051 6.11502 18.4851 6.15502 20.3451C6.19502 22.2951 6.99502 24.1151 8.40502 25.4751C9.77502 26.7851 11.575 27.5051 13.465 27.5051C15.455 27.5051 17.285 26.7351 18.675 25.3351L25.155 18.5551L25.885 19.2551L19.475 25.9451C18.485 26.9751 17.295 27.6951 16.025 28.1051C15.205 28.3751 14.335 28.5051 13.465 28.5051C11.395 28.5051 9.32502 27.7351 7.71502 26.1951C5.44502 24.0151 4.67502 20.8451 5.44502 18.0051C5.77502 16.7951 6.37502 15.6551 7.26502 14.6651L7.56502 14.3451L7.65502 14.2551L16.075 5.45512L16.145 5.38512C17.005 4.51512 18.055 3.93512 19.165 3.67512C19.635 3.55512 20.125 3.49512 20.615 3.49512C22.165 3.49512 23.725 4.07512 24.935 5.23512C26.515 6.75512 27.125 8.90512 26.725 10.9151C26.525 12.0151 26.015 13.0751 25.195 13.9551L25.035 14.1251L21.455 17.8551L20.635 18.7151L17.265 22.2251L17.225 22.2651L17.145 22.3551C16.435 23.0751 15.525 23.4851 14.595 23.5751C14.455 23.5851 14.325 23.5951 14.185 23.5951C13.155 23.5951 12.115 23.2151 11.305 22.4451C10.395 21.5651 9.96502 20.3751 10.035 19.2051C10.085 18.2451 10.475 17.3151 11.185 16.5651L14.635 12.9751L15.055 12.5351L15.455 12.1151L15.795 11.7751L18.415 9.04512L19.135 9.73512L16.515 12.4551L16.305 12.6851L15.765 13.2451L15.595 13.4151L13.785 15.3051L11.955 17.2051L11.875 17.2851Z" fill="#0D2B49"/>
</svg>
