<svg width="32" height="32" viewBox="0 0 32 32" fill="none" xmlns="http://www.w3.org/2000/svg">
<path d="M13.325 3.49512V2.84512C13.325 2.74512 13.315 2.65512 13.285 2.55512C13.255 2.45512 13.205 2.36512 13.145 2.28512C13.075 2.19512 12.995 2.12512 12.895 2.07512C12.785 2.01512 12.675 2.00512 12.565 1.99512H10.445C10.335 1.99512 10.205 2.02512 10.095 2.07512C9.995 2.12512 9.915 2.19512 9.845 2.28512C9.785 2.36512 9.735 2.45512 9.705 2.55512C9.67499 2.65512 9.665 2.74512 9.665 2.84512V3.49512H4.995V29.9951H16.995V28.9951H15.995V10.4951H17.495V19.6951C17.755 19.3951 18.095 19.1751 18.495 19.0751V10.4951H23.995V19.0051H24.995V10.4951H25.995V19.0051H26.995V3.49512H13.325ZM6.995 28.9951H5.995V10.4951H6.995V28.9951ZM7.885 6.99512C7.885 7.32512 7.795 7.75512 7.705 7.93512C7.595 8.12512 7.445 8.27512 7.285 8.34512L6.995 8.48512V9.49512H5.995V4.49512H8.77499V4.92512C8.77499 5.00512 8.76499 5.08512 8.73499 5.16512C8.71499 5.23512 8.685 5.29512 8.645 5.34512C8.615 5.38512 8.575 5.41512 8.545 5.43512L8.385 5.45512H7.885V6.99512ZM14.995 28.9951H7.995V27.9951H14.995V28.9951ZM10.495 26.9951V21.9951H12.495V26.9951H10.495ZM14.995 26.9951H13.495V20.9951H9.495V26.9951H7.995V19.9951H14.995V26.9951ZM10.495 18.9951V13.4951H12.495V18.9951H10.495ZM14.995 18.9951H13.495V12.4951H9.495V18.9951H7.995V10.4951H14.995V18.9951ZM14.995 9.49512H7.995V9.08512C8.225 8.91512 8.42499 8.69512 8.575 8.41512C8.785 8.02512 8.885 7.40512 8.885 6.99512V6.37512C8.925 6.36512 8.975 6.34512 9.015 6.31512C9.175 6.23512 9.315 6.11512 9.435 5.95512C9.545 5.81512 9.635 5.64512 9.685 5.46512C9.715 5.39512 9.73499 5.31512 9.745 5.23512C9.805 5.21512 9.85499 5.19512 9.90499 5.16512C10.065 5.07512 10.205 4.95512 10.325 4.80512C10.395 4.71512 10.455 4.60512 10.495 4.49512C10.535 4.43512 10.555 4.37512 10.575 4.31512C10.635 4.13512 10.665 3.95512 10.665 3.76512V3.49512L10.655 2.99512H12.325V3.76512C12.325 3.95512 12.355 4.13512 12.415 4.31512C12.435 4.37512 12.455 4.43512 12.495 4.49512C12.535 4.60512 12.595 4.71512 12.665 4.80512C12.785 4.95512 12.925 5.07512 13.085 5.16512C13.135 5.19512 13.185 5.21512 13.245 5.23512C13.255 5.31512 13.275 5.39512 13.305 5.46512C13.355 5.64512 13.445 5.81512 13.555 5.95512C13.675 6.11512 13.815 6.23512 13.975 6.32512C14.015 6.34512 14.065 6.36512 14.105 6.37512V6.99512C14.105 7.40512 14.205 8.02512 14.415 8.41512C14.565 8.69512 14.765 8.91512 14.995 9.08512V9.49512ZM22.495 9.49512H19.995V7.61512L21.245 6.63512L22.495 7.61512V9.49512ZM25.995 9.49512H23.495V7.12512L21.245 5.35512L18.995 7.12512V9.49512H15.995V8.48512L15.705 8.34512C15.545 8.27512 15.395 8.12512 15.285 7.93512C15.195 7.75512 15.105 7.32512 15.105 6.99512V5.45512L14.445 5.43512C14.415 5.41512 14.375 5.38512 14.345 5.34512C14.305 5.29512 14.275 5.23512 14.255 5.16512C14.225 5.08512 14.215 5.00512 14.215 4.91512V4.49512H25.995V9.49512ZM19.495 19.0051H20.495V13.4951H21.995V19.0051H22.995V12.4951H19.495V19.0051Z" fill="#0D2B49"/>
<path d="M27.999 23.5029H30.999V21.0029C30.999 20.4529 30.549 20.0029 29.999 20.0029H18.999C18.449 20.0029 17.999 20.4529 17.999 21.0029V30.0029C17.999 30.5529 18.449 31.0029 18.999 31.0029H29.999C30.549 31.0029 30.999 30.5529 30.999 30.0029V27.5029H28.089C27.149 27.5029 26.259 26.8929 26.049 25.9729C25.889 25.2429 26.119 24.5529 26.589 24.0929C26.949 23.7219 27.449 23.5029 27.999 23.5029ZM30.749 24.5029H27.999C27.729 24.5029 27.489 24.6029 27.289 24.8129C27.099 24.9929 26.999 25.2329 26.999 25.5029C26.999 26.0529 27.449 26.5029 27.999 26.5029H30.749C30.889 26.5029 30.999 26.3929 30.999 26.2529V24.7529C30.999 24.6119 30.879 24.5029 30.749 24.5029ZM29.409 26.0029C29.129 26.0029 28.909 25.7829 28.909 25.5029C28.909 25.2229 29.129 25.0029 29.409 25.0029C29.689 25.0029 29.909 25.2229 29.909 25.5029C29.909 25.7829 29.689 26.0029 29.409 26.0029Z" fill="#0D2B49"/>
</svg>
