<svg width="32" height="32" viewBox="0 0 32 32" fill="none" xmlns="http://www.w3.org/2000/svg">
<path d="M13.33 3.5V2.84998C13.33 2.75 13.32 2.65997 13.29 2.56C13.26 2.45996 13.21 2.37 13.15 2.28998C13.08 2.20001 13 2.13 12.9 2.07996C12.79 2.01996 12.68 2.01001 12.57 2H10.45C10.34 2 10.21 2.02997 10.1 2.07996C10 2.13 9.91998 2.20001 9.84998 2.28998C9.78998 2.37 9.73999 2.45996 9.71002 2.56C9.67999 2.65997 9.66998 2.75 9.66998 2.84998V3.5H5V30H27V3.5H13.33ZM7 29H6V10.5H7V29ZM7.89001 7C7.89001 7.32996 7.79999 7.76001 7.71002 7.94C7.59998 8.13 7.45001 8.27997 7.28998 8.34998L7 8.48999V9.5H6V4.5H8.78003V4.92999C8.78003 5.01001 8.77002 5.08997 8.73999 5.16998C8.71997 5.23999 8.69 5.29999 8.65002 5.34998C8.61999 5.39001 8.58002 5.41998 8.54999 5.44L8.39001 5.45996H7.89001V7ZM15 29H8V28H15V29ZM10.5 27V22H12.5V27H10.5ZM15 27H13.5V21H9.5V27H8V20H15V27ZM10.5 19V13.5H12.5V19H10.5ZM15 19H13.5V12.5H9.5V19H8V10.5H15V19ZM15 9.5H8V9.08997C8.22998 8.91998 8.42999 8.70001 8.58002 8.41998C8.78998 8.02997 8.89001 7.40997 8.89001 7V6.38C8.92999 6.36999 8.97998 6.34998 9.02002 6.32001C9.17999 6.23999 9.32001 6.12 9.44 5.95996C9.54999 5.82001 9.64001 5.64996 9.69 5.46997C9.71997 5.39996 9.73999 5.32001 9.75 5.23999C9.81 5.21997 9.85999 5.20001 9.90997 5.16998C10.07 5.07996 10.21 4.95996 10.33 4.81C10.4 4.71997 10.46 4.60999 10.5 4.5C10.54 4.44 10.56 4.38 10.58 4.32001C10.64 4.14001 10.67 3.95996 10.67 3.76996V3.5L10.66 3H12.33V3.76996C12.33 3.95996 12.36 4.14001 12.42 4.32001C12.44 4.38 12.46 4.44 12.5 4.5C12.54 4.60999 12.6 4.71997 12.67 4.81C12.79 4.95996 12.93 5.07996 13.09 5.16998C13.14 5.20001 13.19 5.21997 13.25 5.23999C13.26 5.32001 13.28 5.39996 13.31 5.46997C13.36 5.64996 13.45 5.82001 13.56 5.95996C13.68 6.12 13.82 6.23999 13.98 6.32996C14.02 6.34998 14.07 6.37 14.11 6.38V7C14.11 7.40997 14.21 8.02997 14.42 8.41998C14.57 8.70001 14.77 8.91998 15 9.08997V9.5ZM17.5 29H16V10.5H17.5V29ZM24 29H18.5V28H24V29ZM20.5 27V22H22V27H20.5ZM24 27H23V21H19.5V27H18.5V20H24V27ZM22 19H20.5V13.5H22V19ZM24 19H23V12.5H19.5V19H18.5V10.5H24V19ZM20 9.5V7.61999L21.25 6.64001L22.5 7.61999V9.5H20ZM26 29H25V10.5H26V29ZM26 9.5H23.5V7.13L21.25 5.35999L19 7.13V9.5H16V8.48999L15.71 8.34998C15.55 8.27997 15.4 8.13 15.29 7.94C15.2 7.76001 15.11 7.32996 15.11 7V5.45996L14.45 5.44C14.42 5.41998 14.38 5.39001 14.35 5.34998C14.31 5.29999 14.28 5.23999 14.26 5.16998C14.23 5.08997 14.22 5.01001 14.22 4.91998V4.5H26V9.5Z" fill="#0D2B49"/>
</svg>
