<svg width="32" height="32" viewBox="0 0 32 32" fill="none" xmlns="http://www.w3.org/2000/svg">
<path d="M16 30C8.28058 30 2 23.7194 2 16C2 8.28058 8.28058 2 16 2C23.7194 2 30 8.28058 30 16C30 23.7194 23.7194 30 16 30ZM29 16C29 8.83154 23.1685 3 16 3C8.83154 3 3 8.83154 3 16C3 23.1685 8.83154 29 16 29C23.1685 29 29 23.1685 29 16ZM18.7061 26H16.0293V24.3237H14.7939V26H12.1172V24.3237H8.76465V21.0884H10.9414C11.2812 21.0884 11.5586 20.8115 11.5586 20.4707V11.5293C11.5586 11.1885 11.2812 10.9116 10.9414 10.9116H8.76465V7.67627H12.1172V6H14.7939V7.67627H16.0293V6H18.7061V7.69092C20.8926 7.87158 22.6172 9.70947 22.6172 11.9429V12.2334C22.6172 13.2827 22.2383 14.2734 21.5586 15.0435C23.4717 16.2017 24.0078 18.5259 23.6553 20.3603C23.1934 22.7681 21.4443 24.3237 19.2002 24.3237H18.7061V26ZM17.0293 25H17.7061V23.3237H19.2002C21.3174 23.3237 22.3945 21.626 22.6728 20.1719C22.9893 18.5283 22.4473 16.4082 20.5127 15.6372L19.7119 15.3179L20.3877 14.7812C21.1689 14.1602 21.6172 13.2314 21.6172 12.2334V11.9429C21.6172 10.1416 20.1523 8.67627 18.3516 8.67627H17.7061V7H17.0293V8.67627H13.7939V7H13.1172V8.67627H9.76465V9.91162H10.9414C11.833 9.91162 12.5586 10.6372 12.5586 11.5293V20.4707C12.5586 21.3628 11.833 22.0884 10.9414 22.0884H9.76465V23.3237H13.1172V25H13.7939V23.3237H17.0293V25ZM18.2061 22.0884H14.3525V16.6177H18.2061C19.7139 16.6177 20.9414 17.8447 20.9414 19.353C20.9414 20.8613 19.7139 22.0884 18.2061 22.0884ZM15.3525 21.0884H18.2061C19.1631 21.0884 19.9414 20.3101 19.9414 19.353C19.9414 18.396 19.1631 17.6177 18.2061 17.6177H15.3525V21.0884ZM17.3672 14.8237H14.3525V9.91162H17.3672C18.7217 9.91162 19.8232 11.0132 19.8232 12.3677C19.8232 13.7222 18.7217 14.8237 17.3672 14.8237ZM15.3525 13.8237H17.3672C18.1699 13.8237 18.8232 13.1704 18.8232 12.3677C18.8232 11.5649 18.1699 10.9116 17.3672 10.9116H15.3525V13.8237Z" fill="#0D2B49"/>
</svg>
