<svg width="32" height="32" viewBox="0 0 32 32" fill="none" xmlns="http://www.w3.org/2000/svg">
<path d="M28 3.02256H24C23.65 3.02256 23.34 3.20295 23.16 3.47356C23.02 3.30314 22.83 3.20295 22.62 3.16288L20.25 2.76198C19.76 2.68179 19.29 3.01253 19.21 3.5036L18.77 6.12934L18.19 9.62699L16.17 21.6834L15.59 25.1811L15.5 25.7022V4.09492C15.5 3.5036 15.02 3.02256 14.43 3.02256H9.07001C8.87 3.02256 8.67999 3.08269 8.52002 3.17285C8.37 3.07266 8.19 3.02256 8 3.02256H4C3.45001 3.02256 3 3.47356 3 4.02476V28.0774C3 28.6286 3.45001 29.0796 4 29.0796H8C8.19 29.0796 8.37 29.0295 8.52002 28.9293C8.67999 29.0195 8.87 29.0796 9.07001 29.0796H14.43C14.83 29.0796 15.18 28.8591 15.36 28.5284C15.5 28.6988 15.68 28.799 15.89 28.8391L18.27 29.24C18.32 29.25 18.37 29.25 18.42 29.25C18.6 29.25 18.79 29.1899 18.94 29.0796C19.14 28.9393 19.27 28.7288 19.31 28.4883L19.75 25.8726L22.34 10.3185L22.93 6.82086L23 6.42002V28.0774C23 28.6286 23.45 29.0796 24 29.0796H28C28.55 29.0796 29 28.6286 29 28.0774V4.02476C29 3.47356 28.55 3.02256 28 3.02256ZM8 28.0774H4V25.572H8V28.0774ZM8 24.5698H4V23.0665H8V24.5698ZM8 22.0643H4V10.0379H8V22.0643ZM8 9.03573H4V7.53244H8V9.03573ZM8 6.53025H4V4.02476H8V6.53025ZM14.5 28.0073C14.5 28.0474 14.47 28.0774 14.43 28.0774L9 28.0073V25.572H14.5V28.0073ZM14.5 24.5698H9V23.0665H14.5V24.5698ZM14.5 22.0643H9.02002L9.04999 10.0379H14.5V22.0643ZM14.5 9.03573H9.06V7.53244H14.5V9.03573ZM14.5 6.53025H9.06L9.07001 4.02476L14.5 4.09492V6.53025ZM18.37 28.2378L16.15 27.867L16.57 25.3414L18.79 25.7123L18.37 28.2378ZM18.92 24.7201L16.74 24.3492L17 22.8359L19.18 23.1968L18.92 24.7201ZM19.37 22.2146L17.16 21.8438L19.17 9.78738L21.37 10.1582L19.37 22.2146ZM21.52 9.16602L19.34 8.80519L19.59 7.28189L21.78 7.64267L21.52 9.16602ZM21.95 6.66054L19.76 6.28973L20.18 3.76418L22.37 4.13498L21.95 6.66054ZM28 28.0774H24V25.572H28V28.0774ZM28 24.5698H24V23.0665H28V24.5698ZM28 22.0643H24V10.0379H28V22.0643ZM28 9.03573H24V7.53244H28V9.03573ZM28 6.53025H24V4.02476H28V6.53025ZM9 23.0665V24.5698H9.01001V23.0665H9ZM9 25.572V28.0073L9.01001 25.572H9ZM11.75 11.5412C10.64 11.5412 9.75 12.4432 9.75 13.5456C9.75 14.648 10.64 15.55 11.75 15.55C12.85 15.55 13.75 14.648 13.75 13.5456C13.75 12.4432 12.85 11.5412 11.75 11.5412ZM11.75 14.5478C11.2 14.5478 10.75 14.0968 10.75 13.5456C10.75 12.9944 11.2 12.5434 11.75 12.5434C12.3 12.5434 12.75 12.9944 12.75 13.5456C12.75 14.0968 12.3 14.5478 11.75 14.5478ZM6.5 12.0423V20.0599H5.5V12.0423H6.5ZM26.5 12.0423V20.0599H25.5V12.0423H26.5ZM13.5 18.0555V19.0577H10V18.0555H13.5Z" fill="#0D2B49"/>
</svg>
