<svg width="32" height="32" viewBox="0 0 32 32" fill="none" xmlns="http://www.w3.org/2000/svg">
<path d="M25 8.32007V6H29.5C29.78 6 30 5.78003 30 5.5C30 5.21997 29.78 5 29.5 5H28.77L26.92 2.21997C26.82 2.08008 26.66 2.01001 26.5 2.01001V2H6.5V2.01001C6.34003 2.01001 6.17999 2.08008 6.08002 2.21997L4.23004 5H2.5C2.22003 5 2 5.21997 2 5.5C2 5.78003 2.22003 6 2.5 6H5.5V12H4V18.5H8V12H6.5V6H9V11.5H10V20H7.17004L2.73004 30H29.27L24.83 20H13V11.5H14V6H24V8.32007L22.26 10.5H19V17H30V10.5H26.74L25 8.32007ZM27.57 5H25.43L26.5 3.3999L27.57 5ZM7 13V17.5H5V13H7ZM5.42999 5L6.5 3.3999L7.57001 5H5.42999ZM9.23004 5H8.77002L7.42999 3H10.57L9.23004 5ZM11.5 3.3999L12.57 5H10.43L11.5 3.3999ZM14 26V27H9V26H14ZM11 25V11.5H12V25H11ZM6.5 29H4.27002L7.83002 21H10V25H8V27H6.5V29ZM15.5 29H7.5V28H15.5V29ZM24.17 21L27.73 29H16.5V27H15V25H13V21H24.17ZM13 10.5H10V6H13V10.5ZM13.77 5L12.43 3H15.57L14.23 5H13.77ZM15.43 5L16.5 3.3999L17.57 5H15.43ZM18.77 5L17.43 3H20.57L19.23 5H18.77ZM20.43 5L21.5 3.3999L22.57 5H20.43ZM23.77 5L22.43 3H25.57L24.23 5H23.77ZM24.5 9.30005L25.46 10.5H23.54L24.5 9.30005ZM29 16H20V11.5H29V16Z" fill="#0D2B49"/>
</svg>
