<svg width="32" height="32" viewBox="0 0 32 32" fill="none" xmlns="http://www.w3.org/2000/svg">
<path d="M16.704 15.4165L17 15.49V16.806C17 17.0781 16.856 17.328 16.608 17.4751L16 17.85L15.392 17.4751C15.144 17.328 15 17.0781 15 16.806V15.49L15.296 15.4165C15.656 15.3283 16.344 15.3283 16.704 15.4165ZM25.3818 11.7724H6.74121C6.74121 11.7724 8.61902 8.10176 8.62012 8.09957C9.12915 7.10457 10.2197 6.95853 11.2419 6.83067C12.9014 6.62306 14.5778 6.52675 16.25 6.52675C17.717 6.52675 19.1872 6.56624 20.6457 6.73315C21.8775 6.87412 23.2526 6.91697 23.8203 8.21143L25.3818 11.7724ZM8.37598 10.7725H23.8517C23.2961 9.50346 23.0398 8.91051 22.9216 8.60549L22.9045 8.613C22.6415 8.01321 22.0704 7.89225 20.8301 7.75921L20.532 7.72656C18.9836 7.54934 17.4303 7.52664 16.25 7.52664C14.5802 7.52664 12.9369 7.62629 11.366 7.82281C10.3815 7.94596 9.76526 8.05673 9.51044 8.5549L8.37598 10.7725ZM30 16.0302V25.0692C30 25.8591 29.36 26.499 28.57 26.499H26.43C25.64 26.499 25 25.8591 25 25.0692V23.9993H7V25.0692C7 25.8591 6.35999 26.499 5.57001 26.499H3.42999C2.64001 26.499 2 25.8591 2 25.0692V16.0302C2 15.7802 2 14.9304 2 14.7504C2 14.0705 2.25 13.4506 2.65002 12.9706C2.25 12.6006 2 12.0807 2 11.5008C2 10.4009 2.90002 9.50101 4 9.50101C4.64001 9.50101 5.21002 9.80097 5.57001 10.2709L7.33002 7.17127C7.88 6.21136 8.81 5.57148 9.89001 5.42147L10.04 5.41147C14.15 4.86154 18.35 4.86154 22.49 5.41147C23.64 5.56147 24.64 6.29137 25.16 7.37126L26.52 10.1609C26.89 9.75099 27.42 9.50101 28 9.50101C29.1 9.50101 30 10.4009 30 11.5008C30 12.0807 29.75 12.6006 29.35 12.9706C29.75 13.4506 30 14.0705 30 14.7504C30 14.9204 30 15.7702 30 16.0302ZM27.04 11.2308C27.01 11.3108 27 11.4108 27 11.5008C27 11.6808 27.05 11.8507 27.14 12.0007H27.25C27.7 12.0007 28.13 12.1107 28.5 12.3007C28.52 12.3107 28.54 12.3207 28.56 12.3306C28.82 12.1507 29 11.8407 29 11.5008C29 10.9509 28.55 10.5009 28 10.5009C27.54 10.5009 27.16 10.8109 27.04 11.2308ZM28.41 13.4605C28.26 13.3106 28.09 13.2006 27.9 13.1306C27.7 13.0406 27.48 13.0006 27.25 13.0006C27.09 13.0006 26.93 13.0206 26.78 13.0806C26.04 13.2705 25.5 13.9505 25.5 14.7504C25.5 15.7102 26.29 16.5002 27.25 16.5002C28.04 16.5002 28.72 15.9602 28.92 15.2303C28.98 15.0803 29 14.9204 29 14.7504C29 14.2304 28.77 13.7705 28.41 13.4605ZM3.08002 15.2203C3.27002 15.9602 3.95001 16.5002 4.75 16.5002C5.71002 16.5002 6.5 15.7102 6.5 14.7504C6.5 13.9505 5.96002 13.2705 5.21997 13.0806C5.07001 13.0206 4.90997 13.0006 4.75 13.0006C4.51001 13.0006 4.28998 13.0506 4.08002 13.1406C3.90002 13.2105 3.72998 13.3206 3.59003 13.4605C3.22998 13.7705 3 14.2304 3 14.7504C3 14.9104 3.02002 15.0704 3.08002 15.2203ZM3.44 12.3306C3.46002 12.3207 3.47998 12.3107 3.51001 12.3007C3.88 12.1107 4.29999 12.0007 4.75 12.0007H4.85999C4.95001 11.8507 5 11.6808 5 11.5008C5 11.4108 4.98999 11.3308 4.96997 11.2508C4.85999 10.8209 4.46002 10.5009 4 10.5009C3.45001 10.5009 3 10.9509 3 11.5008C3 11.8407 3.17999 12.1507 3.44 12.3306ZM3 19.9998H7.5V18.9999H3V19.9998ZM6 20.9997H3V25.0692C3 25.3092 3.19 25.4991 3.42999 25.4991H5.57001C5.81 25.4991 6 25.3092 6 25.0692V20.9997ZM25 22.9994V20.9997H7V22.9994H25ZM29 20.9997H26V25.0692C26 25.3092 26.19 25.4991 26.43 25.4991H28.57C28.81 25.4991 29 25.3092 29 25.0692V20.9997ZM29 19.9998V18.9999H24.5V19.9998H29ZM29 18V16.8802C28.53 17.2601 27.92 17.5001 27.25 17.5001C25.73 17.5001 24.5 16.2702 24.5 14.7504C24.5 13.6305 25.17 12.6606 26.14 12.2407C26.05 12.0107 26 11.7608 26 11.5008C26 11.4607 26 11.4208 26.01 11.3808V11.3708L24.26 7.81121C23.89 7.03127 23.18 6.51137 22.36 6.40134C18.3 5.87143 14.2 5.87143 10.15 6.40134L10 6.42136C9.26001 6.52132 8.59003 6.98129 8.19 7.67121L6 11.5307C6 11.7807 5.95001 12.0207 5.85999 12.2407C6.83002 12.6606 7.5 13.6305 7.5 14.7504C7.5 16.2702 6.27002 17.5001 4.75 17.5001C4.08002 17.5001 3.46997 17.2601 3 16.8802V18H8.5V19.9998H23.5V18H29ZM8.5 13.5005H24V12.5007H8.5V13.5005Z" fill="#0D2B49"/>
</svg>
