<svg width="32" height="32" viewBox="0 0 32 32" fill="none" xmlns="http://www.w3.org/2000/svg">
<path d="M29 21.5918V17.5C29 17.24 28.98 16.99 28.94 16.75C29.29 16.26 29.5 15.65 29.5 15C29.5 13.35 28.15 12 26.5 12C26.09 12 25.7 12.08 25.35 12.24L23.82 4.98999C23.58 3.82996 22.55 3 21.38 3H10.12C8.95001 3 7.91998 3.82996 7.67999 4.97998L6.17999 12.08C5.96002 12.03 5.72998 12 5.5 12C3.84998 12 2.5 13.35 2.5 15C2.5 15.65 2.71002 16.26 3.06 16.75C3.02002 16.99 3 17.24 3 17.5V21.5918C2.41876 21.7984 2 22.3478 2 23C2 23.8284 2.67157 24.5 3.5 24.5V27.5223C3.5 27.7861 3.71393 28 3.97772 28H7.52228C7.78613 28 8 27.7861 8 27.5223V24.5H24V27.5223C24 27.7861 24.2139 28 24.4777 28H28.0223C28.2861 28 28.5 27.7861 28.5 27.5223V24.5C29.3284 24.5 30 23.8284 30 23C30 22.3478 29.5812 21.7984 29 21.5918ZM4 17.6C4.44 17.85 4.96002 18 5.5 18C7.15002 18 8.5 16.65 8.5 15C8.5 14.46 8.34998 13.94 8.09998 13.5H9.59558C9.53558 13.8248 9.5 14.1581 9.5 14.5V21.5H4V17.6ZM10.5 14.5C10.5 14.1552 10.5471 13.8228 10.6208 13.5H11.75V21.5H10.5V14.5ZM10.9901 12.5C11.7294 11.0247 13.2404 10 15 10H17C18.7596 10 20.2706 11.0247 21.0099 12.5H10.9901ZM12.75 13.5H14.25V21.5H12.75V13.5ZM15.25 13.5H16.75V21.5H15.25V13.5ZM17.75 13.5H19.25V21.5H17.75V13.5ZM20.25 13.5H21.3791C21.4529 13.8228 21.5 14.1552 21.5 14.5V21.5H20.25V13.5ZM22.4044 13.5H23.9C23.65 13.94 23.5 14.46 23.5 15C23.5 16.65 24.85 18 26.5 18C27.04 18 27.56 17.85 28 17.6V21.5H22.5V14.5C22.5 14.1581 22.4644 13.8248 22.4044 13.5ZM26.5 13C27.6 13 28.5 13.9 28.5 15C28.5 15.1 28.49 15.19 28.48 15.28C28.41 15.74 28.19 16.16 27.86 16.46C27.51 16.8 27.03 17 26.5 17C25.4 17 24.5 16.1 24.5 15C24.5 14.47 24.7 13.99 25.04 13.64C25.09 13.59 25.14 13.54 25.19 13.5C25.3 13.39 25.43 13.31 25.56 13.23C25.76 13.13 25.98 13.05 26.22 13.02C26.31 13.01 26.4 13 26.5 13ZM8.65997 5.19C8.79999 4.5 9.41998 4 10.12 4H21.38C22.08 4 22.7 4.5 22.84 5.19L24.38 12.5H22.1179C21.3155 10.4545 19.3262 9 17 9H15C12.6738 9 10.6845 10.4545 9.88208 12.5H7.15997C7.14001 12.49 7.13 12.48 7.11999 12.48L8.65997 5.19ZM3.5 15C3.5 13.9 4.40002 13 5.5 13C5.59998 13 5.69 13.01 5.78003 13.02C5.84998 13.03 5.90997 13.04 5.96997 13.06C6.28998 13.13 6.57001 13.28 6.81 13.5C6.85998 13.54 6.90997 13.59 6.96002 13.64C7.29999 13.99 7.5 14.47 7.5 15C7.5 16.1 6.59998 17 5.5 17C4.96997 17 4.48999 16.8 4.14001 16.46C3.81 16.16 3.59003 15.74 3.52002 15.28C3.51001 15.19 3.5 15.1 3.5 15ZM7 27H4.5V24.5H7V27ZM27.5 27H25V24.5H27.5V27ZM28.5 23.5H3.5C3.2243 23.5 3 23.2757 3 23C3 22.7243 3.2243 22.5 3.5 22.5H28.5C28.7757 22.5 29 22.7243 29 23C29 23.2757 28.7757 23.5 28.5 23.5ZM4 11.5C5.10254 11.5 6 10.7148 6 9.75C6 8.78516 5.10254 8 4 8C2.89746 8 2 8.78516 2 9.75C2 10.7148 2.89746 11.5 4 11.5ZM4 9C4.54199 9 5 9.34326 5 9.75C5 10.1567 4.54199 10.5 4 10.5C3.45801 10.5 3 10.1567 3 9.75C3 9.34326 3.45801 9 4 9ZM28 11.5C29.1025 11.5 30 10.7148 30 9.75C30 8.78516 29.1025 8 28 8C26.8975 8 26 8.78516 26 9.75C26 10.7148 26.8975 11.5 28 11.5ZM28 9C28.542 9 29 9.34326 29 9.75C29 10.1567 28.542 10.5 28 10.5C27.458 10.5 27 10.1567 27 9.75C27 9.34326 27.458 9 28 9Z" fill="#0D2B49"/>
</svg>
