<svg width="32" height="32" viewBox="0 0 32 32" fill="none" xmlns="http://www.w3.org/2000/svg">
<path d="M12.5 18.5C13.0514 18.5 13.5 18.9486 13.5 19.5V22H4.5V19.5C4.5 18.9486 4.94861 18.5 5.5 18.5H12.5ZM12.5 17.5H5.5C4.39542 17.5 3.5 18.3954 3.5 19.5V23H14.5V19.5C14.5 18.3954 13.6046 17.5 12.5 17.5ZM26.5 18.5C27.0514 18.5 27.5 18.9486 27.5 19.5V22H18.5V19.5C18.5 18.9486 18.9486 18.5 19.5 18.5H26.5ZM26.5 17.5H19.5C18.3954 17.5 17.5 18.3954 17.5 19.5V23H28.5V19.5C28.5 18.3954 27.6046 17.5 26.5 17.5ZM9 10.5C10.2407 10.5 11.25 11.5093 11.25 12.75C11.25 13.9907 10.2407 15 9 15C7.75934 15 6.75 13.9907 6.75 12.75C6.75 11.5093 7.75934 10.5 9 10.5ZM9 9.5C7.20508 9.5 5.75 10.9551 5.75 12.75C5.75 14.5449 7.20508 16 9 16C10.7949 16 12.25 14.5449 12.25 12.75C12.25 10.9551 10.7949 9.5 9 9.5ZM23 10.5C24.2407 10.5 25.25 11.5093 25.25 12.75C25.25 13.9907 24.2407 15 23 15C21.7593 15 20.75 13.9907 20.75 12.75C20.75 11.5093 21.7593 10.5 23 10.5ZM23 9.5C21.2051 9.5 19.75 10.9551 19.75 12.75C19.75 14.5449 21.2051 16 23 16C24.7949 16 26.25 14.5449 26.25 12.75C26.25 10.9551 24.7949 9.5 23 9.5ZM24.8564 24.8218L24.1475 24.1157C21.9746 26.2983 19.0811 27.5 16 27.5C13.9133 27.5 11.8906 26.9346 10.1144 25.873L10.7108 25.0922L7.74414 24.7087L8.89484 27.4698L9.50427 26.6718C11.4592 27.8646 13.6938 28.5 16 28.5C19.3486 28.5 22.4941 27.1938 24.8564 24.8218ZM24.7538 7.79199L23.7729 4.966L23.1118 5.73059C21.0171 4.27551 18.5702 3.5 16 3.5C12.6348 3.5 9.47852 4.81787 7.1123 7.21094L7.82324 7.91406C10 5.7124 12.9043 4.5 16 4.5C18.3282 4.5 20.5471 5.19208 22.4542 6.49103L21.816 7.229L24.7538 7.79199Z" fill="#0D2B49"/>
</svg>
