<svg width="32" height="32" viewBox="0 0 32 32" fill="none" xmlns="http://www.w3.org/2000/svg">
<path d="M27.5 17.5V17.53C27.51 17.52 27.52 17.51 27.53 17.5H27.5ZM27.5 22.75V22.79C27.51 22.78 27.52 22.76 27.53 22.75H27.5ZM13.47 22.75C13.48 22.76 13.49 22.77 13.5 22.78V22.75H13.47ZM4.46997 16C4.47998 16.01 4.48999 16.02 4.5 16.03V16H4.46997ZM4.46997 10.75C4.47998 10.76 4.48999 10.77 4.5 10.78V10.75H4.46997ZM13.47 17.5C13.48 17.51 13.49 17.52 13.5 17.53V17.5H13.47ZM27.5 17.5V17.53C27.51 17.52 27.52 17.51 27.53 17.5H27.5ZM27.5 22.75V22.79C27.51 22.78 27.52 22.76 27.53 22.75H27.5ZM13.47 22.75C13.48 22.76 13.49 22.77 13.5 22.78V22.75H13.47ZM13.47 17.5C13.48 17.51 13.49 17.52 13.5 17.53V17.5H13.47ZM4.46997 16C4.47998 16.01 4.48999 16.02 4.5 16.03V16H4.46997ZM4.46997 10.75C4.47998 10.76 4.48999 10.77 4.5 10.78V10.75H4.46997ZM28.49 14.75C28.29 11.97 24.78 9.75 20.5 9.75C20.16 9.75 19.83 9.76001 19.5 9.79999V8.25C19.5 8.16998 19.5 8.07996 19.49 8C19.29 5.21997 15.78 3 11.5 3C7.09003 3 3.5 5.34998 3.5 8.25C3.5 8.32996 3.5 8.41998 3.51001 8.5H3.5V16C3.5 16.17 3.51001 16.33 3.53998 16.5C3.91998 19.16 7.34998 21.25 11.5 21.25C11.84 21.25 12.17 21.24 12.5 21.2V22.75C12.5 22.92 12.51 23.08 12.54 23.25C12.92 25.91 16.35 28 20.5 28C24.91 28 28.5 25.65 28.5 22.75V15C28.5 14.92 28.5 14.83 28.49 14.75ZM19.5 10.79C20.24 10.72 20.99 10.74 21.73 10.82C23.16 10.97 24.62 11.39 25.81 12.23C26.69 12.86 27.47 13.79 27.5 14.92V15C27.5 17.34 24.36 19.25 20.5 19.25C19.65 19.25 18.83 19.16 18.08 18.98C17.68 18.9 17.31 18.79 16.95 18.65C16.45 18.48 15.99 18.26 15.58 18.02C15.22 17.8 14.89 17.56 14.61 17.29C14.14 16.85 13.8 16.35 13.63 15.81C13.54 15.55 13.5 15.28 13.5 15C13.5 14.94 13.5 14.88 13.52 14.82C13.55 14.24 13.78 13.69 14.17 13.2C14.36 12.97 14.56 12.75 14.79 12.55C15.03 12.34 15.3 12.15 15.58 11.98C15.88 11.8 16.2 11.64 16.52 11.51C17.47 11.11 18.48 10.88 19.5 10.79ZM13.5 20.03C13.51 20.04 13.52 20.06 13.53 20.07C13.78 20.36 14.08 20.64 14.4 20.89C15.87 22.03 18.06 22.75 20.5 22.75C23.51 22.75 26.14 21.65 27.5 20.03V20.25C27.5 22.59 24.36 24.5 20.5 24.5C17.09 24.5 14.25 23.01 13.63 21.05C13.54 20.79 13.5 20.53 13.5 20.25V20.03ZM13.47 17.5H13.5V17.53C13.49 17.52 13.48 17.51 13.47 17.5ZM20.5 21.75C18.57 21.75 16.82 21.27 15.56 20.51C15.21 20.29 14.9 20.06 14.63 19.8C14.22 19.42 13.91 19 13.72 18.55C13.59 18.24 13.51 17.91 13.5 17.57V17.54L13.53 17.57C13.78 17.86 14.07 18.14 14.39 18.39C14.4 18.39 14.4 18.39 14.4 18.39C14.84 18.74 15.35 19.04 15.91 19.3C16.28 19.47 16.68 19.62 17.09 19.75C18.13 20.07 19.29 20.25 20.5 20.25C23.51 20.25 26.13 19.16 27.5 17.54C27.46 19.86 24.34 21.75 20.5 21.75ZM11.5 4C15.36 4 18.5 5.90997 18.5 8.25C18.5 8.89996 18.26 9.51001 17.82 10.06C16.07 10.46 14.6 11.26 13.65 12.29C12.97 12.43 12.25 12.5 11.5 12.5C7.64001 12.5 4.5 10.59 4.5 8.25C4.5 5.90997 7.64001 4 11.5 4ZM4.5 10.75V10.78C4.48999 10.77 4.47998 10.76 4.46997 10.75H4.5ZM4.5 16V16.03C4.48999 16.02 4.47998 16.01 4.46997 16H4.5ZM12.5 20.2C12.18 20.24 11.84 20.25 11.5 20.25C7.65997 20.25 4.53998 18.36 4.5 16.04C5.86999 17.66 8.48999 18.75 11.5 18.75C11.84 18.75 12.17 18.74 12.5 18.71V20.2ZM12.5 17.7C12.17 17.74 11.84 17.75 11.5 17.75C7.64001 17.75 4.5 15.84 4.5 13.5V13.28C5.85999 14.9 8.48999 16 11.5 16C11.84 16 12.17 15.99 12.5 15.96V17.7ZM12.5 14.95C12.18 14.99 11.84 15 11.5 15C7.65997 15 4.53998 13.11 4.5 10.79C5.86999 12.41 8.48999 13.5 11.5 13.5C11.97 13.5 12.43 13.47 12.87 13.42C12.64 13.9 12.51 14.42 12.5 14.95ZM13.5 22.75V22.78C13.49 22.77 13.48 22.76 13.47 22.75H13.5ZM27.5 22.79C27.46 25.11 24.34 27 20.5 27C16.66 27 13.54 25.11 13.5 22.79C14.87 24.41 17.49 25.5 20.5 25.5C23.51 25.5 26.13 24.41 27.5 22.79V22.75H27.53C27.52 22.76 27.51 22.78 27.5 22.79ZM27.5 17.53V17.5H27.53C27.52 17.51 27.51 17.52 27.5 17.53Z" fill="#0D2B49"/>
</svg>
