<svg width="32" height="32" viewBox="0 0 32 32" fill="none" xmlns="http://www.w3.org/2000/svg">
<path d="M28 5.30104V3.82735H26V2H6V3.82735H4V5.30104H2V26.4238H4V28.3888H6V30H26V28.3888H28V26.4238H30V5.30104H28ZM4 25.4414H3V6.28349H4V25.4414ZM6 27.4063H5V4.80981H6V27.4063ZM25 29.0175H7V2.98246H25V29.0175ZM27 27.4063H26V4.80981H27V27.4063ZM29 25.4414H28V6.28349H29V25.4414ZM21 15.2632H20C19.72 15.2632 19.5 15.047 19.5 14.7719V8.87719C19.5 7.84557 19.03 6.91228 18.29 6.28349C17.68 5.75293 16.87 5.4386 16 5.4386H15C14.12 5.4386 13.32 5.75293 12.71 6.28349C12.04 6.85328 11.59 7.66873 11.52 8.58241C11.5 8.68069 11.5 8.77891 11.5 8.87719V17.621C10.43 18.7803 10.4 19.5171 10.42 20.0772V27.4947H22.5V16.7368C22.5 15.9214 21.83 15.2632 21 15.2632ZM20.7 16.2456H21C21.28 16.2456 21.5 16.4617 21.5 16.7368V18.4856L16.87 22.5824C16.58 22.3957 16.25 22.2189 15.86 22.101C15.76 22.0617 15.66 22.0322 15.56 22.0126C15.51 21.993 15.45 21.9831 15.4 21.9733C15.35 21.9635 15.3 21.9537 15.24 21.9438C15.22 21.934 15.2 21.9242 15.18 21.934C15.11 21.9143 15.03 21.9045 14.95 21.8947C14.93 21.8849 14.92 21.8849 14.9 21.8947C14.78 21.8751 14.66 21.8652 14.54 21.8652L20.7 16.2456ZM16.94 23.9382H14.77L15.37 22.9754C16.12 23.1817 16.63 23.5845 16.94 23.9382ZM16.15 19.0554C14.38 18.8294 13.62 17.5719 13.39 17.0807C14.17 16.1866 14.44 15.4596 14.49 14.2807H15C15.56 14.2807 16.09 14.094 16.5 13.7895V18.7312L16.15 19.0554ZM16 6.42105C17.38 6.42105 18.5 7.5214 18.5 8.87719V14.7719C18.5 15.3712 18.86 15.882 19.38 16.1081L17.5 17.8175V8.87719C17.5 7.5214 16.38 6.42105 15 6.42105H16ZM12.5 8.87719C12.5 8.77891 12.52 8.68069 12.53 8.58241C12.55 8.48419 12.58 8.39574 12.62 8.30735C12.65 8.2189 12.7 8.14035 12.75 8.06174C12.76 8.0519 12.76 8.04207 12.77 8.03223C12.82 7.95368 12.88 7.89474 12.94 7.83573C13.01 7.76701 13.08 7.70807 13.16 7.6589C13.24 7.59995 13.33 7.55084 13.42 7.5214C13.51 7.48206 13.6 7.45262 13.7 7.43295C13.8 7.41328 13.9 7.40351 14 7.40351H15C15.83 7.40351 16.5 8.06174 16.5 8.87719V11.8246C16.5 12.64 15.83 13.2982 15 13.2982H14C13.17 13.2982 12.5 12.64 12.5 11.8246V8.87719ZM12.5 13.7895C12.78 14.0056 13.12 14.153 13.49 14.2315C13.45 15.1944 13.26 15.7642 12.5 16.5993V13.7895ZM12.58 17.9256C12.61 17.8961 12.64 17.8666 12.67 17.847C13.06 18.4954 13.84 19.4582 15.25 19.861L13.17 21.7768H13.16C11.75 21.5607 11.45 20.9123 11.42 20.2442V20.1361C11.4 19.6154 11.39 19.0849 12.58 17.9256ZM14.29 22.828L13.6 23.9284C13.29 23.9186 13.01 23.8203 12.83 23.6926L11.42 22.2386V22.16C12.07 22.6021 13.01 22.828 14.25 22.828H14.29ZM14.06 26.5024L11.42 26.5122V23.6631L12.17 24.4294C12.63 24.8421 13.02 24.9207 13.67 24.9207H14.27L14.2 25.4414L14.07 26.4238L14.06 26.5024ZM21.5 26.5122H15.07L15.08 26.4238L15.21 25.4414L15.28 24.9207H17.88C18.16 24.9207 18.38 24.6947 18.38 24.4294C18.38 24.3509 18.36 24.2723 18.32 24.2035C18.32 24.1936 18.31 24.174 18.29 24.1445C18.22 23.9971 18.02 23.6238 17.63 23.221L21.5 19.8021V26.5122Z" fill="#0D2B49"/>
</svg>
