<svg width="32" height="32" viewBox="0 0 32 32" fill="none" xmlns="http://www.w3.org/2000/svg">
<path d="M22 6.02152V4.02335H20V2H12V4.02335H10V6.02152H8V29.5H24V6.02152H22ZM13 2.99908H19V4.02335H13V2.99908ZM11 5.02244H21V6.02152H11V5.02244ZM17.5 28.5009H14V26.5027H17.5V28.5009ZM23 28.5009H18.5V25.5037H13V28.5009H9V7.02061H23V28.5009ZM10.5 15.0133H12.5V17.0114H10.5V15.0133ZM13.5 15.0133H15.5V17.0114H13.5V15.0133ZM16.5 15.0133H18.5V17.0114H16.5V15.0133ZM19.5 15.0133H21.5V17.0114H19.5V15.0133ZM10.5 11.5165H12.5V13.5147H10.5V11.5165ZM13.5 11.5165H15.5V13.5147H13.5V11.5165ZM16.5 11.5165H18.5V13.5147H16.5V11.5165ZM19.5 11.5165H21.5V13.5147H19.5V11.5165ZM10.5 8.01969H12.5V10.0179H10.5V8.01969ZM13.5 8.01969H15.5V10.0179H13.5V8.01969ZM16.5 8.01969H18.5V10.0179H16.5V8.01969ZM19.5 8.01969H21.5V10.0179H19.5V8.01969ZM10.5 18.5101H12.5V20.5082H10.5V18.5101ZM13.5 18.5101H15.5V20.5082H13.5V18.5101ZM16.5 18.5101H18.5V20.5082H16.5V18.5101ZM19.5 18.5101H21.5V20.5082H19.5V18.5101ZM10.5 22.0069H12.5V24.005H10.5V22.0069ZM13.5 22.0069H15.5V24.005H13.5V22.0069ZM16.5 22.0069H18.5V24.005H16.5V22.0069ZM19.5 22.0069H21.5V24.005H19.5V22.0069Z" fill="#0D2B49"/>
</svg>
