<svg width="32" height="32" viewBox="0 0 32 32" fill="none" xmlns="http://www.w3.org/2000/svg">
<path d="M27.359 3.5H4.641C4.011 3.5 3.5 4.011 3.5 4.641V19.859C3.5 20.489 4.011 21 4.641 21H12V24.5H9.382C9.171 24.5 9 24.671 9 24.882V27.618C9 27.829 9.171 28 9.382 28H22.618C22.829 28 23 27.829 23 27.618V24.882C23 24.671 22.829 24.5 22.618 24.5H20V21H27.359C27.989 21 28.5 20.489 28.5 19.859V4.641C28.5 4.011 27.989 3.5 27.359 3.5ZM22 27H10V25.5H22V27ZM19 24.5H13V21H19V24.5ZM27.5 19.859C27.5 19.937 27.437 20 27.359 20H4.641C4.563 20 4.5 19.937 4.5 19.859V4.641C4.5 4.563 4.563 4.5 4.641 4.5H27.359C27.437 4.5 27.5 4.563 27.5 4.641V19.859Z" fill="#0D2B49"/>
<path fill-rule="evenodd" clip-rule="evenodd" d="M19.461 14.1548C19.272 14.5788 19.181 14.7688 18.938 15.1428C18.598 15.6658 18.118 16.3198 17.525 16.3238C16.997 16.3288 16.861 15.9758 16.144 15.9818C15.428 15.9848 15.279 16.3308 14.75 16.3248C14.156 16.3198 13.702 15.7308 13.362 15.2088C12.41 13.7438 12.31 12.0258 12.898 11.1118C13.314 10.4638 13.972 10.0828 14.59 10.0828C15.22 10.0828 15.616 10.4328 16.136 10.4328C16.641 10.4328 16.949 10.0828 17.677 10.0828C18.227 10.0828 18.809 10.3858 19.226 10.9088C17.865 11.6638 18.086 13.6288 19.461 14.1548ZM17.124 9.4978C17.389 9.1538 17.59 8.6688 17.517 8.1748C17.085 8.2048 16.58 8.4838 16.285 8.8448C16.017 9.1738 15.795 9.6628 15.882 10.1358C16.353 10.1508 16.841 9.8658 17.124 9.4978Z" fill="#0D2B49"/>
</svg>
