<svg width="32" height="32" viewBox="0 0 32 32" fill="none" xmlns="http://www.w3.org/2000/svg">
<path d="M13.5 18H10V22H13.5V18ZM12.5 21H11V19H12.5V21ZM22 18H15V22H22V18ZM21 21H16V19H21V21ZM13.5 12.5H10V16.5H13.5V12.5ZM12.5 15.5H11V13.5H12.5V15.5ZM22 12.5H15V16.5H22V12.5ZM21 15.5H16V13.5H21V15.5ZM13.5 7H10V11H13.5V7ZM12.5 10H11V8H12.5V10ZM22 7H15V11H22V7ZM21 10H16V8H21V10ZM22 23.5H15V27.5H22V23.5ZM21 26.5H16V24.5H21V26.5ZM6.5 2V5.5H7.5V30H24.5V5.5H25.5V2H6.5ZM12.5 29H11V24.5H12.5V29ZM23.5 29H13.5V23.5H10V29H8.5V5.5H23.5V29ZM24.5 4.5H7.5V3H24.5V4.5Z" fill="#0D2B49"/>
</svg>
