<svg width="32" height="32" viewBox="0 0 32 32" fill="none" xmlns="http://www.w3.org/2000/svg">
<path d="M27.359 3.5H4.641C4.011 3.5 3.5 4.011 3.5 4.641V19.859C3.5 20.489 4.011 21 4.641 21H12V24.5H9.382C9.171 24.5 9 24.671 9 24.882V27.618C9 27.829 9.171 28 9.382 28H22.618C22.829 28 23 27.829 23 27.618V24.882C23 24.671 22.829 24.5 22.618 24.5H20V21H27.359C27.989 21 28.5 20.489 28.5 19.859V4.641C28.5 4.011 27.989 3.5 27.359 3.5ZM22 27H10V25.5H22V27ZM19 24.5H13V21H19V24.5ZM27.5 19.859C27.5 19.937 27.437 20 27.359 20H4.641C4.563 20 4.5 19.937 4.5 19.859V4.641C4.5 4.563 4.563 4.5 4.641 4.5H27.359C27.437 4.5 27.5 4.563 27.5 4.641V19.859Z" fill="#0D2B49"/>
<path d="M21.182 10.757C20.11 10.448 19.554 9.97799 19.153 9.26799C18.759 8.55799 17.556 7.87099 15.99 8.31899C14.532 8.72799 13.135 10.556 12.156 12.115C12.202 12.47 12.287 12.809 12.411 13.133C12.851 12.423 13.136 11.96 13.345 11.613C13.561 11.274 13.7 11.05 13.854 10.803C14.217 10.232 15.366 8.88999 15.883 9.07499C16.053 9.13699 15.883 9.45299 15.829 9.53799C15.713 9.73099 15.528 9.85399 15.405 10.039C14.896 10.787 15.69 11.675 16.277 12.099C17.45 12.94 18.507 14.228 18.082 16.327C18.429 16.258 18.761 16.157 19.077 16.026V16.018C19.285 15.131 19.162 14.004 18.822 13.156C18.413 12.13 18.907 11.482 19.586 11.165C20.265 10.849 20.99 11.073 21.198 11.073C21.405 11.073 21.405 10.819 21.182 10.757ZM18.119 9.96199C17.98 9.96199 17.864 9.84599 17.864 9.70799C17.864 9.56899 17.98 9.45299 18.119 9.45299C18.266 9.45299 18.374 9.56899 18.374 9.70799C18.373 9.84599 18.265 9.96199 18.119 9.96199Z" fill="#0D2B49"/>
</svg>
