<svg width="32" height="32" viewBox="0 0 32 32" fill="none" xmlns="http://www.w3.org/2000/svg">
<path d="M27.3589 3.5H4.64111C4.01093 3.5 3.5 4.01086 3.5 4.64111V19.8589C3.5 20.4891 4.01093 21 4.64111 21H12V24.5H9.3819C9.17096 24.5 9 24.671 9 24.8818V27.6182C9 27.829 9.17096 28 9.3819 28H22.6182C22.829 28 23 27.829 23 27.6182V24.8818C23 24.671 22.829 24.5 22.6182 24.5H20V21H27.3589C27.9891 21 28.5 20.4891 28.5 19.8589V4.64111C28.5 4.01086 27.9891 3.5 27.3589 3.5ZM22 27H10V25.5H22V27ZM19 24.5H13V21H19V24.5ZM27.5 19.8589C27.5 19.9366 27.4367 20 27.3589 20H4.64111C4.56329 20 4.5 19.9366 4.5 19.8589V4.64111C4.5 4.56335 4.56329 4.5 4.64111 4.5H27.3589C27.4367 4.5 27.5 4.56335 27.5 4.64111V19.8589Z" fill="#0D2B49"/>
</svg>
