<svg width="32" height="32" viewBox="0 0 32 32" fill="none" xmlns="http://www.w3.org/2000/svg">
<path d="M27.359 3.5H4.641C4.011 3.5 3.5 4.011 3.5 4.641V19.859C3.5 20.489 4.011 21 4.641 21H12V24.5H9.382C9.171 24.5 9 24.671 9 24.882V27.618C9 27.829 9.171 28 9.382 28H22.618C22.829 28 23 27.829 23 27.618V24.882C23 24.671 22.829 24.5 22.618 24.5H20V21H27.359C27.989 21 28.5 20.489 28.5 19.859V4.641C28.5 4.011 27.989 3.5 27.359 3.5ZM22 27H10V25.5H22V27ZM19 24.5H13V21H19V24.5ZM27.5 19.859C27.5 19.937 27.437 20 27.359 20H4.641C4.563 20 4.5 19.937 4.5 19.859V4.641C4.5 4.563 4.563 4.5 4.641 4.5H27.359C27.437 4.5 27.5 4.563 27.5 4.641V19.859Z" fill="#0D2B49"/>
<path fill-rule="evenodd" clip-rule="evenodd" d="M20.256 8.1748L15.997 8.7058V12.0478H20.256V8.1748ZM15.591 8.7568L11.737 9.2378V12.0478H15.591V8.7568ZM11.737 12.4518V15.2618L15.591 15.7428V12.4518H11.737ZM15.997 12.4518V15.7938L20.256 16.3248V12.4518H15.997Z" fill="#0D2B49"/>
</svg>
