<svg width="32" height="32" viewBox="0 0 32 32" fill="none" xmlns="http://www.w3.org/2000/svg">
<path d="M14.998 12.5029V16.5029H21.998V12.5029H14.998ZM20.998 15.5029H15.998V13.5029H20.998V15.5029ZM14.998 7.00293V11.0029H21.998V7.00293H14.998ZM20.998 10.0029H15.998V8.00293H20.998V10.0029ZM15.998 19.0029H19.308C19.388 18.6229 19.568 18.2829 19.828 18.0029H14.998V22.0029H18.598L19.598 21.0029H15.998V19.0029ZM15.998 26.5029V24.5029H17.348C17.218 24.1829 17.218 23.8229 17.338 23.5029H14.998V27.5029H19.248V26.5029H15.998ZM9.99799 18.0029V22.0029H13.498V18.0029H9.99799ZM12.498 21.0029H10.998V19.0029H12.498V21.0029ZM9.99799 12.5029V16.5029H13.498V12.5029H9.99799ZM12.498 15.5029H10.998V13.5029H12.498V15.5029ZM9.99799 7.00293V11.0029H13.498V7.00293H9.99799ZM12.498 10.0029H10.998V8.00293H12.498V10.0029ZM9.99799 7.00293V11.0029H13.498V7.00293H9.99799ZM12.498 10.0029H10.998V8.00293H12.498V10.0029ZM9.99799 12.5029V16.5029H13.498V12.5029H9.99799ZM12.498 15.5029H10.998V13.5029H12.498V15.5029ZM9.99799 18.0029V22.0029H13.498V18.0029H9.99799ZM12.498 21.0029H10.998V19.0029H12.498V21.0029ZM15.998 26.5029V24.5029H17.348C17.218 24.1829 17.218 23.8229 17.338 23.5029H14.998V27.5029H19.248V26.5029H15.998ZM14.998 7.00293V11.0029H21.998V7.00293H14.998ZM20.998 10.0029H15.998V8.00293H20.998V10.0029ZM14.998 12.5029V16.5029H21.998V12.5029H14.998ZM20.998 15.5029H15.998V13.5029H20.998V15.5029ZM15.998 19.0029H19.308C19.388 18.6229 19.568 18.2829 19.828 18.0029H14.998V22.0029H18.598L19.598 21.0029H15.998V19.0029ZM6.49799 2.00293V5.50293H7.49799V30.0029H19.248V29.0029H13.498V23.5029H9.99799V29.0029H8.49799V5.50293H23.498V18.4729C23.658 18.7829 23.748 19.1329 23.748 19.5029C23.748 19.8729 23.658 20.2129 23.498 20.5229V20.8829L24.358 21.7429L24.498 21.6029V5.50293H25.498V2.00293H6.49799ZM10.998 24.5029H12.498V29.0029H10.998V24.5029ZM24.498 4.50293H7.49799V3.00293H24.498V4.50293ZM15.998 26.5029V24.5029H17.348C17.218 24.1829 17.218 23.8229 17.338 23.5029H14.998V27.5029H19.248V26.5029H15.998ZM14.998 12.5029V16.5029H21.998V12.5029H14.998ZM20.998 15.5029H15.998V13.5029H20.998V15.5029ZM14.998 7.00293V11.0029H21.998V7.00293H14.998ZM20.998 10.0029H15.998V8.00293H20.998V10.0029ZM15.998 19.0029H19.308C19.388 18.6229 19.568 18.2829 19.828 18.0029H14.998V22.0029H18.598L19.598 21.0029H15.998V19.0029ZM9.99799 18.0029V22.0029H13.498V18.0029H9.99799ZM12.498 21.0029H10.998V19.0029H12.498V21.0029ZM9.99799 12.5029V16.5029H13.498V12.5029H9.99799ZM12.498 15.5029H10.998V13.5029H12.498V15.5029ZM9.99799 7.00293V11.0029H13.498V7.00293H9.99799ZM12.498 10.0029H10.998V8.00293H12.498V10.0029ZM15.998 26.5029V24.5029H17.348C17.218 24.1829 17.218 23.8229 17.338 23.5029H14.998V27.5029H19.248V26.5029H15.998ZM14.998 7.00293V11.0029H21.998V7.00293H14.998ZM20.998 10.0029H15.998V8.00293H20.998V10.0029ZM9.99799 7.00293V11.0029H13.498V7.00293H9.99799ZM12.498 10.0029H10.998V8.00293H12.498V10.0029ZM14.998 12.5029V16.5029H21.998V12.5029H14.998ZM20.998 15.5029H15.998V13.5029H20.998V15.5029ZM9.99799 12.5029V16.5029H13.498V12.5029H9.99799ZM12.498 15.5029H10.998V13.5029H12.498V15.5029ZM15.998 19.0029H19.308C19.388 18.6229 19.568 18.2829 19.828 18.0029H14.998V22.0029H18.598L19.598 21.0029H15.998V19.0029ZM9.99799 18.0029V22.0029H13.498V18.0029H9.99799ZM12.498 21.0029H10.998V19.0029H12.498V21.0029Z" fill="#0D2B49"/>
<path d="M22.998 19.5029C22.998 19.5829 22.988 19.6629 22.978 19.7429C22.968 19.7729 22.968 19.8029 22.958 19.8329C22.938 19.9229 22.918 20.0029 22.878 20.0829C22.838 20.1729 22.798 20.2529 22.748 20.3329C22.738 20.3429 22.728 20.3629 22.718 20.3729C22.668 20.4429 22.608 20.5029 22.548 20.5629C22.478 20.6329 22.398 20.7029 22.318 20.7529C22.258 20.7929 22.188 20.8329 22.118 20.8629C22.078 20.8829 22.038 20.9029 21.998 20.9129C21.928 20.9429 21.858 20.9629 21.788 20.9729C21.698 20.9929 21.598 21.0029 21.498 21.0029C21.398 21.0029 21.298 20.9929 21.208 20.9729C21.138 20.9629 21.068 20.9429 20.998 20.9129C20.958 20.9029 20.918 20.8829 20.878 20.8629C20.808 20.8329 20.738 20.7929 20.678 20.7529C20.598 20.7029 20.518 20.6329 20.448 20.5629C20.388 20.5129 20.328 20.4429 20.278 20.3729C20.268 20.3629 20.258 20.3429 20.248 20.3329C20.198 20.2529 20.158 20.1729 20.118 20.0829C20.078 20.0029 20.058 19.9229 20.038 19.8329C20.028 19.8029 20.028 19.7729 20.018 19.7429C20.008 19.6629 19.998 19.5829 19.998 19.5029C19.998 19.4029 20.008 19.3029 20.028 19.2129C20.038 19.1429 20.058 19.0729 20.088 19.0029C20.098 18.9629 20.118 18.9229 20.138 18.8829C20.168 18.8129 20.208 18.7429 20.248 18.6829C20.248 18.6729 20.258 18.6629 20.268 18.6529C20.318 18.5829 20.368 18.5229 20.428 18.4629C20.488 18.3929 20.558 18.3329 20.638 18.2829C20.648 18.2729 20.658 18.2629 20.668 18.2529C20.748 18.2029 20.828 18.1629 20.918 18.1229C20.998 18.0829 21.078 18.0629 21.168 18.0429C21.198 18.0329 21.228 18.0329 21.258 18.0229C21.338 18.0129 21.418 18.0029 21.498 18.0029C21.598 18.0029 21.698 18.0129 21.788 18.0329C21.858 18.0429 21.928 18.0629 21.998 18.0929C22.038 18.1029 22.078 18.1229 22.118 18.1429C22.188 18.1729 22.258 18.2129 22.318 18.2529C22.328 18.2529 22.338 18.2629 22.348 18.2729C22.418 18.3229 22.478 18.3729 22.538 18.4329C22.608 18.4929 22.668 18.5629 22.718 18.6429C22.728 18.6529 22.738 18.6629 22.748 18.6729C22.798 18.7529 22.838 18.8329 22.878 18.9229C22.918 19.0029 22.938 19.0829 22.958 19.1729C22.968 19.2029 22.968 19.2329 22.978 19.2629C22.988 19.3419 22.998 19.4219 22.998 19.5029Z" fill="#0D2B49"/>
<path d="M23.498 22.8829C23.188 23.1629 22.998 23.5529 22.998 24.0029C22.998 24.0329 22.998 24.0629 23.008 24.0929L22.958 24.0429C22.778 23.8429 22.518 23.7329 22.248 23.7329C22.158 23.7329 22.078 23.7429 21.998 23.7729C21.818 23.8129 21.668 23.9029 21.548 24.0329C21.358 24.2229 21.248 24.4729 21.248 24.7329C21.248 25.0029 21.358 25.2529 21.548 25.4429L21.998 25.8929L22.748 26.6529V30.5029C22.748 30.6729 22.788 30.8429 22.878 30.9829C22.838 31.0029 22.788 31.0029 22.748 31.0029C22.338 31.0029 21.998 30.6629 21.998 30.2529V26.5029H21.498V30.2529C21.498 30.6629 21.158 31.0029 20.748 31.0029C20.338 31.0029 19.998 30.6629 19.998 30.2529V23.7929L19.278 24.5129C19.128 24.6629 18.938 24.7329 18.748 24.7329C18.548 24.7329 18.358 24.6629 18.218 24.5129L18.208 24.5029C17.948 24.2229 17.928 23.7929 18.178 23.5029C18.188 23.4829 18.198 23.4629 18.218 23.4429L20.158 21.5029H23.058L24.118 22.5629C23.878 22.6229 23.668 22.7319 23.498 22.8829Z" fill="#0D2B49"/>
<path d="M24.498 25.0029C25.0503 25.0029 25.498 24.5552 25.498 24.0029C25.498 23.4506 25.0503 23.0029 24.498 23.0029C23.9457 23.0029 23.498 23.4506 23.498 24.0029C23.498 24.5552 23.9457 25.0029 24.498 25.0029Z" fill="#0D2B49"/>
<path d="M27.248 24.7319C27.248 24.8619 27.198 24.9919 27.098 25.0919L25.748 26.4419V30.5019C25.748 30.7819 25.528 31.0019 25.248 31.0019C24.968 31.0019 24.748 30.7819 24.748 30.5019V28.5019H24.248V30.5019C24.248 30.7819 24.028 31.0019 23.748 31.0019C23.468 31.0019 23.248 30.7819 23.248 30.5019V26.4419L21.898 25.0919C21.798 24.9919 21.748 24.8619 21.748 24.7319C21.748 24.6019 21.798 24.4819 21.898 24.3819C21.928 24.3519 21.958 24.3219 21.998 24.3119C22.078 24.2519 22.158 24.2319 22.248 24.2319C22.378 24.2319 22.498 24.2819 22.598 24.3819L23.248 25.0019C23.248 25.0019 23.348 25.0819 23.498 25.1819C23.758 25.3619 24.178 25.6019 24.498 25.6019C24.998 25.6019 25.448 25.3719 25.738 25.0019L26.398 24.3819C26.488 24.2819 26.618 24.2319 26.748 24.2319C26.878 24.2319 26.998 24.2819 27.098 24.3819C27.198 24.4819 27.248 24.6019 27.248 24.7319Z" fill="#0D2B49"/>
<path d="M27.498 21.0029C28.3264 21.0029 28.998 20.3314 28.998 19.5029C28.998 18.6745 28.3264 18.0029 27.498 18.0029C26.6696 18.0029 25.998 18.6745 25.998 19.5029C25.998 20.3314 26.6696 21.0029 27.498 21.0029Z" fill="#0D2B49"/>
<path d="M30.998 23.9619C30.998 24.1519 30.918 24.3419 30.778 24.4919C30.628 24.6419 30.438 24.7119 30.248 24.7119C30.058 24.7119 29.858 24.6419 29.718 24.4919L29.098 23.8619L29.498 27.5019H28.998V30.2519C28.998 30.6619 28.658 31.0019 28.248 31.0019C27.838 31.0019 27.498 30.6619 27.498 30.2519V27.5019H26.998V30.2519C26.998 30.6619 26.658 31.0019 26.248 31.0019C26.208 31.0019 26.158 31.0019 26.118 30.9819C26.208 30.8419 26.248 30.6719 26.248 30.5019V26.6519L27.448 25.4519C27.638 25.2519 27.748 25.0019 27.748 24.7319C27.748 24.4719 27.638 24.2219 27.458 24.0419C27.278 23.8419 27.018 23.7319 26.748 23.7319C26.478 23.7319 26.218 23.8419 26.058 24.0219L25.988 24.0819C25.998 24.0619 25.998 24.0319 25.998 24.0019C25.998 23.2219 25.408 22.5819 24.648 22.5119L25.658 21.5019H28.858L28.998 21.6419L30.778 23.4319C30.918 23.5819 30.998 23.7629 30.998 23.9619Z" fill="#0D2B49"/>
</svg>
