<svg width="32" height="32" viewBox="0 0 32 32" fill="none" xmlns="http://www.w3.org/2000/svg">
<path d="M5 2V30H27V2H5ZM23 3V7.086L22 6.086L21 7.086V3H23ZM26 29H6V3H20V9.5L22 7.5L24 9.5V3H26V29Z" fill="#0D2B49"/>
<path d="M18.43 11.326C18.664 11.326 18.798 11.391 18.798 11.391C19.828 12.571 18.638 15.271 18.168 16.471C17.688 17.671 16.728 18.191 16.728 18.191C16.732 18.192 16.737 18.192 16.743 18.192C16.893 18.192 17.568 17.961 17.568 17.961C17.538 19.341 16.078 20.071 16.078 20.071C16.102 20.11 16.169 20.124 16.251 20.124C16.44 20.124 16.708 20.051 16.708 20.051C16.068 21.951 14.518 22.121 14.518 22.121C14.518 22.121 14.498 22.511 14.428 22.791C14.368 23.071 14.348 24.001 14.348 24.001C14.348 24.001 14.374 24.399 14.215 24.399C14.177 24.399 14.129 24.377 14.068 24.321C13.738 24.031 13.978 22.661 13.978 22.661C13.978 22.661 14.108 22.051 13.698 21.821C13.278 21.591 12.968 20.891 12.968 20.891C12.688 20.081 12.828 19.621 12.828 19.621C13.158 20.161 13.548 20.281 13.638 20.291C13.548 20.191 13.158 19.791 12.918 18.991C12.648 18.071 13.518 16.241 13.518 16.241C13.718 17.691 14.118 17.801 14.118 17.801C14.118 17.801 13.768 16.741 13.948 15.691C14.128 14.631 15.338 13.451 15.338 13.451C15.068 14.381 15.298 14.491 15.298 14.491C15.468 12.961 16.798 12.021 17.558 11.591C17.916 11.381 18.215 11.326 18.43 11.326ZM17.032 10.735C15.933 11.326 14.63 12.699 14.63 12.699C14.63 12.699 14.421 12.895 14.193 13.224C13.779 13.82 13.427 14.332 13.37 14.416C12.997 14.967 12.614 15.812 12.614 15.812C12.38 16.305 11.659 17.961 11.926 19.149L11.87 19.33C11.815 19.511 11.663 20.181 12.022 21.218L12.036 21.258L12.053 21.296C12.145 21.504 12.459 22.144 12.983 22.545C12.667 24.421 13.223 24.911 13.407 25.072C13.703 25.341 14.011 25.399 14.215 25.399C14.519 25.399 14.801 25.276 15.01 25.053C15.31 24.733 15.362 24.305 15.349 23.986C15.359 23.567 15.386 23.111 15.407 22.996C15.415 22.963 15.423 22.928 15.43 22.893C16.224 22.555 17.172 21.804 17.655 20.37L17.802 19.933C18.22 19.428 18.55 18.771 18.567 17.983L18.571 17.804C18.765 17.532 18.948 17.213 19.096 16.842L19.205 16.567C19.843 14.967 20.91 12.29 19.551 10.733L19.418 10.581L19.237 10.492C19.134 10.442 18.85 10.325 18.43 10.325C18.018 10.325 17.602 10.434 17.192 10.65C17.192 10.65 17.072 10.714 17.032 10.735Z" fill="#0D2B49"/>
<path d="M16.852 14.272C14.725 17.792 14.244 22.259 14.244 22.259C14.149 22.272 14.156 21.689 14.156 21.689C14.465 17.28 16.575 14.346 16.833 13.973C17.089 13.601 17.111 13.746 17.111 13.746C17.057 13.816 16.852 14.272 16.852 14.272Z" fill="#0D2B49"/>
</svg>
