<svg width="32" height="32" viewBox="0 0 32 32" fill="none" xmlns="http://www.w3.org/2000/svg">
<path d="M5 2V30H27V2H5ZM23 3V7.58997L22.71 7.29004L22 6.58997L21.29 7.29004L21 7.58997V3H23ZM26 29H6V3H20V10L22 8L24 10V3H26V29ZM18.3 12.61L18.5 12.3999L18.1 11.73L17.65 10.99L17.36 10.5H14.64L14.35 10.99L13.9 11.73L13.5 12.3999L13.7 12.61C10.98 13.5601 9.03003 16.1499 9.03003 19.1799C9.03003 23.02 12.16 26.1499 16 26.1499C19.84 26.1499 22.97 23.02 22.97 19.1799C22.97 16.1499 21.02 13.5601 18.3 12.61ZM15.21 11.5H16.79L17.24 12.25L16.83 12.6599L16.33 13.1699H16.32L16 13.49L15.68 13.1699H15.67L15.17 12.6599L14.76 12.25L15.21 11.5ZM19.97 19.1799C19.97 21.37 18.19 23.1499 16 23.1499C13.81 23.1499 12.03 21.37 12.03 19.1799C12.03 16.99 13.81 15.21 16 15.21C18.19 15.21 19.97 16.99 19.97 19.1799ZM16 25.1499C12.7 25.1499 10.03 22.48 10.03 19.1799C10.03 16.4099 11.93 14.0701 14.5 13.4099L15.26 14.1699L15.35 14.26C12.92 14.5701 11.03 16.6599 11.03 19.1799C11.03 21.9199 13.26 24.1499 16 24.1499C18.74 24.1499 20.97 21.9199 20.97 19.1799C20.97 16.6599 19.08 14.5701 16.65 14.26L16.74 14.1699L17.04 13.87L17.49 13.4099C20.07 14.0601 21.97 16.3999 21.97 19.1799C21.97 22.48 19.3 25.1499 16 25.1499Z" fill="#0D2B49"/>
</svg>
