<svg width="32" height="32" viewBox="0 0 32 32" fill="none" xmlns="http://www.w3.org/2000/svg">
<path d="M11.5767 18.3945C13.9153 18.3945 15.8111 16.5154 15.8111 14.1973C15.8111 11.8792 13.9153 10 11.5767 10C9.23805 10 7.34224 11.8792 7.34224 14.1973C7.34224 16.5154 9.23805 18.3945 11.5767 18.3945ZM11.5767 11C13.3553 11 14.8023 12.4343 14.8023 14.1973C14.8023 15.9602 13.3553 17.3945 11.5767 17.3945C9.79809 17.3945 8.35111 15.9602 8.35111 14.1973C8.35111 12.4343 9.79809 11 11.5767 11ZM19.6537 28H18.6448C18.6448 24.1367 15.4744 20.9941 11.5768 20.9941C7.67931 20.9941 4.50887 24.1367 4.50887 28H3.5C3.5 23.5854 7.12364 19.9941 11.5768 19.9941C16.03 19.9941 19.6537 23.5854 19.6537 28ZM20.423 11.8945C22.7616 11.8945 24.6574 10.0154 24.6574 7.69727C24.6574 5.37915 22.7616 3.5 20.423 3.5C18.0844 3.5 16.1885 5.37915 16.1885 7.69727C16.1885 10.0154 18.0844 11.8945 20.423 11.8945ZM20.423 4.5C22.2016 4.5 23.6486 5.93433 23.6486 7.69727C23.6486 9.46021 22.2016 10.8945 20.423 10.8945C18.6444 10.8945 17.1974 9.46021 17.1974 7.69727C17.1974 5.93433 18.6444 4.5 20.423 4.5ZM28.5 21.5H27.4911C27.4911 17.6367 24.3207 14.4941 20.4232 14.4941C19.4389 14.4941 18.4862 14.6909 17.5926 15.0786L17.1887 14.1626C18.2103 13.7192 19.299 13.4941 20.4232 13.4941C24.8764 13.4941 28.5 17.0854 28.5 21.5Z" fill="#0D2B49"/>
</svg>
