<svg width="32" height="32" viewBox="0 0 32 32" fill="none" xmlns="http://www.w3.org/2000/svg">
<path d="M9.78418 14.9111L9.21582 14.0889L15.9971 9.39355L22.5312 13.8364L21.9687 14.6636L16.0029 10.6064L9.78418 14.9111ZM27 2V30H5V2H27ZM21 3V7.08581L22 6.08581L23 7.08581V3H21ZM26 3H24V9.5L22 7.5L20 9.5V3H6V29H26V3ZM12.8215 14.8469C14.1063 14.8469 15.1479 15.8885 15.1479 17.1735C15.1479 18.4584 14.1063 19.5 12.8215 19.5C11.5366 19.5 10.4949 18.4584 10.4949 17.1735C10.4949 15.8885 11.5366 14.8469 12.8215 14.8469ZM12.8215 15.8469C12.09 15.8469 11.4949 16.442 11.4949 17.1735C11.4949 17.9049 12.09 18.5 12.8215 18.5C13.5529 18.5 14.1479 17.9049 14.1479 17.1735C14.1479 16.442 13.5529 15.8469 12.8215 15.8469ZM18.9286 14.8469C20.2135 14.8469 21.2551 15.8885 21.2551 17.1735C21.2551 18.4584 20.2135 19.5 18.9286 19.5C17.6437 19.5 16.602 18.4584 16.602 17.1735C16.602 15.8885 17.6437 14.8469 18.9286 14.8469ZM18.9286 15.8469C18.1971 15.8469 17.602 16.442 17.602 17.1735C17.602 17.9049 18.1971 18.5 18.9286 18.5C19.66 18.5 20.2551 17.9049 20.2551 17.1735C20.2551 16.442 19.66 15.8469 18.9286 15.8469ZM18.9287 20C17.7509 20 16.6863 20.46 15.875 21.1943C15.0637 20.46 13.9991 20 12.8213 20C10.3008 20 8.25 22.0508 8.25 24.5713H9.25C9.25 22.602 10.8525 21 12.8213 21C13.7418 21 14.574 21.3596 15.208 21.9338C14.677 22.6807 14.3574 23.5873 14.3574 24.5713H15.3574C15.3574 23.9025 15.5538 23.2833 15.875 22.7476C16.1962 23.2833 16.3926 23.9025 16.3926 24.5713H17.3926C17.3926 23.5873 17.073 22.6807 16.542 21.9338C17.176 21.3596 18.0082 21 18.9287 21C20.8975 21 22.5 22.602 22.5 24.5713H23.5C23.5 22.0508 21.4492 20 18.9287 20Z" fill="#0D2B49"/>
</svg>
