<svg width="32" height="32" viewBox="0 0 32 32" fill="none" xmlns="http://www.w3.org/2000/svg">
<path d="M5.66902 14.3229H5.68902L5.69902 14.3029C5.68902 14.3129 5.67902 14.3229 5.66902 14.3229Z" fill="#0D2B49"/>
<path d="M5.66902 14.3229H5.68902L5.69902 14.3029C5.68902 14.3129 5.67902 14.3229 5.66902 14.3229Z" fill="#0D2B49"/>
<path d="M28.499 26.5939V26.1039C28.499 25.9239 28.429 25.7539 28.319 25.6339C28.189 25.5039 28.019 25.4339 27.859 25.4339H27.089V14.8039C27.089 14.5139 26.979 14.2439 26.769 14.0439C26.569 13.8439 26.289 13.7239 26.009 13.7239H22.709C22.859 13.4739 22.939 13.1939 22.939 12.9039C22.939 12.5139 22.789 12.1239 22.499 11.8239L22.489 11.8139H22.499L22.509 11.7939C23.909 10.4039 24.329 8.32391 23.569 6.49391C23.319 5.89391 22.959 5.36391 22.499 4.90391C22.409 4.81391 22.309 4.72391 22.199 4.64391C21.309 3.91391 20.199 3.50391 19.039 3.50391H18.879C18.449 3.51391 18.029 3.57391 17.589 3.67391C17.029 3.83391 16.489 4.04391 15.989 4.29391L15.109 4.69391C14.459 4.31391 13.709 4.11391 12.939 4.11391H12.929C11.759 4.11391 10.649 4.57391 9.81903 5.39391C9.80902 5.40391 9.79903 5.42391 9.77903 5.43391C8.16902 7.07391 8.17903 9.62391 9.69903 11.3139L9.48903 11.5239C8.88903 12.1239 8.88903 13.0939 9.48903 13.7039C9.49903 13.7139 9.49902 13.7139 9.50902 13.7239H5.98902C5.69902 13.7239 5.42903 13.8339 5.22903 14.0439C5.01902 14.2439 4.90902 14.5139 4.90902 14.8039V25.4339H4.14903C3.97903 25.4339 3.80902 25.5039 3.69902 25.6339C3.56902 25.7539 3.49902 25.9239 3.49902 26.1039V26.5939C3.49902 26.8939 3.42902 27.7939 3.81902 28.1739C4.02902 28.3839 4.29903 28.5039 4.58903 28.5039H27.409C27.409 28.5039 27.409 28.5039 27.419 28.5039C27.699 28.5039 27.979 28.3839 28.189 28.1739C28.559 27.8029 28.499 26.8929 28.499 26.5939ZM14.349 6.35391C14.419 6.17391 14.559 6.03391 14.729 5.95391L15.019 5.82391L15.519 5.60391L16.019 5.37391L16.419 5.19391C16.879 4.96391 17.369 4.77391 17.839 4.64391C18.189 4.55391 18.549 4.51391 18.909 4.50391H19.069C19.979 4.50391 20.859 4.83391 21.569 5.41391C21.649 5.47391 21.729 5.55391 21.799 5.62391C22.169 5.98391 22.449 6.40391 22.639 6.87391C23.249 8.32391 22.919 9.98391 21.799 11.0939L21.779 11.1039L20.959 10.2839L18.919 8.26391L18.649 8.33391C18.539 8.36391 18.449 8.37391 18.329 8.37391H18.269C17.949 8.37391 17.579 8.23391 17.319 7.99391C17.089 7.79391 16.939 7.52391 16.869 7.23391L16.779 6.84391L16.739 6.63391L16.629 6.68391L16.139 6.90391L15.329 7.26391C15.239 7.30391 15.139 7.32391 15.039 7.32391C14.809 7.32391 14.599 7.22391 14.449 7.03391C14.419 6.99391 14.389 6.94391 14.369 6.90391C14.289 6.73391 14.279 6.53391 14.349 6.35391ZM11.649 13.7239C11.659 13.7139 11.659 13.7139 11.669 13.7039L12.229 13.1439L12.579 12.7839L13.169 12.1939C13.269 12.0939 13.349 11.9839 13.419 11.8639C13.539 11.8739 13.649 11.9239 13.739 12.0139C13.849 12.1139 13.899 12.2539 13.899 12.3939C13.899 12.4139 13.899 12.4439 13.889 12.4639C13.879 12.5839 13.829 12.6939 13.739 12.7739L12.239 14.2739C12.159 14.3539 12.049 14.4139 11.929 14.4239C11.909 14.4339 11.879 14.4339 11.859 14.4339C11.719 14.4339 11.579 14.3739 11.479 14.2739C11.389 14.1939 11.339 14.0739 11.329 13.9539C11.439 13.8929 11.549 13.8129 11.649 13.7239ZM10.959 12.9939C10.859 13.0939 10.719 13.1539 10.579 13.1539C10.559 13.1539 10.539 13.1539 10.519 13.1439C10.399 13.1339 10.289 13.0839 10.199 12.9939C9.98903 12.7839 9.98903 12.4439 10.199 12.2239L11.699 10.7239C11.799 10.6239 11.929 10.5739 12.079 10.5739C12.219 10.5739 12.359 10.6239 12.459 10.7239C12.549 10.8139 12.599 10.9239 12.609 11.0539C12.619 11.0739 12.619 11.0939 12.619 11.1139C12.619 11.2539 12.559 11.3839 12.459 11.4939L10.959 12.9939ZM12.699 15.1829C12.789 15.1329 12.869 15.0629 12.949 14.9829L14.449 13.4829C14.529 13.4129 14.589 13.3229 14.649 13.2429L14.659 13.2329C14.679 13.2229 14.699 13.2229 14.729 13.2229C14.869 13.2229 15.009 13.2729 15.109 13.3729C15.209 13.4729 15.259 13.5929 15.269 13.7229V13.7329C15.269 13.8329 15.249 13.9329 15.199 14.0129C15.179 14.0629 15.149 14.1029 15.109 14.1429L14.549 14.7029L14.539 14.7229V14.7329L14.529 14.7229L13.609 15.6429C13.509 15.7429 13.369 15.8029 13.229 15.8029C13.219 15.8029 13.219 15.8029 13.209 15.8029C13.069 15.7929 12.949 15.7429 12.849 15.6429C12.729 15.5229 12.679 15.3529 12.699 15.1929V15.1829ZM14.319 16.3539L14.539 16.1339L14.579 16.0839L14.889 15.7839L14.959 15.7039L15.239 15.4239L15.409 15.2639V15.2539L15.819 14.8439V14.8339C15.839 14.8139 15.859 14.8039 15.869 14.7839C15.889 14.7639 15.909 14.7439 15.919 14.7239C15.979 14.6639 16.019 14.5939 16.059 14.5239C16.159 14.5239 16.259 14.5639 16.339 14.6139C16.369 14.6339 16.389 14.6539 16.419 14.6839C16.429 14.6939 16.439 14.7139 16.449 14.7239C16.489 14.7639 16.519 14.8139 16.539 14.8639C16.579 14.9739 16.589 15.1039 16.549 15.2139C16.529 15.2939 16.489 15.3739 16.419 15.4439L15.489 16.3739V16.3839L15.139 16.7339H15.129L14.919 16.9539C14.809 17.0539 14.679 17.1039 14.539 17.1039C14.389 17.1039 14.259 17.0539 14.149 16.9539C14.059 16.8539 14.009 16.7339 14.009 16.5939C14.119 16.5239 14.229 16.4429 14.319 16.3539ZM16.549 16.7239L17.129 16.1539L17.639 16.6639C17.679 16.7039 17.719 16.7339 17.759 16.7639C17.819 16.8339 17.889 16.8739 17.969 16.9139C17.969 17.0339 17.919 17.1439 17.819 17.2439C17.719 17.3439 17.589 17.4039 17.439 17.4039C17.349 17.4039 17.249 17.3739 17.169 17.3339C17.129 17.3039 17.089 17.2739 17.059 17.2439L16.549 16.7339V16.7239ZM17.569 15.1829C17.589 15.0529 17.579 14.9229 17.549 14.7929C17.549 14.7729 17.539 14.7429 17.529 14.7229C17.519 14.6529 17.499 14.5829 17.479 14.5229C17.409 14.3229 17.289 14.1329 17.129 13.9729C17.029 13.8729 16.919 13.7929 16.799 13.7329L16.839 13.6929C16.949 13.5929 17.079 13.5329 17.229 13.5329C17.249 13.5329 17.269 13.5329 17.289 13.5429C17.329 13.6029 17.379 13.6629 17.439 13.7229C17.449 13.7529 17.479 13.7829 17.499 13.8029L18.999 15.3029C19.049 15.3529 19.099 15.3929 19.149 15.4229C19.179 15.4629 19.219 15.4829 19.259 15.5129C19.279 15.6729 19.229 15.8429 19.109 15.9629C19.019 16.0529 18.899 16.1029 18.779 16.1129C18.769 16.1229 18.749 16.1229 18.729 16.1229C18.639 16.1229 18.559 16.1029 18.489 16.0629C18.439 16.0429 18.389 16.0029 18.349 15.9629L18.109 15.7329L17.569 15.1829ZM18.209 13.0939C18.129 13.0139 18.069 12.9139 18.059 12.7939V12.7839C18.039 12.6239 18.089 12.4539 18.209 12.3339C18.309 12.2339 18.439 12.1839 18.569 12.1739C18.629 12.2939 18.709 12.3939 18.809 12.4939L20.309 13.9939C20.359 14.0439 20.419 14.0939 20.479 14.1439C20.529 14.1739 20.579 14.2039 20.629 14.2339C20.619 14.3639 20.569 14.4939 20.469 14.5939C20.409 14.6539 20.349 14.6939 20.279 14.7239C20.269 14.7239 20.269 14.7239 20.259 14.7239C20.199 14.7439 20.149 14.7539 20.089 14.7539C20.069 14.7539 20.049 14.7539 20.029 14.7439H20.019C19.989 14.7439 19.959 14.7439 19.929 14.7239C19.909 14.7239 19.899 14.7239 19.889 14.7139C19.819 14.6839 19.759 14.6439 19.709 14.5939L18.209 13.0939ZM19.519 11.7839C19.409 11.6739 19.359 11.5239 19.359 11.3839C19.369 11.2539 19.419 11.1239 19.519 11.0239C19.619 10.9239 19.749 10.8639 19.899 10.8639C20.009 10.8639 20.109 10.8939 20.199 10.9539L20.849 11.5939L21.779 12.5239C21.839 12.5839 21.889 12.6639 21.919 12.7539C21.929 12.8039 21.939 12.8539 21.939 12.9039C21.939 13.0539 21.879 13.1839 21.779 13.2839C21.689 13.3839 21.549 13.4339 21.419 13.4439C21.409 13.4439 21.409 13.4439 21.399 13.4439C21.349 13.4439 21.289 13.4339 21.239 13.4139C21.159 13.3939 21.079 13.3539 21.019 13.2839L19.519 11.7839ZM9.55902 8.46391C9.54902 7.59391 9.87902 6.76391 10.529 6.10391C11.169 5.46391 12.019 5.11391 12.929 5.11391H12.939C13.289 5.11391 13.639 5.16391 13.959 5.27391C13.719 5.45391 13.529 5.70391 13.419 5.99391C13.249 6.42391 13.269 6.90391 13.459 7.32391C13.509 7.43391 13.579 7.54391 13.659 7.64391C13.999 8.08391 14.509 8.32391 15.029 8.32391C15.269 8.32391 15.509 8.27391 15.739 8.17391L16.099 8.01391C16.229 8.28391 16.419 8.53391 16.649 8.73391C17.099 9.14391 17.689 9.37391 18.299 9.37391C18.419 9.36391 18.499 9.36391 18.599 9.35391L19.259 10.0039C19.099 10.0739 18.939 10.1839 18.809 10.3139C18.559 10.5639 18.419 10.8739 18.379 11.1939C18.059 11.2339 17.749 11.3739 17.499 11.6239C17.239 11.8839 17.089 12.2139 17.069 12.5539C16.729 12.5739 16.399 12.7239 16.139 12.9939C16.119 13.0139 16.099 13.0339 16.089 13.0539C16.029 12.9139 15.929 12.7839 15.819 12.6739C15.559 12.4139 15.229 12.2639 14.889 12.2439H14.879C14.859 11.8939 14.709 11.5639 14.449 11.3039C14.209 11.0639 13.909 10.9239 13.599 10.8739C13.549 10.5639 13.409 10.2639 13.169 10.0239C12.869 9.72391 12.469 9.57391 12.079 9.57391C11.679 9.57391 11.289 9.72391 10.989 10.0239L10.399 10.6139C9.87902 10.0029 9.57902 9.25291 9.55902 8.46391ZM5.91902 14.7629L5.96902 14.7429L5.98902 14.7229H10.569C10.619 14.8129 10.689 14.9029 10.769 14.9829C11.029 15.2429 11.369 15.3929 11.709 15.4129C11.729 15.7529 11.879 16.0929 12.139 16.3529C12.389 16.6029 12.699 16.7429 13.019 16.7829C13.059 17.1029 13.199 17.4029 13.449 17.6529C13.749 17.9529 14.139 18.1029 14.539 18.1029C14.929 18.1029 15.319 17.9529 15.619 17.6529L15.839 17.4429L16.349 17.9529C16.649 18.2529 17.049 18.4029 17.439 18.4029C17.839 18.4029 18.229 18.2529 18.529 17.9529C18.769 17.7129 18.909 17.4129 18.959 17.1029C19.269 17.0529 19.579 16.9129 19.819 16.6629C20.079 16.4029 20.229 16.0729 20.249 15.7329C20.589 15.7129 20.919 15.5629 21.179 15.3029C21.349 15.1329 21.469 14.9329 21.539 14.7229H26.009C26.019 14.7229 26.049 14.7329 26.059 14.7529L26.079 14.7929L26.089 14.8029V25.4329H5.90902L5.91902 14.7629ZM5.69902 14.3029L5.68902 14.3229H5.66902C5.67902 14.3229 5.68902 14.3129 5.69902 14.3029ZM27.499 27.4639C27.479 27.4939 27.449 27.5039 27.419 27.5039H4.58903C4.58903 27.5039 4.52902 27.5039 4.49902 27.4839C4.47903 27.4739 4.46902 26.5939 4.46902 26.5939V26.4339H27.509L27.499 27.4639Z" fill="#0D2B49"/>
<path d="M18.429 22.5219H13.569V23.5219H18.429V22.5219Z" fill="#0D2B49"/>
<path d="M23.125 17.9559C23.115 17.9559 23.115 17.9559 23.105 17.9559C22.685 17.9559 22.275 18.1259 21.975 18.4259C21.665 18.7259 21.495 19.1359 21.485 19.5659C21.485 20.1759 21.825 20.7059 22.325 20.9859V22.7559L23.105 22.2859L23.905 22.7559V20.9759C24.395 20.7059 24.725 20.1759 24.725 19.5759C24.725 18.6859 24.005 17.9659 23.125 17.9559ZM23.615 19.9259C23.505 20.0859 23.315 20.1959 23.105 20.1959C22.895 20.1959 22.715 20.0859 22.605 19.9259C22.525 19.8259 22.485 19.7059 22.485 19.5659C22.495 19.4059 22.555 19.2459 22.675 19.1359C22.795 19.0159 22.955 18.9459 23.115 18.9559C23.455 18.9559 23.725 19.2359 23.725 19.5759C23.725 19.7059 23.685 19.8259 23.615 19.9259Z" fill="#0D2B49"/>
<path d="M14.529 14.7239L14.539 14.7339V14.7239H14.529Z" fill="#0D2B49"/>
<path d="M14.529 14.7239L14.539 14.7339V14.7239H14.529Z" fill="#0D2B49"/>
</svg>
