<svg width="32" height="32" viewBox="0 0 32 32" fill="none" xmlns="http://www.w3.org/2000/svg">
<path d="M4.99701 2.00293V30.0029H26.997V2.00293H4.99701ZM20.997 3.00293H22.997V7.08293L21.997 6.08293L21.297 6.79293L20.997 7.08293V3.00293ZM25.997 29.0029H5.99701V3.00293H19.997V9.50293L21.997 7.50293L23.997 9.50293V3.00293H25.997V29.0029Z" fill="#0D2B49"/>
<path fill-rule="evenodd" clip-rule="evenodd" d="M10.088 18.2659C10.088 21.5759 12.778 24.2659 16.088 24.2659C19.398 24.2659 22.088 21.5759 22.088 18.2659C22.088 14.9559 19.398 12.2659 16.088 12.2659C14.558 12.2659 13.158 12.8359 12.108 13.7859L11.088 12.7659V15.7659H14.088L12.808 14.4859C13.719 13.6979 14.884 13.2649 16.088 13.2659C18.848 13.2659 21.088 15.5059 21.088 18.2659C21.088 21.0259 18.848 23.2659 16.088 23.2659C13.328 23.2659 11.088 21.0259 11.088 18.2659H10.088Z" fill="#0D2B49"/>
</svg>
