<svg width="32" height="32" viewBox="0 0 32 32" fill="none" xmlns="http://www.w3.org/2000/svg">
<path d="M27 15.3059H26.34L26.03 14.0774C25.96 13.8177 25.8 13.5979 25.56 13.458C25.41 13.3781 25.24 13.3283 25.06 13.3283C24.97 13.3283 24.88 13.3383 24.79 13.3682L13.7 16.4844L10.12 4.21911C10.04 3.95941 9.87 3.7397 9.63001 3.61985C9.47998 3.53999 9.32001 3.5 9.15997 3.5C9.06 3.5 8.95001 3.52 8.84998 3.54999L7.56 3.96941C7.38001 3.70971 7.08002 3.53999 6.73999 3.53999H5.23999C4.69 3.53999 4.23999 3.9894 4.23999 4.53879V6.78609C4.23999 7.08578 4.38 7.35535 4.59003 7.54519C5.12 11.1907 7.17999 18.1224 11.86 22.6071C11.49 22.9766 11.1 23.3562 10.69 23.7657C9.04999 25.3438 7.25 25.5636 5.70001 25.5636H5.34003L5.01001 25.5536H4V28.49H4.98999L5.29999 28.5H5.71002C7.54999 28.5 10.26 28.2303 12.68 25.8931C13.2 25.3837 13.67 24.9042 14.12 24.4648C19.65 28.49 23.84 28.49 26.16 28.49H27.5V25.5536H26.15C23.96 25.5536 20.77 25.5536 16.26 22.3973C17 21.7181 17.75 21.1587 18.65 20.6494L18.75 20.5995C20.63 19.5408 22 18.7817 24.08 18.542C24.08 18.542 24.08 18.542 24.09 18.542C24.26 18.7017 24.5 18.8017 24.76 18.8017H27C27.55 18.8017 28 18.3622 28 17.8029V16.3047C28 15.7553 27.55 15.3059 27 15.3059ZM7.73999 6.78609V4.95821L9.15997 4.4988L12.74 16.7541L11.18 17.1935C8.96997 13.7377 7.87 9.78249 7.48999 7.44521C7.65002 7.2655 7.73999 7.03579 7.73999 6.78609ZM12.68 24.4948C10.3905 27.1532 7.16928 27.6731 5 27.4912V26.5524C7.96049 26.8771 10.7356 25.5271 12.61 23.2763C12.8422 23.4853 13.0777 23.6638 13.32 23.8556L12.68 24.4948ZM16.56 23.8057C19.5667 25.7932 22.9485 26.6972 26.5 26.5524V27.4912C19.5181 27.8451 12.5691 23.4808 9.13001 17.4732C7.39037 14.4752 6.20527 11.142 5.63001 7.78489H6.53003C7.12093 11.1644 8.35024 14.5189 10.17 17.4632C10.2298 17.6115 10.345 17.7468 10.43 17.8827V17.8927C11.004 18.7625 11.6212 19.5832 12.33 20.3498C13.5346 21.7109 15.0518 22.8186 16.56 23.8057ZM23.76 17.5732C20.6616 18.066 17.7932 19.7449 15.43 21.7881C15.1873 21.6102 14.9426 21.4143 14.69 21.2187C14.9582 20.9779 15.2194 20.7347 15.5 20.5196C15.51 20.5096 15.52 20.5096 15.52 20.4996C16.3061 19.8235 17.1568 19.2848 18.07 18.7617C18.078 18.7586 18.1086 18.7702 18.11 18.7517C19.8848 17.7459 21.711 16.8529 23.76 16.6242V17.5732ZM24.06 15.5955H24.05C21.22 15.8652 19.41 16.874 17.36 18.0226L17.27 18.0726C16.42 18.552 15.69 19.0614 15 19.6306C14.64 19.9202 14.29 20.2299 13.94 20.5596C13.77 20.3997 13.6 20.2399 13.44 20.0702C12.87 19.4908 12.35 18.8616 11.87 18.2023C11.84 18.1524 11.8 18.1125 11.77 18.0626L25.06 14.3271L25.31 15.3059H24.76C24.48 15.3059 24.24 15.4156 24.06 15.5955ZM27 17.8029H24.76V16.3047H27V17.8029ZM6.73999 4.53879V6.78609H5.23999V4.53879H6.73999Z" fill="#0D2B49"/>
</svg>
