<svg width="32" height="32" viewBox="0 0 32 32" fill="none" xmlns="http://www.w3.org/2000/svg">
<path d="M16 3.896C16.139 3.896 16.279 3.904 16.438 3.921C16.621 3.938 16.813 3.962 16.995 3.997C17.524 4.093 18.021 4.268 18.502 4.525C18.92 4.755 19.295 5.027 19.624 5.339C20.009 5.698 20.341 6.101 20.602 6.518C21.099 7.354 21.372 8.361 21.372 9.355C21.372 9.941 21.322 10.363 21.211 10.723L21.169 10.86L21.167 11.003C21.125 13.755 19.842 16.187 17.874 17.21C17.807 17.247 17.733 17.284 17.666 17.315C17.246 17.498 16.639 17.603 16.001 17.603C15.369 17.603 14.766 17.498 14.305 17.298C14.221 17.266 14.183 17.24 14.176 17.236L14.127 17.201L14.074 17.173C12.154 16.149 10.887 13.727 10.845 11.003L10.843 10.86L10.801 10.723C10.684 10.346 10.63 9.911 10.63 9.355C10.63 8.372 10.907 7.365 11.399 6.536C11.679 6.086 12.008 5.684 12.375 5.341C12.714 5.027 13.095 4.752 13.498 4.53C13.99 4.267 14.484 4.092 15.006 3.996C15.192 3.962 15.378 3.937 15.584 3.918C15.721 3.904 15.861 3.896 16 3.896ZM16 2.896C15.824 2.896 15.648 2.906 15.471 2.925C15.256 2.945 15.04 2.974 14.825 3.013C14.189 3.13 13.592 3.346 13.024 3.649C12.544 3.913 12.094 4.236 11.693 4.608C11.253 5.019 10.871 5.489 10.548 6.008C9.96099 6.997 9.62799 8.171 9.62799 9.355C9.62799 9.913 9.67699 10.481 9.84299 11.019C9.89199 14.18 11.419 16.891 13.601 18.056C13.699 18.125 13.816 18.183 13.944 18.232C14.482 18.467 15.207 18.604 15.999 18.604C16.792 18.604 17.526 18.467 18.064 18.232C18.172 18.183 18.27 18.134 18.358 18.085C20.56 16.94 22.116 14.209 22.165 11.019C22.331 10.481 22.371 9.913 22.371 9.355C22.371 8.171 22.048 6.996 21.461 6.008C21.138 5.489 20.747 5.02 20.306 4.608C19.915 4.236 19.464 3.913 18.985 3.649C18.417 3.346 17.82 3.13 17.174 3.013C16.968 2.974 16.743 2.944 16.528 2.925C16.352 2.906 16.176 2.896 16 2.896Z" fill="#0D2B49"/>
<path d="M6.00899 25.073C5.98899 23.713 6.53899 22.383 7.51899 21.423C8.03899 20.893 8.64899 20.503 9.35899 20.233C9.70899 20.093 10.129 20.033 10.569 19.963C10.839 19.923 11.109 19.883 11.389 19.833C12.119 20.433 13.139 20.873 14.259 21.073C14.829 21.193 15.419 21.253 16.069 21.253C16.309 21.253 16.549 21.243 16.789 21.233C17.139 21.233 17.499 21.173 17.839 21.093C18.069 20.623 18.359 20.183 18.699 19.773C18.669 19.793 18.629 19.803 18.599 19.813C18.019 20.023 17.349 20.223 16.749 20.223C16.529 20.243 16.299 20.253 16.069 20.253C15.539 20.253 14.999 20.203 14.459 20.093C13.419 19.903 12.549 19.513 11.969 19.003C11.829 18.873 11.649 18.803 11.459 18.803C11.409 18.803 11.369 18.813 11.319 18.823C10.529 19.003 9.72899 19.003 8.98899 19.303C8.16899 19.613 7.42899 20.093 6.80899 20.713C5.63899 21.863 4.98899 23.443 5.00899 25.083V28.453C5.00899 28.803 5.30899 29.103 5.67899 29.103H18.599C18.349 28.793 18.129 28.453 17.939 28.103H6.00899V26.773C6.00899 25.922 6.00899 25.073 6.00899 25.073Z" fill="#0D2B49"/>
<path d="M24.509 18.0029C23.289 18.0029 22.159 18.3329 21.189 18.9229C20.459 19.3529 19.819 19.9229 19.309 20.6029C18.489 21.6929 18.009 23.0329 18.009 24.5029C18.009 25.8329 18.409 27.0729 19.099 28.1029C19.329 28.4629 19.609 28.7929 19.909 29.1029C21.089 30.2729 22.709 31.0029 24.509 31.0029C28.099 31.0029 31.009 28.0929 31.009 24.5029C31.01 20.9119 28.099 18.0029 24.509 18.0029ZM26.549 22.4429C26.759 22.7929 26.869 23.1529 26.879 23.5129H25.879C25.809 23.2429 25.719 23.0329 25.619 22.8929C25.569 22.8129 25.499 22.7529 25.429 22.7029C25.259 22.5729 25.049 22.5129 24.799 22.5129C24.439 22.5129 24.139 22.6929 23.929 23.0529C23.879 23.1429 23.819 23.2529 23.779 23.3729H25.339L25.169 24.1529H23.629C23.619 24.2829 23.619 24.4129 23.619 24.5429C23.619 24.6829 23.619 24.8129 23.629 24.9329H25.069L24.909 25.7229H23.799C23.839 25.8229 23.899 25.9129 23.949 25.9929C24.179 26.3129 24.459 26.4729 24.809 26.4729C25.159 26.4729 25.429 26.3329 25.619 26.0629C25.719 25.9129 25.799 25.6929 25.879 25.3929H26.879C26.779 26.0229 26.559 26.5329 26.199 26.9329C26.129 27.0029 26.069 27.0629 25.989 27.1229C25.669 27.3829 25.279 27.5129 24.819 27.5129C24.119 27.5129 23.579 27.2529 23.179 26.7229C22.969 26.4429 22.819 26.1129 22.719 25.7229H21.469L21.629 24.9329H22.599C22.579 24.8029 22.579 24.6729 22.579 24.5229C22.579 24.3929 22.579 24.2729 22.589 24.1529H21.469L21.629 23.3729H22.699C22.809 22.9029 22.999 22.5129 23.259 22.2029C23.609 21.7829 24.039 21.5529 24.549 21.5029C24.619 21.4929 24.689 21.4929 24.759 21.4929C25.339 21.4929 25.809 21.6529 26.169 21.9829C26.309 22.1019 26.439 22.2629 26.549 22.4429Z" fill="#0D2B49"/>
</svg>
