<svg width="32" height="32" viewBox="0 0 32 32" fill="none" xmlns="http://www.w3.org/2000/svg">
<path d="M17.5842 11.1298L17.5642 11.2398C17.4942 11.7098 17.3342 12.0698 17.0842 12.3598C16.8242 12.6498 16.4842 12.7998 16.0742 12.7998C15.5742 12.7998 15.1742 12.5998 14.8942 12.2098C14.7542 12.0198 14.6542 11.8098 14.5842 11.5598H13.9012L13.9312 11.4398L14.0312 10.8898L14.0512 10.8098H14.4742C14.4642 10.7498 14.4642 10.6898 14.4642 10.6298V10.4698H13.9012L13.9312 10.3498L14.0312 9.80982L14.0512 9.72982H14.5642C14.6442 9.42982 14.7742 9.16982 14.9442 8.95982C15.2342 8.60982 15.5942 8.42982 16.0342 8.42982C16.6142 8.42982 17.0542 8.66982 17.3242 9.13982C17.4742 9.38982 17.5542 9.65982 17.5642 9.92982V10.0298H16.7142L16.6942 9.94982C16.6542 9.77982 16.5942 9.64982 16.5342 9.55982C16.4342 9.40982 16.2742 9.33982 16.0642 9.33982C15.8542 9.33982 15.6842 9.44982 15.5642 9.65982C15.5542 9.67982 15.5342 9.70982 15.5242 9.72982H16.2762L16.2462 9.84982L16.1362 10.3898L16.1162 10.4698H15.3742C15.3642 10.5298 15.3642 10.5798 15.3642 10.6398C15.3642 10.6998 15.3642 10.7598 15.3742 10.8098H16.0862L16.0662 10.9298L15.9562 11.4798L15.9362 11.5598H15.5542C15.5542 11.5598 15.5542 11.5698 15.5642 11.5698L15.5742 11.5898C15.7142 11.7798 15.8642 11.8798 16.0742 11.8798C16.2742 11.8798 16.4242 11.7998 16.5342 11.6398C16.5842 11.5498 16.6342 11.4198 16.6942 11.1998L16.7142 11.1298H17.5842Z" fill="#0D2B49"/>
<path d="M12.6492 13.2348C13.4352 14.2208 14.6442 14.8558 16.0002 14.8558C18.3642 14.8558 20.2872 12.9328 20.2872 10.5688C20.2872 8.37482 18.6292 6.56282 16.5002 6.31382C15.8642 6.26082 15.4762 6.31682 15.4762 6.31682C14.8722 6.39082 14.3092 6.59182 13.8102 6.88982C12.9322 7.44482 12.5442 8.04282 12.5442 8.04282C12.1952 8.51982 11.9402 9.06782 11.8112 9.66482C11.6822 10.2138 11.7172 10.6638 11.7172 10.6638C11.7302 11.2288 11.8492 11.7678 12.0612 12.2588C12.3422 12.8728 12.6492 13.2348 12.6492 13.2348ZM16.0002 13.8558C14.1872 13.8558 12.7132 12.3808 12.7132 10.5688C12.7132 8.75682 14.1882 7.28182 16.0002 7.28182C17.8122 7.28182 19.2872 8.75582 19.2872 10.5688C19.2872 12.3808 17.8122 13.8558 16.0002 13.8558Z" fill="#0D2B49"/>
<path d="M28.042 19.383C26.992 18.143 25.832 18.773 25.202 19.113C25.132 19.143 25.012 19.213 24.862 19.293C24.592 18.873 24.232 18.573 23.802 18.433C23.302 18.263 22.732 18.323 22.182 18.603C22.052 18.663 21.892 18.753 21.722 18.843C21.462 18.423 21.122 18.143 20.722 18.013C20.022 17.773 19.312 18.063 18.782 18.333L18.552 18.453C17.952 18.763 17.392 19.043 16.232 19.733C16.232 19.733 13.592 19.123 13.072 19.003C12.622 18.263 11.792 17.303 9.80195 16.723C7.66195 16.093 6.05195 17.043 4.02195 18.243L3.50195 18.553L4.01195 19.383L4.54195 19.073C6.50195 17.923 7.80195 17.153 9.51195 17.653C11.302 18.183 11.942 18.993 12.292 19.653C12.362 19.773 12.482 19.863 12.612 19.893C12.812 19.943 17.332 21.053 18.192 21.243C18.992 21.423 19.232 21.683 19.182 22.343C19.152 22.833 19.002 23.173 17.462 23.083C17.042 23.063 16.702 23.053 16.392 23.043C15.662 23.013 15.132 22.993 14.272 22.863L10.812 22.093L10.582 23.043L14.082 23.823C15.032 23.963 15.612 23.983 16.352 24.013C16.662 24.023 16.992 24.033 17.412 24.063C17.552 24.073 17.732 24.073 17.932 24.073C18.652 24.073 19.622 23.933 20.012 23.083C20.952 22.563 25.062 20.303 25.692 19.963C26.492 19.533 26.832 19.473 27.272 20.003C27.462 20.223 27.532 20.453 27.482 20.683C27.422 21.003 27.162 21.263 26.952 21.373C26.382 21.673 16.322 27.333 15.172 27.983C15.052 28.053 14.902 28.053 14.772 27.983L7.62195 24.333C7.18195 24.113 6.67195 24.123 6.24195 24.363L3.80195 25.723L4.30195 26.573L6.74195 25.203C6.87195 25.133 7.02195 25.133 7.15195 25.193L14.302 28.853C14.512 28.953 14.742 29.013 14.972 29.013C15.212 29.013 15.452 28.953 15.672 28.823C19.822 26.483 26.972 22.463 27.422 22.233C27.942 21.963 28.352 21.433 28.462 20.873C28.542 20.513 28.532 19.953 28.042 19.383ZM18.912 20.433C18.712 20.353 18.532 20.313 18.412 20.293C18.252 20.253 17.952 20.183 17.572 20.093C18.192 19.743 18.602 19.533 19.012 19.313L19.252 19.193C19.602 19.013 20.062 18.813 20.402 18.933C20.572 18.983 20.712 19.133 20.842 19.333C20.072 19.763 19.272 20.223 18.912 20.433ZM20.162 21.873C20.112 21.523 19.982 21.253 19.812 21.043C20.612 20.583 22.022 19.783 22.642 19.473C22.852 19.363 23.172 19.243 23.482 19.353C23.712 19.433 23.872 19.603 23.992 19.773C22.832 20.413 21.162 21.323 20.162 21.873Z" fill="#0D2B49"/>
</svg>
