<svg width="32" height="32" viewBox="0 0 32 32" fill="none" xmlns="http://www.w3.org/2000/svg">
<path d="M28.6 5H13.9C13.13 5 12.5 5.64001 12.5 6.42993V9.02002C11.71 8.83997 10.87 8.75 10 8.75C5.71997 8.75 2.21997 10.97 2.02002 13.75H2V21.75C2 24.6499 5.59003 27 10 27C14.41 27 18 24.6499 18 21.75V18H28.6C29.37 18 30 17.36 30 16.5701V6.42993C30 5.64001 29.37 5 28.6 5ZM13.49 6.42993C13.49 6.20996 13.68 6.01001 13.9 6.01001H28.6C28.82 6.01001 29.01 6.20996 29.01 6.42993V7.94995H13.49V6.42993ZM29 11H16.58C16.37 10.8 16.14 10.62 15.91 10.46C15.21 9.95996 14.43 9.59998 13.62 9.32996C13.58 9.32007 13.54 9.30005 13.5 9.29004V8.95996H29C29 8.95996 29 9.8999 29 11ZM10 26C6.15997 26 3.03998 24.11 3 21.79C4.36999 23.3999 6.98999 24.5 10 24.5C13.01 24.5 15.63 23.3999 17 21.79C16.96 24.11 13.84 26 10 26ZM17 19.25C17 21.59 13.86 23.5 10 23.5C6.14001 23.5 3 21.59 3 19.25V19.04C4.36999 20.6499 6.98999 21.75 10 21.75C13.01 21.75 15.63 20.6499 17 19.04V19.25ZM16.95 16.99C16.89 17.34 16.75 17.6799 16.54 18C15.54 19.6 12.99 20.75 10 20.75C6.15997 20.75 3.03998 18.86 3 16.54C4.36999 18.1499 6.98999 19.25 10 19.25C11.97 19.25 13.77 18.78 15.16 18C15.69 17.71 16.17 17.37 16.56 16.99C16.72 16.85 16.87 16.7 17 16.54C17 16.6899 16.98 16.84 16.95 16.99ZM16.93 14.54C16.74 15.49 16.03 16.34 14.97 16.99C14.44 17.3101 13.83 17.58 13.16 17.78C12.21 18.08 11.14 18.25 10 18.25C6.14001 18.25 3 16.34 3 14C3 11.6599 6.14001 9.75 10 9.75C10.88 9.75 11.73 9.84998 12.5 10.04C12.85 10.11 13.18 10.21 13.5 10.33C15.38 10.98 16.7 12.1599 16.95 13.53C16.99 13.6799 17 13.84 17 14C17 14.1799 16.98 14.37 16.93 14.54ZM29.01 16.5701C29.01 16.79 28.82 16.99 28.6 16.99H18V14.23C18 13.98 18.02 13.71 17.99 13.46C17.98 13.29 17.93 13.13 17.89 12.97C17.79 12.64 17.64 12.33 17.46 12.04C17.45 12.03 17.44 12.01 17.43 12H29C29 13.3 29 14.54 29.01 14.54V16.5701Z" fill="#0D2B49"/>
</svg>
