<svg width="32" height="32" viewBox="0 0 32 32" fill="none" xmlns="http://www.w3.org/2000/svg">
<path d="M15.001 16.5029H22.001V12.5029H15.001V16.5029ZM16.001 13.5029H21.001V15.5029H16.001V13.5029ZM15.001 7.00293V11.0029H22.001V7.00293H15.001ZM21.001 10.0029H16.001V8.00293H21.001V10.0029ZM16.001 19.0029H19.421C19.831 18.6129 20.291 18.2729 20.781 18.0029H15.001V22.0029H17.441C17.551 21.6529 17.701 21.3229 17.881 21.0029H16.001V19.0029ZM16.001 26.5029V24.5029H17.001C17.001 24.1629 17.021 23.8329 17.081 23.5029H15.001V27.5029H17.631C17.481 27.1829 17.371 26.8429 17.281 26.5029H16.001ZM10.001 22.0029H13.501V18.0029H10.001V22.0029ZM11.001 19.0029H12.501V21.0029H11.001V19.0029ZM10.001 16.5029H13.501V12.5029H10.001V16.5029ZM11.001 13.5029H12.501V15.5029H11.001V13.5029ZM10.001 11.0029H13.501V7.00293H10.001V11.0029ZM11.001 8.00293H12.501V10.0029H11.001V8.00293ZM6.50098 2.00293V5.50293H7.50098V30.0029H19.421C19.091 29.7029 18.781 29.3729 18.521 29.0029H13.501V23.5029H10.001V29.0029H8.50098V5.50293H23.501V17.0829C23.831 17.0229 24.161 17.0029 24.501 17.0029V5.50293H25.501V2.00293H6.50098ZM11.001 24.5029H12.501V29.0029H11.001V24.5029ZM24.501 4.50293H7.50098V3.00293H24.501V4.50293ZM15.001 16.5029H22.001V12.5029H15.001V16.5029ZM16.001 13.5029H21.001V15.5029H16.001V13.5029ZM22.001 7.00293H15.001V11.0029H22.001V7.00293ZM21.001 10.0029H16.001V8.00293H21.001V10.0029ZM19.421 19.0029C19.831 18.6129 20.291 18.2729 20.781 18.0029H15.001V22.0029H17.441C17.551 21.6529 17.701 21.3229 17.881 21.0029H16.001V19.0029H19.421ZM17.001 24.5029C17.001 24.1629 17.021 23.8329 17.081 23.5029H15.001V27.5029H17.631C17.481 27.1829 17.371 26.8429 17.281 26.5029H16.001V24.5029H17.001ZM10.001 22.0029H13.501V18.0029H10.001V22.0029ZM11.001 19.0029H12.501V21.0029H11.001V19.0029ZM13.501 12.5029H10.001V16.5029H13.501V12.5029ZM12.501 15.5029H11.001V13.5029H12.501V15.5029ZM13.501 7.00293H10.001V11.0029H13.501V7.00293ZM12.501 10.0029H11.001V8.00293H12.501V10.0029ZM16.001 26.5029V24.5029H17.001C17.001 24.1629 17.021 23.8329 17.081 23.5029H15.001V27.5029H17.631C17.481 27.1829 17.371 26.8429 17.281 26.5029H16.001ZM15.001 7.00293V11.0029H22.001V7.00293H15.001ZM21.001 10.0029H16.001V8.00293H21.001V10.0029ZM10.001 7.00293V11.0029H13.501V7.00293H10.001ZM12.501 10.0029H11.001V8.00293H12.501V10.0029ZM15.001 12.5029V16.5029H22.001V12.5029H15.001ZM21.001 15.5029H16.001V13.5029H21.001V15.5029ZM10.001 12.5029V16.5029H13.501V12.5029H10.001ZM12.501 15.5029H11.001V13.5029H12.501V15.5029ZM16.001 19.0029H19.421C19.831 18.6129 20.291 18.2729 20.781 18.0029H15.001V22.0029H17.441C17.551 21.6529 17.701 21.3229 17.881 21.0029H16.001V19.0029ZM10.001 18.0029V22.0029H13.501V18.0029H10.001ZM12.501 21.0029H11.001V19.0029H12.501V21.0029Z" fill="#0D2B49"/>
<path d="M24.501 18.0029C24.161 18.0029 23.821 18.0329 23.501 18.0829C22.971 18.1629 22.471 18.3029 22.001 18.5029C21.651 18.6429 21.311 18.8229 21.001 19.0229C20.211 19.5329 19.531 20.2129 19.021 21.0029C18.821 21.3129 18.641 21.6529 18.501 22.0029C18.301 22.4729 18.161 22.9729 18.081 23.5029C18.031 23.8229 18.001 24.1629 18.001 24.5029C18.001 25.2029 18.111 25.8729 18.311 26.5029C18.421 26.8529 18.571 27.1829 18.731 27.5029C19.021 28.0529 19.381 28.5629 19.811 29.0029C20.181 29.3829 20.591 29.7229 21.041 30.0029C22.041 30.6329 23.221 31.0029 24.501 31.0029C28.091 31.0029 31.001 28.0929 31.001 24.5029C31.001 20.9119 28.091 18.0029 24.501 18.0029ZM25.331 23.3729L25.161 24.1529H23.621C23.611 24.2829 23.611 24.4129 23.611 24.5429C23.611 24.6829 23.611 24.8129 23.621 24.9329H25.061L24.901 25.7229H23.791C23.831 25.8229 23.891 25.9129 23.941 25.9929C24.101 26.2129 24.281 26.3629 24.501 26.4229C24.591 26.4629 24.691 26.4729 24.801 26.4729C25.151 26.4729 25.421 26.3329 25.611 26.0629C25.711 25.9129 25.791 25.6929 25.871 25.3929H26.871C26.771 26.0229 26.551 26.5329 26.191 26.9329C25.831 27.3229 25.371 27.5129 24.811 27.5129C24.701 27.5129 24.601 27.5029 24.501 27.4929C24.111 27.4429 23.781 27.3029 23.501 27.0729C23.381 26.9729 23.271 26.8529 23.171 26.7229C22.961 26.4429 22.811 26.1129 22.711 25.7229H21.461L21.621 24.9329H22.591C22.571 24.8029 22.571 24.6729 22.571 24.5229C22.571 24.3929 22.571 24.2729 22.581 24.1529H21.461L21.591 23.5029L21.621 23.3729H22.691C22.801 22.9029 22.991 22.5129 23.251 22.2029C23.331 22.1029 23.411 22.0229 23.501 21.9529C23.791 21.6929 24.121 21.5529 24.501 21.5029C24.581 21.4929 24.661 21.4929 24.751 21.4929C25.571 21.4929 26.161 21.8129 26.541 22.4429C26.751 22.7929 26.861 23.1529 26.871 23.5129H25.871C25.801 23.2429 25.711 23.0329 25.611 22.8929C25.431 22.6429 25.151 22.5129 24.791 22.5129C24.691 22.5129 24.591 22.5229 24.501 22.5529C24.271 22.6329 24.071 22.7929 23.921 23.0529C23.871 23.1429 23.811 23.2529 23.771 23.3729H25.331Z" fill="#0D2B49"/>
</svg>
