<svg width="32" height="32" viewBox="0 0 32 32" fill="none" xmlns="http://www.w3.org/2000/svg">
<path d="M18.94 16.6899C18.84 16.8 18.72 16.89 18.59 16.95C18.46 17.01 18.31 17.05 18.17 17.05C17.59 17.05 17.22 16.59 17.22 15.78C17.22 14.98 17.64 14.5 18.18 14.5C18.45 14.51 18.7 14.62 18.88 14.8101L19.36 14.24C19.04 13.9199 18.61 13.74 18.17 13.73C17.9 13.73 17.64 13.79 17.41 13.8999C17.17 14 16.95 14.1599 16.77 14.36C16.6 14.55 16.46 14.78 16.38 15.03C16.3 15.28 16.27 15.54 16.29 15.8C16.27 16.0601 16.29 16.3201 16.37 16.5701C16.45 16.8201 16.59 17.04 16.76 17.23C16.94 17.4299 17.15 17.58 17.39 17.6799C17.62 17.79 17.88 17.84 18.14 17.83C18.38 17.83 18.62 17.78 18.84 17.6799C19.06 17.58 19.26 17.4299 19.41 17.25L18.94 16.6899ZM14.88 13.8H13.8L12.57 17.75H13.48L13.72 16.8101H14.94L15.17 17.75H16.11L14.88 13.8ZM13.9 16.11L14 15.75C14.11 15.36 14.21 14.89 14.31 14.47H14.34C14.43 14.89 14.54 15.36 14.66 15.75L14.75 16.11H13.9ZM12.39 15.76C12.42 15.49 12.39 15.22 12.3 14.97C12.21 14.72 12.07 14.49 11.88 14.3C11.69 14.11 11.45 13.97 11.2 13.88C10.94 13.79 10.67 13.77 10.41 13.8H9.28998V17.75H10.46C10.72 17.77 10.99 17.74 11.24 17.6499C11.49 17.5601 11.72 17.4099 11.9 17.22C12.09 17.03 12.23 16.8 12.31 16.55C12.4 16.29 12.42 16.03 12.39 15.76ZM10.35 17.04H10.18V14.52H10.35C11.02 14.52 11.47 14.8101 11.47 15.76C11.47 16.7 11.02 17.04 10.35 17.04ZM28.45 21.3201L26.99 21.11L26.34 19.79L25.69 21.11L24.23 21.3201L25.28 22.35L25.04 23.8101L26.34 23.12L27.64 23.8101L27.39 22.35L28.45 21.3201ZM23.99 25.76L22.53 25.55L21.88 24.22L21.23 25.55L19.77 25.76L20.83 26.79L20.58 28.24L21.88 27.55L23.19 28.24L22.94 26.79L23.99 25.76ZM7.65002 21.3201L6.19 21.11L5.53998 19.79L4.89001 21.11L3.42999 21.3201L4.48999 22.35L4.23999 23.8101L5.53998 23.12L6.84998 23.8101L6.59998 22.35L7.65002 21.3201ZM12.11 25.76L10.65 25.55L10 24.22L9.34998 25.55L7.89001 25.76L8.94 26.79L8.69 28.24L10 27.55L11.3 28.24L11.06 26.79L12.11 25.76ZM6.21997 15.52L4.76001 15.3101L4.10999 13.99L3.46002 15.3101L2 15.52L3.06 16.55L2.81 18.01L4.10999 17.3201L5.40997 18.01L5.16998 16.55L6.21997 15.52ZM7.65002 9.5L6.19 9.29004L5.53998 7.96997L4.89001 9.29004L3.42999 9.5L4.48999 10.53L4.23999 11.98L5.53998 11.3L6.84998 11.98L6.59998 10.53L7.65002 9.5ZM12.11 5.11999L10.65 4.90991L10 3.58997L9.34998 4.90991L7.89001 5.11999L8.94 6.15991L8.69 7.60998L10 6.91992L11.3 7.60998L11.06 6.15991L12.11 5.11999ZM30 15.52L28.54 15.3101L27.89 13.99L27.24 15.3101L25.78 15.52L26.83 16.55L26.59 18.01L27.89 17.3201L29.19 18.01L28.94 16.55L30 15.52ZM28.57 9.5L27.11 9.29004L26.46 7.95996L25.81 9.29004L24.35 9.5L25.4 10.53L25.15 11.98L26.46 11.3L27.76 11.98L27.51 10.53L28.57 9.5ZM24.11 5.11999L22.65 4.90991L22 3.58997L21.35 4.90991L19.89 5.11999L20.94 6.1499L20.7 7.60998L22 6.91992L23.31 7.60998L23.06 6.1499L24.11 5.11999ZM18.11 27.52L16.65 27.3L16 25.98L15.35 27.3L13.89 27.52L14.94 28.55L14.7 30L16 29.3101L17.3 30L17.06 28.55L18.11 27.52ZM18.11 3.53003L16.65 3.32007L16 2L15.35 3.32007L13.89 3.53003L14.94 4.56006L14.7 6.02002L16 5.32996L17.3 6.02002L17.06 4.56006L18.11 3.53003ZM23.69 16.0701C23.63 15.9199 23.55 15.78 23.44 15.6699C23.33 15.55 23.2 15.47 23.05 15.4099C22.9 15.35 22.75 15.33 22.59 15.34C22.44 15.35 22.29 15.39 22.16 15.46C22.03 15.53 21.91 15.63 21.82 15.75C21.86 14.85 22.2 14.54 22.62 14.54C22.84 14.5601 23.06 14.6599 23.22 14.8201L23.68 14.29C23.54 14.14 23.36 14.02 23.17 13.9399C22.98 13.86 22.77 13.83 22.56 13.83C21.75 13.83 21.01 14.47 21.01 15.9199C21.01 17.27 21.71 17.83 22.46 17.83C22.63 17.84 22.8 17.8101 22.96 17.75C23.12 17.6799 23.27 17.59 23.39 17.46C23.51 17.34 23.6 17.2 23.66 17.03C23.72 16.87 23.75 16.7 23.74 16.53C23.75 16.38 23.74 16.22 23.69 16.0701ZM22.43 17.1599C22.17 17.1599 21.92 16.97 21.85 16.35C21.9 16.24 21.98 16.1499 22.08 16.09C22.18 16.02 22.3 15.98 22.42 15.97C22.71 15.97 22.92 16.13 22.92 16.53C22.92 16.97 22.7 17.1599 22.43 17.1599Z" fill="#0D2B49"/>
</svg>
