<svg width="32" height="32" viewBox="0 0 32 32" fill="none" xmlns="http://www.w3.org/2000/svg">
<path d="M30 9.98871L29.5 10.4876L26.14 13.8301L25.44 13.1315L28.08 10.4876H24.41L24.26 10.2781C22.37 7.59422 19.28 5.99774 16 5.99774C11 5.99774 6.79999 9.60968 6.02002 14.4785H5.02002C5.78998 9.05089 10.44 5 16 5C19.51 5 22.83 6.67638 24.93 9.48984H28.08L25.44 6.84592L26.14 6.1473L29.5 9.48984L30 9.98871ZM25.99 17.4718C25.23 22.3708 21.02 26.0023 16 26.0023C12.72 26.0023 9.63001 24.4063 7.73999 21.7219L7.59003 21.5124H3.91998L6.56 18.8685L5.85999 18.1704L2.5 21.5124L2 22.0113L2.5 22.5102L5.85999 25.8527L6.56 25.1546L3.91998 22.5102H7.07001C9.16998 25.3241 12.49 27 16 27C21.58 27 26.24 22.9291 26.99 17.4718H25.99ZM16 9.09522C12.1402 9.09522 9 12.2283 9 16.0794C9 19.9306 12.1402 23.0636 16 23.0636C19.8598 23.0636 23 19.9306 23 16.0794C23 12.2283 19.8598 9.09522 16 9.09522ZM16 8.09748C20.4111 8.09748 24 11.6782 24 16.0794C24 20.4806 20.4111 24.0613 16 24.0613C11.5889 24.0613 8 20.4806 8 16.0794C8 11.6782 11.5889 8.09748 16 8.09748ZM17.7588 17.7504C17.4063 18.794 16.7158 19.4672 16 19.4672C15.3096 19.4672 14.6901 18.8622 14.3292 17.9706H16L16.5 16.9729H14.062C14.025 16.7308 14 16.4823 14 16.2246C14 16.1393 14.0118 16.0589 14.0161 15.9752H16.5L17 14.9774H14.1599C14.4682 13.8179 15.1868 12.9819 16 12.9819C16.6523 12.9819 17.2891 13.5422 17.6631 14.4444L18.5869 14.0625C18.0479 12.7617 17.0811 11.9842 16 11.9842C14.6282 11.9842 13.5125 13.2314 13.1422 14.9774H12.5L12 15.9752H13.0173C13.0139 16.0594 13 16.1388 13 16.2246C13 16.4818 13.0222 16.7293 13.0518 16.9729H12.1422L11.6422 17.9706H13.2626C13.7256 19.4517 14.7615 20.465 16 20.465C17.1699 20.465 18.207 19.5471 18.7061 18.07L17.7588 17.7504Z" fill="#0D2B49"/>
</svg>
