<svg width="32" height="32" viewBox="0 0 32 32" fill="none" xmlns="http://www.w3.org/2000/svg">
<path d="M10.607 4.5C11.927 4.5 13 5.573 13 6.893C13 8.213 11.927 9.286 10.607 9.286C9.288 9.286 8.214 8.213 8.214 6.893C8.214 5.573 9.288 4.5 10.607 4.5ZM10.607 3.5C8.733 3.5 7.214 5.019 7.214 6.893C7.214 8.767 8.733 10.286 10.607 10.286C12.481 10.286 14 8.767 14 6.893C14 5.019 12.481 3.5 10.607 3.5ZM21.857 8C23.039 8 24 8.961 24 10.143C24 11.325 23.039 12.286 21.857 12.286C20.675 12.286 19.714 11.325 19.714 10.143C19.714 8.961 20.676 8 21.857 8ZM21.857 7C20.121 7 18.714 8.407 18.714 10.143C18.714 11.879 20.121 13.286 21.857 13.286C23.593 13.286 25 11.879 25 10.143C25 8.407 23.593 7 21.857 7ZM27 14.4C26.56 14.15 26.05 14 25.5 14H18C18 12.34 16.66 11 15 11H6.5C5.95 11 5.44 11.15 5 11.4C4.1 11.92 3.5 12.89 3.5 14V23.75C3.5 24.72 4.28 25.5 5.25 25.5C5.52 25.5 5.77 25.44 6 25.32V27H10V26H7V19H6V23.75C6 24.16 5.66 24.5 5.25 24.5C4.84 24.5 4.5 24.16 4.5 23.75V14C4.5 13.5 4.69 13.04 5 12.69C5.25 12.39 5.6 12.11 6 12H15C16.1 12 17 12.9 17 14V15H26C26.4 15.11 26.75 15.39 27 15.69C27.31 16.04 27.5 16.5 27.5 17V23.75C27.5 24.16 27.16 24.5 26.75 24.5C26.34 24.5 26 24.16 26 23.75V19H25V26H20.5V27H26V25.32C26.23 25.44 26.48 25.5 26.75 25.5C27.72 25.5 28.5 24.72 28.5 23.75V17C28.5 15.89 27.9 14.92 27 14.4ZM15.25 16.5C15.939 16.5 16.5 17.061 16.5 17.75C16.5 18.439 15.939 19 15.25 19C14.561 19 14 18.439 14 17.75C14 17.061 14.561 16.5 15.25 16.5ZM15.25 15.5C14.007 15.5 13 16.507 13 17.75C13 18.993 14.007 20 15.25 20C16.493 20 17.5 18.993 17.5 17.75C17.5 16.507 16.493 15.5 15.25 15.5ZM18 20.71C17.69 20.57 17.35 20.5 17 20.5H13.5C13.15 20.5 12.81 20.57 12.5 20.71C11.62 21.09 11 21.97 11 23V27.75C11 28.44 11.56 29 12.25 29C12.34 29 12.42 28.99 12.5 28.97V30H18V28.97C18.08 28.99 18.16 29 18.25 29C18.94 29 19.5 28.44 19.5 27.75V23C19.5 21.97 18.88 21.09 18 20.71ZM18.5 27.75C18.5 27.89 18.39 28 18.25 28C18.11 28 18 27.89 18 27.75V25H17V29H13.5V25H12.5V27.75C12.5 27.89 12.39 28 12.25 28C12.11 28 12 27.89 12 27.75V23C12 22.4 12.35 21.86 12.91 21.62C13.09 21.54 13.29 21.5 13.5 21.5H17C17.21 21.5 17.41 21.54 17.6 21.63C18.15 21.86 18.5 22.4 18.5 23V27.75Z" fill="#0D2B49"/>
</svg>
