<svg width="32" height="32" viewBox="0 0 32 32" fill="none" xmlns="http://www.w3.org/2000/svg">
<path d="M28.18 15.5L24.32 9.48999L24 9H8L7.69 9.48999L3.82001 15.5L3.5 16L16 28.5L28.5 16L28.18 15.5ZM22.94 10L20.45 14.99L17.23 10H22.94ZM15.95 10L16 9.91992L16.05 10L19.59 15.5H12.41L15.95 10ZM14.77 10L11.56 14.99L9.06 10H14.77ZM8.21002 10.53L10.69 15.5H5.01001L8.21002 10.53ZM5.41998 16.5H11.15L14.37 25.46L5.41998 16.5ZM16 27.02L12.21 16.5H19.79L16 27.02ZM17.62 25.46L20.85 16.5H26.58L17.62 25.46ZM21.31 15.5L23.79 10.53L26.99 15.5H21.31ZM16.5 6.5V4C16.5 3.72363 16.2764 3.5 16 3.5C15.7236 3.5 15.5 3.72363 15.5 4V6.5C15.5 6.77637 15.7236 7 16 7C16.2764 7 16.5 6.77637 16.5 6.5ZM19.3535 7.35352L21.1211 5.58594C21.3164 5.39062 21.3164 5.07422 21.1211 4.87891C20.9258 4.68359 20.6094 4.68359 20.4141 4.87891L18.6465 6.64648C18.4512 6.8418 18.4512 7.1582 18.6465 7.35352C18.7441 7.45117 18.8721 7.5 19 7.5C19.1279 7.5 19.2559 7.45117 19.3535 7.35352ZM13.3535 7.35352C13.5488 7.1582 13.5488 6.8418 13.3535 6.64648L11.5859 4.87891C11.3906 4.68359 11.0742 4.68359 10.8789 4.87891C10.6836 5.07422 10.6836 5.39062 10.8789 5.58594L12.6465 7.35352C12.7441 7.45117 12.8721 7.5 13 7.5C13.1279 7.5 13.2559 7.45117 13.3535 7.35352Z" fill="#0D2B49"/>
</svg>
