<svg width="32" height="32" viewBox="0 0 32 32" fill="none" xmlns="http://www.w3.org/2000/svg">
<path d="M19.8658 19.1587L20.9485 20.2415C20.9517 20.1699 20.97 20.1025 20.97 20.03C20.97 17.52 19.08 15.4299 16.64 15.12L16.71 15.05L16.74 15.02L17.04 14.73L17.49 14.27C20.07 14.9199 21.97 17.25 21.97 20.03C21.97 20.4147 21.9304 20.7897 21.861 21.1541L22.6874 21.9803C22.8682 21.3608 22.97 20.7078 22.97 20.03C22.97 17 21.02 14.4099 18.3 13.46L18.5 13.26L18.1 12.59L17.65 11.84L17.36 11.35H14.64L14.35 11.84L13.9 12.59L13.6746 12.9675L16.8842 16.1772C18.366 16.5162 19.5302 17.6809 19.8658 19.1587ZM16.32 14.02L16.26 14.08L16 14.35L15.74 14.08L15.68 14.02H15.67L15.17 13.51L14.76 13.1L15.21 12.35H16.79L17.24 13.1L16.83 13.51L16.33 14.02H16.32ZM5 2V30H27V2H5ZM21 3H23V7.08581L22 6.08581L21 7.08581V3ZM26 29H6V3H20V9.5L22 7.5L24 9.5V3H26V29ZM22.2957 23.0027L21.5405 22.2476C21.5392 22.2507 21.5373 22.2535 21.536 22.2567L20.7355 21.4562C20.7365 21.4528 20.7383 21.4497 20.7393 21.4463L19.9106 20.6177C19.91 20.6215 19.9084 20.6248 19.9079 20.6287L15.4104 16.1311C15.4142 16.1306 15.4177 16.1289 15.4214 16.1284L14.5851 15.2922C14.5817 15.2932 14.5787 15.2949 14.5753 15.296L13.7956 14.5164C13.7988 14.515 13.8016 14.5132 13.8048 14.5118L13.0418 13.7488C13.0388 13.7502 13.0361 13.7522 13.033 13.7537L9.13965 9.86035L8.43262 10.5674L12.1331 14.2678C10.2664 15.5155 9.03003 17.6265 9.03003 20.03C9.03003 23.88 12.16 27 16 27C18.4049 27 20.5224 25.7705 21.7745 23.9092L23.6826 25.8174L24.3896 25.1103L22.2908 23.0115C22.2922 23.0084 22.2942 23.0057 22.2957 23.0027ZM19.5684 21.7031C18.9379 23.054 17.5881 24 16 24C13.81 24 12.03 22.22 12.03 20.03C12.03 18.4464 12.9793 17.097 14.3338 16.4685L19.5684 21.7031ZM16 26C12.7 26 10.03 23.33 10.03 20.03C10.03 17.8916 11.1652 16.0377 12.8599 14.9946L13.5909 15.7257C12.0698 16.5718 11.03 18.1775 11.03 20.03C11.03 22.77 13.26 25 16 25C17.8598 25 19.4574 23.9583 20.3042 22.439L21.0522 23.187C19.9984 24.8727 18.137 26 16 26Z" fill="#0D2B49"/>
</svg>
