<svg width="32" height="32" viewBox="0 0 32 32" fill="none" xmlns="http://www.w3.org/2000/svg">
<path d="M27.0034 17.4429V3.00293C27.0034 2.45293 26.5534 2.00293 26.0034 2.00293H11.5034L5.00342 8.50293V29.0029C5.00342 29.5529 5.45342 30.0029 6.00342 30.0029H19.4234C19.0934 29.7029 18.7834 29.3629 18.5134 29.0029H6.00342V9.00293H12.0034V3.00293H26.0034V17.1729C26.3434 17.2329 26.6834 17.3229 27.0034 17.4429Z" fill="#0D2B49"/>
<path d="M17.8834 21.0029C18.0634 20.6529 18.2734 20.3129 18.5134 20.0029H10.0034V21.0029H17.8834Z" fill="#0D2B49"/>
<path d="M18.0004 11H10.0004V12H18.0004V11Z" fill="#0D2B49"/>
<path d="M10.0004 15.4999H21.0004V16.4999H10.0004V15.4999Z" fill="#0D2B49"/>
<path d="M24.5005 18C22.7766 18 21.1233 18.6848 19.9043 19.9038C18.6853 21.1228 18.0005 22.7761 18.0005 24.5C18.0005 26.2239 18.6853 27.8772 19.9043 29.0962C21.1233 30.3152 22.7766 31 24.5005 31C26.2244 31 27.8777 30.3152 29.0967 29.0962C30.3157 27.8772 31.0005 26.2239 31.0005 24.5C31.0005 22.7761 30.3157 21.1228 29.0967 19.9038C27.8777 18.6848 26.2244 18 24.5005 18ZM24.5005 28C24.0905 28 23.7505 27.66 23.7505 27.25C23.7505 26.84 24.0905 26.5 24.5005 26.5C24.9105 26.5 25.2505 26.84 25.2505 27.25C25.2505 27.66 24.9105 28 24.5005 28ZM25.5305 24.75C25.2005 25.06 25.0005 25.26 25.0005 25.5H24.0005C24.0005 24.81 24.4705 24.37 24.8605 24.01C25.2605 23.65 25.5005 23.4 25.5005 23C25.5005 22.45 25.0505 22 24.5005 22C23.9505 22 23.5005 22.45 23.5005 23H22.5005C22.5005 21.9 23.4005 21 24.5005 21C25.6005 21 26.5005 21.9 26.5005 23C26.5005 23.86 25.9605 24.35 25.5305 24.75Z" fill="#0D2B49"/>
</svg>
