<svg width="32" height="32" viewBox="0 0 32 32" fill="none" xmlns="http://www.w3.org/2000/svg">
<path d="M6 20C3.79443 20 2 18.2056 2 16C2 13.7944 3.79443 12 6 12C8.20557 12 10 13.7944 10 16C10 18.2056 8.20557 20 6 20ZM6 13C4.3457 13 3 14.3457 3 16C3 17.6543 4.3457 19 6 19C7.6543 19 9 17.6543 9 16C9 14.3457 7.6543 13 6 13ZM16 20C13.7944 20 12 18.2056 12 16C12 13.7944 13.7944 12 16 12C18.2061 12 20 13.7944 20 16C20 18.2056 18.2061 20 16 20ZM16 13C14.3457 13 13 14.3457 13 16C13 17.6543 14.3457 19 16 19C17.6543 19 19 17.6543 19 16C19 14.3457 17.6543 13 16 13ZM26 20C23.7939 20 22 18.2056 22 16C22 13.7944 23.7939 12 26 12C28.2061 12 30 13.7944 30 16C30 18.2056 28.2061 20 26 20ZM26 13C24.3457 13 23 14.3457 23 16C23 17.6543 24.3457 19 26 19C27.6543 19 29 17.6543 29 16C29 14.3457 27.6543 13 26 13Z" fill="#0D2B49"/>
</svg>
