<svg width="32" height="32" viewBox="0 0 32 32" fill="none" xmlns="http://www.w3.org/2000/svg">
<path d="M6.5 25.0188H3.5V24.0167H6.5V25.0188ZM14 17.0021H4.5V20.0084H14V17.0021ZM15 16V20.0084C15 20.5618 14.5523 21.0105 14 21.0105H4.5C3.94772 21.0105 3.5 20.5618 3.5 20.0084V16H15ZM27.5 11.9916H18V14.9979H27.5V11.9916ZM27.5 10.9895C28.0523 10.9895 28.5 11.4382 28.5 11.9916V16H17V11.9916C17 11.4382 17.4477 10.9895 18 10.9895H27.5ZM11.5739 22.5632C12.3596 22.5632 12.8596 23.2372 12.8596 24.5137C12.8596 25.7962 12.3596 26.5 11.5739 26.5C10.7882 26.5 10.2882 25.7962 10.2882 24.5137C10.2882 23.2313 10.7882 22.5632 11.5739 22.5632ZM15.3679 24.0449L14.0964 26.4714H13.8429L15.1179 24.0449H15.3679ZM15.4429 24.9897C15.7714 24.9897 16 25.2581 16 25.727C16 26.1994 15.7714 26.4714 15.4429 26.4714C15.1144 26.4714 14.8857 26.1994 14.8857 25.727C14.8857 25.2581 15.1144 24.9897 15.4429 24.9897ZM7.73063 22.7176C7.93976 22.6164 8.16897 22.5637 8.40127 22.5632C8.55857 22.5501 8.7169 22.5709 8.86563 22.6243C9.01429 22.6776 9.14984 22.7622 9.26317 22.8724C9.37651 22.9826 9.465 23.1158 9.5227 23.2631C9.5804 23.4104 9.60595 23.5683 9.5977 23.7264C9.5977 24.4004 8.97262 25.0923 8.22262 25.8856L8.54262 25.858C8.59762 25.8539 8.65238 25.8504 8.70484 25.8478L8.85365 25.8439H9.78222V26.4284H7.2227V26.0288L7.71555 25.5469C8.4781 24.7886 8.93698 24.2443 8.93698 23.7621C8.94714 23.6761 8.93817 23.5888 8.91079 23.5066C8.88341 23.4245 8.83825 23.3493 8.77857 23.2866C8.71889 23.224 8.64611 23.1753 8.5654 23.144C8.48476 23.1128 8.39817 23.0998 8.31198 23.106C8.18278 23.1163 8.0569 23.1525 7.94198 23.2125C7.82706 23.2726 7.72532 23.3551 7.64294 23.4553L7.57389 23.5295L7.19286 23.1478C7.3377 22.9658 7.52151 22.8188 7.73063 22.7176ZM15.4429 25.2295C15.2929 25.2295 15.1822 25.3762 15.1822 25.727C15.1822 26.0777 15.2929 26.2316 15.4429 26.2316C15.5929 26.2316 15.7037 26.0777 15.7037 25.727C15.7037 25.3762 15.5929 25.2295 15.4429 25.2295ZM11.5739 23.1001C11.2107 23.1001 10.9429 23.44 10.9429 24.5137C10.9429 25.5874 11.2107 25.9632 11.5739 25.9632C11.9429 25.9632 12.2048 25.5874 12.2048 24.5137C12.2048 23.44 11.9429 23.1001 11.5739 23.1001ZM13.7679 24.0449C14.0964 24.0449 14.325 24.3133 14.325 24.7821C14.325 25.2545 14.0964 25.5265 13.7679 25.5265C13.4393 25.5265 13.2108 25.2545 13.2108 24.7821C13.2108 24.3133 13.4393 24.0449 13.7679 24.0449ZM13.7679 24.2847C13.6179 24.2847 13.5071 24.4314 13.5071 24.7821C13.5071 25.1329 13.6179 25.2868 13.7679 25.2868C13.9179 25.2868 14.0286 25.1329 14.0286 24.7821C14.0286 24.4314 13.9179 24.2847 13.7679 24.2847ZM22.525 5.50381C23.3107 5.50381 23.8107 6.17784 23.8107 7.45431C23.8107 8.73675 23.3107 9.4406 22.525 9.4406C21.7393 9.4406 21.2393 8.73675 21.2393 7.45431C21.2393 6.17187 21.7393 5.50381 22.525 5.50381ZM26.319 6.98548L25.0476 9.41197H24.794L26.069 6.98548H26.319ZM26.394 7.9303C26.7226 7.9303 26.9512 8.19872 26.9512 8.66756C26.9512 9.13997 26.7226 9.41197 26.394 9.41197C26.0655 9.41197 25.8369 9.13997 25.8369 8.66756C25.8369 8.19872 26.0655 7.9303 26.394 7.9303ZM18.6818 5.65818C18.891 5.55702 19.1202 5.50429 19.3524 5.50381C19.5098 5.49069 19.6681 5.51153 19.8167 5.56489C19.9654 5.61818 20.101 5.7028 20.2143 5.81295C20.3276 5.92318 20.4161 6.05639 20.4738 6.20369C20.5315 6.35098 20.5571 6.50893 20.5488 6.66695C20.5488 7.34098 19.9238 8.0329 19.1738 8.82622L19.4937 8.79862C19.5488 8.79449 19.6035 8.79099 19.656 8.78844L19.8048 8.78447H20.7333V9.36902H18.1738V8.96938L18.6667 8.4875C19.4293 7.72917 19.8881 7.18486 19.8881 6.70274C19.8983 6.61669 19.8894 6.52945 19.862 6.44721C19.8346 6.36505 19.7894 6.2899 19.7297 6.22723C19.67 6.16456 19.5972 6.11588 19.5166 6.08463C19.4359 6.05337 19.3494 6.04041 19.2631 6.04661C19.1339 6.05687 19.0081 6.09314 18.8932 6.1531C18.7782 6.21315 18.6765 6.2957 18.594 6.39591L18.525 6.47011L18.144 6.08837C18.2889 5.9064 18.4726 5.75943 18.6818 5.65818ZM26.394 8.17009C26.244 8.17009 26.1333 8.31683 26.1333 8.66756C26.1333 9.01829 26.244 9.17218 26.394 9.17218C26.544 9.17218 26.6548 9.01829 26.6548 8.66756C26.6548 8.31683 26.544 8.17009 26.394 8.17009ZM22.525 6.04065C22.1619 6.04065 21.894 6.38064 21.894 7.45431C21.894 8.52798 22.1619 8.90376 22.525 8.90376C22.894 8.90376 23.1559 8.52798 23.1559 7.45431C23.1559 6.38064 22.894 6.04065 22.525 6.04065ZM24.719 6.98548C25.0476 6.98548 25.2762 7.25389 25.2762 7.72273C25.2762 8.19514 25.0476 8.46714 24.719 8.46714C24.3905 8.46714 24.1619 8.19514 24.1619 7.72273C24.1619 7.25389 24.3905 6.98548 24.719 6.98548ZM24.719 7.22526C24.569 7.22526 24.4583 7.372 24.4583 7.72273C24.4583 8.07346 24.569 8.22735 24.719 8.22735C24.869 8.22735 24.9798 8.07346 24.9798 7.72273C24.9798 7.372 24.869 7.22526 24.719 7.22526Z" fill="#0D2B49"/>
</svg>
