<svg width="32" height="32" viewBox="0 0 32 32" fill="none" xmlns="http://www.w3.org/2000/svg">
<path d="M6.5 22.4921H3.5V21.4869H6.5V22.4921ZM9.2627 21.9713C9.2627 23.2811 9.7627 24 10.5484 24C11.3341 24 11.8341 23.2811 11.8341 21.9713C11.8341 20.6675 11.3341 19.9791 10.5484 19.9791C9.7627 19.9791 9.2627 20.6614 9.2627 21.9713ZM14.0925 21.4924L12.8175 23.9708H13.071L14.3425 21.4924H14.0925ZM13.8603 23.2104C13.8603 23.6929 14.0889 23.9708 14.4175 23.9708C14.746 23.9708 14.9746 23.6929 14.9746 23.2104C14.9746 22.7316 14.746 22.4574 14.4175 22.4574C14.0889 22.4574 13.8603 22.7316 13.8603 23.2104ZM7.43532 20.0522L7.34476 20.1047C7.09825 20.234 6.83365 20.3232 6.56032 20.369V20.8076H7.25675V23.3542H6.41151V23.9269H8.69127V23.3542H7.94722V20.0522H7.43532ZM14.6782 23.2104C14.6782 23.5687 14.5675 23.7258 14.4175 23.7258C14.2675 23.7258 14.1567 23.5687 14.1567 23.2104C14.1567 22.8522 14.2675 22.7023 14.4175 22.7023C14.5675 22.7023 14.6782 22.8522 14.6782 23.2104ZM11.1794 21.9713C11.1794 23.0679 10.9175 23.4517 10.5484 23.4517C10.1853 23.4517 9.91746 23.0679 9.91746 21.9713C9.91746 20.8746 10.1853 20.5274 10.5484 20.5274C10.9175 20.5274 11.1794 20.8746 11.1794 21.9713ZM12.1853 22.2454C12.1853 22.7279 12.4139 23.0057 12.7425 23.0057C13.071 23.0057 13.2996 22.7279 13.2996 22.2454C13.2996 21.7666 13.071 21.4924 12.7425 21.4924C12.4139 21.4924 12.1853 21.7666 12.1853 22.2454ZM13.0032 22.2454C13.0032 22.6036 12.8925 22.7608 12.7425 22.7608C12.5925 22.7608 12.4817 22.6036 12.4817 22.2454C12.4817 21.8872 12.5925 21.7373 12.7425 21.7373C12.8925 21.7373 13.0032 21.8872 13.0032 22.2454ZM21.3996 9.95662C21.3996 11.2431 21.8996 11.9491 22.6853 11.9491C23.471 11.9491 23.971 11.2431 23.971 9.95662C23.971 8.67614 23.471 8 22.6853 8C21.8996 8 21.3996 8.67016 21.3996 9.95662ZM26.2294 9.48631L24.9544 11.9204H25.2079L26.4794 9.48631H26.2294ZM25.9972 11.1737C25.9972 11.6476 26.2258 11.9204 26.5544 11.9204C26.8829 11.9204 27.1115 11.6476 27.1115 11.1737C27.1115 10.7034 26.8829 10.4341 26.5544 10.4341C26.2258 10.4341 25.9972 10.7034 25.9972 11.1737ZM19.5722 8.0718L19.4817 8.12342C19.2352 8.25043 18.9706 8.33795 18.6972 8.38295V8.81376H19.3936V11.3149H18.5484V11.8773H20.8282V11.3149H20.0841V8.0718H19.5722ZM26.8151 11.1737C26.8151 11.5255 26.7044 11.6799 26.5544 11.6799C26.4044 11.6799 26.2936 11.5255 26.2936 11.1737C26.2936 10.8218 26.4044 10.6746 26.5544 10.6746C26.7044 10.6746 26.8151 10.8218 26.8151 11.1737ZM23.3163 9.95662C23.3163 11.0337 23.0544 11.4106 22.6853 11.4106C22.3222 11.4106 22.0544 11.0337 22.0544 9.95662C22.0544 8.87958 22.3222 8.53852 22.6853 8.53852C23.0544 8.53852 23.3163 8.87958 23.3163 9.95662ZM24.3222 10.2259C24.3222 10.6998 24.5508 10.9726 24.8794 10.9726C25.2079 10.9726 25.4365 10.6998 25.4365 10.2259C25.4365 9.75557 25.2079 9.48631 24.8794 9.48631C24.5508 9.48631 24.3222 9.75557 24.3222 10.2259ZM25.1401 10.2259C25.1401 10.5777 25.0294 10.7321 24.8794 10.7321C24.7294 10.7321 24.6187 10.5777 24.6187 10.2259C24.6187 9.87405 24.7294 9.72685 24.8794 9.72685C25.0294 9.72685 25.1401 9.87405 25.1401 10.2259ZM14 16.9634H4.5V17.9686H14V16.9634ZM15 15.9581V17.9686C15 18.5237 14.5523 18.9738 14 18.9738H4.5C3.94772 18.9738 3.5 18.5237 3.5 17.9686V15.9581H15ZM27.5 13.9476H18V14.9529H27.5V13.9476ZM27.5 12.9424C28.0523 12.9424 28.5 13.3925 28.5 13.9476V15.9581H17V13.9476C17 13.3925 17.4477 12.9424 18 12.9424H27.5Z" fill="#0D2B49"/>
</svg>
