<svg width="32" height="32" viewBox="0 0 32 32" fill="none" xmlns="http://www.w3.org/2000/svg">
<path d="M14 17H4.5V22.5H14V17ZM15 16V22.5C15 23.0522 14.5523 23.5 14 23.5H4.5C3.94772 23.5 3.5 23.0522 3.5 22.5V16H15ZM27.5 9.5H18V15H27.5V9.5ZM27.5 8.5C28.0523 8.5 28.5 8.94775 28.5 9.5V16H17V9.5C17 8.94775 17.4477 8.5 18 8.5H27.5ZM19.8089 3C20.5351 3 21.0351 3.36351 21.0351 4.01784C21.0361 4.20208 20.9814 4.38217 20.8786 4.53376C20.7757 4.68535 20.6295 4.8011 20.4599 4.86541L20.3744 4.9024V4.92664C20.5942 4.96856 20.7928 5.08699 20.9361 5.26164C21.0795 5.43629 21.1587 5.65633 21.1601 5.88389C21.1601 6.58669 20.5589 6.99867 19.8328 6.99867C19.6069 7.0078 19.3817 6.96975 19.1708 6.88703C18.9599 6.80423 18.7679 6.67838 18.6066 6.5173L18.547 6.4534L18.8744 6.00506C18.9875 6.13496 19.1256 6.23973 19.2803 6.31268C19.4349 6.38562 19.6028 6.42529 19.7732 6.42917C20.184 6.42917 20.4696 6.21106 20.4696 5.84754C20.4696 5.46674 20.2429 5.21777 19.4757 5.19491L19.3565 5.19321V4.68429C20.1006 4.68429 20.3447 4.42377 20.3447 4.06631C20.347 3.99328 20.3336 3.92059 20.3056 3.85332C20.2775 3.78606 20.2354 3.72583 20.1821 3.67681C20.1289 3.62779 20.0658 3.59118 19.9972 3.56951C19.9286 3.54784 19.8563 3.54164 19.7852 3.55133C19.5291 3.55945 19.2852 3.66409 19.1007 3.84493L19.0232 3.91485L18.672 3.48469C18.9764 3.18157 19.3831 3.00821 19.8089 3ZM22.9815 3C23.7673 3 24.2672 3.68462 24.2672 4.98116C24.2672 6.28376 23.7673 6.99867 22.9815 6.99867C22.1958 6.99867 21.6959 6.28376 21.6959 4.98116C21.6959 3.67856 22.1958 3 22.9815 3ZM26.7756 4.50495L25.5042 6.96959H25.2506L26.5256 4.50495H26.7756ZM26.8506 5.46464C27.1792 5.46464 27.4078 5.73728 27.4078 6.21348C27.4078 6.69332 27.1792 6.96959 26.8506 6.96959C26.522 6.96959 26.2934 6.69332 26.2934 6.21348C26.2934 5.73728 26.522 5.46464 26.8506 5.46464ZM26.8506 5.70819C26.7006 5.70819 26.5899 5.85724 26.5899 6.21348C26.5899 6.56973 26.7006 6.72604 26.8506 6.72604C27.0006 6.72604 27.1113 6.56973 27.1113 6.21348C27.1113 5.85724 27.0006 5.70819 26.8506 5.70819ZM22.9815 3.54527C22.6185 3.54527 22.3506 3.89061 22.3506 4.98116C22.3506 6.07171 22.6185 6.4534 22.9815 6.4534C23.3506 6.4534 23.6125 6.07171 23.6125 4.98116C23.6125 3.89061 23.3506 3.54527 22.9815 3.54527ZM25.1756 4.50495C25.5042 4.50495 25.7328 4.7776 25.7328 5.2538C25.7328 5.73364 25.5042 6.00991 25.1756 6.00991C24.8471 6.00991 24.6184 5.73364 24.6184 5.2538C24.6184 4.7776 24.8471 4.50495 25.1756 4.50495ZM25.1756 4.74851C25.0256 4.74851 24.9148 4.89756 24.9148 5.2538C24.9148 5.61005 25.0256 5.76636 25.1756 5.76636C25.3256 5.76636 25.4363 5.61005 25.4363 5.2538C25.4363 4.89756 25.3256 4.74851 25.1756 4.74851ZM6.5 27.5H3.5V26.5H6.5V27.5ZM8.26198 25.0701C8.98817 25.0701 9.48817 25.4273 9.48817 26.0701C9.48913 26.2512 9.43444 26.4281 9.33159 26.577C9.22873 26.7259 9.08254 26.8396 8.91294 26.9028L8.82738 26.9392V26.963C9.04722 27.0042 9.24579 27.1205 9.38913 27.2921C9.53254 27.4637 9.61175 27.6799 9.61309 27.9035C9.61309 28.5939 9.0119 28.9987 8.28571 28.9987C8.05992 29.0077 7.83468 28.9703 7.62381 28.889C7.41294 28.8077 7.22087 28.6841 7.0596 28.5258L7 28.463L7.32738 28.0225C7.44048 28.1501 7.57865 28.2531 7.73333 28.3247C7.88794 28.3964 8.05579 28.4354 8.22619 28.4392C8.6369 28.4392 8.92262 28.2249 8.92262 27.8677C8.92262 27.4936 8.69587 27.249 7.92873 27.2266L7.8096 27.2249V26.7249C8.55365 26.7249 8.7977 26.4689 8.7977 26.1177C8.8 26.046 8.78667 25.9746 8.75865 25.9085C8.73056 25.8424 8.68841 25.7832 8.63516 25.735C8.5819 25.6869 8.51881 25.6509 8.45024 25.6296C8.38167 25.6084 8.30928 25.6023 8.23809 25.6118C7.98214 25.6197 7.73817 25.7226 7.55373 25.9002L7.47619 25.9689L7.12508 25.5463C7.42944 25.2485 7.83611 25.0781 8.26198 25.0701ZM11.4346 25.0701C12.2203 25.0701 12.7203 25.7427 12.7203 27.0166C12.7203 28.2963 12.2203 28.9987 11.4346 28.9987C10.6489 28.9987 10.1489 28.2963 10.1489 27.0166C10.1489 25.7368 10.6489 25.0701 11.4346 25.0701ZM15.2286 26.5487L13.9571 28.9701H13.7036L14.9786 26.5487H15.2286ZM15.3036 27.4916C15.6322 27.4916 15.8607 27.7594 15.8607 28.2273C15.8607 28.6987 15.6322 28.9701 15.3036 28.9701C14.9751 28.9701 14.7464 28.6987 14.7464 28.2273C14.7464 27.7594 14.9751 27.4916 15.3036 27.4916ZM15.3036 27.7308C15.1536 27.7308 15.0429 27.8773 15.0429 28.2273C15.0429 28.5773 15.1536 28.7308 15.3036 28.7308C15.4536 28.7308 15.5644 28.5773 15.5644 28.2273C15.5644 27.8773 15.4536 27.7308 15.3036 27.7308ZM11.4346 25.6058C11.0715 25.6058 10.8036 25.9451 10.8036 27.0166C10.8036 28.088 11.0715 28.463 11.4346 28.463C11.8036 28.463 12.0655 28.088 12.0655 27.0166C12.0655 25.9451 11.8036 25.6058 11.4346 25.6058ZM13.6286 26.5487C13.9571 26.5487 14.1858 26.8166 14.1858 27.2844C14.1858 27.7558 13.9571 28.0273 13.6286 28.0273C13.3 28.0273 13.0715 27.7558 13.0715 27.2844C13.0715 26.8166 13.3 26.5487 13.6286 26.5487ZM13.6286 26.788C13.4786 26.788 13.3679 26.9344 13.3679 27.2844C13.3679 27.6344 13.4786 27.788 13.6286 27.788C13.7786 27.788 13.8893 27.6344 13.8893 27.2844C13.8893 26.9344 13.7786 26.788 13.6286 26.788Z" fill="#0D2B49"/>
</svg>
