<svg width="32" height="32" viewBox="0 0 32 32" fill="none" xmlns="http://www.w3.org/2000/svg">
<path d="M10.99 15.605C10.714 15.605 10.49 15.381 10.49 15.105V12.982C10.49 12.706 10.714 12.482 10.99 12.482C11.266 12.482 11.49 12.706 11.49 12.982V15.105C11.49 15.381 11.267 15.605 10.99 15.605Z" fill="#0D2B49"/>
<path d="M4.00897 8.505C3.73297 8.505 3.50897 8.281 3.50897 8.005V5.461C3.51997 4.668 4.05097 3.5 5.46997 3.5H8.01397C8.28997 3.5 8.51397 3.724 8.51397 4C8.51397 4.276 8.28997 4.5 8.01397 4.5H5.46997C4.60497 4.5 4.51597 5.244 4.50897 5.472V8.005C4.50897 8.281 4.28497 8.505 4.00897 8.505Z" fill="#0D2B49"/>
<path d="M8.01397 28.494H5.46997C4.05097 28.494 3.51997 27.326 3.50897 26.54V23.99C3.50897 23.714 3.73297 23.49 4.00897 23.49C4.28497 23.49 4.50897 23.714 4.50897 23.99V26.533C4.51597 26.75 4.60497 27.494 5.46997 27.494H8.01397C8.28997 27.494 8.51397 27.718 8.51397 27.994C8.51397 28.27 8.28997 28.494 8.01397 28.494Z" fill="#0D2B49"/>
<path d="M26.523 28.494H23.979C23.703 28.494 23.479 28.27 23.479 27.994C23.479 27.718 23.703 27.494 23.979 27.494H26.523C27.388 27.494 27.477 26.75 27.484 26.522V23.99C27.484 23.714 27.708 23.49 27.984 23.49C28.26 23.49 28.484 23.714 28.484 23.99V26.533C28.473 27.326 27.942 28.494 26.523 28.494Z" fill="#0D2B49"/>
<path d="M27.99 8.505C27.714 8.505 27.49 8.281 27.49 8.005V5.461C27.484 5.243 27.395 4.5 26.53 4.5H23.986C23.71 4.5 23.486 4.276 23.486 4C23.486 3.724 23.71 3.5 23.986 3.5H26.53C27.949 3.5 28.48 4.668 28.491 5.454V8.005C28.49 8.281 28.267 8.505 27.99 8.505Z" fill="#0D2B49"/>
<path d="M21.002 15.605C20.726 15.605 20.502 15.381 20.502 15.105V12.982C20.502 12.706 20.726 12.482 21.002 12.482C21.278 12.482 21.502 12.706 21.502 12.982V15.105C21.502 15.381 21.279 15.605 21.002 15.605Z" fill="#0D2B49"/>
<path d="M15.033 17.991C15.011 17.991 14.989 17.991 14.967 17.991C14.691 17.985 14.472 17.757 14.478 17.48C14.484 17.208 14.707 16.991 14.978 16.991C14.991 16.991 15.015 16.991 15.034 16.991C15.327 16.991 15.461 16.929 15.494 16.889C15.484 16.848 15.497 16.74 15.497 16.699V13.987C15.497 13.711 15.721 13.487 15.997 13.487C16.273 13.487 16.497 13.711 16.497 13.987V16.65C16.536 16.889 16.501 17.231 16.279 17.51C16.025 17.829 15.606 17.991 15.033 17.991Z" fill="#0D2B49"/>
<path d="M15.988 23.49C15.083 23.49 14.186 23.265 13.395 22.84L13.25 22.76C13.012 22.621 12.93 22.316 13.068 22.077C13.207 21.837 13.513 21.756 13.752 21.895L13.866 21.958C15.19 22.671 16.885 22.652 18.194 21.911C18.431 21.774 18.766 21.842 18.904 22.082C19.041 22.321 18.987 22.609 18.748 22.747C17.867 23.245 16.934 23.49 15.988 23.49Z" fill="#0D2B49"/>
</svg>
