<svg width="32" height="32" viewBox="0 0 32 32" fill="none" xmlns="http://www.w3.org/2000/svg">
<path d="M16 7C17.3807 7 18.5 5.88061 18.5 4.5C18.5 3.11938 17.3807 2 16 2C14.6193 2 13.5 3.11938 13.5 4.5C13.5 5.88061 14.6193 7 16 7ZM16 3C16.8271 3 17.5 3.67285 17.5 4.5C17.5 5.32715 16.8271 6 16 6C15.1729 6 14.5 5.32715 14.5 4.5C14.5 3.67285 15.1729 3 16 3ZM21 14.3398V12C21 9.79004 19.21 8 17 8H15C12.79 8 11 9.79004 11 12V14.3398C10.07 15.47 9.5 16.9199 9.5 18.5C9.5 20.0801 10.07 21.53 11 22.6599V30H21V22.6599C21.93 21.53 22.5 20.0801 22.5 18.5C22.5 16.9199 21.93 15.47 21 14.3398ZM12 12C12 10.3501 13.35 9 15 9H17C18.65 9 20 10.3501 20 12V13.3799C18.9 12.52 17.51 12 16 12C14.49 12 13.1 12.52 12 13.3799V12ZM15.5 29H12V23.6201C12.98 24.3901 14.18 24.8799 15.5 24.98V29ZM20 29H16.5V24.98C17.82 24.8799 19.02 24.3901 20 23.6201V29ZM20 22.27C19 23.3301 17.57 24 16 24C14.43 24 13 23.3301 12 22.27C11.59 21.8398 11.25 21.3301 11 20.78C10.68 20.0898 10.5 19.3201 10.5 18.5C10.5 17.6799 10.68 16.9099 11 16.22C11.25 15.6699 11.59 15.1599 12 14.73C13 13.6699 14.43 13 16 13C17.57 13 19 13.6699 20 14.73C20.41 15.1599 20.75 15.6699 21 16.22C21.32 16.9099 21.5 17.6799 21.5 18.5C21.5 19.3201 21.32 20.0898 21 20.78C20.75 21.3301 20.41 21.8398 20 22.27ZM16.5 16H17.8L16.38 17.4199C15.99 17.1499 15.51 17 15 17C13.62 17 12.5 18.1201 12.5 19.5C12.5 20.8799 13.62 22 15 22C16.38 22 17.5 20.8799 17.5 19.5C17.5 18.99 17.35 18.51 17.08 18.1201L18.5 16.7V18H19.5V15H16.5V16ZM15 21C14.17 21 13.5 20.3301 13.5 19.5C13.5 18.6699 14.17 18 15 18C15.23 18 15.45 18.05 15.65 18.1599C15.8 18.22 15.94 18.3201 16.06 18.4399C16.18 18.5601 16.28 18.6999 16.35 18.8599C16.45 19.05 16.5 19.27 16.5 19.5C16.5 20.3301 15.83 21 15 21Z" fill="#0D2B49"/>
</svg>
