<svg width="32" height="32" viewBox="0 0 32 32" fill="none" xmlns="http://www.w3.org/2000/svg">
<path d="M20.5049 7C21.8837 7 23.0027 5.87988 23.0027 4.5C23.0027 3.12012 21.8837 2 20.5049 2C19.1261 2 18.0071 3.12012 18.0071 4.5C18.0071 5.87988 19.1261 7 20.5049 7ZM20.5049 3C21.3342 3 22.0036 3.66992 22.0036 4.5C22.0036 5.33008 21.3342 6 20.5049 6C19.6756 6 19.0062 5.33008 19.0062 4.5C19.0062 3.66992 19.6756 3 20.5049 3ZM11.5129 7C12.8917 7 14.0107 5.87988 14.0107 4.5C14.0107 3.12012 12.8917 2 11.5129 2C10.1342 2 9.01517 3.12012 9.01517 4.5C9.01517 5.87988 10.1342 7 11.5129 7ZM11.5129 3C12.3422 3 13.0116 3.66992 13.0116 4.5C13.0116 5.33008 12.3422 6 11.5129 6C10.6837 6 10.0143 5.33008 10.0143 4.5C10.0143 3.66992 10.6837 3 11.5129 3ZM25.9963 11.8298C25.9041 9.73091 24.1009 8 22.0036 8H18.2969C17.9172 7.12012 17.038 6.5 16.0089 6.5C14.9798 6.5 14.1007 7.12012 13.721 8C13.721 8 10.015 8 10.0143 8C9.12789 8 8.24769 8.31396 7.54906 8.85746C5.72096 10.2796 6.01784 12.7185 6.01785 14.7569C6.01785 17.3949 6.01785 20.0329 6.01785 22.6709C6.01785 24.8646 6.01785 27.0583 6.01785 29.252C6.01785 29.2895 6.01785 30 6.01785 30C6.01839 30 26 30 26 30C26 30 26 12.0581 26 12.0001C26 11.9432 25.9987 11.8864 25.9963 11.8298ZM23.0027 9.17993C23.0626 9.18994 23.1126 9.20996 23.1625 9.23999C23.3623 9.31006 23.5422 9.41992 23.7121 9.53003C23.782 9.58008 23.8519 9.62988 23.9118 9.68994C23.9918 9.75 24.0617 9.81006 24.1217 9.87988C24.2216 9.96997 24.3115 10.0701 24.3815 10.1799C24.4713 10.29 24.5513 10.4199 24.6212 10.54C24.6812 10.6299 24.7211 10.73 24.7611 10.8398C24.8011 10.9099 24.8311 11 24.851 11.0801C24.881 11.1699 24.9109 11.27 24.9309 11.3701C24.9609 11.5 24.9809 11.6401 24.9909 11.79V11.8301C24.881 13.7 23.832 15.3701 22.2134 16.5701C22.0136 15.9299 21.7238 15.3301 21.3442 14.79C22.3532 13.27 22.9727 11.3101 23.0027 9.17993ZM19.5058 22.74C18.5566 23.53 17.3378 24 16.0089 24C14.6801 24 13.4612 23.53 12.512 22.74C12.1324 22.4199 11.7927 22.0601 11.5129 21.6499C10.8835 20.76 10.5138 19.6699 10.5138 18.5C10.5138 18.3901 10.5138 18.28 10.5338 18.1799C10.5438 17.8201 10.5938 17.48 10.6837 17.1499C10.8135 16.6099 11.0334 16.1099 11.3231 15.6499C12.2123 14.1599 13.8009 13.1401 15.6393 13.02C15.7591 13 15.879 13 16.0089 13C16.1388 13 16.2587 13 16.3786 13.02C18.217 13.1401 19.8055 14.1599 20.6947 15.6499C20.9845 16.1099 21.2043 16.6099 21.3342 17.1499C21.4241 17.48 21.474 17.8201 21.484 18.1799C21.504 18.28 21.504 18.3901 21.504 18.5C21.504 19.6699 21.1343 20.76 20.5049 21.6499C20.2251 22.0601 19.8855 22.4199 19.5058 22.74ZM14.8999 8C15.1696 7.68994 15.5693 7.5 16.0089 7.5C16.4485 7.5 16.8482 7.68994 17.1179 8C17.3577 8.26001 17.5076 8.60986 17.5076 9C17.5076 9.83008 16.8382 10.5 16.0089 10.5C15.1796 10.5 14.5103 9.83008 14.5103 9C14.5103 8.60986 14.6602 8.26001 14.8999 8ZM13.5112 9C13.5112 10.3799 14.6301 11.5 16.0089 11.5C17.3877 11.5 18.5067 10.3799 18.5067 9H22.0036C22.0036 10.8901 21.514 12.6299 20.6847 13.99C19.5957 12.8599 18.107 12.1201 16.4385 12.02C16.2986 12 16.1488 12 16.0089 12C15.869 12 15.7192 12 15.5793 12.02C13.9108 12.1201 12.4221 12.8599 11.3331 13.99C10.5038 12.6299 10.0143 10.8901 10.0143 9H13.5112ZM7.02695 11.79C7.03695 11.6401 7.0569 11.5 7.0869 11.3701C7.1069 11.27 7.12684 11.1699 7.16684 11.0801C7.18678 11 7.21679 10.9199 7.25673 10.8398C7.32667 10.6499 7.42656 10.47 7.53651 10.3C7.58645 10.23 7.63639 10.1599 7.70634 10.0898C7.75628 10.02 7.81623 9.94995 7.89617 9.87988C7.95612 9.82007 8.01606 9.75 8.09601 9.68994C8.36572 9.46997 8.67544 9.30005 9.01517 9.17993C9.04517 11.3101 9.66461 13.27 10.6737 14.79C10.2941 15.3301 10.0043 15.9299 9.80444 16.5701C8.18589 15.3701 7.13684 13.7 7.02695 11.8301V11.79ZM11.5129 29H7.01695V14.98C7.62639 16 8.50561 16.8999 9.57467 17.6099C9.53472 17.8999 9.51472 18.2 9.51472 18.5C9.51472 20.3398 10.2841 22.01 11.5129 23.1899V29ZM19.5058 29H16.5085V25H16.0089H15.5094V29H12.512V23.98C13.5212 24.6201 14.7201 25 16.0089 25C17.2977 25 18.4967 24.6201 19.5058 23.98V29ZM25.0009 29H20.5049V23.1899C21.7338 22.01 22.5031 20.3398 22.5031 18.5C22.5031 18.2 22.4831 17.8999 22.4432 17.6099C23.5122 16.8999 24.3915 16 25.0009 14.98V29ZM16.0089 14.5C14.6301 14.5 13.5112 15.6201 13.5112 17C13.5112 18.21 14.3704 19.22 15.5094 19.4499V20H14.5103V21H15.5094V22.5H16.5085V21H17.5076V20H16.5085V19.4499C17.6475 19.22 18.5067 18.21 18.5067 17C18.5067 15.6201 17.3877 14.5 16.0089 14.5ZM16.0089 18.5C15.1796 18.5 14.5103 17.8301 14.5103 17C14.5103 16.1699 15.1796 15.5 16.0089 15.5C16.8382 15.5 17.5076 16.1699 17.5076 17C17.5076 17.8301 16.8382 18.5 16.0089 18.5Z" fill="#0D2B49"/>
</svg>
