<svg width="32" height="32" viewBox="0 0 32 32" fill="none" xmlns="http://www.w3.org/2000/svg">
<path d="M20.5 7C21.8807 7 23 5.88061 23 4.5C23 3.11938 21.8807 2 20.5 2C19.1193 2 18 3.11938 18 4.5C18 5.88061 19.1193 7 20.5 7ZM20.5 3C21.3271 3 22 3.67285 22 4.5C22 5.32715 21.3271 6 20.5 6C19.6729 6 19 5.32715 19 4.5C19 3.67285 19.6729 3 20.5 3ZM25.99 11.8301C25.99 11.72 25.98 11.6001 25.96 11.49C25.96 11.45 25.95 11.3999 25.94 11.3501C25.91 11.1599 25.87 10.96 25.8 10.77C25.77 10.6599 25.73 10.5601 25.69 10.46C25.66 10.3901 25.63 10.3201 25.6 10.25C25.17 9.37988 24.44 8.68994 23.55 8.32007C23.46 8.28003 23.36 8.23999 23.27 8.20996C23.15 8.16992 23.03 8.12988 22.9 8.10986C22.61 8.04004 22.31 8 22 8H18.29C17.91 7.12012 17.03 6.5 16 6.5C14.97 6.5 14.09 7.12012 13.71 8H10C9.69 8 9.39001 8.04004 9.09998 8.10986C8.96997 8.12988 8.84998 8.16992 8.72998 8.20996C8.64001 8.23999 8.53998 8.28003 8.45001 8.32007C8.28003 8.39014 8.10999 8.46997 7.95001 8.57007C7.79999 8.65991 7.65002 8.76001 7.51001 8.87012C7.40002 8.95996 7.29999 9.05005 7.20001 9.1499C7.13 9.20996 7.07001 9.28003 7.01001 9.3501C6.77002 9.62012 6.56 9.91992 6.40002 10.25C6.37 10.3201 6.34003 10.3901 6.31 10.46C6.27002 10.5601 6.22998 10.6599 6.20001 10.77C6.13 10.96 6.09003 11.1599 6.06 11.3501C6.04999 11.3999 6.03998 11.45 6.03998 11.49C6.02002 11.6001 6.01001 11.72 6.01001 11.8301C6 11.8901 6 11.9399 6 12V30H26V12C26 11.9399 26 11.8901 25.99 11.8301ZM23 9.17993C23.06 9.18994 23.11 9.20996 23.16 9.23999C23.21 9.25 23.26 9.27002 23.3 9.30005C23.35 9.32007 23.4 9.33984 23.44 9.37012C23.53 9.40991 23.61 9.46997 23.69 9.52002C23.77 9.57007 23.84 9.62988 23.91 9.68994C23.99 9.75 24.06 9.81006 24.12 9.87988C24.14 9.89014 24.15 9.90991 24.16 9.91992C24.24 10 24.32 10.0898 24.38 10.1799C24.47 10.29 24.55 10.4199 24.62 10.54C24.67 10.6201 24.71 10.7 24.73 10.78C24.75 10.8 24.76 10.8201 24.76 10.8398C24.79 10.8999 24.82 10.97 24.84 11.04C24.88 11.1499 24.91 11.25 24.93 11.3701C24.96 11.51 24.98 11.6699 24.99 11.8201V11.8301C24.88 13.7 23.83 15.3701 22.21 16.5701C22.01 15.9299 21.72 15.3301 21.34 14.79C22.35 13.27 22.97 11.3101 23 9.17993ZM19.5 22.74C18.55 23.53 17.33 24 16 24C14.67 24 13.45 23.53 12.5 22.74C12.12 22.4199 11.78 22.0601 11.5 21.6499C10.87 20.76 10.5 19.6699 10.5 18.5C10.5 18.3901 10.5 18.28 10.52 18.1799C10.53 17.8201 10.58 17.48 10.67 17.1499C10.8 16.6099 11.02 16.1099 11.31 15.6499C12.2 14.1599 13.79 13.1401 15.63 13.02C15.75 13 15.87 13 16 13C16.13 13 16.25 13 16.37 13.02C18.21 13.1401 19.8 14.1599 20.69 15.6499C20.98 16.1099 21.2 16.6099 21.33 17.1499C21.42 17.48 21.47 17.8201 21.48 18.1799C21.5 18.28 21.5 18.3901 21.5 18.5C21.5 19.6699 21.13 20.76 20.5 21.6499C20.22 22.0601 19.88 22.4199 19.5 22.74ZM14.89 8C15.16 7.68994 15.56 7.5 16 7.5C16.44 7.5 16.84 7.68994 17.11 8C17.35 8.26001 17.5 8.60986 17.5 9C17.5 9.83008 16.83 10.5 16 10.5C15.17 10.5 14.5 9.83008 14.5 9C14.5 8.60986 14.65 8.26001 14.89 8ZM13.5 9C13.5 10.3799 14.62 11.5 16 11.5C17.38 11.5 18.5 10.3799 18.5 9H22C22 10.8901 21.51 12.6299 20.68 13.99C19.59 12.8599 18.1 12.1201 16.43 12.02C16.29 12 16.14 12 16 12C15.86 12 15.71 12 15.57 12.02C13.9 12.1201 12.41 12.8599 11.32 13.99C10.49 12.6299 10 10.8901 10 9H13.5ZM7.01001 11.8201C7.02002 11.6699 7.03998 11.52 7.07001 11.3701C7.09003 11.27 7.10999 11.1699 7.15002 11.0801C7.15002 11.0701 7.15002 11.05 7.15997 11.04C7.17999 10.97 7.20001 10.8999 7.23999 10.8398C7.31 10.6299 7.41998 10.4299 7.56 10.25C7.59003 10.2 7.64001 10.1401 7.69 10.0898C7.73999 10.02 7.79999 9.94995 7.88 9.87988C7.90002 9.8501 7.92999 9.83008 7.96002 9.80005C8.01001 9.75 8.07001 9.69995 8.13 9.65991C8.19 9.60986 8.25 9.56006 8.32001 9.52002C8.38 9.47998 8.44 9.43994 8.51001 9.3999C8.57001 9.35986 8.64001 9.33008 8.71002 9.30005C8.79999 9.25 8.90002 9.20996 9 9.17993C9.03003 11.3101 9.65002 13.27 10.66 14.79C10.28 15.3301 9.98999 15.9299 9.78998 16.5701C8.16998 15.3701 7.12 13.7 7.01001 11.8301V11.8201ZM11.5 29H7V14.98C7.60999 16 8.48999 16.8999 9.56 17.6099C9.52002 17.8999 9.5 18.2 9.5 18.5C9.5 20.3398 10.27 22.01 11.5 23.1899V29ZM19.5 29H16.5V25H16H15.5V29H12.5V23.98C13.51 24.6201 14.71 25 16 25C17.29 25 18.49 24.6201 19.5 23.98V29ZM25 29H20.5V23.1899C21.73 22.01 22.5 20.3398 22.5 18.5C22.5 18.2 22.48 17.8999 22.44 17.6099C23.51 16.8999 24.39 16 25 14.98V29ZM11.5 7C12.8807 7 14 5.88061 14 4.5C14 3.11938 12.8807 2 11.5 2C10.1193 2 9 3.11938 9 4.5C9 5.88061 10.1193 7 11.5 7ZM11.5 3C12.3271 3 13 3.67285 13 4.5C13 5.32715 12.3271 6 11.5 6C10.6729 6 10 5.32715 10 4.5C10 3.67285 10.6729 3 11.5 3ZM16.5 16H17.8L16.38 17.4199C15.99 17.1499 15.51 17 15 17C13.62 17 12.5 18.1201 12.5 19.5C12.5 20.8799 13.62 22 15 22C16.38 22 17.5 20.8799 17.5 19.5C17.5 18.99 17.35 18.51 17.08 18.1201L18.5 16.7V18H19.5V15H16.5V16ZM15 21C14.17 21 13.5 20.3301 13.5 19.5C13.5 18.6699 14.17 18 15 18C15.23 18 15.45 18.05 15.65 18.1599C15.8 18.22 15.94 18.3201 16.06 18.4399C16.18 18.5601 16.28 18.6999 16.35 18.8599C16.45 19.05 16.5 19.27 16.5 19.5C16.5 20.3301 15.83 21 15 21Z" fill="#0D2B49"/>
</svg>
