<svg width="32" height="32" viewBox="0 0 32 32" fill="none" xmlns="http://www.w3.org/2000/svg">
<path d="M25.9819 11.8601C25.9588 11.5371 25.9115 11.2172 25.8184 10.9044C25.6222 10.2446 25.2636 9.63416 24.7754 9.14833C24.4145 8.78912 23.9847 8.50087 23.514 8.30624C23.0347 8.10799 22.5164 8 21.9973 8H18.289C17.9091 7.12012 17.0296 6.5 16 6.5C14.9705 6.5 14.0909 7.12012 13.7111 8C13.3831 8 13.0552 8 12.7272 8C12.1251 8 11.5229 8 10.9207 8C10.5839 8 10.2468 7.99209 9.91013 8.00733C9.73988 8.01503 9.56981 8.02862 9.40097 8.05203C9.23806 8.07461 9.09162 8.1251 8.93323 8.15991C8.61834 8.25847 8.32558 8.3631 8.03749 8.5276C7.09447 9.06607 6.36792 10.0219 6.11451 11.1001C5.97703 11.685 6.00457 12.2815 6.00457 12.8771C6.00457 13.1707 6.00457 13.4644 6.00457 13.7581C6.00457 14.1307 6.00457 14.5033 6.00457 14.876C6.00457 15.3122 6.00457 15.7484 6.00457 16.1845C6.00457 16.6689 6.00457 17.1533 6.00457 17.6376C6.00457 18.1547 6.00457 18.6719 6.00457 19.189C6.00457 19.7235 6.00457 20.258 6.00457 20.7925C6.00457 21.329 6.00457 21.8654 6.00457 22.4019C6.00457 22.925 6.00457 23.448 6.00457 23.9711C6.00457 24.4654 6.00457 24.9596 6.00457 25.4539C6.00457 25.9039 6.00457 26.3539 6.00457 26.804C6.00457 27.1944 6.00457 27.5849 6.00457 27.9753C6.00457 28.2907 6.00457 28.6062 6.00457 28.9216C6.00457 29.1467 6.00457 29.3717 6.00457 29.5968C6.00457 29.716 6.00457 29.8353 6.00457 29.9545C6.00457 29.9697 6.00457 29.9848 6.00457 30H25.9955C25.9955 29.9749 25.9955 29.9498 25.9955 29.9248C25.9955 29.8522 25.9955 29.7797 25.9955 29.7071C25.9955 29.591 25.9955 29.4748 25.9955 29.3587C25.9955 29.2028 25.9955 29.047 25.9955 28.8911C25.9955 28.6994 25.9955 28.5077 25.9955 28.316C25.9955 28.0924 25.9955 27.8687 25.9955 27.6451C25.9955 27.3933 25.9955 27.1416 25.9955 26.8899C25.9955 26.6139 25.9955 26.338 25.9955 26.0621C25.9955 25.7658 25.9955 25.4696 25.9955 25.1734C25.9955 24.8607 25.9955 24.548 25.9955 24.2353C25.9955 23.9101 25.9955 23.5848 25.9955 23.2596C25.9955 22.9257 25.9955 22.5917 25.9955 22.2578C25.9955 21.9191 25.9955 21.5804 25.9955 21.2417C25.9955 20.902 25.9955 20.5624 25.9955 20.2228C25.9955 19.8861 25.9955 19.5494 25.9955 19.2127C25.9955 18.8829 25.9955 18.5531 25.9955 18.2232C25.9955 17.9041 25.9955 17.585 25.9955 17.2659C25.9955 16.9613 25.9955 16.6568 25.9955 16.3523C25.9955 16.0663 25.9955 15.7802 25.9955 15.4942C25.9955 15.2305 25.9955 14.9668 25.9955 14.7031C25.9955 14.4657 25.9955 14.2282 25.9955 13.9908C25.9955 13.7835 25.9955 13.5761 25.9955 13.3688C25.9955 12.8687 26.0178 12.3607 25.9819 11.8601ZM22.9968 9.17993C23.0368 9.19995 23.0768 9.20996 23.1268 9.21997C23.1567 9.23999 23.1768 9.25 23.2068 9.26001C23.3667 9.33008 23.5166 9.40991 23.6565 9.51001C23.6665 9.51001 23.6765 9.51001 23.6765 9.52002C23.9864 9.72998 24.2563 10 24.4661 10.3C24.4761 10.3201 24.4862 10.3398 24.5062 10.3599C24.5861 10.49 24.6561 10.6299 24.726 10.77C24.736 10.8 24.7561 10.8398 24.7761 10.8701C24.836 11.03 24.886 11.1899 24.926 11.3599C24.936 11.4299 24.946 11.51 24.956 11.5801C24.9659 11.6699 24.9759 11.76 24.9859 11.8501C24.826 14.3201 23.0568 16.4199 20.498 17.5601C20.1781 17.7 19.8383 17.8301 19.4984 17.9399C18.5689 18.25 17.5593 18.4299 16.4998 18.48V17.97C17.5893 17.8701 18.6088 17.45 19.4984 16.78C19.8383 16.53 20.1581 16.24 20.458 15.9199C21.9773 14.3101 22.9469 11.8901 22.9968 9.17993ZM16 17C14.7506 17 13.5811 16.49 12.6216 15.6099C13.0114 14.1099 14.3808 13 16 13C17.6193 13 18.9887 14.1099 19.3785 15.6099C18.4189 16.49 17.2495 17 16 17ZM14.8905 8C15.1604 7.68994 15.5602 7.5 16 7.5C16.4398 7.5 16.8397 7.68994 17.1095 8C17.3494 8.26001 17.4993 8.60986 17.4993 9C17.4993 9.83008 16.8297 10.5 16 10.5C15.1704 10.5 14.5007 9.83008 14.5007 9C14.5007 8.60986 14.6507 8.26001 14.8905 8ZM13.5012 9C13.5012 10.3799 14.6206 11.5 16 11.5C17.3794 11.5 18.4989 10.3799 18.4989 9H21.9973C21.9973 11.26 21.2876 13.3101 20.1581 14.76C19.4684 13.1401 17.8692 12 16 12C14.1309 12 12.5316 13.1401 11.8419 14.76C10.7125 13.3101 10.0028 11.26 10.0028 9H13.5012ZM11.5021 29H7.00412V14.97C7.9637 16.5601 9.54294 17.8501 11.5021 18.6299V29ZM7.01412 11.8501C7.02413 11.76 7.03413 11.6699 7.04408 11.5801C7.05408 11.5 7.06409 11.4199 7.0841 11.3398C7.11405 11.1799 7.16402 11.03 7.22399 10.8799C7.244 10.8398 7.26401 10.8 7.28402 10.76C7.34399 10.6299 7.41391 10.5 7.48388 10.3799C7.50389 10.3501 7.5239 10.3201 7.54385 10.29C7.74377 10 7.99366 9.75 8.28357 9.55005C8.33353 9.51001 8.3935 9.47998 8.44347 9.44995C8.53345 9.3999 8.62338 9.3501 8.71336 9.30005C8.78334 9.27002 8.86326 9.22998 8.94324 9.19995C8.96325 9.18994 8.9832 9.18994 9.00321 9.17993C9.04317 11.8901 10.0228 14.3101 11.542 15.9199C11.8319 16.24 12.1617 16.53 12.5016 16.78C13.3912 17.45 14.4107 17.8701 15.5003 17.97V18.48C14.4407 18.4299 13.4312 18.25 12.5016 17.9399C12.1617 17.8301 11.8219 17.7 11.5021 17.5601C8.94324 16.4199 7.17402 14.3201 7.01412 11.8501ZM19.4984 29H16.4998V22.5H15.5003V29H12.5016V18.98C13.4412 19.26 14.4507 19.4399 15.5003 19.48H16.4998C17.5493 19.4399 18.5589 19.26 19.4984 18.98V29ZM24.9959 29H20.498V18.6299C22.4571 17.8501 24.0363 16.5601 24.9959 14.97V29ZM11.5021 7C12.8822 7 14.0009 5.88061 14.0009 4.5C14.0009 3.11938 12.8822 2 11.5021 2C10.122 2 9.00321 3.11938 9.00321 4.5C9.00321 5.88061 10.122 7 11.5021 7ZM11.5021 3C12.3288 3 13.0014 3.67285 13.0014 4.5C13.0014 5.32715 12.3288 6 11.5021 6C10.6754 6 10.0028 5.32715 10.0028 4.5C10.0028 3.67285 10.6754 3 11.5021 3ZM20.498 7C21.8781 7 22.9968 5.88061 22.9968 4.5C22.9968 3.11938 21.8781 2 20.498 2C19.1179 2 17.9991 3.11938 17.9991 4.5C17.9991 5.88061 19.1179 7 20.498 7ZM20.498 3C21.3247 3 21.9973 3.67285 21.9973 4.5C21.9973 5.32715 21.3247 6 20.498 6C19.6713 6 18.9987 5.32715 18.9987 4.5C18.9987 3.67285 19.6713 3 20.498 3Z" fill="#0D2B49"/>
</svg>
