<svg width="32" height="32" viewBox="0 0 32 32" fill="none" xmlns="http://www.w3.org/2000/svg">
<path d="M10.5 6.98046C11.8807 6.98046 13 5.86545 13 4.49023C13 3.11501 11.8807 2 10.5 2C9.11932 2 8 3.11501 8 4.49023C8 5.86545 9.11932 6.98046 10.5 6.98046ZM10.5 2.99609C11.3271 2.99609 12 3.66631 12 4.49023C12 5.31414 11.3271 5.98437 10.5 5.98437C9.67291 5.98437 9 5.31414 9 4.49023C9 3.66631 9.67291 2.99609 10.5 2.99609ZM21.5 6.98046C22.8807 6.98046 24 5.86545 24 4.49023C24 3.11501 22.8807 2 21.5 2C20.1193 2 19 3.11501 19 4.49023C19 5.86545 20.1193 6.98046 21.5 6.98046ZM21.5 2.99609C22.3271 2.99609 23 3.66631 23 4.49023C23 5.31414 22.3271 5.98437 21.5 5.98437C20.6729 5.98437 20 5.31414 20 4.49023C20 3.66631 20.6729 2.99609 21.5 2.99609ZM27 11.7917C26.99 11.672 26.96 11.5524 26.95 11.433C26.93 11.3136 26.92 11.1939 26.89 11.0845C26.87 11.0147 26.85 10.9449 26.83 10.8651C26.34 9.20172 24.82 7.97655 22.99 7.97655H21.01C18.8 7.97655 17 9.76956 17 11.9709V12.0407C16.68 11.9908 16.34 11.9609 16 11.9609C15.66 11.9609 15.32 11.9908 15 12.0407V11.9709C15 9.76956 13.2 7.97655 10.99 7.97655H9.01001C7.17999 7.97655 5.65997 9.20172 5.16998 10.8651C5.15002 10.9449 5.13 11.0147 5.10999 11.0845C5.08002 11.1939 5.07001 11.3136 5.04999 11.433C5.03998 11.5524 5.01001 11.672 5 11.7917C5 11.8213 5.01001 11.8413 5.01001 11.8712C5.01001 11.9011 5 11.941 5 11.9709V30H15V24.8303C15.32 24.8802 15.66 24.9101 16 24.9101C16.34 24.9101 16.68 24.8802 17 24.8303V30H27V11.9709C27 11.941 26.99 11.9011 26.99 11.8712C26.99 11.8413 27 11.8213 27 11.7917ZM23.61 9.10202C24.69 9.39092 25.53 10.138 25.85 11.0845C25.88 11.174 25.91 11.2637 25.93 11.3534C25.94 11.3731 25.94 11.403 25.94 11.423C25.97 11.5626 25.98 11.7119 25.99 11.8612C25.83 13.8534 24.41 15.6364 22.3 16.8417C22.14 16.2142 21.89 15.6165 21.56 15.0786C22.81 13.5149 23.58 11.413 23.61 9.10202ZM18 11.9709C18 10.3175 19.35 8.97264 21.01 8.97264H22.61C22.61 10.9947 21.98 12.8374 20.96 14.242C20.18 13.3354 19.16 12.6482 18 12.2698V11.9709ZM10.99 8.97264C12.65 8.97264 14 10.3175 14 11.9709V12.2698C12.84 12.6482 11.82 13.3354 11.04 14.242C10.02 12.8374 9.39001 10.9947 9.39001 8.97264H10.99ZM6.06 11.423C6.06 11.403 6.06 11.3731 6.07001 11.3534C6.09003 11.2637 6.11999 11.174 6.15002 11.0845C6.46997 10.138 7.31 9.39092 8.39001 9.10202C8.41998 11.413 9.19 13.5149 10.44 15.0786C10.11 15.6165 9.85998 16.2142 9.70001 16.8417C7.59003 15.6364 6.16998 13.8534 6.01001 11.8612C6.02002 11.7119 6.03003 11.5626 6.06 11.423ZM14 29.0039H10.5V24.9101H9.5V29.0039H6V14.7999C6.78998 16.0348 8.01001 17.1007 9.52002 17.8976C9.51001 18.0771 9.5 18.2563 9.5 18.4355C9.5 21.3144 11.39 23.7647 14 24.6013V29.0039ZM16 23.914C15.66 23.914 15.32 23.8841 15 23.8243C14.65 23.7545 14.32 23.665 14 23.5356C11.95 22.7387 10.5 20.7565 10.5 18.4355V18.3557C10.51 17.9973 10.55 17.6486 10.61 17.31C10.73 16.7921 10.91 16.3037 11.15 15.8555C11.31 15.5669 11.49 15.2877 11.7 15.029C12.3 14.2819 13.09 13.6841 14 13.3354C14.32 13.206 14.65 13.1163 15 13.0465C15.32 12.9869 15.66 12.957 16 12.957C16.34 12.957 16.68 12.9869 17 13.0465C17.35 13.1163 17.68 13.206 18 13.3354C18.91 13.6841 19.7 14.2819 20.3 15.029C20.51 15.2877 20.69 15.5669 20.85 15.8555C21.09 16.3037 21.27 16.7921 21.39 17.31C21.45 17.6486 21.49 17.9973 21.5 18.3557V18.4355C21.5 20.7565 20.05 22.7387 18 23.5356C17.68 23.665 17.35 23.7545 17 23.8243C16.68 23.8841 16.34 23.914 16 23.914ZM26 29.0039H22.5V24.9101H21.5V29.0039H18V24.6013C20.61 23.7647 22.5 21.3144 22.5 18.4355C22.5 18.2563 22.49 18.0771 22.48 17.8976C23.99 17.1007 25.21 16.0348 26 14.7999V29.0039ZM18.9836 15.8064L18.9604 15.7833C18.5482 15.3767 18.0068 15.1727 17.4662 15.1727C16.9335 15.1727 16.4015 15.3709 15.9952 15.768C15.5859 15.3755 15.0531 15.1756 14.528 15.1756C13.9797 15.1756 13.4315 15.3833 13.0222 15.7911C12.1959 16.614 12.1959 17.9601 13.0222 18.7833L15.3466 21.0909L16.0493 21.6983L18.9836 18.7755C19.8022 17.9601 19.8022 16.6294 18.9836 15.8064ZM18.2765 18.0712L16.0027 20.336L13.7293 18.079C13.291 17.6422 13.291 16.9319 13.7294 16.4954C13.9358 16.2896 14.2269 16.1717 14.528 16.1717C14.8116 16.1717 15.0936 16.286 15.3016 16.4856L16.0018 17.1571L16.6956 16.4791C16.9002 16.2789 17.1739 16.1688 17.4663 16.1688C17.7654 16.1688 18.0461 16.2833 18.2733 16.5075C18.705 16.9414 18.7064 17.643 18.2765 18.0712Z" fill="#0D2B49"/>
</svg>
