<svg width="32" height="32" viewBox="0 0 32 32" fill="none" xmlns="http://www.w3.org/2000/svg">
<path d="M17.9907 17.4394H16.9917V16.4433H17.9907C19.0896 16.4433 19.9888 17.3397 19.9888 18.4355C19.9888 18.9834 19.769 19.4815 19.3993 19.8399C19.0397 20.2086 18.5402 20.4277 17.9907 20.4277H16.9917V19.4316H17.9907C18.5402 19.4316 18.9897 18.9834 18.9897 18.4355C18.9897 17.8876 18.5402 17.4394 17.9907 17.4394ZM26.9839 11.7305C27.0153 12.238 26.9911 12.7521 26.9911 13.262C26.9911 14.1746 26.9911 15.0873 26.9911 16C26.9911 17.1775 26.9911 18.355 26.9911 19.5326C26.9911 20.7794 26.9911 22.0262 26.9911 23.273C26.9911 24.3936 26.9911 25.5142 26.9911 26.6347C26.9911 27.4335 26.9911 28.2323 26.9911 29.0311C26.9911 29.3138 26.9911 29.5965 26.9911 29.8792L16.9917 30V24.8303C16.672 24.8802 16.3323 24.9101 15.9926 24.9101C15.6529 24.9101 15.3133 24.8802 14.9936 24.8303V30H5.00311C5.00311 29.8733 5.00311 29.7467 5.00311 29.62C5.00311 29.2714 5.00311 28.9227 5.00311 28.574C5.00311 28.0496 5.00311 27.5252 5.00311 27.0008C5.00311 26.347 5.00311 25.6932 5.00311 25.0394C5.00311 24.3025 5.00311 23.5656 5.00311 22.8287C5.00311 22.0549 5.00311 21.2812 5.00311 20.5075C5.00311 19.7432 5.00311 18.979 5.00311 18.2148C5.00311 17.5063 5.00311 16.7979 5.00311 16.0894C5.00311 15.4831 5.00311 14.8767 5.00311 14.2703C5.00311 13.8124 5.00311 13.3544 5.00311 12.8965C5.00311 12.2536 4.96806 11.6035 5.13341 10.976C5.2792 10.4227 5.54291 9.90072 5.90235 9.45572C6.01385 9.31766 6.13456 9.18704 6.26366 9.0653C6.99448 8.37617 7.97402 7.9844 8.97777 7.97667C8.98828 7.9766 8.99878 7.97656 9.00929 7.97655H10.9874C13.1953 7.97655 14.9936 9.76956 14.9936 11.9709V12.0407C15.3133 11.9908 15.6529 11.9609 15.9926 11.9609C16.3323 11.9609 16.672 11.9908 16.9917 12.0407V11.9709C16.9917 9.76956 18.7899 7.97655 20.9978 7.97655H22.9759C24.6378 7.97655 26.2027 9.0775 26.7527 10.6529C26.8894 11.0446 26.9589 11.3251 26.9839 11.7305ZM21.5473 15.0888C21.877 15.6265 22.1268 16.2142 22.2866 16.8417C24.3946 15.6464 25.8032 13.8634 25.9731 11.8612C25.9731 11.8515 25.9731 11.8515 25.9731 11.8413V11.8315C25.9731 11.7717 25.9731 11.7219 25.9631 11.662C25.9631 11.5825 25.9531 11.5127 25.9331 11.433C25.9331 11.423 25.9231 11.403 25.9231 11.3931C25.9131 11.3432 25.9031 11.2836 25.8832 11.2338C25.8632 11.1141 25.8232 10.9947 25.7633 10.8751C25.3936 10.0286 24.5944 9.37098 23.5953 9.10202C23.5654 11.413 22.7961 13.5149 21.5473 15.0888ZM17.9907 12.2698C19.1496 12.6482 20.1686 13.3354 20.9479 14.242C21.9669 12.8374 22.5963 10.9947 22.5963 8.97264H20.9978C19.3394 8.97264 17.9907 10.3175 17.9907 11.9709V12.2698ZM9.38893 8.97264C9.38893 10.9947 10.0183 12.8374 11.0373 14.242C11.8166 13.3354 12.8357 12.6482 13.9945 12.2698V11.9709C13.9945 10.3175 12.6458 8.97264 10.9874 8.97264H9.38893ZM6.01215 11.8612C6.18197 13.8634 7.59066 15.6464 9.69863 16.8417C9.85845 16.2142 10.1082 15.6265 10.4379 15.0888C9.18911 13.5149 8.41983 11.413 8.38989 9.10202C7.39084 9.37098 6.59162 10.0286 6.22191 10.8751C6.15203 11.0446 6.09209 11.2138 6.06209 11.3931C6.03215 11.4828 6.02215 11.5723 6.02215 11.662C6.01215 11.7318 6.00215 11.7917 6.01215 11.8612ZM13.9945 24.6013C11.387 23.7647 9.49881 21.3144 9.49881 18.4355C9.49881 18.2563 9.50881 18.0868 9.51881 17.9076C8.01024 17.1106 6.79138 16.0348 6.00215 14.7897V28.8945H9.49881V24.9101H10.4979V28.8945H13.9945V24.6013ZM16.9917 23.8243C17.3413 23.7545 17.671 23.665 17.9907 23.5356C20.0387 22.7387 21.4874 20.7565 21.4874 18.4355V18.3657C21.4774 18.0073 21.4474 17.6486 21.3775 17.31C21.2676 16.8018 21.0877 16.314 20.838 15.8655C20.6881 15.5669 20.4983 15.2877 20.2885 15.029C19.6891 14.2819 18.8998 13.6841 17.9907 13.3354C17.671 13.206 17.3413 13.1163 16.9917 13.0465C16.672 12.9869 16.3323 12.957 15.9926 12.957C15.6529 12.957 15.3133 12.9869 14.9936 13.0465C14.6439 13.1163 14.3142 13.206 13.9945 13.3354C13.0854 13.6841 12.2961 14.2819 11.6967 15.029C11.4869 15.2877 11.2971 15.5669 11.1473 15.8655C10.8975 16.314 10.7176 16.8018 10.6077 17.31C10.5378 17.6486 10.5079 18.0073 10.4979 18.3657V18.4355C10.4979 20.7565 11.9465 22.7387 13.9945 23.5356C14.3142 23.665 14.6439 23.7545 14.9936 23.8243C15.3133 23.8841 15.6529 23.914 15.9926 23.914C16.3323 23.914 16.672 23.8841 16.9917 23.8243ZM25.9831 14.7897C25.1938 16.0348 23.975 17.1106 22.4664 17.9076C22.4764 18.0868 22.4864 18.2563 22.4864 18.4355C22.4864 21.3144 20.5982 23.7647 17.9907 24.6013V28.8945H21.4874V24.9101H22.4864V28.8945H25.9831V14.7897ZM18.9897 4.49023C18.9897 3.11501 20.108 2 21.4874 2C22.8668 2 23.985 3.11501 23.985 4.49023C23.985 5.86545 22.8668 6.98046 21.4874 6.98046C20.108 6.98046 18.9897 5.86545 18.9897 4.49023ZM19.9888 4.49023C19.9888 5.31414 20.6611 5.98437 21.4874 5.98437C22.3137 5.98437 22.9859 5.31414 22.9859 4.49023C22.9859 3.66631 22.3137 2.99609 21.4874 2.99609C20.6611 2.99609 19.9888 3.66631 19.9888 4.49023ZM8.00024 4.49023C8.00024 3.11501 9.1185 2 10.4979 2C11.8773 2 12.9955 3.11501 12.9955 4.49023C12.9955 5.86545 11.8773 6.98046 10.4979 6.98046C9.1185 6.98046 8.00024 5.86545 8.00024 4.49023ZM8.99929 4.49023C8.99929 5.31414 9.67156 5.98437 10.4979 5.98437C11.3242 5.98437 11.9964 5.31414 11.9964 4.49023C11.9964 3.66631 11.3242 2.99609 10.4979 2.99609C9.67156 2.99609 8.99929 3.66631 8.99929 4.49023ZM12.9955 18.4355C12.9955 17.8876 13.4451 17.4394 13.9945 17.4394H14.9936V16.4433H13.9945C13.4451 16.4433 12.9455 16.6624 12.5859 17.0309C12.2162 17.3896 11.9964 17.8876 11.9964 18.4355C11.9964 19.5313 12.8956 20.4277 13.9945 20.4277H14.9936V19.4316H13.9945C13.4451 19.4316 12.9955 18.9834 12.9955 18.4355ZM16.9917 17.9375H14.9936V18.9336H16.9917V17.9375Z" fill="#0D2B49"/>
</svg>
