<svg width="32" height="32" viewBox="0 0 32 32" fill="none" xmlns="http://www.w3.org/2000/svg">
<path d="M11.5 22.481L11.3857 22.3423C10.9395 21.7998 10.5938 21.188 10.3584 20.5381C10.415 20.6909 10.4775 20.8418 10.5469 20.9907C10.8223 21.5977 11.1904 22.1455 11.6377 22.6152C12.627 23.6636 13.9697 24.3213 15.3906 24.4683C14.2637 24.3555 13.2012 23.9277 12.3086 23.2271L11.5 22.5918V29.5V22.481ZM15.6279 24.4883C15.751 24.4961 15.876 24.5 16 24.5C16.124 24.5 16.249 24.4961 16.3721 24.4883L16 24.5166L15.6279 24.4883ZM16.6084 24.4688C18.0293 24.3213 19.373 23.6636 20.3633 22.6133C20.8096 22.1455 21.1777 21.5977 21.4551 20.9873C21.5195 20.8491 21.5781 20.709 21.6309 20.5669C21.3965 21.2061 21.0537 21.8081 20.6143 22.3423L20.5 22.481V22.5918L19.6914 23.2271C18.7988 23.9277 17.7354 24.3555 16.6084 24.4688ZM16 19.041L15.6045 18.9605C15.7324 18.9863 15.8643 19 16 19C16.1357 19 16.2676 18.9863 16.3955 18.9605L16 19.041V20.5V22V19.041ZM16.4053 18.959C16.71 18.896 16.9902 18.7632 17.2275 18.5781C16.9912 18.7622 16.7119 18.8955 16.4053 18.959ZM15.5947 18.959C15.2881 18.8955 15.0088 18.7622 14.7725 18.5781C15.0098 18.7632 15.29 18.896 15.5947 18.959ZM21.6416 16.4619C21.585 16.3091 21.5225 16.1582 21.4531 16.0093C21.1777 15.4023 20.8096 14.8545 20.3623 14.3848C19.2334 13.189 17.6455 12.5015 16.0049 12.5C17.3525 12.501 18.6279 12.9414 19.6924 13.7739L20.5 14.4058V14.519L20.6143 14.6577C21.0605 15.2002 21.4062 15.812 21.6416 16.4619ZM10.3691 16.4331C10.6035 15.7939 10.9463 15.1919 11.3857 14.6577L11.5 14.519V12V14.4058L12.3076 13.7739C13.3721 12.9414 14.6475 12.501 15.9951 12.5C14.3545 12.5015 12.7666 13.189 11.6367 14.3867C11.1904 14.8545 10.8223 15.4023 10.5449 16.0127C10.4805 16.1509 10.4219 16.291 10.3691 16.4331Z" fill="#0D2B49"/>
<path d="M16 2C14.6193 2 13.5 3.11938 13.5 4.5C13.5 5.88061 14.6193 7 16 7C17.3807 7 18.5 5.88061 18.5 4.5C18.5 3.11938 17.3807 2 16 2ZM16 6C15.1729 6 14.5 5.32715 14.5 4.5C14.5 3.67285 15.1729 3 16 3C16.8271 3 17.5 3.67285 17.5 4.5C17.5 5.32715 16.8271 6 16 6ZM17 8H15C12.79 8 11 9.79004 11 12V14.3398C10.07 15.47 9.5 16.9199 9.5 18.5C9.5 20.0801 10.07 21.53 11 22.6599V30H21V22.6599C21.93 21.53 22.5 20.0801 22.5 18.5C22.5 16.9199 21.93 15.47 21 14.3398V12C21 9.79004 19.21 8 17 8ZM12 13.3799V12C12 10.3501 13.35 9 15 9H17C18.65 9 20 10.3501 20 12V13.3799C18.9 12.52 17.51 12 16 12C14.49 12 13.1 12.52 12 13.3799ZM16 24C14.43 24 13 23.3301 12 22.27C11.59 21.8398 11.25 21.3301 11 20.78C10.68 20.0898 10.5 19.3201 10.5 18.5C10.5 17.6799 10.68 16.9099 11 16.22C11.25 15.6699 11.59 15.1599 12 14.73C13 13.6699 14.43 13 16 13C17.57 13 19 13.6699 20 14.73C20.41 15.1599 20.75 15.6699 21 16.22C21.32 16.9099 21.5 17.6799 21.5 18.5C21.5 19.3201 21.32 20.0898 21 20.78C20.75 21.3301 20.41 21.8398 20 22.27C19 23.3301 17.57 24 16 24ZM16.5 29V24.98C17.82 24.8799 19.02 24.3901 20 23.6201V29H16.5ZM12 29V23.6201C12.98 24.3901 14.18 24.8799 15.5 24.98V29H12ZM16 14.5C14.6193 14.5 13.5 15.6194 13.5 17C13.5 18.2095 14.3589 19.2178 15.5 19.4497V20H14.5V21H15.5V22.5H16.5V21H17.5V20H16.5V19.4497C17.6411 19.2178 18.5 18.2095 18.5 17C18.5 15.6194 17.3807 14.5 16 14.5ZM16 18.5C15.1729 18.5 14.5 17.8271 14.5 17C14.5 16.1729 15.1729 15.5 16 15.5C16.8271 15.5 17.5 16.1729 17.5 17C17.5 17.8271 16.8271 18.5 16 18.5Z" fill="#0D2B49"/>
</svg>
