<svg width="32" height="32" viewBox="0 0 32 32" fill="none" xmlns="http://www.w3.org/2000/svg">
<path d="M21.5393 25H28.0092V20H21.5393V25ZM22.5347 21H27.0139V24H22.5347V21ZM4.12016 25H10.5901V20H4.12016V25ZM5.11554 21H9.59474V24H5.11554V21ZM21.5393 14V19H28.0092V14H21.5393ZM27.0139 18H22.5347V15H27.0139V18ZM4.12016 19H10.5901V14H4.12016V19ZM5.11554 15H9.59474V18H5.11554V15ZM29.9801 11.5L28.0092 5H4.12016L2.02989 11.5L2 11.6001V27H30V11.5498L29.9801 11.5ZM4.8368 6H27.2926L28.915 11.5H20.524L16.0647 7.5L11.6054 11.5H3.09489L4.8368 6ZM2.99538 26V12.5H11.5855V26H2.99538ZM14.8205 26V20H17.3089V26H14.8205ZM17.3089 19H14.8205V14H17.3089V19ZM18.3043 26V13H13.8251V26H12.5809V11.9697L13.1085 11.5L16.0647 8.83984L19.0209 11.5L19.5485 11.9697V26H18.3043ZM29.0046 26H20.5439V12.5H29.0046V26ZM21.5393 20V25H28.0092V20H21.5393ZM27.0139 24H22.5347V21H27.0139V24Z" fill="#0D2B49"/>
</svg>
