<svg width="32" height="32" viewBox="0 0 32 32" fill="none" xmlns="http://www.w3.org/2000/svg">
<path d="M15.5 20C14.4001 20 13.5002 20.8999 13.5002 22C13.5002 22.3398 13.5802 22.6499 13.7301 22.9299C13.9602 23.3599 14.3301 23.6899 14.7801 23.8599H14.7901C15.0101 23.9499 15.25 24 15.5 24C15.84 24 16.16 23.9199 16.44 23.76H16.45C16.8699 23.53 17.1999 23.1499 17.3699 22.6999C17.4599 22.48 17.4999 22.25 17.4999 22C17.4999 20.8999 16.5999 20 15.5 20ZM15.5 23C15.31 23 15.1301 22.9499 14.98 22.8501C14.6901 22.6799 14.5001 22.3599 14.5001 22C14.5001 21.4499 14.9501 21 15.5 21C16.05 21 16.5 21.4499 16.5 22C16.5 22.3201 16.3499 22.6001 16.12 22.78C15.95 22.9199 15.73 23 15.5 23ZM20.2087 16.6279C20.1413 16.6279 20.072 16.6211 20.0036 16.6074L16.9999 16.0107V13H20.6999L21.2262 15.3569C21.3034 15.7021 21.2018 16.0596 20.9548 16.313C20.7555 16.5166 20.487 16.6279 20.2087 16.6279ZM20.1989 15.627C20.2038 15.6279 20.2214 15.6313 20.239 15.6143L19.8953 14H17.9999V15.1895L20.1989 15.627ZM27.8592 22.0701C27.5992 21.4399 26.9793 21 26.2493 21C25.4494 21 24.7694 21.54 24.5795 22.27C24.5195 22.4199 24.4994 22.5801 24.4994 22.75C24.4994 22.9299 24.5295 23.1099 24.5895 23.27C24.7994 23.98 25.4594 24.5 26.2493 24.5C27.1093 24.5 27.8192 23.8901 27.9592 23.0701C27.9892 22.97 27.9992 22.8599 27.9992 22.75C27.9992 22.51 27.9492 22.28 27.8592 22.0701ZM26.2493 23.5C26.0094 23.5 25.7993 23.3901 25.6593 23.21C25.5594 23.0801 25.4994 22.9199 25.4994 22.75C25.4994 22.54 25.5894 22.3398 25.7394 22.1999H25.7494C25.8794 22.0701 26.0593 22 26.2493 22C26.4093 22 26.5593 22.05 26.6793 22.1401C26.8693 22.27 26.9993 22.5 26.9993 22.75C26.9993 22.8901 26.9593 23.02 26.8893 23.1299C26.7593 23.3501 26.5193 23.5 26.2493 23.5ZM6.7506 6C7.99118 6 9.00045 7.00928 9.00045 8.25C9.00045 9.49072 7.99118 10.5 6.7506 10.5C5.51002 10.5 4.50074 9.49072 4.50074 8.25C4.50074 7.00928 5.51002 6 6.7506 6ZM6.7506 5C4.95579 5 3.50081 6.45508 3.50081 8.25C3.50081 10.0449 4.95579 11.5 6.7506 11.5C8.5454 11.5 10.0004 10.0449 10.0004 8.25C10.0004 6.45508 8.5454 5 6.7506 5ZM29.9891 22.9399C29.9991 22.8799 29.9991 22.8101 29.9991 22.75V17.9299C29.9991 16.8901 29.1891 16.01 28.1492 15.9299L23.3195 15.5601L22.5296 12H23.9995V9H14.0001V12H15.0001V15.75L12.2302 16.54L11.5003 16.75V19.9399C11.2903 20.3301 11.1503 20.76 11.0703 21.21L3.2908 22.1799C2.90087 22.23 2.55086 22.4299 2.31088 22.74C2.07091 23.05 1.96093 23.4399 2.01092 23.8301L2.20091 25.3398L3.02086 25.24C3.07036 25.5369 3.2183 25.7895 3.40987 26H2.00091V27H29.9991V26H28.0907C29.1721 25.384 29.9226 24.2566 29.9891 22.9399ZM15.0001 10H22.9995V11H15.0001V10ZM12.5002 17.5L16 16.5V12H21.4996L22.4996 16.5L28.0792 16.9299C28.5992 16.97 28.9992 17.3999 28.9992 17.9299V20.21C28.3192 19.46 27.3393 19 26.2493 19C24.2994 19 22.6996 20.49 22.5196 22.3901L19.9697 22.55C19.9897 22.3701 19.9997 22.1899 19.9997 22C19.9997 19.51 17.9899 17.5 15.5 17.5C14.3501 17.5 13.2902 17.9299 12.5002 18.6599V17.5ZM12.1303 21.0801C12.2103 20.77 12.3303 20.48 12.5002 20.21C13.1102 19.1899 14.2201 18.5 15.5 18.5C17.4299 18.5 18.9998 20.0701 18.9998 22C18.9998 22.21 18.9798 22.4099 18.9398 22.6099C18.8798 22.97 18.7598 23.3201 18.5899 23.6299C17.9999 24.74 16.84 25.5 15.5 25.5C14.3301 25.5 13.3002 24.9199 12.6702 24.04H12.6602C12.6502 24.03 12.6402 24.02 12.6302 24C12.4402 23.73 12.2803 23.4199 12.1802 23.0898C12.0703 22.78 12.0103 22.4399 12.0103 22.1001C12.0003 22.0701 12.0003 22.03 12.0003 22C12.0003 21.6799 12.0402 21.3701 12.1303 21.0801ZM3.07084 24.22L3.00084 23.6999C2.99083 23.5801 3.02086 23.4499 3.10081 23.3501C3.18082 23.25 3.2908 23.1899 3.4208 23.1699L11.0103 22.23C11.0203 22.5701 11.0803 22.8999 11.1703 23.21L5.53071 23.9099C5.2607 23.6599 4.90074 23.5 4.50074 23.5C3.97075 23.5 3.50081 23.78 3.24082 24.1999L3.07084 24.22ZM5.00071 24.99V25C5.00071 25.28 4.78076 25.5 4.50074 25.5C4.26077 25.5 4.06077 25.3398 4.01079 25.1099C4.00078 25.0801 4.00078 25.04 4.00078 25C4.00078 24.72 4.22073 24.5 4.50074 24.5C4.78076 24.5 4.9907 24.71 5.00071 24.99ZM5.99064 24.8701L11.5603 24.1699C11.9902 24.9565 12.6559 25.5903 13.4563 26H5.61249C5.85136 25.7344 6.00065 25.3862 6.00065 25C6.00065 24.96 6.00065 24.9099 5.99064 24.8701ZM17.5632 26C18.5514 25.491 19.3259 24.6287 19.7197 23.5701L22.5596 23.3901C22.7494 24.51 23.4373 25.4548 24.3843 26H17.5632ZM26.2493 25.5C24.9294 25.5 23.8295 24.5701 23.5695 23.3301C23.5195 23.1499 23.4995 22.9499 23.4995 22.75C23.4995 22.6099 23.5095 22.46 23.5395 22.3301C23.7395 21.01 24.8694 20 26.2493 20C27.5093 20 28.5792 20.8501 28.8992 22.01C28.9592 22.24 28.9992 22.49 28.9992 22.75C28.9992 22.8301 28.9992 22.9199 28.9891 23C28.8591 24.3999 27.6892 25.5 26.2493 25.5Z" fill="#0D2B49"/>
</svg>
