<svg width="32" height="32" viewBox="0 0 32 32" fill="none" xmlns="http://www.w3.org/2000/svg">
<path d="M18.874 24.6209H14.014V25.6209H18.874V24.6209Z" fill="#0D2B49"/>
<path d="M25.824 16.0529L25.834 16.0429V3.16391C25.834 2.52391 25.324 2.00391 24.694 2.00391H8.19401C7.56401 2.00391 7.05401 2.52391 7.05401 3.16391V6.58391C6.19401 7.47391 5.67401 8.68391 5.67401 10.0239C5.67401 11.3639 6.19401 12.5739 7.05401 13.4639V28.8439C7.05401 29.4739 7.56401 29.9939 8.19401 30.0039H24.694C25.324 29.9939 25.834 29.4739 25.834 28.8439V23.8939L25.824 23.8839L24.834 23.3339V28.8439C24.834 28.9339 24.764 29.0039 24.694 29.0039H8.20401C8.12401 29.0039 8.05401 28.9339 8.05401 28.8439V14.2739C8.81401 14.7539 9.71401 15.0239 10.674 15.0239C11.914 15.0239 13.044 14.5739 13.914 13.8239C14.644 14.2939 15.514 14.5539 16.444 14.5539C17.754 14.5539 18.954 14.0239 19.814 13.1539C20.674 12.2939 21.214 11.1039 21.214 9.78391C21.214 7.15391 19.074 5.02391 16.444 5.02391C15.384 5.02391 14.394 5.37391 13.594 5.97391C12.774 5.37391 11.764 5.02391 10.674 5.02391C9.71401 5.02391 8.81401 5.29391 8.05401 5.77391V3.15391C8.05401 3.07391 8.12401 3.00391 8.19401 3.00391H24.684C24.774 3.00391 24.834 3.07391 24.834 3.16391V16.6039L25.824 16.0529ZM13.114 13.1929C13.044 13.2429 12.974 13.2929 12.904 13.3429C12.814 13.4029 12.724 13.4629 12.624 13.5129C12.524 13.5629 12.424 13.6129 12.324 13.6629C12.224 13.7129 12.124 13.7529 12.014 13.7929C11.974 13.8029 11.934 13.8129 11.894 13.8329C11.724 13.8829 11.554 13.9229 11.364 13.9629C11.254 13.9829 11.134 13.9929 11.024 14.0029C10.904 14.0129 10.794 14.0229 10.674 14.0229C9.73401 14.0229 8.86401 13.6929 8.17401 13.1429C8.45401 12.5029 8.97401 12.0129 9.59401 11.7429C9.91401 11.9229 10.284 12.0229 10.674 12.0229C11.064 12.0229 11.434 11.9229 11.754 11.7429C11.924 11.8129 12.084 11.9029 12.234 12.0129C12.334 12.0829 12.434 12.1629 12.524 12.2429C12.604 12.3129 12.684 12.3929 12.754 12.4829C12.804 12.5329 12.844 12.5829 12.884 12.6429C12.904 12.6729 12.934 12.7129 12.954 12.7529C13.044 12.8729 13.114 13.0029 13.174 13.1429C13.154 13.1639 13.134 13.1739 13.114 13.1929ZM11.824 9.28391C11.854 9.36391 11.884 9.44391 11.894 9.52391C11.914 9.60391 11.924 9.68391 11.924 9.77391C11.924 10.0339 11.854 10.2639 11.724 10.4539C11.674 10.5139 11.634 10.5739 11.574 10.6339C11.344 10.8739 11.024 11.0239 10.674 11.0239C10.324 11.0239 10.004 10.8739 9.77401 10.6339C9.55401 10.4139 9.42401 10.1139 9.42401 9.77391C9.42401 9.08391 9.98401 8.52391 10.674 8.52391C10.764 8.52391 10.844 8.53391 10.924 8.55391C11.004 8.56391 11.074 8.58391 11.144 8.61391C11.244 8.65391 11.334 8.70391 11.414 8.76391C11.464 8.80391 11.514 8.84391 11.554 8.89391C11.594 8.93391 11.634 8.97391 11.664 9.02391C11.684 9.04391 11.704 9.07391 11.724 9.09391V9.10391C11.764 9.16391 11.794 9.22391 11.824 9.28391ZM16.444 6.02391C18.524 6.02391 20.214 7.71391 20.214 9.78391C20.214 11.8639 18.524 13.5539 16.444 13.5539C15.784 13.5539 15.164 13.3839 14.624 13.0839C15.284 12.2439 15.674 11.1739 15.674 10.0239C15.674 8.72391 15.174 7.53391 14.354 6.65391C14.954 6.25291 15.674 6.02391 16.444 6.02391ZM10.674 6.02391C11.474 6.02391 12.214 6.26391 12.844 6.66391C13.124 6.84391 13.384 7.06391 13.614 7.30391C14.264 8.01391 14.674 8.96391 14.674 10.0239C14.674 10.9039 14.394 11.7139 13.904 12.3739C13.674 11.9739 13.374 11.6339 13.024 11.3639C12.874 11.2339 12.714 11.1239 12.544 11.0339C12.544 11.0239 12.544 11.0239 12.544 11.0239C12.634 10.8839 12.714 10.7439 12.764 10.5839C12.874 10.3339 12.924 10.0639 12.924 9.77391C12.924 9.49391 12.874 9.22391 12.774 8.97391C12.624 8.57391 12.364 8.23391 12.034 7.98391C11.654 7.69391 11.184 7.52391 10.674 7.52391C9.43401 7.52391 8.42401 8.53391 8.42401 9.77391C8.42401 10.2339 8.56401 10.6639 8.80401 11.0239C8.80401 11.0239 8.80401 11.0239 8.80401 11.0339C8.53401 11.1839 8.28401 11.3739 8.05401 11.5839C7.82401 11.8139 7.61401 12.0839 7.44401 12.3739C7.29401 12.1739 7.16401 11.9539 7.05401 11.7239C6.80401 11.2039 6.67401 10.6339 6.67401 10.0239C6.67401 9.41391 6.80401 8.84391 7.05401 8.33391C7.28401 7.82391 7.63401 7.36391 8.05401 7.00391C8.76401 6.39291 9.67401 6.02391 10.674 6.02391Z" fill="#0D2B49"/>
<path d="M26.804 17.7939L25.834 18.3339L24.834 18.8929L24.544 19.0529L24.054 18.1829L24.834 17.7529L26.314 16.9239L26.804 17.7939Z" fill="#0D2B49"/>
<path d="M26.804 22.1429L26.314 23.0129L25.834 22.7429L24.834 22.1829L24.054 21.7529L24.544 20.8829L24.834 21.0439L25.834 21.6039L26.804 22.1429Z" fill="#0D2B49"/>
<path d="M22.734 19.9639C22.734 20.6539 22.174 21.2039 21.494 21.2039C20.984 21.2039 20.544 20.9039 20.364 20.4639H17.574C17.384 20.9039 16.944 21.2039 16.444 21.2039C15.944 21.2039 15.504 20.9039 15.314 20.4639H12.424C12.244 20.9039 11.804 21.2039 11.294 21.2039C10.614 21.2039 10.054 20.6539 10.054 19.9639C10.054 19.2839 10.614 18.7239 11.294 18.7239C11.804 18.7239 12.234 19.0339 12.424 19.4639H15.314C15.504 19.0339 15.944 18.7239 16.444 18.7239C16.944 18.7239 17.384 19.0339 17.574 19.4639H20.364C20.554 19.0339 20.984 18.7239 21.494 18.7239C22.174 18.7239 22.734 19.2839 22.734 19.9639Z" fill="#0D2B49"/>
<path d="M27.124 19.4639H24.544V20.4639H27.124V19.4639Z" fill="#0D2B49"/>
</svg>
