<svg width="32" height="32" viewBox="0 0 32 32" fill="none" xmlns="http://www.w3.org/2000/svg">
<path d="M24.9357 4.537C25.4351 3.27585 22.8804 3.86902 22.3136 3.79537C22.6969 2.86747 23.0797 2.77634 22.8472 2.23181C22.747 2.07461 22.5671 1.98891 22.3873 2.00115C21.2213 2.09542 19.9679 2.49133 19.0621 2.83264C16.9075 1.91644 14.8003 2.0156 12.6369 3.13429C12.6348 3.13405 12.6329 3.13307 12.6308 3.13282C11.7448 2.8821 10.8189 2.72173 9.64419 2.62134C8.96871 2.65032 9.028 3.20318 9.34555 3.7748C8.23055 3.63426 7.48389 3.70453 7.44409 3.71457C7.06262 3.7448 6.84891 4.25674 7.12553 4.53701C8.02146 5.57979 8.25048 7.45529 8.76812 11.5471C8.93137 15.941 13.7866 17.629 15.5876 17.7448V21.4696C14.7758 20.2706 13.5815 19.1138 11.7027 19.2122C11.4995 19.223 11.3226 19.3581 11.2574 19.553C10.4421 21.936 11.5759 25.1767 15.5876 25.4831V29.4986C15.5876 29.7794 15.8066 30 16.0854 30C16.3541 30 16.5831 29.7794 16.5831 29.4986V25.4645C20.5072 25.105 21.5464 21.8343 20.7538 19.5529C20.6888 19.3581 20.5119 19.223 20.3087 19.2122C18.5577 19.1187 17.3946 20.1333 16.5831 21.2503V17.775C17.2489 17.7779 18.3275 17.6505 19.6494 16.8925C19.6593 16.8925 19.6593 16.8823 19.6693 16.8725C23.497 15.0184 23.8458 11.3259 23.6711 8.21738C23.7012 6.53272 24.9258 4.55683 24.9357 4.537ZM21.1474 3.93444C20.8209 3.98697 20.4962 4.064 20.1722 4.13448C20.172 4.13448 20.1725 4.13448 20.1722 4.13448C20.1706 4.13472 20.1686 4.13546 20.167 4.1357C19.161 4.38316 18.1957 4.77404 17.2569 5.23456C17.0901 5.14127 16.9293 5.05142 16.773 4.96499C17.5435 4.55066 18.3742 4.17098 19.1947 3.8485C20.0129 3.53893 20.8211 3.28328 21.5239 3.14164C21.4017 3.38501 21.2697 3.65826 21.1474 3.93444ZM17.6691 3.40117C17.0111 3.70865 16.3615 4.04161 15.7364 4.40209C15.1035 4.07498 14.5474 3.81545 14.0234 3.60341C15.2542 3.14849 16.4471 3.08238 17.6691 3.40117ZM12.546 4.14451C12.5467 4.14451 12.547 4.14525 12.5476 4.14549C13.543 4.45008 14.5589 4.91418 15.5179 5.41942H15.5218C15.743 5.54056 15.9825 5.67154 16.2148 5.80064C15.8862 5.98109 15.5776 6.17158 15.279 6.35202H15.269L15.2093 6.29204C14.8605 6.01034 14.5048 5.74094 14.1341 5.49972C14.0943 5.47965 14.0445 5.44953 13.9947 5.40938C13.7928 5.28238 13.5793 5.16137 13.3775 5.05827C12.4696 4.5611 11.4951 4.21691 10.5003 3.98537C10.4605 3.88498 10.4207 3.79488 10.3908 3.70453C11.1952 3.81471 11.8806 3.95476 12.546 4.14451ZM15.4953 24.4675C12.8608 24.2319 11.6044 22.2707 12.1169 20.2151C13.7444 20.3159 14.6592 21.7164 15.507 23.2986L15.4953 24.4675ZM19.8965 20.2151C20.4068 22.2343 19.1768 24.2039 16.5831 24.4533V23.1564C17.4096 21.6337 18.3177 20.312 19.8965 20.2151ZM16.5831 16.762C14.6933 16.7992 10.3841 15.8627 9.80346 11.8582C9.41509 8.59042 9.07265 5.89296 8.4197 4.70741C11.0998 4.74591 14.7472 6.34811 16.5035 9.23041C17.8346 11.2368 18.516 13.6404 18.8729 15.9697C18.8828 16.04 18.8928 16.1002 18.8928 16.1602C17.8674 16.6918 17.1406 16.762 16.5831 16.762ZM22.6758 8.19741C22.7644 10.8284 22.7218 13.9696 19.8286 15.6086C19.4934 13.1101 18.1797 9.1088 16.0455 7.06403C16.5086 6.78289 16.9939 6.51231 17.4691 6.25188C19.487 5.18034 21.4065 4.75112 23.6813 4.74757C23.2731 5.56999 22.7057 6.9137 22.6758 8.19741Z" fill="#0D2B49"/>
</svg>
