<svg width="32" height="32" viewBox="0 0 32 32" fill="none" xmlns="http://www.w3.org/2000/svg">
<path d="M27.8896 27.5045H26.8988V24.0031H30L25.4126 3.75488L23.6589 11.508C21.9448 11.5781 20.5775 13.0086 20.5775 14.7493C20.5775 15.0295 20.6072 15.2996 20.6865 15.5497C20.5081 15.5197 20.3298 15.4996 20.1514 15.4996C19.6461 15.4996 19.1607 15.6198 18.7346 15.8298L16 3.75488L13.2654 15.8098C12.8493 15.6095 12.3935 15.4996 11.908 15.4996C11.6008 15.4996 11.3135 15.5397 11.0361 15.6296C11.1253 15.3497 11.1649 15.0595 11.1649 14.7493C11.1649 13.0988 9.93631 11.7281 8.35106 11.528L6.58741 3.75488L2 24.0031H5.59661V27.5045H4.11041C3.83295 27.5045 3.61501 27.7245 3.61501 28.0047C3.61501 28.2848 3.83295 28.5049 4.11041 28.5049H27.8896C28.167 28.5049 28.385 28.2848 28.385 28.0047C28.385 27.7245 28.167 27.5045 27.8896 27.5045ZM23.4211 12.5385L22.5195 16.5401L22.5096 16.5899C22.3213 16.45 22.1529 16.28 22.0042 16.0897C21.7268 15.7097 21.5683 15.2495 21.5683 14.7493C21.5683 13.639 22.3708 12.7085 23.4211 12.5385ZM13.8698 17.6804V17.6704L14.1472 16.4199L16 8.23668L17.8627 16.46L18.15 17.7605V17.7706L18.7742 20.5217L19.0715 21.8122L19.339 23.0027H12.661L12.9285 21.8323L13.2059 20.5818L13.8698 17.6804ZM10.1741 14.7493C10.1741 15.3995 9.8967 15.9898 9.45083 16.3999L8.58884 12.5985C9.50036 12.8687 10.1741 13.7389 10.1741 14.7493ZM7.5782 27.5045H6.58741V24.0031H7.5782V27.5045ZM9.0644 27.5045H8.569V24.0031H9.0644V27.5045ZM3.24842 23.0027L4.88326 15.7497L5.62636 12.4984L6.58741 8.23668L7.34042 11.5581L7.55837 12.5385L8.54917 16.9101L8.76718 17.8805L8.78695 17.9706V17.9806L9.44091 20.8416L9.92639 23.0027H3.24842ZM10.3029 27.3643V27.5045H10.0552V24.0031H11.1748L10.6695 21.7522C10.9073 21.8523 11.155 21.9221 11.4126 21.9522V26.0339C10.7785 26.1441 10.3029 26.6941 10.3029 27.3643ZM12.0368 27.2844C12.0368 27.4043 11.9377 27.5045 11.8189 27.5045H11.2937V27.3643C11.2937 27.2544 11.3432 27.1643 11.4126 27.0942C11.472 27.0343 11.5612 27.0043 11.6504 27.0043H12.0368V27.2844ZM12.0962 20.9918C12.0368 21.0019 11.9674 21.0019 11.908 21.0019C11.7396 21.0019 11.5712 20.9818 11.4126 20.9418C11.0064 20.8519 10.6398 20.6516 10.3524 20.3615L9.81742 17.9906V17.9806C10.1246 17.1204 10.9469 16.5 11.908 16.5C12.3241 16.5 12.7105 16.6099 13.0375 16.8102L12.3539 19.8613L12.0962 20.9918ZM14.5138 27.5045H13.0078C13.0177 27.4344 13.0276 27.3643 13.0276 27.2844V26.0039H12.4034V24.0031H14.5138V27.5045ZM16.4954 27.5045H15.5046V24.0031H16.4954V27.5045ZM19.656 26.0039H18.7247V27.2844C18.7247 27.3643 18.7346 27.4344 18.7445 27.5045H17.4862V24.0031H19.656V26.0039ZM18.9625 16.84C19.3093 16.63 19.7155 16.5 20.1514 16.5C20.5874 16.5 20.9837 16.6202 21.3305 16.84C21.5683 16.9902 21.7764 17.1802 21.9448 17.4103C22.0538 17.5605 22.143 17.7105 22.2123 17.8907V17.9005L21.6376 20.4316C21.3602 20.6817 21.0234 20.8617 20.6468 20.9418C20.4883 20.9818 20.3199 21.0019 20.1514 21.0019C20.0722 21.0019 19.983 21.0019 19.9037 20.9918L19.6759 20.0014V19.9914L18.9625 16.84ZM20.4586 27.5045H19.9334C19.8146 27.5045 19.7155 27.4043 19.7155 27.2844V27.0043H20.1019C20.3001 27.0043 20.4586 27.1643 20.4586 27.3643V27.5045ZM21.9448 27.5045H21.4494V27.3643C21.4494 26.8143 21.1224 26.3341 20.6468 26.124V21.9522C20.8846 21.9322 21.1125 21.8621 21.3305 21.7822L20.8252 24.0031H21.9448V27.5045ZM22.5392 20.9318L23.2229 17.9406L23.2427 17.8507V17.8404L23.4409 16.9702L24.4317 12.5883L25.4126 8.23668L26.4728 12.9285L26.9781 15.1794L28.7516 23.0027H22.0736L22.5392 20.9318ZM23.9264 27.5045H22.9356V24.0031H23.9264V27.5045ZM25.908 27.5045H24.9172V24.0031H25.908V27.5045Z" fill="#0D2B49"/>
</svg>
