<svg width="32" height="32" viewBox="0 0 32 32" fill="none" xmlns="http://www.w3.org/2000/svg">
<path d="M28.5 6C28.7764 6 29 6.21289 29 6.47607V11.7144H28V7.78369L18.3828 18.6875C18.2949 18.7864 18.1689 18.8479 18.0322 18.8562C18.023 18.8567 18.0139 18.8569 18.0048 18.8569C17.8756 18.8569 17.7561 18.8132 17.6621 18.7319L12.1509 13.9204L5.94727 25.7368C5.8623 25.8982 5.68945 26 5.5 26H3V25.0476H5.19092L11.5527 12.9299C11.623 12.7964 11.7549 12.7017 11.9092 12.6746C11.939 12.6694 11.9691 12.6667 11.999 12.6667C12.1226 12.6667 12.2444 12.7107 12.3379 12.7917L17.9531 17.6941L27.4269 6.95239H24V6H28.5ZM28.5 5H23V7.95239H25.2116L17.8613 16.2864L12.9956 12.0383C12.7185 11.7981 12.3654 11.6667 11.999 11.6667C11.9113 11.6667 11.8233 11.6743 11.736 11.6897C11.2805 11.7698 10.8811 12.0591 10.6679 12.4641L4.58649 24.0476H2V27H5.5C6.06271 27 6.57315 26.6946 6.83209 26.2026L12.4474 15.5068L17.0044 19.4854C17.282 19.7258 17.6363 19.8569 18.0048 19.8569H18.0281L18.0789 19.8552C18.4897 19.8303 18.8678 19.6472 19.1302 19.3518L27 10.4292V12.7144H30V6.47607C30 5.66211 29.3271 5 28.5 5Z" fill="#0D2B49"/>
</svg>
