<svg width="32" height="32" viewBox="0 0 32 32" fill="none" xmlns="http://www.w3.org/2000/svg">
<path fill-rule="evenodd" clip-rule="evenodd" d="M13.8907 23.4102C13.8907 23.5969 13.8181 23.7759 13.6889 23.9079C13.5597 24.0399 13.3845 24.1141 13.2018 24.1141C13.019 24.1141 12.8439 24.0399 12.7147 23.9079C12.5855 23.7759 12.5129 23.5969 12.5129 23.4102C12.5129 23.2235 12.5855 23.0444 12.7147 22.9124C12.8439 22.7804 13.019 22.7062 13.2018 22.7062C13.3845 22.7062 13.5597 22.7804 13.6889 22.9124C13.8181 23.0444 13.8907 23.2235 13.8907 23.4102ZM19.5 23.296C19.5 23.4828 19.4274 23.6618 19.2982 23.7938C19.169 23.9258 18.9938 24 18.8111 24C18.6284 24 18.4532 23.9258 18.324 23.7938C18.1948 23.6618 18.1222 23.4828 18.1222 23.296C18.1222 23.1094 18.1948 22.9303 18.324 22.7983C18.4532 22.6663 18.6284 22.5921 18.8111 22.5921C18.9938 22.5921 19.169 22.6663 19.2982 22.7983C19.4274 22.9303 19.5 23.1094 19.5 23.296ZM3 4V8.5H4.5V28H27.5V8.5H29V4H3ZM10.74 22.0698C10.62 22.23 10.52 22.4102 10.47 22.6001C10.39 22.8301 10.35 23.0801 10.35 23.3301V27H9.5V19H11.73L11.03 21.8198C10.93 21.8799 10.84 21.96 10.74 22.0698ZM20.5 27H19V26H13V27H11.35V23.3301C11.35 23.1899 11.37 23.0498 11.42 22.9102C11.45 22.8198 11.49 22.7402 11.5 22.7197C11.55 22.6602 11.61 22.6201 11.68 22.5898L11.89 22.4902L12.77 19H19.08L19.97 22.5L20.2 22.6001C20.27 22.6299 20.33 22.6802 20.37 22.75C20.43 22.8301 20.46 22.9399 20.47 23.0498L20.49 23.1802C20.49 23.2402 20.5 23.2798 20.5 23.3301V27ZM22.5 27H21.5V23.3301C21.5 23.25 21.49 23.1602 21.48 23.0698L21.47 22.9502C21.44 22.6899 21.35 22.4302 21.21 22.21C21.11 22.04 20.97 21.9102 20.82 21.8101L20.11 19H22.5V27ZM8.5 18V16.5H23.5V18H8.5ZM23.5 14V15.5H8.5V14H23.5ZM8.5 13V11.5H23.5V13H8.5ZM26.5 27H23.5V19H24.5V10.5H7.5V19H8.5V27H5.5V8.5H26.5V27ZM28 7.5H4V5H28V7.5Z" fill="#0D2B49"/>
</svg>
