<svg width="32" height="32" viewBox="0 0 32 32" fill="none" xmlns="http://www.w3.org/2000/svg">
<path d="M21.9644 9.17474L22.405 8.27207L22.8462 9.17474L23.8541 9.34272L23.1403 10.0362L23.3083 11.0441L22.405 10.582L21.5023 11.0441L21.6912 10.0362L20.9559 9.34272L21.9644 9.17474ZM15.5588 6.4027L16 5.50003L16.4412 6.4027L17.4491 6.57068L16.7138 7.26416L16.8818 8.27207L16 7.80995L15.1182 8.27207L15.2862 7.26416L14.5509 6.57068L15.5588 6.4027ZM6.97003 16.9661L6.08762 17.4282L6.2556 16.4412L5.54183 15.7268L6.52882 15.5797L6.97003 14.677L7.41058 15.5797L8.41914 15.7268L7.70471 16.4412L7.8727 17.4282L6.97003 16.9661ZM10.3931 23.8123L9.53162 23.3501L8.64987 23.8123L8.79694 22.8043L8.08317 22.1108L9.07016 21.9429L9.53162 21.0402L9.97283 21.9429L10.9598 22.1108L10.246 22.8043L10.3931 23.8123ZM10.3088 9.88916L10.4977 10.8971L9.59503 10.414L8.6917 10.8971L8.85969 9.88916L8.14592 9.19566L9.15382 9.04859L9.59503 8.14592L10.0362 9.04859L11.0232 9.19566L10.3088 9.88916ZM16.8608 26.5L15.9582 26.0379L15.0548 26.5L15.2228 25.513L14.5091 24.7992L15.517 24.6522L15.9582 23.7488L16.3987 24.6522L17.3857 24.7992L16.6719 25.513L16.8608 26.5ZM23.2449 23.7913L22.3422 23.3292L21.4389 23.7913L21.6069 22.8043L20.8931 22.1108L21.901 21.9429L22.3422 21.0402L22.8043 21.9429L23.7913 22.1108L23.0769 22.8043L23.2449 23.7913ZM25.9333 17.4282L25.03 16.9661L24.1273 17.4282L24.2953 16.4412L23.5809 15.7268L24.5894 15.5797L25.03 14.677L25.4712 15.5797L26.4582 15.7268L25.7444 16.4412L25.9333 17.4282ZM27.5 4.5V27.5H4.5V4.5H27.5ZM27.5 3.5H4.5C3.94772 3.5 3.5 3.94775 3.5 4.5V27.5C3.5 28.0522 3.94772 28.5 4.5 28.5H27.5C28.0523 28.5 28.5 28.0522 28.5 27.5V4.5C28.5 3.94775 28.0523 3.5 27.5 3.5ZM18.5 15.5V12.9019C18.5 11.5754 17.4246 10.5 16.0981 10.5H15.9019C14.5754 10.5 13.5 11.5754 13.5 12.9019V15.5H12.5V22H19.5V15.5H18.5ZM14.5 12.9019C14.5 12.1289 15.1289 11.5 15.9019 11.5H16.0981C16.8711 11.5 17.5 12.1289 17.5 12.9019V15.5H14.5V12.9019ZM18.5 21H13.5V16.5H18.5V21ZM17 19V20H15V19H15.5V18H16.5V19H17Z" fill="#0D2B49"/>
</svg>
