<svg width="32" height="32" viewBox="0 0 32 32" fill="none" xmlns="http://www.w3.org/2000/svg">
<path d="M18.513 20.0029C18.273 20.3129 18.063 20.6529 17.883 21.0029H10.003V20.0029H18.513Z" fill="#0D2B49"/>
<path d="M27.003 3.00293V17.4429C26.683 17.3229 26.343 17.2329 26.003 17.1729V3.00293H12.003V9.00293H6.00299V29.0029H18.513C18.783 29.3629 19.093 29.7029 19.423 30.0029H6.00299C5.45299 30.0029 5.00299 29.5529 5.00299 29.0029V8.50293L11.503 2.00293H26.003C26.553 2.00293 27.003 2.45293 27.003 3.00293Z" fill="#0D2B49"/>
<path d="M18 10.9999H9.99999V11.9999H18V10.9999Z" fill="#0D2B49"/>
<path d="M21 15.4999H9.99999V16.4999H21V15.4999Z" fill="#0D2B49"/>
<path d="M25.321 18.069C25.041 18.019 24.781 17.999 24.501 17.999C20.901 17.999 18.001 20.929 18.001 24.499C18.001 25.689 18.321 26.819 18.891 27.769C20.011 29.699 22.091 30.999 24.501 30.999C28.101 30.999 31.001 28.099 31.001 24.499C31.001 21.209 28.531 18.459 25.321 18.069ZM24.761 29.379C24.741 29.379 24.741 29.379 24.721 29.379H24.391C23.681 29.379 23.111 28.769 23.111 28.099C23.111 28.009 23.111 27.949 23.131 27.859L23.161 27.769L23.681 25.129C23.291 25.039 23.031 24.699 23.031 24.309C23.031 23.829 23.391 23.459 23.871 23.459H24.201C24.261 23.459 24.331 23.459 24.411 23.479C24.821 23.549 25.171 23.849 25.321 24.219C25.451 24.439 25.471 24.719 25.431 24.979L25.321 25.519L24.891 27.709C24.951 27.709 25.021 27.729 25.061 27.769C25.391 27.879 25.581 28.209 25.581 28.549C25.561 28.989 25.191 29.379 24.761 29.379ZM25.321 22.009C25.151 22.119 24.931 22.179 24.721 22.179C24.001 22.179 23.441 21.619 23.441 20.929C23.441 20.209 24.001 19.649 24.721 19.649C24.931 19.649 25.151 19.709 25.321 19.819C25.711 20.019 25.971 20.449 25.971 20.929C25.971 21.399 25.711 21.809 25.321 22.009Z" fill="#0D2B49"/>
</svg>
