<svg width="32" height="32" viewBox="0 0 32 32" fill="none" xmlns="http://www.w3.org/2000/svg">
<path d="M28.5 9.5H21.4417C22.0928 8.86401 22.5 7.97974 22.5 7C22.5 5.07031 20.9297 3.5 19 3.5C17.7203 3.5 16.6105 4.198 16 5.22607C15.3895 4.198 14.2797 3.5 13 3.5C11.0703 3.5 9.5 5.07031 9.5 7C9.5 7.97974 9.90723 8.86401 10.5583 9.5H3.5V14.5H5.5V28.5H26V14.5H28.5V9.5ZM19 4.5C20.3789 4.5 21.5 5.62158 21.5 7C21.5 8.37842 20.3789 9.5 19 9.5H16.5V7C16.5 5.62158 17.6211 4.5 19 4.5ZM10.5 7C10.5 5.62158 11.6216 4.5 13 4.5C14.3784 4.5 15.5 5.62158 15.5 7V9.5H13C11.6216 9.5 10.5 8.37842 10.5 7ZM6.5 27.5V14.5H13V27.5H6.5ZM14 27.5V14.5H18V27.5H14ZM25 27.5H19V14.5H25V27.5ZM27.5 13.5H4.5V10.5H27.5V13.5Z" fill="#0D2B49"/>
</svg>
