<svg width="32" height="32" viewBox="0 0 32 32" fill="none" xmlns="http://www.w3.org/2000/svg">
<path d="M18.1746 7.15193H18.7642V6.14889H17.9279L18.5045 4.14061C18.5631 3.9354 18.4859 3.7155 18.312 3.59257C18.139 3.46817 17.9054 3.46964 17.7325 3.59404C16.7455 4.30126 15.2796 4.30126 14.2926 3.59404C14.1187 3.46964 13.8851 3.46915 13.7131 3.59257C13.5392 3.7155 13.4619 3.9354 13.5206 4.14061L14.0972 6.14889H13.2604V7.15193H13.8701C12.7571 8.24826 12.0195 10.0616 12.0195 11.6653C12.0195 13.8962 13.4786 15.176 16.0223 15.176C18.5661 15.176 20.0251 13.8962 20.0251 11.6653C20.0251 10.0616 19.2876 8.24826 18.1746 7.15193ZM17.2302 4.95411L16.8872 6.14865H15.1379L14.7949 4.95411C15.5786 5.20487 16.4464 5.20487 17.2302 4.95411ZM16.0223 14.1729C14.0307 14.1729 13.0202 13.3291 13.0202 11.6653C13.0202 9.67666 14.4322 7.15389 16.0204 7.15193H16.0242C17.6125 7.15389 19.0244 9.67666 19.0244 11.6653C19.0244 13.3291 18.0139 14.1729 16.0223 14.1729ZM28.0433 18.5916C26.9908 17.3187 25.8289 17.9671 25.2034 18.3144C25.1328 18.3536 25.0081 18.4236 24.8588 18.5078C24.5899 18.0732 24.2345 17.7634 23.807 17.6165C23.2978 17.4411 22.734 17.5038 22.1769 17.7943C22.0528 17.8591 21.8965 17.9446 21.7249 18.0401C21.459 17.6096 21.1265 17.317 20.7257 17.1811C20.0173 16.9416 19.3127 17.2345 18.7801 17.5185L18.5397 17.6454C17.9719 17.9446 17.3856 18.2541 16.2285 18.957L16.2547 19.0003C14.9974 18.6868 13.5909 18.3323 13.0691 18.2008C12.6264 17.4426 11.7899 16.4601 9.80415 15.8597C7.66303 15.2093 6.05547 16.1859 4.02184 17.4206L3.5 17.7369L4.01403 18.597L4.54076 18.2786C6.50402 17.0865 7.80179 16.3029 9.51489 16.8196C11.3013 17.3598 11.9394 18.1993 12.2961 18.8703C12.3626 18.9952 12.4788 19.0858 12.6157 19.1205C12.8072 19.169 17.3279 20.3111 18.1918 20.508C18.9941 20.6907 19.2355 20.9664 19.1846 21.6433C19.1485 22.1443 18.9912 22.4881 17.4628 22.4059C17.0445 22.3824 16.7005 22.3691 16.3907 22.3574C15.6568 22.3295 15.1272 22.3094 14.2701 22.1806L10.8078 21.3881L10.585 22.3657L14.0835 23.165C15.0333 23.3095 15.6148 23.3315 16.3526 23.3594C16.6575 23.3712 16.9956 23.3839 17.4061 23.4069C17.5497 23.4153 17.7286 23.4251 17.926 23.4251C18.6524 23.4251 19.6181 23.2757 20.0088 22.4012C20.9477 21.8696 25.0613 19.5412 25.6901 19.1911C26.4866 18.7468 26.8276 18.6905 27.2713 19.2302C27.4628 19.4624 27.5322 19.6931 27.4843 19.9355C27.4208 20.2597 27.1618 20.5301 26.9478 20.6447C26.382 20.9473 16.3213 26.7765 15.176 27.4401C15.05 27.5126 14.8965 27.5141 14.7685 27.447L7.61905 23.6881C7.18418 23.4593 6.67113 23.4691 6.24603 23.715L3.80588 25.1221L4.30427 25.9919L6.74443 24.5848C6.87244 24.5119 7.02587 24.5079 7.15389 24.5765L14.3033 28.3354C14.5125 28.4451 14.7402 28.5 14.9669 28.5C15.2112 28.5 15.4555 28.4363 15.6764 28.309C19.8267 25.9033 26.9713 21.7692 27.4188 21.5297C27.9426 21.2495 28.3531 20.7005 28.4664 20.1304C28.5407 19.7533 28.528 19.1798 28.0433 18.5916ZM22.6402 18.6837C22.8542 18.572 23.1727 18.4584 23.4825 18.5651C23.7084 18.6425 23.871 18.8174 23.9893 18.9981C22.8288 19.6531 21.1619 20.5962 20.1651 21.1604C20.1145 20.7999 19.9863 20.5193 19.8162 20.3018C20.6161 19.8302 22.0218 19.0074 22.6402 18.6837ZM17.5682 19.3257C18.1807 18.9692 18.5885 18.753 19.0058 18.5328L19.2482 18.405C19.6039 18.2154 20.0602 18.0151 20.4052 18.1312C20.5673 18.1861 20.7099 18.3413 20.8426 18.5416C20.075 18.9844 19.2694 19.4604 18.9122 19.6722C18.712 19.598 18.5322 19.5564 18.4136 19.5295C18.2515 19.4925 17.9472 19.4188 17.5682 19.3257Z" fill="#0D2B49"/>
</svg>
