<svg width="32" height="32" viewBox="0 0 32 32" fill="none" xmlns="http://www.w3.org/2000/svg">
<path d="M28.5 28.5H27.5196C27.5196 24.9199 24.6569 22 21.1471 22C19.3922 22 17.7941 22.73 16.647 23.9099C17.6274 25.1799 18.2059 26.77 18.2059 28.5H17.2255C17.2255 27.0801 16.7745 25.76 16 24.6899C15.2255 25.76 14.7745 27.0801 14.7745 28.5H13.7941C13.7941 26.77 14.3726 25.1799 15.353 23.9099C14.2059 22.73 12.6078 22 10.8529 22C7.34318 22 4.48039 24.9199 4.48039 28.5H3.5C3.5 24.3599 6.7941 21 10.8529 21C12.8627 21 14.6765 21.8201 16 23.1499C17.3235 21.8201 19.1373 21 21.1471 21C25.2059 21 28.5 24.3599 28.5 28.5ZM14.5 16.25C14.5 18.3211 12.8211 20 10.75 20C8.67893 20 7 18.3211 7 16.25C7 14.1789 8.67893 12.5 10.75 12.5C12.8211 12.5 14.5 14.1789 14.5 16.25ZM13.5 16.25C13.5 14.7334 12.2666 13.5 10.75 13.5C9.2334 13.5 8 14.7334 8 16.25C8 17.7666 9.2334 19 10.75 19C12.2666 19 13.5 17.7666 13.5 16.25ZM25 16.25C25 18.3211 23.3211 20 21.25 20C19.1789 20 17.5 18.3211 17.5 16.25C17.5 14.1789 19.1789 12.5 21.25 12.5C23.3211 12.5 25 14.1789 25 16.25ZM24 16.25C24 14.7334 22.7666 13.5 21.25 13.5C19.7334 13.5 18.5 14.7334 18.5 16.25C18.5 17.7666 19.7334 19 21.25 19C22.7666 19 24 17.7666 24 16.25ZM27.2817 11.1919L16 3.5L4.71826 11.1919L5.28174 12.0181L16 4.70996L26.7183 12.0181L27.2817 11.1919Z" fill="#0D2B49"/>
</svg>
