<svg width="32" height="32" viewBox="0 0 32 32" fill="none" xmlns="http://www.w3.org/2000/svg">
<path d="M21.89 19.4258C21.37 19.999 20.64 20.4735 19.77 20.8295L18.36 17.3597H19.57V16.3712H18.12V14.147H18.6C19.04 14.147 19.4 14.5027 19.4 14.9379V15.5803H20.4V14.9379C20.4 13.959 19.59 13.1585 18.6 13.1585H12.53L10.94 8.97705L10.01 9.33278L12.88 16.9048L12.1 20.7701C11.28 20.424 10.6 19.9693 10.1 19.4258L9.36002 20.0881C10.71 21.5708 13.25 22.5 16 22.5C18.74 22.5 21.29 21.5708 22.64 20.0881L21.89 19.4258ZM17.12 14.147V16.3712H13.75L12.9 14.147H17.12ZM16 21.5115C14.96 21.5115 13.95 21.3729 13.05 21.0964L13.81 17.3597H17.32L18.82 21.1456C17.95 21.3831 16.99 21.5115 16 21.5115ZM2 7V20.5H8.25L7.95001 20.1737L8.70001 19.5016H6.39001C6.01001 17.8211 4.69 16.4964 3 16.1209V11.3791C4.69 11.0036 6.01001 9.67886 6.39001 7.99842H25.61C25.99 9.67886 27.31 11.0036 29 11.3791V16.1209C27.31 16.4964 25.99 17.8211 25.61 19.5016H23.3L24.05 20.1638L23.75 20.5H25.5V20.4901L30 20.5V7H2ZM5.34998 19.5016H3V17.1488C4.13 17.485 5.02002 18.3748 5.34998 19.5016ZM3 10.3411V7.99842H5.34998C5.02002 9.12523 4.13 10.015 3 10.3411ZM29 19.5016H26.65C26.98 18.3748 27.87 17.485 29 17.1488V19.5016ZM29 10.3411C27.87 10.015 26.98 9.12523 26.65 7.99842H29V10.3411Z" fill="#0D2B49"/>
</svg>
