<svg width="32" height="32" viewBox="0 0 32 32" fill="none" xmlns="http://www.w3.org/2000/svg">
<path d="M2 7V20.5H11.38L11.42 20.04L11.47 19.49H6.39001C6.01001 17.79 4.69 16.45 3 16.0701V11.4299C4.69 11.05 6.01001 9.70996 6.39001 8.01001H25.61C25.99 9.70996 27.31 11.05 29 11.4299V16.0701C27.31 16.45 25.99 17.79 25.61 19.49H20.42L20.51 20.5H25.5V20.49L30 20.5V7H2ZM5.34998 19.49H3V17.1099C4.13 17.45 5.02002 18.3501 5.34998 19.49ZM3 10.3799V8.01001H5.34998C5.02002 9.1499 4.13 10.05 3 10.3799ZM29 19.49H26.65C26.98 18.3501 27.87 17.45 29 17.1099V19.49ZM29 10.3799C27.87 10.05 26.98 9.1499 26.65 8.01001H29V10.3799ZM18.75 12.1899L21.62 10.27L21.07 9.43018L18.23 11.3301L16.7 9.88013L16.02 9.24023L13.73 11.3301L10.93 9.49023L10.38 10.3301L13.2 12.1802L12.38 20.4399L12.34 20.9001L12.66 21.23L15.29 23.9702L16.03 24.75L16.75 23.96L19.25 21.21L19.54 20.8901L18.75 12.1899ZM16.01 10.6001L17.38 11.9001L16.01 12.8201L14.59 11.8901L16.01 10.6001ZM14.15 12.8L16.01 14.02L17.8 12.8201L18.14 16.4702V16.48L13.49 19.4502L14.15 12.8ZM16.01 23.28L13.48 20.6401L18.24 17.5901L18.51 20.54L16.01 23.28Z" fill="#0D2B49"/>
</svg>
