<svg width="32" height="32" viewBox="0 0 32 32" fill="none" xmlns="http://www.w3.org/2000/svg">
<path d="M22.19 17.1626L22.18 17.0626C22.14 16.7522 22.04 16.3618 21.79 16.0313C21.66 15.8411 21.51 15.6908 21.36 15.5808L20.42 11.8061L20.38 11.6858C20.11 11.005 19.44 10.5445 18.72 10.5445H13.27C12.52 10.5445 11.85 11.015 11.61 11.7259L11.59 11.766L11.58 11.8061L10.61 15.6109C10.54 15.6607 10.46 15.7309 10.39 15.8111C10.21 16.0013 10.06 16.2516 9.94 16.572C9.83002 16.9123 9.78003 17.2127 9.78003 17.5132V21.4082C9.78003 22.2892 10.49 23 11.37 23H12.24C12.99 23 13.62 22.4793 13.79 21.7885H18.21C18.38 22.4793 19.01 23 19.76 23H20.63C21.51 23 22.22 22.2892 22.22 21.4082V17.5132C22.22 17.4129 22.21 17.2929 22.19 17.1626ZM21.22 21.4082C21.22 21.7384 20.96 21.9987 20.63 21.9987H19.76C19.43 21.9987 19.17 21.7384 19.17 21.4082V20.5069C18.89 20.677 18.58 20.7873 18.24 20.7873H13.76C13.42 20.7873 13.11 20.677 12.83 20.5069V21.4082C12.83 21.7384 12.57 21.9987 12.24 21.9987H11.37C11.04 21.9987 10.78 21.7384 10.78 21.4082V17.5132C10.78 17.313 10.82 17.1128 10.88 16.9123C10.93 16.7722 11.01 16.6019 11.12 16.5019C11.23 16.3618 11.36 16.3317 11.48 16.2516L12.55 12.0564C12.66 11.756 12.94 11.5457 13.27 11.5457H18.72C19.04 11.5457 19.33 11.756 19.45 12.0564L20.47 16.1315L20.52 16.2516C20.69 16.3317 20.87 16.4317 20.97 16.6121C21.09 16.7422 21.16 16.9524 21.18 17.1626C21.2 17.2929 21.22 17.4129 21.22 17.5132V21.4082ZM18.0236 19.5051H13.9764V18.5038H18.0236V19.5051ZM2 7V20.5169H8.78003V19.5056H6.39001C6.01001 17.8036 4.69 16.4618 3 16.0814V11.4355C4.69 11.0551 6.01001 9.71336 6.39001 8.01128H25.61C25.99 9.71336 27.31 11.0551 29 11.4355V16.0814C27.31 16.4618 25.99 17.8036 25.61 19.5056H23.22V20.5169H25.5V20.5069L30 20.5169V7H2ZM5.34998 19.5056H3V17.1225C4.13 17.463 5.02002 18.3643 5.34998 19.5056ZM3 10.3841V8.01128H5.34998C5.02002 9.1526 4.13 10.0539 3 10.3841ZM29 19.5056H26.65C26.98 18.3643 27.87 17.463 29 17.1225V19.5056ZM29 10.3841C27.87 10.0539 26.98 9.1526 26.65 8.01128H29V10.3841Z" fill="#0D2B49"/>
</svg>
