<svg width="32" height="32" viewBox="0 0 32 32" fill="none" xmlns="http://www.w3.org/2000/svg">
<path d="M21.9662 13.53C20.9363 11.04 18.6863 9.5 16.0862 9.5C15.2062 9.5 14.3063 9.66016 13.5162 9.98999C12.7463 10.3101 12.0162 10.8 11.4162 11.4102C10.7963 12.02 10.3262 12.73 10.0063 13.51C9.67626 14.3101 9.50628 15.1699 9.50628 15.99C9.46624 18.6401 11.0063 20.9299 13.5262 21.97C14.3862 22.3201 15.2662 22.5 16.1263 22.5C17.7963 22.5 19.3862 21.8401 20.5862 20.6001C20.7463 20.45 20.8862 20.29 21.0262 20.1299C21.0463 20.1099 21.0563 20.0901 21.0663 20.0701C22.5663 18.27 22.9162 15.8301 21.9662 13.53ZM16.4963 10.52C18.2862 10.6401 19.5762 11.6099 20.3862 12.74L18.2563 14.3301C17.8763 13.79 17.2862 13.3799 16.4963 13.24V10.52ZM17.7862 16C17.7862 16.8701 17.2262 17.76 15.9963 17.8C14.7662 17.76 14.2162 16.8701 14.2162 15.99C14.2162 15.1201 14.7662 14.22 15.9863 14.1899C17.2262 14.22 17.7862 15.1201 17.7862 16ZM13.9062 21.04C12.2363 20.3501 10.4662 18.6699 10.5063 15.99C10.5063 15.3 10.6562 14.5701 10.9363 13.8901C11.2062 13.23 11.6063 12.6299 12.1163 12.1201C12.6362 11.6001 13.2463 11.1899 13.8962 10.9199C14.3962 10.71 14.9463 10.5801 15.4963 10.53V13.24C13.9963 13.5 13.2162 14.77 13.2162 15.99C13.2162 17.3501 14.1662 18.75 15.9863 18.8H16.0063C16.7363 18.78 17.3262 18.54 17.7662 18.1899L19.6662 20.0901C17.8462 21.79 15.5162 21.71 13.9062 21.04ZM20.3563 19.3599L18.4162 17.4199C18.6562 16.99 18.7862 16.49 18.7862 16C18.7862 15.75 18.7563 15.5 18.6863 15.26L20.9062 13.6001C20.9562 13.7 21.0063 13.8101 21.0463 13.9102C21.6763 15.4299 21.7762 17.5901 20.3563 19.3599ZM2 7V20.5H9.98999C9.73999 20.1799 9.52002 19.8398 9.34003 19.49H6.39001C6.01001 17.79 4.69 16.45 3 16.0701V11.4299C4.69 11.05 6.01001 9.70996 6.39001 8.01001H25.61C25.99 9.70996 27.31 11.05 29 11.4299V16.0701C27.31 16.45 25.99 17.79 25.61 19.49H22.66C22.47 19.8398 22.25 20.1799 22 20.5H25.5V20.49L30 20.5V7H2ZM5.34998 19.49H3V17.1099C4.13 17.45 5.02002 18.3501 5.34998 19.49ZM3 10.3799V8.01001H5.34998C5.02002 9.1499 4.13 10.05 3 10.3799ZM29 19.49H26.65C26.98 18.3501 27.87 17.45 29 17.1099V19.49ZM29 10.3799C27.87 10.05 26.98 9.1499 26.65 8.01001H29V10.3799Z" fill="#0D2B49"/>
</svg>
