<svg width="32" height="32" viewBox="0 0 32 32" fill="none" xmlns="http://www.w3.org/2000/svg">
<path d="M7.5 12.5V14H9V23H23V14H24.5V12.5H7.5ZM22 22H13.5V18.5H11.5V22H10V14H22V22ZM13.5 15V17H11.5V15H13.5ZM17 15V17H15V15H17ZM20 15V17H18V15H20ZM20 18.5V20.5H15V18.5H20ZM2 7V20.5H8V19.49H6.39001C6.01001 17.79 4.69 16.45 3 16.0701V11.4299C4.69 11.05 6.01001 9.70996 6.39001 8.01001H25.61C25.99 9.70996 27.31 11.05 29 11.4299V16.0701C27.31 16.45 25.99 17.79 25.61 19.49H24V20.5H25.5V20.49L30 20.5V7H2ZM5.34998 19.49H3V17.1099C4.13 17.45 5.02002 18.3501 5.34998 19.49ZM3 10.3799V8.01001H5.34998C5.02002 9.1499 4.13 10.05 3 10.3799ZM29 19.49H26.65C26.98 18.3501 27.87 17.45 29 17.1099V19.49ZM29 10.3799C27.87 10.05 26.98 9.1499 26.65 8.01001H29V10.3799Z" fill="#0D2B49"/>
</svg>
