<svg width="32" height="32" viewBox="0 0 32 32" fill="none" xmlns="http://www.w3.org/2000/svg">
<path d="M9 13.5V3.5H3.5V28.5H28.5V13.5H9ZM4.5 4.5H8V8.5H4.5V4.5ZM4.5 9.5H8V15.5H4.5V9.5ZM4.5 16.5H8V20.5H4.5V16.5ZM8 27.5H4.5V21.5H8V27.5ZM27.5 27.5H9V14.5H27.5V27.5ZM14.5 22H10.5V26H14.5V22ZM13.5 25H11.5V23H13.5V25ZM14.5 16H10.5V20H14.5V16ZM13.5 19H11.5V17H13.5V19ZM20 22H16V26H20V22ZM19 25H17V23H19V25ZM25.5 22H21.5V26H25.5V22ZM24.5 25H22.5V23H24.5V25ZM25.5 16H21.5V20H25.5V16ZM24.5 19H22.5V17H24.5V19ZM20 16H16V20H20V16ZM19 19H17V17H19V19Z" fill="#0D2B49"/>
</svg>
