<svg width="32" height="32" viewBox="0 0 32 32" fill="none" xmlns="http://www.w3.org/2000/svg">
<path d="M25.5 21.0759V15.5H16.5V10.9495C18.3295 10.7019 19.75 9.14624 19.75 7.25C19.75 5.18262 18.0674 3.5 16 3.5C13.9321 3.5 12.25 5.18262 12.25 7.25C12.25 9.14624 13.6701 10.7019 15.5 10.9495V15.5H6.5V21.0759C4.79034 21.4243 3.5 22.9395 3.5 24.75C3.5 26.8174 5.18213 28.5 7.25 28.5C9.31787 28.5 11 26.8174 11 24.75C11 22.7681 9.44952 21.1567 7.5 21.0254V16.5H15.5V21.0505C13.6701 21.2981 12.25 22.8538 12.25 24.75C12.25 26.8174 13.9321 28.5 16 28.5C18.0674 28.5 19.75 26.8174 19.75 24.75C19.75 22.8538 18.3295 21.2981 16.5 21.0505V16.5H24.5V21.0254C22.5509 21.1567 21 22.7683 21 24.75C21 26.8174 22.6826 28.5 24.75 28.5C26.8174 28.5 28.5 26.8174 28.5 24.75C28.5 22.9395 27.2093 21.4246 25.5 21.0759ZM13.25 7.25C13.25 5.7334 14.4834 4.5 16 4.5C17.5166 4.5 18.75 5.7334 18.75 7.25C18.75 8.7666 17.5166 10 16 10C14.4834 10 13.25 8.7666 13.25 7.25ZM10 24.75C10 26.2666 8.7666 27.5 7.25 27.5C5.7334 27.5 4.5 26.2666 4.5 24.75C4.5 23.2334 5.7334 22 7.25 22C8.7666 22 10 23.2334 10 24.75ZM18.75 24.75C18.75 26.2666 17.5166 27.5 16 27.5C14.4834 27.5 13.25 26.2666 13.25 24.75C13.25 23.2334 14.4834 22 16 22C17.5166 22 18.75 23.2334 18.75 24.75ZM24.75 27.5C23.2334 27.5 22 26.2666 22 24.75C22 23.2334 23.2334 22 24.75 22C26.2666 22 27.5 23.2334 27.5 24.75C27.5 26.2666 26.2666 27.5 24.75 27.5Z" fill="#0D2B49"/>
</svg>
