<svg width="32" height="32" viewBox="0 0 32 32" fill="none" xmlns="http://www.w3.org/2000/svg">
<path d="M24.7727 15.9807H25.7694C25.7694 21.4255 21.2979 25.8558 15.8024 25.8558C13.2211 25.8558 10.7858 24.8847 8.92094 23.118H4.87172L7.58051 25.8018L6.87582 26.5L3 22.6599L6.87582 18.8198L7.58051 19.518L4.94375 22.1305H9.32877L9.47477 22.2742C11.1703 23.9473 13.4168 24.8683 15.8024 24.8683C20.7489 24.8683 24.7727 20.8816 24.7727 15.9807ZM28.4997 9.83578L29 9.3401L25.1232 5.5L24.4185 6.1982L27.1019 8.85599H22.6975C20.8316 7.08059 18.3915 6.10562 15.8024 6.10562C10.307 6.10562 5.83547 10.5359 5.83547 15.9807H6.83216C6.83216 11.0798 10.8559 7.09313 15.8024 7.09313C18.1949 7.09313 20.4462 8.01892 22.1417 9.69884L22.2877 9.8435H27.0823L24.4185 12.482L25.1232 13.1802L28.4918 9.8435H28.4997V9.83578ZM7.82886 15.9807C7.82886 11.6247 11.4059 8.08064 15.8024 8.08064C20.199 8.08064 23.776 11.6247 23.776 15.9807C23.776 20.3367 20.199 23.8808 15.8024 23.8808C11.4059 23.8808 7.82886 20.3367 7.82886 15.9807ZM8.82555 15.9807C8.82555 19.7919 11.9558 22.8933 15.8024 22.8933C19.649 22.8933 22.7793 19.7919 22.7793 15.9807C22.7793 12.1695 19.649 9.06815 15.8024 9.06815C11.9558 9.06815 8.82555 12.1695 8.82555 15.9807ZM13.8042 19.979L18.5521 12.509L17.7092 11.9825L12.9613 19.4524L13.8042 19.979ZM18.045 15.7338C19.0066 15.7338 19.7892 16.5092 19.7892 17.462V19.437C19.7892 20.3898 19.0066 21.1651 18.045 21.1651C17.0833 21.1651 16.3008 20.3898 16.3008 19.437V17.462C16.3008 16.5092 17.0833 15.7338 18.045 15.7338ZM18.045 16.7213C17.6333 16.7213 17.2975 17.0541 17.2975 17.462V19.437C17.2975 19.8449 17.6333 20.1776 18.045 20.1776C18.4567 20.1776 18.7925 19.8449 18.7925 19.437V17.462C18.7925 17.0541 18.4567 16.7213 18.045 16.7213ZM11.8156 14.4994V12.5244C11.8156 11.5716 12.5982 10.7963 13.5599 10.7963C14.5215 10.7963 15.3041 11.5716 15.3041 12.5244V14.4994C15.3041 15.4522 14.5215 16.2276 13.5599 16.2276C12.5982 16.2276 11.8156 15.4522 11.8156 14.4994ZM12.8123 14.4994C12.8123 14.9074 13.1481 15.2401 13.5599 15.2401C13.9716 15.2401 14.3074 14.9074 14.3074 14.4994V12.5244C14.3074 12.1165 13.9716 11.7838 13.5599 11.7838C13.1481 11.7838 12.8123 12.1165 12.8123 12.5244V14.4994Z" fill="#0D2B49"/>
</svg>
