<svg width="32" height="32" viewBox="0 0 32 32" fill="none" xmlns="http://www.w3.org/2000/svg">
<path d="M26.541 7.41595V24.5949C27.598 24.5949 28.455 23.7409 28.46 22.6849V9.32595C28.456 8.26895 27.598 7.41495 26.541 7.41595Z" fill="#0D2B49"/>
<path d="M3.53998 9.32595V22.6839C3.54498 23.7409 4.40198 24.5949 5.45898 24.5939V7.41595C4.40198 7.41495 3.54398 8.26895 3.53998 9.32595Z" fill="#0D2B49"/>
<path d="M23.142 5.66895C23.802 5.66895 24.342 6.20595 24.345 6.86195V25.1329C24.342 25.7929 23.802 26.3309 23.137 26.3299H8.85798C8.19798 26.3299 7.65798 25.7929 7.65498 25.1369V6.86695C7.65798 6.20695 8.19798 5.66895 8.86298 5.66895H23.142ZM23.142 4.66895C23.14 4.66895 23.137 4.66895 23.137 4.66895H8.86298C8.86098 4.66895 8.85798 4.66895 8.85798 4.66895C7.64598 4.66895 6.66098 5.64895 6.65498 6.86195V25.1369C6.66098 26.3499 7.64598 27.3299 8.85798 27.3299C8.85998 27.3299 8.86298 27.3299 8.86298 27.3299H23.137C23.139 27.3299 23.142 27.3299 23.142 27.3299C24.354 27.3299 25.339 26.3499 25.345 25.1369V6.86195C25.34 5.64895 24.355 4.66895 23.142 4.66895Z" fill="#0D2B49"/>
<path d="M16 8.71195C16.049 8.71195 16.098 8.71495 16.168 8.72195C16.241 8.72895 16.317 8.73795 16.395 8.75295C16.6 8.78995 16.793 8.85895 16.975 8.95595C17.141 9.04695 17.288 9.15395 17.42 9.27895C17.575 9.42395 17.709 9.58594 17.806 9.74194C18.002 10.0719 18.11 10.4709 18.11 10.8649C18.11 11.0089 18.104 11.2199 18.054 11.3819L18.012 11.5189L18.01 11.6619C17.993 12.8019 17.462 13.8379 16.666 14.2529C16.644 14.2649 16.62 14.2769 16.608 14.2819C16.499 14.3289 16.283 14.3799 16 14.3799C15.67 14.3799 15.474 14.3139 15.373 14.2729L15.353 14.2589L15.3 14.2309C14.537 13.8239 14.012 12.7909 13.995 11.6629L13.993 11.5199L13.951 11.3829C13.91 11.2509 13.89 11.0819 13.89 10.8659C13.89 10.4769 14 10.0779 14.188 9.76094C14.301 9.57994 14.433 9.41794 14.578 9.28194C14.713 9.15694 14.865 9.04695 15.019 8.96195C15.212 8.85894 15.405 8.78995 15.606 8.75295C15.682 8.73895 15.757 8.72895 15.853 8.71995C15.902 8.71495 15.951 8.71195 16 8.71195ZM16 7.71195C15.914 7.71195 15.828 7.71694 15.742 7.72594C15.637 7.73594 15.532 7.74995 15.427 7.76895C15.116 7.82595 14.825 7.93095 14.548 8.07995C14.314 8.20895 14.094 8.36695 13.898 8.54795C13.683 8.74895 13.497 8.97795 13.339 9.23095C13.052 9.71395 12.89 10.2869 12.89 10.8649C12.89 11.1369 12.914 11.4139 12.995 11.6769C13.019 13.2199 13.764 14.5439 14.83 15.1119C14.878 15.1449 14.935 15.1739 14.997 15.1979C15.26 15.3129 15.613 15.3799 16 15.3799C16.387 15.3799 16.745 15.3129 17.008 15.1979C17.061 15.1739 17.108 15.1499 17.151 15.1259C18.226 14.5669 18.986 13.2339 19.009 11.6759C19.09 11.4129 19.109 11.1359 19.109 10.8639C19.109 10.2859 18.951 9.71294 18.665 9.22994C18.507 8.97694 18.316 8.74695 18.101 8.54695C17.91 8.36495 17.69 8.20795 17.456 8.07895C17.179 7.93095 16.887 7.82595 16.572 7.76795C16.472 7.74895 16.362 7.73495 16.257 7.72495C16.172 7.71695 16.086 7.71195 16 7.71195Z" fill="#0D2B49"/>
<path d="M18.372 16.5199C18.439 16.5309 18.506 16.5409 18.573 16.5509C18.766 16.5789 18.933 16.6039 19.071 16.6579C19.337 16.7589 19.573 16.9119 19.786 17.1269C20.16 17.4919 20.371 17.9999 20.366 18.5219C20.366 18.5249 20.366 18.8389 20.366 19.1939V19.5049H11.636V19.3179C11.636 18.9159 11.636 18.5289 11.636 18.5289C11.629 18.0039 11.84 17.4929 12.227 17.1149C12.427 16.9129 12.664 16.7589 12.955 16.6489C13.068 16.6029 13.234 16.5789 13.426 16.5509C13.492 16.5409 13.558 16.5319 13.622 16.5209C14.019 16.7959 14.511 16.9899 15.044 17.0839C15.359 17.1509 15.684 17.1829 16.037 17.1829C16.159 17.1829 16.281 17.1789 16.403 17.1719C16.844 17.1649 17.277 17.0299 17.599 16.9149C17.868 16.8219 18.123 16.6919 18.372 16.5199ZM18.213 15.4779C18.123 15.4779 18.035 15.5119 17.968 15.5749C17.754 15.7459 17.529 15.8809 17.27 15.9709C16.988 16.0719 16.66 16.1729 16.367 16.1729C16.257 16.1799 16.146 16.1839 16.035 16.1839C15.773 16.1839 15.511 16.1619 15.25 16.1059C14.741 16.0159 14.313 15.8239 14.031 15.5749C13.963 15.5129 13.874 15.4789 13.784 15.4789C13.762 15.4789 13.739 15.4809 13.716 15.4849C13.331 15.5749 12.937 15.5749 12.576 15.7219C12.177 15.8729 11.815 16.1079 11.515 16.4109C10.942 16.9709 10.624 17.7409 10.635 18.5419C10.635 18.5459 10.635 20.1849 10.635 20.1889C10.635 20.3599 10.782 20.5049 10.962 20.5049H21.025C21.207 20.5049 21.365 20.3579 21.365 20.1889C21.365 20.1819 21.365 18.5389 21.365 18.5319C21.372 17.7349 21.054 16.9689 20.484 16.4119C20.184 16.1089 19.823 15.8739 19.424 15.7229C19.052 15.5759 18.667 15.5759 18.284 15.4859C18.26 15.4809 18.236 15.4779 18.213 15.4779Z" fill="#0D2B49"/>
<path d="M22.088 22.7369H9.91298V23.7369H22.088V22.7369Z" fill="#0D2B49"/>
</svg>
