<svg width="32" height="32" viewBox="0 0 32 32" fill="none" xmlns="http://www.w3.org/2000/svg">
<path d="M27.49 4.89014C27.49 4.89014 27.49 4.89014 27.49 4.8999C27.48 4.98999 27.48 5.07007 27.47 5.15991V5.16992C27.4 5.35986 27.22 5.5 27 5.5C26.76 5.5 26.56 5.33984 26.51 5.10986C26.51 5.10986 26.51 5.10986 26.51 5.1001C26.52 5.01001 26.52 4.92993 26.53 4.83984V4.83008C26.6 4.64014 26.78 4.5 27 4.5C27.24 4.5 27.44 4.65991 27.49 4.89014Z" fill="#0D2B49"/>
<path d="M27.38 6.44504C28.03 6.28485 28.5 5.70377 28.5 5.0026C28.5 4.17108 27.83 3.5 27 3.5C26.17 3.5 25.5 4.17108 25.5 5.0026C25.5 5.6238 25.88 6.16453 26.42 6.38488C26.39 6.5952 26.37 6.80577 26.34 7.0161C26.31 7.00607 26.28 7.00607 26.25 7.00607C25.28 7.00607 24.5 7.78746 24.5 8.75911C24.5 9.50038 24.96 10.1316 25.61 10.382C25.54 10.6021 25.47 10.8227 25.4 11.0331C25.35 11.013 25.3 11.013 25.25 11.013C24.28 11.013 23.5 11.7944 23.5 12.766C23.5 13.2669 23.71 13.7176 24.04 14.0282C23.89 14.2987 23.72 14.5692 23.55 14.8197C23.24 14.6291 22.88 14.5191 22.5 14.5191C21.4 14.5191 20.5 15.4205 20.5 16.5226C20.5 16.9733 20.65 17.3942 20.91 17.7346C20.64 17.9449 20.37 18.1352 20.09 18.3157C19.72 17.8349 19.15 17.5243 18.5 17.5243C17.41 17.5243 16.51 18.416 16.5 19.5077C16.33 19.5177 16.17 19.5278 16 19.5278C15.83 19.5278 15.67 19.5177 15.5 19.5077C15.49 18.416 14.59 17.5243 13.5 17.5243C12.85 17.5243 12.28 17.8349 11.91 18.3157C11.63 18.1352 11.36 17.9449 11.09 17.7346C11.35 17.3942 11.5 16.9733 11.5 16.5226C11.5 15.4205 10.6 14.5191 9.5 14.5191C9.11999 14.5191 8.76001 14.6291 8.45001 14.8197C8.28003 14.5692 8.10998 14.2987 7.96002 14.0282C8.28998 13.7176 8.5 13.2669 8.5 12.766C8.5 11.7944 7.71997 11.013 6.75 11.013C6.70001 11.013 6.65002 11.013 6.59998 11.0331C6.53003 10.8227 6.46002 10.6021 6.39001 10.382C7.03998 10.1316 7.5 9.50038 7.5 8.75911C7.5 7.78745 6.71997 7.00607 5.75 7.00607C5.71997 7.00607 5.69 7.00607 5.65997 7.0161C5.63 6.80577 5.60999 6.5952 5.58002 6.38488C6.11999 6.16453 6.5 5.6238 6.5 5.0026C6.5 4.17108 5.83002 3.5 5 3.5C4.16998 3.5 3.5 4.17108 3.5 5.0026C3.5 5.70377 3.96997 6.28485 4.61999 6.45507C4.65997 6.75564 4.69 7.04618 4.72998 7.33672C4.28998 7.64732 4 8.168 4 8.75911C4 9.61068 4.59998 10.3219 5.40997 10.472C5.51001 10.7726 5.59998 11.0732 5.71002 11.3637C5.28003 11.6741 5 12.185 5 12.766C5 13.7377 5.78003 14.5191 6.75 14.5191C6.86999 14.5191 7 14.5091 7.10999 14.479C7.32001 14.8397 7.53003 15.1902 7.77002 15.5208C7.59998 15.8114 7.5 16.1621 7.5 16.5226C7.5 17.6246 8.40002 18.526 9.5 18.526C9.78003 18.526 10.05 18.4659 10.3 18.3558C10.7 18.6762 11.11 18.9667 11.53 19.2272C11.51 19.3275 11.5 19.4275 11.5 19.5278C11.5 20.6298 12.4 21.5312 13.5 21.5312C14.25 21.5312 14.91 21.1106 15.25 20.4894C15.5 20.5195 15.75 20.5295 16 20.5295C16.25 20.5295 16.5 20.5195 16.75 20.4894C17.09 21.1106 17.75 21.5312 18.5 21.5312C19.6 21.5312 20.5 20.6298 20.5 19.5278C20.5 19.4275 20.49 19.3275 20.47 19.2272C20.89 18.9667 21.3 18.6762 21.7 18.3558C21.95 18.4659 22.22 18.526 22.5 18.526C23.6 18.526 24.5 17.6246 24.5 16.5226C24.5 16.1621 24.4 15.8114 24.23 15.5208C24.47 15.1902 24.68 14.8397 24.89 14.479C25 14.5091 25.13 14.5191 25.25 14.5191C26.22 14.5191 27 13.7377 27 12.766C27 12.185 26.72 11.6741 26.29 11.3637C26.4 11.0732 26.49 10.7726 26.59 10.472C27.4 10.3219 28 9.61068 28 8.75911C28 8.168 27.71 7.64732 27.27 7.33672C27.31 7.04618 27.34 6.75564 27.38 6.45507V6.44504ZM4.53003 5.16279C4.51001 5.11266 4.5 5.06277 4.5 5.0026C4.5 4.96249 4.5 4.93241 4.51001 4.90233C4.51001 4.89255 4.51001 4.89255 4.51001 4.89255C4.56 4.66192 4.76001 4.50174 5 4.50174C5.21997 4.50174 5.40997 4.64212 5.46997 4.84217C5.48999 4.89255 5.5 4.94244 5.5 5.0026C5.5 5.04271 5.5 5.07279 5.48999 5.10287C5.48999 5.11266 5.48999 5.11266 5.48999 5.11266C5.44 5.34304 5.23999 5.50347 5 5.50347C4.78003 5.50347 4.59003 5.36309 4.53003 5.16279ZM5.02002 8.90927C5.01001 8.85938 5 8.80924 5 8.75911C5 8.34824 5.34003 8.00781 5.75 8.00781C5.77002 8.00781 5.79999 8.00781 5.82001 8.01783C6.20001 8.04792 6.5 8.3683 6.5 8.75911C6.5 9.03962 6.34998 9.28003 6.11999 9.41014C6.01001 9.4703 5.88 9.51041 5.75 9.51041C5.39001 9.51041 5.09003 9.24995 5.02002 8.90927ZM7.44 13.0466V13.0566C7.33002 13.3271 7.06 13.5173 6.75 13.5173C6.70001 13.5173 6.65002 13.5073 6.59998 13.4973C6.26001 13.4271 6 13.1265 6 12.766C6 12.6359 6.03998 12.5056 6.09998 12.3953C6.22998 12.1649 6.46997 12.0147 6.75 12.0147C6.84003 12.0147 6.91998 12.0348 7 12.0649C7.28998 12.1649 7.5 12.4454 7.5 12.766C7.5 12.8663 7.47998 12.9563 7.44 13.0466ZM10.33 17.0836C10.15 17.344 9.84003 17.5243 9.5 17.5243C9.46002 17.5243 9.41998 17.5243 9.39001 17.5143C8.89001 17.4641 8.5 17.0334 8.5 16.5226C8.5 16.142 8.71997 15.8013 9.03998 15.6411C9.17999 15.5609 9.33002 15.5208 9.5 15.5208C10.05 15.5208 10.5 15.9716 10.5 16.5226C10.5 16.7329 10.44 16.9232 10.33 17.0836ZM14.13 20.3091H14.12C13.95 20.4493 13.73 20.5295 13.5 20.5295C13.03 20.5295 12.63 20.1988 12.53 19.7581C12.51 19.688 12.5 19.608 12.5 19.5278C12.5 19.2472 12.62 18.9868 12.81 18.7965C12.99 18.6361 13.23 18.526 13.5 18.526C14 18.526 14.41 18.8865 14.48 19.3673C14.5 19.4177 14.5 19.4676 14.5 19.5278C14.5 19.8384 14.36 20.1186 14.13 20.3091ZM19.47 19.7581C19.37 20.1988 18.97 20.5295 18.5 20.5295C18.27 20.5295 18.05 20.4493 17.88 20.3091H17.87C17.64 20.1186 17.5 19.8384 17.5 19.5278C17.5 19.4676 17.5 19.4177 17.52 19.3673C17.59 18.8865 18 18.526 18.5 18.526C18.77 18.526 19.01 18.6361 19.19 18.7965C19.38 18.9868 19.5 19.2472 19.5 19.5278C19.5 19.608 19.49 19.6879 19.47 19.7581ZM22.61 17.5143C22.58 17.5243 22.54 17.5243 22.5 17.5243C22.16 17.5243 21.85 17.344 21.67 17.0836C21.56 16.9232 21.5 16.7329 21.5 16.5226C21.5 15.9716 21.95 15.5208 22.5 15.5208C22.67 15.5208 22.82 15.5609 22.96 15.6411C23.28 15.8013 23.5 16.142 23.5 16.5226C23.5 17.0334 23.11 17.4641 22.61 17.5143ZM25.4 13.4973C25.35 13.5073 25.3 13.5173 25.25 13.5173C24.94 13.5173 24.67 13.3271 24.56 13.0566V13.0466C24.52 12.9563 24.5 12.8663 24.5 12.766C24.5 12.4454 24.71 12.1649 25 12.0649C25.08 12.0348 25.16 12.0147 25.25 12.0147C25.53 12.0147 25.77 12.1649 25.9 12.3953C25.96 12.5056 26 12.6359 26 12.766C26 13.1265 25.74 13.4271 25.4 13.4973ZM26.98 8.90927C26.91 9.24995 26.61 9.51041 26.25 9.51041C26.12 9.51041 25.99 9.4703 25.88 9.41014C25.65 9.28003 25.5 9.03962 25.5 8.75911C25.5 8.3683 25.8 8.04792 26.18 8.01783C26.2 8.00781 26.23 8.00781 26.25 8.00781C26.66 8.00781 27 8.34824 27 8.75911C27 8.80924 26.99 8.85938 26.98 8.90927ZM27 5.50347C26.76 5.50347 26.56 5.34304 26.51 5.11266C26.51 5.11266 26.51 5.11266 26.51 5.10287C26.5 5.07279 26.5 5.04271 26.5 5.0026C26.5 4.94244 26.51 4.89255 26.53 4.84217V4.83239C26.6 4.64211 26.78 4.50174 27 4.50174C27.24 4.50174 27.44 4.66192 27.49 4.89255C27.49 4.89255 27.49 4.89255 27.49 4.90233C27.5 4.93241 27.5 4.96249 27.5 5.0026C27.5 5.06277 27.49 5.11266 27.47 5.16279V5.17282C27.4 5.36309 27.22 5.50347 27 5.50347ZM16 22.533C16.6583 22.533 17.75 24.4738 17.75 26.5399C17.75 28.1022 17.1122 28.9983 16 28.9983C14.8878 28.9983 14.25 28.1022 14.25 26.5399C14.25 24.4738 15.3417 22.533 16 22.533ZM16 21.5312C14.4812 21.5312 13.25 24.2014 13.25 26.5399C13.25 28.8784 14.4812 30 16 30C17.5188 30 18.75 28.8784 18.75 26.5399C18.75 24.2014 17.5188 21.5312 16 21.5312Z" fill="#0D2B49"/>
</svg>
