<svg width="32" height="32" viewBox="0 0 32 32" fill="none" xmlns="http://www.w3.org/2000/svg">
<path d="M12.5 26.9199L12.41 27H12.59L12.5 26.9199ZM18.78 7.3501C18.14 7.3501 17.56 7.6499 17.19 8.10986C17.05 8.27978 16.94 8.47998 16.87 8.68994C16.79 8.8999 16.75 9.12988 16.75 9.37012C16.75 9.58008 16.78 9.77978 16.84 9.95996C16.84 9.96973 16.84 9.96973 16.84 9.96973L16.37 10.54L16.11 10.8599L15.38 9.95019C15.43 9.77002 15.46 9.56982 15.46 9.37012C15.46 9.27978 15.45 9.20019 15.44 9.10986C15.42 8.93994 15.38 8.77002 15.31 8.60986C15.24 8.43018 15.14 8.25977 15.02 8.10986C14.65 7.6499 14.08 7.3501 13.44 7.3501C12.8 7.3501 12.22 7.6499 11.85 8.10986C11.73 8.25977 11.63 8.43018 11.56 8.60986C11.49 8.77002 11.45 8.93994 11.43 9.10986C11.42 9.20019 11.41 9.27978 11.41 9.37012C11.41 10.4902 12.32 11.3999 13.44 11.3999C13.98 11.3999 14.46 11.1899 14.82 10.8501L16.11 12.46L16.37 12.1401L16.87 11.5098L17.37 10.8901L17.4 10.8501C17.76 11.1899 18.25 11.3999 18.78 11.3999C19.9 11.3999 20.81 10.4902 20.81 9.37012C20.81 8.25 19.9 7.3501 18.78 7.3501ZM14.19 10.0698C14 10.27 13.73 10.3999 13.44 10.3999C12.87 10.3999 12.41 9.93994 12.41 9.37012C12.41 9.27978 12.42 9.18994 12.45 9.10986C12.5 8.91016 12.61 8.74023 12.76 8.60986C12.94 8.45019 13.18 8.3501 13.44 8.3501C13.7 8.3501 13.93 8.45019 14.11 8.60986C14.26 8.74023 14.37 8.91016 14.42 9.10986C14.44 9.16016 14.45 9.20996 14.45 9.27002C14.46 9.2998 14.46 9.33984 14.46 9.37012C14.46 9.64014 14.36 9.89014 14.19 10.0698ZM18.78 10.3999C18.49 10.3999 18.22 10.27 18.03 10.0698C17.86 9.89014 17.75 9.64014 17.75 9.37012C17.75 9.33984 17.75 9.2998 17.76 9.27002C17.81 8.75 18.26 8.3501 18.78 8.3501C19.35 8.3501 19.81 8.81006 19.81 9.37012C19.81 9.93994 19.35 10.3999 18.78 10.3999ZM10.5 9.56006C10.5 9.41016 10.51 9.25 10.52 9.10986H10.5V9.56006ZM26 25.5V22.5H17.5V20.9502C20.44 20.5898 22.72 18.0801 22.72 15.0498V8.5498C22.72 4.93994 19.78 2 16.16 2H16.05C12.59 2 9.73999 4.7002 9.52002 8.10986H9.5V21H13V22.5H8.62C7.16998 22.5 6 23.6499 6 25.0601V27.4399C6 28.8501 7.16998 30 8.62 30H26V27H24.71C24.57 26.7798 24.5 26.5298 24.5 26.25C24.5 25.9697 24.57 25.7197 24.71 25.5H26ZM21.72 15.0498C21.72 17.6499 19.71 19.79 17.16 19.98C17.03 19.9902 16.91 20 16.78 20H13.94C15.57 19.0298 16.77 17.4199 17.2 15.5098C19.11 15.23 20.74 14.1899 21.72 12.7402V15.0498ZM16.5 21V22.5H14V21H16.5ZM16.05 3H16.16C17.97 3 19.57 3.85986 20.59 5.2002C19.79 4.77002 18.5 4.50977 16.62 5.18994C16.29 5.31006 15.93 5.31006 15.6 5.18994C13.71 4.50977 12.43 4.77002 11.63 5.2002C12.64 3.85986 14.25 3 16.05 3ZM10.52 9.10986C10.53 8.93994 10.55 8.77002 10.57 8.60986C10.6 8.43994 10.63 8.27002 10.68 8.10986C10.89 7.27978 11.3 6.62012 11.86 6.22998C12.3 5.91992 12.83 5.77002 13.45 5.77002C13.99 5.77002 14.6 5.89014 15.26 6.12988C15.81 6.33008 16.41 6.33008 16.96 6.12988C18.36 5.62012 19.54 5.6499 20.36 6.22998C21.22 6.83008 21.72 8.0498 21.72 9.56006C21.72 11.96 19.84 13.9697 17.34 14.48C17.18 14.5098 17.01 14.54 16.84 14.5498C16.68 14.5801 16.51 14.5898 16.34 14.5898C16.27 14.6001 16.19 14.6001 16.11 14.6001C13.02 14.6001 10.5 12.3398 10.5 9.56006C10.5 9.41016 10.51 9.25 10.52 9.10986ZM10.5 20V12.7402C11.66 14.46 13.74 15.6001 16.11 15.6001H16.14C15.45 18.0898 13.19 19.9302 10.5 20ZM10.5 27H9.31V25.5H10.5V27ZM11.64 29L12.5 28.25L13.36 29H11.64ZM13.5 27.7998L13.16 27.5L12.59 27L12.5 26.9199L12.41 27L11.84 27.5L11.5 27.7998V25.75H13.5V27.7998ZM25 28V29H14.5V28H25ZM23.61 27H14.5V25.5H23.61C23.54 25.7402 23.5 25.9902 23.5 26.25C23.5 26.5098 23.54 26.7598 23.61 27ZM9.03998 24.5C8.64001 24.5 8.31 24.8301 8.31 25.2197V27.2798C8.31 27.6802 8.64001 28 9.03998 28H10.5V29H8.62C7.71997 29 7 28.2998 7 27.4399V25.0601C7 24.2002 7.71997 23.5 8.62 23.5H25V24.5H9.03998ZM13.44 11.3999C13.98 11.3999 14.46 11.1899 14.82 10.8501L16.11 12.46L16.37 12.1401L16.87 11.5098L17.37 10.8901L17.4 10.8501C17.76 11.1899 18.25 11.3999 18.78 11.3999C19.9 11.3999 20.81 10.4902 20.81 9.37012C20.81 8.25 19.9 7.3501 18.78 7.3501C18.14 7.3501 17.56 7.6499 17.19 8.10986C17.05 8.27978 16.94 8.47998 16.87 8.68994C16.79 8.8999 16.75 9.12988 16.75 9.37012C16.75 9.58008 16.78 9.77978 16.84 9.95996C16.84 9.96973 16.84 9.96973 16.84 9.96973L16.37 10.54L16.11 10.8599L15.38 9.95019C15.43 9.77002 15.46 9.56982 15.46 9.37012C15.46 9.27978 15.45 9.20019 15.44 9.10986C15.42 8.93994 15.38 8.77002 15.31 8.60986C15.24 8.43018 15.14 8.25977 15.02 8.10986C14.65 7.6499 14.08 7.3501 13.44 7.3501C12.8 7.3501 12.22 7.6499 11.85 8.10986C11.73 8.25977 11.63 8.43018 11.56 8.60986C11.49 8.77002 11.45 8.93994 11.43 9.10986C11.42 9.20019 11.41 9.27978 11.41 9.37012C11.41 10.4902 12.32 11.3999 13.44 11.3999ZM17.76 9.27002C17.81 8.75 18.26 8.3501 18.78 8.3501C19.35 8.3501 19.81 8.81006 19.81 9.37012C19.81 9.93994 19.35 10.3999 18.78 10.3999C18.49 10.3999 18.22 10.27 18.03 10.0698C17.86 9.89014 17.75 9.64014 17.75 9.37012C17.75 9.33984 17.75 9.2998 17.76 9.27002ZM12.45 9.10986C12.5 8.91016 12.61 8.74023 12.76 8.60986C12.94 8.45019 13.18 8.3501 13.44 8.3501C13.7 8.3501 13.93 8.45019 14.11 8.60986C14.26 8.74023 14.37 8.91016 14.42 9.10986C14.44 9.16016 14.45 9.20996 14.45 9.27002C14.46 9.2998 14.46 9.33984 14.46 9.37012C14.46 9.64014 14.36 9.89014 14.19 10.0698C14 10.27 13.73 10.3999 13.44 10.3999C12.87 10.3999 12.41 9.93994 12.41 9.37012C12.41 9.27978 12.42 9.18994 12.45 9.10986ZM12.5 26.9199L12.41 27H12.59L12.5 26.9199ZM18.78 7.3501C18.14 7.3501 17.56 7.6499 17.19 8.10986C17.05 8.27978 16.94 8.47998 16.87 8.68994C16.79 8.8999 16.75 9.12988 16.75 9.37012C16.75 9.58008 16.78 9.77978 16.84 9.95996C16.84 9.96973 16.84 9.96973 16.84 9.96973L16.37 10.54L16.11 10.8599L15.38 9.95019C15.43 9.77002 15.46 9.56982 15.46 9.37012C15.46 9.27978 15.45 9.20019 15.44 9.10986C15.42 8.93994 15.38 8.77002 15.31 8.60986C15.24 8.43018 15.14 8.25977 15.02 8.10986C14.65 7.6499 14.08 7.3501 13.44 7.3501C12.8 7.3501 12.22 7.6499 11.85 8.10986C11.73 8.25977 11.63 8.43018 11.56 8.60986C11.49 8.77002 11.45 8.93994 11.43 9.10986C11.42 9.20019 11.41 9.27978 11.41 9.37012C11.41 10.4902 12.32 11.3999 13.44 11.3999C13.98 11.3999 14.46 11.1899 14.82 10.8501L16.11 12.46L16.37 12.1401L16.87 11.5098L17.37 10.8901L17.4 10.8501C17.76 11.1899 18.25 11.3999 18.78 11.3999C19.9 11.3999 20.81 10.4902 20.81 9.37012C20.81 8.25 19.9 7.3501 18.78 7.3501ZM14.19 10.0698C14 10.27 13.73 10.3999 13.44 10.3999C12.87 10.3999 12.41 9.93994 12.41 9.37012C12.41 9.27978 12.42 9.18994 12.45 9.10986C12.5 8.91016 12.61 8.74023 12.76 8.60986C12.94 8.45019 13.18 8.3501 13.44 8.3501C13.7 8.3501 13.93 8.45019 14.11 8.60986C14.26 8.74023 14.37 8.91016 14.42 9.10986C14.44 9.16016 14.45 9.20996 14.45 9.27002C14.46 9.2998 14.46 9.33984 14.46 9.37012C14.46 9.64014 14.36 9.89014 14.19 10.0698ZM18.78 10.3999C18.49 10.3999 18.22 10.27 18.03 10.0698C17.86 9.89014 17.75 9.64014 17.75 9.37012C17.75 9.33984 17.75 9.2998 17.76 9.27002C17.81 8.75 18.26 8.3501 18.78 8.3501C19.35 8.3501 19.81 8.81006 19.81 9.37012C19.81 9.93994 19.35 10.3999 18.78 10.3999ZM10.5 9.10986V9.56006C10.5 9.41016 10.51 9.25 10.52 9.10986H10.5Z" fill="#0D2B49"/>
</svg>
