<svg width="32" height="32" viewBox="0 0 32 32" fill="none" xmlns="http://www.w3.org/2000/svg">
<path d="M24.256 15.8399V15.8499L24.261 15.8449L24.256 15.8399Z" fill="#0D2B49"/>
<path d="M21.869 5.53992H7.87698V6.53992H21.869V5.53992Z" fill="#0D2B49"/>
<path d="M18.271 7.82692H7.87698V8.82692H18.271V7.82692Z" fill="#0D2B49"/>
<path d="M14.646 10.0489H7.87698V11.0489H14.646V10.0489Z" fill="#0D2B49"/>
<path d="M28.508 16.4909L28.498 15.5309V14.5709L28.228 14.3009L26.998 13.0609V1.99292H4.99798V13.0709L3.48798 14.5709V28.5099H28.509L28.508 16.4909ZM26.998 14.4809L27.478 14.9609L26.998 15.3909V14.4809ZM25.998 2.99292V12.7089L25.988 16.3019L21.908 19.9919L21.158 20.6519L18.038 23.4119C17.498 23.9719 16.768 24.2619 15.998 24.2619C15.228 24.2619 14.498 23.9719 13.958 23.4119L10.838 20.6519L10.088 19.9919L6.00798 16.3019L5.99798 2.99292H25.998ZM4.99798 14.4809V15.3909L4.51798 14.9609L4.99798 14.4809ZM5.04898 16.7009L6.06898 17.6309L9.42898 20.6609L9.11898 20.9609L4.48898 25.5909V16.4109L4.47898 16.2009L5.04898 16.7009ZM27.508 27.5009H27.498V27.5109H4.49798L4.48798 27.5099V27.0009L5.99798 25.4909L9.82798 21.6709H9.83798L10.138 21.3709L13.238 24.1009L13.258 24.1209C13.368 24.2409 13.498 24.3509 13.628 24.4609C13.748 24.5509 13.888 24.6409 14.028 24.7309C14.608 25.0709 15.288 25.2609 15.998 25.2609C16.708 25.2609 17.388 25.0709 17.968 24.7309C18.108 24.6409 18.248 24.5509 18.368 24.4609C18.508 24.3409 18.638 24.2309 18.758 24.1009L21.858 21.3709L22.158 21.6709L25.058 24.5609L25.998 25.4909L27.508 27.0009V27.5009ZM27.508 25.5909L22.878 20.9609L22.568 20.6609L25.928 17.6309L26.948 16.7009L27.508 16.2009V25.5909Z" fill="#0D2B49"/>
</svg>
