<svg width="32" height="32" viewBox="0 0 32 32" fill="none" xmlns="http://www.w3.org/2000/svg">
<path d="M26.11 17.502C26.116 17.502 26.122 17.502 26.129 17.502C26.186 17.5 27.529 17.437 28.119 16.252C28.474 15.539 28.457 14.975 28.444 14.563C28.437 14.373 28.432 14.209 28.465 14.074C28.508 13.894 28.448 13.705 28.31 13.583C28.172 13.461 27.974 13.425 27.803 13.49C27.687 13.534 27.075 13.78 26.495 14.195C26.495 14.166 26.501 14.137 26.501 14.108C26.501 13.803 26.485 13.499 26.461 13.197C26.691 13.122 27.781 12.709 28.051 11.529C28.229 10.752 28.078 10.208 27.968 9.81096C27.917 9.62696 27.873 9.46896 27.873 9.33096C27.872 9.14596 27.769 8.97696 27.606 8.88996C27.443 8.80396 27.246 8.81596 27.091 8.91896C26.974 8.99796 26.289 9.47996 25.791 10.145C25.73 9.97996 25.66 9.81896 25.592 9.65596C25.582 9.61496 25.565 9.57796 25.545 9.53996C25.447 9.31396 25.34 9.09296 25.228 8.87396C25.554 8.62196 25.977 8.16496 26.031 7.45596C26.081 6.77396 25.885 6.33496 25.741 6.01396C25.677 5.86996 25.625 5.75596 25.609 5.65296C25.58 5.46996 25.453 5.31896 25.279 5.25796C25.104 5.19696 24.911 5.23896 24.775 5.36396C24.687 5.44496 24.173 5.93796 23.841 6.56396L23.664 6.05996L23.583 5.87596C23.135 4.86496 21.48 4.51596 21.293 4.47996C21.112 4.44496 20.925 4.51196 20.809 4.65596C20.693 4.79996 20.665 4.99596 20.738 5.16596C20.778 5.26096 20.796 5.38496 20.817 5.54196C20.864 5.88996 20.928 6.36596 21.331 6.91796C21.843 7.62096 22.63 7.71196 23.004 7.71196C23.124 7.71196 23.201 7.70296 23.213 7.70096C23.24 7.69796 23.257 7.67496 23.283 7.66796C23.544 8.00196 23.783 8.35096 24 8.71196C23.392 8.63496 22.828 8.70196 22.723 8.71596C22.54 8.74196 22.386 8.86696 22.324 9.04096C22.261 9.21396 22.299 9.40896 22.423 9.54596C22.492 9.62296 22.548 9.73396 22.619 9.87596C22.778 10.189 22.996 10.619 23.557 11.009C23.923 11.263 24.305 11.342 24.637 11.342C24.815 11.342 24.969 11.317 25.109 11.287C25.176 11.529 25.232 11.774 25.282 12.021C24.594 11.619 23.833 11.434 23.7 11.405C23.514 11.363 23.33 11.427 23.211 11.568C23.091 11.709 23.058 11.904 23.125 12.076C23.176 12.205 23.194 12.368 23.215 12.557C23.259 12.967 23.32 13.527 23.772 14.184C24.251 14.88 24.964 15.078 25.435 15.131C25.411 15.38 25.377 15.625 25.336 15.869C24.799 15.232 24.082 14.79 23.961 14.718C23.803 14.624 23.605 14.624 23.446 14.72C23.287 14.816 23.195 14.991 23.206 15.176C23.214 15.315 23.18 15.475 23.14 15.661C23.054 16.064 22.937 16.616 23.161 17.382C23.389 18.158 23.965 18.57 24.393 18.777C24.291 18.982 24.194 19.188 24.079 19.386C24.067 19.398 24.061 19.413 24.051 19.426C23.718 18.338 22.876 17.357 22.747 17.212C22.623 17.074 22.435 17.018 22.255 17.059C22.075 17.103 21.935 17.243 21.89 17.422C21.844 17.602 21.741 17.785 21.621 17.996C21.364 18.451 21.044 19.017 21.025 19.97C21.007 20.927 21.514 21.595 21.923 21.979C21.594 22.267 21.245 22.534 20.877 22.783C21.087 21.778 20.958 20.722 20.933 20.549C20.907 20.366 20.782 20.212 20.608 20.149C20.434 20.087 20.24 20.124 20.103 20.248C19.965 20.373 19.778 20.467 19.562 20.577C19.095 20.813 18.515 21.107 17.972 21.889C17.382 22.738 17.488 23.642 17.636 24.179C17.127 24.343 16.572 24.538 16.001 24.761C15.43 24.539 14.875 24.343 14.366 24.179C14.513 23.642 14.619 22.737 14.029 21.888C13.486 21.107 12.906 20.813 12.439 20.577C12.223 20.467 12.036 20.372 11.898 20.248C11.761 20.123 11.564 20.086 11.393 20.149C11.219 20.212 11.094 20.366 11.068 20.549C11.043 20.722 10.914 21.778 11.125 22.783C10.757 22.534 10.408 22.266 10.079 21.979C10.489 21.595 10.996 20.926 10.977 19.97C10.958 19.017 10.639 18.451 10.382 17.995C10.263 17.784 10.159 17.602 10.113 17.422C10.068 17.243 9.92701 17.103 9.74801 17.059C9.56901 17.018 9.38001 17.074 9.25601 17.212C9.12701 17.357 8.28501 18.337 7.95101 19.426C7.94101 19.413 7.93501 19.398 7.92301 19.386C7.80801 19.188 7.71001 18.982 7.60801 18.777C8.03601 18.57 8.61201 18.159 8.83901 17.383C9.06501 16.617 8.94601 16.065 8.86101 15.661C8.82101 15.475 8.78701 15.314 8.79501 15.176C8.80601 14.991 8.71301 14.817 8.55501 14.72C8.39801 14.624 8.20001 14.624 8.04001 14.718C7.91901 14.79 7.20101 15.233 6.66401 15.87C6.62301 15.626 6.58901 15.381 6.56501 15.132C7.03701 15.079 7.75001 14.88 8.22901 14.185C8.68101 13.528 8.74201 12.967 8.78601 12.557C8.80701 12.368 8.82401 12.205 8.87501 12.076C8.94201 11.904 8.90901 11.709 8.78901 11.568C8.66801 11.428 8.48501 11.364 8.30001 11.406C8.16701 11.436 7.40601 11.621 6.71801 12.023C6.76801 11.776 6.82401 11.531 6.89101 11.289C7.03101 11.319 7.18601 11.344 7.36401 11.344C7.69601 11.344 8.07801 11.265 8.44401 11.011C9.00601 10.621 9.22201 10.192 9.38201 9.87896C9.45301 9.73796 9.51001 9.62596 9.57901 9.54896C9.70301 9.40996 9.74101 9.21596 9.67701 9.04196C9.61501 8.86796 9.46101 8.74296 9.27801 8.71696C9.17401 8.70296 8.60901 8.63696 8.00001 8.71296C8.21601 8.35296 8.45401 8.00596 8.71301 7.67296C8.73501 7.67896 8.75001 7.69896 8.77301 7.70196C8.78501 7.70396 8.86201 7.71296 8.98301 7.71296C9.35601 7.71296 10.143 7.62196 10.655 6.91996C11.058 6.36696 11.123 5.88996 11.17 5.54196C11.191 5.38496 11.208 5.26196 11.249 5.16696C11.32 4.99696 11.293 4.80096 11.177 4.65696C11.06 4.51296 10.875 4.44696 10.693 4.48096C10.505 4.51796 8.85201 4.86696 8.40401 5.87696L8.15701 6.55696C7.82501 5.93496 7.31401 5.44696 7.22601 5.36596C7.09001 5.23796 6.89701 5.19596 6.72201 5.25796C6.54801 5.31896 6.42101 5.46996 6.39201 5.65296C6.37601 5.75596 6.32501 5.86896 6.26001 6.01396C6.11601 6.33496 5.91901 6.77396 5.97001 7.45596C6.02201 8.16396 6.44601 8.62096 6.77201 8.87296C6.65901 9.09296 6.55201 9.31596 6.45401 9.54296C6.43501 9.57896 6.41901 9.61396 6.40901 9.65296C6.34101 9.81596 6.27001 9.97796 6.20901 10.144C5.71201 9.47896 5.02601 8.99696 4.91001 8.91796C4.75601 8.81496 4.56001 8.80296 4.39601 8.88896C4.23201 8.97496 4.12901 9.14396 4.12801 9.32896C4.12701 9.46696 4.08301 9.62496 4.03401 9.80796C3.92401 10.205 3.77301 10.75 3.95101 11.528C4.22101 12.707 5.31001 13.12 5.54001 13.196C5.51601 13.498 5.50001 13.802 5.50001 14.107C5.50001 14.136 5.50501 14.165 5.50601 14.194C4.92601 13.78 4.31401 13.533 4.19901 13.489C4.02701 13.424 3.83201 13.46 3.69301 13.582C3.55401 13.705 3.49401 13.893 3.53701 14.073C3.56801 14.208 3.56301 14.372 3.55801 14.562C3.54401 14.974 3.52601 15.539 3.88201 16.252C4.47401 17.437 5.81701 17.5 5.87301 17.502C5.88001 17.502 5.88601 17.502 5.89201 17.502C5.93701 17.502 5.97801 17.488 6.01901 17.477C6.13401 17.855 6.25801 18.228 6.41001 18.59C5.33701 18.386 4.16601 18.603 3.98401 18.642C3.80301 18.68 3.65801 18.814 3.60601 18.992C3.55501 19.169 3.60501 19.361 3.73801 19.49C3.87201 19.619 3.97801 19.8 4.10101 20.009C4.36701 20.459 4.69801 21.019 5.51401 21.51C5.96301 21.781 6.41701 21.872 6.82501 21.872C7.54401 21.872 8.09201 21.6 8.23301 21.524C8.53101 21.875 8.85101 22.207 9.19301 22.523C8.15301 22.726 7.18601 23.304 7.03401 23.401C6.87601 23.499 6.78801 23.676 6.80001 23.86C6.81401 24.045 6.92801 24.206 7.09701 24.281C7.26701 24.356 7.43001 24.488 7.61801 24.64C8.02401 24.969 8.53001 25.378 9.46601 25.555C9.62801 25.586 9.78401 25.599 9.93501 25.599C11.206 25.599 12.024 24.619 12.062 24.573C12.086 24.544 12.096 24.51 12.113 24.478C12.134 24.487 12.158 24.493 12.179 24.501C12.213 24.518 12.247 24.53 12.283 24.538C12.569 24.652 12.857 24.764 13.169 24.855C13.537 24.963 14.069 25.129 14.659 25.334C13.834 25.727 13.075 26.172 12.541 26.66C12.337 26.847 12.322 27.162 12.509 27.367C12.608 27.475 12.742 27.53 12.878 27.53C12.998 27.53 13.119 27.487 13.215 27.4C13.86 26.812 14.931 26.275 16.001 25.837C17.071 26.275 18.143 26.811 18.788 27.4C18.884 27.487 19.005 27.53 19.125 27.53C19.261 27.53 19.396 27.475 19.494 27.367C19.681 27.163 19.666 26.846 19.462 26.66C18.927 26.173 18.168 25.727 17.343 25.334C17.932 25.13 18.464 24.964 18.832 24.856C19.144 24.765 19.434 24.652 19.72 24.538C19.756 24.53 19.788 24.518 19.822 24.502C19.843 24.493 19.868 24.487 19.889 24.478C19.905 24.51 19.915 24.544 19.939 24.573C19.977 24.62 20.794 25.6 22.066 25.6C22.215 25.6 22.373 25.586 22.535 25.556C23.472 25.38 23.976 24.97 24.383 24.641C24.571 24.489 24.734 24.357 24.904 24.282C25.073 24.207 25.187 24.045 25.201 23.861C25.214 23.676 25.125 23.5 24.969 23.402C24.817 23.306 23.851 22.727 22.812 22.524C23.154 22.209 23.473 21.876 23.771 21.525C23.912 21.601 24.46 21.873 25.179 21.873C25.586 21.873 26.04 21.782 26.49 21.511C27.305 21.02 27.636 20.46 27.903 20.01C28.026 19.801 28.132 19.621 28.266 19.491C28.399 19.362 28.449 19.171 28.398 18.993C28.346 18.815 28.201 18.681 28.02 18.643C27.837 18.605 26.666 18.387 25.594 18.59C25.746 18.228 25.87 17.855 25.985 17.477C26.024 17.488 26.065 17.502 26.11 17.502ZM9.52001 18.506C9.74901 18.911 9.96201 19.299 9.97501 19.988C9.98701 20.617 9.61701 21.056 9.34701 21.293C9.18801 21.125 9.04601 20.944 8.89901 20.766C8.89801 20.761 8.90001 20.757 8.89901 20.752L8.83101 20.465C8.69901 19.905 9.12201 19.094 9.52001 18.506ZM7.06001 17.225C7.08701 16.845 7.48801 16.392 7.91601 16.034C7.97701 16.342 8.00901 16.657 7.87901 17.101C7.75801 17.513 7.44201 17.743 7.19801 17.866C7.14101 17.716 7.09701 17.561 7.04601 17.409L7.06001 17.225ZM6.58701 13.48C6.73201 13.128 7.25301 12.823 7.77301 12.616C7.73401 12.927 7.66801 13.237 7.40501 13.618C7.15601 13.981 6.77301 14.098 6.50201 14.135C6.50201 14.125 6.50001 14.116 6.50001 14.106C6.50001 13.952 6.51301 13.799 6.52001 13.645L6.58701 13.48ZM7.38901 9.96896C7.55901 9.78596 7.94901 9.69996 8.35301 9.67796C8.24901 9.85196 8.11301 10.022 7.87401 10.188C7.65001 10.343 7.40701 10.355 7.21201 10.33C7.25101 10.228 7.29301 10.127 7.33601 10.027L7.38901 9.96896ZM9.31801 6.28196C9.42001 6.05296 9.76001 5.84496 10.134 5.69096C10.093 5.88996 10.02 6.09396 9.84701 6.32996C9.65501 6.59496 9.36401 6.67996 9.15501 6.70496L9.31801 6.28196ZM6.96801 7.38196C6.94601 7.09096 6.99201 6.87896 7.06201 6.68696C7.29801 7.01596 7.47801 7.37196 7.44301 7.62096L7.42501 7.74896C7.37301 7.82696 7.32601 7.90796 7.27701 7.98696C7.13401 7.84996 6.98801 7.65496 6.96801 7.38196ZM4.92501 11.305C4.82101 10.854 4.87401 10.541 4.95201 10.238C5.35801 10.622 5.73001 11.097 5.73501 11.478L5.73801 11.718C5.73801 11.736 5.74801 11.751 5.75001 11.769C5.72201 11.902 5.68901 12.033 5.66601 12.167C5.42501 12.05 5.03701 11.793 4.92501 11.305ZM4.77501 15.805C4.57001 15.392 4.54601 15.077 4.55101 14.764C5.02201 15.035 5.50901 15.409 5.60501 15.781L5.66401 16.013C5.66801 16.028 5.67801 16.039 5.68301 16.053C5.70701 16.198 5.73701 16.34 5.76701 16.483C5.51701 16.439 5.01701 16.291 4.77501 15.805ZM6.02901 20.654C5.43801 20.299 5.20901 19.92 4.97201 19.519C5.67701 19.467 6.59401 19.505 7.01401 19.901L7.14501 20.024C7.28701 20.26 7.43601 20.491 7.59501 20.717C7.28601 20.842 6.63801 21.021 6.02901 20.654ZM9.65201 24.572C8.97401 24.445 8.62801 24.17 8.26501 23.877C8.91101 23.582 9.78101 23.298 10.312 23.523L10.584 23.638C10.593 23.642 10.603 23.64 10.612 23.644C10.753 23.739 10.882 23.846 11.029 23.935C11.083 23.968 11.149 23.993 11.206 24.026C10.999 24.229 10.416 24.717 9.65201 24.572ZM12.644 23.608L12.519 23.492C12.098 23.099 12 22.19 12.006 21.479C12.421 21.689 12.814 21.894 13.207 22.459C13.562 22.969 13.503 23.534 13.413 23.882C13.143 23.802 12.891 23.706 12.644 23.608ZM26.335 16.016L26.395 15.783C26.489 15.414 26.963 15.04 27.449 14.762C27.454 15.076 27.43 15.392 27.224 15.805C26.981 16.292 26.481 16.44 26.233 16.484C26.263 16.342 26.292 16.2 26.316 16.056C26.321 16.042 26.332 16.031 26.335 16.016ZM26.26 11.718L26.263 11.478C26.268 11.097 26.64 10.622 27.046 10.238C27.125 10.542 27.178 10.854 27.074 11.305C26.962 11.793 26.574 12.05 26.332 12.168C26.309 12.035 26.276 11.904 26.249 11.771C26.251 11.753 26.26 11.737 26.26 11.718ZM24.938 6.68796C25.007 6.87896 25.053 7.09096 25.032 7.38196C25.012 7.65596 24.867 7.85096 24.724 7.98696C24.674 7.90696 24.626 7.82696 24.574 7.74796L24.556 7.61996C24.522 7.37196 24.701 7.01596 24.938 6.68796ZM22.139 6.32996C21.967 6.09396 21.894 5.88996 21.853 5.68996C22.227 5.84396 22.568 6.05196 22.668 6.27996L22.83 6.70396C22.622 6.67996 22.331 6.59496 22.139 6.32996ZM24.126 10.188C23.887 10.021 23.751 9.85296 23.647 9.67896C24.05 9.70196 24.442 9.78696 24.611 9.96896L24.664 10.026C24.707 10.127 24.749 10.229 24.788 10.331C24.593 10.355 24.351 10.344 24.126 10.188ZM24.595 13.618C24.332 13.237 24.266 12.927 24.227 12.616C24.747 12.823 25.268 13.128 25.413 13.479L25.48 13.642C25.487 13.797 25.5 13.951 25.5 14.106C25.5 14.116 25.498 14.125 25.498 14.135C25.227 14.098 24.844 13.98 24.595 13.618ZM24.12 17.101C23.991 16.658 24.023 16.344 24.083 16.037C24.499 16.387 24.912 16.841 24.94 17.224L24.953 17.409C24.903 17.562 24.859 17.717 24.802 17.866C24.557 17.743 24.241 17.513 24.12 17.101ZM22.48 18.506C22.877 19.094 23.301 19.905 23.168 20.466L23.1 20.754C23.099 20.759 23.1 20.763 23.1 20.768C22.953 20.946 22.811 21.126 22.652 21.295C22.383 21.058 22.012 20.618 22.024 19.989C22.038 19.3 22.25 18.911 22.48 18.506ZM18.587 23.882C18.496 23.534 18.438 22.97 18.792 22.46C19.186 21.894 19.579 21.689 19.995 21.479C20.001 22.188 19.904 23.097 19.48 23.492L19.355 23.608C19.108 23.706 18.857 23.802 18.587 23.882ZM21.415 23.637L21.687 23.522C22.22 23.297 23.087 23.581 23.733 23.876C23.372 24.168 23.025 24.443 22.347 24.571C21.578 24.714 20.998 24.228 20.793 24.024C20.849 23.992 20.915 23.967 20.97 23.933C21.116 23.844 21.245 23.736 21.387 23.642C21.397 23.64 21.406 23.641 21.415 23.637ZM24.986 19.9C25.405 19.505 26.317 19.467 27.028 19.519C26.791 19.919 26.561 20.298 25.971 20.654C25.363 21.021 24.716 20.844 24.403 20.718C24.562 20.492 24.712 20.261 24.854 20.024L24.986 19.9Z" fill="#0D2B49"/>
<path d="M17.854 13.684H16.5V12.33C16.5 12.054 16.276 11.83 16 11.83C15.724 11.83 15.5 12.054 15.5 12.33V13.684H14.146C13.87 13.684 13.646 13.908 13.646 14.184C13.646 14.46 13.87 14.684 14.146 14.684H15.5V16.038C15.5 16.314 15.724 16.538 16 16.538C16.276 16.538 16.5 16.314 16.5 16.038V14.684H17.854C18.13 14.684 18.354 14.46 18.354 14.184C18.354 13.908 18.13 13.684 17.854 13.684Z" fill="#0D2B49"/>
</svg>
