<svg width="32" height="32" viewBox="0 0 32 32" fill="none" xmlns="http://www.w3.org/2000/svg">
<path d="M26.11 17.5021C26.116 17.5021 26.122 17.5021 26.129 17.5021C26.186 17.5001 27.529 17.4371 28.119 16.2521C28.474 15.5391 28.457 14.9751 28.444 14.5631C28.437 14.3731 28.432 14.2091 28.465 14.0741C28.508 13.8941 28.448 13.7051 28.31 13.5831C28.172 13.4611 27.974 13.4251 27.803 13.4901C27.687 13.5341 27.075 13.7801 26.495 14.1951C26.495 14.1661 26.501 14.1371 26.501 14.1081C26.501 13.8031 26.485 13.4991 26.461 13.1971C26.691 13.1221 27.781 12.7091 28.051 11.5291C28.229 10.7521 28.078 10.2081 27.968 9.81108C27.917 9.62708 27.873 9.46909 27.873 9.33109C27.872 9.14609 27.769 8.97709 27.606 8.89009C27.443 8.80409 27.246 8.81608 27.091 8.91908C26.974 8.99808 26.289 9.48009 25.791 10.1451C25.73 9.98009 25.66 9.81909 25.592 9.65609C25.582 9.61509 25.565 9.57808 25.545 9.54008C25.447 9.31409 25.34 9.09308 25.228 8.87408C25.554 8.62208 25.977 8.16508 26.031 7.45608C26.081 6.77409 25.885 6.33508 25.741 6.01408C25.677 5.87009 25.625 5.75608 25.609 5.65308C25.58 5.47008 25.453 5.31908 25.279 5.25808C25.104 5.19708 24.911 5.23908 24.775 5.36408C24.687 5.44508 24.173 5.93809 23.841 6.56409L23.664 6.06008L23.583 5.87608C23.135 4.86508 21.48 4.51609 21.293 4.48009C21.112 4.44509 20.925 4.51209 20.809 4.65609C20.693 4.80009 20.665 4.99608 20.738 5.16608C20.778 5.26108 20.796 5.38508 20.817 5.54208C20.864 5.89008 20.928 6.36609 21.331 6.91809C21.843 7.62109 22.63 7.71209 23.004 7.71209C23.124 7.71209 23.201 7.70309 23.213 7.70109C23.24 7.69809 23.257 7.67509 23.283 7.66809C23.544 8.00209 23.783 8.35108 24 8.71208C23.392 8.63508 22.828 8.70208 22.723 8.71608C22.54 8.74208 22.386 8.86709 22.324 9.04109C22.261 9.21409 22.299 9.40908 22.423 9.54608C22.492 9.62308 22.548 9.73409 22.619 9.87609C22.778 10.1891 22.996 10.6191 23.557 11.0091C23.923 11.2631 24.305 11.3421 24.637 11.3421C24.815 11.3421 24.969 11.3171 25.109 11.2871C25.176 11.5291 25.232 11.7741 25.282 12.0211C24.594 11.6191 23.833 11.4341 23.7 11.4051C23.514 11.3631 23.33 11.4271 23.211 11.5681C23.091 11.7091 23.058 11.9041 23.125 12.0761C23.176 12.2051 23.194 12.3681 23.215 12.5571C23.259 12.9671 23.32 13.5271 23.772 14.1841C24.251 14.8801 24.964 15.0781 25.435 15.1311C25.411 15.3801 25.377 15.6251 25.336 15.8691C24.799 15.2321 24.082 14.7901 23.961 14.7181C23.803 14.6241 23.605 14.6241 23.446 14.7201C23.287 14.8161 23.195 14.9911 23.206 15.1761C23.214 15.3151 23.18 15.4751 23.14 15.6611C23.054 16.0641 22.937 16.6161 23.161 17.3821C23.389 18.1581 23.965 18.5701 24.393 18.7771C24.291 18.9821 24.194 19.1881 24.079 19.3861C24.067 19.3981 24.061 19.4131 24.051 19.4261C23.718 18.3381 22.876 17.3571 22.747 17.2121C22.623 17.0741 22.435 17.0181 22.255 17.0591C22.075 17.1031 21.935 17.2431 21.89 17.4221C21.844 17.6021 21.741 17.7851 21.621 17.9961C21.364 18.4511 21.044 19.0171 21.025 19.9701C21.007 20.9271 21.514 21.5951 21.923 21.9791C21.594 22.2671 21.245 22.5341 20.877 22.7831C21.087 21.7781 20.958 20.7221 20.933 20.5491C20.907 20.3661 20.782 20.2121 20.608 20.1491C20.434 20.0871 20.24 20.1241 20.103 20.2481C19.965 20.3731 19.778 20.4671 19.562 20.5771C19.095 20.8131 18.515 21.1071 17.972 21.8891C17.382 22.7381 17.488 23.6421 17.636 24.1791C17.127 24.3431 16.572 24.5381 16.001 24.7611C15.43 24.5391 14.875 24.3431 14.366 24.1791C14.513 23.6421 14.619 22.7371 14.029 21.8881C13.486 21.1071 12.906 20.8131 12.439 20.5771C12.223 20.4671 12.036 20.3721 11.898 20.2481C11.761 20.1231 11.564 20.0861 11.393 20.1491C11.219 20.2121 11.094 20.3661 11.068 20.5491C11.043 20.7221 10.914 21.7781 11.125 22.7831C10.757 22.5341 10.408 22.2661 10.079 21.9791C10.489 21.5951 10.996 20.9261 10.977 19.9701C10.958 19.0171 10.639 18.4511 10.382 17.9951C10.263 17.7841 10.159 17.6021 10.113 17.4221C10.068 17.2431 9.92701 17.1031 9.74801 17.0591C9.56901 17.0181 9.38001 17.0741 9.25601 17.2121C9.12701 17.3571 8.28501 18.3371 7.95101 19.4261C7.94101 19.4131 7.93501 19.3981 7.92301 19.3861C7.80801 19.1881 7.71001 18.9821 7.60801 18.7771C8.03601 18.5701 8.61201 18.1591 8.83901 17.3831C9.06501 16.6171 8.94601 16.0651 8.86101 15.6611C8.82101 15.4751 8.78701 15.3141 8.79501 15.1761C8.80601 14.9911 8.71301 14.8171 8.55501 14.7201C8.39801 14.6241 8.20001 14.6241 8.04001 14.7181C7.91901 14.7901 7.20101 15.2331 6.66401 15.8701C6.62301 15.6261 6.58901 15.3811 6.56501 15.1321C7.03701 15.0791 7.75001 14.8801 8.22901 14.1851C8.68101 13.5281 8.74201 12.9671 8.78601 12.5571C8.80701 12.3681 8.82401 12.2051 8.87501 12.0761C8.94201 11.9041 8.90901 11.7091 8.78901 11.5681C8.66801 11.4281 8.48501 11.3641 8.30001 11.4061C8.16701 11.4361 7.40601 11.6211 6.71801 12.0231C6.76801 11.7761 6.82401 11.5311 6.89101 11.2891C7.03101 11.3191 7.18601 11.3441 7.36401 11.3441C7.69601 11.3441 8.07801 11.2651 8.44401 11.0111C9.00601 10.6211 9.22201 10.1921 9.38201 9.87908C9.45301 9.73808 9.51001 9.62608 9.57901 9.54908C9.70301 9.41008 9.74101 9.21608 9.67701 9.04208C9.61501 8.86808 9.46101 8.74308 9.27801 8.71708C9.17401 8.70308 8.60901 8.63708 8.00001 8.71309C8.21601 8.35309 8.45401 8.00608 8.71301 7.67308C8.73501 7.67909 8.75001 7.69909 8.77301 7.70209C8.78501 7.70409 8.86201 7.71308 8.98301 7.71308C9.35601 7.71308 10.143 7.62209 10.655 6.92009C11.058 6.36709 11.123 5.89008 11.17 5.54208C11.191 5.38508 11.208 5.26208 11.249 5.16708C11.32 4.99708 11.293 4.80109 11.177 4.65709C11.06 4.51309 10.875 4.44708 10.693 4.48108C10.505 4.51808 8.85201 4.86708 8.40401 5.87708L8.15701 6.55709C7.82501 5.93509 7.31401 5.44709 7.22601 5.36609C7.09001 5.23809 6.89701 5.19608 6.72201 5.25808C6.54801 5.31908 6.42101 5.47008 6.39201 5.65308C6.37601 5.75608 6.32501 5.86908 6.26001 6.01408C6.11601 6.33508 5.91901 6.77409 5.97001 7.45608C6.02201 8.16408 6.44601 8.62109 6.77201 8.87309C6.65901 9.09308 6.55201 9.31608 6.45401 9.54309C6.43501 9.57908 6.41901 9.61408 6.40901 9.65308C6.34101 9.81608 6.27001 9.97809 6.20901 10.1441C5.71201 9.47908 5.02601 8.99709 4.91001 8.91809C4.75601 8.81508 4.56001 8.80308 4.39601 8.88908C4.23201 8.97508 4.12901 9.14409 4.12801 9.32909C4.12701 9.46709 4.08301 9.62508 4.03401 9.80808C3.92401 10.2051 3.77301 10.7501 3.95101 11.5281C4.22101 12.7071 5.31001 13.1201 5.54001 13.1961C5.51601 13.4981 5.50001 13.8021 5.50001 14.1071C5.50001 14.1361 5.50501 14.1651 5.50601 14.1941C4.92601 13.7801 4.31401 13.5331 4.19901 13.4891C4.02701 13.4241 3.83201 13.4601 3.69301 13.5821C3.55401 13.7051 3.49401 13.8931 3.53701 14.0731C3.56801 14.2081 3.56301 14.3721 3.55801 14.5621C3.54401 14.9741 3.52601 15.5391 3.88201 16.2521C4.47401 17.4371 5.81701 17.5001 5.87301 17.5021C5.88001 17.5021 5.88601 17.5021 5.89201 17.5021C5.93701 17.5021 5.97801 17.4881 6.01901 17.4771C6.13401 17.8551 6.25801 18.2281 6.41001 18.5901C5.33701 18.3861 4.16601 18.6031 3.98401 18.6421C3.80301 18.6801 3.65801 18.8141 3.60601 18.9921C3.55501 19.1691 3.60501 19.3611 3.73801 19.4901C3.87201 19.6191 3.97801 19.8001 4.10101 20.0091C4.36701 20.4591 4.69801 21.0191 5.51401 21.5101C5.96301 21.7811 6.41701 21.8721 6.82501 21.8721C7.54401 21.8721 8.09201 21.6001 8.23301 21.5241C8.53101 21.8751 8.85101 22.2071 9.19301 22.5231C8.15301 22.7261 7.18601 23.3041 7.03401 23.4011C6.87601 23.4991 6.78801 23.6761 6.80001 23.8601C6.81401 24.0451 6.92801 24.2061 7.09701 24.2811C7.26701 24.3561 7.43001 24.4881 7.61801 24.6401C8.02401 24.9691 8.53001 25.3781 9.46601 25.5551C9.62801 25.5861 9.78401 25.5991 9.93501 25.5991C11.206 25.5991 12.024 24.6191 12.062 24.5731C12.086 24.5441 12.096 24.5101 12.113 24.4781C12.134 24.4871 12.158 24.4931 12.179 24.5011C12.213 24.5181 12.247 24.5301 12.283 24.5381C12.569 24.6521 12.857 24.7641 13.169 24.8551C13.537 24.9631 14.069 25.1291 14.659 25.3341C13.834 25.7271 13.075 26.1721 12.541 26.6601C12.337 26.8471 12.322 27.1621 12.509 27.3671C12.608 27.4751 12.742 27.5301 12.878 27.5301C12.998 27.5301 13.119 27.4871 13.215 27.4001C13.86 26.8121 14.931 26.2751 16.001 25.8371C17.071 26.2751 18.143 26.8111 18.788 27.4001C18.884 27.4871 19.005 27.5301 19.125 27.5301C19.261 27.5301 19.396 27.4751 19.494 27.3671C19.681 27.1631 19.666 26.8461 19.462 26.6601C18.927 26.1731 18.168 25.7271 17.343 25.3341C17.932 25.1301 18.464 24.9641 18.832 24.8561C19.144 24.7651 19.434 24.6521 19.72 24.5381C19.756 24.5301 19.788 24.5181 19.822 24.5021C19.843 24.4931 19.868 24.4871 19.889 24.4781C19.905 24.5101 19.915 24.5441 19.939 24.5731C19.977 24.6201 20.794 25.6001 22.066 25.6001C22.215 25.6001 22.373 25.5861 22.535 25.5561C23.472 25.3801 23.976 24.9701 24.383 24.6411C24.571 24.4891 24.734 24.3571 24.904 24.2821C25.073 24.2071 25.187 24.0451 25.201 23.8611C25.214 23.6761 25.125 23.5001 24.969 23.4021C24.817 23.3061 23.851 22.7271 22.812 22.5241C23.154 22.2091 23.473 21.8761 23.771 21.5251C23.912 21.6011 24.46 21.8731 25.179 21.8731C25.586 21.8731 26.04 21.7821 26.49 21.5111C27.305 21.0201 27.636 20.4601 27.903 20.0101C28.026 19.8011 28.132 19.6211 28.266 19.4911C28.399 19.3621 28.449 19.1711 28.398 18.9931C28.346 18.8151 28.201 18.6811 28.02 18.6431C27.837 18.6051 26.666 18.3871 25.594 18.5901C25.746 18.2281 25.87 17.8551 25.985 17.4771C26.024 17.4881 26.065 17.5021 26.11 17.5021ZM9.52001 18.5061C9.74901 18.9111 9.96201 19.2991 9.97501 19.9881C9.98701 20.6171 9.61701 21.0561 9.34701 21.2931C9.18801 21.1251 9.04601 20.9441 8.89901 20.7661C8.89801 20.7611 8.90001 20.7571 8.89901 20.7521L8.83101 20.4651C8.69901 19.9051 9.12201 19.0941 9.52001 18.5061ZM7.06001 17.2251C7.08701 16.8451 7.48801 16.3921 7.91601 16.0341C7.97701 16.3421 8.00901 16.6571 7.87901 17.1011C7.75801 17.5131 7.44201 17.7431 7.19801 17.8661C7.14101 17.7161 7.09701 17.5611 7.04601 17.4091L7.06001 17.2251ZM6.58701 13.4801C6.73201 13.1281 7.25301 12.8231 7.77301 12.6161C7.73401 12.9271 7.66801 13.2371 7.40501 13.6181C7.15601 13.9811 6.77301 14.0981 6.50201 14.1351C6.50201 14.1251 6.50001 14.1161 6.50001 14.1061C6.50001 13.9521 6.51301 13.7991 6.52001 13.6451L6.58701 13.4801ZM7.38901 9.96908C7.55901 9.78608 7.94901 9.70009 8.35301 9.67809C8.24901 9.85209 8.11301 10.0221 7.87401 10.1881C7.65001 10.3431 7.40701 10.3551 7.21201 10.3301C7.25101 10.2281 7.29301 10.1271 7.33601 10.0271L7.38901 9.96908ZM9.31801 6.28209C9.42001 6.05309 9.76001 5.84509 10.134 5.69108C10.093 5.89008 10.02 6.09408 9.84701 6.33008C9.65501 6.59508 9.36401 6.68008 9.15501 6.70509L9.31801 6.28209ZM6.96801 7.38209C6.94601 7.09108 6.99201 6.87908 7.06201 6.68708C7.29801 7.01608 7.47801 7.37208 7.44301 7.62108L7.42501 7.74909C7.37301 7.82709 7.32601 7.90809 7.27701 7.98709C7.13401 7.85009 6.98801 7.65509 6.96801 7.38209ZM4.92501 11.3051C4.82101 10.8541 4.87401 10.5411 4.95201 10.2381C5.35801 10.6221 5.73001 11.0971 5.73501 11.4781L5.73801 11.7181C5.73801 11.7361 5.74801 11.7511 5.75001 11.7691C5.72201 11.9021 5.68901 12.0331 5.66601 12.1671C5.42501 12.0501 5.03701 11.7931 4.92501 11.3051ZM4.77501 15.8051C4.57001 15.3921 4.54601 15.0771 4.55101 14.7641C5.02201 15.0351 5.50901 15.4091 5.60501 15.7811L5.66401 16.0131C5.66801 16.0281 5.67801 16.0391 5.68301 16.0531C5.70701 16.1981 5.73701 16.3401 5.76701 16.4831C5.51701 16.4391 5.01701 16.2911 4.77501 15.8051ZM6.02901 20.6541C5.43801 20.2991 5.20901 19.9201 4.97201 19.5191C5.67701 19.4671 6.59401 19.5051 7.01401 19.9011L7.14501 20.0241C7.28701 20.2601 7.43601 20.4911 7.59501 20.7171C7.28601 20.8421 6.63801 21.0211 6.02901 20.6541ZM9.65201 24.5721C8.97401 24.4451 8.62801 24.1701 8.26501 23.8771C8.91101 23.5821 9.78101 23.2981 10.312 23.5231L10.584 23.6381C10.593 23.6421 10.603 23.6401 10.612 23.6441C10.753 23.7391 10.882 23.8461 11.029 23.9351C11.083 23.9681 11.149 23.9931 11.206 24.0261C10.999 24.2291 10.416 24.7171 9.65201 24.5721ZM12.644 23.6081L12.519 23.4921C12.098 23.0991 12 22.1901 12.006 21.4791C12.421 21.6891 12.814 21.8941 13.207 22.4591C13.562 22.9691 13.503 23.5341 13.413 23.8821C13.143 23.8021 12.891 23.7061 12.644 23.6081ZM26.335 16.0161L26.395 15.7831C26.489 15.4141 26.963 15.0401 27.449 14.7621C27.454 15.0761 27.43 15.3921 27.224 15.8051C26.981 16.2921 26.481 16.4401 26.233 16.4841C26.263 16.3421 26.292 16.2001 26.316 16.0561C26.321 16.0421 26.332 16.0311 26.335 16.0161ZM26.26 11.7181L26.263 11.4781C26.268 11.0971 26.64 10.6221 27.046 10.2381C27.125 10.5421 27.178 10.8541 27.074 11.3051C26.962 11.7931 26.574 12.0501 26.332 12.1681C26.309 12.0351 26.276 11.9041 26.249 11.7711C26.251 11.7531 26.26 11.7371 26.26 11.7181ZM24.938 6.68809C25.007 6.87909 25.053 7.09108 25.032 7.38209C25.012 7.65609 24.867 7.85109 24.724 7.98709C24.674 7.90709 24.626 7.82709 24.574 7.74809L24.556 7.62009C24.522 7.37209 24.701 7.01609 24.938 6.68809ZM22.139 6.33008C21.967 6.09408 21.894 5.89009 21.853 5.69009C22.227 5.84409 22.568 6.05209 22.668 6.28009L22.83 6.70409C22.622 6.68009 22.331 6.59508 22.139 6.33008ZM24.126 10.1881C23.887 10.0211 23.751 9.85308 23.647 9.67908C24.05 9.70208 24.442 9.78708 24.611 9.96908L24.664 10.0261C24.707 10.1271 24.749 10.2291 24.788 10.3311C24.593 10.3551 24.351 10.3441 24.126 10.1881ZM24.595 13.6181C24.332 13.2371 24.266 12.9271 24.227 12.6161C24.747 12.8231 25.268 13.1281 25.413 13.4791L25.48 13.6421C25.487 13.7971 25.5 13.9511 25.5 14.1061C25.5 14.1161 25.498 14.1251 25.498 14.1351C25.227 14.0981 24.844 13.9801 24.595 13.6181ZM24.12 17.1011C23.991 16.6581 24.023 16.3441 24.083 16.0371C24.499 16.3871 24.912 16.8411 24.94 17.2241L24.953 17.4091C24.903 17.5621 24.859 17.7171 24.802 17.8661C24.557 17.7431 24.241 17.5131 24.12 17.1011ZM22.48 18.5061C22.877 19.0941 23.301 19.9051 23.168 20.4661L23.1 20.7541C23.099 20.7591 23.1 20.7631 23.1 20.7681C22.953 20.9461 22.811 21.1261 22.652 21.2951C22.383 21.0581 22.012 20.6181 22.024 19.9891C22.038 19.3001 22.25 18.9111 22.48 18.5061ZM18.587 23.8821C18.496 23.5341 18.438 22.9701 18.792 22.4601C19.186 21.8941 19.579 21.6891 19.995 21.4791C20.001 22.1881 19.904 23.0971 19.48 23.4921L19.355 23.6081C19.108 23.7061 18.857 23.8021 18.587 23.8821ZM21.415 23.6371L21.687 23.5221C22.22 23.2971 23.087 23.5811 23.733 23.8761C23.372 24.1681 23.025 24.4431 22.347 24.5711C21.578 24.7141 20.998 24.2281 20.793 24.0241C20.849 23.9921 20.915 23.9671 20.97 23.9331C21.116 23.8441 21.245 23.7361 21.387 23.6421C21.397 23.6401 21.406 23.6411 21.415 23.6371ZM24.986 19.9001C25.405 19.5051 26.317 19.4671 27.028 19.5191C26.791 19.9191 26.561 20.2981 25.971 20.6541C25.363 21.0211 24.716 20.8441 24.403 20.7181C24.562 20.4921 24.712 20.2611 24.854 20.0241L24.986 19.9001Z" fill="#0D2B49"/>
<path d="M17.854 13.6821H14.146C13.87 13.6821 13.646 13.9061 13.646 14.1821C13.646 14.4581 13.87 14.6821 14.146 14.6821H17.854C18.13 14.6821 18.354 14.4581 18.354 14.1821C18.354 13.9061 18.13 13.6821 17.854 13.6821Z" fill="#0D2B49"/>
</svg>
