<svg width="32" height="32" viewBox="0 0 32 32" fill="none" xmlns="http://www.w3.org/2000/svg">
<path d="M27.003 2.50303V18.793C26.743 18.463 26.403 18.183 26.003 17.943V3.31303L24.973 3.49303C24.833 3.56303 24.673 3.56303 24.533 3.49303L23.633 3.08303L22.733 3.49303C22.593 3.56303 22.443 3.56303 22.303 3.49303L21.453 3.08303L20.593 3.49303C20.453 3.56303 20.303 3.56303 20.173 3.50303L19.263 3.08303L18.403 3.49303C18.263 3.56303 18.113 3.56303 17.973 3.49303L17.083 3.08303L16.223 3.49303C16.093 3.56303 15.933 3.56303 15.803 3.49303L14.903 3.08303L14.043 3.49303C13.913 3.56303 13.763 3.56303 13.623 3.50303L12.693 3.08303L11.873 3.49303C11.743 3.56303 11.583 3.56303 11.443 3.50303L10.523 3.08303L9.64299 3.49303C9.50299 3.56303 9.35299 3.56303 9.21299 3.49303L8.36299 3.08303L7.47299 3.49303C7.33299 3.56303 7.18299 3.56303 7.05299 3.49303L6.00299 3.32303V29.003H21.373C21.373 29.013 21.373 29.013 21.383 29.023C21.453 29.373 21.603 29.703 21.823 30.003H5.50299C5.22299 30.003 5.00299 29.773 5.00299 29.503V2.53403C5.00299 2.46403 5.01299 2.38403 5.04299 2.32403C5.16299 2.07403 5.46299 1.96403 5.71299 2.08403L7.26299 2.49403L8.15299 2.08403C8.28299 2.01403 8.44299 2.01403 8.57299 2.08403L9.43299 2.49403L10.303 2.08403C10.443 2.01403 10.593 2.01403 10.723 2.07403L11.643 2.49403L12.463 2.08403C12.603 2.02403 12.753 2.01403 12.893 2.07403L13.823 2.49403L14.683 2.08403C14.813 2.01403 14.973 2.01403 15.103 2.08403L16.003 2.49403L16.863 2.08403C16.993 2.02403 17.153 2.01403 17.283 2.08403L18.183 2.49403L19.043 2.08403C19.173 2.02403 19.323 2.01403 19.463 2.07403L20.373 2.49403L21.243 2.08403C21.373 2.01403 21.533 2.01403 21.673 2.08403L22.523 2.49403L23.423 2.08403C23.553 2.02403 23.713 2.02403 23.843 2.08403L24.733 2.49403L26.273 2.05403C26.343 2.01403 26.423 2.00403 26.503 2.00403C26.773 2.00303 27.003 2.22403 27.003 2.50303Z" fill="#0D2B49"/>
<path d="M16.275 8.50003H10.004V9.50003H16.275V8.50003Z" fill="#0D2B49"/>
<path d="M21.996 8.50003H19.934V9.50003H21.996V8.50003Z" fill="#0D2B49"/>
<path d="M16.284 15.502H10.007V16.502H16.284V15.502Z" fill="#0D2B49"/>
<path d="M21.996 15.502H19.934V16.502H21.996V15.502Z" fill="#0D2B49"/>
<path d="M16.284 22.5H10.007V23.5H16.284V22.5Z" fill="#0D2B49"/>
<path d="M21.996 12H19.934V13H21.996V12Z" fill="#0D2B49"/>
<path d="M18.004 12.002H10.004V13.002H18.004V12.002Z" fill="#0D2B49"/>
<path d="M17.473 19.003C17.333 19.193 17.223 19.393 17.143 19.603L17.023 19.983V20.003H10.003V19.003H17.473Z" fill="#0D2B49"/>
<path d="M26.648 21.662V20.535C26.648 20.524 26.648 20.481 26.648 20.46C26.648 19.073 24.708 17.979 22.314 17.979C19.92 17.979 17.988 19.106 17.988 20.492C17.988 20.535 17.991 20.55 17.991 20.582L17.992 20.6L17.981 24.803C17.981 26.19 19.92 27.316 22.314 27.316V28.486C22.314 29.873 24.253 30.999 26.647 30.999C29.041 30.999 30.98 29.872 30.98 28.486V24.164C30.981 22.778 29.042 21.662 26.648 21.662ZM22.314 21.922C20.364 21.922 19.064 21.055 19.064 20.492C19.064 19.918 20.364 19.062 22.314 19.062C24.275 19.062 25.575 19.918 25.575 20.492C25.575 21.055 24.275 21.922 22.314 21.922ZM29.898 24.186C29.865 24.76 28.587 25.594 26.648 25.594C24.698 25.594 23.398 24.738 23.398 24.164C23.398 23.601 24.698 22.745 26.648 22.745C28.609 22.745 29.898 23.601 29.898 24.164C29.898 24.175 29.898 24.175 29.898 24.186Z" fill="#0D2B49"/>
</svg>
