<svg width="32" height="32" viewBox="0 0 32 32" fill="none" xmlns="http://www.w3.org/2000/svg">
<path d="M26 2H6C5.44775 2 5 2.44775 5 3V29C5 29.5522 5.44775 30 6 30H26C26.5523 30 27 29.5522 27 29V3C27 2.44775 26.5523 2 26 2ZM26 29H6V3H26V29ZM24 27V11H8V27H24ZM18 26H14V22H18V26ZM14 17H18V21H14V17ZM18 15.1377L16.7999 13.938L18 12.7383V15.1377ZM17.4481 16H14.7374L16.0928 14.645L17.4481 16ZM16.0928 13.231L14.8615 12H17.324L16.0928 13.231ZM15.3857 13.938L14 15.3232V12.5527L15.3857 13.938ZM23 26H19V22H23V26ZM23 21H19V17H23V21ZM19 12H23V16H19V12ZM9 12H13V16H9V12ZM9 17H13V21H9V17ZM9 26V22H13V26H9ZM24 9.5H8V8.5H24V9.5ZM15.0583 6.19922L14.1532 5.30615L15.4128 5.13086L15.9827 3.99414L16.5385 5.1377L17.7958 5.32861L16.8796 6.21045L17.0869 7.46533L15.9649 6.8667L14.8356 7.45117L15.0583 6.19922ZM10.8488 6.19922L9.9436 5.30615L11.2032 5.13086L11.7731 3.99414L12.3288 5.1377L13.5862 5.32861L12.67 6.21045L12.8772 7.46533L11.7552 6.8667L10.626 7.45117L10.8488 6.19922ZM19.2679 6.19922L18.3629 5.30615L19.6224 5.13086L20.1923 3.99414L20.748 5.1377L22.0054 5.32861L21.0892 6.21045L21.2964 7.46533L20.1745 6.8667L19.0452 7.45117L19.2679 6.19922Z" fill="#0D2B49"/>
</svg>
