<svg width="32" height="32" viewBox="0 0 32 32" fill="none" xmlns="http://www.w3.org/2000/svg">
<path d="M26.003 12.623V12.714L25.993 12.703L25.963 12.674L25.993 12.633L26.003 12.623Z" fill="#0D2B49"/>
<path d="M27 15.85L27.005 15.845L27 15.84V15.85Z" fill="#0D2B49"/>
<path d="M0.167977 12.711V12.628L0.125977 12.669L0.167977 12.711Z" fill="#0D2B49"/>
<path d="M1.16798 15.85L1.17298 15.845L1.16798 15.84V15.85Z" fill="#0D2B49"/>
<path d="M23.256 12.711V12.628L23.214 12.669L23.256 12.711Z" fill="#0D2B49"/>
<path d="M24.256 15.85L24.261 15.845L24.256 15.84V15.85Z" fill="#0D2B49"/>
<path d="M2.23798 12.604L2.25798 12.624V12.604H2.23798ZM2.23798 12.604L2.25798 12.624V12.604H2.23798Z" fill="#0D2B49"/>
<path d="M28.5 10.568V8.453H3.48998V23.547H28.51V11.528L28.5 10.568ZM4.48798 9.453H27.508V9.963L21.91 15.028L21.16 15.688L18.04 18.448C17.5 19.008 16.77 19.298 16 19.298C15.23 19.298 14.5 19.008 13.96 18.448L10.84 15.688L10.09 15.028L4.48798 9.963V9.453ZM9.42998 15.698L9.11998 15.998L4.48998 20.628V11.238L5.04998 11.738L6.06998 12.668L9.42998 15.698ZM27.51 22.538H27.5V22.548H4.49998L4.48998 22.547V22.038L5.99998 20.528L9.82998 16.708H9.83998L10.14 16.408L13.24 19.138L13.26 19.158C13.37 19.278 13.5 19.388 13.63 19.498C13.75 19.588 13.89 19.678 14.03 19.768C14.61 20.108 15.29 20.298 16 20.298C16.71 20.298 17.39 20.108 17.97 19.768C18.11 19.678 18.25 19.588 18.37 19.498C18.51 19.378 18.64 19.268 18.76 19.138L21.86 16.408L22.16 16.708L25.06 19.598L26 20.528L27.51 22.038V22.538ZM27.51 20.628L22.88 15.998L22.57 15.698L25.93 12.668L26.95 11.738L27.51 11.238V20.628Z" fill="#0D2B49"/>
</svg>
