<svg width="32" height="32" viewBox="0 0 32 32" fill="none" xmlns="http://www.w3.org/2000/svg">
<path d="M27.5 27.5V9.5H21.5V19.8901C21.17 19.5601 20.79 19.2798 20.39 19.0898L21.12 17.2798C21.19 17.1201 21.17 16.9502 21.07 16.8101C20.98 16.6699 20.83 16.5898 20.66 16.5898H19V12H13V14H4.5V27.5H3.5V28.5H28.5V27.5H27.5ZM19.92 17.5898L19.44 18.79H17.92L17.44 17.5898H19.92ZM14 13H18V16.5898H16.7C16.53 16.5898 16.38 16.6699 16.29 16.8101C16.19 16.9502 16.17 17.1201 16.24 17.2798L16.7 18.4302C16.11 17.7197 15.4 17.1499 14.61 16.8198L15.46 14.6899C15.53 14.5298 15.51 14.3599 15.41 14.2197C15.32 14.0801 15.17 14 15 14H14V13ZM14.26 15L13.66 16.5H11.84L11.24 15H14.26ZM10.5 15.8398L10.89 16.8198C10.76 16.8799 10.63 16.9399 10.5 17.0098V15.8398ZM5.5 27.5V15H9.5V17.71C7.96997 19.0498 7 21.2798 7 23.0298C7 24.9902 7.83002 26.5601 9.22998 27.5H5.5ZM14 27.3799C13.69 27.4399 13.35 27.48 13 27.4902C12.92 27.5 12.84 27.5 12.75 27.5C11.9 27.5 11.15 27.3501 10.5 27.0601C10.13 26.9102 9.79999 26.71 9.5 26.46C8.53998 25.6802 8 24.5 8 23.0298C8 21.7998 8.58002 20.2798 9.5 19.1499C9.79999 18.7798 10.13 18.4502 10.5 18.1899C10.8 17.96 11.12 17.79 11.45 17.6699H14.05C14.92 17.98 15.69 18.6699 16.29 19.52C14.9 20.5698 14 22.52 14 24.04C14 25.2402 14.38 26.2598 15.07 27.0298C14.74 27.1802 14.39 27.2998 14 27.3799ZM21.5 26.4102C20.92 27.04 20.06 27.4302 19 27.48C18.9 27.5 18.79 27.5 18.68 27.5C18.44 27.5 18.22 27.48 18 27.4502C17.56 27.3999 17.15 27.27 16.79 27.1001C16.63 27.02 16.47 26.9302 16.33 26.8198C16.19 26.73 16.06 26.6201 15.95 26.5C15.34 25.9102 15 25.0601 15 24.04C15 22.8198 15.72 21.2402 16.8 20.3799V20.3701C16.93 20.27 17.07 20.1699 17.21 20.0898C17.35 20 17.5 19.9302 17.65 19.8701H19.7C20.41 20.1299 21.04 20.73 21.5 21.4399C22.04 22.2598 22.36 23.23 22.36 24.04C22.36 25.0098 22.05 25.8198 21.5 26.4102ZM26.5 27.5H22.5V26.7798C23.05 26.0498 23.36 25.1201 23.36 24.04C23.36 23.1499 23.05 22.1001 22.5 21.1699V10.5H26.5V27.5ZM27.5 2.5V5.5H26.5V3.68359L19.3408 10.3652C19.1689 10.5264 18.9072 10.5439 18.7129 10.4092L14.042 7.13965L8.33789 12.3682C8.24609 12.4531 8.125 12.5 8 12.5H4.5V11.5H7.80566L13.6621 6.13184C13.834 5.97266 14.0937 5.95605 14.2871 6.09082L18.9551 9.3584L25.7678 3H24V2H27C27.2764 2 27.5 2.22363 27.5 2.5Z" fill="#0D2B49"/>
</svg>
