<svg width="32" height="32" viewBox="0 0 32 32" fill="none" xmlns="http://www.w3.org/2000/svg">
<path d="M4.5 27.5V9.5H10.5V19.8901C10.83 19.5601 11.21 19.2798 11.61 19.0898L10.88 17.2798C10.81 17.1201 10.83 16.9502 10.93 16.8101C11.02 16.6699 11.17 16.5898 11.34 16.5898H13V12H19V14H27.5V27.5H28.5V28.5H3.5V27.5H4.5ZM12.08 17.5898L12.56 18.79H14.08L14.56 17.5898H12.08ZM18 13H14V16.5898H15.3C15.47 16.5898 15.62 16.6699 15.71 16.8101C15.81 16.9502 15.83 17.1201 15.76 17.2798L15.3 18.4302C15.89 17.7197 16.6 17.1499 17.39 16.8198L16.54 14.6899C16.47 14.5298 16.49 14.3599 16.59 14.2197C16.68 14.0801 16.83 14 17 14H18V13ZM17.74 15L18.34 16.5H20.16L20.76 15H17.74ZM21.5 15.8398L21.11 16.8198C21.24 16.8799 21.37 16.9399 21.5 17.0098V15.8398ZM26.5 27.5V15H22.5V17.71C24.03 19.0498 25 21.2798 25 23.0298C25 24.9902 24.17 26.5601 22.77 27.5H26.5ZM18 27.3799C18.31 27.4399 18.65 27.48 19 27.4902C19.08 27.5 19.16 27.5 19.25 27.5C20.1 27.5 20.85 27.3501 21.5 27.0601C21.87 26.9102 22.2 26.71 22.5 26.46C23.46 25.6802 24 24.5 24 23.0298C24 21.7998 23.42 20.2798 22.5 19.1499C22.2 18.7798 21.87 18.4502 21.5 18.1899C21.2 17.96 20.88 17.79 20.55 17.6699H17.95C17.08 17.98 16.31 18.6699 15.71 19.52C17.1 20.5698 18 22.52 18 24.04C18 25.2402 17.62 26.2598 16.93 27.0298C17.26 27.1802 17.61 27.2998 18 27.3799ZM10.5 26.4102C11.08 27.04 11.94 27.4302 13 27.48C13.1 27.5 13.21 27.5 13.32 27.5C13.56 27.5 13.78 27.48 14 27.4502C14.44 27.3999 14.85 27.27 15.21 27.1001C15.37 27.02 15.53 26.9302 15.67 26.8198C15.81 26.73 15.94 26.6201 16.05 26.5C16.66 25.9102 17 25.0601 17 24.04C17 22.8198 16.28 21.2402 15.2 20.3799V20.3701C15.07 20.27 14.93 20.1699 14.79 20.0898C14.65 20 14.5 19.9302 14.35 19.8701H12.3C11.59 20.1299 10.96 20.73 10.5 21.4399C9.96003 22.2598 9.64 23.23 9.64 24.04C9.64 25.0098 9.95 25.8198 10.5 26.4102ZM5.5 27.5H9.5V26.7798C8.95 26.0498 8.64 25.1201 8.64 24.04C8.64 23.1499 8.95 22.1001 9.5 21.1699V10.5H5.5V27.5Z" fill="#0D2B49"/>
<path d="M27.5 9V12C27.5 12.2764 27.2764 12.5 27 12.5H24V11.5H25.7678L18.9551 5.1416L14.2871 8.40917C14.0937 8.54393 13.834 8.52733 13.6621 8.36817L7.80567 3H4.5V2H8C8.125 2 8.2461 2.04688 8.3379 2.13184L14.042 7.36037L18.7129 4.09083C18.9072 3.95607 19.1689 3.97363 19.3408 4.13477L26.5 10.8164V9H27.5Z" fill="#0D2B49"/>
</svg>
