<svg width="32" height="32" viewBox="0 0 32 32" fill="none" xmlns="http://www.w3.org/2000/svg">
<path d="M18.71 5.29004L19.5 4.5L18 2H14L12.5 4.5L13.29 5.29004C7.69 6.52978 3.5 11.5298 3.5 17.5C3.5 24.3999 9.09998 30 16 30C22.9 30 28.5 24.3999 28.5 17.5C28.5 11.5298 24.31 6.52978 18.71 5.29004ZM14.57 3H17.43L18.24 4.3501L17.5 5.08984L16.59 6.00977H16.58L16 6.58984L15.42 6.00977H15.41L14.5 5.08984L13.76 4.3501L14.57 3ZM25.5 17.5C25.5 22.7402 21.24 27 16 27C10.76 27 6.5 22.7402 6.5 17.5C6.5 12.2598 10.76 8 16 8C21.24 8 25.5 12.2598 25.5 17.5ZM16 29C9.65997 29 4.5 23.8398 4.5 17.5C4.5 11.79 8.69 7.04004 14.15 6.1499L15.04 7.04004C9.70001 7.52979 5.5 12.0298 5.5 17.5C5.5 23.29 10.21 28 16 28C21.79 28 26.5 23.29 26.5 17.5C26.5 12.0298 22.3 7.52978 16.96 7.04004L17.85 6.1499C23.31 7.04004 27.5 11.79 27.5 17.5C27.5 23.8398 22.34 29 16 29Z" fill="#0D2B49"/>
</svg>
