<svg width="32" height="32" viewBox="0 0 32 32" fill="none" xmlns="http://www.w3.org/2000/svg">
<path d="M15.5 7.5V5.5C15.5 5.22363 15.7236 5 16 5C16.2764 5 16.5 5.22363 16.5 5.5V7.5C16.5 7.77637 16.2764 8 16 8C15.7236 8 15.5 7.77637 15.5 7.5ZM22.5 12.4141C22.6279 12.4141 22.7559 12.3652 22.8535 12.2676L24.2676 10.8535C24.4629 10.6582 24.4629 10.3418 24.2676 10.1465C24.0723 9.95117 23.7559 9.95117 23.5605 10.1465L22.1465 11.5605C21.9512 11.7559 21.9512 12.0723 22.1465 12.2676C22.2441 12.3652 22.3721 12.4141 22.5 12.4141ZM20.252 9.43457C20.3301 9.47852 20.415 9.5 20.5 9.5C20.6729 9.5 20.8418 9.40918 20.9346 9.24805L21.9268 7.51172C22.0635 7.27246 21.9805 6.9668 21.7402 6.8291C21.502 6.69531 21.1953 6.77539 21.0576 7.01562L20.0654 8.75195C19.9287 8.99121 20.0117 9.29687 20.252 9.43457ZM30 26V27H2V26H2.66144L4.53564 21.3145C4.61182 21.124 4.79541 21 5 21H7.16144L9.03565 16.3145C9.11182 16.124 9.29541 16 9.5 16H11.4114L13.2856 11.3145C13.3618 11.124 13.5454 11 13.75 11H18.25C18.4541 11 18.6387 11.124 18.7139 11.3145L20.5881 16H22.5C22.7041 16 22.8887 16.124 22.9639 16.3145L24.8381 21H27C27.2041 21 27.3887 21.124 27.4639 21.3145L29.3381 26H30ZM18.3389 17L16.7383 21H23.7617L22.1611 17H18.3389ZM17.2618 17H14.7386L16.0001 20.1538L17.2618 17ZM12.4883 16H19.5117L17.9111 12H14.0884L12.4883 16ZM8.23828 21H15.2617L13.6616 17H9.83838L8.23828 21ZM10.7617 26L9.16162 22H5.33838L3.73828 26H10.7617ZM13.0114 22H10.2386L11.625 25.4658L13.0114 22ZM19.5117 26L17.9111 22H14.0884L12.4883 26H19.5117ZM21.7619 22H18.9881L20.375 25.4673L21.7619 22ZM28.2617 26L26.6611 22H22.8389L21.2383 26H28.2617ZM9.14649 12.2676C9.24414 12.3652 9.37207 12.4141 9.5 12.4141C9.62793 12.4141 9.75586 12.3652 9.85352 12.2676C10.0488 12.0723 10.0488 11.7559 9.85352 11.5605L8.43945 10.1465C8.24414 9.95117 7.92773 9.95117 7.73242 10.1465C7.53711 10.3418 7.53711 10.6582 7.73242 10.8535L9.14649 12.2676ZM11.5659 9.24805C11.6582 9.40918 11.8267 9.5 12.0005 9.5C12.0845 9.5 12.1699 9.47852 12.248 9.43457C12.4878 9.29687 12.5713 8.99121 12.4341 8.75195L11.4419 7.01562C11.3042 6.77637 10.999 6.69336 10.7598 6.8291C10.52 6.9668 10.4365 7.27246 10.5737 7.51172L11.5659 9.24805Z" fill="#0D2B49"/>
</svg>
