<svg width="32" height="32" viewBox="0 0 32 32" fill="none" xmlns="http://www.w3.org/2000/svg">
<path d="M25.75 18.5C25.5104 18.5 25.2795 18.5322 25.0507 18.5703L24.1645 15.9121C24.4829 16.166 24.881 16.3242 25.32 16.3242H26.5619V12.5986H25.32C24.4545 12.5986 23.7335 13.1919 23.5243 13.9917L22.8603 12H20V13H22.1396L22.9602 15.4619L21.9287 13.7432L21.3248 14.105C21.309 14.0806 21.2991 14.0518 21.2822 14.0283C21.0361 13.6875 20.71 13.5 20.3652 13.5L14.9381 15H10.3721C10.0195 15 9.67187 14.9434 9.33789 14.8311L6.87402 14.0078C6.61035 13.9189 6.31738 13.9473 6.07324 14.0811C5.8291 14.2158 5.65137 14.4482 5.58496 14.7197L5.25415 16.082C3.86871 16.3584 2.72699 17.0649 2.14648 17.6465L2.85352 18.3535C3.43677 17.7695 4.80206 17 6.37274 16.9795L9.18359 17.9116L10.8959 20.1943L9.57159 20.1284C8.79321 19.1436 7.60248 18.5 6.25 18.5C3.90283 18.5 2 20.4028 2 22.75C2 25.0972 3.90283 27 6.25 27C8.57129 27 10.451 25.1372 10.4924 22.8257L12.7833 22.7109L13.75 24H18.667C19.6787 24 20.585 23.3965 20.9746 22.4619L22.9549 17.7085L23.4075 16.8037L24.0859 18.8394C22.566 19.4868 21.5 20.9937 21.5 22.75C21.5 25.0972 23.4028 27 25.75 27C28.0972 27 30 25.0972 30 22.75C30 20.4028 28.0972 18.5 25.75 18.5ZM25.32 13.5986H25.5619V15.3242H25.32C24.8442 15.3242 24.4572 14.937 24.4572 14.4614C24.4572 13.9858 24.8442 13.5986 25.32 13.5986ZM22.1907 17H21.1938L21.6092 15.7544L21.8865 15.6157L22.4297 16.5215L22.1907 17ZM20.3828 14.5137C20.54 14.6221 20.7549 15.1533 20.667 15.418L20.1396 17H15.5V15.8789L20.3828 14.5137ZM12.9744 21.2993L15.9899 21.4502L15.9965 21.5034L13.2422 21.6562L12.9744 21.2993ZM13.2482 20.312L15.23 18H15.5586L15.864 20.4429L13.2482 20.312ZM6.55762 14.957L9.02051 15.7793C9.45703 15.9258 9.91211 16 10.3721 16H14.5V17H9.67041C8.60919 16.2676 7.52063 15.9805 6.50085 15.9692L6.32519 15.9111L6.55762 14.957ZM13.9128 18L12.0927 20.1235L10.5 18H13.9128ZM7.5 21.0254L9.03552 21.102C9.17737 21.3408 9.28668 21.5986 9.36395 21.8711L7.5 21.9746V21.0254ZM6.25 26C4.45795 26 3 24.542 3 22.75C3 20.958 4.45795 19.5 6.25 19.5C6.91968 19.5 7.54236 19.7041 8.06006 20.0527L7.02539 20.001C6.99261 19.9966 6.9621 20.0093 6.93018 20.0137C6.91302 20.0161 6.89587 20.0103 6.87891 20.0146L6.83069 20.0269L6.82562 20.0278L4.87891 20.5146C4.65625 20.5703 4.5 20.7705 4.5 21V22C4.5 22.2295 4.65625 22.4297 4.87891 22.4854L6.87891 22.9854C6.91894 22.9951 6.95996 23 7 23C7.00879 23 7.0166 23 7.02539 22.999L9.48724 22.876C9.41937 24.6084 7.9989 26 6.25 26ZM5.5 21.6094V21.3906L6.5 21.1406V21.8594L5.5 21.6094ZM10.3891 21.8145C10.3383 21.5889 10.2709 21.3701 10.1859 21.1597L11.6757 21.2344L12.0421 21.7227L10.3891 21.8145ZM13.9882 22.6509L17.0254 22.499C17.291 22.4863 17.5 22.2666 17.5 22V21C17.5 20.7334 17.291 20.5137 17.0254 20.501L16.8781 20.4937L16.5664 18H18.4098L17.5765 23H14.25L13.9882 22.6509ZM20.0508 22.0771C19.8174 22.6377 19.2744 23 18.667 23H18.5901L19.4235 18H21.75L20.0508 22.0771ZM25.75 26C23.9579 26 22.5 24.542 22.5 22.75C22.5 21.4385 23.2847 20.3125 24.4059 19.7993L25.5254 23.1582L26.4746 22.8418L25.3733 19.5381C25.4984 19.5234 25.621 19.5 25.75 19.5C27.5421 19.5 29 20.958 29 22.75C29 24.542 27.5421 26 25.75 26Z" fill="#0D2B49"/>
</svg>
