<svg width="32" height="32" viewBox="0 0 32 32" fill="none" xmlns="http://www.w3.org/2000/svg">
<path d="M9 14.5V23H17V14.5H9ZM16 22H10V15.5H16V22ZM9 24V25H26V24H9ZM18 19.5V20.5H24V19.5H18ZM18 17V18H26V17H18ZM18 14.5V15.5H26V14.5H18ZM25.5 8H23.5V7H25.5C25.78 7 26 6.77979 26 6.5C26 6.21973 25.78 6 25.5 6H23C22.72 6 22.5 6.21973 22.5 6.5V8.5C22.5 8.77979 22.72 9 23 9H25V10.5H23C22.72 10.5 22.5 10.7197 22.5 11C22.5 11.2798 22.72 11.5 23 11.5H25.5C25.78 11.5 26 11.2798 26 11V8.5C26 8.21973 25.78 8 25.5 8ZM16.5 10.5H14.5V9H16C16.28 9 16.5 8.77979 16.5 8.5C16.5 8.21973 16.28 8 16 8H14.5V7H16.5C16.78 7 17 6.77979 17 6.5C17 6.21973 16.78 6 16.5 6H14C13.72 6 13.5 6.21973 13.5 6.5V11C13.5 11.2798 13.72 11.5 14 11.5H16.5C16.78 11.5 17 11.2798 17 11C17 10.7197 16.78 10.5 16.5 10.5ZM21.25 6C20.97 6 20.75 6.21973 20.75 6.5V9.2002L20.18 8.24023C20 7.93994 19.5 7.93994 19.32 8.24023L18.75 9.2002V6.5C18.75 6.21973 18.53 6 18.25 6C17.97 6 17.75 6.21973 17.75 6.5V11C17.75 11.2197 17.9 11.4199 18.12 11.48C18.34 11.54 18.56 11.4502 18.68 11.2598L19.75 9.46973L20.82 11.2598C20.91 11.4102 21.08 11.5 21.25 11.5C21.29 11.5 21.34 11.4902 21.38 11.48C21.6 11.4199 21.75 11.2197 21.75 11V6.5C21.75 6.21973 21.53 6 21.25 6ZM12 5.99023C11.72 5.99023 11.5 6.20996 11.5 6.49023V9.06006L9.94 6.24023C9.83002 6.04004 9.59998 5.9502 9.37 6C9.15002 6.06006 9 6.25977 9 6.49023V10.9902C9 11.2598 9.21997 11.4902 9.5 11.4902C9.78003 11.4902 10 11.2598 10 10.9902V8.41992L11.56 11.23C11.65 11.3901 11.82 11.4902 12 11.4902C12.04 11.4902 12.08 11.48 12.13 11.4697C12.35 11.4102 12.5 11.21 12.5 10.9902V6.49023C12.5 6.20996 12.28 5.99023 12 5.99023ZM9 14.5V23H17V14.5H9ZM16 22H10V15.5H16V22ZM12 5.99023C11.72 5.99023 11.5 6.20996 11.5 6.49023V9.06006L9.94 6.24023C9.83002 6.04004 9.59998 5.9502 9.37 6C9.15002 6.06006 9 6.25977 9 6.49023V10.9902C9 11.2598 9.21997 11.4902 9.5 11.4902C9.78003 11.4902 10 11.2598 10 10.9902V8.41992L11.56 11.23C11.65 11.3901 11.82 11.4902 12 11.4902C12.04 11.4902 12.08 11.48 12.13 11.4697C12.35 11.4102 12.5 11.21 12.5 10.9902V6.49023C12.5 6.20996 12.28 5.99023 12 5.99023ZM16.5 10.5H14.5V9H16C16.28 9 16.5 8.77979 16.5 8.5C16.5 8.21973 16.28 8 16 8H14.5V7H16.5C16.78 7 17 6.77979 17 6.5C17 6.21973 16.78 6 16.5 6H14C13.72 6 13.5 6.21973 13.5 6.5V11C13.5 11.2798 13.72 11.5 14 11.5H16.5C16.78 11.5 17 11.2798 17 11C17 10.7197 16.78 10.5 16.5 10.5ZM9 14.5V23H17V14.5H9ZM16 22H10V15.5H16V22ZM21.25 6C20.97 6 20.75 6.21973 20.75 6.5V9.2002L20.18 8.24023C20 7.93994 19.5 7.93994 19.32 8.24023L18.75 9.2002V6.5C18.75 6.21973 18.53 6 18.25 6C17.97 6 17.75 6.21973 17.75 6.5V11C17.75 11.2197 17.9 11.4199 18.12 11.48C18.34 11.54 18.56 11.4502 18.68 11.2598L19.75 9.46973L20.82 11.2598C20.91 11.4102 21.08 11.5 21.25 11.5C21.29 11.5 21.34 11.4902 21.38 11.48C21.6 11.4199 21.75 11.2197 21.75 11V6.5C21.75 6.21973 21.53 6 21.25 6ZM18 19.5V20.5H24V19.5H18ZM25.5 8H23.5V7H25.5C25.78 7 26 6.77979 26 6.5C26 6.21973 25.78 6 25.5 6H23C22.72 6 22.5 6.21973 22.5 6.5V8.5C22.5 8.77979 22.72 9 23 9H25V10.5H23C22.72 10.5 22.5 10.7197 22.5 11C22.5 11.2798 22.72 11.5 23 11.5H25.5C25.78 11.5 26 11.2798 26 11V8.5C26 8.21973 25.78 8 25.5 8ZM18 14.5V15.5H26V14.5H18ZM18 17V18H26V17H18ZM9 24V25H26V24H9ZM9 14.5V23H17V14.5H9ZM16 22H10V15.5H16V22ZM12 5.99023C11.72 5.99023 11.5 6.20996 11.5 6.49023V9.06006L9.94 6.24023C9.83002 6.04004 9.59998 5.9502 9.37 6C9.15002 6.06006 9 6.25977 9 6.49023V10.9902C9 11.2598 9.21997 11.4902 9.5 11.4902C9.78003 11.4902 10 11.2598 10 10.9902V8.41992L11.56 11.23C11.65 11.3901 11.82 11.4902 12 11.4902C12.04 11.4902 12.08 11.48 12.13 11.4697C12.35 11.4102 12.5 11.21 12.5 10.9902V6.49023C12.5 6.20996 12.28 5.99023 12 5.99023ZM16.5 10.5H14.5V9H16C16.28 9 16.5 8.77979 16.5 8.5C16.5 8.21973 16.28 8 16 8H14.5V7H16.5C16.78 7 17 6.77979 17 6.5C17 6.21973 16.78 6 16.5 6H14C13.72 6 13.5 6.21973 13.5 6.5V11C13.5 11.2798 13.72 11.5 14 11.5H16.5C16.78 11.5 17 11.2798 17 11C17 10.7197 16.78 10.5 16.5 10.5ZM9 14.5V23H17V14.5H9ZM16 22H10V15.5H16V22ZM21.25 6C20.97 6 20.75 6.21973 20.75 6.5V9.2002L20.18 8.24023C20 7.93994 19.5 7.93994 19.32 8.24023L18.75 9.2002V6.5C18.75 6.21973 18.53 6 18.25 6C17.97 6 17.75 6.21973 17.75 6.5V11C17.75 11.2197 17.9 11.4199 18.12 11.48C18.34 11.54 18.56 11.4502 18.68 11.2598L19.75 9.46973L20.82 11.2598C20.91 11.4102 21.08 11.5 21.25 11.5C21.29 11.5 21.34 11.4902 21.38 11.48C21.6 11.4199 21.75 11.2197 21.75 11V6.5C21.75 6.21973 21.53 6 21.25 6ZM18 19.5V20.5H24V19.5H18ZM25.5 8H23.5V7H25.5C25.78 7 26 6.77979 26 6.5C26 6.21973 25.78 6 25.5 6H23C22.72 6 22.5 6.21973 22.5 6.5V8.5C22.5 8.77979 22.72 9 23 9H25V10.5H23C22.72 10.5 22.5 10.7197 22.5 11C22.5 11.2798 22.72 11.5 23 11.5H25.5C25.78 11.5 26 11.2798 26 11V8.5C26 8.21973 25.78 8 25.5 8ZM18 14.5V15.5H26V14.5H18ZM18 17V18H26V17H18ZM9 24V25H26V24H9ZM9 25H26V24H9V25ZM18 18H26V17H18V18ZM18 15.5H26V14.5H18V15.5ZM25.5 8H23.5V7H25.5C25.78 7 26 6.77979 26 6.5C26 6.21973 25.78 6 25.5 6H23C22.72 6 22.5 6.21973 22.5 6.5V8.5C22.5 8.77979 22.72 9 23 9H25V10.5H23C22.72 10.5 22.5 10.7197 22.5 11C22.5 11.2798 22.72 11.5 23 11.5H25.5C25.78 11.5 26 11.2798 26 11V8.5C26 8.21973 25.78 8 25.5 8ZM24 19.5H18V20.5H24V19.5ZM18.12 11.48C18.34 11.54 18.56 11.4502 18.68 11.2598L19.75 9.46973L20.82 11.2598C20.91 11.4102 21.08 11.5 21.25 11.5C21.29 11.5 21.34 11.4902 21.38 11.48C21.6 11.4199 21.75 11.2197 21.75 11V6.5C21.75 6.21973 21.53 6 21.25 6C20.97 6 20.75 6.21973 20.75 6.5V9.2002L20.18 8.24023C20 7.93994 19.5 7.93994 19.32 8.24023L18.75 9.2002V6.5C18.75 6.21973 18.53 6 18.25 6C17.97 6 17.75 6.21973 17.75 6.5V11C17.75 11.2197 17.9 11.4199 18.12 11.48ZM17 14.5H9V23H17V14.5ZM16 22H10V15.5H16V22ZM14 11.5H16.5C16.78 11.5 17 11.2798 17 11C17 10.7197 16.78 10.5 16.5 10.5H14.5V9H16C16.28 9 16.5 8.77979 16.5 8.5C16.5 8.21973 16.28 8 16 8H14.5V7H16.5C16.78 7 17 6.77979 17 6.5C17 6.21973 16.78 6 16.5 6H14C13.72 6 13.5 6.21973 13.5 6.5V11C13.5 11.2798 13.72 11.5 14 11.5ZM9.5 11.4902C9.78003 11.4902 10 11.2598 10 10.9902V8.41992L11.56 11.23C11.65 11.3901 11.82 11.4902 12 11.4902C12.04 11.4902 12.08 11.48 12.13 11.4697C12.35 11.4102 12.5 11.21 12.5 10.9902V6.49023C12.5 6.20996 12.28 5.99023 12 5.99023C11.72 5.99023 11.5 6.20996 11.5 6.49023V9.06006L9.94 6.24023C9.83002 6.04004 9.59998 5.9502 9.37 6C9.15002 6.06006 9 6.25977 9 6.49023V10.9902C9 11.2598 9.21997 11.4902 9.5 11.4902ZM6 2.5V5H3V26.5C3 27.6001 3.90002 28.5 5 28.5C5.37 28.5 6 28.5 6 28.5H26.03C27.67 28.5 29 27.1699 29 25.5298V2.5H6ZM6 26.5C6 27.0498 5.54999 27.5 5 27.5C4.45001 27.5 4 27.0498 4 26.5V6H6V26.5ZM28 25.5298C28 26.6201 27.12 27.5 26.03 27.5H7V3.5H28V25.5298ZM26 24H9V25H26V24ZM18 18H26V17H18V18ZM18 15.5H26V14.5H18V15.5ZM23 10.5C22.72 10.5 22.5 10.7197 22.5 11C22.5 11.2798 22.72 11.5 23 11.5H25.5C25.78 11.5 26 11.2798 26 11V8.5C26 8.21973 25.78 8 25.5 8H23.5V7H25.5C25.78 7 26 6.77979 26 6.5C26 6.21973 25.78 6 25.5 6H23C22.72 6 22.5 6.21973 22.5 6.5V8.5C22.5 8.77979 22.72 9 23 9H25V10.5H23ZM18 20.5H24V19.5H18V20.5ZM18.12 11.48C18.34 11.54 18.56 11.4502 18.68 11.2598L19.75 9.46973L20.82 11.2598C20.91 11.4102 21.08 11.5 21.25 11.5C21.29 11.5 21.34 11.4902 21.38 11.48C21.6 11.4199 21.75 11.2197 21.75 11V6.5C21.75 6.21973 21.53 6 21.25 6C20.97 6 20.75 6.21973 20.75 6.5V9.2002L20.18 8.24023C20 7.93994 19.5 7.93994 19.32 8.24023L18.75 9.2002V6.5C18.75 6.21973 18.53 6 18.25 6C17.97 6 17.75 6.21973 17.75 6.5V11C17.75 11.2197 17.9 11.4199 18.12 11.48ZM17 14.5H9V23H17V14.5ZM16 22H10V15.5H16V22ZM14 11.5H16.5C16.78 11.5 17 11.2798 17 11C17 10.7197 16.78 10.5 16.5 10.5H14.5V9H16C16.28 9 16.5 8.77979 16.5 8.5C16.5 8.21973 16.28 8 16 8H14.5V7H16.5C16.78 7 17 6.77979 17 6.5C17 6.21973 16.78 6 16.5 6H14C13.72 6 13.5 6.21973 13.5 6.5V11C13.5 11.2798 13.72 11.5 14 11.5ZM9.5 11.4902C9.78003 11.4902 10 11.2598 10 10.9902V8.41992L11.56 11.23C11.65 11.3901 11.82 11.4902 12 11.4902C12.04 11.4902 12.08 11.48 12.13 11.4697C12.35 11.4102 12.5 11.21 12.5 10.9902V6.49023C12.5 6.20996 12.28 5.99023 12 5.99023C11.72 5.99023 11.5 6.20996 11.5 6.49023V9.06006L9.94 6.24023C9.83002 6.04004 9.59998 5.9502 9.37 6C9.15002 6.06006 9 6.25977 9 6.49023V10.9902C9 11.2598 9.21997 11.4902 9.5 11.4902Z" fill="#0D2B49"/>
</svg>
