<svg width="32" height="32" viewBox="0 0 32 32" fill="none" xmlns="http://www.w3.org/2000/svg">
<path d="M29.41 25.5898L24.11 20.2798L23.76 20.6401L22.65 19.5298C24.6 16.7998 24.36 12.9902 21.91 10.54C21.78 10.4102 21.64 10.2798 21.5 10.1699V5.97998C21.5 5.46973 21.08 5.0498 20.57 5.0498H11.05L8.88 3.5H4.42999C3.91998 3.5 3.5 3.91992 3.5 4.43018V16.8398C3.5 17.3599 3.91998 17.7798 4.42999 17.7798H10.4C10.72 18.7402 11.27 19.6401 12.04 20.4102C13.41 21.7798 15.19 22.46 16.98 22.46C18.17 22.46 19.36 22.1499 20.42 21.54L21.64 22.7598L21.28 23.1099L26.59 28.4102C26.98 28.7998 27.49 29 28 29C28.51 29 29.02 28.7998 29.41 28.4102C30.2 27.6299 30.2 26.3701 29.41 25.5898ZM10.13 16.7798H4.5V4.5H8.54999L10.47 5.87012L10.73 6.0498H20.5V9.45996C19.42 8.81982 18.2 8.5 16.98 8.5C15.19 8.5 13.41 9.18018 12.04 10.54C10.35 12.2402 9.71002 14.5898 10.13 16.7798ZM16.98 21.46C15.38 21.46 13.88 20.8398 12.75 19.71C12.18 19.1401 11.75 18.48 11.46 17.7798C11.32 17.46 11.22 17.1201 11.15 16.7798C10.72 14.8501 11.25 12.75 12.75 11.25C13.88 10.1201 15.38 9.5 16.98 9.5C18.27 9.5 19.49 9.8999 20.5 10.6499C20.75 10.8198 20.99 11.0298 21.21 11.25C21.31 11.3501 21.41 11.46 21.5 11.5698C23.44 13.8198 23.42 17.1602 21.46 19.3999L20.71 20.1499C19.65 21 18.35 21.46 16.98 21.46ZM21.28 20.9902L21.36 20.9102C21.55 20.75 21.74 20.5898 21.91 20.4102C21.95 20.3799 21.98 20.3398 22.01 20.3101L23.05 21.3398L22.34 22.0498L21.28 20.9902ZM28.71 27.71C28.52 27.8999 28.27 28 28 28C27.73 28 27.48 27.8999 27.29 27.71L22.7 23.1099L23.4 22.3999L24.11 21.7002L28.71 26.29C28.9 26.48 29 26.73 29 27C29 27.27 28.9 27.52 28.71 27.71ZM19.7031 17.502C19.8984 17.6973 19.8984 18.0137 19.7031 18.209C19.6055 18.3066 19.4775 18.3555 19.3496 18.3555C19.2217 18.3555 19.0938 18.3066 18.9961 18.209L16.9746 16.1875L14.9531 18.209C14.8555 18.3066 14.7275 18.3555 14.5996 18.3555C14.4717 18.3555 14.3438 18.3066 14.2461 18.209C14.0508 18.0137 14.0508 17.6973 14.2461 17.502L16.2676 15.4805L14.2461 13.459C14.0508 13.2637 14.0508 12.9473 14.2461 12.752C14.4414 12.5566 14.7578 12.5566 14.9531 12.752L16.9746 14.7734L18.9961 12.752C19.1914 12.5566 19.5078 12.5566 19.7031 12.752C19.8984 12.9473 19.8984 13.2637 19.7031 13.459L17.6816 15.4805L19.7031 17.502Z" fill="#0D2B49"/>
</svg>
