<svg width="32" height="32" viewBox="0 0 32 32" fill="none" xmlns="http://www.w3.org/2000/svg">
<path d="M16.5 27H15.5V5H16.5V27ZM10.25 8.41797C8.73364 8.41797 7.5 9.65137 7.5 11.168C7.5 12.6846 8.73364 13.918 10.25 13.918C11.7664 13.918 13 12.6846 13 11.168C13 9.65137 11.7664 8.41797 10.25 8.41797ZM10.25 7.41797C12.321 7.41797 14 9.09717 14 11.168C14 13.2393 12.321 14.918 10.25 14.918C8.17892 14.918 6.5 13.2393 6.5 11.168C6.5 9.09717 8.17892 7.41797 10.25 7.41797ZM13 19V24.5C13 25.0498 12.55 25.5 12 25.5C11.45 25.5 11 25.0498 11 24.5V19H10V24.5C10 25.6001 10.9 26.5 12 26.5C13.1 26.5 14 25.6001 14 24.5V19H13ZM13 17.3003C9.6731 17.4072 7 20.1475 7 23.5H6C6 19.5972 9.12299 16.4077 13 16.3003V17.3003ZM21.75 8.41797C20.2336 8.41797 19 9.65137 19 11.168C19 12.6846 20.2336 13.918 21.75 13.918C23.2664 13.918 24.5 12.6846 24.5 11.168C24.5 9.65137 23.2664 8.41797 21.75 8.41797ZM21.75 7.41797C23.8211 7.41797 25.5 9.09717 25.5 11.168C25.5 13.2393 23.8211 14.918 21.75 14.918C19.679 14.918 18 13.2393 18 11.168C18 9.09717 19.679 7.41797 21.75 7.41797ZM18 19V24.5C18 25.6001 18.9 26.5 20 26.5C21.1 26.5 22 25.6001 22 24.5V19H21V24.5C21 25.0498 20.55 25.5 20 25.5C19.45 25.5 19 25.0498 19 24.5V19H18ZM19 16.3003C22.877 16.4077 26 19.5972 26 23.5H25C25 20.1475 22.3269 17.4072 19 17.3003V16.3003Z" fill="#0D2B49"/>
</svg>
