<svg width="32" height="32" viewBox="0 0 32 32" fill="none" xmlns="http://www.w3.org/2000/svg">
<path d="M24.858 4.50098C25.158 4.50098 25.456 4.55298 25.743 4.65498C26.792 5.02798 27.498 6.02698 27.5 7.13798C27.5 7.30198 27.484 7.44998 27.445 7.63198C27.208 8.87598 26.118 9.77898 24.855 9.77898C24.689 9.77898 24.521 9.76298 24.356 9.73098C23.113 9.49398 22.21 8.40298 22.21 7.13798C22.21 6.82998 22.259 6.55598 22.371 6.25898C22.743 5.20698 23.743 4.50098 24.858 4.50098ZM24.858 3.50098C23.361 3.50098 21.957 4.43198 21.427 5.92398C21.281 6.31098 21.208 6.70098 21.208 7.13798C21.209 8.88498 22.45 10.386 24.167 10.713C24.398 10.757 24.627 10.778 24.854 10.778C26.567 10.778 28.094 9.56298 28.427 7.81898C28.475 7.59998 28.5 7.38198 28.5 7.13798C28.498 5.59898 27.528 4.22798 26.078 3.71198C25.674 3.56898 25.263 3.50098 24.858 3.50098Z" fill="#0D2B49"/>
<path d="M18.098 6.00198C18.041 6.31398 17.999 6.61898 17.986 6.87198C17.895 8.64898 18.618 10.587 19.873 11.93C21.125 13.27 22.823 13.995 24.783 14.027L24.858 14.028C25.108 14.028 25.504 14.01 25.996 13.927V26.408C25.996 27.005 25.51 27.491 24.913 27.491H5.58398C4.98698 27.491 4.50098 27.005 4.50098 26.408V7.08498C4.50098 6.48798 4.98698 6.00198 5.58398 6.00198H18.098ZM19.375 5.00198H5.58398C4.43798 5.00198 3.50098 5.93898 3.50098 7.08498V26.407C3.50098 27.553 4.43798 28.49 5.58398 28.49H24.912C26.058 28.49 26.995 27.553 26.995 26.407V12.637C25.988 12.991 25.159 13.027 24.857 13.027C24.835 13.027 24.815 13.027 24.799 13.027C20.661 12.959 18.856 9.41698 18.984 6.92298C19.012 6.38098 19.208 5.50198 19.375 5.00198Z" fill="#0D2B49"/>
</svg>
