<svg width="32" height="32" viewBox="0 0 32 32" fill="none" xmlns="http://www.w3.org/2000/svg">
<path d="M27 27.5015V15H21.5V27.5015H19V23.5075H13V27.5015H10.5V17.5H5V27.5015H3.5V28.5H28.5V27.5015H27ZM9.5 27.5015H6V18.4985H9.5V27.5015ZM18 27.5015H14V24.506H18V27.5015ZM26 27.5015H22.5V15.9985H26V27.5015ZM7.19 13.3027C7.28998 12.3842 8.07001 11.6953 9.01001 11.6953C10.02 11.6953 10.84 12.5144 10.84 13.5226H11.84C11.84 12.5144 12.66 11.6953 13.67 11.6953C14.62 11.6953 15.4 12.4144 15.48 13.3427V18.5151H14.5V22.5091H17.5V18.5151H16.5V13.5226C16.5 12.5144 17.32 11.6953 18.33 11.6953C19.34 11.6953 20.17 12.5144 20.17 13.5226H21.17C21.17 12.5144 21.99 11.6953 22.99 11.6953C23.93 11.6953 24.71 12.3842 24.81 13.3027L25.81 13.273C25.82 13.0931 25.83 12.9034 25.83 12.704C25.83 7.55167 21.82 3.30808 16.75 2.92877V2H15.25V2.92877C10.18 3.30808 6.16998 7.55167 6.16998 12.704C6.16998 12.9034 6.17999 13.0931 6.19 13.273L7.19 13.3027ZM16.5 21.5106H15.5V19.5136H16.5V21.5106ZM16 3.89704C20.38 3.89704 24.02 7.0924 24.71 11.2663C24.23 10.9065 23.63 10.6968 22.99 10.6968C22.03 10.6968 21.18 11.1761 20.67 11.9152C20.15 11.1761 19.3 10.6968 18.33 10.6968C17.64 10.6968 17 10.9464 16.5 11.3657C16.49 11.376 16.49 11.376 16.48 11.3857C16.3 11.5354 16.14 11.7153 16 11.9152C15.85 11.7055 15.68 11.5159 15.48 11.356C14.99 10.9367 14.35 10.6968 13.67 10.6968C12.7 10.6968 11.85 11.1761 11.34 11.9152C10.83 11.1761 9.96997 10.6968 9.01001 10.6968C8.37 10.6968 7.77002 10.9065 7.28998 11.2663C7.97998 7.0924 11.62 3.89704 16 3.89704Z" fill="#0D2B49"/>
</svg>
