<svg width="32" height="32" viewBox="0 0 32 32" fill="none" xmlns="http://www.w3.org/2000/svg">
<path d="M19.75 11.75C19.75 13.8211 18.0711 15.5 16 15.5C13.9289 15.5 12.25 13.8211 12.25 11.75C12.25 9.67893 13.9289 8 16 8C18.0711 8 19.75 9.67893 19.75 11.75ZM18.75 11.75C18.75 10.2334 17.5166 9 16 9C14.4834 9 13.25 10.2334 13.25 11.75C13.25 13.2666 14.4834 14.5 16 14.5C17.5166 14.5 18.75 13.2666 18.75 11.75ZM23.5 24.0001C23.5 24.0001 23.5 24.0001 23.5 24.0001C23.5 19.858 20.1421 16.5 16 16.5C11.8579 16.5 8.5 19.8579 8.5 24H9.5C9.5 20.416 12.416 17.5 16 17.5C19.584 17.5 22.5 20.416 22.5 24L23.5 24.0001Z" fill="#0D2B49"/>
</svg>
