<svg width="32" height="32" viewBox="0 0 32 32" fill="none" xmlns="http://www.w3.org/2000/svg">
<path d="M27.0547 26H28.5L25.7089 22.5H27.3936L25.3999 19.5H26.3967L23.4761 15.1001L22.3796 16.75C20.5355 14.0698 18.3425 12 16 12C13.6575 12 11.4645 14.0698 9.62038 16.75L8.52391 15.1001L5.60326 19.5H6.60007L4.60645 22.5H6.29106L3.5 26H4.94533C4.71608 26.5898 4.52668 27.1001 4.38712 27.5H4.03826V28.5H27.9617V27.5H27.6129C27.4733 27.1001 27.2839 26.5898 27.0547 26ZM26.4267 25H20.5255L22.5191 22.5H24.433L26.4267 25ZM15.043 22.5H16.957L18.9506 25H13.0494L15.043 22.5ZM12.262 24.3901L10.7568 22.5H13.7671L12.262 24.3901ZM15.2723 19.5H16.7277L18.0634 21.5H13.9366L15.2723 19.5ZM14.9334 18.5L16 16.8999L17.0666 18.5H14.9334ZM18.2328 22.5H21.2432L19.738 24.3901L18.2328 22.5ZM22.9677 17.6499L22.9976 17.6099L23.4761 16.8999L24.5427 18.5H22.4095L22.9677 17.6499ZM22.7484 19.5H24.2037L25.5395 21.5H21.4127L22.7484 19.5ZM16 13C17.7544 13 19.758 14.6299 21.7715 17.6602L20.5554 19.5H21.5522L19.738 22.23L17.9238 19.5H18.9207L16 15.1001L13.0793 19.5H14.0762L12.262 22.23L10.4477 19.5H11.4446L10.2285 17.6602C12.242 14.6299 14.2456 13 16 13ZM8.52391 16.8999L9.00236 17.6099L9.03229 17.6499L9.59051 18.5H7.45731L8.52391 16.8999ZM7.79626 19.5H9.25156L10.5873 21.5H6.4605L7.79626 19.5ZM7.56695 22.5H9.48087L11.4745 25H5.57332L7.56695 22.5ZM5.44373 27.5C5.60326 27.0801 5.79266 26.5698 6.0219 26H7.02869V27.5H5.44373ZM8.0255 27.5V26H9.02232V27.5H8.0255ZM10.0191 27.5V26H14.5048V27.5H10.0191ZM15.5016 27.5V26H16.4984V27.5H15.5016ZM17.4952 27.5V26H21.9809V27.5H17.4952ZM22.9777 27.5V26H23.9745V27.5H22.9777ZM24.9713 27.5V26H25.9781C26.2073 26.5698 26.3967 27.0801 26.5563 27.5H24.9713ZM11.5143 5.5C12.8885 5.5 14.0064 6.62158 14.0064 8C14.0064 9.37842 12.8885 10.5 11.5143 10.5C10.1402 10.5 9.02232 9.37842 9.02232 8C9.02232 6.62158 10.1402 5.5 11.5143 5.5ZM11.5143 4.5C9.58752 4.5 8.0255 6.06689 8.0255 8C8.0255 9.9331 9.58752 11.5 11.5143 11.5C13.4412 11.5 15.0032 9.9331 15.0032 8C15.0032 6.06689 13.4412 4.5 11.5143 4.5Z" fill="#0D2B49"/>
</svg>
