<svg width="32" height="32" viewBox="0 0 32 32" fill="none" xmlns="http://www.w3.org/2000/svg">
<path d="M27.4757 23.2889L27.4263 23.249C26.8723 22.8113 26.0908 22.8312 25.5468 23.2991C24.8444 23.9058 23.8849 24.4334 22.7572 24.8512L21.2338 20.5431H22.7671V17.5583H20.7886V15.0807C21.0755 15.1108 21.2832 15.3396 21.2832 15.6379V16.5633H24.2509V15.6379C24.2509 13.6781 22.6682 12.0862 20.7194 12.0862H11.1042L7.60236 3.5L4.82266 4.46481L9.80835 18.9812L8.66083 24.7516C7.77057 24.3936 6.98905 23.9656 6.37574 23.488C5.79214 23.0401 4.98097 23.0902 4.44676 23.6075C4.1401 23.916 3.98185 24.3435 4.00166 24.7813C4.0313 25.2092 4.23906 25.6071 4.57536 25.8661C7.12756 27.8258 11.3416 29 15.8426 29C20.6205 29 24.9829 27.7068 27.4956 25.5474C27.812 25.269 28 24.8711 28 24.4431C28 23.9952 27.812 23.5774 27.4757 23.2889ZM21.8273 25.1694C21.5107 25.2593 21.1942 25.3487 20.8678 25.4381L19.1268 20.5431L18.9586 20.0456L18.8102 19.6375V15.0709H19.7994V19.3791L19.8588 19.5481L20.0368 20.0456L20.205 20.5431L21.8273 25.1694ZM13.7454 18.5532H17.821V19.5481H13.597L13.8443 18.7922L13.7454 18.5532ZM13.3398 17.5583L12.3209 15.0709H17.821V17.5583H13.3398ZM18.1078 20.5431L19.8983 25.6372C18.6123 25.886 17.2373 26.0152 15.8426 26.0152C14.3884 26.0152 12.964 25.8758 11.6384 25.6173L13.2805 20.5431H18.1078ZM21.7779 18.5532V19.5481H20.8777L20.7886 19.2897V18.5532H21.7779ZM8.70044 12.7128L6.08889 5.08179L7.0484 4.75338L10.0359 12.0862H9.90725C9.41264 12.0862 8.96748 12.3349 8.70044 12.7128ZM9.90725 13.0811H20.7194C22.1043 13.0811 23.2221 14.1955 23.2617 15.5684H22.2725C22.2329 14.7625 21.5998 14.1159 20.7886 14.0857C20.7688 14.076 20.7392 14.076 20.7194 14.076H9.90725C9.63024 14.076 9.41264 13.8569 9.41264 13.5785C9.41264 13.2997 9.63024 13.0811 9.90725 13.0811ZM10.8272 18.9112L9.4918 15.0015C9.6204 15.051 9.75884 15.0709 9.90725 15.0709H11.2526L12.2715 17.5583L12.4693 18.0557L12.677 18.5532L12.7858 18.8316L12.5583 19.5481L12.3902 20.0456L12.2319 20.5431L10.669 25.3982C10.303 25.3088 9.93696 25.1995 9.59069 25.0897L10.8272 18.9112ZM26.8525 24.7915C24.5476 26.7711 20.3237 28.0051 15.8426 28.0051C11.5493 28.0051 7.56281 26.9105 5.17877 25.0698C5.03042 24.9605 5.00071 24.8012 4.99087 24.722C4.98097 24.5724 5.04032 24.4232 5.13922 24.3236C5.23818 24.2245 5.35688 24.1847 5.48548 24.1847C5.58438 24.1847 5.69318 24.2143 5.77233 24.2838C6.50434 24.841 7.41441 25.3385 8.46297 25.7363C8.61138 25.7961 8.76963 25.8559 8.92794 25.9059V25.9156C9.53134 26.1245 10.1744 26.3135 10.847 26.4631C11.0053 26.503 11.1735 26.5326 11.3317 26.5622C12.7562 26.861 14.2895 27.0101 15.8426 27.0101C17.3659 27.0101 18.8497 26.8707 20.2347 26.5923C20.3929 26.5622 20.5611 26.5326 20.7194 26.4825C21.3821 26.3436 22.0252 26.1643 22.6286 25.9554C22.7869 25.9059 22.9451 25.8461 23.0935 25.7864C24.33 25.3288 25.3885 24.7317 26.1898 24.055C26.3777 23.8961 26.6448 23.8859 26.8327 24.0453L26.8525 24.0652C26.9514 24.1648 27.0108 24.294 27.0108 24.4431C27.0108 24.5228 26.991 24.6719 26.8525 24.7915Z" fill="#0D2B49"/>
</svg>
