<svg width="32" height="32" viewBox="0 0 32 32" fill="none" xmlns="http://www.w3.org/2000/svg">
<path d="M23.528 26.7197C22.8362 27.3799 21.8291 27.9102 20.649 28.2998L18.8382 24.48H20.4964V23.48H13.0702L12.0631 21.02H13.4568V20.02H11.646L9.77418 15.5L8.83829 15.8799L12.2055 24.02L11.1984 28.2402C10.0895 27.8599 9.14346 27.3501 8.47201 26.7197L7.77008 27.4399C9.44864 29.02 12.6022 30 16 30C19.3978 30 22.5514 29.02 24.2299 27.4399L23.528 26.7197ZM16 29C14.647 29 13.3449 28.8301 12.175 28.5298L13.1414 24.48H17.7599L19.6622 28.5698C18.533 28.8501 17.292 29 16 29ZM21.412 21.8999V22.5898H20.3947V21.8999C20.3947 21.4199 19.8861 21.02 19.2655 21.02H18.6449V20.02H19.2655C20.4456 20.02 21.412 20.8701 21.412 21.8999ZM16.7628 2.93799V2H15.2369V2.93799C10.0794 3.32373 6 7.5625 6 12.7197C6 12.9199 6.01018 13.1099 6.02037 13.29L7.03766 13.3198C7.13936 12.3999 7.93288 11.71 8.88914 11.71C9.91661 11.71 10.7508 12.5298 10.7508 13.54H11.7681C11.7681 12.5298 12.6022 11.71 13.6297 11.71C14.6267 11.71 15.4405 12.48 15.4812 13.4502L15.4914 18.5H14.4741L14.4639 22.54H17.5158L17.5259 18.5H16.5188L16.5086 13.54C16.5086 12.5298 17.3428 11.71 18.3703 11.71C19.3978 11.71 20.2421 12.5298 20.2421 13.54H21.2594C21.2594 12.5298 22.0936 11.71 23.1109 11.71C24.0671 11.71 24.8606 12.3999 24.9623 13.3198L25.9796 13.29C25.9898 13.1099 26 12.9199 26 12.7197C26 7.5625 21.9204 3.32324 16.7628 2.93799ZM16.4985 21.54H15.4812V19.54H16.4985V21.54ZM23.1109 10.71C22.1343 10.71 21.2696 11.1899 20.7507 11.9302C20.2218 11.1899 19.3571 10.71 18.3703 10.71C17.6582 10.71 17.0071 10.96 16.4985 11.3901C16.3052 11.5498 16.1424 11.73 16 11.9302C15.8576 11.7197 15.6745 11.5298 15.4812 11.3799C14.9827 10.96 14.3316 10.71 13.6297 10.71C12.6429 10.71 11.7782 11.1899 11.2594 11.9302C10.7406 11.1899 9.8657 10.71 8.88914 10.71C8.23806 10.71 7.6277 10.9199 7.13936 11.2798C7.8413 7.1001 11.5544 3.8999 16 3.8999C20.4456 3.8999 24.1587 7.1001 24.8606 11.2798C24.3723 10.9199 23.7619 10.71 23.1109 10.71Z" fill="#0D2B49"/>
</svg>
