<svg width="32" height="32" viewBox="0 0 32 32" fill="none" xmlns="http://www.w3.org/2000/svg">
<path d="M11.027 4.996C11.027 5.006 11.017 5.016 11.007 5.036C11.007 5.016 11.017 5.006 11.007 4.996H11.027Z" fill="#0D2B49"/>
<path d="M21.747 1.996H10.257C9.00701 1.996 7.99701 3.006 7.99701 4.256V27.746C7.99701 28.986 9.00701 29.996 10.257 29.996H21.747C22.987 29.996 23.997 28.986 23.997 27.746V4.256C23.997 3.006 22.986 1.996 21.747 1.996ZM22.997 27.746C22.997 28.436 22.437 28.996 21.747 28.996H10.257C9.56701 28.996 8.99701 28.436 8.99701 27.746V4.256C8.99701 3.566 9.56701 2.996 10.257 2.996H21.747C22.437 2.996 22.997 3.566 22.997 4.256V27.746Z" fill="#0D2B49"/>
<path d="M21.007 3.996H19.187C19.097 3.996 19.037 4.076 19.037 4.166V4.356C19.037 4.676 18.797 4.946 18.497 4.946H13.497C13.207 4.946 12.967 4.676 12.967 4.356V4.166C12.967 4.076 12.897 3.996 12.817 3.996H10.987C10.447 3.996 9.99701 4.486 9.99701 5.096V26.906C9.99701 27.506 10.447 27.996 10.987 27.996H21.007C21.557 27.996 21.997 27.506 21.997 26.906V5.096C21.997 4.486 21.557 3.996 21.007 3.996ZM20.997 5.096V26.906C20.997 26.966 20.977 27.006 20.967 27.016L15.267 27.006H14.847L11.037 27.016C11.027 27.006 10.997 26.966 10.997 26.906V5.096C10.997 5.076 11.007 5.056 11.007 5.036C11.007 5.016 11.017 5.006 11.007 4.996H12.097C12.337 5.556 12.877 5.946 13.497 5.946H18.497C19.127 5.946 19.657 5.556 19.897 4.996H20.997C20.987 4.996 20.987 5.006 20.987 5.016C20.986 5.026 20.997 5.056 20.997 5.096Z" fill="#0D2B49"/>
<path d="M12.573 17.053H19.427C19.327 15.946 18.699 14.986 17.803 14.438L18.441 13.352C18.515 13.225 18.473 13.062 18.346 12.988C18.219 12.919 18.061 12.956 17.982 13.083L17.334 14.19C16.923 14.016 16.469 13.921 16 13.921C15.526 13.921 15.072 14.016 14.661 14.19L14.013 13.083C13.939 12.956 13.776 12.914 13.655 12.988C13.528 13.062 13.486 13.225 13.56 13.352L14.198 14.438C13.295 14.987 12.668 15.946 12.573 17.053ZM17.613 15.445C17.813 15.445 17.971 15.608 17.971 15.809C17.971 16.009 17.813 16.173 17.613 16.173C17.413 16.173 17.249 16.01 17.249 15.809C17.249 15.609 17.413 15.445 17.613 15.445ZM14.439 15.445C14.639 15.445 14.798 15.608 14.798 15.809C14.798 16.009 14.64 16.173 14.439 16.173C14.239 16.173 14.075 16.01 14.075 15.809C14.076 15.609 14.239 15.445 14.439 15.445Z" fill="#0D2B49"/>
</svg>
