<svg width="32" height="32" viewBox="0 0 32 32" fill="none" xmlns="http://www.w3.org/2000/svg">
<path d="M10.171 4.49699C10.51 4.49699 10.809 4.72399 10.933 5.07599L12.723 10.145C12.847 10.495 12.768 10.887 12.522 11.146L10.928 12.822C10.293 13.503 10.211 14.52 10.73 15.297L15.083 21.77C15.431 22.308 16.021 22.63 16.662 22.63C16.955 22.63 17.247 22.56 17.514 22.425L19.53 21.392C19.635 21.338 19.749 21.311 19.867 21.311C20.049 21.311 20.224 21.378 20.366 21.505L24.308 24.959C24.573 25.192 24.617 25.499 24.62 25.661C24.625 25.945 24.514 26.214 24.321 26.396C24.213 26.496 24.103 26.591 23.98 26.682C23.251 27.228 22.364 27.505 21.344 27.505C18.021 27.505 13.813 24.568 10.873 20.197C6.887 14.271 6.223 7.24299 9.417 4.85099C9.537 4.76199 9.661 4.67899 9.784 4.60599C9.906 4.53299 10.037 4.49699 10.171 4.49699ZM10.171 3.49699C9.87 3.49699 9.563 3.57599 9.278 3.74299C9.122 3.83499 8.97 3.93699 8.822 4.04699C5.136 6.80699 5.692 14.286 10.042 20.753C13.297 25.594 17.759 28.503 21.343 28.503C22.547 28.503 23.652 28.174 24.579 27.48C24.727 27.37 24.866 27.251 25 27.126C25.837 26.341 25.825 24.96 24.967 24.206L21.024 20.751C20.698 20.46 20.284 20.31 19.866 20.31C19.596 20.31 19.324 20.373 19.073 20.501L17.057 21.534C16.93 21.598 16.795 21.629 16.661 21.629C16.371 21.629 16.089 21.485 15.922 21.227L11.559 14.739C11.302 14.354 11.343 13.843 11.659 13.504L13.246 11.836C13.75 11.307 13.915 10.514 13.665 9.81099L11.876 4.74399C11.6 3.95999 10.902 3.49699 10.171 3.49699Z" fill="#0D2B49"/>
</svg>
