<svg width="32" height="32" viewBox="0 0 32 32" fill="none" xmlns="http://www.w3.org/2000/svg">
<path d="M11.027 4.996C11.027 5.006 11.017 5.016 11.007 5.036C11.007 5.016 11.017 5.006 11.007 4.996H11.027Z" fill="#0D2B49"/>
<path d="M21.747 1.996H10.257C9.00701 1.996 7.99701 3.006 7.99701 4.256V27.746C7.99701 28.986 9.00701 29.996 10.257 29.996H21.747C22.987 29.996 23.997 28.986 23.997 27.746V4.256C23.997 3.006 22.986 1.996 21.747 1.996ZM22.997 27.746C22.997 28.436 22.437 28.996 21.747 28.996H10.257C9.56701 28.996 8.99701 28.436 8.99701 27.746V4.256C8.99701 3.566 9.56701 2.996 10.257 2.996H21.747C22.437 2.996 22.997 3.566 22.997 4.256V27.746Z" fill="#0D2B49"/>
<path d="M21.007 3.996H19.187C19.097 3.996 19.037 4.076 19.037 4.166V4.356C19.037 4.676 18.797 4.946 18.497 4.946H13.497C13.207 4.946 12.967 4.676 12.967 4.356V4.166C12.967 4.076 12.897 3.996 12.817 3.996H10.987C10.447 3.996 9.99701 4.486 9.99701 5.096V26.906C9.99701 27.506 10.447 27.996 10.987 27.996H21.007C21.557 27.996 21.997 27.506 21.997 26.906V5.096C21.997 4.486 21.557 3.996 21.007 3.996ZM20.997 5.096V26.906C20.997 26.966 20.977 27.006 20.967 27.016L15.267 27.006H14.847L11.037 27.016C11.027 27.006 10.997 26.966 10.997 26.906V5.096C10.997 5.076 11.007 5.056 11.007 5.036C11.007 5.016 11.017 5.006 11.007 4.996H12.097C12.337 5.556 12.877 5.946 13.497 5.946H18.497C19.127 5.946 19.657 5.556 19.897 4.996H20.997C20.987 4.996 20.987 5.006 20.987 5.016C20.986 5.026 20.997 5.056 20.997 5.096Z" fill="#0D2B49"/>
<path fill-rule="evenodd" clip-rule="evenodd" d="M18.87 17.572C18.714 17.923 18.638 18.08 18.437 18.39C18.155 18.823 17.758 19.364 17.268 19.367C16.831 19.371 16.718 19.079 16.125 19.084C15.532 19.087 15.409 19.373 14.971 19.368C14.48 19.364 14.104 18.877 13.823 18.444C13.035 17.231 12.952 15.81 13.439 15.054C13.784 14.518 14.328 14.203 14.84 14.203C15.361 14.203 15.689 14.492 16.119 14.492C16.537 14.492 16.792 14.202 17.394 14.202C17.85 14.202 18.331 14.453 18.676 14.886C17.549 15.511 17.732 17.137 18.87 17.572ZM16.936 13.719C17.155 13.434 17.322 13.033 17.261 12.624C16.904 12.649 16.485 12.879 16.241 13.178C16.019 13.451 15.836 13.855 15.907 14.246C16.298 14.259 16.702 14.024 16.936 13.719Z" fill="#0D2B49"/>
</svg>
