<svg width="32" height="32" viewBox="0 0 32 32" fill="none" xmlns="http://www.w3.org/2000/svg">
<path d="M16 20.4784C16.6058 20.4784 17.0986 20.9724 17.0986 21.58C17.0986 22.1876 16.6058 22.6816 16 22.6816C15.3942 22.6816 14.9014 22.1876 14.9014 21.58C14.9014 20.9724 15.3942 20.4784 16 20.4784ZM16 19.4757C14.841 19.4757 13.9014 20.4177 13.9014 21.58C13.9014 22.7423 14.841 23.6843 16 23.6843C17.159 23.6843 18.0986 22.7423 18.0986 21.58C18.0986 20.4177 17.159 19.4757 16 19.4757ZM16 24.2356C13.6553 24.2356 11.7471 26.1489 11.7471 28.5H12.7471C12.7471 26.7012 14.2061 25.2383 16 25.2383C17.7939 25.2383 19.2529 26.7012 19.2529 28.5H20.2529C20.2529 26.1489 18.3447 24.2356 16 24.2356ZM16.5 16.5351H15.5V18.5405H16.5V16.5351ZM3.5 3.5V15.5324H28.5V3.5H3.5ZM27.5 4.5027V6.86356C26.3729 6.52622 25.4822 5.6327 25.1455 4.5027H27.5ZM4.5 4.5027H6.85449C6.51782 5.6327 5.6272 6.52622 4.5 6.86356V4.5027ZM4.5 14.5297V12.1689C5.6272 12.5062 6.51782 13.3997 6.85449 14.5297H4.5ZM27.5 14.5297H25.1455C25.4822 13.3997 26.3729 12.5062 27.5 12.1689V14.5297ZM27.5 11.1407C25.8203 11.5246 24.5027 12.8455 24.1203 14.5297H7.8797C7.49725 12.8455 6.17969 11.5246 4.5 11.1407V7.89172C6.17969 7.50787 7.49725 6.18693 7.8797 4.5027H24.1203C24.5027 6.18693 25.8203 7.50787 27.5 7.89172V11.1407ZM16 6.90664C16.6631 6.90664 17.2989 7.17054 17.7678 7.64055C18.2366 8.11106 18.5 8.74852 18.5 9.4134C18.5 9.90887 18.3534 10.3936 18.0787 10.8058C17.804 11.2181 17.4135 11.5392 16.9567 11.7292C16.6522 11.856 16.3272 11.9202 16.0008 11.9202C15.8375 11.9202 15.6739 11.904 15.5123 11.8717C15.0273 11.7752 14.5819 11.5363 14.2322 11.1858C13.8826 10.8352 13.6445 10.3887 13.548 9.90251C13.4516 9.41634 13.5011 8.91205 13.6903 8.45378C13.8795 7.99601 14.2 7.60432 14.6111 7.32917C15.0222 7.05352 15.5056 6.90664 16 6.90664ZM14.9839 9.90398C14.9012 9.90398 14.818 9.89566 14.7357 9.87901C14.7143 9.87901 14.7072 9.90055 14.7214 9.90741C14.8782 10.0372 15.3801 10.4019 15.9238 10.4019C16.2224 10.4019 16.5336 10.2917 16.8071 9.97203C16.8786 9.89321 17.0143 9.54216 17.2643 9.52062C17.269 9.52013 17.2735 9.51817 17.2772 9.51524C17.2809 9.5123 17.2836 9.50838 17.2851 9.50398C17.2866 9.49957 17.2868 9.49467 17.2857 9.48978C17.2845 9.48537 17.282 9.48096 17.2786 9.47754C17.1186 9.36003 16.9834 9.20777 16.7934 9.20777C16.6949 9.20777 16.5818 9.2484 16.4428 9.35612C16.3058 9.17643 16.22 8.96297 16.1949 8.73824C16.1697 8.514 16.2061 8.28634 16.3 8.0812C16.3059 8.06357 16.2971 8.05035 16.2818 8.05035C16.2786 8.05035 16.2751 8.05133 16.2714 8.05231C15.9767 8.19625 15.7485 8.4484 15.6342 8.75635C15.5197 9.06431 15.528 9.40508 15.6571 9.70716C15.4546 9.8369 15.2208 9.90398 14.9839 9.90398ZM16 5.90394C15.3051 5.90394 14.6327 6.10859 14.0553 6.49538C13.4784 6.88167 13.0325 7.42611 12.7665 8.06993C12.5006 8.71376 12.4317 9.41536 12.5673 10.0984C12.7028 10.7813 13.034 11.4022 13.5251 11.8947C14.0168 12.3877 14.6366 12.7197 15.3177 12.8553C15.5415 12.8998 15.7717 12.9229 16.0008 12.9229C16.4627 12.9229 16.9132 12.8328 17.3398 12.6555C17.9815 12.3887 18.5245 11.9417 18.9102 11.363C19.2961 10.7838 19.5 10.1096 19.5 9.4134C19.5 8.4763 19.136 7.59502 18.4752 6.9321C17.8139 6.26869 16.935 5.90394 16 5.90394Z" fill="#0D2B49"/>
</svg>
