<svg width="32" height="32" viewBox="0 0 32 32" fill="none" xmlns="http://www.w3.org/2000/svg">
<path d="M16 20.4784C15.3942 20.4784 14.9014 20.9724 14.9014 21.58C14.9014 22.1876 15.3942 22.6816 16 22.6816C16.6058 22.6816 17.0986 22.1876 17.0986 21.58C17.0986 20.9724 16.6058 20.4784 16 20.4784ZM16 19.4757C17.159 19.4757 18.0986 20.4177 18.0986 21.58C18.0986 22.7418 17.159 23.6843 16 23.6843C14.841 23.6843 13.9014 22.7418 13.9014 21.58C13.9014 20.4177 14.841 19.4757 16 19.4757ZM20.2529 28.5H19.2529C19.2529 26.7012 17.7939 25.2383 16 25.2383C14.2061 25.2383 12.7471 26.7012 12.7471 28.5H11.7471C11.7471 26.1489 13.6553 24.2356 16 24.2356C18.3447 24.2356 20.2529 26.1489 20.2529 28.5ZM9.74762 19.5065C9.14181 19.5065 8.64899 20.0005 8.64899 20.6081C8.64899 21.2157 9.14181 21.7097 9.74762 21.7097C10.3534 21.7097 10.8463 21.2157 10.8463 20.6081C10.8463 20.0005 10.3534 19.5065 9.74762 19.5065ZM9.74762 18.5038C10.9066 18.5038 11.8463 19.4463 11.8463 20.6081C11.8463 21.7704 10.9066 22.7124 9.74762 22.7124C8.58856 22.7124 7.64899 21.7704 7.64899 20.6081C7.64899 19.4463 8.58856 18.5038 9.74762 18.5038ZM6.49512 27.5286H5.49512C5.49512 25.1776 7.40332 23.2642 9.74805 23.2642C10.6797 23.2642 11.5654 23.5609 12.3076 24.123C12.3965 24.1905 12.4844 24.262 12.5684 24.3364L11.9062 25.0885C11.8418 25.0317 11.7754 24.9759 11.7061 24.924C11.1377 24.4941 10.4609 24.2669 9.74805 24.2669C7.9541 24.2669 6.49512 25.7298 6.49512 27.5286ZM21.7418 19.5065C21.136 19.5065 20.6432 20.0005 20.6432 20.6081C20.6432 21.2157 21.136 21.7097 21.7418 21.7097C22.3477 21.7097 22.8405 21.2157 22.8405 20.6081C22.8405 20.0005 22.3477 19.5065 21.7418 19.5065ZM21.7418 18.5038C22.9009 18.5038 23.8405 19.4463 23.8405 20.6081C23.8405 21.7704 22.9009 22.7124 21.7418 22.7124C20.5828 22.7124 19.6432 21.7704 19.6432 20.6081C19.6432 19.4463 20.5828 18.5038 21.7418 18.5038ZM25.9951 27.5286H24.9951C24.9951 25.7298 23.5361 24.2669 21.7422 24.2669C21.0215 24.2669 20.3389 24.498 19.7695 24.9347L19.1621 24.1377C19.9072 23.5668 20.7998 23.2642 21.7422 23.2642C24.0869 23.2642 25.9951 25.1776 25.9951 27.5286ZM16.5 18.5492H15.5V16.5776H16.5V18.5492ZM18.3935 18.9053L17.6863 18.1963L19.0767 16.8022L19.7838 17.5113L18.3935 18.9053ZM12.263 17.5113L12.9701 16.8022L14.3604 18.1963L13.6533 18.9053L12.263 17.5113ZM28.5 3.5V15.5143H3.5V3.5H28.5ZM25.1455 4.5027C25.4822 5.6327 26.3729 6.52622 27.5 6.86356V4.5027H25.1455ZM4.5 6.86356C5.6272 6.52622 6.51782 5.6327 6.85449 4.5027H4.5V6.86356ZM6.85449 14.5116C6.51782 13.3816 5.6272 12.4881 4.5 12.1508V14.5116H6.85449ZM27.5 12.1508C26.3729 12.4881 25.4822 13.3816 25.1455 14.5116H27.5V12.1508ZM27.5 7.89172C25.8203 7.50787 24.5027 6.18693 24.1203 4.5027H7.8797C7.49725 6.18693 6.17969 7.50787 4.5 7.89172V11.1231C6.17963 11.5064 7.49713 12.8279 7.87964 14.5116H24.1204C24.5029 12.8279 25.8204 11.5064 27.5 11.1231V7.89172ZM19.5 5.49463V13.5163H16.5V12.0122H15.5V13.5163H12.5V5.49463H19.5ZM18.5 6.49734H13.5V12.5136H14.5V11.0095H17.5V12.5136H18.5V6.49734ZM17.5 9.00409H14.5V10.0068H17.5V9.00409ZM17.5 7.50004H14.5V8.50274H17.5V7.50004Z" fill="#0D2B49"/>
</svg>
