<svg width="32" height="32" viewBox="0 0 32 32" fill="none" xmlns="http://www.w3.org/2000/svg">
<path d="M27.125 28.5H4.875C4.52344 28.5 4.19238 28.3672 3.91699 28.1152C3.63379 27.8096 3.5 27.4785 3.5 27.125V4.875C3.5 4.52148 3.63379 4.19043 3.88574 3.91602C4.19238 3.63281 4.52344 3.5 4.875 3.5H27.125C27.4766 3.5 27.8076 3.63281 28.083 3.88477L28.1143 3.91602C28.3662 4.19043 28.5 4.52148 28.5 4.875V27.125C28.5 27.4785 28.3662 27.8096 28.1143 28.084C27.8076 28.3672 27.4766 28.5 27.125 28.5ZM4.875 4.5C4.77637 4.5 4.68066 4.54102 4.59082 4.62305C4.54102 4.68066 4.5 4.77539 4.5 4.875V27.125C4.5 27.2246 4.54102 27.3193 4.62207 27.4082C4.68066 27.459 4.77637 27.5 4.875 27.5H27.125C27.2236 27.5 27.3193 27.459 27.4092 27.377C27.459 27.3193 27.5 27.2246 27.5 27.125V4.875C27.5 4.78125 27.4639 4.69238 27.3926 4.6084C27.3076 4.53613 27.2178 4.5 27.125 4.5H4.875ZM25.7393 20H21.9072L21.7881 19.1797C21.6328 17.9268 21.0537 16.7539 20.1553 15.8682C19.585 15.3105 18.9404 14.8799 18.2422 14.5889C17.915 14.4531 17.6367 14.3643 17.3672 14.3076C16.4766 14.0732 15.498 14.0791 14.6582 14.3018C14.3633 14.3643 14.085 14.4531 13.7559 14.5889C13.0596 14.8799 12.415 15.3105 11.8437 15.8691C10.9463 16.7539 10.3672 17.9268 10.2129 19.1699L10.0928 20H6.26074L6.37891 18.9531C6.59961 16.7803 7.58594 14.7246 9.15527 13.1689C10.0713 12.2529 11.1289 11.543 12.2969 11.0615C14.6035 10.0967 17.3945 10.0957 19.7051 11.0625C20.8711 11.543 21.9287 12.2529 22.8467 13.1709C24.4141 14.7246 25.4004 16.7803 25.6211 18.959L25.7393 20ZM22.7734 19H24.6201C24.4092 17.0703 23.5303 15.2559 22.1416 13.8799C21.3154 13.0537 20.3672 12.417 19.3223 11.9854C17.25 11.1201 14.748 11.1211 12.6797 11.9844C11.6328 12.417 10.6846 13.0537 9.86035 13.8779C8.46777 15.2578 7.58887 17.0732 7.37988 19H9.22656C9.41309 17.5576 10.0937 16.1904 11.1436 15.1553C11.8076 14.5068 12.5566 14.0059 13.373 13.665C13.7568 13.5068 14.1006 13.3975 14.4277 13.3291C15.3867 13.0732 16.5879 13.0674 17.5977 13.335C17.8994 13.3975 18.2432 13.5068 18.625 13.665C19.4434 14.0059 20.1924 14.5068 20.8555 15.1543C21.9043 16.1885 22.583 17.5518 22.7734 19Z" fill="#0D2B49"/>
</svg>
