<svg width="32" height="32" viewBox="0 0 32 32" fill="none" xmlns="http://www.w3.org/2000/svg">
<path d="M5 17.414V26.003H3V17.414H5ZM6 16.417H2V27H6V16.417ZM11 16.497V26.003H9V16.497H11ZM12 15.5H8V27H12V15.5ZM17 15.997V26.003H15V15.997H17ZM18 15H14V27H18V15ZM23 15.497V26.003H21V15.497H23ZM24 14.5H20V27H24V14.5ZM29 14.997V26.003H27V14.997H29ZM30 14H26V27H30V14ZM4.07001 13.4738V13.4835L4.09998 13.4738H4.07001ZM27.9 9.00674H27.93V8.99701L27.9 9.00674ZM28 8C27.27 8 26.67 8.50824 26.53 9.1966L23.31 9.66492C23.06 9.1966 22.57 8.88747 22 8.88747C21.28 8.88747 20.68 9.39571 20.53 10.0739L17.33 10.5422C17.1 10.0437 16.59 9.70484 16 9.70484C15.26 9.70484 14.65 10.2433 14.53 10.9414L11.33 11.4097C11.09 10.9214 10.59 10.5923 10 10.5923C9.26001 10.5923 8.65002 11.1205 8.53003 11.8186L5.31 12.2869C5.08002 11.8084 4.58002 11.4895 4 11.4895C3.16998 11.4895 2.5 12.1574 2.5 12.985C2.5 13.8126 3.16998 14.4805 4 14.4805C4.72998 14.4805 5.33002 13.9723 5.46997 13.2839L8.70001 12.8054C8.94 13.264 9.42999 13.5833 10 13.5833C10.72 13.5833 11.32 13.0746 11.46 12.4067L14.71 11.9384C14.96 12.397 15.44 12.6959 16 12.6959C16.71 12.6959 17.31 12.2071 17.46 11.5392L20.68 11.0709C20.92 11.5494 21.42 11.8785 22 11.8785C22.73 11.8785 23.34 11.3498 23.47 10.6619L26.69 10.1936C26.92 10.6722 27.42 10.991 28 10.991C28.83 10.991 29.5 10.3231 29.5 9.49551C29.5 8.66792 28.83 8 28 8ZM4.09998 13.4738L4.07001 13.4835V13.4738C4.04999 13.4835 4.02002 13.4835 4 13.4835C3.71997 13.4835 3.5 13.264 3.5 12.985C3.5 12.726 3.67999 12.5265 3.92999 12.4963C3.95001 12.4865 3.97998 12.4865 4 12.4865C4.28003 12.4865 4.5 12.7056 4.5 12.985C4.5 13.2246 4.33002 13.4237 4.09998 13.4738ZM10 12.5863C9.71997 12.5863 9.5 12.357 9.5 12.0878C9.5 11.8882 9.60998 11.7188 9.78003 11.639C9.78998 11.639 9.79999 11.6292 9.79999 11.6292C9.85998 11.5991 9.92999 11.5893 10 11.5893C10.02 11.5893 10.04 11.5893 10.06 11.5991C10.07 11.5893 10.08 11.5991 10.08 11.5991C10.32 11.6292 10.5 11.8386 10.5 12.0878C10.5 12.357 10.28 12.5863 10 12.5863ZM16 11.6989C15.72 11.6989 15.5 11.4798 15.5 11.2004C15.5 11.011 15.6 10.8513 15.76 10.7617H15.77C15.84 10.7218 15.92 10.7019 16 10.7019C16.04 10.7019 16.07 10.7019 16.1 10.7116C16.11 10.7116 16.11 10.7116 16.11 10.7116C16.34 10.7617 16.5 10.9711 16.5 11.2004C16.5 11.4798 16.28 11.6989 16 11.6989ZM22.2 10.8416C22.18 10.8513 22.17 10.8513 22.16 10.8513C22.11 10.8713 22.06 10.8815 22 10.8815C21.99 10.8815 21.99 10.8815 21.98 10.8815C21.71 10.8713 21.5 10.642 21.5 10.383C21.5 10.1035 21.72 9.88448 22 9.88448C22.28 9.88448 22.5 10.1035 22.5 10.383C22.5 10.5821 22.38 10.7617 22.2 10.8416ZM28.07 9.98428C28.05 9.99401 28.02 9.99401 28 9.99401C27.72 9.99401 27.5 9.77446 27.5 9.49551C27.5 9.256 27.67 9.05689 27.9 9.00674L27.93 8.99701V9.00674C27.95 8.99701 27.98 8.99701 28 8.99701C28.28 8.99701 28.5 9.21608 28.5 9.49551C28.5 9.7545 28.32 9.9541 28.07 9.98428Z" fill="#0D2B49"/>
</svg>
