<svg width="32" height="32" viewBox="0 0 32 32" fill="none" xmlns="http://www.w3.org/2000/svg">
<path d="M20 24.5H24V18H20V24.5ZM21 19H23V23.5H21V19ZM26 11.5V24.5H30V11.5H26ZM29 23.5H27V12.5H29V23.5ZM2 24.5H6V14H2V24.5ZM3 15H5V23.5H3V15ZM8 27H12V24.5H8V27ZM9 25.5H11V26H9V25.5ZM14 24.5H18V13H14V24.5ZM15 14H17V23.5H15V14ZM4 9.5C4.15002 9.5 4.28998 9.47998 4.42999 9.43018L8.76001 15.2598C8.59003 15.5 8.5 15.79 8.5 16.1001C8.5 16.9199 9.16998 17.6001 10 17.6001C10.83 17.6001 11.5 16.9199 11.5 16.1001C11.5 15.7598 11.39 15.4502 11.19 15.2002L15.65 8.4502C15.76 8.49023 15.88 8.5 16 8.5C16.27 8.5 16.53 8.43018 16.74 8.29004L20.6 11.5898C20.53 11.75 20.5 11.9302 20.5 12.1201C20.5 12.9502 21.17 13.6201 22 13.6201C22.83 13.6201 23.5 12.9502 23.5 12.1201C23.5 11.8701 23.44 11.6299 23.31 11.4199L27.42 6.87988H27.43C27.6 6.95996 27.8 7 28 7C28.83 7 29.5 6.33008 29.5 5.5C29.5 4.66992 28.83 4 28 4C27.17 4 26.5 4.66992 26.5 5.5C26.5 5.75 26.56 5.99023 26.69 6.2002L22.58 10.7402C22.4 10.6602 22.21 10.6201 22 10.6201C21.73 10.6201 21.47 10.6899 21.26 10.8301L17.39 7.52979C17.47 7.37012 17.5 7.18994 17.5 7C17.5 6.16992 16.83 5.5 16 5.5C15.17 5.5 14.5 6.16992 14.5 7C14.5 7.33984 14.61 7.6499 14.81 7.8999L10.36 14.6499C10.24 14.6099 10.12 14.6001 10 14.6001C9.84998 14.6001 9.71002 14.6201 9.57001 14.6699L5.23999 8.83984C5.40997 8.6001 5.5 8.31006 5.5 8C5.5 7.16992 4.83002 6.5 4 6.5C3.16998 6.5 2.5 7.16992 2.5 8C2.5 8.83008 3.16998 9.5 4 9.5ZM27.58 5.21973C27.6 5.2002 27.61 5.18018 27.63 5.16016C27.72 5.06006 27.85 5 28 5C28.28 5 28.5 5.21973 28.5 5.5C28.5 5.62988 28.45 5.75 28.37 5.83984C28.36 5.85986 28.34 5.87012 28.32 5.89014C28.23 5.95996 28.12 6 28 6C27.72 6 27.5 5.77979 27.5 5.5C27.5 5.3999 27.53 5.2998 27.58 5.21973ZM22 11.6201C22.28 11.6201 22.5 11.8501 22.5 12.1201C22.5 12.2197 22.47 12.3198 22.42 12.3999C22.39 12.4399 22.36 12.48 22.32 12.5098C22.23 12.5801 22.12 12.6201 22 12.6201C21.9 12.6201 21.8 12.5898 21.72 12.54C21.69 12.52 21.66 12.4902 21.64 12.4697C21.63 12.46 21.62 12.4502 21.61 12.4399C21.54 12.3501 21.5 12.2402 21.5 12.1201C21.5 11.8501 21.72 11.6201 22 11.6201ZM15.58 6.71973C15.6 6.68994 15.62 6.66992 15.64 6.64014C15.74 6.56006 15.86 6.5 16 6.5C16.1 6.5 16.19 6.52979 16.26 6.56982C16.27 6.58008 16.27 6.58008 16.28 6.58008C16.32 6.60986 16.35 6.64014 16.38 6.66992C16.38 6.66992 16.38 6.68018 16.39 6.68018C16.46 6.77002 16.5 6.87988 16.5 7C16.5 7.27979 16.28 7.5 16 7.5C15.72 7.5 15.5 7.27979 15.5 7C15.5 6.8999 15.53 6.7998 15.58 6.71973ZM10 15.6001C10.28 15.6001 10.5 15.8198 10.5 16.1001C10.5 16.1802 10.48 16.2598 10.44 16.3301C10.42 16.3701 10.4 16.3999 10.38 16.4302C10.37 16.4399 10.36 16.4399 10.36 16.4502C10.26 16.54 10.14 16.6001 10 16.6001C9.85998 16.6001 9.73999 16.54 9.64001 16.4502C9.61999 16.4302 9.59998 16.3999 9.58002 16.3701C9.53003 16.29 9.5 16.2002 9.5 16.1001C9.5 15.8198 9.71997 15.6001 10 15.6001ZM4 7.5C4.16998 7.5 4.31 7.58008 4.40002 7.7002C4.40997 7.70996 4.41998 7.72998 4.42999 7.74023C4.46997 7.81006 4.5 7.8999 4.5 8C4.5 8.27979 4.28003 8.5 4 8.5C3.85999 8.5 3.73999 8.4502 3.65002 8.37012C3.63 8.33984 3.60999 8.31982 3.59998 8.2998C3.53998 8.21973 3.5 8.10986 3.5 8C3.5 7.71973 3.71997 7.5 4 7.5Z" fill="#0D2B49"/>
</svg>
