<svg width="32" height="32" viewBox="0 0 32 32" fill="none" xmlns="http://www.w3.org/2000/svg">
<path d="M6.5 27.5H1.5V21.5H6.5V27.5ZM2.5 26.5H5.5V22.5H2.5V26.5ZM12.5 27.5H7.5V18.5H12.5V27.5ZM8.5 26.5H11.5V19.5H8.5V26.5ZM18.5 27.5H13.5V16H18.5V27.5ZM14.5 26.5H17.5V17H14.5V26.5ZM24.5 27.5H19.5V13.5H24.5V27.5ZM20.5 26.5H23.5V14.5H20.5V26.5ZM30.5 27.5H25.5V11H30.5V27.5ZM26.5 26.5H29.5V12H26.5V26.5ZM28 6.5C27.17 6.5 26.5 7.16992 26.5 8C26.5 8.02979 26.5 8.06982 26.51 8.1001L23.16 9.56982C22.9 9.21973 22.48 9 22 9C21.17 9 20.5 9.66992 20.5 10.5C20.5 10.5801 20.51 10.6499 20.52 10.7197L17.24 12.1602C16.98 11.7598 16.52 11.5 16 11.5C15.17 11.5 14.5 12.1699 14.5 13C14.5 13.1201 14.51 13.23 14.54 13.3398L11.29 14.7598C11.04 14.2998 10.56 14 10 14C9.16998 14 8.5 14.6699 8.5 15.5C8.5 15.6602 8.52002 15.8101 8.58002 15.9502L5.09003 17.48C4.82001 17.1802 4.42999 17 4 17C3.16998 17 2.5 17.6699 2.5 18.5C2.5 19.3301 3.16998 20 4 20C4.83002 20 5.5 19.3301 5.5 18.5C5.5 18.4697 5.5 18.4302 5.48999 18.3999L9.21002 16.77C9.44 16.9199 9.71002 17 10 17C10.73 17 11.34 16.48 11.47 15.7798L15.1 14.1899C15.35 14.3901 15.66 14.5 16 14.5C16.78 14.5 17.42 13.9102 17.48 13.1499H17.49L21 11.6099C21.26 11.8501 21.61 12 22 12C22.82 12 23.49 11.3398 23.5 10.52L26.91 9.02002C27.18 9.31982 27.57 9.5 28 9.5C28.83 9.5 29.5 8.83008 29.5 8C29.5 7.16992 28.83 6.5 28 6.5ZM4.28003 18.9199C4.25 18.9302 4.22998 18.9502 4.20001 18.96C4.14001 18.9902 4.07001 19 4 19C3.71997 19 3.5 18.7798 3.5 18.5C3.5 18.29 3.62 18.1099 3.79999 18.04C3.85999 18.0098 3.92999 18 4 18C4.28003 18 4.5 18.2197 4.5 18.5C4.5 18.6802 4.40997 18.8301 4.28003 18.9199ZM10 16C9.72998 16 9.52002 15.7998 9.5 15.54V15.5C9.5 15.2197 9.71997 15 10 15C10.15 15 10.28 15.0601 10.38 15.1602C10.45 15.25 10.5 15.3701 10.5 15.5C10.5 15.7798 10.28 16 10 16ZM16 13.5C15.72 13.5 15.5 13.2798 15.5 13C15.5 12.9697 15.5 12.9399 15.51 12.9199C15.54 12.6802 15.75 12.5 16 12.5C16.1 12.5 16.2 12.5298 16.28 12.5801C16.41 12.6699 16.5 12.8198 16.5 13C16.5 13.2798 16.28 13.5 16 13.5ZM22 11C21.72 11 21.5 10.7798 21.5 10.5C21.5 10.4199 21.52 10.3398 21.55 10.27H21.56C21.64 10.1099 21.8 10 22 10C22.05 10 22.09 10.0098 22.13 10.02C22.35 10.0698 22.5 10.27 22.5 10.5C22.5 10.7798 22.28 11 22 11ZM28.2 8.45996C28.14 8.49023 28.07 8.5 28 8.5C27.72 8.5 27.5 8.27979 27.5 8C27.5 7.81982 27.59 7.66992 27.72 7.58008C27.75 7.56982 27.77 7.5498 27.8 7.54004C27.86 7.50977 27.93 7.5 28 7.5C28.28 7.5 28.5 7.71973 28.5 8C28.5 8.20996 28.38 8.39014 28.2 8.45996Z" fill="#0D2B49"/>
</svg>
