<svg width="36" height="33" viewBox="0 0 36 33" fill="none" xmlns="http://www.w3.org/2000/svg">
<path d="M10.5284 26.3207V29.3773H8.49069V26.3207H10.5284ZM11.5473 25.3018H7.47183V30.3961H11.5473V25.3018ZM16.6416 31.415V31.9244H14.6039V31.415H16.6416ZM17.6605 30.3961H13.585V32.9433H17.6605V30.3961ZM22.7548 25.8112V29.3773H20.7171V25.8112H22.7548ZM23.7736 24.7924H19.6982V30.3961H23.7736V24.7924ZM28.868 25.8112V29.3773H26.8302V25.8112H28.868ZM29.8868 24.7924H25.8114V30.3961H29.8868V24.7924ZM34.9811 25.8112V29.3773H32.9434V25.8112H34.9811ZM36 24.7924H31.9245V30.3961H36V24.7924ZM33.4528 18.6792C32.7193 18.6792 32.1181 19.1886 31.9653 19.8712L10.4877 21.7358L10.5692 22.7547L32.0875 20.8801C32.3321 21.3895 32.8517 21.7358 33.4528 21.7358C34.2985 21.7358 34.9811 21.0532 34.9811 20.2075C34.9811 19.3618 34.2985 18.6792 33.4528 18.6792ZM33.4528 20.7169C33.1675 20.7169 32.9434 20.4926 32.9434 20.2075C32.9434 20.014 33.0453 19.8408 33.2083 19.7593C33.2797 19.7185 33.3611 19.6981 33.4528 19.6981C33.514 19.6981 33.5649 19.708 33.6158 19.7284C33.7891 19.7797 33.9113 19.9219 33.9521 20.1055C33.9623 20.1364 33.9623 20.1667 33.9623 20.2075C33.9623 20.4926 33.7382 20.7169 33.4528 20.7169Z" fill="#0D2B49"/>
</svg>
