<svg width="32" height="32" viewBox="0 0 32 32" fill="none" xmlns="http://www.w3.org/2000/svg">
<path d="M24 25.0244V22.5419H25.74L17.5 2.08572L17.27 1.5L16.5 3.06904L7.70001 21.0524H16.5V23.0384H9.92999L8.64001 25.0244H5L6.5 28.5H23.5C25.43 28.5 27 26.9411 27 25.0244H24ZM17.5 4.76706L24.26 21.5489H19.42C18.36 21.5489 17.5 20.7246 17.5 19.702V4.76706ZM17.5 21.8369C18.01 22.2738 18.68 22.5419 19.42 22.5419H23V25.0244H20.86L19.57 23.0384H17.5V21.8369ZM9.29999 20.0594L16.5 5.3329V20.0594H9.29999ZM10.47 24.0314H19.03L19.67 25.0244H9.83002L10.47 24.0314ZM23.5 27.507H7.15997L6.52002 26.0175H25.79C25.4 26.8912 24.52 27.507 23.5 27.507Z" fill="#0D2B49"/>
</svg>
