<svg width="32" height="32" viewBox="0 0 32 32" fill="none" xmlns="http://www.w3.org/2000/svg">
<path d="M26.6355 12.0054C26.3462 11.3565 25.977 10.7374 25.548 10.1582C25.139 9.03014 25.598 8.17164 26.2864 6.86366L26.426 6.59407C26.8351 5.80528 26.9448 5.18615 26.7353 4.70693C26.5258 4.21796 26.0668 4.02784 25.7376 3.93813C25.1191 3.75873 24.5205 3.68853 23.9318 3.70852H23.9218C23.8421 3.67878 23.7722 3.65879 23.7224 3.64856C21.3079 3.07964 19.143 4.26769 17.5767 5.13643C17.3073 5.27585 17.0579 5.41577 16.8184 5.53569C16.5591 5.52546 16.2897 5.51571 16.0303 5.51571C12.4287 5.51571 9.2162 7.03331 7.11113 9.41966C6.96146 9.33971 6.80186 9.25976 6.64226 9.17006C6.80186 8.6806 6.83182 8.17164 6.64226 7.71241C6.44271 7.22295 6.06359 6.8934 5.5348 6.76372C4.51722 6.50437 3.26014 7.04306 2.69146 7.50278L3.31001 8.28133C3.72902 7.94203 4.6868 7.5725 5.29537 7.73191C5.5049 7.78212 5.64459 7.89181 5.72436 8.09169C5.7942 8.27109 5.78421 8.51095 5.72436 8.76055C5.12578 8.53093 4.48726 8.38127 3.84873 8.45098C3.41974 8.49096 3.04062 8.67085 2.80119 8.96043C2.52188 9.29973 2.43206 9.77895 2.55178 10.2279C2.6615 10.6477 2.9309 10.9573 3.32 11.1269C3.54945 11.2366 3.79886 11.2766 4.04828 11.2766C4.44737 11.2766 4.83648 11.1669 5.11579 11.027C5.48493 10.8471 5.88402 10.498 6.19329 10.0583C6.29304 10.1085 6.38285 10.1582 6.47261 10.2084C5.26547 11.8655 4.5571 13.8526 4.5571 15.999C4.5571 18.4551 5.48493 20.7113 7.04129 22.4985L8.33825 27.9703L13.7057 28L14.1547 26.3425C14.7632 26.4327 15.3918 26.4824 16.0303 26.4824C16.4493 26.4824 16.8783 26.4624 17.2874 26.4127L17.6565 27.98L23.0439 27.9498L24.1114 23.4374H24.1214C24.9096 22.7286 25.568 21.9096 26.1167 20.9911H29V12.0054H26.6355ZM4.67682 10.1285C4.35755 10.2879 3.95852 10.3279 3.72902 10.2182C3.6093 10.1685 3.54945 10.0885 3.50956 9.96859C3.4796 9.82868 3.49957 9.68925 3.56942 9.59906C3.63926 9.51911 3.77889 9.45963 3.94854 9.43965C4.01838 9.43965 4.07824 9.42941 4.14808 9.42941C4.50723 9.42941 4.87636 9.51911 5.2455 9.64927C5.07591 9.8589 4.87636 10.0383 4.67682 10.1285ZM24.3608 6.48389L24.5105 6.15483C24.7699 5.59566 24.8796 5.13643 24.8298 4.75715C25.0393 4.78688 25.2488 4.83661 25.4583 4.89657C25.6777 4.95654 25.7875 5.0165 25.8174 5.1062C25.8474 5.16616 25.9072 5.43575 25.548 6.13484L25.3984 6.40443C24.9495 7.26293 24.5404 8.03173 24.4207 8.87024C24.1912 8.63087 23.9518 8.41101 23.7024 8.21162C23.8021 7.68219 24.0615 7.12302 24.3608 6.48389ZM12.9475 27.0016L9.12644 26.9718L8.36821 23.7967C9.72502 24.9048 11.3612 25.7238 13.177 26.1528L12.9475 27.0016ZM22.2557 26.9514L18.4446 26.9816L18.285 26.2728C19.9511 25.9832 21.5075 25.3441 22.8544 24.4256L22.2557 26.9514ZM28.0023 19.9927H25.5381L25.3884 20.2521C25.159 20.6718 24.8896 21.0711 24.5903 21.4503V21.4601L24.5803 21.4703C24.1812 21.9895 23.7224 22.4688 23.2235 22.908H23.2135C21.7869 24.1263 20.001 24.9648 18.0556 25.3041C17.7263 25.3641 17.4071 25.404 17.0679 25.4343C16.7287 25.464 16.3795 25.484 16.0303 25.484C15.4816 25.484 14.9528 25.444 14.4241 25.3743C14.0948 25.3241 13.7656 25.2641 13.4463 25.1944C11.2614 24.6854 9.3459 23.5569 7.9492 22.0295C7.46029 21.5001 7.0313 20.9112 6.69213 20.2823C5.96379 18.9943 5.55477 17.5366 5.55477 15.999C5.55477 10.7671 10.2538 6.51412 16.0303 6.51412C16.3196 6.51412 16.609 6.52387 16.8983 6.54386L17.028 6.55409L17.1477 6.49413C17.3572 6.38444 17.5667 6.27427 17.7862 6.15483C17.876 6.10461 17.9658 6.05489 18.0556 6.00516C19.562 5.1764 21.4476 4.13801 23.4928 4.62698C23.6026 4.64697 23.6924 4.67719 23.7423 4.70693C23.7822 4.73667 23.8121 4.75714 23.8321 4.78688C23.8421 4.82686 23.9218 5.05647 23.6126 5.73508L23.453 6.06464C23.0639 6.8934 22.7346 7.60223 22.6747 8.39102L22.6548 8.66061L22.8643 8.83026C24.1912 9.84867 25.2189 11.1869 25.8474 12.6942L25.9671 13.0038H28.0023V19.9927ZM23.5128 13.7526C23.5128 14.1662 23.1778 14.5014 22.7646 14.5014C22.3513 14.5014 22.0163 14.1662 22.0163 13.7526C22.0163 13.3391 22.3513 13.0038 22.7646 13.0038C23.1778 13.0038 23.5128 13.3391 23.5128 13.7526ZM27.0047 14.5014V18.4951H26.007V14.5014H27.0047ZM16.1899 7.96201L15.8707 8.91021C15.3818 8.74056 14.7533 8.67085 14.1048 8.72057C13.5062 8.76055 12.9176 8.91021 12.4586 9.13008L12.0296 8.22137C12.6083 7.95178 13.2967 7.77189 14.035 7.72216C14.8132 7.67244 15.5813 7.75239 16.1899 7.96201Z" fill="#0D2B49"/>
</svg>
