<svg width="32" height="32" viewBox="0 0 32 32" fill="none" xmlns="http://www.w3.org/2000/svg">
<path d="M28.5 27H3.5C2.67285 27 2 26.3271 2 25.5V6.5C2 5.67285 2.67285 5 3.5 5H10.1602L13.6602 7.5H28.5C29.3271 7.5 30 8.17285 30 9V25.5C30 26.3271 29.3271 27 28.5 27ZM3.5 6C3.22461 6 3 6.22461 3 6.5V25.5C3 25.7754 3.22461 26 3.5 26H28.5C28.7754 26 29 25.7754 29 25.5V9C29 8.72461 28.7754 8.5 28.5 8.5H13.3398L9.83984 6H3.5ZM9.18195 12.7168L8.72949 13.4209L10.641 14.6499C9.13306 15.8408 8.17358 17.1016 8.09961 17.2012L7.87598 17.5L8.09961 17.7988C8.24219 17.9912 11.6562 22.5 16 22.5C17.6827 22.5 19.2225 21.8213 20.49 20.9814L22.7295 22.4209L23.1039 21.8384L9.18195 12.7168ZM13.8915 16.7393L15.0086 17.4575C15.0079 17.4727 15 17.4849 15 17.5C15 18.0522 15.4477 18.5 16 18.5C16.1633 18.5 16.3112 18.4517 16.4473 18.3823L17.572 19.1055C17.166 19.5029 16.6118 19.75 16 19.75C14.7593 19.75 13.75 18.7407 13.75 17.5C13.75 17.2319 13.8051 16.978 13.8915 16.7393ZM16 21.5C12.7646 21.5 9.96191 18.4756 9.14258 17.5C9.53778 17.0293 10.3973 16.083 11.5414 15.2285L13.0317 16.1865C12.8533 16.5889 12.75 17.0317 12.75 17.5C12.75 19.2949 14.2051 20.75 16 20.75C16.9663 20.75 17.8246 20.3198 18.4199 19.6504L19.5557 20.3809C18.5031 21.0186 17.2872 21.5 16 21.5ZM23.9004 17.2012C23.7578 17.0088 20.3437 12.5 16 12.5C14.6448 12.5 13.3853 12.9434 12.2831 13.5532L13.2463 14.1841C14.0974 13.7754 15.028 13.5 16 13.5C19.2353 13.5 22.0381 16.5244 22.8574 17.5C22.5347 17.8843 21.891 18.5854 21.047 19.2949L21.9301 19.8735C23.1052 18.8442 23.8362 17.8853 23.9004 17.7988L24.124 17.5L23.9004 17.2012ZM16 14.25C15.3316 14.25 14.722 14.4663 14.2082 14.8145L15.1371 15.4229C15.4028 15.3115 15.6942 15.25 16 15.25C17.2269 15.25 18.224 16.2383 18.246 17.46L19.1874 18.0767C19.2223 17.8887 19.25 17.6982 19.25 17.5C19.25 15.7051 17.7949 14.25 16 14.25Z" fill="#0D2B49"/>
</svg>
