<svg width="32" height="32" viewBox="0 0 32 32" fill="none" xmlns="http://www.w3.org/2000/svg">
<path d="M21.873 5.553H7.881V6.553H21.873V5.553Z" fill="#0D2B49"/>
<path d="M18.275 7.84H7.881V8.84H18.275V7.84Z" fill="#0D2B49"/>
<path d="M14.65 10.062H7.881V11.062H14.65V10.062Z" fill="#0D2B49"/>
<path d="M8.379 25.081C8.119 25.081 7.9 24.88 7.882 24.617C7.861 24.342 8.069 24.102 8.344 24.082C8.816 24.047 9.603 23.876 9.875 23.603C10.081 23.435 10.367 23.328 10.666 23.423C10.874 23.488 11.043 23.631 11.17 23.848C11.202 23.835 11.238 23.818 11.279 23.797C11.913 23.455 12.712 23.839 12.801 23.885C13.028 23.981 13.647 24.136 13.929 23.916C14.302 23.679 14.841 23.624 15.241 23.996C15.345 24.092 15.493 24.079 15.493 24.079C15.758 24.03 16.026 24.206 16.077 24.478C16.128 24.749 15.95 25.011 15.679 25.061C15.615 25.074 15.033 25.167 14.561 24.728C13.719 25.347 12.51 24.848 12.374 24.79C12.18 24.695 11.868 24.615 11.751 24.679C11.166 24.992 10.772 24.88 10.668 24.839C10.524 24.783 10.415 24.663 10.371 24.516C10.369 24.51 10.367 24.503 10.365 24.497C9.708 24.974 8.554 25.07 8.414 25.08C8.404 25.08 8.392 25.081 8.379 25.081Z" fill="#0D2B49"/>
<path d="M23.506 13.219C23.376 13.219 23.246 13.267 23.151 13.361L20.301 16.211C20.111 16.401 20.111 16.721 20.301 16.921C20.401 17.011 20.531 17.061 20.661 17.061C20.781 17.061 20.911 17.011 21.011 16.921L23.511 14.421L23.671 14.591L16.461 21.811L16.151 23.941V24.031C16.171 24.151 16.271 24.231 16.381 24.231C16.391 24.231 16.411 24.231 16.431 24.221L18.571 23.921L27.005 15.485L24.931 13.411L24.916 13.397L24.901 13.381L24.891 13.371L24.381 13.881L23.861 13.361C23.766 13.266 23.636 13.219 23.506 13.219ZM17.281 23.091L17.401 22.281L24.891 14.781L25.591 15.481L18.101 22.981L17.281 23.091Z" fill="#0D2B49"/>
<path d="M28.499 13.359C28.499 13.719 28.389 14.059 28.169 14.309C28.169 14.309 28.099 14.379 28.059 14.419L27.709 14.769L27.639 14.699L26.989 14.059L27.419 13.629C27.469 13.549 27.499 13.459 27.499 13.359C27.499 13.089 27.279 12.869 27.009 12.869C26.909 12.869 26.809 12.899 26.739 12.949L26.699 12.979L26.309 13.369L25.659 12.729L25.596 12.664L26.029 12.229C26.289 11.999 26.639 11.869 27.009 11.869C27.829 11.869 28.499 12.529 28.499 13.359Z" fill="#0D2B49"/>
<path d="M26.997 15.847L27.002 15.842L26.997 15.837V15.847Z" fill="#0D2B49"/>
<path d="M26 11.08V3H6V29H26V18.26L27 17.26V30H5V2H27V10.87C26.651 10.87 26.31 10.94 26 11.08Z" fill="#0D2B49"/>
</svg>
