<svg width="32" height="32" viewBox="0 0 32 32" fill="none" xmlns="http://www.w3.org/2000/svg">
<path d="M26 27.5V8.5H21.36C20.07 6.96973 18.15 6 16 6C12.14 6 9 9.14014 9 13C9 13.6899 9.09998 14.3701 9.28998 15H6V27.5H3.5V28.5H28.5V27.5H26ZM16 7C17.79 7 19.4 7.79004 20.5 9.04004C20.91 9.5 21.25 10.0298 21.5 10.6001C21.82 11.3301 22 12.1499 22 13C22 13.8398 21.82 14.6401 21.5 15.3701C21.25 15.9502 20.91 16.48 20.5 16.9502C20.48 16.9697 20.46 17 20.44 17.02C20.01 16.3101 19.43 15.7197 18.75 15.2798C18.51 15.1401 18.26 15.0098 18 14.8999C18.14 14.7798 18.27 14.6499 18.39 14.5C18.79 13.9902 19.03 13.3398 19.03 12.6401C19.03 10.9697 17.67 9.60986 16 9.60986C14.33 9.60986 12.97 10.9697 12.97 12.6401C12.97 13.3398 13.21 13.9902 13.61 14.5C13.73 14.6499 13.86 14.7798 14 14.8999C13.74 15.0098 13.49 15.1401 13.25 15.29C12.57 15.7197 11.99 16.3198 11.57 17.0298C11.55 17 11.52 16.98 11.5 16.9502C11 16.3799 10.61 15.7197 10.35 15C10.12 14.3799 10 13.7002 10 13C10 9.68994 12.69 7 16 7ZM13.97 12.6401C13.97 11.52 14.88 10.6099 16 10.6099C17.12 10.6099 18.03 11.52 18.03 12.6401C18.03 13.48 17.52 14.1899 16.8 14.5C16.77 14.52 16.73 14.54 16.69 14.5498C16.48 14.6299 16.24 14.6699 16 14.6699C15.76 14.6699 15.53 14.6299 15.32 14.5498C15.28 14.54 15.24 14.52 15.21 14.5C14.48 14.2002 13.97 13.48 13.97 12.6401ZM15.25 15.5698C15.49 15.6401 15.74 15.6699 16 15.6699C16.26 15.6699 16.51 15.6401 16.75 15.5698C17.1 15.6299 17.43 15.7402 17.75 15.8901C18.11 16.0498 18.45 16.27 18.75 16.5298C19.13 16.8599 19.45 17.2598 19.69 17.7197C19.4 17.9502 19.08 18.1499 18.75 18.3301C18.43 18.4902 18.1 18.6299 17.75 18.73C17.2 18.9102 16.61 19 16 19C15.39 19 14.8 18.9102 14.25 18.73C13.9 18.6299 13.57 18.4902 13.25 18.3301C12.92 18.1499 12.6 17.9502 12.31 17.7197C12.55 17.2598 12.87 16.8599 13.25 16.5298C13.55 16.27 13.89 16.0498 14.25 15.8901C14.57 15.7402 14.9 15.6299 15.25 15.5698ZM10.5 27.5H7V16H9.67999C9.90002 16.4697 10.17 16.9102 10.5 17.3198V27.5ZM13.25 27.5H11.5V18.3599C12.02 18.7998 12.61 19.1699 13.25 19.4399V27.5ZM17.75 27.5H14.25V19.77C14.81 19.9199 15.4 20 16 20C16.6 20 17.19 19.9199 17.75 19.77V27.5ZM20.5 27.5H18.75V19.4399C19.39 19.1699 19.98 18.7998 20.5 18.3599V27.5ZM25 27.5H21.5V17.3198C22.44 16.1299 23 14.6299 23 13C23 11.73 22.66 10.5298 22.06 9.5H25V27.5Z" fill="#0D2B49"/>
</svg>
