<svg width="32" height="32" viewBox="0 0 32 32" fill="none" xmlns="http://www.w3.org/2000/svg">
<path fill-rule="evenodd" clip-rule="evenodd" d="M30 18.858C29.7938 11.1826 23.6007 5 16 5C8.39925 5 2.20616 11.1826 2 18.858L2.00147 19.8757C2.09614 22.0683 2.68485 24.2027 3.72285 26.1164L3.71918 26.1184L3.85804 26.3629C3.90101 26.4384 3.93897 26.5165 3.98334 26.5915L3.9867 26.5895L4.21987 27L7.68879 24.9645L7.1881 24.0829L4.58953 25.6075C3.6393 23.8488 3.09637 21.8894 3.00285 19.8757H5.98612V18.858H3.00145C3.06061 16.8145 3.57255 14.8868 4.44712 13.1753L7.07735 14.7189L7.57805 13.8373L4.94677 12.2932C5.97994 10.6036 7.37183 9.16842 9.02078 8.09849L10.5595 10.8074L11.4266 10.2985L9.88092 7.57719C11.567 6.66031 13.4757 6.12211 15.4993 6.0436V9.18929H16.5007V6.0436C18.5243 6.12211 20.4329 6.66031 22.119 7.57719L20.5734 10.2985L21.4405 10.8074L22.9792 8.09849C24.628 9.16842 26.02 10.6036 27.0532 12.2932L24.422 13.8373L24.9226 14.7189L27.5528 13.1753C28.4274 14.8868 28.9394 16.8145 28.9985 18.858H26.0139V19.8757H28.9963C28.9033 21.8859 28.3698 23.8369 27.4241 25.5926L24.8223 24.066L24.3217 24.9471L27.7906 26.9826L28.2913 26.1015C29.3241 24.1907 29.9036 22.0653 29.9977 19.8757L30 18.858ZM20 26H12V25H20V26ZM4.90125 15.4094C4.76346 15.3459 4.59937 15.4183 4.55303 15.5623C4.3426 16.2161 4.19363 16.8881 4.10615 17.5787C4.08711 17.7289 4.2093 17.8648 4.36136 17.8648L6.73716 17.8648C6.87542 17.8648 6.9875 17.9765 6.9875 18.1142V20.6281C6.9875 20.7659 6.87542 20.8775 6.73716 20.8775H4.38911C4.23438 20.8775 4.11166 21.0164 4.13548 21.1687C4.28307 22.1125 4.54081 23.0457 4.90297 23.9342C4.96032 24.0749 5.13346 24.1324 5.266 24.0573L13.5266 19.3812L4.90125 15.4094ZM17.7024 18.3738C17.0915 17.4557 15.8398 17.2063 14.9185 17.8249C14.7583 17.9247 14.6181 18.0543 14.4979 18.1941L9.99167 15.9895L9.54103 16.8872L14.0573 19.0821C13.9472 19.5809 14.0373 20.1391 14.3477 20.5882C14.9586 21.5059 16.2003 21.7553 17.1316 21.1469C18.0528 20.5283 18.3132 19.2915 17.7024 18.3738ZM16.5808 20.3091C16.1202 20.6184 15.4893 20.4986 15.1789 20.0397C15.0787 19.8897 15.0287 19.7202 15.0187 19.5507C14.9986 19.2014 15.1588 18.8527 15.4593 18.653H15.4692C15.9399 18.3436 16.5608 18.4635 16.8612 18.9223C17.1716 19.3812 17.0414 19.9998 16.5808 20.3091Z" fill="#0D2B49"/>
</svg>
