<svg width="32" height="32" viewBox="0 0 32 32" fill="none" xmlns="http://www.w3.org/2000/svg">
<path fill-rule="evenodd" clip-rule="evenodd" d="M30 18.858C29.7938 11.1826 23.6007 5 16 5C8.39925 5 2.20616 11.1826 2 18.858L2.00147 19.8757C2.09614 22.0683 2.68485 24.2027 3.72285 26.1164L3.71918 26.1184L3.85804 26.3629C3.90101 26.4384 3.93897 26.5165 3.98334 26.5915L3.9867 26.5895L4.21987 27L7.68879 24.9645L7.1881 24.0829L4.58953 25.6075C3.6393 23.8488 3.09637 21.8894 3.00285 19.8757H5.98612V18.858H3.00145C3.06061 16.8145 3.57255 14.8868 4.44712 13.1753L7.07735 14.7189L7.57805 13.8373L4.94677 12.2932C5.97994 10.6036 7.37183 9.16842 9.02078 8.09849L10.5595 10.8074L11.4266 10.2985L9.88092 7.57719C11.567 6.66031 13.4757 6.12211 15.4993 6.0436V9.18929H16.5007V6.0436C18.5243 6.12211 20.4329 6.66031 22.119 7.57719L20.5734 10.2985L21.4405 10.8074L22.9792 8.09849C24.628 9.16842 26.02 10.6036 27.0532 12.2932L24.422 13.8373L24.9226 14.7189L27.5528 13.1753C28.4274 14.8868 28.9394 16.8145 28.9985 18.858H26.0139V19.8757H28.9963C28.9033 21.8859 28.3698 23.8369 27.4241 25.5926L24.8223 24.066L24.3217 24.9471L27.7906 26.9826L28.2913 26.1015C29.3241 24.1907 29.9036 22.0653 29.9977 19.8757L30 18.858ZM20.0056 25.9758H11.9944V24.9782H20.0056V25.9758ZM14.2075 7.1616C13.2862 7.30091 12.395 7.55031 11.5338 7.89956C11.3936 7.95947 11.3435 8.12898 11.4136 8.25904L12.6654 10.4534C12.7355 10.563 12.6954 10.7228 12.5753 10.7827L10.4122 12.0496C10.2921 12.1193 10.1319 12.0793 10.0618 11.96L8.85007 9.81483C8.77001 9.68526 8.5897 9.64532 8.46954 9.74517C7.74857 10.3336 7.09764 11.0024 6.53687 11.7403C6.44678 11.8602 6.48681 12.0394 6.617 12.1095L8.71989 13.3565C8.84005 13.4164 8.88014 13.566 8.81004 13.6858L7.57835 15.8704C7.50825 15.9903 7.34799 16.0297 7.22783 15.9601L5.15495 14.7433C5.0148 14.6634 4.84452 14.7228 4.78444 14.8729C4.45396 15.7506 4.23369 16.6483 4.1035 17.5762C4.08345 17.7258 4.21364 17.8656 4.36387 17.8656H6.73716C6.87737 17.8656 6.9875 17.9752 6.9875 18.115V20.6187C6.9875 20.7585 6.87737 20.8681 6.73716 20.8681H4.38392C4.23369 20.8681 4.11353 21.0079 4.13357 21.1574C4.28374 22.1253 4.54412 23.0629 4.91462 23.9606C4.96468 24.0902 5.12494 24.1501 5.25512 24.1004L13.2562 20.6586C13.116 20.3396 13.0359 20.0103 13.0159 19.6713C12.9558 18.6035 13.4765 17.5762 14.3577 16.9976L14.4979 16.8977V7.411C14.4979 7.26146 14.3577 7.14163 14.2075 7.1616ZM16.5007 17.567V12.0097H15.4993V17.567C14.637 17.7896 13.9972 18.5631 13.9972 19.4915C13.9972 20.5933 14.8939 21.4867 16 21.4867C17.1061 21.4867 18.0028 20.5933 18.0028 19.4915C18.0028 18.5631 17.363 17.7896 16.5007 17.567ZM16 20.4891C15.4475 20.4891 14.9986 20.0419 14.9986 19.4915C14.9986 18.9411 15.4475 18.4939 16 18.4939C16.5525 18.4939 17.0014 18.9411 17.0014 19.4915C17.0014 20.0419 16.5525 20.4891 16 20.4891Z" fill="#0D2B49"/>
</svg>
