<svg width="32" height="32" viewBox="0 0 32 32" fill="none" xmlns="http://www.w3.org/2000/svg">
<path fill-rule="evenodd" clip-rule="evenodd" d="M30 18.858C29.7938 11.1826 23.6007 5 16 5C8.39925 5 2.20616 11.1826 2 18.858L2.00147 19.8757C2.09614 22.0683 2.68485 24.2027 3.72285 26.1164L3.71918 26.1184L3.85804 26.3629C3.90101 26.4384 3.93897 26.5165 3.98334 26.5915L3.9867 26.5895L4.21987 27L7.68879 24.9645L7.1881 24.0829L4.58953 25.6075C3.6393 23.8488 3.09637 21.8894 3.00285 19.8757H5.98612V18.858H3.00145C3.06061 16.8145 3.57255 14.8868 4.44712 13.1753L7.07735 14.7189L7.57805 13.8373L4.94677 12.2932C5.97994 10.6036 7.37183 9.16842 9.02078 8.09849L10.5595 10.8074L11.4266 10.2985L9.88092 7.57719C11.567 6.66031 13.4757 6.12211 15.4993 6.0436V9.18929H16.5007V6.0436C18.5243 6.12211 20.4329 6.66031 22.119 7.57719L20.5734 10.2985L21.4405 10.8074L22.9792 8.09849C24.628 9.16842 26.02 10.6036 27.0532 12.2932L24.422 13.8373L24.9226 14.7189L27.5528 13.1753C28.4274 14.8868 28.9394 16.8145 28.9985 18.858H26.0139V19.8757H28.9963C28.9033 21.8859 28.3698 23.8369 27.4241 25.5926L24.8223 24.066L24.3217 24.9471L27.7906 26.9826L28.2913 26.1015C29.3241 24.1907 29.9036 22.0653 29.9977 19.8757L30 18.858ZM20.0056 25.9986H12.0056V25.001H20.0056V25.9986ZM27.6061 20.8716H25.2628C25.1226 20.8716 25.0125 20.7615 25.0125 20.6222V18.1083C25.0125 17.9685 25.1226 17.8589 25.2628 17.8589H27.6361C27.7864 17.8589 27.9165 17.7288 27.8965 17.5696C27.7663 16.6416 27.546 15.7439 27.2156 14.8759C27.1555 14.7264 26.9752 14.6665 26.8451 14.7463L25.4331 15.5744L24.5518 16.0932L23.19 13.6889C23.1199 13.569 23.1599 13.4195 23.2801 13.3498L25.383 12.1126C25.5132 12.0327 25.5532 11.8632 25.4631 11.7434C24.8923 11.0054 24.2514 10.3371 23.5405 9.74823C23.4203 9.64886 23.23 9.67858 23.1499 9.81837L21.9382 11.9631C21.8681 12.0829 21.7079 12.1228 21.5878 12.0527L19.4247 10.7858C19.3146 10.7161 19.2746 10.5666 19.3346 10.4467L20.5864 8.25187C20.6565 8.1223 20.5964 7.95279 20.4562 7.89288C19.605 7.54363 18.7138 7.30446 17.7925 7.16466C17.6423 7.14469 17.5021 7.26452 17.5021 7.41406V9.9382C17.5021 10.0775 17.3919 10.1876 17.2517 10.1876H14.7483C14.6081 10.1876 14.4979 10.0775 14.4979 9.9382V7.41406C14.4979 7.26452 14.3577 7.14469 14.2075 7.16466C13.2862 7.30446 12.395 7.54363 11.5438 7.89288C11.4036 7.95279 11.3435 8.1223 11.4136 8.25187L12.6654 10.4467C12.7254 10.5666 12.6854 10.7161 12.5753 10.7858L10.4122 12.0527C10.2921 12.1228 10.1319 12.0829 10.0618 11.9631L8.85007 9.81837C8.77001 9.67858 8.57974 9.64886 8.45952 9.74823C7.74857 10.3371 7.10767 11.0054 6.53687 11.7434C6.44678 11.8632 6.48681 12.0327 6.617 12.1126L8.71989 13.3498C8.84005 13.4195 8.88014 13.569 8.81004 13.6889L7.56833 15.8735C7.50825 15.9933 7.34799 16.0333 7.22783 15.9636L5.15495 14.7463C5.02476 14.6665 4.84452 14.7264 4.78444 14.8759C4.45396 15.7439 4.23369 16.6416 4.1035 17.5696C4.08345 17.7288 4.21364 17.8589 4.36387 17.8589H6.73716C6.87737 17.8589 6.9875 17.9685 6.9875 18.1083V20.6222C6.9875 20.7615 6.87737 20.8716 6.73716 20.8716H4.39388C4.23369 20.8716 4.11353 21.0109 4.13357 21.1609C4.28374 22.1283 4.55414 23.066 4.91462 23.9637C4.9747 24.0938 5.12494 24.1537 5.25512 24.0938L12.9958 20.0036V19.9237C12.9958 18.2778 14.3477 16.931 16 16.931C17.6523 16.931 19.0042 18.2778 19.0042 19.9237V19.9934L26.7549 24.0835C26.8851 24.1337 27.0453 24.0738 27.0954 23.9442C27.4559 23.0562 27.7163 22.1186 27.8664 21.1609C27.8865 21.0109 27.7663 20.8716 27.6061 20.8716ZM21.4876 22.2179L21.017 23.0962L17.5021 21.2403C17.3518 21.4201 17.1616 21.5696 16.9513 21.6792C16.8912 21.7094 16.8412 21.7391 16.7811 21.7591C16.721 21.7893 16.6609 21.8093 16.5908 21.8292C16.4105 21.8892 16.2103 21.9189 16 21.9189C14.8985 21.9189 13.9972 21.0309 13.9972 19.9237C13.9972 18.8263 14.8985 17.9286 16 17.9286C17.1015 17.9286 18.0028 18.8263 18.0028 19.9237C18.0028 20.0635 17.9928 20.2033 17.9627 20.3426L21.4876 22.2179ZM17.0014 19.9237C17.0014 19.3752 16.5507 18.9261 16 18.9261C15.4492 18.9261 14.9986 19.3752 14.9986 19.9237C14.9986 20.4722 15.4492 20.9213 16 20.9213C16.5507 20.9213 17.0014 20.4722 17.0014 19.9237Z" fill="#0D2B49"/>
</svg>
