<svg width="32" height="32" viewBox="0 0 32 32" fill="none" xmlns="http://www.w3.org/2000/svg">
<path fill-rule="evenodd" clip-rule="evenodd" d="M20 25.9988H12V25.0012H20V25.9988ZM25.4631 11.7434C24.9024 11.0054 24.2514 10.3371 23.5405 9.74823C23.4203 9.64886 23.23 9.67858 23.1499 9.81837L21.9382 11.9631C21.8681 12.0829 21.7079 12.1228 21.5878 12.0527L19.4247 10.7858C19.3146 10.7161 19.2746 10.5666 19.3346 10.4467L20.5864 8.25187C20.6565 8.1223 20.5964 7.95279 20.4562 7.89288C19.605 7.54363 18.7138 7.30446 17.7925 7.16466C17.6423 7.14469 17.5021 7.26452 17.5021 7.41406V9.9382C17.5021 10.0775 17.3919 10.1876 17.2517 10.1876H14.7483C14.6081 10.1876 14.4979 10.0775 14.4979 9.9382V7.41406C14.4979 7.26452 14.3577 7.14469 14.2075 7.16466C13.2862 7.30446 12.395 7.54363 11.5438 7.89288C11.4036 7.95279 11.3435 8.1223 11.4136 8.25187L12.6654 10.4467C12.7254 10.5666 12.6854 10.7161 12.5753 10.7858L10.4122 12.0527C10.2921 12.1228 10.1319 12.0829 10.0618 11.9631L8.85007 9.81837C8.77001 9.67858 8.57974 9.64886 8.45952 9.74823C7.74857 10.3371 7.10767 11.0054 6.53687 11.7434C6.44678 11.8632 6.48681 12.0327 6.617 12.1126L8.71989 13.3498C8.84005 13.4195 8.88014 13.569 8.81004 13.6889L7.56833 15.8735C7.50825 15.9933 7.34799 16.0333 7.22783 15.9636L5.15495 14.7463C5.02476 14.6665 4.84452 14.7264 4.78444 14.8759C4.45396 15.7439 4.23369 16.6416 4.1035 17.5696C4.08345 17.7288 4.21364 17.8589 4.36387 17.8589H6.73716C6.87737 17.8589 6.9875 17.9685 6.9875 18.1083V20.6222C6.9875 20.7615 6.87737 20.8716 6.73716 20.8716H4.39388C4.23369 20.8716 4.11353 21.0109 4.13357 21.1609C4.28374 22.1186 4.54412 23.046 4.9046 23.934C4.96468 24.0738 5.13496 24.1337 5.26515 24.0538C6.16636 23.5151 9.38084 21.6096 12.9958 19.4746V19.4649C12.9958 17.819 14.3477 16.4721 16 16.4721C16.5107 16.4721 17.0014 16.6017 17.432 16.8311C21.1471 14.6265 24.4817 12.6513 25.393 12.1126C25.5232 12.0327 25.5532 11.8632 25.4631 11.7434ZM17.8668 18.7571C17.9512 18.9778 18.0028 19.2145 18.0028 19.4649C18.0028 20.5667 17.1061 21.46 16 21.46C14.8939 21.46 13.9972 20.5667 13.9972 19.4649C13.9972 18.363 14.8939 17.4697 16 17.4697C16.4904 17.4697 16.9337 17.6519 17.2818 17.9437L22.141 15.0128L22.6596 15.8657L17.8668 18.7571ZM17.0014 19.4649C17.0014 18.9144 16.5525 18.4673 16 18.4673C15.4475 18.4673 14.9986 18.9144 14.9986 19.4649C14.9986 20.0153 15.4475 20.4624 16 20.4624C16.5525 20.4624 17.0014 20.0153 17.0014 19.4649ZM30 18.858C29.7938 11.1826 23.6007 5 16 5C8.39925 5 2.20616 11.1826 2 18.858L2.00147 19.8757C2.09614 22.0683 2.68485 24.2027 3.72285 26.1164L3.71918 26.1184L3.85804 26.3629C3.90101 26.4384 3.93897 26.5165 3.98334 26.5915L3.9867 26.5895L4.21987 27L7.68879 24.9645L7.1881 24.0829L4.58953 25.6075C3.6393 23.8488 3.09637 21.8894 3.00285 19.8757H5.98612V18.858H3.00145C3.06061 16.8145 3.57255 14.8868 4.44712 13.1753L7.07735 14.7189L7.57805 13.8373L4.94677 12.2932C5.97994 10.6036 7.37183 9.16842 9.02078 8.09849L10.5595 10.8074L11.4266 10.2985L9.88092 7.57719C11.567 6.66031 13.4757 6.12211 15.4993 6.0436V9.18929H16.5007V6.0436C18.5243 6.12211 20.4329 6.66031 22.119 7.57719L20.5734 10.2985L21.4405 10.8074L22.9792 8.09849C24.628 9.16842 26.02 10.6036 27.0532 12.2932L24.422 13.8373L24.9226 14.7189L27.5528 13.1753C28.4274 14.8868 28.9394 16.8145 28.9985 18.858H26.0139V19.8757H28.9963C28.9033 21.8859 28.3698 23.8369 27.4241 25.5926L24.8223 24.066L24.3217 24.9471L27.7906 26.9826L28.2913 26.1015C29.3241 24.1907 29.9036 22.0653 29.9977 19.8757L30 18.858Z" fill="#0D2B49"/>
</svg>
