<svg width="32" height="32" viewBox="0 0 32 32" fill="none" xmlns="http://www.w3.org/2000/svg">
<path fill-rule="evenodd" clip-rule="evenodd" d="M20.0056 25.9973H11.9944V24.9945H20.0056V25.9973ZM30 18.858C29.7938 11.1826 23.6007 5 16 5C8.39925 5 2.20616 11.1826 2 18.858L2.00147 19.8757C2.09614 22.0683 2.68485 24.2027 3.72285 26.1164L3.71918 26.1184L3.85804 26.3629C3.90101 26.4384 3.93897 26.5165 3.98334 26.5915L3.9867 26.5895L4.21987 27L7.68879 24.9645L7.1881 24.0829L4.58953 25.6075C3.6393 23.8488 3.09637 21.8894 3.00285 19.8757H5.98612V18.858H3.00145C3.06061 16.8145 3.57255 14.8868 4.44712 13.1753L7.07735 14.7189L7.57805 13.8373L4.94677 12.2932C5.97994 10.6036 7.37183 9.16842 9.02078 8.09849L10.5595 10.8074L11.4266 10.2985L9.88092 7.57719C11.567 6.66031 13.4757 6.12211 15.4993 6.0436V9.18929H16.5007V6.0436C18.5243 6.12211 20.4329 6.66031 22.119 7.57719L20.5734 10.2985L21.4405 10.8074L22.9792 8.09849C24.628 9.16842 26.02 10.6036 27.0532 12.2932L24.422 13.8373L24.9226 14.7189L27.5528 13.1753C28.4274 14.8868 28.9394 16.8145 28.9985 18.858H26.0139V19.8757H28.9963C28.9033 21.8859 28.3698 23.8369 27.4241 25.5926L24.8223 24.066L24.3217 24.9471L27.7906 26.9826L28.2913 26.1015C29.3241 24.1907 29.9036 22.0653 29.9977 19.8757L30 18.858ZM18.0028 19.4782C18.0028 20.5854 17.1015 21.4831 16 21.4831C15.4492 21.4831 14.9385 21.2542 14.578 20.885L10.242 23.4189L9.74132 22.5606L14.0774 20.0267C14.0273 19.8572 13.9972 19.6677 13.9972 19.4782C13.9972 18.3711 14.8985 17.4733 16 17.4733C17.1015 17.4733 18.0028 18.3711 18.0028 19.4782ZM17.0014 19.4782C17.0014 18.9298 16.5507 18.4709 16 18.4709C15.4492 18.4709 14.9986 18.9298 14.9986 19.4782V19.488C14.9986 19.8572 15.1989 20.1767 15.4993 20.3462C15.6495 20.4359 15.8198 20.4855 16 20.4855C16.5507 20.4855 17.0014 20.0369 17.0014 19.4782Z" fill="#0D2B49"/>
</svg>
