<svg width="32" height="32" viewBox="0 0 32 32" fill="none" xmlns="http://www.w3.org/2000/svg">
<path d="M29.494 23.6379C29.304 23.6379 28.694 23.5479 28.694 22.6879C28.694 21.8179 29.304 21.7379 29.494 21.7379C29.624 21.7379 29.754 21.6779 29.844 21.5879C29.934 21.4979 29.994 21.3679 29.994 21.2379V19.6779C29.994 19.4079 29.764 19.1879 29.494 19.1779C29.304 19.1779 28.694 19.0979 28.694 18.2279C28.694 17.3579 29.304 17.2779 29.494 17.2679C29.764 17.2679 29.994 17.0479 29.994 16.7679V15.2379C29.994 14.9679 29.764 14.7379 29.494 14.7379C29.304 14.7279 28.694 14.6479 28.694 13.7779C28.694 12.9179 29.304 12.8379 29.494 12.8279C29.764 12.8279 29.994 12.6079 29.994 12.3279V10.7779C29.994 10.5079 29.764 10.2779 29.494 10.2779C29.304 10.2679 28.694 10.1879 28.694 9.32791C28.694 8.45791 29.304 8.36791 29.494 8.36791C29.764 8.36791 29.994 8.14791 29.994 7.86791L30.004 5.50791C30.004 5.23791 29.784 5.00791 29.504 5.00791L28.604 4.99791C28.594 4.99791 28.594 4.99791 28.594 4.99791C28.324 4.99791 28.104 5.21791 28.094 5.48791C28.094 5.67791 28.004 6.29791 27.104 6.29791C26.274 6.29791 26.194 5.67791 26.184 5.49791C26.184 5.21791 25.964 4.99791 25.684 4.99791H24.134C23.864 4.99791 23.644 5.21791 23.634 5.48791C23.624 5.67791 23.544 6.29791 22.674 6.29791C21.814 6.29791 21.734 5.67791 21.724 5.49791C21.724 5.36791 21.674 5.23791 21.574 5.14791C21.484 5.04791 21.354 4.99791 21.224 4.99791H19.674C19.404 4.99791 19.184 5.21791 19.174 5.48791C19.164 5.67791 19.084 6.29791 18.224 6.29791C17.354 6.29791 17.274 5.67791 17.264 5.49791C17.264 5.21791 17.044 4.99791 16.764 4.99791H15.224C14.954 4.99791 14.724 5.21791 14.724 5.49791C14.724 5.62791 14.684 6.29791 13.774 6.29791C12.904 6.29791 12.824 5.67791 12.824 5.49791C12.824 5.21791 12.594 4.99791 12.324 4.99791H10.764C10.634 4.99791 10.504 5.04791 10.414 5.14791C10.324 5.23791 10.264 5.36791 10.264 5.49791C10.264 5.49791 10.254 5.70791 10.154 5.90791C10.004 6.16791 9.73402 6.29791 9.31402 6.29791C8.44402 6.29791 8.36402 5.67791 8.35402 5.49791C8.35402 5.21791 8.13402 4.99791 7.85402 4.99791H6.30402C6.03402 4.99791 5.80402 5.21791 5.80402 5.49791C5.80402 5.62791 5.76402 6.29791 4.88402 6.29791C3.98402 6.29791 3.90402 5.67791 3.89402 5.49791C3.89402 5.36791 3.84402 5.23791 3.75402 5.13791C3.65402 5.04791 3.55402 4.98791 3.39402 4.99791L2.49402 5.00791C2.21402 5.00791 1.99402 5.23791 1.99402 5.50791V7.86791C1.99402 8.13791 2.22402 8.35791 2.49402 8.36791C2.68402 8.36791 3.29402 8.45791 3.29402 9.32791C3.29402 10.1879 2.68402 10.2679 2.49402 10.2779C2.36402 10.2779 2.23402 10.3279 2.14402 10.4179C2.05402 10.5179 1.99402 10.6379 1.99402 10.7779V12.3279C1.99402 12.5979 2.22402 12.8179 2.49402 12.8279C2.68402 12.8379 3.29402 12.9179 3.29402 13.7779C3.29402 14.6479 2.68402 14.7279 2.49402 14.7379C2.22402 14.7379 1.99402 14.9579 1.99402 15.2379V16.7679C1.99402 17.0479 2.22402 17.2679 2.49402 17.2679C2.57402 17.2679 2.79402 17.2779 2.98402 17.4379C3.15402 17.5779 3.29402 17.8079 3.29402 18.2279C3.29402 19.0979 2.68402 19.1779 2.49402 19.1779C2.22402 19.1779 1.99402 19.4079 1.99402 19.6779V21.2379C1.99402 21.5079 2.22402 21.7279 2.49402 21.7379C2.68402 21.7379 3.29402 21.8179 3.29402 22.6879C3.29402 23.5479 2.68402 23.6379 2.49402 23.6379C2.22402 23.6379 1.99402 23.8679 1.99402 24.1379V26.4879C1.99402 26.7679 2.21402 26.9879 2.49402 26.9879L3.39402 26.9979C3.63402 26.9979 3.89402 26.7779 3.89402 26.5079C3.90402 26.3179 3.98402 25.6979 4.88402 25.6979C5.72402 25.6979 5.80402 26.3179 5.80402 26.5079C5.80402 26.7779 6.03402 26.9979 6.30402 26.9979H7.85402C8.13402 26.9979 8.35402 26.7779 8.35402 26.5079C8.36402 26.3179 8.44402 25.6979 9.31402 25.6979C10.184 25.6979 10.264 26.3179 10.264 26.4979C10.264 26.6379 10.324 26.7579 10.414 26.8579C10.504 26.9479 10.634 26.9979 10.764 26.9979H12.324C12.594 26.9979 12.814 26.7779 12.824 26.5079C12.824 26.3579 12.874 25.9379 13.324 25.7779C13.444 25.7279 13.594 25.6979 13.774 25.6979C14.644 25.6979 14.724 26.3179 14.724 26.5079C14.724 26.7779 14.954 26.9979 15.224 26.9979H16.764C17.034 26.9979 17.254 26.7779 17.264 26.5079C17.274 26.3179 17.354 25.6979 18.224 25.6979C19.084 25.6979 19.164 26.3179 19.174 26.5079C19.174 26.7779 19.394 26.9979 19.674 26.9979H21.224C21.494 26.9979 21.724 26.7779 21.724 26.5079C21.734 26.3179 21.814 25.6979 22.674 25.6979C23.544 25.6979 23.624 26.3179 23.634 26.5079C23.634 26.7779 23.854 26.9979 24.134 26.9979H25.684C25.954 26.9979 26.184 26.7779 26.184 26.5079C26.194 26.3179 26.274 25.6979 27.104 25.6979C28.004 25.6979 28.094 26.3179 28.094 26.4979C28.094 26.6379 28.144 26.7679 28.244 26.8579C28.334 26.9479 28.444 26.9979 28.604 26.9979L29.504 26.9879C29.784 26.9879 30.004 26.7679 30.004 26.4879L29.994 24.1379C29.994 23.8679 29.764 23.6479 29.494 23.6379ZM12.424 25.1679C12.154 25.3979 11.984 25.7079 11.894 25.9979H11.184C11.154 25.8779 11.094 25.7479 11.024 25.6079C10.694 25.0279 10.094 24.6979 9.31402 24.6979C8.19402 24.6979 7.62402 25.3679 7.43402 25.9979H6.73402C6.54402 25.3679 5.99402 24.6979 4.88402 24.6979C3.70402 24.6979 3.19402 25.3879 2.99402 25.9579V24.5679C3.63402 24.3779 4.29402 23.8079 4.29402 22.6879C4.29402 22.0879 4.12402 21.6079 3.77402 21.2579C3.52402 21.0179 3.23402 20.8879 2.99402 20.8179V20.1079C3.63402 19.9179 4.29402 19.3479 4.29402 18.2279C4.29402 17.7779 4.18402 17.4079 4.01402 17.1279C4.47402 17.0379 4.95402 16.9879 5.44402 16.9879C5.54402 16.9879 5.65402 16.9879 5.75402 17.0079V22.9979H12.424C12.484 23.3479 12.514 23.7079 12.514 24.0679C12.514 24.4479 12.484 24.8179 12.424 25.1679ZM6.75402 21.9979V17.1079C9.34402 17.5979 11.444 19.5079 12.204 21.9979H6.75402ZM13.244 21.9979C12.444 18.9479 9.90402 16.6079 6.75402 16.0979V9.99791H25.254V21.9979H13.244ZM27.104 24.6979C26.004 24.6979 25.444 25.3679 25.264 25.9979H24.554C24.364 25.3679 23.804 24.6979 22.674 24.6979C22.084 24.6979 21.604 24.8779 21.254 25.2279C21.004 25.4779 20.874 25.7679 20.804 25.9979H20.094C19.904 25.3679 19.344 24.6979 18.224 24.6979C17.094 24.6979 16.534 25.3679 16.344 25.9979H15.654C15.464 25.3679 14.894 24.6979 13.774 24.6979C13.674 24.6979 13.574 24.7079 13.484 24.7179C13.504 24.4979 13.514 24.2879 13.514 24.0679C13.514 23.7079 13.494 23.3479 13.444 22.9979H26.254V8.99791H5.75402V15.9979C5.65402 15.9879 5.54402 15.9879 5.44402 15.9879C4.60402 15.9879 3.78402 16.1179 3.02402 16.3579C3.01402 16.3579 3.00402 16.3479 2.99402 16.3479V15.6579C3.63402 15.4679 4.29402 14.9079 4.29402 13.7779C4.29402 12.6579 3.63402 12.0979 2.99402 11.9079V11.1979C3.23402 11.1279 3.52402 10.9979 3.77402 10.7479C4.12402 10.3979 4.29402 9.91791 4.29402 9.32791C4.29402 8.19791 3.63402 7.63791 2.99402 7.44791V6.04791C3.19402 6.60791 3.70402 7.29791 4.88402 7.29791C5.99402 7.29791 6.54402 6.62791 6.73402 5.99791H7.43402C7.62402 6.62791 8.19402 7.29791 9.31402 7.29791C10.094 7.29791 10.694 6.97791 11.024 6.38791C11.094 6.25791 11.154 6.11791 11.184 5.99791H11.894C12.084 6.62791 12.644 7.29791 13.774 7.29791C14.894 7.29791 15.464 6.62791 15.654 5.99791H16.344C16.534 6.62791 17.094 7.29791 18.224 7.29791C19.344 7.29791 19.904 6.62791 20.094 5.99791H20.804C20.874 6.23791 21.004 6.51791 21.254 6.76791C21.604 7.11791 22.084 7.29791 22.674 7.29791C23.804 7.29791 24.364 6.62791 24.554 5.99791H25.264C25.444 6.62791 26.004 7.29791 27.104 7.29791C28.304 7.29791 28.814 6.59791 29.004 6.02791L28.994 7.44791C28.354 7.63791 27.694 8.19791 27.694 9.32791C27.694 9.91791 27.864 10.3979 28.214 10.7479C28.464 10.9979 28.754 11.1279 28.994 11.1979V11.9079C28.354 12.0979 27.694 12.6579 27.694 13.7779C27.694 14.9079 28.354 15.4679 28.994 15.6579V16.3479C28.354 16.5379 27.694 17.0979 27.694 18.2279C27.694 19.3479 28.354 19.9179 28.994 20.1079V20.8179C28.754 20.8879 28.464 21.0179 28.214 21.2579C27.864 21.6079 27.694 22.0879 27.694 22.6879C27.694 23.8079 28.354 24.3779 28.994 24.5679L29.004 25.9679C28.814 25.3979 28.304 24.6979 27.104 24.6979Z" fill="#0D2B49"/>
<path d="M19.922 14.5549C19.713 14.4449 19.479 14.3209 19.2 14.1979C17.555 13.4669 16.469 14.5589 15.946 15.0849L16.655 15.7899C17.269 15.1719 17.854 14.6959 18.796 15.1119C19.05 15.2239 19.263 15.3389 19.453 15.4389C19.925 15.6889 20.314 15.8739 20.762 15.8739C21.24 15.8739 21.783 15.6629 22.565 15.0959L21.977 14.2869C20.896 15.0699 20.689 14.9619 19.922 14.5549Z" fill="#0D2B49"/>
<path d="M19.922 11.9799C19.713 11.8699 19.479 11.7459 19.2 11.6229C17.555 10.8919 16.469 11.9839 15.946 12.5099L16.655 13.2149C17.269 12.5969 17.854 12.1209 18.796 12.5369C19.05 12.6489 19.263 12.7639 19.453 12.8639C19.925 13.1139 20.314 13.2989 20.762 13.2989C21.24 13.2989 21.783 13.0879 22.565 12.5209L21.977 11.7119C20.896 12.4959 20.689 12.3869 19.922 11.9799Z" fill="#0D2B49"/>
</svg>
