<svg width="32" height="32" viewBox="0 0 32 32" fill="none" xmlns="http://www.w3.org/2000/svg">
<path d="M28.5 26.5H27V28.5H26V26.5H24V28.5H23V26.5H21V28.5H20V26.5H18V28.5H17V26.5H15V28.5H14V26.5H12V28.5H11V26.5H9V28.5H8V26.5H6V28.5H5V26.5H3.5V25.5H5V23.5H3.5V22.5H5V20.5H3.5V19.5H5V17.5H3.5V16.5H5V14.5H3.5V13.5H5V11.5H3.5V10.5H5V8.5H3.5V7.5H5V5.5H3.5V4.5H5V3H6V25.5H28.5V26.5ZM13.1367 13.8437L16 16.707L20.1719 12.5352L23.2822 13.0537L26.9473 5.72363L26.0527 5.27637L22.7178 11.9463L19.8281 11.4648L16 15.293L12.8633 12.1562L7.05273 23.7764L7.94727 24.2236L13.1367 13.8437Z" fill="#0D2B49"/>
</svg>
