<svg width="32" height="32" viewBox="0 0 32 32" fill="none" xmlns="http://www.w3.org/2000/svg">
<path d="M27.44 7.50994C27.42 7.25994 27.23 7.04998 26.99 7.02996C26.79 7.00994 21.96 6.58001 13.34 9.64007C11.06 10.4399 7.01001 14.08 7.95001 22.0297L7.96002 22.1498C6.90002 22.7699 5.75 23.4198 4.5 24.1L4.96997 24.9999C10.56 21.9799 14.25 19.4799 16.47 17.8198C15.08 19.62 13.06 21.81 10.76 22.9599C10.56 23.06 10.45 23.2699 10.48 23.4902C10.51 23.7099 10.67 23.8798 10.88 23.9198C11.19 23.9799 18.41 25.31 23.29 20.9199C26.42 18.1 27.82 13.5898 27.44 7.50994ZM22.63 20.1498C19.39 23.0698 14.87 23.2299 12.55 23.08C16.44 20.4501 19.18 15.6799 19.31 15.4499C19.44 15.2299 19.39 14.9499 19.19 14.8C18.99 14.6401 18.71 14.6498 18.53 14.83C18.5 14.8598 15.74 17.5199 8.90997 21.5898C8.17999 14.5099 11.69 11.31 13.67 10.6C20.63 8.12981 25.12 7.98992 26.46 8.02996C26.72 13.54 25.44 17.62 22.63 20.1498Z" fill="#0D2B49"/>
</svg>
