<svg width="32" height="32" viewBox="0 0 32 32" fill="none" xmlns="http://www.w3.org/2000/svg">
<path d="M28.44 12.8C28.42 12.55 28.23 12.3501 27.99 12.3301C27.88 12.32 26.38 12.1899 23.64 12.57C23.74 5.39011 17.5 2.57005 17.43 2.54002C17.26 2.45994 17.05 2.49998 16.91 2.62986C15.06 4.27 13.19 8.57005 12.41 10.53C9.90998 7.39988 6.24 6.94993 6.19001 6.93992C5.96998 6.90989 5.75001 7.05003 5.66999 7.25999C1.01001 19.3799 4.68 22.3301 8.90003 24.26C8.87 25.1299 8.90003 26.07 9.03003 27.0801L8.96998 27.23C7.93 27.8301 6.79999 28.4599 5.59003 29.1098L6.04999 30C11.62 27.03 15.3 24.5801 17.51 22.9399C16.13 24.7099 14.11 26.8598 11.82 28C11.63 28.0898 11.52 28.3 11.55 28.51C11.57 28.73 11.74 28.8999 11.95 28.9399C12.25 29 19.45 30.31 24.3 25.99C27.42 23.2099 28.81 18.78 28.44 12.8ZM17.33 3.60984C18.52 4.22996 22.82 6.89011 22.65 12.7199C21.44 12.9199 20.03 13.2199 18.43 13.6401C18.51 13.0801 18.54 12.3398 18.55 11.6001L20.79 10.3398L20.3 9.45994L18.56 10.4399C18.55 9.46995 18.52 8.67991 18.52 8.60984L17.52 8.64988C17.57 9.75999 17.62 12.8501 17.38 13.9099L17.44 13.9199C16.48 14.1899 15.47 14.52 14.4 14.8901C14.39 14.8901 14.39 14.8999 14.38 14.8999C14.11 13.56 13.66 12.4399 13.09 11.52C13.58 10.27 15.5 5.48997 17.33 3.60984ZM8.96998 23.1799C5.25001 21.4099 2.45002 18.6699 6.46003 8.00999C7.81 8.28001 12.41 9.64988 13.46 15.3301C12.64 15.81 11.72 16.5898 10.93 17.7099L8.68 14.2199L7.84003 14.77L10.34 18.6499C9.68 19.8501 9.16999 21.3398 8.96998 23.1799ZM23.65 25.23C20.42 28.1098 15.9 28.25 13.61 28.1098C17.48 25.53 20.22 20.8301 20.34 20.6098C20.47 20.3999 20.42 20.1201 20.22 19.9699C20.02 19.81 19.75 19.82 19.57 20C19.54 20.03 16.78 22.6499 9.97999 26.6499C9.25001 19.6799 12.75 16.53 14.72 15.8398C21.66 13.4099 26.11 13.28 27.47 13.31C27.73 18.73 26.44 22.74 23.65 25.23Z" fill="#0D2B49"/>
</svg>
