<svg width="32" height="32" viewBox="0 0 32 32" fill="none" xmlns="http://www.w3.org/2000/svg">
<path d="M27.44 12.49C27.42 12.24 27.23 12.03 26.99 12.01C26.88 12 25.37 11.8701 22.62 12.25C22.73 4.94993 16.46 2.07005 16.39 2.04002C16.21 1.95994 16.01 1.99998 15.86 2.12986C13.61 4.15989 11.31 10.1299 10.98 11.1499C10.3 13.24 10.46 15.9599 10.51 16.6599C8.79999 18.6098 7.34998 21.9199 7.95001 27.03L7.96002 27.1499C6.90002 27.77 5.75 28.4199 4.5 29.1001L4.96997 30C10.56 26.9699 14.25 24.48 16.47 22.81C15.08 24.6201 13.06 26.81 10.76 27.9599C10.56 28.06 10.45 28.27 10.48 28.49C10.51 28.7099 10.67 28.8799 10.88 28.9199C11.19 28.98 18.41 30.31 23.29 25.9199C26.42 23.0898 27.82 18.57 27.44 12.49ZM11.93 11.4699C12.34 10.1999 14.42 5.07005 16.29 3.12986C17.48 3.75999 21.8 6.46995 21.63 12.4099C20.41 12.6098 19 12.9099 17.4 13.3501C17.61 11.6599 17.49 8.37986 17.48 8.21995L16.48 8.25999C16.53 9.39011 16.58 12.54 16.34 13.6098L16.39 13.6299C15.44 13.9099 14.42 14.24 13.34 14.6201C12.79 14.81 12.13 15.1799 11.47 15.73C11.44 14.6401 11.47 12.8701 11.93 11.4699ZM22.63 25.1401C19.39 28.07 14.87 28.23 12.55 28.0801C16.44 25.4499 19.18 20.6699 19.31 20.4399C19.44 20.2199 19.39 19.9399 19.19 19.78C18.99 19.6299 18.71 19.6401 18.53 19.82C18.5 19.8501 15.74 22.51 8.90997 26.5898C8.17999 19.49 11.69 16.29 13.67 15.5898C20.64 13.1098 25.11 12.9699 26.47 13.01C26.72 18.53 25.44 22.6098 22.63 25.1401Z" fill="#0D2B49"/>
</svg>
