<svg width="32" height="32" viewBox="0 0 32 32" fill="none" xmlns="http://www.w3.org/2000/svg">
<path fill-rule="evenodd" clip-rule="evenodd" d="M20.256 12.3201L15.997 12.8511V16.1931H20.256V12.3201ZM15.591 12.9021L11.737 13.3831V16.1931H15.591V12.9021ZM11.737 16.5981V19.4081L15.591 19.8891V16.5981H11.737ZM15.997 16.5981V19.9401L20.256 20.4711V16.5981H15.997Z" fill="#0D2B49"/>
<path d="M7.99701 5.00391V27.0039H23.997V5.00391H7.99701ZM22.997 26.0039H8.99701V6.00391H22.997V26.0039Z" fill="#0D2B49"/>
<path d="M25.617 2.00391H6.38701C5.61701 2.00391 4.99701 2.62391 4.99701 3.38391V28.6139C4.99701 29.3839 5.61701 30.0039 6.38701 30.0039H25.617C26.377 30.0039 26.997 29.3839 26.997 28.6139V3.38391C26.997 2.62391 26.377 2.00391 25.617 2.00391ZM25.997 28.6139C25.997 28.8239 25.827 29.0039 25.617 29.0039H6.38701C6.17701 29.0039 5.99701 28.8239 5.99701 28.6139V3.38391C5.99701 3.17391 6.17701 3.00391 6.38701 3.00391H25.617C25.827 3.00391 25.997 3.17391 25.997 3.38391V28.6139Z" fill="#0D2B49"/>
</svg>
