<svg width="32" height="32" viewBox="0 0 32 32" fill="none" xmlns="http://www.w3.org/2000/svg">
<path d="M7.99701 5.00391V27.0039H23.997V5.00391H7.99701ZM22.997 26.0039H8.99701V6.00391H22.997V26.0039Z" fill="#0D2B49"/>
<path d="M25.617 2.00391H6.38701C5.61701 2.00391 4.99701 2.62391 4.99701 3.38391V28.6139C4.99701 29.3839 5.61701 30.0039 6.38701 30.0039H25.617C26.377 30.0039 26.997 29.3839 26.997 28.6139V3.38391C26.997 2.62391 26.377 2.00391 25.617 2.00391ZM25.997 28.6139C25.997 28.8239 25.827 29.0039 25.617 29.0039H6.38701C6.17701 29.0039 5.99701 28.8239 5.99701 28.6139V3.38391C5.99701 3.17391 6.17701 3.00391 6.38701 3.00391H25.617C25.827 3.00391 25.997 3.17391 25.997 3.38391V28.6139Z" fill="#0D2B49"/>
<path d="M10.77 19.131H21.222C21.069 17.443 20.112 15.979 18.746 15.143L19.719 13.487C19.832 13.294 19.767 13.045 19.574 12.932C19.381 12.827 19.14 12.884 19.019 13.077L18.03 14.765C17.403 14.5 16.711 14.355 15.996 14.355C15.272 14.355 14.581 14.5 13.954 14.765L12.965 13.077C12.852 12.884 12.603 12.82 12.418 12.932C12.225 13.045 12.161 13.294 12.273 13.487L13.246 15.143C11.872 15.979 10.915 17.442 10.77 19.131ZM18.457 16.679C18.763 16.679 19.004 16.928 19.004 17.234C19.004 17.54 18.763 17.789 18.457 17.789C18.151 17.789 17.902 17.54 17.902 17.234C17.902 16.928 18.151 16.679 18.457 16.679ZM13.617 16.679C13.923 16.679 14.164 16.928 14.164 17.234C14.164 17.54 13.923 17.789 13.617 17.789C13.312 17.789 13.062 17.54 13.062 17.234C13.062 16.928 13.311 16.679 13.617 16.679Z" fill="#0D2B49"/>
</svg>
