<svg width="32" height="32" viewBox="0 0 32 32" fill="none" xmlns="http://www.w3.org/2000/svg">
<path fill-rule="evenodd" clip-rule="evenodd" d="M19.461 17.346C19.272 17.77 19.181 17.96 18.938 18.334C18.598 18.857 18.118 19.511 17.525 19.515C16.997 19.52 16.861 19.167 16.144 19.173C15.428 19.176 15.279 19.522 14.75 19.516C14.156 19.511 13.702 18.922 13.362 18.4C12.41 16.935 12.31 15.217 12.898 14.303C13.314 13.655 13.972 13.274 14.59 13.274C15.22 13.274 15.616 13.624 16.136 13.624C16.641 13.624 16.949 13.274 17.677 13.274C18.227 13.274 18.809 13.577 19.226 14.1C17.865 14.855 18.086 16.82 19.461 17.346ZM17.124 12.689C17.389 12.345 17.59 11.86 17.517 11.366C17.085 11.396 16.58 11.675 16.285 12.036C16.017 12.365 15.795 12.854 15.882 13.327C16.353 13.342 16.841 13.058 17.124 12.689Z" fill="#0D2B49"/>
<path d="M7.99701 5.00391V27.0039H23.997V5.00391H7.99701ZM22.997 26.0039H8.99701V6.00391H22.997V26.0039Z" fill="#0D2B49"/>
<path d="M25.617 2.00391H6.38701C5.61701 2.00391 4.99701 2.62391 4.99701 3.38391V28.6139C4.99701 29.3839 5.61701 30.0039 6.38701 30.0039H25.617C26.377 30.0039 26.997 29.3839 26.997 28.6139V3.38391C26.997 2.62391 26.377 2.00391 25.617 2.00391ZM25.997 28.6139C25.997 28.8239 25.827 29.0039 25.617 29.0039H6.38701C6.17701 29.0039 5.99701 28.8239 5.99701 28.6139V3.38391C5.99701 3.17391 6.17701 3.00391 6.38701 3.00391H25.617C25.827 3.00391 25.997 3.17391 25.997 3.38391V28.6139Z" fill="#0D2B49"/>
</svg>
