<svg width="32" height="32" viewBox="0 0 32 32" fill="none" xmlns="http://www.w3.org/2000/svg">
<path d="M5.09102 18.9311C4.83802 18.9311 4.60202 18.7721 4.51702 18.5191C4.19002 17.5511 4.02502 16.5781 4.02502 15.6281C4.02502 15.4261 4.03102 15.2251 4.04202 15.0251C4.05702 14.6921 4.34702 14.4391 4.67602 14.4501C5.01102 14.4671 5.26802 14.7511 5.25102 15.0851C5.24302 15.2651 5.23702 15.4461 5.23702 15.6281C5.23702 16.4461 5.38102 17.2891 5.66502 18.1321C5.77102 18.4491 5.60102 18.7931 5.28502 18.8991C5.22002 18.9211 5.15502 18.9311 5.09102 18.9311Z" fill="#0D2B49"/>
<path d="M26.938 20.1301C26.871 20.1301 26.803 20.1191 26.737 20.0961C26.421 19.9851 26.255 19.6391 26.367 19.3231C26.369 19.3181 26.697 18.3081 26.738 15.6191C26.738 14.0381 26.369 12.5091 25.641 11.0811C25.488 10.7831 25.607 10.4181 25.905 10.2661C26.203 10.1161 26.57 10.2321 26.72 10.5301C27.535 12.1291 27.949 13.8441 27.949 15.6271C27.905 18.5211 27.549 19.6101 27.509 19.7251C27.422 19.9741 27.187 20.1301 26.938 20.1301Z" fill="#0D2B49"/>
<path d="M5.52102 12.0001C5.43902 12.0001 5.35702 11.9841 5.27802 11.9491C4.97202 11.8151 4.83202 11.4571 4.96602 11.1511C6.84602 6.85907 11.281 3.97607 16.002 3.97607C18.854 3.97607 21.635 5.00807 23.832 6.88307C24.086 7.10007 24.117 7.48207 23.901 7.73707C23.682 7.99307 23.3 8.02207 23.047 7.80407C21.069 6.11607 18.567 5.18707 16.003 5.18707C11.756 5.18707 7.76602 7.77907 6.07702 11.6371C5.97602 11.8651 5.75402 12.0001 5.52102 12.0001Z" fill="#0D2B49"/>
<path d="M22.848 25.7551C22.815 25.7551 22.782 25.7531 22.749 25.7471C22.419 25.6931 22.195 25.3811 22.25 25.0511C22.258 24.9971 23.129 19.6671 23.109 15.5941C23.109 12.0611 19.799 8.96307 16.026 8.96307C15.321 8.96307 14.619 9.07207 13.938 9.28807C13.616 9.39207 13.278 9.21207 13.177 8.89307C13.075 8.57407 13.253 8.23407 13.571 8.13307C14.371 7.87907 15.197 7.75107 16.026 7.75107C20.445 7.75107 24.321 11.4151 24.321 15.5901C24.341 19.7641 23.482 25.0251 23.445 25.2471C23.395 25.5441 23.139 25.7551 22.848 25.7551Z" fill="#0D2B49"/>
<path d="M7.55502 24.0221C7.50802 24.0221 7.45902 24.0171 7.41202 24.0051C7.08702 23.9261 6.88802 23.5981 6.96702 23.2731C6.97502 23.2361 7.88402 19.4631 7.88402 15.5921C7.88402 13.9271 8.44202 12.3281 9.49902 10.9671C9.70202 10.7011 10.086 10.6551 10.348 10.8601C10.612 11.0651 10.66 11.4461 10.454 11.7101C9.56402 12.8561 9.09503 14.1991 9.09503 15.5921C9.09503 19.6131 8.18202 23.4011 8.14302 23.5611C8.07502 23.8371 7.82802 24.0221 7.55502 24.0221Z" fill="#0D2B49"/>
<path d="M11.336 26.7651C11.261 26.7651 11.185 26.7511 11.111 26.7221C10.802 26.5981 10.651 26.2491 10.771 25.9391C10.78 25.9141 11.602 23.6741 11.747 15.8521C11.747 13.5171 13.655 11.6091 16.001 11.6091C18.328 11.6091 20.286 13.4581 20.459 15.8191C20.605 17.8311 20.424 19.7231 20.416 19.8031C20.383 20.1361 20.082 20.3761 19.753 20.3471C19.421 20.3141 19.177 20.0181 19.209 19.6851C19.211 19.6671 19.389 17.8121 19.249 15.9071C19.125 14.2051 17.667 12.8201 16 12.8201C14.322 12.8201 12.957 14.1851 12.957 15.8631C12.806 24.0221 11.934 26.2921 11.896 26.3841C11.803 26.6221 11.576 26.7651 11.336 26.7651Z" fill="#0D2B49"/>
<path d="M15.731 23.3211C15.699 23.3211 15.668 23.3191 15.636 23.3141C15.305 23.2621 15.079 22.9521 15.131 22.6221C15.59 19.6871 15.415 16.3661 15.414 16.3331C15.395 15.9991 15.652 15.7141 15.985 15.6951C16.315 15.6611 16.605 15.9331 16.623 16.2661C16.631 16.4071 16.808 19.7481 16.328 22.8081C16.281 23.1071 16.023 23.3211 15.731 23.3211Z" fill="#0D2B49"/>
<path d="M18.991 27.3021C18.961 27.3021 18.933 27.3001 18.903 27.2961C18.572 27.2481 18.342 26.9411 18.39 26.6101L18.823 23.5981C18.87 23.2661 19.181 23.0371 19.509 23.0851C19.84 23.1331 20.07 23.4401 20.022 23.7711L19.589 26.7831C19.546 27.0841 19.286 27.3021 18.991 27.3021Z" fill="#0D2B49"/>
<path d="M14.946 27.9001C14.894 27.9001 14.84 27.8931 14.786 27.8791C14.463 27.7911 14.274 27.4581 14.361 27.1351L14.547 26.4551C14.635 26.1341 14.967 25.9441 15.291 26.0301C15.614 26.1181 15.803 26.4511 15.716 26.7741L15.53 27.4541C15.457 27.7231 15.212 27.9001 14.946 27.9001Z" fill="#0D2B49"/>
</svg>
