<svg width="32" height="32" viewBox="0 0 32 32" fill="none" xmlns="http://www.w3.org/2000/svg">
<path d="M11.9634 6.13354H5.17334C4.25336 6.13354 3.50336 6.87353 3.50336 7.79345V24.2036C3.50336 25.1235 4.25336 25.8735 5.17334 25.8735H11.9634C12.8834 25.8735 13.6334 25.1235 13.6334 24.2036V14.3035C13.3234 14.4736 12.9933 14.6035 12.6334 14.6636V24.2036C12.6334 24.5735 12.3334 24.8735 11.9634 24.8735H5.17334C4.80334 24.8735 4.50336 24.5735 4.50336 24.2036V7.79346C4.50336 7.42359 4.80335 7.13355 5.17334 7.13355H6.27338V7.39356C6.27338 7.5835 6.42334 7.7334 6.61335 7.7334H10.4634C10.6834 7.7334 10.8633 7.55347 10.8633 7.3335V7.13355H11.9634C12.3334 7.13355 12.6334 7.42359 12.6334 7.79346V7.92359C12.9934 7.9834 13.3234 8.11354 13.6334 8.27345V7.79346C13.6334 6.87354 12.8834 6.13354 11.9634 6.13354Z" fill="#0D2B49"/>
<path d="M8.56335 13.8835C7.22332 13.8835 6.13336 14.9736 6.13336 16.3235C6.13336 16.8035 6.27337 17.2434 6.50336 17.6235H6.03333V18.6235H11.1033V17.6235H10.6334C10.8633 17.2434 11.0034 16.8035 11.0034 16.3235C11.0034 14.9736 9.91332 13.8835 8.56335 13.8835ZM7.96337 17.6235C7.47332 17.3936 7.13335 16.9036 7.13335 16.3235C7.13335 15.5334 7.77336 14.8835 8.56334 14.8835C9.36333 14.8835 10.0033 15.5334 10.0033 16.3235C10.0033 16.9036 9.66331 17.3936 9.16331 17.6235H7.96337Z" fill="#0D2B49"/>
<path d="M11.9733 8.85353C10.6334 8.85353 9.54334 9.94336 9.54334 11.2935C9.54334 12.6336 10.6334 13.7334 11.9733 13.7334C12.2034 13.7334 12.4233 13.7036 12.6334 13.6436C13.0134 13.5335 13.3533 13.3435 13.6334 13.0835C14.1133 12.6336 14.4133 11.9934 14.4133 11.2935C14.4133 10.5835 14.1133 9.94336 13.6334 9.49341C13.3533 9.24341 13.0134 9.04347 12.6334 8.94337C12.4233 8.88356 12.2034 8.85353 11.9733 8.85353ZM11.9733 12.7334C11.1833 12.7334 10.5433 12.0835 10.5433 11.2935C10.5433 10.5034 11.1833 9.85353 11.9733 9.85353C12.2134 9.85353 12.4333 9.91359 12.6334 10.0234C13.0933 10.2634 13.4133 10.7434 13.4133 11.2935C13.4133 11.8435 13.0933 12.3235 12.6334 12.5635C12.4333 12.6736 12.2134 12.7334 11.9733 12.7334Z" fill="#0D2B49"/>
<path d="M26.8234 6.13354H20.0234C19.5633 6.13354 19.1534 6.31347 18.8533 6.60351C19.3733 6.67358 19.8433 6.86352 20.2533 7.13354H21.1233V7.39355C21.1233 7.58349 21.2833 7.73339 21.4634 7.73339H25.3134C25.5433 7.73339 25.7233 7.55346 25.7233 7.33349V7.13354H26.8234C27.1834 7.13354 27.4833 7.42358 27.4833 7.79345V24.2036C27.4833 24.5735 27.1833 24.8735 26.8234 24.8735H20.0234C19.6633 24.8735 19.3633 24.5735 19.3633 24.2036V13.2835C19.0533 13.3836 18.7134 13.4336 18.3633 13.4336V24.2036C18.3633 25.1235 19.1033 25.8735 20.0234 25.8735H26.8234C27.7433 25.8735 28.4833 25.1235 28.4833 24.2036V7.79346C28.4833 6.87354 27.7433 6.13354 26.8234 6.13354Z" fill="#0D2B49"/>
<path d="M25.9612 17.6216H20.888V18.6216H25.9612V17.6216Z" fill="#0D2B49"/>
<path d="M23.3433 12.3735C22.0033 12.3735 20.9034 13.4634 20.9034 14.8135C20.9034 16.1536 22.0034 17.2434 23.3433 17.2434C24.6934 17.2434 25.7833 16.1536 25.7833 14.8135C25.7833 13.4634 24.6933 12.3735 23.3433 12.3735ZM23.3433 16.2434C22.5533 16.2434 21.9034 15.6035 21.9034 14.8135C21.9034 14.0134 22.5533 13.3735 23.3433 13.3735C24.1334 13.3735 24.7833 14.0134 24.7833 14.8135C24.7833 15.6035 24.1334 16.2434 23.3433 16.2434Z" fill="#0D2B49"/>
<path d="M18.3834 7.56348H18.3633C17.0134 7.56348 15.9233 8.65357 15.9233 9.99341C15.9233 11.3435 17.0134 12.4336 18.3633 12.4336C18.7233 12.4336 19.0633 12.3535 19.3633 12.2236C20.2134 11.8335 20.8033 10.9834 20.8033 9.99342C20.8033 9.00343 20.2134 8.15358 19.3633 7.77345C19.0633 7.64357 18.7333 7.56348 18.3834 7.56348ZM18.3633 11.4336C17.5734 11.4336 16.9233 10.7934 16.9233 9.99339C16.9233 9.2036 17.5734 8.56347 18.3633 8.56347C18.7533 8.56347 19.1033 8.71336 19.3633 8.96336C19.6334 9.22361 19.8033 9.59349 19.8033 9.99339C19.8033 10.4036 19.6334 10.7734 19.3633 11.0334C19.1033 11.2834 18.7533 11.4336 18.3633 11.4336Z" fill="#0D2B49"/>
</svg>
