<svg width="32" height="32" viewBox="0 0 32 32" fill="none" xmlns="http://www.w3.org/2000/svg">
<path d="M22.604 29.988H9.39602C7.90702 29.988 6.69502 28.776 6.69502 27.287V10.986H25.306V27.287C25.306 28.776 24.094 29.988 22.604 29.988ZM7.69502 11.986V27.287C7.69502 28.225 8.45802 28.988 9.39602 28.988H22.604C23.542 28.988 24.306 28.225 24.306 27.287V11.986H7.69502ZM26.985 9.60203H5.00702V6.23403C5.00702 5.71503 5.42902 5.29403 5.94702 5.29403H8.93402C9.14802 3.85003 10.22 2.03003 11.596 2.03003H20.402C21.778 2.03003 22.85 3.85003 23.064 5.29403H26.043C26.562 5.29403 26.983 5.71603 26.983 6.23403V9.60203H26.985ZM5.99602 8.60203H25.984V6.29303H22.103V5.79303C22.103 4.70203 21.191 3.02903 20.402 3.02903H11.596C10.807 3.02903 9.89502 4.70203 9.89502 5.79303V6.29303H5.94802L5.99602 8.60203Z" fill="#0D2B49"/>
<path d="M12.484 14.581H11.484V26.387H12.484V14.581Z" fill="#0D2B49"/>
<path d="M16.502 14.581H15.502V26.387H16.502V14.581Z" fill="#0D2B49"/>
<path d="M20.521 14.581H19.521V26.387H20.521V14.581Z" fill="#0D2B49"/>
</svg>
