<svg width="32" height="32" viewBox="0 0 32 32" fill="none" xmlns="http://www.w3.org/2000/svg">
<path d="M28.5 24H27.5196C27.5196 20.4199 24.6569 17.5 21.1471 17.5C19.3922 17.5 17.7941 18.23 16.647 19.4099C17.6274 20.6799 18.2059 22.27 18.2059 24H17.2255C17.2255 22.5801 16.7745 21.26 16 20.1899C15.2255 21.26 14.7745 22.5801 14.7745 24H13.7941C13.7941 22.27 14.3726 20.6799 15.353 19.4099C14.2059 18.23 12.6078 17.5 10.8529 17.5C7.34318 17.5 4.48039 20.4199 4.48039 24H3.5C3.5 19.8599 6.7941 16.5 10.8529 16.5C12.8627 16.5 14.6765 17.3201 16 18.6499C17.3235 17.3201 19.1373 16.5 21.1471 16.5C25.2059 16.5 28.5 19.8599 28.5 24ZM14.5 11.75C14.5 13.8211 12.8211 15.5 10.75 15.5C8.67893 15.5 7 13.8211 7 11.75C7 9.67893 8.67893 8 10.75 8C12.8211 8 14.5 9.67893 14.5 11.75ZM13.5 11.75C13.5 10.2334 12.2666 9 10.75 9C9.2334 9 8 10.2334 8 11.75C8 13.2666 9.2334 14.5 10.75 14.5C12.2666 14.5 13.5 13.2666 13.5 11.75ZM25 11.75C25 13.8211 23.3211 15.5 21.25 15.5C19.1789 15.5 17.5 13.8211 17.5 11.75C17.5 9.67893 19.1789 8 21.25 8C23.3211 8 25 9.67893 25 11.75ZM24 11.75C24 10.2334 22.7666 9 21.25 9C19.7334 9 18.5 10.2334 18.5 11.75C18.5 13.2666 19.7334 14.5 21.25 14.5C22.7666 14.5 24 13.2666 24 11.75Z" fill="#0D2B49"/>
</svg>
