<svg width="32" height="32" viewBox="0 0 32 32" fill="none" xmlns="http://www.w3.org/2000/svg">
<path d="M7.11523 28.5L6.16699 24.0643H4.85742C4.10937 24.0643 3.5 23.3893 3.5 22.5596V5.0047C3.5 4.17496 4.10937 3.5 4.85742 3.5H27.1426C27.8906 3.5 28.5 4.17496 28.5 5.0047V22.5596C28.5 23.3893 27.8906 24.0643 27.1426 24.0643H12.3262L7.11523 28.5ZM4.85742 4.50313C4.66699 4.50313 4.5 4.73726 4.5 5.0047V22.5596C4.5 22.827 4.66699 23.0611 4.85742 23.0611H6.97559L7.74219 26.6505L11.959 23.0611H27.1426C27.333 23.0611 27.5 22.827 27.5 22.5596V5.0047C27.5 4.73726 27.333 4.50313 27.1426 4.50313H4.85742ZM12.25 13.0298C11.2852 13.0298 10.5 12.2422 10.5 11.2743C10.5 10.3064 11.2852 9.51881 12.25 9.51881C13.2148 9.51881 14 10.3064 14 11.2743C14 12.2422 13.2148 13.0298 12.25 13.0298ZM12.25 10.5219C11.8369 10.5219 11.5 10.8599 11.5 11.2743C11.5 11.6887 11.8369 12.0266 12.25 12.0266C12.6631 12.0266 13 11.6887 13 11.2743C13 10.8599 12.6631 10.5219 12.25 10.5219ZM19.75 13.0298C18.7852 13.0298 18 12.2422 18 11.2743C18 10.3064 18.7852 9.51881 19.75 9.51881C20.7148 9.51881 21.5 10.3064 21.5 11.2743C21.5 12.2422 20.7148 13.0298 19.75 13.0298ZM19.75 10.5219C19.3369 10.5219 19 10.8599 19 11.2743C19 11.6887 19.3369 12.0266 19.75 12.0266C20.1631 12.0266 20.5 11.6887 20.5 11.2743C20.5 10.8599 20.1631 10.5219 19.75 10.5219ZM21.4922 18.8311C20.5342 16.8307 18.3779 15.5376 16 15.5376C13.6221 15.5376 11.4658 16.8307 10.5078 18.8311L11.4082 19.2661C12.2021 17.6105 14.0039 16.5408 16 16.5408C17.9961 16.5408 19.7978 17.6105 20.5918 19.2661L21.4922 18.8311Z" fill="#0D2B49"/>
</svg>
