<svg width="32" height="32" viewBox="0 0 32 32" fill="none" xmlns="http://www.w3.org/2000/svg">
<path d="M24 21.0293V23.0176H22V21.0293H24ZM25 20.0351H21V24.0117H25V20.0351ZM20.5 16.0585C20.9135 16.0585 21.25 16.393 21.25 16.8041C21.25 17.2153 20.9135 17.5497 20.5 17.5497C20.0865 17.5497 19.75 17.2153 19.75 16.8041C19.75 16.393 20.0865 16.0585 20.5 16.0585ZM20.5 15.0644C19.5335 15.0644 18.75 15.8435 18.75 16.8041C18.75 17.7648 19.5335 18.5439 20.5 18.5439C21.4665 18.5439 22.25 17.7648 22.25 16.8041C22.25 15.8435 21.4665 15.0644 20.5 15.0644ZM27.5 25.0059V16.824L20.5 10.9286L18.28 12.7974C17.75 11.3858 16.95 10.4616 15.91 10.0339C15.78 9.98441 15.65 9.93441 15.51 9.9048C17.58 9.62617 19.15 10.3422 19.25 10.3917C19.47 10.4912 19.73 10.4218 19.87 10.2228C20.01 10.0242 19.99 9.75578 19.81 9.58685C17.95 7.76748 16.18 7.02187 14.59 7.38934C13.4 7.66797 12.54 8.49319 11.97 9.2786C11.89 7.96602 11.45 6.97187 10.64 6.32577C8.69 4.76513 5.42999 5.8884 5.28998 5.92821C5.06 6.00782 4.91998 6.24616 4.96002 6.48499C5 6.71362 5.21002 6.89226 5.45001 6.90245C6.84003 6.92236 8.03998 7.65777 8.96002 8.5228C8.06 8.12524 7.20001 8.00582 6.39002 8.17475C3.95001 8.69173 2.88 11.5751 2.84003 11.6941C2.77002 11.9028 2.84003 12.1314 3.02002 12.261C3.09998 12.3305 3.21002 12.3601 3.31 12.3601C3.41998 12.3601 3.53003 12.3208 3.62 12.261C4.29999 11.7441 5.04999 11.4057 5.81 11.2169C5.69 11.2965 5.58002 11.3761 5.47998 11.4756C3.66998 13.1455 4.81 16.7347 4.85999 16.8837C4.92999 17.0925 5.12 17.2318 5.34003 17.2318C5.35999 17.2318 5.38001 17.2318 5.40003 17.2216C5.64002 17.192 5.82001 17.0032 5.84003 16.7643C5.96002 15.0047 6.52002 13.7523 7.52002 13.046C8.39002 12.4397 9.45001 12.3402 10.24 12.3902C7.56 16.7046 8.21997 23.2064 8.46997 25.0059H2.5V26H29.5V25.0059H27.5ZM15.53 10.9485C16.35 11.2868 16.98 12.0819 17.42 13.3246C16.48 12.3601 15.06 11.3659 13.02 11.0679C13.77 10.7897 14.69 10.6106 15.53 10.9485ZM16.77 14.0702L16.37 14.4081C15.84 13.4838 14.79 12.7183 13.22 12.1314C14.87 12.4499 16.01 13.2848 16.77 14.0702ZM14.82 8.35387C15.01 8.31407 15.2 8.29417 15.4 8.29417C16 8.29417 16.64 8.49319 17.32 8.89075C16.13 8.76163 14.6 8.85095 12.99 9.60627C13.43 9.05968 14.04 8.53299 14.82 8.35387ZM6.95001 12.231C6.32001 12.6785 5.82001 13.2751 5.46997 14.0207C5.51001 13.3149 5.70001 12.6285 6.15997 12.2013C6.53998 11.8533 7.09003 11.6742 7.81 11.6742C7.89002 11.6742 7.96002 11.6844 8.03003 11.6844C7.66998 11.8135 7.29999 11.9926 6.95001 12.231ZM4.62 10.5509C5.08002 9.93441 5.73999 9.32812 6.59998 9.149C6.78003 9.10919 6.96002 9.09948 7.14002 9.09948C7.91998 9.09948 8.78003 9.42763 9.69 10.1033C8.31 9.8849 6.41998 9.815 4.62 10.5509ZM7.81 6.4947C8.57001 6.4748 9.40997 6.61411 10.02 7.10148C10.58 7.55875 10.91 8.28446 10.98 9.26841C10.29 8.35387 9.21002 7.1908 7.81 6.4947ZM10.68 13.6528C10.6 14.3586 10.54 15.1935 10.52 16.1182C10.34 16.2872 10.01 16.1876 9.79999 16.108C10.02 15.2532 10.3 14.4183 10.68 13.6528ZM9.58002 17.0925C9.78998 17.1619 10.02 17.2119 10.25 17.2119C10.34 17.2119 10.43 17.2017 10.52 17.192C10.53 17.7488 10.56 18.3352 10.62 18.9415L10.6 18.9215C10.23 19.3987 9.54999 19.0109 9.34003 18.8817C9.39002 18.2856 9.46997 17.6891 9.58002 17.0925ZM9.26001 19.9555C9.53003 20.0647 9.83002 20.1443 10.14 20.1443C10.35 20.1443 10.55 20.1147 10.74 20.0351C10.85 20.7506 10.99 21.4865 11.18 22.2122C10.4 22.471 9.60999 22.3118 9.25 22.2025C9.21997 21.5166 9.21997 20.7608 9.26001 19.9555ZM9.47998 25.0059C9.42999 24.6578 9.35999 24.0413 9.29999 23.2462C9.57001 23.3059 9.90998 23.3554 10.28 23.3554C10.65 23.3554 11.06 23.3059 11.47 23.1666C11.68 23.7928 11.93 24.4093 12.23 25.0059H9.47998ZM13.5 16.824V25.0059H13.36C11.05 20.8404 11.45 15.3226 11.79 12.8771C12.51 13.4042 13.75 14.5576 14.04 16.3668L13.5 16.824ZM14.21 14.0702C14.16 13.9809 14.1 13.9013 14.05 13.8217C13.96 13.6926 13.87 13.5731 13.78 13.4639C13.94 13.5431 14.08 13.6227 14.22 13.7023C14.33 13.7722 14.43 13.8416 14.53 13.911C14.64 13.9809 14.74 14.0605 14.83 14.1396C14.89 14.1794 14.94 14.2294 14.99 14.279C15.04 14.3188 15.09 14.3683 15.13 14.4183C15.33 14.627 15.48 14.8454 15.59 15.0644C15.61 15.1042 15.63 15.1537 15.65 15.2037C15.69 15.293 15.72 15.3925 15.74 15.4818C15.79 15.7207 15.8 15.959 15.78 16.1978V16.2075C15.76 16.3566 15.73 16.5061 15.68 16.6551C15.64 16.7944 15.58 16.9434 15.52 17.0823C15.46 17.2318 15.39 17.3609 15.31 17.5002C15.24 17.6294 15.16 17.7682 15.07 17.8876C15.11 17.5002 15.12 17.1323 15.09 16.7842V16.774C15.08 16.5755 15.06 16.3765 15.02 16.1978C14.99 16.009 14.95 15.8197 14.9 15.6411C14.84 15.442 14.78 15.2435 14.71 15.0644C14.61 14.8158 14.5 14.577 14.37 14.3586C14.32 14.2591 14.27 14.1595 14.21 14.0702ZM18.5 25.0059H16.5V21.0293H18.5V25.0059ZM26.5 25.0059H19.5V20.0351H15.5V25.0059H14.5V20.0448C14.99 19.6075 17.13 17.5696 16.74 15.4022L17.4 14.8454C17.8 15.3925 17.98 15.8197 18 15.8697C18.08 16.0585 18.27 16.1779 18.47 16.1779C18.51 16.1779 18.55 16.1677 18.59 16.158C18.84 16.0983 18.99 15.8595 18.96 15.611C18.87 14.9552 18.76 14.3586 18.62 13.8217L20.5 12.2411L26.5 17.2813V25.0059ZM25.5 5.61997C23.84 5.61997 22.5 6.95197 22.5 8.60241C22.5 10.2529 23.84 11.5849 25.5 11.5849C27.16 11.5849 28.5 10.2529 28.5 8.60241C28.5 6.95197 27.16 5.61997 25.5 5.61997ZM25.5 10.5907C24.4 10.5907 23.5 9.69607 23.5 8.60241C23.5 7.50875 24.4 6.61411 25.5 6.61411C26.6 6.61411 27.5 7.50875 27.5 8.60241C27.5 9.69607 26.6 10.5907 25.5 10.5907Z" fill="#0D2B49"/>
</svg>
