<svg width="32" height="32" viewBox="0 0 32 32" fill="none" xmlns="http://www.w3.org/2000/svg">
<path d="M27.5 3.5H4.5C3.94775 3.5 3.5 3.94775 3.5 4.5V27.5C3.5 28.0522 3.94775 28.5 4.5 28.5H7.5V29.5H13.5V28.5H18.5V29.5H24.5V28.5H27.5C28.0523 28.5 28.5 28.0522 28.5 27.5V4.5C28.5 3.94775 28.0523 3.5 27.5 3.5ZM27.5 27.5H4.5V4.5H27.5V27.5ZM8 26H24C25.1046 26 26 25.1045 26 24V8C26 6.89551 25.1046 6 24 6H8C6.89545 6 6 6.89551 6 8V24C6 25.1045 6.89545 26 8 26ZM7 8C7 7.44873 7.44861 7 8 7H24C24.5514 7 25 7.44873 25 8V24C25 24.5513 24.5514 25 24 25H8C7.44861 25 7 24.5513 7 24V8ZM9.60004 24H22.4C23.2837 24 24 23.2837 24 22.3999V9.6001C24 8.71631 23.2837 8 22.4 8H9.60004C8.71637 8 8 8.71631 8 9.6001V22.3999C8 23.2837 8.71637 24 9.60004 24ZM9 9.6001C9 9.26904 9.26916 9 9.60004 9H22.4C22.7308 9 23 9.26904 23 9.6001V22.3999C23 22.731 22.7308 23 22.4 23H9.60004C9.26916 23 9 22.731 9 22.3999V9.6001ZM11.0469 16.4834L10.501 16.54L10.6084 17.0781C10.749 17.7861 11.0244 18.4502 11.4258 19.0508L11.7314 19.5068L12.1572 19.1602C12.3564 18.9961 12.6426 19.0049 12.8174 19.1816C12.9932 19.3574 13.0029 19.6416 12.8398 19.8428L12.4932 20.2686L12.9492 20.5742C13.5498 20.9756 14.2139 21.251 14.9219 21.3916L15.46 21.499L15.5166 20.9531C15.5439 20.6953 15.752 20.5 16 20.5C16.248 20.5 16.4561 20.6953 16.4834 20.9531L16.54 21.499L17.0781 21.3916C17.7861 21.251 18.4502 20.9756 19.0508 20.5742L19.5068 20.2686L19.1602 19.8428C18.9971 19.6416 19.0068 19.3574 19.1816 19.1826C19.3564 19.0059 19.6416 18.9961 19.8428 19.1602L20.2686 19.5068L20.5742 19.0508C20.9756 18.4502 21.251 17.7861 21.3916 17.0781L21.499 16.54L20.9531 16.4834C20.6953 16.4561 20.5 16.248 20.5 16C20.5 15.752 20.6953 15.5439 20.9531 15.5166L21.499 15.46L21.3916 14.9219C21.251 14.2139 20.9756 13.5498 20.5742 12.9492L20.2686 12.4932L19.8428 12.8398C19.6426 13.0029 19.3555 12.9941 19.1826 12.8184C19.0068 12.6426 18.9971 12.3584 19.1602 12.1572L19.5068 11.7314L19.0508 11.4258C18.4502 11.0244 17.7861 10.749 17.0781 10.6084L16.54 10.501L16.4834 11.0469C16.4561 11.3047 16.248 11.5 16 11.5C15.752 11.5 15.5439 11.3047 15.5166 11.0469L15.46 10.501L14.9219 10.6084C14.2139 10.749 13.5498 11.0244 12.9492 11.4258L12.4932 11.7314L12.8398 12.1572C13.0029 12.3584 12.9932 12.6426 12.8184 12.8174C12.6436 12.9941 12.3584 13.0039 12.1572 12.8398L11.7314 12.4932L11.4258 12.9492C11.0244 13.5498 10.749 14.2139 10.6084 14.9219L10.501 15.46L11.0469 15.5166C11.3047 15.5439 11.5 15.752 11.5 16C11.5 16.248 11.3047 16.4561 11.0469 16.4834ZM11.6973 14.6855C11.7812 14.4092 11.8926 14.1426 12.0283 13.8867C12.543 14.0508 13.1221 13.9258 13.5264 13.5254C13.9268 13.123 14.0508 12.5449 13.8867 12.0283C14.1426 11.8926 14.4092 11.7812 14.6855 11.6973C14.9365 12.1787 15.4326 12.5 16 12.5C16.5674 12.5 17.0635 12.1787 17.3145 11.6973C17.5908 11.7812 17.8574 11.8926 18.1133 12.0283C17.9492 12.5449 18.0742 13.123 18.4746 13.5264C18.877 13.9258 19.4561 14.0508 19.9717 13.8867C20.1074 14.1426 20.2187 14.4092 20.3027 14.6855C19.8213 14.9355 19.5 15.4326 19.5 16C19.5 16.5674 19.8213 17.0645 20.3027 17.3145C20.2187 17.5908 20.1074 17.8574 19.9717 18.1133C19.4541 17.9473 18.877 18.0742 18.4736 18.4746C18.0732 18.877 17.9492 19.4551 18.1133 19.9717C17.8574 20.1074 17.5908 20.2188 17.3145 20.3027C17.0645 19.8213 16.5674 19.5 16 19.5C15.4326 19.5 14.9355 19.8213 14.6855 20.3027C14.4092 20.2188 14.1426 20.1074 13.8867 19.9717C14.0508 19.4551 13.9258 18.877 13.5254 18.4736C13.123 18.0742 12.5439 17.9502 12.0283 18.1133C11.8926 17.8574 11.7812 17.5908 11.6973 17.3145C12.1787 17.0645 12.5 16.5674 12.5 16C12.5 15.4326 12.1787 14.9355 11.6973 14.6855ZM16 18.5C17.3807 18.5 18.5 17.3809 18.5 16C18.5 14.6191 17.3807 13.5 16 13.5C14.6193 13.5 13.5 14.6191 13.5 16C13.5 17.3809 14.6193 18.5 16 18.5ZM16 14.5C16.8271 14.5 17.5 15.1729 17.5 16C17.5 16.8271 16.8271 17.5 16 17.5C15.1729 17.5 14.5 16.8271 14.5 16C14.5 15.1729 15.1729 14.5 16 14.5Z" fill="#0D2B49"/>
</svg>
