<svg width="32" height="32" viewBox="0 0 32 32" fill="none" xmlns="http://www.w3.org/2000/svg">
<path d="M16 3.896C16.139 3.896 16.279 3.904 16.438 3.921C16.621 3.938 16.813 3.962 16.995 3.997C17.524 4.093 18.021 4.268 18.502 4.525C18.92 4.755 19.295 5.027 19.624 5.339C20.009 5.698 20.341 6.101 20.602 6.518C21.099 7.354 21.372 8.361 21.372 9.355C21.372 9.941 21.322 10.363 21.211 10.723L21.169 10.86L21.167 11.003C21.125 13.755 19.842 16.187 17.874 17.21C17.807 17.247 17.733 17.284 17.666 17.315C17.246 17.498 16.639 17.603 16.001 17.603C15.369 17.603 14.766 17.498 14.305 17.298C14.221 17.266 14.183 17.24 14.176 17.236L14.127 17.201L14.074 17.173C12.154 16.149 10.887 13.727 10.845 11.003L10.843 10.86L10.801 10.723C10.684 10.346 10.63 9.911 10.63 9.355C10.63 8.372 10.907 7.365 11.399 6.536C11.679 6.086 12.008 5.684 12.375 5.341C12.714 5.027 13.095 4.752 13.498 4.53C13.99 4.267 14.484 4.092 15.006 3.996C15.192 3.962 15.378 3.937 15.584 3.918C15.721 3.904 15.861 3.896 16 3.896ZM16 2.896C15.824 2.896 15.648 2.906 15.471 2.925C15.256 2.945 15.04 2.974 14.825 3.013C14.189 3.13 13.592 3.346 13.024 3.649C12.544 3.913 12.094 4.236 11.693 4.608C11.253 5.019 10.871 5.489 10.548 6.008C9.96097 6.997 9.62796 8.171 9.62796 9.355C9.62796 9.913 9.67697 10.481 9.84297 11.019C9.89196 14.18 11.419 16.891 13.601 18.056C13.699 18.125 13.816 18.183 13.944 18.232C14.482 18.467 15.207 18.604 15.999 18.604C16.792 18.604 17.526 18.467 18.064 18.232C18.172 18.183 18.27 18.134 18.358 18.085C20.56 16.94 22.116 14.209 22.165 11.019C22.331 10.481 22.371 9.913 22.371 9.355C22.371 8.171 22.048 6.996 21.461 6.008C21.138 5.489 20.747 5.02 20.306 4.608C19.915 4.236 19.464 3.913 18.985 3.649C18.417 3.346 17.82 3.13 17.174 3.013C16.968 2.974 16.743 2.944 16.528 2.925C16.352 2.906 16.176 2.896 16 2.896Z" fill="#0D2B49"/>
<path d="M16.065 20.253C15.535 20.253 14.995 20.203 14.455 20.093C13.415 19.903 12.545 19.513 11.965 19.003C11.825 18.873 11.645 18.803 11.455 18.803C11.405 18.803 11.365 18.813 11.315 18.823C10.525 19.003 9.72496 19.003 8.98496 19.303C8.16496 19.613 7.42496 20.093 6.80496 20.713C5.63496 21.863 4.98496 23.443 5.00496 25.083V28.453C5.00496 28.803 5.30496 29.103 5.67496 29.103H16.995V28.103H6.00496V26.773C6.00496 25.923 6.00496 25.073 6.00496 25.073C5.98496 23.713 6.53496 22.383 7.51496 21.423C8.03496 20.893 8.64496 20.503 9.35496 20.233C9.70496 20.093 10.125 20.033 10.565 19.963C10.835 19.923 11.105 19.883 11.385 19.833C12.115 20.433 13.135 20.873 14.255 21.073C14.825 21.193 15.415 21.253 16.065 21.253C16.305 21.253 16.545 21.243 16.785 21.233C16.855 21.233 16.925 21.233 16.995 21.223V21.003C16.995 20.713 17.055 20.443 17.165 20.193C17.025 20.213 16.885 20.223 16.745 20.223C16.525 20.243 16.295 20.253 16.065 20.253Z" fill="#0D2B49"/>
<path d="M30.745 24.503H27.995C27.725 24.503 27.485 24.603 27.285 24.813C27.095 24.993 26.995 25.233 26.995 25.503C26.995 26.053 27.445 26.503 27.995 26.503H30.745C30.885 26.503 30.995 26.393 30.995 26.253V24.753C30.995 24.612 30.875 24.503 30.745 24.503ZM29.405 26.003C29.125 26.003 28.905 25.783 28.905 25.503C28.905 25.223 29.125 25.003 29.405 25.003C29.685 25.003 29.905 25.223 29.905 25.503C29.905 25.782 29.685 26.003 29.405 26.003Z" fill="#0D2B49"/>
<path d="M26.585 24.092C26.115 24.552 25.885 25.242 26.045 25.972C26.255 26.892 27.145 27.502 28.085 27.502H30.995V30.002C30.995 30.552 30.545 31.002 29.995 31.002H18.995C18.445 31.002 17.995 30.552 17.995 30.002V21.002C17.995 20.892 18.015 20.782 18.055 20.682C18.105 20.522 18.205 20.372 18.325 20.262C18.505 20.102 18.735 20.002 18.995 20.002H29.995C30.545 20.002 30.995 20.452 30.995 21.002V23.502H27.995C27.445 23.503 26.945 23.722 26.585 24.092Z" fill="#0D2B49"/>
</svg>
