<svg width="32" height="32" viewBox="0 0 32 32" fill="none" xmlns="http://www.w3.org/2000/svg">
<path d="M14.999 22.0029H16.999V21.0029H15.999V19.0029H21.999V18.0029H14.999V22.0029ZM14.999 16.5029H21.999V12.5029H14.999V16.5029ZM15.999 13.5029H20.999V15.5029H15.999V13.5029ZM14.999 7.00293V11.0029H21.999V7.00293H14.999ZM20.999 10.0029H15.999V8.00293H20.999V10.0029ZM14.999 27.5029H16.999V26.5029H15.999V24.5029H16.999V23.5029H14.999V27.5029ZM9.99902 22.0029H13.499V18.0029H9.99902V22.0029ZM10.999 19.0029H12.499V21.0029H10.999V19.0029ZM9.99902 16.5029H13.499V12.5029H9.99902V16.5029ZM10.999 13.5029H12.499V15.5029H10.999V13.5029ZM9.99902 11.0029H13.499V7.00293H9.99902V11.0029ZM10.999 8.00293H12.499V10.0029H10.999V8.00293ZM6.49902 2.00293V5.50293H7.49902V30.0029H16.999V29.0029H13.499V23.5029H9.99902V29.0029H8.49902V5.50293H23.499V19.0029H24.499V5.50293H25.499V2.00293H6.49902ZM10.999 24.5029H12.499V29.0029H10.999V24.5029ZM24.499 4.50293H7.49902V3.00293H24.499V4.50293ZM15.999 19.0029H21.999V18.0029H14.999V22.0029H16.999V21.0029H15.999V19.0029ZM14.999 16.5029H21.999V12.5029H14.999V16.5029ZM15.999 13.5029H20.999V15.5029H15.999V13.5029ZM21.999 7.00293H14.999V11.0029H21.999V7.00293ZM20.999 10.0029H15.999V8.00293H20.999V10.0029ZM14.999 27.5029H16.999V26.5029H15.999V24.5029H16.999V23.5029H14.999V27.5029ZM9.99902 22.0029H13.499V18.0029H9.99902V22.0029ZM10.999 19.0029H12.499V21.0029H10.999V19.0029ZM13.499 12.5029H9.99902V16.5029H13.499V12.5029ZM12.499 15.5029H10.999V13.5029H12.499V15.5029ZM13.499 7.00293H9.99902V11.0029H13.499V7.00293ZM12.499 10.0029H10.999V8.00293H12.499V10.0029ZM14.999 27.5029H16.999V26.5029H15.999V24.5029H16.999V23.5029H14.999V27.5029ZM14.999 7.00293V11.0029H21.999V7.00293H14.999ZM20.999 10.0029H15.999V8.00293H20.999V10.0029ZM9.99902 7.00293V11.0029H13.499V7.00293H9.99902ZM12.499 10.0029H10.999V8.00293H12.499V10.0029ZM14.999 12.5029V16.5029H21.999V12.5029H14.999ZM20.999 15.5029H15.999V13.5029H20.999V15.5029ZM9.99902 12.5029V16.5029H13.499V12.5029H9.99902ZM12.499 15.5029H10.999V13.5029H12.499V15.5029ZM14.999 18.0029V22.0029H16.999V21.0029H15.999V19.0029H21.999V18.0029H14.999ZM9.99902 18.0029V22.0029H13.499V18.0029H9.99902ZM12.499 21.0029H10.999V19.0029H12.499V21.0029Z" fill="#0D2B49"/>
<path d="M27.999 23.5029H30.999V21.0029C30.999 20.4529 30.549 20.0029 29.999 20.0029H18.999C18.449 20.0029 17.999 20.4529 17.999 21.0029V30.0029C17.999 30.5529 18.449 31.0029 18.999 31.0029H29.999C30.549 31.0029 30.999 30.5529 30.999 30.0029V27.5029H28.089C27.149 27.5029 26.259 26.8929 26.049 25.9729C25.889 25.2429 26.119 24.5529 26.589 24.0929C26.949 23.7219 27.449 23.5029 27.999 23.5029ZM30.749 24.5029H27.999C27.729 24.5029 27.489 24.6029 27.289 24.8129C27.099 24.9929 26.999 25.2329 26.999 25.5029C26.999 26.0529 27.449 26.5029 27.999 26.5029H30.749C30.889 26.5029 30.999 26.3929 30.999 26.2529V24.7529C30.999 24.6119 30.879 24.5029 30.749 24.5029ZM29.409 26.0029C29.129 26.0029 28.909 25.7829 28.909 25.5029C28.909 25.2229 29.129 25.0029 29.409 25.0029C29.689 25.0029 29.909 25.2229 29.909 25.5029C29.909 25.7819 29.689 26.0029 29.409 26.0029Z" fill="#0D2B49"/>
</svg>
