<svg width="32" height="32" viewBox="0 0 32 32" fill="none" xmlns="http://www.w3.org/2000/svg">
<path d="M27 3.5H12.5C11.67 3.5 11 4.16992 11 5V9.5H4.5C3.66998 9.5 3 10.1699 3 11V24C3 24.8301 3.66998 25.5 4.5 25.5H13.33C14.03 27.2598 15.75 28.5 17.75 28.5C19.75 28.5 21.47 27.2598 22.17 25.5H25C25.83 25.5 26.5 24.8301 26.5 24V16H27C27.83 16 28.5 15.3301 28.5 14.5V5C28.5 4.16992 27.83 3.5 27 3.5ZM21.42 24.5C21.35 24.8599 21.23 25.1899 21.06 25.5C20.43 26.6899 19.19 27.5 17.75 27.5C16.31 27.5 15.07 26.6899 14.44 25.5C14.27 25.1899 14.15 24.8599 14.08 24.5C14.03 24.2598 14 24.0098 14 23.75C14 21.6802 15.68 20 17.75 20C19.82 20 21.5 21.6802 21.5 23.75C21.5 24.0098 21.47 24.2598 21.42 24.5ZM25.5 24C25.5 24.2798 25.28 24.5 25 24.5H22.44C22.48 24.25 22.5 24 22.5 23.75C22.5 21.1299 20.37 19 17.75 19C15.13 19 13 21.1299 13 23.75C13 24 13.02 24.25 13.06 24.5H4.5C4.21997 24.5 4 24.2798 4 24V11C4 10.7197 4.21997 10.5 4.5 10.5H25C25.28 10.5 25.5 10.7197 25.5 11V24ZM27.5 14.5C27.5 14.7798 27.28 15 27 15H26.5V11C26.5 10.1699 25.83 9.5 25 9.5H12V7.5H27.5V14.5ZM27.5 6.5H12V5C12 4.71973 12.22 4.5 12.5 4.5H27C27.28 4.5 27.5 4.71973 27.5 5V6.5ZM22.61 12H6.89001C6.11999 12 5.5 12.6201 5.5 13.3901V17.5H24V13.3901C24 12.6201 23.38 12 22.61 12ZM23 16.5H6.5V15.3901C6.5 15.1699 6.66998 15 6.89001 15H22.61C22.83 15 23 15.1699 23 15.3901V16.5ZM23 14.0601C22.88 14.02 22.75 14 22.61 14H6.89001C6.75 14 6.61999 14.02 6.5 14.0601V13.3901C6.5 13.1699 6.66998 13 6.89001 13H22.61C22.83 13 23 13.1699 23 13.3901V14.0601Z" fill="#0D2B49"/>
</svg>
