<svg width="32" height="32" viewBox="0 0 32 32" fill="none" xmlns="http://www.w3.org/2000/svg">
<path d="M27.501 8.25195H4.50098C3.95098 8.25195 3.50098 8.70195 3.50098 9.25195V22.752C3.50098 23.302 3.95098 23.752 4.50098 23.752H21.211C20.991 23.442 20.801 23.112 20.651 22.752H4.50098V9.25195H27.501V17.002H28.501V9.25195C28.501 8.70195 28.051 8.25195 27.501 8.25195Z" fill="#0D2B49"/>
<path d="M17.66 16.89H18.63C18.53 17.51 18.32 18.02 17.97 18.42C17.62 18.81 17.17 19 16.63 19C15.95 19 15.43 18.74 15.04 18.21C14.83 17.93 14.69 17.6 14.59 17.21H13.38L13.53 16.43H14.47C14.45 16.3 14.45 16.17 14.45 16.02C14.45 15.89 14.45 15.77 14.46 15.65H13.38L13.53 14.87H14.57C14.68 14.4 14.86 14.01 15.11 13.71C15.5 13.23 15.99 13 16.57 13C17.37 13 17.94 13.32 18.31 13.94C18.51 14.29 18.62 14.65 18.63 15.01H17.66C17.59 14.74 17.5 14.53 17.41 14.39C17.23 14.14 16.96 14.01 16.61 14.01C16.26 14.01 15.97 14.19 15.77 14.55C15.72 14.64 15.66 14.75 15.62 14.87H17.13L16.97 15.65H15.47C15.46 15.78 15.46 15.91 15.46 16.04C15.46 16.18 15.46 16.31 15.47 16.43H16.87L16.72 17.21H15.64C15.68 17.31 15.74 17.4 15.79 17.48C16.01 17.8 16.28 17.96 16.62 17.96C16.96 17.96 17.22 17.82 17.41 17.55C17.5 17.4 17.58 17.18 17.66 16.89Z" fill="#0D2B49"/>
<path fill-rule="evenodd" clip-rule="evenodd" d="M29.921 20.712V19.082H31.001V18.002H20.171V19.082H21.251V20.712C21.251 21.442 21.441 22.142 21.761 22.752C21.961 23.122 22.211 23.452 22.511 23.752C22.791 24.042 23.121 24.302 23.491 24.502C22.111 25.252 21.251 26.712 21.251 28.292V29.912H20.171V31.002H31.001V29.912H29.921V28.292C29.921 26.652 29.021 25.232 27.671 24.502C29.061 23.742 29.921 22.282 29.921 20.712ZM28.311 22.472C28.271 22.522 28.241 22.572 28.201 22.622C28.121 22.732 28.041 22.832 27.941 22.932C27.841 23.042 27.721 23.152 27.601 23.242C27.461 23.352 27.311 23.452 27.151 23.542L26.771 23.752L26.471 23.922C26.151 24.092 26.031 24.492 26.201 24.812C26.261 24.922 26.361 25.012 26.471 25.072L27.151 25.452C28.191 26.012 28.831 27.112 28.831 28.292H22.331C22.331 27.112 22.971 26.012 24.011 25.452L24.701 25.072C25.021 24.902 25.131 24.502 24.961 24.182C24.901 24.072 24.811 23.982 24.701 23.922L24.391 23.752L24.011 23.542C23.641 23.342 23.311 23.072 23.061 22.752C23.021 22.702 22.991 22.662 22.951 22.612C22.801 22.412 22.671 22.182 22.581 21.952C22.531 21.832 22.481 21.702 22.451 21.572C22.401 21.422 22.371 21.272 22.361 21.112C22.341 20.982 22.331 20.852 22.331 20.712H28.831C28.831 20.872 28.821 21.032 28.791 21.192C28.781 21.322 28.751 21.442 28.711 21.562C28.691 21.662 28.661 21.762 28.611 21.852C28.591 21.942 28.541 22.032 28.501 22.122C28.441 22.242 28.381 22.362 28.311 22.472ZM23.891 22.062C23.941 22.122 23.991 22.182 24.051 22.232C24.181 22.362 24.321 22.482 24.481 22.572C24.531 22.602 24.571 22.622 24.611 22.642C24.701 22.682 24.791 22.722 24.881 22.752C24.961 22.782 25.051 22.812 25.141 22.822C25.281 22.852 25.431 22.872 25.581 22.872C25.731 22.872 25.881 22.852 26.021 22.822C26.111 22.812 26.201 22.782 26.281 22.752C26.371 22.722 26.461 22.682 26.551 22.642C26.591 22.622 26.641 22.602 26.681 22.572C26.851 22.472 27.001 22.352 27.141 22.212C27.201 22.152 27.251 22.092 27.301 22.022C27.361 21.952 27.411 21.872 27.461 21.792H23.711C23.771 21.892 23.831 21.982 23.891 22.062ZM25.581 26.102C24.781 26.102 24.081 26.542 23.711 27.192H27.461C27.081 26.542 26.381 26.102 25.581 26.102Z" fill="#0D2B49"/>
<path d="M25.581 26.102C24.781 26.102 24.081 26.542 23.711 27.192H27.461C27.081 26.542 26.381 26.102 25.581 26.102ZM25.581 26.102C24.781 26.102 24.081 26.542 23.711 27.192H27.461C27.081 26.542 26.381 26.102 25.581 26.102ZM25.581 26.102C24.781 26.102 24.081 26.542 23.711 27.192H27.461C27.081 26.542 26.381 26.102 25.581 26.102Z" fill="#0D2B49"/>
</svg>
