<svg width="32" height="32" viewBox="0 0 32 32" fill="none" xmlns="http://www.w3.org/2000/svg">
<path d="M29 14.5C29 16.4297 27.4297 18 25.5 18H20.5V17H25.5C26.8789 17 28 15.8789 28 14.5C28 13.1211 26.8789 12 25.5 12H24.4873L24.417 11.583C23.9766 8.96484 21.7295 7.03906 19.0732 7.00391L18.751 7L18.6221 6.7041C17.9043 5.06152 16.2861 4 14.5 4H13C10.8535 4 8.99805 5.5293 8.58789 7.63672L8.51465 8.00879L8.1377 8.03906C5.77832 8.23145 4 10.1484 4 12.5C4 14.9814 6.01855 17 8.5 17H11.5V18H8.5C5.46777 18 3 15.5322 3 12.5C3 9.74707 4.99121 7.47949 7.68848 7.08398C8.32324 4.69629 10.5 3 13 3H14.5C16.5781 3 18.4688 4.17383 19.4023 6.01562C22.2617 6.19141 24.6641 8.22168 25.3193 11H25.5C27.4297 11 29 12.5703 29 14.5ZM19 11.5V29H18V27.5H13.5V29H12.5V11.5H13.5V12.5H18V11.5H19ZM13.5 13.5V14.5H18V13.5H13.5ZM18 22.5V21.5H13.5V22.5H18ZM13.5 23.5V24.5H18V23.5H13.5ZM18 20.5V19.5H13.5V20.5H18ZM18 18.5V17.5H13.5V18.5H18ZM18 16.5V15.5H13.5V16.5H18ZM18 26.5V25.5H13.5V26.5H18Z" fill="#0D2B49"/>
</svg>
