<svg width="32" height="32" viewBox="0 0 32 32" fill="none" xmlns="http://www.w3.org/2000/svg">
<path d="M25.5067 30H16.5035V29.0018C16.4692 27.2357 18.8595 27.6624 19.6889 27.178C19.8114 26.7031 19.8261 25.8156 19.7936 23.0585C19.7569 22.3509 19.9861 21.3512 19.3024 20.8916C18.2352 20.006 17.18 18.97 16.6119 17.6815C14.9609 14.5313 17.0196 8.54785 17.1813 7.96872H24.7894C25.0279 8.81495 26.982 14.462 25.3657 17.6689C24.7987 18.9641 23.7375 20.0074 22.6642 20.8964C21.9902 21.3444 22.2108 22.3567 22.178 23.0508C22.1271 26.3991 22.2201 26.9275 22.2396 26.9986C22.268 27.1019 22.2876 27.1751 22.2993 27.1965C23.1381 27.6373 25.5217 27.2066 25.4948 28.9501L25.5067 30ZM17.4797 28.9501H24.4929C24.4929 28.685 24.4929 28.6577 23.7405 28.5339C22.7318 28.3382 21.3362 28.2057 21.2848 27.3027C21.2329 27.1166 21.1203 26.7159 21.1761 23.0429C21.1285 22.027 21.1387 20.7418 21.9883 20.1605C22.9195 19.3821 23.8986 18.4702 24.4077 17.354C25.7389 15.0636 24.4068 10.0949 24.0556 8.96691H17.917C17.8609 9.1091 16.1353 14.8892 17.5159 17.2507C17.9928 18.3313 18.8883 19.2548 19.7976 19.9927C20.4073 20.5209 20.8017 20.988 20.7955 21.9628L20.7955 23.0507C20.8542 26.7062 20.7358 27.1283 20.6967 27.2677C20.6293 28.199 19.2881 28.3403 18.2545 28.53C17.4797 28.6577 17.4797 28.685 17.4797 28.9501ZM13.0809 9.93585C12.6562 9.54301 12.3275 9.12677 12.1289 8.73003C12.0075 8.48926 11.9381 8.26506 11.9293 8.09154L11.7532 2.21257C11.7532 1.81973 11.4274 1.5 11.0262 1.5H8.98133C8.58019 1.5 8.25438 1.81973 8.25438 2.19795L8.07924 8.07985C8.06946 8.26603 7.99901 8.48926 7.8728 8.73198C7.67614 9.12482 7.34837 9.54204 6.92668 9.93585C6.06568 10.7323 5.99719 11.5482 5.99719 12.5317V30H14V12.5317C14 11.5482 13.9419 10.7323 13.0809 9.93585ZM10.7591 2.49819L10.8902 6.99393H9.11733L9.24844 2.49819H10.7591ZM6.99908 12.5317C6.99908 11.6271 7.05681 11.1777 7.60961 10.666C8.11936 10.1903 8.5205 9.67461 8.76511 9.18429C8.95589 8.81874 9.06156 8.46489 9.08015 8.12079L9.084 7.99212H10.9241L10.9284 8.13249C10.945 8.45904 11.0487 8.81094 11.2336 9.17649C11.4841 9.67851 11.8872 10.1942 12.3999 10.6669C12.9507 11.1777 13.0085 11.6271 13.0085 12.5317V15.4746H6.99908V12.5317ZM6.99908 16.4728H13.0065V23.4601H6.99908V16.4728ZM6.99908 28.9501V24.4583H13.0085V28.9501H6.99908Z" fill="#0D2B49"/>
</svg>
