<svg width="32" height="32" viewBox="0 0 32 32" fill="none" xmlns="http://www.w3.org/2000/svg">
<path fill-rule="evenodd" clip-rule="evenodd" d="M27.016 22.0573C26.4149 23.4066 26.1255 24.0097 25.3525 25.2006C24.2705 26.8646 22.7441 28.9423 20.8585 28.9555C19.1797 28.9708 18.7466 27.8484 16.4668 27.8683C14.1896 27.8792 13.7146 28.9774 12.0339 28.9598C10.146 28.9425 8.70256 27.0714 7.62054 25.4096C4.59394 20.7498 4.27397 15.2867 6.14425 12.3813C7.46819 10.3213 9.56052 9.11051 11.5264 9.11051C13.5297 9.11051 14.7883 10.2222 16.4429 10.2222C18.0499 10.2222 19.0274 9.10849 21.3441 9.10849C23.0945 9.10849 24.9452 10.0724 26.2689 11.7365C21.9405 14.1355 22.6438 20.3846 27.016 22.0573ZM19.5847 7.24831C20.4274 6.15448 21.0676 4.61166 20.8346 3.04004C19.4608 3.13479 17.8538 4.02183 16.9155 5.17067C16.0641 6.21842 15.3585 7.77247 15.633 9.27583C17.1332 9.32421 18.6858 8.41961 19.5847 7.24831Z" fill="black"/>
</svg>
