<svg width="32" height="32" viewBox="0 0 32 32" fill="none" xmlns="http://www.w3.org/2000/svg">
<g clip-path="url(#clip0_4674_4807)">
<path fill-rule="evenodd" clip-rule="evenodd" d="M13.3983 10.472V5.25381L14.4175 4.44434V9.66283L13.3983 10.472ZM19.5467 6.45963L14.4946 10.4723H23.9485L29 6.45934L19.5467 6.45963ZM3.00058 15.4571L7.94289 11.5322H12.063L3 18.7293L3.00058 15.4571ZM18.2002 27.5555H14.0803L23.1434 20.3592L23.1431 23.6306L18.2002 27.5555ZM13.1594 11.5322L3.00058 19.5995V23.6309L5.1892 25.3686L20.4073 13.2835L18.201 11.5328L13.1594 11.5322ZM7.94318 27.5555L5.73665 25.8033L20.955 13.7185L23.1431 15.4568V19.4882L12.984 27.5554L7.94318 27.5555Z" fill="white"/>
</g>
<defs>
<clipPath id="clip0_4674_4807">
<rect width="32" height="32" fill="white"/>
</clipPath>
</defs>
</svg>
