<svg width="32" height="32" viewBox="0 0 32 32" fill="none" xmlns="http://www.w3.org/2000/svg">
<path d="M27.4838 4.51562V4.6697L18.8734 15.8519H17.4927L26.2542 4.51562H27.4838Z" fill="#E52C2E"/>
<path d="M3.99927 4V28H27.9993V4H3.99927ZM27.4837 27.4844H4.51483V25.6H5.05706C5.07187 25.5081 5.66446 24.6578 5.74447 24.5748C5.82446 24.4918 7.86001 21.8193 7.86001 21.8193H11.4274L11.8452 23.2652C11.8452 23.2652 10.8022 24.6252 10.5237 24.9541C10.3578 25.1496 9.88372 25.6 9.88372 25.6H11.5608C11.5608 25.6 11.62 25.4607 11.7533 25.2118C11.8896 24.963 12.3637 24.3852 12.3637 24.3852C12.3637 24.3852 12.5711 25.0311 12.5889 25.1407C12.6096 25.277 12.6659 25.6 12.6659 25.6H14.3637C14.3637 25.6 14.423 25.4696 14.5563 25.2207C14.6926 24.9718 15.1845 24.4326 15.1845 24.4326C15.1845 24.4326 15.3711 25.0311 15.3889 25.1407C15.4097 25.277 15.466 25.6 15.466 25.6H17.6348C17.6348 25.6 17.3119 25.037 17.2378 24.8504C17.1963 24.7467 16.5178 22.6222 16.5178 22.6222L17.0808 21.8193H20.6748C20.6748 21.8193 21.4956 24.4533 21.5934 24.8C21.6556 25.0637 21.6911 25.3304 21.6971 25.6H23.9608C23.6171 25.357 22.7578 22.3111 22.3371 21.1407L21.2408 17.3422C21.1874 17.197 21.1489 16.6756 21.1489 16.6756H19.3978C19.303 16.9245 19.143 17.1526 19.0334 17.3541C18.9 17.6059 16.6748 20.5215 16.186 21.1407C16.1504 21.1911 16.1119 21.2356 16.0734 21.283C16.0734 21.2771 16.0586 21.2207 16.0349 21.1407C15.9548 20.8592 15.7889 20.2963 15.7889 20.2963L17.8778 17.6415C18.4526 16.9155 18.7815 16.6726 18.7815 16.6726H16.986C16.9741 16.8682 16.9119 17.0578 16.8052 17.2208C16.7193 17.3541 15.2497 19.197 15.2497 19.197C15.2497 19.197 14.7904 17.5289 14.7015 17.2593C14.6482 17.0696 14.6245 16.8711 14.6304 16.6756H12.4763C12.5564 16.7674 12.8082 17.3808 12.8082 17.3808L13.8689 20.6519L13.2467 21.4459C13.2201 21.4044 12.0971 17.7185 12.0497 17.5644C11.9964 17.3896 11.9401 16.6756 11.9401 16.6756H10.0941C10.0941 16.6756 9.73561 17.4548 9.48674 17.8134C9.38599 17.9645 8.21562 19.5289 6.97117 21.1408C6.04969 22.3674 5.07785 23.603 4.51488 24.3052V4.51555H27.4837V27.4844ZM8.6926 20.7763C8.6926 20.7763 10.2067 18.9333 10.4645 18.3793C10.4911 18.32 10.497 18.3674 10.497 18.397C10.4881 18.6074 10.503 18.8178 10.5444 19.0222C10.6245 19.3452 11.0896 20.7763 11.0896 20.7763L8.6926 20.7763ZM13.6615 22.6963L14.2985 21.8696C14.2985 21.8696 14.6719 22.9956 14.7311 23.0607L14.0733 23.9674L13.6615 22.6963ZM17.9015 20.7763C17.9015 20.7763 19.4156 18.9333 19.6733 18.3793C19.703 18.32 19.7059 18.3674 19.7059 18.397C19.697 18.6074 19.7119 18.8178 19.7533 19.0222C19.8363 19.3452 20.2985 20.7763 20.2985 20.7763L17.9015 20.7763Z" fill="#293173"/>
</svg>
