<svg width="32" height="32" viewBox="0 0 32 32" fill="none" xmlns="http://www.w3.org/2000/svg">
<g clip-path="url(#clip0_4674_4810)">
<path d="M27.483 4.51562V4.67265L18.8726 15.8519H17.4949L26.2563 4.51562H27.483Z" fill="#E52C2E"/>
<path d="M3.99854 4V28H28.0015V4H3.99854ZM27.483 27.4844H4.51706V25.6H5.05632C5.07113 25.5081 5.66372 24.6578 5.74373 24.5748C5.82374 24.4918 7.85929 21.8193 7.85929 21.8193H11.4267L11.8445 23.2652C11.8445 23.2652 10.8015 24.6252 10.523 24.9541C10.3571 25.1496 9.883 25.6 9.883 25.6H11.56C11.56 25.6 11.6193 25.4607 11.7526 25.2118C11.8889 24.963 12.363 24.3852 12.363 24.3852C12.363 24.3852 12.5704 25.0311 12.5882 25.1407C12.6089 25.277 12.6652 25.6 12.6652 25.6H14.363C14.363 25.6 14.4222 25.4696 14.5556 25.2207C14.6919 24.9718 15.1837 24.4326 15.1837 24.4326C15.1837 24.4326 15.3704 25.0311 15.3882 25.1407C15.4089 25.277 15.4652 25.6 15.4652 25.6H17.6341C17.6341 25.6 17.3111 25.037 17.2371 24.8504C17.1956 24.7467 16.5171 22.6222 16.5171 22.6222L17.08 21.8193H20.6741C20.6741 21.8193 21.4949 24.4533 21.5926 24.8C21.6549 25.0637 21.6904 25.3304 21.6963 25.6H23.96C23.6163 25.357 22.7571 22.3111 22.3363 21.1407L21.24 17.3422C21.1867 17.197 21.1482 16.6756 21.1482 16.6756H19.3971C19.3023 16.9245 19.1423 17.1526 19.0326 17.3541C18.8993 17.6059 16.6741 20.5215 16.1852 21.1407C16.1497 21.1911 16.1111 21.2356 16.0726 21.283C16.0726 21.2771 16.0578 21.2207 16.0341 21.1407C15.9541 20.8592 15.7882 20.2963 15.7882 20.2963L17.8771 17.6415C18.4519 16.9155 18.7808 16.6726 18.7808 16.6726H16.9852C16.9734 16.8682 16.9112 17.0578 16.8045 17.2208C16.7186 17.3541 15.2489 19.197 15.2489 19.197C15.2489 19.197 14.7897 17.5289 14.7008 17.2593C14.6474 17.0696 14.6238 16.8711 14.6297 16.6756H12.4756C12.5556 16.7674 12.8075 17.3808 12.8075 17.3808L13.8682 20.6519L13.246 21.4459C13.2193 21.4044 12.0963 17.7185 12.0489 17.5644C11.9956 17.3896 11.9393 16.6756 11.9393 16.6756H10.0934C10.0934 16.6756 9.73487 17.4548 9.48598 17.8134C9.38523 17.9645 8.21488 19.5289 6.97043 21.1408C6.0519 22.3674 5.07709 23.603 4.51709 24.3052V4.51555H27.483V27.4844ZM8.69186 20.7763C8.69186 20.7763 10.2059 18.9333 10.4637 18.3793C10.4904 18.32 10.4963 18.3674 10.4963 18.397C10.4874 18.6074 10.5022 18.8178 10.5437 19.0222C10.6237 19.3452 11.0889 20.7763 11.0889 20.7763L8.69186 20.7763ZM13.6608 22.6963L14.2978 21.8696C14.2978 21.8696 14.6711 22.9956 14.7304 23.0607L14.0726 23.9674L13.6608 22.6963ZM17.9008 20.7763C17.9008 20.7763 19.4148 18.9333 19.6726 18.3793C19.7022 18.32 19.7052 18.3674 19.7052 18.397C19.6963 18.6074 19.7111 18.8178 19.7526 19.0222C19.8356 19.3452 20.2978 20.7763 20.2978 20.7763L17.9008 20.7763Z" fill="white"/>
</g>
<defs>
<clipPath id="clip0_4674_4810">
<rect width="32" height="32" fill="white"/>
</clipPath>
</defs>
</svg>
