<svg width="32" height="32" viewBox="0 0 32 32" fill="none" xmlns="http://www.w3.org/2000/svg">
<path d="M28 4H26.6518L17.4939 15.8521H18.8723L28 4Z" fill="#E52C2E"/>
<path fill-rule="evenodd" clip-rule="evenodd" d="M18.8723 15.8521L27.9997 4L28 28H4V25.6H5.05807C5.0714 25.5076 5.66429 24.6569 5.74548 24.5754C5.82548 24.4924 7.85955 21.8198 7.85955 21.8198H11.427L11.8447 23.2652C11.8447 23.2652 10.803 24.6264 10.5233 24.955C10.3576 25.1484 9.88356 25.6003 9.88356 25.6003H11.5615C11.5615 25.6003 11.6193 25.461 11.7538 25.2115C11.8889 24.9624 12.3642 24.3855 12.3642 24.3855C12.3642 24.3855 12.5716 25.0314 12.5882 25.1404C12.6089 25.2758 12.6658 25.6003 12.6658 25.6003H14.3624C14.3624 25.6003 14.4222 25.4711 14.5573 25.2219C14.6913 24.9721 15.1831 24.4338 15.1831 24.4338C15.1831 24.4338 15.3716 25.0314 15.3884 25.1404C15.4095 25.2758 15.4658 25.6003 15.4658 25.6003H17.6347C17.6347 25.6003 17.3105 25.0379 17.2373 24.8501C17.195 24.7461 16.5165 22.621 16.5165 22.621L17.0812 21.8198H20.6761C20.6761 21.8198 21.4948 24.4536 21.5923 24.8015C21.656 25.0631 21.6916 25.3309 21.6984 25.6003H23.9615C23.6184 25.3573 22.757 22.312 22.3384 21.1413L21.2421 17.3419C21.1888 17.1973 21.1479 16.6744 21.1479 16.6744H19.3971C19.3031 16.9238 19.1431 17.1535 19.0344 17.3552C18.8996 17.6047 16.675 20.5218 16.1861 21.1413C16.15 21.1898 16.112 21.237 16.0723 21.2826C16.0723 21.2767 16.0575 21.2222 16.0353 21.1413C15.9547 20.8607 15.7891 20.2969 15.7891 20.2969L17.8779 17.6429C18.4539 16.9146 18.7828 16.674 18.7828 16.674H16.9873C16.9728 16.8688 16.9107 17.057 16.8065 17.2222C16.72 17.3544 15.251 19.1958 15.251 19.1958C15.251 19.1958 14.7891 17.5295 14.7014 17.2598C14.6472 17.0696 14.6235 16.872 14.6311 16.6744H12.4771C12.5577 16.7662 12.8068 17.3816 12.8068 17.3816L13.8688 20.6509L13.2474 21.4456C13.2208 21.4056 12.0972 17.7188 12.0492 17.565C11.9959 17.3908 11.9387 16.6744 11.9387 16.6744H10.0946C10.0946 16.6744 9.73662 17.4536 9.48803 17.8145C9.38551 17.9635 8.21633 19.5301 6.9701 21.1413C5.58343 22.989 4.0744 24.8628 4.04151 24.8865C4.02697 24.8993 4.01312 24.9128 4.00003 24.9271V4H26.6518L17.4939 15.8521H18.8723ZM10.4978 18.3958C10.4877 18.6062 10.5031 18.8166 10.5446 19.0225C10.6258 19.3452 11.0898 20.776 11.0898 20.776H8.69275C8.69275 20.776 10.2065 18.9333 10.4637 18.3804C10.4919 18.3191 10.4978 18.3668 10.4978 18.3958ZM14.2996 21.8684C14.2996 21.8684 14.6714 22.9955 14.7322 23.061L14.0723 23.9671L13.6616 22.696L14.2996 21.8684ZM19.707 18.3958C19.6966 18.6062 19.7123 18.8166 19.7538 19.0225C19.835 19.3452 20.2996 20.776 20.2996 20.776H17.9025C17.9025 20.776 19.416 18.9333 19.6732 18.3804C19.7016 18.3191 19.707 18.3668 19.707 18.3958Z" fill="#293173"/>
</svg>
