<svg width="32" height="32" viewBox="0 0 32 32" fill="none" xmlns="http://www.w3.org/2000/svg">
<path d="M24.75 5.29004V11.95L24.46 12.06L7.92004 18.35V20.26L7.34004 20.48L4.29004 21.63V5.29004H24.75Z" fill="#1B478B"/>
<path d="M4 5V22.06L7.34 20.8L7.92 20.58V19.95L7.34 20.17L4.59 21.21V5.59H24.46V12.06L25.04 11.84V5H4Z" fill="white"/>
<path d="M24.8499 11.5301L24.2699 11.7501L7.43994 18.1501V26.7101H27.8999V10.3701L24.8499 11.5301ZM27.5999 26.4101H7.72994V18.3501L24.2699 12.0601L24.8499 11.8401L27.5999 10.7901V26.4101Z" fill="#8C9396"/>
<path d="M24.66 11.2104L24.08 11.4304L6.95996 17.9504V27.0004H28V9.94043L24.66 11.2104ZM27.41 26.4104H7.53996V18.3504L24.08 12.0604L24.66 11.8404L27.41 10.7904V26.4104Z" fill="white"/>
<path d="M27.41 10.79V26.41H7.54004V18.35L24.08 12.06L24.66 11.84L27.41 10.79Z" fill="#8C9396"/>
</svg>
