<svg width="32" height="32" viewBox="0 0 32 32" fill="none" xmlns="http://www.w3.org/2000/svg">
<path fill-rule="evenodd" clip-rule="evenodd" d="M23.53 4H8.46C6 4 4 6 4 8.46V23.53C4 26 6 28 8.46 28H28V8.46C28 6 26 4 23.53 4ZM20.78 21.06H11.22C10.11 21.06 9.51 20.18 9.51 19.35C9.51 18.52 10.11 17.64 11.22 17.64H20.78C21.89 17.64 22.49 18.52 22.49 19.35C22.49 20.18 21.89 21.06 20.78 21.06ZM20.78 14.36H11.22C10.11 14.36 9.51 13.48 9.51 12.65C9.51 11.82 10.11 10.94 11.22 10.94H20.78C21.89 10.94 22.49 11.82 22.49 12.65C22.49 13.48 21.89 14.36 20.78 14.36Z" fill="#C20045"/>
<path fill-rule="evenodd" clip-rule="evenodd" d="M22.49 19.3496C22.49 20.1796 21.89 21.0596 20.78 21.0596H11.22C10.11 21.0596 9.51001 20.1796 9.51001 19.3496C9.51001 18.5196 10.11 17.6396 11.22 17.6396H20.78C21.89 17.6396 22.49 18.5196 22.49 19.3496Z" fill="white"/>
<path fill-rule="evenodd" clip-rule="evenodd" d="M22.49 12.6504C22.49 13.4804 21.89 14.3604 20.78 14.3604H11.22C10.11 14.3604 9.51001 13.4804 9.51001 12.6504C9.51001 11.8204 10.11 10.9404 11.22 10.9404H20.78C21.89 10.9404 22.49 11.8204 22.49 12.6504Z" fill="white"/>
</svg>
