<svg width="32" height="32" viewBox="0 0 32 32" fill="none" xmlns="http://www.w3.org/2000/svg">
<g clip-path="url(#clip0_4674_4819)">
<path fill-rule="evenodd" clip-rule="evenodd" d="M20.7807 14.3573H11.2178C10.1061 14.3573 9.50993 13.4779 9.50993 12.6486C9.50993 11.8201 10.1061 10.9434 11.2178 10.9434H20.781C21.8904 10.9434 22.4886 11.8201 22.4886 12.6486C22.4886 13.4779 21.8901 14.3573 20.7807 14.3573ZM20.7807 21.056H11.2178C10.1061 21.056 9.50993 20.1775 9.50993 19.3502C9.50993 18.52 10.1061 17.6412 11.2178 17.6412H20.781C21.8904 17.6412 22.4886 18.52 22.4886 19.3502C22.4886 20.1775 21.8901 21.056 20.7807 21.056ZM23.5351 4H8.46341C5.99763 4 4 5.99882 4 8.46341V23.5342C4 25.9994 5.99763 28 8.46341 28H27.9976L28 23.5342V8.46341C28 5.99882 26.0021 4 23.5351 4Z" fill="white"/>
</g>
<defs>
<clipPath id="clip0_4674_4819">
<rect width="32" height="32" fill="white"/>
</clipPath>
</defs>
</svg>
