<svg width="32" height="32" viewBox="0 0 32 32" fill="none" xmlns="http://www.w3.org/2000/svg">
<path fill-rule="evenodd" clip-rule="evenodd" d="M16.6078 23.2751C16.6278 23.6251 16.7678 23.9851 16.7678 23.9851C16.7678 23.9851 16.4878 24.0151 15.7078 24.035C14.6078 24.675 13.2678 24.915 13.2678 24.915C13.2678 24.915 14.1178 24.355 14.5478 23.905C13.8578 23.805 13.2678 23.4851 13.2678 23.4851C13.2678 23.4851 14.4178 23.415 15.2578 23.2051C15.6578 22.8051 16.4078 21.7551 16.4078 21.7551C16.4078 21.7551 16.4478 22.345 16.5178 22.7351C17.4378 22.2951 18.2078 21.735 18.3078 21.665C18.2278 21.7651 17.5278 22.595 16.6078 23.2751Z" fill="black"/>
<path fill-rule="evenodd" clip-rule="evenodd" d="M9.55773 22.9143C9.54772 23.4644 9.57775 24.0343 9.67773 24.4443C8.78772 23.7543 8.26776 22.4443 8.26776 22.4443C7.51776 22.1543 6.44775 21.4443 6.44775 21.4443C6.44775 21.4443 7.1477 21.0543 7.75775 20.9443C7.52771 19.6643 7.83771 17.9043 7.83771 17.9043C7.83771 17.9043 8.04773 19.4943 8.80774 20.7043C9.76776 20.5143 10.5577 20.4343 10.5577 20.4343C10.5577 20.4343 10.0477 21.1443 9.77771 21.9343C10.3677 22.5244 11.4577 23.1343 11.8677 23.2843C10.9577 23.2343 9.94775 23.0643 9.55773 22.9143Z" fill="black"/>
<path fill-rule="evenodd" clip-rule="evenodd" d="M17.3879 13.9449C17.3879 13.9449 14.2579 13.4549 12.9279 13.8749C12.4578 15.0049 12.1979 16.2349 12.0779 16.9649C11.5579 15.8649 11.2178 14.4349 11.2178 14.4349C11.2178 14.4349 9.94787 15.2248 8.02783 17.0948C9.14783 14.8649 10.4778 13.4649 10.4778 13.4649C10.4778 13.4649 9.97784 12.9649 8.16784 12.8049C9.91784 12.1849 11.8478 12.3849 11.8478 12.3849C11.8478 12.3849 12.7078 11.6649 14.1279 11.2549C14.1279 11.2549 13.7579 11.7449 13.4778 12.5349C15.4979 12.7549 17.3879 13.9449 17.3879 13.9449Z" fill="black"/>
<path fill-rule="evenodd" clip-rule="evenodd" d="M25.3878 8.12481C25.1477 8.63482 24.7977 9.01482 24.3178 9.32482C24.4177 10.9948 24.0577 13.0048 23.4577 14.5648C23.4577 13.5248 23.3577 11.6348 22.7277 10.3448C22.2377 10.6848 20.9877 11.3048 19.2177 12.2048C19.4877 11.9348 20.6577 10.5448 20.9977 9.95483C19.7777 9.96484 17.6577 10.1248 15.8977 10.5148C17.0677 9.86481 19.3577 9.10481 21.2177 8.7848C20.4277 8.10481 18.8977 7.25482 17.7277 6.6748C18.6777 6.71484 22.2877 7.39484 23.5078 8.34479C24.3278 8.14484 25.3878 8.12481 25.3878 8.12481Z" fill="black"/>
<path d="M4 4V28H28V4H4ZM4.51555 24.3052V4.51555H27.4844V27.4844H4.51555V24.3052Z" fill="black"/>
</svg>
