<svg width="32" height="32" viewBox="0 0 32 32" fill="none" xmlns="http://www.w3.org/2000/svg">
<g clip-path="url(#clip0_4674_4822)">
<path fill-rule="evenodd" clip-rule="evenodd" d="M24.32 9.32919C24.4157 10.9962 24.0539 13.0044 23.4601 14.5647C23.4601 13.5298 23.3585 11.6308 22.7313 10.3416C22.2391 10.6806 20.9843 11.3084 19.2204 12.2071C19.4919 11.9357 20.6622 10.5452 21.0012 9.95171C19.7802 9.9686 17.6604 10.1212 15.8969 10.5111C17.0667 9.86668 19.3561 9.10371 21.2216 8.78134C20.4246 8.10341 18.8984 7.25482 17.728 6.67823C18.6776 6.71201 22.2901 7.39082 23.5111 8.34045C24.3259 8.14638 25.3917 8.12119 25.3917 8.12119C25.1434 8.63289 24.7994 9.01275 24.32 9.32919ZM16.6089 23.2729C16.6255 23.6231 16.7636 23.9811 16.7636 23.9811C16.7636 23.9811 16.4874 24.0163 15.7058 24.0353C14.6047 24.6714 13.2637 24.9135 13.2637 24.9135C13.2637 24.9135 14.1161 24.3535 14.5487 23.9084C13.8613 23.8065 13.2637 23.4889 13.2637 23.4889C13.2637 23.4889 14.4166 23.4101 15.2607 23.2089C15.6548 22.8024 16.4051 21.7585 16.4051 21.7585C16.4051 21.7585 16.4436 22.3443 16.5197 22.7384C17.4993 22.2679 18.3132 21.6569 18.3132 21.6569C18.3132 21.6569 17.592 22.5443 16.6089 23.2729ZM12.0812 16.9636C11.5597 15.8696 11.216 14.4326 11.216 14.4326C11.216 14.4326 9.9443 15.221 8.0237 17.0904C9.14311 14.8652 10.4785 13.4658 10.4785 13.4658C10.4785 13.4658 9.98251 12.9698 8.16355 12.8042C9.91851 12.1816 11.8518 12.3852 11.8518 12.3852C11.8518 12.3852 12.704 11.6602 14.1286 11.2534C14.1286 11.2534 13.7594 11.749 13.4797 12.5381C15.5022 12.7544 17.3846 13.9496 17.3846 13.9496C17.3846 13.9496 14.2554 13.4539 12.9327 13.8735C12.4622 15.0054 12.1953 16.2388 12.0812 16.9636ZM9.67704 24.4433C8.78667 23.7556 8.26519 22.4459 8.26519 22.4459C7.51467 22.1535 6.44652 21.4409 6.44652 21.4409C6.44652 21.4409 7.14608 21.0593 7.75645 20.9452C7.52771 19.6608 7.83289 17.9052 7.83289 17.9052C7.83289 17.9052 8.04919 19.4948 8.81245 20.704C9.76593 20.5123 10.5547 20.4361 10.5547 20.4361C10.5547 20.4361 10.0462 21.1487 9.77897 21.9366C10.3639 22.5224 11.4578 23.1325 11.8649 23.2847C10.9618 23.2344 9.94431 23.069 9.56238 22.9165C9.54994 23.4634 9.57511 24.0356 9.67704 24.4433ZM4 28H28V4H4V28Z" fill="white"/>
</g>
<defs>
<clipPath id="clip0_4674_4822">
<rect width="32" height="32" fill="white"/>
</clipPath>
</defs>
</svg>
