<svg width="32" height="32" viewBox="0 0 32 32" fill="none" xmlns="http://www.w3.org/2000/svg">
<g clip-path="url(#clip0_4674_4825)">
<path fill-rule="evenodd" clip-rule="evenodd" d="M21.38 6.73946C21.37 6.73946 21.36 6.74947 21.35 6.74947L20.93 6.88948H20.92L20.4 7.06947L19.83 7.25947C18.98 7.5395 18.13 7.82948 17.29 8.10945C17.23 8.12947 17.2 8.1595 17.18 8.2195C17.17 8.26949 17.15 8.31948 17.13 8.36946C17.11 8.42946 17.08 8.48946 17.06 8.55946C16.97 8.85945 16.9 9.17946 16.94 9.50947C16.98 9.82948 17.1 10.0695 17.39 10.1895C17.54 10.2495 17.69 10.2495 17.85 10.2295C18.18 10.1795 18.49 10.0495 18.78 9.85944C19.86 9.17945 20.68 8.19947 21.29 6.98944C21.32 6.93945 21.34 6.87945 21.37 6.81946L21.41 6.72949L21.38 6.73946Z" fill="white"/>
<path fill-rule="evenodd" clip-rule="evenodd" d="M27.9801 4.51953L27.7 4.61951L27.32 4.73951C26.5301 5.00953 25.7401 5.26954 24.95 5.53956C24.9201 5.54951 24.9001 5.56953 24.88 5.59956C24.4901 6.52955 23.9901 7.38954 23.4101 8.17952C22.5601 9.36952 21.58 10.3996 20.45 11.2495C19.89 11.6596 19.3001 12.0095 18.6701 12.2395C18.2301 12.3996 17.7901 12.4895 17.33 12.4295C16.76 12.3595 16.3401 11.9596 16.19 11.3396C16.08 10.9195 16.1001 10.4895 16.1601 10.0495C16.2401 9.48951 16.4101 8.94953 16.6201 8.42951L16.6501 8.3595L16.6601 8.31952L16.64 8.32953C16.63 8.32953 16.6201 8.33954 16.6101 8.33954C16.52 8.36951 16.4301 8.39954 16.3401 8.42951C16.1101 8.50953 15.8701 8.58954 15.64 8.65955C15.51 8.69953 15.44 8.77955 15.38 8.90955C15.01 9.87952 14.7 10.8695 14.63 11.9295C14.5901 12.4096 14.6101 12.8795 14.7301 13.3395C14.9301 14.1195 15.3601 14.6695 16.0801 14.9096C16.5501 15.0595 17.0201 15.0595 17.5001 14.9796C18.1001 14.8795 18.6601 14.6795 19.2101 14.4195C20.2101 13.9495 21.1201 13.3195 21.9801 12.5996C23.3001 11.4995 24.4701 10.2296 25.5201 8.81952C26.3501 7.69952 27.0801 6.51953 27.6801 5.22955C27.76 5.07953 27.83 4.91949 27.9001 4.75952C27.9301 4.68951 27.9601 4.6095 28.0001 4.53955L27.9801 4.51953Z" fill="white"/>
<path fill-rule="evenodd" clip-rule="evenodd" d="M25.81 11.5192C24.92 12.4191 23.98 13.2391 22.99 13.9891C22 14.7192 20.97 15.3691 19.86 15.8591C19.3 16.0992 18.72 16.2991 18.1299 16.4291C17.64 16.5292 17.15 16.5792 16.65 16.5392C16.12 16.4891 15.62 16.3392 15.16 16.0092C14.67 15.6592 14.34 15.1592 14.14 14.5591C13.97 14.0591 13.9 13.5392 13.89 12.9991C13.87 12.0992 14.02 11.2292 14.24 10.3691C14.3799 9.81916 14.54 9.27918 14.74 8.75916C14.75 8.72919 14.76 8.69916 14.77 8.66913C14.74 8.66913 14.72 8.65918 14.7 8.65918H4.79999C4.40998 8.65918 4.07996 8.96918 4.00995 9.40918C4.00995 9.41913 4 9.43915 4 9.44916V26.6992C4 26.7292 4.00995 26.7491 4.00995 26.7692C4.07996 27.1392 4.34998 27.4092 4.67999 27.4692C4.68994 27.4692 4.70996 27.4792 4.71997 27.4792H25.1L25.22 27.4592C25.59 27.3791 25.86 27.0292 25.86 26.6191C25.87 26.0091 25.86 25.4092 25.86 24.7991V11.4692C25.84 11.4891 25.82 11.5091 25.81 11.5192ZM5.25 19.3992C5.25 19.3392 5.25995 19.3292 5.31995 19.3292H5.69995V19.9991H5.75C5.93994 19.9591 6.12 19.9692 6.29999 20.0292C6.57996 20.1391 6.73999 20.3691 6.76996 20.6891C6.77997 20.8191 6.77997 20.9591 6.75995 21.0791C6.68994 21.4291 6.46997 21.6091 6.16998 21.6691C5.87994 21.7391 5.58996 21.6991 5.30999 21.6091C5.26995 21.5891 5.24999 21.5691 5.24999 21.5191L5.25 19.3992ZM6.62 25.0691C6.49 25.2391 6.31995 25.3191 6.12995 25.3492C5.84998 25.3992 5.57996 25.3691 5.31995 25.2792C5.26996 25.2691 5.25 25.2391 5.25 25.1791V23.0791C5.25 23.0091 5.26996 22.9891 5.32996 22.9991H5.63996C5.68995 22.9891 5.69996 23.0191 5.69996 23.0691V23.6691C5.8 23.6592 5.87995 23.6391 5.96998 23.6491C6.06996 23.6491 6.16999 23.6592 6.25996 23.6891C6.59999 23.7892 6.8 24.1291 6.77998 24.5292C6.76997 24.7292 6.73999 24.9092 6.62 25.0691ZM8.56 24.7892C8.48999 25.1091 8.25 25.3291 7.93 25.3591C7.78999 25.3691 7.65998 25.3591 7.51997 25.3591V26.0091H7.06996C7.06996 25.9891 7.06001 25.9692 7.06001 25.9391V23.8291C7.06001 23.7892 7.06996 23.7491 7.12001 23.7391C7.42 23.6391 7.73 23.5992 8.05 23.6891C8.37996 23.7792 8.58998 24.0691 8.58998 24.4491C8.58998 24.5591 8.58997 24.6791 8.56 24.7892ZM8.53998 21.1891C8.42999 21.5091 8.19995 21.6592 7.90998 21.6891C7.77998 21.6991 7.64997 21.6891 7.51997 21.6891V22.3391H7.06996C7.06996 22.3191 7.06001 22.2991 7.06001 22.2691V20.1592C7.06001 20.1091 7.06996 20.0791 7.11 20.0691C7.42 19.9691 7.73 19.9291 8.05 20.0191C8.38997 20.1091 8.58998 20.3991 8.58998 20.7891C8.59999 20.9291 8.58997 21.0591 8.53998 21.1891ZM10.34 24.9291C10.22 25.2292 9.94996 25.3891 9.62 25.3891C9.37995 25.3891 9.16999 25.3191 9 25.1091C8.71997 24.7691 8.71997 23.9991 9.20996 23.7391C9.47998 23.5992 9.75995 23.5992 10.03 23.7491C10.18 23.8191 10.29 23.9591 10.35 24.1291C10.45 24.3991 10.4399 24.6691 10.34 24.9291ZM10.1 21.5691C9.81995 21.7892 9.22998 21.7991 8.95997 21.3891C8.74 21.0491 8.76997 20.4891 9.02998 20.2091C9.19996 20.0191 9.40998 19.9692 9.63997 19.9692C9.82997 19.9692 10.01 20.0292 10.16 20.1691C10.35 20.3392 10.41 20.5791 10.42 20.8492C10.41 21.1391 10.33 21.3891 10.1 21.5691ZM11.64 25.2791C11.51 25.3591 11.37 25.3791 11.23 25.3891C11.01 25.3992 10.79 25.3691 10.58 25.2691L10.72 24.9591C10.85 24.9891 10.98 25.0291 11.1 25.0392C11.17 25.0491 11.24 25.0291 11.3 25.0191C11.36 24.9991 11.4 24.9491 11.4 24.8791C11.41 24.8191 11.37 24.7591 11.32 24.7292C11.26 24.6991 11.1999 24.6691 11.1299 24.6391C11.03 24.5992 10.92 24.5691 10.83 24.5091C10.62 24.3791 10.56 24.0992 10.6899 23.8991C10.73 23.8391 10.78 23.7892 10.84 23.7491C10.92 23.6991 11.01 23.6691 11.11 23.6592C11.33 23.6191 11.57 23.6491 11.78 23.7391C11.79 23.7491 11.8 23.7491 11.82 23.7691L11.6899 24.0491C11.6 24.0191 11.51 23.9792 11.43 23.9692C11.35 23.9591 11.26 23.9792 11.18 23.9891C11.13 23.9991 11.09 24.0491 11.09 24.1191C11.08 24.1891 11.11 24.2391 11.16 24.2691C11.23 24.3091 11.31 24.3291 11.3799 24.3691C11.47 24.3991 11.56 24.4291 11.64 24.4792C11.79 24.5591 11.87 24.6891 11.87 24.8691C11.87 25.0591 11.79 25.1991 11.64 25.2791ZM11.75 21.5291C11.67 21.5992 11.58 21.6491 11.48 21.6791C11.1899 21.7491 10.91 21.7292 10.6299 21.6191C10.61 21.6191 10.6 21.6091 10.58 21.5891L10.72 21.2791C10.83 21.3091 10.93 21.3491 11.04 21.3691C11.12 21.3791 11.21 21.3691 11.29 21.3491C11.35 21.3391 11.4 21.2791 11.4 21.2091C11.41 21.1391 11.37 21.0791 11.31 21.0491C11.24 21.0191 11.17 20.9891 11.1 20.9591C11.02 20.9291 10.93 20.8991 10.85 20.8491C10.7 20.7691 10.62 20.6391 10.6299 20.4491C10.6299 20.2591 10.73 20.1291 10.8799 20.0491C11.02 19.9792 11.16 19.9691 11.31 19.9691C11.48 19.9792 11.66 20.0091 11.82 20.0891L11.6899 20.3691C11.58 20.3391 11.47 20.3091 11.36 20.2991C11.3 20.2892 11.23 20.2991 11.17 20.3291C11.06 20.3791 11.05 20.5191 11.15 20.5891C11.21 20.6291 11.28 20.6491 11.35 20.6891C11.46 20.7391 11.59 20.7691 11.6899 20.8391C11.91 20.9891 11.9399 21.3291 11.75 21.5291ZM13.03 25.3091C13.03 25.3191 13.01 25.3391 13 25.3492C12.84 25.3891 12.6899 25.3891 12.53 25.3391C12.36 25.2792 12.27 25.1291 12.26 24.8891V23.9991H12.04V23.6791H12.26V23.3991C12.25 23.3291 12.27 23.2991 12.34 23.2791C12.46 23.2591 12.58 23.2192 12.71 23.1891V23.6791H13.03V23.9991H12.71V24.7991C12.71 24.9291 12.75 24.9792 12.87 24.9991C12.92 24.9991 12.98 24.9891 13.04 24.9891C13.04 25.0891 13.04 25.1991 13.03 25.3091ZM13.04 21.6391C13.04 21.6491 13.02 21.6691 13 21.6691C12.84 21.7192 12.67 21.7292 12.51 21.6592C12.33 21.5791 12.27 21.4191 12.26 21.2292V20.3292H12.08C12.05 20.3292 12.03 20.3191 12.03 20.2792C12.04 20.1891 12.04 20.0992 12.04 20.0091H12.26V19.7091C12.26 19.6491 12.27 19.6291 12.33 19.6191C12.45 19.5891 12.57 19.5491 12.71 19.5191V19.9991H13.03V20.3291H12.71V21.1391C12.71 21.2491 12.76 21.3191 12.86 21.3191C12.92 21.3291 12.97 21.3191 13.04 21.3191L13.04 21.6391ZM15.34 25.1991C15.21 25.2991 15.05 25.3591 14.88 25.3691C14.64 25.3891 14.4 25.3591 14.17 25.2791C14.11 25.2691 14.09 25.2391 14.09 25.1691V23.0791C14.09 23.0258 14.1167 22.9991 14.17 22.9991C14.28 22.9991 14.38 22.9991 14.49 22.9891C14.54 22.9891 14.55 23.0091 14.55 23.0591V23.6592C14.67 23.6592 14.78 23.6391 14.9 23.6491C15.13 23.6691 15.34 23.7491 15.49 23.9691C15.69 24.2591 15.71 24.9191 15.34 25.1991ZM15.53 21.3091C15.4 21.5491 15.1899 21.6492 14.95 21.6891C14.6899 21.7292 14.42 21.6991 14.17 21.6091C14.11 21.5992 14.09 21.5691 14.09 21.4991V19.4092C14.09 19.3491 14.1 19.3191 14.16 19.3291H14.5C14.54 19.3191 14.55 19.3391 14.55 19.3891V20.0091C14.71 19.9591 14.89 19.9591 15.06 19.9991C15.39 20.0891 15.61 20.3591 15.63 20.7491C15.64 20.9391 15.62 21.1291 15.53 21.3091ZM17.29 25.2091C17.29 25.2591 17.28 25.2792 17.24 25.2892C16.9 25.3992 16.56 25.4291 16.22 25.3392C16.14 25.3191 16.07 25.2892 16.01 25.2391C15.74 25.0491 15.75 24.6491 16.02 24.4591C16.18 24.3591 16.36 24.3191 16.54 24.2991C16.64 24.2892 16.75 24.2792 16.85 24.2691C16.87 24.0691 16.8 23.9792 16.63 23.9591C16.45 23.9391 16.27 23.9792 16.09 24.0292L16.03 24.0491C15.99 23.9591 15.95 23.8691 15.91 23.7591C15.97 23.7391 16.02 23.7192 16.08 23.7091C16.34 23.6391 16.61 23.6091 16.8799 23.6691C17.16 23.7391 17.29 23.9191 17.29 24.2391L17.29 25.2091ZM17.29 21.5491C17.29 21.5892 17.29 21.6091 17.25 21.6191C16.89 21.7391 16.52 21.7691 16.16 21.6492C16.02 21.6091 15.91 21.5192 15.85 21.3791C15.75 21.1492 15.83 20.8992 16.04 20.7792C16.18 20.6891 16.35 20.6492 16.51 20.6291C16.62 20.6191 16.74 20.6091 16.85 20.5992C16.87 20.4191 16.81 20.3191 16.66 20.2991C16.46 20.2591 16.27 20.3091 16.08 20.3691C16.04 20.3791 16.02 20.3691 16 20.3191C15.97 20.2491 15.9399 20.1791 15.91 20.0892C16.01 20.0591 16.09 20.0292 16.18 20.0091C16.42 19.9591 16.65 19.9491 16.8899 19.9991C17.16 20.0691 17.29 20.2491 17.29 20.5591C17.3 20.8891 17.29 21.2192 17.29 21.5491ZM19.12 25.2991C19.12 25.3392 19.11 25.3591 19.07 25.3591H18.71C18.67 25.3591 18.66 25.3392 18.66 25.2892V24.2892C18.66 24.0992 18.58 23.9991 18.41 23.9891C18.32 23.9891 18.23 23.9991 18.14 24.0091C18.1 24.0091 18.08 24.0392 18.08 24.0892C18.09 24.4792 18.09 24.8691 18.09 25.2591C18.09 25.2792 18.09 25.2991 18.08 25.3191C18.08 25.3291 18.06 25.3492 18.05 25.3492C17.92 25.3591 17.79 25.3591 17.66 25.3591C17.62 25.3591 17.6299 25.3191 17.6299 25.2892V23.8191C17.6299 23.7892 17.62 23.7591 17.66 23.7491C18.01 23.6291 18.36 23.5992 18.72 23.6891C18.79 23.7091 18.86 23.7391 18.92 23.7892C19.05 23.8691 19.12 24.0091 19.12 24.1791L19.12 25.2991ZM19.12 21.6791H18.66V20.6291C18.66 20.4291 18.58 20.3291 18.4 20.3191C18.32 20.3191 18.23 20.3291 18.15 20.3391C18.1 20.3391 18.09 20.3691 18.09 20.4291V21.5891C18.09 21.6191 18.08 21.6491 18.08 21.6791H17.63V21.6091C17.63 21.1291 17.63 20.6491 17.62 20.1691C17.62 20.1091 17.64 20.0791 17.69 20.0691C18.04 19.9591 18.38 19.9191 18.73 20.0191C18.91 20.0691 19.05 20.1691 19.1 20.3791C19.11 20.4191 19.12 20.4591 19.12 20.5091L19.12 21.6791ZM20.97 25.9491C20.97 26.0091 20.95 26.0191 20.9 26.0191H20.5V25.3392C20.39 25.3492 20.28 25.3691 20.17 25.3691C20.08 25.3691 19.99 25.3591 19.91 25.3292C19.65 25.2491 19.48 25.0591 19.43 24.7591C19.38 24.4391 19.42 24.1391 19.63 23.8891C19.77 23.7292 19.96 23.6691 20.16 23.6491C20.41 23.6191 20.66 23.6491 20.9 23.7391C20.95 23.7491 20.97 23.7691 20.97 23.8292C20.96 24.5392 20.96 25.2391 20.97 25.9491ZM20.61 21.6791C20.57 21.6891 20.54 21.6691 20.52 21.6391C20.33 21.3891 20.14 21.1391 19.95 20.8991L19.92 20.8591V21.6091C19.92 21.6691 19.9 21.6891 19.85 21.6791H19.53C19.47 21.6891 19.46 21.6691 19.46 21.6091V19.3991C19.46 19.3391 19.47 19.3191 19.52 19.3191C19.63 19.3291 19.74 19.3291 19.85 19.3191C19.9 19.3191 19.92 19.3391 19.92 19.3991V20.7292L20.08 20.5292C20.21 20.3691 20.34 20.2091 20.46 20.0491C20.49 20.0191 20.52 19.9991 20.56 19.9991C20.6899 20.0091 20.83 20.0091 20.96 20.0091H21.04C21.01 20.0392 20.99 20.0591 20.97 20.0892C20.79 20.2991 20.62 20.5191 20.4399 20.7391C20.4 20.7792 20.4 20.7991 20.43 20.8492C20.6299 21.0992 20.8199 21.3492 21.02 21.5992C21.03 21.6191 21.05 21.6492 21.07 21.6791L20.61 21.6791ZM22.79 25.2091C22.79 25.2491 22.78 25.2792 22.74 25.2892C22.4 25.3992 22.06 25.4391 21.71 25.3492C21.44 25.2792 21.31 25.0791 21.31 24.7691V23.7391C21.31 23.6891 21.33 23.6691 21.37 23.6691C21.48 23.6791 21.6 23.6791 21.71 23.6691C21.76 23.6691 21.77 23.6891 21.77 23.7491V24.7391C21.77 24.9391 21.85 25.0191 22.02 25.0292C22.1 25.0292 22.18 25.0191 22.25 25.0191C22.31 25.0091 22.33 24.9891 22.33 24.9291C22.32 24.5392 22.32 24.1491 22.32 23.7591C22.32 23.6991 22.3466 23.6691 22.4 23.6691C22.51 23.6691 22.61 23.6791 22.72 23.6691C22.78 23.6691 22.79 23.6991 22.79 23.7591L22.79 25.2091ZM24.68 24.4591C24.68 24.5591 24.68 24.5491 24.59 24.5591C24.25 24.6091 23.91 24.6492 23.56 24.6891C23.55 24.6991 23.54 24.6991 23.54 24.6991C23.56 24.8591 23.67 24.9891 23.84 25.0292C24.05 25.0791 24.25 25.0392 24.45 24.9692C24.5 24.9491 24.53 24.9592 24.55 25.0091C24.57 25.0992 24.61 25.1791 24.65 25.2792C24.56 25.2991 24.48 25.3292 24.39 25.3492C24.15 25.3992 23.9 25.4191 23.65 25.3492C23.26 25.2292 23.06 24.9092 23.08 24.4391C23.1 24.0292 23.34 23.7292 23.72 23.6592C23.93 23.6191 24.1299 23.6291 24.33 23.7292C24.55 23.8492 24.66 24.0591 24.68 24.3292L24.68 24.4591Z" fill="white"/>
<path fill-rule="evenodd" clip-rule="evenodd" d="M24.0098 23.969C23.9598 23.959 23.8998 23.959 23.8499 23.959C23.6398 23.979 23.4899 24.1689 23.5098 24.4189L23.5399 24.409L24.2299 24.319C24.2399 24.139 24.1498 24.009 24.0098 23.969Z" fill="white"/>
<path fill-rule="evenodd" clip-rule="evenodd" d="M20.2999 23.9795C20.0899 23.9795 19.9398 24.0995 19.8899 24.3295C19.8799 24.4194 19.8699 24.4995 19.8799 24.5895C19.8899 24.8895 20.0599 25.0595 20.3199 25.0395C20.3499 25.0395 20.3699 25.0295 20.3999 25.0295C20.4199 25.0195 20.4399 25.0195 20.4499 25.0195C20.4899 25.0095 20.4999 24.9894 20.4999 24.9495V24.1995C20.4999 24.0528 20.4332 23.9795 20.2999 23.9795Z" fill="white"/>
<path fill-rule="evenodd" clip-rule="evenodd" d="M16.39 24.6188C16.29 24.6688 16.24 24.7388 16.25 24.8489C16.25 24.9489 16.3 25.0189 16.41 25.0488C16.54 25.0989 16.68 25.0889 16.82 25.0588C16.84 25.0488 16.85 25.0289 16.86 25.0189V24.5488C16.83 24.5488 16.81 24.5488 16.78 24.5588C16.65 24.5588 16.52 24.5688 16.39 24.6188Z" fill="white"/>
<path fill-rule="evenodd" clip-rule="evenodd" d="M16.38 20.9589C16.3001 20.9989 16.2501 21.0589 16.2501 21.1589C16.2401 21.2789 16.3001 21.3489 16.4301 21.3889C16.5601 21.4289 16.69 21.4189 16.82 21.3889C16.83 21.3789 16.8501 21.3589 16.8501 21.3489C16.8601 21.2289 16.8601 21.1089 16.8601 20.9889V20.8789L16.8001 20.8889C16.6501 20.8889 16.51 20.8989 16.38 20.9589Z" fill="white"/>
<path fill-rule="evenodd" clip-rule="evenodd" d="M14.67 23.9797H14.64C14.6201 23.9896 14.61 23.9896 14.6 23.9896C14.5601 23.9896 14.55 24.0096 14.55 24.0596V24.8397C14.55 24.9296 14.55 24.9797 14.57 24.9996C14.59 25.0297 14.63 25.0297 14.71 25.0397C14.95 25.0596 15.11 24.9196 15.16 24.6597C15.16 24.6296 15.17 24.5897 15.17 24.5596V24.5096C15.17 24.1396 14.9901 23.9396 14.67 23.9797Z" fill="white"/>
<path fill-rule="evenodd" clip-rule="evenodd" d="M14.83 20.3096C14.78 20.3096 14.73 20.3096 14.6801 20.3196H14.6C14.5601 20.3196 14.55 20.3396 14.55 20.3896V21.2796C14.55 21.3296 14.5601 21.3496 14.6 21.3496C14.6201 21.3496 14.65 21.3496 14.67 21.3596C14.73 21.3596 14.78 21.3696 14.84 21.3596C14.99 21.3396 15.09 21.2296 15.14 21.0696C15.1801 20.9196 15.1801 20.7696 15.14 20.6096C15.09 20.4396 14.9901 20.3296 14.83 20.3096Z" fill="white"/>
<path fill-rule="evenodd" clip-rule="evenodd" d="M9.9 20.4996C9.85001 20.3596 9.74003 20.3096 9.61002 20.3096C9.47001 20.3096 9.37003 20.3796 9.31998 20.5096C9.24002 20.7196 9.24002 20.9496 9.31998 21.1596C9.37003 21.3096 9.48001 21.3696 9.62003 21.3696C9.75998 21.3696 9.86002 21.2995 9.91001 21.1596C9.93003 21.0896 9.94999 21.0096 9.96 20.9396C9.97001 20.9096 9.97001 20.8696 9.98002 20.8296C9.97001 20.7996 9.97001 20.7596 9.96 20.7296C9.93998 20.6496 9.93003 20.5796 9.9 20.4996Z" fill="white"/>
<path fill-rule="evenodd" clip-rule="evenodd" d="M9.92989 24.2295C9.87984 24.0695 9.76986 23.9795 9.61989 23.9795C9.46987 23.9795 9.35988 24.0595 9.30989 24.2195C9.24989 24.4194 9.24989 24.6094 9.30989 24.8095C9.35988 24.9595 9.46986 25.0395 9.60988 25.0395C9.75984 25.0395 9.87984 24.9595 9.91988 24.7994C9.93984 24.7394 9.94985 24.6694 9.95986 24.6094C9.96987 24.5795 9.96987 24.5494 9.97988 24.5195L9.95986 24.4294C9.94985 24.3594 9.93984 24.2994 9.92989 24.2295Z" fill="white"/>
<path fill-rule="evenodd" clip-rule="evenodd" d="M7.78003 20.3096C7.73004 20.3096 7.68005 20.3096 7.63001 20.3196H7.57001C7.53003 20.3196 7.51001 20.3496 7.51001 20.3896C7.52002 20.5096 7.52002 20.6196 7.52002 20.7296V21.1596C7.52002 21.2596 7.52002 21.3096 7.54004 21.3396C7.56006 21.3696 7.61005 21.3696 7.71002 21.3696C7.90002 21.3796 8.04004 21.2696 8.10003 21.0796C8.16003 20.9196 8.16003 20.7496 8.11004 20.5896C8.05004 20.4196 7.94001 20.3296 7.78003 20.3096Z" fill="white"/>
<path fill-rule="evenodd" clip-rule="evenodd" d="M7.78003 23.9795C7.73004 23.9795 7.68005 23.9795 7.63001 23.9894H7.57001C7.53003 23.9995 7.51001 24.0195 7.51001 24.0595C7.52002 24.1694 7.52002 24.2695 7.52002 24.3795V24.6395C7.52002 24.7495 7.52002 24.8594 7.51001 24.9695C7.51001 25.0095 7.53003 25.0195 7.56006 25.0295H7.62006C7.67005 25.0395 7.72004 25.0395 7.77002 25.0395C7.94 25.0195 8.06006 24.9194 8.11005 24.7395C8.15003 24.5895 8.15003 24.4395 8.12006 24.2895C8.07001 24.1095 7.95002 23.9995 7.78003 23.9795Z" fill="white"/>
<path fill-rule="evenodd" clip-rule="evenodd" d="M5.81995 21.3591C5.87 21.3591 5.93 21.3691 5.97998 21.3591C6.12994 21.3492 6.23999 21.2591 6.28998 21.0992C6.34998 20.9291 6.34998 20.7491 6.28998 20.5892C6.23999 20.4291 6.13996 20.3292 5.97998 20.3091C5.92999 20.2991 5.87994 20.3091 5.82996 20.3091C5.79999 20.3191 5.76996 20.3191 5.75 20.3191C5.70996 20.3191 5.69995 20.3392 5.69995 20.3791V21.2792C5.69995 21.3292 5.71997 21.3492 5.75995 21.3492C5.77997 21.3492 5.79999 21.3591 5.81995 21.3591Z" fill="white"/>
<path fill-rule="evenodd" clip-rule="evenodd" d="M5.85999 23.9692C5.83997 23.9792 5.82996 23.9792 5.81 23.9792C5.79999 23.9792 5.77997 23.9792 5.76996 23.9891C5.71997 23.9891 5.69995 24.0091 5.69995 24.0691V24.9592C5.69995 24.9991 5.70996 25.0192 5.73999 25.0192C5.76996 25.0192 5.78998 25.0292 5.81 25.0292C5.84998 25.0292 5.88996 25.0392 5.93994 25.0392C6.08996 25.0292 6.20996 24.9592 6.27997 24.7991C6.31995 24.6891 6.32996 24.5691 6.32996 24.4491C6.31 24.1291 6.13996 23.9592 5.85999 23.9692Z" fill="white"/>
</g>
<defs>
<clipPath id="clip0_4674_4825">
<rect width="32" height="32" fill="white"/>
</clipPath>
</defs>
</svg>
