<svg width="32" height="32" viewBox="0 0 32 32" fill="none" xmlns="http://www.w3.org/2000/svg">
<path fill-rule="evenodd" clip-rule="evenodd" d="M21.38 6.74047C21.38 6.74047 21.36 6.75047 21.35 6.75047L20.93 6.89047H20.92L20.4 7.07047L19.83 7.26047C18.98 7.54047 18.13 7.83047 17.29 8.11047C17.23 8.13047 17.2 8.16047 17.18 8.22047C17.17 8.27047 17.15 8.32047 17.13 8.37047C17.11 8.43047 17.08 8.49047 17.06 8.56047C16.97 8.86047 16.9 9.18047 16.94 9.51047C16.98 9.83047 17.1 10.0705 17.39 10.1905C17.54 10.2505 17.69 10.2505 17.85 10.2305C18.18 10.1805 18.49 10.0505 18.78 9.86047C19.86 9.18047 20.68 8.20047 21.29 6.99047C21.32 6.94047 21.34 6.88047 21.37 6.82047L21.41 6.73047H21.38V6.74047Z" fill="#EF2636"/>
<path fill-rule="evenodd" clip-rule="evenodd" d="M27.98 4.51953L27.7001 4.61953L27.32 4.73953C26.53 5.00953 25.7401 5.26953 24.9501 5.53953C24.9201 5.53953 24.9 5.56953 24.88 5.59953C24.49 6.52953 23.99 7.38953 23.41 8.17953C22.56 9.36953 21.5801 10.3995 20.4501 11.2495C19.8901 11.6595 19.3 12.0095 18.67 12.2395C18.23 12.3995 17.79 12.4895 17.33 12.4295C16.76 12.3595 16.3401 11.9595 16.1901 11.3395C16.0801 10.9195 16.1 10.4895 16.16 10.0495C16.24 9.48953 16.4101 8.94953 16.6201 8.42953L16.65 8.35953V8.31953L16.64 8.32953C16.63 8.32953 16.6201 8.33953 16.6101 8.33953C16.5201 8.36953 16.4301 8.39953 16.34 8.42953C16.11 8.50953 15.8701 8.58953 15.6401 8.65953C15.5101 8.69953 15.44 8.77953 15.38 8.90953C15.01 9.87953 14.7 10.8695 14.63 11.9295C14.59 12.4095 14.61 12.8795 14.73 13.3395C14.93 14.1195 15.36 14.6695 16.08 14.9095C16.55 15.0595 17.02 15.0595 17.5 14.9795C18.1 14.8795 18.66 14.6795 19.21 14.4195C20.21 13.9495 21.12 13.3195 21.98 12.5995C23.3 11.4995 24.47 10.2295 25.5201 8.81953C26.35 7.69953 27.08 6.51953 27.68 5.22953C27.76 5.07953 27.83 4.91953 27.9 4.75953C27.93 4.68953 27.96 4.60953 28 4.53953L27.98 4.51953Z" fill="#EF2636"/>
<path fill-rule="evenodd" clip-rule="evenodd" d="M25.81 11.5202C24.92 12.4202 23.98 13.2402 22.99 13.9902C22 14.7202 20.97 15.3702 19.86 15.8602C19.3 16.1002 18.72 16.3002 18.13 16.4302C17.64 16.5302 17.15 16.5802 16.65 16.5402C16.12 16.4902 15.62 16.3402 15.16 16.0102C14.67 15.6602 14.34 15.1602 14.14 14.5602C13.97 14.0602 13.9 13.5402 13.89 13.0002C13.87 12.1002 14.02 11.2302 14.24 10.3702C14.38 9.82016 14.54 9.28016 14.74 8.76016C14.75 8.73016 14.76 8.70016 14.77 8.67016C14.74 8.67016 14.72 8.66016 14.7 8.66016H4.8C4.41 8.66016 4.08 8.97016 4.01 9.41016C4.01 9.42016 4 9.44016 4 9.45016V26.7002C4 26.7002 4.01 26.7502 4.01 26.7702C4.08 27.1402 4.35 27.4102 4.68 27.4702C4.69 27.4702 4.71 27.4802 4.72 27.4802H25.1L25.22 27.4602C25.59 27.3802 25.86 27.0302 25.86 26.6202C25.87 26.0102 25.86 25.4102 25.86 24.8002V11.4702C25.86 11.4702 25.82 11.5102 25.81 11.5202ZM5.25 19.4002C5.25 19.3402 5.26 19.3302 5.32 19.3302H5.7V20.0002H5.75C5.94 19.9602 6.12 19.9702 6.3 20.0302C6.58 20.1402 6.74 20.3702 6.77 20.6902C6.78 20.8202 6.78 20.9602 6.76 21.0802C6.69 21.4302 6.47 21.6102 6.17 21.6702C5.88 21.7402 5.59 21.7002 5.31 21.6102C5.27 21.5902 5.25 21.5702 5.25 21.5202V19.4002ZM6.62 25.0702C6.49 25.2402 6.32 25.3202 6.13 25.3502C5.85 25.4002 5.58 25.3702 5.32 25.2802C5.27 25.2702 5.25 25.2402 5.25 25.1802V23.0802C5.25 23.0102 5.27 22.9902 5.33 23.0002H5.64C5.64 23.0002 5.7 23.0202 5.7 23.0702V23.6702C5.8 23.6602 5.88 23.6402 5.97 23.6502C6.07 23.6502 6.17 23.6602 6.26 23.6902C6.6 23.7902 6.8 24.1302 6.78 24.5302C6.77 24.7302 6.74 24.9102 6.62 25.0702ZM8.56 24.7902C8.49 25.1102 8.25 25.3302 7.93 25.3602C7.79 25.3702 7.66 25.3602 7.52 25.3602V26.0102H7.07C7.07 26.0102 7.06 25.9702 7.06 25.9402V23.8302C7.06 23.8302 7.07 23.7502 7.12 23.7402C7.42 23.6402 7.73 23.6002 8.05 23.6902C8.38 23.7802 8.59 24.0702 8.59 24.4502C8.59 24.5602 8.59 24.6802 8.56 24.7902ZM8.54 21.1902C8.43 21.5102 8.2 21.6602 7.91 21.6902C7.78 21.7002 7.65 21.6902 7.52 21.6902V22.3402H7.07C7.07 22.3402 7.06 22.3002 7.06 22.2702V20.1602C7.06 20.1602 7.07 20.0802 7.11 20.0702C7.42 19.9702 7.73 19.9302 8.05 20.0202C8.39 20.1102 8.59 20.4002 8.59 20.7902C8.59 20.9302 8.59 21.0602 8.54 21.1902ZM10.34 24.9302C10.22 25.2302 9.95 25.3902 9.62 25.3902C9.38 25.3902 9.17 25.3202 9 25.1102C8.72 24.7702 8.72 24.0002 9.21 23.7402C9.48 23.6002 9.76 23.6002 10.03 23.7502C10.18 23.8202 10.29 23.9602 10.35 24.1302C10.45 24.4002 10.44 24.6702 10.35 24.9302H10.34ZM10.1 21.5702C9.82 21.7902 9.23 21.8002 8.96 21.3902C8.74 21.0502 8.77 20.4902 9.03 20.2102C9.2 20.0202 9.41 19.9702 9.64 19.9702C9.83 19.9702 10.01 20.0302 10.16 20.1702C10.35 20.3402 10.41 20.5802 10.42 20.8502C10.41 21.1402 10.33 21.3902 10.1 21.5702ZM11.64 25.2802C11.51 25.3602 11.37 25.3802 11.23 25.3902C11.01 25.3902 10.79 25.3702 10.58 25.2702L10.72 24.9602C10.85 24.9902 10.98 25.0302 11.1 25.0402C11.17 25.0502 11.24 25.0302 11.3 25.0202C11.36 25.0002 11.4 24.9502 11.4 24.8802C11.4 24.8202 11.37 24.7602 11.32 24.7302C11.26 24.7002 11.2 24.6702 11.13 24.6402C11.03 24.6002 10.92 24.5702 10.83 24.5102C10.62 24.3802 10.56 24.1002 10.69 23.9002C10.73 23.8402 10.78 23.7902 10.84 23.7502C10.92 23.7002 11.01 23.6702 11.11 23.6602C11.33 23.6202 11.57 23.6502 11.78 23.7402C11.78 23.7502 11.8 23.7502 11.82 23.7702L11.69 24.0502C11.6 24.0202 11.51 23.9802 11.43 23.9702C11.35 23.9602 11.26 23.9802 11.18 23.9902C11.13 24.0002 11.09 24.0502 11.09 24.1202C11.08 24.1902 11.11 24.2402 11.16 24.2702C11.23 24.3102 11.31 24.3302 11.38 24.3702C11.47 24.4002 11.56 24.4302 11.64 24.4802C11.79 24.5602 11.87 24.6902 11.87 24.8702C11.87 25.0602 11.79 25.2002 11.64 25.2802ZM11.75 21.5302C11.67 21.6002 11.58 21.6502 11.48 21.6802C11.19 21.7502 10.91 21.7302 10.63 21.6202C10.61 21.6202 10.6 21.6102 10.58 21.5902L10.72 21.2802C10.83 21.3102 10.93 21.3502 11.04 21.3702C11.12 21.3802 11.21 21.3702 11.29 21.3502C11.35 21.3402 11.4 21.2802 11.4 21.2102C11.4 21.1402 11.37 21.0802 11.31 21.0502C11.24 21.0202 11.17 20.9902 11.1 20.9602C11.02 20.9302 10.93 20.9002 10.85 20.8502C10.7 20.7702 10.62 20.6402 10.63 20.4502C10.63 20.2602 10.73 20.1302 10.88 20.0502C11.02 19.9802 11.16 19.9702 11.31 19.9702C11.48 19.9802 11.66 20.0102 11.82 20.0902L11.69 20.3702C11.58 20.3402 11.47 20.3102 11.36 20.3002C11.3 20.2902 11.23 20.3002 11.17 20.3302C11.06 20.3802 11.05 20.5202 11.15 20.5902C11.21 20.6302 11.28 20.6502 11.35 20.6902C11.46 20.7402 11.59 20.7702 11.69 20.8402C11.91 20.9902 11.94 21.3302 11.75 21.5302ZM13.03 25.3102C13.03 25.3102 13.01 25.3402 13 25.3502C12.84 25.3902 12.69 25.3902 12.53 25.3402C12.36 25.2802 12.27 25.1302 12.26 24.8902V24.0002H12.04V23.6802H12.26V23.4002C12.25 23.3302 12.27 23.3002 12.34 23.2802C12.46 23.2602 12.58 23.2202 12.71 23.1902V23.6802H13.03V24.0002H12.71V24.8002C12.71 24.9302 12.75 24.9802 12.87 25.0002C12.92 25.0002 12.98 24.9902 13.04 24.9902C13.04 25.0902 13.04 25.2002 13.04 25.3102H13.03ZM13.03 21.6402C13.03 21.6402 13.01 21.6702 12.99 21.6702C12.83 21.7202 12.66 21.7302 12.5 21.6602C12.32 21.5802 12.26 21.4202 12.25 21.2302V20.3302H12.07C12.07 20.3302 12.02 20.3302 12.02 20.2802C12.02 20.1902 12.02 20.1002 12.02 20.0102H12.24V19.7102C12.24 19.6502 12.25 19.6302 12.31 19.6202C12.43 19.5902 12.55 19.5502 12.69 19.5202V20.0002H13.01V20.3302H12.69V21.1402C12.69 21.2502 12.74 21.3202 12.84 21.3202C12.9 21.3202 12.95 21.3202 13.02 21.3202V21.6402H13.03ZM15.33 25.2002C15.2 25.3002 15.04 25.3602 14.87 25.3702C14.63 25.3902 14.39 25.3602 14.16 25.2802C14.1 25.2702 14.08 25.2402 14.08 25.1702V23.0802C14.08 23.0268 14.1067 23.0002 14.16 23.0002C14.27 23.0002 14.37 23.0002 14.48 22.9902C14.53 22.9902 14.54 23.0102 14.54 23.0602V23.6602C14.66 23.6602 14.77 23.6402 14.89 23.6502C15.12 23.6702 15.33 23.7502 15.48 23.9702C15.68 24.2602 15.7 24.9202 15.33 25.2002ZM15.52 21.3102C15.39 21.5502 15.18 21.6502 14.94 21.6902C14.68 21.7302 14.41 21.7002 14.16 21.6102C14.1 21.6002 14.08 21.5702 14.08 21.5002V19.4102C14.08 19.3502 14.08 19.3202 14.15 19.3302H14.49C14.49 19.3302 14.54 19.3402 14.54 19.3902V20.0102C14.7 19.9602 14.88 19.9602 15.05 20.0002C15.38 20.0902 15.6 20.3602 15.62 20.7502C15.63 20.9402 15.61 21.1302 15.52 21.3102ZM17.28 25.2102C17.28 25.2602 17.28 25.2802 17.23 25.2902C16.89 25.4002 16.55 25.4302 16.21 25.3402C16.13 25.3202 16.06 25.2902 16 25.2402C15.73 25.0502 15.74 24.6502 16.01 24.4602C16.17 24.3602 16.35 24.3202 16.53 24.3002C16.63 24.2902 16.74 24.2802 16.84 24.2702C16.86 24.0702 16.79 23.9802 16.62 23.9602C16.44 23.9402 16.26 23.9802 16.08 24.0302L16.02 24.0502C15.98 23.9602 15.94 23.8702 15.9 23.7602C15.96 23.7402 16.01 23.7202 16.07 23.7102C16.33 23.6402 16.6 23.6102 16.87 23.6702C17.15 23.7402 17.28 23.9202 17.28 24.2402V25.2102ZM17.28 21.5502C17.28 21.5502 17.28 21.6102 17.24 21.6202C16.88 21.7402 16.51 21.7702 16.15 21.6502C16.01 21.6102 15.9 21.5202 15.84 21.3802C15.74 21.1502 15.82 20.9002 16.03 20.7802C16.17 20.6902 16.34 20.6502 16.5 20.6302C16.61 20.6202 16.73 20.6102 16.84 20.6002C16.86 20.4202 16.8 20.3202 16.65 20.3002C16.45 20.2602 16.26 20.3102 16.07 20.3702C16.03 20.3802 16.01 20.3702 15.99 20.3202C15.96 20.2502 15.93 20.1802 15.9 20.0902C16 20.0602 16.08 20.0302 16.17 20.0102C16.41 19.9602 16.64 19.9502 16.88 20.0002C17.15 20.0702 17.28 20.2502 17.28 20.5602C17.29 20.8902 17.28 21.2202 17.28 21.5502ZM19.11 25.3002C19.11 25.3002 19.1 25.3602 19.06 25.3602H18.7C18.7 25.3602 18.65 25.3402 18.65 25.2902V24.2902C18.65 24.1002 18.57 24.0002 18.4 23.9902C18.31 23.9902 18.22 24.0002 18.13 24.0102C18.09 24.0102 18.07 24.0402 18.07 24.0902C18.08 24.4802 18.08 24.8702 18.08 25.2602C18.08 25.2802 18.08 25.3002 18.07 25.3202C18.07 25.3202 18.05 25.3502 18.04 25.3502C17.91 25.3602 17.78 25.3602 17.65 25.3602C17.61 25.3602 17.62 25.3202 17.62 25.2902V23.8202C17.62 23.8202 17.61 23.7602 17.65 23.7502C18 23.6302 18.35 23.6002 18.71 23.6902C18.78 23.7102 18.85 23.7402 18.91 23.7902C19.04 23.8702 19.11 24.0102 19.11 24.1802V25.3002ZM19.11 21.6802H18.65V20.6302C18.65 20.4302 18.57 20.3302 18.39 20.3202C18.31 20.3202 18.22 20.3202 18.14 20.3402C18.09 20.3402 18.08 20.3702 18.08 20.4302V21.5902C18.08 21.5902 18.07 21.6502 18.07 21.6802H17.62V21.6102C17.62 21.1302 17.62 20.6502 17.61 20.1702C17.61 20.1102 17.63 20.0802 17.68 20.0702C18.03 19.9602 18.37 19.9202 18.72 20.0202C18.9 20.0702 19.04 20.1702 19.09 20.3802C19.1 20.4202 19.11 20.4602 19.11 20.5102V21.6802ZM20.96 25.9502C20.96 26.0102 20.94 26.0202 20.89 26.0202H20.49V25.3402C20.38 25.3502 20.27 25.3702 20.16 25.3702C20.07 25.3702 19.98 25.3602 19.9 25.3302C19.64 25.2502 19.47 25.0602 19.42 24.7602C19.37 24.4402 19.41 24.1402 19.62 23.8902C19.76 23.7302 19.95 23.6702 20.15 23.6502C20.4 23.6202 20.65 23.6502 20.89 23.7402C20.94 23.7502 20.96 23.7702 20.96 23.8302C20.96 24.5402 20.96 25.2402 20.96 25.9502ZM20.6 21.6802C20.6 21.6802 20.53 21.6702 20.51 21.6402C20.32 21.3902 20.13 21.1402 19.94 20.9002L19.91 20.8602V21.6102C19.91 21.6702 19.89 21.6902 19.84 21.6802H19.52C19.46 21.6902 19.45 21.6702 19.45 21.6102V19.4002C19.45 19.3402 19.45 19.3202 19.51 19.3202C19.62 19.3202 19.73 19.3202 19.84 19.3202C19.89 19.3202 19.91 19.3402 19.91 19.4002V20.7302L20.07 20.5302C20.2 20.3702 20.33 20.2102 20.45 20.0502C20.48 20.0202 20.51 20.0002 20.55 20.0002C20.68 20.0102 20.82 20.0102 20.95 20.0102H21.03C21.03 20.0102 20.98 20.0602 20.96 20.0902C20.78 20.3002 20.61 20.5202 20.43 20.7402C20.39 20.7802 20.39 20.8002 20.42 20.8502C20.62 21.1002 20.81 21.3502 21.01 21.6002C21.02 21.6202 21.04 21.6502 21.06 21.6802H20.6ZM22.78 25.2102C22.78 25.2102 22.78 25.2802 22.73 25.2902C22.39 25.4002 22.05 25.4402 21.7 25.3502C21.43 25.2802 21.3 25.0802 21.3 24.7702V23.7402C21.3 23.7402 21.32 23.6702 21.36 23.6702C21.47 23.6802 21.59 23.6802 21.7 23.6702C21.75 23.6702 21.76 23.6902 21.76 23.7502V24.7402C21.76 24.9402 21.84 25.0202 22.01 25.0302C22.09 25.0302 22.17 25.0202 22.24 25.0202C22.3 25.0202 22.32 24.9902 22.32 24.9302C22.31 24.5402 22.31 24.1502 22.31 23.7602C22.31 23.7002 22.3367 23.6702 22.39 23.6702C22.5 23.6702 22.6 23.6802 22.71 23.6702C22.77 23.6702 22.78 23.7002 22.78 23.7602V25.2102ZM24.67 24.4602C24.67 24.5602 24.67 24.5502 24.58 24.5602C24.24 24.6102 23.9 24.6502 23.55 24.6902C23.54 24.7002 23.53 24.7002 23.53 24.7002C23.55 24.8602 23.66 24.9902 23.83 25.0302C24.04 25.0802 24.24 25.0402 24.44 24.9702C24.49 24.9502 24.52 24.9602 24.54 25.0102C24.56 25.1002 24.6 25.1802 24.64 25.2802C24.55 25.3002 24.47 25.3302 24.38 25.3502C24.14 25.4002 23.89 25.4202 23.64 25.3502C23.25 25.2302 23.05 24.9102 23.07 24.4402C23.09 24.0302 23.33 23.7302 23.71 23.6602C23.92 23.6202 24.12 23.6302 24.32 23.7302C24.54 23.8502 24.65 24.0602 24.67 24.3302V24.4602Z" fill="#004899"/>
<path fill-rule="evenodd" clip-rule="evenodd" d="M8.05006 23.6898C7.73006 23.5998 7.42006 23.6398 7.12006 23.7398C7.07006 23.7498 7.06006 23.7898 7.06006 23.8298V25.9398C7.06006 25.9398 7.07006 25.9898 7.07006 26.0098H7.52006V25.3598C7.66006 25.3598 7.79006 25.3698 7.93006 25.3598C8.25006 25.3298 8.49006 25.1098 8.56006 24.7898C8.59006 24.6798 8.59006 24.5598 8.59006 24.4498C8.59006 24.0698 8.38006 23.7798 8.05006 23.6898ZM8.11006 24.7398C8.06006 24.9198 7.94006 25.0198 7.77006 25.0398C7.72006 25.0398 7.67006 25.0398 7.62006 25.0298H7.56006C7.56006 25.0298 7.51006 25.0098 7.51006 24.9698C7.52006 24.8598 7.52006 24.7498 7.52006 24.6398V24.3798C7.52006 24.2698 7.52006 24.1698 7.51006 24.0598C7.51006 24.0198 7.53006 23.9998 7.57006 23.9898H7.63006C7.63006 23.9898 7.73006 23.9798 7.78006 23.9798C7.95006 23.9998 8.07006 24.1098 8.12006 24.2898C8.15006 24.4398 8.15006 24.5898 8.11006 24.7398Z" fill="white"/>
<path fill-rule="evenodd" clip-rule="evenodd" d="M13.04 24.9904C13.04 25.0904 13.04 25.2004 13.04 25.3104C13.04 25.3204 13.02 25.3404 13.01 25.3504C12.85 25.3904 12.7 25.3904 12.54 25.3404C12.37 25.2804 12.28 25.1304 12.27 24.8904V24.0004H12.05V23.6804H12.27V23.4004C12.26 23.3304 12.28 23.3004 12.35 23.2804C12.47 23.2604 12.59 23.2204 12.72 23.1904V23.6804H13.04V24.0004H12.72V24.8004C12.72 24.9304 12.76 24.9804 12.88 25.0004C12.93 25.0004 12.99 24.9904 13.05 24.9904H13.04Z" fill="white"/>
<path fill-rule="evenodd" clip-rule="evenodd" d="M21.07 21.6803H20.61C20.61 21.6803 20.54 21.6703 20.52 21.6403C20.33 21.3903 20.14 21.1403 19.95 20.9003L19.92 20.8603V21.6103C19.92 21.6703 19.9 21.6903 19.85 21.6803H19.53C19.47 21.6903 19.46 21.6703 19.46 21.6103V19.4003C19.46 19.3403 19.46 19.3203 19.52 19.3203C19.63 19.3203 19.74 19.3203 19.85 19.3203C19.9 19.3203 19.92 19.3403 19.92 19.4003V20.7303L20.08 20.5303C20.21 20.3703 20.34 20.2103 20.46 20.0503C20.49 20.0203 20.52 20.0003 20.56 20.0003C20.69 20.0103 20.83 20.0103 20.96 20.0103H21.04C21.04 20.0103 20.99 20.0603 20.97 20.0903C20.79 20.3003 20.62 20.5203 20.44 20.7403C20.4 20.7803 20.4 20.8003 20.43 20.8503C20.63 21.1003 20.82 21.3503 21.02 21.6003C21.03 21.6203 21.05 21.6503 21.07 21.6803Z" fill="white"/>
<path fill-rule="evenodd" clip-rule="evenodd" d="M19.1201 20.5102V21.6802H18.6601V20.6302C18.6601 20.4302 18.5801 20.3302 18.4001 20.3202C18.3201 20.3202 18.2301 20.3202 18.1501 20.3402C18.1001 20.3402 18.0901 20.3702 18.0901 20.4302V21.5902C18.0901 21.5902 18.0801 21.6502 18.0801 21.6802H17.6301V21.6102C17.6301 21.1302 17.6301 20.6502 17.6201 20.1702C17.6201 20.1102 17.6401 20.0802 17.6901 20.0702C18.0401 19.9602 18.3801 19.9202 18.7301 20.0202C18.9101 20.0702 19.0501 20.1702 19.1001 20.3802C19.1101 20.4202 19.1201 20.4602 19.1201 20.5102Z" fill="white"/>
<path fill-rule="evenodd" clip-rule="evenodd" d="M16.8899 19.9997C16.6499 19.9497 16.4199 19.9597 16.1799 20.0097C16.0899 20.0297 16.0099 20.0597 15.9099 20.0897C15.9399 20.1797 15.9699 20.2497 15.9999 20.3197C16.0199 20.3697 16.0399 20.3797 16.0799 20.3697C16.2699 20.3097 16.4599 20.2597 16.6599 20.2997C16.8099 20.3197 16.8699 20.4197 16.8499 20.5997C16.7399 20.6097 16.6199 20.6197 16.5099 20.6297C16.3499 20.6497 16.1799 20.6897 16.0399 20.7797C15.8299 20.8997 15.7499 21.1497 15.8499 21.3797C15.9099 21.5197 16.0199 21.6097 16.1599 21.6497C16.5199 21.7697 16.8899 21.7397 17.2499 21.6197C17.2899 21.6097 17.2899 21.5897 17.2899 21.5497C17.2899 21.2197 17.2999 20.8897 17.2899 20.5597C17.2899 20.2497 17.1599 20.0697 16.8899 19.9997ZM16.8599 20.9897C16.8599 21.1097 16.8599 21.2297 16.8499 21.3497C16.8499 21.3597 16.8299 21.3797 16.8199 21.3897C16.6899 21.4197 16.5599 21.4297 16.4299 21.3897C16.2999 21.3497 16.2399 21.2797 16.2499 21.1597C16.2499 21.0597 16.2999 20.9997 16.3799 20.9597C16.5099 20.8997 16.6499 20.8897 16.7999 20.8897H16.8599V20.9897Z" fill="white"/>
<path fill-rule="evenodd" clip-rule="evenodd" d="M15.0601 20.0006C14.8901 19.9606 14.7101 19.9606 14.5501 20.0106V19.3906C14.5501 19.3406 14.5401 19.3206 14.5001 19.3306H14.1601C14.1001 19.3306 14.0901 19.3506 14.0901 19.4106V21.5006C14.0901 21.5706 14.1101 21.6006 14.1701 21.6106C14.4201 21.7006 14.6901 21.7306 14.9501 21.6906C15.1901 21.6506 15.4001 21.5506 15.5301 21.3106C15.6201 21.1306 15.6401 20.9406 15.6301 20.7506C15.6101 20.3606 15.3901 20.0906 15.0601 20.0006ZM15.1401 21.0706C15.0901 21.2306 14.9901 21.3406 14.8401 21.3606C14.7801 21.3706 14.7301 21.3606 14.6701 21.3606C14.6501 21.3506 14.6201 21.3506 14.6001 21.3506C14.5601 21.3506 14.5501 21.3306 14.5501 21.2806V20.3906C14.5501 20.3406 14.5601 20.3206 14.6001 20.3206H14.6801C14.6801 20.3206 14.7801 20.3106 14.8301 20.3106C14.9901 20.3306 15.0901 20.4406 15.1401 20.6106C15.1801 20.7706 15.1801 20.9206 15.1401 21.0706Z" fill="white"/>
<path fill-rule="evenodd" clip-rule="evenodd" d="M13.04 21.3205V21.6405C13.04 21.6405 13.02 21.6705 13 21.6705C12.84 21.7205 12.67 21.7305 12.51 21.6605C12.33 21.5805 12.27 21.4205 12.26 21.2305V20.3305H12.08C12.08 20.3305 12.03 20.3305 12.03 20.2805C12.03 20.1905 12.03 20.1005 12.03 20.0105H12.25V19.7105C12.25 19.6505 12.26 19.6305 12.32 19.6205C12.44 19.5905 12.56 19.5505 12.7 19.5205V20.0005H13.02V20.3305H12.7V21.1405C12.7 21.2505 12.75 21.3205 12.85 21.3205C12.91 21.3205 12.96 21.3205 13.03 21.3205H13.04Z" fill="white"/>
<path fill-rule="evenodd" clip-rule="evenodd" d="M11.7501 21.5297C11.6701 21.5997 11.5801 21.6497 11.4801 21.6797C11.1901 21.7497 10.9101 21.7297 10.6301 21.6197C10.6101 21.6197 10.6001 21.6097 10.5801 21.5897L10.7201 21.2797C10.8301 21.3097 10.9301 21.3497 11.0401 21.3697C11.1201 21.3797 11.2101 21.3697 11.2901 21.3497C11.3501 21.3397 11.4001 21.2797 11.4001 21.2097C11.4001 21.1397 11.3701 21.0797 11.3101 21.0497C11.2401 21.0197 11.1701 20.9897 11.1001 20.9597C11.0201 20.9297 10.9301 20.8997 10.8501 20.8497C10.7001 20.7697 10.6201 20.6397 10.6301 20.4497C10.6301 20.2597 10.7301 20.1297 10.8801 20.0497C11.0201 19.9797 11.1601 19.9697 11.3101 19.9697C11.4801 19.9797 11.6601 20.0097 11.8201 20.0897L11.6901 20.3697C11.5801 20.3397 11.4701 20.3097 11.3601 20.2997C11.3001 20.2897 11.2301 20.2997 11.1701 20.3297C11.0601 20.3797 11.0501 20.5197 11.1501 20.5897C11.2101 20.6297 11.2801 20.6497 11.3501 20.6897C11.4601 20.7397 11.5901 20.7697 11.6901 20.8397C11.9101 20.9897 11.9401 21.3297 11.7501 21.5297Z" fill="white"/>
<path fill-rule="evenodd" clip-rule="evenodd" d="M10.1599 20.1697C10.0099 20.0297 9.82994 19.9697 9.63994 19.9697C9.40994 19.9697 9.19994 20.0197 9.02994 20.2097C8.76994 20.4897 8.73994 21.0497 8.95994 21.3897C9.22994 21.7997 9.81994 21.7897 10.0999 21.5697C10.3299 21.3897 10.4099 21.1397 10.4199 20.8497C10.4099 20.5797 10.3499 20.3397 10.1599 20.1697ZM9.95994 20.9397C9.94994 21.0097 9.92994 21.0897 9.90994 21.1597C9.85994 21.2997 9.75994 21.3697 9.61994 21.3697C9.47994 21.3697 9.36994 21.3097 9.31994 21.1597C9.23994 20.9497 9.23994 20.7197 9.31994 20.5097C9.36994 20.3797 9.46994 20.3097 9.60994 20.3097C9.73994 20.3097 9.84994 20.3597 9.89994 20.4997C9.92994 20.5797 9.93994 20.6497 9.95994 20.7297C9.95994 20.7597 9.95994 20.7997 9.97994 20.8297C9.96994 20.8697 9.96994 20.9097 9.95994 20.9397Z" fill="white"/>
<path fill-rule="evenodd" clip-rule="evenodd" d="M8.05006 20.0199C7.73006 19.9299 7.42006 19.9699 7.11006 20.0699C7.07006 20.0699 7.06006 20.1099 7.06006 20.1599V22.2699C7.06006 22.2699 7.07006 22.3199 7.07006 22.3399H7.52006V21.6899C7.65006 21.6899 7.78006 21.6999 7.91006 21.6899C8.20006 21.6599 8.43006 21.5099 8.54006 21.1899C8.59006 21.0599 8.60006 20.9299 8.59006 20.7899C8.59006 20.3999 8.39006 20.1099 8.05006 20.0199ZM8.10006 21.0799C8.04006 21.2699 7.90006 21.3799 7.71006 21.3699C7.61006 21.3699 7.56006 21.3699 7.54006 21.3399C7.52006 21.3099 7.52006 21.2599 7.52006 21.1599V20.7299C7.52006 20.6199 7.52006 20.5099 7.51006 20.3899C7.51006 20.3499 7.53006 20.3199 7.57006 20.3199H7.63006C7.63006 20.3199 7.73006 20.3099 7.78006 20.3099C7.94006 20.3299 8.05006 20.4199 8.11006 20.5899C8.16006 20.7499 8.16006 20.9199 8.10006 21.0799Z" fill="white"/>
<path fill-rule="evenodd" clip-rule="evenodd" d="M6.3 20.0301C6.12 19.9701 5.94 19.9601 5.75 20.0001H5.7V19.3301H5.32C5.26 19.3301 5.25 19.3401 5.25 19.4001V21.5201C5.25 21.5701 5.27 21.5901 5.31 21.6101C5.59 21.7001 5.88 21.7401 6.17 21.6701C6.47 21.6101 6.69 21.4301 6.76 21.0801C6.78 20.9601 6.78 20.8201 6.77 20.6901C6.74 20.3701 6.58 20.1401 6.3 20.0301ZM6.29 21.1001C6.24 21.2601 6.13 21.3501 5.98 21.3601C5.93 21.3701 5.87 21.3601 5.82 21.3601C5.8 21.3601 5.78 21.3501 5.76 21.3501C5.72 21.3501 5.7 21.3301 5.7 21.2801V20.3801C5.7 20.3801 5.71 20.3201 5.75 20.3201C5.77 20.3201 5.8 20.3201 5.83 20.3101C5.88 20.3101 5.93 20.3001 5.98 20.3101C6.14 20.3301 6.24 20.4301 6.29 20.5901C6.35 20.7501 6.35 20.9301 6.29 21.1001Z" fill="white"/>
<path fill-rule="evenodd" clip-rule="evenodd" d="M6.26 23.6905C6.17 23.6605 6.07 23.6505 5.97 23.6505C5.88 23.6505 5.8 23.6605 5.7 23.6705V23.0705C5.7 23.0205 5.69 22.9905 5.64 23.0005H5.33C5.27 22.9905 5.25 23.0105 5.25 23.0805V25.1805C5.25 25.2405 5.27 25.2705 5.32 25.2805C5.58 25.3705 5.85 25.4005 6.13 25.3505C6.32 25.3205 6.49 25.2405 6.62 25.0705C6.74 24.9105 6.77 24.7305 6.78 24.5305C6.8 24.1305 6.6 23.7905 6.26 23.6905ZM6.28 24.8005C6.21 24.9605 6.09 25.0305 5.94 25.0405C5.89 25.0405 5.85 25.0305 5.81 25.0305C5.79 25.0305 5.77 25.0205 5.74 25.0205C5.71 25.0205 5.7 25.0005 5.7 24.9605V24.0705C5.7 24.0105 5.72 23.9905 5.77 23.9905C5.78 23.9805 5.8 23.9805 5.81 23.9805C5.83 23.9805 5.84 23.9805 5.86 23.9705C6.14 23.9605 6.31 24.1305 6.33 24.4505C6.33 24.5705 6.32 24.6905 6.28 24.8005Z" fill="white"/>
<path fill-rule="evenodd" clip-rule="evenodd" d="M10.35 24.1305C10.29 23.9605 10.18 23.8205 10.03 23.7505C9.75998 23.6005 9.47998 23.6005 9.20998 23.7405C8.71998 24.0005 8.71998 24.7705 8.99998 25.1105C9.16998 25.3205 9.37998 25.3905 9.61998 25.3905C9.94998 25.3905 10.22 25.2305 10.34 24.9305C10.44 24.6705 10.45 24.4005 10.34 24.1305H10.35ZM9.95998 24.6105C9.94998 24.6705 9.93998 24.7405 9.91998 24.8005C9.87998 24.9605 9.75998 25.0405 9.60998 25.0405C9.46998 25.0405 9.35998 24.9605 9.30998 24.8105C9.24998 24.6105 9.24998 24.4205 9.30998 24.2205C9.35998 24.0605 9.46998 23.9805 9.61998 23.9805C9.76998 23.9805 9.87998 24.0705 9.92998 24.2305C9.93998 24.3005 9.94998 24.3605 9.95998 24.4305L9.97998 24.5205C9.97998 24.5205 9.96998 24.5805 9.95998 24.6105Z" fill="white"/>
<path fill-rule="evenodd" clip-rule="evenodd" d="M11.8701 24.87C11.8701 25.06 11.7901 25.2 11.6401 25.28C11.5101 25.36 11.3701 25.38 11.2301 25.39C11.0101 25.39 10.7901 25.37 10.5801 25.27L10.7201 24.96C10.8501 24.99 10.9801 25.03 11.1001 25.04C11.1701 25.05 11.2401 25.03 11.3001 25.02C11.3601 25 11.4001 24.95 11.4001 24.88C11.4001 24.82 11.3701 24.76 11.3201 24.73C11.2601 24.7 11.2001 24.67 11.1301 24.64C11.0301 24.6 10.9201 24.57 10.8301 24.51C10.6201 24.38 10.5601 24.1 10.6901 23.9C10.7301 23.84 10.7801 23.79 10.8401 23.75C10.9201 23.7 11.0101 23.67 11.1101 23.66C11.3301 23.62 11.5701 23.65 11.7801 23.74C11.7801 23.75 11.8001 23.75 11.8201 23.77L11.6901 24.05C11.6001 24.02 11.5101 23.98 11.4301 23.97C11.3501 23.96 11.2601 23.98 11.1801 23.99C11.1301 24 11.0901 24.05 11.0901 24.12C11.0801 24.19 11.1101 24.24 11.1601 24.27C11.2301 24.31 11.3101 24.33 11.3801 24.37C11.4701 24.4 11.5601 24.43 11.6401 24.48C11.7901 24.56 11.8701 24.69 11.8701 24.87Z" fill="white"/>
<path fill-rule="evenodd" clip-rule="evenodd" d="M15.4901 23.9702C15.3401 23.7502 15.1301 23.6702 14.9001 23.6502C14.7801 23.6502 14.6701 23.6602 14.5501 23.6602V23.0602C14.5501 23.0602 14.5401 22.9902 14.4901 22.9902C14.3801 23.0002 14.2801 23.0002 14.1701 23.0002C14.1168 23.0002 14.0901 23.0269 14.0901 23.0802V25.1702C14.0901 25.2402 14.1101 25.2702 14.1701 25.2802C14.4001 25.3602 14.6401 25.3902 14.8801 25.3702C15.0501 25.3602 15.2101 25.3002 15.3401 25.2002C15.7101 24.9202 15.6901 24.2602 15.4901 23.9702ZM15.1701 24.5602C15.1701 24.5602 15.1601 24.6302 15.1601 24.6602C15.1101 24.9202 14.9501 25.0602 14.7101 25.0402C14.6301 25.0302 14.5901 25.0302 14.5701 25.0002C14.5501 24.9802 14.5501 24.9302 14.5501 24.8402V24.0602C14.5501 24.0602 14.5601 23.9902 14.6001 23.9902C14.6101 23.9902 14.6201 23.9902 14.6401 23.9802H14.6701C14.9901 23.9402 15.1701 24.1402 15.1701 24.5102V24.5602Z" fill="white"/>
<path fill-rule="evenodd" clip-rule="evenodd" d="M16.8801 23.6699C16.6101 23.6099 16.3401 23.6399 16.0801 23.7099C16.0201 23.7199 15.9701 23.7399 15.9101 23.7599C15.9501 23.8699 15.9901 23.9599 16.0301 24.0499L16.0901 24.0299C16.2701 23.9799 16.4501 23.9399 16.6301 23.9599C16.8001 23.9799 16.8701 24.0699 16.8501 24.2699C16.7501 24.2799 16.6401 24.2899 16.5401 24.2999C16.3601 24.3199 16.1801 24.3599 16.0201 24.4599C15.7501 24.6499 15.7401 25.0499 16.0101 25.2399C16.0701 25.2899 16.1401 25.3199 16.2201 25.3399C16.5601 25.4299 16.9001 25.3999 17.2401 25.2899C17.2801 25.2799 17.2901 25.2599 17.2901 25.2099V24.2399C17.2901 23.9199 17.1601 23.7399 16.8801 23.6699ZM16.8601 25.0199C16.8601 25.0199 16.8401 25.0499 16.8201 25.0599C16.6801 25.0899 16.5401 25.0999 16.4101 25.0499C16.3001 25.0199 16.2501 24.9499 16.2501 24.8499C16.2401 24.7399 16.2901 24.6699 16.3901 24.6199C16.5201 24.5699 16.6501 24.5599 16.7801 24.5599C16.8101 24.5499 16.8301 24.5499 16.8601 24.5499V25.0199Z" fill="white"/>
<path fill-rule="evenodd" clip-rule="evenodd" d="M19.12 24.18V25.3C19.12 25.3 19.11 25.36 19.07 25.36H18.71C18.71 25.36 18.66 25.34 18.66 25.29V24.29C18.66 24.1 18.58 24 18.41 23.99C18.32 23.99 18.23 24 18.14 24.01C18.1 24.01 18.08 24.04 18.08 24.09C18.09 24.48 18.09 24.87 18.09 25.26C18.09 25.28 18.09 25.3 18.08 25.32C18.08 25.32 18.06 25.35 18.05 25.35C17.92 25.36 17.79 25.36 17.66 25.36C17.62 25.36 17.63 25.32 17.63 25.29V23.82C17.63 23.82 17.62 23.76 17.66 23.75C18.01 23.63 18.36 23.6 18.72 23.69C18.79 23.71 18.86 23.74 18.92 23.79C19.05 23.87 19.12 24.01 19.12 24.18Z" fill="white"/>
<path fill-rule="evenodd" clip-rule="evenodd" d="M24.33 23.7306C24.13 23.6306 23.93 23.6206 23.72 23.6606C23.34 23.7306 23.1 24.0306 23.08 24.4406C23.06 24.9106 23.26 25.2306 23.65 25.3506C23.9 25.4206 24.15 25.4006 24.39 25.3506C24.48 25.3306 24.56 25.3006 24.65 25.2806C24.61 25.1806 24.57 25.1006 24.55 25.0106C24.53 24.9606 24.5 24.9506 24.45 24.9706C24.25 25.0406 24.05 25.0806 23.84 25.0306C23.67 24.9906 23.56 24.8606 23.54 24.7006C23.54 24.7006 23.55 24.7006 23.56 24.6906C23.91 24.6506 24.25 24.6106 24.59 24.5606C24.68 24.5506 24.68 24.5606 24.68 24.4606V24.3306C24.66 24.0606 24.55 23.8506 24.33 23.7306ZM23.54 24.4106H23.51C23.49 24.1706 23.64 23.9806 23.85 23.9606C23.9 23.9606 23.96 23.9606 24.01 23.9706C24.15 24.0106 24.24 24.1406 24.23 24.3206L23.54 24.4106Z" fill="white"/>
<path fill-rule="evenodd" clip-rule="evenodd" d="M22.7901 23.7599V25.2099C22.7901 25.2099 22.7901 25.2799 22.7401 25.2899C22.4001 25.3999 22.0601 25.4399 21.7101 25.3499C21.4401 25.2799 21.3101 25.0799 21.3101 24.7699V23.7399C21.3101 23.7399 21.3301 23.6699 21.3701 23.6699C21.4801 23.6799 21.6001 23.6799 21.7101 23.6699C21.7601 23.6699 21.7701 23.6899 21.7701 23.7499V24.7399C21.7701 24.9399 21.8501 25.0199 22.0201 25.0299C22.1001 25.0299 22.1801 25.0199 22.2501 25.0199C22.3101 25.0199 22.3301 24.9899 22.3301 24.9299C22.3201 24.5399 22.3201 24.1499 22.3201 23.7599C22.3201 23.6999 22.3467 23.6699 22.4001 23.6699C22.5101 23.6699 22.6101 23.6799 22.7201 23.6699C22.7801 23.6699 22.7901 23.6999 22.7901 23.7599Z" fill="white"/>
<path fill-rule="evenodd" clip-rule="evenodd" d="M20.9 23.7399C20.66 23.6499 20.41 23.6199 20.16 23.6499C19.96 23.6699 19.77 23.7299 19.63 23.8899C19.42 24.1399 19.38 24.4399 19.43 24.7599C19.48 25.0599 19.65 25.2499 19.91 25.3299C19.99 25.3599 20.08 25.3699 20.17 25.3699C20.28 25.3699 20.39 25.3499 20.5 25.3399V26.0199H20.9C20.9 26.0199 20.97 26.0199 20.97 25.9499C20.97 25.2399 20.97 24.5399 20.97 23.8299C20.97 23.7699 20.95 23.7499 20.9 23.7399ZM20.5 24.9499C20.5 24.9499 20.49 25.0099 20.45 25.0199C20.44 25.0199 20.42 25.0199 20.4 25.0299C20.37 25.0299 20.35 25.0399 20.32 25.0399C20.06 25.0599 19.89 24.8899 19.88 24.5899C19.87 24.4999 19.88 24.4199 19.89 24.3299C19.94 24.0999 20.09 23.9799 20.3 23.9799C20.51 23.9799 20.5 23.9799 20.5 24.1999V24.9499Z" fill="white"/>
<path fill-rule="evenodd" clip-rule="evenodd" d="M24.2301 24.32L23.5401 24.41H23.5101C23.4901 24.17 23.6401 23.98 23.8501 23.96C23.9001 23.96 23.9601 23.96 24.0101 23.97C24.1501 24.01 24.2401 24.14 24.2301 24.32Z" fill="#004899"/>
<path fill-rule="evenodd" clip-rule="evenodd" d="M20.5001 24.2005V24.9505C20.5001 24.9505 20.4901 25.0105 20.4501 25.0205C20.4401 25.0205 20.4201 25.0205 20.4001 25.0305C20.3701 25.0305 20.3501 25.0405 20.3201 25.0405C20.0601 25.0605 19.8901 24.8905 19.8801 24.5905C19.8701 24.5005 19.8801 24.4205 19.8901 24.3305C19.9401 24.1005 20.0901 23.9805 20.3001 23.9805C20.5101 23.9805 20.5001 23.9805 20.5001 24.2005Z" fill="#004899"/>
<path fill-rule="evenodd" clip-rule="evenodd" d="M16.86 24.5498V25.0198C16.86 25.0198 16.84 25.0498 16.82 25.0598C16.68 25.0898 16.54 25.0998 16.41 25.0498C16.3 25.0198 16.25 24.9498 16.25 24.8498C16.24 24.7398 16.29 24.6698 16.39 24.6198C16.52 24.5698 16.65 24.5598 16.78 24.5598C16.81 24.5498 16.83 24.5498 16.86 24.5498Z" fill="#004899"/>
<path fill-rule="evenodd" clip-rule="evenodd" d="M16.8601 20.8799V20.9899C16.8601 21.1099 16.8601 21.2299 16.8501 21.3499C16.8501 21.3599 16.8301 21.3799 16.8201 21.3899C16.6901 21.4199 16.5601 21.4299 16.4301 21.3899C16.3001 21.3499 16.2401 21.2799 16.2501 21.1599C16.2501 21.0599 16.3001 20.9999 16.3801 20.9599C16.5101 20.8999 16.6501 20.8899 16.8001 20.8899H16.8601V20.8799Z" fill="#004899"/>
<path fill-rule="evenodd" clip-rule="evenodd" d="M15.17 24.5106V24.5606C15.17 24.5606 15.16 24.6306 15.16 24.6606C15.11 24.9206 14.95 25.0606 14.71 25.0406C14.63 25.0306 14.59 25.0306 14.57 25.0006C14.55 24.9806 14.55 24.9306 14.55 24.8406V24.0606C14.55 24.0606 14.56 23.9906 14.6 23.9906C14.61 23.9906 14.62 23.9906 14.64 23.9806H14.67C14.99 23.9406 15.17 24.1406 15.17 24.5106Z" fill="#004899"/>
<path fill-rule="evenodd" clip-rule="evenodd" d="M15.14 21.0705C15.09 21.2305 14.99 21.3405 14.84 21.3605C14.78 21.3705 14.73 21.3605 14.67 21.3605C14.65 21.3505 14.62 21.3505 14.6 21.3505C14.56 21.3505 14.55 21.3305 14.55 21.2805V20.3905C14.55 20.3405 14.56 20.3205 14.6 20.3205H14.68C14.68 20.3205 14.78 20.3105 14.83 20.3105C14.99 20.3305 15.09 20.4405 15.14 20.6105C15.18 20.7705 15.18 20.9205 15.14 21.0705Z" fill="#004899"/>
<path fill-rule="evenodd" clip-rule="evenodd" d="M9.98001 20.8305C9.98001 20.8305 9.97001 20.9105 9.96001 20.9405C9.95001 21.0105 9.93001 21.0905 9.91001 21.1605C9.86001 21.3005 9.76001 21.3705 9.62001 21.3705C9.48001 21.3705 9.37001 21.3105 9.32001 21.1605C9.24001 20.9505 9.24001 20.7205 9.32001 20.5105C9.37001 20.3805 9.47001 20.3105 9.61001 20.3105C9.74001 20.3105 9.85001 20.3605 9.90001 20.5005C9.93001 20.5805 9.94001 20.6505 9.96001 20.7305C9.96001 20.7605 9.96001 20.8005 9.98001 20.8305Z" fill="#004899"/>
<path fill-rule="evenodd" clip-rule="evenodd" d="M9.97989 24.5205C9.97989 24.5205 9.96989 24.5805 9.95989 24.6105C9.94989 24.6705 9.93989 24.7405 9.91989 24.8005C9.87989 24.9605 9.75989 25.0405 9.60989 25.0405C9.46989 25.0405 9.35989 24.9605 9.30989 24.8105C9.24989 24.6105 9.24989 24.4205 9.30989 24.2205C9.35989 24.0605 9.46989 23.9805 9.61989 23.9805C9.76989 23.9805 9.87989 24.0705 9.92989 24.2305C9.93989 24.3005 9.94989 24.3605 9.95989 24.4305L9.97989 24.5205Z" fill="#004899"/>
<path fill-rule="evenodd" clip-rule="evenodd" d="M8.10001 21.0805C8.04001 21.2705 7.90001 21.3805 7.71001 21.3705C7.61001 21.3705 7.56001 21.3705 7.54001 21.3405C7.52001 21.3105 7.52001 21.2605 7.52001 21.1605V20.7305C7.52001 20.6205 7.52001 20.5105 7.51001 20.3905C7.51001 20.3505 7.53001 20.3205 7.57001 20.3205H7.63001C7.63001 20.3205 7.73001 20.3105 7.78001 20.3105C7.94001 20.3305 8.05001 20.4205 8.11001 20.5905C8.16001 20.7505 8.16001 20.9205 8.10001 21.0805Z" fill="#004899"/>
<path fill-rule="evenodd" clip-rule="evenodd" d="M8.11001 24.7405C8.06001 24.9205 7.94001 25.0205 7.77001 25.0405C7.72001 25.0405 7.67001 25.0405 7.62001 25.0305H7.56001C7.56001 25.0305 7.51001 25.0105 7.51001 24.9705C7.52001 24.8605 7.52001 24.7505 7.52001 24.6405V24.3805C7.52001 24.2705 7.52001 24.1705 7.51001 24.0605C7.51001 24.0205 7.53001 24.0005 7.57001 23.9905H7.63001C7.63001 23.9905 7.73001 23.9805 7.78001 23.9805C7.95001 24.0005 8.07001 24.1105 8.12001 24.2905C8.15001 24.4405 8.15001 24.5905 8.11001 24.7405Z" fill="#004899"/>
<path fill-rule="evenodd" clip-rule="evenodd" d="M6.28995 21.1001C6.23995 21.2601 6.12995 21.3501 5.97995 21.3601C5.92995 21.3701 5.86995 21.3601 5.81995 21.3601C5.79995 21.3601 5.77995 21.3501 5.75995 21.3501C5.71995 21.3501 5.69995 21.3301 5.69995 21.2801V20.3801C5.69995 20.3801 5.70995 20.3201 5.74995 20.3201C5.76995 20.3201 5.79995 20.3201 5.82995 20.3101C5.87995 20.3101 5.92995 20.3001 5.97995 20.3101C6.13995 20.3301 6.23995 20.4301 6.28995 20.5901C6.34995 20.7501 6.34995 20.9301 6.28995 21.1001Z" fill="#004899"/>
<path fill-rule="evenodd" clip-rule="evenodd" d="M6.32995 24.4501C6.32995 24.5701 6.31995 24.6901 6.27995 24.8001C6.20995 24.9601 6.08995 25.0301 5.93995 25.0401C5.88995 25.0401 5.84995 25.0301 5.80995 25.0301C5.78995 25.0301 5.76995 25.0201 5.73995 25.0201C5.70995 25.0201 5.69995 25.0001 5.69995 24.9601V24.0701C5.69995 24.0101 5.71995 23.9901 5.76995 23.9901C5.77995 23.9801 5.79995 23.9801 5.80995 23.9801C5.82995 23.9801 5.83995 23.9801 5.85995 23.9701C6.13995 23.9601 6.30995 24.1301 6.32995 24.4501Z" fill="#004899"/>
</svg>
