<svg width="32" height="32" viewBox="0 0 32 32" fill="none" xmlns="http://www.w3.org/2000/svg">
<path d="M23.0167 6.92971L23.4133 12.827H23.0167C22.4878 11.0617 21.7331 9.79103 20.7524 9.01489C19.7716 8.23894 18.5947 7.85076 17.2217 7.85076C16.0704 7.85076 15.0298 8.143 14.1003 8.72705C13.1707 9.31131 12.4393 10.243 11.9064 11.5222C11.3733 12.8015 11.1069 14.3921 11.1069 16.2938C11.1069 17.8631 11.3583 19.2233 11.8616 20.3746C12.3647 21.526 13.1217 22.4086 14.1323 23.0227C15.1429 23.6367 16.2962 23.9437 17.5927 23.9437C18.7184 23.9437 19.7118 23.7029 20.5733 23.221C21.4346 22.7392 22.3813 21.7818 23.4133 20.349L23.8098 20.6049C22.9399 22.1486 21.9249 23.2785 20.7652 23.9949C19.6053 24.7113 18.2279 25.0695 16.6332 25.0695C13.7591 25.0695 11.5332 24.0035 9.95554 21.8713C8.77863 20.285 8.19019 18.4174 8.19019 16.2682C8.19019 14.537 8.57817 12.9465 9.35431 11.4966C10.1303 10.0469 11.1984 8.92331 12.5588 8.12578C13.919 7.32845 15.4052 6.92969 17.017 6.92969C18.2707 6.92969 19.5071 7.23671 20.7268 7.85074C21.085 8.03844 21.3409 8.13218 21.4944 8.13218C21.7247 8.13218 21.925 8.05123 22.0956 7.88913C22.3173 7.65886 22.475 7.33905 22.569 6.92969L23.0167 6.92971Z" fill="#0D2B49"/>
</svg>
