<svg width="32" height="32" viewBox="0 0 32 32" fill="none" xmlns="http://www.w3.org/2000/svg">
<g clip-path="url(#clip0_4674_4828)">
<path d="M3 23.0532C3 25.8618 5.23224 26.829 8.27167 26.829C9.11292 26.829 10.0726 26.6686 10.8 26.428V23.9927C10.1867 24.3939 9.57367 24.6484 8.71973 24.6484C7.58698 24.6484 6.46234 24.0207 6.46234 23.124C6.46234 22.2273 7.59534 21.5995 8.71997 21.5995C9.58636 21.5995 10.1994 21.8543 10.8 22.2697V19.8199C9.98389 19.5178 8.93524 19.4189 8.11939 19.4189C5.16871 19.4189 3 20.5188 3 23.0532Z" fill="white"/>
<path d="M16.1498 14.1191C18.629 14.119 20.639 12.1153 20.639 9.643C20.639 7.17126 18.6289 5.16699 16.1497 5.16699C13.6707 5.16699 11.6609 7.17126 11.6609 9.643C11.6609 12.1153 13.6707 14.119 16.1498 14.1191Z" fill="white"/>
<path d="M19.4609 13.2648C18.6058 14.1893 17.0975 15.1137 15.1622 15.1137C13.6611 15.1137 12.3684 14.5318 11.5459 13.8854C6.6449 14.3981 3 15.1247 3 15.1247V17.1039L29 17.1009V13.0213C29 13.0213 24.5453 12.9938 19.4609 13.2648Z" fill="white"/>
<path d="M18.5999 23.2632V23.2487C19.5943 23.1915 20.5713 22.6626 20.5713 21.423C20.5713 20.3168 20.0366 19.6113 18.4359 19.6113H12.2444V26.8336H18.322C20.0996 26.8336 20.6219 25.8947 20.6219 24.946C20.6219 23.4775 19.6318 23.349 18.5999 23.2632ZM15.2252 21.2306L16.814 21.2303C17.3658 21.2303 17.5952 21.4573 17.5952 21.9291C17.5952 22.3445 17.3531 22.6138 16.7629 22.6138H15.2252V21.2306ZM16.8348 25.2805H15.2208V23.8973H16.8348C17.4381 23.8973 17.642 24.1804 17.642 24.5961C17.642 25.0112 17.4381 25.2805 16.8348 25.2805Z" fill="white"/>
<path d="M21.2 23.0571C21.2 25.8654 23.4322 26.8331 26.4716 26.8331C27.3128 26.8331 28.2728 26.6731 28.9999 26.4319V23.9966C28.3869 24.3975 27.7739 24.6524 26.9199 24.6524C25.7869 24.6524 24.6623 24.0249 24.6623 23.1279C24.6623 22.2315 25.7953 21.6034 26.9199 21.6034C27.7866 21.6034 28.3996 21.8585 28.9999 22.2736V19.8242C28.1838 19.522 27.1354 19.4229 26.3196 19.4229C23.3687 19.4229 21.2 20.5227 21.2 23.0571Z" fill="white"/>
</g>
<defs>
<clipPath id="clip0_4674_4828">
<rect width="32" height="32" fill="white"/>
</clipPath>
</defs>
</svg>
