<svg width="32" height="32" viewBox="0 0 32 32" fill="none" xmlns="http://www.w3.org/2000/svg">
<path d="M20.91 18.8L15.89 27.58L15.12 28.96C14.7 28.94 14.29 28.9 13.89 28.83C13.85 28.82 13.82 28.82 13.78 28.81C13.62 28.78 13.47 28.75 13.32 28.72C12.37 28.52 11.45 28.22 10.59 27.82C10.42 27.74 10.25 27.66 10.08 27.57C9.91999 27.49 9.75 27.4 9.59003 27.3C9.47998 27.25 9.37 27.18 9.26001 27.11C9.12 27.03 8.97998 26.94 8.84003 26.85C8.10999 26.36 7.43 25.81 6.81 25.19C6.65998 25.04 6.52002 24.89 6.38001 24.74C6.03998 24.37 5.72999 23.98 5.44001 23.57C5.33002 23.42 5.21998 23.27 5.12 23.12C4.81 22.64 4.53003 22.15 4.28003 21.63C4.14002 21.32 4 21.01 3.88001 20.69C3.46003 19.63 3.19001 18.51 3.07001 17.33C3.04999 17.11 3.03003 16.89 3.02002 16.67C3.01001 16.45 3 16.22 3 16C3 15.77 3.01001 15.54 3.02002 15.31C3.03003 15.12 3.03998 14.94 3.06 14.75C3.08002 14.5 3.10999 14.26 3.15003 14.02C3.19001 13.74 3.24 13.46 3.31 13.18C3.35999 12.92 3.43 12.66 3.51001 12.4C3.60999 12.03 3.72998 11.67 3.87 11.31C3.96003 11.08 4.06 10.85 4.15998 10.62C4.16999 10.6 4.18 10.58 4.19001 10.56C4.31001 10.31 4.44001 10.05 4.57001 9.79999C4.71997 9.52997 4.88001 9.26001 5.04999 9L5.90998 10.37L11.18 18.96C11.18 18.97 11.19 18.98 11.2 18.98L11.21 18.99C11.21 19 11.22 19 11.22 19C11.46 19.4 11.76 19.77 12.1 20.09C12.27 20.25 12.45 20.4 12.64 20.54C12.83 20.68 13.02 20.8 13.23 20.92C13.33 20.98 13.44 21.03 13.54 21.08C13.65 21.13 13.76 21.18 13.87 21.23C13.98 21.27 14.09 21.31 14.2 21.35C14.31 21.39 14.42 21.42 14.54 21.46H14.56C14.75 21.51 14.94 21.55 15.14 21.58C15.25 21.6 15.36 21.61 15.47 21.62C15.64 21.64 15.82 21.65 16 21.65C16.19 21.65 16.38 21.64 16.58 21.62C16.74 21.6 16.91 21.58 17.07 21.55C17.19 21.52 17.31 21.49 17.43 21.46H17.44C17.58 21.42 17.7101 21.38 17.85 21.34C17.98 21.29 18.12 21.24 18.25 21.18C19.37 20.7 20.3 19.86 20.91 18.8Z" fill="#34A853"/>
<path fill-rule="evenodd" clip-rule="evenodd" d="M27.7101 10.35H16.0001C15.4501 10.35 14.92 10.43 14.41 10.58C14.2401 10.63 14.0801 10.69 13.92 10.75C13.8 10.8 13.6801 10.85 13.5601 10.91C13.3701 11 13.1801 11.1 13.0001 11.22C12.86 11.3 12.73 11.39 12.6 11.49C12.5901 11.5 12.5701 11.52 12.54 11.53C12.42 11.63 12.3 11.73 12.18 11.84C12.06 11.96 11.9401 12.08 11.8201 12.2C11.7101 12.33 11.6 12.46 11.5 12.59C11.3901 12.73 11.3 12.87 11.2101 13.02C11.13 13.14 11.05 13.27 10.99 13.4C10.9601 13.46 10.93 13.52 10.9001 13.58C10.8401 13.7 10.79 13.82 10.74 13.94C10.61 14.26 10.5101 14.6 10.4501 14.95C10.42 15.12 10.4001 15.3 10.38 15.48C10.36 15.65 10.35 15.83 10.35 16C10.35 17.1 10.66 18.11 11.2001 18.98C11.19 18.98 11.18 18.97 11.18 18.96L5.91004 10.37L5.05005 9.00001C5.27008 8.64997 5.51007 8.32002 5.76007 8.00001V7.99C5.92004 7.78999 6.09009 7.58998 6.26007 7.39997C6.41003 7.22999 6.56006 7.07001 6.72003 6.90998C7.23004 6.39002 7.78009 5.91999 8.36004 5.49C8.56005 5.34999 8.75005 5.20997 8.96008 5.07997C9.16003 4.95003 9.37005 4.82002 9.59008 4.70003C9.80004 4.57997 10.0101 4.46999 10.22 4.36C10.44 4.25001 10.66 4.14998 10.88 4.05C11.6 3.74 12.35 3.50001 13.13 3.32002C13.31 3.27998 13.49 3.24 13.67 3.20997C13.86 3.18 14.04 3.14997 14.23 3.12C14.37 3.09998 14.5 3.07996 14.6401 3.07001C14.67 3.07001 14.7001 3.06 14.73 3.07001C14.93 3.03998 15.13 3.02997 15.3301 3.01996C15.55 3.01001 15.7701 3 16 3C16.23 3 16.4601 3.01001 16.69 3.01996C16.88 3.02997 17.0601 3.03998 17.25 3.06C17.49 3.07996 17.74 3.10999 17.98 3.14997C18.2601 3.19001 18.54 3.24 18.8201 3.31C19.0801 3.35999 19.3401 3.43 19.6 3.51001C19.97 3.60999 20.3301 3.72998 20.6901 3.87C20.92 3.95997 21.1501 4.06 21.3801 4.15998C21.4001 4.16999 21.42 4.18 21.4501 4.19001C21.6301 4.27998 21.8201 4.37 22.0001 4.46998C22.2501 4.59998 22.49 4.74 22.74 4.89002C22.8901 4.97999 23.0301 5.07001 23.18 5.15998C23.2701 5.21998 23.35 5.27998 23.4401 5.33997C23.55 5.41999 23.67 5.5 23.7801 5.58997C24.5101 6.14002 25.1901 6.76001 25.79 7.45997C25.9401 7.63001 26.0901 7.8 26.22 7.97999C26.54 8.38001 26.8401 8.81001 27.11 9.26002C27.2001 9.39997 27.2801 9.52998 27.35 9.66999C27.48 9.89002 27.6 10.12 27.7101 10.35Z" fill="#EA4335"/>
<path fill-rule="evenodd" clip-rule="evenodd" d="M28.9999 15.9996C28.9999 23.1696 23.1699 28.9996 15.9999 28.9996C15.7599 28.9996 15.5099 28.9896 15.2599 28.9696H15.2099C15.1799 28.9696 15.1599 28.9696 15.1199 28.9596L15.8899 27.5796L20.9099 18.7996C20.9099 18.7896 20.9099 18.7796 20.9199 18.7796C21.0999 18.4596 21.2499 18.1297 21.3599 17.7796C21.3999 17.6696 21.4299 17.5496 21.4599 17.4396C21.5399 17.1296 21.5999 16.8196 21.6199 16.5097C21.6399 16.3396 21.6499 16.1696 21.6499 15.9996C21.6499 15.8096 21.6399 15.6296 21.6199 15.4497C21.6099 15.2796 21.5799 15.1196 21.5599 14.9696C21.5399 14.8796 21.5199 14.7896 21.4999 14.6997C21.4698 14.5796 21.4399 14.4596 21.3999 14.3396C21.3699 14.2296 21.3399 14.1296 21.2898 14.0296C21.2499 13.9196 21.2099 13.8196 21.1698 13.7196C21.1199 13.6196 21.0699 13.5196 21.0199 13.4196C20.9299 13.2296 20.8199 13.0496 20.6999 12.8696C20.5199 12.5996 20.3199 12.3596 20.0998 12.1296C19.9999 12.0096 19.8799 11.8996 19.7599 11.7896C19.6399 11.6796 19.5199 11.5796 19.3899 11.4796H19.3799C18.4399 10.7696 17.2699 10.3496 15.9999 10.3496H27.7099C27.8899 10.7196 28.0498 11.0996 28.1899 11.4796C28.3799 12.0096 28.5498 12.5496 28.6698 13.1096C28.7198 13.2996 28.7599 13.4796 28.7898 13.6696C28.8498 13.9996 28.8999 14.3296 28.9298 14.6696C28.9499 14.8896 28.9698 15.1096 28.9798 15.3296C28.9898 15.5496 28.9999 15.7796 28.9999 15.9996Z" fill="#FBBC05"/>
<path fill-rule="evenodd" clip-rule="evenodd" d="M21.6199 15.4497C21.6099 15.2796 21.5799 15.1196 21.5599 14.9696C21.5399 14.8796 21.5199 14.7896 21.4999 14.6997C21.4699 14.5796 21.4399 14.4596 21.3999 14.3396C21.3699 14.2296 21.3399 14.1296 21.2899 14.0296C21.2499 13.9196 21.2099 13.8196 21.1699 13.7196C21.1199 13.6196 21.0699 13.5196 21.0199 13.4196C20.9299 13.2296 20.8199 13.0496 20.6999 12.8696C20.5199 12.5996 20.3199 12.3596 20.0999 12.1296C19.9999 12.0096 19.8799 11.8996 19.7599 11.7896C19.6399 11.6796 19.5199 11.5796 19.3899 11.4796H19.3799C18.4399 10.7696 17.2699 10.3496 15.9999 10.3496C15.4499 10.3496 14.9199 10.4296 14.4099 10.5796C14.2399 10.6296 14.0799 10.6896 13.9199 10.7496C13.7999 10.7996 13.6799 10.8496 13.5599 10.9096C13.3699 10.9996 13.1799 11.0996 12.9999 11.2196C12.8599 11.2996 12.7299 11.3896 12.5999 11.4896C12.5899 11.4996 12.5699 11.5196 12.5399 11.5296C12.4199 11.6296 12.2999 11.7296 12.1799 11.8396C12.0599 11.9596 11.9399 12.0796 11.8199 12.1996C11.7099 12.3296 11.5999 12.4596 11.4999 12.5896C11.3899 12.7296 11.2999 12.8696 11.2099 13.0196C11.1299 13.1396 11.0499 13.2696 10.9899 13.3996C10.9599 13.4596 10.9299 13.5196 10.8999 13.5796C10.8399 13.6996 10.7899 13.8196 10.7399 13.9396C10.6099 14.2596 10.5099 14.5996 10.4499 14.9496C10.4199 15.1196 10.3999 15.2996 10.3799 15.4796C10.3599 15.6496 10.3499 15.8296 10.3499 15.9996C10.3499 17.0996 10.6599 18.1096 11.1999 18.9796L11.2099 18.9896C11.2099 18.9996 11.2199 18.9996 11.2199 18.9996C11.4599 19.3996 11.7599 19.7696 12.0999 20.0896C12.2699 20.2496 12.4499 20.3996 12.6399 20.5396C12.8299 20.6796 13.0199 20.7996 13.2299 20.9196C13.3299 20.9796 13.4399 21.0296 13.5399 21.0796C13.6499 21.1296 13.7599 21.1796 13.8699 21.2296C13.9799 21.2696 14.0899 21.3096 14.1999 21.3496C14.3099 21.3896 14.4199 21.4196 14.5399 21.4596H14.5599C14.7499 21.5096 14.9399 21.5496 15.1399 21.5796C15.2499 21.5996 15.3599 21.6096 15.4699 21.6196C15.6399 21.6396 15.8199 21.6496 15.9999 21.6496C16.1899 21.6496 16.3799 21.6396 16.5799 21.6196C16.7399 21.5996 16.9099 21.5796 17.0699 21.5496C17.1899 21.5196 17.3099 21.4896 17.4299 21.4596H17.4399C17.5799 21.4196 17.7099 21.3796 17.8499 21.3396C17.9799 21.2896 18.1199 21.2396 18.2499 21.1796C19.3699 20.6996 20.2999 19.8596 20.9099 18.7996C20.9099 18.7896 20.9099 18.7796 20.9199 18.7796C21.0999 18.4596 21.2499 18.1296 21.3599 17.7796C21.3999 17.6696 21.4299 17.5496 21.4599 17.4396C21.5399 17.1296 21.5999 16.8196 21.6199 16.5096C21.6399 16.3396 21.6499 16.1696 21.6499 15.9996C21.6499 15.8096 21.6399 15.6296 21.6199 15.4497ZM15.9999 20.5196C13.4999 20.5196 11.4799 18.4996 11.4799 15.9996C11.4799 13.4996 13.4999 11.4796 15.9999 11.4796C18.4999 11.4796 20.5199 13.4996 20.5199 15.9996C20.5199 18.4996 18.4999 20.5196 15.9999 20.5196Z" fill="white"/>
<path d="M20.4617 16.7237C20.8616 14.2597 19.1882 11.938 16.7241 11.5381C14.26 11.1382 11.9383 12.8116 11.5385 15.2757C11.1386 17.7398 12.812 20.0615 15.2761 20.4613C17.7401 20.8612 20.0618 19.1878 20.4617 16.7237Z" fill="#4B8BF5"/>
</svg>
