<svg width="32" height="32" viewBox="0 0 32 32" fill="none" xmlns="http://www.w3.org/2000/svg">
<path fill-rule="evenodd" clip-rule="evenodd" d="M12.9158 23.1096C11.7409 23.0184 10.903 24.0571 11.0699 25.392C11.2427 26.7909 12.4422 27.972 13.6062 27.9989C14.8321 27.956 15.6043 26.8616 15.3758 25.5315C15.1473 24.2011 14.0241 23.1411 12.9158 23.1096ZM14.3857 19.96C14.1723 18.816 13.1705 17.8155 12.0566 17.72C11.0038 17.6176 10.1454 18.4005 10.2974 19.5445C10.455 20.7525 11.5838 21.8112 12.6974 21.9069C13.8721 22.0011 14.5326 21.0395 14.3857 19.96ZM11.9147 16.7029C12.9665 16.804 13.6473 16.1024 13.4459 15.0915C13.2478 14.1448 12.3102 13.1971 11.3147 13.0275C10.2571 12.8616 9.50995 13.5075 9.64728 14.5216C9.78355 15.5355 10.7961 16.544 11.9147 16.7029ZM11.1883 12.2016C12.1838 12.3731 12.8105 11.74 12.6822 10.9144C12.4891 10.032 11.6257 9.2064 10.6235 8.97253C9.68888 8.7976 8.93048 9.31253 9.06248 10.2019C9.19395 11.0909 10.1251 11.9728 11.1883 12.2016ZM17.7262 23.3285C16.7395 23.2859 16.0169 24.2485 16.3022 25.5091C16.5299 26.836 17.6641 27.9629 18.7118 28C19.8153 27.968 20.3438 26.8933 20.0593 25.6309C19.7798 24.4405 18.779 23.4355 17.7262 23.3285ZM16.6801 11.7189C16.4859 10.8349 15.6273 10.0744 14.7534 9.8936C13.8731 9.648 13.2315 10.1595 13.4307 11.0376C13.6297 11.9165 14.5489 12.7405 15.4233 12.9211C16.3593 13.1016 16.8675 12.544 16.6801 11.724L16.6801 11.7189ZM22.0473 23.5936C21.1227 23.5464 20.5785 24.4296 20.8627 25.6909C21.2025 26.885 22.2707 27.9469 23.1966 27.9949C24.1769 27.9736 24.5913 26.9725 24.2494 25.781C23.907 24.5891 22.9731 23.6485 22.0473 23.5936ZM27.8971 25.7691C27.6003 24.7275 26.7822 23.8989 25.9731 23.8565C25.1638 23.8144 24.6878 24.588 24.9366 25.6896C25.2345 26.7315 26.1667 27.6629 26.9774 27.704C27.8347 27.6925 28.1947 26.816 27.8971 25.7744V25.7691ZM18.4385 10.672C17.6907 10.5387 17.1785 11.0376 17.3662 11.8565C17.6198 12.6715 18.4782 13.4955 19.2929 13.6829C20.1001 13.8051 20.5497 13.2515 20.2998 12.4376C20.1121 11.6176 19.2515 10.8531 18.4385 10.672ZM5.34568 4C5.50301 4 5.65928 4.01707 5.81368 4.0504C6.84355 4.27307 7.74461 5.12907 7.87181 5.99093C7.98248 6.73546 7.41154 7.3056 6.55021 7.3056C6.40895 7.30765 6.26784 7.29586 6.12888 7.2704C5.04408 7.1144 4.01421 6.1456 4.00488 5.27947C3.93955 4.48267 4.53874 4 5.34568 4ZM9.59155 5.24107C9.75742 5.24107 9.92222 5.26294 10.0825 5.30454C10.9614 5.54454 11.8265 6.37441 11.9481 7.13707C12.1041 7.78294 11.6617 8.19894 10.9489 8.19894C10.8166 8.19867 10.6846 8.18561 10.5542 8.16054C9.61448 7.92161 8.68888 7.09894 8.56194 6.27707C8.46327 5.656 8.91207 5.24507 9.59154 5.24507L9.59155 5.24107ZM13.579 6.2696C13.7126 6.2696 13.8451 6.2856 13.975 6.31547C14.8478 6.56107 15.6443 7.2696 15.8281 8.0184C15.9894 8.66907 15.6278 9.128 14.9742 9.128C14.8584 9.12732 14.743 9.11481 14.6297 9.09067C13.7433 8.84267 12.8793 8.01867 12.6916 7.2704C12.5913 6.63947 12.9753 6.276 13.5796 6.276L13.579 6.2696ZM17.2081 7.188C17.323 7.18853 17.4372 7.204 17.5494 7.23333C18.3011 7.42533 19.0993 8.19066 19.3387 8.87706C19.4961 9.52346 19.2321 9.97093 18.6438 9.97093C18.5335 9.9697 18.4237 9.95629 18.3163 9.93093C17.5038 9.744 16.6995 8.9144 16.4614 8.228C16.3075 7.5936 16.6484 7.188 17.2081 7.188ZM5.63423 7.9176C5.7969 7.9176 5.95956 7.93653 6.11876 7.972C7.17743 8.19867 8.10863 9.0776 8.24063 9.9656C8.3561 10.7336 7.76596 11.3245 6.8769 11.3245C6.73033 11.3238 6.58419 11.3085 6.44063 11.2789C5.32223 11.1189 4.2593 10.1195 4.24943 9.22106C4.18543 8.41253 4.79983 7.91093 5.63156 7.91093L5.63423 7.9176ZM20.4902 8.0504C20.5988 8.052 20.7068 8.06853 20.8108 8.09947C21.563 8.29094 22.2945 8.99947 22.5334 9.692C22.7364 10.2749 22.5334 10.7075 22.0006 10.7075C21.8957 10.7063 21.7913 10.6926 21.6897 10.6664C20.9422 10.5336 20.1449 9.772 19.9609 9.01493C19.762 8.44453 20.0046 8.05706 20.4902 8.05706V8.0504ZM21.6246 11.3749C21.7286 11.3755 21.8326 11.3896 21.9334 11.4171C22.6206 11.5504 23.4188 12.316 23.7228 13.0605C23.9489 13.7984 23.7025 14.3131 23.0542 14.3131C22.9822 14.3123 22.9103 14.3066 22.839 14.296C22.0868 14.1035 21.2876 13.3376 21.039 12.5227C20.8262 11.8285 21.0793 11.3749 21.6246 11.3749ZM6.08757 12.1944C6.23157 12.1944 6.37557 12.2096 6.51744 12.2384C7.69664 12.3925 8.63264 13.3395 8.77504 14.3549C8.90171 15.284 8.19691 16.0195 7.17157 16.0195C7.07317 16.0195 6.97504 16.012 6.87744 15.9995C5.63717 15.8509 4.57451 14.8496 4.48811 13.7648C4.46651 12.8165 5.16677 12.1944 6.08757 12.1944ZM15.3782 13.7245C15.4761 13.7245 15.574 13.7349 15.67 13.7549C16.606 13.9304 17.53 14.7504 17.7294 15.6965C17.9694 16.5725 17.5036 17.2309 16.6921 17.2309C16.6269 17.2326 16.5616 17.2303 16.4966 17.224C15.5062 17.1184 14.5092 16.176 14.3062 15.1645C14.13 14.3256 14.6486 13.7304 15.3769 13.7304L15.3782 13.7245ZM19.3164 14.4149C19.4089 14.4149 19.5022 14.4264 19.5937 14.4464C20.4012 14.5696 21.2668 15.3944 21.5204 16.2725C21.8172 17.1376 21.4644 17.7856 20.7225 17.7856C20.6593 17.7856 20.5966 17.7811 20.5337 17.7725C19.6649 17.6552 18.7337 16.7725 18.475 15.8309C18.2465 15.0011 18.658 14.4149 19.3164 14.4149ZM22.9524 15.0211C23.0164 15.0211 23.0801 15.0269 23.1428 15.0384C23.8948 15.2296 24.6934 15.9955 25.0084 16.8685C25.2974 17.6645 25.0084 18.3045 24.3737 18.3045C24.315 18.3045 24.2561 18.2989 24.1977 18.2885C23.3886 18.1664 22.4588 17.284 22.2041 16.4051C21.9732 15.6091 22.3206 15.0211 22.9497 15.0211L22.9524 15.0211ZM6.68597 17.0685C6.77877 17.0685 6.87157 17.0744 6.9633 17.084C8.20517 17.2325 9.2665 18.2336 9.3641 19.4467C9.50997 20.5469 8.72997 21.4893 7.52277 21.4893H7.37557C6.07957 21.408 4.8833 20.2947 4.7817 19.0136C4.75023 17.888 5.57983 17.0725 6.68437 17.0725L6.68597 17.0685ZM16.5137 18.1592C16.5742 18.1592 16.6348 18.1624 16.6953 18.1685C17.6908 18.34 18.622 19.2224 18.8908 20.292C19.0948 21.3416 18.5798 22.2085 17.6374 22.2085H17.5692C16.5164 22.1072 15.5145 21.1019 15.3012 19.9629C15.0476 18.9011 15.6225 18.1605 16.5137 18.1605V18.1592ZM20.6193 18.7024C20.6772 18.7024 20.7356 18.7064 20.7926 18.7136C21.6636 18.8309 22.5318 19.72 22.8569 20.7195C23.1622 21.6589 22.7556 22.4909 21.9825 22.4909C21.9313 22.4909 21.8798 22.4875 21.8297 22.4805C20.9046 22.4325 19.9076 21.492 19.6388 20.4224C19.3849 19.4251 19.8508 18.6965 20.6193 18.6965V18.7024ZM24.2833 19.148C24.3406 19.148 24.3974 19.1525 24.4534 19.1613C25.2625 19.2835 26.1265 20.1085 26.4521 21.108C26.7668 22.0744 26.4865 22.7925 25.691 22.7925H25.6049C24.8009 22.7339 23.8662 21.7869 23.5414 20.7869C23.2956 19.8576 23.5961 19.1509 24.286 19.1509L24.2833 19.148ZM7.34117 22.7576H7.47744C8.11984 22.8128 8.72544 23.0931 9.19691 23.5536C9.66811 24.0139 9.97744 24.6275 10.0742 25.2949C10.1862 26.6965 9.30597 27.9285 7.89824 27.9285H7.79771C6.42571 27.9285 5.20784 26.6485 5.15318 25.2064C5.04038 23.7875 6.04891 22.7515 7.34118 22.7515L7.34117 22.7576Z" fill="black"/>
</svg>
