<svg width="32" height="32" viewBox="0 0 32 32" fill="none" xmlns="http://www.w3.org/2000/svg">
<g clip-path="url(#clip0_4674_4833)">
<path fill-rule="evenodd" clip-rule="evenodd" d="M12.9159 23.1101C11.741 23.0189 10.9031 24.0575 11.07 25.3925C11.2428 26.7914 12.4423 27.9725 13.6063 27.9994C14.8322 27.9565 15.6044 26.8621 15.3759 25.5319C15.1474 24.2015 14.0242 23.1415 12.9159 23.1101Z" fill="#DB3E4A"/>
<path fill-rule="evenodd" clip-rule="evenodd" d="M14.3856 19.9599C14.1722 18.8159 13.1704 17.8154 12.0565 17.7199C11.0037 17.6175 10.1453 18.4005 10.2973 19.5445C10.4549 20.7525 11.5837 21.8111 12.6973 21.9069C13.872 22.001 14.5325 21.0394 14.3856 19.9599Z" fill="#DB3E4A"/>
<path fill-rule="evenodd" clip-rule="evenodd" d="M11.9148 16.7033C12.9666 16.8044 13.6474 16.1028 13.446 15.0919C13.2479 14.1452 12.3103 13.1975 11.3148 13.0279C10.2572 12.862 9.51004 13.5079 9.64737 14.522C9.78364 15.5359 10.7962 16.5444 11.9148 16.7033Z" fill="#DB3E4A"/>
<path fill-rule="evenodd" clip-rule="evenodd" d="M11.1885 12.2015C12.1839 12.373 12.8106 11.7399 12.6823 10.9143C12.4893 10.0319 11.6258 9.20629 10.6237 8.97242C9.68899 8.79749 8.93059 9.31242 9.06259 10.2017C9.19406 11.0908 10.1253 11.9727 11.1885 12.2015Z" fill="#DB3E4A"/>
<path fill-rule="evenodd" clip-rule="evenodd" d="M17.7261 23.3285C16.7395 23.2858 16.0168 24.2485 16.3021 25.509C16.5299 26.836 17.664 27.9629 18.7117 28C19.8152 27.968 20.3437 26.8933 20.0592 25.6309C19.7797 24.4405 18.7789 23.4354 17.7261 23.3285Z" fill="#DB3E4A"/>
<path fill-rule="evenodd" clip-rule="evenodd" d="M16.6801 11.7189C16.486 10.8349 15.6273 10.0744 14.7534 9.89357C13.8732 9.64797 13.2316 10.1594 13.4308 11.0376C13.6297 11.9165 14.5489 12.7405 15.4233 12.921C16.3593 13.1016 16.8676 12.544 16.6801 11.724L16.6801 11.7189Z" fill="#DB3E4A"/>
<path fill-rule="evenodd" clip-rule="evenodd" d="M22.0472 23.5936C21.1227 23.5464 20.5784 24.4296 20.8627 25.6909C21.2024 26.8851 22.2707 27.9469 23.1966 27.9949C24.1768 27.9736 24.5912 26.9725 24.2494 25.7811C23.907 24.5891 22.9731 23.6485 22.0472 23.5936Z" fill="#DB3E4A"/>
<path fill-rule="evenodd" clip-rule="evenodd" d="M27.8971 25.7687C27.6003 24.7271 26.7821 23.8985 25.9731 23.8561C25.1637 23.814 24.6877 24.5876 24.9365 25.6892C25.2344 26.7311 26.1667 27.6625 26.9773 27.7036C27.8347 27.6921 28.1947 26.8156 27.8971 25.774V25.7687Z" fill="#DB3E4A"/>
<path fill-rule="evenodd" clip-rule="evenodd" d="M18.4384 10.6719C17.6907 10.5385 17.1784 11.0375 17.3661 11.8564C17.6197 12.6713 18.4781 13.4953 19.2928 13.6828C20.1 13.8049 20.5496 13.2513 20.2997 12.4375C20.112 11.6175 19.2514 10.8529 18.4384 10.6719Z" fill="#DB3E4A"/>
<path fill-rule="evenodd" clip-rule="evenodd" d="M5.34568 4C5.50301 4 5.65928 4.01707 5.81368 4.0504C6.84355 4.27307 7.74461 5.12907 7.87181 5.99093C7.98248 6.73546 7.41154 7.3056 6.55021 7.3056C6.40895 7.30765 6.26784 7.29586 6.12888 7.2704C5.04408 7.1144 4.01421 6.1456 4.00488 5.27947C3.93955 4.48267 4.53874 4 5.34568 4Z" fill="#15B9D6"/>
<path fill-rule="evenodd" clip-rule="evenodd" d="M9.59153 5.24121C9.7574 5.24121 9.9222 5.26308 10.0825 5.30468C10.9614 5.54468 11.8265 6.37455 11.9481 7.13721C12.1041 7.78308 11.6617 8.19908 10.9489 8.19908C10.8166 8.19881 10.6846 8.18575 10.5542 8.16068C9.61446 7.92175 8.68886 7.09908 8.56192 6.27721C8.46325 5.65614 8.91205 5.24521 9.59152 5.24521L9.59153 5.24121Z" fill="#15B9D6"/>
<path fill-rule="evenodd" clip-rule="evenodd" d="M13.5791 6.27006C13.7127 6.27006 13.8452 6.28606 13.9751 6.31593C14.8479 6.56153 15.6444 7.27006 15.8282 8.01886C15.9895 8.66953 15.6279 9.12846 14.9743 9.12846C14.8585 9.12778 14.7431 9.11527 14.6298 9.09113C13.7434 8.84313 12.8794 8.01913 12.6917 7.27086C12.5914 6.63993 12.9754 6.27646 13.5797 6.27646L13.5791 6.27006Z" fill="#15B9D6"/>
<path fill-rule="evenodd" clip-rule="evenodd" d="M17.208 7.18848C17.3229 7.18901 17.437 7.20448 17.5493 7.23381C18.301 7.42581 19.0992 8.19114 19.3386 8.87754C19.4959 9.52394 19.2319 9.97141 18.6437 9.97141C18.5334 9.97018 18.4236 9.95677 18.3162 9.93141C17.5037 9.74448 16.6994 8.91488 16.4613 8.22848C16.3074 7.59408 16.6482 7.18848 17.208 7.18848Z" fill="#15B9D6"/>
<path fill-rule="evenodd" clip-rule="evenodd" d="M5.63425 7.9178C5.79692 7.9178 5.95958 7.93673 6.11878 7.9722C7.17745 8.19887 8.10865 9.0778 8.24065 9.9658C8.35612 10.7338 7.76598 11.3247 6.87692 11.3247C6.73035 11.324 6.58421 11.3087 6.44065 11.2791C5.32225 11.1191 4.25932 10.1197 4.24945 9.22126C4.18545 8.41273 4.79985 7.91113 5.63158 7.91113L5.63425 7.9178Z" fill="#15B9D6"/>
<path fill-rule="evenodd" clip-rule="evenodd" d="M20.4901 8.05079C20.5986 8.05239 20.7066 8.06892 20.8106 8.09986C21.5629 8.29133 22.2944 8.99986 22.5333 9.69239C22.7362 10.2753 22.5333 10.7079 22.0005 10.7079C21.8956 10.7067 21.7912 10.6929 21.6896 10.6668C20.9421 10.534 20.1448 9.77239 19.9608 9.01532C19.7619 8.44492 20.0045 8.05745 20.4901 8.05745V8.05079Z" fill="#15B9D6"/>
<path fill-rule="evenodd" clip-rule="evenodd" d="M21.6245 11.375C21.7285 11.3755 21.8325 11.3897 21.9333 11.4171C22.6205 11.5505 23.4186 12.3161 23.7226 13.0606C23.9488 13.7985 23.7024 14.3131 23.0541 14.3131C22.9821 14.3124 22.9102 14.3067 22.8389 14.2961C22.0866 14.1035 21.2874 13.3377 21.0389 12.5227C20.8261 11.8286 21.0792 11.375 21.6245 11.375Z" fill="#15B9D6"/>
<path fill-rule="evenodd" clip-rule="evenodd" d="M6.0875 12.1946C6.2315 12.1946 6.3755 12.2098 6.51737 12.2386C7.69657 12.3927 8.63257 13.3397 8.77497 14.3551C8.90164 15.2842 8.19684 16.0197 7.1715 16.0197C7.0731 16.0197 6.97497 16.0122 6.87737 15.9997C5.6371 15.8511 4.57444 14.8498 4.48804 13.765C4.46644 12.8167 5.1667 12.1946 6.0875 12.1946Z" fill="#15B9D6"/>
<path fill-rule="evenodd" clip-rule="evenodd" d="M15.3783 13.7246C15.4762 13.7246 15.5741 13.735 15.6701 13.755C16.6061 13.9305 17.5301 14.7505 17.7295 15.6966C17.9695 16.5726 17.5037 17.231 16.6922 17.231C16.627 17.2327 16.5617 17.2304 16.4967 17.2241C15.5063 17.1185 14.5093 16.1761 14.3063 15.1646C14.1301 14.3257 14.6487 13.7305 15.377 13.7305L15.3783 13.7246Z" fill="#15B9D6"/>
<path fill-rule="evenodd" clip-rule="evenodd" d="M19.3164 14.415C19.4089 14.415 19.5022 14.4265 19.5937 14.4465C20.4012 14.5697 21.2668 15.3945 21.5204 16.2726C21.8172 17.1377 21.4644 17.7857 20.7225 17.7857C20.6593 17.7857 20.5966 17.7812 20.5337 17.7726C19.6649 17.6553 18.7337 16.7726 18.475 15.831C18.2465 15.0012 18.658 14.415 19.3164 14.415Z" fill="#15B9D6"/>
<path fill-rule="evenodd" clip-rule="evenodd" d="M22.9523 15.0215C23.0163 15.0215 23.08 15.0274 23.1427 15.0388C23.8947 15.23 24.6934 15.9959 25.0083 16.869C25.2974 17.665 25.0083 18.305 24.3736 18.305C24.315 18.305 24.256 18.2994 24.1976 18.289C23.3886 18.1668 22.4587 17.2844 22.204 16.4055C21.9731 15.6095 22.3206 15.0215 22.9496 15.0215L22.9523 15.0215Z" fill="#15B9D6"/>
<path fill-rule="evenodd" clip-rule="evenodd" d="M6.6859 17.0684C6.7787 17.0684 6.8715 17.0742 6.96323 17.0838C8.2051 17.2324 9.26643 18.2334 9.36403 19.4465C9.5099 20.5468 8.7299 21.4892 7.5227 21.4892H7.3755C6.0795 21.4078 4.88323 20.2945 4.78163 19.0134C4.75016 17.8878 5.57976 17.0724 6.6843 17.0724L6.6859 17.0684Z" fill="#15B9D6"/>
<path fill-rule="evenodd" clip-rule="evenodd" d="M16.5137 18.1592C16.5742 18.1592 16.6348 18.1624 16.6953 18.1685C17.6908 18.34 18.622 19.2224 18.8908 20.292C19.0948 21.3416 18.5798 22.2085 17.6374 22.2085H17.5692C16.5164 22.1072 15.5145 21.1018 15.3012 19.9629C15.0476 18.901 15.6225 18.1605 16.5137 18.1605V18.1592Z" fill="#15B9D6"/>
<path fill-rule="evenodd" clip-rule="evenodd" d="M20.6193 18.7021C20.6771 18.7021 20.7355 18.7061 20.7926 18.7133C21.6635 18.8307 22.5318 19.7197 22.8569 20.7192C23.1622 21.6587 22.7555 22.4907 21.9825 22.4907C21.9313 22.4907 21.8798 22.4872 21.8297 22.4803C20.9046 22.4323 19.9075 21.4918 19.6387 20.4222C19.3849 19.4248 19.8507 18.6963 20.6193 18.6963V18.7021Z" fill="#15B9D6"/>
<path fill-rule="evenodd" clip-rule="evenodd" d="M24.2833 19.1484C24.3406 19.1484 24.3974 19.153 24.4534 19.1618C25.2625 19.2839 26.1265 20.109 26.4521 21.1084C26.7667 22.0748 26.4865 22.793 25.691 22.793H25.6049C24.8009 22.7343 23.8662 21.7874 23.5414 20.7874C23.2955 19.858 23.5961 19.1514 24.2859 19.1514L24.2833 19.1484Z" fill="#DB3E4A"/>
<path fill-rule="evenodd" clip-rule="evenodd" d="M7.34114 22.7581H7.47741C8.11981 22.8133 8.72541 23.0936 9.19688 23.5541C9.66808 24.0144 9.97741 24.628 10.0742 25.2954C10.1862 26.697 9.30594 27.929 7.89821 27.929H7.79768C6.42568 27.929 5.20781 26.649 5.15315 25.2069C5.04035 23.788 6.04888 22.752 7.34115 22.752L7.34114 22.7581Z" fill="#15B9D6"/>
</g>
<defs>
<clipPath id="clip0_4674_4833">
<rect width="32" height="32" fill="white"/>
</clipPath>
</defs>
</svg>
