<svg width="274" height="72" viewBox="0 0 274 72" fill="none" xmlns="http://www.w3.org/2000/svg">
<path d="M25.2 34.1997C98 33.6997 176 33.4997 248.8 34.1997C248.9 34.1997 249 34.2997 249 34.3997C249 34.4997 248.9 34.5997 248.8 34.5997C195.5 35.1997 134.3 35.0997 81.1 34.8997C67.2 34.8997 39.1 34.6997 25.2 34.5997C25.1 34.5997 25 34.4997 25 34.3997C25 34.2997 25.1 34.1997 25.2 34.1997Z" fill="#0D2B49"/>
<path d="M90.1 25.9998V25.4998H90.8C91.6 25.4998 92.2 25.1998 92.5 24.6998C92.7 24.3998 92.8 23.6998 92.8 22.5998V10.1998C92.8 8.9998 92.7 8.2998 92.4 7.8998C92 7.4998 91.5 7.2998 90.8 7.2998H90V6.7998H97.8C100.7 6.7998 102.9 7.0998 104.4 7.7998C105.9 8.3998 107.1 9.4998 108 11.0998C108.9 12.6998 109.4 14.3998 109.4 16.3998C109.4 19.0998 108.6 21.2998 107 23.0998C105.2 25.0998 102.4 26.0998 98.7 26.0998C98.6 25.9998 90.1 25.9998 90.1 25.9998ZM95.5 24.5998C96.7 24.8998 97.7 24.9998 98.5 24.9998C100.7 24.9998 102.5 24.1998 103.9 22.6998C105.3 21.1998 106.1 19.0998 106.1 16.3998C106.1 13.6998 105.4 11.6998 103.9 10.0998C102.5 8.5998 100.6 7.7998 98.3 7.7998C97.5 7.7998 96.5 7.8998 95.4 8.1998L95.5 24.5998Z" fill="#0D2B49"/>
<path d="M144.8 20.6998L145.3 20.7998L143.7 25.9998H128.9V25.4998H129.6C130.4 25.4998 131 25.1998 131.3 24.6998C131.5 24.3998 131.6 23.6998 131.6 22.5998V10.1998C131.6 8.9998 131.5 8.2998 131.2 7.8998C130.8 7.4998 130.3 7.2998 129.6 7.2998H128.9V6.7998H137.6V7.2998C136.6 7.2998 135.9 7.3998 135.5 7.5998C135.1 7.7998 134.8 8.0998 134.7 8.3998C134.5 8.6998 134.5 9.3998 134.5 10.5998V22.6998C134.5 23.4998 134.6 23.9998 134.7 24.2998C134.8 24.4998 135 24.5998 135.2 24.6998C135.4 24.7998 136.2 24.7998 137.4 24.7998H138.8C140.3 24.7998 141.3 24.6998 141.9 24.4998C142.5 24.2998 143 23.8998 143.5 23.2998C143.8 22.7998 144.3 21.8998 144.8 20.6998Z" fill="#0D2B49"/>
<path d="M151.9 7.8998V15.4998H156.1C157.2 15.4998 157.9 15.2998 158.3 14.9998C158.8 14.5998 159.1 13.7998 159.1 12.6998H159.6V19.3998H159.1C159 18.4998 158.8 17.8998 158.7 17.5998C158.5 17.2998 158.2 16.9998 157.9 16.7998C157.5 16.5998 156.9 16.4998 156.1 16.4998H151.9V22.7998C151.9 23.5998 151.9 24.1998 152 24.2998C152.1 24.4998 152.2 24.5998 152.4 24.6998C152.6 24.7998 152.9 24.8998 153.5 24.8998H156.8C157.9 24.8998 158.7 24.7998 159.2 24.6998C159.7 24.4998 160.2 24.1998 160.6 23.7998C161.2 23.1998 161.8 22.2998 162.4 21.1998H163L161.3 25.9998H146.5V25.4998H147.2C147.7 25.4998 148.1 25.3998 148.5 25.1998C148.8 24.9998 149 24.7998 149.1 24.4998C149.2 24.1998 149.3 23.5998 149.3 22.6998V10.1998C149.3 8.9998 149.2 8.1998 148.9 7.8998C148.6 7.4998 148 7.2998 147.2 7.2998H146.5V6.7998H161.3L161.5 10.9998H160.9C160.7 9.9998 160.5 9.2998 160.2 8.8998C160 8.4998 159.6 8.1998 159.1 7.9998C158.7 7.8998 158.1 7.7998 157.1 7.7998L151.9 7.8998Z" fill="#0D2B49"/>
<path d="M163.2 6.7998H168.4L180.1 21.1998V10.1998C180.1 8.9998 180 8.2998 179.7 7.9998C179.4 7.5998 178.8 7.3998 178 7.3998H177.3V6.7998H184V7.2998H183.3C182.5 7.2998 181.9 7.4998 181.6 7.9998C181.4 8.2998 181.3 8.9998 181.3 10.0998V26.2998H180.8L168.2 10.8998V22.6998C168.2 23.8998 168.3 24.5998 168.6 24.8998C169 25.2998 169.5 25.4998 170.3 25.4998H171V25.9998H164.3V25.4998H165C165.8 25.4998 166.4 25.2998 166.7 24.7998C166.9 24.4998 167 23.7998 167 22.6998V9.2998C166.4 8.6998 166 8.1998 165.7 7.9998C165.4 7.7998 165 7.5998 164.4 7.3998C164.1 7.2998 163.7 7.2998 163.2 7.2998V6.7998Z" fill="#0D2B49"/>
<path d="M116.5 7.8998V15.4998H120.7C121.8 15.4998 122.5 15.2998 122.9 14.9998C123.4 14.5998 123.7 13.7998 123.7 12.6998H124.2V19.3998H123.7C123.6 18.4998 123.4 17.8998 123.3 17.5998C123.1 17.2998 122.8 16.9998 122.5 16.7998C122.1 16.5998 121.5 16.4998 120.7 16.4998H116.5V22.7998C116.5 23.5998 116.5 24.1998 116.6 24.2998C116.7 24.4998 116.8 24.5998 117 24.6998C117.2 24.7998 117.5 24.8998 118.1 24.8998H121.4C122.5 24.8998 123.3 24.7998 123.8 24.6998C124.3 24.4998 124.8 24.1998 125.2 23.7998C125.8 23.1998 126.4 22.2998 127 21.1998H127.6L125.9 25.9998H111.1V25.4998H111.8C112.3 25.4998 112.7 25.3998 113.1 25.1998C113.4 24.9998 113.6 24.7998 113.7 24.4998C113.8 24.1998 113.9 23.5998 113.9 22.6998V10.1998C113.9 8.9998 113.8 8.1998 113.5 7.8998C113.2 7.4998 112.6 7.2998 111.8 7.2998H111.1V6.7998H125.9L126.1 10.9998H125.5C125.3 9.9998 125.1 9.2998 124.8 8.8998C124.6 8.4998 124.2 8.1998 123.7 7.9998C123.3 7.8998 122.7 7.7998 121.7 7.7998L116.5 7.8998Z" fill="#0D2B49"/>
<path d="M79.1001 43.5H81.4001C83.2001 43.5 84.5001 44.1 84.5001 45.9C84.5001 47.7 83.3001 48.4 81.5001 48.4H80.2001V51.6H79.2001L79.1001 43.5ZM81.4001 47.5C82.8001 47.5 83.5001 47 83.5001 45.8C83.5001 44.6 82.8001 44.2 81.4001 44.2H80.2001V47.4L81.4001 47.5Z" fill="#0D2B49"/>
<path d="M89.8999 43.5H92.3999C94.0999 43.5 95.2999 44.1 95.2999 45.8C95.2999 47.1 94.5999 47.8 93.4999 48.1L95.5999 51.7H94.3999L92.3999 48.3H90.9999V51.7H89.9999L89.8999 43.5ZM92.2999 47.3C93.5999 47.3 94.2999 46.8 94.2999 45.7C94.2999 44.6 93.5999 44.2 92.2999 44.2H90.9999V47.2L92.2999 47.3Z" fill="#0D2B49"/>
<path d="M100.8 43.5H101.8V51.7H100.8V43.5Z" fill="#0D2B49"/>
<path d="M106.8 43.5H107.9L109.2 47.9C109.5 48.9 109.7 49.6 110 50.6C110.3 49.6 110.5 48.9 110.8 47.9L112.1 43.5H113.2L110.6 51.7H109.4L106.8 43.5Z" fill="#0D2B49"/>
<path d="M119.6 43.5H120.8L123.6 51.7H122.5L121.7 49.2H118.7L117.9 51.7H116.8L119.6 43.5ZM118.9 48.3H121.3L120.9 47.1C120.6 46.2 120.3 45.3 120.1 44.4C119.9 45.3 119.6 46.2 119.3 47.1L118.9 48.3Z" fill="#0D2B49"/>
<path d="M129.5 44.3H127V43.5H133V44.4H130.5V51.7H129.5V44.3Z" fill="#0D2B49"/>
<path d="M138.2 43.5H142.9V44.4H139.2V47H142.3V47.9H139.2V50.9H143V51.8H138.2V43.5Z" fill="#0D2B49"/>
<path d="M154.9 43.5H157.3C159 43.5 160.1 44.1 160.1 45.5C160.1 46.3 159.7 47 158.9 47.3C159.9 47.5 160.6 48.1 160.6 49.3C160.6 50.9 159.3 51.7 157.5 51.7H154.9V43.5ZM157.1 46.9C158.5 46.9 159.1 46.4 159.1 45.6C159.1 44.7 158.5 44.3 157.2 44.3H155.9V46.9H157.1ZM157.3 50.8C158.7 50.8 159.5 50.3 159.5 49.2C159.5 48.2 158.7 47.7 157.3 47.7H155.9V50.8H157.3Z" fill="#0D2B49"/>
<path d="M167.7 43.5H168.9L171.7 51.7H170.6L169.8 49.2H166.8L166 51.7H164.9L167.7 43.5ZM167 48.3H169.4L169 47.1C168.7 46.2 168.4 45.3 168.2 44.4C168 45.3 167.7 46.2 167.4 47.1L167 48.3Z" fill="#0D2B49"/>
<path d="M176.5 43.5H177.6L180.5 48.6L181.4 50.3C181.4 49.5 181.3 48.6 181.3 47.7V43.5H182.3V51.7H181.2L178.2 46.6L177.3 44.9C177.4 45.7 177.4 46.6 177.4 47.4V51.7H176.4L176.5 43.5Z" fill="#0D2B49"/>
<path d="M188.4 43.5H189.4V47.6L192.8 43.5H194L191.5 46.6L194.4 51.6H193.2L190.8 47.4L189.4 49.1V51.7H188.4V43.5Z" fill="#0D2B49"/>
<path d="M104.5 59.7998H103.8V64.9998H106.7V64.3998H104.5V59.7998Z" fill="#0D2B49"/>
<path d="M112.8 62.7997C112.8 63.9997 112.3 64.3997 111.6 64.3997C110.9 64.3997 110.4 63.9997 110.4 62.7997V59.6997H109.7V62.6997C109.7 64.3997 110.5 64.8997 111.6 64.8997C112.7 64.8997 113.5 64.2997 113.5 62.6997V59.6997H112.9C112.8 59.7997 112.8 62.7997 112.8 62.7997Z" fill="#0D2B49"/>
<path d="M120.2 59.7998H119.5L118.8 61.0998C118.7 61.2998 118.6 61.5998 118.4 61.8998C118.2 61.5998 118.1 61.3998 118 61.0998L117.3 59.7998H116.6L118 62.2998L116.5 64.9998H117.2L118 63.5998C118.1 63.2998 118.3 63.0998 118.4 62.7998C118.6 63.0998 118.7 63.3998 118.8 63.5998L119.6 64.9998H120.3L118.8 62.3998L120.2 59.7998Z" fill="#0D2B49"/>
<path d="M124.1 62.4998H126.1V61.9998H124.1V60.2998H126.4V59.7998H123.4V64.9998H126.5V64.3998H124.1V62.4998Z" fill="#0D2B49"/>
<path d="M132.5 62.5998C132.4 62.9998 132.3 63.2998 132.1 63.6998C132 63.2998 131.9 62.9998 131.7 62.5998L130.7 59.7998H129.9V64.9998H130.5V62.0998C130.5 61.5998 130.5 60.9998 130.4 60.5998L130.8 61.7998L131.8 64.4998H132.2L133.2 61.7998L133.6 60.5998C133.6 61.0998 133.5 61.6998 133.5 62.0998V64.9998H134.1V59.7998H133.3L132.5 62.5998Z" fill="#0D2B49"/>
<path d="M140.5 62.1997C141 61.9997 141.3 61.5997 141.3 60.9997C141.3 60.0997 140.6 59.6997 139.5 59.6997H138V64.8997H139.7C140.9 64.8997 141.7 64.3997 141.7 63.3997C141.6 62.6997 141.2 62.2997 140.5 62.1997ZM138.6 60.2997H139.4C140.2 60.2997 140.6 60.4997 140.6 61.0997C140.6 61.5997 140.2 61.9997 139.4 61.9997H138.6V60.2997ZM139.5 64.3997H138.6V62.3997H139.5C140.4 62.3997 140.9 62.6997 140.9 63.2997C140.9 64.0997 140.4 64.3997 139.5 64.3997Z" fill="#0D2B49"/>
<path d="M146.9 59.6997C145.6 59.6997 144.7 60.6997 144.7 62.3997C144.7 64.0997 145.6 65.0997 146.9 65.0997C148.2 65.0997 149.1 64.0997 149.1 62.3997C149.1 60.6997 148.2 59.6997 146.9 59.6997ZM146.9 64.4997C146 64.4997 145.4 63.6997 145.4 62.3997C145.4 61.0997 146 60.2997 146.9 60.2997C147.8 60.2997 148.4 61.0997 148.4 62.3997C148.4 63.5997 147.8 64.4997 146.9 64.4997Z" fill="#0D2B49"/>
<path d="M155.6 62.7997C155.6 63.9997 155.1 64.3997 154.4 64.3997C153.7 64.3997 153.2 63.9997 153.2 62.7997V59.6997H152.5V62.6997C152.5 64.3997 153.3 64.8997 154.4 64.8997C155.5 64.8997 156.3 64.2997 156.3 62.6997V59.6997H155.7L155.6 62.7997Z" fill="#0D2B49"/>
<path d="M163.3 61.1997C163.3 60.0997 162.5 59.6997 161.5 59.6997H159.9V64.8997H160.6V62.6997H161.5L162.7 64.8997H163.4L162.1 62.5997C162.9 62.4997 163.3 61.9997 163.3 61.1997ZM161.4 62.1997H160.5V60.2997H161.4C162.2 60.2997 162.7 60.4997 162.7 61.1997C162.7 61.8997 162.2 62.1997 161.4 62.1997Z" fill="#0D2B49"/>
<path d="M168.7 62.2998V62.7998H169.8V64.1998C169.6 64.3998 169.2 64.4998 168.9 64.4998C167.8 64.4998 167.2 63.6998 167.2 62.3998C167.2 61.0998 167.9 60.2998 168.9 60.2998C169.4 60.2998 169.8 60.4998 170 60.7998L170.4 60.3998C170.1 60.0998 169.6 59.7998 168.9 59.7998C167.5 59.7998 166.5 60.7998 166.5 62.4998C166.5 64.1998 167.5 65.1998 168.8 65.1998C169.5 65.1998 170.1 64.8998 170.4 64.5998V62.3998H168.7V62.2998Z" fill="#0D2B49"/>
</svg>
