<svg width="32" height="32" viewBox="0 0 32 32" fill="none" xmlns="http://www.w3.org/2000/svg">
<path fill-rule="evenodd" clip-rule="evenodd" d="M22.5819 15.5884L23.1938 15.5932C24.435 15.6118 25.7855 15.6856 27.2551 15.8056L28 15.8696L27.9953 16.3555C27.8133 23.4498 22.7461 27.4963 17.2421 27.6358L16.947 27.6397L16.4536 27.6302C15.3079 27.5858 14.1979 27.3867 13.067 27.0249L12.581 26.8601L12.8459 26.7378C15.1132 25.653 18.8993 22.9656 20.4999 21.0625L20.6883 20.8287L20.381 21.0673C20.0337 21.3282 19.6789 21.5789 19.317 21.8193L18.9224 22.0782L18.3446 22.4634C13.7499 25.4708 9.58903 26.813 5.00503 27.7289L4.37244 27.8507L4.34044 27.8521L4.26222 27.8433C4.15984 27.819 4.07436 27.749 4.03052 27.6533L4.00593 27.5763L4 27.4984C4.00584 27.3696 4.08381 27.2552 4.20148 27.2027L4.27674 27.179L5.11822 27.0133C7.07022 26.6151 8.94637 26.1339 10.816 25.4696C10.6578 18.4415 14.7887 15.6824 22.1959 15.5908L22.5819 15.5884ZM13.7333 4.14844L14.2871 4.1517C17.3745 4.18933 19.7864 4.54637 21.5221 5.22311L21.8397 5.35348L22.2051 5.52148C23.7683 6.27941 25.059 7.44059 26.0785 9.00385L26.3088 9.37155L26.5215 9.74074C27.2679 11.0969 27.7256 12.6027 27.9049 14.2515L27.9502 14.7505L27.32 14.6972C26.2865 14.6133 25.3348 14.5538 24.4524 14.5185L23.931 14.4998L23.8815 14.0551C23.6015 11.8557 22.8353 10.0332 21.5804 8.58903L21.3227 8.30547L21.064 8.04236C19.4071 6.42162 17.3372 5.56888 14.8524 5.48355L14.4347 5.47644L14.0335 5.48444C13.2172 5.51585 12.3188 5.64207 11.3386 5.8637L10.8418 5.98222V19.7052L10.6714 20.0578C10.1265 21.2512 9.80828 22.635 9.72206 24.2012L9.7031 24.6764L9.14073 24.856C8.76147 24.9733 8.37332 25.0862 7.97451 25.1956L7.36829 25.3567L7.39703 25.1606C7.4391 24.8338 7.46488 24.445 7.47347 23.9932L7.47643 23.6427V8.34103L7.47436 8.05244C7.45569 6.84177 7.31495 6.04237 7.05392 5.65244L6.98607 5.56355L6.84266 5.41748C6.44236 5.04889 5.90044 4.84385 5.21599 4.80267L4.95288 4.79497H4.05837V4.14845L13.7333 4.14844Z" fill="black"/>
</svg>
