<svg width="32" height="32" viewBox="0 0 32 32" fill="none" xmlns="http://www.w3.org/2000/svg">
<g clip-path="url(#clip0_4674_4840)">
<path d="M4 4.28027V27.7203H28V4.28027H4ZM16.2169 5.22029C19.745 5.48935 22.4591 6.62948 24.2786 8.61379C26.046 10.5678 26.9927 13.0062 27.0903 15.8851L22.5045 15.8935L22.5112 15.8851H22.5045C22.4221 14.2522 21.8638 12.8565 20.8414 11.7315C19.7668 10.5678 18.2164 9.88845 16.2169 9.71693V5.22029ZM21.7579 15.8851H19.8643C20.6328 15.4529 21.1777 14.6626 21.2668 13.7528C21.551 14.4019 21.7141 15.1099 21.7595 15.8851H21.7579ZM16.2169 10.4636C16.8055 10.5157 17.3503 10.62 17.8498 10.7696C17.1855 10.9109 16.6121 11.2842 16.2169 11.7988V10.4636ZM16.2169 15.1687C16.4406 15.4596 16.7248 15.7052 17.0527 15.8851H16.2169V15.1687ZM15.472 26.9737H4.74664V16.63H9.28027V22.8503H14.6059C14.9036 22.8503 15.1945 22.8436 15.4703 22.8352V26.9737H15.472ZM15.472 22.0886C15.1962 22.0953 14.912 22.1037 14.6076 22.1037H10.0286V16.63H15.472V22.0886ZM15.472 15.8918H11.1469V11.5297H15.472V15.8918ZM15.472 8.54652H8.16199V15.8851H4.74663V5.02691H15.4703V8.54653L15.472 8.54652ZM20.6547 16.63V16.6385C20.6093 17.5263 20.3941 18.2864 19.9837 18.9658C19.5516 19.6889 19.0067 20.1816 18.3139 20.4793C17.9641 20.6289 17.3218 20.8223 16.2186 20.9198V16.6317M27.2567 26.9753H16.2169V23.9097C17.5656 23.8122 18.6486 23.5886 19.4978 23.2152C20.7573 22.6704 21.7797 21.7606 22.5331 20.5078C23.2192 19.3744 23.5925 18.0762 23.6362 16.6368V16.6283H27.2534V26.972L27.2567 26.9753ZM27.2567 12.3285C27.1979 12.1502 27.1373 11.9703 27.0701 11.792C26.5706 10.4266 25.8173 9.20403 24.8335 8.11602C23.4916 6.66142 21.7242 5.62555 19.5465 5.02858H27.2584V12.3268L27.2567 12.3285Z" fill="white"/>
</g>
<defs>
<clipPath id="clip0_4674_4840">
<rect width="32" height="32" fill="white"/>
</clipPath>
</defs>
</svg>
