<svg width="274" height="72" viewBox="0 0 274 72" fill="none" xmlns="http://www.w3.org/2000/svg">
<path d="M25.2 41C98 40.5 176 40.3 248.8 41C248.9 41 249 41.1 249 41.2C249 41.3 248.9 41.4 248.8 41.4C195.5 42 134.3 41.9 81.1 41.7C67.2 41.7 39.1 41.5 25.2 41.4C25.1 41.4 25 41.3 25 41.2C25 41.1 25.1 41 25.2 41Z" fill="#0D2B49"/>
<path d="M90.1 32.7996V32.2996H90.8C91.6 32.2996 92.2 31.9996 92.5 31.4996C92.7 31.1996 92.8 30.4996 92.8 29.3996V16.9996C92.8 15.7996 92.7 15.0996 92.4 14.6996C92 14.2996 91.5 14.0996 90.8 14.0996H90V13.5996H97.8C100.7 13.5996 102.9 13.8996 104.4 14.5996C105.9 15.1996 107.1 16.2996 108 17.8996C108.9 19.3996 109.4 21.1996 109.4 23.1996C109.4 25.8996 108.6 28.0996 107 29.8996C105.2 31.8996 102.4 32.8996 98.7 32.8996C98.6 32.7996 90.1 32.7996 90.1 32.7996ZM95.5 31.3996C96.7 31.6996 97.7 31.7996 98.5 31.7996C100.7 31.7996 102.5 30.9996 103.9 29.4996C105.3 27.9996 106.1 25.8996 106.1 23.1996C106.1 20.4996 105.4 18.4996 103.9 16.8996C102.5 15.3996 100.6 14.5996 98.3 14.5996C97.5 14.5996 96.5 14.6996 95.4 14.9996L95.5 31.3996Z" fill="#0D2B49"/>
<path d="M144.8 27.4996L145.3 27.5996L143.7 32.7996H128.9V32.2996H129.6C130.4 32.2996 131 31.9996 131.3 31.4996C131.5 31.1996 131.6 30.4996 131.6 29.3996V16.9996C131.6 15.7996 131.5 15.0996 131.2 14.6996C130.8 14.2996 130.3 14.0996 129.6 14.0996H128.9V13.5996H137.6V14.0996C136.6 14.0996 135.9 14.1996 135.5 14.3996C135.1 14.5996 134.8 14.8996 134.7 15.1996C134.5 15.4996 134.5 16.1996 134.5 17.3996V29.4996C134.5 30.2996 134.6 30.7996 134.7 31.0996C134.8 31.2996 135 31.3996 135.2 31.4996C135.4 31.5996 136.2 31.5996 137.4 31.5996H138.8C140.3 31.5996 141.3 31.4996 141.9 31.2996C142.5 31.0996 143 30.6996 143.5 30.0996C143.8 29.4996 144.3 28.6996 144.8 27.4996Z" fill="#0D2B49"/>
<path d="M151.9 14.6V22.2H156.1C157.2 22.2 157.9 22 158.3 21.7C158.8 21.3 159.1 20.5 159.1 19.4H159.6V26.1H159.1C159 25.2 158.8 24.6 158.7 24.3C158.5 24 158.2 23.7 157.9 23.5C157.5 23.3 156.9 23.2 156.1 23.2H151.9V29.5C151.9 30.3 151.9 30.9 152 31C152.1 31.2 152.2 31.3 152.4 31.4C152.6 31.5 152.9 31.6 153.5 31.6H156.8C157.9 31.6 158.7 31.5 159.2 31.4C159.7 31.2 160.2 30.9 160.6 30.5C161.2 29.9 161.8 29 162.4 27.9H163L161.3 32.7H146.5V32.2H147.2C147.7 32.2 148.1 32.1 148.5 31.9C148.8 31.7 149 31.5 149.1 31.2C149.2 30.9 149.3 30.3 149.3 29.4V16.9C149.3 15.7 149.2 14.9 148.9 14.6C148.6 14.2 148 14 147.2 14H146.5V13.5H161.3L161.5 17.7H160.9C160.7 16.7 160.5 16 160.2 15.6C160 15.2 159.6 14.9 159.1 14.7C158.7 14.6 158.1 14.5 157.1 14.5L151.9 14.6Z" fill="#0D2B49"/>
<path d="M163.2 13.5996H168.4L180.1 27.9996V16.8996C180.1 15.6996 180 14.9996 179.7 14.6996C179.4 14.2996 178.8 14.0996 178 14.0996H177.3V13.5996H184V14.0996H183.3C182.5 14.0996 181.9 14.2996 181.6 14.7996C181.4 15.0996 181.3 15.7996 181.3 16.8996V33.0996H180.8L168.2 17.6996V29.4996C168.2 30.6996 168.3 31.3996 168.6 31.6996C169 32.0996 169.5 32.2996 170.3 32.2996H171V32.7996H164.3V32.2996H165C165.8 32.2996 166.4 32.0996 166.7 31.5996C166.9 31.2996 167 30.5996 167 29.4996V16.0996C166.4 15.4996 166 14.9996 165.7 14.7996C165.4 14.5996 165 14.3996 164.4 14.1996C164.1 14.0996 163.7 14.0996 163.2 14.0996V13.5996Z" fill="#0D2B49"/>
<path d="M116.5 14.6V22.2H120.7C121.8 22.2 122.5 22 122.9 21.7C123.4 21.3 123.7 20.5 123.7 19.4H124.2V26.1H123.7C123.6 25.2 123.4 24.6 123.3 24.3C123.1 24 122.8 23.7 122.5 23.5C122.1 23.3 121.5 23.2 120.7 23.2H116.5V29.5C116.5 30.3 116.5 30.9 116.6 31C116.7 31.2 116.8 31.3 117 31.4C117.2 31.5 117.5 31.6 118.1 31.6H121.4C122.5 31.6 123.3 31.5 123.8 31.4C124.3 31.2 124.8 30.9 125.2 30.5C125.8 29.9 126.4 29 127 27.9H127.6L125.9 32.7H111.1V32.2H111.8C112.3 32.2 112.7 32.1 113.1 31.9C113.4 31.7 113.6 31.5 113.7 31.2C113.8 30.9 113.9 30.3 113.9 29.4V16.9C113.9 15.7 113.8 14.9 113.5 14.6C113.2 14.2 112.6 14 111.8 14H111.1V13.5H125.9L126.1 17.7H125.5C125.3 16.7 125.1 16 124.8 15.6C124.6 15.2 124.2 14.9 123.7 14.7C123.3 14.6 122.7 14.5 121.7 14.5L116.5 14.6Z" fill="#0D2B49"/>
<path d="M79.1001 50.2002H81.4001C83.2001 50.2002 84.5001 50.8002 84.5001 52.6002C84.5001 54.4002 83.3001 55.1002 81.5001 55.1002H80.2001V58.3002H79.2001L79.1001 50.2002ZM81.4001 54.3002C82.8001 54.3002 83.5001 53.8002 83.5001 52.6002C83.5001 51.4002 82.8001 51.0002 81.4001 51.0002H80.2001V54.2002L81.4001 54.3002Z" fill="#0D2B49"/>
<path d="M89.8999 50.2002H92.3999C94.0999 50.2002 95.2999 50.8002 95.2999 52.5002C95.2999 53.8002 94.5999 54.5002 93.4999 54.8002L95.5999 58.4002H94.3999L92.3999 55.0002H90.9999V58.4002H89.9999L89.8999 50.2002ZM92.2999 54.1002C93.5999 54.1002 94.2999 53.6002 94.2999 52.5002C94.2999 51.4002 93.5999 51.0002 92.2999 51.0002H90.9999V54.0002L92.2999 54.1002Z" fill="#0D2B49"/>
<path d="M100.8 50.2002H101.8V58.4002H100.8V50.2002Z" fill="#0D2B49"/>
<path d="M106.8 50.2002H107.9L109.2 54.6002C109.5 55.6002 109.7 56.3002 110 57.3002C110.3 56.3002 110.5 55.6002 110.8 54.6002L112.1 50.2002H113.2L110.6 58.4002H109.4L106.8 50.2002Z" fill="#0D2B49"/>
<path d="M119.6 50.2002H120.8L123.6 58.4002H122.5L121.7 55.9002H118.7L117.9 58.4002H116.8L119.6 50.2002ZM118.9 55.1002H121.3L120.9 53.9002C120.6 53.0002 120.3 52.1002 120.1 51.2002C119.9 52.1002 119.6 53.0002 119.3 53.9002C119.3 53.8002 118.9 55.1002 118.9 55.1002Z" fill="#0D2B49"/>
<path d="M129.5 51.1002H127V50.2002H133V51.1002H130.5V58.4002H129.5V51.1002Z" fill="#0D2B49"/>
<path d="M138.2 50.2002H142.9V51.1002H139.2V53.7002H142.3V54.6002H139.2V57.6002H143V58.5002H138.2V50.2002Z" fill="#0D2B49"/>
<path d="M154.9 50.2002H157.3C159 50.2002 160.1 50.8002 160.1 52.2002C160.1 53.0002 159.7 53.7002 158.9 54.0002C159.9 54.2002 160.6 54.8002 160.6 56.0002C160.6 57.6002 159.3 58.4002 157.5 58.4002H154.9V50.2002ZM157.1 53.7002C158.5 53.7002 159.1 53.2002 159.1 52.4002C159.1 51.5002 158.5 51.1002 157.2 51.1002H155.9V53.7002H157.1ZM157.3 57.6002C158.7 57.6002 159.5 57.1002 159.5 56.0002C159.5 55.0002 158.7 54.5002 157.3 54.5002H155.9V57.6002H157.3Z" fill="#0D2B49"/>
<path d="M167.7 50.2002H168.9L171.7 58.4002H170.6L169.8 55.9002H166.8L166 58.4002H164.9L167.7 50.2002ZM167 55.1002H169.4L169 53.9002C168.7 53.0002 168.4 52.1002 168.2 51.2002C168 52.1002 167.7 53.0002 167.4 53.9002L167 55.1002Z" fill="#0D2B49"/>
<path d="M176.5 50.2002H177.6L180.5 55.3002L181.4 57.0002C181.4 56.2002 181.3 55.3002 181.3 54.4002V50.2002H182.3V58.4002H181.2L178.2 53.3002L177.3 51.6002C177.4 52.4002 177.4 53.3002 177.4 54.1002V58.4002H176.4L176.5 50.2002Z" fill="#0D2B49"/>
<path d="M188.4 50.2002H189.4V54.3002L192.8 50.2002H194L191.5 53.3002L194.4 58.3002H193.2L190.8 54.1002L189.4 55.8002V58.4002H188.4V50.2002Z" fill="#0D2B49"/>
</svg>
