<svg width="274" height="72" viewBox="0 0 274 72" fill="none" xmlns="http://www.w3.org/2000/svg">
<path d="M25.2 41C98 40.5 176 40.3 248.8 41C248.9 41 249 41.1 249 41.2C249 41.3 248.9 41.4 248.8 41.4C195.5 42 134.3 41.9 81.1 41.7C67.2 41.7 39.1 41.5 25.2 41.4C25.1 41.4 25 41.3 25 41.2C25 41.1 25.1 41 25.2 41Z" fill="#0D2B49"/>
<path d="M90.1 32.7996V32.2996H90.8C91.6 32.2996 92.2 31.9996 92.5 31.4996C92.7 31.1996 92.8 30.4996 92.8 29.3996V16.9996C92.8 15.7996 92.7 15.0996 92.4 14.6996C92 14.2996 91.5 14.0996 90.8 14.0996H90V13.5996H97.8C100.7 13.5996 102.8 13.8996 104.3 14.5996C105.8 15.1996 107 16.2996 107.9 17.8996C108.8 19.3996 109.3 21.1996 109.3 23.1996C109.3 25.8996 108.5 28.0996 106.9 29.8996C105.1 31.8996 102.3 32.8996 98.6 32.8996H90.1V32.7996ZM95.5 31.3996C96.7 31.6996 97.7 31.7996 98.5 31.7996C100.7 31.7996 102.5 30.9996 103.9 29.4996C105.3 27.9996 106.1 25.8996 106.1 23.1996C106.1 20.4996 105.4 18.4996 103.9 16.8996C102.5 15.3996 100.6 14.5996 98.3 14.5996C97.5 14.5996 96.5 14.6996 95.4 14.9996L95.5 31.3996Z" fill="#0D2B49"/>
<path d="M144.8 27.4996L145.3 27.5996L143.7 32.7996H128.9V32.2996H129.6C130.4 32.2996 131 31.9996 131.3 31.4996C131.5 31.1996 131.6 30.4996 131.6 29.3996V16.9996C131.6 15.7996 131.5 15.0996 131.2 14.6996C130.8 14.2996 130.3 14.0996 129.6 14.0996H128.9V13.5996H137.6V14.0996C136.6 14.0996 135.9 14.1996 135.5 14.3996C135.1 14.5996 134.8 14.8996 134.7 15.1996C134.5 15.4996 134.5 16.1996 134.5 17.3996V29.4996C134.5 30.2996 134.6 30.7996 134.7 31.0996C134.8 31.2996 135 31.3996 135.2 31.4996C135.4 31.5996 136.2 31.5996 137.4 31.5996H138.8C140.3 31.5996 141.3 31.4996 141.9 31.2996C142.5 31.0996 143 30.6996 143.5 30.0996C143.8 29.4996 144.3 28.6996 144.8 27.4996Z" fill="#0D2B49"/>
<path d="M151.9 14.6V22.2H156.1C157.2 22.2 157.9 22 158.3 21.7C158.8 21.3 159.1 20.5 159.1 19.4H159.6V26.1H159.1C159 25.2 158.8 24.6 158.7 24.3C158.5 24 158.2 23.7 157.9 23.5C157.5 23.3 156.9 23.2 156.1 23.2H151.9V29.5C151.9 30.3 151.9 30.9 152 31C152.1 31.2 152.2 31.3 152.4 31.4C152.6 31.5 152.9 31.6 153.5 31.6H156.8C157.9 31.6 158.7 31.5 159.2 31.4C159.7 31.2 160.2 30.9 160.6 30.5C161.2 29.9 161.8 29 162.4 27.9H163L161.3 32.7H146.5V32.2H147.2C147.7 32.2 148.1 32.1 148.5 31.9C148.8 31.7 149 31.5 149.1 31.2C149.2 30.9 149.3 30.3 149.3 29.4V16.9C149.3 15.7 149.2 14.9 148.9 14.6C148.6 14.2 148 14 147.2 14H146.5V13.5H161.3L161.5 17.7H160.9C160.7 16.7 160.5 16 160.2 15.6C160 15.2 159.6 14.9 159.1 14.7C158.7 14.6 158.1 14.5 157.1 14.5H151.9V14.6Z" fill="#0D2B49"/>
<path d="M163.2 13.5996H168.4L180.1 27.9996V16.8996C180.1 15.6996 180 14.9996 179.7 14.6996C179.4 14.2996 178.8 14.0996 178 14.0996H177.3V13.5996H184V14.0996H183.3C182.5 14.0996 181.9 14.2996 181.6 14.7996C181.4 15.0996 181.3 15.7996 181.3 16.8996V33.0996H180.8L168.2 17.6996V29.4996C168.2 30.6996 168.3 31.3996 168.6 31.6996C169 32.0996 169.5 32.2996 170.3 32.2996H171V32.7996H164.3V32.2996H165C165.8 32.2996 166.4 32.0996 166.7 31.5996C166.9 31.2996 167 30.5996 167 29.4996V16.0996C166.4 15.4996 166 14.9996 165.7 14.7996C165.4 14.5996 165 14.3996 164.4 14.1996C164.1 14.0996 163.7 14.0996 163.2 14.0996V13.5996Z" fill="#0D2B49"/>
<path d="M116.5 14.6V22.2H120.7C121.8 22.2 122.5 22 122.9 21.7C123.4 21.3 123.7 20.5 123.7 19.4H124.2V26.1H123.7C123.6 25.2 123.4 24.6 123.3 24.3C123.1 24 122.8 23.7 122.5 23.5C122.1 23.3 121.5 23.2 120.7 23.2H116.5V29.5C116.5 30.3 116.5 30.9 116.6 31C116.7 31.2 116.8 31.3 117 31.4C117.2 31.5 117.5 31.6 118.1 31.6H121.4C122.5 31.6 123.3 31.5 123.8 31.4C124.3 31.2 124.8 30.9 125.2 30.5C125.8 29.9 126.4 29 127 27.9H127.6L125.9 32.7H111.1V32.2H111.8C112.3 32.2 112.7 32.1 113.1 31.9C113.4 31.7 113.6 31.5 113.7 31.2C113.8 30.9 113.9 30.3 113.9 29.4V16.9C113.9 15.7 113.8 14.9 113.5 14.6C113.2 14.2 112.6 14 111.8 14H111.1V13.5H125.9L126.1 17.7H125.5C125.3 16.7 125.1 16 124.8 15.6C124.6 15.2 124.2 14.9 123.7 14.7C123.3 14.6 122.7 14.5 121.7 14.5H116.5V14.6Z" fill="#0D2B49"/>
<path d="M109.2 57.1998L109.8 56.4998C110.4 57.0998 111.2 57.4998 112.1 57.4998C113.2 57.4998 113.8 56.9998 113.8 56.0998C113.8 55.1998 113.2 54.9998 112.4 54.5998L111.2 54.0998C110.4 53.7998 109.5 53.1998 109.5 51.9998C109.5 50.7998 110.6 49.7998 112.1 49.7998C113.1 49.7998 114 50.1998 114.6 50.7998L114 51.4998C113.5 50.9998 112.9 50.6998 112.1 50.6998C111.2 50.6998 110.6 51.1998 110.6 51.8998C110.6 52.6998 111.3 52.9998 112 53.2998L113.2 53.7998C114.2 54.1998 114.9 54.7998 114.9 55.9998C114.9 57.2998 113.8 58.3998 112.1 58.3998C110.9 58.3998 109.9 57.8998 109.2 57.1998Z" fill="#0D2B49"/>
<path d="M120.2 54.8V50H121.3V54.9C121.3 56.9 122.1 57.5 123.2 57.5C124.3 57.5 125.2 56.9 125.2 54.9V50H126.2V54.9C126.2 57.6 124.9 58.5 123.2 58.5C121.5 58.4 120.2 57.5 120.2 54.8Z" fill="#0D2B49"/>
<path d="M132.1 50H133.2V58.3H132.1V50Z" fill="#0D2B49"/>
<path d="M138.5 57.1998L139.1 56.4998C139.7 57.0998 140.5 57.4998 141.4 57.4998C142.5 57.4998 143.1 56.9998 143.1 56.0998C143.1 55.1998 142.5 54.9998 141.7 54.5998L140.5 54.0998C139.7 53.7998 138.8 53.1998 138.8 51.9998C138.8 50.7998 139.9 49.7998 141.4 49.7998C142.4 49.7998 143.3 50.1998 143.9 50.7998L143.3 51.4998C142.8 50.9998 142.2 50.6998 141.4 50.6998C140.5 50.6998 139.9 51.1998 139.9 51.8998C139.9 52.6998 140.6 52.9998 141.3 53.2998L142.5 53.7998C143.5 54.1998 144.2 54.7998 144.2 55.9998C144.2 57.2998 143.1 58.3998 141.4 58.3998C140.3 58.3998 139.2 57.8998 138.5 57.1998Z" fill="#0D2B49"/>
<path d="M148.8 57.1998L149.4 56.4998C150 57.0998 150.8 57.4998 151.7 57.4998C152.8 57.4998 153.4 56.9998 153.4 56.0998C153.4 55.1998 152.8 54.9998 152 54.5998L150.8 54.0998C150 53.7998 149.1 53.1998 149.1 51.9998C149.1 50.7998 150.2 49.7998 151.7 49.7998C152.7 49.7998 153.6 50.1998 154.2 50.7998L153.6 51.4998C153.1 50.9998 152.5 50.6998 151.7 50.6998C150.8 50.6998 150.2 51.1998 150.2 51.8998C150.2 52.6998 150.9 52.9998 151.6 53.2998L152.8 53.7998C153.8 54.1998 154.5 54.7998 154.5 55.9998C154.5 57.2998 153.4 58.3998 151.7 58.3998C150.5 58.3998 149.5 57.8998 148.8 57.1998Z" fill="#0D2B49"/>
<path d="M159.8 50H164.6V50.9H160.9V53.5H164.1V54.4H160.9V57.4H164.8V58.3H159.9V50H159.8Z" fill="#0D2B49"/>
</svg>
