<svg width="32" height="32" viewBox="0 0 32 32" fill="none" xmlns="http://www.w3.org/2000/svg">
<path fill-rule="evenodd" clip-rule="evenodd" d="M22.5819 15.5879L23.1938 15.5926C24.435 15.6113 25.7855 15.6851 27.2551 15.8051L28 15.8691L27.9953 16.355C27.8133 23.4492 22.7461 27.4957 17.2421 27.6353L16.947 27.6392L16.4536 27.6297C15.3079 27.5852 14.1979 27.3861 13.067 27.0243L12.581 26.8596L12.8459 26.7372C15.1132 25.6525 18.8993 22.9651 20.4999 21.062L20.6883 20.8282L20.381 21.0667C20.0337 21.3276 19.6789 21.5784 19.317 21.8187L18.9224 22.0777L18.3446 22.4629C13.7499 25.4703 9.58903 26.8125 5.00503 27.7283L4.37244 27.8501L4.34044 27.8516L4.26222 27.8427C4.15984 27.8185 4.07436 27.7484 4.03052 27.6528L4.00593 27.5757L4 27.4978C4.00584 27.3691 4.08381 27.2546 4.20148 27.2021L4.27674 27.1784L5.11822 27.0128C7.07022 26.6146 8.94637 26.1334 10.816 25.4691C10.6578 18.4409 14.7887 15.6818 22.1959 15.5903L22.5819 15.5879Z" fill="#53A062"/>
<path fill-rule="evenodd" clip-rule="evenodd" d="M13.7333 4.14844L14.2871 4.1517C17.3745 4.18933 19.7864 4.54637 21.5221 5.22311L21.8397 5.35348L22.205 5.52148C23.7683 6.27941 25.059 7.44059 26.0785 9.00385L26.3087 9.37155L26.5215 9.74074C27.2678 11.0969 27.7256 12.6027 27.9049 14.2515L27.9502 14.7505L27.32 14.6972C26.2865 14.6133 25.3348 14.5538 24.4524 14.5185L23.931 14.4998L23.8815 14.0551C23.6015 11.8557 22.8352 10.0332 21.5804 8.58903L21.3227 8.30547L21.064 8.04236C19.4071 6.42162 17.3372 5.56888 14.8524 5.48355L14.4346 5.47644L14.0334 5.48444C13.2171 5.51585 12.3188 5.64207 11.3386 5.8637L10.8417 5.98222V19.7052L10.6714 20.0578C10.1265 21.2512 9.80826 22.635 9.72204 24.2012L9.70308 24.6764L9.14071 24.856C8.76145 24.9733 8.3733 25.0862 7.97449 25.1956L7.36827 25.3567L7.39701 25.1606C7.43908 24.8338 7.46486 24.445 7.47345 23.9932L7.47641 23.6427V8.34103L7.47434 8.05244C7.45567 6.84177 7.31493 6.04237 7.0539 5.65244L6.98605 5.56355L6.84264 5.41748C6.44234 5.04889 5.90042 4.84385 5.21597 4.80267L4.95286 4.79497H4.05835V4.14845L13.7333 4.14844Z" fill="#0D2B49"/>
</svg>
