<svg width="32" height="32" viewBox="0 0 32 32" fill="none" xmlns="http://www.w3.org/2000/svg">
<path d="M4 4.27539V27.7154H28V4.27539H4ZM16.22 5.21539C19.74 5.48541 22.46 6.62542 24.28 8.61541C26.05 10.5654 26.99 13.0054 27.09 15.8854L22.5 15.8954L22.51 15.8854H22.5C22.42 14.2554 21.86 12.8554 20.84 11.7354C19.77 10.5654 18.22 9.88537 16.22 9.71539V5.21539ZM21.76 15.8854H19.86C20.63 15.4554 21.18 14.6654 21.27 13.7554C21.55 14.4054 21.71 15.1054 21.76 15.8854ZM16.22 10.4654C16.81 10.5154 17.35 10.6154 17.85 10.7654C17.19 10.9154 16.61 11.2854 16.22 11.7954V10.4654ZM16.22 15.1654C16.44 15.4554 16.72 15.7054 17.05 15.8854H16.22V15.1654ZM16.22 16.6354L20.65 16.6254V16.6354C20.61 17.5254 20.39 18.2854 19.98 18.9654C19.55 19.6854 19.01 20.1854 18.31 20.4754C17.96 20.6254 17.32 20.8254 16.22 20.9154V16.6354ZM15.47 26.9754H4.75V16.6254H9.28003V22.8454H14.61C14.9 22.8454 15.19 22.8454 15.47 22.8354L15.47 26.9754ZM15.47 22.0854C15.2 22.0954 14.91 22.1054 14.61 22.1054H10.03V16.6254H15.47L15.47 22.0854ZM15.47 15.8954H11.15V11.5254H15.47V15.8954ZM15.47 8.54541H8.15997V15.8854H4.75V5.02539H15.47V8.54541ZM27.25 26.9754H16.22V23.9054C17.57 23.8154 18.65 23.5854 19.5 23.2154C20.76 22.6654 21.78 21.7554 22.53 20.5054C23.22 19.3754 23.59 18.0754 23.64 16.6354V16.6254H27.25L27.25 26.9754ZM27.26 12.3254C27.2 12.1454 27.14 11.9654 27.07 11.7954C26.57 10.4254 25.82 9.20538 24.83 8.11542C23.49 6.66541 21.72 5.62543 19.55 5.02539H27.26V12.3254Z" fill="#1E274A"/>
<path d="M27.2601 5.02539V12.3254C27.2001 12.1454 27.1401 11.9654 27.0701 11.7954C26.5701 10.4254 25.8201 9.20538 24.8301 8.11542C23.4901 6.66541 21.72 5.62543 19.55 5.02539H27.2601Z" fill="white"/>
<path d="M21.7601 15.8858H19.8601C20.6301 15.4558 21.1801 14.6658 21.2701 13.7559C21.5501 14.4058 21.7101 15.1058 21.7601 15.8858Z" fill="#96B4CB"/>
<path d="M17.05 15.885H16.22V15.165C16.44 15.455 16.72 15.705 17.05 15.885Z" fill="#96B4CB"/>
<path d="M17.85 10.7658C17.19 10.9158 16.61 11.2858 16.22 11.7958V10.4658C16.81 10.5158 17.35 10.6158 17.85 10.7658Z" fill="#96B4CB"/>
<path d="M22.5 15.8958L22.51 15.8858H22.5C22.42 14.2559 21.86 12.8558 20.84 11.7358C19.77 10.5659 18.22 9.8858 16.22 9.71582V5.21582C19.74 5.48584 22.46 6.62585 24.28 8.61584C26.05 10.5658 26.99 13.0059 27.09 15.8858L22.5 15.8958Z" fill="#DDA7B3"/>
<path d="M27.25 16.625V26.975H16.22V23.905C17.57 23.815 18.65 23.585 19.5 23.215C20.76 22.665 21.78 21.755 22.53 20.505C23.22 19.375 23.59 18.075 23.64 16.635V16.625H27.25Z" fill="white"/>
<path d="M20.65 16.625V16.635C20.61 17.525 20.39 18.285 19.98 18.965C19.55 19.685 19.01 20.185 18.31 20.475C17.96 20.625 17.32 20.825 16.22 20.915V16.635L20.65 16.625Z" fill="white"/>
<path d="M15.47 22.835V26.975H4.75V16.625H9.28003V22.845H14.61C14.9 22.845 15.19 22.845 15.47 22.835Z" fill="#C15F74"/>
<path d="M15.47 16.625V22.085C15.2 22.095 14.91 22.105 14.61 22.105H10.03V16.625H15.47Z" fill="#5D8CAE"/>
<path d="M15.4699 11.5254H11.1499V15.8954H15.4699V11.5254Z" fill="white"/>
<path d="M15.47 5.02539V8.54541H8.15997V15.8854H4.75V5.02539H15.47Z" fill="#036255"/>
</svg>
