<svg width="32" height="32" viewBox="0 0 32 32" fill="none" xmlns="http://www.w3.org/2000/svg">
<g clip-path="url(#clip0_4674_4835)">
<path fill-rule="evenodd" clip-rule="evenodd" d="M23.4303 10.9297C22.6047 9.48788 21.5349 8.4646 20.1976 7.84828C18.8605 7.23203 16.907 6.92969 14.3371 6.92969H7.34863V7.41805H7.98816C8.63933 7.41805 9.12776 7.61578 9.46495 8.01109C9.69753 8.29015 9.81378 8.99952 9.81378 10.139V21.8485C9.81378 22.8834 9.72081 23.5346 9.53472 23.8369C9.23238 24.3253 8.72074 24.5695 7.98817 24.5695H7.34864V25.0695H15.0232C18.3605 25.0695 20.8373 24.116 22.4651 22.2322C23.9187 20.5346 24.6512 18.4299 24.6512 15.895C24.6512 14.0228 24.2443 12.36 23.4303 10.9297ZM19.8255 21.9183C18.5348 23.3718 16.9069 24.0927 14.9418 24.0927C14.2209 24.0927 13.3138 23.9648 12.2441 23.7206V8.35992C13.2092 8.10414 14.0813 7.97624 14.8371 7.97624C16.872 7.97624 18.5348 8.69718 19.8372 10.139C21.1279 11.5693 21.7791 13.5344 21.7791 16.0345C21.7791 18.5113 21.1279 20.4764 19.8255 21.9183Z" fill="white"/>
</g>
<defs>
<clipPath id="clip0_4674_4835">
<rect width="32" height="32" fill="white"/>
</clipPath>
</defs>
</svg>
