<svg width="32" height="32" viewBox="0 0 32 32" fill="none" xmlns="http://www.w3.org/2000/svg">
<g clip-path="url(#clip0_4674_4849)">
<g filter="url(#filter0_d_4674_4849)">
<path d="M26.4744 22.3543C26.1256 22.5355 25.766 22.695 25.3975 22.8318C24.2307 23.2661 22.9951 23.4863 21.7501 23.482C16.9446 23.482 12.7587 20.1801 12.7587 15.9333C12.7715 14.7754 13.4087 13.7147 14.4249 13.1597C10.0766 13.3425 8.95898 17.8738 8.95898 20.5255C8.95898 28.0437 15.8778 28.7955 17.3713 28.7955C18.1739 28.7955 19.3829 28.5619 20.1144 28.3282L20.2465 28.2876C23.0459 27.3201 25.4324 25.4281 27.0129 22.9232C27.1289 22.731 27.0671 22.4812 26.875 22.3653C26.7527 22.2915 26.6006 22.2873 26.4744 22.3543Z" fill="url(#paint0_linear_4674_4849)"/>
<path opacity="0.35" d="M26.4744 22.3543C26.1256 22.5355 25.766 22.695 25.3975 22.8318C24.2307 23.2661 22.9951 23.4863 21.7501 23.482C16.9446 23.482 12.7587 20.1801 12.7587 15.9333C12.7715 14.7754 13.4087 13.7147 14.4249 13.1597C10.0766 13.3425 8.95898 17.8738 8.95898 20.5255C8.95898 28.0437 15.8778 28.7955 17.3713 28.7955C18.1739 28.7955 19.3829 28.5619 20.1144 28.3282L20.2465 28.2876C23.0459 27.3201 25.4324 25.4281 27.0129 22.9232C27.1289 22.731 27.0671 22.4812 26.875 22.3653C26.7527 22.2915 26.6006 22.2873 26.4744 22.3543Z" fill="url(#paint1_radial_4674_4849)"/>
<path d="M13.7339 27.5154C12.8295 26.9537 12.0457 26.2181 11.4276 25.3513C8.75635 21.6951 9.55485 16.5656 13.2111 13.8943C13.5937 13.6148 13.9997 13.369 14.4247 13.1596C14.7499 13.0072 15.2883 12.7431 16.0097 12.7532C17.0386 12.7612 18.0046 13.2498 18.6207 14.074C19.0295 14.6237 19.2536 15.2889 19.2608 15.9739C19.2608 15.9536 21.7499 7.88672 11.133 7.88672C6.67285 7.88672 3.00518 12.1132 3.00518 15.8316C2.98744 17.7959 3.40738 19.7394 4.23451 21.5211C7.03836 27.4915 13.8679 30.4172 20.1244 28.3282C17.9812 29.005 15.649 28.7079 13.744 27.5154H13.7339Z" fill="url(#paint2_linear_4674_4849)"/>
<path opacity="0.41" d="M13.7339 27.5154C12.8295 26.9537 12.0457 26.2181 11.4276 25.3513C8.75635 21.6951 9.55485 16.5656 13.2111 13.8943C13.5937 13.6148 13.9997 13.369 14.4247 13.1596C14.7499 13.0072 15.2883 12.7431 16.0097 12.7532C17.0386 12.7612 18.0046 13.2498 18.6207 14.074C19.0295 14.6237 19.2536 15.2889 19.2608 15.9739C19.2608 15.9536 21.7499 7.88672 11.133 7.88672C6.67285 7.88672 3.00518 12.1132 3.00518 15.8316C2.98744 17.7959 3.40738 19.7394 4.23451 21.5211C7.03836 27.4915 13.8679 30.4172 20.1244 28.3282C17.9812 29.005 15.649 28.7079 13.744 27.5154H13.7339Z" fill="url(#paint3_radial_4674_4849)"/>
<path d="M18.4786 18.1177C18.3871 18.2193 18.1332 18.3717 18.1332 18.6867C18.1332 18.9508 18.3059 19.215 18.6208 19.4284C20.0737 20.4443 22.827 20.3021 22.8371 20.3021C23.9202 20.3014 24.9833 20.0102 25.9155 19.4588C27.8253 18.3418 29.0005 16.2968 29.0041 14.0843C29.0346 11.8085 28.1913 10.2947 27.8561 9.62417C25.692 5.41803 21.049 3 15.9996 3C8.88825 2.9993 3.09513 8.71095 2.99512 15.8216C3.04592 12.1133 6.73391 9.11618 11.1229 9.11618C11.4785 9.11618 13.5105 9.14666 15.39 10.1322C16.7105 10.7883 17.804 11.8252 18.5294 13.109C19.1491 14.1859 19.2609 15.5575 19.2609 16.1061C19.2609 16.6547 18.9866 17.4574 18.4684 18.1279L18.4786 18.1177Z" fill="url(#paint4_radial_4674_4849)"/>
<path d="M18.4786 18.1177C18.3871 18.2193 18.1332 18.3717 18.1332 18.6867C18.1332 18.9508 18.3059 19.215 18.6208 19.4284C20.0737 20.4443 22.827 20.3021 22.8371 20.3021C23.9202 20.3014 24.9833 20.0102 25.9155 19.4588C27.8253 18.3418 29.0005 16.2968 29.0041 14.0843C29.0346 11.8085 28.1913 10.2947 27.8561 9.62417C25.692 5.41803 21.049 3 15.9996 3C8.88825 2.9993 3.09513 8.71095 2.99512 15.8216C3.04592 12.1133 6.73391 9.11618 11.1229 9.11618C11.4785 9.11618 13.5105 9.14666 15.39 10.1322C16.7105 10.7883 17.804 11.8252 18.5294 13.109C19.1491 14.1859 19.2609 15.5575 19.2609 16.1061C19.2609 16.6547 18.9866 17.4574 18.4684 18.1279L18.4786 18.1177Z" fill="url(#paint5_radial_4674_4849)"/>
</g>
</g>
<defs>
<filter id="filter0_d_4674_4849" x="1.99512" y="2" width="30.0098" height="30" filterUnits="userSpaceOnUse" color-interpolation-filters="sRGB">
<feFlood flood-opacity="0" result="BackgroundImageFix"/>
<feColorMatrix in="SourceAlpha" type="matrix" values="0 0 0 0 0 0 0 0 0 0 0 0 0 0 0 0 0 0 127 0" result="hardAlpha"/>
<feOffset dx="1" dy="1"/>
<feGaussianBlur stdDeviation="1"/>
<feColorMatrix type="matrix" values="0 0 0 0 0 0 0 0 0 0 0 0 0 0 0 0 0 0 1 0"/>
<feBlend mode="normal" in2="BackgroundImageFix" result="effect1_dropShadow_4674_4849"/>
<feBlend mode="normal" in="SourceGraphic" in2="effect1_dropShadow_4674_4849" result="shape"/>
</filter>
<linearGradient id="paint0_linear_4674_4849" x1="8.95899" y1="20.9776" x2="27.0714" y2="20.9776" gradientUnits="userSpaceOnUse">
<stop stop-color="#255A9E"/>
<stop offset="1" stop-color="#214B85"/>
</linearGradient>
<radialGradient id="paint1_radial_4674_4849" cx="0" cy="0" r="1" gradientUnits="userSpaceOnUse" gradientTransform="translate(18.9664 21.1194) scale(9.69242 9.2078)">
<stop offset="0.7" stop-opacity="0"/>
<stop offset="0.9" stop-opacity="0.5"/>
<stop offset="1"/>
</radialGradient>
<linearGradient id="paint2_linear_4674_4849" x1="18.5139" y1="13.1235" x2="7.20609" y2="25.4473" gradientUnits="userSpaceOnUse">
<stop stop-color="#489BDB"/>
<stop offset="0.2" stop-color="#4294D8"/>
<stop offset="0.7" stop-color="#3580D0"/>
<stop offset="1" stop-color="#3079CC"/>
</linearGradient>
<radialGradient id="paint3_radial_4674_4849" cx="0" cy="0" r="1" gradientUnits="userSpaceOnUse" gradientTransform="translate(10.0406 24.0252) rotate(-81.3844) scale(14.5677 11.7692)">
<stop offset="0.8" stop-opacity="0"/>
<stop offset="0.9" stop-opacity="0.5"/>
<stop offset="1"/>
</radialGradient>
<radialGradient id="paint4_radial_4674_4849" cx="0" cy="0" r="1" gradientUnits="userSpaceOnUse" gradientTransform="translate(5.5551 9.60443) rotate(92.2906) scale(20.5798 43.8308)">
<stop stop-color="#61BEEB"/>
<stop offset="0.1" stop-color="#60BEE7"/>
<stop offset="0.2" stop-color="#5FBFDA"/>
<stop offset="0.3" stop-color="#5EC0CE"/>
<stop offset="0.7" stop-color="#66C261"/>
</radialGradient>
<radialGradient id="paint5_radial_4674_4849" cx="0" cy="0" r="1" gradientUnits="userSpaceOnUse" gradientTransform="translate(27.5097 11.2821) rotate(73.7398) scale(9.88545 8.03885)">
<stop stop-color="#8AE67D"/>
<stop offset="1" stop-color="#8AE67D" stop-opacity="0"/>
</radialGradient>
<clipPath id="clip0_4674_4849">
<rect width="32" height="32" fill="white"/>
</clipPath>
</defs>
</svg>
