<svg width="32" height="32" viewBox="0 0 32 32" fill="none" xmlns="http://www.w3.org/2000/svg">
<g clip-path="url(#clip0_4674_4852)">
<path d="M27.9995 16.5519C27.9995 14.6547 27.509 12.8722 26.6488 11.3234C30.3153 3.0254 22.7202 4.24081 22.2973 4.32355C20.6882 4.63842 19.1995 5.14393 17.8263 5.78473C17.6238 5.77333 17.4201 5.76706 17.2148 5.76706C12.09 5.76706 7.80033 9.34151 6.70244 14.1333C9.40352 11.103 11.2938 9.88034 12.4258 9.39105C12.2451 9.55251 12.0682 9.71576 11.8943 9.88023C11.8363 9.93491 11.7806 9.99036 11.7234 10.0454C11.6087 10.1557 11.4942 10.2662 11.3824 10.3777C11.3159 10.444 11.2511 10.5109 11.1856 10.5776C11.0864 10.6786 10.9875 10.7794 10.8906 10.881C10.8219 10.9531 10.7548 11.0254 10.6872 11.0977C10.5968 11.1945 10.5069 11.2914 10.4187 11.3887C10.3501 11.4643 10.2827 11.5399 10.2154 11.6157C10.1318 11.7098 10.0489 11.804 9.96716 11.8983C9.8994 11.9766 9.8322 12.0549 9.76578 12.1333C9.68829 12.2247 9.61181 12.3162 9.53612 12.4077C9.46914 12.4886 9.40239 12.5694 9.33687 12.6503C9.26598 12.7377 9.19666 12.8251 9.12745 12.9123C9.06036 12.9968 8.99327 13.0812 8.92775 13.1656C8.86536 13.246 8.80475 13.3261 8.74371 13.4063C8.67483 13.4968 8.6054 13.5874 8.53831 13.6775C8.49034 13.742 8.44427 13.8059 8.3972 13.8702C7.97108 14.4516 7.58174 15.0219 7.23009 15.5696C7.2292 15.571 7.2283 15.5723 7.22752 15.5737C7.13494 15.7179 7.0456 15.86 6.95805 16.0009C6.95335 16.0085 6.94843 16.0162 6.94374 16.0239C6.85608 16.1654 6.77144 16.3044 6.68892 16.4419C6.68601 16.4467 6.68299 16.4516 6.68009 16.4564C6.45825 16.8266 6.25251 17.1835 6.06724 17.5193C5.09592 19.2796 4.62306 20.5094 4.6026 20.5825C1.53533 31.5482 11.1083 26.9175 12.4442 26.2262C13.8826 26.9368 15.5018 27.3368 17.2148 27.3368C21.9043 27.3368 25.8941 24.3434 27.3792 20.1633H21.7125C20.874 21.5798 19.2598 22.5393 17.4052 22.5393C14.6881 22.5393 12.4854 20.4806 12.4854 17.941H27.9112C27.9697 17.4861 27.9995 17.0225 27.9995 16.5519ZM25.9849 5.93904C26.9136 6.56586 27.6585 7.55027 26.3792 10.8654C25.1523 8.89226 23.3064 7.34443 21.1124 6.49364C22.1104 6.01161 24.5821 4.99209 25.9849 5.93904ZM6.24758 26.2041C5.49116 25.4283 5.35743 23.5389 7.02659 20.096C7.86899 22.518 9.54999 24.5474 11.7227 25.8354C10.6422 26.4301 7.7735 27.7692 6.24758 26.2041ZM12.4612 14.9915C12.5474 12.5232 14.6955 10.5469 17.3349 10.5469C19.9742 10.5469 22.1224 12.5232 22.2086 14.9915H12.4612Z" fill="white"/>
</g>
<defs>
<clipPath id="clip0_4674_4852">
<rect width="32" height="32" fill="white"/>
</clipPath>
</defs>
</svg>
