<svg width="32" height="32" viewBox="0 0 32 32" fill="none" xmlns="http://www.w3.org/2000/svg">
<path d="M27.6752 11.7304C27.1276 10.4128 26.0168 8.99016 25.147 8.54044C25.7673 9.7416 26.1978 11.0316 26.4233 12.3645L26.4256 12.3856C25.0007 8.83473 22.5853 7.40071 20.6115 4.2823C20.5116 4.12459 20.4118 3.96657 20.3146 3.79975C20.259 3.70447 20.2144 3.61863 20.1757 3.53961C20.0939 3.38111 20.0308 3.21359 19.9878 3.04047C19.9879 3.02393 19.9756 3.00994 19.9592 3.00795C19.9514 3.00582 19.9432 3.00582 19.9354 3.00795C19.9338 3.00795 19.9312 3.01088 19.9293 3.01153C19.9273 3.01218 19.9231 3.01511 19.9202 3.01641L19.925 3.00796C16.7595 4.86145 15.6848 8.29202 15.5872 10.0089C14.3226 10.0956 13.1135 10.5615 12.1176 11.3457C12.0138 11.2577 11.9052 11.1755 11.7925 11.0992C11.5053 10.0941 11.4931 9.03034 11.757 8.01887C10.5945 8.582 9.56151 9.38036 8.72348 10.3634H8.71763C8.21816 9.73027 8.25328 7.64265 8.2819 7.20659C8.13414 7.26597 7.99309 7.34087 7.86113 7.42999C7.4202 7.74467 7.00801 8.09777 6.62937 8.48517C6.19789 8.92263 5.80382 9.39546 5.45127 9.89871C4.64111 11.0471 4.06642 12.3442 3.76037 13.7159L3.74346 13.7992C3.71972 13.91 3.6342 14.4654 3.61957 14.5861C3.61957 14.5955 3.61762 14.6043 3.61664 14.6137C3.50632 15.1871 3.43797 15.7678 3.41211 16.3511V16.4161C3.4244 23.377 9.07723 29.0099 16.038 28.9976C22.1596 28.9868 27.3883 24.5789 28.4342 18.5473C28.4553 18.3847 28.4725 18.2238 28.4914 18.0596C28.751 15.9141 28.47 13.7377 27.6739 11.7285L27.6752 11.7304ZM13.1497 21.5961C13.2086 21.6244 13.2639 21.655 13.3243 21.682L13.3331 21.6875C13.272 21.6583 13.2109 21.6278 13.1497 21.5961ZM26.4259 12.3892V12.3772L26.4282 12.3905L26.4259 12.3892Z" fill="url(#paint0_linear_5035_4276)"/>
<path d="M27.6753 11.73C27.1277 10.4124 26.0169 8.98976 25.1471 8.54004C25.7674 9.7412 26.1979 11.0312 26.4234 12.3641V12.3761L26.4257 12.3894C27.3972 15.1693 27.2567 18.2172 26.0335 20.896C24.5891 23.9952 21.0941 27.1718 15.6215 27.0157C9.7098 26.8482 4.50053 22.46 3.52827 16.7142C3.35105 15.808 3.52827 15.3485 3.61737 14.612C3.49584 15.1841 3.42801 15.7663 3.41479 16.351V16.416C3.42708 23.3769 9.07992 29.0098 16.0407 28.9975C22.1623 28.9867 27.3909 24.5788 28.4369 18.5472C28.458 18.3846 28.4752 18.2237 28.4941 18.0595C28.7537 15.914 28.4727 13.7376 27.6766 11.7284L27.6753 11.73Z" fill="url(#paint1_radial_5035_4276)"/>
<path d="M27.6753 11.73C27.1277 10.4124 26.0169 8.98976 25.1471 8.54004C25.7674 9.7412 26.1979 11.0312 26.4234 12.3641V12.3761L26.4257 12.3894C27.3972 15.1693 27.2567 18.2172 26.0335 20.896C24.5891 23.9952 21.0941 27.1718 15.6215 27.0157C9.7098 26.8482 4.50053 22.46 3.52827 16.7142C3.35105 15.808 3.52827 15.3485 3.61737 14.612C3.49584 15.1841 3.42801 15.7663 3.41479 16.351V16.416C3.42708 23.3769 9.07992 29.0098 16.0407 28.9975C22.1623 28.9867 27.3909 24.5788 28.4369 18.5472C28.458 18.3846 28.4752 18.2237 28.4941 18.0595C28.7537 15.914 28.4727 13.7376 27.6766 11.7284L27.6753 11.73Z" fill="url(#paint2_radial_5035_4276)"/>
<path d="M21.549 13.2098C21.5763 13.229 21.6017 13.2481 21.6274 13.2673C21.3108 12.706 20.9168 12.192 20.4568 11.7406C16.5385 7.82232 19.4302 3.24713 19.9176 3.01301L19.9225 3.00586C16.757 4.85935 15.6823 8.28992 15.5847 10.0068C15.7317 9.99675 15.8774 9.98439 16.0276 9.98439C18.3139 9.98881 20.4219 11.2206 21.549 13.2098Z" fill="url(#paint3_radial_5035_4276)"/>
<path d="M16.0341 13.9936C16.0133 14.3071 14.9058 15.3883 14.5185 15.3883C10.9351 15.3883 10.353 17.5562 10.353 17.5562C10.5117 19.3817 11.7838 20.886 13.3215 21.6794C13.3918 21.7158 13.463 21.7486 13.5342 21.7808C13.6575 21.8355 13.7809 21.886 13.9042 21.9324C14.432 22.1191 14.9847 22.2258 15.5441 22.2488C21.8264 22.5434 23.0426 14.7373 18.5093 12.4708C19.5787 12.3317 20.6616 12.5946 21.5481 13.2086C20.4209 11.2195 18.3129 9.98831 16.0266 9.98389C15.8771 9.98389 15.7307 9.99625 15.5837 10.0063C14.3191 10.093 13.11 10.5589 12.1141 11.3431C12.3063 11.5057 12.5232 11.7229 12.9801 12.1733C13.8353 13.0158 16.0286 13.8886 16.0335 13.991L16.0341 13.9936Z" fill="url(#paint4_radial_5035_4276)"/>
<path d="M16.0341 13.9936C16.0133 14.3071 14.9058 15.3883 14.5185 15.3883C10.9351 15.3883 10.353 17.5562 10.353 17.5562C10.5117 19.3817 11.7838 20.886 13.3215 21.6794C13.3918 21.7158 13.463 21.7486 13.5342 21.7808C13.6575 21.8355 13.7809 21.886 13.9042 21.9324C14.432 22.1191 14.9847 22.2258 15.5441 22.2488C21.8264 22.5434 23.0426 14.7373 18.5093 12.4708C19.5787 12.3317 20.6616 12.5946 21.5481 13.2086C20.4209 11.2195 18.3129 9.98831 16.0266 9.98389C15.8771 9.98389 15.7307 9.99625 15.5837 10.0063C14.3191 10.093 13.11 10.5589 12.1141 11.3431C12.3063 11.5057 12.5232 11.7229 12.9801 12.1733C13.8353 13.0158 16.0286 13.8886 16.0335 13.991L16.0341 13.9936Z" fill="url(#paint5_radial_5035_4276)"/>
<path d="M11.5271 10.9272C11.6292 10.9923 11.7134 11.0488 11.7872 11.0999C11.5001 10.0948 11.4879 9.031 11.7518 8.01953C10.5893 8.58266 9.55629 9.38101 8.71826 10.364C8.77972 10.3624 10.6078 10.3296 11.5271 10.9272Z" fill="url(#paint6_radial_5035_4276)"/>
<path d="M3.52604 16.7153C4.49863 22.4611 9.70758 26.8509 15.6192 27.0167C21.0919 27.1715 24.5875 23.9946 26.0313 20.897C27.2545 18.2182 27.395 15.1704 26.4234 12.3905V12.3784C26.4234 12.369 26.4215 12.3635 26.4234 12.3664L26.4257 12.3875C26.8728 15.3066 25.3881 18.1333 23.0667 20.0486L23.0595 20.0649C18.5364 23.7491 14.2083 22.2871 13.3336 21.6907C13.2725 21.6615 13.2113 21.631 13.1502 21.5994C10.5134 20.339 9.42371 17.9379 9.65783 15.8763C8.37907 15.8952 7.20912 15.1593 6.67242 13.9984C8.07996 13.1362 9.83401 13.0658 11.3061 13.8124C12.7985 14.4898 14.4965 14.5566 16.0374 13.9984C16.0325 13.896 13.8392 13.0229 12.984 12.1807C12.5272 11.7304 12.3103 11.5135 12.1181 11.3506C12.0142 11.2626 11.9057 11.1803 11.7929 11.1041C11.7181 11.053 11.6339 10.9977 11.5328 10.9314C10.6135 10.3337 8.7854 10.3666 8.72492 10.3682H8.71907C8.2196 9.7351 8.25472 7.64749 8.28334 7.21143C8.13558 7.27081 7.99453 7.3457 7.86257 7.43482C7.42164 7.7495 7.00945 8.10261 6.63081 8.49001C6.19779 8.92624 5.80208 9.39798 5.44783 9.90029C4.63767 11.0487 4.06298 12.3458 3.75693 13.7175C3.75075 13.7432 3.30299 15.7007 3.52378 16.7159L3.52604 16.7153Z" fill="url(#paint7_radial_5035_4276)"/>
<path d="M20.4563 11.74C20.9164 12.1919 21.3105 12.7064 21.6269 13.2683C21.6962 13.3206 21.7609 13.3727 21.8158 13.4231C24.6731 16.057 23.176 19.7802 23.0645 20.0436C25.3856 18.1313 26.869 15.3026 26.4235 12.3825C24.998 8.82838 22.58 7.39437 20.6094 4.27596C20.5096 4.11825 20.4098 3.96022 20.3126 3.7934C20.257 3.69812 20.2124 3.61228 20.1737 3.53326C20.0919 3.37476 20.0288 3.20724 19.9858 3.03412C19.9859 3.01758 19.9736 3.00359 19.9571 3.0016C19.9494 2.99947 19.9412 2.99947 19.9334 3.0016C19.9318 3.0016 19.9292 3.00453 19.9272 3.00518C19.9253 3.00583 19.921 3.00876 19.9181 3.01006C19.4307 3.24126 16.5396 7.81937 20.4579 11.7344L20.4563 11.74Z" fill="url(#paint8_radial_5035_4276)"/>
<path d="M21.8156 13.4245C21.7607 13.3741 21.696 13.3221 21.6267 13.2697C21.601 13.2506 21.5756 13.2314 21.5483 13.2122C20.6618 12.5982 19.5789 12.3352 18.5096 12.4744C23.0425 14.7408 21.8263 22.545 15.5443 22.2523C14.985 22.2293 14.4322 22.1227 13.9045 21.9359C13.7811 21.8897 13.6578 21.8392 13.5344 21.7844C13.4632 21.7519 13.392 21.7194 13.3218 21.683L13.3306 21.6885C14.2066 22.2865 18.5333 23.7475 23.0565 20.0626L23.0636 20.0464C23.1765 19.783 24.6736 16.0597 21.815 13.4258L21.8156 13.4245Z" fill="url(#paint9_radial_5035_4276)"/>
<path d="M10.3533 17.5543C10.3533 17.5543 10.9351 15.3863 14.5188 15.3863C14.9061 15.3863 16.0146 14.3051 16.0344 13.9917C14.4935 14.5498 12.7955 14.483 11.3032 13.8057C9.83103 13.059 8.07698 13.1294 6.66943 13.9917C7.20614 15.1525 8.37609 15.8884 9.65484 15.8695C9.42137 17.9302 10.5107 20.3309 13.1472 21.5926C13.2061 21.6209 13.2613 21.6514 13.3218 21.6784C11.7828 20.8834 10.512 19.3788 10.3533 17.5543Z" fill="url(#paint10_radial_5035_4276)"/>
<path d="M27.6753 11.7304C27.1277 10.4128 26.0169 8.99016 25.1471 8.54044C25.7673 9.7416 26.1979 11.0316 26.4234 12.3645L26.4256 12.3856C25.0007 8.83473 22.5853 7.40071 20.6115 4.2823C20.5117 4.12459 20.4119 3.96657 20.3147 3.79975C20.2591 3.70447 20.2145 3.61863 20.1758 3.53961C20.094 3.38111 20.0309 3.21359 19.9879 3.04047C19.988 3.02393 19.9757 3.00994 19.9592 3.00795C19.9515 3.00582 19.9433 3.00582 19.9355 3.00795C19.9339 3.00795 19.9313 3.01088 19.9293 3.01153C19.9274 3.01218 19.9231 3.01511 19.9202 3.01641L19.9251 3.00796C16.7595 4.86145 15.6848 8.29202 15.5873 10.0089C15.7343 9.99885 15.88 9.98649 16.0302 9.98649C18.3165 9.9909 20.4245 11.2221 21.5516 13.2112C20.6651 12.5972 19.5822 12.3343 18.5129 12.4734C23.0458 14.7399 21.8296 22.544 15.5476 22.2514C14.9883 22.2284 14.4355 22.1217 13.9078 21.935C13.7844 21.8888 13.6611 21.8383 13.5377 21.7834C13.4665 21.7509 13.3953 21.7184 13.3251 21.682L13.3339 21.6875C13.2727 21.6583 13.2116 21.6278 13.1505 21.5961C13.2093 21.6244 13.2646 21.655 13.3251 21.682C11.786 20.8866 10.5153 19.383 10.3566 17.5588C10.3566 17.5588 10.9383 15.3909 14.522 15.3909C14.9093 15.3909 16.0178 14.3097 16.0377 13.9962C16.0328 13.8938 13.8395 13.0207 12.9843 12.1785C12.5274 11.7281 12.3105 11.5112 12.1184 11.3483C12.0145 11.2603 11.906 11.1781 11.7932 11.1018C11.5061 10.0967 11.4938 9.03295 11.7578 8.02148C10.5952 8.58461 9.56224 9.38296 8.72421 10.366H8.71836C8.21889 9.73286 8.25401 7.64526 8.28263 7.2092C8.13487 7.26858 7.99382 7.34346 7.86186 7.43258C7.42093 7.74726 7.00874 8.10038 6.6301 8.48778C6.19862 8.92524 5.80455 9.39806 5.452 9.9013C4.64184 11.0497 4.06715 12.3468 3.7611 13.7185L3.74419 13.8018C3.72045 13.9126 3.61412 14.4758 3.59884 14.5968C3.50158 15.1782 3.43947 15.7649 3.41284 16.3537V16.4187C3.42514 23.3796 9.07797 29.0125 16.0388 29.0002C22.1604 28.9894 27.389 24.5815 28.4349 18.5499C28.456 18.3873 28.4733 18.2264 28.4921 18.0622C28.7517 15.9166 28.4713 13.7396 27.6753 11.7304Z" fill="url(#paint11_linear_5035_4276)"/>
<defs>
<linearGradient id="paint0_linear_5035_4276" x1="26.003" y1="7.02828" x2="5.08048" y2="27.2149" gradientUnits="userSpaceOnUse">
<stop offset="0.048" stop-color="#FFF16C"/>
<stop offset="0.111" stop-color="#FDE664"/>
<stop offset="0.225" stop-color="#FAC751"/>
<stop offset="0.368" stop-color="#F69B38"/>
<stop offset="0.401" stop-color="#F58F38"/>
<stop offset="0.462" stop-color="#F3713C"/>
<stop offset="0.534" stop-color="#F14C4D"/>
<stop offset="0.705" stop-color="#D63984"/>
</linearGradient>
<radialGradient id="paint1_radial_5035_4276" cx="0" cy="0" r="1" gradientUnits="userSpaceOnUse" gradientTransform="translate(25.2318 5.96775) scale(26.2739 26.2739)">
<stop offset="0.129" stop-color="#F8BD62"/>
<stop offset="0.186" stop-color="#F7AD4B"/>
<stop offset="0.247" stop-color="#F6A03C"/>
<stop offset="0.283" stop-color="#F69B38"/>
<stop offset="0.403" stop-color="#F26346"/>
<stop offset="0.467" stop-color="#F14D55"/>
<stop offset="0.71" stop-color="#E73B6C"/>
<stop offset="0.782" stop-color="#DD3677"/>
<stop offset="0.86" stop-color="#D8347E"/>
</radialGradient>
<radialGradient id="paint2_radial_5035_4276" cx="0" cy="0" r="1" gradientUnits="userSpaceOnUse" gradientTransform="translate(15.4766 16.6984) scale(26.2739 26.2739)">
<stop offset="0.3" stop-color="#8D221E"/>
<stop offset="0.351" stop-color="#A72D2C" stop-opacity="0.74"/>
<stop offset="0.435" stop-color="#CF3E42" stop-opacity="0.343"/>
<stop offset="0.497" stop-color="#E84950" stop-opacity="0.094"/>
<stop offset="0.53" stop-color="#F14D55" stop-opacity="0"/>
</radialGradient>
<radialGradient id="paint3_radial_5035_4276" cx="0" cy="0" r="1" gradientUnits="userSpaceOnUse" gradientTransform="translate(18.7283 0.114923) scale(19.0323 19.0323)">
<stop offset="0.132" stop-color="#FFF16C"/>
<stop offset="0.252" stop-color="#FCDA5C"/>
<stop offset="0.506" stop-color="#F6A03B"/>
<stop offset="0.526" stop-color="#F69B38"/>
</radialGradient>
<radialGradient id="paint4_radial_5035_4276" cx="0" cy="0" r="1" gradientUnits="userSpaceOnUse" gradientTransform="translate(12.5501 23.5274) scale(12.5094)">
<stop offset="0.353" stop-color="#458EDF"/>
<stop offset="0.472" stop-color="#5B7DE8"/>
<stop offset="0.669" stop-color="#8664F6"/>
<stop offset="1" stop-color="#B44EDE"/>
</radialGradient>
<radialGradient id="paint5_radial_5035_4276" cx="0" cy="0" r="1" gradientUnits="userSpaceOnUse" gradientTransform="translate(15.6821 14.6893) rotate(-13.5916) scale(6.63357 7.76622)">
<stop offset="0.206" stop-color="#8664F6" stop-opacity="0"/>
<stop offset="0.278" stop-color="#825BEA" stop-opacity="0.064"/>
<stop offset="0.747" stop-color="#6F2AA1" stop-opacity="0.45"/>
<stop offset="0.975" stop-color="#661C85" stop-opacity="0.6"/>
</radialGradient>
<radialGradient id="paint6_radial_5035_4276" cx="0" cy="0" r="1" gradientUnits="userSpaceOnUse" gradientTransform="translate(15.1513 4.99265) scale(9.00075 9.00075)">
<stop stop-color="#FCE052"/>
<stop offset="0.121" stop-color="#FCD951"/>
<stop offset="0.295" stop-color="#FAC74E"/>
<stop offset="0.502" stop-color="#F7AB4A"/>
<stop offset="0.732" stop-color="#F48447"/>
<stop offset="0.792" stop-color="#F37A47"/>
</radialGradient>
<radialGradient id="paint7_radial_5035_4276" cx="0" cy="0" r="1" gradientUnits="userSpaceOnUse" gradientTransform="translate(22.3053 -0.860478) scale(38.4028)">
<stop offset="0.113" stop-color="#FFF16C"/>
<stop offset="0.456" stop-color="#F69B38"/>
<stop offset="0.622" stop-color="#F26341"/>
<stop offset="0.716" stop-color="#F14C4D"/>
<stop offset="0.904" stop-color="#D63984"/>
</radialGradient>
<radialGradient id="paint8_radial_5035_4276" cx="0" cy="0" r="1" gradientUnits="userSpaceOnUse" gradientTransform="translate(19.2023 2.0217) rotate(83.976) scale(28.1422 18.4696)">
<stop stop-color="#FFF16C"/>
<stop offset="0.06" stop-color="#FDE664"/>
<stop offset="0.168" stop-color="#FAC751"/>
<stop offset="0.304" stop-color="#F69B38"/>
<stop offset="0.356" stop-color="#F58F38"/>
<stop offset="0.455" stop-color="#F3713C"/>
<stop offset="0.57" stop-color="#F14C4D"/>
<stop offset="0.737" stop-color="#D63984"/>
</radialGradient>
<radialGradient id="paint9_radial_5035_4276" cx="0" cy="0" r="1" gradientUnits="userSpaceOnUse" gradientTransform="translate(15.1514 8.24434) scale(23.9716 23.9716)">
<stop offset="0.137" stop-color="#FFF16C"/>
<stop offset="0.48" stop-color="#F69B38"/>
<stop offset="0.592" stop-color="#F26341"/>
<stop offset="0.655" stop-color="#F14C4D"/>
<stop offset="0.904" stop-color="#D63984"/>
</radialGradient>
<radialGradient id="paint10_radial_5035_4276" cx="0" cy="0" r="1" gradientUnits="userSpaceOnUse" gradientTransform="translate(21.3297 9.54507) scale(26.2381)">
<stop offset="0.094" stop-color="#FFF16C"/>
<stop offset="0.231" stop-color="#FCDF5F"/>
<stop offset="0.509" stop-color="#F7B043"/>
<stop offset="0.626" stop-color="#F69B38"/>
</radialGradient>
<linearGradient id="paint11_linear_5035_4276" x1="25.7512" y1="6.9229" x2="7.95132" y2="24.7261" gradientUnits="userSpaceOnUse">
<stop offset="0.167" stop-color="#FFF16C" stop-opacity="0.8"/>
<stop offset="0.266" stop-color="#FFF16C" stop-opacity="0.634"/>
<stop offset="0.489" stop-color="#FFF16C" stop-opacity="0.217"/>
<stop offset="0.6" stop-color="#FFF16C" stop-opacity="0"/>
</linearGradient>
</defs>
</svg>
