<svg width="32" height="32" viewBox="0 0 32 32" fill="none" xmlns="http://www.w3.org/2000/svg">
<path d="M24.9555 6.39105L24.8855 6.46106L24.8155 6.53107C23.6755 7.67108 22.5355 8.81104 21.3955 9.96106L21.3555 10.001L21.2155 10.131L21.0855 10.001L20.9955 9.92108C19.8055 8.86108 18.3955 8.32104 16.8055 8.20105C13.4255 7.95105 10.3955 10.0311 9.16552 13.0511C9.10552 13.2111 9.04552 13.3711 8.98553 13.5311C8.96551 13.5111 8.94549 13.501 8.93548 13.4811C7.97552 12.7411 7.0155 11.9911 6.05554 11.251C5.58551 10.891 5.12549 10.5211 4.66553 10.1611C5.05554 9.34106 5.54553 8.59106 6.11554 7.89105C7.60553 6.03106 9.46552 4.68109 11.6855 3.84106C12.8055 3.42108 13.9555 3.16107 15.1455 3.06103C17.4955 2.87109 19.7455 3.24108 21.8855 4.27105C22.9355 4.79107 23.8955 5.45104 24.7755 6.23107L24.8355 6.28106L24.9555 6.39105Z" fill="#EA4335"/>
<path d="M24.8405 25.8409C24.0837 26.5631 23.2262 27.1419 22.2964 27.6152C20.7844 28.3851 19.1744 28.7971 17.4873 28.9361C15.5309 29.0974 13.6227 28.8824 11.7827 28.19C8.59149 26.9893 6.21788 24.8622 4.65527 21.8312C4.70601 21.7909 4.75624 21.75 4.80743 21.7102C6.19913 20.6305 7.59092 19.5508 8.98269 18.4712C9.25072 19.2049 9.58225 19.9066 10.0425 20.5414C11.3298 22.3169 13.039 23.4387 15.2201 23.74C17.1235 24.003 18.9364 23.6796 20.5843 22.6404L20.6734 22.5834C21.4447 23.1862 22.2159 23.789 22.9871 24.3918C23.6049 24.8748 24.2227 25.3579 24.8405 25.8409Z" fill="#34A853"/>
<path d="M28.7154 16.8509C28.6154 19.3909 27.9754 21.7709 26.5354 23.9009C26.0454 24.6109 25.4854 25.2709 24.8354 25.8409C24.2254 25.3609 23.6054 24.8709 22.9854 24.3909C22.2154 23.7909 21.4454 23.1909 20.6754 22.5809C21.0354 22.3009 21.4054 22.0209 21.7154 21.6809C22.4754 20.8709 22.9754 19.9209 23.2154 18.8409L23.2254 18.8109V18.7609C23.2254 18.7409 23.2354 18.7009 23.2354 18.6609H16.2554V18.3709C16.2654 16.8609 16.2554 15.3709 16.2554 13.8609V13.6309H28.4854L28.5021 13.7033L28.5294 13.8262C28.6893 14.8361 28.7554 15.8309 28.7154 16.8509Z" fill="#4285F4"/>
<path d="M8.91557 18.2211C8.93553 18.3012 8.95555 18.3911 8.98558 18.4711C7.59557 19.5512 6.19554 20.6311 4.80559 21.7111C4.75554 21.7511 4.70555 21.7911 4.65557 21.8311C4.00555 20.5512 3.58556 19.1911 3.39556 17.7711C3.04558 15.1411 3.44555 12.6511 4.60558 10.2711C4.61559 10.2311 4.64556 10.2011 4.66558 10.1611C5.12554 10.5211 5.58556 10.8911 6.05559 11.2511C7.01555 11.9912 7.97557 12.7412 8.93553 13.4811C8.94554 13.5011 8.96556 13.5111 8.98558 13.5311C8.82555 14.0711 8.69554 14.6112 8.63554 15.1611C8.51554 16.2011 8.61558 17.2211 8.91557 18.2211Z" fill="#FBBC05"/>
</svg>
