<svg width="32" height="32" viewBox="0 0 32 32" fill="none" xmlns="http://www.w3.org/2000/svg">
<path d="M17.542 28.9998C16.8651 28.9966 16.2171 28.7255 15.7396 28.2458C15.2621 27.766 14.994 27.1167 14.994 26.4398V16.0538C14.994 15.9225 15.0199 15.7924 15.0701 15.6711C15.1204 15.5498 15.194 15.4396 15.2869 15.3467C15.3798 15.2538 15.49 15.1802 15.6113 15.1299C15.7327 15.0797 15.8627 15.0538 15.994 15.0538C16.1253 15.0538 16.2554 15.0797 16.3767 15.1299C16.498 15.1802 16.6083 15.2538 16.7011 15.3467C16.794 15.4396 16.8676 15.5498 16.9179 15.6711C16.9681 15.7924 16.994 15.9225 16.994 16.0538V26.4398C16.9938 26.5188 17.0106 26.5968 17.0432 26.6687C17.0758 26.7406 17.1236 26.8046 17.1831 26.8564C17.2427 26.9082 17.3128 26.9466 17.3885 26.9689C17.4642 26.9912 17.5439 26.997 17.622 26.9858C22.968 26.1858 27 21.4858 27 16.0538C27.0027 14.4053 26.6357 12.7773 25.9262 11.2893C25.2167 9.80136 24.1826 8.4914 22.9 7.45581C21.6077 6.41265 20.0969 5.67422 18.4798 5.29541C16.8628 4.91661 15.1812 4.90717 13.56 5.26781C9.54601 6.13381 6.22801 9.40181 5.30001 13.3998C4.12601 18.4618 6.49001 23.6138 11.052 25.9278C11.2892 26.0478 11.4692 26.257 11.5524 26.5095C11.6356 26.762 11.6152 27.0372 11.4958 27.2747C11.3764 27.5122 11.1677 27.6927 10.9154 27.7765C10.6631 27.8603 10.3878 27.8407 10.15 27.7218C4.76001 24.9838 1.96601 18.9078 3.35201 12.9398C3.90747 10.5739 5.12095 8.41343 6.85225 6.70796C8.58355 5.0025 10.762 3.82164 13.136 3.30181C17.07 2.45381 21.084 3.39781 24.156 5.89181C25.6713 7.11575 26.893 8.66374 27.7313 10.422C28.5695 12.1802 29.0031 14.104 29 16.0518C29 22.4718 24.234 28.0258 17.916 28.9678C17.792 28.9878 17.668 28.9978 17.542 28.9978V28.9998ZM15.996 8.96581C14.89 8.96581 13.996 9.86581 13.996 10.9758C13.996 12.0858 14.89 12.9838 15.996 12.9838C17.102 12.9838 17.996 12.0838 17.996 10.9758C17.996 9.86781 17.1 8.96581 15.996 8.96581Z" fill="#0D2B49"/>
</svg>
