<svg width="32" height="32" viewBox="0 0 32 32" fill="none" xmlns="http://www.w3.org/2000/svg">
<g clip-path="url(#clip0_4674_4871)">
<path d="M13.3551 12.2168C13.4496 12.1742 13.5349 12.1357 13.6299 12.0929C13.6364 12.13 13.644 12.1472 13.6414 12.1626C13.6077 12.364 13.5597 12.5595 13.4113 12.7135C13.3417 12.7856 13.2943 12.8682 13.2696 12.9683C13.2042 13.2331 13.0508 13.4375 12.8231 13.5878C12.7995 13.6034 12.7865 13.6349 12.7685 13.6589C12.7976 13.6778 12.8259 13.7117 12.8559 13.7133C13.4033 13.7439 13.9028 13.9299 14.3838 14.1772C14.4781 14.2257 14.4826 14.2409 14.4365 14.3362C14.4113 14.3883 14.3859 14.4402 14.3544 14.5048C13.8934 14.2212 13.3774 14.1231 12.8484 14.0216C12.8484 14.1231 12.8459 14.2182 12.8506 14.313C12.8515 14.3307 12.878 14.3547 12.8979 14.3628C13.3213 14.5332 13.7255 14.7429 14.126 14.96C14.2384 15.021 14.2682 15.1659 14.1907 15.2708C14.1563 15.3173 14.1229 15.3036 14.08 15.2786C13.8853 15.1655 13.694 15.0444 13.491 14.9484C13.2304 14.8253 12.9602 14.7225 12.6926 14.6145C12.6732 14.6067 12.6357 14.6211 12.6172 14.6373C12.5527 14.6938 12.4954 14.7588 12.4303 14.8146C12.367 14.8689 12.2973 14.8781 12.2219 14.8285C12.1057 14.7519 11.9867 14.6794 11.8685 14.6059C11.699 14.5006 11.5039 14.4721 11.3151 14.4268C11.244 14.4097 11.2147 14.3792 11.2082 14.3055C11.2018 14.2336 11.1732 14.1638 11.157 14.0925C11.1325 13.9851 11.1439 13.9618 11.2366 13.909C11.372 13.8318 11.4617 13.7243 11.4736 13.5614C11.4785 13.493 11.5053 13.48 11.5712 13.5034C11.5926 13.511 11.6134 13.5269 11.6347 13.5273C11.6795 13.5282 11.7374 13.5374 11.7665 13.514C11.817 13.4734 11.8584 13.42 11.8429 13.3372C11.8237 13.2341 11.7756 13.1811 11.675 13.14C11.4466 13.0469 11.2162 12.9822 10.968 12.9953C10.7496 13.0069 10.5449 13.0694 10.3531 13.1715C10.2433 13.2299 10.2334 13.4677 10.3401 13.5281C10.3769 13.549 10.4385 13.5403 10.484 13.5278C10.5385 13.5129 10.5878 13.4793 10.6516 13.4478C10.6556 13.4807 10.6634 13.5044 10.6604 13.5267C10.6384 13.6865 10.719 13.8042 10.8309 13.8956C10.9212 13.9693 10.934 14.047 10.9067 14.1493C10.886 14.2266 10.8806 14.3083 10.8568 14.3845C10.8468 14.4167 10.8119 14.4538 10.7802 14.4645C10.4669 14.5703 10.1501 14.6661 9.83784 14.7748C9.65684 14.8378 9.60376 14.8398 9.48276 14.7006C9.40415 14.6102 9.31321 14.6015 9.2158 14.6385C9.02896 14.7093 8.84214 14.782 8.66166 14.8674C8.35054 15.0146 8.04356 15.1705 7.73668 15.3264C7.68355 15.3534 7.65153 15.344 7.63885 15.2926C7.6184 15.2098 7.60363 15.1251 7.59458 15.0403C7.59286 15.0243 7.62572 14.9978 7.64791 14.9869C8.12501 14.7528 8.60169 14.5177 9.08178 14.2898C9.15717 14.2541 9.16987 14.2107 9.15732 14.1421C9.13802 14.0365 9.11464 14.0113 9.02691 14.0104C8.65102 14.0066 8.29683 14.1102 7.94867 14.2364C7.79431 14.2924 7.64576 14.3645 7.49487 14.4299C7.41186 14.4659 7.40449 14.4627 7.38425 14.3736C7.33245 14.1455 7.33713 14.1338 7.54531 14.0324C7.88093 13.869 8.22408 13.7279 8.60018 13.6883C8.76845 13.6706 8.93675 13.6531 9.10941 13.6351C9.11681 13.5555 9.0991 13.4869 9.05082 13.4283C8.89785 13.2427 8.74427 13.0576 8.58964 12.8733C8.45893 12.7176 8.39792 12.5307 8.35028 12.3387C8.33501 12.2771 8.38848 12.2393 8.45729 12.261C8.51693 12.2798 8.57433 12.3058 8.64691 12.3341C8.63152 12.268 8.61518 12.2159 8.60772 12.1625C8.57704 11.943 8.53813 11.7239 8.52443 11.5032C8.51692 11.3823 8.54889 11.2577 8.57245 11.1365C8.5838 11.0782 8.5696 11.0432 8.52101 11.0178C8.46945 10.9908 8.41873 10.9612 8.36472 10.9402C8.04249 10.8149 7.80965 10.4119 7.85252 10.0696C7.87932 9.85555 7.95223 9.65646 8.07133 9.48545C8.2009 9.2994 8.39596 9.1657 8.62412 9.14584C8.88738 9.12293 9.1495 9.16716 9.37949 9.32033C9.44902 9.36663 9.52148 9.40851 9.59158 9.45398C9.74444 9.55314 9.84589 9.69372 9.89974 9.86494C9.92347 9.94038 9.96043 9.96331 10.0356 9.95745C10.3219 9.93513 10.5972 9.9904 10.8543 10.1117C10.9598 10.1616 11.0292 10.1531 11.1255 10.0926C11.3483 9.95254 11.6035 9.90542 11.8624 9.88061C11.9278 9.87434 11.9934 9.86884 12.059 9.86619C12.1076 9.86423 12.1071 9.8328 12.1082 9.79804C12.1125 9.66385 12.1502 9.53877 12.2176 9.42326C12.3256 9.23792 12.4881 9.13427 12.7004 9.10663C12.768 9.09784 12.835 9.08533 12.9025 9.07548C13.2051 9.03126 13.4577 9.11846 13.6461 9.36513C13.7182 9.45956 13.7866 9.55713 13.8514 9.65671C13.9642 9.82991 13.9911 10.022 13.9688 10.2245C13.9492 10.4026 13.9355 10.5813 13.9151 10.7592C13.9104 10.8005 13.8997 10.8494 13.8736 10.8785C13.802 10.9584 13.7286 11.0413 13.6406 11.1003C13.5788 11.1418 13.5578 11.1843 13.5507 11.251C13.5412 11.3411 13.5268 11.431 13.5081 11.5197C13.4597 11.7489 13.4079 11.9774 13.3551 12.2168ZM12.8062 13.1588C12.6453 13.0543 12.4877 12.944 12.3217 12.8481C12.2613 12.8132 12.2252 12.7725 12.1999 12.7128C12.156 12.6092 12.0937 12.5251 11.9791 12.487C11.9552 12.4791 11.9314 12.4371 11.9276 12.4082C11.9136 12.3007 11.9072 12.192 11.8993 12.0837C11.8928 11.9945 11.888 11.9052 11.882 11.809C11.9447 11.8441 11.9935 11.8819 12.0488 11.9002C12.166 11.9391 12.2873 11.9391 12.4074 11.9085C12.5217 11.8794 12.6317 11.8466 12.6746 11.7142C12.6834 11.6871 12.7267 11.671 12.7543 11.6501C12.8466 11.5799 12.9389 11.5099 13.0313 11.4398C13.027 11.4325 13.0227 11.4253 13.0184 11.418C12.9868 11.4119 12.9554 11.4016 12.9237 11.4006C12.5645 11.3892 12.2054 11.3748 11.8462 11.3713C11.7176 11.3701 11.631 11.4616 11.5586 11.5592C11.548 11.5735 11.5516 11.6027 11.5563 11.6233C11.6322 11.9596 11.6475 12.3032 11.6829 12.6444C11.6859 12.6735 11.7104 12.7139 11.7356 12.725C11.8848 12.791 11.9785 12.9004 12.0201 13.057C12.0253 13.0763 12.0332 13.0969 12.046 13.1116C12.0777 13.1484 12.1073 13.1924 12.148 13.2151C12.2671 13.2817 12.3912 13.3393 12.5134 13.4003C12.6266 13.4569 12.6311 13.458 12.7009 13.3526C12.7392 13.2947 12.7678 13.2304 12.8062 13.1588ZM10.0115 11.9366C10.0169 11.9497 10.0221 11.9565 10.0221 11.9634C10.022 12.1447 10.0274 12.3264 10.0184 12.5073C10.013 12.6151 9.95783 12.6979 9.84167 12.7275C9.80073 12.738 9.76232 12.761 9.7249 12.782C9.55606 12.8771 9.44514 13.0178 9.42308 13.2118C9.41643 13.2704 9.43774 13.346 9.47401 13.3918C9.51549 13.4442 9.5812 13.403 9.63431 13.3793C9.67361 13.3618 9.71191 13.3404 9.75295 13.3288C9.85171 13.3008 9.90964 13.2329 9.92928 13.1385C9.95048 13.0367 10.0168 12.9765 10.0948 12.9221C10.1363 12.8931 10.1824 12.8694 10.219 12.8353C10.2424 12.8135 10.2627 12.7784 10.2664 12.7472C10.3114 12.3738 10.3554 12.0003 10.3926 11.6262C10.3976 11.5753 10.3766 11.5104 10.3448 11.47C10.2906 11.4014 10.212 11.3644 10.1181 11.3681C10.027 11.3717 9.93563 11.3674 9.84445 11.3692C9.6395 11.3732 9.43451 11.3772 9.22968 11.3849C9.17199 11.387 9.11477 11.4018 9.04325 11.413C9.08008 11.4644 9.10252 11.5011 9.13017 11.5333C9.20436 11.6198 9.27943 11.7056 9.35664 11.7893C9.47063 11.913 9.6086 11.9814 9.78125 11.9628C9.85642 11.9547 9.93147 11.9457 10.0115 11.9366ZM8.32058 10.0746C8.31064 10.1852 8.34412 10.2894 8.41824 10.3729C8.51184 10.4785 8.61806 10.5727 8.71557 10.6749C8.765 10.7267 8.80585 10.7174 8.84958 10.6718C8.91246 10.6062 8.97026 10.5345 9.03967 10.4767C9.17904 10.3607 9.3264 10.2543 9.46632 10.139C9.48892 10.1204 9.50538 10.0726 9.49903 10.044C9.44438 9.79759 9.25418 9.62558 9.00376 9.58904C8.96907 9.58398 8.93173 9.57299 8.89933 9.58057C8.75377 9.61463 8.6105 9.6577 8.49007 9.75168C8.38674 9.83232 8.30763 9.92772 8.32058 10.0746ZM13.6351 10.0574C13.6195 9.97819 13.6109 9.88641 13.5827 9.80112C13.5113 9.58544 13.2398 9.5122 13.0308 9.52041C12.7999 9.52947 12.5317 9.79736 12.4883 10.0272C12.4855 10.0421 12.4858 10.0575 12.4843 10.0726C12.4797 10.1163 12.4944 10.1425 12.5409 10.1555C12.8006 10.2283 13.0172 10.3743 13.2115 10.557C13.3011 10.6413 13.345 10.645 13.4496 10.5767C13.5181 10.532 13.5684 10.4722 13.5834 10.3908C13.6029 10.2842 13.6169 10.1765 13.6351 10.0574ZM11.3385 10.4446C11.361 10.5308 11.4023 10.5716 11.4642 10.5984C11.5943 10.6546 11.6942 10.7339 11.6839 10.8968C11.6829 10.9113 11.7207 10.9406 11.7421 10.9422C11.8328 10.9488 11.9241 10.9453 12.015 10.9498C12.1328 10.9556 12.2236 10.8964 12.3096 10.8296C12.3706 10.7822 12.3683 10.7246 12.3034 10.6802C12.2518 10.645 12.1951 10.6107 12.1356 10.5948C11.9801 10.5531 11.8226 10.5181 11.6645 10.4875C11.56 10.4673 11.4532 10.4592 11.3385 10.4446ZM9.83667 10.9807C9.97909 10.9896 10.1012 10.9883 10.2199 11.0076C10.3165 11.0232 10.3798 10.9991 10.4293 10.9169C10.4525 10.8784 10.4898 10.8486 10.5159 10.8115C10.5637 10.7437 10.6136 10.6762 10.6511 10.6027C10.6669 10.5718 10.667 10.5165 10.6486 10.49C10.635 10.4704 10.578 10.4697 10.5439 10.4772C10.2866 10.534 10.068 10.6589 9.89807 10.8623C9.87235 10.893 9.85988 10.9349 9.83667 10.9807ZM12.1213 13.8457C12.1192 13.8499 12.1172 13.8542 12.1151 13.8585C12.0804 13.8642 12.0456 13.8693 12.0111 13.8758C11.9593 13.8855 11.9556 13.9249 11.9524 13.9677C11.949 14.0133 11.9719 14.025 12.0113 14.0375C12.0924 14.0633 12.1709 14.0971 12.2495 14.1299C12.2867 14.1453 12.3215 14.1663 12.3577 14.184C12.3989 14.2042 12.4239 14.1969 12.4299 14.1457C12.4355 14.0983 12.4503 14.0519 12.4538 14.0046C12.4551 13.9873 12.4399 13.9575 12.4252 13.9519C12.3249 13.9138 12.2228 13.8805 12.1213 13.8457ZM10.0364 13.9569C9.83999 13.8975 9.67009 13.9228 9.49023 13.9654C9.51048 14.0308 9.53069 14.0873 9.5451 14.1453C9.55845 14.1989 9.58372 14.2101 9.63149 14.1834C9.72172 14.1329 9.8132 14.0846 9.90373 14.0347C9.94227 14.0134 9.97974 13.9902 10.0364 13.9569Z" fill="white"/>
<path d="M24.8677 22.7258C25.0338 22.6895 25.1936 22.6638 25.3478 22.6192C26.1188 22.396 26.7485 21.9777 27.1947 21.2956C27.5745 20.7149 27.8852 20.1054 28.0493 19.4275C28.1293 19.0969 28.1665 18.7618 28.1706 18.4211C28.1796 17.6645 28.0592 16.9318 27.8036 16.2189C27.5621 15.5456 27.1861 14.9516 26.7548 14.3881C26.3816 13.9005 25.9824 13.4349 25.5317 13.0176C25.2888 12.7927 25.0224 12.5932 24.7692 12.3793C24.6548 12.2826 24.5304 12.2069 24.3835 12.1775C24.3388 12.1685 24.2804 12.1719 24.2427 12.1941C24.0442 12.3111 23.8294 12.3617 23.6029 12.3894C23.1596 12.4437 22.7601 12.2902 22.3575 12.1462C22.2694 12.1147 22.1837 12.0763 22.0975 12.0398C22.0664 12.0265 22.037 12.0093 22.0068 11.9939L22.0081 11.9694C22.0479 11.9623 22.088 11.9478 22.1274 11.9495C22.2796 11.9562 22.4216 11.9127 22.5666 11.8761C22.6677 11.8506 22.7755 11.8508 22.8804 11.8414C22.9155 11.8382 22.9511 11.8409 23.0069 11.8409C22.8584 11.7057 22.7224 11.5819 22.5705 11.4435C22.9156 11.3606 23.2395 11.341 23.5662 11.4321C23.5712 11.426 23.5762 11.4198 23.5811 11.4136C23.4594 11.2814 23.3481 11.1367 23.2112 11.0225C23.1487 10.9703 23.0361 10.9637 22.9459 10.9627C22.841 10.9615 22.7244 10.9657 22.6336 11.0099C22.5182 11.0661 22.4059 11.0604 22.2886 11.0638C22.2247 11.0657 22.2021 11.103 22.2395 11.1531C22.2936 11.2255 22.3559 11.2929 22.4216 11.3552C22.4706 11.4018 22.4692 11.4432 22.4148 11.4684C22.3102 11.5169 22.2028 11.5627 22.0922 11.5943C21.9618 11.6314 21.8223 11.6376 21.7203 11.7466C21.6805 11.7891 21.6575 11.7376 21.638 11.7141C21.4974 11.5444 21.3579 11.3738 21.2199 11.202C21.1073 11.0618 21.0027 10.9149 20.8844 10.7798C20.7946 10.6773 20.6888 10.589 20.5906 10.4939C20.5679 10.472 20.5471 10.4481 20.5146 10.4135C20.5961 10.3888 20.6633 10.3712 20.7285 10.3482C21.1316 10.2055 21.5335 10.0597 21.9375 9.9197C22.0323 9.88686 22.1329 9.86959 22.2319 9.85059C22.3167 9.83431 22.3885 9.86311 22.4338 9.93849C22.4725 10.0028 22.5058 10.0705 22.5399 10.1376C22.5569 10.1711 22.5667 10.2088 22.586 10.2408C22.6524 10.3509 22.735 10.426 22.8808 10.4049C22.9738 10.3914 23.0704 10.4024 23.1826 10.4024C23.0653 10.2191 22.9589 10.0529 22.8525 9.88664C22.8579 9.8776 22.8632 9.86856 22.8686 9.85951C23.0133 9.89876 23.1613 9.92903 23.3022 9.97897C23.6937 10.1177 23.9892 10.3817 24.2243 10.717C24.3275 10.8641 24.4236 11.0163 24.5204 11.1677C24.6159 11.3169 24.7293 11.4446 24.8858 11.5354C25.0407 11.6252 25.1869 11.7298 25.3384 11.8254C25.3758 11.849 25.3732 11.872 25.349 11.8984C25.3236 11.9261 25.2947 11.9505 25.2667 11.9769C25.346 12.0465 25.4175 12.1228 25.5028 12.1776C25.5388 12.2007 25.6071 12.1885 25.655 12.1739C25.7101 12.1571 25.7522 12.1603 25.7948 12.1971C25.9556 12.3361 26.1171 12.4744 26.2778 12.6136C26.2886 12.6229 26.2951 12.6372 26.3085 12.6561C26.2677 12.6776 26.2301 12.6959 26.1939 12.7167C26.1402 12.7476 26.1239 12.7882 26.1669 12.841C26.1796 12.8567 26.1916 12.8731 26.2049 12.8882C26.27 12.962 26.343 12.9695 26.4237 12.9105C26.497 12.8571 26.5266 12.8613 26.5869 12.9335C26.689 13.056 26.7902 13.1794 26.894 13.3006C26.932 13.345 26.942 13.3825 26.9029 13.4339C26.8565 13.4947 26.8262 13.5566 26.9136 13.6197C26.9481 13.6447 26.9592 13.7019 26.9821 13.7466C27.0399 13.7379 27.0975 13.7328 27.1533 13.72C27.2174 13.7053 27.2726 13.7197 27.3105 13.7697C27.3929 13.8784 27.4715 13.9903 27.547 14.1039C27.5557 14.1169 27.5411 14.155 27.5264 14.1719C27.4918 14.2118 27.4454 14.242 27.4142 14.284C27.3991 14.3044 27.3956 14.3486 27.4075 14.3712C27.4619 14.4741 27.5439 14.5103 27.6603 14.4896C27.7471 14.4741 27.8189 14.488 27.8681 14.571C27.9042 14.6319 27.946 14.6894 27.9871 14.7471C28.0197 14.7929 28.007 14.826 27.963 14.8532C27.9608 14.8545 27.9588 14.856 27.9567 14.8575C27.8252 14.9526 27.8127 15.0101 27.9024 15.1492C27.9168 15.1714 27.9539 15.1873 27.9823 15.1905C28.05 15.1982 28.1193 15.1925 28.1869 15.2008C28.2149 15.2042 28.2541 15.2233 28.2643 15.246C28.3161 15.3605 28.3614 15.478 28.4062 15.5955C28.4282 15.6529 28.4013 15.6858 28.3444 15.7016C28.2986 15.7143 28.254 15.7315 28.1941 15.7516C28.2355 15.8443 28.2727 15.9316 28.3143 16.0168C28.3213 16.0311 28.3462 16.0405 28.3645 16.0447C28.3913 16.0509 28.4196 16.0502 28.4473 16.0525C28.5678 16.0621 28.5952 16.082 28.6256 16.1972C28.6591 16.3242 28.6867 16.4528 28.7201 16.58C28.7347 16.6358 28.713 16.6524 28.6612 16.656C28.5866 16.6612 28.5125 16.6713 28.4362 16.6796C28.4635 16.7984 28.4851 16.9038 28.514 17.0073C28.5195 17.0273 28.5513 17.0448 28.5747 17.0543C28.6497 17.0846 28.7291 17.1052 28.8013 17.1408C28.8345 17.1572 28.8725 17.1967 28.8781 17.2307C28.9089 17.4172 28.9304 17.6053 28.9548 17.7928C28.9629 17.8553 28.9357 17.8825 28.8726 17.8755C28.8399 17.8718 28.8048 17.8781 28.7745 17.8684C28.7042 17.8457 28.6704 17.8731 28.6708 17.9403C28.6716 18.0589 28.6772 18.1776 28.6844 18.296C28.6852 18.3088 28.7084 18.3244 28.7244 18.3311C28.7473 18.3408 28.7737 18.3421 28.7977 18.3496C28.9712 18.4033 29.0051 18.444 28.9993 18.6225C28.994 18.7892 28.9792 18.9555 28.968 19.122C28.9645 19.175 28.9428 19.2079 28.8818 19.1977C28.8295 19.1889 28.7755 19.1876 28.7246 19.174C28.6612 19.1569 28.63 19.1732 28.619 19.2398C28.6055 19.322 28.5883 19.4039 28.5666 19.4843C28.5536 19.5326 28.5686 19.562 28.607 19.5867C28.673 19.6291 28.738 19.6731 28.8046 19.7146C28.8503 19.7431 28.8774 19.7825 28.8624 19.8349C28.8112 20.0141 28.7569 20.1923 28.7018 20.3704C28.689 20.4118 28.6588 20.4053 28.6289 20.3864C28.5648 20.3459 28.5002 20.3059 28.4363 20.265C28.3902 20.2355 28.367 20.2488 28.3472 20.2993C28.3069 20.4024 28.2556 20.5014 28.2182 20.6054C28.2087 20.6319 28.2253 20.6795 28.2462 20.7029C28.3152 20.7802 28.3935 20.8492 28.4639 20.9254C28.4837 20.9469 28.4994 20.9828 28.498 21.0112C28.4911 21.1512 28.3359 21.4653 28.2241 21.5695C28.1254 21.4868 28.0256 21.4032 27.9182 21.3132C27.8789 21.3555 27.8414 21.395 27.8049 21.4355C27.7607 21.4843 27.7169 21.5335 27.6739 21.5834C27.5684 21.7058 27.5674 21.7068 27.6561 21.847C27.717 21.9433 27.7803 22.0381 27.846 22.1312C27.8762 22.1741 27.8779 22.2113 27.8532 22.257C27.7759 22.4003 27.6776 22.5266 27.5694 22.6372C27.451 22.5176 27.3377 22.4061 27.2283 22.2909C27.1968 22.2577 27.1691 22.251 27.1286 22.268C27.0307 22.3091 26.9325 22.3497 26.833 22.3869C26.7791 22.4071 26.7703 22.4338 26.7871 22.4898C26.8374 22.6565 26.8783 22.8261 26.9253 22.9938C26.9628 23.1277 26.9335 23.2374 26.8164 23.3177C26.7413 23.3691 26.6644 23.4178 26.5894 23.4691C26.5393 23.5034 26.5096 23.4883 26.4826 23.4377C26.3848 23.2547 26.2817 23.0745 26.1867 22.89C26.1587 22.8356 26.1254 22.8194 26.0727 22.8364C25.9624 22.8721 25.8503 22.9041 25.7437 22.9488C25.6336 22.9949 25.6386 22.9998 25.678 23.1108C25.7346 23.2704 25.8012 23.4283 25.8377 23.5926C25.89 23.8278 25.9106 23.8043 25.682 23.8792C25.6149 23.9012 25.5449 23.9142 25.477 23.934C25.4227 23.9498 25.3938 23.9343 25.3757 23.8783C25.3213 23.7099 25.2639 23.5424 25.2042 23.3757C25.1263 23.158 25.0296 22.9495 24.8874 22.7648C24.8801 22.7554 24.8763 22.7432 24.8677 22.7258ZM23.9669 10.6126C23.8258 10.6551 23.6945 10.6947 23.5573 10.736C23.709 10.9867 23.9508 11.1227 24.1511 11.3037C24.1562 11.2996 24.1614 11.2955 24.1665 11.2913C24.1013 11.0695 24.036 10.8477 23.9669 10.6126ZM22.2879 10.5417C22.2889 10.5355 22.2899 10.5293 22.2908 10.5232C22.2479 10.4974 22.1996 10.4776 22.1631 10.4447C21.9981 10.2959 21.826 10.2939 21.6423 10.4062C21.602 10.4308 21.5552 10.4447 21.5008 10.4682C21.6095 10.5413 21.7058 10.6017 21.797 10.6691C21.85 10.7084 21.8897 10.7081 21.9443 10.67C22.0462 10.5989 22.1402 10.501 22.2879 10.5417Z" fill="white"/>
<path d="M22.0904 21.4852C21.9338 21.3482 21.7629 21.2507 21.5876 21.1603C21.5044 21.1174 21.4194 21.0778 21.334 21.0395C21.2438 20.9992 21.1788 21.0255 21.1495 21.1188C21.0894 21.3099 21.1233 21.4367 21.3081 21.5251C21.4942 21.6141 21.6666 21.7322 21.8441 21.8391C21.9273 21.8892 21.9618 21.965 21.9614 22.0625C21.9611 22.1658 21.9696 22.2692 21.9734 22.3726C21.9738 22.384 21.9686 22.3957 21.9633 22.419C21.935 22.3981 21.912 22.3842 21.8926 22.3664C21.7726 22.2566 21.6335 22.1821 21.478 22.1361C21.3762 22.1061 21.2714 22.0821 21.1749 22.0396C21.0792 21.9975 20.9921 21.9357 20.9052 21.8849C20.8881 21.9555 20.8752 22.0352 20.8489 22.1103C20.8074 22.2288 20.7513 22.2574 20.6278 22.2412C20.5026 22.2247 20.3776 22.2022 20.2519 22.1962C20.092 22.1886 19.94 22.2284 19.8049 22.3171C19.7326 22.3646 19.6554 22.6952 19.696 22.7724C19.7072 22.7936 19.7272 22.8127 19.7476 22.8257C19.7728 22.8419 19.8019 22.8527 19.8306 22.8625C20.0139 22.9249 20.043 22.9824 19.9655 23.1594C19.9284 23.244 19.877 23.3225 19.8251 23.4164C19.7498 23.3437 19.6858 23.282 19.6219 23.2202C19.6156 23.2222 19.6094 23.2242 19.6031 23.2262C19.6031 23.2522 19.6027 23.2783 19.6032 23.3043C19.6082 23.5776 19.6152 23.8509 19.618 24.1242C19.6198 24.305 19.6172 24.305 19.4407 24.305C19.4179 24.305 19.3951 24.305 19.3722 24.305C19.2073 24.305 19.1989 24.3076 19.1521 24.1513C19.0927 23.9532 19.0348 23.7526 19.0023 23.5489C18.974 23.3719 19.0303 23.1969 19.0948 23.0313C19.1434 22.9067 19.2065 22.7878 19.2631 22.6663C19.2714 22.6486 19.2801 22.6311 19.2936 22.6031C19.0969 22.5726 18.9153 22.5827 18.7649 22.7132C18.5465 22.9028 18.4733 23.142 18.5438 23.4256C18.6102 23.693 18.6711 23.9617 18.734 24.2298C18.7385 24.2491 18.7398 24.2692 18.7449 24.305H18.4936C18.2762 24.305 18.2783 24.3042 18.193 24.1001C18.0932 23.8611 18.0133 23.6169 17.9829 23.3585C17.9456 23.041 17.9497 22.7306 18.1462 22.4557C18.3608 22.1555 18.6566 22.0489 19.0153 22.0959C19.0679 22.1028 19.1226 22.1053 19.172 22.1222C19.2476 22.148 19.2763 22.1144 19.2998 22.0499C19.3508 21.9097 19.4297 21.7868 19.5444 21.6893C19.7134 21.5455 19.9138 21.5372 20.1194 21.5631C20.209 21.5744 20.2971 21.5983 20.3924 21.6178C20.3952 21.6143 20.4046 21.6057 20.41 21.595C20.6718 21.0879 20.9016 20.5682 21.0382 20.0112C21.1453 19.5747 21.1099 19.1583 20.9077 18.7502C20.7167 18.365 20.5407 17.9717 20.3735 17.5756C20.1681 17.0888 20.0335 16.58 19.9747 16.0546C19.948 15.8165 19.9362 15.5747 19.9428 15.3353C19.9498 15.0822 20.1014 14.9026 20.3088 14.7734C20.5216 14.6409 20.7556 14.5976 21.0064 14.619C21.6083 14.6704 22.099 14.9506 22.5278 15.3538C23.0145 15.8114 23.366 16.3653 23.6485 16.9661C23.9475 17.6017 24.1529 18.2673 24.2767 18.9572C24.3283 19.2452 24.3652 19.5366 24.3912 19.828C24.4179 20.1274 24.4385 20.4289 24.4346 20.7291C24.4267 21.3378 24.3343 21.9368 24.1855 22.5272C24.1711 22.5842 24.1463 22.6115 24.0871 22.6026C24.0199 22.5926 23.9525 22.5835 23.8854 22.5727C23.8421 22.5657 23.8283 22.5399 23.8356 22.4962C23.9263 21.9535 23.949 21.4057 23.9595 20.8567C23.9831 19.6195 23.741 18.4334 23.2662 17.2947C23.0229 16.7112 22.7038 16.1718 22.2428 15.7284C21.9042 15.4026 21.5024 15.2034 21.035 15.1405C21.0175 15.1381 20.9996 15.1388 20.9819 15.1382C20.6501 15.1254 20.4731 15.2747 20.4244 15.6085C20.3977 15.7913 20.4154 15.8094 20.6033 15.7739C20.7076 15.7542 20.8105 15.7272 20.9137 15.7025C21.125 15.652 21.2962 15.7178 21.4187 15.8923C21.5008 16.0093 21.5822 16.123 21.7086 16.1964C21.7198 16.2029 21.7256 16.2188 21.7422 16.2419C21.6393 16.249 21.5477 16.2576 21.4559 16.2614C21.1753 16.2729 20.8945 16.2841 20.6137 16.2917C20.5527 16.2934 20.5329 16.3209 20.549 16.3712C20.5774 16.4597 20.6112 16.5468 20.6478 16.6323C20.6559 16.6511 20.6839 16.6696 20.7052 16.6732C20.9046 16.7063 21.1043 16.7294 21.3071 16.6962C21.3605 16.6875 21.4177 16.7029 21.4732 16.7067C21.6192 16.7168 21.7652 16.7266 21.9112 16.7366C21.9869 16.7417 22.0637 16.7411 22.1377 16.755C22.1678 16.7606 22.2046 16.7924 22.2166 16.8213C22.2836 16.9831 22.2801 17.1519 22.2465 17.3203C22.2433 17.3362 22.2006 17.3597 22.1841 17.3546C22.1292 17.3373 22.0714 17.317 22.0262 17.2827C21.8218 17.1275 21.5922 17.1085 21.3485 17.1385C21.198 17.1571 21.0461 17.1633 20.895 17.1761C20.8718 17.1781 20.8491 17.1856 20.8028 17.1957C20.849 17.233 20.8758 17.2579 20.9058 17.2782C21.0031 17.3441 21.0134 17.3668 20.9848 17.4798C20.9724 17.5288 20.9534 17.5762 20.9426 17.6254C20.9307 17.6803 20.9517 17.7013 21.0131 17.7114C21.1891 17.7406 21.3537 17.6855 21.5221 17.6583C21.8232 17.6096 22.0924 17.6804 22.3328 17.8668C22.3986 17.9178 22.4675 17.9647 22.5343 18.0143C22.5481 18.0245 22.565 18.0361 22.5707 18.0508C22.6292 18.2029 22.6858 18.3559 22.7429 18.5086C22.7348 18.5162 22.7267 18.5239 22.7186 18.5315C22.6829 18.5194 22.6428 18.514 22.6124 18.494C22.5194 18.4329 22.4237 18.3734 22.3412 18.2997C22.2399 18.2092 22.1196 18.1702 21.9938 18.1673C21.7056 18.1606 21.4168 18.1662 21.135 18.2416C21.1206 18.2455 21.107 18.2526 21.0864 18.2608C21.0916 18.2826 21.0939 18.3048 21.1022 18.3244C21.1982 18.5505 21.3591 18.6943 21.6096 18.7278C21.7797 18.7506 21.9505 18.7717 22.1188 18.8049C22.3617 18.8528 22.5298 19.0062 22.6411 19.2196C22.6766 19.2877 22.6818 19.3716 22.7061 19.4696C22.6512 19.4558 22.6234 19.4495 22.596 19.4418C22.3724 19.3786 22.15 19.31 21.9245 19.2545C21.8428 19.2344 21.7533 19.2428 21.6676 19.2446C21.652 19.2449 21.6219 19.2793 21.6243 19.2935C21.6479 19.4276 21.6756 19.5611 21.7063 19.6939C21.7101 19.7104 21.736 19.7267 21.7551 19.7341C21.8304 19.7636 21.9054 19.7978 21.9838 19.8149C22.1179 19.8441 22.2169 19.9217 22.3028 20.021C22.3542 20.0802 22.4025 20.1423 22.4496 20.205C22.5088 20.2838 22.5015 20.3718 22.4729 20.4585C22.4681 20.4731 22.4318 20.4915 22.417 20.4867C22.2203 20.4232 22.0237 20.3586 21.8296 20.2875C21.7846 20.271 21.7461 20.2321 21.7094 20.1983C21.6396 20.134 21.5451 20.1456 21.499 20.2296C21.4711 20.2806 21.4446 20.3326 21.422 20.386C21.3847 20.4738 21.3875 20.4788 21.4831 20.5008C21.6432 20.5376 21.8036 20.5729 21.964 20.6081C22.0785 20.6332 22.1636 20.7234 22.1889 20.8365C22.2025 20.8973 22.2208 20.9601 22.2515 21.0136C22.3545 21.1929 22.281 21.4102 22.0904 21.4852Z" fill="white"/>
<path d="M6.14045 22.1077C5.92588 22.0295 5.7291 21.9419 5.50725 21.9475C5.45083 21.9489 5.41295 21.9667 5.38508 22.0184C5.354 22.076 5.31583 22.1303 5.27655 22.1829C5.17833 22.3145 5.1399 22.4681 5.09899 22.6393C5.15499 22.6429 5.20403 22.652 5.25199 22.648C5.41723 22.6343 5.48391 22.7074 5.51475 22.8581C5.54323 22.9974 5.51737 23.1335 5.43194 23.2659C5.41736 23.2212 5.3995 23.1773 5.38888 23.1317C5.36447 23.027 5.32681 23.0023 5.22143 23.0281C5.21162 23.0306 5.20192 23.0334 5.19226 23.0364C5.05235 23.0795 5.05584 23.0796 5.0506 23.2232C5.04693 23.3239 5.0283 23.424 5.02343 23.5247C5.01934 23.6093 5.01497 23.6963 5.0293 23.779C5.05725 23.9404 5.09825 24.0995 5.13357 24.2596C5.13566 24.2691 5.13526 24.2791 5.13729 24.3051H4.90299C4.67063 24.3051 4.66809 24.3059 4.60666 24.0841C4.54046 23.8452 4.47383 23.6044 4.49201 23.3534C4.50531 23.1697 4.53452 22.9872 4.55837 22.8044C4.57853 22.6499 4.60118 22.4957 4.62319 22.338C4.48749 22.308 4.35775 22.3 4.22804 22.334C4.19671 22.3422 4.16592 22.3569 4.13827 22.374C4.01983 22.4474 3.99193 22.5484 4.05709 22.6718C4.09488 22.7433 4.14098 22.8105 4.17688 22.8829C4.22287 22.9755 4.21003 23.0017 4.11464 23.043C4.07053 23.0621 4.0269 23.0823 3.98336 23.1027C3.69043 23.2397 3.61993 23.5011 3.69299 23.7822C3.72921 23.9215 3.77928 24.0571 3.82176 24.1949C3.83124 24.2256 3.83514 24.258 3.84476 24.3051C3.73804 24.3051 3.63914 24.2949 3.54326 24.3076C3.40572 24.3258 3.32877 24.2644 3.26607 24.1515C3.16232 23.9647 3.08002 23.7719 3.02451 23.5644C2.95834 23.3171 3.02961 23.1132 3.19683 22.9383C3.28105 22.8502 3.38536 22.7814 3.48128 22.7033C3.45008 22.3457 3.60617 22.0603 3.89684 21.853C4.19016 21.6437 4.51498 21.6186 4.8508 21.7704C4.8694 21.734 4.88486 21.7058 4.89855 21.6767C5.02456 21.4091 5.2448 21.293 5.53105 21.2813C5.76185 21.2719 5.96827 21.3503 6.16776 21.4549C6.1898 21.4665 6.21216 21.4774 6.24256 21.4928C6.25401 21.4623 6.26406 21.4374 6.27275 21.4121C6.44435 20.9121 6.60984 20.4099 6.79018 19.9131C6.86237 19.7142 6.96793 19.5275 7.05665 19.3345C7.08093 19.2817 7.11789 19.2601 7.17572 19.2602C7.32212 19.2605 7.47398 19.2312 7.6136 19.2609C7.80714 19.3021 7.99357 19.3812 8.17921 19.4538C8.41355 19.5455 8.6325 19.668 8.83296 19.821C8.87873 19.8559 8.92217 19.8971 8.95667 19.9429C9.05572 20.0745 9.18454 20.1658 9.33344 20.229C9.38938 20.2527 9.40622 20.2808 9.3895 20.3389C9.36204 20.4342 9.34011 20.5312 9.31303 20.6386C9.23253 20.5909 9.17309 20.553 9.11127 20.5195C8.71619 20.3053 8.31151 20.1124 7.86551 20.0316C7.7177 20.0049 7.56374 20.0113 7.41249 20.005C7.39481 20.0043 7.37141 20.0151 7.35926 20.0284C7.28456 20.1101 7.21234 20.1941 7.12286 20.2961C7.22265 20.3068 7.30068 20.3137 7.37828 20.3239C7.60295 20.3534 7.83546 20.3478 8.04505 20.4494C8.16083 20.5055 8.26861 20.5781 8.3798 20.6436C8.38836 20.6486 8.39915 20.6549 8.40247 20.6631C8.4879 20.8754 8.68589 20.9732 8.85311 21.0998C9.01075 21.2192 9.01531 21.2136 8.93943 21.3973C8.92825 21.4244 8.91371 21.4501 8.89866 21.4806C8.87554 21.4688 8.85927 21.4627 8.84535 21.4531C8.51088 21.2231 8.14353 21.0613 7.7617 20.9291C7.57581 20.8647 7.38564 20.8565 7.19247 20.8806C7.18996 20.8809 7.18735 20.8818 7.18494 20.8814C7.01753 20.8559 6.94099 20.9462 6.91336 21.1078C6.9354 21.1178 6.96346 21.132 6.99265 21.1433C7.2049 21.2255 7.42441 21.2927 7.62811 21.3924C7.92019 21.5352 8.18997 21.7147 8.39748 21.9744C8.44607 22.0352 8.46277 22.0918 8.45013 22.1687C8.4223 22.338 8.40425 22.509 8.38123 22.6792C8.3773 22.7082 8.36845 22.7365 8.35641 22.7891C8.3328 22.7421 8.31942 22.7165 8.30691 22.6905C8.23126 22.5333 8.17695 22.3556 8.03775 22.2456C7.79289 22.0523 7.54753 21.8515 7.22512 21.7931C7.16303 21.7819 7.09951 21.7706 7.04127 21.7476C6.90703 21.6946 6.7787 21.7169 6.65151 21.7666C6.63178 21.7743 6.60614 21.7972 6.6043 21.8152C6.59616 21.8951 6.58676 21.9767 6.59615 22.0556C6.60106 22.0968 6.63719 22.141 6.67081 22.1708C6.78058 22.2681 6.90139 22.3533 7.00754 22.4542C7.23784 22.6729 7.3871 22.9396 7.3872 23.2614C7.38724 23.3867 7.32764 23.5151 7.28063 23.6365C7.21586 23.8037 7.1389 23.9664 7.06405 24.1296C7.0128 24.2413 6.93205 24.3124 6.79904 24.3057C6.73079 24.3023 6.66186 24.3007 6.59391 24.3063C6.52304 24.3121 6.50048 24.2804 6.51296 24.2179C6.54011 24.0819 6.5701 23.9465 6.59901 23.8109C6.63477 23.6431 6.68067 23.4767 6.70309 23.3072C6.71968 23.1818 6.70451 23.0543 6.58738 22.9654C6.49878 22.8982 6.42465 22.9008 6.38582 23.0026C6.3296 23.1499 6.26988 23.3039 6.25862 23.4585C6.24068 23.7049 6.26155 23.9541 6.26571 24.2021C6.26743 24.3043 6.26676 24.3049 6.16673 24.305C6.05016 24.3053 5.93353 24.3028 5.81705 24.306C5.76409 24.3075 5.74097 24.2841 5.74052 24.2361C5.73798 23.9631 5.73286 23.6901 5.73601 23.4172C5.73915 23.1451 5.78344 22.877 5.8759 22.6218C5.9279 22.4783 6.01395 22.3471 6.0849 22.2104C6.1009 22.1796 6.11791 22.1493 6.14045 22.1077Z" fill="white"/>
<path d="M15.1187 23.2804C15.0997 23.2526 15.0871 23.2345 15.0749 23.2162C14.8202 22.8358 14.5732 22.4499 14.3078 22.0771C14.1609 21.8708 14.0674 21.8354 13.7612 21.9295C13.6069 21.9769 13.4567 22.0483 13.3249 22.1509C13.29 22.1781 13.2308 22.1916 13.1863 22.1856C13.069 22.1698 12.9538 22.139 12.8375 22.1158C12.7135 22.091 12.5945 22.058 12.4783 22.0024C12.3149 21.9242 12.2726 21.9489 12.1837 22.0626C12.119 22.1453 12.049 22.2238 11.9827 22.3052C11.9722 22.318 11.9688 22.3365 11.9584 22.3612C12.0221 22.3815 12.0829 22.3972 12.1408 22.4201C12.2765 22.4739 12.4138 22.5252 12.5445 22.5896C12.6099 22.6218 12.6649 22.6261 12.7079 22.5737C12.8348 22.4191 12.9978 22.4319 13.1647 22.4686C13.2829 22.4946 13.402 22.5225 13.515 22.5647C13.7392 22.6483 13.816 22.7978 13.7671 23.032C13.7409 23.1579 13.7433 23.2816 13.7729 23.4075C13.7891 23.4766 13.8259 23.5145 13.8891 23.5319C13.9841 23.558 14.0801 23.5808 14.175 23.6072C14.2204 23.6198 14.2643 23.6376 14.3104 23.6535C14.1808 23.8804 13.932 24.0583 13.6497 23.9279C13.6127 24.0324 13.5778 24.1376 13.5375 24.2406C13.5279 24.2653 13.5009 24.3005 13.4811 24.3011C13.3121 24.3059 13.1429 24.3038 12.9728 24.3038C13.0192 24.1735 13.071 24.0533 13.1047 23.9281C13.1707 23.6823 13.2607 23.4408 13.2641 23.1815C13.2653 23.0894 13.2554 23.0799 13.1606 23.0737C12.9677 23.061 12.8597 23.1145 12.8189 23.2546C12.7965 23.3316 12.789 23.4131 12.7766 23.4929C12.7599 23.5997 12.7453 23.7069 12.7293 23.8139C12.7093 23.9482 12.6825 24.0819 12.671 24.2169C12.6651 24.2867 12.6441 24.3101 12.5757 24.3061C12.4924 24.3013 12.4083 24.3008 12.325 24.3063C12.2541 24.311 12.2318 24.2838 12.2324 24.2153C12.2348 23.9418 12.2333 23.6682 12.2333 23.3946C12.2333 23.3693 12.2328 23.3439 12.2334 23.3186C12.2405 22.9834 12.1613 22.9959 11.8862 22.9284C11.8634 23.0468 11.8361 23.1638 11.8188 23.2824C11.7722 23.6014 11.8356 23.9176 11.8519 24.235C11.8548 24.2911 11.8407 24.3073 11.7877 24.3056C11.7041 24.303 11.6201 24.3092 11.537 24.3025C11.5086 24.3002 11.4687 24.2764 11.4574 24.2518C11.307 23.9243 11.176 23.5859 11.1299 23.2295C11.1021 23.0144 11.1529 22.7908 11.2889 22.603C11.3035 22.5829 11.3186 22.5632 11.3406 22.5337C11.2563 22.4985 11.1758 22.4957 11.1018 22.5219C11.0315 22.5468 10.969 22.5938 10.9025 22.6301C10.8463 22.6607 10.8226 22.7092 10.815 22.771C10.7869 23.0016 10.7532 23.2317 10.73 23.4628C10.7234 23.5283 10.7397 23.5983 10.7559 23.6637C10.802 23.8502 10.8537 24.0352 10.9024 24.221C10.9081 24.2426 10.9085 24.2655 10.9135 24.305C10.8494 24.305 10.789 24.2968 10.7317 24.3065C10.5319 24.3403 10.409 24.2593 10.2892 24.0946C10.1081 23.8456 10.0618 23.5867 10.1059 23.2928C10.1596 22.9352 10.2688 22.5945 10.3948 22.2578C10.4043 22.2324 10.418 22.2045 10.4381 22.1878C10.5409 22.1029 10.6398 22.0104 10.7525 21.9406C10.9843 21.7971 11.2326 21.8616 11.4194 22.0189C11.4383 22.0347 11.4573 22.0504 11.477 22.0668C11.5428 21.9551 11.6035 21.8481 11.668 21.7436C11.782 21.559 11.9543 21.4894 12.166 21.4759C12.4286 21.4591 12.6854 21.4905 12.9418 21.5362C13.0062 21.5477 13.0197 21.5115 13.0351 21.4651C13.1467 21.1298 13.2471 20.79 13.3755 20.4612C13.4634 20.2362 13.5906 20.0265 13.7 19.81C13.7455 19.7199 13.8211 19.6712 13.9168 19.6467C13.9975 19.6261 14.0757 19.5936 14.1572 19.5796C14.3802 19.5416 14.5877 19.6106 14.7921 19.6871C14.9176 19.7341 15.041 19.7867 15.1654 19.8367C15.1819 19.8433 15.1997 19.8469 15.2151 19.8552C15.3121 19.908 15.4035 19.963 15.412 20.0928C15.416 20.155 15.4445 20.2153 15.4506 20.2776C15.4579 20.3527 15.414 20.3798 15.3461 20.3492C15.3069 20.3315 15.2686 20.3118 15.23 20.2928C15.0633 20.2106 14.8892 20.1718 14.7015 20.1839C14.5627 20.1928 14.4229 20.1849 14.2835 20.1864C14.2594 20.1866 14.2262 20.188 14.2126 20.2029C14.0977 20.3295 13.9863 20.4595 13.8739 20.5884C13.8782 20.5965 13.8825 20.6046 13.8868 20.6127C13.9449 20.6073 14.0056 20.6111 14.0605 20.5951C14.2617 20.5363 14.4619 20.5743 14.6525 20.6222C14.889 20.6816 15.1173 20.7754 15.3465 20.8614C15.4313 20.8932 15.5227 21.1272 15.4906 21.214C15.483 21.2347 15.4458 21.2611 15.4269 21.2577C15.3758 21.2487 15.3125 21.2389 15.2805 21.2047C15.2049 21.1239 15.1078 21.116 15.0127 21.0999C14.7886 21.0621 14.5647 21.0146 14.3388 20.9988C14.1695 20.987 13.997 21.0161 13.8264 21.0318C13.7501 21.0388 13.7172 21.0958 13.7008 21.1655C13.6712 21.2907 13.6937 21.4099 13.7315 21.5264C13.8514 21.4972 13.9646 21.4615 14.0805 21.4434C14.2701 21.4138 14.4614 21.3952 14.6521 21.3735C14.6739 21.3711 14.6983 21.3746 14.7191 21.3821C15.098 21.5196 15.4665 21.6815 15.8101 21.8928C16.0332 22.03 16.1689 22.2392 16.2295 22.4938C16.238 22.5294 16.2328 22.5754 16.2166 22.6079C16.1875 22.6662 16.1471 22.7193 16.1082 22.7722C16.032 22.8757 15.9537 22.9777 15.8689 23.0901C15.8532 23.0651 15.8316 23.0434 15.8247 23.0178C15.78 22.8498 15.7396 22.6806 15.6947 22.5126C15.6873 22.4852 15.6709 22.4523 15.6485 22.438C15.5014 22.3445 15.3572 22.2436 15.2005 22.1696C15.1107 22.1271 14.9992 22.1306 14.883 22.1109C14.896 22.1294 14.8993 22.1379 14.9055 22.1425C15.1358 22.3104 15.2119 22.5614 15.2684 22.8215C15.2856 22.9001 15.2901 22.9815 15.3003 23.0616C15.3059 23.1056 15.2928 23.1334 15.2501 23.1591C15.2025 23.1877 15.1661 23.2352 15.1187 23.2804Z" fill="white"/>
<path d="M11.2805 8.56838C11.4611 8.55465 11.5556 8.45101 11.6053 8.31206C11.6699 8.13171 11.7197 7.94577 11.7688 7.76037C11.7861 7.69499 11.807 7.67332 11.8768 7.69198C11.9468 7.71071 12.0214 7.71918 12.094 7.71942C12.1569 7.71963 12.1744 7.74343 12.1681 7.80018C12.1594 7.87798 12.1481 7.95593 12.147 8.03394C12.1464 8.07359 12.1541 8.13092 12.1797 8.1482C12.2032 8.16403 12.2636 8.14797 12.2941 8.12653C12.437 8.02613 12.5764 7.92076 12.7141 7.81337C12.7637 7.77474 12.8056 7.76821 12.865 7.79399C13.2719 7.97048 13.6485 8.19592 13.9902 8.4789C14.0106 8.4958 14.0271 8.51745 14.0507 8.5425C13.9561 8.62026 13.869 8.69315 13.7805 8.76421C13.7122 8.81908 13.6287 8.83126 13.5498 8.8103C13.4409 8.78139 13.3319 8.74466 13.2313 8.69451C13.0364 8.59737 12.8343 8.53235 12.6177 8.50978C12.4728 8.49468 12.3557 8.54982 12.2519 8.64368C12.2237 8.66916 12.1946 8.69391 12.1689 8.72178C11.9951 8.91055 11.7843 9.02297 11.53 9.07383C11.3483 9.11017 11.1729 9.18104 10.9973 9.24357C10.8815 9.28477 10.857 9.28062 10.8386 9.16107C10.8198 9.03903 10.8102 8.91527 10.8031 8.79188C10.8001 8.74081 10.7867 8.71499 10.7338 8.70277C10.6309 8.67898 10.5298 8.64734 10.4345 8.62079C10.3664 8.7537 10.3015 8.88993 10.2278 9.02121C10.1624 9.13774 10.1611 9.12584 10.0353 9.08568C9.57801 8.93968 9.20713 8.65744 8.85119 8.35021C8.7456 8.4328 8.64687 8.52494 8.53432 8.59484C8.32401 8.72545 8.105 8.84201 7.8913 8.9673C7.85402 8.98916 7.8191 9.02074 7.79329 9.05542C7.7102 9.16705 7.63118 9.28174 7.5521 9.39629C7.52425 9.43664 7.49402 9.4438 7.44858 9.42431C7.33935 9.37745 7.22971 9.33066 7.11737 9.29225C7.04698 9.26819 7.04347 9.2339 7.08131 9.18204C7.24386 8.95926 7.40504 8.73543 7.57108 8.51527C7.63802 8.42651 7.72322 8.3512 7.78732 8.26071C7.85996 8.15818 7.95432 8.10109 8.071 8.0617C8.28878 7.98817 8.50294 7.90394 8.71863 7.82422C8.72575 7.82159 8.73319 7.81983 8.74035 7.81732C8.92364 7.75317 9.06432 7.77812 9.20881 7.93849C9.39003 8.13962 9.6158 8.30065 9.83618 8.49094C9.9102 8.26922 9.97818 8.06558 10.0481 7.85611C10.1668 7.91123 10.274 7.96144 10.3817 8.01079C10.4067 8.02227 10.4341 8.02881 10.4587 8.04112C10.585 8.10442 10.6926 8.05286 10.7882 7.97771C10.9577 7.84452 11.1658 7.82723 11.3617 7.77282C11.4136 7.75841 11.4262 7.79272 11.412 7.8347C11.3886 7.90403 11.3672 7.97532 11.3331 8.03955C11.2438 8.20812 11.2927 8.38528 11.2805 8.56838Z" fill="white"/>
<path d="M11.9444 15.9276C11.8157 15.8139 11.6969 15.7089 11.5766 15.6026C11.5539 15.7316 11.5329 15.8492 11.5125 15.967C11.5037 16.0177 11.477 16.0407 11.424 16.0536C11.2016 16.1078 11.0335 16.0322 10.9044 15.8515C10.8972 15.8413 10.8891 15.8317 10.881 15.8221C10.8796 15.8205 10.8763 15.8204 10.8739 15.8197C10.8494 15.8873 10.8281 15.9564 10.7994 16.0222C10.7717 16.0855 10.7219 16.1137 10.6484 16.1133C10.3941 16.112 10.3661 16.0957 10.3296 15.8469C10.311 15.7205 10.3138 15.5909 10.3063 15.4522C10.2818 15.4661 10.2584 15.4747 10.2409 15.49C10.1971 15.5282 10.1572 15.5707 10.1134 15.6089C10.0751 15.6424 10.0154 15.7073 9.99709 15.6976C9.93604 15.6655 9.87064 15.6153 9.84113 15.5552C9.78252 15.4359 9.74806 15.3048 9.70082 15.1797C9.68171 15.1291 9.69927 15.1003 9.74132 15.0732C9.98229 14.9177 10.2472 14.8277 10.5312 14.8088C10.7808 14.7921 11.032 14.7887 11.2821 14.7948C11.5682 14.8018 11.8513 14.8351 12.1155 14.9627C12.1895 14.9984 12.2161 15.0417 12.2159 15.1247C12.2154 15.3951 12.1533 15.6447 11.997 15.8678C11.9815 15.8898 11.9613 15.9085 11.9444 15.9276Z" fill="white"/>
<path d="M17.9796 16.3433C18.0088 16.4019 18.0353 16.4619 18.0676 16.5187C18.1812 16.7182 18.2316 16.9356 18.2573 17.1609C18.2629 17.2105 18.2528 17.2248 18.1979 17.2256C18.1086 17.2269 18.0196 17.2446 17.9265 17.2559C17.8609 17.1255 17.7802 16.9901 17.7239 16.8451C17.6825 16.7385 17.6692 16.62 17.6504 16.5057C17.6138 16.2822 17.4689 16.1604 17.2707 16.083C17.2073 16.0583 17.1443 16.0307 17.0853 15.9971C16.9836 15.9392 16.9406 15.8262 16.9635 15.7102C16.9766 15.6441 17.0088 15.6491 17.0609 15.6666C17.3029 15.7481 17.5429 15.8379 17.7895 15.9023C18.3873 16.0586 18.9824 16.0226 19.5699 15.8409C19.6281 15.8229 19.6654 15.8331 19.7028 15.8761C19.7829 15.9684 19.8155 16.0787 19.8222 16.1968C19.8231 16.2142 19.7903 16.247 19.7697 16.25C19.6124 16.273 19.4542 16.2901 19.2963 16.3095C19.2246 16.3183 19.1531 16.328 19.0752 16.3382C19.0876 16.375 19.0958 16.4011 19.1053 16.4268C19.1606 16.5755 19.2174 16.7237 19.2696 16.8736C19.2746 16.8881 19.2556 16.9217 19.2393 16.9304C19.2112 16.9453 19.1764 16.9475 19.1444 16.955C19.0764 16.971 19.0082 16.986 18.9405 17.0031C18.849 17.0261 18.8239 17.0093 18.7923 16.9186C18.7543 16.8093 18.7124 16.7011 18.6676 16.5944C18.6342 16.515 18.5757 16.4911 18.4843 16.4902C18.3052 16.4884 18.1291 16.4705 17.9924 16.3288C17.9881 16.3336 17.9839 16.3385 17.9796 16.3433Z" fill="white"/>
<path d="M21.1006 24.032C21.0458 23.9635 20.9915 23.8947 20.936 23.8268C20.9056 23.7896 20.8758 23.7513 20.8414 23.718C20.7658 23.6447 20.6593 23.6683 20.6268 23.7682C20.5823 23.9051 20.5454 24.0444 20.503 24.1819C20.4653 24.3044 20.4614 24.3055 20.3338 24.291C20.2485 24.2814 20.1632 24.2715 20.0777 24.2633C20.0342 24.2591 20.0148 24.2367 20.0153 24.194C20.0163 24.0832 20.0076 23.9713 20.0196 23.8616C20.0535 23.5542 20.115 23.2513 20.2337 22.9647C20.2884 22.8327 20.361 22.7064 20.4391 22.5863C20.5448 22.4238 20.7073 22.3786 20.8914 22.4104C21.267 22.4754 21.551 22.6804 21.7656 22.9899C21.7896 23.0245 21.7909 23.0504 21.7612 23.083C21.7052 23.1445 21.6556 23.2119 21.5988 23.2726C21.5509 23.3238 21.5087 23.3164 21.4516 23.2676C21.3389 23.1713 21.2199 23.0797 21.0928 23.0039C20.9776 22.9351 20.9276 22.9504 20.8465 23.0557C20.7966 23.1206 20.7608 23.1969 20.7227 23.2703C20.7016 23.3109 20.7196 23.3416 20.7653 23.3455C20.8753 23.3551 20.9573 23.415 21.0377 23.4834C21.0689 23.5099 21.112 23.5237 21.1514 23.5386C21.2537 23.5773 21.2745 23.6032 21.2446 23.7079C21.2133 23.8178 21.1685 23.9238 21.1296 24.0315C21.12 24.0317 21.1103 24.0318 21.1006 24.032Z" fill="white"/>
<path d="M6.55432 11.7896C6.54636 11.7238 6.53708 11.648 6.52804 11.5721C6.50983 11.4193 6.49452 11.2661 6.47212 11.1138C6.46428 11.0606 6.47713 11.033 6.52259 11.003C6.64284 10.9237 6.7595 10.8386 6.87356 10.7506C6.89216 10.7363 6.89958 10.6943 6.8964 10.667C6.87256 10.4617 6.83171 10.2573 6.82354 10.0516C6.81923 9.94321 6.85317 9.82493 6.8994 9.72474C6.97397 9.56314 7.12317 9.50504 7.31314 9.53401C7.42817 9.55155 7.42554 9.55121 7.41059 9.66643C7.38593 9.85651 7.3589 10.0467 7.34575 10.2377C7.3408 10.3096 7.3622 10.3876 7.38837 10.4564C7.43227 10.5719 7.49523 10.6802 7.53976 10.7955C7.58723 10.9184 7.55711 11.0185 7.43791 11.069C7.25265 11.1476 7.12363 11.2945 6.97385 11.4156C6.82993 11.5319 6.69684 11.6616 6.55432 11.7896Z" fill="white"/>
<path d="M16.9136 15.6225C16.8528 15.6008 16.8081 15.5857 16.764 15.5689C16.6388 15.5213 16.5151 15.4691 16.3882 15.4266C16.3186 15.4033 16.2899 15.3594 16.2914 15.2927C16.2931 15.2121 16.3039 15.1316 16.3045 15.051C16.3065 14.7708 16.2402 14.5007 16.1763 14.2305C16.138 14.0684 16.1001 13.9061 16.0562 13.7454C16.0412 13.6904 16.0556 13.6624 16.1056 13.6487C16.1999 13.623 16.2945 13.5981 16.3895 13.5751C16.4297 13.5654 16.4863 13.5416 16.5086 13.5588C16.5449 13.5869 16.5693 13.641 16.5806 13.6884C16.6238 13.8697 16.6662 14.0516 16.6972 14.2352C16.77 14.668 16.836 15.1018 16.9046 15.5353C16.9081 15.557 16.9092 15.5792 16.9136 15.6225Z" fill="white"/>
<path d="M14.6914 11.8527C14.9268 11.81 15.1196 11.8764 15.3037 11.9575C15.439 12.017 15.5561 12.1173 15.6902 12.1805C15.7856 12.2255 15.8944 12.2481 15.9998 12.2639C16.0812 12.2761 16.1318 12.3024 16.1636 12.3825C16.2672 12.6428 16.3803 12.8994 16.4842 13.1596C16.531 13.2765 16.4864 13.3337 16.3658 13.2949C16.2589 13.2605 16.1576 13.1949 16.0678 13.1252C15.9932 13.0673 15.9362 12.9856 15.8761 12.9107C15.7242 12.7218 15.5278 12.6179 15.2892 12.582C15.2239 12.5722 15.1643 12.5178 15.0998 12.5126C14.9738 12.5025 14.9263 12.4344 14.9293 12.3223C14.9323 12.2115 14.8725 12.1336 14.8128 12.0514C14.7695 11.9917 14.7353 11.9254 14.6914 11.8527Z" fill="white"/>
<path d="M6.28804 14.2758C6.27072 14.0924 6.2571 13.9292 6.23933 13.7664C6.22705 13.6539 6.20427 13.5424 6.19665 13.4297C6.19452 13.3983 6.22192 13.3548 6.24889 13.3332C6.4067 13.2069 6.56447 13.0798 6.73034 12.9646C6.82248 12.9006 6.9267 12.8497 7.03191 12.8098C7.19885 12.7466 7.37118 12.6976 7.56539 12.6348C7.55528 12.7369 7.54419 12.8174 7.53992 12.8983C7.52899 13.1052 7.43996 13.2359 7.23544 13.3195C6.99364 13.4183 6.81216 13.6098 6.65528 13.82C6.55235 13.9579 6.44458 14.0922 6.33847 14.2277C6.32836 14.2406 6.31463 14.2507 6.28804 14.2758Z" fill="white"/>
<path d="M19.0462 20.2673C19.0354 20.2399 19.0228 20.2131 19.014 20.185C18.8791 19.7532 18.7479 19.3202 18.6088 18.8897C18.5086 18.5794 18.3402 18.3016 18.1725 18.0242C18.1206 17.9383 18.0681 17.8528 18.0051 17.7496C18.0792 17.744 18.135 17.7405 18.1907 17.7354C18.2812 17.727 18.3717 17.7187 18.462 17.7081C18.5107 17.7024 18.5431 17.7188 18.547 17.7686C18.5641 17.986 18.6838 18.1559 18.8031 18.3258C18.9071 18.4737 18.9948 18.626 19.012 18.8128C19.0212 18.9131 19.0604 19.0058 19.1272 19.0882C19.1618 19.1308 19.1761 19.1924 19.1908 19.2478C19.2027 19.2926 19.19 19.3314 19.1496 19.3677C19.039 19.4671 19.0557 19.5959 19.0752 19.7269C19.0948 19.859 19.1075 19.9926 19.114 20.126C19.1163 20.1735 19.0917 20.2224 19.0793 20.2706C19.0683 20.2695 19.0573 20.2684 19.0462 20.2673Z" fill="white"/>
<path d="M16.0099 12.0826C15.9702 12.0536 15.9431 12.0362 15.9187 12.0156C15.8255 11.9367 15.7163 11.8945 15.599 11.8662C15.5619 11.8572 15.5197 11.8365 15.4967 11.8077C15.3911 11.6756 15.2867 11.5422 15.1916 11.4025C15.1378 11.3233 15.0805 11.2542 14.9968 11.2059C14.8771 11.1367 14.7605 11.062 14.6412 10.9922C14.5303 10.9272 14.5186 10.8682 14.6097 10.7826C14.6961 10.7013 14.7828 10.6193 14.8772 10.5481C14.9848 10.467 15.0281 10.4786 15.1092 10.5857C15.1108 10.5877 15.1125 10.5896 15.1138 10.5918C15.2172 10.7692 15.3584 10.9114 15.5207 11.0353C15.5968 11.0935 15.6681 11.1581 15.7406 11.2209C15.7575 11.2356 15.7752 11.2527 15.7842 11.2725C15.8769 11.4774 15.9787 11.6795 16.0088 11.9062C16.0157 11.9579 16.0099 12.0112 16.0099 12.0826Z" fill="white"/>
<path d="M6.55564 12.7953C6.5433 12.7481 6.53215 12.7078 6.52227 12.6672C6.46426 12.4289 6.44401 12.1896 6.49483 11.9466C6.5059 11.8936 6.52885 11.8595 6.57719 11.8384C6.83646 11.7257 7.10616 11.6528 7.38816 11.6291C7.45287 11.6237 7.51922 11.622 7.58338 11.63C7.6512 11.6385 7.67363 11.6858 7.65673 11.7521C7.63813 11.8252 7.62558 11.8999 7.60374 11.9718C7.59497 12.0007 7.57356 12.031 7.5493 12.0491C7.34083 12.2051 7.1296 12.3573 6.92084 12.5129C6.80177 12.6016 6.68576 12.6945 6.55564 12.7953Z" fill="white"/>
<path d="M14.0898 8.7085C14.2269 8.75761 14.364 8.80664 14.501 8.85593C14.5176 8.86191 14.5332 8.87171 14.5502 8.87562C14.6488 8.89828 14.669 8.95848 14.683 9.05815C14.7117 9.26169 14.7718 9.4611 14.8236 9.66102C14.8766 9.86589 14.9351 10.0693 14.9911 10.2734C14.9931 10.2807 14.9942 10.2883 14.9953 10.2957C15.0146 10.4238 14.995 10.4433 14.872 10.404C14.764 10.3695 14.6584 10.3275 14.5517 10.2887C14.4977 10.269 14.463 10.2321 14.4523 10.1748C14.4267 10.0364 14.4011 9.89794 14.376 9.75941C14.3307 9.50935 14.2422 9.27449 14.1395 9.04268C14.0961 8.94479 14.0847 8.83273 14.0588 8.72712C14.0692 8.72091 14.0795 8.7147 14.0898 8.7085Z" fill="white"/>
<path d="M6.52346 16.0329C6.48055 15.8686 6.41829 15.7363 6.41092 15.5823C6.39416 15.2323 6.35908 14.8831 6.32901 14.5337C6.32303 14.4642 6.34707 14.4208 6.40775 14.3871C6.54041 14.3134 6.67004 14.2343 6.8016 14.1586C6.82408 14.1456 6.84994 14.1386 6.88972 14.1226C6.87525 14.1958 6.86557 14.2521 6.8529 14.3077C6.79423 14.5651 6.77814 14.8206 6.86358 15.0771C6.89364 15.1674 6.90904 15.2638 6.92013 15.3586C6.92584 15.4075 6.92082 15.4667 6.8974 15.5081C6.81687 15.6505 6.72827 15.7886 6.63779 15.925C6.61257 15.963 6.57022 15.9897 6.52346 16.0329Z" fill="white"/>
<path d="M15.3992 18.1614C15.2421 18.2827 15.082 18.3591 14.8915 18.3591C14.8792 18.3591 14.8649 18.3577 14.8547 18.3517C14.6509 18.2313 14.4412 18.1194 14.2469 17.9852C14.1541 17.9212 14.0897 17.8155 14.014 17.7274C13.9771 17.6845 13.9854 17.6442 14.0293 17.6101C14.0333 17.607 14.0365 17.6029 14.0407 17.6001C14.1732 17.5131 14.3028 17.4212 14.4392 17.3409C14.5605 17.2694 14.5853 17.2792 14.6574 17.3983C14.6926 17.4565 14.7192 17.52 14.7501 17.5808C14.8105 17.6994 14.8937 17.7995 15.0208 17.8444C15.1088 17.8755 15.1735 17.9292 15.2346 17.9938C15.2862 18.0484 15.3398 18.1011 15.3992 18.1614Z" fill="white"/>
<path d="M9.1268 17.8408C9.1268 18.0714 9.12832 18.2654 9.12559 18.4594C9.12501 18.5008 9.11557 18.545 9.09884 18.5829C9.0509 18.6916 9.00276 18.801 8.94322 18.9034C8.91461 18.9527 8.86655 18.9989 8.8162 19.0256C8.6683 19.1041 8.51046 19.1589 8.34099 19.1664C8.25956 19.1699 8.24821 19.1508 8.28029 19.0782C8.30582 19.0205 8.33754 18.9655 8.3628 18.9076C8.42735 18.7599 8.50128 18.6148 8.54926 18.4617C8.58336 18.3529 8.57942 18.2325 8.59607 18.1178C8.60911 18.028 8.62766 17.9389 8.64381 17.8495C8.65184 17.8051 8.67837 17.7891 8.72349 17.7861C8.81843 17.78 8.91313 17.7691 9.00761 17.7574C9.08842 17.7475 9.1277 17.7857 9.1268 17.8408Z" fill="white"/>
<path d="M7.86377 17.7887C7.84632 17.9827 7.82968 18.1679 7.81297 18.3531C7.81025 18.3832 7.80185 18.4139 7.80516 18.4433C7.82087 18.5829 7.76357 18.6819 7.64529 18.7523C7.51493 18.83 7.38647 18.9107 7.25659 18.9892C7.23844 19.0001 7.21694 19.0056 7.18156 19.0197C7.18156 18.8654 7.18134 18.725 7.18162 18.5845C7.18191 18.4387 7.15624 18.2998 7.09303 18.166C7.05563 18.0868 7.03487 17.9992 7.01301 17.9137C7.00946 17.8999 7.03712 17.8638 7.05384 17.8613C7.14597 17.8476 7.23927 17.842 7.33199 17.8319C7.45699 17.8183 7.58166 17.8016 7.7068 17.7895C7.75636 17.7847 7.80676 17.7887 7.86377 17.7887Z" fill="white"/>
<path d="M13.0953 19.2068C12.9678 19.3076 12.819 19.3541 12.6496 19.3306C12.6122 19.3254 12.5748 19.3194 12.5373 19.3142C12.3903 19.2935 12.2817 19.2265 12.2155 19.0848C12.1512 18.9471 12.0553 18.8303 11.9419 18.7253C11.8939 18.6809 11.875 18.604 11.8471 18.54C11.8435 18.5318 11.8626 18.506 11.8763 18.4996C11.9009 18.4881 11.9292 18.4834 11.9565 18.4793C12.088 18.4593 12.2193 18.4379 12.3513 18.422C12.4463 18.4105 12.4953 18.4359 12.5129 18.5288C12.5352 18.6468 12.6031 18.7273 12.6843 18.8051C12.8202 18.9354 12.9537 19.0681 13.0953 19.2068Z" fill="white"/>
<path d="M7.48775 16.7651C7.49864 16.7765 7.52357 16.7948 7.53826 16.8192C7.58504 16.897 7.62984 16.9762 7.67089 17.0572C7.67917 17.0735 7.67563 17.1063 7.66405 17.1206C7.52423 17.2934 7.38741 17.4692 7.23726 17.6327C7.18237 17.6925 7.09596 17.7251 7.02052 17.7635C6.98309 17.7825 6.95607 17.7588 6.93933 17.7196C6.84803 17.5057 6.75413 17.2929 6.664 17.0786C6.6578 17.0639 6.67025 17.0253 6.68205 17.0213C6.93534 16.9346 7.18976 16.8512 7.44406 16.7675C7.45102 16.7652 7.45917 16.7665 7.48775 16.7651Z" fill="white"/>
<path d="M12.5959 16.3979C12.7096 16.4388 12.8068 16.4736 12.9038 16.5088C12.9181 16.5139 12.9316 16.5211 12.9458 16.5264C13.0973 16.5831 13.1022 16.5873 13.094 16.7488C13.0806 17.013 13.1787 17.2473 13.2859 17.479C13.3381 17.5919 13.3149 17.6227 13.1877 17.6335C12.9866 17.6505 12.856 17.5724 12.7617 17.3911C12.6315 17.1407 12.5466 16.8842 12.5653 16.6C12.5695 16.5362 12.5842 16.4731 12.5959 16.3979Z" fill="white"/>
<path d="M10.8431 17.9907C10.8391 17.9238 10.8275 17.8689 10.8341 17.8162C10.8534 17.6617 10.8447 17.5125 10.8121 17.3586C10.787 17.2401 10.7987 17.1117 10.8093 16.989C10.8126 16.9521 10.8611 16.9015 10.8996 16.8883C11.0374 16.8412 11.1796 16.8061 11.3211 16.7704C11.3346 16.767 11.3671 16.7881 11.37 16.8021C11.4099 16.9922 11.4673 17.1879 11.4008 17.3766C11.3523 17.514 11.2642 17.6394 11.1816 17.762C11.1519 17.806 11.0862 17.8252 11.0379 17.8573C10.9794 17.8961 10.922 17.9366 10.8431 17.9907Z" fill="white"/>
<path d="M15.6038 17.7092C15.4755 17.6994 15.3852 17.6717 15.3323 17.5716C15.265 17.4442 15.1963 17.3175 15.1253 17.1922C15.0956 17.1398 15.1121 17.1067 15.1581 17.08C15.252 17.0253 15.3456 16.9698 15.4412 16.9183C15.4548 16.911 15.4886 16.9167 15.4974 16.9283C15.6769 17.1651 15.9369 17.2601 16.2084 17.3337C16.2712 17.3507 16.3027 17.3859 16.3104 17.4483C16.3218 17.5406 16.2825 17.5923 16.1903 17.5851C16.0674 17.5754 15.9571 17.6129 15.844 17.6506C15.7584 17.6792 15.6682 17.6939 15.6038 17.7092Z" fill="white"/>
<path d="M12.2186 16.5781C12.1954 17.0283 12.2184 17.4593 12.3138 17.8851C12.3044 17.8894 12.2951 17.8936 12.2857 17.8978C12.255 17.8745 12.2169 17.8566 12.1951 17.8268C12.1519 17.7678 12.0913 17.752 12.0266 17.7382C11.9674 17.7255 11.909 17.7094 11.8499 17.6965C11.7928 17.6841 11.7624 17.6502 11.7581 17.592C11.7483 17.4614 11.7393 17.3307 11.7277 17.2002C11.72 17.1124 11.7009 17.0249 11.7014 16.9373C11.7017 16.8916 11.7218 16.8343 11.7533 16.8026C11.8745 16.6805 12.0333 16.6294 12.2186 16.5781Z" fill="white"/>
<path d="M10.5752 17.8322C10.5705 17.8594 10.5694 17.8878 10.5605 17.9134C10.5347 17.9874 10.52 17.98 10.4474 17.9545C10.2131 17.8723 10.1107 17.6591 9.96636 17.488C9.8501 17.3502 9.85157 17.1677 9.79985 17.0055C9.78455 16.9575 9.8186 16.9267 9.86584 16.9014C9.94621 16.8585 10.0185 16.8707 10.0972 16.9008C10.1485 16.9204 10.2043 16.9294 10.2587 16.9397C10.4002 16.9665 10.4816 17.032 10.4872 17.172C10.4955 17.3803 10.5136 17.5852 10.5702 17.7861C10.5741 17.8002 10.5707 17.8164 10.5707 17.8316C10.5722 17.8318 10.5737 17.832 10.5752 17.8322Z" fill="white"/>
<path d="M14.709 13.4222C14.571 13.3842 14.4277 13.3596 14.2969 13.3049C14.143 13.2406 14.105 13.0872 14.0721 12.9387C14.0509 12.8427 14.0248 12.7476 14.0079 12.6508C14.0015 12.6138 14.0037 12.5673 14.021 12.5355C14.0834 12.4208 14.1536 12.3103 14.2217 12.1988C14.2304 12.1846 14.2447 12.1739 14.256 12.1621C14.4323 12.2864 14.7612 13.1944 14.709 13.4222Z" fill="white"/>
<path d="M11.1402 18.566C11.1282 18.6428 11.1183 18.7216 11.103 18.7994C11.0792 18.9207 11.053 19.0415 11.0252 19.1619C11.0086 19.2338 10.9673 19.2811 10.8989 19.3205C10.7748 19.392 10.6574 19.4766 10.5443 19.5649C10.4325 19.6522 10.3344 19.6723 10.2113 19.6053C10.1941 19.5959 10.1822 19.5555 10.186 19.5326C10.2055 19.4172 10.2805 19.333 10.3749 19.2784C10.4842 19.2151 10.5173 19.1223 10.5258 19.0095C10.5314 18.9339 10.5315 18.8575 10.5436 18.783C10.5488 18.7511 10.5722 18.7042 10.5974 18.6963C10.7652 18.644 10.9356 18.6003 11.1054 18.5545C11.1113 18.5529 11.1192 18.5588 11.1402 18.566Z" fill="white"/>
<path d="M8.63028 16.9645C8.49463 16.8923 8.37532 16.8289 8.25602 16.7654C8.25379 16.7642 8.25175 16.7626 8.24941 16.7617C8.0049 16.6732 7.95395 16.4607 7.91058 16.2404C7.88122 16.0912 7.89839 15.9541 7.99 15.8304C8.06619 15.7274 8.11304 15.717 8.22642 15.7747C8.42887 15.8778 8.46665 15.9647 8.44949 16.1874C8.44203 16.2842 8.47297 16.386 8.49706 16.4829C8.53051 16.6175 8.57414 16.7494 8.61287 16.8827C8.61884 16.9032 8.62191 16.9246 8.63028 16.9645Z" fill="white"/>
<path d="M16.531 21.9271C16.4993 21.8913 16.4641 21.858 16.4366 21.8192C16.3774 21.736 16.3182 21.6562 16.2127 21.624C16.1931 21.618 16.1755 21.579 16.1712 21.553C16.1304 21.3068 16.0901 21.0606 16.055 20.8136C16.0323 20.6545 16.018 20.4942 16.0011 20.3344C15.9988 20.3126 16.0034 20.2901 16.0053 20.2583C16.1203 20.2942 16.2141 20.3534 16.2917 20.4315C16.4043 20.5446 16.4717 20.6732 16.4758 20.8465C16.4833 21.1662 16.5198 21.4852 16.544 21.8045C16.5468 21.8414 16.5483 21.8785 16.5504 21.9155L16.531 21.9271Z" fill="white"/>
<path d="M15.0571 13.6694C15.2035 13.7036 15.3323 13.7321 15.46 13.7653C15.4767 13.7696 15.4935 13.7962 15.4991 13.8157C15.5122 13.8615 15.5281 13.9098 15.5256 13.9561C15.5199 14.064 15.5604 14.1569 15.5964 14.2545C15.6661 14.4435 15.7275 14.6358 15.7869 14.8283C15.8092 14.9004 15.7892 14.9135 15.7158 14.8923C15.6221 14.8651 15.5246 14.8474 15.4352 14.8101C15.3812 14.7876 15.3231 14.7449 15.295 14.6954C15.1784 14.4895 15.1041 14.2681 15.0885 14.0294C15.0837 13.9566 15.0717 13.8843 15.0646 13.8116C15.0608 13.7722 15.0603 13.7325 15.0571 13.6694Z" fill="white"/>
<path d="M15.494 16.4054C15.4575 16.4377 15.4405 16.4605 15.4177 16.4717C15.3137 16.523 15.2101 16.5732 15.0877 16.5665C14.934 16.558 14.7797 16.5598 14.6261 16.5505C14.5861 16.5481 14.5388 16.5305 14.5099 16.5037C14.3804 16.3835 14.2544 16.2593 14.1311 16.1328C14.0618 16.0618 14.0633 16.0549 14.1474 16.0082C14.2328 15.9608 14.3218 15.9195 14.4109 15.8789C14.4559 15.8584 14.4959 15.8695 14.5348 15.9051C14.6891 16.0462 14.8616 16.1547 15.0632 16.2211C15.2055 16.268 15.3401 16.3385 15.494 16.4054Z" fill="white"/>
<path d="M14.4951 18.8416C14.2672 18.873 14.056 18.9133 13.8402 18.8745C13.7164 18.8521 13.6317 18.7652 13.5388 18.6916C13.393 18.5761 13.3017 18.4237 13.2391 18.2517C13.2342 18.2382 13.2353 18.2224 13.2322 18.1949C13.3338 18.1949 13.4321 18.2019 13.529 18.1933C13.6877 18.1793 13.8082 18.2268 13.939 18.3293C14.1232 18.4735 14.2881 18.6351 14.4575 18.7935C14.4679 18.8032 14.4754 18.8161 14.4951 18.8416Z" fill="white"/>
<path d="M7.97055 24.3049C7.88447 24.3049 7.79839 24.3051 7.71231 24.3048C7.60742 24.3044 7.58681 24.2596 7.63347 24.1595C7.667 24.0876 7.69439 24.011 7.71105 23.9336C7.73008 23.8452 7.73115 23.7531 7.74568 23.6636C7.75871 23.5833 7.77622 23.4974 7.85738 23.4593C7.89745 23.4405 7.95825 23.4361 7.99844 23.4526C8.14265 23.5116 8.2522 23.6171 8.33695 23.7468C8.35384 23.7726 8.36642 23.8081 8.36457 23.8382C8.35637 23.9716 8.34212 24.1047 8.33022 24.2379C8.32545 24.2913 8.29685 24.3083 8.24394 24.306C8.15297 24.302 8.06169 24.3049 7.97055 24.3049Z" fill="white"/>
<path d="M9.34691 19.1535C9.34301 19.1382 9.34124 19.1354 9.34195 19.1335C9.42554 18.9094 9.50905 18.6853 9.59325 18.4614C9.61677 18.3989 9.66052 18.3656 9.73008 18.3613C9.83788 18.3547 9.94518 18.34 10.053 18.3334C10.1156 18.3295 10.1585 18.3566 10.1671 18.4265C10.1912 18.622 10.1202 18.7844 9.9882 18.9205C9.90545 19.0059 9.81028 19.072 9.68199 19.0852C9.57043 19.0966 9.46104 19.1293 9.34691 19.1535Z" fill="white"/>
<path d="M6.6909 16.8141C6.68223 16.7248 6.67613 16.6352 6.66424 16.5463C6.64948 16.4359 6.66033 16.32 6.57628 16.2254C6.53734 16.1816 6.55506 16.1353 6.60667 16.0983C6.75568 15.9915 6.9029 15.882 7.04776 15.7696C7.09178 15.7355 7.12398 15.7343 7.1542 15.7789C7.22446 15.8827 7.29355 15.9874 7.3618 16.0925C7.38677 16.131 7.37399 16.16 7.33902 16.1897C7.2081 16.3008 7.07685 16.412 6.95218 16.53C6.90232 16.5772 6.87091 16.6434 6.82796 16.6985C6.79328 16.743 6.75389 16.7838 6.71659 16.8262C6.70803 16.8222 6.69946 16.8181 6.6909 16.8141Z" fill="white"/>
<path d="M19.7229 19.5555C19.7082 19.4622 19.6998 19.3799 19.6815 19.2999C19.6636 19.2215 19.6494 19.1372 19.6094 19.0699C19.4904 18.8697 19.4574 18.6435 19.3943 18.4263C19.3873 18.4021 19.3795 18.3779 19.3754 18.3531C19.3719 18.3323 19.3731 18.3108 19.3723 18.2896C19.3987 18.2906 19.4325 18.2818 19.4499 18.2948C19.4852 18.3212 19.5095 18.3617 19.5423 18.3922C19.5736 18.4213 19.6063 18.4537 19.6447 18.4695C19.7235 18.502 19.807 18.5229 19.8874 18.552C19.9039 18.558 19.9199 18.5765 19.9281 18.5932C20.0866 18.9183 20.0047 19.2555 19.7798 19.5129C19.7663 19.5284 19.7463 19.5383 19.7229 19.5555Z" fill="white"/>
<path d="M15.0195 15.3743C15.0565 15.3614 15.0904 15.3432 15.1263 15.3383C15.2238 15.325 15.3221 15.3174 15.4201 15.3076C15.4966 15.2999 15.5433 15.3411 15.5781 15.4029C15.6527 15.535 15.7247 15.6688 15.8043 15.7979C15.8302 15.8398 15.8752 15.8706 15.9136 15.9041C15.9342 15.9221 15.9681 15.9301 15.98 15.9514C15.9924 15.9738 15.9912 16.0083 15.9845 16.0345C15.9815 16.046 15.949 16.0584 15.9315 16.0563C15.7562 16.0359 15.5817 16.0091 15.4062 15.9913C15.3211 15.9827 15.2615 15.9461 15.2291 15.8699C15.1907 15.7792 15.1594 15.6855 15.1215 15.5946C15.0916 15.5229 15.0564 15.4534 15.0195 15.3743Z" fill="white"/>
<path d="M11.2662 20.9907C11.0783 20.9662 10.9014 20.9261 10.7859 20.7812C10.6799 20.6483 10.5827 20.5026 10.5499 20.3278C10.5476 20.3153 10.5445 20.303 10.5432 20.2905C10.5293 20.1574 10.5374 20.1492 10.6715 20.1407C10.7871 20.1333 10.9025 20.1229 11.0181 20.1147C11.0715 20.111 11.104 20.129 11.1059 20.1906C11.1085 20.2738 11.1221 20.3567 11.1237 20.4398C11.127 20.6108 11.1935 20.7647 11.2462 20.9225C11.2524 20.9411 11.2573 20.96 11.2662 20.9907Z" fill="white"/>
<path d="M9.32164 17.2673C9.29083 17.1993 9.25252 17.1337 9.23065 17.0629C9.16903 16.8635 9.09403 16.6722 8.95903 16.5089C8.94417 16.4909 8.93648 16.4578 8.94097 16.4347C8.9597 16.3383 8.98516 16.2433 9.00657 16.1474C9.02158 16.0802 9.04598 16.0687 9.11542 16.0953C9.27223 16.1555 9.36759 16.2542 9.42561 16.425C9.52769 16.7256 9.46931 16.9938 9.32164 17.2673Z" fill="white"/>
<path d="M18.1946 20.9659C18.2165 20.871 18.2336 20.7746 18.2616 20.6816C18.2883 20.5929 18.2688 20.5191 18.2019 20.463C18.1043 20.3812 18.0794 20.2753 18.0848 20.1573C18.0906 20.0321 18.0657 19.917 17.995 19.8112C17.9836 19.7941 17.9874 19.7498 18.0016 19.7354C18.0746 19.6618 18.1524 19.593 18.2302 19.5243C18.2734 19.4861 18.3127 19.4893 18.3193 19.5532C18.3378 19.7342 18.4196 19.8961 18.4658 20.0674C18.4975 20.1846 18.4641 20.3223 18.4464 20.449C18.4225 20.6188 18.351 20.773 18.2604 20.918C18.2477 20.9385 18.2306 20.9562 18.2155 20.9751C18.2085 20.9721 18.2016 20.969 18.1946 20.9659Z" fill="white"/>
<path d="M17.2628 19.3164C17.4072 19.4361 17.5003 19.5676 17.5213 19.7532C17.542 19.9351 17.5861 20.1146 17.6237 20.2944C17.6518 20.4289 17.5527 20.5745 17.3813 20.6259C17.3735 20.5633 17.3649 20.5027 17.3589 20.4418C17.356 20.4118 17.3546 20.3808 17.3585 20.351C17.3858 20.1431 17.3036 19.9791 17.1639 19.8323C17.0495 19.712 17.0494 19.6594 17.1378 19.5161C17.1773 19.452 17.2177 19.3883 17.2628 19.3164Z" fill="white"/>
<path d="M17.8452 19.3451C17.8013 19.2954 17.7644 19.2632 17.7393 19.2237C17.654 19.0893 17.5714 18.9532 17.4919 18.8154C17.4813 18.797 17.4855 18.759 17.498 18.74C17.5818 18.6124 17.6534 18.4805 17.6834 18.3286C17.6944 18.2732 17.7309 18.287 17.7636 18.3077C17.8587 18.3679 17.9033 18.4646 17.9443 18.5632C17.9646 18.6121 17.988 18.6606 18.0002 18.7117C18.017 18.7815 18.0421 18.8561 18.0322 18.9242C18.0107 19.0733 17.9255 19.1988 17.8452 19.3451Z" fill="white"/>
<path d="M22.1841 24.311C22.0886 24.3049 21.9919 24.3058 21.8978 24.2907C21.8123 24.277 21.8146 24.2596 21.8598 24.1893C21.9099 24.1114 21.9545 24.0284 21.9896 23.9428C22.0551 23.7829 22.17 23.6992 22.3441 23.6984C22.5535 23.6973 22.5604 23.6977 22.5507 23.909C22.5454 24.0231 22.5153 24.1368 22.4877 24.2485C22.4819 24.2721 22.4396 24.2997 22.4119 24.3025C22.3367 24.31 22.2603 24.3051 22.1844 24.3051C22.1843 24.307 22.1842 24.309 22.1841 24.311Z" fill="white"/>
<path d="M19.5996 18.1382C19.5535 18.0983 19.527 18.0763 19.5015 18.0531C19.3776 17.9408 19.2502 17.8322 19.1314 17.7147C19.0004 17.5852 18.8763 17.4485 18.7523 17.3121C18.7336 17.2916 18.7321 17.2554 18.7227 17.2265C18.7508 17.225 18.7817 17.2152 18.8066 17.2235C18.9962 17.2861 19.1927 17.336 19.3709 17.4228C19.5012 17.4862 19.6093 17.6114 19.6369 17.7561C19.6585 17.869 19.6163 17.9939 19.5996 18.1382Z" fill="white"/>
<path d="M16.9085 16.8721C16.7975 16.8721 16.6866 16.8719 16.5757 16.8722C16.553 16.8723 16.5275 16.8679 16.5081 16.8765C16.3727 16.9362 16.2649 16.888 16.1626 16.7987C16.1095 16.7523 16.0499 16.7129 15.9913 16.6734C15.9555 16.6492 15.9509 16.622 15.9774 16.5921C16.0037 16.5624 16.0324 16.5334 16.0646 16.5106C16.117 16.4734 16.1757 16.445 16.2271 16.4067C16.3178 16.3391 16.3873 16.3477 16.4745 16.4178C16.6279 16.5412 16.7893 16.6545 16.9456 16.7744C16.9683 16.7918 16.9811 16.8221 16.9984 16.8465C16.9711 16.8637 16.9438 16.8809 16.9164 16.8981C16.9138 16.8894 16.9111 16.8807 16.9085 16.8721Z" fill="white"/>
<path d="M15.4315 24.3049C15.3784 24.3049 15.325 24.301 15.2724 24.3059C15.1976 24.3128 15.1823 24.273 15.199 24.2147C15.2302 24.1059 15.2668 23.9987 15.3017 23.8911C15.3087 23.8695 15.325 23.8489 15.3254 23.8276C15.3281 23.6798 15.4288 23.6547 15.5748 23.6574C15.6199 23.6582 15.6657 23.6555 15.7096 23.6634C15.7305 23.6671 15.7589 23.6883 15.7649 23.7075C15.8254 23.901 15.8099 24.0867 15.6898 24.2548C15.6716 24.2803 15.6307 24.2981 15.5979 24.3028C15.5434 24.3106 15.487 24.3049 15.4315 24.3049Z" fill="white"/>
<path d="M22.9805 24.2928C23.0417 24.1413 23.0932 23.9909 23.1629 23.8496C23.2118 23.7504 23.2632 23.7471 23.3731 23.7746C23.4355 23.7902 23.5032 23.7897 23.5682 23.788C23.6454 23.7859 23.687 23.8254 23.7069 23.8921C23.7566 24.0589 23.6732 24.2004 23.5365 24.2946C23.5252 24.3025 23.5078 24.3043 23.4932 24.3043C23.3388 24.3049 23.1843 24.3048 23.0298 24.3041C23.018 24.3041 23.0063 24.2989 22.9805 24.2928Z" fill="white"/>
<path d="M11.821 19.8599C11.9492 19.8927 12.078 19.9233 12.2049 19.9605C12.2271 19.9671 12.2528 19.9996 12.257 20.0236C12.2871 20.192 12.3129 20.3612 12.3373 20.5306C12.3406 20.554 12.3362 20.5931 12.3217 20.6015C12.2947 20.6171 12.2456 20.6322 12.2268 20.6186C12.0864 20.5169 11.9439 20.4158 11.8182 20.2974C11.7716 20.2536 11.767 20.1645 11.7458 20.0952C11.7356 20.0616 11.7325 20.026 11.7242 19.9918C11.6995 19.8908 11.7161 19.8695 11.821 19.8599Z" fill="white"/>
<path d="M23 22.4792C22.9711 22.4415 22.9521 22.4222 22.9396 22.3994C22.9057 22.3372 22.8724 22.2745 22.8427 22.2102C22.7994 22.1166 22.7413 22.0381 22.657 21.9753C22.5588 21.902 22.5518 21.8463 22.5964 21.7308C22.6226 21.6628 22.6468 21.5926 22.6596 21.5212C22.6714 21.4552 22.7017 21.4558 22.7493 21.4774C22.8629 21.5288 22.9232 21.6217 22.9423 21.7402C22.9509 21.7941 22.975 21.8233 23.0218 21.8487C23.1366 21.9108 23.1391 21.9327 23.1029 22.0598C23.0759 22.1543 23.0607 22.252 23.0386 22.3479C23.0299 22.3858 23.0168 22.4226 23 22.4792Z" fill="white"/>
<path d="M13.949 16.874C13.6289 16.8232 13.4881 16.757 13.4037 16.4883C13.3773 16.4041 13.3504 16.32 13.3233 16.236C13.3085 16.1903 13.3277 16.1741 13.3715 16.1798C13.4783 16.1937 13.5854 16.2056 13.6913 16.2242C13.7118 16.2278 13.7379 16.255 13.7442 16.2763C13.7944 16.4483 13.8747 16.6034 13.9831 16.746C14.0024 16.7715 14.0019 16.8166 13.999 16.8517C13.9982 16.8623 13.9589 16.8699 13.949 16.874Z" fill="white"/>
<path d="M24.4242 23.3384C24.4568 23.3835 24.4828 23.4163 24.5055 23.4513C24.599 23.5951 24.6916 23.7394 24.7839 23.8839C24.796 23.9029 24.81 23.9235 24.8133 23.9448C24.8186 23.9798 24.8301 24.0317 24.8127 24.0478C24.7905 24.0682 24.7418 24.0647 24.7049 24.0631C24.6229 24.0596 24.541 24.0518 24.4593 24.0438C24.3875 24.0369 24.3148 24.0323 24.2446 24.0173C24.197 24.0071 24.1764 23.9692 24.1913 23.9175C24.2045 23.8716 24.2093 23.8226 24.2278 23.7792C24.2886 23.6362 24.3539 23.4952 24.4242 23.3384Z" fill="white"/>
<path d="M16.948 17.6786C17.0417 17.5185 17.1289 17.3694 17.2181 17.2168C17.3737 17.3291 17.4825 17.4571 17.4953 17.6619C17.5027 17.7809 17.473 17.851 17.3738 17.9079C17.3184 17.9396 17.273 17.9888 17.2136 18.038C17.1603 17.8835 17.0731 17.7634 16.948 17.6786Z" fill="white"/>
<path d="M23.0914 20.3511C23.1063 20.373 23.1211 20.395 23.1362 20.4168C23.1759 20.4743 23.2208 20.5289 23.2539 20.59C23.2783 20.6352 23.2951 20.6877 23.302 20.7388C23.3244 20.9058 23.3449 21.0733 23.3565 21.2413C23.3597 21.2874 23.3288 21.3358 23.3135 21.3832C23.2779 21.3507 23.235 21.3233 23.2084 21.2847C23.1672 21.2246 23.1413 21.1542 23.1013 21.0931C23.0603 21.0305 23.0142 20.97 22.9625 20.916C22.9308 20.8829 22.9277 20.8584 22.9526 20.8249C22.9571 20.8188 22.9611 20.8117 22.9671 20.8075C23.0727 20.7335 23.072 20.6303 23.055 20.5173C23.047 20.4644 23.0599 20.4084 23.0633 20.3538C23.0727 20.3529 23.082 20.352 23.0914 20.3511Z" fill="white"/>
</g>
<defs>
<clipPath id="clip0_4674_4871">
<rect width="32" height="32" fill="white"/>
</clipPath>
</defs>
</svg>
