<svg width="32" height="32" viewBox="0 0 32 32" fill="none" xmlns="http://www.w3.org/2000/svg">
<path fill-rule="evenodd" clip-rule="evenodd" d="M23.1722 21.7201C23.2064 21.6633 23.2314 21.6013 23.2462 21.5366C23.2962 21.3644 23.2878 21.1601 23.2522 20.9847C23.2254 20.9414 23.1736 20.8706 23.1034 20.9029C23.043 20.9648 23.0118 21.046 22.9803 21.1275C22.956 21.1899 22.9318 21.2529 22.8942 21.3072L22.9 21.3147C22.898 21.3176 22.8965 21.3211 22.8951 21.3242L22.8893 21.3349L23.1722 21.7201ZM22.9604 22.4408L22.9711 22.4206C22.9711 22.4183 22.9699 22.4165 22.9691 22.4148C22.9685 22.4134 22.9676 22.4119 22.9673 22.4099L22.974 22.3977L22.9769 22.3925C22.974 22.3472 22.9431 22.3278 22.9104 22.3079C22.8867 22.2928 22.8619 22.2775 22.8468 22.2509C22.8318 22.2045 22.8316 22.1545 22.8463 22.1079L22.8549 22.0779C22.8633 22.0501 22.8714 22.023 22.876 21.9958L22.8754 21.9943L22.876 21.9909L22.8769 21.9877L22.878 21.9839L22.8786 21.9813C22.8799 21.9769 22.8811 21.9723 22.8821 21.9678C22.8307 21.8227 22.7081 21.6846 22.5709 21.5979L22.4099 21.9287L22.4128 21.9331L22.4137 21.9348L22.4033 21.9559C22.4495 22.0484 22.5169 22.1322 22.5839 22.216C22.6943 22.3532 22.8047 22.4905 22.8211 22.6644C22.8792 22.5954 22.9205 22.5171 22.9604 22.4408ZM22.2105 20.5267L22.2128 20.527C22.192 20.4155 22.2042 20.3094 22.2169 20.2013C22.2261 20.123 22.2354 20.0439 22.2319 19.9606C22.1533 19.8294 22.0189 19.8092 21.8831 19.789C21.7343 19.7667 21.5841 19.7442 21.5037 19.5752L21.2124 19.5951C21.1026 19.622 21.0662 19.7023 21.0518 19.7962C21.0414 19.8456 21.0385 19.9 21.0356 19.9531C21.0339 19.991 21.0318 20.0283 21.0269 20.0629C21.0203 20.0755 21.0132 20.0877 21.0056 20.0996C20.9882 20.1268 20.9709 20.1543 20.9663 20.1875C20.9601 20.203 20.9575 20.2197 20.9585 20.2363C21.0278 20.2167 21.0856 20.1716 21.1434 20.1265C21.2139 20.0716 21.2844 20.0167 21.3757 20.0086C21.6277 20.0127 21.8528 20.1138 22.0097 20.3305C22.0504 20.3574 22.0701 20.4025 22.0889 20.4449C22.1137 20.5022 22.1369 20.555 22.2068 20.555C22.2058 20.5495 22.2053 20.5439 22.2053 20.5383C22.2053 20.5339 22.2051 20.5296 22.2045 20.5256C22.2068 20.5256 22.2085 20.5264 22.2105 20.5267ZM22.0002 21.4346C22.0083 21.402 22.0163 21.3696 22.0239 21.337C22.0441 21.2543 22.0614 21.1702 22.0635 21.0786C22.036 20.9526 21.9727 20.831 21.8623 20.7492C21.7606 20.7492 21.6788 20.6932 21.5968 20.6371C21.5037 20.5735 21.4104 20.51 21.2864 20.5264C21.2194 20.512 21.1567 20.538 21.0937 20.5643C21.0422 20.5859 20.9905 20.6076 20.9356 20.6076C20.9033 20.64 20.879 20.677 20.8547 20.714C20.8384 20.7395 20.8208 20.7643 20.8021 20.7882C20.7989 20.7977 20.7946 20.8084 20.79 20.8194C20.7799 20.8446 20.7686 20.8726 20.7648 20.8992C20.749 20.9521 20.7495 21.0041 20.8273 21.024C20.9018 21.0266 20.9824 21.0171 21.0642 21.0072C21.2598 20.9841 21.4612 20.9607 21.6005 21.0988C21.6537 21.1402 21.6442 21.2159 21.6364 21.2792C21.6344 21.2938 21.6328 21.3086 21.6317 21.3234L21.962 21.5987C21.973 21.543 21.9866 21.4887 22.0002 21.4346ZM21.506 22.1917L21.5719 22.1252V22.1203C21.5716 22.1184 21.5712 22.1165 21.5708 22.1146C21.5701 22.1116 21.5697 22.1086 21.5696 22.1056L21.5774 22.0981C21.5936 21.929 21.4601 21.8068 21.3332 21.7123C21.2988 21.6927 21.2575 21.6857 21.2165 21.6791C21.161 21.6701 21.1064 21.6612 21.072 21.6199C21.0749 21.6147 21.0761 21.6083 21.0778 21.6025L21.0789 21.5976L21.0801 21.5941C21.1073 21.5326 21.1087 21.4526 21.105 21.3901C20.9749 21.3901 20.892 21.35 20.7862 21.2881C20.7706 21.2832 20.7552 21.2773 20.7403 21.2705C20.6915 21.2494 20.6467 21.2301 20.6045 21.2878C20.51 21.352 20.4583 21.4306 20.4089 21.5057C20.3554 21.5866 20.3051 21.6635 20.2066 21.7123C20.2129 21.7152 20.2193 21.7152 20.2254 21.7158C20.2296 21.7161 20.2339 21.7166 20.2381 21.7172L20.234 21.7201L20.23 21.723C20.221 21.7291 20.2121 21.7352 20.2017 21.7404C20.3057 21.7878 20.4374 21.7103 20.5412 21.6493L20.5603 21.6381C20.6588 21.6138 20.7414 21.669 20.8166 21.7201C20.8351 21.7577 20.8316 21.7938 20.8281 21.8297C20.8252 21.8534 20.8229 21.877 20.8275 21.9007C21.0645 21.9675 21.2968 22.0539 21.506 22.1917ZM20.3438 15.6207C20.338 15.6435 20.3323 15.6661 20.3279 15.688C20.3135 15.7481 20.3048 15.8065 20.3433 15.8556C20.408 15.7831 20.5022 15.7617 20.5955 15.7406C20.6389 15.7308 20.6819 15.7213 20.7218 15.7062C21.0154 15.6802 21.2983 15.7528 21.5745 15.8238C21.628 15.8374 21.6812 15.8513 21.734 15.8643C21.7303 15.8582 21.7271 15.8521 21.7239 15.8461L21.7202 15.8392C21.7187 15.8362 21.7172 15.8333 21.7155 15.8305L21.7398 15.8363C21.706 15.7831 21.6768 15.727 21.6476 15.6716C21.606 15.5915 21.565 15.5126 21.5112 15.4436C21.4555 15.4291 21.391 15.4306 21.3275 15.432C21.1836 15.4361 21.0443 15.4395 21.0229 15.2537C20.9397 15.1832 20.8215 15.2037 20.7192 15.2214C20.688 15.2274 20.6566 15.2318 20.625 15.2347C20.5162 15.3105 20.4259 15.41 20.3609 15.5256C20.3609 15.53 20.36 15.5343 20.3589 15.5392C20.3581 15.5429 20.3576 15.5465 20.3571 15.5502L20.3563 15.5514L20.3554 15.5528C20.3537 15.5751 20.35 15.5973 20.3444 15.619L20.3438 15.6207ZM21.4361 16.5592C21.5318 16.572 21.626 16.5844 21.7138 16.5832C21.7109 16.5777 21.7074 16.5725 21.704 16.5673C21.702 16.5647 21.7001 16.562 21.6982 16.5592L21.6968 16.5564L21.6953 16.5543H21.6994L21.7063 16.5549L21.7124 16.5552L21.721 16.5555C21.6612 16.4495 21.578 16.3431 21.5037 16.2527C21.4941 16.2489 21.4845 16.245 21.4748 16.2411L21.4523 16.2322C21.3604 16.1946 21.2708 16.1585 21.1648 16.1585C20.9608 16.0385 20.807 16.1628 20.6548 16.2859C20.6071 16.3246 20.5594 16.3633 20.5103 16.3943C20.4807 16.4523 20.4621 16.5153 20.4554 16.58C20.4435 16.6546 20.4461 16.7312 20.4776 16.7916C20.5759 16.7647 20.6788 16.7364 20.7614 16.6662C20.9492 16.4951 21.198 16.5278 21.4361 16.5592ZM22.2987 17.0002C22.1721 16.9569 22.0736 17.0236 21.9837 17.0947C21.8352 17.1877 21.8141 17.1002 21.7909 17.004C21.7727 16.9297 21.7534 16.8502 21.6728 16.8468L21.6323 16.8592C21.404 16.93 21.1685 17.0031 20.9157 16.98C20.8603 17.0033 20.8075 17.0323 20.7582 17.0667C20.6698 17.1233 20.5837 17.1788 20.4704 17.1684L20.4701 17.1751L20.4695 17.1823C20.4695 17.1872 20.4689 17.1918 20.4687 17.1964H20.4675C20.4668 17.1966 20.4661 17.1966 20.4655 17.1964L20.462 17.2484C20.4533 17.3669 20.4441 17.499 20.4851 17.601C20.4851 17.59 20.4851 17.5776 20.497 17.5741C20.512 17.5877 20.5134 17.6091 20.5149 17.6304C20.5166 17.6588 20.5184 17.6868 20.5524 17.6955C20.6406 17.6518 20.7232 17.5929 20.805 17.5348L20.8434 17.5077C20.9763 17.5077 21.0821 17.4432 21.1873 17.3791C21.2919 17.3155 21.3956 17.2519 21.5248 17.2519C21.958 17.3299 22.3882 17.4169 22.7656 17.6293C22.7647 17.622 22.7634 17.6148 22.7616 17.6076C22.7606 17.6037 22.7597 17.5998 22.759 17.5958L22.7613 17.597L22.7647 17.5984L22.7679 17.5998L22.7714 17.6013C22.7442 17.347 22.5229 17.1138 22.2987 17.0002ZM22.1969 19.4778C22.2773 19.5165 22.3596 19.5564 22.4356 19.6032L22.4298 19.5691C22.4319 19.5702 22.4339 19.5714 22.4359 19.572C22.4379 19.5731 22.4397 19.5737 22.4411 19.5749L22.4015 19.3388C22.3975 19.2093 22.3125 19.1394 22.2273 19.0695C22.1444 19.001 22.0608 18.9325 22.0507 18.8083C21.7869 18.7221 21.4916 18.6941 21.2119 18.7609C21.146 18.821 21.0587 18.8317 20.9738 18.8418C20.942 18.8455 20.9108 18.8493 20.8813 18.8556C20.8798 18.8627 20.8801 18.8701 20.8822 18.877L20.8833 18.8825L20.8793 18.8831H20.8778L20.8764 18.8837H20.8752C20.8706 18.903 20.8764 18.9181 20.8822 18.9334C20.8859 18.9423 20.8894 18.9519 20.8908 18.9623C20.8995 18.9799 20.9082 18.9996 20.9174 19.0198C20.9631 19.1212 21.018 19.2434 21.0995 19.253C21.3324 19.151 21.6708 19.0874 21.9314 19.1981C22.0181 19.2137 22.0181 19.3119 21.9987 19.3755C22.0603 19.4116 22.1279 19.4443 22.1969 19.4778ZM22.4385 18.5254C22.5587 18.5803 22.6775 18.6349 22.8015 18.584C22.8008 18.5794 22.7999 18.5747 22.7989 18.5702C22.7981 18.5666 22.7974 18.563 22.7968 18.5595C22.7984 18.5588 22.8001 18.5584 22.8017 18.558L22.8067 18.5569C22.7902 18.4208 22.7572 18.2939 22.7234 18.1653L22.7047 18.0931C22.6116 18.0772 22.5342 18.0263 22.4567 17.9755C22.3995 17.9379 22.3423 17.9003 22.279 17.8766C22.2126 17.9396 22.125 17.9864 22.0424 17.9786C21.9745 17.9619 21.9073 17.943 21.8407 17.922C21.5864 17.8443 21.3104 17.7602 21.0691 17.9119C20.9986 17.9974 20.8929 18.0122 20.7868 18.0272C20.7267 18.0356 20.6663 18.044 20.612 18.0653V18.0682L20.6126 18.0708L20.6129 18.0749L20.6134 18.0798L20.6146 18.0896L20.6123 18.0905C20.6103 18.091 20.6085 18.0913 20.6071 18.0922C20.6155 18.2269 20.6305 18.3563 20.6666 18.4785C20.729 18.5441 20.8241 18.5505 20.9183 18.5566C20.9478 18.5589 20.9773 18.5609 21.0056 18.5646L21.348 18.4317C21.3483 18.4251 21.3457 18.4196 21.3428 18.4144L21.3399 18.4089L21.3538 18.4034C21.3555 18.3751 21.3353 18.3557 21.3151 18.3361C21.2966 18.3185 21.2781 18.3005 21.2763 18.2757C21.3324 18.2196 21.3997 18.2208 21.4691 18.2222C21.5165 18.2231 21.565 18.224 21.6115 18.2066C21.6664 18.1991 21.7219 18.176 21.7771 18.1529C21.8892 18.1058 22.0016 18.059 22.1117 18.1404C22.1107 18.1488 22.1108 18.1573 22.112 18.1656L22.1123 18.1685C22.1121 18.1691 22.1119 18.1698 22.1117 18.1705V18.1728C22.1117 18.1754 22.1109 18.1779 22.1094 18.18C22.1077 18.1841 22.1068 18.1884 22.1068 18.1927C22.1067 18.1958 22.1064 18.1988 22.1057 18.2017C22.1051 18.2026 22.1051 18.2034 22.1051 18.204C22.1051 18.2046 22.1051 18.206 22.1042 18.2066C22.0522 18.3291 22.1397 18.4034 22.2339 18.4505C22.3033 18.4635 22.3712 18.4944 22.4385 18.5254ZM19.7026 19.7144L19.7072 19.7248C19.6965 19.6278 19.7113 19.5226 19.726 19.4177C19.7558 19.2079 19.7853 18.9975 19.6116 18.8478C19.5815 18.7663 19.4902 18.7785 19.4174 18.7883C19.4056 18.79 19.394 18.7912 19.3836 18.7924L19.2611 18.84C19.2622 18.8447 19.264 18.849 19.2663 18.8536L19.2677 18.8571L19.2686 18.8594L19.2698 18.8623L19.2559 18.8675C19.2622 18.8955 19.2732 18.9207 19.2854 18.9475L19.2952 18.9698C19.4489 19.222 19.5945 19.4807 19.7015 19.7523C19.7003 19.7442 19.7006 19.7358 19.7006 19.7271V19.7211L19.7003 19.7092L19.7026 19.7144ZM19.0438 20.1681L19.0449 20.1684C19.0556 20.0664 19.0695 19.9656 19.0834 19.8647C19.11 19.6705 19.1365 19.4763 19.1394 19.272C19.0637 19.1723 18.9698 19.1172 18.8747 19.0611C18.8458 19.0441 18.817 19.027 18.7886 19.0088V18.9944C18.8089 18.9311 18.8603 18.864 18.9375 18.8759C18.9464 18.8652 18.96 18.8548 18.9742 18.8438C19.0051 18.8198 19.0392 18.7929 19.0386 18.7586C19.0484 18.7409 19.0525 18.7219 19.0369 18.6985C18.9597 18.6216 18.9135 18.5236 18.8681 18.4283C18.793 18.2702 18.7207 18.1188 18.5176 18.0792C18.4032 18.0321 18.3754 17.9136 18.3639 17.8047C18.2099 17.6738 17.9816 17.6308 17.7877 17.6267C17.7984 17.6331 17.8091 17.6406 17.8198 17.6478L17.8359 17.6588L17.8244 17.6579L17.8128 17.6567C17.8027 17.6559 17.7926 17.6547 17.7825 17.6544C17.9443 17.7527 18.1289 17.8943 18.2153 18.0671C18.296 18.3008 18.4046 18.5213 18.513 18.7415C18.5907 18.8993 18.6681 19.0568 18.7355 19.2192L18.773 19.3931C18.817 19.5972 18.8586 19.791 18.9169 20.0002C18.9245 20.0187 18.9288 20.0424 18.9334 20.0667C18.9456 20.1332 18.9586 20.2045 19.0395 20.1967L19.0406 20.1875L19.0424 20.1751L19.0438 20.1681ZM18.695 20.6345C18.7036 20.6173 18.7078 20.5982 18.7071 20.579C18.7326 20.4961 18.6687 20.5007 18.6109 20.5048C18.589 20.5065 18.5682 20.5077 18.5531 20.5048C18.5086 20.4935 18.463 20.4643 18.4708 20.4083C18.4823 20.3834 18.491 20.3577 18.4968 20.3314C18.5396 20.1892 18.5014 20.0326 18.4662 19.8875C18.4563 19.8471 18.4465 19.8075 18.439 19.7694C18.4179 19.6977 18.4196 19.6148 18.4211 19.5324C18.4234 19.4301 18.4254 19.3284 18.3835 19.2501C18.3396 19.3102 18.2665 19.3541 18.1934 19.3983C18.0807 19.4662 17.9677 19.5341 17.9631 19.6607C17.9548 19.7024 17.9576 19.7455 17.9712 19.7858C18.1393 19.9396 18.118 20.1519 18.0966 20.3623C18.0925 20.4036 18.0882 20.4447 18.0856 20.4854C18.0671 20.5738 18.126 20.5796 18.189 20.586C18.2327 20.5903 18.2786 20.5949 18.3029 20.627C18.4167 20.796 18.3621 21.0373 18.3188 21.2286L18.3101 21.2682C18.3433 21.2176 18.3783 21.1691 18.413 21.1208C18.4896 21.0145 18.5647 20.9099 18.6216 20.7882C18.6196 20.7559 18.6375 20.7313 18.6566 20.7053C18.6722 20.6842 18.6884 20.6622 18.695 20.6345ZM17.89 18.988C17.9073 18.9701 17.9249 18.9524 17.9434 18.936C17.95 18.9166 17.954 18.8963 17.9553 18.8759C17.9726 18.782 17.9267 18.7065 17.881 18.6317C17.8553 18.5895 17.8296 18.5479 17.8154 18.5028C17.801 18.4638 17.7981 18.4199 17.7952 18.3757C17.7917 18.3127 17.788 18.2491 17.7481 18.2006L17.7206 18.1827C17.6764 18.1529 17.6279 18.1202 17.579 18.1335L17.5762 18.1607H17.573L17.5187 18.6996L17.7232 19.0969C17.7906 19.0889 17.84 19.0386 17.89 18.988ZM17.5019 20.5932C17.5472 20.44 17.5929 20.2875 17.6137 20.1271L17.6157 20.1149C17.6169 20.1103 17.6177 20.1051 17.6183 20.1005C17.6108 20.0196 17.5478 19.9838 17.4868 19.9494C17.4204 19.9118 17.3562 19.8754 17.3695 19.7832C17.3785 19.7584 17.385 19.7327 17.3889 19.7066C17.4207 19.5662 17.3756 19.4287 17.3328 19.298C17.3224 19.2663 17.312 19.2342 17.3031 19.203C17.2883 19.1764 17.2519 19.1206 17.221 19.1374C17.1956 19.1946 17.1566 19.246 17.1175 19.2978C17.0598 19.3743 17.0017 19.4512 16.9875 19.5471C16.9802 19.576 16.9773 19.6058 16.9788 19.6355C16.9604 19.7589 17.0456 19.8107 17.1303 19.8618C17.1722 19.8872 17.2141 19.9124 17.2427 19.9465C17.2571 19.9623 17.265 19.9829 17.2649 20.0043C17.2574 20.0229 17.2479 20.0406 17.2366 20.0571C17.2201 20.084 17.2031 20.1115 17.2014 20.1421C17.1976 20.1524 17.1957 20.1632 17.1956 20.1742C17.3447 20.3666 17.4317 20.5874 17.4317 20.8431C17.4525 20.7587 17.477 20.6761 17.5019 20.5932ZM17.0098 17.5117C16.9991 17.5539 16.9887 17.5961 16.9812 17.6397C16.9679 17.7033 16.9598 17.7697 16.9667 17.8431C16.9465 18.0087 17.0572 18.1459 17.1756 18.2283C17.1886 18.1983 17.2042 18.1697 17.2196 18.1416C17.2467 18.0911 17.2736 18.0416 17.2872 17.9862C17.2957 17.9615 17.301 17.9359 17.3031 17.9099C17.2659 17.7341 17.1649 17.5783 17.0196 17.4727C17.0196 17.4727 17.0098 17.5117 17.0098 17.5117ZM18.7415 17.1323C18.6225 17.0323 18.5054 16.9338 18.3433 16.9664L18.3595 16.9835L18.3676 16.9921C18.3633 16.9927 18.3589 16.9924 18.3549 16.9921C18.3491 16.9918 18.3433 16.9921 18.3376 16.9933C18.4843 17.1415 18.615 17.29 18.7444 17.4377C18.9244 17.6429 19.1027 17.846 19.3223 18.0451C19.3227 18.0389 19.3227 18.0326 19.3223 18.0263C19.3221 18.0215 19.322 18.0167 19.3221 18.0119C19.3243 18.0139 19.3264 18.016 19.3284 18.0182C19.3342 17.911 19.3261 17.8099 19.3183 17.7079C19.3148 17.6637 19.3114 17.6192 19.3091 17.5738C19.2637 17.4863 19.186 17.4178 19.1111 17.3516C19.0952 17.3377 19.0793 17.3239 19.0643 17.31C18.938 17.2978 18.8389 17.2146 18.7415 17.1323ZM15.9949 16.6358C16.2001 16.7933 16.5272 16.8092 16.7627 16.7303L16.7286 16.7115C16.7347 16.71 16.7409 16.7087 16.7471 16.7078C16.7543 16.7068 16.7615 16.7052 16.7685 16.7032C16.6188 16.6205 16.4535 16.5295 16.331 16.42L16.0007 16.6084C16.0042 16.6113 16.0082 16.613 16.0123 16.615C16.016 16.6165 16.0195 16.6179 16.0224 16.6202L15.9949 16.6358ZM16.416 22.3255H16.4174C16.5003 22.0123 16.4544 21.688 16.4099 21.3725L16.4027 21.3225L16.3978 21.2875C16.4275 21.0304 16.2154 20.8619 16.0366 20.7197C15.9996 20.6906 15.9643 20.6625 15.9325 20.6348L15.9571 20.6868C15.947 20.6789 15.9371 20.6708 15.9273 20.6625L15.9866 20.7888C16.0062 20.9243 16.0478 21.0564 16.0894 21.1887C16.1574 21.4043 16.2255 21.621 16.1993 21.8545C16.1931 21.9021 16.183 21.9492 16.1692 21.9952L16.1663 22.0094C16.1657 22.014 16.1649 22.0186 16.1634 22.0232C16.2438 22.0787 16.2859 22.1599 16.3281 22.2405C16.3478 22.2793 16.368 22.3174 16.3917 22.3532H16.4119C16.4131 22.3483 16.4137 22.3434 16.4142 22.3388C16.4145 22.3344 16.4151 22.3298 16.416 22.3255ZM15.8565 22.7168C15.8808 22.6321 15.9045 22.5477 15.9389 22.4677C15.9389 22.4659 15.9389 22.4645 15.9383 22.463C15.9379 22.4615 15.9377 22.46 15.9377 22.4584L15.9397 22.4521C15.9415 22.448 15.9426 22.4437 15.9446 22.4396C15.9475 22.3512 15.8675 22.3229 15.7889 22.2952C15.7537 22.2846 15.7199 22.2698 15.6883 22.2509C15.6652 22.0501 15.5745 21.8617 15.3971 21.7403C15.2696 21.7083 15.1474 21.6626 15.0252 21.617C14.8007 21.5332 14.5761 21.4494 14.3184 21.4494L13.9872 21.5511C13.9237 21.5642 13.8591 21.5714 13.7942 21.5724C13.6766 21.5782 13.5642 21.5837 13.4746 21.6649C13.3082 21.6779 13.2666 21.8276 13.2296 21.9611C13.2209 21.9926 13.2122 22.0227 13.2027 22.0501H13.2059L13.2036 22.0579L13.1969 22.0784H13.2431C13.346 22.0143 13.472 22.0056 13.5977 21.9969C13.7272 21.988 13.8566 21.979 13.9606 21.9091C14.0323 21.8715 14.0621 21.9201 14.0939 21.9718C14.1129 22.0024 14.1326 22.0345 14.1621 22.0504C14.2349 22.0952 14.2834 22.1735 14.3305 22.2492C14.408 22.3735 14.4811 22.4911 14.6504 22.4399C14.9163 22.5778 14.911 22.867 14.9064 23.1268C14.9053 23.186 14.9041 23.2435 14.9064 23.2973L15.2098 23.1092C15.209 23.1043 15.2087 23.0996 15.2084 23.0947L15.2078 23.0861L15.2159 23.0809C15.2052 23.0222 15.2113 22.9592 15.2173 22.8959C15.2275 22.7936 15.2373 22.6916 15.1763 22.609C15.1347 22.5151 15.0529 22.4683 14.972 22.4217C14.9084 22.3853 14.8452 22.3489 14.8015 22.2905C14.8106 22.272 14.8167 22.2521 14.8194 22.2316C14.8463 22.1304 14.7738 22.0573 14.7021 21.9851C14.6617 21.9441 14.6212 21.9033 14.5998 21.858L14.6027 21.8539L15.02 21.9091C15.1627 21.9958 15.2133 22.153 15.2569 22.2983C15.521 22.3428 15.6233 22.5919 15.7132 22.8107C15.7346 22.863 15.7554 22.9135 15.7774 22.9592C15.8084 22.88 15.8349 22.799 15.8565 22.7168ZM14.3713 23.0693L14.373 23.0722C14.412 22.9546 14.3568 22.7462 14.2895 22.6081C14.2441 22.5763 14.1941 22.5781 14.145 22.5792C14.097 22.5809 14.0491 22.5821 14.0063 22.5529C13.995 22.4324 13.9231 22.3706 13.8378 22.2972L13.8251 22.2862C13.7858 22.2564 13.739 22.2694 13.6922 22.2827C13.6633 22.2908 13.635 22.2986 13.6081 22.2972L13.4862 22.3454L13.4983 22.3561L13.4995 22.357L13.5061 22.3631L13.4807 22.3732C13.5073 22.3957 13.5339 22.4211 13.5616 22.4477C13.6642 22.546 13.7775 22.6552 13.9323 22.6361C14.0783 22.704 14.1014 22.845 14.1239 22.984C14.1395 23.0791 14.1548 23.173 14.2092 23.2418L14.3507 23.1155L14.3392 23.108L14.3591 23.0886L14.3672 23.1002C14.3692 23.095 14.3695 23.0886 14.3701 23.0823C14.3701 23.078 14.3704 23.0733 14.3713 23.0693ZM12.921 21.3823H12.9478C13.1602 21.2136 13.4067 21.1454 13.6566 21.076L13.7442 21.0518C13.7832 21.0659 13.7893 21.0951 13.7951 21.124C13.8008 21.1512 13.8066 21.1786 13.8387 21.1939C13.9297 21.1558 14.0309 21.1428 14.1317 21.1295C14.219 21.1182 14.3059 21.1069 14.3863 21.0795L14.4065 21.0804C14.6065 21.0882 14.7706 21.0948 14.9342 21.1821C15.0131 21.2861 15.1335 21.3222 15.2549 21.3583C15.3387 21.3835 15.4228 21.4086 15.4939 21.4566L15.491 21.4237C15.4923 21.4246 15.4937 21.4255 15.495 21.4263L15.4974 21.4277C15.4982 21.4281 15.4991 21.4286 15.5 21.4291L15.4716 21.1535C15.1058 20.7249 14.5345 20.694 14.0066 20.7018L13.995 20.6466C13.869 20.6466 13.7272 20.6735 13.609 20.7293C13.4888 20.735 13.372 20.7781 13.2565 20.8209C13.2096 20.8382 13.1631 20.8555 13.1163 20.8703C13.0548 20.9928 13.0039 21.1361 12.9574 21.2679L12.9265 21.3543H12.9314C12.9278 21.3636 12.9243 21.373 12.921 21.3823ZM13.5885 18.0396C13.3758 18.1095 13.1475 18.1384 12.9184 18.165L12.9305 18.1743L12.9501 18.1887L12.9319 18.191L12.925 18.1919L12.9126 18.1933L13.0123 18.2667C13.3735 18.5337 13.739 18.8042 14.2444 18.6927C14.2595 18.6832 14.2758 18.6759 14.293 18.671C14.3239 18.6606 14.3536 18.6505 14.3588 18.6178L14.3557 18.6161L14.3528 18.6144L14.3513 18.6138C14.3579 18.6074 14.3625 18.5991 14.3643 18.5901C14.2655 18.528 14.1629 18.4739 14.0603 18.4202C13.9942 18.3861 13.9287 18.351 13.8638 18.3147L13.6754 18.0396L13.5885 18.0396ZM12.5569 16.7766C12.5225 16.9713 12.5366 17.1701 12.6646 17.3597C12.8062 17.5443 13.1177 17.4813 13.2917 17.4261C13.2888 17.4214 13.2854 17.4169 13.2816 17.4128L13.2758 17.4051L13.2827 17.403C13.2876 17.4017 13.2924 17.4003 13.2972 17.3987C13.259 17.334 13.1827 17.2817 13.1067 17.2294C13.016 17.167 12.9256 17.1045 12.8998 17.0219C12.8748 16.7553 12.8178 16.4927 12.7302 16.2397L12.7265 16.2489C12.6586 16.4136 12.5849 16.5934 12.5569 16.7766ZM12.7562 18.9351L12.771 18.9282C12.7681 18.9244 12.7646 18.9212 12.7612 18.9181L12.7539 18.9106L12.7577 18.9088L12.7762 18.9002C12.7216 18.8405 12.6638 18.7837 12.6031 18.7302C12.5332 18.6661 12.4629 18.6022 12.3985 18.5231C12.3162 18.4881 12.2324 18.4364 12.2367 18.3347L11.5284 18.1653C11.5284 18.1711 11.5299 18.1766 11.5313 18.1818L11.5336 18.1962L11.5221 18.1933C11.5261 18.2679 11.5461 18.3387 11.5894 18.3979C11.7506 18.4557 11.8359 18.586 11.9217 18.7175C11.9992 18.836 12.0772 18.9556 12.2121 19.023C12.3913 19.1027 12.5961 19.0085 12.7562 18.9351ZM12.2719 20.3048C12.2818 20.3068 12.2951 20.3094 12.2982 20.2967L12.2901 20.2785C12.2962 20.2785 12.3017 20.2767 12.3037 20.2695L12.0671 19.75C12.0212 19.7521 11.9754 19.7557 11.9298 19.7607C11.8567 19.7679 11.7845 19.7751 11.7168 19.7702C11.7171 19.776 11.7183 19.7812 11.7191 19.787L11.7209 19.7976C11.7192 19.7975 11.7176 19.7975 11.716 19.7976C11.7142 19.7979 11.7125 19.7982 11.7111 19.7979C11.7189 19.8838 11.7388 19.9699 11.766 20.049C11.9006 20.2028 12.0815 20.2811 12.2705 20.3241C12.254 20.301 12.2607 20.3025 12.2719 20.3048ZM11.3548 15.4491C11.362 15.4404 11.375 15.4355 11.4004 15.4366C11.4264 15.4921 11.462 15.5482 11.4981 15.6054C11.5385 15.6698 11.5802 15.7354 11.6093 15.8019C11.7862 15.6215 11.8821 15.3988 11.9422 15.1609C11.9474 15.1416 11.9515 15.1216 11.9552 15.1017L11.9616 15.0708L11.9714 15.0274C11.9772 15.0029 11.983 14.9783 11.9873 14.9532L11.9879 14.9483C11.9893 14.9406 11.991 14.933 11.9928 14.9254C11.9523 14.8717 11.8994 14.8503 11.8463 14.8286C11.811 14.8142 11.7758 14.8 11.7443 14.7766C11.075 14.5605 10.2165 14.5174 9.57042 14.8512C9.56986 14.8553 9.56957 14.8595 9.56955 14.8636C9.56952 14.8677 9.56923 14.8717 9.56868 14.8758L9.56579 14.8769L9.56348 14.8778C9.52187 15.1457 9.57706 15.441 9.74668 15.6525L9.98305 15.4248C10.0033 15.4248 10.018 15.4291 10.0299 15.445L10.0102 15.8814C10.1244 15.9874 10.2662 16.0227 10.4159 16.0307C10.424 15.9527 10.4659 15.8903 10.5084 15.8273C10.531 15.7954 10.5516 15.7621 10.5699 15.7276C10.5835 15.7016 10.5902 15.6704 10.5957 15.6392C10.6 15.6193 10.6037 15.5993 10.6072 15.5794C10.6168 15.534 10.6315 15.4918 10.6719 15.4641L10.6991 15.4915C10.7077 15.5344 10.7144 15.5775 10.719 15.621C10.73 15.7123 10.7413 15.8036 10.7867 15.8808L10.806 16.0238L10.8135 16.0776C10.9869 16.0857 11.1441 16.038 11.2782 15.9753C11.278 15.9705 11.278 15.9656 11.2785 15.9608C11.2788 15.9571 11.279 15.9533 11.2791 15.9496L11.2811 15.949L11.2843 15.9475C11.2805 15.877 11.2903 15.8126 11.3042 15.7496C11.3117 15.7161 11.3198 15.6823 11.3279 15.6484C11.3343 15.6207 11.34 15.5927 11.3455 15.5646C11.3518 15.5547 11.3548 15.5431 11.3542 15.5314C11.3632 15.5129 11.36 15.4904 11.3571 15.4699L11.3548 15.4491ZM10.8606 17.7957C11.034 17.6544 11.1201 17.4718 11.1583 17.2698C11.1854 17.1438 11.1932 17.0097 11.1901 16.8725L11.1733 16.8921C11.0259 17.0612 10.9343 17.1666 10.7514 17.2499L10.7563 17.271C10.7547 17.2717 10.7532 17.2726 10.7517 17.2736L10.7459 17.2765L10.8606 17.7957ZM10.5486 20.4464C10.7066 20.4978 10.9037 20.4816 11.0412 20.3915L11.0349 20.3701C11.0368 20.3689 11.0388 20.3679 11.0409 20.3672C11.0433 20.366 11.0453 20.3652 11.0473 20.3637L10.9413 20.0147C10.7323 20.0921 10.4841 20.0696 10.259 20.0331L10.2839 20.0655L10.2686 20.0635L10.2532 20.0612L10.5486 20.4464ZM9.88625 19.5543C9.87952 19.5619 9.87334 19.5699 9.86776 19.5783C10.1163 19.4988 10.3561 19.4127 10.5844 19.2865C10.6246 19.2295 10.6702 19.1738 10.7159 19.1177C10.8216 18.9883 10.928 18.8579 10.9679 18.7091C10.9774 18.6797 10.9849 18.6496 10.9889 18.6187C10.9098 18.6406 10.8352 18.6418 10.7624 18.6432C10.6679 18.6447 10.5763 18.6461 10.4804 18.6932C10.4567 18.7357 10.4353 18.7796 10.4136 18.8233C10.3414 18.97 10.2691 19.1174 10.1177 19.22C10.0981 19.3029 10.0342 19.3694 9.97265 19.4333C9.93598 19.4688 9.90288 19.5078 9.87383 19.5497L9.88712 19.5454C9.89028 19.5442 9.89346 19.543 9.89666 19.5419L9.88625 19.5543ZM9.94635 16.852C9.87584 16.8346 9.80476 16.8167 9.74465 16.7783C9.74465 16.7843 9.74552 16.7901 9.74638 16.7962C9.74714 16.8008 9.74772 16.8054 9.74811 16.8101C9.74745 16.8096 9.74678 16.8093 9.74609 16.8089L9.74407 16.8083C9.74236 16.8077 9.74071 16.8069 9.73916 16.806C9.74696 17.1164 9.99056 17.3793 10.2264 17.5796C10.2272 17.5738 10.2269 17.568 10.2264 17.5622C10.2261 17.5574 10.2261 17.5526 10.2264 17.5478C10.2273 17.5485 10.2283 17.5493 10.2292 17.5501L10.231 17.5515L10.2318 17.5527C10.2477 17.4241 10.218 17.2822 10.1891 17.1438C10.1735 17.0701 10.1584 16.997 10.1504 16.9277C10.0905 16.8878 10.0186 16.8699 9.94635 16.852ZM8.98988 18.9386L8.97774 18.9481C9.18637 18.9842 9.4109 18.9481 9.60363 18.8886C9.88392 18.8227 10.0377 18.5155 10.1319 18.276H10.1261C10.1269 18.2738 10.1278 18.2717 10.1287 18.2696L10.1316 18.2624L10.1339 18.2575L10.1362 18.2514L10.1373 18.2488H9.78654L9.40887 18.6181C9.27566 18.6877 9.14823 18.7892 9.02657 18.8866L8.99796 18.9091L8.98293 18.9212C8.98687 18.9216 8.99082 18.9219 8.99478 18.9221C8.9994 18.9221 9.00432 18.9227 9.00923 18.9233L9.00316 18.9282L8.98988 18.9386ZM9.13581 21.0974V20.976C9.18291 20.8064 9.13148 20.6096 9.06964 20.4565C9.02572 20.4126 8.97082 20.3776 8.91649 20.3429C8.87351 20.317 8.83238 20.2881 8.79339 20.2565C8.78745 20.2385 8.78567 20.2193 8.78819 20.2005C8.78939 20.1962 8.79055 20.192 8.79166 20.1878C8.79397 20.1797 8.79628 20.1716 8.79975 20.1615C8.79919 20.1608 8.79851 20.1602 8.79773 20.1597C8.79917 20.1551 8.80062 20.1511 8.80149 20.1467L8.80525 20.1346C8.7255 20.0499 8.62031 19.9901 8.51542 19.9303C8.45965 19.8985 8.40388 19.8667 8.35187 19.8312C8.20623 19.6197 7.96639 19.5965 7.72627 19.5734C7.62253 19.5636 7.51879 19.5535 7.42257 19.5284L7.10413 19.9257L7.11107 19.9369L7.09778 19.9531L7.14546 20.0282C7.23504 20.0225 7.32057 20.0017 7.40553 19.9809C7.50724 19.956 7.6078 19.9314 7.71328 19.9335C7.78321 19.9762 7.86527 19.995 7.94676 20.0135C8.01611 20.0291 8.08488 20.0447 8.14614 20.0751L8.16579 20.1022C8.26693 20.2409 8.37673 20.3918 8.52353 20.4845C8.8437 20.5308 9.02055 20.8735 9.13064 21.1249V21.0867L9.13151 21.0882L9.13353 21.0925C9.13435 21.0941 9.13509 21.0957 9.13581 21.0974ZM8.63879 22.2293L8.92284 21.8519C8.92241 21.8508 8.92203 21.8498 8.92168 21.8487L8.92052 21.8444C8.91994 21.8421 8.91936 21.8395 8.91821 21.8372L8.92775 21.8247C8.90839 21.7762 8.90059 21.7172 8.89307 21.658C8.87458 21.5161 8.85579 21.3716 8.67288 21.3604C8.58436 21.3195 8.52836 21.2302 8.53013 21.1327C8.44691 21.0575 8.35473 21.0032 8.26197 20.9486C8.16575 20.8919 8.06923 20.8353 7.98283 20.755C7.93544 20.7174 7.89441 20.6729 7.85424 20.629C7.7768 20.5449 7.70167 20.4628 7.58522 20.4371C7.4627 20.3698 7.32891 20.3346 7.18761 20.3039C7.0203 20.2785 6.94922 20.3944 6.87582 20.514C6.83305 20.5839 6.78913 20.6556 6.72498 20.7004C6.72585 20.7033 6.72729 20.7062 6.72874 20.709C6.73001 20.7116 6.73107 20.7142 6.73192 20.7169C6.73059 20.7179 6.72933 20.7191 6.72816 20.7203L6.72585 20.7226L6.72007 20.7284C6.73243 20.7804 6.7612 20.827 6.80214 20.8613C6.8504 20.8486 6.89779 20.8304 6.94575 20.8122C7.07405 20.7628 7.20408 20.7128 7.35377 20.7666L7.36186 20.7738C7.62366 21.0038 7.89673 21.2436 8.21343 21.369L8.32699 21.3488C8.3423 21.354 8.3582 21.3581 8.3738 21.3624C8.43044 21.378 8.48678 21.3933 8.52406 21.4551C8.53143 21.4742 8.53353 21.4948 8.53013 21.515C8.51973 21.5456 8.49921 21.5736 8.47812 21.6017C8.45815 21.6264 8.44135 21.6536 8.42813 21.6826C8.43073 21.6846 8.43218 21.6872 8.43478 21.6892C8.43323 21.6918 8.43159 21.6943 8.42987 21.6967C8.42698 21.7013 8.4238 21.7057 8.42178 21.7106C8.52407 21.7857 8.54372 21.8947 8.56337 22.0036C8.57782 22.0834 8.59198 22.1631 8.63879 22.2293ZM8.09063 23.0196L8.25245 22.513L8.25101 22.5084L8.25852 22.4847L8.15218 22.2105C8.07098 22.0351 7.86495 22.0287 7.70082 22.0238C7.68174 22.0233 7.66267 22.0226 7.64361 22.0218C7.61298 21.9883 7.6124 21.9524 7.61963 21.9169C7.62628 21.8978 7.63466 21.8793 7.64275 21.8608C7.65142 21.8415 7.66009 21.8227 7.66587 21.8051C7.66674 21.801 7.66703 21.7976 7.66731 21.7944C7.66731 21.7912 7.66731 21.788 7.66818 21.7846C7.66862 21.7836 7.66911 21.7826 7.66962 21.7817L7.6702 21.7802L7.67078 21.7788C7.72771 21.5863 7.58323 21.5332 7.44279 21.482C7.37922 21.4589 7.31622 21.4358 7.27346 21.4005C7.27924 21.2728 7.16308 21.2751 7.05674 21.2771C7.02513 21.2786 6.99346 21.2778 6.96196 21.2748L6.92266 21.2277C6.89896 21.1916 6.84031 21.1916 6.80823 21.2191C6.80616 21.216 6.80384 21.2131 6.80129 21.2104C6.79435 21.2026 6.78713 21.1945 6.79291 21.18L6.70651 21.1994C6.60913 21.2838 6.53891 21.3887 6.51146 21.5086C6.4999 21.5479 6.49268 21.5889 6.49181 21.632C6.53458 21.645 6.57561 21.6352 6.61664 21.6253C6.66201 21.6144 6.70737 21.6034 6.75476 21.6242L6.7617 21.6271C7.12233 21.7594 7.49769 21.8973 7.76758 22.1984L8.09063 23.0196ZM6.93276 23.1846C6.93337 23.1836 6.93395 23.1827 6.93449 23.1817L6.96165 22.9583C6.9969 22.6954 6.71719 22.5249 6.52676 22.4139L6.67991 22.2183L6.6672 22.214L6.68569 22.1908L6.44903 22.1082C6.17336 22.1359 5.92485 22.2498 5.7324 22.4665C5.64057 22.638 5.57307 22.8214 5.53186 23.0115C5.46049 23.3114 5.4417 23.6313 5.43159 23.9656C5.43968 23.9801 5.44113 23.9986 5.44286 24.0162C5.44517 24.0425 5.44719 24.0671 5.47089 24.0717C5.50817 23.8665 5.62577 23.7061 5.74425 23.5443C5.81649 23.4461 5.88902 23.347 5.94421 23.2369C5.97137 23.199 5.98755 23.1551 6.00345 23.1115C6.02888 23.0418 6.0546 22.9722 6.12481 22.9262C6.2063 22.9262 6.27536 22.9569 6.34442 22.9875C6.40655 23.0152 6.46839 23.0427 6.53918 23.0482C6.5459 23.0529 6.55038 23.0602 6.55161 23.0684C6.54798 23.0738 6.54412 23.0791 6.54005 23.0843C6.52907 23.0979 6.51838 23.1117 6.51693 23.1268C6.51641 23.1308 6.51574 23.1349 6.51491 23.1389C6.51404 23.143 6.51318 23.1467 6.51289 23.1505C6.51271 23.1508 6.51223 23.1519 6.51202 23.1522L6.51115 23.1537C6.50352 23.2151 6.49292 23.2761 6.47936 23.3366L6.46376 23.4065C6.45509 23.4435 6.447 23.4805 6.43891 23.5172C6.41001 23.6458 6.3869 23.7749 6.3973 23.9182H6.42417C6.62355 23.709 6.76168 23.4822 6.9076 23.2432L6.92869 23.2088L6.931 23.1872L6.93187 23.186L6.93276 23.1846ZM5.23395 23.2369C5.30215 23.1502 5.3452 23.0473 5.36456 22.9366C5.38937 22.8243 5.38868 22.7078 5.36254 22.5957C5.36774 22.4812 5.28394 22.4599 5.19899 22.4379C5.15507 22.4263 5.11115 22.4151 5.07878 22.3911C5.08456 22.3642 5.08889 22.3365 5.09381 22.309L5.10537 22.2426C5.1256 22.1536 5.16056 22.0721 5.2539 22.0221L5.21287 22.0264C5.22703 22.0149 5.24177 22.0036 5.25968 21.9941L4.78752 22.0409L4.73204 22.1186C4.62657 22.2654 4.52139 22.4122 4.46417 22.5798C4.42372 22.7017 4.38615 22.8315 4.35552 22.965C4.26652 23.3426 4.23589 23.755 4.37633 24.1194L4.41534 24.0934L4.41621 24.0928L4.41708 24.0922C4.50984 24.0312 4.60462 23.9691 4.68611 23.8836L4.68524 23.8616L4.68669 23.8605L4.68813 23.8593C4.68957 23.8581 4.69102 23.8573 4.69218 23.8558L4.68582 23.7431C4.67426 23.5492 4.66213 23.3519 4.69189 23.1667C4.7153 23.0407 4.75835 22.9205 4.83637 22.8118C5.02911 22.871 5.15998 23.0557 5.23395 23.2369ZM4.19137 23.2392L4.19253 23.2401C4.23992 22.9806 4.1723 22.6775 3.92408 22.5197L3.49064 23.0049L3.49035 23.0161L3.49006 23.0271L3.48573 23.0317C3.46435 23.3005 3.48082 23.5539 3.49787 23.8157L3.50452 23.918C3.56809 24.0162 3.68281 24.1304 3.79637 24.1387L3.79897 24.1098L3.80041 24.1101C3.80104 24.1104 3.80173 24.1106 3.80243 24.1107L3.8215 23.9102C3.84028 23.8004 3.82844 23.6877 3.81688 23.5773C3.80677 23.479 3.79665 23.3825 3.80821 23.2912C3.81861 23.2334 3.83653 23.1777 3.87178 23.1254C3.98159 23.1609 4.09139 23.2158 4.18733 23.2669L4.18877 23.2528L4.1905 23.2386L4.19137 23.2392ZM7.09602 17.0586C7.09412 17.0616 7.09266 17.0649 7.09169 17.0684C7.12637 17.1906 7.16942 17.3438 7.19254 17.4732C7.26594 17.3114 7.38701 17.2085 7.51647 17.0987C7.58149 17.0438 7.64881 16.9866 7.71325 16.9196C7.71185 16.9186 7.7104 16.9178 7.70892 16.917L7.70632 16.9158C7.70374 16.9145 7.70123 16.913 7.69881 16.9115C7.70199 16.908 7.70546 16.9051 7.70892 16.9019C7.71249 16.8989 7.71596 16.8957 7.71932 16.8924C7.60836 16.8176 7.47081 16.7817 7.34916 16.7586V16.7508C7.32749 16.7719 7.30293 16.7933 7.27808 16.8153C7.20208 16.8814 7.12031 16.9525 7.09719 17.0412L7.09863 17.0455L7.09921 17.0484L7.10008 17.0508C7.09896 17.0535 7.09759 17.0561 7.09602 17.0586ZM7.12434 11.859C7.05181 11.9974 6.98968 12.1367 6.96079 12.2919C6.94809 12.3485 6.94035 12.4061 6.93767 12.4641L7.16595 13.172L7.16682 13.1504C7.1674 13.1446 7.16769 13.1382 7.16769 13.1322L7.17202 13.1449C7.17 12.9608 7.20785 12.7906 7.24542 12.621C7.28876 12.4259 7.33211 12.2318 7.31477 12.0176L7.47746 11.7761L7.46099 11.7813L7.48266 11.7483L7.12434 11.859ZM7.10411 10.9089C7.10261 10.911 7.10096 10.913 7.0992 10.9149L7.09169 11.2374L7.40204 11.0565V11.0331L7.4084 11.0294V10.5688C7.32287 10.6202 7.26334 10.6956 7.20353 10.7707C7.17174 10.8106 7.14025 10.8505 7.10499 10.8869L7.10411 10.9089ZM8.33711 17.5469C8.33856 17.5423 8.33963 17.5376 8.34029 17.5328C8.21488 17.4585 8.04902 17.5096 7.92707 17.553C7.92614 17.5617 7.92469 17.5704 7.92274 17.579H7.92158C7.91031 17.6446 7.8976 17.7099 7.88488 17.7752C7.8476 17.9659 7.81033 18.1575 7.80715 18.3621L7.98428 18.1815C8.16228 18.0009 8.30763 17.792 8.33508 17.5599C8.33563 17.5556 8.33574 17.5511 8.33711 17.5469ZM8.01665 16.4081C8.19407 16.6682 8.48968 16.9589 8.79309 17.0407C8.79229 17.0346 8.79113 17.0286 8.78962 17.0227L8.78846 17.0178C8.7878 17.0152 8.78722 17.0125 8.78673 17.0097L8.7928 17.0118C8.79468 17.0126 8.79661 17.0133 8.79858 17.0138C8.77604 16.8 8.64948 16.6292 8.52349 16.459C8.45414 16.3656 8.38537 16.2723 8.33393 16.1726L8.32584 16.0781C8.2117 15.9683 8.07386 15.8926 7.95539 15.8345C7.95481 15.8403 7.95481 15.8458 7.9551 15.8513V15.8637C7.95349 15.8631 7.95195 15.8623 7.95048 15.8614L7.94932 15.8608C7.93372 16.0175 7.96608 16.1686 7.99758 16.3157L8.01665 16.4081ZM8.69398 18.8348L8.91359 18.1266L8.91243 18.1263L8.92081 18.0988C8.89654 18.097 8.8724 18.0937 8.84857 18.0887C8.80147 18.0801 8.75552 18.0714 8.71131 18.0876C8.56596 18.4092 8.2744 18.7282 7.94267 18.8897L7.97648 18.892L7.95914 18.9033C7.95207 18.9084 7.94463 18.9129 7.93689 18.9169C7.98081 18.9195 8.02445 18.9227 8.06779 18.9264C8.29318 18.9446 8.50847 18.9623 8.69398 18.8348ZM9.35397 16.2862L8.94018 16.0229C8.94162 16.0304 8.94365 16.0374 8.94538 16.0443L8.94943 16.0599C8.94439 16.0568 8.93938 16.0536 8.9344 16.0504C8.99393 16.3573 9.12338 16.6361 9.30138 16.8999L9.30369 16.8673C9.30432 16.8682 9.3049 16.8692 9.30542 16.8702L9.30715 16.8728L9.35397 16.2862ZM12.0182 17.5472C12.0812 17.5741 12.1404 17.5992 12.1844 17.627C12.1817 17.6205 12.1793 17.614 12.1771 17.6073L12.1743 17.5989C12.1732 17.5958 12.172 17.5927 12.1708 17.5897C12.1733 17.5911 12.1758 17.5924 12.1783 17.5937C12.1823 17.5956 12.1861 17.5977 12.1899 17.6001C12.0792 17.3444 12.0338 17.0331 12.0015 16.7508C11.9498 16.8114 11.8951 16.8692 11.8376 16.9242C11.7706 16.9875 11.7083 17.0555 11.6509 17.1276C11.6504 17.1314 11.6504 17.1352 11.6509 17.1389C11.6513 17.142 11.6513 17.1451 11.6509 17.1482C11.65 17.1496 11.6489 17.1509 11.6478 17.1522L11.6452 17.1551C11.6067 17.373 11.8304 17.4678 12.0182 17.5472ZM13.2371 16.55C13.3908 16.7508 13.6191 16.9037 13.8791 16.8531L13.8546 16.8288C13.859 16.8282 13.8634 16.8277 13.8679 16.8274C13.8737 16.8271 13.8795 16.8264 13.8852 16.8254L13.8603 16.8014L13.8589 16.7999C13.7323 16.6771 13.5965 16.5451 13.5896 16.3731C13.6162 16.1348 13.4463 16.0458 13.2752 15.9562C13.1949 15.9143 13.1145 15.8721 13.0538 15.8143C13.0559 15.821 13.057 15.8279 13.0585 15.8348L13.0596 15.8418L13.0614 15.8496L13.0619 15.8524L13.0562 15.8478L13.0524 15.8452C13.051 15.8441 13.0496 15.8428 13.0483 15.8415C13.0686 15.9195 13.0816 16.0004 13.0946 16.0813C13.1212 16.2457 13.1475 16.4101 13.2371 16.55ZM7.98256 9.08523C7.84097 9.306 7.70805 9.53023 7.61616 9.77354C7.61645 9.77614 7.61703 9.77845 7.61789 9.78076L7.61847 9.78394C7.61757 9.78628 7.61661 9.78859 7.61558 9.79088L7.61125 9.80128C7.6387 10.0018 7.7251 10.1792 7.82855 10.348C7.91871 10.6037 8.20131 10.8037 8.44173 10.9066C8.41659 10.9973 8.39607 11.0915 8.38307 11.1883C8.33668 11.5033 8.35537 11.8245 8.43797 12.1321C8.4345 12.1358 8.42843 12.1407 8.42843 12.1407L8.40445 12.1416C8.3744 12.1428 8.34377 12.1439 8.31949 12.1292H8.31833L8.31371 12.1257C8.31371 12.1269 8.31429 12.1277 8.31458 12.1286V12.13C8.31545 12.1355 8.31718 12.1407 8.31863 12.1459C8.3195 12.1503 8.32094 12.1546 8.32152 12.1592C8.32065 12.1586 8.3195 12.1583 8.31834 12.1583C8.31692 12.1583 8.31553 12.1579 8.31429 12.1572C8.31263 12.1557 8.31008 12.1546 8.30793 12.154C8.30793 12.154 8.30793 12.156 8.30909 12.1575C8.36428 12.5331 8.5417 12.8617 8.82749 13.1434C8.89511 13.1671 8.9084 13.2272 8.9214 13.2879C8.92834 13.3203 8.93556 13.3526 8.95059 13.3798C8.9714 13.4069 8.97804 13.4572 8.97515 13.4933C8.36024 13.4743 7.81294 13.6274 7.32055 13.9066C7.26767 13.9326 7.24773 13.9788 7.24022 14.0323C7.22866 14.0785 7.23097 14.1328 7.23328 14.186C7.23472 14.2227 7.23617 14.2591 7.23328 14.2918C7.57946 14.0638 7.95395 13.8947 8.36717 13.8202C8.41167 13.8173 8.45762 13.8124 8.50414 13.8075C8.64313 13.7924 8.7879 13.7771 8.91447 13.8124L8.93354 14.1262C8.80264 14.1941 8.66827 14.2542 8.5339 14.3143C8.18946 14.4683 7.84501 14.6223 7.55778 14.9095V14.9315L7.55345 14.9356L7.55172 14.937C7.55461 14.9792 7.55345 15.0237 7.55259 15.0688C7.55057 15.1526 7.54883 15.2364 7.57195 15.3031L7.93055 15.0116C8.27673 14.7486 8.63909 14.5241 9.03728 14.3787L9.04595 14.3888C9.14998 14.5117 9.25863 14.6405 9.39646 14.7165C9.63547 14.5633 9.89738 14.4492 10.1723 14.3784C10.2301 14.3443 10.3015 14.336 10.3723 14.3276C10.4804 14.3149 10.5873 14.3024 10.6448 14.1981L10.6497 14.1715L10.6506 14.1701L10.704 13.8829L10.7118 13.8401L10.717 13.8123C10.7141 13.8103 10.7118 13.8077 10.7092 13.8051C10.7011 13.7973 10.6927 13.7892 10.678 13.7918C10.4934 13.6858 10.3705 13.5014 10.3864 13.2856C10.3235 13.3165 10.2535 13.3367 10.1778 13.3396C10.1157 13.3243 10.0559 13.3087 10.0284 13.2451C10.0278 13.2292 10.0255 13.2119 10.0235 13.1937C10.0189 13.1532 10.0137 13.1087 10.0206 13.0689C10.0282 13.049 10.0412 13.0316 10.0582 13.0189C10.3139 12.8611 10.6454 12.853 10.9684 12.8773C11.0031 12.8819 11.0395 12.8854 11.0774 12.8891C11.3027 12.9111 11.5674 12.9371 11.6379 13.1804C11.6361 13.194 11.6345 13.2077 11.633 13.2214C11.6307 13.2411 11.6284 13.261 11.6252 13.2804C11.6163 13.321 11.5918 13.3566 11.557 13.3795C11.4761 13.4234 11.3854 13.3818 11.3094 13.3468L11.2929 13.3396C11.2302 13.5329 11.1236 13.7488 10.9072 13.8118L10.9101 13.8355C10.9086 13.8361 10.9073 13.8369 10.906 13.8378C10.9045 13.839 10.9029 13.84 10.9011 13.8407L10.9291 14.069C10.9329 14.0837 10.9363 14.0999 10.9401 14.1166C10.9618 14.2157 10.9875 14.3351 11.1262 14.3045C11.5007 14.3949 11.831 14.5879 12.1581 14.7963C12.2673 14.6873 12.3534 14.5625 12.4309 14.4501L12.4338 14.4463C12.9967 14.6359 13.4867 15.0497 13.9525 15.4427L14.0017 15.484L14.0037 15.4522L14.0077 15.456L14.0271 15.1251C13.57 14.7197 13.062 14.4333 12.5334 14.2091L12.5378 14.1877C12.5551 14.0984 12.5725 14.0103 12.5782 13.9158C13.2044 13.9511 13.7971 14.1435 14.3132 14.4463L14.3123 14.414C14.314 14.4148 14.3157 14.4156 14.3175 14.4163L14.3184 14.4169L14.31 14.1343C13.7667 13.843 13.172 13.6505 12.5222 13.643C12.5046 13.6143 12.4956 13.5813 12.4962 13.5477C12.8074 13.4928 13.029 13.17 13.1041 12.8882C13.1255 12.8637 13.1483 12.8388 13.1715 12.8134C13.2836 12.6903 13.4049 12.5568 13.4396 12.3982C13.4567 12.3389 13.461 12.2762 13.4492 12.2092L13.4659 12.158C13.4746 12.1315 13.4812 12.1046 13.4862 12.0777C13.4986 12.026 13.5044 11.9731 13.487 11.9254C13.4145 12.0202 13.3056 12.0453 13.2125 12.0644C13.2697 11.9532 13.3154 11.8286 13.344 11.698C13.3966 11.4755 13.3989 11.2362 13.3249 11.0244C13.3495 11.0158 13.3746 11.0086 13.4001 11.0013C13.4602 10.984 13.5206 10.9664 13.5763 10.9343L13.5677 10.9268L13.785 10.7369C13.9011 10.6575 13.9514 10.5482 13.9783 10.4286C13.9812 10.417 13.9832 10.4052 13.9852 10.3931C13.9871 10.382 13.9892 10.3711 13.9916 10.3601C13.9928 10.3546 13.9939 10.349 13.9947 10.3434C14.0034 10.2905 14.0089 10.2364 14.0144 10.1821C14.021 10.1177 14.0277 10.0532 14.039 9.99083C14.0468 9.95558 14.056 9.92148 14.0687 9.88825C14.0683 9.8878 14.0679 9.88732 14.0676 9.88681L14.0667 9.88508C14.0681 9.88103 14.0693 9.87699 14.0702 9.87265C14.0711 9.86855 14.0723 9.8645 14.0736 9.86051C14.0205 9.77816 13.9812 9.68858 13.9419 9.59929C13.8765 9.45134 13.8118 9.30368 13.6838 9.18839L13.6954 9.1803C13.5913 9.04853 13.4336 9.01155 13.2752 8.97456C13.188 8.95433 13.1004 8.93411 13.0221 8.89741C12.7713 8.81303 12.5704 8.94885 12.3864 9.07368C12.3557 9.09391 12.3257 9.11413 12.2962 9.13321C12.2529 9.14101 12.243 9.17222 12.2338 9.20198C12.2237 9.23434 12.2141 9.26497 12.1627 9.26266L12.1278 9.35339C12.0812 9.47273 12.0324 9.59872 12.0006 9.72702C11.6111 9.67212 11.1895 9.71546 10.8783 9.93507C10.7517 9.8426 10.6058 9.80677 10.4578 9.77094C10.4116 9.75938 10.3651 9.74811 10.3189 9.73511C10.2648 9.72442 10.2082 9.725 10.1527 9.72586C10.0631 9.72702 9.97701 9.72817 9.91344 9.67963C9.86229 9.62184 9.82473 9.54729 9.78716 9.47302C9.71521 9.33114 9.64355 9.18926 9.47508 9.16094C9.38463 9.12915 9.36585 9.03091 9.36585 8.94422C9.27584 8.9267 9.18749 8.90157 9.10174 8.86909C9.02892 8.84395 8.95668 8.81881 8.88126 8.80263C8.66338 8.70381 8.48394 8.82575 8.31721 8.9396C8.29091 8.95723 8.26491 8.97514 8.23919 8.99161C8.20625 9.00519 8.17186 9.01531 8.13748 9.02542C8.08354 9.03875 8.03147 9.05884 7.98256 9.08523ZM14.1961 11.9844L14.1912 12.0133L14.1906 12.0121L14.0294 12.9637L14.3525 12.8611L14.3637 12.8027L14.3935 12.6533C14.4004 12.6331 14.4039 12.6138 14.4071 12.5944L14.4082 12.5877V12.5866L14.4085 12.5854C14.4371 12.417 14.3562 12.2745 14.2767 12.1358C14.2478 12.0852 14.219 12.0353 14.1961 11.9844ZM14.913 16.2587L14.5189 15.9287C14.4088 15.9634 14.2906 16.0617 14.1961 16.1449L14.2022 16.1509L14.2037 16.1521C14.2046 16.1529 14.2056 16.1538 14.2065 16.1547L14.2083 16.157L14.1904 16.1723C14.3291 16.3428 14.5241 16.3313 14.7223 16.3191C14.7845 16.3154 14.8466 16.3116 14.9076 16.3133V16.2865H14.913V16.2587ZM14.861 13.7395C14.8607 13.7389 14.8603 13.7384 14.8599 13.7378C14.8388 13.8372 14.8411 13.9528 14.8434 14.0626C14.8443 14.114 14.8451 14.1637 14.844 14.2103C14.8711 14.24 14.8983 14.2733 14.9258 14.3068C15.0546 14.4637 15.1957 14.6359 15.4199 14.5674C15.4196 14.5661 15.4193 14.5647 15.419 14.5634L15.4187 14.5611C15.4179 14.5582 15.417 14.5553 15.4161 14.5524L15.4132 14.542L15.419 14.5408C15.4212 14.5407 15.4233 14.5404 15.4254 14.54C15.4124 14.4657 15.3809 14.3998 15.3503 14.3348C15.3332 14.3002 15.3176 14.2649 15.3034 14.229C15.2818 14.2036 15.2641 14.1637 15.2465 14.1233C15.2066 14.0317 15.1647 13.936 15.0668 13.9932C14.9963 13.9464 14.9607 13.8791 14.9252 13.8112C14.9067 13.7768 14.8885 13.7421 14.8654 13.7101C14.8642 13.7161 14.8635 13.7222 14.8631 13.7283L14.8616 13.741L14.861 13.7395ZM15.7172 15.6817C15.724 15.6792 15.7305 15.6761 15.7366 15.6724C15.6568 15.6224 15.5953 15.5482 15.5326 15.4727C15.4872 15.4178 15.441 15.3624 15.3867 15.3141C15.2693 15.2219 15.1457 15.2615 15.022 15.3008C14.983 15.3132 14.944 15.3257 14.9052 15.334C14.9081 15.3384 14.9107 15.3433 14.9133 15.3479L14.9154 15.3522L14.9182 15.3566L14.913 15.358C14.9086 15.3593 14.904 15.3605 14.8995 15.3615C14.9287 15.4019 14.9474 15.4482 14.9659 15.4938C14.9847 15.5409 15.0035 15.5872 15.0333 15.6253C15.1396 15.6952 15.2974 15.6846 15.4271 15.6724C15.4797 15.6603 15.5236 15.6791 15.5658 15.697C15.619 15.7195 15.6693 15.7409 15.7305 15.6993C15.7271 15.697 15.7239 15.6941 15.7207 15.6915C15.7178 15.6886 15.7149 15.6863 15.712 15.684L15.7172 15.6817ZM14.3782 17.4195C14.2328 17.4394 14.0863 17.4594 13.9788 17.5524C13.9794 17.5532 13.98 17.554 13.9806 17.5547L13.982 17.5564L13.9837 17.5585L13.9852 17.5602L13.9898 17.5654L13.9907 17.5665L13.9916 17.568C13.9887 17.5703 13.9858 17.5721 13.9823 17.5738C13.9791 17.5752 13.9759 17.577 13.9731 17.5796C14.0733 17.7463 14.2455 17.8639 14.4111 17.9772C14.4608 18.0113 14.5097 18.0448 14.5562 18.0792C14.7215 18.1543 14.9379 18.1731 15.1153 18.1341C15.1098 18.1294 15.1049 18.1248 15.0997 18.1196L15.0934 18.1138L15.0893 18.1104C15.0938 18.1096 15.0983 18.109 15.1029 18.1086C15.1093 18.1081 15.1156 18.1075 15.1217 18.1058C14.953 17.9671 14.7974 17.8133 14.6567 17.6463C14.6339 17.6136 14.6186 17.5778 14.603 17.5423C14.5807 17.4908 14.5588 17.4397 14.5149 17.3984C14.4704 17.407 14.4244 17.4134 14.3782 17.4195ZM15.2286 20.5599C15.2737 20.5683 15.3185 20.5764 15.3601 20.5879C15.3585 20.5841 15.3569 20.5803 15.3555 20.5764L15.3537 20.5723L15.348 20.5556L15.3529 20.5567C15.3572 20.5575 15.3616 20.5584 15.3659 20.5596L15.3569 20.5351C15.2754 20.3143 15.1699 20.0279 14.8931 19.9938C14.8431 19.9716 14.7894 19.9597 14.7356 19.9482C14.6663 19.9329 14.5967 19.9178 14.5345 19.88C14.3698 19.6982 14.236 19.7956 14.0953 19.8982C13.9774 19.9846 13.854 20.0745 13.7023 20.0063L13.6402 20.0724C13.5382 20.1791 13.4339 20.2877 13.4107 20.4304L13.4139 20.4316C13.4131 20.4357 13.4116 20.4391 13.4099 20.4432C13.4081 20.4478 13.4061 20.4527 13.4053 20.4582L13.4804 20.4932C13.5255 20.4724 13.5705 20.4504 13.6159 20.4284C13.7326 20.3718 13.8508 20.3143 13.9734 20.2689C14.0904 20.2357 14.1961 20.2764 14.297 20.3152C14.4224 20.3637 14.5397 20.4094 14.6625 20.3048C14.7307 20.2556 14.7905 20.3059 14.8452 20.3519C14.8567 20.3617 14.868 20.3712 14.879 20.3793C14.95 20.5093 15.0919 20.5354 15.2286 20.5599ZM16.1949 17.3877C16.2021 17.3816 16.2069 17.3732 16.2085 17.364C16.1099 17.3293 16.0091 17.2669 15.9074 17.2036C15.7771 17.1227 15.6444 17.0404 15.5124 17.0141C15.4315 16.8898 15.3361 16.9389 15.2355 16.9909C15.1737 17.0227 15.1101 17.0554 15.0471 17.049C15.0479 17.0575 15.0502 17.0658 15.0538 17.0736L15.0547 17.075L15.0483 17.0756C15.0463 17.0762 15.044 17.0765 15.0416 17.0762C15.0442 17.1077 15.0656 17.134 15.0844 17.1571C15.094 17.1687 15.1029 17.1799 15.1084 17.1903C15.38 17.3516 15.7259 17.5093 16.0883 17.4544C16.1022 17.4481 16.1169 17.4432 16.1319 17.44C16.1648 17.4313 16.1975 17.4229 16.2024 17.3909L16.1975 17.3888L16.1949 17.3877ZM23.7747 11.2995C23.9524 11.3267 24.0862 11.4521 24.1925 11.5824L24.1752 11.529L24.1844 11.5391L24.1974 11.5535L24.1313 11.3458C24.0844 11.1369 23.9535 10.9756 23.8198 10.8106C23.6311 10.8228 23.4453 10.8392 23.2803 10.9132C23.2927 10.9144 23.3045 10.9169 23.3167 10.9198L23.3204 10.9207L23.3274 10.9222L23.3057 10.93C23.2953 10.9331 23.2849 10.9366 23.2751 10.9412C23.4649 10.9592 23.6065 11.1146 23.738 11.2591C23.738 11.2591 23.7747 11.2995 23.7747 11.2995ZM22.65 10.6436C22.7136 10.6294 22.7775 10.6156 22.8405 10.6185C22.8347 10.613 22.8289 10.6083 22.8228 10.6034C22.8184 10.6001 22.8141 10.5966 22.8098 10.593L22.8176 10.5924H22.8214C22.8301 10.5919 22.8387 10.5913 22.8474 10.5916C22.6977 10.45 22.5272 10.3633 22.3547 10.2807C22.2383 10.3052 22.134 10.3607 22.0294 10.4165C21.936 10.4665 21.8424 10.5162 21.7398 10.5442C21.7447 10.5468 21.7499 10.5488 21.7548 10.5508C21.7599 10.5529 21.765 10.5552 21.7699 10.5578L21.7531 10.5644C21.7468 10.567 21.7407 10.5696 21.734 10.5716C21.8366 10.6228 21.9349 10.6699 22.0571 10.6774C22.1403 10.6343 22.2467 10.6031 22.349 10.6303C22.4403 10.6895 22.544 10.667 22.65 10.6436ZM28.2718 15.3034C28.3729 15.5262 28.4654 15.7582 28.548 15.9986C28.9919 17.2961 29.1491 18.8198 28.8494 20.1811C28.7869 20.4678 28.7019 20.7492 28.5951 21.0225C28.4527 21.4612 28.2316 21.827 27.9522 22.2188C27.6352 22.6624 27.2428 23.0693 26.8065 23.4215C25.9792 23.9994 24.9117 24.2589 23.8593 24.0971C23.6582 24.2823 23.4025 24.3124 23.147 24.3427C23.0875 24.3494 23.0283 24.3563 22.9693 24.3652H20.16C20.1392 24.2633 20.1704 24.193 20.2028 24.1211C20.2311 24.0575 20.2606 23.9919 20.2548 23.9015C20.2912 23.7041 20.3487 23.4605 20.566 23.4021C20.567 23.4011 20.5679 23.4002 20.5689 23.3993L20.5718 23.3964C20.5773 23.3917 20.5811 23.3883 20.5782 23.3819C20.6487 23.5669 20.7359 23.7674 20.8414 23.9486C20.9836 23.8694 21.0622 23.7162 21.0784 23.559C21.0498 23.386 20.9246 23.2487 20.7937 23.1187L20.7547 23.1071C20.8212 23.0589 20.8637 22.9907 20.9073 22.921C20.9382 22.8713 20.9697 22.821 21.0105 22.7765C21.0264 22.793 21.0423 22.8112 21.0593 22.8297C21.1518 22.9329 21.2607 23.0545 21.4008 23.0051L21.4095 23.0014C21.4644 22.9777 21.5387 22.9459 21.5424 22.8713C21.5355 22.8612 21.5332 22.8488 21.5309 22.8363C21.5271 22.8147 21.5231 22.7939 21.4953 22.7887C21.4176 22.7395 21.3428 22.6636 21.2671 22.5864C21.0815 22.3986 20.8897 22.2041 20.6331 22.3789C20.2982 22.7453 20.0138 23.1467 19.9436 23.6261L19.8763 24.3658C19.8094 24.3639 19.7424 24.366 19.6757 24.3722C19.572 24.38 19.4688 24.3875 19.3758 24.3655C19.3975 24.2066 19.3874 24.0483 19.377 23.8896C19.3648 23.698 19.3524 23.5067 19.3957 23.3154C19.4564 23.2946 19.5081 23.3406 19.5604 23.3874C19.5865 23.4105 19.6127 23.4339 19.6405 23.4495C19.652 23.4726 19.6879 23.4726 19.6994 23.4495C19.7101 23.4105 19.7358 23.3735 19.7616 23.3365C19.8116 23.2649 19.8615 23.1932 19.802 23.1077C19.7688 23.0236 19.6899 22.9537 19.6145 22.8866C19.5908 22.8655 19.5677 22.8447 19.546 22.8239C19.5656 22.7285 19.6231 22.6471 19.6807 22.5656C19.7038 22.5326 19.7269 22.5 19.7471 22.4662C19.7668 22.4688 19.7694 22.4789 19.7725 22.491C19.7742 22.4992 19.7775 22.5069 19.7824 22.5136C19.8459 22.58 19.9361 22.5997 20.019 22.5878C20.0271 22.5849 20.0387 22.5832 20.0511 22.5815C20.093 22.5751 20.1447 22.5673 20.1051 22.5136C20.0991 22.4871 20.0889 22.4618 20.0751 22.4384C20.0511 22.3916 20.0271 22.346 20.0658 22.3046C20.123 22.2844 20.1889 22.3026 20.2537 22.3205C20.3499 22.3471 20.4444 22.3731 20.5065 22.274C20.5152 22.2596 20.523 22.2425 20.5313 22.2229C20.2828 22.0735 20.0306 21.9238 19.7 22.0139C19.5804 21.9978 19.5223 22.0755 19.4625 22.1555C19.4298 22.1995 19.3969 22.2437 19.353 22.274C19.3394 22.2827 19.3249 22.2902 19.3096 22.2971C19.1247 22.2653 18.9348 22.2925 18.7513 22.3188C18.6386 22.335 18.5285 22.3506 18.4237 22.3523L17.9191 23.1189C17.9226 23.1857 17.922 23.2576 17.9209 23.3316C17.9188 23.5359 17.9165 23.7564 17.998 23.9295C18.0965 24.0786 18.1792 24.2043 18.25 24.3658H12.8533C12.9322 24.193 13.0856 24.0156 13.2116 23.8821C13.2217 23.9176 13.2561 23.9303 13.2914 23.9428C13.3107 23.9503 13.3304 23.9572 13.346 23.9685L13.7239 24.0436L13.784 24.0222C13.8964 23.9832 14.0114 23.9431 14.1019 23.8622C13.993 23.8044 13.8797 23.7578 13.7667 23.7113C13.6424 23.6604 13.5182 23.6096 13.4009 23.5437C13.4055 23.4862 13.4142 23.4252 13.4228 23.3617C13.4581 23.1054 13.498 22.8187 13.2986 22.6355C13.1963 22.5578 13.0697 22.5367 12.944 22.5156C12.9044 22.5093 12.8649 22.5021 12.8255 22.4939C12.64 22.5566 12.4311 22.6433 12.3326 22.8358C12.1869 22.6867 12.0251 22.5488 11.8327 22.4939C11.839 22.4231 11.8523 22.3494 11.8671 22.2743L11.8676 22.2714C11.8821 22.2018 11.8965 22.131 11.9081 22.0616C12.1369 21.9299 12.3996 22.0145 12.6455 22.094C12.7166 22.1171 12.7862 22.1394 12.8536 22.1558C12.8807 22.1558 12.9067 22.1625 12.9322 22.1688C12.9692 22.1781 13.005 22.1873 13.0423 22.176C13.0529 22.1492 13.0342 22.1364 13.0139 22.1226C12.9952 22.1099 12.9752 22.0963 12.9752 22.07C12.6995 21.6568 12.2152 21.6097 11.7269 21.6727C11.6373 21.6813 11.5859 21.7657 11.5394 21.8426C11.4778 21.9443 11.4246 22.0321 11.3007 21.9085C11.2094 21.8842 11.1241 21.9128 11.0366 21.942C10.9695 21.9645 10.9013 21.9874 10.8282 21.9874L10.5083 22.1093C10.4748 22.1636 10.4419 22.2191 10.4089 22.2752C10.2471 22.5546 10.1032 22.8418 9.96134 23.1276C9.96654 23.2102 9.95961 23.2984 9.95267 23.3877C9.93764 23.5801 9.92233 23.7769 10.024 23.9303C10.0954 24.0757 10.1902 24.245 10.2928 24.3667H3.33058C3.08583 24.0401 2.93672 23.5983 3.01966 23.1733C3.07803 22.9846 3.17281 22.7959 3.35052 22.6739C3.34238 22.5464 3.36323 22.4186 3.41149 22.3003C3.48026 22.1362 3.60076 21.9957 3.75536 21.879C3.97266 21.7336 4.25642 21.6865 4.53267 21.7377C4.8433 21.412 5.33541 21.3216 5.76192 21.4626C5.86406 21.5032 5.96152 21.5548 6.05262 21.6163C6.18208 21.3638 6.25518 21.0881 6.32858 20.8124C6.3829 20.6078 6.43723 20.4036 6.51438 20.2085C6.53605 20.1536 6.55946 20.1001 6.58489 20.0473C6.65655 19.8973 6.71897 19.7392 6.78196 19.58C6.87732 19.3379 6.97412 19.0934 7.10502 18.8732C6.78601 17.9962 6.50687 17.0764 6.33002 16.1448C6.33782 16.0911 6.36961 16.0417 6.40977 15.998C6.44616 15.9612 6.48636 15.9284 6.52969 15.9001C6.60915 15.7114 6.67677 15.5187 6.72676 15.3222C6.67879 15.3285 6.6314 15.3539 6.58343 15.3794C6.54095 15.4019 6.49761 15.4253 6.45166 15.4366C6.43259 15.4666 6.40947 15.4947 6.38664 15.523C6.3433 15.5756 6.30082 15.6282 6.28319 15.6923C6.2436 15.679 6.22915 15.6111 6.21586 15.5499L6.20719 15.5103C6.21384 15.4259 6.19679 15.3355 6.17945 15.2453C6.14535 15.0673 6.11125 14.8893 6.26238 14.7564L6.49124 14.5677C6.49413 14.4148 6.51089 14.2651 6.52765 14.116L6.53834 14.0212H6.49846C6.46378 14.0536 6.42275 14.0842 6.38085 14.1157C6.27596 14.1946 6.16586 14.2773 6.13986 14.3983H6.1205L6.1127 13.5962C6.14275 13.5725 6.17743 13.5505 6.21384 13.5277C6.26614 13.4942 6.32162 13.4592 6.36843 13.415C6.3326 12.5186 6.39588 11.6416 6.64005 10.8513C6.69004 10.723 6.775 10.6121 6.85966 10.5011C6.90243 10.4459 6.94462 10.3904 6.98276 10.3329C6.98565 10.2774 6.98738 10.2214 6.98912 10.1653C6.99432 9.99512 6.99952 9.82579 7.03767 9.67177C7.11136 9.62843 7.18128 9.56774 7.2515 9.50648C7.32027 9.44666 7.38962 9.38627 7.4636 9.34177C7.4139 9.30074 7.33848 9.29236 7.26595 9.28398C7.241 9.28148 7.21614 9.27821 7.1914 9.27416C7.32143 8.92105 7.59739 8.62515 7.86902 8.35815L7.90919 8.32723C8.01726 8.24285 8.12389 8.15963 8.24699 8.11426C8.28542 8.11079 8.30796 8.1342 8.33137 8.15847L8.34206 8.16916C8.45244 8.18014 8.55878 8.20441 8.66454 8.22869C8.82202 8.26452 8.97806 8.30035 9.14537 8.29082C9.05435 8.14547 8.89686 7.99983 8.71193 7.99983L8.74661 7.98076C8.99512 7.87442 9.16618 7.80334 9.43434 7.7519C9.4563 7.87615 9.53808 7.97642 9.61928 8.07612C9.68227 8.15385 9.74527 8.231 9.77965 8.31914L9.94147 8.45206C9.93564 8.37901 9.9342 8.30567 9.93714 8.23245C9.94147 8.01862 9.94581 7.79409 9.75712 7.6577C9.74527 7.60684 9.80451 7.6184 9.83225 7.63054C10.1313 7.7519 10.4261 7.91343 10.7058 8.07496L10.8202 8.01919C10.9575 7.95186 11.0976 7.88309 11.2363 7.83136C11.2184 7.91314 11.193 7.99751 11.167 8.08449C11.1121 8.26798 11.0534 8.46274 11.0557 8.66819C11.1317 8.61415 11.1933 8.5318 11.2566 8.44742C11.2987 8.39107 11.3418 8.33357 11.3906 8.28271C11.3837 8.1677 11.449 8.07032 11.5126 7.97525C11.5493 7.92093 11.5854 7.86718 11.6071 7.81141C11.816 7.75188 12.1546 7.71316 12.3595 7.81141C12.1682 7.84262 12.1752 7.98594 12.1818 8.11713L12.1835 8.16134L12.2029 8.17665C12.3647 8.14111 12.5921 8.07898 12.7175 7.95242C12.9348 7.98825 13.0773 8.01975 13.2513 8.14891C13.2287 8.15989 13.205 8.17058 13.1813 8.18127C13.0464 8.24282 12.8961 8.31073 12.8057 8.44451C13.0461 8.43671 13.3024 8.42139 13.5425 8.38498L13.6489 8.3191C14.2109 8.66874 14.4279 9.25534 14.6348 9.81419C14.6556 9.87025 14.6764 9.92631 14.6975 9.98179C14.6599 9.97485 14.6224 9.95723 14.5834 9.93902C14.5363 9.91706 14.4869 9.89394 14.4331 9.88787C14.4369 9.90376 14.4403 9.92139 14.4441 9.93931C14.4669 10.0488 14.4949 10.1841 14.6302 10.2176C14.7697 10.232 14.8307 10.3306 14.8943 10.4332C14.9186 10.4725 14.9431 10.512 14.9726 10.5479C15.0659 10.6398 15.1734 10.7201 15.2812 10.8001C15.4919 10.957 15.7025 11.1137 15.8042 11.3584C15.9932 11.6696 16.066 12.0294 16.1388 12.3886C16.1828 12.6062 16.227 12.8237 16.2966 13.0301C16.2414 12.9567 16.1504 12.9338 16.0565 12.9104C15.9689 12.8885 15.8788 12.8662 15.8126 12.8015C15.8351 12.9705 15.934 13.1555 16.0871 13.2581C16.1796 13.3072 16.2764 13.3447 16.3741 13.3826C16.4177 13.3996 16.4616 13.4167 16.5055 13.4346C16.6593 13.7019 16.7173 14.005 16.7691 14.3116C16.6552 14.2443 16.5448 14.1816 16.4191 14.1426L16.3989 14.1622C16.4148 14.4171 16.596 14.6338 16.8162 14.7482C16.8202 14.8658 16.8257 14.9768 16.8312 15.0863C16.8358 15.1779 16.8402 15.2687 16.8439 15.3608C17.2274 15.6692 17.7316 15.9365 18.2318 15.9977C18.3291 16.0104 18.4273 16.0146 18.5254 16.0101C18.5858 16.0101 18.6462 15.9983 18.7057 15.9862C18.7496 15.9775 18.793 15.9688 18.8357 15.9651C19.2507 15.9304 19.6315 15.8142 19.9705 15.5992C19.9393 15.3201 20.0297 15.0647 20.2467 14.8763C20.5493 14.5416 21.046 14.561 21.4482 14.6673C22.1042 14.9109 22.6151 15.3996 23.0263 15.9651C23.371 16.4395 23.6452 16.9678 23.8752 17.4521C24.2347 18.2958 24.4298 19.1734 24.4708 20.149L24.4717 20.1651L24.4722 20.1862L24.4743 20.2353C24.5045 20.9003 24.4544 21.5664 24.3252 22.2194C24.3035 22.3323 24.2795 22.4442 24.2529 22.5534C24.2414 22.6141 24.2905 22.6349 24.3358 22.6537C24.3517 22.6603 24.3671 22.6667 24.3792 22.6748C25.1305 22.8811 25.8595 22.6791 26.451 22.2194C26.642 22.0701 26.8155 21.8998 26.9683 21.7117C27.3809 21.26 27.6387 20.7376 27.8727 20.1819C28.3125 18.8492 28.2293 17.2764 27.7904 15.9977C27.7669 15.9294 27.7423 15.8615 27.7167 15.794C27.1922 14.3943 25.9873 12.9188 24.5757 12.2739C24.3032 12.2273 24.042 12.2663 23.7796 12.3056C23.4883 12.3493 23.1953 12.3932 22.8826 12.321C22.4689 12.1987 22.0637 11.9939 21.7678 11.6477L21.7788 11.613C22.012 11.6413 22.2325 11.6951 22.4411 11.7823C22.4454 11.7277 22.4171 11.6792 22.3882 11.6298C22.3651 11.5902 22.3417 11.5503 22.3348 11.5067C22.5789 11.4477 22.8231 11.3934 23.0832 11.3769C22.9959 11.1885 22.8237 11.1752 22.6509 11.1622C22.5428 11.1541 22.4342 11.1458 22.3463 11.0946C22.3221 11.0929 22.298 11.0901 22.2741 11.0862C22.2131 11.0775 22.1513 11.0689 22.0984 11.0946C22.1059 11.1298 22.1186 11.1637 22.1319 11.1975C22.1536 11.2538 22.1752 11.3107 22.1726 11.3769C22.1004 11.3957 22.0296 11.3714 21.9577 11.3472C21.908 11.3304 21.858 11.3134 21.8068 11.3099C21.7785 11.3128 21.7482 11.3084 21.7178 11.3044C21.6554 11.296 21.5936 11.2879 21.5508 11.3382C21.4673 11.2316 21.4017 11.1082 21.3355 10.9839C21.2011 10.732 21.0648 10.4759 20.7749 10.3471L20.7865 10.3081C20.9905 10.2566 21.1899 10.1896 21.3895 10.1228C21.8811 9.95782 22.3755 9.79167 22.9413 9.85611L22.9707 9.86247C23.0482 9.87865 23.1277 9.8957 23.1976 9.93038L22.9887 10.1182C23.1774 10.2965 23.3947 10.4418 23.67 10.4335L23.6859 10.4138C23.668 10.2927 23.605 10.1899 23.5417 10.0861L23.5163 10.0445C23.7235 10.0792 23.8885 10.2384 24.0489 10.3936C24.0893 10.4329 24.1298 10.4719 24.1705 10.5086C24.5407 11.1611 25.1432 11.7922 25.7985 12.2002C26.9622 12.9243 27.717 14.1585 28.2718 15.3034ZM11.1698 22.4006L10.6503 22.5694C10.6396 22.6029 10.6269 22.637 10.6142 22.6708C10.5882 22.7401 10.5627 22.8083 10.5549 22.8719L10.7165 22.8251C10.7711 22.8367 10.8164 22.8745 10.8627 22.9129C10.8768 22.9245 10.8907 22.9361 10.9052 22.9473C10.88 23.1112 10.7445 23.1695 10.6133 23.2259C10.5632 23.2457 10.5148 23.2695 10.4685 23.297C10.3957 23.5608 10.5119 23.7637 10.6275 23.9656C10.7009 24.0942 10.7745 24.2228 10.7988 24.3664H11.3588C11.1537 24.0324 11.0944 23.6039 11.0467 23.2028C11.0713 22.9311 11.0982 22.6361 11.1698 22.4006ZM11.6784 22.8251H11.7093L12.087 23.1672L12.1419 23.1554C12.11 23.5584 12.0917 23.9624 12.087 24.3667H11.6778C11.6576 24.2731 11.6345 24.1783 11.6114 24.0824C11.5371 23.7798 11.4605 23.4669 11.4727 23.1481C11.4981 23.1097 11.5206 23.0681 11.5429 23.0265C11.5825 22.952 11.6221 22.878 11.6784 22.8251ZM13.0611 23.0144C12.9816 22.9392 12.8831 22.9231 12.7768 22.9202C12.6704 22.9338 12.6242 23.0213 12.5791 23.106C12.5609 23.1407 12.5427 23.1747 12.5207 23.2034L12.3791 24.3667H12.7768C12.8634 24.1188 12.9582 23.8443 13.0137 23.5807C13.0244 23.5449 13.0383 23.5071 13.053 23.468C13.1082 23.3184 13.1703 23.1513 13.0611 23.0144ZM18.8282 22.837L18.7144 22.7228C18.801 22.702 18.8906 22.6893 18.9793 22.6766C19.04 22.6679 19.1004 22.6592 19.1596 22.6483C19.1417 22.7075 19.1192 22.7653 19.0967 22.8228C19.04 22.9684 18.9831 23.1146 18.9981 23.2892C19.0004 23.5209 19.0264 23.7527 19.053 23.9885C19.0672 24.1133 19.0813 24.239 19.0923 24.3664H18.6589L18.6407 24.326C18.4895 23.9945 18.3439 23.6749 18.3555 23.2892C18.3705 23.2666 18.3838 23.2429 18.3971 23.2195C18.426 23.1687 18.4543 23.1184 18.4973 23.0808C18.5306 23.123 18.5551 23.1707 18.5797 23.2192C18.6199 23.2978 18.6606 23.3782 18.7415 23.4389C18.8559 23.2814 18.8831 23.0372 18.8282 22.837ZM8.66425 10.4156C8.91276 10.1639 9.21183 9.99923 9.52391 9.877C9.50166 9.52793 9.18987 9.40483 8.90871 9.2933C8.8353 9.26552 8.7631 9.23467 8.69228 9.20083L8.57814 9.18869C8.20364 9.27076 8.08979 9.67184 8.03027 9.99143C8.06841 10.1949 8.22214 10.2373 8.37934 10.281C8.48337 10.3099 8.58941 10.3393 8.66425 10.4156ZM8.81451 11.1973L8.87404 11.1828C9.05435 11.1669 9.2312 11.1718 9.40978 11.1765C9.58691 11.1814 9.7652 11.1863 9.94985 11.1707C10.0397 11.21 10.1342 11.288 10.1778 11.3787C10.1715 11.5955 10.1345 11.8076 10.0978 12.0208C10.062 12.2254 10.0261 12.4317 10.0169 12.645C9.85507 12.7114 9.6973 12.8458 9.65771 13.0224C9.56004 13.0513 9.46931 13.0992 9.37742 13.1481C9.33205 13.1723 9.2864 13.1966 9.2393 13.2186C9.17775 13.0854 9.18873 12.8848 9.2994 12.7741C9.3595 12.6895 9.45688 12.6458 9.55166 12.6037C9.69903 12.5372 9.83889 12.4748 9.81982 12.2664C9.88802 12.1561 9.86663 12.0243 9.84583 11.8974C9.8342 11.8378 9.82782 11.7773 9.82676 11.7165C9.80364 11.6391 9.77995 11.6691 9.75163 11.705C9.73227 11.7298 9.7106 11.7573 9.68517 11.7555C9.55947 11.7824 9.42973 11.7905 9.31905 11.7275C9.30085 11.7084 9.28206 11.6905 9.26328 11.6726C9.19566 11.6076 9.12949 11.5443 9.11013 11.453C8.99946 11.3975 8.87028 11.3114 8.81451 11.1973ZM9.30719 13.7456C9.30835 13.763 9.30546 13.7864 9.30199 13.8121C9.29274 13.8852 9.28147 13.9762 9.354 13.9933L9.6184 13.8719C9.68515 13.856 9.76866 13.8329 9.79929 13.7774C9.71029 13.7266 9.60915 13.7352 9.5057 13.7439C9.43982 13.7497 9.37279 13.7552 9.30719 13.7456ZM10.1206 10.4156C10.253 10.3628 10.3908 10.3073 10.5281 10.3486C10.4053 10.472 10.3067 10.63 10.2128 10.7806L10.1975 10.8049L9.658 10.7927C9.71724 10.6511 9.86692 10.5338 9.99638 10.4624C10.0371 10.4494 10.0787 10.4327 10.1206 10.4156ZM11.6354 10.8121C11.6932 10.7991 11.7585 10.7959 11.8232 10.7924C11.9084 10.7884 11.9937 10.7841 12.061 10.7575C12.0781 10.6977 12.0445 10.6575 12.0119 10.6182C12.0057 10.6109 11.9996 10.6035 11.9937 10.596C11.8975 10.5908 11.8492 10.5243 11.8018 10.4587C11.7481 10.3847 11.6955 10.3125 11.5764 10.3333C11.4863 10.3211 11.3713 10.3093 11.2846 10.3405C11.2462 10.3561 11.2771 10.4032 11.293 10.4272C11.4554 10.4156 11.4845 10.5142 11.5155 10.6182C11.5377 10.6933 11.5608 10.7711 11.6354 10.8121ZM11.388 11.4062L11.4342 11.3863C11.5218 11.264 11.6495 11.2412 11.7767 11.2187L11.8249 11.21L12.8453 11.2288C12.8704 11.2519 12.8528 11.2736 12.8337 11.297C12.8198 11.3137 12.8054 11.3314 12.8054 11.351C12.7739 11.3808 12.7352 11.3996 12.6973 11.4181C12.6607 11.4333 12.6269 11.4544 12.597 11.4805C12.517 11.4831 12.489 11.5397 12.4595 11.5995C12.4393 11.64 12.4185 11.6822 12.3806 11.7093C12.2569 11.8324 12.0853 11.8032 11.933 11.7772C11.9061 11.7726 11.8791 11.7683 11.8521 11.7645C11.7931 11.7209 11.7264 11.662 11.6981 11.5952L11.651 11.642C11.6839 11.7651 11.6937 11.8951 11.7036 12.0252C11.7114 12.1283 11.7192 12.2312 11.7385 12.3306L11.9824 12.4918C11.985 12.7132 12.1454 12.762 12.3118 12.8126C12.4173 12.845 12.5251 12.8776 12.597 12.9556C12.5537 13.0857 12.467 13.1955 12.3725 13.3056C12.2302 13.169 12.0595 13.0656 11.8726 13.0027C11.8593 12.8305 11.7027 12.7146 11.575 12.6204C11.5477 12.6006 11.5209 12.58 11.4946 12.5589C11.4825 12.4289 11.4735 12.298 11.4646 12.1671C11.4472 11.9102 11.4299 11.6538 11.388 11.4062ZM11.7452 13.8598L12.2191 14.0603L12.278 13.8127H11.805C11.7773 13.8092 11.7342 13.8208 11.7452 13.8598ZM13.2111 10.7101H13.1952C13.0652 10.3408 12.695 10.0096 12.3523 9.84147C12.4075 9.65249 12.4667 9.46784 12.6557 9.35804L13.0062 9.24823C13.2079 9.34214 13.3963 9.45946 13.5813 9.59383C13.7272 9.86083 13.7041 10.2229 13.6364 10.5214C13.5902 10.5728 13.52 10.5792 13.448 10.5861C13.3556 10.5948 13.2602 10.6032 13.2111 10.7101Z" fill="#FF6200"/>
</svg>
