<svg width="32" height="32" viewBox="0 0 32 32" fill="none" xmlns="http://www.w3.org/2000/svg">
<path fill-rule="evenodd" clip-rule="evenodd" d="M20.83 18.1602C20.12 18.1602 19.65 18.6002 19.6 19.3602H22C21.97 18.6302 21.6 18.1602 20.83 18.1602ZM20.83 18.1602C20.12 18.1602 19.65 18.6002 19.6 19.3602H22C21.97 18.6302 21.6 18.1602 20.83 18.1602ZM26.71 10.8002L21.2 5.28021C20.19 4.27021 18.23 3.75021 16.85 4.12021L9.31997 6.14021C7.93997 6.51021 6.50997 7.94021 6.13997 9.32021L4.11997 16.8502C3.74997 18.2302 4.26997 20.1902 5.27997 21.2002L10.8 26.7202C11.81 27.7302 13.77 28.2502 15.15 27.8802L22.68 25.8602C24.06 25.4902 25.49 24.0602 25.86 22.6802L27.88 15.1502C28.25 13.7702 27.73 11.8102 26.71 10.8002ZM9.03997 9.04021C9.03997 8.51021 9.46997 8.08021 9.99997 8.08021C10.53 8.08021 10.96 8.51021 10.96 9.04021C10.96 9.57021 10.53 10.0002 9.99997 10.0002C9.46997 10.0002 9.03997 9.57021 9.03997 9.05021V9.04021ZM9.06997 10.9502C9.06997 10.7602 9.22997 10.6102 9.40997 10.6102H10.47C10.66 10.6102 10.81 10.7702 10.8 10.9602L10.77 13.9602C10.77 14.6402 11.21 14.8902 11.69 14.8902C12.14 14.8902 12.55 14.6602 12.6 14.0702L12.63 9.31021C12.63 9.02021 12.86 8.79021 13.14 8.79021H13.85C14.13 8.79021 14.36 9.03021 14.36 9.31021V10.1302C14.5 10.0402 14.67 9.99021 14.84 9.99021C15.02 9.99021 15.19 10.0402 15.34 10.1302C15.79 10.4102 15.92 10.9902 15.65 11.4402C15.38 11.8802 14.8 12.0202 14.36 11.7502H14.35L14.33 13.9602C14.33 14.6302 14.75 14.8802 15.22 14.8902C15.87 14.8902 16.2 14.5202 16.2 14.5202C16.35 14.3602 16.57 14.2802 16.79 14.2802C17.08 14.2902 17.37 14.4402 17.49 14.7002C17.61 14.9402 17.85 15.1002 18.25 15.1302C18.72 15.1602 19.03 14.9802 19.06 14.6302C19.08 14.2602 18.87 14.1202 17.99 13.8402C16.72 13.4102 15.88 13.0602 15.97 11.8002C16.06 10.6202 17.03 9.93021 18.57 10.0502C19.45 10.1202 20.07 10.4402 20.44 10.9102C20.87 11.4402 20.46 12.2202 19.79 12.2102C19.49 12.2002 19.22 12.0302 19.09 11.7602C18.98 11.5502 18.78 11.4102 18.44 11.3802C17.98 11.3402 17.73 11.5202 17.71 11.8502C17.67 12.2802 18.13 12.3702 18.85 12.6202C20.04 13.0402 20.88 13.4802 20.79 14.6002C20.7 15.8602 19.73 16.5802 18.13 16.4602C17.54 16.4102 17.05 16.2702 16.67 16.0402C16.12 16.3602 15.57 16.4502 14.83 16.4502C14.09 16.4502 13.48 16.2502 13.08 15.8302C12.78 16.1902 12.33 16.4502 11.69 16.4502C10.15 16.4502 9.02997 15.8102 9.03997 14.3802L9.06997 10.9502ZM23.92 19.9502C23.92 20.2602 23.67 20.5102 23.37 20.5102H19.71C19.74 21.2802 20.2 21.7702 20.99 21.7702C21.45 21.7702 21.78 21.6302 21.97 21.3702C22.14 21.1202 22.43 20.9902 22.73 21.0302C23.4 21.1202 23.68 21.9702 23.19 22.4302C23.16 22.4502 23.13 22.4702 23.1 22.4902C23.1 22.4902 23.06 22.5302 23.04 22.5502C23.02 22.5602 23.01 22.5702 22.99 22.5802C22.48 22.9602 21.77 23.1902 21.03 23.1902C19.46 23.1902 18.3 22.3102 17.96 20.8502V22.2402C17.95 22.7102 17.56 23.0902 17.09 23.0702C16.63 23.0702 16.26 22.6702 16.27 22.1902V19.6602C16.27 18.8902 15.93 18.4502 15.28 18.4502C14.67 18.4502 14.3 18.8502 14.23 19.4602V22.1902C14.23 22.6702 13.86 23.0502 13.39 23.0502C12.92 23.0502 12.54 22.6702 12.54 22.1902V19.6602C12.54 18.8902 12.18 18.4502 11.57 18.4502C10.9 18.4502 10.49 18.9402 10.49 19.6702V22.2302C10.48 22.7102 10.09 23.0802 9.61997 23.0702C9.15997 23.0702 8.78997 22.6602 8.79997 22.1902V19.9002C8.79997 16.7602 11.21 16.8502 11.98 16.8502C12.8 16.8502 13.46 17.1902 13.85 17.8102C14.2 17.2602 14.79 16.8502 15.69 16.8502C16.99 16.8502 17.87 17.6902 17.96 19.0902C18.28 17.5902 19.44 16.7102 20.99 16.7102C22.76 16.7102 23.92 17.8702 23.92 19.8102V19.9502ZM20.83 18.1502C20.12 18.1502 19.65 18.5902 19.6 19.3502H22C21.97 18.6202 21.6 18.1502 20.83 18.1502ZM20.83 18.1502C20.12 18.1502 19.65 18.5902 19.6 19.3502H22C21.97 18.6202 21.6 18.1502 20.83 18.1502ZM20.83 18.1502C20.12 18.1502 19.65 18.5902 19.6 19.3502H22C21.97 18.6202 21.6 18.1502 20.83 18.1502ZM20.83 18.1502C20.12 18.1502 19.65 18.5902 19.6 19.3502H22C21.97 18.6202 21.6 18.1502 20.83 18.1502ZM20.83 18.1502C20.12 18.1502 19.65 18.5902 19.6 19.3502H22C21.97 18.6202 21.6 18.1502 20.83 18.1502Z" fill="#FF4612"/>
<path fill-rule="evenodd" clip-rule="evenodd" d="M20.99 16.7202C19.44 16.7202 18.28 17.6002 17.96 19.1002C17.87 17.7002 16.99 16.8602 15.69 16.8602C14.79 16.8602 14.2 17.2702 13.85 17.8202C13.46 17.2002 12.8 16.8602 11.98 16.8602C11.21 16.8602 8.8 16.7702 8.8 19.9102V22.2002C8.79 22.6702 9.16 23.0702 9.62 23.0802C10.09 23.0902 10.48 22.7202 10.49 22.2402V19.6802C10.49 18.9502 10.9 18.4602 11.57 18.4602C12.18 18.4602 12.54 18.9002 12.54 19.6702V22.2002C12.54 22.6802 12.92 23.0602 13.39 23.0602C13.86 23.0602 14.23 22.6802 14.23 22.2002V19.4702C14.3 18.8602 14.67 18.4602 15.28 18.4602C15.93 18.4602 16.27 18.9002 16.27 19.6702V22.2002C16.26 22.6802 16.63 23.0702 17.09 23.0802C17.56 23.1002 17.95 22.7202 17.96 22.2502V20.8602C18.3 22.3202 19.46 23.2002 21.03 23.2002C21.77 23.2002 22.48 22.9702 22.99 22.5902C23.01 22.5802 23.02 22.5702 23.04 22.5602C23.06 22.5402 23.08 22.5302 23.1 22.5102C23.1 22.5102 23.16 22.4602 23.19 22.4402C23.68 21.9802 23.4 21.1302 22.73 21.0402C22.43 21.0002 22.14 21.1302 21.97 21.3802C21.78 21.6402 21.45 21.7802 20.99 21.7802C20.2 21.7802 19.74 21.2902 19.71 20.5202H23.37C23.67 20.5202 23.92 20.2702 23.92 19.9602V19.8202C23.92 17.8802 22.76 16.7202 20.99 16.7202ZM19.6 19.3602C19.65 18.6002 20.12 18.1602 20.83 18.1602C21.6 18.1602 21.97 18.6302 22 19.3602H19.6Z" fill="white"/>
<path fill-rule="evenodd" clip-rule="evenodd" d="M10.96 9.04008C10.96 9.57008 10.53 10.0001 10 10.0001C9.47004 10.0001 9.04004 9.57008 9.04004 9.05008C9.04004 8.51008 9.47004 8.08008 10 8.08008C10.53 8.08008 10.96 8.51008 10.96 9.04008Z" fill="white"/>
<path fill-rule="evenodd" clip-rule="evenodd" d="M20.7901 14.6098C20.7001 15.8698 19.7301 16.5898 18.1301 16.4698C17.5401 16.4198 17.0501 16.2798 16.6701 16.0498C16.1201 16.3698 15.5701 16.4598 14.8301 16.4598C14.0901 16.4598 13.4801 16.2598 13.0801 15.8398C12.7801 16.1998 12.3301 16.4598 11.6901 16.4598C10.1501 16.4598 9.03011 15.8198 9.04011 14.3898L9.07011 10.9598C9.07011 10.7698 9.23011 10.6198 9.41011 10.6198H10.4701C10.6601 10.6198 10.8101 10.7798 10.8001 10.9698L10.7701 13.9698C10.7701 14.6498 11.2101 14.8998 11.6901 14.8998C12.1401 14.8998 12.5501 14.6698 12.6001 14.0798L12.6301 9.3198C12.6301 9.0298 12.8601 8.7998 13.1401 8.7998H13.8501C14.1301 8.7998 14.3601 9.0398 14.3601 9.3198V10.1398C14.5001 10.0498 14.6701 9.9998 14.8401 9.9998C15.0201 9.9998 15.1901 10.0498 15.3401 10.1398C15.7901 10.4198 15.9201 10.9998 15.6501 11.4498C15.3801 11.8898 14.8001 12.0298 14.3601 11.7598H14.3501L14.3301 13.9698C14.3301 14.6398 14.7501 14.8898 15.2201 14.8998C15.8701 14.8998 16.2001 14.5298 16.2001 14.5298C16.3501 14.3698 16.5701 14.2898 16.7901 14.2898C17.0801 14.2998 17.3701 14.4498 17.4901 14.7098C17.6101 14.9498 17.8501 15.1098 18.2501 15.1398C18.7201 15.1698 19.0301 14.9898 19.0601 14.6398C19.0801 14.2698 18.8701 14.1298 17.9901 13.8498C16.7201 13.4198 15.8801 13.0698 15.9701 11.8098C16.0601 10.6298 17.0301 9.9398 18.5701 10.0598C19.4501 10.1298 20.0701 10.4498 20.4401 10.9198C20.8701 11.4498 20.4601 12.2298 19.7901 12.2198C19.4901 12.2098 19.2201 12.0398 19.0901 11.7698C18.9801 11.5598 18.7801 11.4198 18.4401 11.3898C17.9801 11.3498 17.7301 11.5298 17.7101 11.8598C17.6701 12.2898 18.1301 12.3798 18.8501 12.6298C20.0401 13.0498 20.8801 13.4898 20.7901 14.6098Z" fill="white"/>
</svg>
