<svg width="32" height="32" viewBox="0 0 32 32" fill="none" xmlns="http://www.w3.org/2000/svg">
<path fill-rule="evenodd" clip-rule="evenodd" d="M20.84 18.1602C20.12 18.1602 19.65 18.6002 19.6 19.3602H22C21.97 18.6302 21.6 18.1602 20.84 18.1602ZM20.84 18.1602C20.12 18.1602 19.65 18.6002 19.6 19.3602H22C21.97 18.6302 21.6 18.1602 20.84 18.1602ZM26.72 10.8002L21.21 5.28021C20.19 4.27021 18.24 3.75021 16.86 4.12021L9.32998 6.14021C7.93998 6.51021 6.50997 7.94021 6.13998 9.32021L4.11998 16.8502C3.74998 18.2302 4.27998 20.1902 5.28998 21.2002L10.8 26.7202C11.81 27.7302 13.77 28.2502 15.15 27.8802L22.68 25.8602C24.06 25.4902 25.5 24.0602 25.87 22.6802L27.89 15.1502C28.25 13.7702 27.73 11.8102 26.72 10.8002ZM9.03998 9.04021C9.04998 8.51021 9.47998 8.08021 10.01 8.08021C10.54 8.08021 10.97 8.51021 10.96 9.04021C10.96 9.57021 10.53 10.0002 9.99998 10.0002C9.46998 10.0002 9.04998 9.57021 9.03998 9.05021V9.04021ZM9.07998 10.9502C9.07998 10.7602 9.22998 10.6102 9.41998 10.6102H10.47C10.66 10.6102 10.81 10.7702 10.81 10.9602L10.78 13.9602C10.78 14.6402 11.21 14.8902 11.69 14.8902C12.17 14.8902 12.56 14.6602 12.6 14.0702L12.63 9.31021C12.63 9.02021 12.86 8.79021 13.15 8.79021H13.85C14.14 8.79021 14.37 9.03021 14.37 9.31021V10.1302C14.51 10.0402 14.68 9.99021 14.85 9.99021C15.02 9.99021 15.2 10.0402 15.35 10.1302C15.79 10.4102 15.93 10.9902 15.65 11.4402C15.38 11.8802 14.8 12.0202 14.36 11.7502H14.35V13.9602C14.34 14.6302 14.76 14.8802 15.23 14.8902C15.87 14.8902 16.2 14.5202 16.2 14.5202C16.36 14.3602 16.57 14.2802 16.79 14.2802C17.08 14.2902 17.37 14.4402 17.5 14.7002C17.61 14.9402 17.86 15.1002 18.25 15.1302C18.72 15.1602 19.03 14.9802 19.06 14.6302C19.09 14.2602 18.87 14.1202 18 13.8402C16.72 13.4102 15.88 13.0602 15.98 11.8002C16.07 10.6202 17.04 9.93021 18.57 10.0502C19.45 10.1202 20.07 10.4402 20.45 10.9102C20.87 11.4402 20.46 12.2202 19.79 12.2102C19.49 12.2002 19.22 12.0302 19.09 11.7602C18.99 11.5502 18.79 11.4102 18.45 11.3802C17.99 11.3402 17.74 11.5202 17.71 11.8502C17.68 12.2802 18.13 12.3702 18.85 12.6202C20.05 13.0402 20.88 13.4802 20.8 14.6002C20.7 15.8602 19.73 16.5802 18.13 16.4602C17.54 16.4102 17.06 16.2702 16.67 16.0402C16.12 16.3602 15.57 16.4502 14.83 16.4502C14.09 16.4502 13.48 16.2502 13.09 15.8302C12.78 16.1902 12.34 16.4502 11.69 16.4502C10.15 16.4502 9.02997 15.8102 9.03998 14.3802L9.07998 10.9502ZM23.92 19.9502C23.92 20.2602 23.68 20.5102 23.37 20.5102H19.71C19.75 21.2802 20.21 21.7702 20.99 21.7702C21.45 21.7702 21.78 21.6302 21.98 21.3702C22.15 21.1202 22.44 20.9902 22.74 21.0302C23.4 21.1202 23.69 21.9702 23.19 22.4302C23.16 22.4502 23.13 22.4702 23.11 22.4902H23.1C23.1 22.4902 23.06 22.5302 23.04 22.5502C23.03 22.5602 23.01 22.5702 22.99 22.5802C22.48 22.9602 21.78 23.1902 21.04 23.1902C19.46 23.1902 18.3 22.3102 17.97 20.8502V22.2402C17.96 22.7102 17.57 23.0902 17.1 23.0702C16.63 23.0702 16.26 22.6702 16.28 22.1902V19.6602C16.28 18.8902 15.93 18.4502 15.28 18.4502C14.68 18.4502 14.31 18.8502 14.24 19.4602V22.1902C14.24 22.6702 13.86 23.0502 13.39 23.0502C12.92 23.0502 12.55 22.6702 12.55 22.1902V19.6602C12.55 18.8902 12.19 18.4502 11.57 18.4502C10.9 18.4502 10.5 18.9402 10.5 19.6702V22.2302C10.48 22.7102 10.09 23.0802 9.62998 23.0702C9.15998 23.0702 8.78998 22.6602 8.79998 22.1902V19.9002C8.79998 16.7602 11.22 16.8502 11.98 16.8502C12.8 16.8502 13.46 17.1902 13.86 17.8102C14.2 17.2602 14.8 16.8502 15.7 16.8502C16.99 16.8502 17.87 17.6902 17.96 19.0902C18.28 17.5902 19.44 16.7102 20.99 16.7102C22.76 16.7102 23.92 17.8702 23.92 19.8102V19.9502ZM20.84 18.1502C20.12 18.1502 19.65 18.5902 19.6 19.3502H22C21.97 18.6202 21.6 18.1502 20.84 18.1502ZM20.84 18.1502C20.12 18.1502 19.65 18.5902 19.6 19.3502H22C21.97 18.6202 21.6 18.1502 20.84 18.1502ZM20.84 18.1502C20.12 18.1502 19.65 18.5902 19.6 19.3502H22C21.97 18.6202 21.6 18.1502 20.84 18.1502ZM20.84 18.1502C20.12 18.1502 19.65 18.5902 19.6 19.3502H22C21.97 18.6202 21.6 18.1502 20.84 18.1502ZM20.84 18.1502C20.12 18.1502 19.65 18.5902 19.6 19.3502H22C21.97 18.6202 21.6 18.1502 20.84 18.1502Z" fill="white"/>
</svg>
