<svg width="32" height="32" viewBox="0 0 32 32" fill="none" xmlns="http://www.w3.org/2000/svg">
<g clip-path="url(#clip0_4674_4877)">
<path fill-rule="evenodd" clip-rule="evenodd" d="M26.4716 26.8327C23.4322 26.8327 21.2 25.8649 21.2 23.0566C21.2 20.5222 23.3686 19.4224 26.3196 19.4224C27.1355 19.4224 28.1838 19.5215 29 19.8236V22.2731C28.3996 21.858 27.7866 21.6029 26.92 21.6029C25.7953 21.6029 24.6623 22.231 24.6623 23.1274C24.6623 24.0244 25.7869 24.6518 26.92 24.6518C27.7739 24.6518 28.3869 24.397 29 23.9961V26.4314C28.2728 26.6723 27.3128 26.8327 26.4716 26.8327Z" fill="white"/>
<path fill-rule="evenodd" clip-rule="evenodd" d="M18.5999 23.2627V23.2482C19.5943 23.191 20.5713 22.6621 20.5713 21.4225C20.5713 20.3164 20.0366 19.6108 18.4359 19.6108H12.2444V26.8331H18.322C20.0996 26.8331 20.6219 25.8942 20.6219 24.9455C20.6219 23.4771 19.6318 23.3485 18.5999 23.2627ZM15.2252 21.2301L16.814 21.2298C17.3658 21.2298 17.5952 21.4569 17.5952 21.9286C17.5952 22.3441 17.3531 22.6133 16.7629 22.6133H15.2252V21.2301ZM16.8348 25.28H15.2208V23.8968H16.8348C17.4381 23.8968 17.642 24.1799 17.642 24.5956C17.642 25.0107 17.4381 25.28 16.8348 25.28Z" fill="white"/>
<path d="M16.15 14.1186C18.6294 14.1186 20.6393 12.1146 20.6393 9.64254C20.6393 7.1705 18.6294 5.1665 16.15 5.1665C13.6706 5.1665 11.6606 7.1705 11.6606 9.64254C11.6606 12.1146 13.6706 14.1186 16.15 14.1186Z" fill="white"/>
<path fill-rule="evenodd" clip-rule="evenodd" d="M19.4606 13.2638C18.6055 14.1883 17.0975 15.113 15.1622 15.113C13.6611 15.113 12.3684 14.5312 11.5459 13.8847C6.64491 14.3972 3 15.1237 3 15.1237V17.1029L29 17.1V13.0203C29 13.0203 24.545 12.9929 19.4606 13.2638Z" fill="white"/>
<path fill-rule="evenodd" clip-rule="evenodd" d="M11.5222 19.6108H8.05556L6.03333 23.055V19.6108H3V26.8331H6.03333V23.9248L8.05556 26.8331H11.3778L8.92222 23.3023L11.5222 19.6108Z" fill="white"/>
</g>
<defs>
<clipPath id="clip0_4674_4877">
<rect width="32" height="32" fill="white"/>
</clipPath>
</defs>
</svg>
