<svg width="32" height="32" viewBox="0 0 32 32" fill="none" xmlns="http://www.w3.org/2000/svg">
<path fill-rule="evenodd" clip-rule="evenodd" d="M26.4716 26.8331C23.4322 26.8331 21.2 25.8654 21.2 23.0571C21.2 20.5227 23.3686 19.4229 26.3196 19.4229C27.1355 19.4229 28.1838 19.5219 29 19.8241V22.2736C28.3996 21.8585 27.7866 21.6034 26.92 21.6034C25.7953 21.6034 24.6623 22.2314 24.6623 23.1279C24.6623 24.0249 25.7869 24.6523 26.92 24.6523C27.7739 24.6523 28.3869 24.3975 29 23.9966V26.4319C28.2728 26.6728 27.3128 26.8331 26.4716 26.8331Z" fill="#003665"/>
<path fill-rule="evenodd" clip-rule="evenodd" d="M18.5999 23.2627V23.2482C19.5943 23.191 20.5713 22.6621 20.5713 21.4225C20.5713 20.3163 20.0366 19.6108 18.4359 19.6108H12.2444V26.8331H18.322C20.0996 26.8331 20.6219 25.8942 20.6219 24.9455C20.6219 23.4771 19.6318 23.3485 18.5999 23.2627ZM15.2252 21.2301L16.814 21.2298C17.3658 21.2298 17.5952 21.4568 17.5952 21.9286C17.5952 22.3441 17.3531 22.6133 16.7629 22.6133H15.2252V21.2301ZM16.8348 25.28H15.2208V23.8968H16.8348C17.4381 23.8968 17.642 24.1799 17.642 24.5956C17.642 25.0107 17.4381 25.28 16.8348 25.28Z" fill="#003665"/>
<path d="M16.15 14.1186C18.6294 14.1186 20.6393 12.1146 20.6393 9.64254C20.6393 7.1705 18.6294 5.1665 16.15 5.1665C13.6706 5.1665 11.6606 7.1705 11.6606 9.64254C11.6606 12.1146 13.6706 14.1186 16.15 14.1186Z" fill="#00AEEF"/>
<path fill-rule="evenodd" clip-rule="evenodd" d="M19.4606 13.2643C18.6055 14.1888 17.0975 15.1135 15.1622 15.1135C13.6611 15.1135 12.3684 14.5317 11.5459 13.8852C6.64491 14.3976 3 15.1242 3 15.1242V17.1034L29 17.1005V13.0208C29 13.0208 24.545 12.9934 19.4606 13.2643Z" fill="#00AEEF"/>
<path fill-rule="evenodd" clip-rule="evenodd" d="M11.5222 19.6108H8.05556L6.03333 23.055V19.6108H3V26.8331H6.03333V23.9248L8.05556 26.8331H11.3778L8.92222 23.3023L11.5222 19.6108Z" fill="#003665"/>
</svg>
