<svg width="32" height="32" viewBox="0 0 32 32" fill="none" xmlns="http://www.w3.org/2000/svg">
<path fill-rule="evenodd" clip-rule="evenodd" d="M17.5734 9.17843C17.6217 9.51701 17.3799 9.80678 17.041 9.80678H14.8622C14.523 9.80678 14.2812 9.51701 14.3292 9.17843L14.9107 5.93967C15.0075 5.60109 15.3461 5.31104 15.6849 5.31104H16.2174C16.6048 5.31104 16.9436 5.60109 16.9919 5.93967L17.5734 9.17843ZM16.2662 11.3055C16.6051 11.3055 17.041 11.5473 17.2343 11.8374L25.2233 24.9387C25.4169 25.229 25.3683 25.6638 25.0777 25.9059L24.2549 26.5342C23.9643 26.776 23.5772 26.7278 23.3831 26.4374L16.363 16.6717C16.1209 16.382 15.782 16.382 15.5882 16.6717L8.56808 26.4374C8.37423 26.7278 7.98712 26.776 7.69649 26.5342L6.87315 25.9059C6.63135 25.6641 6.53457 25.229 6.72813 24.9389L14.7651 11.8377C14.9104 11.5473 15.3946 11.3055 15.7335 11.3055H16.2662ZM12.5866 11.4023C12.7801 11.1123 12.6351 10.7737 12.2962 10.7255L4.35603 9.27522C3.96863 9.22669 3.58122 9.46877 3.43591 9.75882L3.0488 10.629C2.90349 10.9673 3.09733 11.3058 3.4362 11.4509L10.408 13.8198C10.7472 13.9163 11.1828 13.7713 11.3764 13.4812L12.5866 11.4023ZM21.5919 13.8195C21.253 13.9645 20.8171 13.771 20.6235 13.4812L19.4131 11.4509C19.2195 11.1605 19.3646 10.8222 19.7037 10.7737L27.6439 9.32346C27.9828 9.27522 28.4181 9.46878 28.5637 9.80679L28.9512 10.6772C29.0965 11.0152 28.9029 11.4023 28.5637 11.4988L21.5919 13.8195Z" fill="#00B3D9"/>
</svg>
