<svg width="32" height="32" viewBox="0 0 32 32" fill="none" xmlns="http://www.w3.org/2000/svg">
<path d="M19.5155 9.68311H12.4851V22.317H19.5155V9.68311Z" fill="#FF5F00"/>
<path d="M12.9315 15.9999C12.9293 13.5346 14.061 11.2051 16.0004 9.68302C12.5116 6.94078 7.46041 7.54595 4.71817 11.0347C1.97594 14.5234 2.5811 19.5746 6.06984 22.3169C8.9838 24.6073 13.0864 24.6073 16.0004 22.3169C14.061 20.7948 12.9293 18.4653 12.9315 15.9999Z" fill="#EB001B"/>
<path d="M28.9999 16C29 20.4373 25.403 24.0346 20.9657 24.0347C19.1648 24.0348 17.4161 23.4298 16.0002 22.3169C19.489 19.5736 20.0933 14.5216 17.3501 11.0328C16.9553 10.5309 16.5022 10.0777 16.0002 9.68302C19.4888 6.94083 24.5399 7.54592 27.282 11.0345C28.395 12.4504 28.9999 14.1991 28.9999 16Z" fill="#F79E1B"/>
</svg>
