<svg width="122" height="32" viewBox="0 0 122 32" fill="none" xmlns="http://www.w3.org/2000/svg">
<path d="M56.6413 7.42773V22.9144H55.5204V8.8104H55.1559C55.0625 8.80954 54.9784 8.86702 54.9453 8.9544L49.9222 22.3611H48.8017L43.7786 8.9544C43.7454 8.86725 43.6616 8.80986 43.5684 8.8104H43.2035V22.9144H42.0835V7.42773H44.3226L49.3626 20.8677L54.4013 7.42773C54.4013 7.42773 56.6413 7.42773 56.6413 7.42773Z" fill="#0057A5"/>
<path d="M61.6786 7.42773H60.5591V22.9144H61.6791V7.42773H61.6786Z" fill="#0057A5"/>
<path d="M75.6753 7.42773V21.8082H75.2793C75.1935 21.8086 75.1151 21.7601 75.077 21.6833L68.1179 7.42773H65.8779V22.9144H66.9975V8.53351H67.3957C67.4806 8.53351 67.5593 8.5824 67.597 8.6584L74.5557 22.914H76.7957V7.42773H75.6753Z" fill="#0057A5"/>
<path d="M95.2705 7.42773H92.1914V22.9144H95.271V7.42773H95.2705Z" fill="#0057A5"/>
<path d="M107.587 7.42773V19.8668L104.229 7.42773H98.6289V22.9144H101.709V9.50196L105.332 22.9144H110.667V7.42773H107.587H107.587Z" fill="#0057A5"/>
<path d="M90.2315 10.47V7.42773H80.4351V22.9144H83.5146V17.6597H89.1128V14.618H83.5155V10.47H90.2333H90.2311H90.2315Z" fill="#0057A5"/>
<path d="M38.414 12.6065C38.3864 12.0625 38.226 11.3723 37.6873 11.2909C37.2371 11.2251 36.8855 11.6531 36.6162 12.0216C35.2771 13.851 33.5175 15.3313 31.486 16.3376C31.0878 16.5345 30.5193 16.674 30.2695 16.3056C30.1567 16.1398 30.1575 15.9238 30.1798 15.7247C30.2496 15.0982 30.4825 14.501 30.8553 13.9927C31.0749 13.694 31.3424 13.4251 31.4953 13.0878C31.6464 12.75 31.6487 12.3069 31.3744 12.0567C31.1309 11.8354 30.7384 11.8434 30.4455 11.9971C30.1531 12.1509 29.9407 12.4207 29.7549 12.694C29.2445 13.4451 28.866 14.2778 28.6358 15.1563C28.5878 15.3398 28.5415 15.5323 28.4144 15.6727C28.306 15.7914 28.1522 15.8567 28.0029 15.9163C27.202 16.2394 26.2287 16.5105 25.5295 16.0038C25.2175 15.7771 25.0207 15.4283 24.8558 15.0789C24.5602 14.4462 24.3486 13.7776 24.2264 13.09C24.162 12.7291 24.1198 12.3545 23.9442 12.0323C23.7682 11.7105 23.4131 11.4527 23.054 11.518C22.846 11.5558 22.6709 11.6914 22.5064 11.8234L18.6104 14.934L17.7673 13.1607C17.6104 12.8287 17.4389 12.4807 17.1358 12.2749C16.6891 11.9705 16.066 12.0634 15.6082 12.3487C15.1504 12.634 14.8184 13.0776 14.4855 13.5025C13.935 14.208 13.3544 14.8897 12.7455 15.5456L12.7633 12.7825C12.7664 12.3011 12.75 11.7669 12.4144 11.422C12.138 11.1354 11.6811 11.1843 11.3771 11.3931C11.1149 11.5745 11.1304 11.882 11.1291 12.1696L11.1184 15.5105L11.1109 17.4474C11.1087 17.9505 11.1962 18.582 11.6762 18.7305C12.1242 18.8683 12.5402 18.4647 12.8353 18.1011L16.2811 13.8611L17.4482 16.27C17.5811 16.5469 17.7389 16.8456 18.026 16.9549C18.4184 17.1056 18.8353 16.83 19.1651 16.5687L22.7104 13.7714C23.094 15.1874 23.5829 16.7438 24.8518 17.4771C26.0909 18.194 27.6784 17.8683 28.9669 17.2447C29.2167 17.7403 29.7598 18.0411 30.3109 18.1118C30.862 18.1829 31.4193 18.0514 31.9402 17.8598C33.8615 17.1585 35.3904 15.694 36.858 14.2691C36.9824 17.1519 36.7457 20.0389 36.1535 22.8629C36.0824 23.2007 36.0064 23.5487 36.0762 23.8874C36.146 24.226 36.4113 24.5496 36.7562 24.5709C37.3051 24.6043 37.5851 23.9403 37.7131 23.4051C38.8029 18.8563 38.4358 13.026 38.4144 12.6051L38.414 12.6065Z" fill="#00A5CD"/>
</svg>
