<svg width="32" height="32" viewBox="0 0 32 32" fill="none" xmlns="http://www.w3.org/2000/svg">
<path d="M25.2308 5.60968C25.2493 6.21891 25.2677 6.82814 25.2308 7.43737C25.2308 7.49275 25.2308 7.52968 25.2123 7.58506C25.2123 7.88044 25.1939 8.17583 25.157 8.47121V8.54506C25.1385 8.80352 25.1016 9.08044 25.0646 9.33891C25.0277 9.70814 24.9723 10.0589 24.8985 10.4097C24.8239 10.8379 24.7315 11.2629 24.6216 11.6835C24.5888 11.797 24.5169 11.8951 24.4185 11.9604C24.3262 12.0158 24.2154 12.0528 24.1046 12.0528C24.0493 12.0528 23.9754 12.0528 23.92 12.0343C23.7986 11.9877 23.6951 11.9036 23.6246 11.7943C23.5693 11.6835 23.5508 11.5543 23.5693 11.4251C23.6616 11.0374 23.7539 10.6312 23.8277 10.2435C23.9939 9.32045 24.1046 8.37892 24.1416 7.43738C24.16 6.902 24.16 6.38507 24.1416 5.84969C23.4585 6.49584 22.7385 7.03123 21.9262 7.51123C21.8523 7.54815 21.7785 7.60354 21.7047 7.64046C21.1877 7.97277 20.5785 8.15738 19.9693 8.19431C19.5182 8.21254 19.0857 8.01346 18.8062 7.65893C18.2893 7.89893 17.717 8.02816 17.1447 8.04662C16.8308 8.04662 16.5354 8.0097 16.24 7.88047C16.1142 7.83756 15.9959 7.77527 15.8893 7.69585C15.7379 7.61371 15.6008 7.50774 15.4831 7.382C15.0585 6.86508 14.7631 6.25585 14.6154 5.60969C14.6154 5.59738 14.6093 5.58507 14.597 5.57277H14.5416L11.9754 7.40046C11.9016 7.43738 11.8277 7.47431 11.7539 7.47431C11.7354 7.47431 11.6985 7.49277 11.6616 7.49277H11.5139C11.477 7.47431 11.44 7.47431 11.4031 7.45585L11.3847 7.43739C11.2721 7.40146 11.1789 7.32156 11.1262 7.21585L10.3139 5.702C10.3139 5.68354 10.2954 5.66508 10.2954 5.66508C10.277 5.66508 10.2585 5.64662 10.24 5.64662C10.24 5.64662 10.2216 5.66508 10.2031 5.66508C10.2031 5.66508 10.1847 5.66508 10.1847 5.68354L10.0554 5.81277L9.90774 5.97892L9.72312 6.182L9.52004 6.40354L9.2985 6.662L8.8185 7.17892L8.59696 7.43738L8.37542 7.67738C8.30157 7.75123 7.7108 8.39738 7.6185 8.47123C7.54465 8.52662 7.45235 8.56354 7.34158 8.56354C7.26773 8.56354 7.19389 8.54508 7.1385 8.52662C7.12004 8.52662 7.10158 8.50816 7.08312 8.50816C7.06466 8.4897 7.0462 8.4897 7.02774 8.47124C7.00928 8.47124 6.99082 8.45278 6.97236 8.43432C6.93544 8.41586 6.91698 8.3974 6.88005 8.36047C6.85752 8.33233 6.83889 8.30128 6.82467 8.26816C6.80621 8.2497 6.80621 8.21278 6.78775 8.17585C6.78775 8.13893 6.76929 8.102 6.76929 8.06508V4.48354C6.78775 4.35431 6.84314 4.22508 6.95391 4.13277C7.04622 4.04046 7.19391 3.98508 7.32314 4.00354C7.45237 4.00354 7.60006 4.04046 7.69237 4.13277C7.80314 4.22508 7.85852 4.35431 7.85852 4.48354V6.55123C7.85852 6.55123 7.85852 6.56969 7.87698 6.56969V6.58815H7.89544L7.9139 6.60661C7.93236 6.60661 7.93236 6.58815 7.95082 6.58815H7.96928L9.48313 4.90815C9.70467 4.70507 10 4.57584 10.2954 4.55738C10.3324 4.53892 10.3693 4.53892 10.4062 4.53892C10.5354 4.53892 10.6647 4.55738 10.7939 4.61277C11.1077 4.72354 11.2185 5.11123 11.3477 5.36969L11.7908 6.20046L11.8093 6.21892C11.8277 6.21892 11.8277 6.23738 11.8462 6.23738C11.8647 6.23738 11.8831 6.21892 11.8831 6.21892L14.5047 4.3543C14.5785 4.28045 14.6708 4.22507 14.7631 4.20661C14.8185 4.18815 14.8739 4.18815 14.9293 4.18815C15.04 4.18815 15.1508 4.22507 15.2431 4.28046C15.3354 4.35431 15.4093 4.44661 15.4462 4.55738C15.5201 4.742 15.557 4.92661 15.6124 5.11123C15.7231 5.72046 15.9631 6.27431 16.3324 6.75431C16.4247 6.86508 16.5539 6.95739 16.7016 6.99431C16.8493 7.04969 16.997 7.08662 17.1447 7.06816C17.6247 7.0497 18.1047 6.90201 18.5293 6.66201C18.6954 5.88663 19.0831 5.14816 19.637 4.57586C19.6924 4.52048 19.7662 4.48355 19.8216 4.44663C19.8954 4.40971 19.9877 4.40971 20.0616 4.40971C20.1908 4.40971 20.3016 4.44663 20.4124 4.50202C20.4677 4.53894 20.5047 4.59433 20.5416 4.64971C20.5785 4.70509 20.597 4.76048 20.597 4.83433C20.6154 4.88971 20.597 4.96356 20.5785 5.01895C20.5601 5.0928 20.5231 5.14818 20.4862 5.1851C20.0985 5.59125 19.8031 6.08972 19.637 6.6251C19.6001 6.75433 19.6001 6.90202 19.6554 7.03125C19.6739 7.04971 19.6739 7.06817 19.6924 7.08663C19.7293 7.12355 19.7662 7.16048 19.8216 7.1974C19.877 7.21586 19.9324 7.21586 20.0062 7.21586C20.3939 7.16048 20.7816 7.03124 21.1324 6.80971C22.3079 6.1804 23.3391 5.31266 24.16 4.26202C24.2154 4.20664 24.2893 4.15125 24.3631 4.11433C24.4554 4.07741 24.5293 4.05895 24.6216 4.05895C24.7324 4.05895 24.8247 4.07741 24.917 4.1328C25.0093 4.18819 25.0647 4.26203 25.12 4.33588C25.157 4.42819 25.1754 4.5205 25.157 4.6128V4.68665C25.1754 4.72357 25.1754 4.7605 25.1754 4.79742L25.2308 5.60968Z" fill="black"/>
<path d="M26.1539 7.43753H26.152C26.0929 8.95138 25.8936 10.456 25.5262 11.9237C25.4708 12.1267 25.36 12.3114 25.2308 12.4406V13.8991H20.6154V16.6683H24.3077V18.5145H20.6154V23.1299H18.7693V12.0529H22.72C22.6093 11.776 22.6093 11.4621 22.6831 11.1852C22.9749 10.0807 23.1482 8.94809 23.2 7.80673C22.8493 8.02829 22.4985 8.24985 22.1477 8.45291C21.4831 8.84061 20.7447 9.0806 19.9693 9.11752C19.4892 9.11752 19.0092 8.98831 18.6031 8.71139C18.1416 8.87753 17.6431 8.95138 17.1446 8.96981C16.7016 8.96981 16.2769 8.89596 15.8708 8.72982C15.4646 8.56368 15.1139 8.32369 14.8185 8.00985C14.656 7.83627 14.5139 7.64059 14.3846 7.43752H13.5169L12.5108 8.15755C12.2708 8.32369 11.9754 8.41597 11.6616 8.41597H11.3846L11.2923 8.37904C11.237 8.36061 11.1631 8.36061 11.1077 8.32368C10.7754 8.2129 10.48 7.97291 10.3139 7.65907L10.1939 7.43751H9.83571L9.74153 7.54829L9.50154 7.80677L9.27998 8.06519L9.13234 8.2129L9.05849 8.30519C8.89235 8.47139 8.35695 9.06215 8.19075 9.19136C7.81947 9.48225 7.32625 9.56557 6.88002 9.41292L6.73231 9.37599L6.62153 9.32057L6.5846 9.28364L6.45539 9.20985L6.40003 9.17292C6.32618 9.09907 6.25232 9.04365 6.17847 8.95136C6.12305 8.87751 6.06769 8.80365 6.03076 8.7298C5.9754 8.63751 5.91998 8.52674 5.90155 8.41596C5.86462 8.30518 5.84613 8.1944 5.84613 8.06519V7.4375C4.82654 7.4375 4 8.26404 4 9.28363V26.154C4 27.1736 4.82654 28.0002 5.84613 28.0002H26.1539C27.1735 28.0002 28 27.1736 28 26.154V9.28366C28 8.26407 27.1735 7.43753 26.1539 7.43753ZM16.9231 23.1299H16V12.976L12.3077 22.2068H11.3846L7.69235 12.976V23.1299H6.76925V12.0529H8.22769L11.8462 21.0622L15.4646 12.0529H16.9231V23.1299Z" fill="black"/>
</svg>
