<svg width="32" height="32" viewBox="0 0 32 32" fill="none" xmlns="http://www.w3.org/2000/svg">
<path d="M3.03003 18.1202C3.08003 14.0402 6.43003 10.7202 10.5 10.7202C14.57 10.7202 17.93 14.0402 17.97 18.1102V25.0502H14.12V18.4202C14.1 16.3302 12.47 14.6302 10.49 14.6302C8.51003 14.6302 6.89003 16.3302 6.86003 18.4302V25.0502H3.03003V18.1202Z" fill="black"/>
<path d="M28.9701 16.2802C28.9101 11.1302 24.6801 6.9502 19.5301 6.9502C16.8101 6.9502 14.3501 8.1202 12.6201 9.9802C14.3401 10.4302 15.8501 11.4102 16.9701 12.7302C17.7001 12.2002 18.5801 11.8902 19.5301 11.8902C22.0301 11.8902 24.0901 14.0302 24.1101 16.6702V25.0402H28.9701V16.2802Z" fill="black"/>
</svg>
