<svg width="32" height="32" viewBox="0 0 32 32" fill="none" xmlns="http://www.w3.org/2000/svg">
<path d="M20.536 10.7737L15.2362 16.0734L5.06519 5.91166C5.43772 4.2258 7.37508 3.28512 8.96782 4.18857L20.536 10.7737Z" fill="#34A853"/>
<path d="M25.6589 18.2993L20.4336 21.2705L15.2363 16.0732L20.5361 10.7734L25.6589 13.6888C27.4472 14.704 27.4472 17.2747 25.6589 18.2993Z" fill="#FBBC05"/>
<path d="M20.4336 21.2706L8.96793 27.8091C7.41243 28.6939 5.53101 27.8184 5.10254 26.207L15.2363 16.0732L20.4336 21.2706Z" fill="#EA4335"/>
<path d="M15.2362 16.0734L5.10244 26.2072C5.02791 25.9837 5 25.7508 5 25.4993V6.49842C5 6.29354 5.01865 6.09792 5.06521 5.91162L15.2362 16.0734Z" fill="#4285F4"/>
</svg>
