<svg width="32" height="32" viewBox="0 0 32 32" fill="none" xmlns="http://www.w3.org/2000/svg">
<path opacity="0.53" d="M28.3331 16.9876C28.3331 23.5462 22.8117 28.8629 16.0008 28.8629C9.18982 28.8629 3.66846 23.5462 3.66846 16.9876C3.66846 10.4291 9.18982 5.1123 16.0008 5.1123C22.8117 5.1123 28.3331 10.4291 28.3331 16.9876Z" fill="black"/>
<path d="M28.8019 15.939C28.8019 23.0093 23.0703 28.7409 16.0001 28.7409C8.92981 28.7409 3.19824 23.0093 3.19824 15.939C3.19824 8.86879 8.92981 3.13721 16.0001 3.13721C23.0703 3.13721 28.8019 8.86879 28.8019 15.939Z" fill="url(#paint0_linear_4674_4889)" stroke="#CCCCCC" stroke-width="0.26366" stroke-linecap="round" stroke-linejoin="round"/>
<path d="M27.7988 15.9388C27.7988 22.4551 22.5163 27.7375 16.0001 27.7375C9.48388 27.7375 4.20142 22.4551 4.20142 15.9388C4.20142 9.42259 9.48387 4.14014 16.0001 4.14014C22.5163 4.14014 27.7988 9.42259 27.7988 15.9388Z" fill="url(#paint1_radial_4674_4889)"/>
<path d="M16 4.75586C15.9047 4.75586 15.828 4.83258 15.828 4.92788V6.91207C15.828 7.00737 15.9047 7.08409 16 7.08409C16.0953 7.08409 16.1721 7.00737 16.1721 6.91207V4.92788C16.1721 4.83258 16.0953 4.75586 16 4.75586ZM14.8747 4.82699C14.8633 4.82576 14.8516 4.82576 14.8397 4.82713C14.7449 4.83702 14.6766 4.92129 14.6865 5.01608L14.7732 5.84618C14.7831 5.94097 14.8673 6.00932 14.9621 5.99942C15.0569 5.98953 15.1253 5.90526 15.1154 5.81047L15.0287 4.98038C15.0201 4.89744 14.9544 4.83473 14.8747 4.82699ZM17.1333 4.82781C17.0535 4.83549 16.9879 4.89819 16.9791 4.98112L16.8918 5.81115C16.8819 5.90593 16.9502 5.99028 17.045 6.00024C17.1398 6.01021 17.224 5.94193 17.234 5.84715L17.3213 5.01705C17.3313 4.92227 17.2629 4.83799 17.1682 4.82803C17.1563 4.8268 17.1447 4.82679 17.1333 4.82781ZM13.7187 4.99462C13.7072 4.99471 13.6956 4.99585 13.6839 4.9983C13.5907 5.01804 13.5315 5.10901 13.5513 5.20224L13.9622 7.14337C13.9819 7.23661 14.0729 7.29578 14.1661 7.27604C14.2594 7.2563 14.3185 7.1654 14.2988 7.07217L13.8879 5.13097C13.8706 5.04939 13.7988 4.994 13.7187 4.99462ZM18.2892 4.99625C18.2091 4.99543 18.1373 5.05099 18.1199 5.13256L17.7076 7.07346C17.6878 7.16668 17.7469 7.25767 17.8401 7.27748C17.9333 7.2973 18.0243 7.23817 18.0441 7.14495L18.4565 5.20404C18.4763 5.11082 18.4172 5.01983 18.3239 5.00003C18.3123 4.99758 18.3007 4.99625 18.2892 4.99625ZM12.6154 5.30569C12.5931 5.30365 12.5701 5.3061 12.5475 5.31362C12.4568 5.34309 12.4076 5.4397 12.437 5.53033L12.6949 6.32412C12.7244 6.41476 12.8211 6.46404 12.9117 6.43459C13.0023 6.40512 13.0516 6.30844 13.0221 6.2178L12.7642 5.42401C12.7421 5.35603 12.6822 5.31137 12.6154 5.30569ZM19.3862 5.3061C19.3194 5.31178 19.2595 5.35647 19.2374 5.42444L18.9793 6.21816C18.9499 6.30879 18.9991 6.40548 19.0897 6.43495C19.1804 6.46442 19.2771 6.41517 19.3065 6.32455L19.5646 5.53076C19.5941 5.44012 19.5448 5.34344 19.4542 5.31397C19.4316 5.30661 19.4085 5.30422 19.3862 5.3061ZM11.5244 5.70493C11.5021 5.70534 11.4795 5.71024 11.4577 5.71993C11.3706 5.75863 11.3317 5.85988 11.3704 5.94696L12.1763 7.7601C12.215 7.84718 12.3162 7.88612 12.4033 7.84741C12.4903 7.80871 12.5294 7.70746 12.4907 7.62038L11.6847 5.80724C11.6557 5.74192 11.5915 5.70363 11.5244 5.70493ZM20.4895 5.71102C20.4225 5.70979 20.3582 5.74784 20.3291 5.8131L19.5207 7.62513C19.4819 7.71216 19.5207 7.81348 19.6077 7.85231C19.6948 7.89113 19.7961 7.85233 19.8349 7.7653L20.6433 5.95328C20.6821 5.86624 20.6433 5.76493 20.5563 5.7261C20.5345 5.71641 20.5118 5.71151 20.4895 5.71102ZM10.5118 6.24075C10.4787 6.2383 10.4447 6.24565 10.4138 6.26355C10.3312 6.3112 10.3031 6.41599 10.3508 6.49853L10.7681 7.22135C10.8158 7.30389 10.9206 7.33196 11.0031 7.28431C11.0856 7.23666 11.1137 7.13187 11.066 7.04933L10.6487 6.32651C10.6189 6.27492 10.5668 6.2446 10.5118 6.24075ZM21.4883 6.24074C21.4332 6.24442 21.3812 6.27491 21.3514 6.32649L20.934 7.04931C20.8863 7.13185 20.9145 7.23663 20.997 7.28429C21.0796 7.33194 21.1843 7.30387 21.232 7.22133L21.6493 6.49851C21.697 6.41598 21.6689 6.31119 21.5864 6.26353C21.5554 6.24567 21.5213 6.23845 21.4883 6.24074ZM9.52842 6.85406C9.49532 6.85529 9.46217 6.86591 9.43324 6.88688C9.3561 6.94284 9.33905 7.04999 9.39503 7.12713L10.5601 8.7332C10.6161 8.81034 10.7233 8.8274 10.8004 8.77145C10.8776 8.71549 10.8946 8.60834 10.8386 8.5312L9.67349 6.92513C9.63851 6.87691 9.58357 6.85217 9.52842 6.85406ZM22.4839 6.86281C22.4288 6.86077 22.3738 6.88549 22.3388 6.93364L21.1715 8.53816C21.1154 8.61522 21.1323 8.72242 21.2094 8.77848C21.2865 8.83454 21.3937 8.81767 21.4497 8.74064L22.617 7.13612C22.673 7.05905 22.6561 6.95186 22.579 6.8958C22.5502 6.87479 22.517 6.864 22.4839 6.86281ZM8.64947 7.59119C8.60556 7.58874 8.56075 7.60341 8.52534 7.63529C8.45451 7.69905 8.44882 7.80738 8.51259 7.87821L9.07104 8.49858C9.1348 8.56941 9.24313 8.57511 9.31396 8.51133C9.38479 8.44757 9.39049 8.33917 9.32671 8.26834L8.76834 7.64805C8.73646 7.61262 8.69338 7.5935 8.64947 7.59119ZM23.3518 7.59242C23.3079 7.59487 23.2649 7.61388 23.233 7.64929L22.6745 8.26951C22.6107 8.34033 22.6164 8.44873 22.6872 8.5125C22.758 8.57627 22.8664 8.57055 22.9301 8.49975L23.4887 7.87954C23.5524 7.80871 23.5467 7.70031 23.4759 7.63655C23.4405 7.60467 23.3957 7.59012 23.3518 7.59242ZM7.80705 8.40039C7.76314 8.40284 7.72014 8.42185 7.68826 8.45726C7.6245 8.52809 7.6302 8.63642 7.70101 8.70018L9.17568 10.0277C9.24651 10.0915 9.35484 10.0858 9.4186 10.0149C9.48237 9.94412 9.47674 9.83579 9.40589 9.77203L7.93115 8.44451C7.89572 8.41263 7.85097 8.39808 7.80705 8.40039ZM24.1983 8.40619C24.1544 8.40374 24.1096 8.41837 24.0741 8.45022L22.5986 9.7767C22.5277 9.84041 22.5219 9.94874 22.5856 10.0196C22.6493 10.0905 22.7577 10.0962 22.8286 10.0325L24.3042 8.70605C24.3751 8.64234 24.3808 8.53401 24.3171 8.46313C24.2852 8.4277 24.2422 8.40853 24.1983 8.40619ZM7.1065 9.30118C7.05135 9.29914 6.99637 9.32398 6.96136 9.37215C6.90534 9.44925 6.92233 9.55638 6.99945 9.6124L7.67468 10.103C7.75178 10.159 7.85891 10.1421 7.91492 10.065C7.97094 9.98788 7.95399 9.88068 7.87691 9.82466L7.20168 9.33407C7.17279 9.31306 7.13959 9.30237 7.1065 9.30118ZM24.8982 9.30744C24.8651 9.30867 24.832 9.31925 24.803 9.34026L24.1275 9.83041C24.0504 9.88637 24.0333 9.99359 24.0892 10.0707C24.1452 10.1479 24.2523 10.1648 24.3295 10.1089L25.0051 9.61876C25.0822 9.5628 25.0992 9.45565 25.0433 9.37851C25.0083 9.3303 24.9534 9.30555 24.8982 9.30744ZM6.45183 10.262C6.39679 10.2657 6.34471 10.2962 6.31493 10.3478C6.26728 10.4303 6.29535 10.5351 6.37789 10.5828L8.09622 11.5749C8.17875 11.6225 8.28354 11.5944 8.3312 11.5119C8.37886 11.4294 8.35078 11.3246 8.26824 11.2769L6.54991 10.2848C6.51897 10.267 6.48485 10.2597 6.45183 10.262ZM25.5482 10.262C25.5152 10.2596 25.4811 10.2669 25.4501 10.2848L23.7318 11.2769C23.6493 11.3246 23.6212 11.4294 23.6688 11.5119C23.7165 11.5945 23.8213 11.6225 23.9038 11.5749L25.6222 10.5828C25.7047 10.5351 25.7328 10.4303 25.6852 10.3478C25.6554 10.2962 25.6032 10.2659 25.5482 10.262ZM5.95685 11.2862C5.88981 11.2846 5.82553 11.3229 5.79641 11.3882C5.75759 11.4752 5.79639 11.5766 5.88343 11.6154L6.64574 11.9554C6.73278 11.9942 6.8341 11.9554 6.87292 11.8684C6.91174 11.7814 6.87287 11.68 6.78584 11.6412L6.0236 11.3012C6.00186 11.2915 5.9792 11.2866 5.95685 11.2862ZM26.0465 11.2933C26.0241 11.2937 26.0014 11.2986 25.9797 11.3083L25.2172 11.6477C25.1302 11.6865 25.0912 11.7877 25.13 11.8748C25.1688 11.9619 25.2701 12.0008 25.3572 11.962L26.1196 11.6225C26.2067 11.5838 26.2455 11.4825 26.2068 11.3954C26.1777 11.3301 26.1135 11.2919 26.0465 11.2933ZM5.5157 12.3566C5.44889 12.3622 5.38899 12.4069 5.36684 12.4748C5.33733 12.5654 5.38646 12.6622 5.47709 12.6917L7.36365 13.3064C7.45426 13.3359 7.55098 13.2867 7.58051 13.1962C7.61002 13.1055 7.56089 13.0088 7.47026 12.9793L5.5837 12.3646C5.56106 12.3572 5.53797 12.3548 5.5157 12.3566ZM26.4868 12.364C26.4645 12.3619 26.4415 12.3644 26.4189 12.3719L24.5319 12.9853C24.4412 13.0148 24.392 13.1114 24.4215 13.2021C24.451 13.2927 24.5476 13.3419 24.6383 13.3125L26.5252 12.6991C26.6158 12.6696 26.6651 12.5729 26.6357 12.4823C26.6136 12.4143 26.5536 12.3696 26.4868 12.364ZM5.24086 13.4803C5.16072 13.4795 5.08885 13.5351 5.07151 13.6167C5.05169 13.7099 5.11082 13.8009 5.20403 13.8207L6.02047 13.9942C6.11369 14.014 6.20467 13.9549 6.22448 13.8617C6.2443 13.7685 6.18517 13.6775 6.09196 13.6577L5.27559 13.4842C5.26394 13.4817 5.25231 13.4803 5.24086 13.4803ZM26.7595 13.4819C26.7481 13.482 26.7365 13.4836 26.7248 13.4856L25.9084 13.659C25.8152 13.6789 25.7561 13.7698 25.7759 13.863C25.7957 13.9562 25.8867 14.0154 25.9799 13.9956L26.7963 13.8221C26.8895 13.8023 26.9487 13.7113 26.9289 13.6181C26.9115 13.5366 26.8396 13.4812 26.7595 13.4819ZM5.03282 14.6106C4.95305 14.6182 4.88738 14.6808 4.87862 14.7637C4.86861 14.8585 4.93678 14.9429 5.03155 14.9529L7.00475 15.1615C7.09952 15.1715 7.18391 15.1033 7.19392 15.0085C7.20393 14.9137 7.13568 14.8294 7.04091 14.8193L5.06771 14.6107C5.05586 14.6095 5.04422 14.6095 5.03282 14.6106ZM26.969 14.6254C26.9576 14.6242 26.9459 14.6242 26.934 14.6255L24.9606 14.8315C24.8658 14.8414 24.7975 14.9256 24.8074 15.0204C24.8173 15.1152 24.9015 15.1835 24.9963 15.1737L26.9697 14.9677C27.0645 14.9578 27.1329 14.8735 27.123 14.7788C27.1143 14.6958 27.0488 14.6331 26.969 14.6254ZM4.99941 15.7675C4.90411 15.7675 4.82739 15.8442 4.82739 15.9395C4.82739 16.0348 4.9041 16.1116 4.99941 16.1116H5.83404C5.92934 16.1116 6.00613 16.0348 6.00613 15.9395C6.00613 15.8442 5.92934 15.7675 5.83404 15.7675H4.99941ZM26.1659 15.7675C26.0706 15.7675 25.9939 15.8442 25.9939 15.9395C25.9939 16.0348 26.0706 16.1116 26.1659 16.1116H27.0006C27.0959 16.1116 27.1726 16.0348 27.1726 15.9395C27.1726 15.8442 27.0959 15.7675 27.0006 15.7675H26.1659ZM7.03862 16.7053C7.02722 16.7041 7.01557 16.704 7.00372 16.7054L5.03022 16.9114C4.93543 16.9213 4.86711 17.0055 4.87699 17.1003C4.88688 17.1951 4.97115 17.2634 5.06593 17.2535L7.03943 17.0476C7.13422 17.0377 7.20254 16.9534 7.19266 16.8587C7.184 16.7757 7.11838 16.713 7.03862 16.7053ZM24.9603 16.7175C24.8805 16.7251 24.8149 16.7877 24.8061 16.8706C24.7961 16.9654 24.8643 17.0498 24.9591 17.0598L26.9323 17.2684C27.027 17.2784 27.1114 17.2102 27.1214 17.1154C27.1314 17.0206 27.0632 16.9362 26.9684 16.9262L24.9953 16.7176C24.9834 16.7164 24.9717 16.7164 24.9603 16.7175ZM6.05491 17.8796C6.04347 17.8797 6.03182 17.8808 6.02017 17.8832L5.20373 18.0567C5.11051 18.0765 5.05141 18.1675 5.07121 18.2607C5.09103 18.3539 5.18201 18.413 5.27523 18.3932L6.09167 18.2198C6.18489 18.2 6.24399 18.109 6.22419 18.0158C6.20686 17.9343 6.13505 17.8789 6.05491 17.8796ZM25.9448 17.8812C25.8647 17.8804 25.7929 17.9359 25.7756 18.0175C25.7557 18.1107 25.8148 18.2017 25.908 18.2215L26.7245 18.395C26.8177 18.4148 26.9087 18.3558 26.9285 18.2626C26.9483 18.1694 26.8892 18.0783 26.7959 18.0585L25.9796 17.885C25.9679 17.8825 25.9563 17.8812 25.9448 17.8812ZM7.42971 18.5587C7.40744 18.5567 7.38444 18.5591 7.36178 18.5667L5.47478 19.18C5.38414 19.2095 5.33492 19.3062 5.36438 19.3968C5.39385 19.4875 5.49053 19.5367 5.58117 19.5072L7.4681 18.8938C7.55874 18.8644 7.60803 18.7677 7.57857 18.677C7.55646 18.6091 7.49652 18.5644 7.42971 18.5587ZM24.5684 18.5648C24.5016 18.5704 24.4417 18.6151 24.4195 18.683C24.39 18.7736 24.4392 18.8703 24.5298 18.8999L26.4163 19.5146C26.507 19.5441 26.6037 19.4949 26.6332 19.4043C26.6628 19.3137 26.6136 19.217 26.523 19.1875L24.6364 18.5728C24.6138 18.5654 24.5907 18.5629 24.5684 18.5648ZM6.70964 19.9022C6.68729 19.9026 6.66466 19.9074 6.6429 19.9171L5.88036 20.2566C5.7933 20.2954 5.75444 20.3967 5.7932 20.4837C5.83198 20.5708 5.93324 20.6097 6.0203 20.5709L6.78284 20.2315C6.8699 20.1927 6.90876 20.0914 6.87 20.0044C6.84094 19.9391 6.77667 19.9009 6.70964 19.9022ZM25.2876 19.9088C25.2205 19.9071 25.1563 19.9455 25.1271 20.0108C25.0883 20.0978 25.1271 20.1991 25.2141 20.2379L25.9764 20.578C26.0634 20.6168 26.1647 20.578 26.2036 20.491C26.2424 20.4039 26.2036 20.3026 26.1166 20.2638L25.3543 19.9238C25.3326 19.914 25.3099 19.9092 25.2876 19.9088ZM8.19426 20.2815C8.16124 20.2791 8.12714 20.2864 8.09619 20.3043L6.37786 21.2964C6.29533 21.3441 6.26725 21.4489 6.3149 21.5314C6.36255 21.6139 6.46734 21.642 6.54988 21.5944L8.26821 20.6023C8.35074 20.5547 8.37881 20.4498 8.33117 20.3673C8.30138 20.3157 8.2493 20.2854 8.19426 20.2815ZM23.8058 20.2815C23.7507 20.2852 23.6986 20.3157 23.6688 20.3673C23.6211 20.4498 23.6492 20.5547 23.7318 20.6023L25.4501 21.5943C25.5326 21.642 25.6375 21.6139 25.6851 21.5314C25.7328 21.4488 25.7047 21.3441 25.6222 21.2964L23.9038 20.3043C23.8728 20.2864 23.8388 20.2792 23.8058 20.2815ZM7.76566 21.7374C7.73256 21.7386 7.69941 21.7493 7.67048 21.7703L6.99496 22.2605C6.91782 22.3164 6.90076 22.4236 6.95671 22.5007C7.01268 22.5779 7.11982 22.5949 7.19696 22.5389L7.87256 22.0488C7.94971 21.9928 7.96676 21.8857 7.91081 21.8085C7.87583 21.7603 7.82081 21.7355 7.76566 21.7374ZM24.2302 21.7432C24.1751 21.7412 24.1201 21.766 24.0851 21.8142C24.0291 21.8913 24.046 21.9985 24.1232 22.0545L24.7984 22.5451C24.8755 22.6011 24.9826 22.5842 25.0386 22.507C25.0947 22.4299 25.0777 22.3228 25.0006 22.2668L24.3254 21.7762C24.2965 21.7552 24.2633 21.7444 24.2302 21.7432ZM9.29562 21.8026C9.25172 21.8002 9.20693 21.8148 9.17149 21.8466L7.69586 23.1731C7.62499 23.2368 7.61923 23.3452 7.68295 23.416C7.74666 23.4869 7.85499 23.4927 7.92587 23.429L9.4015 22.1025C9.47237 22.0388 9.47813 21.9304 9.41441 21.8596C9.38257 21.8241 9.33953 21.805 9.29562 21.8026ZM22.7002 21.8074C22.6563 21.8098 22.6132 21.8288 22.5814 21.8642C22.5176 21.9351 22.5233 22.0434 22.5941 22.1071L24.0688 23.4347C24.1396 23.4984 24.248 23.4927 24.3118 23.4219C24.3755 23.3511 24.3698 23.2428 24.299 23.179L22.8243 21.8515C22.7888 21.8196 22.7441 21.8051 22.7002 21.8074ZM10.6955 23.0675C10.6404 23.0655 10.5854 23.0902 10.5503 23.1384L9.38308 24.7429C9.32701 24.82 9.34389 24.9271 9.42092 24.9832C9.49798 25.0393 9.60518 25.0224 9.66124 24.9453L10.8285 23.3408C10.8845 23.2637 10.8677 23.1565 10.7906 23.1005C10.7617 23.0795 10.7286 23.0687 10.6955 23.0675ZM21.2948 23.0747C21.2617 23.076 21.2286 23.0865 21.1996 23.1075C21.1225 23.1635 21.1055 23.2707 21.1614 23.3478L22.3265 24.9539C22.3824 25.031 22.4896 25.0481 22.5667 24.9921C22.6439 24.9362 22.6609 24.829 22.605 24.7519L21.4399 23.1458C21.4049 23.0976 21.35 23.0728 21.2948 23.0747ZM9.18871 23.3225C9.1448 23.325 9.10174 23.344 9.06985 23.3794L8.5114 23.9996C8.44763 24.0705 8.45327 24.1789 8.52411 24.2426C8.59493 24.3064 8.70326 24.3007 8.76703 24.2298L9.32555 23.6096C9.38933 23.5388 9.38361 23.4304 9.3128 23.3666C9.27737 23.3348 9.23262 23.3202 9.18871 23.3225ZM22.8102 23.3234C22.7663 23.3209 22.7215 23.3356 22.6861 23.3675C22.6153 23.4312 22.6096 23.5396 22.6733 23.6104L23.2317 24.2308C23.2955 24.3016 23.4038 24.3073 23.4746 24.2435C23.5455 24.1797 23.5512 24.0714 23.4874 24.0005L22.929 23.3802C22.8971 23.3448 22.8541 23.3257 22.8102 23.3234ZM12.3255 24.0114C12.2585 24.0098 12.1943 24.0482 12.1652 24.1134L11.3567 25.9255C11.3179 26.0125 11.3567 26.1138 11.4437 26.1527C11.5308 26.1915 11.6321 26.1527 11.6709 26.0656L12.4793 24.2536C12.5182 24.1666 12.4794 24.0653 12.3923 24.0264C12.3706 24.0167 12.3479 24.0119 12.3255 24.0114ZM19.6635 24.0164C19.6412 24.0168 19.6185 24.0217 19.5967 24.0313C19.5097 24.07 19.4707 24.1713 19.5094 24.2584L20.3153 26.0715C20.354 26.1586 20.4553 26.1975 20.5424 26.1588C20.6294 26.1201 20.6684 26.0189 20.6297 25.9318L19.8238 24.1187C19.7948 24.0534 19.7306 24.0151 19.6635 24.0164ZM10.905 24.5717C10.8499 24.5754 10.7979 24.6058 10.7681 24.6574L10.3508 25.3802C10.3031 25.4628 10.3312 25.5676 10.4137 25.6152C10.4962 25.6629 10.601 25.6348 10.6487 25.5523L11.066 24.8295C11.1137 24.7469 11.0856 24.6421 11.003 24.5945C10.9721 24.5766 10.938 24.5694 10.905 24.5717ZM21.095 24.5717C21.062 24.5692 21.0279 24.5766 20.997 24.5945C20.9144 24.6421 20.8864 24.7469 20.934 24.8295L21.3513 25.5523C21.399 25.6348 21.5038 25.6629 21.5863 25.6152C21.6688 25.5676 21.6969 25.4628 21.6493 25.3803L21.2319 24.6574C21.2022 24.6059 21.15 24.5755 21.095 24.5717ZM14.1252 24.5976C14.0451 24.5968 13.9733 24.6523 13.956 24.7339L13.5436 26.6748C13.5238 26.768 13.5829 26.859 13.6761 26.8788C13.7694 26.8986 13.8603 26.8395 13.8802 26.7463L14.2925 24.8054C14.3123 24.7122 14.2532 24.6212 14.16 24.6014C14.1483 24.5989 14.1367 24.5976 14.1252 24.5976ZM17.8686 24.5988C17.8572 24.5989 17.8456 24.6 17.834 24.6025C17.7407 24.6222 17.6816 24.7131 17.7013 24.8064L18.1122 26.7476C18.132 26.8408 18.2229 26.9 18.3162 26.8802C18.4094 26.8605 18.4686 26.7695 18.4489 26.6763L18.0379 24.7352C18.0206 24.6537 17.9488 24.5982 17.8686 24.5988ZM16 24.7946C15.9047 24.7946 15.8279 24.8713 15.8279 24.9666V26.9508C15.8279 27.0461 15.9047 27.1228 16 27.1228C16.0953 27.1228 16.172 27.0461 16.172 26.9508V24.9666C16.172 24.8713 16.0953 24.7946 16 24.7946ZM12.8423 25.4357C12.7755 25.4414 12.7155 25.4861 12.6935 25.5541L12.4355 26.3479C12.406 26.4385 12.4552 26.5352 12.5459 26.5647C12.6365 26.5941 12.7332 26.5448 12.7627 26.4542L13.0206 25.6605C13.0501 25.5699 13.0009 25.4732 12.9102 25.4437C12.8876 25.4363 12.8646 25.4339 12.8423 25.4357ZM19.1563 25.4362C19.134 25.4341 19.111 25.4366 19.0884 25.444C18.9977 25.4735 18.9484 25.5702 18.9779 25.6608L19.2358 26.4546C19.2653 26.5453 19.3619 26.5945 19.4526 26.565C19.5432 26.5356 19.5925 26.4389 19.5631 26.3483L19.3051 25.5545C19.283 25.4865 19.2231 25.4418 19.1563 25.4362ZM14.9202 25.8783C14.8404 25.886 14.7747 25.9486 14.766 26.0315L14.6787 26.8616C14.6688 26.9564 14.7371 27.0407 14.8318 27.0506C14.9266 27.0606 15.011 26.9923 15.0209 26.8975L15.1082 26.0675C15.1181 25.9727 15.0498 25.8884 14.9551 25.8784C14.9432 25.8772 14.9316 25.8772 14.9202 25.8783ZM17.0728 25.8791C17.0614 25.8778 17.0497 25.8778 17.0378 25.8792C16.9431 25.8891 16.8747 25.9734 16.8846 26.0682L16.9713 26.8983C16.9812 26.9931 17.0655 27.0614 17.1603 27.0515C17.2551 27.0416 17.3234 26.9573 17.3135 26.8625L17.2269 26.0324C17.2182 25.9495 17.1526 25.8868 17.0728 25.8791Z" fill="#F3F1F2"/>
<path opacity="0.409" d="M24.0623 9.05811L14.6508 14.5262L8.7002 23.8942L17.4054 17.4463L24.0623 9.05811Z" fill="black"/>
<path d="M17.3488 17.3514L14.6511 14.5263L24.2207 8.08887L17.3488 17.3514Z" fill="#F26056"/>
<path d="M17.3489 17.3514L14.6512 14.5264L7.7793 23.7889L17.3489 17.3514Z" fill="#F0F0F0"/>
<path opacity="0.243" d="M7.7793 23.7888L17.3489 17.3514L24.2208 8.08887L7.7793 23.7888Z" fill="black"/>
<defs>
<linearGradient id="paint0_linear_4674_4889" x1="15.9996" y1="28.7397" x2="15.9996" y2="3.13604" gradientUnits="userSpaceOnUse">
<stop stop-color="#BCBCBC"/>
<stop offset="1" stop-color="white"/>
</linearGradient>
<radialGradient id="paint1_radial_4674_4889" cx="0" cy="0" r="1" gradientUnits="userSpaceOnUse" gradientTransform="translate(16.0537 14.2194) scale(12.8018)">
<stop stop-color="#45BFE2"/>
<stop offset="0.25" stop-color="#41B5E6"/>
<stop offset="0.5" stop-color="#3CACEB"/>
<stop offset="0.75" stop-color="#2E87F1"/>
<stop offset="1" stop-color="#267ED6"/>
</radialGradient>
</defs>
</svg>
