<svg width="32" height="32" viewBox="0 0 32 32" fill="none" xmlns="http://www.w3.org/2000/svg">
<path fill-rule="evenodd" clip-rule="evenodd" d="M24.6334 24.743C24.6334 24.743 24.6701 24.7066 24.7077 24.6711H20.9279L20.9152 24.689C19.7411 26.3799 18.3571 27.4762 17.6369 27.9794L17.3468 28.1672C17.4728 28.1522 17.6198 28.1354 17.6198 28.1354C20.2496 27.7723 22.7406 26.5676 24.6334 24.743ZM20.1135 24.7378L20.1638 24.6714H16.2918V28.1782L16.973 27.735C17.8061 27.1602 19.0273 26.1736 20.1135 24.7378ZM15.7108 28.1782V24.6711H11.8391C11.864 24.7049 11.8897 24.7375 11.8897 24.7375C12.9759 26.1733 14.1962 27.1602 15.0285 27.7351L15.1446 27.8102C15.1446 27.8102 15.7108 28.1782 15.7108 28.1782ZM11.0871 24.689C11.0871 24.689 11.0814 24.68 11.0747 24.6711H7.2952C7.33247 24.7066 7.36944 24.7433 7.36944 24.7433C9.28968 26.5942 11.7057 27.7593 14.3548 28.1118C14.3548 28.1118 14.4848 28.1285 14.609 28.1453C14.4975 28.0742 14.3692 27.993 14.3678 27.993C13.0418 27.025 11.9379 25.913 11.0871 24.689ZM27.5186 20.4542C27.5186 20.4542 27.5301 20.4256 27.5408 20.3973H22.7785L22.771 20.4311C22.5124 21.673 22.0392 22.8713 21.3655 23.9925L21.328 24.0561H25.2936L25.3063 24.0416C26.2466 22.9834 26.995 21.7694 27.5186 20.4542ZM22.1328 20.4478C22.1328 20.4478 22.1377 20.4224 22.1444 20.3973H16.2915V24.0558H20.5936C20.6 24.0456 20.6063 24.037 20.6063 24.037C21.343 22.9086 21.8563 21.7013 22.1328 20.4478ZM15.7108 24.056V20.397H9.85909L9.87036 20.4475C10.1463 21.701 10.6596 22.9083 11.3963 24.0367C11.3963 24.0367 11.4029 24.0454 11.409 24.0555L15.7108 24.056ZM9.23104 20.4311L9.22411 20.3973H4.46178L4.4846 20.4542C5.00803 21.7695 5.75688 22.9834 6.69749 24.0413L6.70385 24.0485L6.70992 24.0557H10.6752L10.6371 23.9925C9.96339 22.8713 9.49017 21.6727 9.23104 20.4311ZM27.7731 12.2252L27.7638 12.1969H4.23644L4.2272 12.2252C3.82822 13.4431 3.62435 14.7165 3.62313 15.9981C3.62427 17.2962 3.83348 18.5858 4.2428 19.8178H27.7578L27.7665 19.7889C28.1702 18.5658 28.3765 17.2861 28.3775 15.9981C28.3764 14.7164 28.1724 13.443 27.7731 12.2252ZM25.306 7.93634L25.2933 7.92218H21.3283L21.3658 7.98545C22.0392 9.10692 22.5127 10.3052 22.771 11.5472L22.7739 11.5587L22.7785 11.5807H27.5408C27.5301 11.5521 27.5186 11.5235 27.5186 11.5235C26.995 10.2083 26.2463 8.99444 25.306 7.93634ZM20.6063 7.94154L20.5936 7.92218H16.2918V11.5807H22.1444C22.1377 11.5555 22.1328 11.5298 22.1328 11.5298C21.8564 10.2769 21.3433 9.06907 20.6063 7.94154ZM15.7108 11.5807V7.92218H11.409C11.4029 7.93171 11.3963 7.94096 11.3963 7.94096C10.6599 9.06907 10.1463 10.2769 9.87037 11.5298L9.8591 11.5807H15.7108ZM10.6368 7.98545L10.6749 7.92218H6.70934C5.7629 8.98346 5.00965 10.2023 4.48374 11.5235C4.48374 11.5235 4.47276 11.5524 4.46121 11.5807H9.22383L9.23076 11.5472C9.48989 10.3049 9.9631 9.10692 10.6368 7.98545ZM17.6351 3.9855C18.9617 4.95328 20.0652 6.06492 20.9152 7.28866L20.9279 7.30686H24.7077C24.6701 7.27133 24.6332 7.23522 24.6332 7.23522C22.7129 5.38344 20.2972 4.21835 17.6478 3.86678L17.3939 3.83269L17.6351 3.9855ZM16.9747 4.24348L16.2918 3.80032V7.30685H20.1638L20.1135 7.24012C19.027 5.80434 17.8061 4.8175 16.9747 4.24348ZM15.0293 4.24232C14.1968 4.8175 12.9759 5.80463 11.8897 7.24012L11.8391 7.30656H15.7108V3.80031L15.0293 4.24232ZM14.3822 3.84279C11.7528 4.20535 9.26196 5.4103 7.36945 7.23521C7.36945 7.23521 7.33247 7.27132 7.29521 7.30685H11.0747C11.0805 7.29761 11.0872 7.28865 11.0872 7.28865C12.2618 5.59836 13.6456 4.50174 14.3672 3.99792L14.6561 3.81014L14.3822 3.84279ZM3 15.9978C3 8.9564 8.79338 3.19018 15.9154 3.14453H16.0847C23.2066 3.19017 29 8.9564 29 15.9978C29 23.0865 23.1682 28.8548 16 28.8556C8.83152 28.8548 3 23.0865 3 15.9978ZM17.6178 14.3829C17.7585 13.9325 17.8408 13.6685 18.08 13.5931L18.0791 13.533L16.4931 13.5339V13.5951C16.6298 13.7577 16.5856 13.9831 16.4056 14.5999L15.4566 17.7537L15.4508 17.7716C15.2601 18.3785 15.2073 18.5467 14.96 18.6648L14.9606 18.7266H16.5472L16.5463 18.6648C16.4394 18.529 16.4356 18.3415 16.6188 17.7106L17.5675 14.5435C17.5851 14.4875 17.6022 14.4337 17.6178 14.3829ZM4.42885 17.3576C4.54267 18.0709 5.02107 18.4253 6.05241 18.3759C6.77348 18.3418 7.13863 17.9342 7.14152 17.5009C7.1447 17.1429 6.86621 16.8411 6.3569 16.5536L6.05732 16.3964C5.42783 16.0463 4.86421 15.6751 4.8697 15.043C4.87634 14.1446 5.80108 13.5789 7.03579 13.5356C7.39488 13.5226 7.84757 13.5613 8.1951 13.6332C8.37537 13.6705 8.61977 13.7343 8.72001 13.7609L8.4291 14.6371L8.3459 14.6383C8.18788 14.1015 7.89812 13.8005 6.96414 13.8612C6.30721 13.9031 5.99752 14.3211 5.99434 14.679C5.99145 15.0517 6.27052 15.2857 6.80034 15.5561L7.09963 15.7057C7.78921 16.0613 8.3797 16.438 8.37421 17.1039C8.36641 18.1 7.38101 18.7263 5.93425 18.7275C5.10052 18.7275 4.32918 18.5051 4.04001 18.3023C4.04723 18.2474 4.10645 18.0769 4.18157 17.8591C4.23357 17.708 4.29395 17.5347 4.34999 17.3611L4.42885 17.3576ZM22.5483 14.1801C22.628 13.9337 22.7089 13.6829 22.76 13.533L19.5652 13.5336L19.5669 13.5948C19.6958 13.76 19.664 13.9646 19.4961 14.5429L18.5775 17.723L18.5454 17.8319C18.3929 18.3505 18.3293 18.5663 18.08 18.6634V18.7272L19.6097 18.7246L19.6085 18.6573C19.4756 18.5143 19.5268 18.2396 19.6793 17.7057L20.0959 16.2737H20.2438L20.4116 16.2734C20.9527 16.2705 21.3742 16.2682 21.4941 16.651H21.5556L21.8249 15.7005H21.7628C21.5952 15.9299 21.2257 15.9238 20.7002 15.9154C20.5876 15.9133 20.4749 15.912 20.3622 15.9117H20.2056L20.6696 14.2295C20.7433 13.9617 20.8227 13.8958 21.1104 13.8958L21.1544 13.8967C21.1962 13.8967 21.2399 13.8958 21.2849 13.895C21.685 13.8874 22.1822 13.8776 22.4015 14.4456H22.4627L22.5483 14.1801ZM27.44 13.533C27.3846 13.68 27.3306 13.8277 27.2782 13.9759C27.2242 14.1267 27.1681 14.2818 27.1063 14.4459L27.037 14.4453C26.8001 13.8762 26.1992 13.8877 25.8644 13.8941C25.832 13.8947 25.802 13.8953 25.7749 13.8953H25.7015L24.4858 17.7144C24.3238 18.2806 24.2579 18.5181 24.4116 18.6625L24.4104 18.7269H22.7617L22.76 18.6625C23.0284 18.5478 23.1035 18.3129 23.2627 17.8143C23.2742 17.7796 23.2858 17.7432 23.2976 17.7057L24.5182 13.8953H24.3972C24.3677 13.8953 24.3371 13.8953 24.3056 13.8947C23.9092 13.8909 23.339 13.8851 22.9126 14.4459L22.8363 14.4453C22.8895 14.3095 22.9452 14.1587 23.0039 14.0001C23.0596 13.8496 23.1182 13.6913 23.1795 13.533L27.44 13.533ZM15.428 14.406C15.6626 13.9761 15.7903 13.7424 15.9991 13.598L16 13.5347L14.9941 13.533V13.598L15.0028 13.613C15.0498 13.6948 15.1403 13.8508 14.8439 14.4204C14.399 15.2744 13.9503 16.1264 13.4977 16.9762H13.4766L13.1487 13.5801H12.724L10.8326 16.9693H10.8162L10.5643 14.4846C10.5209 13.9958 10.5666 13.7866 10.7492 13.5934L10.7503 13.5336H9.24202L9.24 13.5934C9.3986 13.7303 9.43182 14.0273 9.48267 14.4782L9.49047 14.5476L9.93594 18.7269H10.4195L12.2315 15.4553H12.2572L12.5804 18.7269H13.1654C13.1934 18.6741 13.2998 18.4687 13.4529 18.1731C13.9685 17.1782 15.0129 15.1629 15.3688 14.5141C15.3688 14.5141 15.428 14.406 15.428 14.406Z" fill="#2D3536"/>
</svg>
