<svg width="135" height="40" viewBox="0 0 135 40" fill="none" xmlns="http://www.w3.org/2000/svg">
<g clip-path="url(#clip0_565_5439)">
<path d="M130 40H5C2.25 40 0 37.75 0 35V5C0 2.25 2.25 0 5 0H130C132.75 0 135 2.25 135 5V35C135 37.75 132.75 40 130 40Z" fill="black"/>
<path d="M130 0.000976562H5C2.25 0.000976562 0 2.25098 0 4.99998V35.001C0 37.75 2.25 40.001 5 40.001H130C132.75 40.001 135 37.75 135 35.001V4.99998C135 2.25098 132.75 0.000976562 130 0.000976562ZM130 0.799977C132.316 0.799977 134.2 2.68498 134.2 4.99998V35.001C134.2 37.316 132.316 39.201 130 39.201H5C2.684 39.201 0.8 37.316 0.8 35.001V4.99998C0.8 2.68498 2.684 0.799977 5 0.799977H130Z" fill="#A6A6A6"/>
<path d="M106.936 30.0009H108.802V17.4989H106.936V30.0009ZM123.743 22.0019L121.604 27.4219H121.54L119.32 22.0019H117.31L120.639 29.5779L118.741 33.7909H120.688L125.818 22.0019H123.743ZM113.161 28.5799C112.549 28.5799 111.697 28.2748 111.697 27.5189C111.697 26.5539 112.759 26.1839 113.675 26.1839C114.496 26.1839 114.881 26.3609 115.38 26.6019C115.235 27.7599 114.238 28.5799 113.161 28.5799ZM113.386 21.7289C112.035 21.7289 110.636 22.3239 110.057 23.6429L111.713 24.3349C112.067 23.6429 112.726 23.4179 113.418 23.4179C114.383 23.4179 115.364 23.9969 115.38 25.0259V25.1549C115.042 24.9619 114.319 24.6719 113.434 24.6719C111.649 24.6719 109.831 25.6529 109.831 27.4869C109.831 29.1589 111.295 30.2369 112.935 30.2369C114.19 30.2369 114.881 29.6739 115.316 29.0149H115.38V29.9799H117.181V25.1869C117.181 22.9669 115.525 21.7289 113.386 21.7289ZM101.854 23.5239H99.2V19.2389H101.854C103.249 19.2389 104.041 20.3939 104.041 21.3819C104.041 22.3509 103.249 23.5239 101.854 23.5239ZM101.806 17.4989H97.335V30.0009H99.2V25.2639H101.806C103.874 25.2639 105.907 23.7669 105.907 21.3819C105.907 18.9959 103.874 17.4989 101.806 17.4989ZM77.424 28.5829C76.136 28.5829 75.056 27.5029 75.056 26.0209C75.056 24.5229 76.136 23.4279 77.424 23.4279C78.697 23.4279 79.696 24.5229 79.696 26.0209C79.696 27.5029 78.697 28.5829 77.424 28.5829ZM79.567 22.7029H79.503C79.084 22.2029 78.278 21.7519 77.263 21.7519C75.137 21.7519 73.187 23.6209 73.187 26.0209C73.187 28.4059 75.137 30.2579 77.263 30.2579C78.278 30.2579 79.084 29.8069 79.503 29.2919H79.567V29.9039C79.567 31.5309 78.697 32.4009 77.295 32.4009C76.152 32.4009 75.443 31.5789 75.153 30.8869L73.526 31.5629C73.993 32.6909 75.233 34.0769 77.295 34.0769C79.487 34.0769 81.339 32.7879 81.339 29.6459V22.0099H79.567V22.7029ZM82.628 30.0009H84.497V17.4989H82.628V30.0009ZM87.252 25.8759C87.203 24.2329 88.525 23.3949 89.475 23.3949C90.217 23.3949 90.845 23.7659 91.054 24.2979L87.252 25.8759ZM93.052 24.4589C92.698 23.5079 91.618 21.7519 89.411 21.7519C87.22 21.7519 85.399 23.4759 85.399 26.0049C85.399 28.3899 87.203 30.2579 89.62 30.2579C91.57 30.2579 92.698 29.0659 93.165 28.3729L91.715 27.4069C91.232 28.1159 90.571 28.5829 89.62 28.5829C88.669 28.5829 87.993 28.1479 87.558 27.2939L93.245 24.9419L93.052 24.4589ZM47.743 23.0569V24.8609H52.061C51.932 25.8759 51.594 26.6169 51.078 27.1329C50.45 27.7609 49.467 28.4539 47.743 28.4539C45.085 28.4539 43.007 26.3109 43.007 23.6529C43.007 20.9949 45.085 18.8519 47.743 18.8519C49.177 18.8519 50.224 19.4159 50.998 20.1409L52.27 18.8679C51.191 17.8369 49.757 17.0479 47.743 17.0479C44.102 17.0479 41.041 20.0119 41.041 23.6529C41.041 27.2939 44.102 30.2579 47.743 30.2579C49.709 30.2579 51.191 29.6139 52.351 28.4059C53.543 27.2129 53.914 25.5379 53.914 24.1849C53.914 23.7659 53.881 23.3789 53.817 23.0569H47.743ZM58.822 28.5829C57.533 28.5829 56.422 27.5199 56.422 26.0049C56.422 24.4749 57.533 23.4279 58.822 23.4279C60.111 23.4279 61.222 24.4749 61.222 26.0049C61.222 27.5199 60.111 28.5829 58.822 28.5829ZM58.822 21.7519C56.47 21.7519 54.553 23.5399 54.553 26.0049C54.553 28.4538 56.47 30.2579 58.822 30.2579C61.174 30.2579 63.091 28.4538 63.091 26.0049C63.091 23.5399 61.174 21.7519 58.822 21.7519ZM68.135 28.5829C66.847 28.5829 65.735 27.5199 65.735 26.0049C65.735 24.4749 66.847 23.4279 68.135 23.4279C69.424 23.4279 70.536 24.4749 70.536 26.0049C70.536 27.5199 69.424 28.5829 68.135 28.5829ZM68.135 21.7519C65.783 21.7519 63.866 23.5399 63.866 26.0049C63.866 28.4538 65.783 30.2579 68.135 30.2579C70.488 30.2579 72.405 28.4538 72.405 26.0049C72.405 23.5399 70.488 21.7519 68.135 21.7519Z" fill="white"/>
<path fill-rule="evenodd" clip-rule="evenodd" d="M10.5087 32.3903L10.4347 32.3193C10.1437 32.0113 9.97168 31.5333 9.97168 30.9143V31.0593V8.9383V9.0903C9.97168 8.4203 10.1727 7.9143 10.5077 7.6123L22.8977 20.0013L10.5087 32.3903ZM9.97168 8.9373C9.97168 8.88231 9.97368 8.8283 9.97568 8.7763C9.97368 8.8283 9.97168 8.88231 9.97168 8.9373ZM9.97668 8.7733V8.7713V8.7733ZM9.97668 8.7663V8.76531V8.7663Z" fill="url(#paint0_linear_565_5439)"/>
<path fill-rule="evenodd" clip-rule="evenodd" d="M27.0274 24.2791L27.1214 24.2251L32.0144 21.4451C32.4814 21.1801 32.7924 20.8591 32.9474 20.5181C32.7924 20.8591 32.4814 21.1801 32.0144 21.4461L27.1214 24.2261L27.0274 24.2791ZM27.0284 24.1321L22.8984 20.0011L27.0284 15.8711L32.0144 18.7041C32.6484 19.0631 33.0034 19.5271 33.0624 20.0011V20.0031C33.0034 20.4751 32.6484 20.9391 32.0144 21.2991L27.0284 24.1321Z" fill="url(#paint1_linear_565_5439)"/>
<path fill-rule="evenodd" clip-rule="evenodd" d="M11.3924 32.862C11.0464 32.862 10.7454 32.749 10.5094 32.537V32.536C10.7454 32.749 11.0474 32.862 11.3934 32.862C11.4234 32.862 11.4544 32.861 11.4854 32.859C11.4544 32.861 11.4234 32.862 11.3924 32.862ZM11.3934 32.715C11.0474 32.716 10.7454 32.603 10.5094 32.39L22.8984 20.001L27.0284 24.132L12.5134 32.38C12.1124 32.608 11.7314 32.715 11.3934 32.715ZM10.5064 32.534C10.4844 32.514 10.4624 32.493 10.4414 32.471L10.5064 32.534Z" fill="url(#paint2_linear_565_5439)"/>
<path fill-rule="evenodd" clip-rule="evenodd" d="M22.8978 20.0006L10.5078 7.61163C10.7438 7.39963 11.0448 7.28663 11.3908 7.28663C11.7298 7.28663 12.1108 7.39463 12.5128 7.62363L27.0278 15.8706L22.8978 20.0006ZM27.1208 15.7776L12.5128 7.47763C12.1108 7.24863 11.7298 7.14062 11.3908 7.14062H11.3868H11.3918C11.7308 7.14062 12.1108 7.24863 12.5128 7.47663L27.1208 15.7766V15.7776Z" fill="url(#paint3_linear_565_5439)"/>
<path d="M11.4846 32.8593C11.7986 32.8413 12.1466 32.7333 12.5126 32.5263L27.0266 24.2793L12.5126 32.5263C12.1466 32.7343 11.7986 32.8423 11.4846 32.8593ZM10.5086 32.5373L10.5056 32.5343L10.5086 32.5373ZM10.4406 32.4713L10.4346 32.4653L10.4406 32.4713Z" fill="black"/>
<path fill-rule="evenodd" clip-rule="evenodd" d="M27.0273 24.2786L27.1213 24.2246L27.0273 24.2786Z" fill="url(#paint4_linear_565_5439)"/>
<path fill-rule="evenodd" clip-rule="evenodd" d="M11.3926 32.8618C11.0466 32.8618 10.7446 32.7488 10.5086 32.5358V32.5368L10.5056 32.5338L10.4406 32.4708L10.4346 32.4648L10.5086 32.3898C10.7446 32.6028 11.0466 32.7158 11.3926 32.7148C11.7306 32.7148 12.1116 32.6078 12.5126 32.3798L27.0276 24.1318L27.1206 24.2248L27.0266 24.2788L12.5126 32.5258C12.1466 32.7328 11.7986 32.8408 11.4846 32.8588C11.4536 32.8608 11.4226 32.8618 11.3926 32.8618Z" fill="url(#paint5_linear_565_5439)"/>
<path d="M10.4347 32.4646C10.1437 32.1566 9.97168 31.6786 9.97168 31.0596V31.0586C9.97168 31.6786 10.1437 32.1566 10.4347 32.4636V32.4646Z" fill="black"/>
<path fill-rule="evenodd" clip-rule="evenodd" d="M10.4347 32.4641C10.1437 32.1571 9.97168 31.6791 9.97168 31.0591V30.9141C9.97168 31.5331 10.1437 32.0111 10.4347 32.3191L10.5087 32.3901L10.4347 32.4641Z" fill="url(#paint6_linear_565_5439)"/>
<path fill-rule="evenodd" clip-rule="evenodd" d="M10.4346 32.4646V32.4636L10.5086 32.3896L10.4346 32.4646Z" fill="url(#paint7_linear_565_5439)"/>
<path d="M32.9473 20.518C33.0243 20.35 33.0623 20.176 33.0623 20.003C33.0623 20.002 33.0633 20.002 33.0633 20.002C33.0633 20.176 33.0243 20.349 32.9473 20.518Z" fill="black"/>
<path fill-rule="evenodd" clip-rule="evenodd" d="M27.1213 24.2249L27.0283 24.1319L32.0143 21.2989C32.6483 20.9389 33.0033 20.4749 33.0623 20.0029C33.0623 20.1759 33.0243 20.3499 32.9473 20.5179C32.7923 20.8589 32.4813 21.1799 32.0143 21.4449L27.1213 24.2249Z" fill="url(#paint8_linear_565_5439)"/>
<path d="M33.0631 20.0013H33.0621C33.0621 19.4783 32.7131 18.9553 32.0141 18.5583L27.1211 15.7783V15.7773L32.0141 18.5583C32.7131 18.9553 33.0631 19.4783 33.0631 20.0013Z" fill="#404040"/>
<path fill-rule="evenodd" clip-rule="evenodd" d="M33.0623 20.0013C33.0033 19.5273 32.6483 19.0633 32.0143 18.7043L27.0283 15.8713L27.1213 15.7783L32.0143 18.5583C32.7133 18.9553 33.0623 19.4783 33.0623 20.0013Z" fill="url(#paint9_linear_565_5439)"/>
<path d="M9.97168 8.93762V8.93663V8.93762ZM9.97568 8.77563C9.97668 8.77463 9.97668 8.77363 9.97668 8.77262C9.97668 8.77363 9.97668 8.77463 9.97568 8.77563ZM9.97668 8.77063V8.76562V8.77063ZM9.97668 8.76463C10.0347 7.73763 10.5927 7.14463 11.3827 7.14062C11.0407 7.14263 10.7427 7.25463 10.5087 7.46563L10.5057 7.46863C10.4817 7.49063 10.4577 7.51363 10.4347 7.53763C10.1727 7.81563 10.0067 8.23163 9.97668 8.76463Z" fill="#404040"/>
<path fill-rule="evenodd" clip-rule="evenodd" d="M9.97168 9.08982V8.93682C9.97168 8.88182 9.97368 8.82782 9.97568 8.77582C9.97668 8.77482 9.97668 8.77382 9.97668 8.77282V8.76482C10.0067 8.23182 10.1727 7.81582 10.4347 7.53782L10.5077 7.61182C10.1727 7.91382 9.97168 8.41982 9.97168 9.08982ZM10.5057 7.46882L10.5087 7.46582L10.5057 7.46882Z" fill="url(#paint10_linear_565_5439)"/>
<path fill-rule="evenodd" clip-rule="evenodd" d="M27.0276 15.8706L12.5126 7.62363C12.1106 7.39463 11.7296 7.28663 11.3906 7.28663C11.0446 7.28663 10.7436 7.39963 10.5076 7.61163L10.4346 7.53763C10.4576 7.51363 10.4816 7.49063 10.5056 7.46863L10.5086 7.46563C10.7426 7.25463 11.0406 7.14263 11.3826 7.14062H11.3906C11.7296 7.14062 12.1106 7.24863 12.5126 7.47763L27.1206 15.7776L27.0276 15.8706Z" fill="url(#paint11_linear_565_5439)"/>
<path d="M42.3876 11.7232C42.8316 12.1722 43.3746 12.3972 44.0176 12.3972C44.6596 12.3972 45.2036 12.1722 45.6466 11.7232C46.0916 11.2732 46.3136 10.6992 46.3136 10.0002C46.3136 9.30221 46.0916 8.72821 45.6466 8.27821C45.2036 7.82921 44.6596 7.60421 44.0176 7.60421C43.3746 7.60421 42.8316 7.82921 42.3876 8.27821C41.9436 8.72821 41.7216 9.30221 41.7216 10.0002C41.7216 10.6992 41.9436 11.2732 42.3876 11.7232ZM46.2176 12.2252C45.6276 12.8322 44.8946 13.1342 44.0176 13.1342C43.1406 13.1342 42.4066 12.8322 41.8176 12.2252C41.2286 11.6192 40.9346 10.8772 40.9346 10.0002C40.9346 9.12321 41.2286 8.38221 41.8176 7.77621C42.4066 7.16921 43.1406 6.86621 44.0176 6.86621C44.8896 6.86621 45.6206 7.17121 46.2136 7.78021C46.8056 8.38921 47.1016 9.12921 47.1016 10.0002C47.1016 10.8772 46.8066 11.6192 46.2176 12.2252Z" fill="white"/>
<path d="M42.388 11.7226L42.317 11.7926C42.777 12.2606 43.352 12.4976 44.018 12.4966C44.683 12.4976 45.259 12.2606 45.719 11.7926C46.182 11.3246 46.415 10.7196 46.414 9.99963C46.415 9.28063 46.182 8.67563 45.719 8.20763C45.259 7.73963 44.683 7.50263 44.018 7.50363C43.352 7.50263 42.777 7.73963 42.317 8.20763C41.854 8.67563 41.621 9.28063 41.622 9.99963C41.621 10.7196 41.854 11.3246 42.317 11.7926L42.388 11.7226L42.459 11.6516C42.035 11.2206 41.823 10.6776 41.822 9.99963C41.823 9.32263 42.035 8.77963 42.459 8.34763V8.34863C42.887 7.91663 43.398 7.70463 44.018 7.70363C44.637 7.70463 45.149 7.91663 45.576 8.34763V8.34863C46.002 8.77963 46.214 9.32263 46.214 9.99963C46.214 10.6776 46.002 11.2206 45.576 11.6516C45.149 12.0836 44.637 12.2956 44.018 12.2966C43.398 12.2956 42.887 12.0836 42.459 11.6516L42.388 11.7226ZM46.218 12.2246L46.146 12.1546C45.573 12.7426 44.872 13.0326 44.018 13.0336C43.164 13.0326 42.462 12.7426 41.89 12.1546C41.318 11.5656 41.036 10.8546 41.035 9.99963C41.036 9.14563 41.318 8.43463 41.89 7.84563C42.462 7.25763 43.164 6.96663 44.018 6.96563C44.866 6.96663 45.566 7.25863 46.142 7.84963C46.717 8.44163 47.001 9.15063 47.002 9.99963C47.001 10.8546 46.717 11.5656 46.146 12.1546L46.29 12.2946C46.896 11.6716 47.203 10.8996 47.202 9.99963C47.203 9.10563 46.895 8.33563 46.286 7.70963C45.676 7.08263 44.913 6.76463 44.018 6.76563C43.118 6.76463 42.352 7.08063 41.747 7.70563C41.139 8.32863 40.834 9.10063 40.835 9.99963C40.834 10.8996 41.139 11.6716 41.747 12.2946C42.352 12.9196 43.118 13.2346 44.018 13.2336C44.917 13.2346 45.683 12.9196 46.289 12.2946L46.218 12.2246ZM48.184 12.9996V6.99963H49.122L52.038 11.6676H52.071L52.038 10.5116V6.99963H52.81V12.9996H52.005L48.954 8.10663H48.921L48.954 9.26263V12.9996H48.184Z" fill="white"/>
<path d="M48.184 13.0004H48.284V7.10039H49.067L51.983 11.7684H52.174L52.138 10.5104V7.10039H52.71V12.9004H52.06L49.01 8.00739H48.818L48.854 9.26539V12.9004H48.184V13.0004H48.284H48.184V13.1004H49.054V9.26239L49.021 8.10439L48.921 8.10739V8.20739H48.954V8.10739L48.869 8.16039L51.949 13.1004H52.91V6.90039H51.938V10.5134L51.971 11.6714L52.071 11.6684V11.5684H52.038V11.6684L52.123 11.6154L49.178 6.90039H48.084V13.1004H48.184V13.0004ZM56.228 13.0004H55.456V7.73839H53.78V7.00039H57.903V7.73839H56.228V13.0004Z" fill="white"/>
<path d="M56.2277 13.0004V12.9004H55.5557V7.63839H53.8797V7.10039H57.8027V7.63839H56.1277V13.0004H56.2277V12.9004V13.0004H56.3277V7.83839H58.0027V6.90039H53.6797V7.83839H55.3557V13.1004H56.3277V13.0004H56.2277ZM59.6467 12.2634H60.7107C61.4027 12.2634 61.9517 12.0654 62.3567 11.6684C62.7627 11.2714 62.9647 10.7154 62.9647 10.0004C62.9647 9.29139 62.7627 8.73739 62.3567 8.33739C61.9517 7.93839 61.4027 7.73839 60.7107 7.73839H59.6467V12.2634ZM58.8757 13.0004V7.00039H60.7107C61.6327 7.00039 62.3697 7.27839 62.9237 7.83439C63.4767 8.39039 63.7527 9.11239 63.7527 10.0004C63.7527 10.8894 63.4767 11.6114 62.9237 12.1664C62.3697 12.7234 61.6327 13.0004 60.7107 13.0004H58.8757Z" fill="white"/>
<path d="M59.6474 12.2634V12.3634H60.7114C61.4224 12.3644 62.0014 12.1574 62.4274 11.7394C62.8564 11.3214 63.0664 10.7334 63.0654 10.0004C63.0664 9.27339 62.8554 8.68739 62.4284 8.26639C62.0024 7.84639 61.4224 7.63739 60.7114 7.63839H59.5474V12.3634H59.6474V12.2634H59.7474V7.83839H60.7114C61.3854 7.83939 61.9034 8.03039 62.2874 8.40839C62.6704 8.78739 62.8644 9.30939 62.8654 10.0004C62.8644 10.6974 62.6704 11.2224 62.2884 11.5964C61.9034 11.9724 61.3854 12.1624 60.7114 12.1634H59.6474V12.2634H59.7474H59.6474ZM58.8764 13.0004H58.9764V7.10039H60.7114C61.6134 7.10139 62.3194 7.37039 62.8534 7.90539C63.3864 8.44239 63.6524 9.13239 63.6534 10.0004C63.6524 10.8684 63.3864 11.5594 62.8534 12.0964C62.3194 12.6314 61.6134 12.9004 60.7114 12.9004H58.8764V13.0004H58.9764H58.8764V13.1004H60.7114C61.6524 13.1014 62.4214 12.8144 62.9954 12.2374C63.5674 11.6624 63.8544 10.9094 63.8534 10.0004C63.8544 9.09239 63.5674 8.33839 62.9954 7.76439C62.4214 7.18739 61.6524 6.90039 60.7114 6.90039H58.7764V13.1004H58.8764V13.0004ZM68.3364 7.73839H65.6044V9.64039H68.0684V10.3614H65.6044V12.2634H68.3364V13.0004H64.8334V7.00039H68.3364V7.73839Z" fill="white"/>
<path d="M68.3364 7.73839V7.63839H65.5044V9.74039H67.9684V10.2614H65.5044V12.3634H68.2364V12.9004H64.9334V7.10039H68.2364V7.73839H68.3364V7.63839V7.73839H68.4364V6.90039H64.7334V13.1004H68.4364V12.1634H65.7044V10.4614H68.1684V9.54039H65.7044V7.83839H68.4364V7.73839H68.3364ZM73.9854 7.00039V7.03439L71.7554 9.60739L74.1354 12.9674V13.0004H73.1894L71.2364 10.2024L70.3144 11.2664V13.0004H69.5434V7.00039H70.3144V10.0924H70.3484L72.9884 7.00039H73.9854Z" fill="white"/>
<path d="M73.9854 7.00039H73.8854V7.03439H73.9854L73.9094 6.96839L71.6284 9.60139L74.0354 12.9994V13.0004H74.1354V12.9004H73.2414L71.2444 10.0394L70.2144 11.2294V12.9004H69.6434V7.10039H70.2144V10.1924H70.3944L73.0344 7.10039H73.9854V7.00039H73.8854H73.9854V6.90039H72.9424L70.2724 10.0274L70.3484 10.0924V9.99239H70.3144V10.0924H70.4144V6.90039H69.4434V13.1004H70.4144V11.3034L71.2274 10.3644L73.1374 13.1004H74.2354V12.9354L71.8824 9.61339L74.0854 7.07139V6.90039H73.9854V7.00039ZM76.9344 13.0004V7.00039H77.7054V9.57339H80.7054V7.00039H81.4764V13.0004H80.7054V10.2934H77.7054V13.0004H76.9344Z" fill="white"/>
<path d="M76.934 13.0004H77.034V7.10039H77.605V9.67339H80.805V7.10039H81.376V12.9004H80.805V10.1934H77.605V12.9004H76.934V13.0004H77.034H76.934V13.1004H77.805V10.3934H80.605V13.1004H81.576V6.90039H80.605V9.47339H77.805V6.90039H76.834V13.1004H76.934V13.0004ZM86.354 7.73839H83.622V9.64039H86.085V10.3614H83.622V12.2634H86.354V13.0004H82.851V7.00039H86.354V7.73839Z" fill="white"/>
<path d="M86.354 7.73839V7.63839H83.522V9.74039H85.985V10.2614H83.522V12.3634H86.254V12.9004H82.951V7.10039H86.254V7.73839H86.354V7.63839V7.73839H86.454V6.90039H82.751V13.1004H86.454V12.1634H83.722V10.4614H86.185V9.54039H83.722V7.83839H86.454V7.73839H86.354ZM89.606 13.0004H88.835V7.73839H87.159V7.00039H91.282V7.73839H89.606V13.0004Z" fill="white"/>
<path d="M89.6056 13.0002V12.9002H88.9336L88.9346 7.63821H87.2586V7.10021H91.1816V7.63821H89.5056V13.0002H89.6056V12.9002V13.0002H89.7056V7.83821H91.3816V6.90021H87.0586V7.83821H88.7346V13.1002H89.7056V13.0002H89.6056ZM95.2576 11.7232C95.7016 12.1722 96.2446 12.3972 96.8876 12.3972C97.5296 12.3972 98.0736 12.1722 98.5176 11.7232C98.9616 11.2732 99.1846 10.6992 99.1846 10.0002C99.1846 9.30221 98.9616 8.72821 98.5176 8.27821C98.0736 7.82921 97.5296 7.60421 96.8876 7.60421C96.2446 7.60421 95.7016 7.82921 95.2576 8.27821C94.8136 8.72821 94.5916 9.30221 94.5916 10.0002C94.5916 10.6992 94.8136 11.2732 95.2576 11.7232ZM99.0876 12.2252C98.4976 12.8322 97.7646 13.1342 96.8876 13.1342C96.0106 13.1342 95.2766 12.8322 94.6876 12.2252C94.0986 11.6192 93.8046 10.8772 93.8046 10.0002C93.8046 9.12321 94.0986 8.38221 94.6876 7.77621C95.2766 7.16921 96.0106 6.86621 96.8876 6.86621C97.7596 6.86621 98.4906 7.17121 99.0836 7.78021C99.6756 8.38921 99.9716 9.12921 99.9716 10.0002C99.9716 10.8772 99.6766 11.6192 99.0876 12.2252Z" fill="white"/>
<path d="M95.2581 11.7226L95.1871 11.7926C95.6471 12.2606 96.2221 12.4976 96.8881 12.4966C97.5541 12.4976 98.1291 12.2606 98.5891 11.7926C99.0521 11.3246 99.2861 10.7196 99.2851 9.99963C99.2861 9.28063 99.0521 8.67563 98.5891 8.20763C98.1291 7.73963 97.5541 7.50263 96.8881 7.50363C96.2221 7.50263 95.6471 7.73963 95.1871 8.20763C94.7241 8.67563 94.4911 9.28063 94.4921 9.99963C94.4911 10.7196 94.7241 11.3246 95.1871 11.7926L95.2581 11.7226L95.3291 11.6516C94.9051 11.2206 94.6931 10.6776 94.6921 9.99963C94.6931 9.32263 94.9051 8.77963 95.3291 8.34763V8.34863C95.7571 7.91663 96.2681 7.70463 96.8881 7.70363C97.5071 7.70463 98.0191 7.91663 98.4461 8.34763L98.4501 8.35163L98.4461 8.34863C98.8721 8.77963 99.0841 9.32263 99.0851 9.99963C99.0841 10.6776 98.8721 11.2206 98.4461 11.6516C98.0191 12.0836 97.5071 12.2956 96.8881 12.2966C96.2681 12.2956 95.7571 12.0836 95.3291 11.6516L95.2581 11.7226ZM99.0881 12.2246L99.0161 12.1546C98.4431 12.7426 97.7421 13.0326 96.8881 13.0336C96.0341 13.0326 95.3321 12.7426 94.7601 12.1546C94.1881 11.5656 93.9061 10.8546 93.9051 9.99963C93.9061 9.14563 94.1881 8.43463 94.7601 7.84563C95.3321 7.25763 96.0341 6.96663 96.8881 6.96563C97.7371 6.96663 98.4361 7.25863 99.0121 7.84963C99.5871 8.44163 99.8711 9.15063 99.8721 9.99963C99.8711 10.8546 99.5871 11.5656 99.0161 12.1546L99.1601 12.2946C99.7661 11.6716 100.073 10.8996 100.072 9.99963C100.073 9.10563 99.7651 8.33563 99.1561 7.70963C98.5461 7.08263 97.7831 6.76463 96.8881 6.76563C95.9881 6.76463 95.2221 7.08063 94.6171 7.70563C94.0091 8.32863 93.7041 9.10063 93.7051 9.99963C93.7041 10.8996 94.0091 11.6716 94.6171 12.2946C95.2221 12.9196 95.9881 13.2346 96.8881 13.2336C97.7881 13.2346 98.5531 12.9196 99.1601 12.2946L99.0881 12.2246ZM101.823 9.83163H103.114C103.438 9.83163 103.698 9.72363 103.894 9.50563C104.089 9.28763 104.187 9.04763 104.187 8.78563C104.187 8.52263 104.089 8.28263 103.894 8.06463C103.698 7.84663 103.438 7.73763 103.114 7.73763H101.823V9.83163ZM101.823 12.9996H101.053V6.99963H103.098C103.605 6.99963 104.046 7.16863 104.417 7.50663C104.789 7.84463 104.975 8.27063 104.975 8.78563C104.975 9.29863 104.789 9.72463 104.417 10.0626C104.046 10.4006 103.605 10.5696 103.098 10.5696H101.823V12.9996Z" fill="white"/>
<path d="M101.823 9.83239V9.93239H103.114C103.46 9.93439 103.755 9.81339 103.968 9.57339C104.177 9.34139 104.287 9.07439 104.287 8.78639C104.287 8.49839 104.177 8.23039 103.968 7.99839C103.755 7.75839 103.46 7.63639 103.114 7.63839H101.723V9.93239H101.823V9.83239H101.923V7.83839H103.114C103.417 7.83939 103.642 7.93539 103.819 8.13239C104.001 8.33539 104.086 8.54839 104.087 8.78639C104.086 9.02339 104.001 9.23539 103.819 9.44039C103.642 9.63539 103.417 9.73139 103.114 9.73239H101.823V9.83239H101.923H101.823ZM101.823 13.0004V12.9004H101.153V7.10039H103.098C103.583 7.10139 103.995 7.25939 104.35 7.58139C104.702 7.90339 104.873 8.29539 104.875 8.78639C104.873 9.27539 104.702 9.66739 104.35 9.98939C103.995 10.3114 103.583 10.4694 103.098 10.4704H101.723V13.0004H101.823V12.9004V13.0004H101.923V10.6704H103.098C103.628 10.6714 104.097 10.4914 104.484 10.1374C104.876 9.78339 105.076 9.32339 105.075 8.78639C105.076 8.24739 104.876 7.78739 104.484 7.43339C104.097 7.07939 103.628 6.90039 103.098 6.90039H100.953V13.1004H101.923V13.0004H101.823Z" fill="white"/>
</g>
<defs>
<linearGradient id="paint0_linear_565_5439" x1="21.7994" y1="8.70999" x2="5.01697" y2="-8.07248" gradientUnits="userSpaceOnUse">
<stop stop-color="#00A0FF"/>
<stop offset="1" stop-color="#00E2FF"/>
</linearGradient>
<linearGradient id="paint1_linear_565_5439" x1="33.8348" y1="20.0015" x2="9.63784" y2="20.0015" gradientUnits="userSpaceOnUse">
<stop stop-color="#FFDF00"/>
<stop offset="1" stop-color="#FF9C00"/>
</linearGradient>
<linearGradient id="paint2_linear_565_5439" x1="24.8274" y1="22.2961" x2="2.06911" y2="-0.462223" gradientUnits="userSpaceOnUse">
<stop stop-color="#FF3A44"/>
<stop offset="1" stop-color="#C31162"/>
</linearGradient>
<linearGradient id="paint3_linear_565_5439" x1="7.29714" y1="0.175825" x2="17.4597" y2="-9.98671" gradientUnits="userSpaceOnUse">
<stop stop-color="#31A070"/>
<stop offset="1" stop-color="#00EF75"/>
</linearGradient>
<linearGradient id="paint4_linear_565_5439" x1="33.8347" y1="20.0011" x2="9.63777" y2="20.0011" gradientUnits="userSpaceOnUse">
<stop stop-color="#CCB300"/>
<stop offset="1" stop-color="#CC7C00"/>
</linearGradient>
<linearGradient id="paint5_linear_565_5439" x1="24.8266" y1="22.2959" x2="2.06827" y2="-0.462365" gradientUnits="userSpaceOnUse">
<stop stop-color="#CC2D36"/>
<stop offset="1" stop-color="#9C0E4D"/>
</linearGradient>
<linearGradient id="paint6_linear_565_5439" x1="21.7994" y1="8.70973" x2="5.01695" y2="-8.07273" gradientUnits="userSpaceOnUse">
<stop stop-color="#008CDF"/>
<stop offset="1" stop-color="#00C6DF"/>
</linearGradient>
<linearGradient id="paint7_linear_565_5439" x1="24.8265" y1="22.2956" x2="2.06792" y2="-0.46247" gradientUnits="userSpaceOnUse">
<stop stop-color="#DF333B"/>
<stop offset="1" stop-color="#AA0E56"/>
</linearGradient>
<linearGradient id="paint8_linear_565_5439" x1="33.8347" y1="20.0013" x2="9.63772" y2="20.0013" gradientUnits="userSpaceOnUse">
<stop stop-color="#DFC400"/>
<stop offset="1" stop-color="#DF8900"/>
</linearGradient>
<linearGradient id="paint9_linear_565_5439" x1="33.8347" y1="20.0017" x2="9.63772" y2="20.0017" gradientUnits="userSpaceOnUse">
<stop stop-color="#FFE83F"/>
<stop offset="1" stop-color="#FFB53F"/>
</linearGradient>
<linearGradient id="paint10_linear_565_5439" x1="21.7994" y1="8.70951" x2="5.01696" y2="-8.07296" gradientUnits="userSpaceOnUse">
<stop stop-color="#3FB8FF"/>
<stop offset="1" stop-color="#3FE9FF"/>
</linearGradient>
<linearGradient id="paint11_linear_565_5439" x1="7.2969" y1="0.175824" x2="17.4594" y2="-9.98671" gradientUnits="userSpaceOnUse">
<stop stop-color="#64B895"/>
<stop offset="1" stop-color="#3FF497"/>
</linearGradient>
<clipPath id="clip0_565_5439">
<rect width="135" height="40" fill="white"/>
</clipPath>
</defs>
</svg>
