<svg width="135" height="40" viewBox="0 0 135 40" fill="none" xmlns="http://www.w3.org/2000/svg">
<g clip-path="url(#clip0_565_5438)">
<path d="M130 40H5C2.25 40 0 37.75 0 35V5C0 2.25 2.25 0 5 0H130C132.75 0 135 2.25 135 5V35C135 37.75 132.75 40 130 40Z" fill="black"/>
<path d="M130 0.000976562H5C2.25 0.000976562 0 2.25098 0 4.99998V35.001C0 37.75 2.25 40.001 5 40.001H130C132.75 40.001 135 37.75 135 35.001V4.99998C135 2.25098 132.75 0.000976562 130 0.000976562ZM130 0.799977C132.316 0.799977 134.2 2.68498 134.2 4.99998V35.001C134.2 37.316 132.316 39.201 130 39.201H5C2.684 39.201 0.8 37.316 0.8 35.001V4.99998C0.8 2.68498 2.684 0.799977 5 0.799977H130Z" fill="#A6A6A6"/>
<path d="M106.936 30.0009H108.802V17.4989H106.936V30.0009ZM123.743 22.0019L121.604 27.4219H121.54L119.32 22.0019H117.31L120.639 29.5779L118.741 33.7909H120.688L125.818 22.0019H123.743ZM113.161 28.5799C112.549 28.5799 111.697 28.2748 111.697 27.5189C111.697 26.5539 112.759 26.1839 113.675 26.1839C114.496 26.1839 114.881 26.3609 115.38 26.6019C115.235 27.7599 114.238 28.5799 113.161 28.5799ZM113.386 21.7289C112.035 21.7289 110.636 22.3239 110.057 23.6429L111.713 24.3349C112.067 23.6429 112.726 23.4179 113.418 23.4179C114.383 23.4179 115.364 23.9969 115.38 25.0259V25.1549C115.042 24.9619 114.319 24.6719 113.434 24.6719C111.649 24.6719 109.831 25.6529 109.831 27.4869C109.831 29.1589 111.295 30.2369 112.935 30.2369C114.19 30.2369 114.881 29.6739 115.316 29.0149H115.38V29.9799H117.181V25.1869C117.181 22.9669 115.525 21.7289 113.386 21.7289ZM101.854 23.5239H99.2V19.2389H101.854C103.249 19.2389 104.041 20.3939 104.041 21.3819C104.041 22.3509 103.249 23.5239 101.854 23.5239ZM101.806 17.4989H97.335V30.0009H99.2V25.2639H101.806C103.874 25.2639 105.907 23.7669 105.907 21.3819C105.907 18.9959 103.874 17.4989 101.806 17.4989ZM77.424 28.5829C76.136 28.5829 75.056 27.5029 75.056 26.0209C75.056 24.5229 76.136 23.4279 77.424 23.4279C78.697 23.4279 79.696 24.5229 79.696 26.0209C79.696 27.5029 78.697 28.5829 77.424 28.5829ZM79.567 22.7029H79.503C79.084 22.2029 78.278 21.7519 77.263 21.7519C75.137 21.7519 73.187 23.6209 73.187 26.0209C73.187 28.4059 75.137 30.2579 77.263 30.2579C78.278 30.2579 79.084 29.8069 79.503 29.2919H79.567V29.9039C79.567 31.5309 78.697 32.4009 77.295 32.4009C76.152 32.4009 75.443 31.5789 75.153 30.8869L73.526 31.5629C73.993 32.6909 75.233 34.0769 77.295 34.0769C79.487 34.0769 81.339 32.7879 81.339 29.6459V22.0099H79.567V22.7029ZM82.628 30.0009H84.497V17.4989H82.628V30.0009ZM87.252 25.8759C87.203 24.2329 88.525 23.3949 89.475 23.3949C90.217 23.3949 90.845 23.7659 91.054 24.2979L87.252 25.8759ZM93.052 24.4589C92.698 23.5079 91.618 21.7519 89.411 21.7519C87.22 21.7519 85.399 23.4759 85.399 26.0049C85.399 28.3899 87.203 30.2579 89.62 30.2579C91.57 30.2579 92.698 29.0659 93.165 28.3729L91.715 27.4069C91.232 28.1159 90.571 28.5829 89.62 28.5829C88.669 28.5829 87.993 28.1479 87.558 27.2939L93.245 24.9419L93.052 24.4589ZM47.743 23.0569V24.8609H52.061C51.932 25.8759 51.594 26.6169 51.078 27.1329C50.45 27.7609 49.467 28.4539 47.743 28.4539C45.085 28.4539 43.007 26.3109 43.007 23.6529C43.007 20.9949 45.085 18.8519 47.743 18.8519C49.177 18.8519 50.224 19.4159 50.998 20.1409L52.27 18.8679C51.191 17.8369 49.757 17.0479 47.743 17.0479C44.102 17.0479 41.041 20.0119 41.041 23.6529C41.041 27.2939 44.102 30.2579 47.743 30.2579C49.709 30.2579 51.191 29.6139 52.351 28.4059C53.543 27.2129 53.914 25.5379 53.914 24.1849C53.914 23.7659 53.881 23.3789 53.817 23.0569H47.743ZM58.822 28.5829C57.533 28.5829 56.422 27.5199 56.422 26.0049C56.422 24.4749 57.533 23.4279 58.822 23.4279C60.111 23.4279 61.222 24.4749 61.222 26.0049C61.222 27.5199 60.111 28.5829 58.822 28.5829ZM58.822 21.7519C56.47 21.7519 54.553 23.5399 54.553 26.0049C54.553 28.4538 56.47 30.2579 58.822 30.2579C61.174 30.2579 63.091 28.4538 63.091 26.0049C63.091 23.5399 61.174 21.7519 58.822 21.7519ZM68.135 28.5829C66.847 28.5829 65.735 27.5199 65.735 26.0049C65.735 24.4749 66.847 23.4279 68.135 23.4279C69.424 23.4279 70.536 24.4749 70.536 26.0049C70.536 27.5199 69.424 28.5829 68.135 28.5829ZM68.135 21.7519C65.783 21.7519 63.866 23.5399 63.866 26.0049C63.866 28.4538 65.783 30.2579 68.135 30.2579C70.488 30.2579 72.405 28.4538 72.405 26.0049C72.405 23.5399 70.488 21.7519 68.135 21.7519Z" fill="white"/>
<path fill-rule="evenodd" clip-rule="evenodd" d="M10.5087 32.3903L10.4347 32.3193C10.1437 32.0113 9.97168 31.5333 9.97168 30.9143V31.0593V8.9383V9.0903C9.97168 8.4203 10.1727 7.9143 10.5077 7.6123L22.8977 20.0013L10.5087 32.3903ZM9.97168 8.9373C9.97168 8.88231 9.97368 8.8283 9.97568 8.7763C9.97368 8.8283 9.97168 8.88231 9.97168 8.9373ZM9.97668 8.7733V8.7713V8.7733ZM9.97668 8.7663V8.76531V8.7663Z" fill="url(#paint0_linear_565_5438)"/>
<path fill-rule="evenodd" clip-rule="evenodd" d="M27.0274 24.2791L27.1214 24.2251L32.0144 21.4451C32.4814 21.1801 32.7924 20.8591 32.9474 20.5181C32.7924 20.8591 32.4814 21.1801 32.0144 21.4461L27.1214 24.2261L27.0274 24.2791ZM27.0284 24.1321L22.8984 20.0011L27.0284 15.8711L32.0144 18.7041C32.6484 19.0631 33.0034 19.5271 33.0624 20.0011V20.0031C33.0034 20.4751 32.6484 20.9391 32.0144 21.2991L27.0284 24.1321Z" fill="url(#paint1_linear_565_5438)"/>
<path fill-rule="evenodd" clip-rule="evenodd" d="M11.3924 32.862C11.0464 32.862 10.7454 32.749 10.5094 32.537V32.536C10.7454 32.749 11.0474 32.862 11.3934 32.862C11.4234 32.862 11.4544 32.861 11.4854 32.859C11.4544 32.861 11.4234 32.862 11.3924 32.862ZM11.3934 32.715C11.0474 32.716 10.7454 32.603 10.5094 32.39L22.8984 20.001L27.0284 24.132L12.5134 32.38C12.1124 32.608 11.7314 32.715 11.3934 32.715ZM10.5064 32.534C10.4844 32.514 10.4624 32.493 10.4414 32.471L10.5064 32.534Z" fill="url(#paint2_linear_565_5438)"/>
<path fill-rule="evenodd" clip-rule="evenodd" d="M22.8978 20.0006L10.5078 7.61163C10.7438 7.39963 11.0448 7.28663 11.3908 7.28663C11.7298 7.28663 12.1108 7.39463 12.5128 7.62363L27.0278 15.8706L22.8978 20.0006ZM27.1208 15.7776L12.5128 7.47763C12.1108 7.24863 11.7298 7.14062 11.3908 7.14062H11.3868H11.3918C11.7308 7.14062 12.1108 7.24863 12.5128 7.47663L27.1208 15.7766V15.7776Z" fill="url(#paint3_linear_565_5438)"/>
<path d="M11.4846 32.8593C11.7986 32.8413 12.1466 32.7333 12.5126 32.5263L27.0266 24.2793L12.5126 32.5263C12.1466 32.7343 11.7986 32.8423 11.4846 32.8593ZM10.5086 32.5373L10.5056 32.5343L10.5086 32.5373ZM10.4406 32.4713L10.4346 32.4653L10.4406 32.4713Z" fill="black"/>
<path fill-rule="evenodd" clip-rule="evenodd" d="M27.0273 24.2786L27.1213 24.2246L27.0273 24.2786Z" fill="url(#paint4_linear_565_5438)"/>
<path fill-rule="evenodd" clip-rule="evenodd" d="M11.3926 32.8618C11.0466 32.8618 10.7446 32.7488 10.5086 32.5358V32.5368L10.5056 32.5338L10.4406 32.4708L10.4346 32.4648L10.5086 32.3898C10.7446 32.6028 11.0466 32.7158 11.3926 32.7148C11.7306 32.7148 12.1116 32.6078 12.5126 32.3798L27.0276 24.1318L27.1206 24.2248L27.0266 24.2788L12.5126 32.5258C12.1466 32.7328 11.7986 32.8408 11.4846 32.8588C11.4536 32.8608 11.4226 32.8618 11.3926 32.8618Z" fill="url(#paint5_linear_565_5438)"/>
<path d="M10.4347 32.4646C10.1437 32.1566 9.97168 31.6786 9.97168 31.0596V31.0586C9.97168 31.6786 10.1437 32.1566 10.4347 32.4636V32.4646Z" fill="black"/>
<path fill-rule="evenodd" clip-rule="evenodd" d="M10.4347 32.4641C10.1437 32.1571 9.97168 31.6791 9.97168 31.0591V30.9141C9.97168 31.5331 10.1437 32.0111 10.4347 32.3191L10.5087 32.3901L10.4347 32.4641Z" fill="url(#paint6_linear_565_5438)"/>
<path fill-rule="evenodd" clip-rule="evenodd" d="M10.4346 32.4646V32.4636L10.5086 32.3896L10.4346 32.4646Z" fill="url(#paint7_linear_565_5438)"/>
<path d="M32.9473 20.518C33.0243 20.35 33.0623 20.176 33.0623 20.003C33.0623 20.002 33.0633 20.002 33.0633 20.002C33.0633 20.176 33.0243 20.349 32.9473 20.518Z" fill="black"/>
<path fill-rule="evenodd" clip-rule="evenodd" d="M27.1213 24.2249L27.0283 24.1319L32.0143 21.2989C32.6483 20.9389 33.0033 20.4749 33.0623 20.0029C33.0623 20.1759 33.0243 20.3499 32.9473 20.5179C32.7923 20.8589 32.4813 21.1799 32.0143 21.4449L27.1213 24.2249Z" fill="url(#paint8_linear_565_5438)"/>
<path d="M33.0631 20.0013H33.0621C33.0621 19.4783 32.7131 18.9553 32.0141 18.5583L27.1211 15.7783V15.7773L32.0141 18.5583C32.7131 18.9553 33.0631 19.4783 33.0631 20.0013Z" fill="#404040"/>
<path fill-rule="evenodd" clip-rule="evenodd" d="M33.0623 20.0013C33.0033 19.5273 32.6483 19.0633 32.0143 18.7043L27.0283 15.8713L27.1213 15.7783L32.0143 18.5583C32.7133 18.9553 33.0623 19.4783 33.0623 20.0013Z" fill="url(#paint9_linear_565_5438)"/>
<path d="M9.97168 8.93762V8.93663V8.93762ZM9.97568 8.77563C9.97668 8.77463 9.97668 8.77363 9.97668 8.77262C9.97668 8.77363 9.97668 8.77463 9.97568 8.77563ZM9.97668 8.77063V8.76562V8.77063ZM9.97668 8.76463C10.0347 7.73763 10.5927 7.14463 11.3827 7.14062C11.0407 7.14263 10.7427 7.25463 10.5087 7.46563L10.5057 7.46863C10.4817 7.49063 10.4577 7.51363 10.4347 7.53763C10.1727 7.81563 10.0067 8.23163 9.97668 8.76463Z" fill="#404040"/>
<path fill-rule="evenodd" clip-rule="evenodd" d="M9.97168 9.08982V8.93682C9.97168 8.88182 9.97368 8.82782 9.97568 8.77582C9.97668 8.77482 9.97668 8.77382 9.97668 8.77282V8.76482C10.0067 8.23182 10.1727 7.81582 10.4347 7.53782L10.5077 7.61182C10.1727 7.91382 9.97168 8.41982 9.97168 9.08982ZM10.5057 7.46882L10.5087 7.46582L10.5057 7.46882Z" fill="url(#paint10_linear_565_5438)"/>
<path fill-rule="evenodd" clip-rule="evenodd" d="M27.0276 15.8706L12.5126 7.62363C12.1106 7.39463 11.7296 7.28663 11.3906 7.28663C11.0446 7.28663 10.7436 7.39963 10.5076 7.61163L10.4346 7.53763C10.4576 7.51363 10.4816 7.49063 10.5056 7.46863L10.5086 7.46563C10.7426 7.25463 11.0406 7.14263 11.3826 7.14062H11.3906C11.7296 7.14062 12.1106 7.24863 12.5126 7.47763L27.1206 15.7776L27.0276 15.8706Z" fill="url(#paint11_linear_565_5438)"/>
<path d="M42.0483 12.263H43.1133C43.8053 12.263 44.3543 12.065 44.7593 11.668C45.1653 11.271 45.3673 10.715 45.3673 10C45.3673 9.291 45.1653 8.737 44.7593 8.337C44.3543 7.938 43.8053 7.738 43.1133 7.738H42.0483V12.263ZM41.2783 13V7H43.1133C44.0353 7 44.7723 7.278 45.3263 7.834C45.8783 8.39 46.1553 9.112 46.1553 10C46.1553 10.889 45.8783 11.611 45.3263 12.166C44.7723 12.723 44.0353 13 43.1133 13H41.2783Z" fill="white"/>
<path d="M42.0477 12.2634V12.3634H43.1127C43.8227 12.3644 44.4027 12.1574 44.8287 11.7394C45.2567 11.3214 45.4677 10.7334 45.4667 10.0004C45.4677 9.27339 45.2567 8.68739 44.8297 8.26639H44.8287C44.4037 7.84639 43.8237 7.63739 43.1127 7.63839H41.9477V12.3634H42.0477V12.2634H42.1477V7.83839H43.1127C43.7867 7.83939 44.3037 8.03039 44.6887 8.40839C45.0717 8.78739 45.2657 9.30939 45.2667 10.0004C45.2657 10.6974 45.0717 11.2224 44.6887 11.5964C44.3047 11.9724 43.7867 12.1624 43.1127 12.1634H42.0477V12.2634H42.1477H42.0477ZM41.2777 13.0004H41.3777V7.10039H43.1127C44.0147 7.10139 44.7207 7.37039 45.2547 7.90539C45.7877 8.44239 46.0537 9.13239 46.0547 10.0004C46.0537 10.8684 45.7877 11.5594 45.2547 12.0964C44.7207 12.6314 44.0147 12.9004 43.1127 12.9004H41.2777V13.0004H41.3777H41.2777V13.1004H43.1127C44.0537 13.1014 44.8227 12.8144 45.3967 12.2374C45.9687 11.6624 46.2557 10.9094 46.2547 10.0004C46.2557 9.09239 45.9687 8.33839 45.3967 7.76439C44.8227 7.18739 44.0537 6.90039 43.1127 6.90039H41.1777V13.1004H41.2777V13.0004ZM47.2367 7.00039H48.0067V13.0004H47.2367V7.00039Z" fill="white"/>
<path d="M47.2367 13.0002H47.3367V7.10021H47.9067V12.9002H47.2367V13.0002H47.3367H47.2367V13.1002H48.1067V6.90021H47.1367V13.1002H47.2367V13.0002ZM51.0737 13.1342C50.6377 13.1342 50.2117 12.9922 49.7957 12.7072C49.3787 12.4222 49.1067 12.0232 48.9787 11.5092L49.6827 11.2242C49.7667 11.5542 49.9377 11.8322 50.1977 12.0582C50.4587 12.2842 50.7497 12.3972 51.0737 12.3972C51.4087 12.3972 51.6957 12.3092 51.9327 12.1332C52.1697 11.9572 52.2887 11.7182 52.2887 11.4162C52.2887 11.0822 52.1697 10.8232 51.9327 10.6422C51.6957 10.4602 51.3197 10.2912 50.8057 10.1342C50.2747 9.96721 49.8727 9.75021 49.5987 9.48521C49.3257 9.22021 49.1877 8.88021 49.1877 8.46721C49.1877 8.03721 49.3587 7.66321 49.6997 7.34421C50.0407 7.02621 50.4847 6.86621 51.0317 6.86621C51.5407 6.86621 51.9537 6.99421 52.2717 7.24821C52.5897 7.50221 52.7967 7.78021 52.8917 8.08221L52.1887 8.37421C52.1377 8.18521 52.0137 8.00921 51.8157 7.84721C51.6177 7.68521 51.3617 7.60421 51.0477 7.60421C50.7517 7.60421 50.4997 7.68621 50.2907 7.85121C50.0807 8.01621 49.9757 8.22121 49.9757 8.46721C49.9757 8.69021 50.0727 8.87921 50.2647 9.03321C50.4587 9.18621 50.7417 9.32521 51.1157 9.44721C51.4117 9.54221 51.6587 9.63421 51.8577 9.72421C52.0557 9.81321 52.2567 9.93221 52.4597 10.0802C52.6647 10.2282 52.8177 10.4132 52.9207 10.6332C53.0247 10.8542 53.0767 11.1092 53.0767 11.4002C53.0767 11.6902 53.0167 11.9502 52.8967 12.1792C52.7767 12.4092 52.6167 12.5902 52.4177 12.7242C52.2197 12.8582 52.0067 12.9602 51.7777 13.0302C51.5477 13.1002 51.3137 13.1342 51.0737 13.1342Z" fill="white"/>
<path d="M51.0743 13.1336V13.0336C50.6603 13.0336 50.2563 12.8996 49.8533 12.6246C49.4563 12.3516 49.2003 11.9776 49.0763 11.4846L48.9793 11.5086L49.0173 11.6006L49.7213 11.3166L49.6833 11.2236L49.5863 11.2486C49.6753 11.5966 49.8583 11.8946 50.1323 12.1326C50.4083 12.3726 50.7263 12.4976 51.0743 12.4966C51.4263 12.4966 51.7373 12.4026 51.9933 12.2136C52.2543 12.0226 52.3913 11.7436 52.3893 11.4156C52.3903 11.0586 52.2573 10.7606 51.9943 10.5616C51.7403 10.3676 51.3553 10.1976 50.8353 10.0386H50.8363C50.3153 9.87463 49.9263 9.66363 49.6693 9.41263C49.4153 9.16563 49.2893 8.85763 49.2883 8.46663C49.2893 8.06363 49.4443 7.72063 49.7683 7.41663C50.0893 7.11763 50.5043 6.96663 51.0323 6.96563C51.5243 6.96663 51.9123 7.08863 52.2103 7.32563C52.5173 7.57063 52.7093 7.83263 52.7973 8.11063L52.8923 8.08163L52.8543 7.98863L52.1513 8.28163L52.1893 8.37363L52.2863 8.34863C52.2283 8.13363 52.0893 7.93963 51.8793 7.76863C51.6613 7.59063 51.3793 7.50363 51.0483 7.50363C50.7343 7.50263 50.4563 7.59263 50.2293 7.77263V7.77163C49.9993 7.95063 49.8743 8.19163 49.8763 8.46663C49.8753 8.71963 49.9913 8.94363 50.2033 9.11063C50.4113 9.27463 50.7043 9.41663 51.0853 9.54163C51.3793 9.63663 51.6233 9.72763 51.8173 9.81463C52.0083 9.90063 52.2033 10.0156 52.4023 10.1606C52.5933 10.2996 52.7343 10.4696 52.8313 10.6756C52.9273 10.8806 52.9773 11.1206 52.9773 11.3996C52.9773 11.6766 52.9203 11.9186 52.8083 12.1326C52.6953 12.3486 52.5473 12.5156 52.3623 12.6406H52.3633C52.1723 12.7696 51.9693 12.8666 51.7493 12.9336C51.5293 13.0006 51.3043 13.0336 51.0743 13.0336V13.2336C51.3243 13.2336 51.5683 13.1976 51.8073 13.1246C52.0463 13.0526 52.2683 12.9456 52.4743 12.8066H52.4753C52.6873 12.6626 52.8593 12.4676 52.9863 12.2256C53.1143 11.9806 53.1773 11.7036 53.1773 11.3996C53.1773 11.0976 53.1233 10.8266 53.0123 10.5906C52.9023 10.3546 52.7363 10.1556 52.5193 9.99863C52.3113 9.84763 52.1043 9.72463 51.8993 9.63263C51.6953 9.54063 51.4453 9.44763 51.1463 9.35163H51.1473C50.7803 9.23163 50.5063 9.09663 50.3273 8.95363L50.3283 8.95463C50.1543 8.81363 50.0783 8.66063 50.0763 8.46663C50.0783 8.24963 50.1623 8.08063 50.3523 7.92963H50.3533C50.5433 7.77863 50.7713 7.70363 51.0483 7.70363C51.3453 7.70363 51.5753 7.77863 51.7533 7.92363L51.7543 7.92463L51.7533 7.92363C51.9403 8.07663 52.0483 8.23563 52.0923 8.39963L52.1223 8.51063L52.9313 8.17363L53.0153 8.13863L52.9883 8.05163C52.8853 7.72563 52.6643 7.43163 52.3343 7.16863C51.9953 6.89863 51.5573 6.76563 51.0323 6.76563C50.4663 6.76463 49.9923 6.93363 49.6313 7.27063C49.2743 7.60363 49.0873 8.00863 49.0883 8.46663C49.0873 8.90163 49.2363 9.27363 49.5303 9.55663C49.8193 9.83663 50.2353 10.0586 50.7763 10.2296H50.7773C51.2843 10.3836 51.6523 10.5516 51.8723 10.7206C52.0843 10.8846 52.1873 11.1036 52.1893 11.4156C52.1873 11.6916 52.0873 11.8916 51.8743 12.0526C51.6553 12.2146 51.3923 12.2966 51.0743 12.2966C50.7733 12.2956 50.5093 12.1936 50.2633 11.9816C50.0183 11.7676 49.8603 11.5096 49.7803 11.1986L49.7523 11.0876L48.9423 11.4156L48.8613 11.4486L48.8823 11.5326C49.0143 12.0676 49.3033 12.4916 49.7403 12.7896C50.1693 13.0836 50.6163 13.2336 51.0743 13.2336V13.1336ZM54.9543 9.83163H56.2453C56.5693 9.83163 56.8293 9.72363 57.0243 9.50563C57.2193 9.28763 57.3173 9.04763 57.3173 8.78563C57.3173 8.52263 57.2193 8.28263 57.0243 8.06463C56.8293 7.84663 56.5693 7.73763 56.2453 7.73763H54.9543V9.83163ZM54.9543 12.9996H54.1833V6.99963H56.2283C56.7363 6.99963 57.1763 7.16863 57.5473 7.50663C57.9193 7.84463 58.1053 8.27063 58.1053 8.78563C58.1053 9.29863 57.9193 9.72463 57.5473 10.0626C57.1763 10.4006 56.7363 10.5696 56.2283 10.5696H54.9543V12.9996Z" fill="white"/>
<path d="M54.954 9.83221V9.93221H56.245C56.591 9.93421 56.885 9.81321 57.098 9.57321C57.307 9.34121 57.418 9.07421 57.417 8.78621C57.418 8.49821 57.307 8.23021 57.098 7.99821C56.885 7.75821 56.591 7.63621 56.245 7.63821H54.854V9.93221H54.954V9.83221H55.054V7.83821H56.245C56.547 7.83921 56.772 7.93521 56.949 8.13221H56.95C57.131 8.33521 57.216 8.54821 57.217 8.78621C57.216 9.02321 57.131 9.23521 56.949 9.44021H56.95C56.772 9.63521 56.547 9.73121 56.245 9.73221H54.954V9.83221H55.054H54.954ZM54.954 13.0002V12.9002H54.283V7.10021H56.228C56.714 7.10121 57.125 7.25921 57.48 7.58121C57.832 7.90321 58.004 8.29521 58.005 8.78621C58.004 9.27521 57.833 9.66721 57.48 9.98921C57.125 10.3112 56.714 10.4692 56.228 10.4702H54.854V13.0002H54.954V12.9002V13.0002H55.054V10.6702H56.228C56.758 10.6712 57.227 10.4912 57.615 10.1372C58.006 9.78321 58.206 9.32321 58.205 8.78621C58.206 8.24721 58.006 7.78721 57.615 7.43321C57.227 7.07921 56.758 6.90021 56.228 6.90021H54.083V13.1002H55.054V13.0002H54.954ZM60.153 11.7232C60.597 12.1722 61.14 12.3972 61.783 12.3972C62.425 12.3972 62.969 12.1722 63.413 11.7232C63.857 11.2732 64.08 10.6992 64.08 10.0002C64.08 9.30221 63.857 8.72821 63.413 8.27821C62.969 7.82921 62.425 7.60421 61.783 7.60421C61.14 7.60421 60.597 7.82921 60.153 8.27821C59.71 8.72821 59.487 9.30221 59.487 10.0002C59.487 10.6992 59.71 11.2732 60.153 11.7232ZM63.983 12.2252C63.393 12.8322 62.66 13.1342 61.783 13.1342C60.906 13.1342 60.172 12.8322 59.584 12.2252C58.994 11.6192 58.7 10.8772 58.7 10.0002C58.7 9.12321 58.994 8.38221 59.584 7.77621C60.172 7.16921 60.906 6.86621 61.783 6.86621C62.655 6.86621 63.386 7.17121 63.979 7.78021C64.571 8.38921 64.867 9.12921 64.867 10.0002C64.867 10.8772 64.572 11.6192 63.983 12.2252Z" fill="white"/>
<path d="M60.1526 11.7226L60.0816 11.7926C60.5416 12.2606 61.1166 12.4976 61.7826 12.4966C62.4486 12.4976 63.0236 12.2606 63.4836 11.7926C63.9466 11.3246 64.1806 10.7196 64.1796 9.99963C64.1806 9.28063 63.9466 8.67563 63.4836 8.20763C63.0236 7.73963 62.4486 7.50263 61.7826 7.50363C61.1166 7.50263 60.5416 7.73963 60.0816 8.20763C59.6186 8.67563 59.3856 9.28063 59.3866 9.99963C59.3856 10.7196 59.6186 11.3246 60.0816 11.7926L60.1526 11.7226L60.2236 11.6516C59.7996 11.2206 59.5876 10.6776 59.5866 9.99963C59.5876 9.32263 59.7996 8.77963 60.2236 8.34763V8.34863C60.6516 7.91663 61.1626 7.70463 61.7826 7.70363C62.4016 7.70463 62.9136 7.91663 63.3406 8.34763L63.3426 8.34963L63.3406 8.34863C63.7666 8.77963 63.9786 9.32263 63.9796 9.99963C63.9786 10.6776 63.7666 11.2206 63.3406 11.6516C62.9136 12.0836 62.4016 12.2956 61.7826 12.2966C61.1626 12.2956 60.6516 12.0836 60.2236 11.6516L60.1526 11.7226ZM63.9826 12.2246L63.9106 12.1546C63.3376 12.7426 62.6366 13.0326 61.7826 13.0336C60.9286 13.0326 60.2266 12.7426 59.6546 12.1546L59.6516 12.1516L59.6546 12.1546C59.0826 11.5656 58.8006 10.8546 58.7996 9.99963C58.8006 9.14563 59.0826 8.43463 59.6546 7.84563C60.2266 7.25763 60.9286 6.96663 61.7826 6.96563C62.6316 6.96663 63.3306 7.25863 63.9066 7.84963C64.4816 8.44163 64.7656 9.15063 64.7666 9.99963C64.7656 10.8546 64.4816 11.5656 63.9106 12.1546L64.0546 12.2946C64.6606 11.6716 64.9676 10.8996 64.9666 9.99963C64.9676 9.10563 64.6596 8.33563 64.0506 7.70963C63.4406 7.08263 62.6776 6.76463 61.7826 6.76563C60.8826 6.76463 60.1166 7.08063 59.5116 7.70563C58.9036 8.32863 58.5986 9.10063 58.5996 9.99963C58.5986 10.8996 58.9036 11.6716 59.5116 12.2946C60.1166 12.9196 60.8826 13.2346 61.7826 13.2336C62.6826 13.2346 63.4476 12.9196 64.0546 12.2946L63.9826 12.2246ZM65.9486 12.9996V6.99963H66.8866L69.8026 11.6676H69.8356L69.8026 10.5116V6.99963H70.5746V12.9996H69.7696L66.7186 8.10663H66.6856L66.7186 9.26263V12.9996H65.9486Z" fill="white"/>
<path d="M65.9486 13.0004H66.0486V7.10039H66.8316L69.7476 11.7684H69.9386L69.9026 10.5104V7.10039H70.4746V12.9004H69.8256L66.7746 8.00739H66.5826L66.6186 9.26539V12.9004H65.9486V13.0004H66.0486H65.9486V13.1004H66.8186V9.26239L66.7856 8.10439L66.6856 8.10739V8.20739H66.7186V8.10739L66.6336 8.16039L69.7146 13.1004H70.6746V6.90039H69.7026V10.5134L69.7366 11.6714L69.8356 11.6684V11.5684H69.8026V11.6684L69.8876 11.6154L66.9426 6.90039H65.8486V13.1004H65.9486V13.0004ZM71.9486 7.00039H72.7186V13.0004H71.9486V7.00039Z" fill="white"/>
<path d="M71.9486 13.0004H72.0486V7.10039H72.6186V12.9004H71.9486V13.0004H72.0486H71.9486V13.1004H72.8186V6.90039H71.8486V13.1004H71.9486V13.0004ZM74.8636 12.2634H76.4146C76.7096 12.2634 76.9506 12.1604 77.1346 11.9534C77.3196 11.7474 77.4116 11.5204 77.4116 11.2744C77.4116 11.0284 77.3166 10.8044 77.1266 10.6004C76.9366 10.3964 76.6876 10.2934 76.3796 10.2934H74.8636V12.2634ZM74.8636 9.57339H76.2626C76.5536 9.57339 76.7876 9.47739 76.9626 9.28439C77.1386 9.09139 77.2266 8.88039 77.2266 8.65139C77.2266 8.42239 77.1416 8.21239 76.9706 8.02339C76.8006 7.83339 76.5766 7.73839 76.2966 7.73839H74.8636V9.57339ZM74.0926 13.0004V7.00039H76.2626C76.7326 7.00039 77.1386 7.15639 77.4826 7.46539C77.8266 7.77639 77.9986 8.16539 77.9986 8.63439C77.9986 8.91939 77.9236 9.17139 77.7756 9.38939C77.6276 9.60739 77.4306 9.77139 77.1846 9.88339V9.91639C77.4806 10.0174 77.7236 10.1904 77.9146 10.4364C78.1036 10.6824 78.1996 10.9674 78.1996 11.2914C78.1996 11.7834 78.0186 12.1904 77.6586 12.5144C77.2976 12.8384 76.8726 13.0004 76.3796 13.0004H74.0926Z" fill="white"/>
<path d="M74.8642 12.2634V12.3634H76.4152C76.7342 12.3644 77.0082 12.2474 77.2102 12.0194C77.4082 11.7994 77.5122 11.5454 77.5122 11.2744C77.5122 11.0024 77.4042 10.7494 77.2002 10.5314C76.9922 10.3074 76.7102 10.1924 76.3802 10.1934H74.7642V12.3634H74.8642V12.2634H74.9642V10.3934H76.3802C76.6662 10.3954 76.8822 10.4854 77.0532 10.6684C77.2302 10.8584 77.3112 11.0554 77.3122 11.2744C77.3112 11.4954 77.2322 11.6944 77.0612 11.8864C76.8932 12.0724 76.6872 12.1624 76.4152 12.1634H74.8642V12.2634H74.9642H74.8642ZM74.8642 9.57339V9.67339H76.2632C76.5762 9.67439 76.8432 9.56639 77.0372 9.35139C77.2272 9.14539 77.3282 8.90739 77.3272 8.65139C77.3282 8.39739 77.2302 8.16039 77.0452 7.95639H77.0462C76.8582 7.74539 76.5992 7.63639 76.2972 7.63839H74.7642V9.67339H74.8642V9.57339H74.9642V7.83839H76.2972C76.5542 7.83939 76.7442 7.92139 76.8972 8.09039C77.0542 8.26539 77.1262 8.44839 77.1272 8.65139C77.1262 8.85439 77.0522 9.03839 76.8902 9.21639H76.8892C76.7322 9.38839 76.5332 9.47139 76.2632 9.47339H74.8642V9.57339H74.9642H74.8642ZM74.0932 13.0004H74.1932V7.10039H76.2632C76.7112 7.10139 77.0892 7.24639 77.4162 7.54039V7.53939C77.7402 7.83439 77.8972 8.19039 77.8992 8.63439C77.8982 8.90239 77.8302 9.13139 77.6932 9.33239V9.33339C77.5562 9.53639 77.3742 9.68739 77.1442 9.79239L77.0852 9.81939V9.98839L77.1532 10.0114C77.4312 10.1064 77.6562 10.2664 77.8362 10.4974H77.8352C78.0112 10.7274 78.0992 10.9874 78.1002 11.2914C78.0982 11.7584 77.9332 12.1324 77.5922 12.4404C77.2482 12.7484 76.8512 12.9004 76.3802 12.9004H74.0932V13.0004H74.1932H74.0932V13.1004H76.3802C76.8952 13.1014 77.3492 12.9284 77.7262 12.5884C78.1062 12.2494 78.3012 11.8074 78.3002 11.2914C78.3002 10.9484 78.1972 10.6384 77.9942 10.3754C77.7922 10.1144 77.5312 9.92839 77.2172 9.82239L77.1852 9.91639H77.2852V9.88339H77.1852L77.2262 9.97439C77.4882 9.85639 77.7012 9.67839 77.8592 9.44539C78.0192 9.21039 78.0992 8.93739 78.0992 8.63439C78.1002 8.14139 77.9132 7.71839 77.5502 7.39139L77.5482 7.38939L77.5502 7.39139C77.1902 7.06639 76.7552 6.90039 76.2632 6.90039H73.9932V13.1004H74.0932V13.0004ZM79.2392 13.0004V7.00039H80.0092V12.2634H82.6072V13.0004H79.2392Z" fill="white"/>
<path d="M79.2387 13.0004H79.3387V7.10039H79.9087V12.3634H82.5067V12.9004H79.2387V13.0004H79.3387H79.2387V13.1004H82.7067V12.1634H80.1087V6.90039H79.1387V13.1004H79.2387V13.0004ZM87.0827 7.73839H84.3497V9.64039H86.8137V10.3614H84.3497V12.2634H87.0827V13.0004H83.5797V7.00039H87.0827V7.73839Z" fill="white"/>
<path d="M87.0835 7.73821V7.63821H84.2505V9.74021H86.7145V10.2612H84.2505V12.3632H86.9835V12.9002H83.6805V7.10021H86.9835V7.73821H87.0835V7.63821V7.73821H87.1835V6.90021H83.4805V13.1002H87.1835V12.1632H84.4505V10.4612H86.9145V9.54021H84.4505V7.83821H87.1835V7.73821H87.0835ZM91.7425 13.1342C91.3075 13.1342 90.8815 12.9922 90.4655 12.7072C90.0485 12.4222 89.7755 12.0232 89.6475 11.5092L90.3525 11.2242C90.4365 11.5542 90.6065 11.8322 90.8665 12.0582C91.1275 12.2842 91.4185 12.3972 91.7425 12.3972C92.0775 12.3972 92.3645 12.3092 92.6025 12.1332C92.8395 11.9572 92.9575 11.7182 92.9575 11.4162C92.9575 11.0822 92.8395 10.8232 92.6025 10.6422C92.3645 10.4602 91.9885 10.2912 91.4755 10.1342C90.9435 9.96721 90.5415 9.75021 90.2685 9.48521C89.9945 9.22021 89.8565 8.88021 89.8565 8.46721C89.8565 8.03721 90.0275 7.66321 90.3685 7.34421C90.7095 7.02621 91.1535 6.86621 91.7005 6.86621C92.2095 6.86621 92.6225 6.99421 92.9405 7.24821C93.2595 7.50221 93.4665 7.78021 93.5615 8.08221L92.8575 8.37421C92.8075 8.18521 92.6835 8.00921 92.4845 7.84721C92.2865 7.68521 92.0305 7.60421 91.7175 7.60421C91.4215 7.60421 91.1685 7.68621 90.9595 7.85121C90.7495 8.01621 90.6455 8.22121 90.6455 8.46721C90.6455 8.69021 90.7415 8.87921 90.9345 9.03321C91.1275 9.18621 91.4105 9.32521 91.7845 9.44721C92.0805 9.54221 92.3275 9.63421 92.5265 9.72421C92.7255 9.81321 92.9265 9.93221 93.1295 10.0802C93.3335 10.2282 93.4865 10.4132 93.5905 10.6332C93.6935 10.8542 93.7455 11.1092 93.7455 11.4002C93.7455 11.6902 93.6865 11.9502 93.5655 12.1792C93.4455 12.4092 93.2855 12.5902 93.0875 12.7242C92.8895 12.8582 92.6765 12.9602 92.4465 13.0302C92.2175 13.1002 91.9825 13.1342 91.7425 13.1342Z" fill="white"/>
<path d="M91.7423 13.1336V13.0336C91.3293 13.0336 90.9243 12.8996 90.5213 12.6246C90.1243 12.3516 89.8683 11.9776 89.7443 11.4846L89.6473 11.5086L89.6843 11.6006L90.3893 11.3166L90.3523 11.2236L90.2553 11.2486C90.3433 11.5966 90.5263 11.8946 90.8013 12.1326L90.8033 12.1346L90.8013 12.1326C91.0763 12.3726 91.3943 12.4976 91.7423 12.4966C92.0943 12.4966 92.4053 12.4026 92.6613 12.2136C92.9223 12.0226 93.0593 11.7436 93.0573 11.4156C93.0593 11.0586 92.9253 10.7606 92.6623 10.5616C92.4083 10.3676 92.0243 10.1976 91.5043 10.0386H91.5053C90.9833 9.87463 90.5953 9.66363 90.3373 9.41263C90.0833 9.16563 89.9573 8.85763 89.9563 8.46663C89.9573 8.06363 90.1123 7.72063 90.4363 7.41663C90.7583 7.11763 91.1723 6.96663 91.7003 6.96563C92.1933 6.96663 92.5803 7.08863 92.8783 7.32563C93.1853 7.57063 93.3783 7.83263 93.4653 8.11063L93.5613 8.08163L93.5223 7.98863L92.8193 8.28163L92.8573 8.37363L92.9543 8.34863C92.8973 8.13363 92.7573 7.93963 92.5483 7.76863C92.3293 7.59063 92.0473 7.50363 91.7173 7.50363C91.4033 7.50263 91.1243 7.59263 90.8973 7.77263V7.77163C90.6683 7.95063 90.5433 8.19163 90.5453 8.46663C90.5433 8.71963 90.6603 8.94363 90.8713 9.11063C91.0793 9.27463 91.3723 9.41663 91.7533 9.54163H91.7543C92.0473 9.63663 92.2913 9.72763 92.4853 9.81463C92.6763 9.90063 92.8723 10.0156 93.0703 10.1606C93.2613 10.2996 93.4033 10.4696 93.4993 10.6756C93.5963 10.8806 93.6453 11.1206 93.6453 11.3996C93.6453 11.6766 93.5893 11.9186 93.4773 12.1326C93.3633 12.3486 93.2153 12.5156 93.0313 12.6406C92.8413 12.7696 92.6373 12.8666 92.4173 12.9336C92.1973 13.0006 91.9733 13.0336 91.7423 13.0336V13.2336C91.9923 13.2336 92.2373 13.1976 92.4753 13.1246C92.7143 13.0526 92.9373 12.9456 93.1433 12.8066C93.3553 12.6626 93.5273 12.4676 93.6543 12.2256C93.7823 11.9806 93.8453 11.7036 93.8453 11.3996C93.8453 11.0976 93.7913 10.8266 93.6803 10.5906C93.5703 10.3546 93.4053 10.1556 93.1883 9.99863L93.1863 9.99763L93.1883 9.99863C92.9803 9.84763 92.7733 9.72463 92.5673 9.63263C92.3633 9.54063 92.1133 9.44763 91.8153 9.35163C91.4483 9.23163 91.1753 9.09663 90.9963 8.95363V8.95463C90.8233 8.81363 90.7463 8.66063 90.7453 8.46663C90.7463 8.24963 90.8313 8.08063 91.0213 7.92963C91.2123 7.77863 91.4393 7.70363 91.7173 7.70363C92.0143 7.70363 92.2433 7.77863 92.4213 7.92363C92.6083 8.07663 92.7173 8.23563 92.7613 8.39963L92.7903 8.51063L93.5993 8.17363L93.6833 8.13863L93.6563 8.05163C93.5543 7.72563 93.3323 7.43163 93.0033 7.16863C92.6643 6.89863 92.2253 6.76563 91.7003 6.76563C91.1343 6.76463 90.6603 6.93363 90.3003 7.27063C89.9423 7.60363 89.7553 8.00863 89.7563 8.46663C89.7553 8.90163 89.9043 9.27363 90.1983 9.55663C90.4873 9.83663 90.9043 10.0586 91.4453 10.2296C91.9533 10.3836 92.3203 10.5516 92.5413 10.7206C92.7533 10.8846 92.8553 11.1036 92.8573 11.4156C92.8553 11.6916 92.7563 11.8916 92.5423 12.0526C92.3233 12.2146 92.0603 12.2966 91.7423 12.2966C91.4423 12.2956 91.1783 12.1936 90.9323 11.9816C90.6873 11.7676 90.5283 11.5096 90.4483 11.1986L90.4203 11.0876L89.6103 11.4156L89.5293 11.4486L89.5503 11.5326C89.6823 12.0676 89.9713 12.4916 90.4083 12.7896C90.8373 13.0836 91.2853 13.2336 91.7423 13.2336V13.1336ZM96.9383 13.1336C96.2773 13.1336 95.7433 12.9156 95.3323 12.4806C94.9223 12.0446 94.7173 11.4746 94.7173 10.7706V6.99963H95.4873V10.8046C95.4873 11.2796 95.6113 11.6636 95.8603 11.9566C96.1083 12.2496 96.4683 12.3966 96.9383 12.3966C97.4063 12.3966 97.7663 12.2496 98.0143 11.9566C98.2633 11.6636 98.3873 11.2796 98.3873 10.8046V6.99963H99.1583V10.7706C99.1583 11.4806 98.9583 12.0516 98.5593 12.4846C98.1593 12.9176 97.6183 13.1336 96.9383 13.1336Z" fill="white"/>
<path d="M96.9382 13.1344V13.0344C96.2992 13.0334 95.7982 12.8274 95.4052 12.4124C95.0142 11.9974 94.8182 11.4564 94.8172 10.7714V7.10039H95.3872V10.8054C95.3872 11.2974 95.5172 11.7084 95.7842 12.0224C96.0522 12.3414 96.4482 12.4984 96.9382 12.4974C97.4262 12.4984 97.8222 12.3414 98.0902 12.0224C98.3572 11.7084 98.4872 11.2974 98.4872 10.8054V7.10039H99.0582V10.7714C99.0582 11.4634 98.8652 12.0054 98.4852 12.4174C98.1052 12.8284 97.5982 13.0334 96.9382 13.0344V13.2344C97.6392 13.2354 98.2132 13.0084 98.6322 12.5534C99.0512 12.1004 99.2592 11.4994 99.2582 10.7714V6.90039H98.2872V10.8054C98.2862 11.2634 98.1682 11.6204 97.9372 11.8934C97.7102 12.1604 97.3872 12.2964 96.9382 12.2974C96.4872 12.2964 96.1642 12.1604 95.9372 11.8934C95.7062 11.6204 95.5882 11.2634 95.5872 10.8054V6.90039H94.6172V10.7714C94.6162 11.4944 94.8302 12.0944 95.2592 12.5494C95.6882 13.0064 96.2562 13.2354 96.9382 13.2344V13.1344ZM101.169 9.85039H102.409C102.717 9.85039 102.98 9.74939 103.201 9.54839C103.422 9.34739 103.532 9.09339 103.532 8.78639C103.532 8.52339 103.435 8.28339 103.239 8.06539C103.044 7.84739 102.784 7.73839 102.46 7.73839H101.169V9.85039ZM100.398 13.0004V7.00039H102.443C102.951 7.00039 103.392 7.16939 103.763 7.50739C104.135 7.84539 104.32 8.27139 104.32 8.78639C104.32 9.20539 104.184 9.57539 103.909 9.89639C103.636 10.2174 103.295 10.4194 102.887 10.5034L102.87 10.5284L104.555 12.9674V13.0004H103.642L102.024 10.5704H101.169V13.0004H100.398Z" fill="white"/>
<path d="M101.169 9.85039V9.95039H102.409C102.739 9.95039 103.031 9.83939 103.269 9.62239H103.268C103.509 9.40539 103.633 9.11739 103.632 8.78639C103.633 8.49839 103.523 8.23039 103.314 7.99839C103.1 7.75839 102.806 7.63639 102.46 7.63839H101.069V9.95039H101.169V9.85039H101.269V7.83839H102.46C102.762 7.83939 102.987 7.93539 103.165 8.13239C103.346 8.33539 103.432 8.54839 103.432 8.78639C103.431 9.06939 103.335 9.29039 103.134 9.47439C102.93 9.65939 102.695 9.74939 102.409 9.75039H101.169V9.85039H101.269H101.169ZM100.398 13.0004H100.498V7.10039H102.443C102.929 7.10139 103.341 7.25939 103.695 7.58139C104.048 7.90339 104.219 8.29539 104.22 8.78639C104.22 9.18339 104.093 9.52639 103.833 9.83139C103.572 10.1374 103.254 10.3254 102.867 10.4054L102.826 10.4144L102.787 10.4734L102.749 10.5294L104.455 12.9984V13.0004H104.555V12.9004H103.695L102.078 10.4704H101.069V12.9004H100.398V13.0004H100.498H100.398V13.1004H101.269V10.6704H101.971L103.588 13.1004H104.655V12.9364L102.952 10.4714L102.87 10.5284L102.953 10.5844L102.97 10.5594L102.887 10.5034L102.907 10.6014C103.335 10.5144 103.699 10.2984 103.985 9.96139C104.274 9.62439 104.421 9.22639 104.42 8.78639C104.422 8.24739 104.222 7.78739 103.83 7.43339C103.442 7.07939 102.973 6.90039 102.443 6.90039H100.298V13.1004H100.398V13.0004Z" fill="white"/>
</g>
<defs>
<linearGradient id="paint0_linear_565_5438" x1="21.7994" y1="8.70999" x2="5.01697" y2="-8.07248" gradientUnits="userSpaceOnUse">
<stop stop-color="#00A0FF"/>
<stop offset="1" stop-color="#00E2FF"/>
</linearGradient>
<linearGradient id="paint1_linear_565_5438" x1="33.8348" y1="20.0015" x2="9.63784" y2="20.0015" gradientUnits="userSpaceOnUse">
<stop stop-color="#FFDF00"/>
<stop offset="1" stop-color="#FF9C00"/>
</linearGradient>
<linearGradient id="paint2_linear_565_5438" x1="24.8274" y1="22.2961" x2="2.06911" y2="-0.462223" gradientUnits="userSpaceOnUse">
<stop stop-color="#FF3A44"/>
<stop offset="1" stop-color="#C31162"/>
</linearGradient>
<linearGradient id="paint3_linear_565_5438" x1="7.29714" y1="0.175825" x2="17.4597" y2="-9.98671" gradientUnits="userSpaceOnUse">
<stop stop-color="#31A070"/>
<stop offset="1" stop-color="#00EF75"/>
</linearGradient>
<linearGradient id="paint4_linear_565_5438" x1="33.8347" y1="20.0011" x2="9.63777" y2="20.0011" gradientUnits="userSpaceOnUse">
<stop stop-color="#CCB300"/>
<stop offset="1" stop-color="#CC7C00"/>
</linearGradient>
<linearGradient id="paint5_linear_565_5438" x1="24.8266" y1="22.2959" x2="2.06827" y2="-0.462365" gradientUnits="userSpaceOnUse">
<stop stop-color="#CC2D36"/>
<stop offset="1" stop-color="#9C0E4D"/>
</linearGradient>
<linearGradient id="paint6_linear_565_5438" x1="21.7994" y1="8.70973" x2="5.01695" y2="-8.07273" gradientUnits="userSpaceOnUse">
<stop stop-color="#008CDF"/>
<stop offset="1" stop-color="#00C6DF"/>
</linearGradient>
<linearGradient id="paint7_linear_565_5438" x1="24.8265" y1="22.2956" x2="2.06792" y2="-0.46247" gradientUnits="userSpaceOnUse">
<stop stop-color="#DF333B"/>
<stop offset="1" stop-color="#AA0E56"/>
</linearGradient>
<linearGradient id="paint8_linear_565_5438" x1="33.8347" y1="20.0013" x2="9.63772" y2="20.0013" gradientUnits="userSpaceOnUse">
<stop stop-color="#DFC400"/>
<stop offset="1" stop-color="#DF8900"/>
</linearGradient>
<linearGradient id="paint9_linear_565_5438" x1="33.8347" y1="20.0017" x2="9.63772" y2="20.0017" gradientUnits="userSpaceOnUse">
<stop stop-color="#FFE83F"/>
<stop offset="1" stop-color="#FFB53F"/>
</linearGradient>
<linearGradient id="paint10_linear_565_5438" x1="21.7994" y1="8.70951" x2="5.01696" y2="-8.07296" gradientUnits="userSpaceOnUse">
<stop stop-color="#3FB8FF"/>
<stop offset="1" stop-color="#3FE9FF"/>
</linearGradient>
<linearGradient id="paint11_linear_565_5438" x1="7.2969" y1="0.175824" x2="17.4594" y2="-9.98671" gradientUnits="userSpaceOnUse">
<stop stop-color="#64B895"/>
<stop offset="1" stop-color="#3FF497"/>
</linearGradient>
<clipPath id="clip0_565_5438">
<rect width="135" height="40" fill="white"/>
</clipPath>
</defs>
</svg>
