<svg width="120" height="40" viewBox="0 0 120 40" fill="none" xmlns="http://www.w3.org/2000/svg">
<g clip-path="url(#clip0_565_5434)">
<path d="M110.135 0.00013H9.53468C9.16798 0.00013 8.80568 0.00013 8.43995 0.00213C8.1338 0.00413 7.83009 0.00994 7.521 0.01483C6.84951 0.0227318 6.17961 0.0818063 5.5171 0.19154C4.85552 0.303663 4.21467 0.515046 3.61622 0.81854C3.0185 1.1246 2.47235 1.5223 1.99757 1.9972C1.5203 2.47077 1.12246 3.01815 0.81935 3.61829C0.5154 4.21724 0.304641 4.85907 0.19435 5.52161C0.0830109 6.18332 0.0230984 6.85265 0.01515 7.52361C0.00587 7.83021 0.00489 8.13783 0 8.44447V31.5587C0.00489 31.8692 0.00587 32.17 0.01515 32.4806C0.0231008 33.1516 0.0830134 33.8209 0.19435 34.4825C0.304336 35.1455 0.515108 35.7877 0.81935 36.3868C1.12233 36.985 1.52022 37.5302 1.99757 38.0011C2.47054 38.4781 3.01705 38.8761 3.61622 39.1798C4.21467 39.4841 4.85545 39.6968 5.5171 39.8106C6.17972 39.9195 6.84956 39.9786 7.521 39.9874C7.83009 39.9942 8.1338 39.9981 8.43995 39.9981C8.80567 40.0001 9.168 40.0001 9.53468 40.0001H110.135C110.494 40.0001 110.859 40.0001 111.219 39.9981C111.523 39.9981 111.836 39.9942 112.141 39.9874C112.811 39.9791 113.479 39.92 114.141 39.8106C114.804 39.696 115.448 39.4834 116.049 39.1798C116.647 38.8759 117.193 38.478 117.666 38.0011C118.142 37.5284 118.541 36.9836 118.848 36.3868C119.15 35.7872 119.358 35.1451 119.467 34.4825C119.578 33.8208 119.64 33.1516 119.652 32.4806C119.656 32.17 119.656 31.8692 119.656 31.5587C119.664 31.1954 119.664 30.8341 119.664 30.4649V9.53626C119.664 9.17005 119.664 8.80677 119.656 8.44447C119.656 8.13783 119.656 7.83021 119.652 7.52357C119.64 6.85255 119.578 6.18337 119.467 5.52157C119.358 4.85941 119.149 4.21763 118.848 3.61825C118.23 2.41533 117.252 1.43616 116.049 0.81845C115.448 0.515697 114.804 0.30437 114.141 0.19145C113.48 0.0812328 112.811 0.0221378 112.141 0.01469C111.836 0.00981 111.523 0.00395 111.219 0.002C110.859 0 110.494 0 110.135 0V0.00013Z" fill="#A6A6A6"/>
<path d="M8.44487 39.125C8.14019 39.125 7.84287 39.1211 7.54058 39.1143C6.91436 39.1061 6.2896 39.0516 5.67144 38.9512C5.09503 38.8519 4.53664 38.6673 4.0147 38.4033C3.49754 38.1415 3.02585 37.7983 2.6177 37.3867C2.20364 36.98 1.85891 36.5082 1.59719 35.9902C1.33258 35.4688 1.14945 34.9099 1.05419 34.333C0.951311 33.7131 0.895651 33.0863 0.887687 32.458C0.881347 32.2471 0.873047 31.5449 0.873047 31.5449V8.44434C0.873047 8.44434 0.881887 7.75293 0.887737 7.5498C0.895363 6.92248 0.950699 6.29665 1.05327 5.67773C1.14871 5.09925 1.33197 4.53875 1.59673 4.01563C1.85749 3.49794 2.2003 3.02586 2.61187 2.61768C3.02297 2.20562 3.49617 1.8606 4.01421 1.59521C4.53495 1.33209 5.09228 1.14873 5.66753 1.05127C6.28772 0.949836 6.91465 0.894996 7.54304 0.88721L8.44536 0.875H111.214L112.127 0.8877C112.75 0.895099 113.371 0.94945 113.985 1.05029C114.566 1.14898 115.13 1.33362 115.656 1.59814C116.694 2.13299 117.539 2.97916 118.071 4.01807C118.332 4.53758 118.512 5.09351 118.607 5.66699C118.71 6.29099 118.768 6.92174 118.78 7.5542C118.783 7.8374 118.783 8.1416 118.783 8.44434C118.791 8.81934 118.791 9.17627 118.791 9.53613V30.4648C118.791 30.8281 118.791 31.1826 118.783 31.54C118.783 31.8652 118.783 32.1631 118.779 32.4697C118.768 33.0909 118.711 33.7104 118.608 34.3232C118.515 34.9043 118.333 35.4675 118.068 35.9932C117.805 36.5056 117.462 36.9733 117.053 37.3789C116.644 37.7927 116.172 38.1379 115.653 38.4014C115.128 38.6674 114.566 38.8527 113.985 38.9512C113.367 39.0522 112.742 39.1067 112.116 39.1143C111.823 39.1211 111.517 39.125 111.219 39.125L110.135 39.127L8.44487 39.125Z" fill="black"/>
<path d="M24.769 20.3011C24.7797 19.4665 25.0014 18.6481 25.4135 17.9221C25.8255 17.1962 26.4145 16.5862 27.1256 16.1491C26.6738 15.5039 26.0779 14.973 25.385 14.5984C24.6922 14.2238 23.9216 14.016 23.1344 13.9914C21.4552 13.8151 19.8272 14.9962 18.9715 14.9962C18.0992 14.9962 16.7817 14.0089 15.363 14.0381C14.4453 14.0677 13.551 14.3346 12.7671 14.8126C11.9832 15.2907 11.3365 15.9636 10.8901 16.7659C8.95607 20.1144 10.3987 25.0354 12.2513 27.742C13.1782 29.0674 14.2615 30.5478 15.6789 30.4953C17.066 30.4378 17.584 29.6108 19.2583 29.6108C20.9171 29.6108 21.4031 30.4953 22.8493 30.4619C24.3377 30.4378 25.2754 29.1307 26.1698 27.7928C26.8358 26.8484 27.3483 25.8047 27.6882 24.7003C26.8235 24.3346 26.0856 23.7224 25.5665 22.9401C25.0474 22.1578 24.77 21.24 24.769 20.3011ZM22.0374 12.2113C22.8489 11.2371 23.2487 9.98494 23.1519 8.7207C21.9121 8.85092 20.7668 9.44348 19.9443 10.3803C19.5422 10.838 19.2342 11.3704 19.0379 11.9472C18.8417 12.524 18.761 13.1337 18.8006 13.7417C19.4207 13.7481 20.0342 13.6137 20.5949 13.3486C21.1556 13.0835 21.6488 12.6946 22.0374 12.2113Z" fill="white"/>
<path d="M42.3027 27.1397H37.5693L36.4326 30.4962H34.4277L38.9111 18.0782H40.9941L45.4775 30.4962H43.4385L42.3027 27.1397ZM38.0596 25.5909H41.8116L39.962 20.1436H39.9102L38.0596 25.5909ZM55.1602 25.9698C55.1602 28.7833 53.6543 30.5909 51.3818 30.5909C50.8062 30.621 50.2337 30.4884 49.7299 30.2082C49.2261 29.9281 48.8114 29.5118 48.5332 29.0069H48.4902V33.4913H46.6318V21.4424H48.4307V22.9483H48.4648C48.7558 22.4458 49.1775 22.0316 49.6852 21.7498C50.1928 21.4679 50.7673 21.329 51.3477 21.3477C53.6455 21.3477 55.1602 23.1641 55.1602 25.9698ZM53.25 25.9698C53.25 24.1368 52.3027 22.9317 50.8574 22.9317C49.4375 22.9317 48.4824 24.1622 48.4824 25.9698C48.4824 27.794 49.4375 29.0157 50.8574 29.0157C52.3027 29.0157 53.25 27.8194 53.25 25.9698ZM65.125 25.9698C65.125 28.7833 63.6191 30.5909 61.3467 30.5909C60.771 30.621 60.1985 30.4884 59.6947 30.2082C59.1909 29.9281 58.7762 29.5118 58.498 29.0069H58.455V33.4913H56.5966V21.4424H58.3955V22.9483H58.4296C58.7206 22.4458 59.1423 22.0316 59.65 21.7498C60.1576 21.468 60.7321 21.329 61.3125 21.3477C63.6103 21.3477 65.125 23.1641 65.125 25.9698ZM63.2148 25.9698C63.2148 24.1368 62.2676 22.9317 60.8223 22.9317C59.4023 22.9317 58.4473 24.1622 58.4473 25.9698C58.4473 27.794 59.4023 29.0157 60.8223 29.0157C62.2676 29.0157 63.2148 27.8194 63.2148 25.9698H63.2148ZM71.7109 27.0362C71.8486 28.2676 73.0449 29.0762 74.6797 29.0762C76.2461 29.0762 77.373 28.2676 77.373 27.1572C77.373 26.1934 76.6934 25.6162 75.084 25.2207L73.4746 24.833C71.1943 24.2822 70.1357 23.2158 70.1357 21.4854C70.1357 19.3428 72.0029 17.8711 74.6543 17.8711C77.2783 17.8711 79.0771 19.3428 79.1377 21.4854H77.2617C77.1494 20.2461 76.125 19.4981 74.6279 19.4981C73.1308 19.4981 72.1064 20.2549 72.1064 21.3565C72.1064 22.2344 72.7607 22.751 74.3613 23.1465L75.7295 23.4824C78.2773 24.0849 79.3359 25.1084 79.3359 26.9248C79.3359 29.248 77.4853 30.7031 74.542 30.7031C71.7881 30.7031 69.9287 29.2822 69.8086 27.0361L71.7109 27.0362ZM83.3467 19.2999V21.4424H85.0684V22.9141H83.3467V27.9053C83.3467 28.6807 83.6914 29.042 84.4482 29.042C84.6526 29.0385 84.8567 29.0241 85.0596 28.999V30.4619C84.7193 30.5255 84.3734 30.5543 84.0273 30.5479C82.1943 30.5479 81.4795 29.8594 81.4795 28.1035V22.9141H80.1631V21.4424H81.4795V19.2999H83.3467ZM86.0655 25.9698C86.0655 23.1212 87.7432 21.3311 90.3594 21.3311C92.9844 21.3311 94.6543 23.1211 94.6543 25.9698C94.6543 28.8262 92.9932 30.6085 90.3594 30.6085C87.7266 30.6085 86.0655 28.8262 86.0655 25.9698ZM92.7608 25.9698C92.7608 24.0157 91.8653 22.8624 90.3594 22.8624C88.8535 22.8624 87.959 24.0245 87.959 25.9698C87.959 27.9317 88.8535 29.0762 90.3594 29.0762C91.8653 29.0762 92.7607 27.9317 92.7607 25.9698H92.7608ZM96.1865 21.4424H97.959V22.9834H98.002C98.1219 22.5021 98.4039 22.0768 98.8004 21.7789C99.197 21.481 99.6841 21.3288 100.18 21.3477C100.394 21.3469 100.607 21.3702 100.816 21.417V23.1553C100.546 23.0727 100.264 23.0348 99.9814 23.043C99.7115 23.0321 99.4423 23.0797 99.1925 23.1825C98.9426 23.2854 98.718 23.4412 98.534 23.6391C98.3501 23.8369 98.2111 24.0723 98.1267 24.329C98.0422 24.5856 98.0143 24.8575 98.0449 25.126V30.4961H96.1865L96.1865 21.4424ZM109.385 27.837C109.135 29.4805 107.534 30.6084 105.486 30.6084C102.853 30.6084 101.218 28.8438 101.218 26.0127C101.218 23.1729 102.861 21.3311 105.408 21.3311C107.913 21.3311 109.488 23.0518 109.488 25.7969V26.4336H103.094V26.5459C103.064 26.8791 103.106 27.2148 103.216 27.5307C103.326 27.8465 103.502 28.1353 103.733 28.3778C103.963 28.6204 104.242 28.8111 104.552 28.9374C104.862 29.0637 105.195 29.1227 105.529 29.1104C105.968 29.1515 106.409 29.0498 106.786 28.8204C107.163 28.591 107.455 28.246 107.62 27.837L109.385 27.837ZM103.103 25.1348H107.629C107.646 24.8352 107.6 24.5354 107.495 24.2542C107.391 23.973 107.229 23.7165 107.021 23.5007C106.812 23.2849 106.561 23.1146 106.284 23.0004C106.006 22.8861 105.708 22.8305 105.408 22.837C105.106 22.8352 104.806 22.8933 104.526 23.008C104.245 23.1228 103.991 23.2919 103.777 23.5055C103.562 23.7191 103.392 23.9731 103.277 24.2527C103.161 24.5324 103.102 24.8322 103.103 25.1348V25.1348Z" fill="white"/>
<path d="M37.8262 8.73052C38.2158 8.70256 38.6067 8.76142 38.9709 8.90286C39.335 9.04429 39.6632 9.26477 39.9317 9.5484C40.2003 9.83202 40.4026 10.1717 40.524 10.543C40.6454 10.9143 40.6829 11.3078 40.6338 11.6954C40.6338 13.6016 39.6035 14.6974 37.8262 14.6974H35.6709V8.73052H37.8262ZM36.5976 13.8535H37.7226C38.0011 13.8702 38.2797 13.8245 38.5382 13.7199C38.7967 13.6153 39.0287 13.4543 39.2172 13.2488C39.4057 13.0432 39.546 12.7982 39.6278 12.5316C39.7097 12.265 39.7311 11.9834 39.6904 11.7075C39.7281 11.4327 39.7046 11.1529 39.6215 10.8883C39.5383 10.6236 39.3977 10.3806 39.2096 10.1767C39.0216 9.97273 38.7907 9.81292 38.5337 9.70868C38.2766 9.60445 37.9996 9.55836 37.7226 9.57373H36.5976V13.8535ZM41.6807 12.4439C41.6523 12.1479 41.6862 11.8494 41.78 11.5673C41.8739 11.2852 42.0256 11.0259 42.2256 10.8059C42.4255 10.5859 42.6692 10.4102 42.9411 10.2899C43.2129 10.1696 43.5069 10.1075 43.8042 10.1075C44.1015 10.1075 44.3955 10.1696 44.6673 10.2899C44.9392 10.4102 45.1829 10.5859 45.3828 10.8059C45.5827 11.0259 45.7345 11.2852 45.8283 11.5673C45.9222 11.8494 45.956 12.1479 45.9277 12.4439C45.9566 12.7401 45.9231 13.0391 45.8295 13.3216C45.7359 13.6041 45.5843 13.8639 45.3843 14.0843C45.1843 14.3048 44.9404 14.4809 44.6683 14.6014C44.3961 14.722 44.1018 14.7842 43.8042 14.7842C43.5066 14.7842 43.2122 14.722 42.9401 14.6014C42.668 14.4809 42.4241 14.3048 42.2241 14.0843C42.0241 13.8639 41.8724 13.6041 41.7789 13.3216C41.6853 13.0391 41.6518 12.7401 41.6807 12.4439ZM45.0137 12.4439C45.0137 11.4678 44.5752 10.897 43.8057 10.897C43.0332 10.897 42.5987 11.4678 42.5987 12.4439C42.5987 13.4278 43.0332 13.9942 43.8057 13.9942C44.5752 13.9942 45.0137 13.4238 45.0137 12.4439H45.0137ZM51.5732 14.6973H50.6514L49.7207 11.3809H49.6504L48.7236 14.6973H47.8105L46.5693 10.1943H47.4707L48.2773 13.6303H48.3438L49.2695 10.1943H50.1221L51.0479 13.6303H51.1182L51.9209 10.1943H52.8096L51.5732 14.6973ZM53.8535 10.1943H54.709V10.9097H54.7754C54.888 10.6528 55.078 10.4374 55.3189 10.2936C55.5598 10.1498 55.8395 10.0847 56.1191 10.1074C56.3382 10.0909 56.5582 10.124 56.7628 10.2041C56.9674 10.2842 57.1514 10.4093 57.3011 10.5701C57.4508 10.731 57.5623 10.9234 57.6275 11.1333C57.6927 11.3431 57.7099 11.5649 57.6777 11.7822V14.6972H56.7891V12.0054C56.7891 11.2818 56.4746 10.9219 55.8174 10.9219C55.6686 10.915 55.5201 10.9403 55.3821 10.9961C55.244 11.0519 55.1197 11.137 55.0175 11.2453C54.9154 11.3537 54.8379 11.4829 54.7904 11.624C54.7429 11.7652 54.7264 11.9149 54.7422 12.063V14.6973H53.8535L53.8535 10.1943ZM59.0937 8.43652H59.9824V14.6973H59.0937V8.43652ZM61.2178 12.4439C61.1895 12.1479 61.2234 11.8493 61.3172 11.5673C61.4111 11.2852 61.5629 11.0258 61.7628 10.8058C61.9628 10.5859 62.2065 10.4101 62.4784 10.2898C62.7503 10.1695 63.0443 10.1074 63.3415 10.1074C63.6388 10.1074 63.9328 10.1695 64.2047 10.2898C64.4766 10.4101 64.7203 10.5859 64.9203 10.8058C65.1202 11.0258 65.272 11.2852 65.3659 11.5673C65.4597 11.8493 65.4936 12.1479 65.4653 12.4439C65.4941 12.7401 65.4607 13.0391 65.367 13.3216C65.2734 13.6041 65.1217 13.8639 64.9217 14.0843C64.7217 14.3048 64.4778 14.4809 64.2057 14.6014C63.9335 14.7219 63.6392 14.7842 63.3415 14.7842C63.0439 14.7842 62.7496 14.7219 62.4774 14.6014C62.2053 14.4809 61.9614 14.3048 61.7614 14.0843C61.5614 13.8639 61.4097 13.6041 61.3161 13.3216C61.2224 13.0391 61.189 12.7401 61.2178 12.4439ZM64.5508 12.4439C64.5508 11.4678 64.1123 10.897 63.3428 10.897C62.5703 10.897 62.1358 11.4678 62.1358 12.4439C62.1358 13.4278 62.5703 13.9942 63.3428 13.9942C64.1123 13.9942 64.5508 13.4238 64.5508 12.4439H64.5508ZM66.4009 13.4238C66.4009 12.6133 67.0044 12.146 68.0757 12.0796L69.2954 12.0093V11.6206C69.2954 11.145 68.981 10.8765 68.3735 10.8765C67.8774 10.8765 67.5337 11.0586 67.4351 11.377H66.5747C66.6655 10.6035 67.3931 10.1074 68.4146 10.1074C69.5435 10.1074 70.1802 10.6694 70.1802 11.6206V14.6973H69.3247V14.0645H69.2544C69.1117 14.2915 68.9113 14.4765 68.6737 14.6007C68.436 14.7249 68.1697 14.7839 67.9019 14.7715C67.7128 14.7911 67.5218 14.771 67.341 14.7123C67.1602 14.6536 66.9938 14.5576 66.8524 14.4307C66.711 14.3037 66.5977 14.1485 66.52 13.9751C66.4422 13.8017 66.4016 13.6139 66.4009 13.4238ZM69.2954 13.0391V12.6626L68.1958 12.7329C67.5757 12.7744 67.2944 12.9854 67.2944 13.3823C67.2944 13.7876 67.646 14.0234 68.1294 14.0234C68.2711 14.0378 68.4142 14.0235 68.5502 13.9814C68.6862 13.9393 68.8123 13.8703 68.9211 13.7784C69.0299 13.6866 69.1191 13.5738 69.1834 13.4468C69.2477 13.3198 69.2858 13.1811 69.2954 13.0391ZM71.3481 12.4439C71.3481 11.021 72.0796 10.1196 73.2173 10.1196C73.4987 10.1067 73.778 10.1741 74.0225 10.314C74.267 10.4539 74.4667 10.6605 74.5981 10.9096H74.6646V8.43652H75.5532V14.6973H74.7017V13.9858H74.6313C74.4897 14.2333 74.2831 14.4374 74.0339 14.5758C73.7846 14.7143 73.5022 14.782 73.2173 14.7715C72.0718 14.7715 71.3481 13.8701 71.3481 12.4439ZM72.2661 12.4439C72.2661 13.3989 72.7163 13.9737 73.4693 13.9737C74.2183 13.9737 74.6812 13.3907 74.6812 12.4478C74.6812 11.5093 74.2134 10.918 73.4693 10.918C72.7212 10.918 72.2661 11.4966 72.2661 12.4439H72.2661ZM79.23 12.4439C79.2017 12.1479 79.2355 11.8494 79.3294 11.5673C79.4232 11.2852 79.575 11.0259 79.7749 10.8059C79.9748 10.5859 80.2186 10.4102 80.4904 10.2899C80.7623 10.1696 81.0562 10.1075 81.3535 10.1075C81.6508 10.1075 81.9448 10.1696 82.2166 10.2899C82.4885 10.4102 82.7322 10.5859 82.9321 10.8059C83.1321 11.0259 83.2838 11.2852 83.3777 11.5673C83.4715 11.8494 83.5054 12.1479 83.4771 12.4439C83.5059 12.7401 83.4724 13.0391 83.3789 13.3216C83.2853 13.6041 83.1336 13.8639 82.9336 14.0843C82.7336 14.3048 82.4897 14.4809 82.2176 14.6014C81.9455 14.722 81.6511 14.7842 81.3535 14.7842C81.0559 14.7842 80.7616 14.722 80.4894 14.6014C80.2173 14.4809 79.9734 14.3048 79.7734 14.0843C79.5734 13.8639 79.4218 13.6041 79.3282 13.3216C79.2346 13.0391 79.2011 12.7401 79.23 12.4439ZM82.563 12.4439C82.563 11.4678 82.1245 10.897 81.355 10.897C80.5825 10.897 80.148 11.4678 80.148 12.4439C80.148 13.4278 80.5826 13.9942 81.355 13.9942C82.1245 13.9942 82.563 13.4238 82.563 12.4439ZM84.6694 10.1943H85.5249V10.9097H85.5913C85.704 10.6528 85.894 10.4374 86.1348 10.2936C86.3757 10.1498 86.6554 10.0847 86.9351 10.1074C87.1542 10.0909 87.3742 10.124 87.5788 10.2041C87.7833 10.2842 87.9673 10.4093 88.117 10.5701C88.2667 10.731 88.3783 10.9234 88.4435 11.1333C88.5087 11.3431 88.5258 11.5649 88.4936 11.7822V14.6972H87.605V12.0054C87.605 11.2818 87.2905 10.9219 86.6333 10.9219C86.4845 10.915 86.336 10.9403 86.198 10.9961C86.0599 11.0519 85.9356 11.137 85.8335 11.2453C85.7313 11.3537 85.6538 11.4829 85.6063 11.624C85.5588 11.7652 85.5423 11.9149 85.5581 12.063V14.6973H84.6694V10.1943ZM93.5151 9.07325V10.2149H94.4907V10.9634H93.5151V13.2788C93.5151 13.7505 93.7095 13.957 94.1519 13.957C94.2651 13.9567 94.3783 13.9498 94.4907 13.9365V14.6768C94.3311 14.7053 94.1694 14.7205 94.0073 14.7222C93.019 14.7222 92.6255 14.3745 92.6255 13.5064V10.9634H91.9106V10.2148H92.6255V9.07325H93.5151ZM95.7046 8.43652H96.5854V10.918H96.6558C96.7739 10.6587 96.9691 10.4421 97.2148 10.2977C97.4605 10.1534 97.7447 10.0883 98.0288 10.1113C98.2467 10.0995 98.4646 10.1359 98.6669 10.2179C98.8692 10.2999 99.0508 10.4256 99.199 10.586C99.3471 10.7463 99.458 10.9373 99.5238 11.1455C99.5896 11.3536 99.6086 11.5737 99.5795 11.79V14.6973H98.69V12.0093C98.69 11.29 98.355 10.9258 97.7271 10.9258C97.5743 10.9132 97.4207 10.9342 97.2769 10.9873C97.1332 11.0404 97.0027 11.1242 96.8947 11.2329C96.7867 11.3417 96.7038 11.4727 96.6517 11.6168C96.5997 11.761 96.5797 11.9147 96.5933 12.0674V14.6973H95.7046L95.7046 8.43652ZM104.761 13.4815C104.64 13.893 104.379 14.249 104.022 14.4871C103.666 14.7253 103.236 14.8304 102.81 14.7842C102.513 14.792 102.219 14.7352 101.946 14.6177C101.674 14.5001 101.43 14.3247 101.232 14.1036C101.034 13.8824 100.887 13.6209 100.8 13.3371C100.713 13.0532 100.689 12.754 100.73 12.46C100.69 12.1651 100.715 11.8652 100.801 11.5805C100.888 11.2958 101.034 11.033 101.231 10.81C101.428 10.5869 101.671 10.4087 101.942 10.2875C102.214 10.1663 102.509 10.1049 102.806 10.1074C104.059 10.1074 104.815 10.9634 104.815 12.3774V12.6875H101.635V12.7373C101.621 12.9026 101.642 13.0689 101.696 13.2256C101.75 13.3824 101.837 13.5261 101.95 13.6476C102.062 13.769 102.199 13.8655 102.352 13.9309C102.504 13.9963 102.669 14.0292 102.834 14.0273C103.047 14.0528 103.262 14.0146 103.453 13.9174C103.644 13.8202 103.801 13.6684 103.906 13.4814L104.761 13.4815ZM101.635 12.0303H103.91C103.921 11.8792 103.9 11.7274 103.849 11.5846C103.798 11.4419 103.718 11.3114 103.614 11.2016C103.509 11.0917 103.383 11.0049 103.243 10.9467C103.103 10.8886 102.953 10.8603 102.801 10.8638C102.648 10.8619 102.495 10.8907 102.353 10.9487C102.21 11.0066 102.081 11.0925 101.972 11.2012C101.864 11.3099 101.778 11.4393 101.72 11.5816C101.662 11.724 101.633 11.8766 101.635 12.0303H101.635Z" fill="white"/>
</g>
<defs>
<clipPath id="clip0_565_5434">
<rect width="119.664" height="40" fill="white"/>
</clipPath>
</defs>
</svg>
