<svg width="127" height="40" viewBox="0 0 127 40" fill="none" xmlns="http://www.w3.org/2000/svg">
<g clip-path="url(#clip0_565_5435)">
<path d="M116.978 0.00013H9.53468C9.16798 0.00013 8.80568 0.00013 8.43995 0.00213C8.1338 0.00413 7.83009 0.00994 7.521 0.01483C6.84951 0.0227318 6.17961 0.0818063 5.5171 0.19154C4.85552 0.303663 4.21467 0.515046 3.61622 0.81854C3.0185 1.1246 2.47235 1.5223 1.99757 1.9972C1.5203 2.47077 1.12246 3.01815 0.81935 3.61829C0.5154 4.21724 0.304641 4.85907 0.19435 5.52161C0.0830109 6.18332 0.0230984 6.85265 0.01515 7.52361C0.00587 7.83021 0.00489 8.13783 0 8.44447V31.5587C0.00489 31.8692 0.00587 32.17 0.01515 32.4806C0.0231008 33.1516 0.0830134 33.8209 0.19435 34.4825C0.304336 35.1455 0.515108 35.7877 0.81935 36.3868C1.12233 36.985 1.52022 37.5302 1.99757 38.0011C2.47054 38.4781 3.01705 38.8761 3.61622 39.1798C4.21467 39.4841 4.85545 39.6968 5.5171 39.8106C6.17972 39.9195 6.84956 39.9786 7.521 39.9874C7.83009 39.9942 8.1338 39.9981 8.43995 39.9981C8.80567 40.0001 9.168 40.0001 9.53468 40.0001H116.978C117.338 40.0001 117.703 40.0001 118.062 39.9981C118.367 39.9981 118.679 39.9942 118.984 39.9874C119.654 39.9791 120.323 39.92 120.984 39.8106C121.648 39.696 122.291 39.4834 122.892 39.1798C123.491 38.8759 124.037 38.478 124.51 38.0011C124.986 37.5284 125.384 36.9836 125.691 36.3868C125.993 35.7872 126.202 35.1451 126.31 34.4825C126.422 33.8208 126.484 33.1516 126.496 32.4806C126.5 32.17 126.5 31.8692 126.5 31.5587C126.508 31.1954 126.508 30.8341 126.508 30.4649V9.53626C126.508 9.17005 126.508 8.80677 126.5 8.44447C126.5 8.13783 126.5 7.83021 126.496 7.52357C126.484 6.85255 126.422 6.18337 126.31 5.52157C126.202 4.85941 125.993 4.21763 125.691 3.61825C125.074 2.41533 124.095 1.43616 122.892 0.81845C122.291 0.515697 121.648 0.30437 120.984 0.19145C120.323 0.0812328 119.654 0.0221378 118.984 0.01469C118.679 0.00981 118.367 0.00395 118.062 0.002C117.703 0 117.338 0 116.978 0V0.00013Z" fill="#A6A6A6"/>
<path d="M8.44486 39.125C8.14019 39.125 7.84286 39.1211 7.54058 39.1143C6.91436 39.1061 6.2896 39.0516 5.67144 38.9512C5.09503 38.8519 4.53664 38.6673 4.0147 38.4033C3.49754 38.1415 3.02585 37.7983 2.6177 37.3867C2.20364 36.98 1.85891 36.5082 1.59719 35.9902C1.33258 35.4688 1.14945 34.9099 1.05419 34.333C0.951311 33.7131 0.895651 33.0863 0.887687 32.458C0.881347 32.2471 0.873047 31.5449 0.873047 31.5449V8.44434C0.873047 8.44434 0.881887 7.75293 0.887737 7.5498C0.895363 6.92248 0.950696 6.29665 1.05326 5.67773C1.1487 5.09925 1.33197 4.53875 1.59673 4.01563C1.85749 3.49795 2.2003 3.02586 2.61186 2.61768C3.02296 2.20562 3.49617 1.86061 4.01421 1.59521C4.53495 1.33209 5.09228 1.14873 5.66753 1.05127C6.28772 0.949836 6.91465 0.894996 7.54304 0.88721L8.44536 0.875H118.057L118.97 0.8877C119.593 0.895099 120.214 0.94945 120.829 1.05029C121.41 1.14898 121.973 1.33362 122.5 1.59814C123.538 2.13299 124.382 2.97916 124.915 4.01807C125.175 4.53758 125.356 5.09351 125.45 5.66699C125.554 6.29099 125.612 6.92174 125.624 7.5542C125.627 7.8374 125.627 8.1416 125.627 8.44434C125.635 8.81934 125.635 9.17627 125.635 9.53613V30.4648C125.635 30.8281 125.635 31.1826 125.627 31.54C125.627 31.8652 125.627 32.1631 125.623 32.4697C125.611 33.0909 125.554 33.7104 125.452 34.3232C125.359 34.9043 125.176 35.4675 124.912 35.9932C124.648 36.5056 124.306 36.9733 123.896 37.3789C123.488 37.7927 123.015 38.1379 122.497 38.4014C121.972 38.6674 121.409 38.8527 120.829 38.9512C120.211 39.0522 119.586 39.1067 118.96 39.1143C118.667 39.1211 118.36 39.125 118.062 39.125L116.978 39.127L8.44486 39.125Z" fill="black"/>
<path d="M24.7719 20.3011C24.7827 19.4665 25.0044 18.6481 25.4164 17.9221C25.8284 17.1962 26.4174 16.5862 27.1285 16.1491C26.6767 15.5039 26.0808 14.973 25.388 14.5984C24.6951 14.2238 23.9245 14.016 23.1373 13.9914C21.4581 13.8151 19.8301 14.9962 18.9744 14.9962C18.1022 14.9962 16.7847 14.0089 15.3659 14.0381C14.4482 14.0677 13.5539 14.3346 12.77 14.8126C11.9861 15.2907 11.3395 15.9636 10.893 16.7659C8.959 20.1144 10.4016 25.0354 12.2542 27.742C13.1811 29.0674 14.2644 30.5478 15.6818 30.4953C17.0689 30.4378 17.5869 29.6108 19.2612 29.6108C20.92 29.6108 21.406 30.4953 22.8522 30.4619C24.3406 30.4378 25.2784 29.1307 26.1727 27.7928C26.8387 26.8484 27.3512 25.8047 27.6911 24.7003C26.8264 24.3345 26.0885 23.7224 25.5694 22.9401C25.0503 22.1578 24.7729 21.24 24.7719 20.3011ZM22.0403 12.2113C22.8518 11.2371 23.2516 9.98494 23.1548 8.7207C21.915 8.85092 20.7697 9.44348 19.9472 10.3803C19.5451 10.838 19.2371 11.3704 19.0408 11.9472C18.8446 12.524 18.764 13.1337 18.8035 13.7417C19.4237 13.7481 20.0372 13.6137 20.5978 13.3486C21.1585 13.0835 21.6517 12.6946 22.0403 12.2113Z" fill="white"/>
<path d="M35.6553 14.7017V9.57813H33.7783V8.73486H38.4551V9.57812H36.582V14.7017H35.6553ZM42.7647 13.4858C42.644 13.8974 42.3824 14.2534 42.0257 14.4915C41.669 14.7297 41.2399 14.8348 40.8135 14.7886C40.5169 14.7964 40.2221 14.7396 39.9496 14.622C39.677 14.5045 39.4334 14.3291 39.2355 14.108C39.0376 13.8868 38.8902 13.6253 38.8035 13.3414C38.7168 13.0576 38.6929 12.7583 38.7335 12.4643C38.6939 12.1695 38.7183 11.8695 38.8047 11.5849C38.8912 11.3002 39.0379 11.0374 39.2347 10.8143C39.4316 10.5913 39.6741 10.4131 39.9458 10.2919C40.2175 10.1707 40.5121 10.1093 40.8096 10.1118C42.0626 10.1118 42.8184 10.9678 42.8184 12.3818V12.6919H39.6387V12.7417C39.6248 12.9069 39.6456 13.0732 39.6997 13.23C39.7538 13.3867 39.8401 13.5305 39.953 13.6519C40.0659 13.7734 40.203 13.8699 40.3554 13.9353C40.5077 14.0007 40.6721 14.0335 40.8379 14.0317C41.0505 14.0572 41.2659 14.0189 41.4566 13.9217C41.6474 13.8245 41.8049 13.6728 41.9092 13.4858L42.7647 13.4858ZM39.6387 12.0347H41.9131C41.9243 11.8835 41.9038 11.7317 41.8529 11.589C41.8019 11.4463 41.7216 11.3158 41.6173 11.206C41.5129 11.0961 41.3867 11.0093 41.2467 10.9511C41.1068 10.893 40.9562 10.8647 40.8047 10.8682C40.651 10.8662 40.4985 10.8951 40.3561 10.953C40.2138 11.011 40.0844 11.0968 39.9758 11.2055C39.8671 11.3143 39.7813 11.4436 39.7234 11.586C39.6655 11.7284 39.6367 11.881 39.6387 12.0347H39.6387ZM40.2754 9.4458L41.3135 8.02344H42.3555L41.1934 9.4458H40.2754ZM44.0528 8.44092H44.9415V14.7017H44.0528V8.44092ZM50.208 13.4858C50.0873 13.8974 49.8257 14.2534 49.469 14.4915C49.1123 14.7297 48.6833 14.8348 48.2569 14.7886C47.9602 14.7964 47.6654 14.7396 47.3929 14.622C47.1204 14.5045 46.8767 14.3291 46.6788 14.108C46.4809 13.8868 46.3335 13.6253 46.2468 13.3414C46.1601 13.0576 46.1362 12.7583 46.1768 12.4643C46.1373 12.1695 46.1616 11.8695 46.2481 11.5849C46.3346 11.3002 46.4812 11.0374 46.6781 10.8143C46.8749 10.5913 47.1174 10.4131 47.3892 10.2919C47.6609 10.1707 47.9555 10.1093 48.253 10.1118C49.5059 10.1118 50.2618 10.9678 50.2618 12.3818V12.6919H47.082V12.7417C47.0681 12.9069 47.0889 13.0732 47.143 13.23C47.1971 13.3867 47.2834 13.5305 47.3963 13.6519C47.5092 13.7734 47.6463 13.8699 47.7987 13.9353C47.9511 14.0007 48.1154 14.0335 48.2813 14.0317C48.4938 14.0572 48.7092 14.0189 48.9 13.9217C49.0907 13.8245 49.2483 13.6728 49.3526 13.4858L50.208 13.4858ZM47.082 12.0347H49.3565C49.3677 11.8835 49.3471 11.7317 49.2962 11.589C49.2452 11.4463 49.165 11.3158 49.0606 11.206C48.9562 11.0961 48.83 11.0093 48.69 10.9511C48.5501 10.893 48.3996 10.8647 48.2481 10.8682C48.0944 10.8662 47.9418 10.8951 47.7994 10.953C47.6571 11.011 47.5277 11.0968 47.4191 11.2055C47.3104 11.3143 47.2246 11.4436 47.1667 11.586C47.1088 11.7284 47.08 11.881 47.082 12.0347ZM47.7188 9.4458L48.7569 8.02344H49.7989L48.6368 9.4458H47.7188ZM54.4034 11.6704C54.3467 11.4369 54.2083 11.2314 54.0132 11.0912C53.8181 10.9509 53.5793 10.8851 53.3399 10.9058C52.5958 10.9058 52.1407 11.4761 52.1407 12.4355C52.1407 13.4116 52.5997 13.9946 53.3399 13.9946C53.5769 14.0221 53.8158 13.962 54.0117 13.8257C54.2075 13.6894 54.3468 13.4862 54.4034 13.2544H55.2676C55.2105 13.7104 54.9774 14.126 54.6182 14.4126C54.259 14.6992 53.8021 14.8341 53.3448 14.7886C53.0437 14.7981 52.7442 14.7417 52.4671 14.6234C52.1901 14.505 51.9423 14.3276 51.741 14.1035C51.5397 13.8793 51.3898 13.614 51.3018 13.3259C51.2138 13.0378 51.1898 12.7339 51.2315 12.4356C51.1919 12.1394 51.2175 11.8382 51.3063 11.553C51.3952 11.2677 51.5452 11.0053 51.746 10.784C51.9468 10.5627 52.1934 10.388 52.4687 10.2719C52.744 10.1558 53.0413 10.1012 53.3399 10.1118C53.8009 10.0694 54.2603 10.2085 54.6204 10.4996C54.9804 10.7907 55.2126 11.2107 55.2676 11.6704L54.4034 11.6704ZM56.4473 8.44092H57.3282V10.9224H57.3985C57.5166 10.663 57.7118 10.4465 57.9575 10.3021C58.2032 10.1578 58.4875 10.0927 58.7715 10.1157C58.9895 10.1039 59.2073 10.1403 59.4096 10.2223C59.6119 10.3043 59.7936 10.43 59.9417 10.5904C60.0898 10.7507 60.2007 10.9417 60.2665 11.1499C60.3323 11.358 60.3513 11.5781 60.3223 11.7944V14.7017H59.4326V12.0137C59.4326 11.2944 59.0976 10.9302 58.4697 10.9302C58.317 10.9176 58.1634 10.9386 58.0196 10.9917C57.8758 11.0447 57.7454 11.1286 57.6374 11.2373C57.5294 11.346 57.4464 11.4771 57.3944 11.6212C57.3423 11.7653 57.3224 11.9191 57.3359 12.0718V14.7016H56.4473L56.4473 8.44092ZM61.4395 13.4282C61.4395 12.6177 62.043 12.1504 63.1143 12.084L64.334 12.0137V11.625C64.334 11.1494 64.0196 10.8809 63.4122 10.8809C62.9161 10.8809 62.5723 11.063 62.4737 11.3813H61.6133C61.7041 10.6079 62.4317 10.1118 63.4532 10.1118C64.5821 10.1118 65.2183 10.6738 65.2183 11.625V14.7017H64.3633V14.0688H64.293C64.1503 14.2958 63.9499 14.4809 63.7123 14.6051C63.4747 14.7293 63.2083 14.7882 62.9405 14.7758C62.7515 14.7955 62.5604 14.7753 62.3796 14.7167C62.1989 14.658 62.0324 14.562 61.891 14.4351C61.7496 14.3081 61.6363 14.1529 61.5586 13.9795C61.4808 13.8061 61.4402 13.6183 61.4395 13.4282ZM64.334 13.0434V12.667L63.2344 12.7373C62.6143 12.7788 62.3331 12.9897 62.3331 13.3867C62.3331 13.792 62.6846 14.0278 63.1681 14.0278C63.3097 14.0422 63.4528 14.0279 63.5888 13.9858C63.7248 13.9437 63.8509 13.8747 63.9597 13.7828C64.0685 13.691 64.1577 13.5782 64.222 13.4512C64.2863 13.3242 64.3244 13.1855 64.334 13.0435L64.334 13.0434ZM66.6099 10.1987H67.4654V10.8892H67.5318C67.6276 10.6495 67.7968 10.4463 68.0153 10.3088C68.2337 10.1714 68.4901 10.1067 68.7476 10.124C68.8807 10.1222 69.0136 10.1347 69.1441 10.1611V11.0381C68.981 11.0033 68.8148 10.9853 68.648 10.9844C68.5014 10.9713 68.3537 10.9889 68.2144 11.0362C68.075 11.0835 67.9471 11.1595 67.8389 11.2592C67.7306 11.3589 67.6444 11.4801 67.5858 11.6151C67.5272 11.7501 67.4975 11.8958 67.4986 12.043V14.7017H66.6099L66.6099 10.1987ZM69.9615 15.1523H70.8707C70.9459 15.479 71.3218 15.6899 71.9214 15.6899C72.6617 15.6899 73.1002 15.3384 73.1002 14.7432V13.8789H73.0337C72.8944 14.1208 72.6908 14.3195 72.4455 14.453C72.2003 14.5865 71.9229 14.6495 71.6441 14.6352C70.4947 14.6352 69.7837 13.7466 69.7837 12.3984C69.7837 11.0254 70.5025 10.124 71.6529 10.124C71.9387 10.1141 72.2218 10.1829 72.4711 10.3229C72.7205 10.4629 72.9266 10.6688 73.0669 10.918H73.1372V10.1987H73.9888V14.7387C73.9888 15.7685 73.1822 16.4218 71.9087 16.4218C70.7837 16.4219 70.0562 15.9175 69.9615 15.1523ZM73.1167 12.394C73.1167 11.497 72.6529 10.9224 71.8961 10.9224C71.1314 10.9224 70.7017 11.4971 70.7017 12.394C70.7017 13.2915 71.1314 13.8662 71.8961 13.8662C72.6578 13.8662 73.1167 13.2959 73.1167 12.394V12.394ZM79.2125 13.4858C79.0917 13.8974 78.8301 14.2534 78.4734 14.4915C78.1167 14.7297 77.6877 14.8348 77.2613 14.7886C76.9646 14.7964 76.6698 14.7396 76.3973 14.622C76.1248 14.5045 75.8811 14.3291 75.6832 14.108C75.4853 13.8868 75.3379 13.6253 75.2512 13.3414C75.1645 13.0576 75.1406 12.7583 75.1812 12.4643C75.1417 12.1695 75.166 11.8695 75.2525 11.5849C75.339 11.3002 75.4856 11.0374 75.6825 10.8143C75.8794 10.5913 76.1219 10.4131 76.3936 10.2919C76.6653 10.1707 76.9599 10.1093 77.2574 10.1118C78.5103 10.1118 79.2662 10.9678 79.2662 12.3818V12.6919H76.0865V12.7417C76.0726 12.9069 76.0933 13.0732 76.1475 13.23C76.2016 13.3867 76.2879 13.5305 76.4008 13.6519C76.5137 13.7734 76.6507 13.8699 76.8031 13.9353C76.9555 14.0007 77.1199 14.0335 77.2857 14.0317C77.4983 14.0572 77.7136 14.0189 77.9044 13.9217C78.0952 13.8245 78.2527 13.6728 78.357 13.4858L79.2125 13.4858ZM76.0865 12.0347H78.3609C78.3721 11.8835 78.3515 11.7317 78.3006 11.589C78.2496 11.4463 78.1694 11.3158 78.065 11.206C77.9606 11.0961 77.8344 11.0093 77.6944 10.9511C77.5545 10.893 77.404 10.8647 77.2525 10.8682C77.0988 10.8662 76.9462 10.8951 76.8039 10.953C76.6615 11.011 76.5322 11.0968 76.4235 11.2056C76.3148 11.3143 76.229 11.4436 76.1712 11.586C76.1133 11.7284 76.0845 11.881 76.0865 12.0347H76.0865ZM80.4595 10.1987H81.315V10.8892H81.3815C81.4772 10.6495 81.6465 10.4463 81.8649 10.3088C82.0834 10.1714 82.3398 10.1067 82.5973 10.124C82.7304 10.1222 82.8633 10.1347 82.9938 10.1611V11.0381C82.8307 11.0033 82.6644 10.9853 82.4977 10.9844C82.3511 10.9712 82.2034 10.9889 82.064 11.0362C81.9247 11.0835 81.7968 11.1595 81.6885 11.2592C81.5802 11.3588 81.494 11.4801 81.4354 11.6151C81.3768 11.7501 81.3471 11.8958 81.3482 12.043V14.7017H80.4595V10.1987ZM86.1959 12.4482C86.1959 11.0254 86.9273 10.124 88.065 10.124C88.3464 10.1111 88.6257 10.1785 88.8702 10.3183C89.1148 10.4582 89.3144 10.6648 89.4459 10.914H89.5123V8.44092H90.4009V14.7017H89.5494V13.9902H89.479C89.3374 14.2377 89.1308 14.4418 88.8816 14.5802C88.6323 14.7187 88.3499 14.7864 88.065 14.7759C86.9195 14.7759 86.1959 13.8745 86.1959 12.4482ZM87.1138 12.4482C87.1138 13.4033 87.5641 13.978 88.317 13.978C89.066 13.978 89.5289 13.395 89.5289 12.4521C89.5289 11.5137 89.0611 10.9224 88.317 10.9224C87.5689 10.9224 87.1138 11.501 87.1138 12.4482H87.1138ZM91.6021 13.4282C91.6021 12.6177 92.2056 12.1504 93.2769 12.084L94.4966 12.0137V11.625C94.4966 11.1494 94.1822 10.8809 93.5748 10.8809C93.0787 10.8809 92.7349 11.063 92.6363 11.3813H91.7759C91.8667 10.6079 92.5943 10.1118 93.6158 10.1118C94.7447 10.1118 95.3814 10.6738 95.3814 11.625V14.7017H94.5259V14.0688H94.4556C94.3129 14.2958 94.1125 14.4809 93.8749 14.6051C93.6373 14.7293 93.3709 14.7882 93.1031 14.7758C92.9141 14.7955 92.723 14.7753 92.5422 14.7166C92.3615 14.6579 92.195 14.562 92.0536 14.4351C91.9122 14.3081 91.7989 14.1529 91.7212 13.9795C91.6434 13.8061 91.6028 13.6183 91.6021 13.4282ZM94.4966 13.0434V12.667L93.397 12.7373C92.7769 12.7788 92.4957 12.9897 92.4957 13.3867C92.4957 13.792 92.8472 14.0278 93.3307 14.0278C93.4723 14.0422 93.6154 14.0278 93.7514 13.9858C93.8874 13.9437 94.0135 13.8746 94.1223 13.7828C94.2311 13.691 94.3203 13.5782 94.3846 13.4512C94.4489 13.3242 94.487 13.1855 94.4966 13.0435V13.0434ZM96.773 10.1987H97.6285V10.9141H97.6949C97.8076 10.6571 97.9976 10.4418 98.2384 10.298C98.4793 10.1542 98.7591 10.0891 99.0387 10.1118C99.2578 10.0953 99.4778 10.1284 99.6824 10.2085C99.887 10.2886 100.071 10.4137 100.221 10.5745C100.37 10.7354 100.482 10.9278 100.547 11.1376C100.612 11.3475 100.629 11.5693 100.597 11.7866V14.7016H99.7086V12.0098C99.7086 11.2861 99.3941 10.9263 98.7369 10.9263C98.5882 10.9193 98.4397 10.9447 98.3016 11.0005C98.1636 11.0563 98.0392 11.1413 97.9371 11.2497C97.8349 11.3581 97.7575 11.4873 97.7099 11.6284C97.6624 11.7696 97.646 11.9193 97.6617 12.0674V14.7017H96.773V10.1987ZM103.618 10.1118C104.63 10.1118 105.293 10.583 105.379 11.377H104.527C104.445 11.0464 104.122 10.8355 103.618 10.8355C103.122 10.8355 102.745 11.0708 102.745 11.4224C102.745 11.6914 102.972 11.8608 103.461 11.9727L104.209 12.146C105.065 12.3447 105.466 12.7129 105.466 13.3745C105.466 14.2222 104.676 14.7886 103.601 14.7886C102.53 14.7886 101.832 14.3047 101.753 13.5068H102.642C102.719 13.6967 102.857 13.8554 103.035 13.9573C103.212 14.0592 103.419 14.0985 103.622 14.0688C104.175 14.0688 104.569 13.8208 104.569 13.4609C104.569 13.1924 104.358 13.0185 103.907 12.9111L103.122 12.729C102.265 12.5264 101.869 12.1421 101.869 11.4722C101.869 10.6738 102.6 10.1118 103.618 10.1118Z" fill="white"/>
<path d="M35.1982 18.0664H37.0576V30.4849H35.1982V18.0664ZM39.2979 22.6104L40.3135 18.0664H42.1201L40.8897 22.6104H39.2979ZM49.1465 27.1284H44.4131L43.2764 30.4849H41.2715L45.7549 18.0664H47.8379L52.3213 30.4849H50.2822L49.1465 27.1284ZM44.9033 25.5796H48.6553L46.8057 20.1318H46.754L44.9033 25.5796ZM62.0029 25.9585C62.0029 28.772 60.4971 30.5796 58.2246 30.5796C57.649 30.6097 57.0765 30.4771 56.5727 30.197C56.0689 29.9168 55.6542 29.5005 55.376 28.9956H55.333V33.48H53.4746V21.4307H55.2734V22.9365H55.3076C55.5985 22.4341 56.0203 22.0199 56.5279 21.738C57.0355 21.4562 57.6101 21.3172 58.1904 21.3359C60.4883 21.3359 62.0029 23.1523 62.0029 25.9585ZM60.0928 25.9585C60.0928 24.125 59.1455 22.9199 57.7002 22.9199C56.2803 22.9199 55.3252 24.1504 55.3252 25.9585C55.3252 27.7827 56.2803 29.0044 57.7002 29.0044C59.1455 29.0044 60.0928 27.8081 60.0928 25.9585ZM71.9673 25.9585C71.9673 28.772 70.4614 30.5796 68.189 30.5796C67.6133 30.6097 67.0408 30.4771 66.537 30.197C66.0332 29.9168 65.6185 29.5005 65.3403 28.9956H65.2973V33.48H63.4395V21.4307H65.2378V22.9365H65.272C65.563 22.4341 65.9847 22.0199 66.4923 21.738C66.9999 21.4562 67.5745 21.3172 68.1548 21.3359C70.4526 21.3359 71.9673 23.1523 71.9673 25.9585ZM70.0571 25.9585C70.0571 24.125 69.1099 22.9199 67.6646 22.9199C66.2446 22.9199 65.2896 24.1504 65.2896 25.9585C65.2896 27.7827 66.2446 29.0044 67.6646 29.0044C69.1099 29.0044 70.0571 27.8081 70.0571 25.9585ZM78.5532 27.0249C78.6909 28.2564 79.8872 29.0649 81.522 29.0649C83.0884 29.0649 84.2153 28.2563 84.2153 27.146C84.2153 26.1821 83.5356 25.605 81.9263 25.2094L80.3169 24.8213C78.0366 24.2705 76.978 23.2041 76.978 21.4736C76.978 19.3311 78.8452 17.8594 81.4965 17.8594C84.1205 17.8594 85.9194 19.3311 85.9799 21.4736H84.104C83.9917 20.2344 82.9673 19.4863 81.4702 19.4863C79.9731 19.4863 78.9487 20.2432 78.9487 21.3447C78.9487 22.2227 79.603 22.7393 81.2036 23.1347L82.5718 23.4707C85.1196 24.0732 86.1782 25.0971 86.1782 26.9135C86.1782 29.2368 84.3276 30.6919 81.3843 30.6919C78.6304 30.6919 76.771 29.271 76.6509 27.0249L78.5532 27.0249ZM90.19 19.2881V21.4307H91.9117V22.9023H90.19V27.894C90.19 28.6694 90.5347 29.0308 91.2915 29.0308C91.4959 29.0272 91.7 29.0128 91.9029 28.9878V30.4507C91.5626 30.5142 91.2168 30.543 90.8707 30.5366C89.0377 30.5366 88.3228 29.8481 88.3228 28.0923V22.9023H87.0064V21.4307H88.3228V19.2881H90.19ZM92.9077 25.9585C92.9077 23.1094 94.5855 21.3194 97.2017 21.3194C99.8267 21.3194 101.497 23.1094 101.497 25.9585C101.497 28.815 99.8355 30.5972 97.2017 30.5972C94.5689 30.5972 92.9077 28.8149 92.9077 25.9585ZM99.603 25.9585C99.603 24.0039 98.7075 22.8506 97.2017 22.8506C95.6958 22.8506 94.8013 24.0127 94.8013 25.9585C94.8013 27.9204 95.6958 29.065 97.2017 29.065C98.7075 29.065 99.603 27.9204 99.603 25.9585H99.603ZM103.029 21.4307H104.801V22.9717H104.844C104.964 22.4904 105.246 22.065 105.643 21.7672C106.039 21.4693 106.526 21.317 107.022 21.3359C107.236 21.3352 107.45 21.3584 107.659 21.4053V23.1435C107.388 23.0609 107.106 23.023 106.824 23.0312C106.554 23.0203 106.285 23.0679 106.035 23.1708C105.785 23.2738 105.56 23.4295 105.376 23.6275C105.192 23.8254 105.053 24.0608 104.969 24.3176C104.884 24.5743 104.857 24.8462 104.887 25.1147V30.4848H103.029L103.029 21.4307ZM116.226 27.8257C115.976 29.4692 114.375 30.5972 112.328 30.5972C109.694 30.5972 108.059 28.8325 108.059 26.0015C108.059 23.1611 109.703 21.3193 112.25 21.3193C114.754 21.3193 116.33 23.04 116.33 25.7856V26.4224H109.935V26.5347C109.906 26.8679 109.947 27.2035 110.057 27.5194C110.168 27.8352 110.344 28.124 110.574 28.3665C110.804 28.6091 111.084 28.7999 111.394 28.9262C111.703 29.0525 112.036 29.1114 112.371 29.0991C112.81 29.1403 113.25 29.0386 113.627 28.8091C114.004 28.5797 114.296 28.2348 114.461 27.8257L116.226 27.8257ZM109.944 25.1235H114.47C114.487 24.8239 114.442 24.524 114.337 24.2428C114.232 23.9615 114.071 23.7049 113.862 23.4891C113.654 23.2733 113.403 23.1029 113.125 22.9887C112.848 22.8744 112.55 22.8187 112.25 22.8252C111.947 22.8234 111.647 22.8816 111.367 22.9963C111.087 23.1111 110.832 23.2802 110.618 23.4939C110.403 23.7076 110.233 23.9616 110.118 24.2413C110.002 24.521 109.943 24.8208 109.944 25.1235Z" fill="white"/>
</g>
<defs>
<clipPath id="clip0_565_5435">
<rect width="126.508" height="40" fill="white"/>
</clipPath>
</defs>
</svg>
