<svg width="135" height="40" viewBox="0 0 135 40" fill="none" xmlns="http://www.w3.org/2000/svg">
<g clip-path="url(#clip0_565_5437)">
<path d="M130 40H5C2.25 40 0 37.75 0 35V5C0 2.25 2.25 0 5 0H130C132.75 0 135 2.25 135 5V35C135 37.75 132.75 40 130 40Z" fill="black"/>
<path d="M130 0.000976562H5C2.25 0.000976562 0 2.25098 0 4.99998V35.001C0 37.75 2.25 40.001 5 40.001H130C132.75 40.001 135 37.75 135 35.001V4.99998C135 2.25098 132.75 0.000976562 130 0.000976562ZM130 0.799977C132.316 0.799977 134.2 2.68498 134.2 4.99998V35.001C134.2 37.316 132.316 39.201 130 39.201H5C2.684 39.201 0.8 37.316 0.8 35.001V4.99998C0.8 2.68498 2.684 0.799977 5 0.799977H130Z" fill="#A6A6A6"/>
<path d="M47.4176 10.2442C47.4176 11.0822 47.1696 11.7492 46.6726 12.2472C46.1076 12.8382 45.3726 13.1342 44.4686 13.1342C43.6026 13.1342 42.8656 12.8342 42.2606 12.2342C41.6536 11.6332 41.3516 10.8892 41.3516 10.0002C41.3516 9.11221 41.6536 8.36821 42.2606 7.76721C42.8656 7.16621 43.6026 6.86621 44.4686 6.86621C44.8976 6.86621 45.3096 6.95021 45.6996 7.11821C46.0906 7.28621 46.4036 7.50921 46.6386 7.78821L46.1106 8.31621C45.7136 7.84121 45.1666 7.60421 44.4686 7.60421C43.8366 7.60421 43.2906 7.82621 42.8296 8.27021C42.3686 8.71421 42.1386 9.29121 42.1386 10.0002C42.1386 10.7102 42.3686 11.2872 42.8296 11.7312C43.2906 12.1752 43.8366 12.3972 44.4686 12.3972C45.1386 12.3972 45.6966 12.1742 46.1446 11.7272C46.4346 11.4362 46.6026 11.0312 46.6466 10.5122H44.4686V9.79121H47.3756C47.4036 9.94821 47.4176 10.0982 47.4176 10.2442Z" fill="white"/>
<path d="M47.418 10.2436H47.318C47.317 11.0626 47.078 11.6976 46.602 12.1756L46.601 12.1766V12.1776C46.054 12.7486 45.352 13.0326 44.469 13.0336C43.626 13.0326 42.92 12.7456 42.331 12.1626C41.743 11.5786 41.453 10.8656 41.452 9.99963C41.453 9.13363 41.743 8.42163 42.331 7.83763C42.92 7.25463 43.626 6.96663 44.469 6.96563C44.885 6.96563 45.282 7.04663 45.661 7.20963C46.04 7.37263 46.339 7.58663 46.562 7.85163L46.639 7.78763L46.568 7.71663L46.041 8.24463L46.111 8.31563L46.188 8.25163C45.772 7.75263 45.189 7.50163 44.469 7.50363C43.813 7.50263 43.237 7.73663 42.761 8.19763C42.279 8.66063 42.038 9.26963 42.039 9.99963C42.038 10.7306 42.279 11.3396 42.761 11.8026C43.237 12.2636 43.813 12.4976 44.469 12.4966C45.161 12.4976 45.751 12.2626 46.215 11.7976C46.525 11.4866 46.701 11.0556 46.747 10.5196L46.757 10.4116H44.569V9.89063H47.376V9.79063L47.278 9.80863C47.305 9.95963 47.318 10.1036 47.318 10.2436H47.518C47.518 10.0916 47.504 9.93463 47.474 9.77263L47.46 9.69063H44.369V10.6116H46.647V10.5116L46.548 10.5026C46.504 11.0056 46.344 11.3846 46.074 11.6556C45.644 12.0836 45.117 12.2956 44.469 12.2966C43.86 12.2956 43.345 12.0866 42.9 11.6586C42.459 11.2326 42.24 10.6886 42.239 9.99963C42.24 9.31163 42.459 8.76763 42.9 8.34163C43.345 7.91363 43.86 7.70463 44.469 7.70363C45.145 7.70463 45.655 7.92863 46.035 8.37963L46.105 8.46363L46.709 7.85863L46.774 7.79363L46.715 7.72363C46.469 7.43063 46.142 7.19863 45.74 7.02563C45.337 6.85263 44.911 6.76563 44.469 6.76563C43.579 6.76463 42.812 7.07763 42.19 7.69563C41.566 8.31263 41.251 9.08863 41.252 9.99963C41.251 10.9106 41.566 11.6866 42.19 12.3046C42.812 12.9226 43.58 13.2346 44.469 13.2336C45.394 13.2346 46.163 12.9276 46.745 12.3156L46.673 12.2466L46.744 12.3166C47.262 11.7996 47.519 11.0996 47.518 10.2436H47.418ZM52.027 7.73763H49.295V9.63963H51.759V10.3606H49.295V12.2626H52.027V12.9996H48.524V6.99963H52.027V7.73763Z" fill="white"/>
<path d="M52.0268 7.73839V7.63839H49.1948V9.74039H51.6588V10.2614H49.1948V12.3634H51.9268V12.9004H48.6238V7.10039H51.9268V7.73839H52.0268V7.63839V7.73839H52.1268V6.90039H48.4238V13.1004H52.1268V12.1634H49.3948V10.4614H51.8588V9.54039H49.3948V7.83839H52.1268V7.73839H52.0268ZM55.2778 13.0004H54.5068V7.73839H52.8308V7.00039H56.9538V7.73839H55.2778V13.0004Z" fill="white"/>
<path d="M55.2784 13.0004V12.9004H54.6074V7.63839H52.9314V7.10039H56.8544V7.63839H55.1784V13.0004H55.2784V12.9004V13.0004H55.3784V7.83839H57.0544V6.90039H52.7314V7.83839H54.4074V13.1004H55.3784V13.0004H55.2784ZM59.9384 7.00039H60.7084V13.0004H59.9384V7.00039Z" fill="white"/>
<path d="M59.9379 13.0004H60.0379V7.10039H60.6079V12.9004H59.9379V13.0004H60.0379H59.9379V13.1004H60.8079V6.90039H59.8379V13.1004H59.9379V13.0004ZM64.1279 13.0004H63.3559V7.73839H61.6809V7.00039H65.8039V7.73839H64.1279V13.0004Z" fill="white"/>
<path d="M64.1281 13.0002V12.9002H63.4561V7.63821H61.7811V7.10021H65.7041V7.63821H64.0281V13.0002H64.1281V12.9002V13.0002H64.2281V7.83821H65.9041V6.90021H61.5811V7.83821H63.2561V13.1002H64.2281V13.0002H64.1281ZM69.7791 11.7232C70.2231 12.1722 70.7661 12.3972 71.409 12.3972C72.0511 12.3972 72.5951 12.1722 73.0391 11.7232C73.4831 11.2732 73.7061 10.6992 73.7061 10.0002C73.7061 9.30221 73.4831 8.72821 73.0391 8.27821C72.5951 7.82921 72.0511 7.60421 71.409 7.60421C70.7661 7.60421 70.2231 7.82921 69.7791 8.27821C69.3351 8.72821 69.1131 9.30221 69.1131 10.0002C69.1131 10.6992 69.3351 11.2732 69.7791 11.7232ZM73.6091 12.2252C73.0191 12.8322 72.286 13.1342 71.409 13.1342C70.5321 13.1342 69.7981 12.8322 69.2101 12.2252C68.6201 11.6192 68.326 10.8772 68.326 10.0002C68.326 9.12321 68.6201 8.38221 69.2101 7.77621C69.7981 7.16921 70.5321 6.86621 71.409 6.86621C72.281 6.86621 73.0121 7.17121 73.6051 7.78021C74.1971 8.38921 74.493 9.12921 74.493 10.0002C74.493 10.8772 74.1981 11.6192 73.6091 12.2252Z" fill="white"/>
<path d="M69.7786 11.7226L69.7076 11.7926C70.1676 12.2606 70.7426 12.4976 71.4086 12.4966C72.0746 12.4976 72.6496 12.2606 73.1096 11.7926C73.5726 11.3246 73.8066 10.7196 73.8056 9.99963C73.8066 9.28063 73.5726 8.67563 73.1096 8.20763C72.6496 7.73963 72.0746 7.50263 71.4086 7.50363C70.7426 7.50263 70.1676 7.73963 69.7076 8.20763C69.2446 8.67563 69.0116 9.28063 69.0126 9.99963C69.0116 10.7196 69.2446 11.3246 69.7076 11.7926L69.7786 11.7226L69.8496 11.6516C69.4256 11.2206 69.2136 10.6776 69.2126 9.99963C69.2136 9.32263 69.4256 8.77963 69.8496 8.34763V8.34863C70.2776 7.91663 70.7886 7.70463 71.4086 7.70363C72.0276 7.70463 72.5396 7.91663 72.9666 8.34763V8.34863C73.3926 8.77963 73.6046 9.32263 73.6056 9.99963C73.6046 10.6776 73.3926 11.2206 72.9666 11.6516C72.5396 12.0836 72.0276 12.2956 71.4086 12.2966C70.7886 12.2956 70.2776 12.0836 69.8496 11.6516L69.7786 11.7226ZM73.6086 12.2246L73.5366 12.1546C72.9636 12.7426 72.2626 13.0326 71.4086 13.0336C70.5546 13.0326 69.8526 12.7426 69.2806 12.1546L69.2776 12.1526L69.2806 12.1546C68.7086 11.5656 68.4266 10.8546 68.4256 9.99963C68.4266 9.14563 68.7086 8.43463 69.2806 7.84563C69.8526 7.25763 70.5546 6.96663 71.4086 6.96563C72.2576 6.96663 72.9566 7.25863 73.5326 7.84963C74.1076 8.44163 74.3916 9.15063 74.3926 9.99963C74.3916 10.8546 74.1076 11.5656 73.5366 12.1546L73.6806 12.2946C74.2866 11.6716 74.5936 10.8996 74.5926 9.99963C74.5936 9.10563 74.2856 8.33563 73.6766 7.70963C73.0666 7.08263 72.3036 6.76463 71.4086 6.76563C70.5086 6.76463 69.7426 7.08063 69.1376 7.70563C68.5296 8.32863 68.2246 9.10063 68.2256 9.99963C68.2246 10.8996 68.5296 11.6716 69.1376 12.2946L69.1406 12.2976L69.1376 12.2946C69.7426 12.9196 70.5086 13.2346 71.4086 13.2336C72.3086 13.2346 73.0736 12.9196 73.6806 12.2946L73.6086 12.2246ZM75.5746 12.9996V6.99963H76.5126L79.4286 11.6676H79.4616L79.4286 10.5116V6.99963H80.2006V12.9996H79.3956L76.3446 8.10663H76.3116L76.3446 9.26263V12.9996H75.5746Z" fill="white"/>
<path d="M75.575 13.0004H75.675V7.10039H76.458L79.374 11.7684H79.565L79.529 10.5104V7.10039H80.101V12.9004H79.452L76.401 8.00739H76.209L76.245 9.26539V12.9004H75.575V13.0004H75.675H75.575V13.1004H76.445V9.26239L76.412 8.10439L76.312 8.10739V8.20739H76.345V8.10739L76.26 8.16039L79.341 13.1004H80.301V6.90039H79.329V10.5134L79.362 11.6714L79.462 11.6684V11.5684H79.429V11.6684L79.514 11.6154L76.569 6.90039H75.475V13.1004H75.575V13.0004ZM106.936 30.0014H108.802V17.4994H106.936V30.0014ZM123.743 22.0024L121.604 27.4224H121.54L119.32 22.0024H117.31L120.639 29.5784L118.741 33.7914H120.688L125.818 22.0024H123.743ZM113.161 28.5804C112.549 28.5804 111.697 28.2754 111.697 27.5194C111.697 26.5544 112.759 26.1844 113.675 26.1844C114.496 26.1844 114.881 26.3614 115.38 26.6024C115.235 27.7604 114.238 28.5804 113.161 28.5804ZM113.386 21.7294C112.035 21.7294 110.636 22.3244 110.057 23.6434L111.713 24.3354C112.067 23.6434 112.726 23.4184 113.418 23.4184C114.383 23.4184 115.364 23.9974 115.38 25.0264V25.1554C115.042 24.9624 114.319 24.6724 113.434 24.6724C111.649 24.6724 109.831 25.6534 109.831 27.4874C109.831 29.1594 111.295 30.2374 112.935 30.2374C114.19 30.2374 114.881 29.6744 115.316 29.0154H115.38V29.9804H117.181V25.1874C117.181 22.9674 115.525 21.7294 113.386 21.7294ZM101.854 23.5244H99.2V19.2394H101.854C103.249 19.2394 104.041 20.3944 104.041 21.3824C104.041 22.3514 103.249 23.5244 101.854 23.5244ZM101.806 17.4994H97.335V30.0014H99.2V25.2644H101.806C103.874 25.2644 105.907 23.7674 105.907 21.3824C105.907 18.9964 103.874 17.4994 101.806 17.4994ZM77.424 28.5834C76.136 28.5834 75.056 27.5034 75.056 26.0214C75.056 24.5234 76.136 23.4284 77.424 23.4284C78.697 23.4284 79.696 24.5234 79.696 26.0214C79.696 27.5034 78.697 28.5834 77.424 28.5834ZM79.567 22.7034H79.503C79.084 22.2034 78.278 21.7524 77.263 21.7524C75.137 21.7524 73.187 23.6214 73.187 26.0214C73.187 28.4064 75.137 30.2584 77.263 30.2584C78.278 30.2584 79.084 29.8074 79.503 29.2924H79.567V29.9044C79.567 31.5314 78.697 32.4014 77.295 32.4014C76.152 32.4014 75.443 31.5794 75.153 30.8874L73.526 31.5634C73.993 32.6914 75.233 34.0774 77.295 34.0774C79.487 34.0774 81.339 32.7884 81.339 29.6464V22.0104H79.567V22.7034ZM82.628 30.0014H84.497V17.4994H82.628V30.0014ZM87.252 25.8764C87.203 24.2334 88.525 23.3954 89.475 23.3954C90.217 23.3954 90.845 23.7664 91.054 24.2984L87.252 25.8764ZM93.052 24.4594C92.698 23.5084 91.618 21.7524 89.411 21.7524C87.22 21.7524 85.399 23.4764 85.399 26.0054C85.399 28.3904 87.203 30.2584 89.62 30.2584C91.57 30.2584 92.698 29.0664 93.165 28.3734L91.715 27.4074C91.232 28.1164 90.571 28.5834 89.62 28.5834C88.669 28.5834 87.993 28.1484 87.558 27.2944L93.245 24.9424L93.052 24.4594ZM47.743 23.0574V24.8614H52.061C51.932 25.8764 51.594 26.6174 51.078 27.1334C50.45 27.7614 49.467 28.4544 47.743 28.4544C45.085 28.4544 43.007 26.3114 43.007 23.6534C43.007 20.9954 45.085 18.8524 47.743 18.8524C49.177 18.8524 50.224 19.4164 50.998 20.1414L52.27 18.8684C51.191 17.8374 49.757 17.0484 47.743 17.0484C44.102 17.0484 41.041 20.0124 41.041 23.6534C41.041 27.2944 44.102 30.2584 47.743 30.2584C49.709 30.2584 51.191 29.6144 52.351 28.4064C53.543 27.2134 53.914 25.5384 53.914 24.1854C53.914 23.7664 53.881 23.3794 53.817 23.0574H47.743ZM58.822 28.5834C57.533 28.5834 56.422 27.5204 56.422 26.0054C56.422 24.4754 57.533 23.4284 58.822 23.4284C60.111 23.4284 61.222 24.4754 61.222 26.0054C61.222 27.5204 60.111 28.5834 58.822 28.5834ZM58.822 21.7524C56.47 21.7524 54.553 23.5404 54.553 26.0054C54.553 28.4544 56.47 30.2584 58.822 30.2584C61.174 30.2584 63.091 28.4544 63.091 26.0054C63.091 23.5404 61.174 21.7524 58.822 21.7524ZM68.135 28.5834C66.847 28.5834 65.735 27.5204 65.735 26.0054C65.735 24.4754 66.847 23.4284 68.135 23.4284C69.424 23.4284 70.536 24.4754 70.536 26.0054C70.536 27.5204 69.424 28.5834 68.135 28.5834ZM68.135 21.7524C65.783 21.7524 63.866 23.5404 63.866 26.0054C63.866 28.4544 65.783 30.2584 68.135 30.2584C70.488 30.2584 72.405 28.4544 72.405 26.0054C72.405 23.5404 70.488 21.7524 68.135 21.7524Z" fill="white"/>
<path fill-rule="evenodd" clip-rule="evenodd" d="M10.5087 32.3903L10.4347 32.3193C10.1437 32.0113 9.97168 31.5333 9.97168 30.9143V31.0593V8.9383V9.0903C9.97168 8.4203 10.1727 7.9143 10.5077 7.6123L22.8977 20.0013L10.5087 32.3903ZM9.97168 8.9373C9.97168 8.88231 9.97368 8.8283 9.97568 8.7763C9.97368 8.8283 9.97168 8.88231 9.97168 8.9373ZM9.97668 8.7733V8.7713V8.7733ZM9.97668 8.7663V8.76531V8.7663Z" fill="url(#paint0_linear_565_5437)"/>
<path fill-rule="evenodd" clip-rule="evenodd" d="M27.0274 24.2791L27.1214 24.2251L32.0144 21.4451C32.4814 21.1801 32.7924 20.8591 32.9474 20.5181C32.7924 20.8591 32.4814 21.1801 32.0144 21.4461L27.1214 24.2261L27.0274 24.2791ZM27.0284 24.1321L22.8984 20.0011L27.0284 15.8711L32.0144 18.7041C32.6484 19.0631 33.0034 19.5271 33.0624 20.0011V20.0031C33.0034 20.4751 32.6484 20.9391 32.0144 21.2991L27.0284 24.1321Z" fill="url(#paint1_linear_565_5437)"/>
<path fill-rule="evenodd" clip-rule="evenodd" d="M11.3924 32.862C11.0464 32.862 10.7454 32.749 10.5094 32.537V32.536C10.7454 32.749 11.0474 32.862 11.3934 32.862C11.4234 32.862 11.4544 32.861 11.4854 32.859C11.4544 32.861 11.4234 32.862 11.3924 32.862ZM11.3934 32.715C11.0474 32.716 10.7454 32.603 10.5094 32.39L22.8984 20.001L27.0284 24.132L12.5134 32.38C12.1124 32.608 11.7314 32.715 11.3934 32.715ZM10.5064 32.534C10.4844 32.514 10.4624 32.493 10.4414 32.471L10.5064 32.534Z" fill="url(#paint2_linear_565_5437)"/>
<path fill-rule="evenodd" clip-rule="evenodd" d="M22.8978 20.0006L10.5078 7.61163C10.7438 7.39963 11.0448 7.28663 11.3908 7.28663C11.7298 7.28663 12.1108 7.39463 12.5128 7.62363L27.0278 15.8706L22.8978 20.0006ZM27.1208 15.7776L12.5128 7.47763C12.1108 7.24863 11.7298 7.14062 11.3908 7.14062H11.3868H11.3918C11.7308 7.14062 12.1108 7.24863 12.5128 7.47663L27.1208 15.7766V15.7776Z" fill="url(#paint3_linear_565_5437)"/>
<path d="M11.4846 32.8593C11.7986 32.8413 12.1466 32.7333 12.5126 32.5263L27.0266 24.2793L12.5126 32.5263C12.1466 32.7343 11.7986 32.8423 11.4846 32.8593ZM10.5086 32.5373L10.5056 32.5343L10.5086 32.5373ZM10.4406 32.4713L10.4346 32.4653L10.4406 32.4713Z" fill="black"/>
<path fill-rule="evenodd" clip-rule="evenodd" d="M27.0273 24.2786L27.1213 24.2246L27.0273 24.2786Z" fill="url(#paint4_linear_565_5437)"/>
<path fill-rule="evenodd" clip-rule="evenodd" d="M11.3926 32.8618C11.0466 32.8618 10.7446 32.7488 10.5086 32.5358V32.5368L10.5056 32.5338L10.4406 32.4708L10.4346 32.4648L10.5086 32.3898C10.7446 32.6028 11.0466 32.7158 11.3926 32.7148C11.7306 32.7148 12.1116 32.6078 12.5126 32.3798L27.0276 24.1318L27.1206 24.2248L27.0266 24.2788L12.5126 32.5258C12.1466 32.7328 11.7986 32.8408 11.4846 32.8588C11.4536 32.8608 11.4226 32.8618 11.3926 32.8618Z" fill="url(#paint5_linear_565_5437)"/>
<path d="M10.4347 32.4646C10.1437 32.1566 9.97168 31.6786 9.97168 31.0596V31.0586C9.97168 31.6786 10.1437 32.1566 10.4347 32.4636V32.4646Z" fill="black"/>
<path fill-rule="evenodd" clip-rule="evenodd" d="M10.4347 32.4641C10.1437 32.1571 9.97168 31.6791 9.97168 31.0591V30.9141C9.97168 31.5331 10.1437 32.0111 10.4347 32.3191L10.5087 32.3901L10.4347 32.4641Z" fill="url(#paint6_linear_565_5437)"/>
<path fill-rule="evenodd" clip-rule="evenodd" d="M10.4346 32.4646V32.4636L10.5086 32.3896L10.4346 32.4646Z" fill="url(#paint7_linear_565_5437)"/>
<path d="M32.9473 20.518C33.0243 20.35 33.0623 20.176 33.0623 20.003C33.0623 20.002 33.0633 20.002 33.0633 20.002C33.0633 20.176 33.0243 20.349 32.9473 20.518Z" fill="black"/>
<path fill-rule="evenodd" clip-rule="evenodd" d="M27.1213 24.2249L27.0283 24.1319L32.0143 21.2989C32.6483 20.9389 33.0033 20.4749 33.0623 20.0029C33.0623 20.1759 33.0243 20.3499 32.9473 20.5179C32.7923 20.8589 32.4813 21.1799 32.0143 21.4449L27.1213 24.2249Z" fill="url(#paint8_linear_565_5437)"/>
<path d="M33.0631 20.0013H33.0621C33.0621 19.4783 32.7131 18.9553 32.0141 18.5583L27.1211 15.7783V15.7773L32.0141 18.5583C32.7131 18.9553 33.0631 19.4783 33.0631 20.0013Z" fill="#404040"/>
<path fill-rule="evenodd" clip-rule="evenodd" d="M33.0623 20.0013C33.0033 19.5273 32.6483 19.0633 32.0143 18.7043L27.0283 15.8713L27.1213 15.7783L32.0143 18.5583C32.7133 18.9553 33.0623 19.4783 33.0623 20.0013Z" fill="url(#paint9_linear_565_5437)"/>
<path d="M9.97168 8.93762V8.93663V8.93762ZM9.97568 8.77563C9.97668 8.77463 9.97668 8.77363 9.97668 8.77262C9.97668 8.77363 9.97668 8.77463 9.97568 8.77563ZM9.97668 8.77063V8.76562V8.77063ZM9.97668 8.76463C10.0347 7.73763 10.5927 7.14463 11.3827 7.14062C11.0407 7.14263 10.7427 7.25463 10.5087 7.46563L10.5057 7.46863C10.4817 7.49063 10.4577 7.51363 10.4347 7.53763C10.1727 7.81563 10.0067 8.23163 9.97668 8.76463Z" fill="#404040"/>
<path fill-rule="evenodd" clip-rule="evenodd" d="M9.97168 9.08982V8.93682C9.97168 8.88182 9.97368 8.82782 9.97568 8.77582C9.97668 8.77482 9.97668 8.77382 9.97668 8.77282V8.76482C10.0067 8.23182 10.1727 7.81582 10.4347 7.53782L10.5077 7.61182C10.1727 7.91382 9.97168 8.41982 9.97168 9.08982ZM10.5057 7.46882L10.5087 7.46582L10.5057 7.46882Z" fill="url(#paint10_linear_565_5437)"/>
<path fill-rule="evenodd" clip-rule="evenodd" d="M27.0276 15.8706L12.5126 7.62363C12.1106 7.39463 11.7296 7.28663 11.3906 7.28663C11.0446 7.28663 10.7436 7.39963 10.5076 7.61163L10.4346 7.53763C10.4576 7.51363 10.4816 7.49063 10.5056 7.46863L10.5086 7.46563C10.7426 7.25463 11.0406 7.14263 11.3826 7.14062H11.3906C11.7296 7.14062 12.1106 7.24863 12.5126 7.47763L27.1206 15.7776L27.0276 15.8706Z" fill="url(#paint11_linear_565_5437)"/>
</g>
<defs>
<linearGradient id="paint0_linear_565_5437" x1="21.7994" y1="8.70999" x2="5.01697" y2="-8.07248" gradientUnits="userSpaceOnUse">
<stop stop-color="#00A0FF"/>
<stop offset="1" stop-color="#00E2FF"/>
</linearGradient>
<linearGradient id="paint1_linear_565_5437" x1="33.8348" y1="20.0015" x2="9.63784" y2="20.0015" gradientUnits="userSpaceOnUse">
<stop stop-color="#FFDF00"/>
<stop offset="1" stop-color="#FF9C00"/>
</linearGradient>
<linearGradient id="paint2_linear_565_5437" x1="24.8274" y1="22.2961" x2="2.06911" y2="-0.462223" gradientUnits="userSpaceOnUse">
<stop stop-color="#FF3A44"/>
<stop offset="1" stop-color="#C31162"/>
</linearGradient>
<linearGradient id="paint3_linear_565_5437" x1="7.29714" y1="0.175825" x2="17.4597" y2="-9.98671" gradientUnits="userSpaceOnUse">
<stop stop-color="#31A070"/>
<stop offset="1" stop-color="#00EF75"/>
</linearGradient>
<linearGradient id="paint4_linear_565_5437" x1="33.8347" y1="20.0011" x2="9.63777" y2="20.0011" gradientUnits="userSpaceOnUse">
<stop stop-color="#CCB300"/>
<stop offset="1" stop-color="#CC7C00"/>
</linearGradient>
<linearGradient id="paint5_linear_565_5437" x1="24.8266" y1="22.2959" x2="2.06827" y2="-0.462365" gradientUnits="userSpaceOnUse">
<stop stop-color="#CC2D36"/>
<stop offset="1" stop-color="#9C0E4D"/>
</linearGradient>
<linearGradient id="paint6_linear_565_5437" x1="21.7994" y1="8.70973" x2="5.01695" y2="-8.07273" gradientUnits="userSpaceOnUse">
<stop stop-color="#008CDF"/>
<stop offset="1" stop-color="#00C6DF"/>
</linearGradient>
<linearGradient id="paint7_linear_565_5437" x1="24.8265" y1="22.2956" x2="2.06792" y2="-0.46247" gradientUnits="userSpaceOnUse">
<stop stop-color="#DF333B"/>
<stop offset="1" stop-color="#AA0E56"/>
</linearGradient>
<linearGradient id="paint8_linear_565_5437" x1="33.8347" y1="20.0013" x2="9.63772" y2="20.0013" gradientUnits="userSpaceOnUse">
<stop stop-color="#DFC400"/>
<stop offset="1" stop-color="#DF8900"/>
</linearGradient>
<linearGradient id="paint9_linear_565_5437" x1="33.8347" y1="20.0017" x2="9.63772" y2="20.0017" gradientUnits="userSpaceOnUse">
<stop stop-color="#FFE83F"/>
<stop offset="1" stop-color="#FFB53F"/>
</linearGradient>
<linearGradient id="paint10_linear_565_5437" x1="21.7994" y1="8.70951" x2="5.01696" y2="-8.07296" gradientUnits="userSpaceOnUse">
<stop stop-color="#3FB8FF"/>
<stop offset="1" stop-color="#3FE9FF"/>
</linearGradient>
<linearGradient id="paint11_linear_565_5437" x1="7.2969" y1="0.175824" x2="17.4594" y2="-9.98671" gradientUnits="userSpaceOnUse">
<stop stop-color="#64B895"/>
<stop offset="1" stop-color="#3FF497"/>
</linearGradient>
<clipPath id="clip0_565_5437">
<rect width="135" height="40" fill="white"/>
</clipPath>
</defs>
</svg>
