<svg width="32" height="32" viewBox="0 0 32 32" fill="none" xmlns="http://www.w3.org/2000/svg">
<g clip-path="url(#clip0_6198_1725)">
<path d="M32 0H0V32H32V0Z" fill="#0D2B49"/>
<path fill-rule="evenodd" clip-rule="evenodd" d="M6 27V26.3997H6.78415C7.66561 26.3997 8.2907 26.1021 8.65975 25.5074C8.88509 25.1506 8.99811 24.3502 8.99811 23.1064V8.89397C8.99811 7.52031 8.85474 6.66032 8.56766 6.31436C8.16792 5.83858 7.57353 5.60034 6.7845 5.60034H6.00035V5H14.4864C17.6021 5 19.972 5.37298 21.5964 6.11963C23.2209 6.86593 24.5276 8.10977 25.5165 9.85115C26.5054 11.5925 27 13.6044 27 15.8865C27 18.9475 26.1185 21.5054 24.3559 23.5604C22.3778 25.8534 19.3647 27 15.3166 27H6ZM11.9495 25.4102C13.2509 25.713 14.3424 25.8646 15.2238 25.8646C17.6014 25.8646 19.5743 24.9832 21.1426 23.2201C22.7106 21.4569 23.4947 19.0668 23.4947 16.0489C23.4947 13.0311 22.7106 10.6139 21.1426 8.86169C19.5747 7.10944 17.5606 6.23331 15.1011 6.23331C14.1788 6.23331 13.1281 6.39015 11.9495 6.70383V25.4102Z" fill="white"/>
</g>
<defs>
<clipPath id="clip0_6198_1725">
<rect width="32" height="32" fill="white"/>
</clipPath>
</defs>
</svg>
