<svg width="32" height="32" viewBox="0 0 32 32" fill="none" xmlns="http://www.w3.org/2000/svg">
<g clip-path="url(#clip0_6198_1727)">
<path d="M32 0H0V32H32V0Z" fill="white"/>
<path d="M25.0348 5.00376L25.5174 12.1558H25.0348C24.3913 10.0145 23.4739 8.47329 22.2799 7.53229C21.0872 6.5913 19.6558 6.12017 17.9855 6.12017C16.5855 6.12017 15.3186 6.47477 14.1888 7.18271C13.0577 7.8919 12.1679 9.02084 11.5194 10.572C10.8709 12.1232 10.5466 14.0529 10.5466 16.3584C10.5466 18.2616 10.852 19.9106 11.4653 21.3077C12.0774 22.7035 12.9986 23.7748 14.2277 24.5191C15.4569 25.2634 16.8594 25.6355 18.4367 25.6355C19.8066 25.6355 21.0144 25.3435 22.0625 24.7584C23.1107 24.1745 24.2619 23.013 25.5174 21.2751L26 21.5858C24.9418 23.4578 23.7076 24.8286 22.2963 25.6969C20.8849 26.5652 19.2096 27 17.2704 27C13.774 27 11.0669 25.7069 9.14784 23.122C7.71636 21.1987 7 18.9332 7 16.327C7 14.227 7.47255 12.2987 8.41639 10.5407C9.36023 8.78278 10.6597 7.41952 12.3149 6.45222C13.9701 5.48491 15.7774 5.00125 17.7379 5.00125C19.2624 5.00125 20.7668 5.37339 22.251 6.11767C22.6871 6.34571 22.9976 6.45848 23.1848 6.45848C23.4651 6.45848 23.7089 6.36075 23.9163 6.16403C24.1865 5.88461 24.3775 5.49744 24.4919 5H25.036L25.0348 5.00376Z" fill="#0D2B49"/>
</g>
<defs>
<clipPath id="clip0_6198_1727">
<rect width="32" height="32" fill="white"/>
</clipPath>
</defs>
</svg>
