<svg width="192" height="192" viewBox="0 0 192 192" fill="none" xmlns="http://www.w3.org/2000/svg">
<path d="M126.075 7.83496H65.9256C58.0546 7.83496 51.6738 14.2157 51.6738 22.0867V169.91C51.6738 177.781 58.0546 184.161 65.9256 184.161H126.075C133.946 184.161 140.326 177.781 140.326 169.91V22.0867C140.326 14.2157 133.946 7.83496 126.075 7.83496Z" fill="#8C8C8C"/>
<path d="M126.072 7.83508C127.944 7.83483 129.797 8.20322 131.527 8.91922C133.256 9.63522 134.827 10.6848 136.151 12.008C137.474 13.3313 138.524 14.9023 139.241 16.6313C139.957 18.3603 140.326 20.2135 140.326 22.0851V169.912C140.326 171.783 139.957 173.636 139.241 175.365C138.524 177.094 137.474 178.665 136.151 179.989C134.827 181.312 133.256 182.361 131.527 183.077C129.797 183.793 127.944 184.162 126.072 184.162H65.9275C64.0559 184.162 62.2026 183.793 60.4734 183.077C58.7442 182.361 57.1729 181.312 55.8493 179.989C54.5257 178.665 53.4757 177.094 52.7593 175.365C52.0428 173.636 51.674 171.783 51.6737 169.912V22.0851C51.674 20.2135 52.0428 18.3603 52.7593 16.6313C53.4757 14.9023 54.5257 13.3313 55.8493 12.008C57.1729 10.6848 58.7442 9.63521 60.4734 8.91922C62.2026 8.20322 64.0559 7.83483 65.9275 7.83508H126.072ZM126.072 6.85549H65.9275C61.8892 6.85951 58.0174 8.46521 55.1615 11.3203C52.3057 14.1755 50.6989 18.0468 50.6938 22.0851V169.912C50.6989 173.95 52.3056 177.821 55.1615 180.676C58.0174 183.531 61.8892 185.137 65.9275 185.141H126.072C130.111 185.137 133.983 183.531 136.838 180.676C139.694 177.821 141.301 173.95 141.306 169.912V22.0851C141.301 18.0468 139.694 14.1755 136.838 11.3203C133.983 8.46522 130.111 6.8595 126.072 6.85547V6.85549Z" fill="#424242"/>
<path d="M133.484 22.0847V169.912C133.484 170.885 133.292 171.849 132.92 172.748C132.547 173.647 132.001 174.464 131.313 175.152C130.625 175.84 129.808 176.386 128.909 176.758C128.009 177.13 127.046 177.322 126.073 177.322H65.9274C63.9619 177.322 62.0768 176.541 60.6867 175.152C59.2966 173.762 58.5155 171.877 58.5151 169.912V22.0847C58.5153 21.1115 58.7071 20.1478 59.0797 19.2487C59.4523 18.3496 59.9983 17.5326 60.6866 16.8446C61.3749 16.1565 62.192 15.6107 63.0912 15.2384C63.9905 14.8661 64.9542 14.6746 65.9274 14.6748H74.1016C74.2513 14.6748 74.3995 14.7042 74.5379 14.7615C74.6762 14.8188 74.8019 14.9028 74.9078 15.0086C75.0137 15.1145 75.0976 15.2401 75.155 15.3784C75.2123 15.5168 75.2418 15.665 75.2418 15.8147V17.0788C75.2418 17.6028 75.3451 18.1218 75.5457 18.6059C75.7463 19.0901 76.0403 19.53 76.4109 19.9005C76.7815 20.2711 77.2215 20.565 77.7057 20.7654C78.19 20.9659 78.7089 21.0691 79.233 21.0689H112.767C113.291 21.069 113.81 20.9658 114.294 20.7653C114.778 20.5648 115.218 20.2709 115.589 19.9004C115.959 19.5299 116.253 19.09 116.454 18.6058C116.655 18.1217 116.758 17.6028 116.758 17.0788V15.8147C116.758 15.665 116.787 15.5167 116.845 15.3784C116.902 15.24 116.986 15.1143 117.092 15.0085C117.198 14.9026 117.324 14.8187 117.462 14.7614C117.6 14.7042 117.749 14.6747 117.898 14.6748H126.073C127.046 14.6747 128.01 14.8662 128.909 15.2385C129.808 15.6108 130.625 16.1566 131.313 16.8446C132.001 17.5327 132.547 18.3496 132.92 19.2487C133.293 20.1478 133.484 21.1115 133.484 22.0847Z" fill="white"/>
<path d="M126.073 14.6751C127.046 14.675 128.009 14.8665 128.909 15.2388C129.808 15.6112 130.625 16.1569 131.313 16.845C132.001 17.5331 132.547 18.35 132.92 19.2491C133.293 20.1482 133.484 21.1119 133.484 22.0851V169.912C133.484 170.885 133.292 171.849 132.92 172.748C132.547 173.647 132.001 174.464 131.313 175.152C130.625 175.84 129.808 176.386 128.909 176.758C128.009 177.131 127.046 177.322 126.073 177.322H65.9275C63.9619 177.322 62.0768 176.542 60.6867 175.152C59.2967 173.763 58.5155 171.878 58.5151 169.912V22.0851C58.5153 21.1119 58.7071 20.1482 59.0797 19.2491C59.4523 18.35 59.9983 17.5331 60.6866 16.845C61.3749 16.1569 62.192 15.6111 63.0912 15.2388C63.9905 14.8665 64.9542 14.675 65.9275 14.6752H74.1016C74.2513 14.6752 74.3996 14.7046 74.5379 14.7619C74.6762 14.8192 74.8019 14.9032 74.9078 15.009C75.0137 15.1149 75.0977 15.2406 75.155 15.3789C75.2123 15.5173 75.2418 15.6655 75.2418 15.8153V17.0792C75.2418 17.6033 75.3451 18.1223 75.5457 18.6064C75.7463 19.0906 76.0403 19.5305 76.411 19.901C76.7816 20.2715 77.2216 20.5654 77.7058 20.7659C78.19 20.9664 78.709 21.0695 79.233 21.0694H112.767C113.291 21.0695 113.81 20.9663 114.294 20.7658C114.778 20.5653 115.218 20.2714 115.589 19.9009C115.959 19.5303 116.253 19.0904 116.454 18.6063C116.655 18.1222 116.758 17.6033 116.758 17.0792V15.8152C116.758 15.6655 116.787 15.5172 116.845 15.3788C116.902 15.2405 116.986 15.1148 117.092 15.0089C117.198 14.903 117.324 14.819 117.462 14.7618C117.6 14.7045 117.749 14.6751 117.899 14.6751H126.073M126.073 13.9404H117.899C117.401 13.9409 116.925 14.1386 116.573 14.49C116.221 14.8415 116.024 15.3181 116.023 15.8152V17.0792C116.022 17.9424 115.679 18.7699 115.068 19.3802C114.458 19.9905 113.63 20.3338 112.767 20.3347H79.233C78.3698 20.3338 77.5421 19.9906 76.9317 19.3803C76.3212 18.77 75.9777 17.9424 75.9767 17.0792V15.8152C75.976 15.3181 75.7783 14.8416 75.4268 14.4901C75.0752 14.1387 74.5987 13.941 74.1016 13.9404H65.9275C63.7678 13.9425 61.6971 14.8012 60.1697 16.3282C58.6424 17.8551 57.783 19.9255 57.7803 22.0851V169.912C57.7831 172.072 58.6424 174.142 60.1698 175.669C61.6972 177.196 63.7679 178.055 65.9275 178.057H126.073C128.232 178.055 130.303 177.196 131.83 175.669C133.357 174.142 134.217 172.072 134.219 169.912V22.0851C134.217 19.9255 133.357 17.8552 131.83 16.3283C130.303 14.8014 128.232 13.9426 126.073 13.9405L126.073 13.9404Z" fill="#424242"/>
<path d="M133.484 22.0847V38.8774H58.5151V22.0847C58.5153 21.1115 58.7071 20.1478 59.0797 19.2487C59.4523 18.3496 59.9983 17.5326 60.6866 16.8446C61.3749 16.1565 62.192 15.6107 63.0912 15.2384C63.9905 14.8661 64.9542 14.6746 65.9274 14.6748H74.1016C74.2513 14.6748 74.3995 14.7042 74.5379 14.7615C74.6762 14.8188 74.8019 14.9028 74.9078 15.0086C75.0137 15.1145 75.0976 15.2401 75.155 15.3784C75.2123 15.5168 75.2418 15.665 75.2418 15.8147V17.0788C75.2418 17.6028 75.3451 18.1218 75.5457 18.6059C75.7463 19.0901 76.0403 19.53 76.4109 19.9005C76.7815 20.2711 77.2215 20.565 77.7057 20.7654C78.19 20.9659 78.7089 21.0691 79.233 21.0689H112.767C113.291 21.069 113.81 20.9658 114.294 20.7653C114.778 20.5648 115.218 20.2709 115.589 19.9004C115.959 19.5299 116.253 19.09 116.454 18.6058C116.655 18.1217 116.758 17.6028 116.758 17.0788V15.8147C116.758 15.665 116.787 15.5167 116.845 15.3784C116.902 15.24 116.986 15.1143 117.092 15.0085C117.198 14.9026 117.324 14.8187 117.462 14.7614C117.6 14.7042 117.749 14.6747 117.898 14.6748H126.073C127.046 14.6747 128.01 14.8662 128.909 15.2385C129.808 15.6108 130.625 16.1566 131.313 16.8446C132.001 17.5327 132.547 18.3496 132.92 19.2487C133.293 20.1478 133.484 21.1115 133.484 22.0847Z" fill="#D1D1D1"/>
<path d="M133.484 157.456V169.912C133.484 170.885 133.292 171.849 132.92 172.748C132.547 173.647 132.001 174.464 131.313 175.152C130.625 175.84 129.808 176.386 128.909 176.758C128.009 177.13 127.046 177.322 126.073 177.322H65.9274C63.9619 177.322 62.0768 176.541 60.6867 175.152C59.2966 173.762 58.5155 171.877 58.5151 169.912V157.456H133.484Z" fill="#D1D1D1"/>
<path d="M127.576 61.2266H65.2752C63.9687 61.2266 62.9097 62.2856 62.9097 63.5921V102.223C62.9097 103.53 63.9687 104.589 65.2752 104.589H127.576C128.882 104.589 129.941 103.53 129.941 102.223V63.5921C129.941 62.2856 128.882 61.2266 127.576 61.2266Z" fill="white"/>
<path d="M127.576 104.955H65.2754C64.5509 104.954 63.8562 104.666 63.3439 104.154C62.8315 103.642 62.5433 102.947 62.5425 102.223V63.5911C62.5433 62.8665 62.8315 62.1719 63.3439 61.6596C63.8562 61.1473 64.5509 60.8592 65.2754 60.8584H127.576C128.3 60.8592 128.995 61.1473 129.507 61.6596C130.02 62.1719 130.308 62.8665 130.309 63.5911V102.223C130.308 102.947 130.02 103.642 129.507 104.154C128.995 104.666 128.3 104.954 127.576 104.955ZM65.2754 61.5931C64.7457 61.5937 64.2378 61.8044 63.8632 62.1789C63.4887 62.5535 63.278 63.0613 63.2774 63.5911V102.223C63.278 102.752 63.4887 103.26 63.8632 103.635C64.2378 104.009 64.7457 104.22 65.2754 104.221H127.576C128.105 104.22 128.613 104.009 128.988 103.635C129.362 103.26 129.573 102.752 129.574 102.223V63.5911C129.573 63.0613 129.362 62.5535 128.988 62.1789C128.613 61.8044 128.105 61.5937 127.576 61.5931H65.2754Z" fill="#D1D1D1"/>
<path d="M126.608 64.6162H66.2427V67.7698H126.608V64.6162Z" fill="#B1B1B1"/>
<path d="M76.4947 81.0967H67.0312C66.5957 81.0967 66.2427 81.4497 66.2427 81.8852V88.1922C66.2427 88.6277 66.5957 88.9807 67.0312 88.9807H76.4947C76.9301 88.9807 77.2832 88.6277 77.2832 88.1922V81.8852C77.2832 81.4497 76.9301 81.0967 76.4947 81.0967Z" fill="#E9CA8F"/>
<path d="M79.1109 77.0303H66.2427V77.8187H79.1109V77.0303Z" fill="#B1B1B1"/>
<path d="M79.1109 96.1709H66.2427V96.9593H79.1109V96.1709Z" fill="#B1B1B1"/>
<path d="M89.9009 98.5664H66.2427V99.3548H89.9009V98.5664Z" fill="#B1B1B1"/>
<path d="M110.869 77.0303H82.0752V78.6071H110.869V77.0303Z" fill="#B1B1B1"/>
<path d="M97.8473 81.0967H82.0752V82.6735H97.8473V81.0967Z" fill="#B1B1B1"/>
<path d="M105.733 85.1631H82.0752V86.7399H105.733V85.1631Z" fill="#B1B1B1"/>
<path d="M129.941 71.415H62.9041V72.1497H129.941V71.415Z" fill="#D1D1D1"/>
<path fill-rule="evenodd" clip-rule="evenodd" d="M119.296 85.4834C119.733 85.495 120.162 85.5953 120.558 85.7782C120.955 85.9611 121.31 86.2227 121.602 86.5471C121.894 86.8715 122.117 87.252 122.257 87.6653C122.398 88.0786 122.452 88.5162 122.418 88.9514C122.418 89.1988 122.409 89.4057 122.393 89.5779C122.534 89.6877 122.647 89.9062 122.592 90.3386C122.492 91.1177 122.286 91.3628 122.071 91.3789C121.957 92.1165 121.589 92.791 121.031 93.2863V94.5001C121.32 94.9957 121.789 95.3611 122.341 95.5209L123.724 95.9682C124.367 96.1097 124.951 96.4437 125.4 96.9257C125.848 97.4076 126.139 98.0148 126.234 98.6663C121.654 99.5849 116.938 99.5849 112.358 98.6663C112.453 98.015 112.744 97.4079 113.192 96.926C113.64 96.444 114.225 96.1099 114.868 95.9682L116.252 95.5209C116.803 95.3615 117.272 94.996 117.562 94.5001V93.2863C117.003 92.791 116.635 92.1165 116.521 91.3789C116.306 91.3628 116.1 91.1177 116.001 90.3386C115.945 89.9062 116.059 89.6877 116.2 89.5779C116.182 89.3695 116.173 89.1607 116.174 88.9514C116.14 88.5162 116.195 88.0786 116.335 87.6653C116.475 87.2519 116.698 86.8714 116.991 86.547C117.283 86.2226 117.638 85.961 118.034 85.7781C118.43 85.5953 118.86 85.495 119.296 85.4834Z" fill="#8C8C8C"/>
<path d="M96 117.602C92.879 117.602 89.8283 118.529 87.2337 120.263C84.6391 121.998 82.617 124.463 81.4232 127.346C80.2294 130.23 79.9175 133.403 80.5269 136.464C81.1363 139.525 82.6396 142.336 84.8467 144.543C87.0539 146.749 89.8658 148.252 92.9269 148.861C95.988 149.469 99.1608 149.156 102.044 147.962C104.928 146.767 107.392 144.745 109.126 142.15C110.86 139.554 111.785 136.504 111.785 133.383C111.785 131.31 111.376 129.258 110.583 127.343C109.789 125.428 108.627 123.688 107.161 122.223C105.695 120.757 103.955 119.595 102.04 118.802C100.125 118.009 98.0727 117.601 96 117.602ZM95.0286 139.695C94.919 139.81 94.7871 139.902 94.641 139.964C94.4949 140.027 94.3376 140.059 94.1786 140.059C94.0197 140.059 93.8624 140.027 93.7163 139.964C93.5702 139.902 93.4383 139.81 93.3287 139.695L89.0789 135.446L90.7788 133.747L94.1786 137.121L102.435 128.891L104.135 130.59L95.0286 139.695Z" fill="#729A77"/>
</svg>
