<svg width="192" height="192" viewBox="0 0 192 192" fill="none" xmlns="http://www.w3.org/2000/svg">
<path d="M165.757 116.3L83.696 163.795C82.7423 164.328 81.6766 164.63 80.585 164.675C79.4934 164.72 78.4064 164.508 77.4117 164.056L25.7866 134.177C24.1759 133.245 24.3779 131.616 26.2378 130.54L108.299 83.045C109.252 82.5119 110.318 82.2106 111.41 82.1652C112.501 82.1198 113.588 82.3317 114.583 82.7838L166.208 112.663C167.819 113.595 167.617 115.224 165.757 116.3Z" fill="white"/>
<path d="M80.1484 165.06C79.1322 165.086 78.1264 164.851 77.2278 164.375L25.6027 134.496C25.2394 134.323 24.9295 134.056 24.7058 133.722C24.4821 133.388 24.3529 132.999 24.3318 132.598C24.3867 132.086 24.5746 131.597 24.8767 131.18C25.1789 130.763 25.5848 130.433 26.0542 130.221L108.115 82.7265C109.123 82.1564 110.252 81.8352 111.409 81.7898C112.566 81.7443 113.717 81.9759 114.767 82.4651L166.392 112.345C166.755 112.517 167.065 112.784 167.289 113.119C167.512 113.453 167.642 113.841 167.663 114.243C167.608 114.755 167.42 115.243 167.118 115.66C166.816 116.077 166.41 116.408 165.94 116.619L83.8798 164.114C82.7374 164.744 81.4527 165.07 80.1484 165.06ZM111.854 82.5184C110.676 82.5087 109.516 82.7998 108.482 83.3642L26.4216 130.859C26.0665 131.01 25.7557 131.248 25.5186 131.553C25.2815 131.857 25.1259 132.216 25.0665 132.598C25.0897 132.869 25.1859 133.13 25.3449 133.352C25.504 133.574 25.7199 133.749 25.97 133.858L77.5952 163.737C78.5333 164.159 79.5572 164.356 80.5848 164.31C81.6124 164.265 82.6151 163.979 83.5124 163.477L165.573 115.981C165.928 115.831 166.239 115.592 166.476 115.288C166.713 114.984 166.868 114.624 166.928 114.243C166.905 113.971 166.808 113.71 166.649 113.488C166.49 113.266 166.274 113.092 166.024 112.982L114.399 83.1028C113.614 82.694 112.738 82.4927 111.854 82.5184Z" fill="#D1D1D1"/>
<path d="M115.922 88.6706L35.9558 134.952L31.7778 132.535L111.743 86.252L115.922 88.6706Z" fill="#B1B1B1"/>
<path d="M77.565 143.404L65.1849 150.57C64.867 150.747 64.5118 150.848 64.1479 150.863C63.784 150.878 63.4217 150.807 63.0901 150.657L54.5876 145.735C54.0507 145.425 54.118 144.882 54.738 144.523L67.1181 137.358C67.436 137.18 67.7912 137.08 68.1551 137.065C68.5189 137.049 68.8813 137.12 69.2128 137.271L77.7154 142.192C78.2523 142.503 78.1849 143.045 77.565 143.404Z" fill="#E9CA8F"/>
<path d="M66.3172 132.793L49.2713 142.658L48.2261 142.054L65.2729 132.188L66.3172 132.793Z" fill="#B1B1B1"/>
<path d="M91.681 147.473L74.6341 157.339L73.5889 156.734L90.6357 146.868L91.681 147.473Z" fill="#B1B1B1"/>
<path d="M109.149 141.037L77.8089 159.175L76.7637 158.571L108.104 140.432L109.149 141.037Z" fill="#B1B1B1"/>
<path d="M113.406 119.223L82.0663 137.363L79.9768 136.153L111.317 118.015L113.406 119.223Z" fill="#B1B1B1"/>
<path d="M37.0343 140.908L36.667 140.27L125.47 88.873L125.837 89.5108L37.0343 140.908Z" fill="#D1D1D1"/>
<path fill-rule="evenodd" clip-rule="evenodd" d="M129.707 107.861C131.073 107.189 132.583 106.861 134.105 106.908C135.628 106.954 137.115 107.373 138.438 108.127C138.766 108.317 139.028 108.483 139.234 108.627C139.697 108.609 140.15 108.762 140.506 109.058C141.406 109.732 141.458 110.078 141.195 110.255C142.05 110.874 142.574 112.117 142.344 112.516L143.952 113.447C144.985 113.605 146.04 113.529 147.04 113.225L149.465 112.508C151.708 111.724 154.158 111.775 156.366 112.652C153.799 114.861 151.028 116.819 148.088 118.5C144.85 120.357 141.472 121.959 137.985 123.291C136.073 121.826 136.765 120.472 137.734 119.298L138.974 117.893C139.219 117.674 139.388 117.383 139.457 117.062C139.525 116.741 139.491 116.406 139.357 116.106L137.749 115.175C136.414 115.232 135.083 115.005 133.843 114.51C133.536 114.663 132.939 114.633 131.775 114.111C131.128 113.822 130.989 113.568 131.03 113.376C130.731 113.229 130.443 113.076 130.166 112.915C127.685 111.478 127.179 109.324 129.707 107.861Z" fill="#8C8C8C"/>
<path d="M185.143 60.957V67.9617C185.143 70.2809 183.447 72.7428 180.135 74.6647L168.569 81.3678L75.5122 135.214C72.2055 137.032 68.5104 138.029 64.7381 138.121C61.3695 138.33 58.0074 137.622 55.0092 136.072L10.4062 110.261C9.39396 109.715 8.51681 108.95 7.83912 108.021C7.20662 107.177 6.86226 106.153 6.85694 105.098V98.0934C6.85584 98.7426 6.98515 99.3854 7.2372 99.9837C7.34265 100.225 7.4644 100.458 7.60161 100.683C7.77238 100.965 7.96855 101.231 8.18767 101.477C8.33041 101.636 8.48901 101.794 8.64722 101.953C8.98234 102.291 9.35437 102.589 9.75629 102.843C9.96452 102.993 10.1815 103.131 10.4062 103.256L54.9933 129.067C56.0131 129.636 57.0986 130.079 58.2257 130.386C60.3481 130.951 62.543 131.198 64.7381 131.116C65.1976 131.1 65.6727 131.068 66.1481 131.021C66.1481 131.005 66.1639 131.021 66.1639 131.021C67.1113 130.938 68.053 130.8 68.9844 130.608C69.9126 130.422 70.8281 130.178 71.7255 129.877C73.0398 129.448 74.3083 128.889 75.5122 128.209L176.919 69.5183H176.935L178.345 68.6925L180.12 67.66C180.326 67.5328 180.532 67.4217 180.722 67.3106C181.083 67.0799 181.432 66.8307 181.768 66.5641C181.783 66.5482 181.783 66.5641 181.783 66.5641C182.547 65.9915 183.229 65.3182 183.812 64.5627C184.13 64.144 184.401 63.6911 184.62 63.2124C184.957 62.5081 185.136 61.7381 185.143 60.957Z" fill="#666666"/>
<path d="M185.143 60.957V67.9618C185.143 70.2808 183.447 72.7428 180.136 74.6646L168.569 81.3678L75.5123 135.214C72.2056 137.032 68.5105 138.029 64.7381 138.121C64.4788 138.129 64.2201 138.133 63.9621 138.133C60.8505 138.225 57.7675 137.515 55.0092 136.072L10.4063 110.261C9.39409 109.715 8.51695 108.95 7.83919 108.021C7.20674 107.177 6.8624 106.153 6.85703 105.099V98.0933C6.85592 98.7426 6.98523 99.3854 7.23729 99.9838C7.34272 100.225 7.46447 100.458 7.6017 100.683C7.77245 100.965 7.96862 101.231 8.18776 101.477C8.33051 101.636 8.48913 101.795 8.64733 101.953C8.98244 102.29 9.35448 102.589 9.7564 102.843C9.96464 102.993 10.1816 103.131 10.4063 103.256L54.9934 129.067C56.0132 129.636 57.0987 130.079 58.2258 130.386C60.1138 130.893 62.0619 131.142 64.0169 131.126C64.2565 131.126 64.4969 131.123 64.7381 131.116C65.1977 131.1 65.6728 131.068 66.1482 131.021C66.1482 131.016 66.1499 131.014 66.1523 131.014C66.157 131.014 66.164 131.021 66.164 131.021C67.1113 130.938 68.053 130.8 68.9844 130.608C69.9127 130.422 70.8282 130.178 71.7256 129.877C73.0399 129.448 74.3084 128.889 75.5123 128.209L176.919 69.5182H176.935L178.345 68.6925L180.12 67.6599C180.326 67.5328 180.532 67.4216 180.722 67.3106C181.083 67.0799 181.432 66.8307 181.768 66.564C181.773 66.5587 181.776 66.5571 181.779 66.5571C181.783 66.5571 181.783 66.564 181.783 66.564C182.547 65.9914 183.229 65.3181 183.812 64.5626C184.13 64.1439 184.401 63.691 184.62 63.2123C184.958 62.5081 185.136 61.7381 185.143 60.957ZM186.122 60.957H184.163C184.157 61.5943 184.009 62.2222 183.733 62.7961C183.542 63.2137 183.306 63.6087 183.028 63.9735C182.569 64.5693 182.04 65.1071 181.452 65.5751H181.374L181.116 65.8292C180.818 66.0675 180.506 66.279 180.21 66.4727L180.032 66.5746C179.893 66.6534 179.75 66.735 179.607 66.8234L177.854 67.8433L176.638 68.5546L176.429 68.6678L75.0225 127.359C73.8766 128.005 72.6696 128.536 71.4192 128.944C70.5582 129.233 69.6797 129.467 68.7892 129.645C67.9317 129.822 67.0651 129.951 66.1933 130.033L66.1522 130.032H65.1726L65.1723 130.113C65.0153 130.122 64.8593 130.129 64.7045 130.134C64.4789 130.141 64.2475 130.144 64.0169 130.144C62.1511 130.162 60.2916 129.925 58.4898 129.44C57.441 129.155 56.4307 128.744 55.481 128.215L10.8961 102.405C10.6975 102.295 10.5055 102.173 10.3213 102.04L10.3039 102.028L10.2782 102.012C9.93802 101.797 9.62329 101.545 9.34003 101.259C9.19016 101.109 9.04539 100.964 8.91529 100.819C8.73993 100.622 8.58276 100.41 8.44571 100.184C8.3251 99.9868 8.21808 99.7814 8.12538 99.5695C7.93292 99.1012 7.83479 98.5996 7.83663 98.0933H5.87744V105.099C5.88174 106.36 6.29134 107.586 7.04579 108.597C7.8044 109.64 8.78693 110.5 9.9213 111.114L54.5194 136.922C57.427 138.451 60.6787 139.206 63.9622 139.115C64.2298 139.115 64.4984 139.111 64.7679 139.103C68.7036 139.012 72.5588 137.97 76.0035 136.064L169.059 82.2182L180.626 75.5148C184.119 73.4877 186.122 70.7347 186.122 67.9618V60.957Z" fill="#424242"/>
<path d="M185.143 60.9417V60.9576C185.136 61.7387 184.957 62.5087 184.62 63.213C184.393 63.6858 184.117 64.1331 183.796 64.5474C183.211 65.3006 182.535 65.9782 181.783 66.5647C181.783 66.5647 181.783 66.5488 181.768 66.5647C181.451 66.8028 181.102 67.057 180.722 67.3112C180.532 67.4223 180.326 67.5334 180.12 67.6606L178.345 68.6931L176.919 69.5189L75.5122 128.21C74.3083 128.89 73.0398 129.449 71.7255 129.878C70.8281 130.179 69.9126 130.423 68.9843 130.609C68.0494 130.799 67.0989 130.926 66.1639 131.022C66.1639 131.022 66.1481 131.006 66.1481 131.022C65.6726 131.053 65.1976 131.085 64.7222 131.101C62.5332 131.187 60.3437 130.946 58.2257 130.386C57.0986 130.08 56.0131 129.637 54.9933 129.068L10.4061 103.256C10.1815 103.132 9.9645 102.994 9.75627 102.843C9.36098 102.58 8.98983 102.283 8.6472 101.954C8.48899 101.795 8.33039 101.636 8.18765 101.477C7.96853 101.231 7.77236 100.965 7.60159 100.683C7.46758 100.457 7.34594 100.224 7.23718 99.9843C6.98514 99.386 6.85583 98.7432 6.85694 98.094C6.85694 95.7591 8.55244 93.2972 11.8638 91.3751L116.487 30.8259C122.556 27.3154 131.746 26.9342 137.006 29.9681L181.593 55.7795C183.986 57.1613 185.143 59.0198 185.143 60.9417Z" fill="#8C8C8C"/>
<path d="M128.099 27.9203C131.194 27.8328 134.26 28.5375 137.006 29.9675L181.594 55.7791C183.986 57.1608 185.143 59.0193 185.143 60.9414V60.9572C185.136 61.7382 184.957 62.5082 184.62 63.2125C184.393 63.6853 184.117 64.1326 183.796 64.5469C183.211 65.3001 182.535 65.9777 181.783 66.5642C181.783 66.5642 181.783 66.5572 181.779 66.5572C181.776 66.5572 181.773 66.5589 181.768 66.5642C181.451 66.8022 181.102 67.0566 180.722 67.3108C180.532 67.4218 180.326 67.533 180.12 67.6601L178.345 68.6927L176.919 69.5184L75.5123 128.209C74.3084 128.889 73.0399 129.448 71.7256 129.877C70.8282 130.178 69.9127 130.422 68.9844 130.608C68.0495 130.799 67.099 130.926 66.164 131.021C66.164 131.021 66.157 131.014 66.1523 131.014C66.1499 131.014 66.1482 131.016 66.1482 131.021C65.6728 131.053 65.1977 131.085 64.7223 131.1C64.4712 131.107 64.2207 131.111 63.9708 131.111C62.0319 131.13 60.0992 130.886 58.2258 130.386C57.0987 130.079 56.0132 129.637 54.9934 129.067L10.4063 103.256C10.1816 103.131 9.96463 102.993 9.7564 102.843C9.36114 102.58 8.99 102.282 8.64733 101.953C8.48913 101.795 8.3305 101.636 8.18776 101.477C7.96862 101.231 7.77245 100.965 7.6017 100.683C7.4677 100.457 7.34606 100.223 7.23729 99.9839C6.98523 99.3856 6.85592 98.7427 6.85704 98.0935C6.85704 95.7586 8.55255 93.2968 11.8638 91.3748L116.487 30.8253C120.047 28.8848 124.044 27.8849 128.099 27.9203M128.1 26.9383H128.099C123.872 26.9052 119.708 27.9502 115.998 29.9747L11.3741 90.5244C7.88049 92.5522 5.87745 95.3107 5.87745 98.0935C5.87632 98.8737 6.03176 99.6463 6.33456 100.365C6.46159 100.647 6.60422 100.922 6.76179 101.188C6.96223 101.52 7.19268 101.833 7.45027 102.123C7.61225 102.304 7.7807 102.473 7.94922 102.643C8.33483 103.015 8.75286 103.352 9.19834 103.65C9.43797 103.822 9.68776 103.98 9.94637 104.123L54.5035 129.918C55.5935 130.527 56.7536 131.001 57.9584 131.33C59.9185 131.857 61.9413 132.113 63.9708 132.093C64.2296 132.093 64.4891 132.089 64.7495 132.082C65.0969 132.07 65.4414 132.051 65.7852 132.029L65.8013 132.045L66.263 131.998L66.2756 131.997L67.1042 131.942L67.1052 131.903C67.8605 131.81 68.5448 131.7 69.1796 131.57C70.1483 131.376 71.1037 131.121 72.0403 130.807C73.4131 130.358 74.7381 129.774 75.9959 129.064L177.409 70.3688L178.835 69.5431L180.612 68.5093C180.68 68.4676 180.743 68.43 180.804 68.3947L182.39 67.3355C183.205 66.6984 183.939 65.9626 184.573 65.1451C184.935 64.6776 185.247 64.1727 185.502 63.639C185.904 62.8017 186.116 61.8859 186.122 60.9572C186.122 58.5683 184.688 56.4329 182.083 54.9282L137.496 29.1172C134.601 27.6021 131.366 26.8521 128.1 26.9383V26.9383Z" fill="#424242"/>
<path d="M175.975 64.3736L69.8358 125.805C68.1876 126.643 66.3646 127.08 64.5154 127.08C62.6662 127.08 60.8432 126.643 59.1951 125.805L16.0209 100.816C13.0823 99.1156 13.0823 96.3581 16.0204 94.6576L122.16 33.2266C123.808 32.3881 125.631 31.9511 127.481 31.9512C129.33 31.9512 131.153 32.3883 132.801 33.2269L138.669 36.6229C138.768 36.6566 138.854 36.7204 138.914 36.8054C138.975 36.8903 139.008 36.9922 139.008 37.0966C139.008 37.2011 138.975 37.303 138.914 37.3879C138.854 37.4729 138.768 37.5367 138.669 37.5704L137.761 38.0956C136.179 39.0115 136.179 40.4961 137.761 41.412L161.833 55.3442C162.721 55.7957 163.702 56.031 164.698 56.031C165.694 56.0309 166.675 55.7956 167.563 55.344L168.47 54.8188C168.724 54.6898 169.005 54.6225 169.289 54.6226C169.574 54.6226 169.854 54.6899 170.108 54.819L175.975 58.215C178.914 59.9158 178.914 62.6729 175.975 64.3736Z" fill="white"/>
<path d="M127.48 31.9516C129.334 31.9155 131.165 32.3547 132.801 33.2273L138.669 36.6233C138.768 36.657 138.853 36.7208 138.914 36.8058C138.975 36.8907 139.008 36.9926 139.008 37.097C139.008 37.2015 138.975 37.3034 138.914 37.3883C138.853 37.4733 138.768 37.5371 138.669 37.5708L137.761 38.0961C136.179 39.0119 136.179 40.4965 137.761 41.4125L161.833 55.3446C162.72 55.7961 163.702 56.0314 164.698 56.0314C165.694 56.0314 166.675 55.7961 167.563 55.3446L168.47 54.8193C168.724 54.6903 169.004 54.6231 169.289 54.6231C169.573 54.6232 169.854 54.6905 170.108 54.8195L175.975 58.2155C178.914 59.9163 178.914 62.6734 175.975 64.374L69.8357 125.805C68.1875 126.644 66.3645 127.081 64.5153 127.081C62.6661 127.081 60.8431 126.643 59.1949 125.805L16.0208 100.817C13.0822 99.1161 13.0821 96.3585 16.0203 94.658L122.16 33.227C123.795 32.3545 125.627 31.9154 127.48 31.9516M127.48 31.2151C125.498 31.1766 123.539 31.6499 121.793 32.5893L15.6529 94.0203C14.8974 94.3052 14.2466 94.8136 13.7873 95.4777C13.328 96.1419 13.082 96.9302 13.082 97.7377C13.0821 98.5451 13.3282 99.3334 13.7876 99.9975C14.247 100.662 14.8978 101.17 15.6534 101.455L58.8276 126.443C60.5874 127.346 62.5371 127.817 64.5153 127.817C66.4934 127.817 68.4431 127.346 70.203 126.443L176.343 65.0117C177.065 64.6791 177.684 64.1587 178.137 63.5049C178.589 62.8511 178.857 62.0879 178.914 61.2949C178.857 60.5018 178.589 59.7386 178.136 59.0847C177.684 58.4309 177.065 57.9104 176.342 57.5778L170.475 54.1818C170.11 53.9881 169.702 53.8867 169.289 53.8866C168.875 53.8866 168.468 53.9877 168.103 54.1813L167.195 54.7068C166.42 55.0936 165.565 55.2949 164.698 55.2949C163.831 55.2949 162.976 55.0936 162.2 54.7068L138.129 40.7748C137.608 40.4732 137.309 40.1011 137.309 39.7542C137.309 39.4073 137.608 39.0354 138.128 38.7338L139.036 38.2085C139.247 38.1095 139.426 37.9524 139.551 37.7555C139.676 37.5587 139.742 37.3303 139.742 37.0971C139.742 36.8639 139.676 36.6355 139.551 36.4386C139.426 36.2418 139.247 36.0846 139.036 35.9856L133.168 32.5896C131.422 31.65 129.463 31.1766 127.48 31.2151L127.48 31.2151Z" fill="#424242"/>
<path d="M156.328 73.405L155.961 72.7673L162.15 69.1859L155.961 65.6035L156.328 64.9658L163.619 69.1859L156.328 73.405Z" fill="#97B3D5"/>
<path d="M119.558 44.5349L113.002 40.7399L106.445 44.5349L106.078 43.8972L113.002 39.8896L119.925 43.8972L119.558 44.5349Z" fill="#97B3D5"/>
<path d="M44.109 88.2019L36.8179 83.9828L44.109 79.7627L44.4763 80.4004L38.2873 83.9828L44.4763 87.5642L44.109 88.2019Z" fill="#97B3D5"/>
<path d="M87.4352 113.279L80.5115 109.272L80.8788 108.635L87.4352 112.429L93.9916 108.635L94.359 109.272L87.4352 113.279Z" fill="#97B3D5"/>
<path d="M51.5019 112.279C58.3104 112.279 63.8297 109.084 63.8297 105.144C63.8297 101.203 58.3104 98.0088 51.5019 98.0088C44.6934 98.0088 39.1741 101.203 39.1741 105.144C39.1741 109.084 44.6934 112.279 51.5019 112.279Z" fill="#EBC5C4"/>
<path d="M149.556 70.9633L91.5855 104.515C90.9118 104.892 90.159 105.105 89.3878 105.137C88.6166 105.169 87.8487 105.019 87.1461 104.7L50.6762 83.5921C49.5383 82.9335 49.681 81.7831 50.9949 81.0226L108.966 47.4705C109.64 47.0939 110.392 46.881 111.164 46.849C111.935 46.8169 112.703 46.9666 113.405 47.286L149.875 68.3939C151.013 69.0525 150.87 70.2029 149.556 70.9633Z" fill="#C2D3E6"/>
<path d="M89.0791 105.515C88.3427 105.534 87.6137 105.363 86.9626 105.019L50.4924 83.9107C50.219 83.7797 49.9861 83.5771 49.8185 83.3244C49.6509 83.0717 49.5549 82.7784 49.5405 82.4756C49.5788 82.0948 49.7164 81.7308 49.9394 81.4198C50.1624 81.1088 50.4631 80.8618 50.8114 80.7034L108.782 47.151C109.511 46.7398 110.327 46.5085 111.163 46.4765C111.999 46.4445 112.831 46.6126 113.589 46.9669L150.059 68.0748C150.332 68.2058 150.565 68.4083 150.732 68.6609C150.9 68.9135 150.996 69.2067 151.011 69.5095C150.972 69.8902 150.835 70.2542 150.612 70.5652C150.389 70.8761 150.088 71.1232 149.74 71.2817L91.7692 104.834C90.9456 105.288 90.0193 105.522 89.0791 105.515ZM111.483 47.2124C110.669 47.2039 109.866 47.4022 109.149 47.7887L51.1788 81.341C50.6129 81.6685 50.2752 82.0924 50.2752 82.4755C50.2953 82.6477 50.3597 82.8117 50.4621 82.9515C50.5646 83.0912 50.7016 83.202 50.8597 83.2729L87.3299 104.381C87.9772 104.665 88.6813 104.796 89.3875 104.764C90.0937 104.732 90.783 104.538 91.4019 104.196L149.373 70.644L149.556 70.9628L149.373 70.644C149.938 70.3165 150.276 69.8926 150.276 69.5095C150.256 69.3374 150.191 69.1735 150.089 69.0337C149.987 68.894 149.849 68.7834 149.691 68.7125L113.222 47.6046C112.685 47.3282 112.086 47.1932 111.483 47.2124Z" fill="#6E8CBB"/>
<path d="M114.352 51.4438L57.8605 84.1396L54.908 82.4302L111.399 49.7354L114.352 51.4438Z" fill="#97B3D5"/>
<path d="M87.2543 90.1099L78.5085 95.1717C78.284 95.2973 78.033 95.3682 77.776 95.3789C77.5189 95.3896 77.2629 95.3397 77.0287 95.2332L71.0222 91.7568C70.6429 91.5373 70.6904 91.1538 71.1284 90.9003L79.8742 85.8385C80.0988 85.7129 80.3497 85.642 80.6068 85.6313C80.8638 85.6206 81.1198 85.6705 81.354 85.777L87.3606 89.2534C87.7399 89.4729 87.6923 89.8564 87.2543 90.1099Z" fill="#97B3D5"/>
<path d="M79.3086 82.6136L67.2664 89.5834L66.5288 89.1563L78.5709 82.1865L79.3086 82.6136Z" fill="#97B3D5"/>
<path d="M97.2263 92.9837L85.1832 99.9535L84.4456 99.5264L96.4877 92.5566L97.2263 92.9837Z" fill="#97B3D5"/>
<path d="M109.566 88.4369L87.4266 101.251L86.689 100.824L108.828 88.0098L109.566 88.4369Z" fill="#97B3D5"/>
<path d="M109.766 65.8396L82.8205 81.4347L81.3452 80.5805L108.291 64.9854L109.766 65.8396Z" fill="#97B3D5"/>
<path d="M101.388 75.0964L86.6271 83.6384L85.1519 82.7842L99.9114 74.2422L101.388 75.0964Z" fill="#97B3D5"/>
<path d="M112.574 73.028L90.4347 85.8421L88.9585 84.9879L111.098 72.1738L112.574 73.028Z" fill="#97B3D5"/>
<path d="M58.6755 88.4404L58.3081 87.8027L121.042 51.4941L121.409 52.1319L58.6755 88.4404Z" fill="#6E8CBB"/>
<path fill-rule="evenodd" clip-rule="evenodd" d="M124.089 65.001C125.055 64.5258 126.121 64.2945 127.197 64.3273C128.272 64.36 129.323 64.6559 130.257 65.1889C130.489 65.3229 130.674 65.44 130.82 65.5421C131.147 65.5292 131.467 65.6376 131.718 65.8465C132.354 66.3225 132.391 66.5668 132.205 66.692C132.809 67.1292 133.179 68.0072 133.017 68.289L134.153 68.9466C134.883 69.0583 135.628 69.0048 136.334 68.7901L138.047 68.2834C139.632 67.7294 141.363 67.7656 142.922 68.3856C141.109 69.9459 139.151 71.3292 137.075 72.5165C134.787 73.8286 132.401 74.9602 129.937 75.9009C128.587 74.8663 129.076 73.9093 129.76 73.0801L130.636 72.0881C130.809 71.9333 130.928 71.7277 130.977 71.5008C131.026 71.2739 131.001 71.0375 130.907 70.8255L129.77 70.1679C128.828 70.2079 127.887 70.0478 127.011 69.6981C126.795 69.8059 126.373 69.7845 125.55 69.4163C125.094 69.2121 124.995 69.0324 125.024 68.8965C124.813 68.7931 124.609 68.6846 124.414 68.5708C122.661 67.5562 122.304 66.0343 124.089 65.001Z" fill="#6E8CBB"/>
</svg>
