<svg width="192" height="192" viewBox="0 0 192 192" fill="none" xmlns="http://www.w3.org/2000/svg">
<path d="M133.282 22.4961V169.511C133.282 170.479 133.091 171.437 132.72 172.331C132.35 173.226 131.807 174.038 131.122 174.722C130.438 175.407 129.625 175.949 128.731 176.32C127.836 176.69 126.878 176.88 125.91 176.88H66.09C64.1352 176.881 62.2603 176.104 60.8777 174.722C59.4952 173.34 58.7182 171.466 58.7178 169.511V22.4961C58.718 21.5282 58.9088 20.5698 59.2794 19.6756C59.65 18.7814 60.1931 17.969 60.8776 17.2847C61.5622 16.6004 62.3749 16.0576 63.2692 15.6874C64.1636 15.3172 65.1221 15.1267 66.09 15.127H74.2199C74.3688 15.1269 74.5163 15.1562 74.6539 15.2132C74.7914 15.2702 74.9165 15.3536 75.0218 15.4589C75.1271 15.5642 75.2106 15.6892 75.2676 15.8267C75.3246 15.9643 75.354 16.1117 75.354 16.2606V17.5177C75.354 18.0389 75.4568 18.555 75.6563 19.0366C75.8558 19.5181 76.1482 19.9556 76.5169 20.3241C76.8855 20.6926 77.3231 20.9848 77.8047 21.1842C78.2863 21.3836 78.8024 21.4861 79.3236 21.486H112.676C113.198 21.486 113.714 21.3835 114.195 21.1841C114.677 20.9847 115.114 20.6924 115.483 20.3239C115.851 19.9554 116.144 19.518 116.343 19.0365C116.543 18.555 116.646 18.0389 116.646 17.5177V16.2606C116.646 16.1117 116.675 15.9642 116.732 15.8266C116.789 15.689 116.873 15.564 116.978 15.4588C117.083 15.3535 117.208 15.27 117.346 15.2131C117.484 15.1561 117.631 15.1269 117.78 15.127H125.91C126.878 15.1267 127.836 15.3172 128.731 15.6874C129.625 16.0576 130.438 16.6004 131.122 17.2847C131.807 17.969 132.35 18.7814 132.72 19.6756C133.091 20.5698 133.282 21.5282 133.282 22.4961Z" fill="white"/>
<path d="M125.912 8.32129H66.0876C58.2594 8.32129 51.9133 14.6673 51.9133 22.4955V169.505C51.9133 177.333 58.2594 183.679 66.0876 183.679H125.912C133.741 183.679 140.087 177.333 140.087 169.505V22.4955C140.087 14.6673 133.741 8.32129 125.912 8.32129Z" fill="#8C8C8C"/>
<path d="M125.91 8.3209C129.669 8.32026 133.275 9.81298 135.933 12.4707C138.592 15.1284 140.086 18.7334 140.087 22.4927V169.507C140.086 173.266 138.592 176.871 135.933 179.529C133.275 182.187 129.669 183.679 125.91 183.679H66.0901C62.3308 183.679 58.7253 182.187 56.0667 179.529C53.408 176.871 51.914 173.266 51.9134 169.507V22.4926C51.914 18.7334 53.408 15.1284 56.0667 12.4707C58.7253 9.81298 62.3308 8.32026 66.0901 8.3209H125.91M125.91 7.34668H66.0901C62.0738 7.3505 58.223 8.94729 55.3826 11.7867C52.5421 14.6262 50.944 18.4764 50.9387 22.4926V169.507C50.944 173.523 52.5421 177.373 55.3826 180.213C58.223 183.052 62.0738 184.649 66.0901 184.653H125.91C129.926 184.649 133.777 183.052 136.617 180.213C139.458 177.373 141.056 173.523 141.061 169.507V22.4926C141.056 18.4764 139.458 14.6262 136.617 11.7868C133.777 8.94733 129.926 7.35053 125.91 7.34668H125.91Z" fill="#424242"/>
<path d="M133.282 22.4922V169.507C133.282 170.475 133.091 171.433 132.72 172.328C132.35 173.222 131.807 174.034 131.122 174.718C130.438 175.403 129.625 175.945 128.731 176.316C127.836 176.686 126.878 176.876 125.91 176.876H66.09C64.1352 176.877 62.2603 176.1 60.8777 174.718C59.4952 173.336 58.7182 171.462 58.7178 169.507V22.4922C58.718 21.5243 58.9088 20.5659 59.2794 19.6717C59.65 18.7775 60.1931 17.965 60.8776 17.2808C61.5622 16.5965 62.3749 16.0537 63.2692 15.6835C64.1636 15.3133 65.1221 15.1228 66.09 15.123H74.2199C74.3688 15.123 74.5163 15.1523 74.6539 15.2093C74.7914 15.2662 74.9164 15.3497 75.0218 15.455C75.1271 15.5603 75.2106 15.6853 75.2676 15.8228C75.3246 15.9604 75.354 16.1078 75.354 16.2567V17.5138C75.354 18.035 75.4568 18.5511 75.6563 19.0326C75.8558 19.5142 76.1482 19.9517 76.5169 20.3202C76.8855 20.6886 77.3231 20.9809 77.8047 21.1803C78.2863 21.3796 78.8024 21.4822 79.3236 21.482H112.676C113.198 21.4821 113.714 21.3795 114.195 21.1802C114.677 20.9808 115.114 20.6885 115.483 20.32C115.851 19.9515 116.144 19.514 116.343 19.0325C116.543 18.5511 116.646 18.035 116.646 17.5138V16.2567C116.646 16.1078 116.675 15.9603 116.732 15.8227C116.789 15.6851 116.873 15.5601 116.978 15.4549C117.083 15.3496 117.208 15.2661 117.346 15.2092C117.484 15.1522 117.631 15.123 117.78 15.123H125.91C126.878 15.1228 127.836 15.3133 128.731 15.6835C129.625 16.0537 130.438 16.5965 131.122 17.2808C131.807 17.9651 132.35 18.7775 132.72 19.6717C133.091 20.5659 133.282 21.5243 133.282 22.4922Z" fill="white"/>
<path d="M133.282 22.4922V39.1927H58.7178V22.4922C58.718 21.5243 58.9088 20.5659 59.2794 19.6717C59.65 18.7775 60.1931 17.965 60.8776 17.2808C61.5622 16.5965 62.3749 16.0537 63.2692 15.6835C64.1636 15.3133 65.1221 15.1228 66.09 15.123H74.2199C74.3688 15.123 74.5163 15.1523 74.6539 15.2093C74.7914 15.2662 74.9164 15.3497 75.0217 15.455C75.1271 15.5603 75.2106 15.6853 75.2676 15.8228C75.3246 15.9604 75.354 16.1078 75.354 16.2567V17.5138C75.354 18.035 75.4568 18.5511 75.6563 19.0326C75.8558 19.5142 76.1482 19.9517 76.5169 20.3202C76.8855 20.6886 77.3231 20.9809 77.8047 21.1803C78.2863 21.3796 78.8024 21.4822 79.3236 21.482H112.676C113.198 21.4821 113.714 21.3795 114.195 21.1802C114.677 20.9808 115.114 20.6885 115.483 20.32C115.851 19.9515 116.144 19.514 116.343 19.0325C116.543 18.5511 116.646 18.035 116.646 17.5138V16.2567C116.646 16.1078 116.675 15.9603 116.732 15.8227C116.789 15.6851 116.873 15.5601 116.978 15.4549C117.083 15.3496 117.208 15.2661 117.346 15.2092C117.484 15.1522 117.631 15.123 117.78 15.123H125.91C126.878 15.1228 127.836 15.3133 128.731 15.6835C129.625 16.0537 130.438 16.5965 131.122 17.2808C131.807 17.9651 132.35 18.7775 132.72 19.6717C133.091 20.5659 133.282 21.5243 133.282 22.4922Z" fill="#D1D1D1"/>
<path d="M133.282 157.12V169.507C133.282 170.475 133.091 171.434 132.72 172.328C132.35 173.222 131.807 174.034 131.122 174.719C130.438 175.403 129.625 175.946 128.731 176.316C127.836 176.686 126.878 176.877 125.91 176.877H66.09C64.1352 176.877 62.2603 176.101 60.8777 174.719C59.4952 173.337 58.7182 171.462 58.7178 169.507V157.12H133.282Z" fill="#D1D1D1"/>
<path d="M125.91 15.1232C126.878 15.123 127.836 15.3135 128.731 15.6837C129.625 16.0539 130.438 16.5967 131.122 17.281C131.807 17.9653 132.35 18.7777 132.72 19.6719C133.091 20.5661 133.282 21.5245 133.282 22.4924V169.507C133.282 170.475 133.091 171.434 132.72 172.328C132.35 173.222 131.807 174.034 131.122 174.719C130.438 175.403 129.625 175.946 128.731 176.316C127.836 176.686 126.878 176.877 125.91 176.876H66.09C64.1352 176.877 62.2603 176.101 60.8777 174.719C59.4952 173.337 58.7182 171.462 58.7177 169.507V22.4924C58.7179 21.5245 58.9088 20.566 59.2794 19.6718C59.6499 18.7777 60.193 17.9652 60.8776 17.2809C61.5622 16.5966 62.3749 16.0539 63.2692 15.6837C64.1635 15.3135 65.122 15.123 66.09 15.1232H74.2199C74.5206 15.1232 74.809 15.2426 75.0217 15.4552C75.2344 15.6678 75.3539 15.9561 75.3539 16.2568V17.514C75.354 18.0352 75.4567 18.5513 75.6562 19.0328C75.8558 19.5144 76.1482 19.9519 76.5168 20.3204C76.8854 20.6889 77.323 20.9811 77.8046 21.1805C78.2862 21.3798 78.8024 21.4824 79.3236 21.4822H112.676C113.198 21.4823 113.714 21.3798 114.195 21.1804C114.677 20.981 115.114 20.6887 115.483 20.3202C115.851 19.9517 116.144 19.5142 116.343 19.0327C116.543 18.5512 116.645 18.0352 116.646 17.514V16.2568C116.646 16.1079 116.675 15.9604 116.732 15.8229C116.789 15.6853 116.873 15.5603 116.978 15.455C117.083 15.3498 117.208 15.2663 117.346 15.2094C117.484 15.1524 117.631 15.1232 117.78 15.1232H125.91M125.91 14.3926H117.78C117.286 14.393 116.812 14.5895 116.462 14.939C116.112 15.2885 115.915 15.7624 115.915 16.2568V17.514C115.914 18.3724 115.572 19.1954 114.965 19.8024C114.358 20.4093 113.535 20.7507 112.676 20.7516H79.3236C78.4651 20.7507 77.642 20.4094 77.0348 19.8025C76.4277 19.1955 76.086 18.3725 76.0849 17.514V16.2568C76.0843 15.7625 75.8875 15.2886 75.5379 14.9391C75.1883 14.5896 74.7143 14.393 74.2199 14.3926H66.09C63.9421 14.3946 61.8827 15.2485 60.3636 16.767C58.8445 18.2854 57.9897 20.3445 57.9868 22.4924V169.507C57.9897 171.655 58.8445 173.714 60.3636 175.233C61.8827 176.751 63.9421 177.605 66.09 177.607H125.91C128.058 177.605 130.117 176.751 131.636 175.233C133.155 173.714 134.01 171.655 134.013 169.507V22.4924C134.01 20.3446 133.155 18.2855 131.636 16.7671C130.117 15.2486 128.058 14.3946 125.91 14.3926H125.91Z" fill="#424242"/>
<path d="M121.469 50.0557H61.7139V142.079H121.469V50.0557Z" fill="white" stroke="#D1D1D1" stroke-width="0.75" stroke-miterlimit="10"/>
<path d="M108.323 59.6162H68.8845V62.0064H108.323V59.6162Z" fill="#D1D1D1"/>
<path d="M95.1769 65.5918H68.8845V67.982H95.1769V65.5918Z" fill="#D1D1D1"/>
<path d="M101.152 71.5674H68.8845V73.9576H101.152V71.5674Z" fill="#D1D1D1"/>
<path d="M104.14 130.128H79.043V132.518H104.14V130.128Z" fill="#D1D1D1"/>
<path d="M67.7827 77.7061H127.973C128.673 77.7061 129.345 77.9842 129.84 78.4794C130.335 78.9745 130.613 79.6461 130.613 80.3464V117.665C130.613 118.365 130.335 119.037 129.84 119.532C129.345 120.027 128.673 120.305 127.973 120.305H67.7831C67.0829 120.305 66.4113 120.027 65.9162 119.532C65.421 119.037 65.1428 118.365 65.1428 117.665V80.3459C65.1428 79.6458 65.421 78.9743 65.916 78.4793C66.4111 77.9842 67.0825 77.7061 67.7827 77.7061Z" fill="white" stroke="#D1D1D1" stroke-width="0.75" stroke-miterlimit="10"/>
<path d="M127.038 81.3359H68.7178V84.3824H127.038V81.3359Z" fill="#B1B1B1"/>
<path d="M78.6224 97.2568H69.4795C69.0588 97.2568 68.7178 97.5979 68.7178 98.0186V104.111C68.7178 104.532 69.0588 104.873 69.4795 104.873H78.6224C79.0431 104.873 79.3842 104.532 79.3842 104.111V98.0186C79.3842 97.5979 79.0431 97.2568 78.6224 97.2568Z" fill="#E9CA8F"/>
<path d="M81.15 93.3281H68.7178V94.0897H81.15V93.3281Z" fill="#B1B1B1"/>
<path d="M81.15 111.818H68.7178V112.58H81.15V111.818Z" fill="#B1B1B1"/>
<path d="M91.5744 114.133H68.7178V114.894H91.5744V114.133Z" fill="#B1B1B1"/>
<path d="M111.832 93.3281H84.0137V94.8514H111.832V93.3281Z" fill="#B1B1B1"/>
<path d="M99.2514 97.2568H84.0137V98.7801H99.2514V97.2568Z" fill="#B1B1B1"/>
<path d="M106.87 101.186H84.0137V102.709H106.87V101.186Z" fill="#B1B1B1"/>
<path d="M130.315 88.1523H65.3347V88.6395H130.315V88.1523Z" fill="#D1D1D1"/>
<path fill-rule="evenodd" clip-rule="evenodd" d="M119.974 101.494C120.395 101.505 120.81 101.602 121.193 101.779C121.576 101.956 121.919 102.208 122.201 102.522C122.483 102.835 122.699 103.203 122.834 103.602C122.97 104.001 123.023 104.424 122.99 104.844C122.99 105.083 122.981 105.283 122.965 105.45C123.102 105.556 123.211 105.767 123.157 106.184C123.061 106.937 122.863 107.174 122.655 107.189C122.544 107.902 122.189 108.554 121.649 109.032V110.205C121.929 110.683 122.382 111.036 122.915 111.191L124.251 111.623C124.872 111.76 125.437 112.082 125.87 112.548C126.304 113.013 126.585 113.6 126.676 114.229C122.252 115.117 117.695 115.117 113.271 114.229C113.363 113.6 113.644 113.014 114.077 112.548C114.51 112.082 115.074 111.76 115.695 111.623L117.032 111.191C117.565 111.037 118.018 110.684 118.298 110.205V109.032C117.759 108.554 117.403 107.902 117.293 107.189C117.085 107.174 116.886 106.937 116.79 106.184C116.736 105.767 116.846 105.556 116.982 105.45C116.965 105.248 116.957 105.047 116.957 104.844C116.924 104.424 116.977 104.001 117.113 103.602C117.249 103.203 117.464 102.835 117.746 102.522C118.028 102.208 118.371 101.955 118.754 101.779C119.137 101.602 119.552 101.505 119.974 101.494Z" fill="#8C8C8C"/>
</svg>
