<svg width="192" height="192" viewBox="0 0 192 192" fill="none" xmlns="http://www.w3.org/2000/svg">
<path d="M185.143 125.209L114.145 166.108L6.85718 104.302L77.8551 63.4033L185.143 125.209Z" fill="white"/>
<path d="M114.146 166.53L113.962 166.424L6.12256 104.302L77.8547 62.9795L78.0384 63.0854L185.878 125.208L114.146 166.53ZM7.59195 104.302L114.146 165.684L184.408 125.208L77.8547 63.8261L7.59195 104.302Z" fill="#D1D1D1"/>
<path d="M86.8458 75.8537L28.4709 109.482L24.5261 107.209L82.902 73.5811L86.8458 75.8537Z" fill="#D1D1D1"/>
<path d="M155.871 129.249L132.205 142.883L128.261 140.611L151.927 126.978L155.871 129.249Z" fill="#D1D1D1"/>
<path d="M78.9071 93.0939L39.4639 115.816L35.52 113.543L74.9633 90.8213L78.9071 93.0939Z" fill="#D1D1D1"/>
<path d="M173.555 85.6337V91.542C173.551 92.4318 173.259 93.2963 172.723 94.0069C172.148 94.791 171.405 95.4365 170.548 95.8961L132.751 117.666C130.209 118.974 127.36 119.571 124.507 119.394C121.312 119.317 118.181 118.477 115.377 116.943L36.5203 71.5267L26.7186 65.873C23.9123 64.252 22.4758 62.1756 22.4758 60.2195V54.3115C22.5081 55.4174 22.9045 56.4817 23.6035 57.3393C23.7887 57.5813 23.9859 57.8138 24.1945 58.036C24.5391 58.4044 24.9166 58.7407 25.3222 59.0407C25.6041 59.255 25.8998 59.4694 26.2217 59.6704C26.383 59.7641 26.5442 59.8712 26.7186 59.9651L115.377 111.035C116.393 111.608 117.463 112.079 118.572 112.441C119.337 112.695 120.117 112.901 120.908 113.058C121.698 113.219 122.496 113.336 123.298 113.406C123.701 113.446 124.104 113.473 124.507 113.486C126.433 113.565 128.359 113.339 130.213 112.816C131.1 112.57 131.952 112.215 132.751 111.758L170.548 89.9878C170.738 89.8827 170.922 89.7664 171.098 89.6396C171.439 89.4255 171.754 89.1739 172.038 88.8893C172.173 88.7553 172.293 88.6214 172.414 88.4875C173.135 87.7104 173.542 86.6935 173.555 85.6337Z" fill="#666666"/>
<path d="M22.4759 54.3116C22.5082 55.4175 22.9046 56.4819 23.6036 57.3395C23.7888 57.5814 23.9861 57.8139 24.1946 58.0361C24.5393 58.4045 24.9167 58.7408 25.3223 59.0409C25.6042 59.2552 25.8998 59.4695 26.2217 59.6704C26.383 59.7642 26.5443 59.8713 26.7187 59.9651L115.377 111.035C116.393 111.608 117.463 112.08 118.572 112.441C119.337 112.695 120.118 112.901 120.909 113.058C121.698 113.22 122.496 113.336 123.299 113.406C123.701 113.446 124.104 113.473 124.507 113.486C124.737 113.494 124.966 113.498 125.194 113.498C126.891 113.509 128.581 113.28 130.214 112.817C131.1 112.57 131.952 112.215 132.751 111.758L170.548 89.9879C170.738 89.8828 170.922 89.7665 171.098 89.6397C171.439 89.4256 171.754 89.174 172.038 88.8895C172.173 88.7554 172.293 88.6215 172.414 88.4876C173.135 87.7106 173.542 86.6936 173.555 85.6339V91.542C173.551 92.4319 173.259 93.2965 172.723 94.007C172.148 94.7912 171.405 95.4367 170.548 95.8962L132.751 117.666C130.412 118.884 127.801 119.482 125.165 119.405C124.947 119.405 124.727 119.401 124.507 119.394C121.312 119.318 118.181 118.477 115.377 116.943L36.5204 71.5268L26.7187 65.8733C23.9124 64.2523 22.4759 62.1758 22.4759 60.2197V54.3116ZM23.4555 54.3116H21.4963V60.2197C21.4963 62.6134 23.2209 64.9822 26.2279 66.7192L36.0302 72.373L114.887 117.789C117.828 119.409 121.117 120.295 124.474 120.371C124.707 120.378 124.937 120.382 125.165 120.382C127.973 120.459 130.754 119.815 133.243 118.512L171.038 96.7427C172.021 96.2118 172.872 95.4671 173.528 94.5635C174.18 93.6906 174.533 92.6312 174.535 91.5421V85.6339H172.576C172.562 86.4565 172.242 87.2444 171.678 87.8433C171.572 87.9603 171.465 88.0793 171.346 88.1984C171.113 88.4315 170.855 88.6376 170.576 88.8126L170.559 88.8238L170.534 88.8408C170.391 88.944 170.242 89.0389 170.088 89.125L132.261 110.912C131.531 111.329 130.751 111.653 129.941 111.878C128.397 112.314 126.799 112.53 125.194 112.52C124.977 112.52 124.759 112.517 124.54 112.509C124.16 112.497 123.775 112.471 123.396 112.433C122.626 112.367 121.861 112.255 121.104 112.1C120.353 111.952 119.613 111.756 118.887 111.516C117.838 111.175 116.826 110.73 115.865 110.188L27.2085 59.1187C27.0928 59.0559 27.0064 59.0022 26.9214 58.9502C26.8521 58.9077 26.7835 58.8657 26.715 58.8259C26.492 58.686 26.2374 58.5078 25.916 58.2634C25.5561 57.9976 25.221 57.6998 24.9149 57.3736C24.7324 57.18 24.5504 56.9653 24.3813 56.7453C23.813 56.0582 23.4876 55.2026 23.4556 54.3115L23.4555 54.3116Z" fill="#424242"/>
<path d="M173.555 85.6338C173.542 86.6936 173.135 87.7105 172.414 88.4875C172.293 88.6215 172.173 88.7554 172.038 88.8894C171.745 89.1637 171.431 89.4145 171.098 89.6397C170.922 89.7665 170.738 89.8827 170.548 89.9878L132.751 111.758C131.947 112.204 131.096 112.559 130.213 112.816C128.357 113.328 126.432 113.549 124.507 113.473C124.104 113.46 123.701 113.433 123.298 113.406C122.506 113.326 121.701 113.218 120.908 113.058C120.118 112.901 119.337 112.695 118.572 112.441C117.463 112.079 116.393 111.608 115.377 111.035L26.7186 59.9652C26.5443 59.8713 26.383 59.7642 26.2217 59.6704C25.8998 59.456 25.6041 59.2551 25.3222 59.0408C24.9287 58.7262 24.5523 58.3908 24.1945 58.036C23.9859 57.8139 23.7887 57.5814 23.6035 57.3394C22.9045 56.4818 22.5081 55.4175 22.4758 54.3116V54.2982C22.4758 52.6772 23.456 51.1097 25.4835 49.9442L63.2667 28.174C67.7245 25.6151 75.4987 25.9366 80.6545 28.8974L169.299 79.9669C172.119 81.588 173.555 83.6645 173.555 85.6338Z" fill="#8C8C8C"/>
<path d="M70.8106 26.4469C74.2464 26.4176 77.6334 27.2607 80.6545 28.8971L169.299 79.9667C172.119 81.5876 173.555 83.6642 173.555 85.6335C173.542 86.6933 173.135 87.7102 172.414 88.4873C172.293 88.6212 172.173 88.755 172.038 88.8891C171.745 89.1634 171.431 89.4142 171.098 89.6394C170.922 89.7662 170.738 89.8824 170.548 89.9875L132.751 111.758C131.947 112.203 131.096 112.558 130.213 112.816C128.58 113.269 126.891 113.494 125.196 113.484C124.967 113.484 124.737 113.48 124.507 113.473C124.104 113.459 123.701 113.432 123.298 113.406C122.506 113.325 121.701 113.218 120.908 113.057C120.118 112.901 119.337 112.695 118.572 112.441C117.463 112.079 116.393 111.608 115.377 111.034L26.7187 59.9648C26.5444 59.871 26.383 59.7639 26.2217 59.6701C25.8998 59.4558 25.6042 59.2549 25.3223 59.0406C24.9288 58.7259 24.5524 58.3905 24.1946 58.0358C23.9861 57.8136 23.7888 57.5811 23.6036 57.3392C22.9046 56.4815 22.5082 55.4172 22.4759 54.3113V54.2979C22.4759 52.6769 23.4561 51.1093 25.4835 49.9439L63.2668 28.1736C65.5942 26.9673 68.1902 26.3731 70.8106 26.4469M70.8109 25.4695C68.0192 25.3967 65.2548 26.0357 62.7783 27.3264L24.9936 49.0975C22.7387 50.3937 21.4963 52.2407 21.4963 54.2979C21.5283 55.6208 21.9942 56.8966 22.8223 57.9288C23.0287 58.1988 23.2487 58.4581 23.4814 58.7058C23.87 59.0928 24.2792 59.4585 24.7073 59.8013C25.019 60.0388 25.3182 60.2435 25.6781 60.4831L25.7028 60.4996L25.7285 60.5146L25.8955 60.6153C26.0115 60.6864 26.13 60.7585 26.2539 60.8253L114.887 111.881C115.96 112.488 117.091 112.986 118.262 113.368C119.065 113.635 119.884 113.851 120.713 114.015C121.447 114.164 122.26 114.283 123.199 114.378L123.217 114.38L123.274 114.384C123.674 114.41 124.074 114.436 124.475 114.45C124.716 114.457 124.956 114.461 125.196 114.462C126.982 114.47 128.762 114.232 130.484 113.756C131.441 113.476 132.365 113.09 133.237 112.606L171.038 90.8339C171.249 90.7173 171.453 90.5884 171.649 90.4478C172.026 90.1928 172.382 89.9082 172.714 89.5969C172.875 89.4365 173.005 89.2934 173.135 89.1497C174.02 88.1908 174.518 86.9383 174.535 85.6335C174.535 83.2282 172.805 80.8539 169.788 79.1198L81.1444 28.0507C77.9734 26.3308 74.4182 25.4427 70.8109 25.4695Z" fill="#424242"/>
<path d="M30.2406 57.1929L120.184 109.006C121.581 109.713 123.126 110.082 124.692 110.082C126.259 110.082 127.803 109.713 129.201 109.006L165.786 87.9301C168.277 86.4956 168.277 84.1699 165.787 82.7356L75.8439 30.9224C74.4462 30.2151 72.9017 29.8466 71.3352 29.8467C69.7688 29.8467 68.2243 30.2153 66.8266 30.9227L61.8543 33.787C61.7706 33.8151 61.6979 33.8688 61.6463 33.9405C61.5948 34.0122 61.5671 34.0982 61.5671 34.1865C61.5671 34.2748 61.5948 34.3609 61.6463 34.4326C61.6979 34.5043 61.7706 34.558 61.8543 34.5861L62.6234 35.0291C63.9644 35.8016 63.9644 37.0538 62.6234 37.8263L42.2248 49.5772C41.4722 49.958 40.6406 50.1564 39.7971 50.1564C38.9537 50.1564 38.1221 49.9579 37.3695 49.577L36.6004 49.134C36.3853 49.0252 36.1477 48.9685 35.9067 48.9685C35.6656 48.9685 35.428 49.0253 35.213 49.1342L30.2407 51.9985C27.7505 53.4331 27.7505 55.7585 30.2406 57.1929Z" fill="white"/>
<path d="M71.3357 29.8464C72.9055 29.8158 74.4571 30.186 75.8439 30.9222L165.787 82.7353C168.277 84.1694 168.277 86.4953 165.786 87.9297L129.201 109.006C127.803 109.713 126.259 110.082 124.692 110.082C123.126 110.082 121.581 109.713 120.184 109.006L30.2406 57.1925C27.7505 55.7581 27.7505 53.4327 30.2407 51.9984L35.213 49.1339C35.428 49.025 35.6656 48.9683 35.9066 48.9683C36.1477 48.9682 36.3853 49.0249 36.6004 49.1336L37.3695 49.5768C38.1221 49.9577 38.9537 50.1561 39.7971 50.1561C40.6406 50.1561 41.4722 49.9577 42.2248 49.5768L62.6234 37.8259C63.9643 37.0534 63.9644 35.8014 62.6234 35.0289L61.8543 34.5858C61.7706 34.5577 61.6979 34.504 61.6463 34.4323C61.5948 34.3606 61.567 34.2745 61.567 34.1862C61.567 34.0979 61.5948 34.0118 61.6463 33.9402C61.6979 33.8685 61.7706 33.8148 61.8543 33.7866L66.8266 30.9224C68.2136 30.1861 69.7656 29.8157 71.3357 29.8464ZM71.3357 29.1131C69.6365 29.0806 67.9573 29.485 66.4592 30.2877L61.487 33.1519C61.2912 33.2447 61.1257 33.3911 61.0098 33.5742C60.8939 33.7573 60.8324 33.9695 60.8324 34.1862C60.8324 34.4029 60.8939 34.6151 61.0097 34.7982C61.1256 34.9814 61.2911 35.1278 61.4869 35.2206L62.256 35.6637C62.6558 35.894 62.8944 36.1796 62.8944 36.4273C62.8944 36.6752 62.6558 36.9609 62.256 37.1909L41.8574 48.9421C41.2167 49.2586 40.5117 49.4232 39.7971 49.4231C39.0825 49.4231 38.3775 49.2584 37.7368 48.9418L36.9678 48.4989C36.641 48.3258 36.2767 48.2352 35.9068 48.2352C35.5369 48.2352 35.1727 48.3258 34.8458 48.4989L29.8734 51.3636C29.2166 51.6114 28.6509 52.0534 28.2516 52.6308C27.8523 53.2082 27.6384 53.8935 27.6384 54.5955C27.6384 55.2974 27.8523 55.9827 28.2516 56.5601C28.6508 57.1375 29.2165 57.5795 29.8733 57.8273L119.816 109.64C121.326 110.412 122.997 110.815 124.692 110.815C126.387 110.815 128.059 110.412 129.568 109.64L166.154 88.5645C166.811 88.3167 167.376 87.8747 167.776 87.2973C168.175 86.7199 168.389 86.0346 168.389 85.3326C168.389 84.6306 168.175 83.9453 167.776 83.3678C167.377 82.7904 166.811 82.3483 166.154 82.1004L76.2112 30.2874C74.7134 29.4851 73.0346 29.0807 71.3357 29.1132V29.1131Z" fill="#424242"/>
<path d="M144.15 73.1153L104.229 96.1132L43.9006 61.3602L83.8219 38.3623L144.15 73.1153Z" fill="white"/>
<path d="M104.229 96.536L43.1653 61.3596L83.8222 37.9385L144.885 73.1148L104.229 96.536ZM44.6347 61.3596L104.229 95.6893L143.416 73.1148L83.8221 38.7851L44.6347 61.3596Z" fill="#D1D1D1"/>
<path d="M88.8784 45.3633L56.0532 64.2724L53.8354 62.995L86.6596 44.0859L88.8784 45.3633Z" fill="#D1D1D1"/>
<path d="M127.691 75.3877L114.383 83.054L112.165 81.7766L125.473 74.1104L127.691 75.3877Z" fill="#D1D1D1"/>
<path d="M84.4146 55.0567L62.2356 67.8335L60.0168 66.5551L82.1958 53.7793L84.4146 55.0567Z" fill="#D1D1D1"/>
<path d="M46.8609 64.8592L40.5984 61.2524L46.8609 57.6445L47.2283 58.2793L42.0678 61.2524L47.2283 64.2244L46.8609 64.8592Z" fill="#97B3D5"/>
<path d="M89.1322 40.5086L83.6044 37.3249L78.0766 40.5086L77.7092 39.8738L83.6044 36.4775L89.4996 39.8738L89.1322 40.5086Z" fill="#97B3D5"/>
<path d="M142.013 77.3397L141.645 76.7049L146.806 73.7319L141.645 70.7588L142.013 70.124L148.275 73.7319L142.013 77.3397Z" fill="#97B3D5"/>
<path d="M105.269 98.5056L99.3738 95.1094L99.7411 94.4746L105.269 97.6593L110.797 94.4746L111.164 95.1094L105.269 98.5056Z" fill="#97B3D5"/>
<path d="M137.094 96.113C142.863 96.113 147.54 93.4187 147.54 90.0951C147.54 86.7715 142.863 84.0771 137.094 84.0771C131.324 84.0771 126.647 86.7715 126.647 90.0951C126.647 93.4187 131.324 96.113 137.094 96.113Z" fill="#EBC5C4"/>
<path d="M92.6047 57.6183C90.8876 57.8404 89.2278 58.3846 87.7126 59.2225C83.5563 61.6168 83.5564 65.4971 87.7147 67.8926C89.2443 68.7285 90.916 69.2725 92.6445 69.4968L110.294 72.2284L105.569 62.0516C104.12 58.7674 98.3058 56.7838 92.6047 57.6183ZM97.591 64.9131C96.8618 65.2818 96.0561 65.4739 95.2389 65.4737C94.4218 65.4735 93.6161 65.2811 92.8871 64.9119C91.5887 64.1633 91.5895 62.9501 92.8889 62.2022C93.618 61.8332 94.4237 61.641 95.2409 61.641C96.058 61.641 96.8637 61.8332 97.5928 62.2022C98.8918 62.9505 98.8918 64.1637 97.5929 64.9119L97.591 64.9131Z" fill="#BD716D"/>
</svg>
