<svg width="192" height="192" viewBox="0 0 192 192" fill="none" xmlns="http://www.w3.org/2000/svg">
<path d="M165.76 115.909L83.6984 163.196C82.7439 163.727 81.6784 164.027 80.5871 164.072C79.4959 164.117 78.4092 163.906 77.4141 163.456L25.7886 133.707C24.1778 132.779 24.3798 131.158 26.2398 130.086L108.301 82.7989C109.256 82.2681 110.321 81.9681 111.413 81.923C112.504 81.8778 113.591 82.0888 114.586 82.5389L166.211 112.288C167.822 113.216 167.62 114.837 165.76 115.909Z" fill="white" stroke="#D1D1D1" stroke-width="0.75" stroke-miterlimit="10"/>
<path d="M157.632 113.467L79.2811 158.616L77.1917 157.411L155.542 112.263L157.632 113.467Z" fill="#B1B1B1"/>
<path d="M152.99 110.793L74.6398 155.941L72.5503 154.737L150.901 109.589L152.99 110.793Z" fill="#B1B1B1"/>
<path d="M148.348 108.118L69.9987 153.266L67.9092 152.062L146.26 106.914L148.348 108.118Z" fill="#B1B1B1"/>
<path d="M75.4569 108.149L33.6695 132.229L32.6252 131.626L74.4117 107.547L75.4569 108.149Z" fill="#B1B1B1"/>
<path d="M84.81 106.315L36.7552 134.006L35.7109 133.404L83.7658 105.713L84.81 106.315Z" fill="#B1B1B1"/>
<path d="M71.0457 117.804L39.7056 135.862L38.6604 135.261L70.0005 117.201L71.0457 117.804Z" fill="#B1B1B1"/>
<path d="M68.9082 122.591L42.7913 137.64L41.7461 137.039L67.863 121.989L68.9082 122.591Z" fill="#B1B1B1"/>
<path d="M63.9633 138.133C60.7678 138.224 57.6023 137.495 54.7681 136.016L10.1671 110.32C9.0932 109.742 8.16256 108.93 7.44352 107.945C6.75323 107.024 6.37787 105.906 6.37305 104.755V97.7815H7.35264C7.3709 98.9179 7.80717 100.008 8.57811 100.843C9.16977 101.509 9.87205 102.068 10.654 102.496L16.2331 105.706L55.2589 128.194C57.9437 129.587 60.94 130.271 63.9633 130.18C64.2168 130.18 64.4713 130.176 64.7267 130.168C68.4159 130.075 72.0301 129.106 75.2707 127.341L77.272 126.184H77.2864L78.6802 125.378H78.6964L151.403 83.4732L162.114 77.3057L176.788 68.8434H176.802L178.098 68.0876L179.891 67.0583C181.251 66.3151 182.45 65.3105 183.421 64.1023C184.18 63.1684 184.612 62.0121 184.652 60.8096H185.632V67.7834C185.632 70.3663 183.717 72.9531 180.38 74.8807L168.813 81.5541L75.7605 135.163C72.3847 137.02 68.6104 138.035 64.7582 138.122C64.4913 138.129 64.2264 138.133 63.9633 138.133Z" fill="#666666"/>
<path d="M185.142 60.8096V67.7832C185.142 70.0922 183.446 72.5432 180.135 74.4566L168.568 81.1301L75.5156 134.739C72.2068 136.549 68.5126 137.541 64.7419 137.632C64.4823 137.64 64.2234 137.644 63.9652 137.644C60.855 137.736 57.7731 137.03 55.0133 135.593L10.4122 109.895C9.40085 109.353 8.52376 108.591 7.84526 107.665C7.21311 106.827 6.86864 105.806 6.8631 104.756V97.7818C6.8791 99.0374 7.35868 100.243 8.20962 101.166C8.83633 101.875 9.58166 102.468 10.4122 102.921L15.9894 106.131L55.0134 128.618C57.7729 130.056 60.8546 130.762 63.9646 130.67C64.223 130.67 64.4821 130.666 64.7419 130.658C68.5126 130.568 72.2068 129.575 75.5156 127.765L77.1793 126.8L77.4014 126.673H77.4172L78.8113 125.867H78.8272L147.939 86.0323L151.647 83.8974L162.358 77.7301L176.918 69.3329H176.934L178.344 68.5108L180.135 67.4828C181.553 66.7093 182.802 65.661 183.811 64.3992C184.636 63.3811 185.104 62.1197 185.142 60.8096M186.121 60.8096H184.162C184.121 61.9054 183.724 62.958 183.03 63.8073C182.099 64.9624 180.95 65.9226 179.647 66.633L177.857 67.6613L176.64 68.3706L176.429 68.4843L161.868 76.8815L151.158 83.0485L147.45 85.1834L78.565 124.887H78.5642L78.3207 125.019L77.116 125.716L76.9161 125.822L76.6941 125.949L75.0242 126.917C71.8534 128.643 68.3178 129.589 64.7091 129.679C64.4621 129.687 64.2131 129.691 63.9646 129.691C61.027 129.781 58.1149 129.12 55.5042 127.771L16.4785 105.283L10.901 102.072C10.1679 101.674 9.50919 101.152 8.95398 100.529C8.25804 99.7814 7.86237 98.8031 7.84273 97.7818H5.88354V104.756C5.88805 106.013 6.29797 107.235 7.05242 108.241C7.81191 109.28 8.79448 110.136 9.92806 110.747L54.5244 136.441C57.4333 137.963 60.6836 138.714 63.9653 138.624C64.2331 138.624 64.5019 138.62 64.7717 138.611C68.7054 138.522 72.5594 137.485 76.006 135.586L169.057 81.9789L180.624 75.305C184.118 73.2864 186.121 70.5449 186.121 67.7832V60.8096L186.121 60.8096Z" fill="#292929"/>
<path d="M63.9775 131.151C60.7749 131.239 57.6025 130.511 54.7584 129.036L10.1593 103.34C9.28518 102.853 8.49827 102.223 7.83079 101.478C6.90503 100.466 6.38405 99.1488 6.36719 97.7775C6.36719 95.1832 8.28621 92.5926 11.6325 90.6688L116.243 30.3847C119.877 28.4123 123.953 27.3951 128.088 27.4287C131.272 27.3429 134.425 28.0685 137.252 29.5371L181.84 55.2323C184.286 56.6404 185.632 58.6159 185.632 60.796C185.592 62.2167 185.084 63.5844 184.188 64.6876C183.143 66.0053 181.843 67.0994 180.366 67.9048L75.7566 128.188C72.3754 130.038 68.5998 131.05 64.7467 131.139C64.4883 131.147 64.2329 131.151 63.9775 131.151Z" fill="#8C8C8C"/>
<path d="M128.089 27.9188C131.187 27.8319 134.257 28.5353 137.008 29.9627L181.595 55.6574C183.982 57.0306 185.143 58.8759 185.143 60.7964C185.103 62.1097 184.631 63.3732 183.799 64.3903C182.792 65.6554 181.542 66.706 180.123 67.4801L75.5119 127.764C72.1985 129.569 68.5026 130.558 64.7305 130.65C64.4786 130.657 64.2275 130.661 63.9772 130.661C60.8602 130.75 57.7718 130.044 55.0024 128.611L10.4043 102.916C9.57674 102.457 8.83192 101.862 8.2007 101.157C7.35017 100.235 6.87144 99.0314 6.85703 97.7774C6.85703 95.4601 8.55523 93.0034 11.8768 91.0937L116.488 30.8101C120.047 28.8782 124.039 27.8832 128.089 27.9188ZM128.089 26.9392C123.868 26.9063 119.708 27.9462 115.999 29.9613L11.3878 90.2449C7.88619 92.258 5.87744 95.0036 5.87744 97.7774C5.89359 99.2687 6.45845 100.702 7.46414 101.803C8.16664 102.589 8.99521 103.252 9.91581 103.766L54.5134 129.46C57.432 130.978 60.6887 131.728 63.9772 131.64C64.2373 131.64 64.4981 131.636 64.7594 131.629C68.6938 131.538 72.5488 130.503 76.0004 128.613L180.612 68.3289C182.146 67.4909 183.495 66.3528 184.58 64.9825C185.54 63.7946 186.082 62.3234 186.122 60.7964C186.122 58.4334 184.688 56.3067 182.084 54.8083L137.497 29.1139C134.597 27.6019 131.359 26.8535 128.089 26.9392Z" fill="#292929"/>
<path d="M64.5191 127.008C62.602 127.046 60.707 126.592 59.0156 125.689L15.8428 100.811C15.1444 100.562 14.5401 100.103 14.1127 99.4975C13.6854 98.8915 13.4561 98.1682 13.4561 97.4267C13.4561 96.6852 13.6854 95.9619 14.1127 95.356C14.5401 94.75 15.1444 94.2911 15.8428 94.0421L121.978 32.8837C123.684 32.0171 125.569 31.5654 127.482 31.5654C129.395 31.5654 131.281 32.0171 132.986 32.8837L138.853 36.2644C139.009 36.3302 139.141 36.4402 139.234 36.5808C139.327 36.7214 139.377 36.8863 139.377 37.0549C139.376 37.2235 139.327 37.3883 139.233 37.5288C139.14 37.6693 139.008 37.7792 138.852 37.8448L137.945 38.368C137.676 38.4826 137.442 38.6659 137.266 38.8996C137.09 39.1334 136.979 39.4093 136.943 39.6997C136.978 39.9902 137.09 40.2664 137.266 40.5003C137.442 40.7342 137.676 40.9177 137.945 41.0323L162.017 54.9034C162.849 55.3213 163.767 55.5388 164.698 55.5386C165.629 55.5385 166.547 55.3206 167.379 54.9025L168.286 54.3801C168.596 54.2192 168.94 54.1352 169.289 54.1352C169.638 54.1352 169.981 54.2192 170.291 54.3801L176.158 57.7609C176.822 58.0604 177.394 58.5322 177.814 59.1274C178.234 59.7226 178.486 60.4195 178.546 61.1454C178.486 61.8714 178.234 62.5683 177.814 63.1635C177.394 63.7587 176.822 64.2305 176.158 64.53L70.0236 125.689C68.3317 126.592 66.4365 127.046 64.5191 127.008Z" fill="white"/>
<path d="M127.481 31.9322C129.334 31.8961 131.165 32.3333 132.802 33.2024L138.67 36.5833C138.768 36.6165 138.854 36.6799 138.915 36.7645C138.976 36.8492 139.009 36.9507 139.009 37.055C139.009 37.1592 138.976 37.2608 138.915 37.3454C138.854 37.43 138.768 37.4934 138.67 37.5266L137.762 38.0495C136.18 38.9614 136.18 40.4394 137.762 41.3512L161.833 55.2219C162.721 55.6714 163.702 55.9056 164.698 55.9055C165.693 55.9055 166.674 55.6712 167.562 55.2216L168.47 54.6987C168.724 54.5703 169.004 54.5034 169.289 54.5035C169.573 54.5035 169.853 54.5705 170.107 54.699L175.975 58.08C178.913 59.7732 178.913 62.5181 175.975 64.2114L69.8393 125.371C68.1901 126.206 66.3676 126.641 64.5191 126.641C62.6707 126.641 60.8482 126.206 59.199 125.371L16.0266 100.493C13.0881 98.7997 13.0881 96.0544 16.0261 94.3614L122.161 33.202C123.798 32.3331 125.629 31.8961 127.481 31.9322ZM127.481 31.1975C125.5 31.159 123.542 31.6301 121.795 32.5655L15.6593 93.7248C14.9042 94.0061 14.2533 94.5116 13.7937 95.1734C13.3341 95.8352 13.0878 96.6216 13.0879 97.4274C13.0879 98.2331 13.3343 99.0195 13.794 99.6812C14.2537 100.343 14.9047 100.848 15.6598 101.13L58.8322 126.007C60.593 126.906 62.542 127.375 64.5191 127.375C66.4963 127.375 68.4452 126.907 70.2061 126.007L176.341 64.8479C177.063 64.5182 177.682 64.0005 178.134 63.3492C178.587 62.6978 178.856 61.9368 178.913 61.1458C178.856 60.3547 178.587 59.5937 178.134 58.9423C177.682 58.2909 177.063 57.7732 176.341 57.4434L170.474 54.0623C170.109 53.8696 169.702 53.7688 169.289 53.7688C168.875 53.7687 168.469 53.8694 168.103 54.0621L167.196 54.585C166.419 54.9703 165.564 55.1708 164.698 55.1708C163.831 55.1709 162.976 54.9705 162.2 54.5854L138.129 40.7147C137.608 40.4148 137.31 40.045 137.31 39.7004C137.31 39.3557 137.608 38.9859 138.129 38.686L139.036 38.1632C139.248 38.065 139.426 37.9086 139.551 37.7122C139.677 37.5159 139.743 37.2878 139.743 37.055C139.743 36.8221 139.677 36.594 139.551 36.3977C139.426 36.2013 139.248 36.0449 139.036 35.9467L133.169 32.5657C131.421 31.6302 129.463 31.159 127.481 31.1975H127.481Z" fill="#292929"/>
<path d="M156.145 72.8863L162.884 69.0022L156.145 65.1182" stroke="#97B3D5" stroke-width="0.75" stroke-miterlimit="10"/>
<path d="M106.264 44.1419L113.004 40.2588L119.743 44.1419" stroke="#97B3D5" stroke-width="0.75" stroke-miterlimit="10"/>
<path d="M44.297 79.8496L37.5574 83.7327L44.297 87.6168" stroke="#97B3D5" stroke-width="0.75" stroke-miterlimit="10"/>
<path d="M94.1789 108.593L87.4383 112.477L80.6987 108.593" stroke="#97B3D5" stroke-width="0.75" stroke-miterlimit="10"/>
<path d="M49.8849 110.151C56.6931 110.151 62.2123 106.971 62.2123 103.048C62.2123 99.1247 56.6931 95.9443 49.8849 95.9443C43.0768 95.9443 37.5576 99.1247 37.5576 103.048C37.5576 106.971 43.0768 110.151 49.8849 110.151Z" fill="#EBC5C4"/>
<path d="M151.34 70.5766L93.6966 103.793C93.0261 104.166 92.2776 104.377 91.5111 104.408C90.7445 104.44 89.9812 104.292 89.2822 103.976L53.0183 83.079C51.8868 82.427 52.0287 81.2881 53.3352 80.5352L110.979 47.3187C111.649 46.9459 112.398 46.7351 113.164 46.7034C113.931 46.6717 114.694 46.8199 115.393 47.1361L151.657 68.0328C152.789 68.6848 152.647 69.8237 151.34 70.5766Z" fill="#C2D3E6" stroke="#6E8CBB" stroke-width="0.75" stroke-miterlimit="10"/>
<path d="M118.626 53.2271L101.085 63.3346L95.2898 59.9951L112.83 49.8877L118.626 53.2271Z" fill="#97B3D5"/>
<path d="M145.63 68.862L90.5934 100.576L89.126 99.7299L144.162 68.0156L145.63 68.862Z" fill="#97B3D5"/>
<path d="M142.37 66.9831L87.3334 98.6974L85.866 97.852L140.902 66.1377L142.37 66.9831Z" fill="#97B3D5"/>
<path d="M139.11 65.1042L84.0734 96.8185L82.605 95.9731L137.642 64.2588L139.11 65.1042Z" fill="#97B3D5"/>
<path d="M87.9065 65.1253L58.554 82.0399L57.8203 81.6168L87.1728 64.7031L87.9065 65.1253Z" fill="#97B3D5"/>
<path d="M94.4775 63.8372L60.7218 83.289L59.988 82.8658L93.7438 63.415L94.4775 63.8372Z" fill="#97B3D5"/>
<path d="M84.8091 71.9076L62.7938 84.5933L62.0601 84.1701L84.0744 71.4844L84.8091 71.9076Z" fill="#97B3D5"/>
<path d="M83.3073 75.2699L64.9615 85.8416L64.2278 85.4184L82.5736 74.8477L83.3073 75.2699Z" fill="#97B3D5"/>
</svg>
