<svg width="1024" height="1024" viewBox="0 0 1024 1024" fill="none" xmlns="http://www.w3.org/2000/svg">
<g clip-path="url(#clip0_6198_3295)">
<mask id="mask0_6198_3295" style="mask-type:luminance" maskUnits="userSpaceOnUse" x="0" y="0" width="1024" height="1024">
<path d="M1024 0H0V1024H1024V0Z" fill="white"/>
</mask>
<g mask="url(#mask0_6198_3295)">
<path d="M1024 0H0V1024H1024V0Z" fill="#0D2B49"/>
<path d="M1024 821H0V1126H1024V821Z" fill="white"/>
<path d="M630 821H-15V1126H630V821Z" fill="#317641"/>
<path d="M703.994 968V876.86H735.774C754.674 876.86 769.654 881.9 769.654 899.54C769.654 907.52 765.174 916.34 757.754 919.14V919.7C766.994 922.22 774.134 928.94 774.134 941.12C774.134 959.74 758.174 968 738.434 968H703.994ZM725.834 913.12H734.934C744.314 913.12 748.374 909.06 748.374 902.76C748.374 896.18 744.034 893.52 735.074 893.52H725.834V913.12ZM725.834 951.34H736.754C747.394 951.34 752.854 947.42 752.854 939.72C752.854 932.02 747.534 929.08 736.754 929.08H725.834V951.34ZM789.033 968V876.86H846.713V895.06H810.873V912.14H841.533V930.34H810.873V949.8H848.113V968H789.033Z" fill="#0D2B49"/>
<path d="M197.23 968V876.86H223.41C251.27 876.86 269.61 890.44 269.61 922.08C269.61 953.58 251.27 968 224.67 968H197.23ZM219.07 950.5H222.15C236.85 950.5 247.35 943.64 247.35 922.08C247.35 900.38 236.85 894.36 222.15 894.36H219.07V950.5ZM315.524 968L288.784 876.86H311.744L321.684 918.44C324.204 928.38 326.164 937.62 328.824 947.56H329.384C332.044 937.62 334.004 928.38 336.524 918.44L347.444 876.86H369.564L341.704 968H315.524ZM394.28 968V876.86H416.12V949.8H451.54V968H394.28ZM482.825 968V876.86H514.885C534.905 876.86 551.285 884 551.285 906.4C551.285 928.24 534.625 937.76 515.445 937.76H504.665V968H482.825ZM504.665 920.54H514.185C524.965 920.54 530.005 915.5 530.005 906.4C530.005 897.3 524.265 894.08 513.625 894.08H504.665V920.54Z" fill="white"/>
<path fill-rule="evenodd" clip-rule="evenodd" d="M294 648V635.557H310.28C328.581 635.557 341.559 629.389 349.221 617.062C353.9 609.666 356.246 593.077 356.246 567.296V272.711C356.246 244.239 353.27 226.414 347.31 219.243C339.01 209.382 326.669 204.443 310.288 204.443H294.007V192H470.195C534.882 192 584.085 199.731 617.812 215.207C651.538 230.676 678.668 256.457 699.199 292.551C719.731 328.645 730 370.346 730 417.647C730 481.094 711.699 534.111 675.104 576.707C634.034 624.233 571.476 648 487.431 648H294ZM417.522 615.048C444.543 621.324 467.204 624.466 485.505 624.466C534.867 624.466 575.829 606.197 608.39 569.652C640.943 533.107 657.223 483.566 657.223 421.015C657.223 358.463 640.943 308.362 608.39 272.042C575.836 235.723 534.02 217.563 482.955 217.563C463.807 217.563 441.994 220.814 417.522 227.316V615.048Z" fill="white"/>
</g>
</g>
<defs>
<clipPath id="clip0_6198_3295">
<rect width="1024" height="1024" fill="white"/>
</clipPath>
</defs>
</svg>
