<svg width="1024" height="1024" viewBox="0 0 1024 1024" fill="none" xmlns="http://www.w3.org/2000/svg">
<g clip-path="url(#clip0_6198_3303)">
<mask id="mask0_6198_3303" style="mask-type:luminance" maskUnits="userSpaceOnUse" x="0" y="0" width="1024" height="1024">
<path d="M1024 0H0V1024H1024V0Z" fill="white"/>
</mask>
<g mask="url(#mask0_6198_3303)">
<path d="M1024 0H0V1024H1024V0Z" fill="#0D2B49"/>
<path d="M1024 821H0V1126H1024V821Z" fill="white"/>
<path d="M630 821H-15V1126H630V821Z" fill="#DB640E"/>
<path d="M735.525 969.68C712.285 969.68 692.685 953.86 692.685 923.06C692.685 892.68 713.125 875.18 736.085 875.18C747.985 875.18 757.505 880.5 763.805 887.08L752.325 900.24C747.845 896.04 743.085 893.94 736.645 893.94C724.605 893.94 714.945 904.58 714.945 922.22C714.945 940.42 723.485 950.92 736.225 950.92C743.645 950.92 749.385 947.98 753.725 943.36L765.065 956.24C757.085 965.34 747.005 969.68 735.525 969.68ZM778.506 968V876.86H800.346V911.58H830.446V876.86H852.146V968H830.446V930.48H800.346V968H778.506Z" fill="#0D2B49"/>
<path d="M220.375 922.36L218.415 930.2H237.035L235.075 922.36C232.695 913.4 230.315 902.62 227.935 893.1H227.375C225.135 902.62 222.755 913.4 220.375 922.36ZM186.635 968L215.055 876.86H241.095L269.515 968H246.555L241.235 947H214.215L208.895 968H186.635ZM331.592 969.68C308.352 969.68 288.752 953.86 288.752 923.06C288.752 892.68 309.192 875.18 332.152 875.18C344.052 875.18 353.572 880.5 359.872 887.08L348.392 900.24C343.912 896.04 339.152 893.94 332.712 893.94C320.672 893.94 311.012 904.58 311.012 922.22C311.012 940.42 319.552 950.92 332.292 950.92C339.712 950.92 345.452 947.98 349.792 943.36L361.132 956.24C353.152 965.34 343.072 969.68 331.592 969.68ZM389.973 968V876.86H422.033C442.053 876.86 458.433 884 458.433 906.4C458.433 928.24 441.773 937.76 422.593 937.76H411.813V968H389.973ZM411.813 920.54H421.333C432.113 920.54 437.153 915.5 437.153 906.4C437.153 897.3 431.413 894.08 420.773 894.08H411.813V920.54ZM505.321 968V895.06H480.541V876.86H551.801V895.06H527.021V968H505.321Z" fill="white"/>
<path fill-rule="evenodd" clip-rule="evenodd" d="M294 648V635.557H310.28C328.581 635.557 341.559 629.389 349.221 617.062C353.9 609.666 356.246 593.077 356.246 567.296V272.711C356.246 244.239 353.27 226.414 347.31 219.243C339.01 209.382 326.669 204.443 310.288 204.443H294.007V192H470.195C534.882 192 584.085 199.731 617.812 215.207C651.538 230.676 678.668 256.457 699.199 292.551C719.731 328.645 730 370.346 730 417.647C730 481.094 711.699 534.111 675.104 576.707C634.034 624.233 571.476 648 487.431 648H294ZM417.522 615.048C444.543 621.324 467.204 624.466 485.505 624.466C534.867 624.466 575.829 606.197 608.39 569.652C640.943 533.107 657.223 483.566 657.223 421.015C657.223 358.463 640.943 308.362 608.39 272.042C575.836 235.723 534.02 217.563 482.955 217.563C463.807 217.563 441.994 220.814 417.522 227.316V615.048Z" fill="white"/>
</g>
</g>
<defs>
<clipPath id="clip0_6198_3303">
<rect width="1024" height="1024" fill="white"/>
</clipPath>
</defs>
</svg>
