<svg width="1024" height="1024" viewBox="0 0 1024 1024" fill="none" xmlns="http://www.w3.org/2000/svg">
<g clip-path="url(#clip0_6198_3305)">
<mask id="mask0_6198_3305" style="mask-type:luminance" maskUnits="userSpaceOnUse" x="0" y="0" width="1024" height="1024">
<path d="M1024 0H0V1024H1024V0Z" fill="white"/>
</mask>
<g mask="url(#mask0_6198_3305)">
<path d="M1024 0H0V1024H1024V0Z" fill="#0D2B49"/>
<path d="M1024 821H0V1126H1024V821Z" fill="white"/>
<path d="M630 821H-15V1126H630V821Z" fill="#C0002A"/>
<path d="M703.994 968V876.86H735.774C754.674 876.86 769.654 881.9 769.654 899.54C769.654 907.52 765.174 916.34 757.754 919.14V919.7C766.994 922.22 774.134 928.94 774.134 941.12C774.134 959.74 758.174 968 738.434 968H703.994ZM725.834 913.12H734.934C744.314 913.12 748.374 909.06 748.374 902.76C748.374 896.18 744.034 893.52 735.074 893.52H725.834V913.12ZM725.834 951.34H736.754C747.394 951.34 752.854 947.42 752.854 939.72C752.854 932.02 747.534 929.08 736.754 929.08H725.834V951.34ZM789.033 968V876.86H846.713V895.06H810.873V912.14H841.533V930.34H810.873V949.8H848.113V968H789.033Z" fill="#0D2B49"/>
<path d="M247.245 968V876.86H305.485V895.06H269.085V914.94H300.165V933.14H269.085V968H247.245ZM354.389 968V895.06H329.609V876.86H400.869V895.06H376.089V968H354.389ZM430.213 968V876.86H463.673C482.993 876.86 499.233 883.58 499.233 905.56C499.233 918.86 492.933 927.4 483.553 931.88L503.853 968H479.493L462.693 935.94H452.053V968H430.213ZM452.053 918.72H461.993C472.353 918.72 477.953 914.24 477.953 905.56C477.953 896.88 472.353 894.08 461.993 894.08H452.053V918.72Z" fill="white"/>
<path fill-rule="evenodd" clip-rule="evenodd" d="M294 648V635.557H310.28C328.581 635.557 341.559 629.389 349.221 617.062C353.9 609.666 356.246 593.077 356.246 567.296V272.711C356.246 244.239 353.27 226.414 347.31 219.243C339.01 209.382 326.669 204.443 310.288 204.443H294.007V192H470.195C534.882 192 584.085 199.731 617.812 215.207C651.538 230.676 678.668 256.457 699.199 292.551C719.731 328.645 730 370.346 730 417.647C730 481.094 711.699 534.111 675.104 576.707C634.034 624.233 571.476 648 487.431 648H294ZM417.522 615.048C444.543 621.324 467.204 624.466 485.505 624.466C534.867 624.466 575.829 606.197 608.39 569.652C640.943 533.107 657.223 483.566 657.223 421.015C657.223 358.463 640.943 308.362 608.39 272.042C575.836 235.723 534.02 217.563 482.955 217.563C463.807 217.563 441.994 220.814 417.522 227.316V615.048Z" fill="white"/>
</g>
</g>
<defs>
<clipPath id="clip0_6198_3305">
<rect width="1024" height="1024" fill="white"/>
</clipPath>
</defs>
</svg>
