<svg width="1024" height="1024" viewBox="0 0 1024 1024" fill="none" xmlns="http://www.w3.org/2000/svg">
<rect width="1024" height="1024" fill="#0D2B49"/>
<path d="M1024 821H0V1024H1024V821Z" fill="white"/>
<path d="M438.738 968V876.86H461.278L483.678 920.54C486.898 926.7 489.838 933.98 492.638 941.12H493.198C492.078 931.32 490.398 918.3 490.398 907.52V876.86H510.978V968H488.578L466.038 924.32C462.958 918.16 460.018 910.88 457.218 903.74H456.658C457.778 913.82 459.458 926.42 459.458 937.34V968H438.738ZM532.117 968V876.86H553.957V949.8H589.377V968H532.117Z" fill="#0D2B49"/>
<path fill-rule="evenodd" clip-rule="evenodd" d="M294 648V635.557H310.28C328.581 635.557 341.559 629.389 349.221 617.062C353.9 609.666 356.246 593.077 356.246 567.296V272.711C356.246 244.239 353.27 226.414 347.31 219.243C339.01 209.382 326.669 204.443 310.288 204.443H294.007V192H470.195C534.882 192 584.085 199.731 617.812 215.207C651.538 230.676 678.668 256.457 699.199 292.551C719.731 328.645 730 370.346 730 417.647C730 481.094 711.699 534.111 675.104 576.707C634.034 624.233 571.476 648 487.431 648H294ZM417.522 615.048C444.543 621.324 467.204 624.466 485.505 624.466C534.867 624.466 575.829 606.197 608.39 569.652C640.943 533.107 657.223 483.566 657.223 421.015C657.223 358.463 640.943 308.362 608.39 272.042C575.836 235.723 534.02 217.563 482.955 217.563C463.807 217.563 441.994 220.814 417.522 227.316V615.048Z" fill="white"/>
</svg>
