<svg width="1024" height="1024" viewBox="0 0 1024 1024" fill="none" xmlns="http://www.w3.org/2000/svg">
<rect width="1024" height="1024" fill="white"/>
<path d="M722.768 235.095L734.884 415.197H722.768C706.614 361.273 683.581 322.464 653.607 298.768C623.664 275.072 587.727 263.208 545.794 263.208C510.646 263.208 478.841 272.137 450.476 289.965C422.08 307.823 399.741 336.252 383.46 375.314C367.18 414.376 359.039 462.967 359.039 521.024C359.039 568.952 366.706 610.475 382.104 645.657C397.469 680.806 420.597 707.784 451.454 726.526C482.312 745.268 517.524 754.639 557.121 754.639C591.513 754.639 621.834 747.287 648.148 732.552C674.462 717.849 703.364 688.6 734.884 644.836L747 652.661C720.433 699.801 689.45 734.319 654.017 756.185C618.584 778.051 576.526 789 527.841 789C440.064 789 372.102 756.438 323.922 691.345C287.985 642.912 270 585.865 270 520.235C270 467.353 281.863 418.794 305.559 374.525C329.254 330.257 361.879 295.928 403.433 271.569C444.986 247.211 490.358 235.032 539.579 235.032C577.851 235.032 615.618 244.403 652.881 263.145C663.829 268.887 671.623 271.727 676.324 271.727C683.36 271.727 689.481 269.266 694.687 264.312C701.471 257.276 706.267 247.526 709.138 235H722.8L722.768 235.095Z" fill="#0D2B49"/>
</svg>
