<svg width="1024" height="1024" viewBox="0 0 1024 1024" fill="none" xmlns="http://www.w3.org/2000/svg">
<g clip-path="url(#clip0_6198_3299)">
<mask id="mask0_6198_3299" style="mask-type:luminance" maskUnits="userSpaceOnUse" x="0" y="0" width="1024" height="1024">
<path d="M1024 0H0V1024H1024V0Z" fill="white"/>
</mask>
<g mask="url(#mask0_6198_3299)">
<path d="M1024 0H0V1024H1024V0Z" fill="white"/>
<path d="M1024 821H-15V1126H1024V821Z" fill="#DB640E"/>
<path d="M360.875 922.36L358.915 930.2H377.535L375.575 922.36C373.195 913.4 370.815 902.62 368.435 893.1H367.875C365.635 902.62 363.255 913.4 360.875 922.36ZM327.135 968L355.555 876.86H381.595L410.015 968H387.055L381.735 947H354.715L349.395 968H327.135ZM472.092 969.68C448.852 969.68 429.252 953.86 429.252 923.06C429.252 892.68 449.692 875.18 472.652 875.18C484.552 875.18 494.072 880.5 500.372 887.08L488.892 900.24C484.412 896.04 479.652 893.94 473.212 893.94C461.172 893.94 451.512 904.58 451.512 922.22C451.512 940.42 460.052 950.92 472.792 950.92C480.212 950.92 485.952 947.98 490.292 943.36L501.632 956.24C493.652 965.34 483.572 969.68 472.092 969.68ZM530.473 968V876.86H562.533C582.553 876.86 598.933 884 598.933 906.4C598.933 928.24 582.273 937.76 563.093 937.76H552.313V968H530.473ZM552.313 920.54H561.833C572.613 920.54 577.653 915.5 577.653 906.4C577.653 897.3 571.913 894.08 561.273 894.08H552.313V920.54ZM645.821 968V895.06H621.041V876.86H692.301V895.06H667.521V968H645.821Z" fill="white"/>
<path fill-rule="evenodd" clip-rule="evenodd" d="M294 648V635.557H310.28C328.581 635.557 341.559 629.389 349.221 617.062C353.9 609.666 356.246 593.077 356.246 567.296V272.711C356.246 244.239 353.27 226.414 347.31 219.243C339.01 209.382 326.669 204.443 310.288 204.443H294.007V192H470.195C534.882 192 584.085 199.731 617.812 215.207C651.538 230.676 678.668 256.457 699.199 292.551C719.731 328.645 730 370.346 730 417.647C730 481.094 711.699 534.111 675.104 576.707C634.034 624.233 571.476 648 487.431 648H294ZM417.522 615.048C444.543 621.324 467.204 624.466 485.505 624.466C534.867 624.466 575.829 606.197 608.39 569.652C640.943 533.107 657.223 483.566 657.223 421.015C657.223 358.463 640.943 308.362 608.39 272.042C575.836 235.723 534.02 217.563 482.955 217.563C463.807 217.563 441.994 220.814 417.522 227.316V615.048Z" fill="#0D2B49"/>
</g>
</g>
<defs>
<clipPath id="clip0_6198_3299">
<rect width="1024" height="1024" fill="white"/>
</clipPath>
</defs>
</svg>
