<svg width="1024" height="1024" viewBox="0 0 1024 1024" fill="none" xmlns="http://www.w3.org/2000/svg">
<rect width="1024" height="1024" fill="white"/>
<path fill-rule="evenodd" clip-rule="evenodd" d="M247 789V773.882H266.79C289.037 773.882 304.813 766.39 314.127 751.413C319.814 742.428 322.666 722.274 322.666 690.952V333.057C322.666 298.466 319.048 276.81 311.803 268.098C301.714 256.117 286.713 250.118 266.799 250.118H247.009V235H461.182C539.815 235 599.626 244.392 640.624 263.194C681.622 281.988 714.6 313.31 739.559 357.161C764.517 401.012 777 451.675 777 509.142C777 586.223 754.753 650.635 710.269 702.385C660.344 760.125 584.299 789 482.134 789H247ZM397.153 748.966C429.999 756.591 457.546 760.408 479.792 760.408C539.797 760.408 589.59 738.213 629.171 693.814C668.743 649.415 688.533 589.227 688.533 513.233C688.533 437.238 668.743 376.369 629.171 332.244C589.599 288.12 538.767 266.057 476.693 266.057C453.417 266.057 426.9 270.007 397.153 277.906V748.966Z" fill="#0D2B49"/>
</svg>
