<svg width="1024" height="1024" viewBox="0 0 1024 1024" fill="none" xmlns="http://www.w3.org/2000/svg">
<g clip-path="url(#clip0_6198_3294)">
<mask id="mask0_6198_3294" style="mask-type:luminance" maskUnits="userSpaceOnUse" x="0" y="0" width="1024" height="1024">
<path d="M1024 0H0V1024H1024V0Z" fill="white"/>
</mask>
<g mask="url(#mask0_6198_3294)">
<path d="M1024 0H0V1024H1024V0Z" fill="white"/>
<path d="M1024 821H-15V1126H1024V821Z" fill="#317641"/>
<path d="M337.73 968V876.86H363.91C391.77 876.86 410.11 890.44 410.11 922.08C410.11 953.58 391.77 968 365.17 968H337.73ZM359.57 950.5H362.65C377.35 950.5 387.85 943.64 387.85 922.08C387.85 900.38 377.35 894.36 362.65 894.36H359.57V950.5ZM456.024 968L429.284 876.86H452.244L462.184 918.44C464.704 928.38 466.664 937.62 469.324 947.56H469.884C472.544 937.62 474.504 928.38 477.024 918.44L487.944 876.86H510.064L482.204 968H456.024ZM534.78 968V876.86H556.62V949.8H592.04V968H534.78ZM623.325 968V876.86H655.385C675.405 876.86 691.785 884 691.785 906.4C691.785 928.24 675.125 937.76 655.945 937.76H645.165V968H623.325ZM645.165 920.54H654.685C665.465 920.54 670.505 915.5 670.505 906.4C670.505 897.3 664.765 894.08 654.125 894.08H645.165V920.54Z" fill="white"/>
<path fill-rule="evenodd" clip-rule="evenodd" d="M294 648V635.557H310.28C328.581 635.557 341.559 629.389 349.221 617.062C353.9 609.666 356.246 593.077 356.246 567.296V272.711C356.246 244.239 353.27 226.414 347.31 219.243C339.01 209.382 326.669 204.443 310.288 204.443H294.007V192H470.195C534.882 192 584.085 199.731 617.812 215.207C651.538 230.676 678.668 256.457 699.199 292.551C719.731 328.645 730 370.346 730 417.647C730 481.094 711.699 534.111 675.104 576.707C634.034 624.233 571.476 648 487.431 648H294ZM417.522 615.048C444.543 621.324 467.204 624.466 485.505 624.466C534.867 624.466 575.829 606.197 608.39 569.652C640.943 533.107 657.223 483.566 657.223 421.015C657.223 358.463 640.943 308.362 608.39 272.042C575.836 235.723 534.02 217.563 482.955 217.563C463.807 217.563 441.994 220.814 417.522 227.316V615.048Z" fill="#0D2B49"/>
</g>
</g>
<defs>
<clipPath id="clip0_6198_3294">
<rect width="1024" height="1024" fill="white"/>
</clipPath>
</defs>
</svg>
