<svg width="1024" height="1024" viewBox="0 0 1024 1024" fill="none" xmlns="http://www.w3.org/2000/svg">
<g clip-path="url(#clip0_6198_3304)">
<mask id="mask0_6198_3304" style="mask-type:luminance" maskUnits="userSpaceOnUse" x="0" y="0" width="1024" height="1024">
<path d="M1024 0H0V1024H1024V0Z" fill="white"/>
</mask>
<g mask="url(#mask0_6198_3304)">
<path d="M1024 0H0V1024H1024V0Z" fill="white"/>
<path d="M1024 821H-15V1126H1024V821Z" fill="#C0002A"/>
<path d="M387.745 968V876.86H445.985V895.06H409.585V914.94H440.665V933.14H409.585V968H387.745ZM494.889 968V895.06H470.109V876.86H541.369V895.06H516.589V968H494.889ZM570.713 968V876.86H604.173C623.493 876.86 639.733 883.58 639.733 905.56C639.733 918.86 633.433 927.4 624.053 931.88L644.353 968H619.993L603.193 935.94H592.553V968H570.713ZM592.553 918.72H602.493C612.853 918.72 618.453 914.24 618.453 905.56C618.453 896.88 612.853 894.08 602.493 894.08H592.553V918.72Z" fill="white"/>
<path fill-rule="evenodd" clip-rule="evenodd" d="M294 648V635.557H310.28C328.581 635.557 341.559 629.389 349.221 617.062C353.9 609.666 356.246 593.077 356.246 567.296V272.711C356.246 244.239 353.27 226.414 347.31 219.243C339.01 209.382 326.669 204.443 310.288 204.443H294.007V192H470.195C534.882 192 584.085 199.731 617.812 215.207C651.538 230.676 678.668 256.457 699.199 292.551C719.731 328.645 730 370.346 730 417.647C730 481.094 711.699 534.111 675.104 576.707C634.034 624.233 571.476 648 487.431 648H294ZM417.522 615.048C444.543 621.324 467.204 624.466 485.505 624.466C534.867 624.466 575.829 606.197 608.39 569.652C640.943 533.107 657.223 483.566 657.223 421.015C657.223 358.463 640.943 308.362 608.39 272.042C575.836 235.723 534.02 217.563 482.955 217.563C463.807 217.563 441.994 220.814 417.522 227.316V615.048Z" fill="#0D2B49"/>
</g>
</g>
<defs>
<clipPath id="clip0_6198_3304">
<rect width="1024" height="1024" fill="white"/>
</clipPath>
</defs>
</svg>
