<svg width="16" height="16" viewBox="0 0 16 16" fill="none" xmlns="http://www.w3.org/2000/svg">
<path d="M13 8.53H7V12.53H13C13.55 12.53 14 12.08 14 11.53V9.53C14 8.98 13.55 8.53 13 8.53ZM13 3.03H8.48C8.81 3.61 9 4.29 9 5C9 5.73 8.8 6.43 8.45 7.03H13C13.55 7.03 14 6.58 14 6.03V4.03C14 3.48 13.55 3.03 13 3.03ZM5 2C3.34 2 2 3.34 2 5C2 6.31 2.83 7.42 4 7.83V13L5 14L6 13V12.5L5.33 12L6 11.33L5.33 10.67L6 10L5.33 9.33L6 8.67V7.83C7.17 7.42 8 6.31 8 5C8 3.34 6.66 2 5 2ZM5 4.97C4.75733 4.97 4.52459 4.8736 4.353 4.702C4.1814 4.53041 4.085 4.29767 4.085 4.055C4.085 3.81233 4.1814 3.57959 4.353 3.408C4.52459 3.2364 4.75733 3.14 5 3.14C5.24267 3.14 5.47541 3.2364 5.647 3.408C5.8186 3.57959 5.915 3.81233 5.915 4.055C5.915 4.29767 5.8186 4.53041 5.647 4.702C5.47541 4.8736 5.24267 4.97 5 4.97Z" fill="#0D2B49"/>
</svg>
