<svg width="16" height="16" viewBox="0 0 16 16" fill="none" xmlns="http://www.w3.org/2000/svg">
<path d="M11.349 1.49902H3.38899C2.89899 1.49902 2.49899 1.89902 2.49899 2.38902V12.109C2.49899 12.599 2.89899 12.999 3.38899 12.999H7.84899C7.81899 12.949 7.78899 12.889 7.76899 12.829C7.58899 12.409 7.49899 11.989 7.49899 11.499C7.49899 10.919 7.63899 10.379 7.88899 9.89902H5.59899V9.01902H8.53899C9.16899 8.38902 10.039 7.99902 10.999 7.99902C11.419 7.99902 11.839 8.06902 12.229 8.21902V2.38902C12.229 1.89902 11.829 1.49902 11.349 1.49902ZM4.70899 9.89902H3.82899V9.01902H4.70899V9.89902ZM4.70899 7.24902H3.82899V6.36902H4.70899V7.24902ZM10.899 7.24902H5.59899V6.36902H10.899V7.24902ZM10.899 4.59902H3.82899V3.70902H10.899V4.59902Z" fill="#0D2B49"/>
<path d="M12.879 9.15902C12.669 8.99902 12.449 8.86902 12.229 8.75902C11.839 8.58902 11.429 8.49902 10.999 8.49902C10.379 8.49902 9.79899 8.68902 9.30899 9.01902C8.96899 9.24902 8.67899 9.54902 8.45899 9.89902C8.16899 10.369 7.99899 10.919 7.99899 11.499C7.99899 11.909 8.06899 12.269 8.22899 12.629C8.27899 12.759 8.33899 12.879 8.40899 12.999C8.93899 13.929 9.90899 14.499 10.999 14.499C12.659 14.499 13.999 13.159 13.999 11.499C13.999 10.579 13.589 9.72902 12.879 9.15902ZM10.749 9.74902C10.749 9.63902 10.809 9.55902 10.899 9.51902C10.929 9.50902 10.959 9.49902 10.999 9.49902C11.139 9.49902 11.249 9.60902 11.249 9.74902V11.069C11.399 11.149 11.499 11.309 11.499 11.499C11.499 11.779 11.279 11.999 10.999 11.999C10.959 11.999 10.919 11.999 10.879 11.979L10.179 12.679C10.129 12.729 10.059 12.749 9.99899 12.749C9.93899 12.749 9.86899 12.729 9.81899 12.679C9.72899 12.579 9.72899 12.419 9.81899 12.319L10.519 11.629C10.509 11.589 10.499 11.549 10.499 11.499C10.499 11.309 10.599 11.149 10.749 11.069V9.74902Z" fill="#0D2B49"/>
</svg>
