<svg width="16" height="16" viewBox="0 0 16 16" fill="none" xmlns="http://www.w3.org/2000/svg">
<path d="M2.248 6.3886H3.451C3.753 7.1986 4.527 7.7776 5.442 7.7776C6.357 7.7776 7.131 7.1976 7.433 6.3886H13.752C14.165 6.3886 14.5 6.0536 14.5 5.6406C14.5 5.2276 14.165 4.8926 13.752 4.8926H7.428C7.123 4.0896 6.352 3.5166 5.442 3.5166C4.532 3.5166 3.761 4.0896 3.456 4.8926H2.248C1.835 4.8926 1.5 5.2276 1.5 5.6406C1.5 6.0536 1.835 6.3886 2.248 6.3886Z" fill="#0D2B49"/>
<path d="M13.751 10.4158H12.512C12.215 9.59584 11.437 9.00684 10.515 9.00684C9.59299 9.00684 8.81499 9.59584 8.51799 10.4158H2.24799C1.83499 10.4158 1.49899 10.7508 1.49899 11.1648C1.49899 11.5778 1.83399 11.9138 2.24799 11.9138H8.53499C8.84599 12.7058 9.61299 13.2698 10.515 13.2698C11.417 13.2698 12.185 12.7068 12.495 11.9138H13.751C14.164 11.9138 14.5 11.5788 14.5 11.1648C14.5 10.7508 14.165 10.4158 13.751 10.4158Z" fill="#0D2B49"/>
</svg>
