<svg width="16" height="16" viewBox="0 0 16 16" fill="none" xmlns="http://www.w3.org/2000/svg">
<path d="M14.0799 8.71997V12.49C14.0799 13.04 13.6299 13.49 13.0699 13.49H2.92992C2.36992 13.49 1.91992 13.04 1.91992 12.49V8.71997C2.02992 8.77997 2.12992 8.80997 2.21992 8.83997L7.73992 10.33C7.82992 10.35 7.90992 10.37 7.99992 10.37C8.08992 10.37 8.17992 10.35 8.25992 10.33L13.7599 8.83997C13.7799 8.83997 13.7999 8.82997 13.8199 8.82997C13.8999 8.79997 13.9899 8.76997 14.0799 8.71997Z" fill="#0D2B49"/>
<path d="M13.49 4.6H10.77V3.49C10.77 2.93 10.39 2.5 9.92 2.5H6.09C5.61 2.5 5.24 2.93 5.24 3.49V4.6H2.5C1.95 4.6 1.5 5.05 1.5 5.6V6.91C1.5 7.28 1.87 7.57 2.18 7.74C2.31 7.81 2.43 7.86 2.5 7.88L8 9.37L13.5 7.88C13.56 7.86 13.67 7.81 13.8 7.74C14.11 7.58 14.5 7.28 14.5 6.91V5.6C14.5 5.05 14.05 4.6 13.49 4.6ZM6.25 4.6V3.5H9.77V4.6H6.25Z" fill="#0D2B49"/>
</svg>
