<svg width="16" height="16" viewBox="0 0 16 16" fill="none" xmlns="http://www.w3.org/2000/svg">
<path d="M8 1.5C6.27609 1.5 4.62279 2.18482 3.40381 3.40381C2.18482 4.62279 1.5 6.27609 1.5 8C1.5 9.72391 2.18482 11.3772 3.40381 12.5962C4.62279 13.8152 6.27609 14.5 8 14.5C9.72391 14.5 11.3772 13.8152 12.5962 12.5962C13.8152 11.3772 14.5 9.72391 14.5 8C14.5 6.27609 13.8152 4.62279 12.5962 3.40381C11.3772 2.18482 9.72391 1.5 8 1.5ZM5.66 8.74H4.14V8.01H5.66V8.74ZM7.98 9.93H7.18V7.21H6.25V6.68C6.5 6.67 6.67 6.65 6.77 6.63C6.92 6.6 7.05 6.53 7.15 6.42C7.22508 6.34244 7.27703 6.24547 7.3 6.14C7.32 6.07 7.33 6.02 7.33 5.98H7.98V9.93ZM11.49 9.69C11.25 9.92 10.9 10.04 10.46 10.04C10.02 10.04 9.68 9.92 9.46 9.69C9.23 9.45 9.12 9.17 9.12 8.84C9.12 8.62 9.17 8.42 9.27 8.24C9.37 8.06 9.51 7.92 9.71 7.83C9.52 7.7 9.39 7.57 9.33 7.42C9.28 7.27 9.25 7.13 9.25 7C9.25 6.71 9.36 6.47 9.57 6.27C9.79 6.07 10.09 5.96 10.49 5.96C10.88 5.96 11.19 6.07 11.41 6.27C11.62 6.47 11.73 6.71 11.73 7C11.73 7.13 11.7 7.27 11.65 7.42C11.59 7.57 11.46 7.69 11.27 7.8C11.47 7.91 11.62 8.06 11.71 8.24C11.81 8.42 11.86 8.62 11.86 8.84C11.86 9.17 11.74 9.45 11.49 9.69ZM10.99 7.09C10.99 7.23 10.94 7.35 10.86 7.44C10.77 7.53 10.65 7.58 10.49 7.58C10.33 7.58 10.21 7.53 10.12 7.44C10.0348 7.34345 9.98851 7.21874 9.99 7.09C9.99 6.93 10.04 6.81 10.12 6.72C10.21 6.63 10.33 6.59 10.49 6.59C10.65 6.59 10.77 6.63 10.86 6.72C10.94 6.81 10.99 6.93 10.99 7.09ZM11.06 8.79C11.06 8.98 11.01 9.13 10.91 9.24C10.81 9.35 10.67 9.4 10.49 9.4C10.31 9.4 10.17 9.35 10.07 9.24C9.97 9.13 9.92 8.98 9.92 8.79C9.92 8.58 9.97 8.43 10.08 8.33C10.18 8.22 10.32 8.17 10.49 8.17C10.67 8.17 10.81 8.22 10.91 8.33C11.01 8.43 11.06 8.58 11.06 8.79Z" fill="#0D2B49"/>
</svg>
