<svg width="16" height="16" viewBox="0 0 16 16" fill="none" xmlns="http://www.w3.org/2000/svg">
<path d="M8.00601 1.49968C7.15167 1.49968 6.30571 1.66797 5.51642 1.99494C4.72713 2.32191 4.00998 2.80115 3.40592 3.4053C2.80187 4.00945 2.32273 4.72668 1.99588 5.51602C1.66904 6.30536 1.50088 7.15135 1.50101 8.00568C1.42201 13.7487 8.66901 16.6717 12.611 12.6097C16.67 8.66968 13.749 1.41968 8.00601 1.49968ZM10.859 3.31168C10.969 3.36168 11.349 3.64168 11.449 3.71168L10.018 5.14368C9.81801 5.00368 9.60801 4.88368 9.37801 4.78368L10.848 3.31168H10.859ZM8.00601 2.50168C8.15601 2.50168 8.56601 2.53168 8.61601 2.54168L8.00601 3.15168V2.50168ZM8.00601 4.15168L9.45701 2.70168C9.55701 2.72168 10.118 2.92168 10.198 2.96168L8.60701 4.55268C8.52701 4.54268 8.12701 4.50268 8.00701 4.50268V4.15268L8.00601 4.15168ZM8.00601 10.5077C4.70601 10.4237 4.70601 5.58768 8.00601 5.50368C11.304 5.58668 11.309 10.4287 8.00601 10.5077ZM11.9 11.8997L10.478 10.4797C11.795 9.26268 11.856 6.87768 10.548 5.61468L11.97 4.19368C12.05 4.28368 12.37 4.64368 12.42 4.74368C14.063 6.76568 13.77 10.1477 11.9 11.8997Z" fill="#0D2B49"/>
</svg>
