<svg width="16" height="16" viewBox="0 0 16 16" fill="none" xmlns="http://www.w3.org/2000/svg">
<path d="M14 6L13.66 8.53L13.64 8.69L13.6 9.02L12.95 14H3.05L2.43 9.32L2.37 8.83L2.36 8.72L2 6V5.96C2 5.67 2.23 5.44 2.51 5.44C2.77 5.44 3.01 5.62 3.04 5.88L3.43 8.9C3.78 8.79 4.13 8.7 4.5 8.7C4.76 8.7 5.02 8.75 5.26 8.84C5.64 8.99 5.98 9.05 6.3 9.05C6.67 9.05 7.01 8.97 7.38 8.88C7.74 8.79 8.02 8.69 8.38 8.69C8.72 8.69 9.14 8.78 9.77 9.03C10.09 9.16 10.31 9.2 10.48 9.2C10.96 9.2 11.11 8.86 11.99 8.86C12.17 8.87 12.36 8.88 12.54 8.9H12.55L12.96 5.88C12.9795 5.75463 13.0441 5.6407 13.1417 5.55966C13.2393 5.47862 13.3632 5.43606 13.49 5.44H13.53C13.82 5.47 14.02 5.72 14 6ZM11.25 4.75C11.25 6.54 9.79 8 8 8C6.21 8 4.75 6.54 4.75 4.75C4.75 2.96 6.21 1.5 8 1.5C9.79 1.5 11.25 2.96 11.25 4.75ZM7.51 4.12C7.53 4.06 7.56 4 7.59 3.95C7.71 3.75 7.87 3.65 8.08 3.65C8.26 3.64 8.42 3.72 8.53 3.86C8.59 3.94 8.63 4.06 8.67 4.21H9.23C9.22 4.01 9.16 3.8 9.04 3.61C8.83 3.26 8.5 3.08 8.05 3.08C7.72 3.08 7.44 3.21 7.22 3.48C7.07 3.65 6.97 3.86 6.91 4.12H6.32L6.23 4.56H6.84V4.76C6.84 4.84 6.84 4.92 6.85 4.99H6.32L6.23 5.43H6.92C6.97 5.64 7.06 5.83 7.17 5.98C7.4 6.28 7.7 6.42 8.08 6.42C8.39 6.42 8.65 6.31 8.85 6.1C9.05 5.88 9.17 5.59 9.22 5.25H8.67C8.63 5.41 8.59 5.54 8.53 5.62C8.42 5.77 8.27 5.84 8.08 5.84C7.88 5.84 7.73 5.75 7.6 5.58C7.56746 5.53336 7.54061 5.483 7.52 5.43H8.14L8.23 4.99H7.43C7.42 4.92 7.41 4.85 7.41 4.78C7.41 4.7 7.42 4.63 7.43 4.56H8.28L8.37 4.12H7.51Z" fill="#0D2B49"/>
</svg>
