<svg width="16" height="16" viewBox="0 0 16 16" fill="none" xmlns="http://www.w3.org/2000/svg">
<path d="M13.495 10.1396H13.105V3.38961H10.085L9.895 2.39961C9.845 2.12961 9.575 1.94961 9.31499 2.00961C9.04499 2.05961 8.865 2.31961 8.915 2.59961L9.06499 3.38961H7.085L7.235 2.59961C7.285 2.31961 7.115 2.05961 6.835 2.00961C6.575 1.94961 6.305 2.12961 6.255 2.39961L6.065 3.38961H3.015V10.1396H2.49499C2.21499 10.1396 1.995 10.3596 1.995 10.6396C1.995 10.9196 2.21499 11.1396 2.49499 11.1396H4.555L4.115 13.3996C4.055 13.6796 4.235 13.9396 4.505 13.9896C4.535 13.9996 4.575 13.9996 4.605 13.9996C4.835 13.9996 5.045 13.8296 5.095 13.5996L5.575 11.1396H7.495V12.3796C7.495 12.6596 7.71499 12.8796 7.995 12.8796C8.275 12.8796 8.495 12.6596 8.495 12.3796V11.1396H10.575L11.055 13.5996C11.105 13.8296 11.315 13.9996 11.545 13.9996C11.585 13.9996 11.615 13.9996 11.645 13.9896C11.915 13.9396 12.095 13.6796 12.045 13.3996L11.605 11.1396H13.495C13.775 11.1396 13.995 10.9196 13.995 10.6396C13.995 10.3596 13.775 10.1396 13.495 10.1396ZM5.055 5.38961C5.055 5.06961 5.315 4.79961 5.645 4.79961C5.965 4.79961 6.235 5.06961 6.235 5.38961C6.235 5.70961 5.965 5.97961 5.645 5.97961C5.315 5.97961 5.055 5.70961 5.055 5.38961ZM11.235 8.60961C11.005 8.74961 10.695 8.66961 10.555 8.43961L9.56499 6.78961L8.085 8.27961C7.895 8.46961 7.595 8.47961 7.395 8.28961L6.855 7.78961L5.995 8.60961C5.895 8.70961 5.775 8.74961 5.655 8.74961C5.515 8.74961 5.38499 8.69961 5.285 8.59961C5.095 8.39961 5.105 8.07961 5.305 7.88961L6.495 6.73961C6.69499 6.55961 6.985 6.55961 7.185 6.73961L7.715 7.22961L9.305 5.62961C9.415 5.51961 9.575 5.46961 9.725 5.48961C9.875 5.50961 10.015 5.59961 10.095 5.72961L11.405 7.91961C11.555 8.15961 11.475 8.46961 11.235 8.60961Z" fill="#0D2B49"/>
</svg>
