<svg width="16" height="16" viewBox="0 0 16 16" fill="none" xmlns="http://www.w3.org/2000/svg">
<path d="M6.735 13.9998C6.21039 14.0004 5.69088 13.8967 5.20674 13.6946C4.7226 13.4925 4.2835 13.1962 3.915 12.8228C3.16779 12.0633 2.74902 11.0406 2.74902 9.97525C2.74902 8.90987 3.16779 7.88717 3.915 7.12775L8.14501 2.85575C9.27501 1.71475 11.245 1.71475 12.374 2.85575C12.939 3.42575 13.25 4.18475 13.25 4.99175C13.25 5.79875 12.939 6.55675 12.374 7.12775L8.497 11.0428C8.31267 11.2292 8.09318 11.3772 7.85123 11.4783C7.60929 11.5793 7.3497 11.6313 7.0875 11.6313C6.82531 11.6313 6.56572 11.5793 6.32378 11.4783C6.08183 11.3772 5.86234 11.2292 5.678 11.0428C5.30425 10.663 5.09477 10.1516 5.09477 9.61875C5.09477 9.08594 5.30425 8.57448 5.678 8.19475L9.203 4.63475L9.907 5.34675L6.383 8.90675C6.195 9.09675 6.091 9.34975 6.091 9.61875C6.091 9.88875 6.195 10.1408 6.383 10.3308C6.47518 10.4241 6.58496 10.4981 6.70598 10.5487C6.827 10.5993 6.95685 10.6253 7.088 10.6253C7.21916 10.6253 7.34901 10.5993 7.47003 10.5487C7.59105 10.4981 7.70083 10.4241 7.793 10.3308L11.669 6.41575C12.046 6.03575 12.253 5.52875 12.253 4.99175C12.253 4.45475 12.046 3.94775 11.669 3.56775C10.916 2.80675 9.603 2.80675 8.849 3.56775L4.622 7.83875C4.06161 8.40847 3.74755 9.17561 3.74755 9.97475C3.74755 10.7739 4.06161 11.541 4.622 12.1108C4.89873 12.3903 5.22814 12.6122 5.59117 12.7637C5.9542 12.9151 6.34365 12.9931 6.737 12.9931C7.13036 12.9931 7.51981 12.9151 7.88284 12.7637C8.24587 12.6122 8.57528 12.3903 8.85201 12.1108L12.022 8.90675L12.727 9.61875L9.556 12.8228C9.18739 13.1963 8.74813 13.4927 8.26381 13.6948C7.77949 13.8969 7.25979 14.0005 6.735 13.9998Z" fill="#0D2B49"/>
</svg>
