<svg width="16" height="16" viewBox="0 0 16 16" fill="none" xmlns="http://www.w3.org/2000/svg">
<path fill-rule="evenodd" clip-rule="evenodd" d="M13.5 3.65C13.5 3.63 13.47 3.6 13.44 3.59C12.85 3.53 10.81 2.95 9.67 2.19C8.74 1.57 8.19 1.5 8.02 1.5H8C7.85 1.5 7.3 1.55 6.33 2.19C5.18 2.95 3.15 3.53 2.55 3.59C2.53 3.6 2.5 3.63 2.5 3.65C2.5 3.67 2.45 5.52 3.09 7.77C3.69 9.85 5.02 12.69 7.97 14.48C7.98 14.49 7.99 14.5 8 14.5C8.01 14.5 8.02 14.49 8.03 14.48C10.98 12.69 12.31 9.85 12.9 7.77C13.54 5.52 13.5 3.67 13.5 3.65ZM7.68 10.15C7.59 10.25 7.46 10.3 7.33 10.3C7.2 10.3 7.07 10.25 6.98 10.15L5.23 8.4L5.93 7.7L7.33 9.09L10.73 5.7L11.43 6.4L7.68 10.15Z" fill="#0D2B49"/>
</svg>
