<svg width="16" height="16" viewBox="0 0 16 16" fill="none" xmlns="http://www.w3.org/2000/svg">
<path d="M13.5 5H2.5L8 1.5L13.5 5ZM12.5 6H3.5V7H12.5V6ZM5.5 11.5V8.5C5.5 8.22 5.28 8 5 8C4.72 8 4.5 8.22 4.5 8.5V11.5H3.5V12.5H2.5V13.5H7.5V11.5H5.5ZM8.5 8C8.22 8 8 8.22 8 8.5V10.69C8.25 10.39 8.6 10.17 9 10.07V8.5C9 8.22 8.78 8 8.5 8ZM12 8C11.72 8 11.5 8.22 11.5 8.5V10H12.5V8.5C12.5 8.22 12.28 8 12 8ZM13.5 13.5V12C13.5 11.7348 13.3946 11.4804 13.2071 11.2929C13.0196 11.1054 12.7652 11 12.5 11H9.5C9.23478 11 8.98043 11.1054 8.79289 11.2929C8.60536 11.4804 8.5 11.7348 8.5 12V13.5C8.5 13.7652 8.60536 14.0196 8.79289 14.2071C8.98043 14.3946 9.23478 14.5 9.5 14.5H12.5C12.7652 14.5 13.0196 14.3946 13.2071 14.2071C13.3946 14.0196 13.5 13.7652 13.5 13.5Z" fill="#0D2B49"/>
</svg>
