<svg width="16" height="16" viewBox="0 0 16 16" fill="none" xmlns="http://www.w3.org/2000/svg">
<path d="M10.759 7.52395C11.095 7.14095 11.281 6.64295 11.281 6.12095V5.97095C11.281 4.85795 10.423 3.94195 9.33301 3.84895V3.00195H7.98801V3.83695H7.37301V3.00195H6.04001V3.83695H4.35901V5.45995H5.44901C5.62301 5.45995 5.76201 5.59895 5.76201 5.76095V10.237C5.76201 10.399 5.62301 10.538 5.44901 10.538H4.35901V12.161H6.04001V12.996H7.37301V12.161H7.98801V12.996H9.33301V12.161H9.57601C10.701 12.161 11.57 11.384 11.802 10.178C11.977 9.26395 11.71 8.10395 10.759 7.52395ZM7.38601 5.50195H8.66501C9.34901 5.50195 9.89401 5.47895 9.89401 6.15195C9.89401 6.83595 9.34901 7.11495 8.66501 7.11495H7.38601V5.50195ZM9.08201 10.493H7.38601V8.66495H9.08201C9.83601 8.66495 10.45 8.86995 10.45 9.62395C10.451 10.377 9.83601 10.493 9.08201 10.493Z" fill="#0D2B49"/>
</svg>
