<svg width="16" height="16" viewBox="0 0 16 16" fill="none" xmlns="http://www.w3.org/2000/svg">
<path d="M8 1.5C6.39 1.5 4.91 2.09 3.77 3.06C3.52 3.28 3.28 3.52 3.07 3.77C2.05613 4.94598 1.4989 6.44731 1.5 8C1.5 9.72391 2.18482 11.3772 3.40381 12.5962C4.62279 13.8152 6.27609 14.5 8 14.5C9.61 14.5 11.09 13.91 12.23 12.93C12.48 12.72 12.72 12.48 12.94 12.23C13.9468 11.0505 14.4999 9.55071 14.5 8C14.5 6.27609 13.8152 4.62279 12.5962 3.40381C11.3772 2.18482 9.72391 1.5 8 1.5ZM8 13.5C6.54212 13.4974 5.14471 12.917 4.11383 11.8862C3.08296 10.8553 2.50265 9.45788 2.5 8C2.5 6.66 2.98 5.43 3.78 4.48L11.52 12.22C10.56 13.02 9.34 13.5 8 13.5ZM12.23 11.52L4.48 3.77C5.53505 2.89195 6.88015 2.43989 8.25135 2.50253C9.62254 2.56517 10.9208 3.13799 11.8914 4.10859C12.862 5.07918 13.4348 6.37746 13.4975 7.74866C13.5601 9.11985 13.1081 10.465 12.23 11.52Z" fill="#0D2B49"/>
</svg>
