<svg width="16" height="16" viewBox="0 0 16 16" fill="none" xmlns="http://www.w3.org/2000/svg">
<path d="M13.007 9.28609V2.48609C13.007 2.24609 12.837 2.04609 12.607 1.99609H11.887L7.13701 5.90609L6.43701 5.35609C6.26701 5.20609 6.02701 5.11609 5.78701 5.11609H2.92701C2.41701 5.11609 1.99701 5.48609 1.99701 5.93609V9.50609C1.99701 9.95609 2.41701 10.3261 2.92701 10.3261H3.70701V10.8461H3.57701C2.70701 10.8461 1.99701 11.5561 1.99701 12.4261C1.99701 13.2961 2.70701 13.9961 3.57701 13.9961H9.30701C10.177 13.9961 10.887 13.2961 10.887 12.4261C10.887 11.5561 10.177 10.8461 9.30701 10.8461H7.86701V10.3261H8.63701C9.15701 10.3261 9.56701 9.95609 9.56701 9.50609V8.17609C9.56701 8.07609 9.54701 7.96609 9.50701 7.87609L12.007 4.18609V9.69609C12.007 9.97609 12.227 10.1961 12.507 10.1961C12.777 10.1961 12.997 10.4261 12.997 10.6961C12.997 10.9661 12.777 11.1861 12.507 11.1861C12.267 11.1861 12.067 11.0161 12.027 10.7861C11.967 10.5161 11.717 10.3261 11.437 10.3861C11.167 10.4361 10.987 10.6961 11.037 10.9661C11.167 11.6761 11.787 12.1861 12.507 12.1861C13.327 12.1861 13.997 11.5161 13.997 10.6961C13.997 10.0461 13.587 9.49609 13.007 9.28609ZM3.57701 13.0011C3.25801 13.0011 2.99901 12.7421 2.99901 12.4231C2.99901 12.1041 3.25801 11.8451 3.57701 11.8451C3.89601 11.8451 4.15501 12.1041 4.15501 12.4231C4.15501 12.7431 3.89601 13.0011 3.57701 13.0011ZM5.48801 13.0011C5.16901 13.0011 4.91001 12.7421 4.91001 12.4231C4.91001 12.1041 5.16901 11.8451 5.48801 11.8451C5.80701 11.8451 6.06601 12.1041 6.06601 12.4231C6.06601 12.7431 5.80701 13.0011 5.48801 13.0011ZM9.31001 11.8461C9.62901 11.8461 9.88801 12.1051 9.88801 12.4241C9.88801 12.7431 9.62901 13.0021 9.31001 13.0021C8.99101 13.0021 8.73201 12.7431 8.73201 12.4241C8.73201 12.1051 8.99101 11.8461 9.31001 11.8461ZM7.97601 12.4241C7.97601 12.7431 7.71701 13.0021 7.39801 13.0021C7.07901 13.0021 6.82001 12.7431 6.82001 12.4241C6.82001 12.1051 7.07901 11.8461 7.39801 11.8461C7.71801 11.8461 7.97601 12.1051 7.97601 12.4241Z" fill="#0D2B49"/>
</svg>
