<svg width="16" height="16" viewBox="0 0 16 16" fill="none" xmlns="http://www.w3.org/2000/svg">
<path d="M12.499 1.49512H3.49899C2.94899 1.49512 2.49899 1.94512 2.49899 2.50512V13.4951C2.49899 14.0551 2.94899 14.4951 3.49899 14.4951H8.88899C8.60899 14.1451 8.38899 13.7551 8.22899 13.3351H7.93899C7.56899 13.3351 7.26899 13.0351 7.26899 12.6651C7.26899 12.2951 7.56899 11.9951 7.93899 11.9951H7.99899C7.99899 11.5151 8.07899 11.0551 8.23899 10.6251C8.16899 10.6451 8.07899 10.6651 7.99899 10.6651C7.62899 10.6651 7.32899 10.3651 7.32899 9.99512C7.32899 9.63512 7.62899 9.33512 7.99899 9.33512C8.30899 9.33512 8.56899 9.54512 8.64899 9.82512C8.72899 9.69512 8.81899 9.57512 8.90899 9.46512C9.65899 8.53512 10.789 8.00512 11.999 8.00512C12.529 8.00512 13.039 8.10512 13.499 8.29512V2.50512C13.499 1.94512 13.049 1.49512 12.499 1.49512ZM5.23899 13.3351C4.86899 13.3351 4.57899 13.0351 4.57899 12.6651C4.57899 12.2951 4.86899 11.9951 5.23899 11.9951C5.60899 11.9951 5.90899 12.2951 5.90899 12.6651C5.90899 13.0351 5.60899 13.3351 5.23899 13.3351ZM5.23899 10.6651C4.86899 10.6651 4.57899 10.3651 4.57899 9.99512C4.57899 9.63512 4.86899 9.33512 5.23899 9.33512C5.60899 9.33512 5.90899 9.63512 5.90899 9.99512C5.90899 10.3651 5.60899 10.6651 5.23899 10.6651ZM5.23899 7.98512C4.86899 7.98512 4.57899 7.68512 4.57899 7.31512C4.57899 6.94512 4.86899 6.64512 5.23899 6.64512C5.60899 6.64512 5.90899 6.94512 5.90899 7.31512C5.90899 7.68512 5.60899 7.98512 5.23899 7.98512ZM7.99899 7.98512C7.62899 7.98512 7.32899 7.68512 7.32899 7.31512C7.32899 6.94512 7.62899 6.64512 7.99899 6.64512C8.36899 6.64512 8.66899 6.94512 8.66899 7.31512C8.66899 7.68512 8.36899 7.98512 7.99899 7.98512ZM10.749 7.98512C10.379 7.98512 10.079 7.68512 10.079 7.31512C10.079 6.94512 10.379 6.64512 10.749 6.64512C11.119 6.64512 11.419 6.94512 11.419 7.31512C11.419 7.68512 11.119 7.98512 10.749 7.98512ZM12.079 5.32512H3.90899V3.01512C3.90899 2.95512 3.95899 2.90512 4.02899 2.90512H11.959C12.029 2.90512 12.079 2.95512 12.079 3.01512V5.32512Z" fill="#0D2B49"/>
<path d="M12.081 3.01479V5.32478H3.91101V3.01479C3.91101 2.95479 3.96101 2.90479 4.03101 2.90479H11.961C12.031 2.90479 12.081 2.95479 12.081 3.01479Z" fill="#0D2B49"/>
<path d="M8.67099 7.31502C8.67099 7.68502 8.37099 7.98502 8.00099 7.98502C7.63099 7.98502 7.33099 7.68502 7.33099 7.31502C7.33099 6.94502 7.63099 6.64502 8.00099 6.64502C8.37099 6.64502 8.67099 6.94502 8.67099 7.31502Z" fill="#0D2B49"/>
<path d="M5.91099 7.31502C5.91099 7.68502 5.61099 7.98502 5.24099 7.98502C4.87099 7.98502 4.58099 7.68502 4.58099 7.31502C4.58099 6.94502 4.87099 6.64502 5.24099 6.64502C5.61099 6.64502 5.91099 6.94502 5.91099 7.31502Z" fill="#0D2B49"/>
<path d="M11.421 7.31502C11.421 7.68502 11.121 7.98502 10.751 7.98502C10.381 7.98502 10.081 7.68502 10.081 7.31502C10.081 6.94502 10.381 6.64502 10.751 6.64502C11.121 6.64502 11.421 6.94502 11.421 7.31502Z" fill="#0D2B49"/>
<path d="M8.67099 9.99496C8.67099 10.365 8.37099 10.665 8.00099 10.665C7.63099 10.665 7.33099 10.365 7.33099 9.99496C7.33099 9.63496 7.63099 9.33496 8.00099 9.33496C8.37099 9.33496 8.67099 9.63496 8.67099 9.99496Z" fill="#0D2B49"/>
<path d="M11.421 9.99496C11.421 10.365 11.121 10.665 10.751 10.665C10.381 10.665 10.081 10.365 10.081 9.99496C10.081 9.63496 10.381 9.33496 10.751 9.33496C11.121 9.33496 11.421 9.63496 11.421 9.99496Z" fill="#0D2B49"/>
<path d="M5.91099 9.99496C5.91099 10.365 5.61099 10.665 5.24099 10.665C4.87099 10.665 4.58099 10.365 4.58099 9.99496C4.58099 9.63496 4.87099 9.33496 5.24099 9.33496C5.61099 9.33496 5.91099 9.63496 5.91099 9.99496Z" fill="#0D2B49"/>
<path d="M5.91099 12.6651C5.91099 13.0351 5.61099 13.3351 5.24099 13.3351C4.87099 13.3351 4.58099 13.0351 4.58099 12.6651C4.58099 12.2951 4.87099 11.9951 5.24099 11.9951C5.61099 11.9951 5.91099 12.2951 5.91099 12.6651Z" fill="#0D2B49"/>
<path d="M11.381 12.6651C11.381 13.0351 11.081 13.3351 10.711 13.3351H7.941C7.571 13.3351 7.271 13.0351 7.271 12.6651C7.271 12.2951 7.571 11.9951 7.941 11.9951H10.711C11.081 11.9951 11.381 12.2951 11.381 12.6651Z" fill="#0D2B49"/>
<path d="M11.999 9.00488C11.069 9.00488 10.229 9.42488 9.68899 10.0949C9.25899 10.6149 8.99899 11.2749 8.99899 12.0049C8.99899 12.7449 9.26899 13.4249 9.71899 13.9449C10.259 14.5949 11.079 15.0049 11.999 15.0049C13.659 14.9949 14.989 13.6649 14.999 11.9949C14.999 10.3449 13.659 9.00488 11.999 9.00488ZM13.289 13.8049L12.139 12.6649C12.099 12.6249 12.049 12.6049 11.999 12.6049C11.949 12.6049 11.899 12.6249 11.859 12.6649L10.709 13.8049L10.179 13.2749L11.329 12.1349C11.409 12.0549 11.409 11.9249 11.329 11.8449L10.179 10.7049L10.709 10.1749L11.859 11.3149C11.899 11.3549 11.949 11.3749 11.999 11.3749C12.049 11.3749 12.099 11.3549 12.139 11.3149L13.279 10.1849L13.809 10.7149L12.669 11.8549C12.589 11.9249 12.589 12.0549 12.669 12.1349L13.819 13.2749L13.289 13.8049Z" fill="#0D2B49"/>
</svg>
