<svg width="16" height="16" viewBox="0 0 16 16" fill="none" xmlns="http://www.w3.org/2000/svg">
<path d="M12.501 1.49512H3.50101C2.95101 1.49512 2.50101 1.94512 2.50101 2.50512V13.4951C2.50101 14.0551 2.95101 14.4951 3.50101 14.4951H8.89101C8.63101 14.1951 8.44101 13.8551 8.30101 13.5151C8.28101 13.4551 8.25101 13.3951 8.24101 13.3351H7.94101C7.57101 13.3351 7.27101 13.0351 7.27101 12.6651C7.27101 12.2951 7.57101 11.9951 7.94101 11.9951H8.00101C8.00101 11.5151 8.09101 11.0551 8.26101 10.6151C8.18101 10.6451 8.09101 10.6651 8.00101 10.6651C7.63101 10.6651 7.33101 10.3651 7.33101 9.99512C7.33101 9.63512 7.63101 9.33512 8.00101 9.33512C8.31101 9.33512 8.58101 9.54512 8.65101 9.83512C8.73101 9.70512 8.82101 9.57512 8.92101 9.45512C9.67101 8.53512 10.801 8.00512 12.001 8.00512C12.521 8.00512 13.031 8.10512 13.501 8.29512V2.50512C13.501 1.94512 13.051 1.49512 12.501 1.49512ZM5.24101 13.3351C4.87101 13.3351 4.58101 13.0351 4.58101 12.6651C4.58101 12.2951 4.87101 11.9951 5.24101 11.9951C5.61101 11.9951 5.91101 12.2951 5.91101 12.6651C5.91101 13.0351 5.61101 13.3351 5.24101 13.3351ZM5.24101 10.6651C4.87101 10.6651 4.58101 10.3651 4.58101 9.99512C4.58101 9.63512 4.87101 9.33512 5.24101 9.33512C5.61101 9.33512 5.91101 9.63512 5.91101 9.99512C5.91101 10.3651 5.61101 10.6651 5.24101 10.6651ZM5.24101 7.98512C4.87101 7.98512 4.58101 7.68512 4.58101 7.31512C4.58101 6.94512 4.87101 6.64512 5.24101 6.64512C5.61101 6.64512 5.91101 6.94512 5.91101 7.31512C5.91101 7.68512 5.61101 7.98512 5.24101 7.98512ZM8.00101 7.98512C7.63101 7.98512 7.33101 7.68512 7.33101 7.31512C7.33101 6.94512 7.63101 6.64512 8.00101 6.64512C8.37101 6.64512 8.67101 6.94512 8.67101 7.31512C8.67101 7.68512 8.37101 7.98512 8.00101 7.98512ZM10.751 7.98512C10.381 7.98512 10.081 7.68512 10.081 7.31512C10.081 6.94512 10.381 6.64512 10.751 6.64512C11.121 6.64512 11.421 6.94512 11.421 7.31512C11.421 7.68512 11.121 7.98512 10.751 7.98512ZM12.081 5.32512H3.91101V3.01512C3.91101 2.95512 3.96101 2.90512 4.03101 2.90512H11.961C12.031 2.90512 12.081 2.95512 12.081 3.01512V5.32512Z" fill="#0D2B49"/>
<path d="M12.081 3.01479V5.32478H3.91101V3.01479C3.91101 2.95479 3.96101 2.90479 4.03101 2.90479H11.961C12.031 2.90479 12.081 2.95479 12.081 3.01479Z" fill="#0D2B49"/>
<path d="M8.67099 7.31502C8.67099 7.68502 8.37099 7.98502 8.00099 7.98502C7.63099 7.98502 7.33099 7.68502 7.33099 7.31502C7.33099 6.94502 7.63099 6.64502 8.00099 6.64502C8.37099 6.64502 8.67099 6.94502 8.67099 7.31502Z" fill="#0D2B49"/>
<path d="M5.91099 7.31502C5.91099 7.68502 5.61099 7.98502 5.24099 7.98502C4.87099 7.98502 4.58099 7.68502 4.58099 7.31502C4.58099 6.94502 4.87099 6.64502 5.24099 6.64502C5.61099 6.64502 5.91099 6.94502 5.91099 7.31502Z" fill="#0D2B49"/>
<path d="M11.421 7.31502C11.421 7.68502 11.121 7.98502 10.751 7.98502C10.381 7.98502 10.081 7.68502 10.081 7.31502C10.081 6.94502 10.381 6.64502 10.751 6.64502C11.121 6.64502 11.421 6.94502 11.421 7.31502Z" fill="#0D2B49"/>
<path d="M8.67099 9.99496C8.67099 10.365 8.37099 10.665 8.00099 10.665C7.63099 10.665 7.33099 10.365 7.33099 9.99496C7.33099 9.63496 7.63099 9.33496 8.00099 9.33496C8.37099 9.33496 8.67099 9.63496 8.67099 9.99496Z" fill="#0D2B49"/>
<path d="M11.421 9.99496C11.421 10.365 11.121 10.665 10.751 10.665C10.381 10.665 10.081 10.365 10.081 9.99496C10.081 9.63496 10.381 9.33496 10.751 9.33496C11.121 9.33496 11.421 9.63496 11.421 9.99496Z" fill="#0D2B49"/>
<path d="M5.91099 9.99496C5.91099 10.365 5.61099 10.665 5.24099 10.665C4.87099 10.665 4.58099 10.365 4.58099 9.99496C4.58099 9.63496 4.87099 9.33496 5.24099 9.33496C5.61099 9.33496 5.91099 9.63496 5.91099 9.99496Z" fill="#0D2B49"/>
<path d="M5.91099 12.6651C5.91099 13.0351 5.61099 13.3351 5.24099 13.3351C4.87099 13.3351 4.58099 13.0351 4.58099 12.6651C4.58099 12.2951 4.87099 11.9951 5.24099 11.9951C5.61099 11.9951 5.91099 12.2951 5.91099 12.6651Z" fill="#0D2B49"/>
<path d="M11.381 12.6651C11.381 13.0351 11.081 13.3351 10.711 13.3351H7.941C7.571 13.3351 7.271 13.0351 7.271 12.6651C7.271 12.2951 7.571 11.9951 7.941 11.9951H10.711C11.081 11.9951 11.381 12.2951 11.381 12.6651Z" fill="#0D2B49"/>
<path d="M13.871 9.66488C13.331 9.23488 12.681 9.00488 12.001 9.00488C11.071 9.00488 10.231 9.43488 9.69101 10.0949C9.26101 10.6149 9.00101 11.2849 9.00101 12.0049C9.00101 12.4149 9.07101 12.7749 9.22101 13.1349C9.34101 13.4349 9.51101 13.7049 9.72101 13.9449C10.261 14.6049 11.091 15.0049 12.001 15.0049C13.651 15.0049 15.001 13.6649 15.001 12.0049C15.001 11.0849 14.591 10.2349 13.871 9.66488ZM11.811 13.1249C11.741 13.1949 11.641 13.2349 11.551 13.2349C11.461 13.2349 11.361 13.1949 11.291 13.1249L10.191 12.0849L10.711 11.5349L11.551 12.3349L13.291 10.6149L13.821 11.1549L11.811 13.1249Z" fill="#0D2B49"/>
</svg>
