<svg width="16" height="16" viewBox="0 0 16 16" fill="none" xmlns="http://www.w3.org/2000/svg">
<path d="M13 4.50003H11.13C11.09 4.50069 11.0505 4.49088 11.0154 4.47159C10.9803 4.4523 10.9509 4.42419 10.93 4.39003L10.07 3.11003C10.0491 3.07588 10.0197 3.04776 9.98461 3.02847C9.94953 3.00918 9.91003 2.99938 9.87 3.00003H6.13C6.08997 2.99938 6.05047 3.00918 6.01539 3.02847C5.98031 3.04776 5.95088 3.07588 5.93 3.11003L5.07 4.39003C5.04912 4.42419 5.01969 4.4523 4.98461 4.47159C4.94953 4.49088 4.91003 4.50069 4.87 4.50003H3C2.45 4.50003 2 4.95003 2 5.50003V12C2 12.55 2.45 13 3 13H13C13.55 13 14 12.55 14 12V5.50003C14 4.95003 13.55 4.50003 13 4.50003ZM8 12C6.21 12 4.75 10.54 4.75 8.75003C4.75 6.96003 6.21 5.50003 8 5.50003C9.79 5.50003 11.25 6.96003 11.25 8.75003C11.25 10.54 9.79 12 8 12ZM12.5 6.50003C12.22 6.50003 12 6.28003 12 6.00003C12 5.72003 12.22 5.50003 12.5 5.50003C12.78 5.50003 13 5.72003 13 6.00003C13 6.28003 12.78 6.50003 12.5 6.50003ZM3.75 3.00003C3.34 3.00003 3 3.34003 3 3.75003V4.00003H4.5V3.75003C4.5 3.34003 4.16 3.00003 3.75 3.00003ZM10.25 8.75003C10.25 9.99003 9.24 11 8 11C6.76 11 5.75 9.99003 5.75 8.75003C5.75 7.51003 6.76 6.50003 8 6.50003C9.24 6.50003 10.25 7.51003 10.25 8.75003Z" fill="#0D2B49"/>
</svg>
