<svg width="16" height="16" viewBox="0 0 16 16" fill="none" xmlns="http://www.w3.org/2000/svg">
<path d="M13.72 10.68V8.95C13.95 8.67 14.09 8.32 14.09 7.94C14.09 7.06 13.37 6.34 12.49 6.34C12.34 6.34 12.2 6.36 12.07 6.4L11.44 3.38C11.34 2.87 10.88 2.5 10.37 2.5H5.41C4.9 2.5 4.45 2.87 4.34 3.37L3.71 6.36C3.65 6.34 3.59 6.34 3.52 6.34C2.64 6.34 1.92 7.06 1.92 7.94C1.92 8.32 2.05 8.67 2.28 8.94V10.68C2.02 10.77 1.84 11.01 1.84 11.3C1.84 11.66 2.14 11.96 2.5 11.96V13.29C2.5 13.41 2.59 13.5 2.71 13.5H4.27C4.39 13.5 4.48 13.41 4.48 13.29V11.96H11.52V13.29C11.52 13.41 11.61 13.5 11.73 13.5H13.29C13.41 13.5 13.5 13.41 13.5 13.29V11.96C13.86 11.96 14.16 11.66 14.16 11.3C14.16 11.01 13.98 10.77 13.72 10.68ZM3.52 8.54C3.19 8.54 2.92 8.27 2.92 7.94C2.92 7.61 3.19 7.34 3.52 7.34C3.85 7.34 4.11 7.61 4.11 7.94C4.11 8.27 3.85 8.54 3.52 8.54ZM6.42 10.64H5.42V7.12H6.42V10.64ZM8.39 10.64H7.39V7.12H8.39V10.64ZM10.39 10.64H9.39V7.12H10.39V10.64ZM12.49 8.54C12.16 8.54 11.89 8.27 11.89 7.94C11.89 7.61 12.16 7.34 12.49 7.34C12.82 7.34 13.09 7.61 13.09 7.94C13.09 8.27 12.82 8.54 12.49 8.54Z" fill="#0D2B49"/>
<path d="M14.16 5.47C14.16 5.89 13.77 6.24 13.28 6.24C12.8 6.24 12.4 5.89 12.4 5.47C12.4 5.05 12.8 4.7 13.28 4.7C13.77 4.7 14.16 5.05 14.16 5.47Z" fill="#0D2B49"/>
<path d="M3.6 5.47C3.6 5.89 3.21 6.24 2.72 6.24C2.24 6.24 1.84 5.89 1.84 5.47C1.84 5.05 2.24 4.7 2.72 4.7C3.21 4.7 3.6 5.05 3.6 5.47Z" fill="#0D2B49"/>
</svg>
