<svg width="16" height="16" viewBox="0 0 16 16" fill="none" xmlns="http://www.w3.org/2000/svg">
<path d="M13.276 12.3711C12.893 12.4441 11.721 12.2371 11.721 12.2371C11.721 12.2371 11.071 13.3651 10.748 13.6461C10.578 13.7941 10.301 13.6681 10.2 13.4671L8.90301 10.8951L9.20501 10.6151L9.84201 10.7381C9.90901 10.7491 9.97601 10.7491 10.043 10.7491C10.524 10.7491 10.96 10.4471 11.105 9.97706L11.284 9.42906L11.776 9.28406C11.888 9.25006 12 9.19506 12.089 9.12706L13.453 11.8221C13.567 12.0241 13.497 12.3291 13.276 12.3711Z" fill="#0D2B49"/>
<path d="M7.10301 10.8951L5.80601 13.4671C5.70501 13.6681 5.42801 13.7941 5.25801 13.6461C4.93501 13.3651 4.28501 12.2371 4.28501 12.2371C4.28501 12.2371 3.11401 12.4401 2.73001 12.3711C2.49901 12.3291 2.43901 12.0241 2.54001 11.8231L3.90401 9.11706C3.98201 9.17306 4.07201 9.21806 4.17201 9.25106L4.76501 9.46306L4.92201 9.97706C5.06701 10.4581 5.50401 10.7711 5.99601 10.7711C6.06301 10.7711 6.14101 10.7601 6.22001 10.7491L6.80201 10.6261L7.10301 10.8951Z" fill="#0D2B49"/>
<path d="M6.05901 9.54306C6.39101 9.74906 7.12801 9.41706 7.12801 9.41706C7.12801 9.41706 7.59301 10.0561 7.99801 10.0561C8.41101 10.0561 8.85801 9.42706 8.85801 9.42706C8.85801 9.42706 9.63601 9.70806 9.97301 9.52706C10.315 9.34306 10.388 8.53706 10.388 8.53706C10.388 8.53706 11.066 8.53506 11.327 8.13906C11.577 7.76106 11.238 7.04706 11.238 7.04706C11.238 7.04706 11.874 6.59606 11.874 6.18706C11.874 5.77806 11.228 5.26706 11.228 5.26706C11.228 5.26706 11.563 4.68506 11.382 4.30906C11.21 3.95206 10.418 3.84706 10.418 3.84706C10.418 3.84706 10.375 3.09706 10 2.85406C9.63601 2.61706 8.87801 2.95706 8.87801 2.95706C8.87801 2.95706 8.38801 2.31006 7.97801 2.31006C7.57101 2.31006 7.02801 2.97706 7.02801 2.97706C7.02801 2.97706 6.39801 2.65906 6.04501 2.85606C5.71101 3.04306 5.65801 3.77706 5.65801 3.77706C5.65801 3.77706 4.89001 3.83106 4.67401 4.17406C4.44701 4.53406 4.75801 5.34806 4.75801 5.34806C4.75801 5.34806 4.13501 5.77906 4.13501 6.18806C4.13501 6.59706 4.76801 7.05806 4.76801 7.05806C4.76801 7.05806 4.44101 7.77806 4.63801 8.13206C4.83101 8.47806 5.65701 8.58706 5.65701 8.58706C5.65701 8.58706 5.63101 9.27806 6.05901 9.54306Z" fill="#0D2B49"/>
</svg>
