<svg width="16" height="16" viewBox="0 0 16 16" fill="none" xmlns="http://www.w3.org/2000/svg">
<path d="M8 1.5C6.27609 1.5 4.62279 2.18482 3.40381 3.40381C2.18482 4.62279 1.5 6.27609 1.5 8C1.5 9.72391 2.18482 11.3772 3.40381 12.5962C4.62279 13.8152 6.27609 14.5 8 14.5C9.72391 14.5 11.3772 13.8152 12.5962 12.5962C13.8152 11.3772 14.5 9.72391 14.5 8C14.5 6.27609 13.8152 4.62279 12.5962 3.40381C11.3772 2.18482 9.72391 1.5 8 1.5ZM7.6 10.6C7.51 10.7 7.38 10.75 7.25 10.75C7.12 10.75 6.99 10.7 6.9 10.6L5.15 8.85L5.85 8.15L7.25 9.54L10.65 6.15L11.35 6.85L7.6 10.6Z" fill="#0D2B49"/>
</svg>
