<svg width="16" height="16" viewBox="0 0 16 16" fill="none" xmlns="http://www.w3.org/2000/svg">
<path d="M8 1.5C6.27609 1.5 4.62279 2.18482 3.40381 3.40381C2.18482 4.62279 1.5 6.27609 1.5 8C1.5 9.72391 2.18482 11.3772 3.40381 12.5962C4.62279 13.8152 6.27609 14.5 8 14.5C9.72391 14.5 11.3772 13.8152 12.5962 12.5962C13.8152 11.3772 14.5 9.72391 14.5 8C14.5 6.27609 13.8152 4.62279 12.5962 3.40381C11.3772 2.18482 9.72391 1.5 8 1.5ZM8.88 8.18L10.35 9.65L9.65 10.35L8.18 8.88C8.13011 8.83653 8.06617 8.81258 8 8.81258C7.93383 8.81258 7.86989 8.83653 7.82 8.88L6.35 10.35L5.65 9.65L7.12 8.18C7.21 8.08 7.21 7.92 7.12 7.82L5.65 6.35L6.35 5.65L7.82 7.12C7.92 7.21 8.08 7.21 8.18 7.12L9.65 5.65L10.35 6.35L8.88 7.82C8.79 7.92 8.79 8.08 8.88 8.18Z" fill="#0D2B49"/>
</svg>
