<svg width="16" height="16" viewBox="0 0 16 16" fill="none" xmlns="http://www.w3.org/2000/svg">
<path d="M8.884 7.823C8.86072 7.84622 8.84225 7.87381 8.82964 7.90418C8.81704 7.93456 8.81055 7.96712 8.81055 8C8.81055 8.03288 8.81704 8.06544 8.82964 8.09582C8.84225 8.12619 8.86072 8.15378 8.884 8.177L13.5 12.793L12.793 13.5L8.177 8.884C8.15378 8.86072 8.12619 8.84225 8.09582 8.82964C8.06544 8.81704 8.03288 8.81055 8 8.81055C7.96712 8.81055 7.93456 8.81704 7.90418 8.82964C7.87381 8.84225 7.84622 8.86072 7.823 8.884L3.207 13.5L2.5 12.793L7.116 8.177C7.13928 8.15378 7.15775 8.12619 7.17036 8.09582C7.18296 8.06544 7.18945 8.03288 7.18945 8C7.18945 7.96712 7.18296 7.93456 7.17036 7.90418C7.15775 7.87381 7.13928 7.84622 7.116 7.823L2.5 3.207L3.207 2.5L7.823 7.116C7.84622 7.13928 7.87381 7.15775 7.90418 7.17036C7.93456 7.18296 7.96712 7.18945 8 7.18945C8.03288 7.18945 8.06544 7.18296 8.09582 7.17036C8.12619 7.15775 8.15378 7.13928 8.177 7.116L12.793 2.5L13.5 3.207L8.884 7.823Z" fill="#0D2B49"/>
</svg>
