<svg width="16" height="16" viewBox="0 0 16 16" fill="none" xmlns="http://www.w3.org/2000/svg">
<path d="M13.72 7.5C13.52 6.38 11.93 5.5 10 5.5C9.92 5.5 9.83 5.5 9.75 5.51V4.75C9.75 4.67 9.74 4.58 9.72 4.5C9.52 3.38 7.93 2.5 6 2.5C4.07 2.5 2.48 3.38 2.28 4.5C2.26 4.58 2.25 4.67 2.25 4.75V8.3C2.27 8.69 2.44 9.05 2.75 9.37C2.98 9.61 3.28 9.82 3.64 10C4.26 10.3 5.04 10.49 5.9 10.5H6C6.09 10.5 6.17 10.5 6.25 10.49V11.3C6.27 11.69 6.44 12.05 6.75 12.37C6.98 12.61 7.28 12.82 7.64 13C8.26 13.3 9.04 13.49 9.9 13.5H10C10.9 13.5 11.72 13.31 12.36 13C12.72 12.82 13.02 12.61 13.25 12.37C13.57 12.04 13.75 11.66 13.75 11.25V7.75C13.75 7.67 13.74 7.58 13.72 7.5ZM6 6.5C5.36 6.5 4.79 6.4 4.32 6.24C3.48 5.96 2.93 5.49 2.79 5C2.762 4.92 2.749 4.835 2.75 4.75C2.75 4.67 2.76 4.58 2.79 4.5C3.01 3.73 4.25 3 6 3C7.75 3 8.99 3.73 9.21 4.5C9.24 4.58 9.25 4.67 9.25 4.75C9.25 4.83 9.24 4.92 9.21 5C9.15 5.22 9 5.43 8.79 5.63C8.07 5.77 7.44 6.05 7 6.41C6.69 6.47 6.36 6.5 6 6.5ZM13.21 8C13.07 8.49 12.52 8.96 11.68 9.24C11.21 9.4 10.64 9.5 10 9.5C9.51 9.502 9.023 9.438 8.55 9.31C8.47 9.29 8.39 9.26 8.32 9.24C7.48 8.96 6.93 8.49 6.79 8C6.762 7.92 6.749 7.835 6.75 7.75C6.75 7.67 6.76 7.58 6.79 7.5C6.85 7.28 6.99 7.07 7.21 6.88C7.59 6.52 8.21 6.22 9 6.09C9.08 6.07 9.16 6.06 9.25 6.05C9.41 6.03 9.57 6.01 9.75 6.01C9.83 6 9.92 6 10 6C11.75 6 12.99 6.73 13.21 7.5C13.24 7.58 13.25 7.67 13.25 7.75C13.25 7.83 13.24 7.92 13.21 8Z" fill="#0D2B49"/>
</svg>
