<svg width="16" height="16" viewBox="0 0 16 16" fill="none" xmlns="http://www.w3.org/2000/svg">
<path d="M2 2.71L2.704 2L5.502 4.838L5.501 2.498H6.498V6.25C6.498 6.389 6.387 6.5 6.25 6.5H2.51V5.5H4.75L2 2.71ZM14 2.71L13.296 2L10.498 4.838L10.499 2.498H9.502V6.25C9.502 6.389 9.613 6.5 9.75 6.5H13.489V5.5H11.249L14 2.71ZM2 13.29L2.704 14L5.502 11.162L5.501 13.502H6.498V9.75C6.498 9.611 6.387 9.5 6.25 9.5H2.51V10.5H4.75L2 13.29ZM11.25 10.5H13.489V9.5H9.75C9.7173 9.50013 9.68495 9.5067 9.65479 9.51934C9.62463 9.53197 9.59725 9.55042 9.57422 9.57364C9.55119 9.59685 9.53296 9.62437 9.52057 9.65464C9.50818 9.6849 9.50187 9.7173 9.502 9.75V13.502H10.499L10.498 11.162L13.296 14L14 13.29L11.25 10.5Z" fill="#0D2B49"/>
</svg>
