<svg width="16" height="16" viewBox="0 0 16 16" fill="none" xmlns="http://www.w3.org/2000/svg">
<path d="M3.065 3.85986H1.495V12.1399H3.065V3.85986Z" fill="#0D2B49"/>
<path d="M14.495 3.85986H12.955V12.1399H14.495V3.85986Z" fill="#0D2B49"/>
<path d="M4.065 2.85986V13.1399H11.955V2.85986H4.065ZM6.125 6.58986C6.355 6.58986 6.545 6.77986 6.545 7.00986C6.545 7.23986 6.355 7.42986 6.125 7.42986C5.895 7.42986 5.705 7.23986 5.705 7.00986C5.705 6.77986 5.895 6.58986 6.125 6.58986ZM10.115 9.30986C9.955 9.40986 9.73499 9.34986 9.635 9.18986L8.925 8.00986L7.865 9.07986C7.73499 9.20986 7.515 9.21986 7.375 9.07986L6.995 8.72986L6.375 9.30986C6.305 9.37986 6.215 9.40986 6.135 9.40986C6.035 9.40986 5.94499 9.36986 5.865 9.29986C5.73499 9.15986 5.745 8.92986 5.885 8.79986L6.735 7.97986C6.875 7.84986 7.085 7.84986 7.225 7.97986L7.605 8.32986L8.745 7.17986C8.815 7.09986 8.935 7.06986 9.045 7.07986C9.145 7.09986 9.245 7.15986 9.305 7.24986L10.245 8.81986C10.345 8.98986 10.295 9.20986 10.115 9.30986Z" fill="#0D2B49"/>
</svg>
