<svg width="16" height="16" viewBox="0 0 16 16" fill="none" xmlns="http://www.w3.org/2000/svg">
<path d="M8.5 6.5V9C8.5 8.16998 9.16998 7.5 10 7.5H11V8.5C11 9.32996 10.33 10 9.5 10H8.5V12.5C8.5 11.67 9.16998 11 10 11H11V12C11 12.83 10.33 13.5 9.5 13.5H8.5V14.5C8.5 14.78 8.28003 15 8 15C7.71997 15 7.5 14.78 7.5 14.5V13.5H6.5C5.66998 13.5 5 12.83 5 12V11H6C6.83002 11 7.5 11.67 7.5 12.5V10H6.5C5.66998 10 5 9.32996 5 8.5V7.5H6C6.83002 7.5 7.5 8.16998 7.5 9V6.5H6.5C5.66998 6.5 5 5.82996 5 5V4H6C6.83002 4 7.5 4.66998 7.5 5.5V4.03998L7.28998 3.82996C6.71002 3.23999 6.71002 2.28998 7.28998 1.70996L8 1L8.71002 1.70996C9.28998 2.28998 9.28998 3.23999 8.71002 3.82996L8.5 4.03998V5.5C8.5 4.66998 9.16998 4 10 4H11V5C11 5.82996 10.33 6.5 9.5 6.5H8.5Z" fill="#0D2B49"/>
</svg>
