<svg width="16" height="16" viewBox="0 0 16 16" fill="none" xmlns="http://www.w3.org/2000/svg">
<path fill-rule="evenodd" clip-rule="evenodd" d="M11 12.625V13.375C11 13.4082 10.9868 13.4399 10.9634 13.4634C10.9399 13.4868 10.9082 13.5 10.875 13.5H5.125C5.09185 13.5 5.06005 13.4868 5.03661 13.4634C5.01317 13.4399 5 13.4082 5 13.375V12.625C5 12.556 5.056 12.5 5.125 12.5H6V11.625C6 11.556 6.056 11.5 6.125 11.5H9.875C9.944 11.5 10 11.556 10 11.625V12.5H10.875C10.944 12.5 11 12.556 11 12.625ZM14.5 9.5V3.5C14.5 3.23478 14.3946 2.98043 14.2071 2.79289C14.0196 2.60536 13.7652 2.5 13.5 2.5H2.5C2.23478 2.5 1.98043 2.60536 1.79289 2.79289C1.60536 2.98043 1.5 3.23478 1.5 3.5V9.5C1.5 9.76522 1.60536 10.0196 1.79289 10.2071C1.98043 10.3946 2.23478 10.5 2.5 10.5H13.5C13.7652 10.5 14.0196 10.3946 14.2071 10.2071C14.3946 10.0196 14.5 9.76522 14.5 9.5ZM13.5 9H2.5V3.5H13.5V9Z" fill="#0D2B49"/>
</svg>
