<svg width="16" height="16" viewBox="0 0 16 16" fill="none" xmlns="http://www.w3.org/2000/svg">
<path d="M14 9.25V11.75C14 11.8163 13.9737 11.8799 13.9268 11.9268C13.8799 11.9737 13.8163 12 13.75 12H10.5V14L6.72 10.69C6.69194 10.6669 6.66934 10.6379 6.65382 10.6051C6.6383 10.5722 6.63026 10.5363 6.63026 10.5C6.63026 10.4637 6.6383 10.4278 6.65382 10.3949C6.66934 10.3621 6.69194 10.3331 6.72 10.31L10.5 7V9H13.75C13.8163 9 13.8799 9.02634 13.9268 9.07322C13.9737 9.12011 14 9.1837 14 9.25ZM9.28 5.31L5.5 2V4H2.25C2.1837 4 2.12011 4.02634 2.07322 4.07322C2.02634 4.12011 2 4.1837 2 4.25V6.75C2 6.888 2.112 7 2.25 7H5.5V9L9.28 5.69C9.4 5.59 9.4 5.41 9.28 5.31Z" fill="#0D2B49"/>
</svg>
