<svg width="16" height="16" viewBox="0 0 16 16" fill="none" xmlns="http://www.w3.org/2000/svg">
<path d="M12.5 14.5H3.5C3.23478 14.5 2.98043 14.3946 2.79289 14.2071C2.60536 14.0196 2.5 13.7652 2.5 13.5V2.5C2.5 2.23478 2.60536 1.98043 2.79289 1.79289C2.98043 1.60536 3.23478 1.5 3.5 1.5H12.5C12.7652 1.5 13.0196 1.60536 13.2071 1.79289C13.3946 1.98043 13.5 2.23478 13.5 2.5V13.5C13.5 13.7652 13.3946 14.0196 13.2071 14.2071C13.0196 14.3946 12.7652 14.5 12.5 14.5ZM10.29 9.9L9.58 9.66C9.27 9.55 9.01 9.36 8.9 9.11V8.46C9.08 8.37 9.39 7.83 9.44 7.44C9.54 7.43 9.65 7.3 9.7 6.89C9.73 6.65 9.68 6.53 9.61 6.48V6.14C9.61 5.14 8.99 4.29 8 4.29C7.02 4.29 6.39 5.14 6.39 6.14C6.39 6.27 6.4 6.38 6.4 6.48C6.33 6.53 6.28 6.65 6.3 6.89C6.36 7.3 6.46 7.43 6.57 7.44C6.62 7.83 6.93 8.37 7.11 8.46V9.11C7 9.36 6.73 9.55 6.43 9.66L5.72 9.9C5.13 10.12 4.54 10.45 4.42 11.34C5.37 11.56 6.69 11.71 8 11.71C9.32 11.71 10.64 11.56 11.58 11.34C11.47 10.45 10.88 10.12 10.29 9.9Z" fill="#0D2B49"/>
</svg>
