<svg width="16" height="16" viewBox="0 0 16 16" fill="none" xmlns="http://www.w3.org/2000/svg">
<path d="M14.489 5.85984C14.489 4.88584 14.114 3.97484 13.431 3.29484C12.7495 2.62235 11.8305 2.24529 10.873 2.24529C9.91553 2.24529 8.99656 2.62235 8.31501 3.29484L8.00001 3.61184L7.68901 3.29984C7.0092 2.6225 6.08866 2.24219 5.12901 2.24219C4.16936 2.24219 3.24882 2.6225 2.56901 3.29984C1.89167 3.97965 1.51135 4.90019 1.51135 5.85984C1.51135 6.81949 1.89167 7.74003 2.56901 8.41984L6.09901 11.9498L7.64901 13.4598C7.88101 13.6448 8.15401 13.7598 8.42901 13.7598C8.75901 13.7598 9.08901 13.6298 9.33901 13.3798C9.53901 13.1798 9.66901 12.9198 9.69901 12.6398C9.96901 12.6098 10.229 12.4898 10.439 12.2798C10.649 12.0698 10.769 11.8098 10.809 11.5398C11.089 11.4998 11.339 11.3798 11.539 11.1798C11.749 10.9698 11.869 10.7098 11.909 10.4398C12.179 10.3998 12.439 10.2798 12.649 10.0798C12.889 9.82984 13.019 9.50984 13.019 9.16984C13.019 9.07184 12.989 8.98084 12.966 8.88984L13.432 8.42384C13.7691 8.08764 14.036 7.6879 14.2175 7.24778C14.3989 6.80765 14.4912 6.3359 14.489 5.85984ZM11.939 9.36884C11.829 9.47884 11.649 9.47884 11.539 9.36884L10.109 7.92884C10.0135 7.83729 9.88631 7.78617 9.75401 7.78617C9.62171 7.78617 9.49452 7.83729 9.39901 7.92884C9.20901 8.12884 9.20901 8.44884 9.39901 8.63884H9.40901L10.839 10.0688C10.949 10.1788 10.949 10.3588 10.839 10.4688C10.789 10.5188 10.709 10.5488 10.639 10.5488C10.569 10.5488 10.499 10.5188 10.439 10.4688L9.00901 9.03884C8.80901 8.83884 8.49901 8.83884 8.29901 9.03884C8.10901 9.22884 8.10901 9.54884 8.29901 9.73884L9.73901 11.1788C9.83901 11.2888 9.83901 11.4588 9.73901 11.5688C9.62901 11.6788 9.44901 11.6788 9.33901 11.5688L7.90901 10.1388C7.70901 9.93884 7.38901 9.93884 7.19901 10.1388C6.99901 10.3288 6.99901 10.6488 7.19901 10.8488L8.62901 12.2788C8.68901 12.3288 8.70901 12.3988 8.70901 12.4788C8.70901 12.5488 8.68901 12.6188 8.62901 12.6788C8.51901 12.7888 8.34901 12.7888 8.23901 12.6788L3.26901 7.70884C2.77926 7.21771 2.50424 6.55243 2.50424 5.85884C2.50424 5.16526 2.77926 4.49997 3.26901 4.00884C3.78901 3.49884 4.45901 3.23884 5.12901 3.23884C5.79901 3.23884 6.46901 3.49884 6.97901 4.00884L7.29001 4.31984L6.52501 5.08584C6.49887 5.11283 6.47543 5.1423 6.45501 5.17384C6.26305 5.41752 6.16668 5.7229 6.18399 6.03262C6.2013 6.34233 6.3311 6.63507 6.54901 6.85584C7.02801 7.35184 7.89701 7.34384 8.36001 6.86384L9.10001 6.12984L11.94 8.96984C11.99 9.01984 12.02 9.08984 12.02 9.16984C12.02 9.23984 11.99 9.30984 11.94 9.36984L11.939 9.36884Z" fill="#0D2B49"/>
</svg>
