<svg width="16" height="16" viewBox="0 0 16 16" fill="none" xmlns="http://www.w3.org/2000/svg">
<path d="M12.5 5.23999C12.5 5.47999 12.48 5.71999 12.41 5.94999C12.39 7.35999 11.67 8.55999 10.67 9.00999C10.67 8.85999 10.64 8.68999 10.58 8.53999L9.89 6.86999C9.83 5.26999 9.06 3.88999 7.93 3.19999C8.28 2.87999 8.73 2.65999 9.22 2.56099C9.49 2.51099 9.75 2.48099 10.02 2.51099C10.39 2.54099 10.74 2.65099 11.06 2.82099C11.49 3.05099 11.85 3.40099 12.11 3.82099C12.36 4.24099 12.5 4.74099 12.5 5.24099V5.23999ZM13.72 10.04C13.4601 9.77119 13.1467 9.55997 12.8 9.41999C12.47 9.28999 12.11 9.27999 11.78 9.19999C11.68 9.17999 11.58 9.20999 11.51 9.27999C11.27 9.51999 10.89 9.67999 10.45 9.76999C10.4 9.85999 10.32 9.93999 10.24 10.01C10.49 10.17 10.71 10.35 10.91 10.55C11.38 11.04 11.71 11.64 11.86 12.29H14.2C14.36 12.29 14.5 12.16 14.5 12C14.51 11.24 14.21 10.54 13.72 10.04ZM10.191 11.248C9.93009 10.9797 9.61745 10.767 9.272 10.623C9.161 10.584 9.049 10.555 8.938 10.526L7.991 10.853C7.47558 11.2116 6.86386 11.4061 6.236 11.411H6.217C5.59909 11.4076 4.99681 11.2165 4.49 10.863L3.524 10.536C3.413 10.556 3.311 10.584 3.209 10.623C2.85924 10.7645 2.54284 10.9773 2.28 11.248C1.788 11.748 1.5 12.441 1.5 13.21C1.5 13.374 1.64 13.499 1.797 13.499H10.674C10.7516 13.4998 10.8264 13.4699 10.8821 13.4157C10.9377 13.3616 10.9697 13.2876 10.971 13.21C10.9775 12.8476 10.9119 12.4875 10.778 12.1507C10.6441 11.8138 10.4446 11.507 10.191 11.248ZM9.653 8.91999L8.89 7.08199V7.07199C8.89 5.35999 7.887 3.94599 6.569 3.74399C6.10824 3.66865 5.63548 3.74627 5.223 3.96499C4.248 4.45499 3.57 5.66799 3.57 7.07299V7.08299L2.809 8.91999C2.77833 8.99828 2.7797 9.0855 2.81282 9.16278C2.84594 9.24007 2.90815 9.30121 2.986 9.33299L4.908 9.99699C5.288 10.286 5.744 10.449 6.218 10.449H6.236C6.719 10.449 7.183 10.276 7.573 9.98799L9.476 9.33299C9.55385 9.30121 9.61606 9.24007 9.64918 9.16278C9.6823 9.0855 9.68367 8.99828 9.653 8.91999Z" fill="#0D2B49"/>
</svg>
