<svg width="16" height="16" viewBox="0 0 16 16" fill="none" xmlns="http://www.w3.org/2000/svg">
<path d="M11.532 12.311C11.5351 12.343 11.5302 12.3753 11.5178 12.4049C11.5055 12.4346 11.4859 12.4607 11.461 12.481C11.032 12.828 9.653 13.476 8.001 13.5C6.351 13.476 4.973 12.829 4.544 12.483C4.51889 12.4628 4.49917 12.4367 4.48661 12.4071C4.47404 12.3774 4.46902 12.3451 4.472 12.313C4.499 11.992 4.625 11.046 4.625 11.046C4.65825 10.9553 4.71065 10.8727 4.77863 10.8041C4.84662 10.7354 4.9286 10.6822 5.019 10.648L7.737 9.778C7.90934 9.72268 8.09466 9.72268 8.267 9.778L10.985 10.648C11.165 10.716 11.31 10.86 11.379 11.046C11.379 11.046 11.505 11.991 11.532 12.311ZM9.727 6.163C9.738 6.085 9.738 6.008 9.738 5.93C9.738 5.84 9.727 5.651 9.721 5.638C9.73266 5.574 9.73836 5.50905 9.738 5.444C9.738 5.074 9.622 4.744 9.443 4.536C9.42415 4.50466 9.3981 4.47826 9.367 4.459C9.072 3.973 8.614 3.694 8.098 3.668C7.478 3.674 6.968 3.96 6.864 4.329C6.7772 4.35199 6.69769 4.39673 6.633 4.459C6.413 4.647 6.262 5.016 6.262 5.444C6.262 5.509 6.268 5.58 6.279 5.638C6.268 5.728 6.262 5.826 6.262 5.93C6.262 6.008 6.262 6.085 6.273 6.163C6.22294 6.325 6.21502 6.49709 6.25 6.663C6.285 6.85 6.354 7.013 6.436 7.109C6.714 8.075 7.311 8.846 8 8.846C8.689 8.846 9.286 8.075 9.564 7.109C9.646 7.012 9.715 6.85 9.75 6.662C9.7848 6.49641 9.77689 6.32469 9.727 6.163ZM6.3 8.75L5.85 8.61C5.67842 8.55002 5.49158 8.55002 5.32 8.61L2.6 9.48C2.42 9.55 2.27 9.69 2.21 9.88L2 11.08C2.02 11.14 2.71 11.7 3.45 11.95L3.65 10.79L3.68 10.7C3.85 10.24 4.21 9.88 4.66 9.71L6.61 9.09C6.5 9 6.39 8.88 6.3 8.75ZM5.68 2.5C5.06 2.51 4.55 2.79 4.45 3.16C4.36234 3.1874 4.28084 3.23155 4.21 3.29C4 3.48 3.84 3.85 3.84 4.28C3.84 4.34 3.85 4.41 3.86 4.47C3.85 4.56 3.84 4.66 3.84 4.76C3.84 4.84 3.84 4.92 3.86 5C3.81 5.12 3.8 5.3 3.83 5.5C3.87 5.68 3.94 5.84 4.01 5.94C4.3 6.91 4.9 7.68 5.58 7.68C5.63 7.68 5.68 7.68 5.72 7.67C5.69 7.6 5.67 7.54 5.65 7.48C5.54 7.29 5.45 7.06 5.4 6.82C5.36 6.56 5.36 6.32 5.4 6.09V5.93C5.4 5.83 5.41 5.74 5.42 5.66C5.41 5.58 5.4 5.51 5.4 5.44C5.4 4.78 5.65 4.18 6.07 3.82C6.11 3.78 6.17 3.74 6.23 3.7C6.37 3.47 6.59 3.28 6.85 3.13C6.55 2.75 6.14 2.53 5.68 2.5ZM13.79 9.88C13.7591 9.78836 13.7081 9.70482 13.6406 9.63558C13.573 9.56635 13.4908 9.51317 13.4 9.48L10.68 8.61C10.5084 8.55002 10.3216 8.55002 10.15 8.61L9.7 8.75C9.61 8.88 9.5 9 9.39 9.09L11.29 9.7C11.79 9.88 12.15 10.24 12.32 10.7L12.35 10.79L12.55 11.95C13.29 11.7 13.98 11.14 14 11.08L13.79 9.88ZM12.14 5C12.16 4.92 12.16 4.84 12.16 4.76C12.16 4.67 12.14 4.48 12.14 4.47C12.15 4.41 12.16 4.34 12.16 4.28C12.16 3.9 12.04 3.57 11.86 3.37C11.84 3.34 11.81 3.31 11.79 3.29C11.49 2.8 11.03 2.53 10.51 2.5C9.89 2.51 9.39 2.79 9.29 3.16C9.28 3.16 9.27 3.16 9.26 3.17C9.56 3.35 9.83 3.6 10.03 3.9C10.07 3.95 10.11 3.99 10.13 4.04C10.43 4.4 10.6 4.91 10.6 5.44C10.6 5.51 10.59 5.58 10.59 5.65C10.59 5.72 10.6 5.82 10.6 5.93V6.09C10.64 6.32 10.64 6.56 10.6 6.81C10.55 7.06 10.46 7.29 10.35 7.48C10.33 7.54 10.31 7.6 10.28 7.67C10.32 7.68 10.37 7.68 10.42 7.68C11.1 7.68 11.7 6.91 11.99 5.94C12.06 5.84 12.13 5.68 12.17 5.5C12.2 5.3 12.19 5.12 12.14 5Z" fill="#0D2B49"/>
</svg>
