<svg width="16" height="16" viewBox="0 0 16 16" fill="none" xmlns="http://www.w3.org/2000/svg">
<path d="M13.5 13.5H2.5C2.23478 13.5 1.98043 13.3946 1.79289 13.2071C1.60536 13.0196 1.5 12.7652 1.5 12.5V3.5C1.5 3.23478 1.60536 2.98043 1.79289 2.79289C1.98043 2.60536 2.23478 2.5 2.5 2.5H13.5C13.7652 2.5 14.0196 2.60536 14.2071 2.79289C14.3946 2.98043 14.5 3.23478 14.5 3.5V12.5C14.5 12.7652 14.3946 13.0196 14.2071 13.2071C14.0196 13.3946 13.7652 13.5 13.5 13.5ZM9.46 9.16C9.34 9.29 9.2 9.4 9.03 9.5C8.574 9.755 7.908 9.664 7.59 9.22C7.267 8.817 7.184 7.878 7.36 7.3C7.485 6.943 7.692 6.633 8.01 6.47C8.296 6.318 8.694 6.322 8.97 6.47C9.12 6.55 9.26 6.65 9.4 6.77L10.16 5.82C9.258 4.804 7.503 4.845 6.58 5.85C5.508 6.936 5.479 9.122 6.55 10.21C7.538 11.178 9.335 11.203 10.23 10.09L9.46 9.16Z" fill="#0D2B49"/>
</svg>
