<svg width="16" height="16" viewBox="0 0 16 16" fill="none" xmlns="http://www.w3.org/2000/svg">
<path d="M7 4.992V10.992L10.5 7.992L7 4.992Z" fill="#0D2B49"/>
<path d="M12.1 10.931L11.05 10.591C10.61 10.431 10.22 10.161 10.06 9.811V9.499L9 10.405V13.491C10.84 13.471 12.67 13.251 14 12.971C13.82 11.701 12.96 11.231 12.1 10.931Z" fill="#0D2B49"/>
<path d="M7 14H8V11.262L7 12.12V14Z" fill="#0D2B49"/>
<path d="M8 2H7V3.881L8 4.737V2Z" fill="#0D2B49"/>
<path d="M2 3.5V13.483H6V11.983H3.5V10.322H5.5V8.822H3.5V7.162H5.5V5.662H3.5V4H6V2.5H3C2.45 2.5 2 2.95 2 3.5Z" fill="#0D2B49"/>
<path d="M11.24 6.67C11.29 6.34 11.2 6.17 11.09 6.09C11.11 5.96 11.11 5.8 11.11 5.61C11.11 4.28 10.3 3.14 9 3V5.587L11.032 7.329C11.121 7.217 11.198 7.021 11.24 6.67Z" fill="#0D2B49"/>
</svg>
