<svg width="16" height="16" viewBox="0 0 16 16" fill="none" xmlns="http://www.w3.org/2000/svg">
<path d="M9.962 2.5C9.412 2.5 8.962 2.95 8.962 3.5C8.962 3.52 8.962 3.54 8.972 3.56C9.492 3.68 9.932 4.02 10.212 4.46C10.642 4.36 10.962 3.96 10.962 3.5C10.962 2.95 10.512 2.5 9.962 2.5ZM8.502 4C7.672 4 7.002 4.67 7.002 5.5C7.002 6.32 7.672 7 8.502 7C9.332 7 10.002 6.32 10.002 5.5C10.002 4.67 9.332 4 8.502 4ZM14.282 6.61C14.1407 6.47076 13.9504 6.3927 13.752 6.3927C13.5536 6.3927 13.3633 6.47076 13.222 6.61L11.442 8.4C11.462 8.45 11.432 8.89 11.362 9.04C11.242 9.34 10.827 9.81 10.212 9.81L5.73 9.79V9.29L10.212 9.31C10.272 9.31 10.322 9.3 10.382 9.29C10.422 9.28 10.452 9.27 10.482 9.25C10.5986 9.20744 10.7021 9.13503 10.782 9.04C10.832 8.99 10.872 8.92 10.902 8.86V8.85C10.942 8.76 10.962 8.66 10.962 8.56V8.49C10.9546 8.39216 10.9275 8.29682 10.8823 8.20968C10.8372 8.12255 10.775 8.04541 10.6994 7.98286C10.6238 7.92032 10.5363 7.87366 10.4423 7.84568C10.3482 7.8177 10.2495 7.80896 10.152 7.82L7.48 7.81C7.3 7.71 6.39 7.1 6.16 7.03C5.69 6.89 5.19 6.95 4.75 7.16C4.09 7.48 3.72 8.1 3.37 8.72C3.39 8.73 6.33 11.69 6.37 11.74H9.802C10.072 11.74 10.322 11.63 10.512 11.45L14.282 7.67C14.572 7.38 14.572 6.9 14.282 6.61ZM5.89 12.65L5.18 13.36C5.08607 13.4505 4.96046 13.5008 4.83 13.5C4.69954 13.5008 4.57393 13.4505 4.48 13.36L1.65 10.53C1.45 10.33 1.45 10.02 1.65 9.82L2.36 9.11C2.45393 9.01946 2.57954 8.96922 2.71 8.97C2.84046 8.96922 2.96607 9.01946 3.06 9.11L5.89 11.94C6.09 12.14 6.09 12.45 5.89 12.65Z" fill="#0D2B49"/>
</svg>
