<svg width="16" height="16" viewBox="0 0 16 16" fill="none" xmlns="http://www.w3.org/2000/svg">
<path fill-rule="evenodd" clip-rule="evenodd" d="M8.36999 12.9398C8.38999 13.0098 8.40999 13.0698 8.42999 13.1198C8.45999 13.2198 8.48999 13.3098 8.52999 13.3998C8.53999 13.4198 8.54749 13.4373 8.55499 13.4548C8.56249 13.4723 8.56999 13.4898 8.57999 13.5098H4.02999C3.45999 13.5098 2.98999 13.0398 2.98999 12.4698V2.54977C2.98999 1.97977 3.45999 1.50977 4.02999 1.50977H8.72999L12.38 5.15977V8.26977C12.25 8.25977 12.12 8.24977 12 8.24977C9.92999 8.24977 8.24999 9.93977 8.24999 11.9998C8.24999 12.1698 8.25999 12.3298 8.27999 12.4898C8.29999 12.6398 8.32999 12.7798 8.36999 12.9398ZM11.34 5.15977L8.72999 2.54977V5.15977H11.34Z" fill="#0D2B49"/>
<path fill-rule="evenodd" clip-rule="evenodd" d="M14.96 11.57L14.99 11.75C15 11.83 15 11.92 15 12C15 12.21 14.98 12.41 14.94 12.61C14.88 12.9 14.77 13.17 14.64 13.43C14.59 13.52 14.54 13.6 14.49 13.68C14.37 13.84 14.25 13.99 14.12 14.12C13.99 14.25 13.84 14.37 13.68 14.49C13.6 14.54 13.52 14.59 13.43 14.64C13.17 14.77 12.9 14.88 12.61 14.94C12.41 14.98 12.21 15 12 15C11.89 15 11.79 14.99 11.69 14.98C11.64 14.98 11.59 14.97 11.54 14.96C11.44 14.95 11.34 14.93 11.25 14.9C11.11 14.87 10.96 14.82 10.83 14.76C10.71 14.71 10.61 14.66 10.51 14.6C10.37 14.52 10.24 14.43 10.12 14.33C10.05 14.29 9.99 14.23 9.93 14.17C9.84 14.08 9.75 13.98 9.68 13.88C9.58 13.77 9.5 13.65 9.43 13.53C9.43 13.52 9.42 13.52 9.42 13.52V13.51C9.40951 13.4905 9.39901 13.4712 9.38859 13.4521C9.32946 13.3436 9.2725 13.239 9.23 13.12C9.19 13.03 9.16 12.94 9.13 12.85C9.12 12.83 9.11 12.8 9.11 12.77C9.07 12.65 9.04 12.53 9.03 12.4C9.01 12.27 9 12.14 9 12C9 10.34 10.34 9 12 9C12.1 9 12.2 9 12.29 9.01C12.305 9.01 12.32 9.0125 12.335 9.015C12.35 9.0175 12.365 9.02 12.38 9.02C12.49 9.04 12.6 9.06 12.7 9.09C12.7284 9.09 12.7617 9.10004 12.793 9.10945C12.8059 9.11332 12.8184 9.11708 12.83 9.12C12.89 9.14 12.95 9.16 13 9.18C13.13 9.22 13.26 9.28 13.37 9.34C13.38 9.34 13.4 9.35 13.42 9.35999C13.43 9.35999 13.44 9.37 13.45 9.38C13.52 9.42 13.59 9.46 13.66 9.51L13.87 9.66C13.96 9.73 14.04 9.8 14.12 9.88C14.22 9.98 14.31 10.08 14.39 10.2C14.45 10.26 14.5 10.34 14.54 10.41C14.59 10.48 14.63 10.55 14.66 10.62C14.7 10.68 14.73 10.75 14.76 10.82C14.77 10.83 14.77 10.85 14.77 10.87C14.8 10.91 14.82 10.96 14.83 11.01C14.9 11.19 14.94 11.37 14.96 11.57ZM12.27 12.27C12.36 12.19 12.39 12.07 12.37 11.96V10.12C12.37 9.92 12.21 9.75 12 9.75C11.79 9.75 11.63 9.92 11.63 10.12V11.85L10.74 12.74C10.6 12.88 10.6 13.12 10.74 13.27C10.82 13.34 10.91 13.38 11.01 13.38C11.1 13.38 11.2 13.34 11.27 13.27L12.27 12.27Z" fill="#0D2B49"/>
</svg>
