<svg width="16" height="16" viewBox="0 0 16 16" fill="none" xmlns="http://www.w3.org/2000/svg">
<path d="M13.784 2.49609H5.94399C5.54399 2.49609 5.24399 2.77609 5.24399 3.11609V3.85609H14.494V3.11609C14.494 2.77609 14.174 2.49609 13.784 2.49609ZM5.24399 4.85609V5.49609C3.31399 5.49609 1.72399 6.37609 1.52399 7.49609C1.50399 7.57609 1.49399 7.66609 1.49399 7.74609V11.2961C1.51399 11.6861 1.68399 12.0461 1.99399 12.3661C2.22399 12.6161 2.51399 12.8161 2.87399 12.9961C3.49399 13.2961 4.27399 13.4861 5.13399 13.4961H5.23399C5.24399 13.4961 5.24399 13.4961 5.25399 13.4961C6.14399 13.4961 6.95399 13.3061 7.59399 12.9961C7.95399 12.8161 8.25399 12.6061 8.48399 12.3661C8.80399 12.0361 8.98399 11.6561 8.98399 11.2461V9.22609H13.784C14.174 9.22609 14.494 8.94609 14.494 8.61609V4.85609H5.24399ZM8.44399 7.99609C8.36399 8.22609 8.22399 8.41609 8.01399 8.61609C8.00399 8.61609 8.00399 8.63609 7.99399 8.63609C7.73399 8.87609 7.36399 9.07609 6.91399 9.22609C6.71399 9.29609 6.51399 9.35609 6.28399 9.39609C6.27399 9.40609 6.25399 9.39609 6.24399 9.40609C5.93399 9.46609 5.60399 9.49609 5.24399 9.49609C5.12399 9.49609 5.00399 9.49609 4.89399 9.47609C4.53399 9.46609 4.20399 9.41609 3.90399 9.33609C3.78399 9.30609 3.67399 9.27609 3.56399 9.23609C2.72399 8.95609 2.17399 8.48609 2.03399 7.99609C2.00399 7.91609 1.99399 7.82609 1.99399 7.74609C1.99399 7.66609 2.00399 7.57609 2.03399 7.49609C2.25399 6.72609 3.49399 5.99609 5.24399 5.99609C5.50399 5.99609 5.75399 6.01609 5.99399 6.04609C6.16399 6.06609 6.32399 6.09609 6.47399 6.12609C6.75399 6.18609 7.00399 6.26609 7.23399 6.37609C7.27399 6.38609 7.30399 6.40609 7.34399 6.42609C7.44399 6.46609 7.53399 6.51609 7.62399 6.56609C7.82399 6.68609 7.98399 6.81609 8.11399 6.95609C8.15399 6.98609 8.19399 7.03609 8.22399 7.07609C8.27399 7.13609 8.31399 7.20609 8.35399 7.26609C8.39399 7.33609 8.42399 7.41609 8.44399 7.48609L8.45399 7.53609C8.48399 7.62609 8.48399 7.66609 8.48399 7.74609C8.48399 7.82609 8.47399 7.91609 8.44399 7.99609Z" fill="#0D2B49"/>
</svg>
