<svg width="16" height="16" viewBox="0 0 16 16" fill="none" xmlns="http://www.w3.org/2000/svg">
<path d="M4 8.5H2C1.86739 8.5 1.74021 8.44732 1.64645 8.35355C1.55268 8.25979 1.5 8.13261 1.5 8C1.5 7.86739 1.55268 7.74021 1.64645 7.64645C1.74021 7.55268 1.86739 7.5 2 7.5H4C4.13261 7.5 4.25979 7.55268 4.35355 7.64645C4.44732 7.74021 4.5 7.86739 4.5 8C4.5 8.13261 4.44732 8.25979 4.35355 8.35355C4.25979 8.44732 4.13261 8.5 4 8.5ZM9 8.5H7C6.86739 8.5 6.74021 8.44732 6.64645 8.35355C6.55268 8.25979 6.5 8.13261 6.5 8C6.5 7.86739 6.55268 7.74021 6.64645 7.64645C6.74021 7.55268 6.86739 7.5 7 7.5H9C9.13261 7.5 9.25979 7.55268 9.35355 7.64645C9.44732 7.74021 9.5 7.86739 9.5 8C9.5 8.13261 9.44732 8.25979 9.35355 8.35355C9.25979 8.44732 9.13261 8.5 9 8.5ZM14 8.5H12C11.8674 8.5 11.7402 8.44732 11.6464 8.35355C11.5527 8.25979 11.5 8.13261 11.5 8C11.5 7.86739 11.5527 7.74021 11.6464 7.64645C11.7402 7.55268 11.8674 7.5 12 7.5H14C14.1326 7.5 14.2598 7.55268 14.3536 7.64645C14.4473 7.74021 14.5 7.86739 14.5 8C14.5 8.13261 14.4473 8.25979 14.3536 8.35355C14.2598 8.44732 14.1326 8.5 14 8.5Z" fill="#0D2B49"/>
</svg>
