<svg width="16" height="16" viewBox="0 0 16 16" fill="none" xmlns="http://www.w3.org/2000/svg">
<path d="M14.25 8.5H13.5V3.5C13.5 2.95 13.05 2.5 12.5 2.5H4.5C3.95 2.5 3.5 2.95 3.5 3.5V6H2.5C1.95 6 1.5 6.45 1.5 7V12.5C1.5 13.05 1.95 13.5 2.5 13.5H5.5C6.05 13.5 6.5 13.05 6.5 12.5H11.5V13.25C11.5 13.39 11.61 13.5 11.75 13.5H14.25C14.39 13.5 14.5 13.39 14.5 13.25V8.75C14.5 8.61 14.39 8.5 14.25 8.5ZM5.5 12.5H2.5V7H5.5V12.5ZM8.5 11.5H6.5V10.5H8.5V11.5ZM11.5 11.5H9.5V10.5H11.5V11.5ZM12.5 8.5H11.75C11.61 8.5 11.5 8.61 11.5 8.75V9.5H6.5V7C6.5 6.45 6.05 6 5.5 6H4.5V3.5H12.5V8.5Z" fill="#0D2B49"/>
</svg>
