<svg width="16" height="16" viewBox="0 0 16 16" fill="none" xmlns="http://www.w3.org/2000/svg">
<path d="M7 3.25C7 3.71413 6.81563 4.15925 6.48744 4.48744C6.15925 4.81563 5.71413 5 5.25 5C4.78587 5 4.34075 4.81563 4.01256 4.48744C3.68437 4.15925 3.5 3.71413 3.5 3.25C3.5 2.78587 3.68437 2.34075 4.01256 2.01256C4.34075 1.68437 4.78587 1.5 5.25 1.5C5.71413 1.5 6.15925 1.68437 6.48744 2.01256C6.81563 2.34075 7 2.78587 7 3.25ZM11 3.5C10.6022 3.5 10.2206 3.65804 9.93934 3.93934C9.65804 4.22064 9.5 4.60218 9.5 5C9.5 5.39782 9.65804 5.77936 9.93934 6.06066C10.2206 6.34196 10.6022 6.5 11 6.5C11.3978 6.5 11.7794 6.34196 12.0607 6.06066C12.342 5.77936 12.5 5.39782 12.5 5C12.5 4.60218 12.342 4.22064 12.0607 3.93934C11.7794 3.65804 11.3978 3.5 11 3.5ZM13.1 7H9V6.5C9 5.95 8.55 5.5 8 5.5H2.9C2.13 5.5 1.5 6.13 1.5 6.9V12.468C1.5 12.761 1.74 13.018 2.033 12.999C2.16006 12.9918 2.27948 12.936 2.36644 12.843C2.4534 12.7501 2.50123 12.6273 2.5 12.5V8.25C2.5 8.1837 2.52634 8.12011 2.57322 8.07322C2.62011 8.02634 2.6837 8 2.75 8C2.8163 8 2.87989 8.02634 2.92678 8.07322C2.97366 8.12011 3 8.1837 3 8.25V13C3 13.1326 3.05268 13.2598 3.14645 13.3536C3.24021 13.4473 3.36739 13.5 3.5 13.5H5.05C5.15 13.79 5.43 14 5.75 14C5.84 14 5.92 13.98 6 13.95V14.5H9V13.95C9.08 13.98 9.16 14 9.25 14C9.57 14 9.85 13.79 9.95 13.5H12.5C12.6326 13.5 12.7598 13.4473 12.8536 13.3536C12.9473 13.2598 13 13.1326 13 13V9.75C13 9.6837 13.0263 9.62011 13.0732 9.57322C13.1201 9.52634 13.1837 9.5 13.25 9.5C13.3163 9.5 13.3799 9.52634 13.4268 9.57322C13.4737 9.62011 13.5 9.6837 13.5 9.75V12.468C13.5 12.761 13.74 13.018 14.033 12.999C14.1601 12.9918 14.2795 12.936 14.3664 12.843C14.4534 12.7501 14.5012 12.6273 14.5 12.5V8.4C14.5 7.63 13.87 7 13.1 7ZM7.5 6.5C8.05 6.5 8.5 6.95 8.5 7.5C8.5 8.05 8.05 8.5 7.5 8.5C6.95 8.5 6.5 8.05 6.5 7.5C6.5 6.95 6.95 6.5 7.5 6.5ZM9.5 13.25C9.5 13.39 9.39 13.5 9.25 13.5C9.11 13.5 9 13.39 9 13.25V10.75C9 10.61 8.89 10.5 8.75 10.5C8.61 10.5 8.5 10.61 8.5 10.75V14H6.5V10.75C6.5 10.61 6.39 10.5 6.25 10.5C6.11 10.5 6 10.61 6 10.75V13.25C6 13.39 5.89 13.5 5.75 13.5C5.61 13.5 5.5 13.39 5.5 13.25V10C5.5 9.63 5.7 9.31 6 9.14C6.15 9.05 6.32 9 6.5 9H8.5C8.68 9 8.85 9.05 9 9.14C9.3 9.31 9.5 9.63 9.5 10V13.25Z" fill="#0D2B49"/>
</svg>
