<svg width="16" height="16" viewBox="0 0 16 16" fill="none" xmlns="http://www.w3.org/2000/svg">
<path d="M10.247 7.13009L8.001 13.5041L5.756 7.13009H10.247Z" fill="#0D2B49"/>
<path d="M14.508 7.14209L9.55301 12.1121L11.302 7.14009L14.508 7.14209Z" fill="#0D2B49"/>
<path d="M1.492 7.14409L6.448 12.1121L4.696 7.14009L1.492 7.14409Z" fill="#0D2B49"/>
<path d="M14.498 6.15409H11.639L13.099 3.20609L14.498 6.15409Z" fill="#0D2B49"/>
<path d="M12.335 2.50409L10.869 5.46009L8.959 2.50409H12.335Z" fill="#0D2B49"/>
<path d="M10.122 6.15409H5.881L7.973 2.90309L8.007 2.85709L8.03 2.90309L10.122 6.15409Z" fill="#0D2B49"/>
<path d="M1.501 6.14609H4.36L2.901 3.19809L1.501 6.14609Z" fill="#0D2B49"/>
<path d="M3.664 2.49609L5.15 5.50609L7.049 2.49609H3.664Z" fill="#0D2B49"/>
</svg>
