<svg width="16" height="16" viewBox="0 0 16 16" fill="none" xmlns="http://www.w3.org/2000/svg">
<path fill-rule="evenodd" clip-rule="evenodd" d="M12 1.5H4C3.45 1.5 3 1.95 3 2.5V13.5C3 14.05 3.45 14.5 4 14.5H12C12.55 14.5 13 14.05 13 13.5V2.5C13 1.95 12.55 1.5 12 1.5ZM5 3H11V4.5H5V3ZM8 8.5C8.41 8.5 8.75 8.84 8.75 9.25C8.75 9.66 8.41 10 8 10C7.59 10 7.25 9.66 7.25 9.25C7.25 8.84 7.59 8.5 8 8.5ZM7.25 6.75C7.25 6.34 7.59 6 8 6C8.41 6 8.75 6.34 8.75 6.75C8.75 7.16 8.41 7.5 8 7.5C7.59 7.5 7.25 7.16 7.25 6.75ZM8 11C8.41 11 8.75 11.34 8.75 11.75C8.75 12.16 8.41 12.5 8 12.5C7.59 12.5 7.25 12.16 7.25 11.75C7.25 11.34 7.59 11 8 11ZM10.25 8.5C10.66 8.5 11 8.84 11 9.25C11 9.66 10.66 10 10.25 10C9.84 10 9.5 9.66 9.5 9.25C9.5 8.84 9.84 8.5 10.25 8.5ZM9.5 6.75C9.5 6.34 9.84 6 10.25 6C10.66 6 11 6.34 11 6.75C11 7.16 10.66 7.5 10.25 7.5C9.84 7.5 9.5 7.16 9.5 6.75ZM10.25 11C10.66 11 11 11.34 11 11.75C11 12.16 10.66 12.5 10.25 12.5C9.84 12.5 9.5 12.16 9.5 11.75C9.5 11.34 9.84 11 10.25 11ZM5.75 6C6.16 6 6.5 6.34 6.5 6.75C6.5 7.16 6.16 7.5 5.75 7.5C5.34 7.5 5 7.16 5 6.75C5 6.34 5.34 6 5.75 6ZM5.75 8.5C6.16 8.5 6.5 8.84 6.5 9.25C6.5 9.66 6.16 10 5.75 10C5.34 10 5 9.66 5 9.25C5 8.84 5.34 8.5 5.75 8.5ZM5.75 11C6.16 11 6.5 11.34 6.5 11.75C6.5 12.16 6.16 12.5 5.75 12.5C5.34 12.5 5 12.16 5 11.75C5 11.34 5.34 11 5.75 11Z" fill="#0D2B49"/>
</svg>
