<svg width="16" height="16" viewBox="0 0 16 16" fill="none" xmlns="http://www.w3.org/2000/svg">
<path d="M14 9.5C14.0037 9.89743 13.8494 10.2801 13.571 10.5637C13.2926 10.8473 12.9129 11.0088 12.5155 11.0125C12.1181 11.0162 11.7354 10.8619 11.4518 10.5835C11.1682 10.3051 11.0067 9.92543 11.003 9.528L9.916 9.166C9.776 9.395 9.596 9.594 9.386 9.759L10.215 11.507C10.227 11.507 10.237 11.5 10.25 11.5C10.4972 11.5 10.7389 11.5733 10.9445 11.7107C11.15 11.848 11.3102 12.0432 11.4049 12.2716C11.4995 12.5001 11.5242 12.7514 11.476 12.9939C11.4278 13.2363 11.3087 13.4591 11.1339 13.6339C10.9591 13.8087 10.7363 13.9278 10.4939 13.976C10.2514 14.0242 10.0001 13.9995 9.77165 13.9049C9.54324 13.8102 9.34802 13.65 9.21066 13.4445C9.07331 13.2389 9 12.9972 9 12.75C9 12.438 9.125 12.162 9.314 11.943L8.486 10.194C8.32652 10.2303 8.16356 10.2491 8 10.25C7.48788 10.248 6.99209 10.0696 6.596 9.745L4.439 11.448C4.464 11.548 4.5 11.643 4.5 11.75C4.5 11.9972 4.42669 12.2389 4.28934 12.4445C4.15199 12.65 3.95676 12.8102 3.72836 12.9049C3.49995 12.9995 3.24861 13.0242 3.00614 12.976C2.76366 12.9278 2.54093 12.8087 2.36612 12.6339C2.1913 12.4591 2.07225 12.2363 2.02402 11.9939C1.97579 11.7514 2.00054 11.5001 2.09515 11.2716C2.18976 11.0432 2.34998 10.848 2.55554 10.7107C2.7611 10.5733 3.00277 10.5 3.25 10.5C3.461 10.5 3.651 10.566 3.826 10.658L5.974 8.963C5.82815 8.66283 5.7516 8.33373 5.75 8C5.75 7.56 5.881 7.153 6.1 6.806L4.576 5.284C4.32274 5.42404 4.03839 5.49831 3.749 5.5C3.40293 5.4998 3.06468 5.397 2.77703 5.20459C2.48937 5.01217 2.26522 4.73879 2.13292 4.419C2.00062 4.09922 1.96611 3.74738 2.03375 3.40798C2.10139 3.06858 2.26814 2.75685 2.51292 2.51221C2.7577 2.26757 3.06952 2.101 3.40896 2.03355C3.7484 1.96611 4.10022 2.00082 4.41993 2.13331C4.73964 2.26579 5.01289 2.49009 5.20514 2.77786C5.39739 3.06562 5.5 3.40393 5.5 3.75C5.5 4.05 5.417 4.33 5.284 4.577L6.806 6.099C7.28923 5.79265 7.87162 5.68347 8.433 5.794L8.97 4.586C8.82174 4.4466 8.70356 4.27835 8.62273 4.09159C8.5419 3.90483 8.50014 3.7035 8.5 3.5C8.5 3.20333 8.58797 2.91332 8.7528 2.66665C8.91762 2.41997 9.15189 2.22771 9.42598 2.11418C9.70007 2.00065 10.0017 1.97094 10.2926 2.02882C10.5836 2.0867 10.8509 2.22956 11.0607 2.43934C11.2704 2.64912 11.4133 2.91639 11.4712 3.20737C11.5291 3.49834 11.4994 3.79994 11.3858 4.07403C11.2723 4.34811 11.08 4.58238 10.8334 4.7472C10.5867 4.91203 10.2967 5 10 5C9.96 5 9.924 4.991 9.886 4.988L9.345 6.206C9.62513 6.41391 9.85282 6.68437 10.0099 6.99583C10.1671 7.3073 10.2493 7.65115 10.25 8C10.25 8.074 10.235 8.144 10.228 8.216L11.323 8.581C11.597 8.23 12.02 8 12.5 8C12.8978 8 13.2794 8.15804 13.5607 8.43934C13.842 8.72064 14 9.10218 14 9.5Z" fill="#0D2B49"/>
</svg>
