<svg width="16" height="16" viewBox="0 0 16 16" fill="none" xmlns="http://www.w3.org/2000/svg">
<path d="M13 8.5H3V7.5H13V8.5ZM8 10.5C7.73478 10.5 7.48043 10.6054 7.29289 10.7929C7.10536 10.9804 7 11.2348 7 11.5C7 11.7652 7.10536 12.0196 7.29289 12.2071C7.48043 12.3946 7.73478 12.5 8 12.5C8.26522 12.5 8.51957 12.3946 8.70711 12.2071C8.89464 12.0196 9 11.7652 9 11.5C9 11.2348 8.89464 10.9804 8.70711 10.7929C8.51957 10.6054 8.26522 10.5 8 10.5ZM8 3.5C7.73478 3.5 7.48043 3.60536 7.29289 3.79289C7.10536 3.98043 7 4.23478 7 4.5C7 4.76522 7.10536 5.01957 7.29289 5.20711C7.48043 5.39464 7.73478 5.5 8 5.5C8.26522 5.5 8.51957 5.39464 8.70711 5.20711C8.89464 5.01957 9 4.76522 9 4.5C9 4.23478 8.89464 3.98043 8.70711 3.79289C8.51957 3.60536 8.26522 3.5 8 3.5Z" fill="#0D2B49"/>
</svg>
