<svg width="16" height="16" viewBox="0 0 16 16" fill="none" xmlns="http://www.w3.org/2000/svg">
<path d="M10.256 5.193C9.92301 5.293 9.59001 5.434 9.25801 5.605L6.70301 2.98C8.28901 1.964 9.72701 1.652 10.393 2.336C10.922 2.879 10.833 3.945 10.256 5.193ZM12.929 2.929C12.4814 2.47077 11.9036 2.16143 11.274 2.043C11.969 3.241 11.48 5.032 10.394 6.773L12.831 9.278C14.181 6.873 14.299 4.339 12.929 2.929ZM2.50301 1.5L2.16101 1.852L1.81801 2.204L4.43201 4.891C2.19001 7.225 1.15201 9.871 2.10201 10.848C2.63001 11.391 3.67801 11.3 4.90201 10.697C5.21501 9.59 5.90001 8.433 6.87901 7.407L8.53301 9.107C6.66301 11.029 4.52901 12.217 2.97301 12.217C2.49301 12.217 2.11201 12.105 1.81801 11.944C1.96501 12.548 2.24801 13.081 2.66001 13.504C4.47001 15.366 8.20001 14.54 11.03 11.673L13.565 14.279L14.25 13.574L2.50301 1.5Z" fill="#0D2B49"/>
</svg>
