<svg width="16" height="16" viewBox="0 0 16 16" fill="none" xmlns="http://www.w3.org/2000/svg">
<path fill-rule="evenodd" clip-rule="evenodd" d="M6.67 1.5H3.33C3.15 1.5 3 1.61 3 1.75V14.25C3 14.39 3.15 14.5 3.33 14.5H6.67C6.85 14.5 7 14.39 7 14.25V1.75C7 1.61 6.85 1.5 6.67 1.5ZM5 13.5C4.59 13.5 4.25 13.16 4.25 12.75C4.25 12.34 4.59 12 5 12C5.41 12 5.75 12.34 5.75 12.75C5.75 13.16 5.41 13.5 5 13.5ZM6 11H4V2.5H6V11ZM12.67 1.5H9.33C9.15 1.5 9 1.61 9 1.75V14.25C9 14.39 9.15 14.5 9.33 14.5H12.67C12.85 14.5 13 14.39 13 14.25V1.75C13 1.61 12.85 1.5 12.67 1.5ZM11 13.5C10.59 13.5 10.25 13.16 10.25 12.75C10.25 12.34 10.59 12 11 12C11.41 12 11.75 12.34 11.75 12.75C11.75 13.16 11.41 13.5 11 13.5ZM12 11H10V2.5H12V11Z" fill="#0D2B49"/>
</svg>
