<svg width="16" height="16" viewBox="0 0 16 16" fill="none" xmlns="http://www.w3.org/2000/svg">
<path fill-rule="evenodd" clip-rule="evenodd" d="M14.5 10.032C14.5 11.406 13.45 12.5 12.16 12.5H4.36C2.78 12.5 1.5 11.164 1.5 9.49C1.5 8.155 2.36 6.965 3.59 6.626C3.66 4.894 5.03 3.5 6.7 3.5C7.75 3.5 8.72 4.061 9.31 4.99C9.56 4.903 9.81 4.874 10.08 4.874C11.61 4.874 12.88 6.152 12.94 7.739C13.86 8.068 14.5 9.006 14.5 10.032ZM9.36 8.49L8.5 9.34V6.15H7.5V9.34L6.64 8.49L5.94 9.19L7.82 11.07C7.92 11.17 8.08 11.17 8.18 11.07L10.06 9.19L9.36 8.49Z" fill="#0D2B49"/>
</svg>
