<svg width="16" height="16" viewBox="0 0 16 16" fill="none" xmlns="http://www.w3.org/2000/svg">
<path d="M5.5 14.5H2.5V5.75C2.5 5.6837 2.52634 5.62011 2.57322 5.57322C2.62011 5.52634 2.6837 5.5 2.75 5.5H5.25C5.3163 5.5 5.37989 5.52634 5.42678 5.57322C5.47366 5.62011 5.5 5.6837 5.5 5.75V14.5ZM9.25 3.5H6.75C6.6837 3.5 6.62011 3.52634 6.57322 3.57322C6.52634 3.62011 6.5 3.6837 6.5 3.75V14.5H9.5V3.75C9.5 3.6837 9.47366 3.62011 9.42678 3.57322C9.37989 3.52634 9.3163 3.5 9.25 3.5ZM13.25 1.5H10.75C10.6837 1.5 10.6201 1.52634 10.5732 1.57322C10.5263 1.62011 10.5 1.6837 10.5 1.75V14.5H13.5V1.75C13.5 1.6837 13.4737 1.62011 13.4268 1.57322C13.3799 1.52634 13.3163 1.5 13.25 1.5Z" fill="#0D2B49"/>
</svg>
