<svg width="16" height="16" viewBox="0 0 16 16" fill="none" xmlns="http://www.w3.org/2000/svg">
<path d="M12.04 10.8391C12.0399 10.8894 12.0244 10.9385 11.9956 10.9798C11.9669 11.0211 11.9262 11.0526 11.879 11.0701L8.09001 12.4851C8.03103 12.5054 7.96698 12.5054 7.90801 12.4851L4.12101 11.0701C4.07397 11.0525 4.03332 11.0212 4.00441 10.9802C3.9755 10.9391 3.95968 10.8903 3.95901 10.8401V9.00209C3.95901 8.79309 3.97901 8.58509 4.02001 8.38009L7.71701 9.93509L7.89901 9.98509H8.00001L8.18201 9.97509L11.98 8.38009C12.02 8.58509 12.04 8.79309 12.04 9.00209V10.8391ZM14.121 6.05309L8.08101 3.51509C8.02888 3.49497 7.97113 3.49497 7.91901 3.51509L1.88001 6.05309C1.84223 6.06743 1.80969 6.09288 1.78666 6.12608C1.76363 6.15928 1.7512 6.19868 1.75101 6.23909C1.75092 6.27956 1.76324 6.31908 1.78631 6.35234C1.80937 6.38559 1.84207 6.41098 1.88001 6.42509L7.92001 8.97309C7.97201 8.99309 8.03001 8.99309 8.08201 8.97309L11.819 7.39809L13.051 6.87609V8.25109L12.799 9.00309H13.809L13.557 8.25109V6.66609L14.122 6.42509C14.1598 6.41074 14.1923 6.38529 14.2154 6.35209C14.2384 6.31889 14.2508 6.27949 14.251 6.23909C14.2512 6.19858 14.239 6.15899 14.2159 6.12571C14.1928 6.09243 14.159 6.06707 14.121 6.05309Z" fill="#0D2B49"/>
</svg>
