<svg width="16" height="16" viewBox="0 0 16 16" fill="none" xmlns="http://www.w3.org/2000/svg">
<path fill-rule="evenodd" clip-rule="evenodd" d="M10.758 9.479H12.375C12.212 10.525 11.858 11.373 11.275 12.037C10.693 12.685 9.95 13 9.044 13C7.912 13 7.038 12.568 6.392 11.688C6.052 11.223 5.809 10.675 5.647 10.027H3.625L3.884 8.714H5.453C5.42 8.499 5.42 8.282 5.42 8.034C5.42 7.818 5.42 7.618 5.436 7.419H3.625L3.884 6.123H5.614C5.792 5.343 6.1 4.695 6.52 4.18C7.168 3.383 7.976 3 8.945 3C10.273 3 11.226 3.531 11.841 4.578C12.181 5.16 12.358 5.758 12.375 6.355H10.758C10.645 5.908 10.499 5.557 10.338 5.325C10.047 4.91 9.594 4.695 9.012 4.695C8.43 4.695 7.945 4.994 7.605 5.591C7.524 5.741 7.427 5.923 7.363 6.122H9.885L9.609 7.419H7.119C7.102 7.635 7.102 7.85 7.102 8.066C7.102 8.298 7.102 8.515 7.118 8.713H9.447L9.188 10.025H7.394C7.459 10.191 7.557 10.341 7.636 10.474C8.007 11.005 8.461 11.272 9.027 11.272C9.593 11.272 10.03 11.039 10.337 10.591C10.5 10.341 10.629 9.976 10.758 9.479Z" fill="#0D2B49"/>
</svg>
