<svg width="16" height="16" viewBox="0 0 16 16" fill="none" xmlns="http://www.w3.org/2000/svg">
<path d="M3.75 13H6V14H2.25C2.1837 14 2.12011 13.9737 2.07322 13.9268C2.02634 13.8799 2 13.8163 2 13.75V10H3V12.33L5.66 9.66L6.37 10.37L3.75 13ZM12.25 13H10V14H13.75C13.8163 14 13.8799 13.9737 13.9268 13.9268C13.9737 13.8799 14 13.8163 14 13.75V10H13V12.33L10.34 9.66L9.63 10.37L12.25 13ZM9.63 5.63L10.34 6.34L13 3.67V6H14V2.25C14 2.1837 13.9737 2.12011 13.9268 2.07322C13.8799 2.02634 13.8163 2 13.75 2H10V3H12.25L9.63 5.63ZM3.75 3H6V2H2.25C2.1837 2 2.12011 2.02634 2.07322 2.07322C2.02634 2.12011 2 2.1837 2 2.25V6H3V3.67L5.66 6.34L6.37 5.63L3.75 3Z" fill="#0D2B49"/>
</svg>
