<svg width="16" height="16" viewBox="0 0 16 16" fill="none" xmlns="http://www.w3.org/2000/svg">
<path d="M9.83001 10.901H10.82L11.1 10.991L8.47001 13.651C8.37001 13.751 8.31001 13.871 8.27001 13.991C8.02001 14.001 7.76001 14.001 7.51001 14.001C5.31001 14.001 3.10001 13.741 1.51001 13.401C1.71001 11.951 2.70001 11.411 3.68001 11.071L4.87001 10.681C5.38001 10.501 5.83001 10.191 6.01001 9.80098V8.75098C5.71001 8.60098 5.18001 7.73098 5.11001 7.10098C4.92001 7.08098 4.74001 6.87098 4.66001 6.20098C4.61001 5.82098 4.71001 5.64098 4.83001 5.54098C4.81001 5.36098 4.81001 5.18098 4.81001 5.00098C4.81001 3.38098 5.86001 2.00098 7.51001 2.00098C9.16001 2.00098 10.21 3.38098 10.21 5.00098C10.21 5.21098 10.2 5.39098 10.18 5.54098C10.31 5.64098 10.4 5.82098 10.36 6.20098C10.27 6.87098 10.09 7.08098 9.91001 7.10098C9.86001 7.55098 9.58001 8.12098 9.32001 8.46098C9.31001 8.46098 9.31001 8.46098 9.30001 8.47098C9.27002 8.51097 9.24 8.55098 9.21001 8.58098C9.14001 8.66098 9.07001 8.72098 9.01001 8.75098V9.80098C9.03001 9.84098 9.05001 9.88098 9.08001 9.92098V10.151C9.08001 10.561 9.42001 10.901 9.83001 10.901Z" fill="#0D2B49"/>
<path d="M9.83 9.00098H14.43C14.74 9.00098 15 9.25098 15 9.57098V14.191H13.85V10.901L11.33 13.451L11.02 13.771L9.8 15.001L9.39 14.571L9 14.181L9.23 13.951L11.87 11.281L12.99 10.151H9.83V9.00098Z" fill="#0D2B49"/>
</svg>
