<svg width="16" height="16" viewBox="0 0 16 16" fill="none" xmlns="http://www.w3.org/2000/svg">
<path d="M14.5 7.9999C14.5 7.9999 11.59 3.4999 8 3.4999C6.96 3.4999 5.98 3.8699 5.11 4.4099L3.85 3.1499L3.15 3.8499L4.28 4.9799C2.6 6.2999 1.5 7.9999 1.5 7.9999C1.5 7.9999 4.41 12.4999 8 12.4999C9.04 12.4999 10.02 12.1299 10.89 11.5899L12.15 12.8499L12.85 12.1499L11.72 11.0199C13.4 9.6999 14.5 7.9999 14.5 7.9999ZM8 11.2499C6.21 11.2499 4.75 9.7899 4.75 7.9999C4.75 7.2799 4.99 6.6199 5.38 6.0799L6.84 7.5399C6.75125 7.76629 6.73045 8.01365 6.78017 8.25168C6.82988 8.48971 6.94794 8.70808 7.11988 8.88002C7.29183 9.05196 7.51019 9.17002 7.74822 9.21974C7.98625 9.26945 8.23361 9.24865 8.46 9.1599L9.92 10.6199C9.38 11.0099 8.72 11.2499 8 11.2499ZM10.62 9.9199L9.16 8.4599C9.24875 8.23351 9.26955 7.98615 9.21983 7.74812C9.17012 7.51009 9.05206 7.29173 8.88012 7.11978C8.70817 6.94784 8.48981 6.82978 8.25178 6.78007C8.01375 6.73036 7.76639 6.75115 7.54 6.8399L6.08 5.3799C6.62 4.9899 7.28 4.7499 8 4.7499C9.79 4.7499 11.25 6.2099 11.25 7.9999C11.25 8.7199 11.01 9.3799 10.62 9.9199Z" fill="#0D2B49"/>
</svg>
