<svg width="16" height="16" viewBox="0 0 16 16" fill="none" xmlns="http://www.w3.org/2000/svg">
<path d="M8 3.5C4.41 3.5 1.5 8 1.5 8C1.5 8 4.41 12.5 8 12.5C11.59 12.5 14.5 8 14.5 8C14.5 8 11.59 3.5 8 3.5ZM8 11.25C6.21 11.25 4.75 9.79 4.75 8C4.75 6.21 6.21 4.75 8 4.75C9.79 4.75 11.25 6.21 11.25 8C11.25 9.79 9.79 11.25 8 11.25ZM9.25 8C9.25 8.33152 9.1183 8.64946 8.88388 8.88388C8.64946 9.1183 8.33152 9.25 8 9.25C7.66848 9.25 7.35054 9.1183 7.11612 8.88388C6.8817 8.64946 6.75 8.33152 6.75 8C6.75 7.66848 6.8817 7.35054 7.11612 7.11612C7.35054 6.8817 7.66848 6.75 8 6.75C8.33152 6.75 8.64946 6.8817 8.88388 7.11612C9.1183 7.35054 9.25 7.66848 9.25 8Z" fill="#0D2B49"/>
</svg>
