<svg width="16" height="16" viewBox="0 0 16 16" fill="none" xmlns="http://www.w3.org/2000/svg">
<path d="M5 2.5C5 2.63261 4.94732 2.75979 4.85355 2.85355C4.75979 2.94732 4.63261 3 4.5 3H3.25C3.1837 3 3.12011 3.02634 3.07322 3.07322C3.02634 3.12011 3 3.1837 3 3.25V4.5C3 4.63261 2.94732 4.75979 2.85355 4.85355C2.75979 4.94732 2.63261 5 2.5 5C2.36739 5 2.24021 4.94732 2.14645 4.85355C2.05268 4.75979 2 4.63261 2 4.5V3C2 2.73478 2.10536 2.48043 2.29289 2.29289C2.48043 2.10536 2.73478 2 3 2H4.5C4.63261 2 4.75979 2.05268 4.85355 2.14645C4.94732 2.24021 5 2.36739 5 2.5ZM14 4.5V3C14 2.73478 13.8946 2.48043 13.7071 2.29289C13.5196 2.10536 13.2652 2 13 2H11.5C11.3674 2 11.2402 2.05268 11.1464 2.14645C11.0527 2.24021 11 2.36739 11 2.5C11 2.63261 11.0527 2.75979 11.1464 2.85355C11.2402 2.94732 11.3674 3 11.5 3H12.75C12.8163 3 12.8799 3.02634 12.9268 3.07322C12.9737 3.12011 13 3.1837 13 3.25V4.5C13 4.63261 13.0527 4.75979 13.1464 4.85355C13.2402 4.94732 13.3674 5 13.5 5C13.6326 5 13.7598 4.94732 13.8536 4.85355C13.9473 4.75979 14 4.63261 14 4.5ZM11.5 14H13C13.2652 14 13.5196 13.8946 13.7071 13.7071C13.8946 13.5196 14 13.2652 14 13V11.5C14 11.3674 13.9473 11.2402 13.8536 11.1464C13.7598 11.0527 13.6326 11 13.5 11C13.3674 11 13.2402 11.0527 13.1464 11.1464C13.0527 11.2402 13 11.3674 13 11.5V12.75C13 12.8163 12.9737 12.8799 12.9268 12.9268C12.8799 12.9737 12.8163 13 12.75 13H11.5C11.3674 13 11.2402 13.0527 11.1464 13.1464C11.0527 13.2402 11 13.3674 11 13.5C11 13.6326 11.0527 13.7598 11.1464 13.8536C11.2402 13.9473 11.3674 14 11.5 14ZM2 11.5V13C2 13.2652 2.10536 13.5196 2.29289 13.7071C2.48043 13.8946 2.73478 14 3 14H4.5C4.63261 14 4.75979 13.9473 4.85355 13.8536C4.94732 13.7598 5 13.6326 5 13.5C5 13.3674 4.94732 13.2402 4.85355 13.1464C4.75979 13.0527 4.63261 13 4.5 13H3.25C3.1837 13 3.12011 12.9737 3.07322 12.9268C3.02634 12.8799 3 12.8163 3 12.75V11.5C3 11.3674 2.94732 11.2402 2.85355 11.1464C2.75979 11.0527 2.63261 11 2.5 11C2.36739 11 2.24021 11.0527 2.14645 11.1464C2.05268 11.2402 2 11.3674 2 11.5ZM6 7.5V6.5C6 6.36739 5.94732 6.24021 5.85355 6.14645C5.75979 6.05268 5.63261 6 5.5 6C5.36739 6 5.24021 6.05268 5.14645 6.14645C5.05268 6.24021 5 6.36739 5 6.5V7.5C5 7.63261 5.05268 7.75979 5.14645 7.85355C5.24021 7.94732 5.36739 8 5.5 8C5.63261 8 5.75979 7.94732 5.85355 7.85355C5.94732 7.75979 6 7.63261 6 7.5ZM11 7.5V6.5C11 6.36739 10.9473 6.24021 10.8536 6.14645C10.7598 6.05268 10.6326 6 10.5 6C10.3674 6 10.2402 6.05268 10.1464 6.14645C10.0527 6.24021 10 6.36739 10 6.5V7.5C10 7.63261 10.0527 7.75979 10.1464 7.85355C10.2402 7.94732 10.3674 8 10.5 8C10.6326 8 10.7598 7.94732 10.8536 7.85355C10.9473 7.75979 11 7.63261 11 7.5ZM8 6.5C7.725 6.5 7.5 6.725 7.5 7V8.25C7.225 8.25 7 8.475 7 8.75C7 9.025 7.225 9.25 7.5 9.25C7.77 9.25 8.015 9.145 8.195 8.96C8.2 8.96 8.2 8.96 8.205 8.955C8.29898 8.86331 8.37353 8.75363 8.42421 8.63251C8.4749 8.51138 8.50067 8.3813 8.5 8.25V7C8.5 6.725 8.275 6.5 8 6.5ZM9.523 11.563C9.57802 11.5271 9.62545 11.4808 9.66256 11.4266C9.69968 11.3725 9.72576 11.3115 9.73932 11.2472C9.75288 11.183 9.75364 11.1167 9.74158 11.0521C9.72951 10.9876 9.70485 10.926 9.669 10.871C9.63315 10.816 9.58681 10.7686 9.53263 10.7314C9.47845 10.6943 9.4175 10.6682 9.35324 10.6547C9.28898 10.6411 9.22268 10.6404 9.15812 10.6524C9.09357 10.6645 9.03202 10.6891 8.977 10.725C8.432 11.08 7.567 11.08 7.023 10.725C6.91187 10.6526 6.77654 10.6273 6.64676 10.6547C6.51699 10.6821 6.4034 10.7599 6.331 10.871C6.2586 10.9821 6.2333 11.1175 6.26068 11.2472C6.28806 11.377 6.36587 11.4906 6.477 11.563C6.916 11.849 7.443 12 8 12C8.557 12 9.084 11.85 9.523 11.563Z" fill="#0D2B49"/>
</svg>
