<svg width="16" height="16" viewBox="0 0 16 16" fill="none" xmlns="http://www.w3.org/2000/svg">
<path fill-rule="evenodd" clip-rule="evenodd" d="M4.25 13.5H1.75C1.6837 13.5 1.62011 13.4737 1.57322 13.4268C1.52634 13.3799 1.5 13.3163 1.5 13.25V10.75C1.5 10.6837 1.52634 10.6201 1.57322 10.5732C1.62011 10.5263 1.6837 10.5 1.75 10.5H4.25C4.3163 10.5 4.37989 10.5263 4.42678 10.5732C4.47366 10.6201 4.5 10.6837 4.5 10.75V13.25C4.5 13.3163 4.47366 13.3799 4.42678 13.4268C4.37989 13.4737 4.3163 13.5 4.25 13.5ZM9.5 13.25V10.75C9.5 10.6837 9.47366 10.6201 9.42678 10.5732C9.37989 10.5263 9.3163 10.5 9.25 10.5H6.75C6.6837 10.5 6.62011 10.5263 6.57322 10.5732C6.52634 10.6201 6.5 10.6837 6.5 10.75V13.25C6.5 13.388 6.612 13.5 6.75 13.5H9.25C9.3163 13.5 9.37989 13.4737 9.42678 13.4268C9.47366 13.3799 9.5 13.3163 9.5 13.25ZM14.5 13.25V10.75C14.5 10.6837 14.4737 10.6201 14.4268 10.5732C14.3799 10.5263 14.3163 10.5 14.25 10.5H11.75C11.6837 10.5 11.6201 10.5263 11.5732 10.5732C11.5263 10.6201 11.5 10.6837 11.5 10.75V13.25C11.5 13.388 11.612 13.5 11.75 13.5H14.25C14.3163 13.5 14.3799 13.4737 14.4268 13.4268C14.4737 13.3799 14.5 13.3163 14.5 13.25ZM8.5 7V5.5H9.25C9.39 5.5 9.5 5.39 9.5 5.25V2.75C9.5 2.61 9.39 2.5 9.25 2.5H6.75C6.61 2.5 6.5 2.61 6.5 2.75V5.25C6.5 5.39 6.61 5.5 6.75 5.5H7.5V7H3V9.5H4V8H7.5V9.5H8.5V8H12V9.5H13V7H8.5Z" fill="#0D2B49"/>
</svg>
