<svg width="16" height="16" viewBox="0 0 16 16" fill="none" xmlns="http://www.w3.org/2000/svg">
<path d="M10.751 8.23C10.751 8.36 10.701 8.49 10.601 8.59L9.25101 9.94V14C9.25101 14.28 9.03101 14.5 8.75101 14.5C8.47101 14.5 8.25101 14.28 8.25101 14V12H7.75101V14C7.75101 14.28 7.53101 14.5 7.25101 14.5C6.97101 14.5 6.75101 14.28 6.75101 14V9.94L5.40001 8.59C5.30001 8.49 5.25001 8.36 5.25001 8.23C5.25001 8.1 5.30001 7.98 5.40001 7.88C5.59001 7.68 5.91001 7.68 6.10001 7.88L6.75001 8.5C6.75001 8.5 7.50001 9.1 8.00001 9.1C8.50001 9.1 8.95001 8.87 9.24101 8.5L9.90101 7.88C10.091 7.68 10.411 7.68 10.601 7.88C10.701 7.98 10.751 8.1 10.751 8.23ZM5.00001 1.5C4.60218 1.5 4.22065 1.65804 3.93935 1.93934C3.65804 2.22064 3.50001 2.60218 3.50001 3C3.50001 3.39782 3.65804 3.77936 3.93935 4.06066C4.22065 4.34196 4.60218 4.5 5.00001 4.5C5.39783 4.5 5.77936 4.34196 6.06067 4.06066C6.34197 3.77936 6.50001 3.39782 6.50001 3C6.50001 2.60218 6.34197 2.22064 6.06067 1.93934C5.77936 1.65804 5.39783 1.5 5.00001 1.5ZM12.503 3C12.503 3.39782 12.345 3.77936 12.0637 4.06066C11.7824 4.34196 11.4008 4.5 11.003 4.5C10.6052 4.5 10.2237 4.34196 9.94235 4.06066C9.66104 3.77936 9.50301 3.39782 9.50301 3C9.50301 2.60218 9.66104 2.22064 9.94235 1.93934C10.2237 1.65804 10.6052 1.5 11.003 1.5C11.4008 1.5 11.7824 1.65804 12.0637 1.93934C12.345 2.22064 12.503 2.60218 12.503 3ZM9.00101 7.5C9.00101 7.76522 8.89565 8.01957 8.70811 8.20711C8.52058 8.39464 8.26622 8.5 8.00101 8.5C7.73579 8.5 7.48144 8.39464 7.2939 8.20711C7.10636 8.01957 7.00101 7.76522 7.00101 7.5C7.00101 7.23478 7.10636 6.98043 7.2939 6.79289C7.48144 6.60536 7.73579 6.5 8.00101 6.5C8.26622 6.5 8.52058 6.60536 8.70811 6.79289C8.89565 6.98043 9.00101 7.23478 9.00101 7.5ZM6.56101 5L7.62101 6.06C6.97101 6.22 6.50101 6.8 6.50101 7.5C6.50101 7.53 6.50101 7.56 6.51101 7.59L6.46101 7.54C6.37081 7.44142 6.26092 7.36288 6.13843 7.30948C6.01595 7.25608 5.88362 7.229 5.75001 7.23C5.48001 7.23 5.22001 7.34 5.05001 7.53C4.86001 7.72 4.75001 7.97 4.75001 8.23C4.75001 8.5 4.86001 8.75 5.05001 8.94L6.25001 10.15V14C6.25001 14.17 6.29001 14.34 6.38001 14.48C6.34001 14.5 6.29001 14.5 6.25001 14.5C5.84001 14.5 5.50001 14.16 5.50001 13.75V10H5.00001V13.75C5.00001 14.16 4.66001 14.5 4.24901 14.5C3.83901 14.5 3.49901 14.16 3.49901 13.75V7.29L2.77901 8.01C2.48801 8.3 2.00801 8.3 1.71801 8.01C1.57861 7.8668 1.50061 7.67484 1.50061 7.475C1.50061 7.27516 1.57861 7.0832 1.71801 6.94L3.65801 5H6.56101ZM14.282 6.93L12.502 5.14L12.362 5H9.16001L8.15001 6.01C8.91001 6.08 9.50001 6.72 9.50001 7.5C9.50001 7.53 9.50001 7.56 9.49001 7.58L9.56001 7.52C9.72001 7.34 9.98001 7.23 10.25 7.23C10.52 7.23 10.78 7.34 10.96 7.54C11.14 7.72 11.25 7.97 11.25 8.23C11.25 8.5 11.14 8.75 10.95 8.95L9.75001 10.15V14C9.75001 14.17 9.71001 14.34 9.62001 14.48C9.66001 14.5 9.71001 14.5 9.75001 14.5C10.16 14.5 10.5 14.16 10.5 13.75V11H11V13.75C11 14.16 11.34 14.5 11.75 14.5C12.16 14.5 12.5 14.16 12.5 13.75V11H13.001L12.601 7.36L13.221 7.99C13.511 8.28 13.991 8.28 14.281 7.99C14.571 7.69 14.572 7.22 14.282 6.93Z" fill="#0D2B49"/>
</svg>
