<svg width="16" height="16" viewBox="0 0 16 16" fill="none" xmlns="http://www.w3.org/2000/svg">
<path d="M13.617 10.221V7.96098C13.617 7.32098 13.117 6.78098 12.487 6.73098L9.53698 6.51098L9.04698 4.33098H9.94698V2.50098H3.83698V4.33098H4.44698V6.62098L2.30698 7.24098V9.03098C2.01698 9.48098 1.84698 10.021 1.84698 10.601C1.84698 12.201 3.14698 13.501 4.74698 13.501C6.06699 13.501 7.18699 12.611 7.53698 11.391L8.88698 11.301C9.01698 12.531 10.047 13.501 11.317 13.501C12.667 13.501 13.767 12.401 13.767 11.051C13.767 10.761 13.717 10.481 13.617 10.221ZM4.74698 12.501C3.69699 12.501 2.84698 11.651 2.84698 10.601C2.84698 9.56098 3.69699 8.71098 4.74698 8.71098C5.79698 8.71098 6.64698 9.56098 6.64698 10.601C6.64698 11.651 5.79698 12.501 4.74698 12.501ZM8.05698 6.78098L6.05698 6.36098V5.28098H7.78698L8.09698 6.76098C8.07698 6.78098 8.05698 6.78098 8.05698 6.78098ZM11.317 12.501C10.527 12.501 9.87698 11.851 9.87698 11.051C9.87698 10.261 10.527 9.61098 11.317 9.61098C12.117 9.61098 12.767 10.261 12.767 11.051C12.767 11.851 12.117 12.501 11.317 12.501Z" fill="#0D2B49"/>
<path d="M11.325 10.597C11.209 10.597 11.099 10.64 11.019 10.719H11.013C10.921 10.805 10.866 10.927 10.866 11.055C10.866 11.159 10.903 11.257 10.964 11.336C11.05 11.446 11.178 11.513 11.325 11.513C11.49 11.513 11.637 11.421 11.716 11.287C11.759 11.22 11.783 11.14 11.783 11.055C11.783 10.902 11.704 10.762 11.587 10.682C11.515 10.628 11.423 10.597 11.325 10.597Z" fill="#0D2B49"/>
<path d="M4.74998 11.467C5.2255 11.467 5.61098 11.0815 5.61098 10.606C5.61098 10.1305 5.2255 9.74498 4.74998 9.74498C4.27447 9.74498 3.88898 10.1305 3.88898 10.606C3.88898 11.0815 4.27447 11.467 4.74998 11.467Z" fill="#0D2B49"/>
</svg>
