<svg width="16" height="16" viewBox="0 0 16 16" fill="none" xmlns="http://www.w3.org/2000/svg">
<path d="M5 2.5C5 2.776 4.776 3 4.5 3H3.25C3.112 3 3 3.112 3 3.25V4.5C3 4.776 2.776 5 2.5 5C2.224 5 2 4.776 2 4.5V3C2 2.448 2.448 2 3 2H4.5C4.776 2 5 2.224 5 2.5ZM14 4.5V3C14 2.448 13.552 2 13 2H11.5C11.224 2 11 2.224 11 2.5C11 2.776 11.224 3 11.5 3H12.75C12.888 3 13 3.112 13 3.25V4.5C13 4.776 13.224 5 13.5 5C13.776 5 14 4.776 14 4.5ZM11.5 14H13C13.552 14 14 13.552 14 13V11.5C14 11.224 13.776 11 13.5 11C13.224 11 13 11.224 13 11.5V12.75C13 12.888 12.888 13 12.75 13H11.5C11.224 13 11 13.224 11 13.5C11 13.776 11.224 14 11.5 14ZM2 11.5V13C2 13.552 2.448 14 3 14H4.5C4.776 14 5 13.776 5 13.5C5 13.224 4.776 13 4.5 13H3.25C3.112 13 3 12.888 3 12.75V11.5C3 11.224 2.776 11 2.5 11C2.224 11 2 11.224 2 11.5Z" fill="#0D2B49"/>
<path d="M11.22 6.072V6.502H4.77V4.452C4.77 4.102 5.06 3.812 5.42 3.812H8.96L11.22 6.072Z" fill="#0D2B49"/>
<path d="M11.22 7.502H4.77V8.502H11.22V7.502Z" fill="#0D2B49"/>
<path d="M4.77 9.502H11.22V11.552C11.22 11.902 10.93 12.192 10.58 12.192H5.42C5.06 12.192 4.77 11.902 4.77 11.552V9.502Z" fill="#0D2B49"/>
<path d="M14 8.002C14 8.272 13.78 8.502 13.5 8.502H2.5C2.22 8.502 2 8.272 2 8.002C2 7.722 2.22 7.502 2.5 7.502H13.5C13.78 7.502 14 7.722 14 8.002Z" fill="#0D2B49"/>
</svg>
