<svg width="16" height="16" viewBox="0 0 16 16" fill="none" xmlns="http://www.w3.org/2000/svg">
<path fill-rule="evenodd" clip-rule="evenodd" d="M9.5 1.5H4C3.45 1.5 3 1.95 3 2.5V13.5C3 14.05 3.45 14.5 4 14.5H12C12.55 14.5 13 14.05 13 13.5V5L9.5 1.5ZM10.43 6.625L6.208 10.847L5.142 10.997C5.12287 11.0003 5.10322 10.999 5.08471 10.9932C5.0662 10.9873 5.04937 10.9771 5.03564 10.9634C5.02191 10.9496 5.01169 10.9328 5.00583 10.9143C4.99998 10.8958 4.99866 10.8761 5.002 10.857L5.152 9.791L8.846 6.098L8.671 5.922L7.351 7.242C7.33956 7.25358 7.32593 7.26277 7.31091 7.26905C7.29589 7.27532 7.27978 7.27855 7.2635 7.27855C7.24722 7.27855 7.23111 7.27532 7.21609 7.26905C7.20107 7.26277 7.18744 7.25358 7.176 7.242C7.16411 7.23053 7.15466 7.21678 7.1482 7.20157C7.14175 7.18637 7.13842 7.17002 7.13842 7.1535C7.13842 7.13698 7.14175 7.12063 7.1482 7.10543C7.15466 7.09022 7.16411 7.07647 7.176 7.065L8.6 5.64C8.61869 5.62168 8.64382 5.61141 8.67 5.61141C8.69618 5.61141 8.72131 5.62168 8.74 5.64L9.022 5.921L9.374 5.57L10.429 6.625H10.43ZM10.781 5.218C10.6411 5.0781 10.4514 4.9995 10.2535 4.9995C10.0556 4.9995 9.8659 5.0781 9.726 5.218L9.55 5.394L10.605 6.449L10.781 6.274C10.9209 6.1341 10.9995 5.94435 10.9995 5.7465C10.9995 5.54865 10.9209 5.3579 10.781 5.218ZM10.469 10.598C10.349 10.608 10.284 10.573 10.209 10.533C10.084 10.468 9.919 10.383 9.639 10.538C9.459 10.638 9.334 10.603 9.089 10.523C9.004 10.498 8.909 10.468 8.809 10.443C8.61545 10.4036 8.41422 10.4318 8.239 10.523C8.18883 10.4167 8.09913 10.3342 7.989 10.293C7.899 10.258 7.754 10.248 7.584 10.383C7.459 10.485 7.168 10.561 6.871 10.592C6.82005 10.5966 6.77281 10.6206 6.739 10.659C6.70962 10.6884 6.69012 10.7262 6.68322 10.7672C6.67633 10.8082 6.68237 10.8503 6.70052 10.8877C6.71867 10.9251 6.74801 10.9559 6.78448 10.9759C6.82095 10.9958 6.86272 11.0039 6.904 10.999C7.264 10.957 7.649 10.813 7.814 10.679C7.849 10.654 7.869 10.649 7.869 10.649C7.884 10.654 7.914 10.699 7.929 10.759L7.974 10.884L8.054 10.919C8.159 10.974 8.264 10.924 8.349 10.884C8.449 10.834 8.574 10.779 8.724 10.809C8.814 10.834 8.899 10.859 8.979 10.884C9.229 10.964 9.494 11.049 9.819 10.864C9.924 10.809 9.939 10.819 10.034 10.869C10.134 10.919 10.269 10.989 10.499 10.974C10.604 10.964 10.679 10.874 10.674 10.774C10.664 10.669 10.579 10.599 10.469 10.599V10.598Z" fill="#0D2B49"/>
</svg>
