<svg width="16" height="16" viewBox="0 0 16 16" fill="none" xmlns="http://www.w3.org/2000/svg">
<path fill-rule="evenodd" clip-rule="evenodd" d="M11.53 8.935C11.33 8.715 10.89 8.605 10.26 8.605C9.95 8.605 9.6 8.635 9.22 8.685C8.85 8.445 8.54 8.155 8.32 7.845C8.12 7.565 7.94 7.245 7.79 6.915C8.2 5.715 8.27 4.925 8.03 4.575C7.98134 4.5071 7.91657 4.45237 7.84151 4.41571C7.76646 4.37906 7.68346 4.36163 7.6 4.365C7.39 4.365 7.23 4.455 7.12 4.615C6.79 5.115 7.05 6.165 7.37 6.925C7.22 7.365 7.03 7.825 6.82 8.275C6.57 8.775 6.34 9.245 6.12 9.655C5.46 9.955 4.44 10.515 4.34 11.075C4.31 11.225 4.35 11.375 4.47 11.485C4.56 11.575 4.68 11.635 4.81 11.635C5.07 11.635 5.53 11.465 6.39 9.945C6.89 9.715 7.43 9.515 7.97 9.365C8.36 9.245 8.75 9.155 9.14 9.085C9.77 9.475 10.51 9.715 11.04 9.715C11.61 9.715 11.66 9.395 11.67 9.295C11.6742 9.22843 11.6638 9.16176 11.6396 9.09959C11.6154 9.03743 11.578 8.98127 11.53 8.935ZM5.27 10.905C5.19 11.005 5.09 11.115 4.97 11.185C4.89 11.245 4.71 11.295 4.71 11.135C4.75 10.955 5.07 10.635 5.75 10.275C5.61 10.485 5.45 10.715 5.27 10.905ZM7.6 4.745C7.78 4.745 7.78 5.025 7.78 5.165C7.78 5.375 7.75 5.575 7.71 5.785C7.69 5.875 7.62 6.155 7.6 6.195C7.59 6.235 7.55 6.305 7.55 6.345C7.085 5.07 7.52 4.745 7.6 4.745ZM8.66 8.785C8.39 8.845 8.13 8.915 7.86 8.985C7.47 9.105 7.08 9.245 6.7 9.395L6.71 9.375H6.69C6.85 9.085 7.01 8.775 7.16 8.435C7.32 8.095 7.46 7.765 7.6 7.435L7.61 7.425C7.73 7.645 7.86 7.865 8 8.065C8.18 8.315 8.41 8.555 8.69 8.775H8.65L8.66 8.785ZM11.226 9.314C11.1558 9.33698 11.0817 9.34614 11.008 9.341C10.86 9.338 10.714 9.304 10.569 9.275C10.449 9.245 9.829 9.005 9.799 9.005C9.959 8.995 10.119 8.989 10.259 8.985C10.869 8.968 11.167 9.14 11.249 9.195C11.295 9.226 11.283 9.275 11.226 9.314ZM13 5V13.5C13 14.05 12.55 14.5 12 14.5H4C3.45 14.5 3 14.05 3 13.5V2.5C3 1.95 3.45 1.5 4 1.5H9.5L13 5Z" fill="#0D2B49"/>
</svg>
