<svg width="16" height="16" viewBox="0 0 16 16" fill="none" xmlns="http://www.w3.org/2000/svg">
<path d="M9.9 6.57C10.289 6.569 10.67 6.469 11.01 6.28C11.305 6.446 11.583 6.64 11.84 6.86C12.24 7.2 13.24 6.61 13.24 6.61C13.3128 6.56719 13.3743 6.50768 13.4195 6.43639C13.4647 6.3651 13.4923 6.28407 13.5 6.2C13.5 5.97 13.48 5.36 13.5 5.28C13.31 5.18 11.38 3.72 11.38 3.45C11.38 3.16 11.06 3.08 11.06 3.08L10.15 2.72L10.4 1.5C9.83838 1.52458 9.29764 1.71995 8.85 2.06C8.41707 2.05688 7.98902 2.15147 7.59772 2.33673C7.20643 2.52199 6.86197 2.79315 6.59 3.13C6.15394 3.68367 5.83421 4.31973 5.65 5H1.5V14H4.5V14.5H13.5V13.5C13.4992 13.235 13.3936 12.9811 13.2062 12.7938C13.0189 12.6064 12.765 12.5008 12.5 12.5H12C12.031 11.5334 11.8603 10.5709 11.4987 9.67384C11.1371 8.77682 10.5927 7.96496 9.9 7.29C9.5 6.9 9.15 6.65 9 6.5C9.293 6.58 9.598 6.603 9.9 6.57ZM6 12.5H5.5C5.32516 12.4994 5.15332 12.5454 5.00216 12.6333C4.85101 12.7212 4.726 12.8478 4.64 13H2.5V6H5.5C5.48198 6.33417 5.49874 6.6693 5.55 7H4.5C4.49921 7.26497 4.3936 7.51887 4.20623 7.70623C4.01887 7.8936 3.76497 7.99921 3.5 8V11C4.052 11.002 4.498 11.448 4.5 12H6.03C6.01 12.166 6 12.333 6 12.5ZM6.15 11H5.23C5.05596 10.696 4.80396 10.444 4.5 10.27V8.73C4.804 8.556 5.056 8.304 5.23 8H5.77C5.843 8.251 5.93 8.498 6.03 8.74C6.24327 9.47408 6.28434 10.2475 6.15 11Z" fill="#0D2B49"/>
</svg>
