<svg width="16" height="16" viewBox="0 0 16 16" fill="none" xmlns="http://www.w3.org/2000/svg">
<path d="M14 7.5H13.47C13.354 6.22096 12.7932 5.0231 11.885 4.11498C10.9769 3.20685 9.77904 2.64597 8.5 2.53V2C8.5 1.72 8.28 1.5 8 1.5C7.72 1.5 7.5 1.72 7.5 2V2.53C6.22096 2.64597 5.0231 3.20685 4.11498 4.11498C3.20685 5.0231 2.64597 6.22096 2.53 7.5H2C1.72 7.5 1.5 7.72 1.5 8C1.5 8.28 1.72 8.5 2 8.5H2.53C2.64597 9.77904 3.20685 10.9769 4.11498 11.885C5.0231 12.7932 6.22096 13.354 7.5 13.47V14C7.5 14.28 7.72 14.5 8 14.5C8.28 14.5 8.5 14.28 8.5 14V13.47C9.77904 13.354 10.9769 12.7932 11.885 11.885C12.7932 10.9769 13.354 9.77904 13.47 8.5H14C14.28 8.5 14.5 8.28 14.5 8C14.5 7.72 14.28 7.5 14 7.5ZM8.5 12.47V12C8.5 11.72 8.28 11.5 8 11.5C7.72 11.5 7.5 11.72 7.5 12V12.47C6.48673 12.355 5.54241 11.8998 4.82132 11.1787C4.10023 10.4576 3.645 9.51327 3.53 8.5H4C4.28 8.5 4.5 8.28 4.5 8C4.5 7.72 4.28 7.5 4 7.5H3.53C3.645 6.48673 4.10023 5.54241 4.82132 4.82132C5.54241 4.10023 6.48673 3.645 7.5 3.53V4C7.5 4.28 7.72 4.5 8 4.5C8.28 4.5 8.5 4.28 8.5 4V3.53C10.58 3.76 12.24 5.42 12.47 7.5H12C11.72 7.5 11.5 7.72 11.5 8C11.5 8.28 11.72 8.5 12 8.5H12.47C12.355 9.51327 11.8998 10.4576 11.1787 11.1787C10.4576 11.8998 9.51327 12.355 8.5 12.47Z" fill="#0D2B49"/>
</svg>
