<svg width="16" height="16" viewBox="0 0 16 16" fill="none" xmlns="http://www.w3.org/2000/svg">
<path d="M13.75 11.75H13.49C13.433 11.1884 13.1876 10.6627 12.7938 10.2583C12.4 9.85396 11.8809 9.59476 11.3211 9.52289C10.7612 9.45103 10.1935 9.57073 9.71037 9.86253C9.22721 10.1543 8.857 10.6011 8.66 11.13C8.46 11.05 8.23 11 8 11C7.77 11 7.54 11.05 7.34 11.13C7.143 10.6011 6.77279 10.1543 6.28963 9.86253C5.80646 9.57073 5.23876 9.45103 4.67891 9.52289C4.11906 9.59476 3.6 9.85396 3.2062 10.2583C2.81239 10.6627 2.56702 11.1884 2.51 11.75H2.25C2.11 11.75 2 11.86 2 12C2 12.14 2.11 12.25 2.25 12.25H2.51C2.57332 12.8666 2.86288 13.4378 3.32275 13.8534C3.78263 14.2689 4.38019 14.4993 5 14.5C6.31 14.5 7.39 13.49 7.49 12.2C7.62912 12.0722 7.81112 12.0014 8 12.0014C8.18888 12.0014 8.37088 12.0722 8.51 12.2C8.61 13.49 9.69 14.5 11 14.5C12.3 14.5 13.36 13.51 13.49 12.25H13.75C13.89 12.25 14 12.14 14 12C14 11.86 13.89 11.75 13.75 11.75ZM6.29 12.75C6.04 13.2 5.55 13.5 5 13.5C4.17 13.5 3.5 12.83 3.5 12V11.99C3.51 11.16 4.17 10.5 5 10.5C5.79 10.5 6.43 11.1 6.49 11.87C6.49 11.87 6.5 11.88 6.49 11.89C6.5 11.92 6.5 11.96 6.5 12C6.5 12.28 6.43 12.53 6.29 12.75ZM11 13.5C10.45 13.5 9.96 13.2 9.71 12.75C9.57 12.53 9.5 12.28 9.5 12C9.5 11.96 9.5 11.92 9.51 11.89C9.54386 11.5076 9.72327 11.1527 10.0112 10.8987C10.2991 10.6447 10.6736 10.511 11.0572 10.5251C11.4409 10.5392 11.8045 10.7001 12.073 10.9746C12.3415 11.249 12.4943 11.6161 12.5 12C12.5 12.83 11.83 13.5 11 13.5ZM11.5 3.38V9.05C11.34 9.01 11.17 9 11 9C9.87 9 8.89 9.62 8.39 10.54C8.26 10.51 8.13 10.5 8 10.5C7.87 10.5 7.74 10.51 7.61 10.54C7.3541 10.0719 6.97646 9.68174 6.51703 9.41066C6.05759 9.13958 5.53344 8.99769 5 9C4.83 9 4.66 9.01 4.5 9.05V2.05C4.5 1.75 4.72 1.5 5 1.5H9.79C9.93 1.5 10.05 1.56 10.15 1.66L11.35 2.99C11.45 3.09 11.5 3.23 11.5 3.38ZM9.5 4H6.5V4.5H9.5V4ZM9.5 5.5H6.5V6H9.5V5.5ZM9.5 7H6.5V7.5H9.5V7Z" fill="#0D2B49"/>
</svg>
