<svg width="16" height="16" viewBox="0 0 16 16" fill="none" xmlns="http://www.w3.org/2000/svg">
<path d="M9.125 11.9501H6.875V13.5001H9.125V11.9501Z" fill="#0D2B49"/>
<path d="M14.5 11.2761L13.1 9.17609H13.94L12.77 7.43609L12.74 7.38609H13.36L11.6 4.74609L10.16 6.90609L9.47 5.87609L9.43 5.81609H10.22L8 2.49609L5.78 5.81609H6.57L6.53 5.87609L5.84 6.90609L4.4 4.74609L2.64 7.38609H3.26L3.23 7.43609L2.06 9.17609H2.9L1.5 11.2761H14.5Z" fill="#0D2B49"/>
<path d="M5.296 11.9501H3.506V13.5001H5.296V11.9501Z" fill="#0D2B49"/>
<path d="M12.494 11.9501H10.704V13.5001H12.494V11.9501Z" fill="#0D2B49"/>
</svg>
