<svg width="16" height="16" viewBox="0 0 16 16" fill="none" xmlns="http://www.w3.org/2000/svg">
<path d="M13 2H3C2.45 2 2 2.45 2 3V13C2 13.55 2.45 14 3 14H13C13.55 14 14 13.55 14 13V3C14 2.45 13.55 2 13 2ZM10.84 4.75L11.05 4.32L11.26 4.75L11.74 4.83L11.4 5.16L11.48 5.64L11.05 5.42L10.62 5.64L10.71 5.16L10.36 4.83L10.84 4.75ZM7.79 3.43L8 3L8.21 3.43L8.69 3.51L8.34 3.84L8.42 4.32L8 4.1L7.58 4.32L7.66 3.84L7.31 3.51L7.79 3.43ZM3.7 8.46L3.28 8.68L3.36 8.21L3.02 7.87L3.49 7.8L3.7 7.37L3.91 7.8L4.39 7.87L4.05 8.21L4.13 8.68L3.7 8.46ZM5.33 11.72L4.92 11.5L4.5 11.72L4.57 11.24L4.23 10.91L4.7 10.83L4.92 10.4L5.13 10.83L5.6 10.91L5.26 11.24L5.33 11.72ZM5.29 5.09L5.38 5.57L4.95 5.34L4.52 5.57L4.6 5.09L4.26 4.76L4.74 4.69L4.95 4.26L5.16 4.69L5.63 4.76L5.29 5.09ZM8.41 13L7.98 12.78L7.55 13L7.63 12.53L7.29 12.19L7.77 12.12L7.98 11.69L8.19 12.12L8.66 12.19L8.32 12.53L8.41 13ZM9.5 10.49H6.5V7.99H7V6.49C7 5.94 7.45 5.49 8 5.49C8.55 5.49 9 5.94 9 6.49V7.99H9.5V10.49ZM11.45 11.71L11.02 11.49L10.59 11.71L10.67 11.24L10.33 10.91L10.81 10.83L11.02 10.4L11.24 10.83L11.71 10.91L11.37 11.24L11.45 11.71ZM12.73 8.68L12.3 8.46L11.87 8.68L11.95 8.21L11.61 7.87L12.09 7.8L12.3 7.37L12.51 7.8L12.98 7.87L12.64 8.21L12.73 8.68ZM8.5 8.99V9.49H7.5V8.99H7.75V8.49H8.25V8.99H8.5ZM8.5 6.49V7.99H7.5V6.49C7.5 6.21 7.72 5.99 8 5.99C8.28 5.99 8.5 6.21 8.5 6.49Z" fill="#0D2B49"/>
</svg>
