<svg width="16" height="16" viewBox="0 0 16 16" fill="none" xmlns="http://www.w3.org/2000/svg">
<path d="M12 6C12 3.79 10.21 2 8 2C5.79 2 4 3.79 4 6C4 8.04 5.53 9.72 7.5 9.97V11H6V12H7.5V14H8.5V12H10V11H8.5V9.97C10.47 9.72 12 8.04 12 6ZM8 9C7.83 9 7.66 8.99 7.5 8.95C6.80145 8.83395 6.16676 8.47375 5.70894 7.93352C5.25112 7.3933 4.9999 6.70812 5 6C5 4.35 6.35 3 8 3C9.65 3 11 4.35 11 6C11.0001 6.70812 10.7489 7.3933 10.2911 7.93352C9.83324 8.47375 9.19855 8.83395 8.5 8.95C8.34 8.99 8.17 9 8 9Z" fill="#0D2B49"/>
</svg>
