<svg width="16" height="16" viewBox="0 0 16 16" fill="none" xmlns="http://www.w3.org/2000/svg">
<path d="M14 2.707L13.293 2L11.914 3.379L11.207 2.672L10.5 3.379L11.207 4.086L10.007 5.285C9.476 4.802 8.777 4.5 8 4.5C7.223 4.5 6.525 4.802 5.992 5.285L3.707 3H5V2H2V5H3V3.707L5.373 6.08C5.143 6.504 5 6.983 5 7.5C5.0007 8.2079 5.25221 8.89266 5.70989 9.43272C6.16756 9.97278 6.8018 10.3332 7.5 10.45V12.086L6.94 11.526L6.232 12.232L8 14L9.767 12.233L9.061 11.525L8.5 12.085V10.45C9.1982 10.3332 9.83243 9.97278 10.2901 9.43272C10.7478 8.89266 10.9993 8.2079 11 7.5C11 6.983 10.857 6.504 10.627 6.08L11.914 4.793L12.621 5.5L13.328 4.793L12.621 4.086L14 2.707ZM8 9.5C6.897 9.5 6 8.602 6 7.5C6 6.397 6.897 5.5 8 5.5C9.103 5.5 10 6.397 10 7.5C10 8.602 9.103 9.5 8 9.5Z" fill="#0D2B49"/>
</svg>
