<svg width="16" height="16" viewBox="0 0 16 16" fill="none" xmlns="http://www.w3.org/2000/svg">
<path fill-rule="evenodd" clip-rule="evenodd" d="M12.38 8.27001C12.26 8.26001 12.13 8.25001 12 8.25001C9.92999 8.25001 8.24999 9.93001 8.24999 12C8.24999 12.54 8.35999 13.05 8.56999 13.51H4.02999C3.45999 13.51 2.98999 13.04 2.98999 12.47V2.55001C2.98999 1.98001 3.45999 1.51001 4.02999 1.51001H8.72999L12.38 5.16001V8.27001ZM11.34 5.16001L8.72999 2.55001V5.16001H11.34Z" fill="#0D2B49"/>
<path fill-rule="evenodd" clip-rule="evenodd" d="M12 9C12.13 9 12.25 9.01 12.38 9.03C13.86 9.21 15 10.48 15 12C15 13.66 13.66 15 12 15C10.89 15 9.93 14.4 9.41 13.51C9.15 13.07 9 12.55 9 12C9 10.35 10.34 9 12 9ZM12.12 14.25C12.32 14.25 12.49 14.07 12.5 13.87C12.5 13.71 12.41 13.56 12.26 13.51C12.24 13.49 12.21 13.48 12.18 13.48L12.38 12.47L12.43 12.22C12.45 12.1 12.44 11.97 12.38 11.87C12.31 11.7 12.15 11.56 11.96 11.53C11.92 11.52 11.89 11.52 11.86 11.52H11.71C11.49 11.52 11.32 11.69 11.32 11.91C11.32 12.09 11.44 12.25 11.62 12.29L11.38 13.51L11.37 13.55C11.36 13.59 11.36 13.62 11.36 13.66C11.36 13.97 11.62 14.25 11.95 14.25H12.12ZM12.1 10.93C12.2 10.93 12.3 10.9 12.38 10.85C12.56 10.76 12.68 10.57 12.68 10.35C12.68 10.13 12.56 9.93 12.38 9.84C12.3 9.79 12.2 9.76 12.1 9.76C11.77 9.76 11.51 10.02 11.51 10.35C11.51 10.67 11.77 10.93 12.1 10.93Z" fill="#0D2B49"/>
</svg>
