<svg width="16" height="16" viewBox="0 0 16 16" fill="none" xmlns="http://www.w3.org/2000/svg">
<path d="M11.63 5C11.86 4.64001 12 4.20996 12 3.75C12 2.51001 10.99 1.5 9.75 1.5C9.04999 1.5 8.41998 1.82001 8 2.32996C7.58002 1.82001 6.95001 1.5 6.25 1.5C5.01001 1.5 4 2.51001 4 3.75C4 4.20996 4.14001 4.64001 4.37 5H2V9H3V14H13V9H14V5H11.63ZM8.5 3.75C8.5 3.06 9.06 2.5 9.75 2.5C10.44 2.5 11 3.06 11 3.75C11 4.44 10.44 5 9.75 5H8.5V3.75ZM6.25 2.5C6.94 2.5 7.5 3.06 7.5 3.75V5H6.25C5.56 5 5 4.44 5 3.75C5 3.06 5.56 2.5 6.25 2.5ZM12.5 7.5H8.5V13H7.5V7.5H3.5V6.5H12.5V7.5Z" fill="#0D2B49"/>
</svg>
