<svg width="16" height="16" viewBox="0 0 16 16" fill="none" xmlns="http://www.w3.org/2000/svg">
<path fill-rule="evenodd" clip-rule="evenodd" d="M13.5 5.032V11C13.46 12.39 12.314 14.5 10.896 14.5H7.615C7.218 14.5 6.837 14.343 6.557 14.065L5.9 13.41L2.796 10.41C2.70221 10.3181 2.62769 10.2084 2.57683 10.0874C2.52596 9.9663 2.49976 9.83631 2.49976 9.705C2.49976 9.57369 2.52596 9.4437 2.57683 9.32264C2.62769 9.20158 2.70221 9.0919 2.796 9C2.999 8.8 3.252 8.71 3.506 8.71C3.769 8.71 4.033 8.8 4.226 9L5.383 10.08C5.573 10.268 5.9 10.135 5.9 9.87V3.281C5.9 2.923 6.14 2.594 6.494 2.517C6.60435 2.49248 6.71877 2.49285 6.82896 2.51808C6.93914 2.54332 7.04233 2.59278 7.131 2.66288C7.21968 2.73298 7.29163 2.82195 7.34162 2.92334C7.39161 3.02472 7.41838 3.13597 7.42 3.249V8.249C7.42 8.387 7.533 8.499 7.673 8.499C7.813 8.499 7.927 8.387 7.927 8.249V2.282C7.927 1.924 8.167 1.595 8.521 1.518C8.63135 1.49348 8.74577 1.49385 8.85596 1.51908C8.96614 1.54432 9.06932 1.59378 9.158 1.66388C9.24668 1.73398 9.31863 1.82295 9.36862 1.92434C9.41861 2.02572 9.44538 2.13697 9.447 2.25V8.25C9.447 8.388 9.56 8.5 9.7 8.5C9.84 8.5 9.953 8.388 9.953 8.25V3.282C9.953 2.924 10.193 2.595 10.548 2.518C10.6583 2.49365 10.7726 2.49415 10.8827 2.51946C10.9927 2.54477 11.0958 2.59427 11.1843 2.66435C11.2729 2.73443 11.3447 2.82334 11.3947 2.92464C11.4446 3.02594 11.4714 3.13708 11.473 3.25V8.25C11.473 8.388 11.587 8.5 11.727 8.5C11.867 8.5 11.98 8.388 11.98 8.25V5C11.98 4.536 12.42 4.162 12.906 4.268C13.0769 4.30922 13.2288 4.40726 13.3367 4.54606C13.4446 4.68486 13.5022 4.85619 13.5 5.032Z" fill="#0D2B49"/>
</svg>
