<svg width="16" height="16" viewBox="0 0 16 16" fill="none" xmlns="http://www.w3.org/2000/svg">
<path d="M1.54457 13.7302L2.51003 11.4234C1.83632 10.3541 1.47191 9.08991 1.52718 7.71702C1.65244 4.60582 4.07867 1.9421 7.16801 1.55318C11.4128 1.01879 14.9819 4.58833 14.4467 8.83329C14.0572 11.9224 11.3932 14.348 8.28209 14.4729C6.90947 14.5279 5.64572 14.1635 4.57658 13.49L2.26984 14.4554C1.81252 14.6468 1.35316 14.1875 1.54457 13.7302ZM8.01084 4.01718C7.18379 4.01718 6.51334 4.68763 6.51334 5.51467C6.51334 6.34172 7.18379 7.01217 8.01084 7.01217C8.83789 7.01217 9.50834 6.34172 9.50834 5.51467C9.50834 4.68763 8.83788 4.01718 8.01084 4.01718ZM11.2554 11.0055C11.2554 9.21357 9.80277 7.76092 8.01084 7.76092C6.21891 7.76092 4.76626 9.21357 4.76626 11.0055H11.2554Z" fill="#0D2B49"/>
</svg>
