<svg width="16" height="16" viewBox="0 0 16 16" fill="none" xmlns="http://www.w3.org/2000/svg">
<path fill-rule="evenodd" clip-rule="evenodd" d="M10.5 8C10.5 8.28 10.28 8.5 10 8.5H8.85C8.64 8.84 8.26 9.07 7.81 8.98C7.61346 8.94461 7.43245 8.84996 7.29125 8.70875C7.15004 8.56755 7.05539 8.38654 7.02 8.19C6.93 7.74 7.16 7.36 7.5 7.15V5.5C7.5 5.22 7.72 5 8 5C8.28 5 8.5 5.22 8.5 5.5V7.15C8.64 7.24 8.76 7.36 8.85 7.5H10C10.28 7.5 10.5 7.72 10.5 8ZM14.5 8C14.5 6.27609 13.8152 4.62279 12.5962 3.40381C11.3772 2.18482 9.72391 1.5 8 1.5C6.25 1.5 4.66 2.19 3.5 3.31V2H2.5V5H5.5V4H4.24C5.22 3.07 6.54 2.5 8 2.5C11.03 2.5 13.5 4.97 13.5 8C13.5 11.03 11.03 13.5 8 13.5C4.97 13.5 2.5 11.03 2.5 8H1.5C1.5 9.72391 2.18482 11.3772 3.40381 12.5962C4.62279 13.8152 6.27609 14.5 8 14.5C9.72391 14.5 11.3772 13.8152 12.5962 12.5962C13.8152 11.3772 14.5 9.72391 14.5 8Z" fill="#0D2B49"/>
</svg>
