<svg width="16" height="16" viewBox="0 0 16 16" fill="none" xmlns="http://www.w3.org/2000/svg">
<path d="M14 7.23406V13.5001C14 13.6327 13.9473 13.7598 13.8536 13.8536C13.7598 13.9474 13.6326 14.0001 13.5 14.0001H10V10.0001H6V14.0001H2.5C2.36739 14.0001 2.24021 13.9474 2.14645 13.8536C2.05268 13.7598 2 13.6327 2 13.5001V7.23406C2.00003 7.16077 2.01617 7.08839 2.04727 7.02203C2.07838 6.95567 2.12369 6.89696 2.18 6.85006L7.68 2.11606C7.76984 2.04122 7.88307 2.00024 8 2.00024C8.11693 2.00024 8.23016 2.04122 8.32 2.11606L13.82 6.85006C13.8763 6.89696 13.9216 6.95567 13.9527 7.02203C13.9838 7.08839 14 7.16077 14 7.23406Z" fill="#0D2B49"/>
</svg>
