<svg width="16" height="16" viewBox="0 0 16 16" fill="none" xmlns="http://www.w3.org/2000/svg">
<path d="M9.612 12.415C9.41887 12.2197 9.18592 12.0682 8.929 11.971C8.689 11.876 8.441 11.876 8.194 11.818C8.15784 11.8106 8.12042 11.812 8.08492 11.8221C8.04941 11.8322 8.01685 11.8507 7.99 11.876C7.852 11.986 7.707 12.073 7.54 12.131C7.358 12.196 7.147 12.261 6.958 12.261C6.718 12.276 6.478 12.269 6.238 12.218C5.91 12.16 5.634 12.036 5.452 11.876C5.42499 11.8512 5.39258 11.8331 5.35735 11.823C5.32211 11.813 5.28502 11.8112 5.249 11.818C5.001 11.876 4.747 11.876 4.514 11.971C4.25672 12.0681 4.02342 12.2195 3.83 12.415C3.64648 12.5945 3.50154 12.8095 3.40404 13.047C3.30655 13.2845 3.25855 13.5393 3.263 13.796C3.263 13.906 3.358 14 3.474 14H9.961C10.078 14 10.18 13.905 10.18 13.796C10.1843 13.5393 10.1362 13.2844 10.0385 13.0469C9.94083 12.8094 9.7957 12.5944 9.612 12.415ZM8.769 9.025C8.769 9.207 8.747 9.389 8.689 9.556C8.681 9.578 8.689 9.615 8.689 9.644C8.659 10.131 8.507 10.611 8.223 11.004C7.889 11.462 7.358 11.804 6.776 11.833C6.194 11.855 5.612 11.52 5.256 11.069C5.09952 10.8593 4.97671 10.6265 4.892 10.379C4.849 10.247 4.812 10.109 4.783 9.979C4.776 9.905 4.761 9.833 4.761 9.767C4.747 9.702 4.761 9.615 4.74 9.557C4.68972 9.3842 4.66513 9.20495 4.667 9.025C4.667 8.08 5.357 7.309 6.289 7.127C6.318 7.127 6.339 7.12 6.369 7.113C6.376 7.105 6.39 7.105 6.405 7.105C6.449 7.105 6.492 7.098 6.535 7.091H6.558C6.58 7.091 6.601 7.091 6.616 7.084H6.826C6.849 7.084 6.87 7.084 6.892 7.091C6.943 7.098 6.987 7.105 7.023 7.105C7.038 7.105 7.06 7.105 7.067 7.113C7.096 7.12 7.117 7.127 7.147 7.127C8.077 7.309 8.769 8.08 8.769 9.025ZM11.874 10.036L10.012 10.451C9.787 10.553 9.54 10.611 9.278 10.611H9.234C9.3 10.421 9.344 10.233 9.372 10.029C9.394 9.913 9.409 9.796 9.416 9.673C9.54162 9.17069 9.51904 8.64275 9.351 8.153C9.22976 7.80934 9.03832 7.49468 8.78885 7.22904C8.53939 6.96339 8.23737 6.75258 7.902 6.61C8.20763 6.28417 8.61626 6.07367 9.059 6.014C9.131 6.006 9.204 5.999 9.277 5.999C9.349 5.999 9.422 6.006 9.495 6.014C10.44 6.123 11.189 6.988 11.284 8.072C11.291 8.152 11.291 8.232 11.291 8.304C11.291 8.428 11.284 8.552 11.262 8.675L11.873 10.035L11.874 10.036ZM12.737 12.34C12.737 12.66 12.475 12.915 12.155 12.915H10.737C10.6095 12.5304 10.3925 12.1815 10.104 11.897C9.83321 11.632 9.51183 11.4242 9.159 11.286C9.079 11.256 8.999 11.235 8.926 11.22C8.94206 11.2035 8.95434 11.1837 8.962 11.162C9.2938 11.2057 9.63108 11.1791 9.9519 11.0838C10.2727 10.9885 10.5699 10.8268 10.824 10.609H11.006C11.959 10.609 12.737 11.38 12.737 12.34ZM14 6V7L8 3L2 7V6L8 2L14 6Z" fill="#0D2B49"/>
</svg>
