<svg width="16" height="16" viewBox="0 0 16 16" fill="none" xmlns="http://www.w3.org/2000/svg">
<path d="M12.993 2.00806H3.00299C2.45099 2.00806 2.00299 2.45606 2.00299 3.00806V12.9981C2.00299 13.5481 2.45299 13.9981 3.00299 13.9981H12.993C13.543 13.9981 13.993 13.5481 13.993 12.9981V3.00806C13.993 2.44806 13.543 2.00806 12.993 2.00806ZM12.993 8.68806L12.013 7.54806C11.793 7.29806 11.473 7.13806 11.133 7.12806C10.783 7.10806 10.453 7.24806 10.223 7.48806L7.15299 10.5881C7.08299 10.6681 6.95299 10.6781 6.86299 10.6081L5.86299 9.80806C5.41299 9.45806 4.76299 9.45806 4.31299 9.83806L3.00299 10.9781V3.21206C3.00299 3.09906 3.09399 3.00806 3.20699 3.00806H12.789C12.902 3.00806 12.993 3.09906 12.993 3.21206V8.68806Z" fill="#0D2B49"/>
<path d="M5.62299 4.41806C4.88299 4.41806 4.28299 5.02806 4.28299 5.75806C4.28299 6.49806 4.88299 7.09806 5.62299 7.09806C6.36299 7.09806 6.96299 6.49806 6.96299 5.75806C6.96299 5.02806 6.36299 4.41806 5.62299 4.41806Z" fill="#0D2B49"/>
</svg>
