<svg width="16" height="16" viewBox="0 0 16 16" fill="none" xmlns="http://www.w3.org/2000/svg">
<path d="M13 14H3C2.73478 14 2.48043 13.8946 2.29289 13.7071C2.10536 13.5196 2 13.2652 2 13V3C2 2.73478 2.10536 2.48043 2.29289 2.29289C2.48043 2.10536 2.73478 2 3 2H13C13.2652 2 13.5196 2.10536 13.7071 2.29289C13.8946 2.48043 14 2.73478 14 3V13C14 13.2652 13.8946 13.5196 13.7071 13.7071C13.5196 13.8946 13.2652 14 13 14ZM11.65 5.65L10.77 6.53L9.5 7.79L8.99 7.29L7.85 6.15C7.66 5.95 7.34 5.95 7.15 6.15L5.24 8.1L5.94 8.8L7.5 7.21L8.01 7.71L9.15 8.85C9.34 9.05 9.66 9.05 9.85 8.85L12.35 6.35L11.65 5.65ZM4 12V3H3V13H13V12H4Z" fill="#0D2B49"/>
</svg>
