<svg width="16" height="16" viewBox="0 0 16 16" fill="none" xmlns="http://www.w3.org/2000/svg">
<path d="M14 11.255C14.0001 11.5196 13.9401 11.7807 13.8245 12.0187C13.7089 12.2567 13.5407 12.4653 13.3327 12.6287C13.1246 12.7922 12.8821 12.9062 12.6235 12.9622C12.365 13.0182 12.097 13.0147 11.84 12.952C11.57 12.892 11.33 12.772 11.12 12.582C11.36 12.112 11.5 11.573 11.5 11.005C11.5 10.585 11.43 10.185 11.28 9.80697C11.35 9.75697 11.42 9.71697 11.5 9.67697V8.00997H9.78999C9.25119 7.6815 8.63203 7.50845 8.001 7.50997C7.351 7.50997 6.73099 7.68997 6.21099 8.00997H4.50299V9.67797C4.58299 9.71797 4.653 9.75697 4.723 9.80697C4.57299 10.187 4.50299 10.587 4.50299 11.006C4.50299 11.564 4.63299 12.103 4.88299 12.572C4.48299 12.932 3.92299 13.092 3.33299 12.952C2.69299 12.802 2.17299 12.272 2.04299 11.633C1.99022 11.3986 1.98683 11.1559 2.03304 10.9201C2.07925 10.6844 2.17405 10.4609 2.3114 10.2638C2.44874 10.0667 2.62562 9.90039 2.83078 9.77542C3.03594 9.65046 3.26487 9.5696 3.50299 9.53797V7.13097C3.50299 7.07097 3.56299 7.01097 3.62299 7.01097H7.50299V5.43497C7.14348 5.32779 6.82793 5.10792 6.60287 4.80778C6.3778 4.50764 6.25515 4.14312 6.25299 3.76797C6.24728 3.33035 6.40575 2.90648 6.69715 2.57994C6.98855 2.2534 7.39173 2.04789 7.82717 2.00396C8.26262 1.96003 8.69872 2.08085 9.04948 2.3426C9.40023 2.60435 9.64018 2.98803 9.72199 3.41797C9.90199 4.35697 9.32199 5.18597 8.50199 5.43597V7.01297H12.372C12.442 7.01297 12.502 7.07297 12.502 7.13297V9.53797C13.352 9.65797 14.001 10.378 14.001 11.256L14 11.255ZM11 11.005C11 12.662 9.66199 14 8.00199 14C6.34199 14 5.00299 12.662 5.00299 11.005C5.00299 9.34797 6.343 8.00997 8.003 8.00997C9.66299 8.00997 11 9.34797 11 11.005ZM8.461 12.354H7.58099V13.202H8.461V12.352V12.354ZM9.51099 10.066C9.51099 9.64697 9.36099 9.32697 9.06099 9.11797C8.77099 8.89797 8.391 8.80797 7.95099 8.80797C7.601 8.80797 7.32099 8.86797 7.09099 9.01797C6.72099 9.25797 6.521 9.65797 6.49099 10.217H7.35099C7.35099 10.057 7.40099 9.89697 7.50099 9.74697C7.59099 9.60697 7.75099 9.51697 7.98099 9.51697C8.22099 9.51697 8.381 9.57697 8.461 9.69697C8.551 9.81697 8.60099 9.96697 8.60099 10.117C8.60099 10.247 8.56099 10.367 8.48099 10.467C8.44099 10.547 8.38099 10.587 8.30099 10.647L8.09099 10.816C7.88099 10.986 7.74099 11.126 7.69099 11.255C7.64099 11.375 7.61099 11.615 7.60099 11.944H8.40099C8.40099 11.794 8.42099 11.674 8.44099 11.604C8.48002 11.4774 8.56118 11.368 8.67099 11.294L8.88099 11.114C9.09099 10.954 9.24099 10.815 9.31099 10.715C9.44099 10.545 9.51099 10.315 9.51099 10.065V10.066Z" fill="#0D2B49"/>
</svg>
