<svg width="16" height="16" viewBox="0 0 16 16" fill="none" xmlns="http://www.w3.org/2000/svg">
<path d="M10.472 10.47C10.1843 10.7529 10.0179 11.1366 10.008 11.54V11.92C10.0066 11.9408 9.9977 11.9603 9.98299 11.975C9.96828 11.9897 9.94874 11.9986 9.92799 12H8.49399V9.15002L8.67599 8.98002L9.80599 7.85002C9.85343 7.8049 9.8912 7.75061 9.91701 7.69044C9.94283 7.63028 9.95614 7.56549 9.95614 7.50002C9.95614 7.43455 9.94283 7.36976 9.91701 7.3096C9.8912 7.24943 9.85343 7.19514 9.80599 7.15002C9.7604 7.10213 9.70557 7.06399 9.6448 7.03794C9.58403 7.01188 9.5186 6.99845 9.45249 6.99845C9.38637 6.99845 9.32094 7.01188 9.26017 7.03794C9.19941 7.06399 9.14457 7.10213 9.09899 7.15002L7.95999 8.27002L6.83199 7.15002C6.78649 7.10215 6.73174 7.06404 6.67105 7.038C6.61037 7.01195 6.54502 6.99852 6.47899 6.99852C6.41295 6.99852 6.3476 7.01195 6.28692 7.038C6.22623 7.06404 6.17148 7.10215 6.12599 7.15002C6.07854 7.19514 6.04077 7.24943 6.01496 7.3096C5.98915 7.36976 5.97584 7.43455 5.97584 7.50002C5.97584 7.56549 5.98915 7.63028 6.01496 7.69044C6.04077 7.75061 6.07854 7.8049 6.12599 7.85002L7.48799 9.20002V12H6.05499C6.03413 11.9986 6.01446 11.9898 5.99958 11.9751C5.98471 11.9604 5.97562 11.9409 5.97399 11.92V11.56C5.97038 11.3537 5.92572 11.1502 5.84262 10.9613C5.75952 10.7725 5.63965 10.6021 5.48999 10.46C4.97467 9.95042 4.63196 9.29218 4.51 8.57778C4.38803 7.86339 4.49294 7.12873 4.80999 6.47702C5.12599 5.82502 5.63999 5.28702 6.27799 4.93602C6.77306 4.66473 7.32571 4.51545 7.89004 4.50058C8.45438 4.48571 9.01412 4.60568 9.52279 4.85053C10.0315 5.09538 10.4744 5.45805 10.8148 5.90841C11.1552 6.35877 11.3832 6.88384 11.48 7.44002C11.5696 7.98894 11.5247 8.5514 11.3491 9.07915C11.1735 9.6069 10.8726 10.0842 10.472 10.47ZM9.81599 12.5H6.16599C6.11754 12.5006 6.07057 12.5167 6.03199 12.546C6.01522 12.5584 6.00134 12.5743 5.99133 12.5926C5.98132 12.6109 5.9754 12.6312 5.97399 12.652V13.548C5.97599 13.588 5.99599 13.626 6.03199 13.654C6.07057 13.6833 6.11754 13.6994 6.16599 13.7H6.78099C6.84282 13.9384 6.9939 14.1439 7.20299 14.274C7.42399 14.42 7.70299 14.5 7.99099 14.5C8.27899 14.5 8.55699 14.42 8.77899 14.274C8.98769 14.1437 9.1384 13.9382 9.19999 13.7H9.81499C9.86343 13.6994 9.9104 13.6833 9.94899 13.654C9.96576 13.6416 9.97963 13.6257 9.98964 13.6074C9.99966 13.5891 10.0056 13.5688 10.007 13.548V12.652C10.0056 12.6312 9.99966 12.6109 9.98964 12.5926C9.97963 12.5743 9.96576 12.5584 9.94899 12.546C9.9104 12.5167 9.86343 12.5006 9.81499 12.5H9.81599ZM8.08199 1.50002C8.01599 1.49949 7.95054 1.51204 7.88942 1.53693C7.82829 1.56182 7.7727 1.59856 7.72584 1.64505C7.67899 1.69153 7.6418 1.74683 7.61643 1.80775C7.59105 1.86868 7.57798 1.93402 7.57799 2.00002V3.00002C7.57798 3.06602 7.59105 3.13137 7.61643 3.19229C7.6418 3.25322 7.67899 3.30851 7.72584 3.355C7.7727 3.40148 7.82829 3.43822 7.88942 3.46311C7.95054 3.48801 8.01599 3.50055 8.08199 3.50002C8.18157 3.50068 8.27912 3.47176 8.36225 3.41693C8.44539 3.3621 8.51038 3.28382 8.54899 3.19202C8.57404 3.13114 8.58662 3.06585 8.58599 3.00002V2.00002C8.58718 1.90055 8.55819 1.80306 8.50285 1.72041C8.4475 1.63775 8.36841 1.57381 8.27599 1.53702C8.2144 1.51199 8.14846 1.49941 8.08199 1.50002ZM6.07499 3.31002L5.58099 2.44002C5.53318 2.35208 5.45974 2.28077 5.37043 2.23558C5.28111 2.19038 5.18016 2.17345 5.08099 2.18702C5.01542 2.19549 4.9522 2.21691 4.89499 2.25002C4.77962 2.31499 4.69467 2.42299 4.6587 2.55041C4.62272 2.67783 4.63864 2.81431 4.70299 2.93002L5.19699 3.80002C5.24023 3.87757 5.30307 3.94239 5.37924 3.98802C5.4554 4.03365 5.54221 4.05848 5.63099 4.06002C5.72 4.06168 5.80758 4.03735 5.88299 3.99002C5.97005 3.9424 6.04087 3.86981 6.08632 3.78158C6.13176 3.69336 6.14976 3.59356 6.13799 3.49502C6.12959 3.42976 6.10817 3.36684 6.07499 3.31002ZM11.137 2.25002C11.0796 2.21743 11.0163 2.19649 10.9507 2.18841C10.8852 2.18032 10.8187 2.18524 10.7551 2.20289C10.6914 2.22054 10.6319 2.25057 10.5799 2.29126C10.5279 2.33195 10.4844 2.3825 10.452 2.44002L9.95699 3.31002C9.9247 3.36773 9.90431 3.43132 9.89701 3.49703C9.8897 3.56275 9.89564 3.62927 9.91447 3.69265C9.9333 3.75604 9.96464 3.81501 10.0066 3.86608C10.0486 3.91716 10.1004 3.9593 10.159 3.99002C10.2307 4.03728 10.3151 4.06168 10.401 4.06002C10.4907 4.05677 10.5782 4.03132 10.6557 3.98595C10.7332 3.94057 10.7982 3.87669 10.845 3.80002L11.329 2.93002C11.3625 2.87313 11.3841 2.81004 11.3926 2.74455C11.401 2.67907 11.3962 2.61256 11.3782 2.54901C11.3603 2.48547 11.3297 2.42622 11.2882 2.37484C11.2467 2.32345 11.1953 2.28099 11.137 2.25002ZM12.415 5.79002L13.266 5.25302C13.3215 5.2179 13.3695 5.17219 13.4073 5.1185C13.4451 5.06481 13.472 5.0042 13.4864 4.94013C13.5008 4.87605 13.5024 4.80977 13.4912 4.74507C13.48 4.68036 13.4561 4.6185 13.421 4.56302C13.3491 4.45057 13.2356 4.37121 13.1053 4.34234C12.975 4.31347 12.8386 4.33745 12.726 4.40902L11.874 4.94502C11.7901 4.99795 11.7238 5.07454 11.6834 5.16513C11.643 5.25572 11.6303 5.35624 11.647 5.45402C11.6638 5.55206 11.7097 5.64279 11.7787 5.71446C11.8477 5.78613 11.9367 5.83544 12.034 5.85602C12.1645 5.88443 12.301 5.86036 12.414 5.78902L12.415 5.79002ZM4.12799 4.95002L3.27099 4.41002C3.1586 4.34039 3.02346 4.31742 2.89437 4.346C2.76529 4.37458 2.65248 4.45246 2.57999 4.56302C2.54443 4.61775 2.52002 4.67896 2.50816 4.74314C2.49631 4.80732 2.49723 4.87321 2.51089 4.93703C2.52454 5.00086 2.55066 5.06135 2.58774 5.11506C2.62483 5.16877 2.67214 5.21463 2.72699 5.25002L3.58399 5.79002C3.64 5.82588 3.70259 5.8502 3.76812 5.86157C3.83365 5.87293 3.90078 5.87111 3.96559 5.85621C4.03041 5.84131 4.0916 5.81363 4.14558 5.7748C4.19956 5.73596 4.24526 5.68674 4.27999 5.63002C4.31569 5.57571 4.34011 5.51477 4.35179 5.45083C4.36348 5.38689 4.3622 5.32126 4.34802 5.25783C4.33384 5.19439 4.30705 5.13446 4.26926 5.08158C4.23146 5.02871 4.18342 4.98397 4.12799 4.95002Z" fill="#0D2B49"/>
</svg>
