<svg width="16" height="16" viewBox="0 0 16 16" fill="none" xmlns="http://www.w3.org/2000/svg">
<path d="M8 1.5C4.58002 1.5 1.77002 4.14001 1.52002 7.5H2C2 6.95001 2.45001 6.5 3 6.5C3.54999 6.5 4 6.95001 4 7.5H4.5C4.5 6.95001 4.95001 6.5 5.5 6.5C6.04999 6.5 6.5 6.95001 6.5 7.5H7C7 7.03851 7.32312 6.66473 7.75 6.55078V12H7.5V14H8.5V12H8.25V6.55078C8.67688 6.66473 9 7.03851 9 7.5H9.5C9.5 6.95001 9.95001 6.5 10.5 6.5C11.05 6.5 11.5 6.95001 11.5 7.5H12C12 6.95001 12.45 6.5 13 6.5C13.55 6.5 14 6.95001 14 7.5H14.48C14.23 4.14001 11.42 1.5 8 1.5Z" fill="#0D2B49"/>
</svg>
