<svg width="16" height="16" viewBox="0 0 16 16" fill="none" xmlns="http://www.w3.org/2000/svg">
<path d="M7.23199 7.50001H3.76899C3.54399 7.50001 3.41899 7.23302 3.55899 7.05201L7.02299 2.60401C7.18099 2.40101 7.49999 2.51601 7.49999 2.77601V7.22501C7.49999 7.37701 7.37999 7.50001 7.23199 7.50001ZM11.445 7.04302L8.99099 3.61501C8.83399 3.39501 8.49999 3.51201 8.49999 3.78601V7.21402C8.49838 7.28811 8.52621 7.35982 8.57738 7.41343C8.62855 7.46704 8.6989 7.49818 8.77299 7.50001H11.227C11.452 7.50001 11.58 7.23102 11.445 7.04302ZM13.1 8.50001H2.89999C2.71999 8.50001 2.59999 8.70201 2.67999 8.86301L3.26999 10.062C3.38999 10.032 3.50999 10.012 3.63999 10.012C3.98999 10.012 4.32999 10.142 4.59999 10.374C4.65999 10.424 4.89999 10.505 5.10999 10.505C5.30999 10.505 5.53999 10.425 5.59999 10.375C5.88999 10.132 6.21999 10.011 6.55999 10.011C6.90999 10.011 7.24999 10.142 7.50999 10.364C7.57999 10.424 7.81999 10.505 8.01999 10.505C8.20999 10.505 8.44999 10.435 8.52999 10.364C8.78999 10.142 9.12999 10.011 9.47999 10.011C9.83999 10.011 10.18 10.142 10.45 10.374C10.51 10.424 10.74 10.505 10.94 10.505C11.15 10.505 11.39 10.425 11.45 10.364C11.72 10.142 12.06 10.011 12.41 10.011C12.52 10.011 12.63 10.021 12.73 10.051L13.32 8.86301C13.4 8.70201 13.28 8.50001 13.1 8.50001ZM13.869 12.024C13.462 12.024 12.839 11.897 12.421 11.537C11.971 11.897 11.349 12.024 10.943 12.024C10.521 12.024 9.92099 11.896 9.50199 11.537C9.04499 11.897 8.42599 12.024 8.02399 12.024C7.61799 12.024 6.99399 11.897 6.57599 11.537C6.12899 11.897 5.50999 12.024 5.10599 12.024C4.70099 12.024 4.07799 11.897 3.65899 11.537C3.20899 11.897 2.58699 12.024 2.18099 12.024C2.02299 12.024 1.86999 12.014 1.69899 11.985C1.57099 11.963 1.48299 11.832 1.50299 11.691C1.52299 11.552 1.63999 11.459 1.77299 11.478C1.91799 11.503 2.04699 11.511 2.18099 11.511C2.53699 11.511 3.03299 11.395 3.33799 11.134C3.42247 11.0598 3.53106 11.0189 3.64349 11.0189C3.75592 11.0189 3.86451 11.0598 3.94899 11.134C4.25399 11.394 4.74899 11.511 5.10699 11.511C5.45999 11.511 5.95199 11.395 6.25399 11.134C6.33895 11.0601 6.44771 11.0194 6.5603 11.0192C6.67289 11.019 6.78178 11.0594 6.86699 11.133C7.17099 11.395 7.66699 11.511 8.02399 11.511C8.37699 11.511 8.86899 11.395 9.17399 11.134C9.26001 11.0594 9.37009 11.0183 9.48399 11.0183C9.59789 11.0183 9.70796 11.0594 9.79399 11.134C10.097 11.394 10.59 11.511 10.943 11.511C11.3 11.511 11.796 11.395 12.099 11.134C12.1833 11.0597 12.2919 11.0186 12.4043 11.0184C12.5167 11.0182 12.6254 11.059 12.71 11.133C13.015 11.395 13.512 11.511 13.869 11.511C13.9773 11.5122 14.0849 11.4929 14.186 11.454C14.306 11.406 14.443 11.477 14.486 11.61C14.53 11.744 14.466 11.89 14.343 11.937C14.192 11.997 14.036 12.024 13.869 12.024ZM13.869 13.5C13.462 13.5 12.839 13.373 12.421 13.013C11.971 13.373 11.349 13.5 10.943 13.5C10.521 13.5 9.92099 13.372 9.50199 13.013C9.04499 13.373 8.42599 13.5 8.02399 13.5C7.61799 13.5 6.99399 13.373 6.57599 13.013C6.12899 13.373 5.50999 13.5 5.10599 13.5C4.70099 13.5 4.07799 13.373 3.65899 13.013C3.20899 13.373 2.58699 13.5 2.18099 13.5C2.02299 13.5 1.86999 13.49 1.69899 13.46C1.57099 13.439 1.48299 13.307 1.50299 13.167C1.52299 13.027 1.63999 12.935 1.77299 12.954C1.91799 12.979 2.04699 12.987 2.18099 12.987C2.53699 12.987 3.03299 12.87 3.33799 12.61C3.42247 12.5358 3.53106 12.4949 3.64349 12.4949C3.75592 12.4949 3.86451 12.5358 3.94899 12.61C4.25399 12.87 4.74899 12.987 5.10699 12.987C5.45999 12.987 5.95199 12.87 6.25399 12.61C6.33895 12.5361 6.44771 12.4954 6.5603 12.4952C6.67289 12.495 6.78178 12.5354 6.86699 12.609C7.17099 12.87 7.66699 12.987 8.02399 12.987C8.37699 12.987 8.86899 12.87 9.17399 12.61C9.26001 12.5354 9.37009 12.4943 9.48399 12.4943C9.59789 12.4943 9.70796 12.5354 9.79399 12.61C10.097 12.87 10.59 12.987 10.943 12.987C11.3 12.987 11.796 12.87 12.099 12.61C12.1833 12.5357 12.2919 12.4946 12.4043 12.4944C12.5167 12.4942 12.6254 12.535 12.71 12.609C13.015 12.87 13.512 12.987 13.869 12.987C13.9773 12.9882 14.0849 12.9689 14.186 12.93C14.306 12.881 14.443 12.953 14.486 13.086C14.53 13.219 14.466 13.366 14.343 13.413C14.192 13.472 14.036 13.5 13.869 13.5Z" fill="#0D2B49"/>
</svg>
