<svg width="16" height="16" viewBox="0 0 16 16" fill="none" xmlns="http://www.w3.org/2000/svg">
<path d="M2.5 3.5V12.5C1.95 12.5 1.5 12.05 1.5 11.5V4.5C1.5 3.95 1.95 3.5 2.5 3.5ZM13.5 3.5V12.5C14.05 12.5 14.5 12.05 14.5 11.5V4.5C14.5 3.95 14.05 3.5 13.5 3.5ZM11.5 2.5H4.5C4.23478 2.5 3.98043 2.60536 3.79289 2.79289C3.60536 2.98043 3.5 3.23478 3.5 3.5V12.5C3.5 12.7652 3.60536 13.0196 3.79289 13.2071C3.98043 13.3946 4.23478 13.5 4.5 13.5H11.5C11.7652 13.5 12.0196 13.3946 12.2071 13.2071C12.3946 13.0196 12.5 12.7652 12.5 12.5V3.5C12.5 3.23478 12.3946 2.98043 12.2071 2.79289C12.0196 2.60536 11.7652 2.5 11.5 2.5ZM6.42 7.78L6.91 7.62C7.12 7.55 7.31 7.42 7.38 7.26V6.81C7.25 6.76 7.04 6.39 7.01 6.12C6.93 6.12 6.85 6.03 6.82 5.75C6.79 5.6 6.84 5.53 6.88 5.48V5.25C6.88 4.58 7.32 4 8 4C8.69 4 9.13 4.58 9.13 5.25C9.13 5.34 9.13 5.42 9.12 5.48C9.17 5.53 9.21 5.6 9.19 5.75C9.16 6.03 9.08 6.12 9 6.12C8.97 6.39 8.76 6.76 8.63 6.81V7.26C8.7 7.42 8.89 7.55 9.1 7.62L9.6 7.78C10.01 7.92 10.42 8.15 10.5 8.75C8.85001 9.08347 7.14999 9.08347 5.5 8.75C5.59 8.15 6 7.92 6.42 7.78ZM6 10.5H10V11.5H6V10.5Z" fill="#0D2B49"/>
</svg>
