<svg width="16" height="16" viewBox="0 0 16 16" fill="none" xmlns="http://www.w3.org/2000/svg">
<path d="M13.076 3.82799C13.085 3.70699 13.089 3.58199 13.093 3.45799C13.373 3.35999 13.577 3.09999 13.577 2.78599C13.577 2.44899 13.341 2.17899 13.028 2.10099C13.007 1.95899 12.987 1.81499 12.962 1.68899L12.947 1.69199C12.919 1.60999 12.856 1.54499 12.765 1.54499C12.65 1.54499 12.558 1.63799 12.558 1.75299C12.558 1.75699 12.562 1.75999 12.562 1.76399L12.559 1.76499C12.572 1.87799 12.568 2.00799 12.576 2.12699C12.319 2.23699 12.139 2.49099 12.139 2.78799C12.139 3.06699 12.302 3.30099 12.534 3.42099C12.52 3.53799 12.505 3.65399 12.488 3.76699C12.176 3.86299 11.945 4.14299 11.945 4.48599C11.945 4.71199 12.048 4.90999 12.204 5.04999C12.175 5.14699 12.153 5.25299 12.121 5.34599C11.672 5.38499 11.316 5.75099 11.316 6.20999C11.316 6.39999 11.389 6.56699 11.492 6.70999C11.411 6.84399 11.321 6.96399 11.233 7.08599C11.178 7.07599 11.127 7.05299 11.069 7.05299C10.545 7.05299 10.121 7.47699 10.121 8.00099C10.121 8.06799 10.146 8.12699 10.159 8.18999C10.046 8.26999 9.932 8.34099 9.817 8.40799C9.651 8.29099 9.46 8.20699 9.242 8.20699C8.794 8.20699 8.426 8.50099 8.291 8.90299C8.092 8.92099 7.895 8.92099 7.697 8.90499C7.562 8.50199 7.194 8.20699 6.745 8.20699C6.524 8.20699 6.33 8.29199 6.163 8.41199C6.05 8.34599 5.937 8.27699 5.827 8.19799C5.842 8.13199 5.867 8.06999 5.867 7.99999C5.867 7.47599 5.443 7.05199 4.919 7.05199C4.859 7.05199 4.807 7.07599 4.75 7.08599C4.663 6.96399 4.574 6.84599 4.494 6.71299C4.598 6.56799 4.672 6.39999 4.672 6.20799C4.672 5.74999 4.317 5.38499 3.87 5.34499C3.838 5.25099 3.816 5.14399 3.787 5.04599C3.942 4.90599 4.043 4.70899 4.043 4.48399C4.043 4.14299 3.816 3.86499 3.508 3.76599C3.491 3.65099 3.476 3.53299 3.462 3.41399C3.689 3.29299 3.849 3.06099 3.849 2.78599C3.849 2.48799 3.668 2.23299 3.41 2.12299C3.418 1.98399 3.426 1.84399 3.44 1.71599H3.437C3.437 1.71299 3.44 1.71199 3.44 1.70899C3.44 1.60699 3.357 1.52399 3.255 1.52399C3.157 1.52399 3.082 1.60099 3.075 1.69699H3.071C3.047 1.81799 3.03 1.95499 3.012 2.08999C2.673 2.14799 2.41 2.42999 2.41 2.78599C2.41 3.12099 2.643 3.38899 2.953 3.46999C2.957 3.57699 2.96 3.68599 2.967 3.79099C2.702 3.91099 2.516 4.17499 2.516 4.48399C2.516 4.86399 2.799 5.16599 3.163 5.22399C3.186 5.33299 3.217 5.43399 3.244 5.53899C3.047 5.70099 2.915 5.93499 2.915 6.20799C2.915 6.69299 3.308 7.08699 3.794 7.08699C3.801 7.08699 3.806 7.08299 3.812 7.08299C3.898 7.25299 3.991 7.41299 4.088 7.56799C4.02 7.69899 3.971 7.84199 3.971 7.99999C3.971 8.52399 4.395 8.94799 4.919 8.94799C5.028 8.94799 5.129 8.91999 5.227 8.88599C5.391 9.02199 5.561 9.14399 5.735 9.25299C5.752 9.79899 6.195 10.239 6.745 10.239C7.047 10.239 7.311 10.101 7.497 9.89199C7.83 9.93499 8.165 9.93999 8.498 9.90399C8.684 10.107 8.945 10.24 9.242 10.24C9.773 10.24 10.196 9.82799 10.241 9.30799C10.441 9.18899 10.636 9.05399 10.823 8.89899C10.903 8.92099 10.981 8.94799 11.068 8.94799C11.592 8.94799 12.016 8.52399 12.016 7.99999C12.016 7.86599 11.986 7.73899 11.936 7.62299C12.045 7.45099 12.148 7.26799 12.244 7.07699C12.704 7.04899 13.071 6.67599 13.071 6.20899C13.071 5.95899 12.964 5.73599 12.796 5.57599C12.827 5.45599 12.86 5.33799 12.886 5.21299C13.219 5.13099 13.471 4.84399 13.471 4.48499C13.472 4.19899 13.308 3.95899 13.076 3.82799Z" fill="#0D2B49"/>
<path d="M7.998 10.773C7.328 10.773 6.788 11.953 6.788 12.973C6.788 14.003 7.328 14.503 7.998 14.503C8.668 14.503 9.208 14.003 9.208 12.973C9.208 11.953 8.668 10.773 7.998 10.773Z" fill="#0D2B49"/>
</svg>
