<svg width="16" height="16" viewBox="0 0 16 16" fill="none" xmlns="http://www.w3.org/2000/svg">
<path d="M13 12V11H9.5V9.95001C10.64 9.71997 11.5 8.70996 11.5 7.5V4.75C11.5 2.95996 10.04 1.5 8.25 1.5C6.46002 1.5 5 2.95996 5 4.75V10H6.5V11H4C3.45001 11 3 11.45 3 12V13.5C3 14.05 3.45001 14.5 4 14.5H13V13.5H12.26C12.1 13.29 12 13.03 12 12.75C12 12.47 12.1 12.21 12.26 12H13ZM10.5 7.5C10.5 8.32996 9.83002 9 9 9H7.72998C7.98999 8.70996 8.19 8.38 8.32001 8C9.15997 7.97998 9.92999 7.65997 10.5 7.15997V7.5ZM8.5 10V11H7.5V10H8.5ZM8.25 2.5C8.78998 2.5 9.28998 2.69 9.67999 3.01001C9.07001 3.02997 8.53998 3.35999 8.25 3.85999C7.96002 3.35999 7.42999 3.02997 6.82001 3.01001C7.21002 2.69 7.71002 2.5 8.25 2.5ZM6.08002 5.5C6.03003 5.33997 6 5.15997 6 4.97998C6.01001 4.94 6.01001 4.90997 6.01001 4.87C6.01001 4.70001 6.04999 4.51996 6.10999 4.35999C6.25 4.14001 6.48999 4 6.75 4C7.02002 4 7.25 4.13 7.38 4.35999C7.56 4.66998 7.89001 4.85999 8.25 4.85999C8.60999 4.85999 8.94 4.66998 9.12 4.35999C9.25 4.13 9.47998 4 9.75 4C10.01 4 10.25 4.14001 10.39 4.35999C10.45 4.51996 10.49 4.70001 10.49 4.87C10.49 4.89996 10.49 4.92999 10.5 4.95996V5C10.5 5.54999 10.25 6.04999 9.84003 6.40997C9.48999 6.72998 9.02002 6.94 8.5 6.98999C8.41998 7 8.33002 7 8.25 7C7.98999 7 7.72998 6.95996 7.5 6.88C7.22998 6.79999 6.97998 6.66998 6.77002 6.5C6.44 6.25 6.20001 5.89996 6.08002 5.5ZM11.13 13.5H4.5V12H11.13C11.05 12.24 11 12.49 11 12.75C11 13.01 11.05 13.26 11.13 13.5Z" fill="#0D2B49"/>
</svg>
