<svg width="16" height="16" viewBox="0 0 16 16" fill="none" xmlns="http://www.w3.org/2000/svg">
<path d="M10.337 6.395C10.524 6.613 10.711 6.831 10.898 7.018C11.054 7.205 11.241 7.423 11.459 7.672C11.677 7.921 11.864 8.139 12.082 8.389C12.362 8.701 12.581 8.981 12.768 9.23C12.955 9.479 13.08 9.697 13.204 9.916C13.297 10.134 13.391 10.321 13.422 10.477C13.453 10.664 13.484 10.82 13.484 11.007V11.817C13.484 12.066 13.453 12.284 13.359 12.503C13.266 12.69 13.172 12.877 13.016 13.033C12.86 13.189 12.704 13.282 12.517 13.376C12.33 13.47 12.143 13.501 11.925 13.501H4.198C3.98 13.501 3.762 13.47 3.544 13.376C3.326 13.314 3.17 13.189 3.014 13.064C2.858 12.939 2.734 12.752 2.64 12.565C2.547 12.378 2.484 12.16 2.484 11.911V10.945C2.484 10.758 2.515 10.54 2.546 10.384C2.577 10.197 2.639 10.01 2.764 9.823C2.858 9.574 2.983 9.387 3.17 9.137C3.357 8.919 3.575 8.67 3.824 8.39C4.043 8.14 4.261 7.922 4.51 7.673C4.728 7.424 4.946 7.206 5.133 7.019C5.351 6.8 5.569 6.582 5.756 6.364H10.337V6.395ZM8 11.132C8.218 11.132 8.436 11.101 8.623 11.007C8.81 10.914 8.997 10.82 9.122 10.664C9.278 10.508 9.371 10.352 9.465 10.165C9.558 9.978 9.59 9.76 9.59 9.542C9.59 9.324 9.558 9.106 9.465 8.919C9.371 8.732 9.278 8.545 9.122 8.421C8.966 8.265 8.81 8.171 8.623 8.078C8.436 7.984 8.218 7.953 8 7.953C7.782 7.953 7.564 7.984 7.377 8.078C7.19 8.171 7.003 8.265 6.878 8.421C6.722 8.576 6.629 8.732 6.535 8.919C6.442 9.106 6.411 9.324 6.411 9.542C6.411 9.76 6.442 9.978 6.536 10.165C6.629 10.352 6.723 10.539 6.879 10.664C7.035 10.82 7.191 10.913 7.378 11.007C7.564 11.101 7.782 11.132 8 11.132ZM14.263 4.868V5.647C14.263 5.865 14.201 6.052 14.045 6.208C13.889 6.364 13.702 6.426 13.484 6.426H11.926C11.708 6.426 11.521 6.364 11.365 6.208C11.209 6.052 11.147 5.865 11.147 5.647V4.868H4.853V5.647C4.853 5.865 4.791 6.052 4.635 6.208C4.479 6.364 4.292 6.426 4.074 6.426H2.516C2.298 6.426 2.111 6.364 1.955 6.208C1.799 6.052 1.737 5.865 1.737 5.647V4.837C1.737 4.744 1.768 4.65 1.799 4.588L1.986 4.401C2.048 4.339 2.142 4.276 2.235 4.245C2.328 4.214 2.422 4.152 2.515 4.089C2.608 4.027 2.827 3.933 3.138 3.746C3.45 3.59 3.855 3.403 4.353 3.216C4.853 3.03 5.382 2.874 6.006 2.718C6.629 2.562 7.283 2.5 8 2.5C8.81 2.5 9.527 2.562 10.15 2.718C10.773 2.874 11.334 3.03 11.802 3.217C12.269 3.404 12.643 3.591 12.924 3.747C13.204 3.903 13.391 4.027 13.485 4.09C13.578 4.152 13.672 4.215 13.765 4.246C13.858 4.277 13.952 4.339 14.014 4.402L14.201 4.589C14.232 4.65 14.263 4.744 14.263 4.868Z" fill="#0D2B49"/>
</svg>
