<svg width="16" height="16" viewBox="0 0 16 16" fill="none" xmlns="http://www.w3.org/2000/svg">
<path d="M4.5 5H2.5C2.36739 5 2.24021 4.94732 2.14645 4.85355C2.05268 4.75979 2 4.63261 2 4.5V2.5C2 2.36739 2.05268 2.24021 2.14645 2.14645C2.24021 2.05268 2.36739 2 2.5 2H4.5C4.63261 2 4.75979 2.05268 4.85355 2.14645C4.94732 2.24021 5 2.36739 5 2.5V4.5C5 4.63261 4.94732 4.75979 4.85355 4.85355C4.75979 4.94732 4.63261 5 4.5 5ZM9.5 4.5V2.5C9.5 2.36739 9.44732 2.24021 9.35355 2.14645C9.25979 2.05268 9.13261 2 9 2H7C6.86739 2 6.74021 2.05268 6.64645 2.14645C6.55268 2.24021 6.5 2.36739 6.5 2.5V4.5C6.5 4.63261 6.55268 4.75979 6.64645 4.85355C6.74021 4.94732 6.86739 5 7 5H9C9.13261 5 9.25979 4.94732 9.35355 4.85355C9.44732 4.75979 9.5 4.63261 9.5 4.5ZM14 4.5V2.5C14 2.36739 13.9473 2.24021 13.8536 2.14645C13.7598 2.05268 13.6326 2 13.5 2H11.5C11.3674 2 11.2402 2.05268 11.1464 2.14645C11.0527 2.24021 11 2.36739 11 2.5V4.5C11 4.63261 11.0527 4.75979 11.1464 4.85355C11.2402 4.94732 11.3674 5 11.5 5H13.5C13.6326 5 13.7598 4.94732 13.8536 4.85355C13.9473 4.75979 14 4.63261 14 4.5ZM5 9V7C5 6.86739 4.94732 6.74021 4.85355 6.64645C4.75979 6.55268 4.63261 6.5 4.5 6.5H2.5C2.36739 6.5 2.24021 6.55268 2.14645 6.64645C2.05268 6.74021 2 6.86739 2 7V9C2 9.13261 2.05268 9.25979 2.14645 9.35355C2.24021 9.44732 2.36739 9.5 2.5 9.5H4.5C4.63261 9.5 4.75979 9.44732 4.85355 9.35355C4.94732 9.25979 5 9.13261 5 9ZM9.5 9V7C9.5 6.86739 9.44732 6.74021 9.35355 6.64645C9.25979 6.55268 9.13261 6.5 9 6.5H7C6.86739 6.5 6.74021 6.55268 6.64645 6.64645C6.55268 6.74021 6.5 6.86739 6.5 7V9C6.5 9.13261 6.55268 9.25979 6.64645 9.35355C6.74021 9.44732 6.86739 9.5 7 9.5H9C9.13261 9.5 9.25979 9.44732 9.35355 9.35355C9.44732 9.25979 9.5 9.13261 9.5 9ZM14 9V7C14 6.86739 13.9473 6.74021 13.8536 6.64645C13.7598 6.55268 13.6326 6.5 13.5 6.5H11.5C11.3674 6.5 11.2402 6.55268 11.1464 6.64645C11.0527 6.74021 11 6.86739 11 7V9C11 9.13261 11.0527 9.25979 11.1464 9.35355C11.2402 9.44732 11.3674 9.5 11.5 9.5H13.5C13.6326 9.5 13.7598 9.44732 13.8536 9.35355C13.9473 9.25979 14 9.13261 14 9ZM5 13.5V11.5C5 11.3674 4.94732 11.2402 4.85355 11.1464C4.75979 11.0527 4.63261 11 4.5 11H2.5C2.36739 11 2.24021 11.0527 2.14645 11.1464C2.05268 11.2402 2 11.3674 2 11.5V13.5C2 13.6326 2.05268 13.7598 2.14645 13.8536C2.24021 13.9473 2.36739 14 2.5 14H4.5C4.63261 14 4.75979 13.9473 4.85355 13.8536C4.94732 13.7598 5 13.6326 5 13.5ZM9.5 13.5V11.5C9.5 11.3674 9.44732 11.2402 9.35355 11.1464C9.25979 11.0527 9.13261 11 9 11H7C6.86739 11 6.74021 11.0527 6.64645 11.1464C6.55268 11.2402 6.5 11.3674 6.5 11.5V13.5C6.5 13.6326 6.55268 13.7598 6.64645 13.8536C6.74021 13.9473 6.86739 14 7 14H9C9.13261 14 9.25979 13.9473 9.35355 13.8536C9.44732 13.7598 9.5 13.6326 9.5 13.5ZM14 13.5V11.5C14 11.3674 13.9473 11.2402 13.8536 11.1464C13.7598 11.0527 13.6326 11 13.5 11H11.5C11.3674 11 11.2402 11.0527 11.1464 11.1464C11.0527 11.2402 11 11.3674 11 11.5V13.5C11 13.6326 11.0527 13.7598 11.1464 13.8536C11.2402 13.9473 11.3674 14 11.5 14H13.5C13.6326 14 13.7598 13.9473 13.8536 13.8536C13.9473 13.7598 14 13.6326 14 13.5Z" fill="#0D2B49"/>
</svg>
