<svg width="16" height="16" viewBox="0 0 16 16" fill="none" xmlns="http://www.w3.org/2000/svg">
<path fill-rule="evenodd" clip-rule="evenodd" d="M12 9C11.2044 9 10.4413 9.31607 9.87869 9.87868C9.31608 10.4413 9.00001 11.2044 9.00001 12C9.00001 12.7956 9.31608 13.5587 9.87869 14.1213C10.4413 14.6839 11.2044 15 12 15C12.7957 15 13.5587 14.6839 14.1213 14.1213C14.6839 13.5587 15 12.7956 15 12C15 11.2044 14.6839 10.4413 14.1213 9.87868C13.5587 9.31607 12.7957 9 12 9ZM11.5712 10.68C11.4874 10.7929 11.455 10.9386 11.4538 11.0289L10.7039 11.0194C10.7066 10.8069 10.7719 10.4985 10.9688 10.2331C11.1791 9.9496 11.5221 9.741 12.01 9.741C12.4981 9.741 12.8404 9.94995 13.0487 10.2356C13.2432 10.5024 13.3046 10.8118 13.3046 11.0241V11.0315L13.3043 11.0388C13.2936 11.3129 13.1384 11.9017 12.5802 12.2367C12.4422 12.3329 12.4072 12.4046 12.3966 12.4327C12.3847 12.4644 12.3847 12.4826 12.3849 12.5386L12.385 12.5648H11.635L11.6348 12.5503C11.6335 12.4938 11.6302 12.3394 11.6949 12.168C11.7692 11.971 11.9169 11.7813 12.1665 11.611L12.177 11.6038L12.188 11.5973C12.4602 11.4376 12.547 11.1363 12.5545 11.0164C12.5529 10.9257 12.5218 10.7859 12.4427 10.6775C12.3751 10.5848 12.2576 10.491 12.01 10.491C11.7621 10.491 11.6415 10.5851 11.5712 10.68ZM12.5102 13.6515C12.5102 13.9283 12.2858 14.1527 12.0091 14.1527C11.7323 14.1527 11.5079 13.9283 11.5079 13.6515C11.5079 13.3748 11.7323 13.1504 12.0091 13.1504C12.2858 13.1504 12.5102 13.3748 12.5102 13.6515Z" fill="#0D2B49"/>
<path d="M5.47491 4.03898L7.84758 6.41165C8.54107 5.84774 9.36784 5.37023 10.3359 5.08429C10.8523 4.10849 11.4071 2.12622 9.49571 2.0035C8.44861 1.93627 6.8947 2.8045 5.47491 4.03898Z" fill="#0D2B49"/>
<path d="M10.1654 8.72943C10.7209 8.41783 11.3518 8.25 12 8.25C12.4184 8.25 12.8296 8.31993 13.218 8.4533C15.0891 4.85363 13.184 2.20146 11.2667 2.01034C12.2771 4.01461 10.7642 6.4883 9.42728 7.99135L10.1654 8.72943Z" fill="#0D2B49"/>
<path d="M8.43 13.1479C4.63831 15.1222 2.33355 13.1236 2.07145 11.5654C2.84347 11.9768 5.05019 12.058 8.00323 9.39625L6.45633 7.84935C5.73784 8.78194 5.29349 9.72275 5.09793 10.3383C4.05646 10.9647 1.98402 11.6524 2.02603 9.39231C2.04745 8.23997 2.89663 6.77287 4.05689 5.44991L2.14919 3.54221C1.95393 3.34695 1.95393 3.03037 2.14919 2.83511C2.34446 2.63984 2.66104 2.63984 2.8563 2.83511L9.35923 9.33752C9.3556 9.34112 9.35198 9.34473 9.34836 9.34835C8.6451 10.0516 8.25001 11.0054 8.25001 12C8.25001 12.3933 8.3118 12.7803 8.43 13.1479Z" fill="#0D2B49"/>
</svg>
