<svg width="16" height="16" viewBox="0 0 16 16" fill="none" xmlns="http://www.w3.org/2000/svg">
<path d="M8 1.50235C6.71442 1.50235 5.45772 1.88357 4.3888 2.5978C3.31988 3.31203 2.48676 4.32719 1.99479 5.51491C1.50282 6.70263 1.37409 8.00956 1.6249 9.27044C1.8757 10.5313 2.49477 11.6895 3.40381 12.5985C4.31285 13.5076 5.47104 14.1266 6.73192 14.3775C7.99279 14.6283 9.29973 14.4995 10.4874 14.0076C11.6752 13.5156 12.6903 12.6825 13.4046 11.6136C14.1188 10.5446 14.5 9.28793 14.5 8.00235C14.5 7.14875 14.3319 6.3035 14.0053 5.51487C13.6786 4.72623 13.1999 4.00966 12.5963 3.40608C11.9927 2.80249 11.2761 2.3237 10.4875 1.99706C9.69885 1.67042 8.85361 1.50231 8 1.50235ZM8 13.5023C6.54139 13.5014 5.14259 12.9224 4.11 11.8922L8 8.00235V2.50235C9.45869 2.50235 10.8576 3.08181 11.8891 4.11326C12.9205 5.14471 13.5 6.54366 13.5 8.00235C13.5 9.46104 12.9205 10.86 11.8891 11.8914C10.8576 12.9229 9.45869 13.5023 8 13.5023Z" fill="#0D2B49"/>
</svg>
