<svg width="16" height="16" viewBox="0 0 16 16" fill="none" xmlns="http://www.w3.org/2000/svg">
<path fill-rule="evenodd" clip-rule="evenodd" d="M12 5.5H11V4.5C11 3.67 10.66 2.92 10.12 2.38C9.58 1.84 8.83 1.5 8 1.5C6.34 1.5 5 2.84 5 4.5V5.5H4C3.45 5.5 3 5.95 3 6.5V13.5C3 14.05 3.45 14.5 4 14.5H12C12.55 14.5 13 14.05 13 13.5V6.5C13 5.95 12.55 5.5 12 5.5ZM8.5 10.36V11.5C8.5 11.78 8.28 12 8 12C7.72 12 7.5 11.78 7.5 11.5V10.36C7.2 10.19 7 9.87 7 9.5C7 8.95 7.45 8.5 8 8.5C8.55 8.5 9 8.95 9 9.5C9 9.87 8.8 10.19 8.5 10.36ZM10 5.5H6V4.5C6 3.4 6.9 2.5 8 2.5C9.1 2.5 10 3.4 10 4.5V5.5Z" fill="#0D2B49"/>
</svg>
