<svg width="16" height="16" viewBox="0 0 16 16" fill="none" xmlns="http://www.w3.org/2000/svg">
<path d="M14.5 12V12.5C14.5 12.68 14.45 12.85 14.36 13H1.64C1.54858 12.8492 1.50016 12.6763 1.5 12.5V12L4.8 8.71L6.94 10.85C7.22 11.14 7.6 11.29 8 11.29C8.4 11.29 8.78 11.14 9.06 10.85L11.21 8.71L14.5 12ZM1.5 5.41V10.59L4.09 8L1.5 5.41ZM14.36 3H1.64C1.55 3.15 1.5 3.32 1.5 3.5V4L7.65 10.15C7.84 10.34 8.16 10.34 8.35 10.15L10.5 8L11.21 7.3L14.5 4V3.5C14.5 3.32 14.45 3.15 14.36 3ZM11.91 8L14.5 10.59V5.41L11.91 8Z" fill="#0D2B49"/>
</svg>
