<svg width="16" height="16" viewBox="0 0 16 16" fill="none" xmlns="http://www.w3.org/2000/svg">
<path d="M10.398 5.087C9.306 5.415 8.156 6.109 7.141 7.121C6.135 8.123 5.43 9.27 5.11 10.358C3.901 10.937 2.867 11.023 2.345 10.503C1.398 9.559 2.461 6.967 4.723 4.712C6.985 2.457 9.575 1.397 10.533 2.351C11.054 2.871 10.968 3.893 10.398 5.087ZM13.037 2.919C12.5904 2.47791 12.0208 2.18229 11.403 2.071C12.409 3.748 10.901 6.649 8.716 8.817C6.87 10.667 4.753 11.814 3.206 11.814C2.733 11.814 2.356 11.708 2.066 11.554C2.211 12.132 2.491 12.642 2.897 13.047C4.695 14.839 8.427 14.03 11.229 11.235C14.033 8.441 14.845 4.721 13.037 2.919Z" fill="#0D2B49"/>
</svg>
