<svg width="16" height="16" viewBox="0 0 16 16" fill="none" xmlns="http://www.w3.org/2000/svg">
<path d="M7.563 13.5H1.5L2.719 10.452C2.817 10.206 3.055 10.045 3.32 10.045H5.743C6.007 10.045 6.245 10.206 6.344 10.452L7.563 13.5Z" fill="#0D2B49"/>
<path d="M14.5 13.5H8.437L9.656 10.452C9.754 10.206 9.992 10.045 10.257 10.045H12.68C12.944 10.045 13.182 10.206 13.281 10.452L14.5 13.5Z" fill="#0D2B49"/>
<path d="M11.224 9.042H5.162L6.381 5.994C6.479 5.748 6.717 5.587 6.982 5.587H9.405C9.669 5.587 9.907 5.748 10.006 5.994L11.224 9.042Z" fill="#0D2B49"/>
<path d="M8.193 4.588C7.917 4.588 7.693 4.364 7.693 4.088V2.974C7.693 2.698 7.917 2.474 8.193 2.474C8.469 2.474 8.693 2.698 8.693 2.974V4.088C8.693 4.364 8.47 4.588 8.193 4.588Z" fill="#0D2B49"/>
<path d="M10.74 5.051C10.612 5.051 10.484 5.002 10.386 4.905C10.191 4.71 10.191 4.393 10.386 4.198L11.174 3.41C11.369 3.215 11.686 3.215 11.881 3.41C12.076 3.605 12.076 3.922 11.881 4.117L11.093 4.905C10.996 5.002 10.868 5.051 10.74 5.051Z" fill="#0D2B49"/>
<path d="M5.452 5.242C5.324 5.242 5.196 5.193 5.098 5.096L4.311 4.308C4.116 4.113 4.116 3.796 4.311 3.601C4.506 3.406 4.823 3.406 5.018 3.601L5.806 4.389C6.001 4.584 6.001 4.901 5.806 5.096C5.708 5.193 5.58 5.242 5.452 5.242Z" fill="#0D2B49"/>
</svg>
