<svg width="16" height="16" viewBox="0 0 16 16" fill="none" xmlns="http://www.w3.org/2000/svg">
<path d="M14.51 3.5C14.51 2.95 14.06 2.5 13.51 2.5H2.51001C1.96001 2.5 1.51001 2.95 1.51001 3.5V6H4.51001C5.06001 6 5.56001 6.22 5.92001 6.59C6.39001 7.05 6.62001 7.74 6.46001 8.47C6.25001 9.39 5.36001 9.99999 4.42001 9.99999H1.51001V12.5C1.51001 13.05 1.96001 13.5 2.51001 13.5H10.18C10.18 13.4537 10.1774 13.4073 10.1748 13.3624C10.1724 13.32 10.17 13.2788 10.17 13.24V12.49H10.32L10.36 12.16L10.79 8.9L10.87 8.25H14.51V3.5Z" fill="#0D2B49"/>
<path fill-rule="evenodd" clip-rule="evenodd" d="M1.76001 9H4.51001C5.06001 9 5.51001 8.55 5.51001 8C5.51001 7.73 5.41001 7.49 5.22001 7.31C5.02001 7.1 4.78001 7 4.51001 7H1.76001C1.63001 7 1.51001 7.11 1.51001 7.25V8.75C1.51001 8.89 1.62001 9 1.76001 9ZM3.10001 7.5C3.38001 7.5 3.60001 7.72 3.60001 8C3.60001 8.28 3.38001 8.5 3.10001 8.5C2.82001 8.5 2.60001 8.28 2.60001 8C2.60001 7.72 2.82001 7.5 3.10001 7.5Z" fill="#0D2B49"/>
<path d="M14.45 11.45C14.48 11.47 14.5 11.5 14.51 11.52C14.84 11.84 15 12.29 15 12.89C15 13.42 14.82 13.93 14.49 14.34C14.12 14.77 13.61 15 12.92 15H12.83C12.35 15 11.9 14.84 11.53 14.55C11.35 14.38 11.18 14.18 11.08 13.95C11.01 13.81 10.97 13.65 10.94 13.5C10.9391 13.4917 10.9382 13.4836 10.9373 13.4755C10.9283 13.3952 10.92 13.3217 10.92 13.24H12.08C12.09 13.33 12.11 13.42 12.15 13.5C12.19 13.62 12.26 13.73 12.33 13.83C12.49 13.98 12.67 14.04 12.92 14.04C13.18 14.04 13.41 13.93 13.57 13.75C13.62 13.67 13.67 13.58 13.7 13.48C13.76 13.32 13.8 13.14 13.8 12.98C13.8 12.71 13.74 12.42 13.59 12.2C13.43 12 13.23 11.91 12.92 11.91C12.8 11.91 12.67 11.91 12.57 11.96C12.47 11.98 12.39 12.04 12.33 12.1C12.25 12.16 12.18 12.22 12.14 12.3L11.1 12.26L11.53 9H14.78V9.99999H12.35L12.14 11.28C12.1587 11.2682 12.1768 11.2567 12.1942 11.2457C12.3537 11.1446 12.4619 11.0761 12.57 11.04C12.78 10.98 12.98 10.96 13.18 10.96C13.67 10.96 14.08 11.12 14.45 11.45Z" fill="#0D2B49"/>
</svg>
