<svg width="16" height="16" viewBox="0 0 16 16" fill="none" xmlns="http://www.w3.org/2000/svg">
<path d="M14 7.5C14 10.28 11.308 12.49 8 12.49C7.489 12.49 6.988 12.44 6.508 12.33C6.16324 12.6989 5.74643 12.993 5.28338 13.1943C4.82033 13.3955 4.32089 13.4996 3.816 13.5H3.356L3.617 13.13C3.993 12.61 4.17 12.16 4.275 11.83C4.337 11.57 4.337 11.48 4.337 11.43C2.93 10.52 2 9.11 2 7.5C2 4.72 4.692 2.5 8 2.5C11.308 2.5 14 4.72 14 7.5ZM9.29 5.12C8.93 4.86 8.48 4.73 7.93 4.73C7.52 4.73 7.17 4.82 6.88 5C6.43 5.29 6.19 5.78 6.16 6.47H7.21C7.21 6.27 7.27 6.07 7.39 5.89C7.5 5.7 7.7 5.61 7.98 5.61C8.26 5.61 8.46 5.68 8.57 5.84C8.67 5.99 8.73 6.15 8.73 6.34C8.73 6.5 8.68 6.64 8.58 6.78C8.53 6.85 8.46 6.92 8.37 6.99L8.11 7.2C7.85 7.4 7.69 7.58 7.63 7.73C7.56 7.89 7.53 8.17 7.51 8.58H8.49C8.5 8.39 8.51 8.24 8.54 8.15C8.58 8.01 8.68 7.88 8.82 7.77L9.07 7.57C9.33 7.37 9.51 7.2 9.6 7.07C9.76 6.86 9.84 6.59 9.84 6.28C9.84 5.77 9.66 5.38 9.29 5.12ZM7.49 9.07V10.12H8.57V9.07H7.49Z" fill="#0D2B49"/>
</svg>
