<svg width="16" height="16" viewBox="0 0 16 16" fill="none" xmlns="http://www.w3.org/2000/svg">
<path d="M11.602 6.878L11.612 12.998L3.00201 13.008L2.99201 4.398H9.12201L10.122 3.398H2.99201C2.44201 3.398 2.00201 3.838 2.00201 4.388V13.008C2.00201 13.558 2.44201 13.998 2.99201 13.998H11.612C12.162 13.998 12.602 13.558 12.602 13.008V5.878L11.602 6.878Z" fill="#0D2B49"/>
<path d="M7.55201 9.478L7.41201 9.508L6.19201 9.778L6.46201 8.558L6.49201 8.418L7.55201 9.478Z" fill="#0D2B49"/>
<path d="M13.892 3.028C13.862 3.148 13.802 3.258 13.702 3.358L8.19201 8.868L7.13201 7.808L12.642 2.298C12.732 2.208 12.842 2.148 12.952 2.108C13.022 2.088 13.092 2.078 13.162 2.078C13.362 2.078 13.552 2.148 13.702 2.298C13.902 2.498 13.972 2.778 13.892 3.028Z" fill="#0D2B49"/>
</svg>
