<svg width="16" height="16" viewBox="0 0 16 16" fill="none" xmlns="http://www.w3.org/2000/svg">
<path fill-rule="evenodd" clip-rule="evenodd" d="M3.75951 3.75751L3.75609 3.76111L2.85743 2.86245C2.66217 2.66719 2.34558 2.66719 2.15032 2.86245C1.95506 3.05771 1.95506 3.37429 2.15032 3.56956L5.96958 7.38881V13.6875C5.96958 14.1425 6.32708 14.5 6.78208 14.5C7.23708 14.5 7.59458 14.1425 7.59458 13.6875V10.4375H8.40708V13.6875C8.40708 14.1425 8.76458 14.5 9.21958 14.5C9.67458 14.5 10.0321 14.1425 10.0321 13.6875V11.4513L12.6452 14.0645C12.8405 14.2597 13.1571 14.2597 13.3523 14.0645C13.5476 13.8692 13.5476 13.5526 13.3523 13.3574L10.0321 10.0371V10.0301L3.75951 3.75751ZM10.0321 8.61587V7.09L12.2258 4.89625C12.3883 4.73375 12.4696 4.5225 12.4696 4.31125C12.4696 4.1 12.3883 3.905 12.2258 3.7425C11.9171 3.4175 11.3971 3.4175 11.0883 3.7425L10.0158 4.75C9.54296 5.35125 8.81171 5.725 7.99921 5.725C7.57125 5.725 7.0306 5.45451 6.61468 5.19847L10.0321 8.61587ZM9.14988 4.27405C9.45463 3.9693 9.62583 3.55598 9.62583 3.125C9.62583 2.69402 9.45463 2.2807 9.14988 1.97595C8.84513 1.67121 8.43181 1.5 8.00083 1.5C7.56986 1.5 7.15653 1.67121 6.85178 1.97595C6.54704 2.2807 6.37583 2.69402 6.37583 3.125C6.37583 3.55598 6.54704 3.9693 6.85178 4.27405C7.15653 4.57879 7.56986 4.75 8.00083 4.75C8.43181 4.75 8.84513 4.57879 9.14988 4.27405Z" fill="#0D2B49"/>
</svg>
