<svg width="16" height="16" viewBox="0 0 16 16" fill="none" xmlns="http://www.w3.org/2000/svg">
<path d="M14.51 4.76098V10.031C14.27 9.51098 13.89 9.07098 13.41 8.76098C12.93 8.44098 12.35 8.25098 11.73 8.25098C10.04 8.25098 8.66001 9.63098 8.66001 11.331C8.66001 11.721 8.73001 12.091 8.86001 12.441L8.87001 12.451C9.02001 12.851 9.26001 13.211 9.56001 13.501H2.51001C1.96001 13.501 1.51001 13.071 1.51001 12.531V3.47098C1.51001 2.93098 1.96001 2.50098 2.51001 2.50098H4.84001C5.16001 2.50098 5.45001 2.64098 5.64001 2.89098L6.04001 3.40098C6.23001 3.65098 6.53001 3.79098 6.84001 3.79098H13.51C14.06 3.79098 14.51 4.22098 14.51 4.76098Z" fill="#0D2B49"/>
<path d="M11.945 11.328L12.325 11.698L12.445 11.818C12.495 11.878 12.495 11.968 12.445 12.028C12.415 12.058 12.375 12.078 12.335 12.078C12.295 12.078 12.255 12.058 12.225 12.028L11.735 11.538L11.355 11.908L11.235 12.028C11.205 12.058 11.165 12.078 11.135 12.078C11.095 12.078 11.055 12.058 11.025 12.028C10.965 11.968 10.965 11.878 11.025 11.818L11.515 11.328L11.145 10.948L11.025 10.828C11.02 10.818 11.0125 10.8105 11.005 10.803C10.9975 10.7955 10.99 10.788 10.985 10.778C10.965 10.728 10.975 10.668 11.025 10.618C11.065 10.578 11.125 10.568 11.175 10.578H11.185C11.195 10.583 11.2025 10.5905 11.21 10.598C11.2175 10.6055 11.225 10.613 11.235 10.618L11.355 10.738L11.735 11.108L12.225 10.618C12.235 10.608 12.255 10.588 12.275 10.578H12.285C12.335 10.568 12.405 10.578 12.445 10.618C12.485 10.668 12.495 10.728 12.475 10.778C12.475 10.7901 12.4677 10.7985 12.4597 10.8078C12.4545 10.8138 12.449 10.8201 12.445 10.828L11.945 11.328Z" fill="#0D2B49"/>
<path fill-rule="evenodd" clip-rule="evenodd" d="M14.1399 13.421L13.5399 12.761C13.8499 12.371 14.0499 11.871 14.0499 11.331C14.0499 10.041 13.0099 9.00098 11.7299 9.00098C10.4399 9.00098 9.40991 10.041 9.40991 11.331C9.40991 12.421 10.1599 13.331 11.1799 13.581C11.3599 13.631 11.5399 13.651 11.7299 13.651C11.9099 13.651 12.0799 13.631 12.2499 13.581C12.4499 13.531 12.6399 13.461 12.8099 13.361L13.0099 13.581L14.3099 15.001L14.9999 14.371L14.1399 13.421ZM11.7299 12.701C10.9699 12.701 10.3599 12.091 10.3599 11.331C10.3599 10.561 10.9699 9.95098 11.7299 9.95098C12.4799 9.95098 13.0999 10.561 13.0999 11.331C13.0999 12.091 12.4799 12.701 11.7299 12.701Z" fill="#0D2B49"/>
</svg>
