<svg width="16" height="16" viewBox="0 0 16 16" fill="none" xmlns="http://www.w3.org/2000/svg">
<path d="M14.5 12.23C14.5 12.38 14.37 12.5 14.22 12.5H9.50001V10.2C9.66001 10.24 9.83001 10.25 10 10.25C10.2 10.25 10.4 10.23 10.58 10.19C11.02 10.12 11.41 9.95 11.66 9.73C11.72 9.67 11.82 9.64 11.92 9.67C12.24 9.73 12.57 9.73 12.88 9.86C13.21 9.99 13.51 10.18 13.76 10.42C14.23 10.89 14.51 11.53 14.5 12.23ZM13.25 8.3L12.52 6.61V6.6C12.52 5.16 11.72 3.97 10.63 3.62V3.61C10.43 3.54 10.22 3.51 10 3.51C9.83001 3.51 9.66001 3.53 9.50001 3.58V9.64C9.66001 9.68 9.82001 9.7 9.98001 9.7H10.02C10.23 9.7 10.43 9.67 10.63 9.61V9.6C10.85 9.52 11.07 9.41 11.27 9.27L13.07 8.67C13.23 8.62 13.32 8.44 13.25 8.3ZM6.45001 3.54C6.44001 3.53 6.42001 3.53 6.40001 3.53C6.34001 3.53 6.29001 3.52 6.23001 3.51C6.20001 3.51 6.16001 3.5 6.14001 3.51C6.10001 3.5 6.08001 3.5 6.05001 3.5H6.00001C5.96001 3.5 5.91001 3.51 5.86001 3.51H5.76001C5.7074 3.52155 5.65385 3.52824 5.60001 3.53C5.57001 3.53 5.55001 3.53 5.55001 3.54C5.51001 3.55 5.48001 3.56 5.44001 3.56C4.23001 3.8 3.33001 4.8 3.33001 6.03C3.33001 6.27 3.36001 6.5 3.43001 6.72C3.46001 6.79 3.43001 6.91 3.45001 6.99L3.48001 7.27C3.52001 7.44 3.56001 7.62 3.62001 7.79C3.73001 8.11 3.89001 8.42 4.10001 8.69C4.56001 9.28 5.31001 9.71 6.08001 9.68C6.22001 9.67 6.36001 9.65 6.50001 9.61V3.55C6.48001 3.55 6.47001 3.54 6.45001 3.54ZM6.47001 10.23C6.42001 10.24 6.36001 10.24 6.31001 10.24C6.00001 10.26 5.68001 10.25 5.38001 10.19C4.95001 10.11 4.59001 9.95 4.35001 9.74C4.27001 9.67 4.18001 9.65 4.09001 9.67C3.76001 9.74 3.43001 9.74 3.13001 9.86C2.80001 9.98 2.49001 10.18 2.24001 10.44C2.00005 10.6713 1.81046 10.9497 1.68312 11.2577C1.55578 11.5658 1.49344 11.8968 1.50001 12.23C1.50001 12.38 1.63001 12.5 1.78001 12.5H6.50001V10.23H6.47001ZM8.50001 2.5H7.50001V13.5H8.50001V2.5Z" fill="#0D2B49"/>
</svg>
