<svg width="16" height="16" viewBox="0 0 16 16" fill="none" xmlns="http://www.w3.org/2000/svg">
<path fill-rule="evenodd" clip-rule="evenodd" d="M10.5 3.99999V13.5C10.5 13.78 10.28 14 10 14H2.5C2.22 14 2 13.78 2 13.5V3.99999C2 3.71999 2.22 3.49999 2.5 3.49999H3.5V5.49999H9V3.49999H10C10.28 3.49999 10.5 3.71999 10.5 3.99999ZM7.47 2.99999C7.41275 2.71866 7.26004 2.46575 7.03771 2.28411C6.81538 2.10246 6.5371 2.00323 6.25 2.00323C5.9629 2.00323 5.68462 2.10246 5.46229 2.28411C5.23996 2.46575 5.08725 2.71866 5.03 2.99999H4V4.99999H8.5V2.99999H7.47ZM14 3.99999C14 3.73477 13.8946 3.48042 13.7071 3.29288C13.5196 3.10535 13.2652 2.99999 13 2.99999C12.7348 2.99999 12.4804 3.10535 12.2929 3.29288C12.1054 3.48042 12 3.73477 12 3.99999V12.5L13 14L14 12.5V3.99999Z" fill="#0D2B49"/>
</svg>
