<svg width="16" height="16" viewBox="0 0 16 16" fill="none" xmlns="http://www.w3.org/2000/svg">
<path fill-rule="evenodd" clip-rule="evenodd" d="M13 12H9.41C9.47 12.16 9.5 12.33 9.5 12.5C9.5 13.33 8.83 14 8 14C7.17 14 6.5 13.33 6.5 12.5C6.5 12.33 6.54 12.16 6.59 12H3V11H13V12ZM12.21 9.43C12.0759 9.14866 12.0042 8.84164 12 8.53V7C11.9988 6.1124 11.7023 5.25042 11.1574 4.54979C10.6125 3.84916 9.84999 3.34968 8.99 3.13C9 3.09 9 3.05 9 3C9 2.45 8.56 2 8 2C7.85798 2.0007 7.71772 2.03155 7.58851 2.09051C7.45931 2.14948 7.3441 2.23521 7.2505 2.34204C7.15691 2.44886 7.08708 2.57435 7.04562 2.71018C7.00415 2.84602 6.99202 2.98912 7.01 3.13C6.3 3.3 5.67 3.67 5.17 4.17C4.45 4.9 4 5.9 4 7V8.53C4 8.84 3.93 9.15 3.79 9.43L3.5 10H12.5L12.21 9.43Z" fill="#0D2B49"/>
</svg>
