<svg width="16" height="16" viewBox="0 0 16 16" fill="none" xmlns="http://www.w3.org/2000/svg">
<path d="M14 3.75001C14 3.86701 13.988 3.97201 13.965 4.07701C13.8834 4.50434 13.6455 4.88589 13.2976 5.1471C12.9497 5.40831 12.5169 5.53041 12.0838 5.48954C11.6507 5.44867 11.2483 5.24776 10.9555 4.92607C10.6626 4.60439 10.5002 4.18505 10.5 3.75001C10.5 3.54001 10.535 3.35301 10.605 3.16701C10.743 2.77895 11.0135 2.45207 11.369 2.24401C11.7244 2.03596 12.1419 1.96009 12.5478 2.0298C12.9538 2.0995 13.322 2.3103 13.5877 2.62502C13.8534 2.93973 13.9994 3.33815 14 3.75001ZM12.25 6.50001C10.73 6.50001 9.5 5.27001 9.5 3.75001C9.5 3.49001 9.54 3.24001 9.62 3.00001H3C2.45 3.00001 2 3.45001 2 4.00001V13C2 13.55 2.45 14 3 14H12C12.55 14 13 13.55 13 13V6.39001C12.76 6.46001 12.51 6.50001 12.25 6.50001Z" fill="#0D2B49"/>
</svg>
