<svg width="16" height="16" viewBox="0 0 16 16" fill="none" xmlns="http://www.w3.org/2000/svg">
<path d="M13 7.00002H14V13C13.9992 13.265 13.8936 13.5189 13.7062 13.7063C13.5189 13.8936 13.265 13.9992 13 14H3C2.73495 13.9995 2.4809 13.894 2.29348 13.7065C2.10606 13.5191 2.00053 13.2651 2 13V3.00002C2.00079 2.73505 2.1064 2.48115 2.29377 2.29379C2.48113 2.10642 2.73503 2.00081 3 2.00002H9V3.00002H3V13H13V7.00002ZM13.75 2.00002H10V3.00002H12.25L7.63 7.63002L8.34 8.34002L13 3.67002V6.00002H14V2.25002C14.0004 2.21708 13.9942 2.18439 13.9818 2.15387C13.9694 2.12336 13.951 2.09564 13.9277 2.07234C13.9044 2.04905 13.8767 2.03065 13.8461 2.01823C13.8156 2.00581 13.7829 1.99962 13.75 2.00002Z" fill="#0D2B49"/>
</svg>
