<svg width="16" height="16" viewBox="0 0 16 16" fill="none" xmlns="http://www.w3.org/2000/svg">
<path d="M2.462 13C2.40185 13.0005 2.34219 12.9892 2.28642 12.9667C2.23065 12.9442 2.17987 12.9109 2.13697 12.8687C2.09407 12.8265 2.05989 12.7763 2.03639 12.721C2.01289 12.6656 2.00052 12.6062 2 12.546C2 11.816 2.224 5.52401 9.846 5.28001V3.45501C9.846 3.27101 9.959 3.10501 10.131 3.03501C10.2152 3.00041 10.3078 2.99124 10.3972 3.00866C10.4866 3.02608 10.5689 3.06931 10.634 3.13301L13.864 6.31501C13.9068 6.35691 13.9408 6.40693 13.964 6.46214C13.9872 6.51734 13.9991 6.57663 13.9991 6.63651C13.9991 6.6964 13.9872 6.75568 13.964 6.81088C13.9408 6.86609 13.9068 6.91611 13.864 6.95801L10.634 10.14C10.5688 10.2036 10.4865 10.2468 10.3971 10.2642C10.3078 10.2816 10.2153 10.2725 10.131 10.238C10.0471 10.2042 9.97525 10.1462 9.92449 10.0714C9.87373 9.99664 9.84641 9.90841 9.846 9.81801V8.00601C7.022 8.08401 4.94 8.88101 3.808 10.324C2.933 11.438 2.923 12.534 2.923 12.546C2.92194 12.6673 2.87281 12.7832 2.78639 12.8683C2.69996 12.9535 2.5833 13.0008 2.462 13Z" fill="#0D2B49"/>
</svg>
