<svg width="16" height="16" viewBox="0 0 16 16" fill="none" xmlns="http://www.w3.org/2000/svg">
<path d="M12.875 1.99597C8.065 2.17597 8.005 6.65597 8.005 6.86597C8.005 6.87597 8.005 6.87597 8.005 6.87597C12.875 6.57597 12.875 1.99597 12.875 1.99597Z" fill="#0D2B49"/>
<path d="M7.015 6.74597C7.025 6.41597 7.105 5.56597 7.465 4.61597C6.885 3.38597 5.675 2.08597 3.125 1.99597C3.125 1.99597 3.125 5.93597 7.015 6.74597Z" fill="#0D2B49"/>
<path d="M13.574 9.80997C13.574 9.80997 13.053 9.81397 12.574 9.42597C12.095 9.03797 11.337 9.17697 11.337 9.17697C11.337 9.17697 11.022 9.26197 10.664 9.56497C10.306 9.86797 9.761 9.83497 9.476 9.74097C9.299 9.68197 9.088 9.53497 8.846 9.34097C8.604 9.14697 8 9.15297 8 9.15297C8 9.15297 7.628 9.10097 7.143 9.48097C6.658 9.86197 6.125 9.77697 6.125 9.77697C6.125 9.77697 5.779 9.74697 5.289 9.38897C4.797 9.03197 4.203 9.14997 4.203 9.14997C4.203 9.14997 3.864 9.19997 3.53 9.46997C3.196 9.73997 2.882 9.78797 2.366 9.80997H2V12.977C2 13.542 2.458 14 3.023 14H12.978C13.542 14 14 13.542 14 12.977V9.80997H13.574Z" fill="#0D2B49"/>
<path d="M8.5 7.46697H7.5V8.56997H8.5V7.46697Z" fill="#0D2B49"/>
</svg>
