<svg width="16" height="16" viewBox="0 0 16 16" fill="none" xmlns="http://www.w3.org/2000/svg">
<path d="M10.5 10.501C10.5 9.26098 11.51 8.25098 12.75 8.25098C13.46 8.25098 14.1 8.58098 14.51 9.10098V3.50098C14.51 2.95098 14.06 2.50098 13.51 2.50098H2.51001C1.96001 2.50098 1.51001 2.95098 1.51001 3.50098V6.00098H4.51001C5.06001 6.00098 5.56001 6.22098 5.92001 6.59098C6.39001 7.05098 6.62001 7.74098 6.46001 8.47098C6.25001 9.39098 5.36001 10.001 4.42001 10.001H1.51001V12.501C1.51001 13.051 1.96001 13.501 2.51001 13.501H9.75001V11.591C9.75001 11.101 10.06 10.691 10.5 10.551V10.501Z" fill="#0D2B49"/>
<path fill-rule="evenodd" clip-rule="evenodd" d="M1.76001 9.00092H4.51001C5.06001 9.00092 5.51001 8.55092 5.51001 8.00092C5.51001 7.73092 5.41001 7.49092 5.22001 7.31092C5.02001 7.10092 4.78001 7.00092 4.51001 7.00092H1.76001C1.63001 7.00092 1.51001 7.11092 1.51001 7.25092V8.75092C1.51001 8.89092 1.62001 9.00092 1.76001 9.00092ZM3.10001 7.50092C3.38001 7.50092 3.60001 7.72092 3.60001 8.00092C3.60001 8.28092 3.38001 8.50092 3.10001 8.50092C2.82001 8.50092 2.60001 8.28092 2.60001 8.00092C2.60001 7.72092 2.82001 7.50092 3.10001 7.50092Z" fill="#0D2B49"/>
<path fill-rule="evenodd" clip-rule="evenodd" d="M14.25 11.2509H14.66C14.85 11.2509 15 11.4009 15 11.5909V14.6509C15 14.8509 14.85 15.0009 14.66 15.0009H10.85C10.65 15.0009 10.5 14.8509 10.5 14.6509V11.5909C10.5 11.4009 10.65 11.2509 10.85 11.2509H11.25V10.5009C11.25 9.67092 11.93 9.00092 12.75 9.00092C13.58 9.00092 14.25 9.67092 14.25 10.5009V11.2509ZM13.12 13.9409V13.5209C13.34 13.4009 13.49 13.1609 13.49 12.8909C13.49 12.4809 13.16 12.1509 12.75 12.1509C12.34 12.1509 12.01 12.4809 12.01 12.8909C12.01 13.1609 12.15 13.3909 12.37 13.5209V13.9409C12.37 14.1509 12.54 14.3209 12.75 14.3209C12.96 14.3209 13.12 14.1509 13.12 13.9409ZM12 10.5009V11.2509H13.5V10.5009C13.5 10.0809 13.17 9.75092 12.75 9.75092C12.33 9.75092 12 10.0809 12 10.5009Z" fill="#0D2B49"/>
</svg>
