<svg width="16" height="16" viewBox="0 0 16 16" fill="none" xmlns="http://www.w3.org/2000/svg">
<path fill-rule="evenodd" clip-rule="evenodd" d="M7.93891 4.30634C7.19878 4.31355 6.47733 4.53961 5.86543 4.95605C5.25353 5.37249 4.77854 5.96069 4.50029 6.64656C4.22204 7.33244 4.15297 8.08531 4.30179 8.81036C4.4506 9.53542 4.81064 10.2002 5.33656 10.721C5.86248 11.2419 6.53076 11.5954 7.25722 11.7372C7.98369 11.8789 8.73586 11.8025 9.41899 11.5176C10.1021 11.2327 10.6857 10.752 11.0961 10.1361C11.5066 9.52013 11.7256 8.79651 11.7256 8.05634C11.7199 7.05717 11.318 6.10108 10.608 5.398C9.89805 4.69491 8.93809 4.30229 7.93891 4.30634ZM8.46275 7.35004L8.35543 7.83753H7.38353C7.37721 7.91879 7.37721 8.00004 7.37721 8.08128C7.37721 8.16879 7.37721 8.25005 7.38353 8.32504H8.29234L8.19134 8.81878H7.49081C7.51724 8.87777 7.54893 8.93425 7.58549 8.98755C7.64343 9.07916 7.72355 9.15468 7.81841 9.20712C7.91328 9.25955 8.01984 9.28722 8.12824 9.28755C8.22815 9.29146 8.32742 9.27001 8.4168 9.2252C8.50619 9.1804 8.58278 9.1137 8.63944 9.03132C8.71561 8.90114 8.77098 8.75985 8.80354 8.61257H9.43466C9.39012 8.96883 9.24075 9.30383 9.0055 9.57504C8.89479 9.69437 8.75973 9.78849 8.60946 9.85104C8.45919 9.91359 8.29723 9.9431 8.13456 9.93756C7.93482 9.94612 7.73604 9.90558 7.5556 9.81949C7.37517 9.73341 7.21858 9.60441 7.09956 9.44378C6.96202 9.25693 6.86332 9.04441 6.80927 8.81878H6.02037L6.12137 8.32504H6.73357C6.72274 8.24008 6.71851 8.1544 6.72093 8.06878C6.72093 7.98756 6.72093 7.91253 6.72725 7.83753H6.02033L6.1213 7.35004H6.79659C6.85464 7.0817 6.97579 6.83105 7.15 6.61885C7.26316 6.4772 7.4074 6.36349 7.57157 6.28654C7.73573 6.20959 7.9154 6.17145 8.09667 6.17509C8.32135 6.16066 8.54567 6.20844 8.74497 6.31319C8.94426 6.41794 9.11083 6.5756 9.22636 6.76884C9.35308 6.96971 9.4249 7.2003 9.43464 7.4376H8.80354C8.77223 7.29974 8.71666 7.16853 8.63944 7.0501C8.5793 6.97107 8.50064 6.90807 8.41038 6.86665C8.32012 6.82523 8.22106 6.80666 8.12193 6.8126C8.00823 6.81292 7.89682 6.84459 7.79995 6.90412C7.70308 6.96365 7.6245 7.04875 7.57286 7.15004C7.53516 7.21363 7.50347 7.28058 7.47821 7.35004H8.46275ZM14.4318 5.55634L13.3615 6.62641C13.3109 6.66989 13.2464 6.69379 13.1797 6.69379C13.113 6.69379 13.0485 6.66989 12.9979 6.62641C12.974 6.60296 12.9549 6.57495 12.9419 6.54403C12.9289 6.51311 12.9222 6.4799 12.9222 6.44636C12.9222 6.41282 12.9289 6.37961 12.9419 6.34869C12.9549 6.31777 12.974 6.28976 12.9979 6.2663L13.6341 5.6363H11.8165L11.7357 5.5163C11.3068 4.89049 10.7297 4.38045 10.056 4.03159C9.38223 3.68273 8.63267 3.50588 7.87404 3.51678C7.11541 3.52768 6.37124 3.72599 5.7078 4.09406C5.04435 4.46213 4.4822 4.98854 4.07141 5.62641C4.04924 5.66282 4.01811 5.69295 3.98101 5.71393C3.9439 5.73492 3.90204 5.74605 3.85941 5.74628C3.81011 5.74236 3.76207 5.72877 3.71803 5.70628C3.66248 5.66909 3.62388 5.61145 3.61064 5.54592C3.59739 5.48039 3.61058 5.41228 3.64733 5.35643C4.09751 4.65755 4.71159 4.0792 5.43618 3.67168C6.16078 3.26416 6.97394 3.03979 7.80499 3.0181C8.63603 2.9964 9.4598 3.17803 10.2047 3.54718C10.9495 3.91634 11.593 4.46186 12.079 5.1363H13.6442L12.9979 4.4963C12.974 4.47386 12.9549 4.44675 12.9419 4.41665C12.9289 4.38655 12.9221 4.3541 12.9221 4.3213C12.9221 4.28851 12.9289 4.25606 12.9419 4.22596C12.9549 4.19586 12.974 4.16875 12.9979 4.1463C13.021 4.1211 13.0491 4.10098 13.0804 4.08722C13.1117 4.07345 13.1455 4.06634 13.1797 4.06634C13.2138 4.06634 13.2477 4.07345 13.279 4.08722C13.3102 4.10098 13.3383 4.1211 13.3614 4.1463L14.4318 5.20624C14.4757 5.25399 14.5 5.31646 14.5 5.38129C14.5 5.44613 14.4757 5.5086 14.4318 5.55634ZM1.56818 10.4438L2.63856 9.37373C2.68913 9.33026 2.75361 9.30635 2.82031 9.30635C2.887 9.30635 2.95149 9.33026 3.00206 9.37373C3.02604 9.39719 3.0451 9.42519 3.05811 9.45611C3.07112 9.48703 3.07782 9.52024 3.07782 9.55378C3.07782 9.58732 3.07112 9.62053 3.05811 9.65145C3.0451 9.68237 3.02604 9.71037 3.00206 9.73382L2.36589 10.3638H4.18349L4.26429 10.4838C4.69324 11.1096 5.27027 11.6197 5.94402 11.9685C6.61776 12.3174 7.36732 12.4942 8.12595 12.4834C8.88457 12.4725 9.62874 12.2741 10.2922 11.9061C10.9556 11.538 11.5178 11.0116 11.9286 10.3737C11.9508 10.3373 11.9819 10.3072 12.019 10.2863C12.0561 10.2653 12.098 10.2542 12.1406 10.2539C12.1899 10.2579 12.2379 10.2715 12.2819 10.2939C12.3375 10.3311 12.3761 10.3888 12.3893 10.4543C12.4026 10.5199 12.3894 10.588 12.3526 10.6438C11.9024 11.3427 11.2884 11.9211 10.5638 12.3286C9.83916 12.7361 9.02599 12.9604 8.19494 12.9821C7.36389 13.0038 6.54013 12.8222 5.79526 12.453C5.0504 12.0838 4.40698 11.5383 3.92096 10.8638H2.35579L3.00206 11.5039C3.02598 11.5264 3.04505 11.5535 3.05809 11.5836C3.07113 11.6137 3.07785 11.6461 3.07785 11.6789C3.07785 11.7117 3.07113 11.7441 3.05809 11.7742C3.04505 11.8043 3.02598 11.8314 3.00206 11.8538C2.97897 11.879 2.95089 11.8992 2.9196 11.913C2.88831 11.9267 2.8545 11.9338 2.82031 11.9338C2.78612 11.9338 2.75231 11.9267 2.72102 11.913C2.68973 11.8992 2.66165 11.879 2.63856 11.8538L1.56818 10.7939C1.52431 10.7462 1.49997 10.6837 1.49997 10.6188C1.49997 10.554 1.52431 10.4915 1.56818 10.4438Z" fill="#0D2B49"/>
</svg>
