<svg width="16" height="16" viewBox="0 0 16 16" fill="none" xmlns="http://www.w3.org/2000/svg">
<path d="M12.5 4.5V4.2C12.5 4.14696 12.4789 4.09609 12.4414 4.05858C12.4039 4.02107 12.353 4 12.3 4H9.2C9.14696 4 9.09609 4.02107 9.05858 4.05858C9.02107 4.09609 9 4.14696 9 4.2V4.5H6.5C5.43913 4.5 4.42172 4.92143 3.67157 5.67157C2.92143 6.42172 2.5 7.43913 2.5 8.5V9.5H2.2C2.14696 9.5 2.09609 9.52107 2.05858 9.55858C2.02107 9.59609 2 9.64696 2 9.7V10.3C2 10.41 2.09 10.5 2.2 10.5H6.8C6.85304 10.5 6.90391 10.4789 6.94142 10.4414C6.97893 10.4039 7 10.353 7 10.3V9.7C7 9.64696 6.97893 9.59609 6.94142 9.55858C6.90391 9.52107 6.85304 9.5 6.8 9.5H6.5V8.9C6.5 8.68 6.68 8.5 6.9 8.5H9V8.8C9 8.91 9.09 9 9.2 9H12.3C12.353 9 12.4039 8.97893 12.4414 8.94142C12.4789 8.90391 12.5 8.85304 12.5 8.8V8.5H14V4.5H12.5ZM13 2.5C13.0007 2.56585 12.9882 2.63117 12.9633 2.69213C12.9384 2.75309 12.9016 2.80848 12.855 2.85504C12.8085 2.90161 12.7531 2.93841 12.6921 2.9633C12.6312 2.98819 12.5658 3.00067 12.5 3H9C8.86739 3 8.74021 2.94732 8.64645 2.85355C8.55268 2.75979 8.5 2.63261 8.5 2.5C8.5 2.36739 8.55268 2.24021 8.64645 2.14645C8.74021 2.05268 8.86739 2 9 2H10.05C10.1 1.8541 10.1944 1.72748 10.3199 1.63784C10.4454 1.54819 10.5958 1.5 10.75 1.5C10.9042 1.5 11.0546 1.54819 11.1801 1.63784C11.3056 1.72748 11.4 1.8541 11.45 2H12.5C12.5658 1.99933 12.6312 2.01181 12.6921 2.0367C12.7531 2.06159 12.8085 2.09839 12.855 2.14496C12.9016 2.19152 12.9384 2.24691 12.9633 2.30787C12.9882 2.36883 13.0007 2.43415 13 2.5ZM5.75 13.242C5.75 14.07 5.19 14.5 4.5 14.5C3.81 14.5 3.25 14.07 3.25 13.242C3.25 12.414 4.5 11.5 4.5 11.5C4.5 11.5 5.75 12.413 5.75 13.242Z" fill="#0D2B49"/>
</svg>
