<svg width="16" height="16" viewBox="0 0 16 16" fill="none" xmlns="http://www.w3.org/2000/svg">
<path d="M12.4956 11.2042C12.0585 11.6757 11.5083 12.0624 10.8924 12.3599L10.0425 9.0571L10.4102 7.27167C10.4868 7.35805 10.5378 7.46693 10.5378 7.58973V8.08282H11.5529V7.58973C11.5529 6.774 10.8699 6.11043 10.0302 6.11043H5.42116L3.90984 2L2.95421 2.3313L5.44018 9.0949L4.66187 12.1195C4.22749 11.8614 3.83252 11.5582 3.50439 11.2042L2.75 11.8648C4.00897 13.2218 5.92221 14 8 14C10.0778 14 11.991 13.2218 13.25 11.8648L12.4956 11.2042ZM9.4112 7.09663L9.1068 8.57592H6.32765L5.78373 7.09663H9.4112ZM5.59154 12.5711L6.36582 9.56212H9.12663L9.94248 12.7325C9.32675 12.9154 8.66963 13.0138 8 13.0138C7.15757 13.0138 6.33645 12.8556 5.59154 12.5711Z" fill="#0D2B49"/>
</svg>
