<svg width="16" height="16" viewBox="0 0 16 16" fill="none" xmlns="http://www.w3.org/2000/svg">
<path d="M6.34601 2.16C5.93601 1.75 5.37701 1.5 4.75801 1.5C4.16161 1.50079 3.58987 1.73813 3.16825 2.15995C2.74662 2.58176 2.50954 3.1536 2.50901 3.75V5.75C2.51001 6.99 3.52001 8 4.75801 8C5.99601 8 7.00601 6.99 7.00601 5.75V3.75C7.00601 3.13 6.75601 2.57 6.34601 2.16ZM6.00601 5.75C6.0143 5.9191 5.98815 6.08813 5.92915 6.24682C5.87015 6.40552 5.77953 6.55057 5.66278 6.67319C5.54603 6.7958 5.40558 6.89342 5.24997 6.96012C5.09436 7.02682 4.92681 7.06122 4.75751 7.06122C4.5882 7.06122 4.42066 7.02682 4.26504 6.96012C4.10943 6.89342 3.96899 6.7958 3.85224 6.67319C3.73549 6.55057 3.64486 6.40552 3.58586 6.24682C3.52686 6.08813 3.50072 5.9191 3.50901 5.75V3.75C3.50072 3.5809 3.52686 3.41187 3.58586 3.25318C3.64486 3.09448 3.73549 2.94943 3.85224 2.82681C3.96899 2.7042 4.10943 2.60658 4.26504 2.53988C4.42066 2.47318 4.5882 2.43878 4.75751 2.43878C4.92681 2.43878 5.09436 2.47318 5.24997 2.53988C5.40558 2.60658 5.54603 2.7042 5.66278 2.82681C5.77953 2.94943 5.87015 3.09448 5.92915 3.25318C5.98815 3.41187 6.0143 3.5809 6.00601 3.75V5.75ZM13.429 3.252L3.21001 13.412L2.50101 12.698L12.73 2.54L13.43 3.252H13.429ZM11.252 8C10.632 8 10.073 8.25 9.66301 8.66C9.25301 9.07 9.00301 9.63 9.00301 10.25V12.25C9.00301 13.49 10.013 14.5 11.252 14.5C11.872 14.5 12.431 14.25 12.841 13.84C13.251 13.43 13.5 12.87 13.5 12.25V10.25C13.5 9.01 12.49 8 11.252 8ZM12.501 12.25C12.5077 12.4182 12.4804 12.5861 12.4207 12.7435C12.361 12.9009 12.27 13.0446 12.1534 13.166C12.0367 13.2874 11.8968 13.384 11.7419 13.45C11.587 13.516 11.4204 13.55 11.252 13.55C11.0836 13.55 10.917 13.516 10.7621 13.45C10.6072 13.384 10.4673 13.2874 10.3506 13.166C10.234 13.0446 10.1431 12.9009 10.0833 12.7435C10.0236 12.5861 9.99627 12.4182 10.003 12.25V10.25C9.99627 10.0818 10.0236 9.91392 10.0833 9.75651C10.1431 9.59911 10.234 9.45539 10.3506 9.33398C10.4673 9.21257 10.6072 9.11598 10.7621 9.05C10.917 8.98402 11.0836 8.95001 11.252 8.95001C11.4204 8.95001 11.587 8.98402 11.7419 9.05C11.8968 9.11598 12.0367 9.21257 12.1534 9.33398C12.27 9.45539 12.361 9.59911 12.4207 9.75651C12.4804 9.91392 12.5077 10.0818 12.501 10.25V12.25Z" fill="#0D2B49"/>
</svg>
