<svg width="16" height="16" viewBox="0 0 16 16" fill="none" xmlns="http://www.w3.org/2000/svg">
<path fill-rule="evenodd" clip-rule="evenodd" d="M12.904 7.768C12.308 9.848 10.979 12.689 8.028 14.481C8.018 14.491 8.009 14.5 8 14.5C7.99 14.5 7.982 14.49 7.972 14.481C5.022 12.689 3.692 9.848 3.096 7.768C2.455 5.521 2.501 3.673 2.501 3.654C2.501 3.626 2.528 3.599 2.556 3.589C3.151 3.534 5.186 2.949 6.332 2.187C7.303 1.547 7.853 1.5 8 1.5H8.018C8.192 1.5 8.742 1.574 9.668 2.187C10.814 2.949 12.848 3.534 13.444 3.589C13.472 3.599 13.499 3.626 13.499 3.654C13.499 3.673 13.545 5.521 12.904 7.768ZM9.09 7.125C9.09 6.58 8.604 6.143 7.999 6.143C7.394 6.143 6.909 6.58 6.909 7.125C6.909 7.473 7.101 7.777 7.403 7.946C7.247 8.357 7.073 8.964 6.908 9.857H9.026C8.861 8.982 8.696 8.384 8.54 7.982C8.87 7.812 9.09 7.492 9.09 7.125Z" fill="#0D2B49"/>
</svg>
