<svg width="16" height="16" viewBox="0 0 16 16" fill="none" xmlns="http://www.w3.org/2000/svg">
<path fill-rule="evenodd" clip-rule="evenodd" d="M4.505 1.62799C5.013 1.32999 5.653 1.57299 5.856 2.14799L6.786 4.78199C6.916 5.14799 6.83 5.55999 6.568 5.83499L5.743 6.70199C5.6633 6.78751 5.6148 6.89743 5.60536 7.01395C5.59592 7.13047 5.6261 7.24676 5.691 7.34399L7.959 10.717C8.02022 10.8118 8.11437 10.8806 8.22331 10.9102C8.33224 10.9397 8.44826 10.9279 8.549 10.877L9.597 10.34C9.75939 10.2568 9.94316 10.2247 10.1241 10.2479C10.3051 10.2711 10.4748 10.3485 10.611 10.47L12.661 12.266C13.107 12.658 13.113 13.376 12.678 13.784C12.608 13.849 12.536 13.911 12.459 13.968C10.544 15.403 7.163 13.833 4.902 10.471C2.641 7.10899 2.352 3.22099 4.268 1.78599C4.345 1.72899 4.424 1.67599 4.505 1.62799Z" fill="#0D2B49"/>
</svg>
