<svg width="16" height="16" viewBox="0 0 16 16" fill="none" xmlns="http://www.w3.org/2000/svg">
<path d="M12.597 3.38998C11.367 2.15998 9.73701 1.47998 7.99701 1.47998C6.70701 1.47998 5.45701 1.85998 4.38701 2.57998C3.31701 3.29998 2.48701 4.30998 1.99701 5.50998C1.50701 6.69998 1.37701 7.99998 1.62701 9.26998C1.87701 10.54 2.49701 11.69 3.40701 12.61C4.31701 13.52 5.46701 14.14 6.73701 14.39C7.14701 14.47 7.57701 14.52 8.00701 14.52C8.85701 14.52 9.69701 14.35 10.487 14.02C11.677 13.53 12.687 12.7 13.407 11.62C14.117 10.55 14.497 9.28998 14.497 7.99998C14.497 6.25998 13.827 4.61998 12.597 3.38998ZM10.927 8.32998C10.917 8.33998 10.917 8.34998 10.907 8.35998C10.897 8.36998 10.887 8.36998 10.877 8.36998C10.257 8.42998 9.91701 9.28998 9.74701 9.48998C9.06701 10.28 8.29701 10.55 7.55701 10.55C6.21701 10.55 4.97701 9.64998 4.58701 9.32998C4.55701 9.30998 4.57701 9.25998 4.62701 9.25998C4.82701 9.29998 5.03701 9.31998 5.23701 9.31998C5.82701 9.31998 6.39701 9.15998 6.90701 8.82998C6.58701 8.08998 6.56701 7.24998 6.84701 6.48998C7.12701 5.72998 7.68701 5.09998 8.41701 4.74998C8.42701 4.73998 8.43701 4.73998 8.44701 4.73998C8.48701 4.73998 8.50701 4.76998 8.48701 4.81998C8.25701 5.31998 8.16701 5.88998 8.22701 6.43998C8.29701 6.99998 8.50701 7.51998 8.84701 7.96998C9.18701 7.69998 9.46701 7.59998 9.70701 7.59998C10.177 7.59998 10.517 7.97998 10.907 8.26998C10.917 8.27998 10.927 8.28998 10.927 8.29998V8.32998Z" fill="#0D2B49"/>
</svg>
