<svg width="16" height="16" viewBox="0 0 16 16" fill="none" xmlns="http://www.w3.org/2000/svg">
<path fill-rule="evenodd" clip-rule="evenodd" d="M13.8 3.5H2.2C2.09 3.5 1.99999 3.433 1.99999 3.35V2H14V3.35C14 3.433 13.91 3.5 13.8 3.5ZM14 4.5V12C14.0007 12.0658 13.9882 12.1312 13.9633 12.1921C13.9384 12.2531 13.9016 12.3085 13.855 12.355C13.8085 12.4016 13.7531 12.4384 13.6921 12.4633C13.6312 12.4882 13.5658 12.5007 13.5 12.5H2.49999C2.43415 12.5007 2.36883 12.4882 2.30787 12.4633C2.2469 12.4384 2.19151 12.4016 2.14495 12.355C2.09839 12.3085 2.06158 12.2531 2.03669 12.1921C2.0118 12.1312 1.99933 12.0658 1.99999 12V4.5H14ZM6.5 8.25H4.74999V6.5C4.40388 6.5 4.06553 6.60264 3.77775 6.79493C3.48996 6.98722 3.26566 7.26053 3.13321 7.5803C3.00075 7.90007 2.9661 8.25194 3.03362 8.59141C3.10115 8.93087 3.26782 9.2427 3.51256 9.48744C3.7573 9.73218 4.06912 9.89885 4.40859 9.96637C4.74805 10.0339 5.09992 9.99924 5.41969 9.86679C5.73946 9.73434 6.01277 9.51003 6.20507 9.22225C6.39736 8.93446 6.5 8.59612 6.5 8.25ZM6.97 7.5C6.92248 7.12673 6.75233 6.77981 6.48625 6.51374C6.22018 6.24767 5.87327 6.07751 5.49999 6.03V7.5H6.97ZM13 10H9V11H13V10ZM13 8H9V9H13V8ZM13 6H9V7H13V6ZM7.5 13V13.5C7.5 13.6326 7.55267 13.7598 7.64644 13.8536C7.74021 13.9473 7.86739 14 8 14C8.1326 14 8.25978 13.9473 8.35355 13.8536C8.44732 13.7598 8.5 13.6326 8.5 13.5V13H7.5Z" fill="#0D2B49"/>
</svg>
