<svg width="16" height="16" viewBox="0 0 16 16" fill="none" xmlns="http://www.w3.org/2000/svg">
<path d="M3 14H13C13.55 14 14 13.55 14 13V3C14 2.45 13.55 2 13 2H3C2.45 2 2 2.45 2 3V13C2 13.55 2.45 14 3 14ZM4.82 6.81C5.23712 6.39154 5.73273 6.05952 6.27842 5.83297C6.82411 5.60643 7.40915 5.48981 8 5.48981C8.59085 5.48981 9.17589 5.60643 9.72158 5.83297C10.2673 6.05952 10.7629 6.39154 11.18 6.81C11.94 7.57 12.36 8.51 12.47 9.5H11.45C11.3574 8.74794 11.0118 8.04973 10.47 7.52C10.1464 7.19431 9.76155 6.93583 9.33764 6.75945C8.91374 6.58307 8.45914 6.49227 8 6.49227C7.54086 6.49227 7.08626 6.58307 6.66236 6.75945C6.23845 6.93583 5.85362 7.19431 5.53 7.52C4.98819 8.04973 4.64261 8.74794 4.55 9.5H3.53C3.64 8.51 4.06 7.57 4.82 6.81Z" fill="#0D2B49"/>
</svg>
