<svg width="16" height="16" viewBox="0 0 16 16" fill="none" xmlns="http://www.w3.org/2000/svg">
<path d="M2 2.857V13.143C2.00079 13.37 2.09134 13.5876 2.25188 13.7481C2.41243 13.9087 2.62995 13.9992 2.857 14H13.143C13.37 13.9992 13.5876 13.9087 13.7481 13.7481C13.9087 13.5876 13.9992 13.37 14 13.143V2.857C13.9992 2.62995 13.9087 2.41243 13.7481 2.25188C13.5876 2.09134 13.37 2.00079 13.143 2H2.857C2.62995 2.00079 2.41243 2.09134 2.25188 2.25188C2.09134 2.41243 2.00079 2.62995 2 2.857ZM11.566 10.306L11.471 10.726H10.631V11.146H11.42L11.334 11.574H10.743C10.7568 11.6263 10.7799 11.6758 10.811 11.72C10.911 11.88 11.086 11.977 11.274 11.977C11.359 11.9815 11.4438 11.9642 11.5203 11.9267C11.5968 11.8893 11.6624 11.8329 11.711 11.763C11.779 11.648 11.828 11.524 11.857 11.394H12.389C12.3523 11.7013 12.2304 11.9923 12.037 12.234C11.84 12.439 11.567 12.551 11.283 12.543C10.933 12.553 10.601 12.393 10.391 12.114C10.2737 11.953 10.1919 11.769 10.151 11.574H9.474L9.56 11.146H10.091C10.0765 11.0726 10.0708 10.9977 10.074 10.923C10.0727 10.8572 10.0757 10.7914 10.083 10.726H9.474L9.56 10.306H10.134C10.185 10.071 10.294 9.853 10.451 9.671C10.644 9.427 10.938 9.285 11.249 9.286C11.643 9.261 12.016 9.464 12.209 9.809C12.323 9.979 12.386 10.178 12.389 10.383H11.857C11.8305 10.2632 11.7809 10.1498 11.711 10.049C11.6561 9.97583 11.5833 9.91796 11.4997 9.88092C11.416 9.84388 11.3243 9.82891 11.2332 9.83744C11.1421 9.84596 11.0548 9.8777 10.9794 9.92962C10.9041 9.98154 10.8434 10.0519 10.803 10.134C10.7658 10.1867 10.7368 10.2447 10.717 10.306H11.566ZM4.083 12.029C4.04911 11.8635 4.04818 11.6929 4.08025 11.527C4.11233 11.3611 4.17678 11.2031 4.26993 11.0622C4.36308 10.9212 4.48309 10.7999 4.62312 10.7054C4.76315 10.6108 4.92044 10.5448 5.086 10.511H5.094C5.6 6.063 8.797 4.811 10.606 4.777L10.22 4.383C10.1609 4.3216 10.1285 4.23923 10.1301 4.15399C10.1317 4.06875 10.1671 3.98764 10.2285 3.9285C10.2899 3.86936 10.3723 3.83703 10.4575 3.83862C10.5427 3.84021 10.6239 3.8756 10.683 3.937L11.591 4.871C11.6199 4.90212 11.6423 4.93863 11.6571 4.97844C11.6719 5.01825 11.6786 5.06058 11.677 5.103C11.677 5.14457 11.6687 5.18572 11.6526 5.22402C11.6364 5.26232 11.6128 5.297 11.583 5.326L10.614 6.269C10.5845 6.29748 10.5495 6.31969 10.5112 6.3343C10.4729 6.34891 10.432 6.35561 10.391 6.354C10.305 6.35238 10.2227 6.31888 10.16 6.26C10.1015 6.19837 10.0696 6.11614 10.0713 6.03115C10.0729 5.94616 10.1081 5.86527 10.169 5.806L10.563 5.429C9.86 5.463 6.26 5.874 5.729 10.554C5.99067 10.6328 6.21977 10.7943 6.38201 11.0142C6.54425 11.2342 6.6309 11.5007 6.629 11.774C6.62702 12.0916 6.50761 12.3972 6.29376 12.632C6.0799 12.8667 5.78674 13.0141 5.47074 13.0456C5.15473 13.0772 4.83823 12.9907 4.5822 12.8028C4.32616 12.6149 4.1487 12.3389 4.084 12.028L4.083 12.029ZM4.476 5.669C4.32065 5.66769 4.16707 5.63579 4.02405 5.57512C3.88102 5.51446 3.75134 5.42622 3.64242 5.31544C3.5335 5.20466 3.44746 5.07351 3.38922 4.92948C3.33099 4.78544 3.30169 4.63135 3.303 4.476C3.30431 4.32065 3.33621 4.16707 3.39688 4.02405C3.45754 3.88102 3.54578 3.75134 3.65656 3.64242C3.76734 3.5335 3.89849 3.44746 4.04252 3.38922C4.18656 3.33099 4.34065 3.30169 4.496 3.303C4.80975 3.30565 5.1096 3.43283 5.32958 3.65656C5.54956 3.88029 5.67165 4.18225 5.669 4.496C5.66635 4.80975 5.53917 5.1096 5.31544 5.32958C5.09171 5.54956 4.78975 5.67165 4.476 5.669ZM4.486 3.954C4.5558 3.954 4.62491 3.96775 4.6894 3.99446C4.75388 4.02117 4.81247 4.06032 4.86183 4.10967C4.91118 4.15903 4.95033 4.21762 4.97704 4.2821C5.00375 4.34659 5.0175 4.4157 5.0175 4.4855C5.0175 4.5553 5.00375 4.62441 4.97704 4.6889C4.95033 4.75338 4.91118 4.81197 4.86183 4.86133C4.81247 4.91068 4.75388 4.94983 4.6894 4.97654C4.62491 5.00325 4.5558 5.017 4.486 5.017C4.34448 5.01651 4.20877 4.96068 4.10787 4.86146C4.00697 4.76224 3.94887 4.62749 3.946 4.486C3.94861 4.34434 4.00659 4.20933 4.10753 4.1099C4.20846 4.01046 4.34432 3.9545 4.486 3.954ZM4.769 11.497C4.77584 11.468 4.79035 11.4414 4.811 11.42C4.86474 11.3348 4.93857 11.2641 5.026 11.214C5.034 11.214 5.034 11.206 5.043 11.206C5.0843 11.1879 5.12714 11.1735 5.171 11.163C5.22494 11.1386 5.28381 11.1269 5.343 11.129C5.38909 11.1305 5.43495 11.1362 5.48 11.146C5.508 11.146 5.535 11.156 5.557 11.171C5.60034 11.1793 5.64131 11.1971 5.677 11.223C5.686 11.231 5.694 11.231 5.703 11.24C5.73825 11.2641 5.7699 11.293 5.797 11.326C5.836 11.36 5.867 11.4 5.891 11.446C5.9 11.454 5.9 11.463 5.909 11.471C5.92659 11.5038 5.94067 11.5383 5.951 11.574C5.976 11.637 5.988 11.704 5.986 11.771C5.986 11.9415 5.91826 12.1051 5.79767 12.2257C5.67708 12.3463 5.51353 12.414 5.343 12.414C5.17247 12.414 5.00892 12.3463 4.88833 12.2257C4.76774 12.1051 4.7 11.9415 4.7 11.771C4.7 11.676 4.723 11.581 4.769 11.497Z" fill="#0D2B49"/>
</svg>
