<svg width="16" height="16" viewBox="0 0 16 16" fill="none" xmlns="http://www.w3.org/2000/svg">
<path d="M5 12.01V3.98999C5 3.60599 5.429 3.37099 5.76 3.57499L12.267 7.58499C12.3382 7.62837 12.397 7.68933 12.4378 7.762C12.4786 7.83468 12.5001 7.91663 12.5001 7.99999C12.5001 8.08334 12.4786 8.1653 12.4378 8.23797C12.397 8.31065 12.3382 8.37161 12.267 8.41499L5.759 12.425C5.68432 12.4717 5.59855 12.4977 5.5105 12.5003C5.42245 12.5028 5.3353 12.4819 5.25802 12.4397C5.18073 12.3974 5.11609 12.3353 5.07074 12.2598C5.0254 12.1843 5.00098 12.0981 5 12.01Z" fill="#0D2B49"/>
</svg>
