<svg width="16" height="16" viewBox="0 0 16 16" fill="none" xmlns="http://www.w3.org/2000/svg">
<path d="M14 8C14 11.31 11.31 14 7.99999 14C4.68999 14 1.99999 11.31 1.99999 8C1.99713 6.89441 2.30134 5.80974 2.87871 4.86688C3.45608 3.92402 4.28392 3.16001 5.26999 2.66C5.51999 2.53 5.81999 2.63 5.94999 2.88C6.00567 2.99867 6.0139 3.13413 5.97301 3.25868C5.93211 3.38322 5.84518 3.48743 5.72999 3.55C4.90638 3.9648 4.21466 4.60091 3.73244 5.38694C3.25022 6.17298 2.99658 7.07784 2.99999 8C2.99999 10.76 5.23999 13 7.99999 13C10.76 13 13 10.76 13 8C13 6.11 11.96 4.41 10.27 3.55C10.1548 3.48743 10.0679 3.38322 10.027 3.25868C9.98607 3.13413 9.99431 2.99867 10.05 2.88C10.18 2.63 10.48 2.53 10.73 2.66C11.7161 3.16001 12.5439 3.92402 13.1213 4.86688C13.6986 5.80974 14.0028 6.89441 14 8ZM7.49999 8.5H8.49999V2H7.49999V8.5Z" fill="#0D2B49"/>
</svg>
