<svg width="16" height="16" viewBox="0 0 16 16" fill="none" xmlns="http://www.w3.org/2000/svg">
<path fill-rule="evenodd" clip-rule="evenodd" d="M11.5 11.15C10.57 11.35 9.28 11.5 8 11.5C6.72 11.5 5.43 11.35 4.5 11.15C4.62 10.31 5.19 9.99 5.77 9.79L6.47 9.57C6.76 9.46 7.02 9.28 7.12 9.05V8.43C6.95 8.35 6.64 7.84 6.6 7.48C6.49 7.47 6.39 7.34 6.33 6.95C6.31 6.73 6.37 6.62 6.44 6.57C6.43 6.48 6.42 6.38 6.42 6.25C6.42 5.3 7.03 4.5 8 4.5C8.97 4.5 9.58 5.3 9.58 6.25C9.58 6.38 9.57 6.48 9.56 6.57C9.63 6.62 9.69 6.73 9.67 6.95C9.61 7.34 9.51 7.47 9.4 7.48C9.36 7.84 9.05 8.35 8.88 8.43V9.05C8.98 9.28 9.24 9.46 9.53 9.57L10.23 9.79C10.81 9.99 11.38 10.31 11.5 11.15ZM5 2.5C5 2.63261 4.94732 2.75979 4.85355 2.85355C4.75979 2.94732 4.63261 3 4.5 3H3.25C3.1837 3 3.12011 3.02634 3.07322 3.07322C3.02634 3.12011 3 3.1837 3 3.25V4.5C3 4.63261 2.94732 4.75979 2.85355 4.85355C2.75979 4.94732 2.63261 5 2.5 5C2.36739 5 2.24021 4.94732 2.14645 4.85355C2.05268 4.75979 2 4.63261 2 4.5V3C2 2.73478 2.10536 2.48043 2.29289 2.29289C2.48043 2.10536 2.73478 2 3 2H4.5C4.63261 2 4.75979 2.05268 4.85355 2.14645C4.94732 2.24021 5 2.36739 5 2.5ZM14 4.5V3C14 2.73478 13.8946 2.48043 13.7071 2.29289C13.5196 2.10536 13.2652 2 13 2H11.5C11.3674 2 11.2402 2.05268 11.1464 2.14645C11.0527 2.24021 11 2.36739 11 2.5C11 2.63261 11.0527 2.75979 11.1464 2.85355C11.2402 2.94732 11.3674 3 11.5 3H12.75C12.8163 3 12.8799 3.02634 12.9268 3.07322C12.9737 3.12011 13 3.1837 13 3.25V4.5C13 4.63261 13.0527 4.75979 13.1464 4.85355C13.2402 4.94732 13.3674 5 13.5 5C13.6326 5 13.7598 4.94732 13.8536 4.85355C13.9473 4.75979 14 4.63261 14 4.5ZM11.5 14H13C13.2652 14 13.5196 13.8946 13.7071 13.7071C13.8946 13.5196 14 13.2652 14 13V11.5C14 11.3674 13.9473 11.2402 13.8536 11.1464C13.7598 11.0527 13.6326 11 13.5 11C13.3674 11 13.2402 11.0527 13.1464 11.1464C13.0527 11.2402 13 11.3674 13 11.5V12.75C13 12.8163 12.9737 12.8799 12.9268 12.9268C12.8799 12.9737 12.8163 13 12.75 13H11.5C11.3674 13 11.2402 13.0527 11.1464 13.1464C11.0527 13.2402 11 13.3674 11 13.5C11 13.6326 11.0527 13.7598 11.1464 13.8536C11.2402 13.9473 11.3674 14 11.5 14ZM2 11.5V13C2 13.2652 2.10536 13.5196 2.29289 13.7071C2.48043 13.8946 2.73478 14 3 14H4.5C4.63261 14 4.75979 13.9473 4.85355 13.8536C4.94732 13.7598 5 13.6326 5 13.5C5 13.3674 4.94732 13.2402 4.85355 13.1464C4.75979 13.0527 4.63261 13 4.5 13H3.25C3.1837 13 3.12011 12.9737 3.07322 12.9268C3.02634 12.8799 3 12.8163 3 12.75V11.5C3 11.3674 2.94732 11.2402 2.85355 11.1464C2.75979 11.0527 2.63261 11 2.5 11C2.36739 11 2.24021 11.0527 2.14645 11.1464C2.05268 11.2402 2 11.3674 2 11.5Z" fill="#0D2B49"/>
</svg>
