<svg width="16" height="16" viewBox="0 0 16 16" fill="none" xmlns="http://www.w3.org/2000/svg">
<path fill-rule="evenodd" clip-rule="evenodd" d="M5.5 6H2.5C2.36739 6 2.24021 5.94732 2.14645 5.85355C2.05268 5.75979 2 5.63261 2 5.5V2.5C2 2.36739 2.05268 2.24021 2.14645 2.14645C2.24021 2.05268 2.36739 2 2.5 2H5.5C5.63261 2 5.75979 2.05268 5.85355 2.14645C5.94732 2.24021 6 2.36739 6 2.5V5.5C6 5.63261 5.94732 5.75979 5.85355 5.85355C5.75979 5.94732 5.63261 6 5.5 6ZM3 5V3H5V5H3ZM13.5 6H10.5C10.3674 6 10.2402 5.94732 10.1464 5.85355C10.0527 5.75979 10 5.63261 10 5.5V2.5C10 2.36739 10.0527 2.24021 10.1464 2.14645C10.2402 2.05268 10.3674 2 10.5 2H13.5C13.6326 2 13.7598 2.05268 13.8536 2.14645C13.9473 2.24021 14 2.36739 14 2.5V5.5C14 5.63261 13.9473 5.75979 13.8536 5.85355C13.7598 5.94732 13.6326 6 13.5 6ZM11 5V3H13V5H11ZM5.5 13.5H2.5C2.36739 13.5 2.24021 13.4473 2.14645 13.3536C2.05268 13.2598 2 13.1326 2 13V10C2 9.86739 2.05268 9.74021 2.14645 9.64645C2.24021 9.55268 2.36739 9.5 2.5 9.5H5.5C5.63261 9.5 5.75979 9.55268 5.85355 9.64645C5.94732 9.74021 6 9.86739 6 10V13C6 13.1326 5.94732 13.2598 5.85355 13.3536C5.75979 13.4473 5.63261 13.5 5.5 13.5ZM3 12.5V10.5H5V12.5H3ZM8.5 2H7.5V3H8.5V2ZM8.5 5H7.5V6H8.5V5ZM8.5 7.5H7.5V8.5H8.5V7.5ZM11 7.5H10V8.5H11V7.5ZM13.5 7.5H12.5V8.5H13.5V7.5ZM6 7.5H5V8.5H6V7.5ZM3 7.5H2V8.5H3V7.5ZM8.5 10H7.5V11H8.5V10ZM11 10H10V11H11V10ZM10 8.5H8.5V10H10V8.5ZM12.5 8.5H11V10H12.5V8.5ZM12.5 11H11V12.5H12.5V11ZM10 11H8.5V12.5H10V11ZM11 12.5H10V13.5H11V12.5ZM13.5 12.5H12.5V13.5H13.5V12.5ZM13.5 10H12.5V11H13.5V10ZM8.5 12.5H7.5V13.5H8.5V12.5Z" fill="#0D2B49"/>
</svg>
