<svg width="16" height="16" viewBox="0 0 16 16" fill="none" xmlns="http://www.w3.org/2000/svg">
<path d="M8 1.5C6.27609 1.5 4.62279 2.18482 3.40381 3.40381C2.18482 4.62279 1.5 6.27609 1.5 8C1.5 9.72391 2.18482 11.3772 3.40381 12.5962C4.62279 13.8152 6.27609 14.5 8 14.5C9.72391 14.5 11.3772 13.8152 12.5962 12.5962C13.8152 11.3772 14.5 9.72391 14.5 8C14.5 6.27609 13.8152 4.62279 12.5962 3.40381C11.3772 2.18482 9.72391 1.5 8 1.5ZM8 11.5C7.59 11.5 7.25 11.16 7.25 10.75C7.25 10.34 7.59 10 8 10C8.41 10 8.75 10.34 8.75 10.75C8.75 11.16 8.41 11.5 8 11.5ZM9.03 8.25C8.7 8.56 8.5 8.76 8.5 9H7.5C7.5 8.31 7.97 7.87 8.36 7.51C8.76 7.15 9 6.9 9 6.5C9 5.95 8.55 5.5 8 5.5C7.45 5.5 7 5.95 7 6.5H6C6 5.4 6.9 4.5 8 4.5C9.1 4.5 10 5.4 10 6.5C10 7.36 9.46 7.85 9.03 8.25Z" fill="#0D2B49"/>
</svg>
