<svg width="16" height="16" viewBox="0 0 16 16" fill="none" xmlns="http://www.w3.org/2000/svg">
<path fill-rule="evenodd" clip-rule="evenodd" d="M11.0101 8.78098L9.51001 10.071V8.98098L7.51001 9.00098V12.971H6.01001V8.98098H4.01001V12.971H2.51001V2.50098C2.51001 1.95098 2.96001 1.50098 3.51001 1.50098H10.0101C10.5601 1.50098 11.0101 1.95098 11.0101 2.50098V8.78098ZM4.01001 7.98098H6.01001V5.99098H4.01001V7.98098ZM4.01001 4.99098H6.01001V3.00098H4.01001V4.99098ZM9.51001 3.00098H7.51001V4.99098H9.51001V3.00098ZM7.51001 5.99098V7.98098H9.51001V5.99098H7.51001Z" fill="#0D2B49"/>
<path d="M12.16 9.06098L14.91 11.421C14.97 11.471 15 11.541 15 11.611V14.751C15 14.891 14.89 15.001 14.75 15.001H13V13.001H11V15.001H9.25C9.11 15.001 9 14.891 9 14.751V11.611C9 11.541 9.03 11.471 9.09 11.421L9.51 11.061L11.01 9.77098L11.84 9.06098C11.89 9.02098 11.94 9.00098 12 9.00098C12.06 9.00098 12.11 9.02098 12.16 9.06098Z" fill="#0D2B49"/>
</svg>
