<svg width="16" height="16" viewBox="0 0 16 16" fill="none" xmlns="http://www.w3.org/2000/svg">
<path d="M14.5 8C14.5005 9.16604 14.1873 10.3107 13.5933 11.3141C12.9993 12.3175 12.1463 13.1426 11.1237 13.703C10.1012 14.2633 8.94668 14.5383 7.7813 14.4991C6.61593 14.4599 5.48256 14.1079 4.5 13.48V14.5H3.5V11.5H6.5V12.5H4.84C5.73 13.13 6.82 13.5 8 13.5C11.04 13.5 13.5 11.04 13.5 8H14.5ZM11.5 1.5V2.52C10.454 1.85427 9.2399 1.50045 8 1.5C6.27609 1.5 4.62279 2.18482 3.40381 3.40381C2.18482 4.62279 1.5 6.27609 1.5 8H2.5C2.5 4.96 4.96 2.5 8 2.5C9.18 2.5 10.27 2.87 11.16 3.5H9.5V4.5H12.5V1.5H11.5ZM10 7.5H8.86C8.80267 7.38366 8.71663 7.28385 8.61 7.21C8.35 7.01 8.03 6.96 7.74 7.03L6.71 6C6.51 5.8 6.2 5.8 6 6C5.9 6.1 5.85 6.23 5.85 6.36C5.85 6.48 5.9 6.61 6 6.71L7.04 7.74C6.93 8.12 7.06 8.54 7.39 8.79C7.502 8.87756 7.63155 8.93997 7.76983 8.97299C7.90811 9.006 8.05187 9.00885 8.19135 8.98133C8.33083 8.95382 8.46274 8.89658 8.57812 8.81353C8.6935 8.73047 8.78964 8.62354 8.86 8.5H10C10.28 8.5 10.5 8.28 10.5 8C10.5 7.72 10.28 7.5 10 7.5Z" fill="#0D2B49"/>
</svg>
