<svg width="16" height="16" viewBox="0 0 16 16" fill="none" xmlns="http://www.w3.org/2000/svg">
<path d="M10.039 2.56C9.429 2.19 8.719 2 7.999 2C5.79 2 4 3.79 4 6C4 6.72 4.2 7.43 4.57 8.05L8 14L11.439 8.05C12.569 6.15 11.939 3.69 10.039 2.56ZM7.999 7.25C7.66748 7.24987 7.34959 7.11804 7.11526 6.88353C6.88094 6.64902 6.74937 6.33102 6.7495 5.9995C6.74963 5.66798 6.88146 5.35009 7.11597 5.11576C7.35048 4.88144 7.66848 4.74987 8 4.75C8.33152 4.75 8.64946 4.8817 8.88388 5.11612C9.1183 5.35054 9.25 5.66848 9.25 6C9.25 6.33152 9.1183 6.64946 8.88388 6.88388C8.64946 7.1183 8.33052 7.25 7.999 7.25Z" fill="#0D2B49"/>
</svg>
