<svg width="16" height="16" viewBox="0 0 16 16" fill="none" xmlns="http://www.w3.org/2000/svg">
<path d="M14.504 7.99707C14.504 11.3671 11.944 14.1271 8.674 14.4671C8.454 14.4871 8.224 14.4971 8.004 14.4971C7.794 14.4971 7.584 14.4871 7.374 14.4671C7.344 14.4671 7.314 14.4571 7.274 14.4571C7.074 14.4371 6.884 14.4071 6.694 14.3671C6.484 14.3171 6.274 14.2671 6.074 14.2071C6.064 14.2071 6.054 14.1971 6.034 14.1971C5.864 14.1371 5.704 14.0771 5.544 14.0071C5.184 13.8671 4.834 13.6871 4.504 13.4771C4.144 13.2471 3.804 12.9871 3.504 12.6871C2.274 11.5071 1.504 9.83707 1.504 7.99707C1.504 4.40707 4.414 1.49707 8.004 1.49707C8.164 1.49707 8.314 1.50707 8.474 1.51707C8.624 1.52707 8.774 1.54707 8.924 1.56707C9.074 1.58707 9.234 1.61707 9.384 1.64707C9.534 1.67707 9.684 1.71707 9.824 1.75707C9.974 1.80707 10.114 1.84707 10.264 1.90707C10.404 1.95707 10.534 2.00707 10.664 2.06707C10.684 2.07707 10.704 2.08707 10.724 2.09707C10.954 2.19707 11.174 2.31707 11.384 2.44707C11.424 2.46707 11.464 2.49707 11.504 2.51707V1.49707H12.504V4.49707H9.504V3.49707H11.154C11.114 3.46707 11.074 3.43707 11.034 3.41707C10.904 3.31707 10.764 3.23707 10.624 3.16707C10.514 3.09707 10.394 3.03707 10.274 2.99707C10.194 2.94707 10.104 2.91707 10.024 2.88707C9.904 2.82707 9.774 2.78707 9.644 2.74707C9.494 2.69707 9.354 2.66707 9.214 2.63707C9.134 2.61707 9.054 2.59707 8.974 2.58707C8.654 2.52707 8.334 2.49707 8.004 2.49707C4.964 2.49707 2.504 4.96707 2.504 7.99707C2.504 9.32707 2.974 10.5471 3.764 11.4971C4.074 11.8771 4.444 12.2171 4.844 12.4971C5.014 12.6171 5.194 12.7371 5.384 12.8271C5.494 12.8971 5.614 12.9571 5.734 13.0071C5.824 13.0471 5.904 13.0871 5.994 13.1171C6.114 13.1671 6.234 13.2071 6.364 13.2471C6.504 13.2971 6.654 13.3271 6.794 13.3571C6.874 13.3771 6.954 13.3971 7.034 13.4071C7.344 13.4671 7.674 13.4971 8.004 13.4971C11.034 13.4971 13.504 11.0371 13.504 7.99707H14.504Z" fill="#0D2B49"/>
</svg>
