<svg width="16" height="16" viewBox="0 0 16 16" fill="none" xmlns="http://www.w3.org/2000/svg">
<path fill-rule="evenodd" clip-rule="evenodd" d="M12 1.5H4C3.45 1.5 3 1.95 3 2.5V13.5C3 14.05 3.45 14.5 4 14.5H12C12.55 14.5 13 14.05 13 13.5V2.5C13 1.95 12.55 1.5 12 1.5ZM11.5 7.5C11.5 7.78 11.28 8 11 8C10.72 8 10.5 7.78 10.5 7.5V7.42L9.39 8.81C9.31267 8.90929 9.20073 8.97577 9.07653 8.99616C8.95234 9.01655 8.82502 8.98935 8.72 8.92L7.6 8.17L5.89 10.31C5.8 10.43 5.65 10.5 5.5 10.5H4.5C4.22 10.5 4 10.28 4 10C4 9.72 4.22 9.5 4.5 9.5H5.26L7.11 7.19C7.18734 7.09071 7.29927 7.02423 7.42347 7.00384C7.54766 6.98345 7.67498 7.01065 7.78 7.08L8.9 7.83L9.96 6.5H9.5C9.22 6.5 9 6.28 9 6C9 5.72 9.22 5.5 9.5 5.5H11C11.05 5.5 11.1 5.51 11.15 5.53C11.19 5.54 11.23 5.55 11.27 5.58H11.28C11.31 5.61 11.34 5.63 11.37 5.66C11.4 5.7 11.43 5.74 11.45 5.78C11.48 5.85 11.5 5.92 11.5 6V7.5Z" fill="#0D2B49"/>
</svg>
