<svg width="16" height="16" viewBox="0 0 16 16" fill="none" xmlns="http://www.w3.org/2000/svg">
<path d="M13.5 2.5V12.5C13.5 13.05 13.05 13.5 12.5 13.5H9L8 14.5L7 13.5H3.5C2.95 13.5 2.5 13.05 2.5 12.5V2.5C2.5 1.95 2.95 1.5 3.5 1.5H12.5C13.05 1.5 13.5 1.95 13.5 2.5ZM6.425 5.75C6.425 5.875 6.43 5.98 6.438 6.066C6.366 6.121 6.31 6.232 6.338 6.45C6.388 6.843 6.492 6.967 6.6 6.975C6.641 7.342 6.95 7.85 7.125 7.937V8.55C7.021 8.778 6.759 8.96 6.464 9.065L5.766 9.291C5.196 9.492 4.618 9.807 4.5 10.653C6.81032 11.1165 9.18968 11.1165 11.5 10.653C11.382 9.807 10.804 9.493 10.234 9.291L9.536 9.065C9.241 8.96 8.979 8.778 8.875 8.55V7.937C9.05 7.85 9.359 7.342 9.4 6.975C9.508 6.967 9.612 6.843 9.663 6.45C9.69 6.232 9.633 6.121 9.563 6.066C9.57 5.979 9.575 5.875 9.575 5.75C9.575 4.805 8.962 4 8 4C7.038 4 6.425 4.805 6.425 5.75Z" fill="#0D2B49"/>
</svg>
