<svg width="16" height="16" viewBox="0 0 16 16" fill="none" xmlns="http://www.w3.org/2000/svg">
<path fill-rule="evenodd" clip-rule="evenodd" d="M12 4.5V3H13V2H3V3H4V4.5C4 6.01 4.83 7.32 6.07 8C5.44204 8.34325 4.91831 8.84955 4.554 9.46552C4.18969 10.0815 3.9983 10.7844 4 11.5V13H3V14H13V13H12V11.5C12 9.99 11.17 8.68 9.93 8C10.558 7.65675 11.0817 7.15046 11.446 6.53448C11.8103 5.9185 12.0017 5.21565 12 4.5ZM9.45 7.12L8.816 7.467C8.72021 7.5192 8.64026 7.59625 8.58455 7.69004C8.52885 7.78384 8.49945 7.89091 8.49945 8C8.49945 8.10909 8.52885 8.21616 8.58455 8.30996C8.64026 8.40375 8.72021 8.4808 8.816 8.533L9.45 8.88C10.41 9.4 11 10.41 11 11.5H5C5 10.41 5.59 9.4 6.55 8.88L7.184 8.533C7.27979 8.4808 7.35974 8.40375 7.41545 8.30996C7.47115 8.21616 7.50055 8.10909 7.50055 8C7.50055 7.89091 7.47115 7.78384 7.41545 7.69004C7.35974 7.59625 7.27979 7.5192 7.184 7.467L6.55 7.12C6.07972 6.86326 5.68746 6.48433 5.41465 6.02318C5.14184 5.56204 4.99858 5.0358 5 4.5H11C11 5.59 10.41 6.6 9.45 7.12ZM8 6.5C7.26 6.5 6.614 6.098 6.269 5.5H9.73C9.385 6.098 8.739 6.5 8 6.5ZM8 9.482C8.74 9.482 9.386 9.885 9.731 10.482H6.27C6.615 9.885 7.262 9.482 8.001 9.482H8Z" fill="#0D2B49"/>
</svg>
