<svg width="16" height="16" viewBox="0 0 16 16" fill="none" xmlns="http://www.w3.org/2000/svg">
<path fill-rule="evenodd" clip-rule="evenodd" d="M8.16801 3.91C8.10801 3.9 8.04801 3.9 7.98801 3.9C6.63801 3.9 5.38801 4.27 4.38801 4.9C4.32221 4.61357 4.32164 4.31602 4.38632 4.02934C4.45101 3.74266 4.5793 3.47419 4.76172 3.24377C4.94413 3.01335 5.17601 2.82688 5.44019 2.69814C5.70438 2.5694 5.99413 2.50168 6.28801 2.5C7.17801 2.5 7.91801 3.1 8.16801 3.91ZM14 8.628V10.092C13.9998 10.1571 13.9865 10.2215 13.9611 10.2815C13.9357 10.3414 13.8986 10.3957 13.8519 10.4411C13.8053 10.4866 13.75 10.5222 13.6894 10.5461C13.6288 10.5699 13.5641 10.5815 13.499 10.58H12.627C12.267 11.283 11.645 11.879 10.874 12.299L11.144 12.992C11.244 13.246 11.104 13.529 10.854 13.627L9.91201 13.968C9.78939 14.0142 9.65353 14.0105 9.53364 13.9576C9.41376 13.9046 9.31945 13.8068 9.27101 13.685L8.98101 12.933C8.66001 12.992 8.32901 13.021 7.98801 13.021C7.51801 13.021 7.05701 12.972 6.62601 12.875L6.31601 13.685C6.26757 13.807 6.17309 13.9051 6.05298 13.958C5.93286 14.011 5.79675 14.0145 5.67401 13.968L4.73201 13.627C4.60958 13.5809 4.51035 13.4883 4.45601 13.3693C4.40167 13.2503 4.39664 13.1147 4.44201 12.992L4.78201 12.113C3.68001 11.4 2.98001 10.326 2.98001 9.116C2.98001 8.891 3.01001 8.666 3.06001 8.452C2.40901 8.052 2.05801 7.612 2.00801 7.144C1.92801 6.431 2.57801 5.952 2.59801 5.933C2.6524 5.89633 2.71842 5.88104 2.78339 5.89009C2.84836 5.89913 2.9077 5.93187 2.95001 5.982C3.03001 6.099 3.01001 6.245 2.90001 6.323C2.90001 6.333 2.45901 6.655 2.50901 7.095C2.52901 7.31 2.68901 7.612 3.20001 7.964C3.83001 6.372 5.73401 5.21 7.99001 5.21C8.44001 5.21 8.87101 5.26 9.28201 5.347C9.70201 4.605 10.244 4.234 10.985 4.039C11.887 3.804 11.195 4.683 11.115 5.308C11.075 5.591 11.045 5.806 11.045 6.021C11.917 6.548 12.558 7.29 12.839 8.139H13.5C13.5652 8.13754 13.63 8.1491 13.6907 8.173C13.7513 8.19691 13.8066 8.23268 13.8533 8.27822C13.8999 8.32376 13.937 8.37816 13.9624 8.43822C13.9878 8.49828 14.0009 8.5628 14.001 8.628H14ZM11.488 7.8C11.488 7.52 11.268 7.3 10.988 7.3C10.708 7.3 10.488 7.52 10.488 7.8C10.488 8.08 10.708 8.3 10.988 8.3C11.268 8.3 11.488 8.08 11.488 7.8Z" fill="#0D2B49"/>
</svg>
