<svg width="16" height="16" viewBox="0 0 16 16" fill="none" xmlns="http://www.w3.org/2000/svg">
<path fill-rule="evenodd" clip-rule="evenodd" d="M11.028 10.1899C11.7511 9.34887 12.1482 8.27611 12.147 7.16692C12.08 4.52492 9.81 2.43692 7.077 2.49992C4.438 2.56292 2.315 4.61592 2.25 7.16592C2.25 9.80692 4.465 11.9479 7.198 11.9499C8.33335 11.9553 9.43664 11.5737 10.326 10.8679L13.047 13.4989L13.75 12.8189L11.028 10.1899ZM9.623 10.1899C7.895 11.4849 5.409 11.1799 4.07 9.50992C3.5348 8.8465 3.242 8.02031 3.24 7.16792C3.24 5.05492 5.012 3.34192 7.198 3.34192C9.384 3.34192 11.156 5.05492 11.156 7.16792C11.156 8.01592 10.864 8.84092 10.326 9.51192C10.1263 9.77132 9.88945 9.99978 9.623 10.1899Z" fill="#0D2B49"/>
</svg>
