<svg width="16" height="16" viewBox="0 0 16 16" fill="none" xmlns="http://www.w3.org/2000/svg">
<path d="M14 7.205V8.795C14 8.85277 13.9799 8.90875 13.9433 8.95342C13.9066 8.99808 13.8557 9.02868 13.799 9.04L12.273 9.345C12.193 9.599 12.095 9.841 11.974 10.072L12.836 11.365C12.868 11.413 12.8823 11.4706 12.8767 11.528C12.871 11.5854 12.8457 11.6391 12.805 11.68L11.68 12.805C11.6391 12.8457 11.5854 12.871 11.528 12.8767C11.4706 12.8823 11.413 12.868 11.365 12.836L10.072 11.974C9.83902 12.0953 9.59573 12.1957 9.345 12.274L9.04 13.799C9.02868 13.8557 8.99808 13.9066 8.95342 13.9433C8.90875 13.9799 8.85277 14 8.795 14H7.205C7.14723 14 7.09125 13.9799 7.04658 13.9433C7.00192 13.9066 6.97132 13.8557 6.96 13.799L6.655 12.273C6.4043 12.195 6.16102 12.095 5.928 11.974L4.635 12.836C4.58698 12.868 4.52938 12.8823 4.47197 12.8767C4.41456 12.871 4.36087 12.8457 4.32 12.805L3.195 11.68C3.15428 11.6391 3.12895 11.5854 3.1233 11.528C3.11765 11.4706 3.13203 11.413 3.164 11.365L4.026 10.072C3.90472 9.839 3.80433 9.59572 3.726 9.345L2.202 9.04C2.14516 9.02888 2.09395 8.99837 2.05711 8.95369C2.02027 8.909 2.00008 8.85291 2 8.795V7.205C2.00003 7.14723 2.02008 7.09125 2.05672 7.04658C2.09337 7.00192 2.14435 6.97132 2.201 6.96L3.727 6.655C3.807 6.401 3.905 6.159 4.026 5.928L3.164 4.635C3.13203 4.58698 3.11765 4.52938 3.1233 4.47197C3.12895 4.41456 3.15428 4.36087 3.195 4.32L4.32 3.195C4.36087 3.15428 4.41456 3.12895 4.47197 3.1233C4.52938 3.11765 4.58698 3.13203 4.635 3.164L5.928 4.026C6.159 3.905 6.401 3.806 6.655 3.726L6.96 2.201C6.97132 2.14435 7.00192 2.09337 7.04658 2.05672C7.09125 2.02008 7.14723 2.00003 7.205 2H8.795C8.85263 1.99999 8.9085 2.01989 8.95315 2.05633C8.99779 2.09278 9.02847 2.14353 9.04 2.2L9.345 3.727C9.599 3.807 9.841 3.905 10.072 4.026L11.365 3.164C11.413 3.13203 11.4706 3.11765 11.528 3.1233C11.5854 3.12895 11.6391 3.15428 11.68 3.195L12.805 4.32C12.8457 4.36087 12.871 4.41456 12.8767 4.47197C12.8823 4.52938 12.868 4.58698 12.836 4.635L11.974 5.928C12.095 6.159 12.194 6.401 12.274 6.655L13.799 6.96C13.8557 6.97132 13.9066 7.00192 13.9433 7.04658C13.9799 7.09125 14 7.14723 14 7.205ZM8 6C7.46957 6 6.96086 6.21071 6.58579 6.58579C6.21071 6.96086 6 7.46957 6 8C6 8.53043 6.21071 9.03914 6.58579 9.41421C6.96086 9.78929 7.46957 10 8 10C8.53043 10 9.03914 9.78929 9.41421 9.41421C9.78929 9.03914 10 8.53043 10 8C10 7.46957 9.78929 6.96086 9.41421 6.58579C9.03914 6.21071 8.53043 6 8 6Z" fill="#0D2B49"/>
</svg>
