<svg width="16" height="16" viewBox="0 0 16 16" fill="none" xmlns="http://www.w3.org/2000/svg">
<path d="M9.5 1.5H4C3.45 1.5 3 1.95 3 2.5V13.5C3 14.05 3.45 14.5 4 14.5H12C12.55 14.5 13 14.05 13 13.5V5L9.5 1.5ZM7.5 10.75H6.87C5.91 10.75 5.12 9.96 5.12 9C5.12 8.04 5.91 7.25 6.87 7.25H7.5V7.75H6.87C6.53848 7.75 6.22054 7.8817 5.98612 8.11612C5.7517 8.35054 5.62 8.66848 5.62 9C5.62 9.33152 5.7517 9.64946 5.98612 9.88388C6.22054 10.1183 6.53848 10.25 6.87 10.25H7.5V10.75ZM9 8.75V9.25H7V8.75H9ZM9.13 10.75H8.5V10.25H9.13C9.46152 10.25 9.77946 10.1183 10.0139 9.88388C10.2483 9.64946 10.38 9.33152 10.38 9C10.38 8.66848 10.2483 8.35054 10.0139 8.11612C9.77946 7.8817 9.46152 7.75 9.13 7.75H8.5V7.25H9.13C10.09 7.25 10.88 8.04 10.88 9C10.88 9.96 10.09 10.75 9.13 10.75Z" fill="#0D2B49"/>
</svg>
