<svg width="16" height="16" viewBox="0 0 16 16" fill="none" xmlns="http://www.w3.org/2000/svg">
<path d="M12.86 5.25099L4.417 13.694L2.285 13.996C2.24658 14.0029 2.20705 14.0004 2.1698 13.9887C2.13254 13.9771 2.09867 13.9565 2.07106 13.9289C2.04346 13.9013 2.02294 13.8675 2.01126 13.8302C1.99958 13.7929 1.99709 13.7534 2.004 13.715L2.306 11.583L9.693 4.19599L9.342 3.84399L6.703 6.48299C6.6801 6.5063 6.65279 6.52482 6.62266 6.53746C6.59253 6.5501 6.56018 6.55661 6.5275 6.55661C6.49483 6.55661 6.46248 6.5501 6.43234 6.53746C6.40221 6.52482 6.3749 6.5063 6.352 6.48299C6.32854 6.46008 6.30989 6.4327 6.29716 6.40248C6.28443 6.37226 6.27787 6.33979 6.27787 6.30699C6.27787 6.2742 6.28443 6.24173 6.29716 6.21151C6.30989 6.18128 6.32854 6.15391 6.352 6.13099L9.2 3.27999C9.23743 3.24305 9.28791 3.22233 9.3405 3.22233C9.39309 3.22233 9.44357 3.24305 9.481 3.27999L10.044 3.84299L10.748 3.13999L12.858 5.24999L12.86 5.25099ZM13.563 2.43699C13.2832 2.15719 12.9037 2 12.508 2C12.1123 2 11.7328 2.15719 11.453 2.43699L11.1 2.78899L13.211 4.89899L13.563 4.54799C13.8428 4.26819 14 3.88869 14 3.49299C14 3.09729 13.8428 2.7168 13.563 2.43699ZM12.938 13.197C12.698 13.217 12.568 13.147 12.418 13.067C12.168 12.937 11.838 12.767 11.278 13.077C10.918 13.277 10.668 13.207 10.178 13.047C10.008 12.997 9.818 12.937 9.618 12.887C9.128 12.777 8.738 12.927 8.478 13.047C8.368 12.847 8.208 12.657 7.978 12.587C7.798 12.517 7.508 12.497 7.168 12.767C6.918 12.971 6.336 13.123 5.743 13.184C5.6411 13.1933 5.54662 13.2412 5.479 13.318C5.42023 13.3768 5.38124 13.4524 5.36745 13.5344C5.35366 13.6164 5.36575 13.7006 5.40204 13.7754C5.43834 13.8502 5.49703 13.9118 5.56996 13.9517C5.6429 13.9916 5.72645 14.0078 5.809 13.998C6.529 13.915 7.298 13.627 7.629 13.358C7.699 13.308 7.739 13.298 7.739 13.298C7.769 13.308 7.829 13.398 7.859 13.518L7.949 13.768L8.109 13.838C8.319 13.948 8.529 13.848 8.699 13.768C8.899 13.668 9.149 13.558 9.449 13.618C9.629 13.668 9.799 13.718 9.959 13.768C10.459 13.928 10.989 14.098 11.639 13.728C11.849 13.618 11.879 13.638 12.069 13.738C12.269 13.838 12.539 13.978 12.999 13.948C13.209 13.928 13.359 13.748 13.349 13.548C13.329 13.338 13.159 13.198 12.939 13.198L12.938 13.197Z" fill="#0D2B49"/>
</svg>
