<svg width="16" height="16" viewBox="0 0 16 16" fill="none" xmlns="http://www.w3.org/2000/svg">
<path fill-rule="evenodd" clip-rule="evenodd" d="M13 2H3C2.73503 2.00079 2.48113 2.1064 2.29377 2.29377C2.1064 2.48113 2.00079 2.73503 2 3V13C2.00079 13.265 2.1064 13.5189 2.29377 13.7062C2.48113 13.8936 2.73503 13.9992 3 14H13C13.265 13.9992 13.5189 13.8936 13.7062 13.7062C13.8936 13.5189 13.9992 13.265 14 13V3C13.9992 2.73503 13.8936 2.48113 13.7062 2.29377C13.5189 2.1064 13.265 2.00079 13 2ZM11.9 10.4C11.7678 10.4023 11.6371 10.3713 11.52 10.31L10.91 10.92C10.9713 11.0371 11.0022 11.1678 11 11.3C11 11.4182 10.9767 11.5352 10.9314 11.6444C10.8862 11.7536 10.8199 11.8528 10.7363 11.9364C10.6528 12.02 10.5536 12.0863 10.4444 12.1315C10.3352 12.1767 10.2181 12.2 10.0999 12.2C9.98176 12.2 9.86473 12.1767 9.75554 12.1315C9.64634 12.0863 9.54713 12.02 9.46355 11.9364C9.37998 11.8528 9.31369 11.7536 9.26846 11.6444C9.22323 11.5352 9.19995 11.4182 9.19995 11.3C9.20169 11.2396 9.20838 11.1794 9.21995 11.12L7.66995 10.19C7.51096 10.3255 7.30889 10.4 7.09998 10.4C6.89106 10.4 6.68899 10.3255 6.53 10.19L4.98 11.12C4.9916 11.1793 4.99829 11.2396 5 11.3C5 11.478 4.94722 11.652 4.84832 11.8C4.74943 11.948 4.60887 12.0634 4.44442 12.1315C4.27996 12.1996 4.099 12.2174 3.92442 12.1827C3.74984 12.148 3.58947 12.0623 3.4636 11.9364C3.33774 11.8105 3.25202 11.6502 3.21729 11.4756C3.18257 11.301 3.20039 11.12 3.26851 10.9556C3.33663 10.7911 3.45198 10.6506 3.59999 10.5517C3.74799 10.4528 3.922 10.4 4.1 10.4C4.30909 10.3991 4.51149 10.4736 4.67 10.61L6.22 9.68C6.20843 9.62065 6.20174 9.56045 6.2 9.5C6.2 9.26131 6.29482 9.03239 6.4636 8.8636C6.63239 8.69482 6.86131 8.6 7.1 8.6C7.33869 8.6 7.56761 8.69482 7.7364 8.8636C7.90518 9.03239 8 9.26131 8 9.5C7.99829 9.56045 7.9916 9.62065 7.98 9.68L9.53 10.61C9.68851 10.4736 9.89091 10.3991 10.1 10.4C10.2322 10.3977 10.3629 10.4287 10.48 10.49L11.09 9.88C11.0287 9.76286 10.9977 9.6322 11 9.5C11 9.322 11.0528 9.14799 11.1517 8.99999C11.2506 8.85198 11.3911 8.73663 11.5556 8.66851C11.72 8.60039 11.901 8.58257 12.0756 8.61729C12.2502 8.65202 12.4105 8.73774 12.5364 8.8636C12.6623 8.98947 12.748 9.14984 12.7827 9.32442C12.8174 9.499 12.7996 9.67996 12.7315 9.84441C12.6634 10.0089 12.548 10.1494 12.4 10.2483C12.252 10.3472 12.078 10.4 11.9 10.4ZM11.9 5C11.8396 4.99828 11.7794 4.99159 11.72 4.98L10.79 6.53C10.9263 6.68852 11.0009 6.89091 11 7.1C11 7.33869 10.9052 7.56761 10.7364 7.7364C10.5676 7.90518 10.3387 8 10.1 8C9.86131 8 9.63239 7.90518 9.4636 7.7364C9.29482 7.56761 9.2 7.33869 9.2 7.1C9.20174 7.03955 9.20843 6.97935 9.22 6.92L7.67 5.99C7.51102 6.12557 7.30893 6.20004 7.1 6.20004C6.89107 6.20004 6.68898 6.12557 6.53 5.99L4.98 6.92C4.9916 6.97935 4.99829 7.03955 5 7.1C5 7.278 4.94722 7.45201 4.84832 7.60001C4.74943 7.74802 4.60887 7.86337 4.44442 7.93149C4.27996 7.99961 4.099 8.01743 3.92442 7.98271C3.74984 7.94798 3.58947 7.86226 3.4636 7.7364C3.33774 7.61053 3.25202 7.45016 3.21729 7.27558C3.18257 7.101 3.20039 6.92004 3.26851 6.75558C3.33663 6.59113 3.45198 6.45057 3.59999 6.35168C3.74799 6.25278 3.922 6.2 4.1 6.2C4.30909 6.19907 4.51149 6.27364 4.67 6.41L6.22 5.48C6.20843 5.42065 6.20174 5.36045 6.2 5.3C6.2 5.06131 6.29482 4.83239 6.4636 4.6636C6.63239 4.49482 6.86131 4.4 7.1 4.4C7.33869 4.4 7.56761 4.49482 7.7364 4.6636C7.90518 4.83239 8 5.06131 8 5.3C7.99829 5.36045 7.9916 5.42065 7.98 5.48L9.53 6.41C9.68851 6.27364 9.89091 6.19907 10.1 6.2C10.1604 6.20172 10.2206 6.20841 10.28 6.22L11.21 4.67C11.0737 4.51148 10.9991 4.30909 11 4.1C11 3.922 11.0528 3.74799 11.1517 3.59999C11.2506 3.45198 11.3911 3.33663 11.5556 3.26851C11.72 3.20039 11.901 3.18257 12.0756 3.21729C12.2502 3.25202 12.4105 3.33774 12.5364 3.4636C12.6623 3.58947 12.748 3.74984 12.7827 3.92442C12.8174 4.099 12.7996 4.27996 12.7315 4.44442C12.6634 4.60887 12.548 4.74943 12.4 4.84832C12.252 4.94722 12.078 5 11.9 5Z" fill="#0D2B49"/>
</svg>
