<svg width="16" height="16" viewBox="0 0 16 16" fill="none" xmlns="http://www.w3.org/2000/svg">
<path d="M10.54 10.85C10.55 10.89 10.54 10.94 10.53 10.98C10.52 11.02 10.5 11.06 10.48 11.1C10.45 11.13 10.42 11.16 10.38 11.18C10.33 11.21 10.28 11.22 10.22 11.22C10.16 11.23 10.11 11.21 10.06 11.18C10.009 11.1575 9.96685 11.1188 9.94 11.07C9.76266 10.7776 9.51531 10.534 9.22025 10.3612C8.9252 10.1883 8.59175 10.0917 8.25 10.08C7.89 10.05 7.53 10.09 7.19 10.18C6.87 10.28 6.58 10.46 6.35 10.7C6.24 10.81 6.14 10.93 6.06 11.07C6.04 11.1 6.01 11.14 5.97 11.16C5.94 11.19 5.9 11.21 5.86 11.22C5.82 11.23 5.78 11.23 5.74 11.22C5.69 11.22 5.65 11.2 5.62 11.18C5.5825 11.159 5.54871 11.132 5.52 11.1C5.49911 11.0619 5.48235 11.0217 5.47 10.98C5.46 10.94 5.45 10.89 5.46 10.85C5.46876 10.8086 5.48218 10.7684 5.5 10.73C5.86 10.15 6.42 9.72 7.07 9.53C7.48 9.44 7.9 9.41 8.31 9.44C8.65 9.45 8.98 9.52 9.29 9.66C9.79 9.89 10.21 10.26 10.5 10.73C10.52 10.77 10.53 10.81 10.54 10.85ZM8 2.5C4.967 2.5 2.5 4.967 2.5 8C2.5 11.033 4.967 13.5 8 13.5C11.033 13.5 13.5 11.033 13.5 8C13.5 4.967 11.033 2.5 8 2.5ZM8 1.5C9.72391 1.5 11.3772 2.18482 12.5962 3.40381C13.8152 4.62279 14.5 6.27609 14.5 8C14.5 9.72391 13.8152 11.3772 12.5962 12.5962C11.3772 13.8152 9.72391 14.5 8 14.5C6.27609 14.5 4.62279 13.8152 3.40381 12.5962C2.18482 11.3772 1.5 9.72391 1.5 8C1.5 6.27609 2.18482 4.62279 3.40381 3.40381C4.62279 2.18482 6.27609 1.5 8 1.5ZM6.25 5.482C6.05109 5.482 5.86032 5.56102 5.71967 5.70167C5.57902 5.84232 5.5 6.03309 5.5 6.232C5.5 6.43091 5.57902 6.62168 5.71967 6.76233C5.86032 6.90298 6.05109 6.982 6.25 6.982C6.44891 6.982 6.63968 6.90298 6.78033 6.76233C6.92098 6.62168 7 6.43091 7 6.232C7 6.03309 6.92098 5.84232 6.78033 5.70167C6.63968 5.56102 6.44891 5.482 6.25 5.482ZM9.75 5.482C9.55109 5.482 9.36032 5.56102 9.21967 5.70167C9.07902 5.84232 9 6.03309 9 6.232C9 6.43091 9.07902 6.62168 9.21967 6.76233C9.36032 6.90298 9.55109 6.982 9.75 6.982C9.94891 6.982 10.1397 6.90298 10.2803 6.76233C10.421 6.62168 10.5 6.43091 10.5 6.232C10.5 6.03309 10.421 5.84232 10.2803 5.70167C10.1397 5.56102 9.94891 5.482 9.75 5.482Z" fill="#0D2B49"/>
</svg>
