<svg width="16" height="16" viewBox="0 0 16 16" fill="none" xmlns="http://www.w3.org/2000/svg">
<path d="M12.6 3.4C11.38 2.18 9.72 1.5 8 1.5C6.28 1.5 4.62 2.18 3.4 3.4C2.18241 4.62116 1.49908 6.27554 1.5 8C1.5 9.72 2.18 11.38 3.4 12.6C4.62 13.82 6.28 14.5 8 14.5C9.72 14.5 11.38 13.82 12.6 12.6C13.8176 11.3788 14.5009 9.72446 14.5 8C14.5 6.28 13.82 4.62 12.6 3.4ZM9.22 5.7C9.28827 5.62496 9.37104 5.56455 9.46333 5.52242C9.55561 5.48029 9.65548 5.45733 9.75689 5.45491C9.85831 5.45248 9.95916 5.47066 10.0533 5.50834C10.1475 5.54602 10.2331 5.60241 10.3049 5.67411C10.3766 5.74581 10.4331 5.83132 10.4709 5.92547C10.5086 6.01962 10.5269 6.12046 10.5246 6.22188C10.5223 6.32329 10.4994 6.42319 10.4573 6.51551C10.4153 6.60783 10.355 6.69067 10.28 6.759C10.1375 6.8889 9.95039 6.95891 9.7576 6.95449C9.56481 6.95008 9.38113 6.87157 9.24471 6.73527C9.10828 6.59898 9.0296 6.41537 9.025 6.22258C9.0204 6.0298 9.09023 5.84265 9.22 5.7ZM5.72 5.7C5.78826 5.62496 5.87104 5.56455 5.96333 5.52242C6.05561 5.48029 6.15548 5.45733 6.25689 5.45491C6.35831 5.45248 6.45916 5.47066 6.55335 5.50834C6.64754 5.54602 6.7331 5.60241 6.80487 5.67411C6.87663 5.74581 6.93311 5.83132 6.97087 5.92547C7.00864 6.01962 7.02691 6.12046 7.02459 6.22188C7.02226 6.32329 6.99939 6.42319 6.95735 6.51551C6.91531 6.60783 6.85498 6.69067 6.78 6.759C6.63748 6.8889 6.45039 6.95891 6.2576 6.95449C6.06481 6.95008 5.88113 6.87157 5.74471 6.73527C5.60828 6.59898 5.5296 6.41537 5.525 6.22258C5.5204 6.0298 5.59023 5.84265 5.72 5.7ZM10.73 10.44C10.67 10.5 10.59 10.53 10.5 10.53H5.5C5.43674 10.5319 5.37437 10.5148 5.3209 10.4809C5.26743 10.4471 5.22533 10.398 5.2 10.34C5.18062 10.2994 5.17038 10.255 5.17 10.21C5.17 10.12 5.2 10.04 5.27 9.98C5.33 9.92 5.41 9.88 5.5 9.88H10.5C10.59 9.88 10.67 9.92 10.73 9.98C10.8 10.04 10.83 10.12 10.83 10.21C10.83 10.29 10.8 10.37 10.73 10.44Z" fill="#0D2B49"/>
</svg>
