<svg width="16" height="16" viewBox="0 0 16 16" fill="none" xmlns="http://www.w3.org/2000/svg">
<path d="M12.6 3.4C11.3788 2.18241 9.72446 1.49908 8 1.5C6.28 1.5 4.62 2.18 3.4 3.4C2.18241 4.62116 1.49908 6.27554 1.5 8C1.5 9.72 2.18 11.38 3.4 12.6C4.62116 13.8176 6.27554 14.5009 8 14.5C9.72 14.5 11.38 13.82 12.6 12.6C13.8137 11.3763 14.4964 9.72355 14.5 8C14.5 6.28 13.81 4.62 12.6 3.4ZM5.5 6.23C5.49632 6.12927 5.51298 6.02883 5.54899 5.93469C5.585 5.84054 5.63962 5.75462 5.70958 5.68206C5.77954 5.6095 5.86341 5.55178 5.95617 5.51236C6.04894 5.47294 6.1487 5.45262 6.2495 5.45262C6.3503 5.45262 6.45006 5.47294 6.54283 5.51236C6.63559 5.55178 6.71946 5.6095 6.78942 5.68206C6.85939 5.75462 6.914 5.84054 6.95001 5.93469C6.98602 6.02883 7.00268 6.12927 6.999 6.23C6.99191 6.42404 6.90984 6.60777 6.77006 6.74254C6.63028 6.87731 6.44367 6.95262 6.2495 6.95262C6.05533 6.95262 5.86873 6.87731 5.72894 6.74254C5.58916 6.60777 5.50709 6.42404 5.5 6.23ZM8.01 10.48C6.9 10.48 6 9.8 6 8.98H10C10 9.8 9.11 10.48 8.01 10.48ZM10.28 6.76C10.2117 6.83504 10.129 6.89545 10.0367 6.93758C9.94439 6.97971 9.84452 7.00268 9.74311 7.0051C9.64169 7.00752 9.54084 6.98934 9.44665 6.95166C9.35247 6.91398 9.2669 6.85759 9.19514 6.78589C9.12337 6.71419 9.0669 6.62868 9.02913 6.53453C8.99136 6.44038 8.97309 6.33954 8.97541 6.23812C8.97774 6.13671 9.00061 6.03682 9.04265 5.94449C9.08469 5.85217 9.14503 5.76934 9.22 5.701C9.36253 5.5711 9.54961 5.50109 9.7424 5.50551C9.93519 5.50992 10.1189 5.58843 10.2553 5.72473C10.3917 5.86102 10.4704 6.04463 10.475 6.23742C10.4796 6.4302 10.4098 6.61735 10.28 6.76Z" fill="#0D2B49"/>
</svg>
