<svg width="16" height="16" viewBox="0 0 16 16" fill="none" xmlns="http://www.w3.org/2000/svg">
<path d="M10.54 9.8C10.53 9.85 10.52 9.89 10.5 9.93C10.14 10.51 9.58 10.94 8.93 11.12C8.52 11.22 8.1 11.25 7.69 11.22C7.35 11.21 7.02 11.13 6.71 10.99C6.21 10.77 5.79 10.39 5.5 9.93C5.48071 9.88873 5.46725 9.84498 5.46 9.8C5.45 9.76 5.46 9.72 5.47 9.68C5.48 9.63 5.5 9.6 5.52 9.56C5.55104 9.52755 5.58447 9.49746 5.62 9.47C5.67 9.45 5.72 9.43 5.78 9.43C5.84 9.43 5.89 9.44 5.94 9.47C5.99 9.5 6.03 9.54 6.06 9.59C6.24 9.88 6.48 10.12 6.78 10.3C7.07 10.47 7.41 10.56 7.75 10.58C8.11 10.6 8.47 10.57 8.81 10.47C9.13 10.38 9.42 10.2 9.65 9.96C9.76 9.85 9.86 9.72 9.94 9.59C9.96 9.55 9.99 9.52 10.03 9.49C10.06 9.47 10.1 9.45 10.14 9.44C10.18 9.43 10.22 9.43 10.26 9.43C10.31 9.44 10.35 9.45 10.38 9.47C10.4155 9.49746 10.449 9.52755 10.48 9.56C10.5 9.6 10.52 9.63 10.53 9.68C10.54 9.72 10.55 9.76 10.54 9.8ZM8 2.5C4.967 2.5 2.5 4.967 2.5 8C2.5 11.033 4.967 13.5 8 13.5C11.033 13.5 13.5 11.033 13.5 8C13.5 4.967 11.033 2.5 8 2.5ZM8 1.5C9.72391 1.5 11.3772 2.18482 12.5962 3.40381C13.8152 4.62279 14.5 6.27609 14.5 8C14.5 9.72391 13.8152 11.3772 12.5962 12.5962C11.3772 13.8152 9.72391 14.5 8 14.5C6.27609 14.5 4.62279 13.8152 3.40381 12.5962C2.18482 11.3772 1.5 9.72391 1.5 8C1.5 6.27609 2.18482 4.62279 3.40381 3.40381C4.62279 2.18482 6.27609 1.5 8 1.5ZM6.25 5.482C6.05109 5.482 5.86032 5.56102 5.71967 5.70167C5.57902 5.84232 5.5 6.03309 5.5 6.232C5.5 6.43091 5.57902 6.62168 5.71967 6.76233C5.86032 6.90298 6.05109 6.982 6.25 6.982C6.44891 6.982 6.63968 6.90298 6.78033 6.76233C6.92098 6.62168 7 6.43091 7 6.232C7 6.03309 6.92098 5.84232 6.78033 5.70167C6.63968 5.56102 6.44891 5.482 6.25 5.482ZM9.75 5.482C9.55109 5.482 9.36032 5.56102 9.21967 5.70167C9.07902 5.84232 9 6.03309 9 6.232C9 6.43091 9.07902 6.62168 9.21967 6.76233C9.36032 6.90298 9.55109 6.982 9.75 6.982C9.94891 6.982 10.1397 6.90298 10.2803 6.76233C10.421 6.62168 10.5 6.43091 10.5 6.232C10.5 6.03309 10.421 5.84232 10.2803 5.70167C10.1397 5.56102 9.94891 5.482 9.75 5.482Z" fill="#0D2B49"/>
</svg>
