<svg width="16" height="16" viewBox="0 0 16 16" fill="none" xmlns="http://www.w3.org/2000/svg">
<path d="M12.6 3.4C11.38 2.18 9.72 1.5 8 1.5C6.28 1.5 4.62 2.18 3.4 3.4C2.18241 4.62116 1.49908 6.27554 1.5 8C1.5 9.72 2.18 11.38 3.4 12.6C4.62 13.82 6.28 14.5 8 14.5C9.72 14.5 11.38 13.82 12.6 12.6C13.8176 11.3788 14.5009 9.72446 14.5 8C14.5 6.28 13.82 4.62 12.6 3.4ZM9.22 5.7C9.28827 5.62496 9.37104 5.56455 9.46333 5.52242C9.55561 5.48029 9.65548 5.45733 9.75689 5.45491C9.85831 5.45248 9.95916 5.47066 10.0533 5.50834C10.1475 5.54602 10.2331 5.60241 10.3049 5.67411C10.3766 5.74581 10.4331 5.83132 10.4709 5.92547C10.5086 6.01962 10.5269 6.12046 10.5246 6.22188C10.5223 6.32329 10.4994 6.42319 10.4573 6.51551C10.4153 6.60783 10.355 6.69067 10.28 6.759C10.1375 6.8889 9.95039 6.95891 9.7576 6.95449C9.56481 6.95008 9.38113 6.87157 9.24471 6.73527C9.10828 6.59898 9.0296 6.41537 9.025 6.22258C9.0204 6.0298 9.09023 5.84265 9.22 5.7ZM5.72 5.7C5.78826 5.62496 5.87104 5.56455 5.96333 5.52242C6.05561 5.48029 6.15548 5.45733 6.25689 5.45491C6.35831 5.45248 6.45916 5.47066 6.55335 5.50834C6.64754 5.54602 6.7331 5.60241 6.80487 5.67411C6.87663 5.74581 6.93311 5.83132 6.97087 5.92547C7.00864 6.01962 7.02691 6.12046 7.02459 6.22188C7.02226 6.32329 6.99939 6.42319 6.95735 6.51551C6.91531 6.60783 6.85498 6.69067 6.78 6.759C6.63748 6.8889 6.45039 6.95891 6.2576 6.95449C6.06481 6.95008 5.88113 6.87157 5.74471 6.73527C5.60828 6.59898 5.5296 6.41537 5.525 6.22258C5.5204 6.0298 5.59023 5.84265 5.72 5.7ZM10.5 9.93C10.14 10.51 9.58 10.94 8.93 11.12C8.52 11.22 8.1 11.25 7.69 11.22C7.35 11.21 7.02 11.13 6.71 10.99C6.21 10.77 5.79 10.39 5.5 9.93C5.48075 9.88871 5.46729 9.84497 5.46 9.8C5.45 9.76 5.46 9.72 5.47 9.68C5.48 9.63 5.5 9.6 5.52 9.56C5.55 9.53 5.58 9.5 5.62 9.47C5.67 9.45 5.72 9.43 5.78 9.43C5.84 9.43 5.89 9.44 5.94 9.47C5.99 9.5 6.03 9.54 6.06 9.59C6.24 9.88 6.48 10.12 6.78 10.3C7.07 10.47 7.41 10.56 7.75 10.58C8.11 10.6 8.47 10.57 8.81 10.47C9.13 10.38 9.42 10.2 9.65 9.96C9.76 9.85 9.86 9.72 9.94 9.59C9.96 9.55 9.99 9.52 10.03 9.49C10.0637 9.46742 10.1008 9.45053 10.14 9.44C10.18 9.43 10.22 9.43 10.26 9.43C10.31 9.44 10.35 9.45 10.38 9.47C10.42 9.5 10.45 9.53 10.48 9.56C10.5 9.6 10.52 9.63 10.53 9.68C10.54 9.72 10.55 9.76 10.54 9.8C10.53 9.85 10.52 9.89 10.5 9.93Z" fill="#0D2B49"/>
</svg>
