<svg width="16" height="16" viewBox="0 0 16 16" fill="none" xmlns="http://www.w3.org/2000/svg">
<path d="M8 14.5C5.705 14.5 3.795 13.009 3.337 12.568C3.30372 12.5363 3.27874 12.497 3.26426 12.4534C3.24979 12.4098 3.24626 12.3633 3.254 12.318L3.516 10.702C3.56109 10.5824 3.63062 10.4735 3.72016 10.3822C3.80969 10.291 3.91726 10.2194 4.036 10.172L6.073 9.392L6.493 10.879L6.858 12.179L7.543 9.857C7.543 9.857 7.315 9.569 7.315 9.384C7.315 9.26293 7.36309 9.14682 7.4487 9.06121C7.53431 8.9756 7.65043 8.9275 7.7715 8.9275C7.89257 8.9275 8.00868 8.9756 8.09429 9.06121C8.1799 9.14682 8.228 9.26293 8.228 9.384C8.228 9.569 8 9.848 8 9.848L8.685 12.178L9.068 10.832L9.47 9.392L11.927 10.192C12.0565 10.2338 12.1752 10.3038 12.2746 10.3968C12.374 10.4898 12.4516 10.6035 12.502 10.73L12.747 12.326C12.7541 12.3711 12.7501 12.4173 12.7353 12.4606C12.7205 12.5038 12.6953 12.5427 12.662 12.574C12.203 13.01 10.293 14.5 8 14.5ZM10.048 4.851C10.063 4.747 10.063 4.642 10.063 4.538C10.0624 4.40701 10.0547 4.27616 10.04 4.146C10.0555 4.0602 10.0632 3.97318 10.063 3.886C10.063 3.389 9.913 2.945 9.678 2.666C9.65406 2.62404 9.62046 2.58839 9.58 2.562C9.194 1.909 8.597 1.535 7.925 1.5C7.116 1.509 6.452 1.892 6.315 2.388C6.20098 2.41891 6.09692 2.47886 6.013 2.562C5.726 2.814 5.53 3.311 5.53 3.885C5.53 3.972 5.537 4.068 5.553 4.146C5.53728 4.27607 5.5296 4.40698 5.53 4.538C5.53 4.642 5.53 4.747 5.545 4.851C5.485 5.025 5.469 5.261 5.515 5.521C5.56 5.774 5.651 5.991 5.757 6.122C6.119 7.419 6.897 8.455 7.797 8.455C8.696 8.455 9.474 7.419 9.837 6.122C9.942 5.992 10.033 5.774 10.078 5.522C10.124 5.26 10.108 5.025 10.048 4.852V4.851Z" fill="#0D2B49"/>
</svg>
