<svg width="16" height="16" viewBox="0 0 16 16" fill="none" xmlns="http://www.w3.org/2000/svg">
<path d="M11.773 7.21012C11.463 7.45012 11.253 7.54012 11.073 7.54012C10.893 7.54012 10.743 7.45012 10.533 7.32012C10.033 7.03012 9.84299 6.98012 9.31299 6.96012H9.30299C9.24299 6.96012 9.17299 6.97012 9.11299 6.98012C8.82299 7.03012 8.56299 7.18012 8.36299 7.34012C8.16299 7.49012 8.01299 7.65012 7.96299 7.70012L8.51299 8.22012C8.71299 8.00012 9.08299 7.72012 9.28299 7.72012C9.28299 7.72012 9.28299 7.72012 9.29299 7.72012C9.66299 7.69012 9.76299 7.74012 10.193 8.00012C10.463 8.16012 10.743 8.30012 11.063 8.30012C11.353 8.30012 11.693 8.19012 12.123 7.89012C12.153 7.87012 12.193 7.84012 12.233 7.81012L12.123 7.67012L11.773 7.21012Z" fill="#0D2B49"/>
<path d="M11.803 5.48012C11.493 5.72012 11.283 5.81012 11.103 5.81012C10.923 5.81012 10.773 5.72012 10.563 5.60012C10.063 5.30012 9.87299 5.26012 9.35299 5.23012H9.32299C8.69299 5.23012 8.11299 5.85012 7.99299 5.97012L8.46299 6.41012L8.54299 6.49012C8.60299 6.43012 8.67299 6.36012 8.75299 6.30012C8.94299 6.14012 9.17299 5.99012 9.31299 5.99012C9.31299 5.99012 9.31299 5.99012 9.32299 5.99012C9.75299 5.96012 9.79299 6.02012 10.223 6.27012C10.503 6.43012 10.773 6.57012 11.103 6.57012C11.203 6.57012 11.323 6.56012 11.443 6.52012C11.613 6.48012 11.793 6.39012 12.003 6.26012C12.043 6.24012 12.083 6.21012 12.123 6.18012C12.163 6.15012 12.213 6.12012 12.263 6.08012L12.123 5.90012L11.803 5.48012Z" fill="#0D2B49"/>
<path d="M14.503 3.86012V3.12012H14.063C14.063 3.12012 14.063 3.65012 13.483 3.65012C12.873 3.65012 12.873 3.12012 12.873 3.12012H12.243C12.243 3.12012 12.243 3.65012 11.633 3.65012C11.053 3.65012 11.053 3.12012 11.053 3.12012H10.423C10.423 3.12012 10.423 3.65012 9.82299 3.65012C9.23299 3.65012 9.23299 3.12012 9.23299 3.12012H8.59299C8.59299 3.12012 8.59299 3.65012 8.00299 3.65012C7.40299 3.65012 7.40299 3.12012 7.40299 3.12012H6.76299C6.76299 3.12012 6.76299 3.65012 6.18299 3.65012C5.57299 3.65012 5.57299 3.12012 5.57299 3.12012H4.94299C4.94299 3.12012 4.94299 3.65012 4.36299 3.65012C3.75299 3.65012 3.75299 3.12012 3.75299 3.12012H3.12299C3.12299 3.12012 3.12299 3.65012 2.54299 3.65012C1.93299 3.65012 1.93299 3.12012 1.93299 3.12012H1.50299V3.86012C1.50299 3.86012 2.03299 3.86012 2.03299 4.44012C2.03299 5.05012 1.50299 5.05012 1.50299 5.05012V5.46012C1.50299 5.46012 2.03299 5.46012 2.03299 6.08012C2.03299 6.66012 1.50299 6.66012 1.50299 6.66012V7.29012C1.50299 7.29012 2.03299 7.29012 2.03299 7.89012C2.03299 8.48012 1.50299 8.48012 1.50299 8.48012V9.12012C1.50299 9.12012 2.03299 9.12012 2.03299 9.71012C2.03299 10.3101 1.50299 10.3101 1.50299 10.3101V10.9501C1.50299 10.9501 2.03299 10.9501 2.03299 11.5301C2.03299 12.1401 1.50299 12.1401 1.50299 12.1401V13.0201H1.93299C1.93299 13.0201 1.93299 12.4801 2.54299 12.4801C3.12299 12.4801 3.12299 13.0201 3.12299 13.0201H3.75299C3.75299 13.0201 3.75299 12.4801 4.36299 12.4801C4.94299 12.4801 4.94299 13.0201 4.94299 13.0201H5.57299C5.57299 13.0201 5.57299 12.4801 6.18299 12.4801C6.76299 12.4801 6.76299 13.0201 6.76299 13.0201H7.40299C7.40299 13.0201 7.40299 12.4801 8.00299 12.4801C8.59299 12.4801 8.59299 13.0201 8.59299 13.0201H9.23299C9.23299 13.0201 9.23299 12.4801 9.82299 12.4801C10.423 12.4801 10.423 13.0201 10.423 13.0201H11.053C11.053 13.0201 11.053 12.4801 11.633 12.4801C12.243 12.4801 12.243 13.0201 12.243 13.0201H12.873C12.873 13.0201 12.873 12.4801 13.483 12.4801C14.063 12.4801 14.063 13.0201 14.063 13.0201H14.503V12.1401C14.503 12.1401 13.963 12.1401 13.963 11.5301C13.963 10.9501 14.503 10.9501 14.503 10.9501V10.3101C14.503 10.3101 13.963 10.3101 13.963 9.71012C13.963 9.12012 14.503 9.12012 14.503 9.12012V8.48012C14.503 8.48012 13.963 8.48012 13.963 7.89012C13.963 7.29012 14.503 7.29012 14.503 7.29012V6.66012C14.503 6.66012 13.963 6.66012 13.963 6.08012C13.963 5.46012 14.503 5.46012 14.503 5.46012V5.05012C14.503 5.05012 13.963 5.05012 13.963 4.44012C13.963 3.86012 14.503 3.86012 14.503 3.86012ZM12.833 7.35012L13.283 7.95012L12.683 8.41012C12.493 8.55012 12.303 8.67012 12.123 8.76012V10.8201H3.87299V5.18012H7.73299C8.10299 4.85012 8.66299 4.48012 9.32299 4.48012H9.38299C10.013 4.50012 10.323 4.58012 10.953 4.95012C11.003 4.98012 11.063 5.02012 11.113 5.04012C11.153 5.02012 11.233 4.97012 11.353 4.88012L11.953 4.43012L12.403 5.02012L12.863 5.63012L13.313 6.23012L12.713 6.68012C12.623 6.75012 12.533 6.81012 12.453 6.86012L12.833 7.35012Z" fill="#0D2B49"/>
</svg>
