<svg width="16" height="16" viewBox="0 0 16 16" fill="none" xmlns="http://www.w3.org/2000/svg">
<path d="M12 12.882V14.5H4V12.882C4 12.389 4.398 11.989 4.889 11.989H5.333C5.333 8.475 7.559 6.389 8 5.964C7.916 6.024 6.861 6.159 6.212 5.77C6.212 5.77 5.852 5.964 5.476 6.282C5.118 6.586 4.233 6.062 4.233 6.062C4.233 6.062 4 5.933 4 5.698C4 5.491 4.021 4.942 4 4.878C4.172 4.783 5.88 3.481 5.88 3.241C5.88 2.984 6.166 2.913 6.166 2.913L6.976 2.586L6.752 1.5C6.752 1.5 7.675 1.542 8.136 2C8.782 2.018 9.566 2.221 10.14 2.959C11.307 4.457 11.366 6.169 10.64 7.967C10.249 8.934 10.666 11.097 10.666 11.989H11.11C11.6 11.989 11.999 12.389 11.999 12.882H12Z" fill="#0D2B49"/>
</svg>
