<svg width="16" height="16" viewBox="0 0 16 16" fill="none" xmlns="http://www.w3.org/2000/svg">
<path fill-rule="evenodd" clip-rule="evenodd" d="M8.5 11.15C7.348 11.383 6.175 11.5 5 11.5C3.825 11.5 2.652 11.383 1.5 11.15C1.54978 10.8217 1.69772 10.516 1.92438 10.2733C2.15104 10.0306 2.44582 9.86211 2.77 9.79L3.46 9.56C3.74 9.487 3.978 9.302 4.12 9.05V8.44C3.84332 8.18783 3.66006 7.8495 3.6 7.48C3.49 7.47 3.39 7.34 3.34 6.95C3.31 6.73 3.37 6.62 3.44 6.57C3.4274 6.46379 3.42072 6.35696 3.42 6.25C3.40311 6.0301 3.43113 5.80906 3.50236 5.60033C3.5736 5.3916 3.68655 5.19954 3.83434 5.03584C3.98214 4.87214 4.1617 4.74021 4.36209 4.6481C4.56248 4.55598 4.77952 4.50559 5 4.5C5.21296 4.50444 5.42287 4.55148 5.61735 4.63836C5.81184 4.72525 5.98695 4.8502 6.13235 5.00586C6.27775 5.16152 6.39051 5.34472 6.46396 5.54466C6.53741 5.7446 6.57006 5.95723 6.56 6.17L6.33 6.29C6.14871 6.38065 5.99145 6.51293 5.8711 6.67603C5.75074 6.83912 5.67071 7.02839 5.63754 7.22835C5.60438 7.42831 5.61903 7.63328 5.68029 7.8265C5.74155 8.01971 5.84768 8.19568 5.99 8.34C5.95349 8.37731 5.91328 8.41081 5.87 8.44V9.05C6.018 9.3 6.259 9.484 6.54 9.56L7.23 9.79C7.55418 9.86211 7.84896 10.0306 8.07562 10.2733C8.30228 10.516 8.45022 10.8217 8.5 11.15ZM14 6.5H13.5V5C13.5 4.86739 13.4473 4.74021 13.3536 4.64645C13.2598 4.55268 13.1326 4.5 13 4.5C12.8674 4.5 12.7402 4.55268 12.6464 4.64645C12.5527 4.74021 12.5 4.86739 12.5 5V6.5H12C11.8674 6.5 11.7402 6.55268 11.6464 6.64645C11.5527 6.74021 11.5 6.86739 11.5 7C11.5 7.13261 11.5527 7.25979 11.6464 7.35355C11.7402 7.44732 11.8674 7.5 12 7.5H12.5V11C12.5 11.1326 12.5527 11.2598 12.6464 11.3536C12.7402 11.4473 12.8674 11.5 13 11.5C13.1326 11.5 13.2598 11.4473 13.3536 11.3536C13.4473 11.2598 13.5 11.1326 13.5 11V7.5H14C14.1326 7.5 14.2598 7.44732 14.3536 7.35355C14.4473 7.25979 14.5 7.13261 14.5 7C14.5 6.86739 14.4473 6.74021 14.3536 6.64645C14.2598 6.55268 14.1326 6.5 14 6.5ZM10.5 9.095V5.782C10.5 5.73397 10.4876 5.68674 10.4642 5.6448C10.4408 5.60286 10.4071 5.5676 10.3662 5.54236C10.3253 5.51712 10.2787 5.50273 10.2307 5.50057C10.1827 5.49841 10.135 5.50854 10.092 5.53L6.78 7.186C6.73328 7.20947 6.694 7.24546 6.66655 7.28996C6.63911 7.33446 6.62457 7.38572 6.62457 7.438C6.62457 7.49028 6.63911 7.54154 6.66655 7.58604C6.694 7.63054 6.73328 7.66653 6.78 7.69L10.092 9.347C10.135 9.36846 10.1827 9.37859 10.2307 9.37643C10.2787 9.37427 10.3253 9.35988 10.3662 9.33464C10.4071 9.3094 10.4408 9.27414 10.4642 9.2322C10.4876 9.19026 10.5 9.14303 10.5 9.095Z" fill="#0D2B49"/>
</svg>
