<svg width="16" height="16" viewBox="0 0 16 16" fill="none" xmlns="http://www.w3.org/2000/svg">
<path d="M11.489 10.354C9.14899 12.454 6.25599 11.842 6.10599 11.812C6.00599 11.792 5.92599 11.722 5.92599 11.612C5.90599 11.502 5.95599 11.402 6.04599 11.352C7.15599 10.802 7.99799 9.82203 8.21899 8.87403C7.16899 9.66403 5.39899 10.864 2.72899 12.304L2.49899 11.874C3.09899 11.544 3.64899 11.234 4.15899 10.934V10.884C3.69899 7.08403 5.63899 5.34403 6.72899 4.96403C10.849 3.49403 13.159 3.70403 13.249 3.71403C13.369 3.72403 13.459 3.82403 13.469 3.94403C13.65 6.84403 12.979 9.00403 11.489 10.354Z" fill="#0D2B49"/>
</svg>
