<svg width="16" height="16" viewBox="0 0 16 16" fill="none" xmlns="http://www.w3.org/2000/svg">
<path d="M11.407 3.51117C11.017 2.67117 10.407 2.15117 9.89701 1.85117C10.417 2.14117 11.027 2.66117 11.407 3.51117Z" fill="#0D2B49"/>
<path d="M11.717 4.62117C11.677 4.34117 11.617 4.09117 11.537 3.86117C11.627 4.09117 11.677 4.35117 11.717 4.62117Z" fill="#0D2B49"/>
<path d="M11.491 12.5782C9.15101 14.6782 6.25801 14.0662 6.10801 14.0362C6.00801 14.0162 5.92801 13.9462 5.92801 13.8362C5.90801 13.7262 5.95801 13.6262 6.04801 13.5762C7.15801 13.0262 8.00001 12.0462 8.22101 11.0982C7.17101 11.8882 5.40101 13.0882 2.73101 14.5282L2.50101 14.0982C3.10101 13.7682 3.65101 13.4582 4.16101 13.1582V13.1082C3.70101 9.30817 5.64101 7.56817 6.73101 7.18817C10.851 5.71817 13.161 5.92817 13.251 5.93817C13.371 5.94817 13.461 6.04817 13.471 6.16817C13.651 9.06817 12.981 11.2282 11.491 12.5782Z" fill="#0D2B49"/>
<path d="M11.767 5.15617V5.23617C11.527 5.25617 11.267 5.28617 10.987 5.32617C10.857 5.33617 10.717 5.36617 10.577 5.39617C9.16701 5.65617 7.60701 6.11617 6.95701 6.31617L6.70701 6.40617L6.65701 6.41617C6.61701 5.71617 6.69701 5.01617 6.78701 4.45617C6.80701 4.37617 6.81701 4.29617 6.84701 4.21617C6.88701 4.04617 6.93701 3.86617 7.00701 3.70617C7.00701 3.69617 7.00701 3.68617 7.00701 3.68617C7.07701 3.52617 7.14701 3.37617 7.22701 3.22617C7.39701 2.89617 7.62701 2.59617 7.88701 2.32617C8.18701 2.02617 8.49701 1.75617 8.77701 1.52617C8.83701 1.46617 8.93701 1.45617 9.01701 1.49617C9.02701 1.49617 9.06701 1.50617 9.14701 1.53617C9.20701 1.55617 9.28701 1.58617 9.38701 1.62617C9.47701 1.66617 9.58701 1.71617 9.70701 1.77617C9.76701 1.80617 9.82701 1.84617 9.89701 1.87617C10.407 2.17617 11.017 2.69617 11.407 3.53617C11.407 3.53617 11.407 3.53617 11.407 3.54617C11.447 3.65617 11.497 3.76617 11.537 3.88617C11.617 4.11617 11.677 4.36617 11.717 4.64617C11.747 4.80617 11.757 4.97617 11.767 5.15617Z" fill="#0D2B49"/>
</svg>
