<svg width="16" height="16" viewBox="0 0 16 16" fill="none" xmlns="http://www.w3.org/2000/svg">
<path d="M3.43399 10.731C2.37499 9.65105 1.98199 7.76905 3.52399 3.75405C3.56399 3.65405 3.66399 3.58405 3.77399 3.60405C3.77399 3.60405 4.26899 3.41005 5.41499 4.22105C5.94899 4.60005 6.35899 5.03805 7.06399 6.25705C7.06399 6.25705 4.28399 6.75805 3.50399 10.306L3.43399 10.731Z" fill="#0D2B49"/>
<path d="M11.765 5.21405C9.93999 5.37705 8.95899 5.69205 8.03899 5.95205L7.83499 5.62205L7.78499 5.53205C7.76499 5.50205 7.42499 4.90205 6.84499 4.24205C7.01499 3.53205 7.37499 2.87205 7.88499 2.35205C8.18499 2.05205 8.49499 1.78205 8.77499 1.55205C8.83499 1.49205 8.93499 1.48205 9.01499 1.52205C9.05499 1.53105 11.665 2.17405 11.765 5.21405Z" fill="#0D2B49"/>
<path d="M11.491 12.553C9.15099 14.653 6.25799 14.041 6.10799 14.011C6.00799 13.991 5.92799 13.921 5.92799 13.811C5.90799 13.701 5.95799 13.601 6.04799 13.551C7.15799 13.001 7.99999 12.021 8.22099 11.073C7.17099 11.863 5.40099 13.063 2.73099 14.503L2.50099 14.073C3.10099 13.743 3.65099 13.433 4.16099 13.133V13.083C3.70099 9.28305 5.64099 7.54305 6.73099 7.16305C10.851 5.69305 13.161 5.90305 13.251 5.91305C13.371 5.92305 13.461 6.02305 13.471 6.14305C13.651 9.04305 12.981 11.203 11.491 12.553Z" fill="#0D2B49"/>
</svg>
