<svg width="16" height="16" viewBox="0 0 16 16" fill="none" xmlns="http://www.w3.org/2000/svg">
<path d="M13.502 2.49609H2.50195C1.95195 2.49609 1.50195 2.94609 1.50195 3.49609V12.4961C1.50195 13.0561 1.95195 13.4961 2.50195 13.4961H13.502C14.052 13.4961 14.502 13.0561 14.502 12.4961V3.49609C14.502 2.94609 14.052 2.49609 13.502 2.49609ZM5.75195 12.4961H2.50195V10.8161H5.75195V12.4961ZM5.75195 9.81609H2.50195V8.18609H5.75195V9.81609ZM5.75195 7.18609H2.50195V5.49609H5.75195V7.18609ZM13.502 12.4961H6.75195V10.8161H13.502V12.4961ZM13.502 9.81609H6.75195V8.18609H13.502V9.81609ZM13.502 7.18609H6.75195V5.49609H13.502V7.18609Z" fill="#0D2B49"/>
</svg>
