<svg width="16" height="16" viewBox="0 0 16 16" fill="none" xmlns="http://www.w3.org/2000/svg">
<path d="M12.036 3.11494H11.357V5.00194C11.357 5.29794 11.117 5.53794 10.821 5.53794H5.172C4.876 5.53794 4.636 5.29794 4.636 5.00194V3.11494H3.957C3.655 3.11494 3.418 3.35194 3.418 3.65394V13.9619C3.418 14.2589 3.659 14.5009 3.957 14.5009H12.035C12.332 14.5009 12.574 14.2599 12.574 13.9619V3.65394C12.574 3.35194 12.337 3.11494 12.036 3.11494ZM7.15 11.5119L5.657 10.0259L6.361 9.31695L7.156 10.1089L9.638 7.69294L10.336 8.41194L7.15 11.5119Z" fill="#0D2B49"/>
<path d="M10.351 2.57694H9.31C9.17 1.84394 8.46 1.38094 7.738 1.53194C7.21 1.63994 6.79 2.04894 6.682 2.57694H5.635V4.53794H10.351V2.57694Z" fill="#0D2B49"/>
</svg>
