<svg width="16" height="16" viewBox="0 0 16 16" fill="none" xmlns="http://www.w3.org/2000/svg">
<path d="M11.476 2.23319L10.433 1.15019C10.3885 1.10249 10.3348 1.06446 10.275 1.03845C10.2152 1.01244 10.1507 0.999023 10.0855 0.999023C10.0203 0.999023 9.9558 1.01244 9.89602 1.03845C9.83624 1.06446 9.78244 1.10249 9.738 1.15019L8 2.95419L8.348 3.31419C8.44165 3.41083 8.49402 3.54012 8.49402 3.67469C8.49402 3.80926 8.44165 3.93855 8.348 4.03519C8.30354 4.08304 8.24969 4.12122 8.18981 4.14732C8.12993 4.17342 8.06532 4.18689 8 4.18689C7.93468 4.18689 7.87006 4.17342 7.81018 4.14732C7.75031 4.12122 7.69645 4.08304 7.652 4.03519L7.305 3.67519L1.396 9.80219C1.30234 9.89882 1.24997 10.0281 1.24997 10.1627C1.24997 10.2973 1.30234 10.4266 1.396 10.5232L2.453 11.6192C3.03 11.1792 3.843 11.2292 4.364 11.7702C4.886 12.3112 4.934 13.1542 4.51 13.7532L5.567 14.8492C5.762 15.0502 6.067 15.0502 6.262 14.8492L12.171 8.72119L11.823 8.36119C11.7293 8.26455 11.677 8.13526 11.677 8.00069C11.677 7.86612 11.7293 7.73682 11.823 7.64019C11.8675 7.59233 11.9213 7.55416 11.9812 7.52806C12.0411 7.50196 12.1057 7.48849 12.171 7.48849C12.2363 7.48849 12.3009 7.50196 12.3608 7.52806C12.4207 7.55416 12.4745 7.59233 12.519 7.64019L12.866 8.00019L14.604 6.19819C14.6977 6.10155 14.75 5.97226 14.75 5.83769C14.75 5.70312 14.6977 5.57383 14.604 5.47719L13.561 4.39519C13.4268 4.53684 13.2652 4.64966 13.0859 4.72676C12.9067 4.80386 12.7136 4.84362 12.5185 4.84362C12.3234 4.84362 12.1303 4.80386 11.9511 4.72676C11.7718 4.64966 11.6102 4.53684 11.476 4.39519C11.1983 4.10379 11.0434 3.71671 11.0434 3.31419C11.0434 2.91167 11.1983 2.52459 11.476 2.23319ZM11.476 7.27919C11.4315 7.32688 11.3778 7.36492 11.318 7.39093C11.2582 7.41693 11.1937 7.43035 11.1285 7.43035C11.0633 7.43035 10.9988 7.41693 10.939 7.39093C10.8792 7.36492 10.8254 7.32688 10.781 7.27919C10.6876 7.1826 10.6355 7.05352 10.6355 6.91919C10.6355 6.78486 10.6876 6.65578 10.781 6.55919C10.8254 6.51149 10.8792 6.47346 10.939 6.44745C10.9988 6.42144 11.0633 6.40802 11.1285 6.40802C11.1937 6.40802 11.2582 6.42144 11.318 6.44745C11.3778 6.47346 11.4315 6.51149 11.476 6.55919C11.5694 6.65578 11.6215 6.78486 11.6215 6.91919C11.6215 7.05352 11.5694 7.1826 11.476 7.27919ZM10.433 6.19819C10.3885 6.24588 10.3348 6.28392 10.275 6.30993C10.2152 6.33593 10.1507 6.34935 10.0855 6.34935C10.0203 6.34935 9.9558 6.33593 9.89602 6.30993C9.83624 6.28392 9.78244 6.24588 9.738 6.19819C9.543 5.99619 9.543 5.67819 9.738 5.47719C9.933 5.27619 10.238 5.27519 10.433 5.47719C10.5264 5.57378 10.5785 5.70286 10.5785 5.83719C10.5785 5.97152 10.5264 6.1016 10.433 6.19819ZM9.39 5.11619C9.34555 5.16388 9.29176 5.20192 9.23197 5.22793C9.17219 5.25393 9.10769 5.26735 9.0425 5.26735C8.9773 5.26735 8.9128 5.25393 8.85302 5.22793C8.79324 5.20192 8.73944 5.16388 8.695 5.11619C8.501 4.91519 8.501 4.59719 8.695 4.39619C8.889 4.19519 9.195 4.19419 9.39 4.39619C9.48336 4.49278 9.53554 4.62186 9.53554 4.75619C9.53554 4.89052 9.48336 5.0196 9.39 5.11619Z" fill="#0D2B49"/>
</svg>
