<svg width="16" height="16" viewBox="0 0 16 16" fill="none" xmlns="http://www.w3.org/2000/svg">
<path d="M12 5.5H14C14.28 5.5 14.5 5.28 14.5 5V3C14.5 2.72 14.28 2.5 14 2.5H12C11.72 2.5 11.5 2.72 11.5 3V3.5H9.41C9.26 3.07 8.93 2.74 8.5 2.59V2C8.5 1.72 8.28 1.5 8 1.5C7.72 1.5 7.5 1.72 7.5 2V2.59C7.20818 2.69284 6.95545 2.8837 6.77669 3.13625C6.59792 3.38879 6.50192 3.69059 6.50192 4C6.50192 4.30941 6.59792 4.61121 6.77669 4.86375C6.95545 5.1163 7.20818 5.30716 7.5 5.41V6.59C7.07 6.74 6.74 7.07 6.59 7.5H4.5V7C4.5 6.72 4.28 6.5 4 6.5H2C1.72 6.5 1.5 6.72 1.5 7V9C1.5 9.28 1.72 9.5 2 9.5H4C4.28 9.5 4.5 9.28 4.5 9V8.5H6.59C6.74 8.93 7.07 9.26 7.5 9.41V10.59C7.20818 10.6928 6.95545 10.8837 6.77669 11.1362C6.59792 11.3888 6.50192 11.6906 6.50192 12C6.50192 12.3094 6.59792 12.6112 6.77669 12.8638C6.95545 13.1163 7.20818 13.3072 7.5 13.41V14C7.5 14.28 7.72 14.5 8 14.5C8.28 14.5 8.5 14.28 8.5 14V13.41C8.93 13.26 9.26 12.93 9.41 12.5H11.5V13C11.5 13.28 11.72 13.5 12 13.5H14C14.28 13.5 14.5 13.28 14.5 13V11C14.5 10.72 14.28 10.5 14 10.5H12C11.72 10.5 11.5 10.72 11.5 11V11.5H9.41C9.26 11.07 8.93 10.74 8.5 10.59V9.41C8.79182 9.30716 9.04454 9.1163 9.22331 8.86375C9.40208 8.61121 9.49808 8.30941 9.49808 8C9.49808 7.69059 9.40208 7.38879 9.22331 7.13625C9.04454 6.8837 8.79182 6.69284 8.5 6.59V5.41C8.93 5.26 9.26 4.93 9.41 4.5H11.5V5C11.5 5.28 11.72 5.5 12 5.5ZM8 12.5C7.72 12.5 7.5 12.28 7.5 12C7.5 11.72 7.72 11.5 8 11.5C8.28 11.5 8.5 11.72 8.5 12C8.5 12.28 8.28 12.5 8 12.5ZM8 8.5C7.72 8.5 7.5 8.28 7.5 8C7.5 7.72 7.72 7.5 8 7.5C8.28 7.5 8.5 7.72 8.5 8C8.5 8.28 8.28 8.5 8 8.5ZM8 4.5C7.72 4.5 7.5 4.28 7.5 4C7.5 3.72 7.72 3.5 8 3.5C8.28 3.5 8.5 3.72 8.5 4C8.5 4.28 8.28 4.5 8 4.5Z" fill="#0D2B49"/>
</svg>
