<svg width="16" height="16" viewBox="0 0 16 16" fill="none" xmlns="http://www.w3.org/2000/svg">
<path fill-rule="evenodd" clip-rule="evenodd" d="M8.73098 13.831L8.78098 13.931C8.87038 14.0829 8.97576 14.2109 9.0614 14.315C9.07156 14.3273 9.08144 14.3393 9.09098 14.351C9.10098 14.361 9.10848 14.3735 9.11598 14.386C9.12348 14.3985 9.13098 14.411 9.14098 14.421C5.49098 15.001 1.50098 12.3309 1.50098 8.09095V8.00095C1.50098 4.41095 4.41098 1.50095 8.01098 1.50095C12.291 1.45095 15.001 5.46095 14.421 9.14095C14.391 9.12095 14.361 9.10095 14.331 9.07095L14.091 8.90095C14.001 8.83095 13.911 8.78095 13.821 8.73095L13.791 8.71095L13.771 8.70095C13.661 8.64095 13.551 8.59095 13.461 8.55095C13.601 7.19095 13.271 5.78095 12.421 4.74095C12.371 4.64095 12.051 4.28095 11.971 4.19095L10.551 5.61095C11.261 6.30095 11.561 7.31095 11.481 8.29095C11.101 8.34095 10.741 8.45095 10.411 8.60095C10.731 7.21095 9.92098 5.55095 8.01098 5.50095C4.71098 5.59095 4.71098 10.421 8.01098 10.511C8.22098 10.501 8.41098 10.481 8.59098 10.441C8.37098 10.911 8.25098 11.441 8.25098 12.001C8.25098 12.171 8.26098 12.331 8.28098 12.491C8.29098 12.631 8.32098 12.781 8.37098 12.931C8.38098 13.001 8.40098 13.071 8.43098 13.121C8.46098 13.211 8.49098 13.301 8.53098 13.401C8.59098 13.551 8.66098 13.691 8.73098 13.821V13.831ZM11.3623 3.64765C11.2104 3.53858 10.9491 3.351 10.861 3.31095H10.851L9.38098 4.78095C9.61098 4.88095 9.82098 5.00095 10.021 5.14095L11.451 3.71095C11.4311 3.69702 11.4001 3.67476 11.3623 3.64765ZM8.62098 2.54095C8.57098 2.53095 8.16098 2.50095 8.01098 2.50095V3.15095L8.62098 2.54095ZM9.46098 2.70095L8.01098 4.15095V4.50095C8.13098 4.50095 8.53098 4.54095 8.61098 4.55095L10.201 2.96095C10.121 2.92095 9.56098 2.72095 9.46098 2.70095Z" fill="#0D2B49"/>
<path fill-rule="evenodd" clip-rule="evenodd" d="M14.961 11.571L14.991 11.751C15.001 11.831 15.001 11.921 15.001 12.001C15.001 12.211 14.981 12.411 14.941 12.611C14.881 12.901 14.771 13.171 14.641 13.431C14.591 13.521 14.541 13.601 14.491 13.681C14.371 13.841 14.251 13.991 14.121 14.121C13.991 14.251 13.841 14.371 13.681 14.491C13.601 14.541 13.521 14.591 13.431 14.641C13.171 14.771 12.901 14.881 12.611 14.941C12.411 14.981 12.211 15.001 12.001 15.001C11.891 15.001 11.791 14.991 11.691 14.981C11.641 14.981 11.591 14.971 11.541 14.961C11.441 14.951 11.341 14.931 11.251 14.901C11.111 14.871 10.961 14.821 10.831 14.761C10.711 14.711 10.611 14.661 10.511 14.601C10.371 14.521 10.241 14.431 10.121 14.331C10.071 14.301 10.031 14.271 9.99098 14.231L9.93098 14.171C9.84098 14.081 9.75098 13.981 9.68098 13.881C9.58098 13.771 9.50098 13.671 9.43098 13.551L9.42098 13.521C9.35098 13.391 9.28098 13.261 9.23098 13.121C9.19098 13.031 9.16098 12.941 9.13098 12.851C9.12098 12.831 9.11098 12.801 9.11098 12.771C9.07098 12.651 9.04098 12.531 9.03098 12.401C9.01098 12.271 9.00098 12.141 9.00098 12.001C9.00098 10.571 9.99098 9.38098 11.331 9.08098C11.551 9.03098 11.771 9.00098 12.001 9.00098C12.101 9.00098 12.201 9.00098 12.291 9.01098C12.431 9.03098 12.571 9.05098 12.701 9.09098C12.7293 9.09098 12.7627 9.10102 12.794 9.11043C12.8068 9.1143 12.8193 9.11806 12.831 9.12098C12.891 9.14098 12.951 9.16098 13.001 9.18098C13.121 9.22098 13.231 9.27098 13.331 9.32098C13.3386 9.3248 13.3448 9.32716 13.3501 9.32917C13.3586 9.33244 13.3648 9.3348 13.371 9.34098L13.451 9.38098C13.521 9.42097 13.591 9.46098 13.661 9.51098L13.871 9.66098C13.961 9.73098 14.041 9.80098 14.121 9.88098L14.231 9.99098C14.2514 10.0196 14.2735 10.0465 14.2959 10.0737C14.3283 10.1133 14.3614 10.1536 14.391 10.201C14.451 10.261 14.501 10.341 14.541 10.411C14.591 10.481 14.631 10.551 14.661 10.621C14.701 10.681 14.731 10.751 14.761 10.821C14.771 10.831 14.771 10.851 14.771 10.871C14.801 10.911 14.821 10.961 14.831 11.011C14.901 11.191 14.941 11.371 14.961 11.571ZM12.381 11.361L12.401 11.271H11.421C11.4413 11.2235 11.4663 11.176 11.4896 11.1317C11.5006 11.1106 11.5113 11.0903 11.521 11.071C11.651 10.831 11.841 10.721 12.061 10.721C12.291 10.721 12.471 10.801 12.581 10.961C12.5847 10.9684 12.5898 10.9759 12.5953 10.9838C12.6045 10.9973 12.6147 11.0122 12.621 11.031C12.671 11.121 12.711 11.231 12.741 11.361H13.371C13.361 11.131 13.301 10.901 13.161 10.671C13.101 10.571 13.031 10.481 12.951 10.401C12.721 10.181 12.421 10.061 12.041 10.061C11.661 10.061 11.351 10.211 11.101 10.521C11.011 10.621 10.941 10.741 10.871 10.871C10.821 10.991 10.771 11.121 10.741 11.271H10.071L9.97098 11.781H10.681C10.671 11.851 10.671 11.931 10.671 12.021C10.671 12.111 10.671 12.201 10.681 12.281H10.071L9.97098 12.791H10.761C10.821 13.041 10.911 13.251 11.051 13.441C11.111 13.521 11.181 13.601 11.251 13.661C11.261 13.671 11.261 13.661 11.261 13.661C11.481 13.861 11.751 13.951 12.081 13.951C12.431 13.951 12.721 13.821 12.941 13.571C13.171 13.311 13.311 12.981 13.371 12.581H12.741C12.691 12.771 12.641 12.911 12.581 13.011C12.461 13.181 12.291 13.271 12.071 13.271C12.011 13.271 11.951 13.261 11.891 13.241C11.751 13.201 11.631 13.111 11.531 12.961C11.5261 12.9529 11.521 12.9445 11.5157 12.9359C11.4885 12.8915 11.4578 12.8412 11.441 12.791H12.131L12.231 12.281H11.331C11.321 12.201 11.321 12.121 11.321 12.031C11.321 11.941 11.321 11.861 11.331 11.781H12.301L12.381 11.361Z" fill="#0D2B49"/>
</svg>
