<svg width="16" height="16" viewBox="0 0 16 16" fill="none" xmlns="http://www.w3.org/2000/svg">
<path d="M8.25999 2.00001C5.76299 2.00001 3.51099 3.45801 2.54099 5.70001C2.52129 5.75868 2.51354 5.8207 2.51817 5.88241C2.5228 5.94412 2.53974 6.00428 2.56797 6.05935C2.5962 6.11442 2.63517 6.16328 2.68257 6.20307C2.72997 6.24285 2.78485 6.27276 2.84399 6.29101C2.95126 6.32617 3.06745 6.32272 3.17245 6.28127C3.27745 6.23982 3.36466 6.16297 3.41899 6.06401C4.54299 3.46001 7.61899 2.23701 10.289 3.33401C10.7716 3.53173 11.2222 3.79998 11.626 4.13001C11.7241 4.20901 11.8491 4.2469 11.9746 4.23571C12.1001 4.22452 12.2164 4.16513 12.299 4.07001C12.3391 4.02345 12.3695 3.96929 12.3882 3.91075C12.407 3.85221 12.4138 3.7905 12.4082 3.72928C12.4026 3.66807 12.3847 3.60861 12.3556 3.55444C12.3266 3.50028 12.2869 3.45252 12.239 3.41401C11.116 2.49693 9.70989 1.99726 8.25999 2.00001ZM8.20399 3.86501C7.71499 3.86501 7.23099 3.94501 6.77099 4.10501C6.71438 4.13011 6.66339 4.16631 6.62102 4.21147C6.57866 4.25663 6.54578 4.30982 6.52433 4.36791C6.50289 4.426 6.49331 4.48779 6.49617 4.54965C6.49903 4.6115 6.51427 4.67215 6.54099 4.72801C6.58992 4.8268 6.6711 4.90592 6.77112 4.95229C6.87113 4.99866 6.98398 5.0095 7.09099 4.98301C7.44924 4.86049 7.82536 4.79831 8.20399 4.79901C10.054 4.79901 11.544 6.25501 11.544 8.06401C11.544 9.44101 11.073 12.574 11.073 12.574C11.0573 12.6339 11.0536 12.6963 11.0622 12.7576C11.0709 12.819 11.0916 12.878 11.1233 12.9312C11.1549 12.9844 11.1968 13.0308 11.2465 13.0677C11.2963 13.1046 11.3529 13.1312 11.413 13.146C11.4815 13.1642 11.5532 13.1669 11.6229 13.1541C11.6926 13.1414 11.7586 13.1133 11.8162 13.0721C11.8739 13.0308 11.9216 12.9773 11.9562 12.9154C11.9907 12.8535 12.0111 12.7847 12.016 12.714C12.016 12.714 12.499 9.63801 12.499 8.06501C12.499 5.74901 10.579 3.87001 8.20399 3.86301V3.86501ZM12.807 5.02101C12.745 5.02153 12.6838 5.03427 12.6268 5.05849C12.5698 5.0827 12.5181 5.11793 12.4747 5.16214C12.4314 5.20636 12.3971 5.25869 12.374 5.31615C12.3509 5.37362 12.3393 5.43507 12.34 5.49701C12.3414 5.57356 12.362 5.64852 12.4 5.71501C12.7338 6.30752 12.9435 6.96176 13.0164 7.63791C13.0893 8.31406 13.0238 8.99797 12.824 9.64801C12.812 9.70886 12.8122 9.77149 12.8247 9.83224C12.8372 9.893 12.8617 9.95066 12.8967 10.0019C12.9317 10.0531 12.9765 10.0968 13.0286 10.1305C13.0807 10.1641 13.1389 10.1871 13.2 10.198C13.3084 10.2197 13.421 10.2035 13.5188 10.1519C13.6166 10.1004 13.6936 10.0167 13.737 9.91501C13.9737 9.14692 14.0514 8.33866 13.9655 7.53954C13.8795 6.74042 13.6316 5.96718 13.237 5.26701C13.1945 5.19078 13.1319 5.1276 13.0562 5.08425C12.9804 5.04091 12.8943 5.01904 12.807 5.02101ZM5.17199 5.29701C5.10308 5.30043 5.03571 5.31863 4.97446 5.35037C4.91321 5.38212 4.8595 5.42668 4.81699 5.48101C4.22928 6.213 3.90833 7.12329 3.90699 8.06201C3.90699 10.256 3.53499 11.681 3.53499 11.681C3.52534 11.7424 3.52795 11.805 3.54268 11.8654C3.5574 11.9257 3.58394 11.9826 3.62077 12.0326C3.65759 12.0826 3.70397 12.1249 3.75722 12.1569C3.81046 12.1889 3.86952 12.21 3.93099 12.219C4.04136 12.2373 4.15467 12.2166 4.2514 12.1604C4.34814 12.1042 4.42225 12.016 4.46099 11.911C4.46099 11.911 4.86299 10.361 4.86299 8.06201C4.86299 7.30201 5.12699 6.60901 5.56999 6.05601C5.60923 6.00843 5.63851 5.95344 5.65608 5.89431C5.67364 5.83518 5.67914 5.77312 5.67223 5.71183C5.66533 5.65053 5.64617 5.59125 5.61589 5.53751C5.58561 5.48377 5.54484 5.43667 5.49599 5.39901C5.40399 5.32746 5.28839 5.29127 5.17199 5.29701ZM8.20399 5.73101C6.88599 5.73601 5.81999 6.77801 5.81799 8.06301C5.81799 11.334 5.35799 13.045 5.35799 13.045C5.34771 13.106 5.34961 13.1684 5.36359 13.2286C5.37756 13.2888 5.40333 13.3457 5.43941 13.3959C5.47548 13.4461 5.52115 13.4887 5.57377 13.5211C5.62639 13.5536 5.68493 13.5753 5.74599 13.585C5.8561 13.6047 5.96961 13.5852 6.06693 13.5301C6.16424 13.475 6.23925 13.3876 6.27899 13.283C6.27899 13.283 6.77199 11.422 6.77199 8.06101C6.77199 7.28501 7.40799 6.66401 8.20399 6.66401C8.99999 6.66401 9.63599 7.28401 9.63599 8.06201C9.63599 8.62201 9.61099 9.20401 9.57399 9.77001C9.53899 10.025 9.72299 10.26 9.98399 10.293C10.0506 10.3021 10.1185 10.2969 10.183 10.2778C10.2475 10.2587 10.3072 10.2262 10.3583 10.1824C10.4093 10.1385 10.4504 10.0844 10.479 10.0235C10.5076 9.96255 10.5229 9.89628 10.524 9.82901C10.564 9.24901 10.59 8.64701 10.59 8.06201C10.587 6.77701 9.52099 5.73601 8.20399 5.73101ZM2.46799 7.03501C2.35079 7.039 2.23928 7.08647 2.15517 7.16818C2.07106 7.24989 2.02037 7.35998 2.01299 7.47701C1.9704 8.11159 2.02914 8.7489 2.18699 9.36501C2.21364 9.4877 2.28759 9.59494 2.3928 9.66346C2.49801 9.73197 2.62599 9.75625 2.74899 9.73101C2.81355 9.7194 2.87493 9.69428 2.92912 9.65731C2.98331 9.62033 3.02908 9.57234 3.06344 9.51645C3.0978 9.46057 3.11998 9.39806 3.12851 9.33302C3.13705 9.26798 3.13176 9.20187 3.11299 9.13901C2.97876 8.61697 2.9298 8.07667 2.96799 7.53901C2.973 7.47188 2.96355 7.40446 2.94025 7.34131C2.91695 7.27815 2.88036 7.22074 2.83296 7.17295C2.78555 7.12517 2.72843 7.08812 2.66546 7.06432C2.60249 7.04052 2.53515 7.03053 2.46799 7.03501ZM8.19599 7.59001C8.07115 7.59028 7.9515 7.63998 7.86323 7.72826C7.77496 7.81653 7.72525 7.93618 7.72499 8.06101C7.72908 9.10982 7.67567 10.1581 7.56499 11.201C7.50699 11.453 7.67099 11.703 7.92899 11.759C7.9982 11.7744 8.06996 11.7743 8.13912 11.7586C8.20827 11.7429 8.2731 11.7122 8.32894 11.6685C8.38477 11.6248 8.43024 11.5692 8.46206 11.5059C8.49389 11.4425 8.51128 11.3729 8.51299 11.302C8.60799 10.442 8.67999 9.36201 8.67999 8.06201C8.68001 7.99883 8.66736 7.93629 8.64277 7.87809C8.61818 7.81989 8.58215 7.76723 8.53683 7.72321C8.49151 7.67919 8.43781 7.64472 8.37891 7.62184C8.32002 7.59896 8.25714 7.58814 8.19399 7.59001H8.19599ZM9.85299 11.436C9.60799 11.436 9.40299 11.616 9.37699 11.854C9.26699 12.787 9.16199 13.419 9.16199 13.419C9.14716 13.4792 9.14448 13.5418 9.15411 13.6031C9.16374 13.6644 9.18548 13.7231 9.21807 13.7759C9.25065 13.8287 9.29342 13.8745 9.34389 13.9105C9.39435 13.9466 9.4515 13.9723 9.51199 13.986C9.57884 14.0027 9.64851 14.0048 9.71626 13.9922C9.784 13.9796 9.84824 13.9525 9.9046 13.9129C9.96095 13.8732 10.0081 13.8219 10.0429 13.7624C10.0776 13.7029 10.0991 13.6366 10.106 13.568C10.106 13.568 10.213 12.913 10.326 11.961C10.334 11.8946 10.3277 11.8272 10.3075 11.7635C10.2872 11.6997 10.2536 11.641 10.2088 11.5913C10.1639 11.5417 10.109 11.5022 10.0476 11.4756C9.98624 11.449 9.91987 11.4358 9.85299 11.437V11.436ZM7.76999 12.573C7.6612 12.5723 7.55547 12.609 7.47047 12.6769C7.38547 12.7447 7.32634 12.8398 7.30299 12.946C7.22999 13.268 7.18299 13.414 7.18299 13.414C7.16914 13.4742 7.16738 13.5366 7.17782 13.5975C7.18826 13.6585 7.21069 13.7167 7.2438 13.7689C7.27692 13.8211 7.32006 13.8661 7.37073 13.9015C7.4214 13.9369 7.47859 13.9619 7.53899 13.975C7.64977 14.0012 7.76623 13.9872 7.86766 13.9355C7.9691 13.8839 8.04894 13.798 8.09299 13.693C8.09299 13.693 8.15599 13.498 8.23399 13.145C8.24959 13.0759 8.24929 13.0042 8.23313 12.9352C8.21697 12.8662 8.18536 12.8018 8.14068 12.7468C8.096 12.6918 8.03942 12.6477 7.97521 12.6178C7.91099 12.5878 7.84082 12.5729 7.76999 12.574V12.573Z" fill="#0D2B49"/>
</svg>
