<svg width="16" height="16" viewBox="0 0 16 16" fill="none" xmlns="http://www.w3.org/2000/svg">
<path fill-rule="evenodd" clip-rule="evenodd" d="M10.75 12.5H10V11.75C10 11.61 9.89 11.5 9.75 11.5H6.25C6.11 11.5 6 11.61 6 11.75V12.5H5.25C5.11 12.5 5 12.61 5 12.75V13.25C5 13.38 5.11 13.5 5.25 13.5H10.75C10.89 13.5 11 13.38 11 13.25V12.75C11 12.61 10.89 12.5 10.75 12.5ZM14 3H10.48C10.675 3.303 10.818 3.64 10.904 4H13.5V9H2.5V4H4.596C4.682 3.64 4.826 3.303 5.02 3H2C1.72 3 1.5 3.22 1.5 3.5V10C1.5 10.28 1.72 10.5 2 10.5H14C14.28 10.5 14.5 10.28 14.5 10V3.5C14.5 3.22 14.28 3 14 3ZM9.148 6.5C9.41273 6.29138 9.62687 6.02561 9.77441 5.72257C9.92194 5.41953 9.99906 5.08705 10 4.75C10 4.15326 9.76295 3.58097 9.34099 3.15901C8.91903 2.73705 8.34674 2.5 7.75 2.5C7.15326 2.5 6.58097 2.73705 6.15901 3.15901C5.73705 3.58097 5.5 4.15326 5.5 4.75C5.5 5.461 5.836 6.088 6.352 6.5H5V7.5H10.5V6.5H9.148Z" fill="#0D2B49"/>
</svg>
