<svg width="16" height="16" viewBox="0 0 16 16" fill="none" xmlns="http://www.w3.org/2000/svg">
<path d="M9.63001 4.75V7.25C9.63001 7.388 9.51801 7.5 9.38001 7.5H5.37001V9.5L1.59001 6.19C1.48501 6.104 1.47001 5.949 1.55601 5.844C1.56601 5.831 1.57701 5.82 1.59001 5.81L5.37001 2.5V4.5H9.38001C9.51801 4.5 9.63001 4.612 9.63001 4.75ZM14.41 9.81L10.63 6.5V8.5H6.62101C6.48301 8.5 6.37101 8.612 6.37101 8.75V11.25C6.37101 11.388 6.48301 11.5 6.62101 11.5H10.63V13.5L14.41 10.19C14.53 10.09 14.53 9.91 14.41 9.81Z" fill="#0D2B49"/>
</svg>
