<svg width="16" height="16" viewBox="0 0 16 16" fill="none" xmlns="http://www.w3.org/2000/svg">
<path d="M12.03 11.3299L13.85 13.1499L13.15 13.8499L7.78998 8.49994H5.5V7.49994H6.78998L4.81 5.5199C3.52002 5.61993 2.5 6.68994 2.5 7.99994C2.5 9.37994 3.62 10.4999 5 10.4999H7.5V11.4999H5C3.07001 11.4999 1.5 9.92993 1.5 7.99994C1.5 6.42993 2.53998 5.11993 3.96997 4.66992L2.15002 2.84991L2.84998 2.1499L11.19 10.4799C12.48 10.3799 13.5 9.30994 13.5 7.99994C13.5 6.61993 12.38 5.49994 11 5.49994H8.5V4.49994H11C12.93 4.49994 14.5 6.06995 14.5 7.99994C14.5 9.56995 13.46 10.8799 12.03 11.3299Z" fill="#0D2B49"/>
</svg>
