<svg width="16" height="16" viewBox="0 0 16 16" fill="none" xmlns="http://www.w3.org/2000/svg">
<path fill-rule="evenodd" clip-rule="evenodd" d="M13 6H8V5C8 4.17 7.66 3.42 7.12 2.88C6.58 2.34 5.83 2 5 2C3.34 2 2 3.34 2 5V6H3V5C3 3.9 3.9 3 5 3C6.1 3 7 3.9 7 5V6H6C5.45 6 5 6.45 5 7V13C5 13.55 5.45 14 6 14H13C13.55 14 14 13.55 14 13V7C14 6.45 13.55 6 13 6ZM10 10.36V11.5C10 11.78 9.78 12 9.5 12C9.22 12 9 11.78 9 11.5V10.36C8.7 10.19 8.5 9.87 8.5 9.5C8.5 8.95 8.95 8.5 9.5 8.5C10.05 8.5 10.5 8.95 10.5 9.5C10.5 9.87 10.3 10.19 10 10.36Z" fill="#0D2B49"/>
</svg>
