<svg width="16" height="16" viewBox="0 0 16 16" fill="none" xmlns="http://www.w3.org/2000/svg">
<path fill-rule="evenodd" clip-rule="evenodd" d="M14.5 10.04C14.5 11.405 13.45 12.5 12.16 12.5H4.36C2.78 12.5 1.5 11.163 1.5 9.497C1.5 8.15 2.36 6.968 3.59 6.62C3.66 4.885 5.03 3.5 6.7 3.5C7.75 3.5 8.72 4.062 9.31 4.982C9.56 4.905 9.81 4.866 10.08 4.866C11.61 4.866 12.88 6.145 12.94 7.743C13.86 8.063 14.5 9.003 14.5 10.039V10.04ZM8.187 5.611C8.16378 5.58772 8.13619 5.56925 8.10582 5.55664C8.07544 5.54404 8.04288 5.53755 8.01 5.53755C7.97712 5.53755 7.94456 5.54404 7.91418 5.55664C7.88381 5.56925 7.85622 5.58772 7.833 5.611L6.03 7.426L6.73 8.136L7.5 7.366V11.146H8.5V7.346L9.29 8.136L10 7.426L8.187 5.613V5.611Z" fill="#0D2B49"/>
</svg>
