<svg width="16" height="16" viewBox="0 0 16 16" fill="none" xmlns="http://www.w3.org/2000/svg">
<path d="M13.486 9.48481V13.9948H10.906V11.4148H8.32599V13.9948H5.74599V9.49481L5.75599 9.48481L6.39599 8.93481C6.34598 7.72481 6.03598 6.56481 5.77599 5.80481C5.58599 6.21481 5.42599 6.61481 5.42599 6.61481C5.16599 7.36481 5.30599 8.00481 5.31599 8.03481C5.33599 8.13481 5.28598 8.22481 5.20599 8.25481C5.12599 8.29481 5.02599 8.26481 4.97599 8.18481C4.44599 7.35481 4.30599 6.64481 4.56599 6.08481C4.57599 6.06481 4.59599 6.05481 4.60599 6.03481C4.27599 6.30481 4.03599 6.59481 3.87599 6.87481C3.87599 6.87481 3.77599 7.02481 3.67599 7.29481C3.55599 7.57481 3.51599 7.78481 3.51599 7.81481C3.49599 7.90481 3.42599 7.97481 3.33599 7.99481C3.31599 8.00481 3.29599 8.00481 3.27599 8.00481C3.16599 8.00481 3.06599 7.90481 3.05599 7.79481C3.02599 7.48481 3.01599 7.21481 3.01599 6.96481C3.01599 6.96481 3.00599 6.78481 3.05599 6.46481C3.14599 5.77481 3.40599 5.27481 3.82599 4.97481C3.87599 4.94481 3.93599 4.90481 3.99599 4.87481C3.03599 4.97481 2.40599 5.46481 2.37599 5.48481C2.27599 5.55481 2.15599 5.55481 2.07599 5.47481C1.99599 5.40481 1.97599 5.28481 2.03599 5.19481C2.67599 4.17481 3.38599 3.65481 4.13599 3.64481C4.69599 3.65481 5.17599 3.93481 5.51599 4.21481C5.40599 3.62481 5.49599 3.13481 5.79599 2.75481C6.49599 1.85481 8.08599 2.00481 8.14599 2.01481C8.25599 2.02481 8.34598 2.11481 8.34598 2.23481C8.35599 2.33481 8.28598 2.43481 8.18599 2.46481C7.55598 2.62481 7.10599 3.08481 6.77599 3.55481C7.14599 3.28481 7.51599 3.14481 7.89599 3.13481C9.03598 3.10481 9.81599 4.28481 9.85599 4.33481C9.90599 4.41481 9.90599 4.52481 9.83599 4.60481C9.80599 4.64481 9.75598 4.66481 9.71598 4.67481C9.66598 4.69481 9.60599 4.68481 9.56599 4.67481C9.20599 4.51481 8.83599 4.44481 8.47599 4.43481C8.47599 4.43481 8.04599 4.38481 7.13599 4.71481C7.18599 4.71481 7.23598 4.71481 7.28598 4.72481C7.88598 4.86481 8.36599 5.40481 8.70599 6.33481C8.73599 6.42481 8.69599 6.51481 8.61599 6.55481C8.54599 6.60481 8.44599 6.58481 8.37599 6.51481C8.35599 6.48481 7.93599 5.98481 7.18599 5.73481C7.18599 5.73481 7.02599 5.68481 6.80599 5.63481C7.25599 6.26481 7.57599 7.00481 7.81599 7.71481L9.61599 6.15481L13.486 9.48481Z" fill="#0D2B49"/>
</svg>
