<svg width="16" height="16" viewBox="0 0 16 16" fill="none" xmlns="http://www.w3.org/2000/svg">
<path d="M8 1.5C6.27609 1.5 4.62279 2.18482 3.40381 3.40381C2.18482 4.62279 1.5 6.27609 1.5 8C1.5 9.72391 2.18482 11.3772 3.40381 12.5962C4.62279 13.8152 6.27609 14.5 8 14.5C9.72391 14.5 11.3772 13.8152 12.5962 12.5962C13.8152 11.3772 14.5 9.72391 14.5 8C14.5 6.27609 13.8152 4.62279 12.5962 3.40381C11.3772 2.18482 9.72391 1.5 8 1.5ZM8.83 6.87L8.66 7.65H7.12C7.11 7.78 7.11 7.91 7.11 8.04C7.11 8.18 7.11 8.31 7.12 8.43H8.56L8.4 9.22H7.29C7.33 9.32 7.39 9.41 7.44 9.49C7.67 9.81 7.95 9.97 8.3 9.97C8.65 9.97 8.92 9.83 9.11 9.56C9.21 9.41 9.29 9.19 9.37 8.89H10.37C10.27 9.52 10.05 10.03 9.69 10.43C9.33 10.82 8.87 11.01 8.31 11.01C7.61 11.01 7.07 10.75 6.67 10.22C6.46 9.94 6.31 9.61 6.21 9.22H4.96L5.12 8.43H6.09C6.07 8.3 6.07 8.17 6.07 8.02C6.07 7.89 6.07 7.77 6.08 7.65H4.96L5.12 6.87H6.19C6.3 6.4 6.49 6.01 6.75 5.7C7.15 5.22 7.65 4.99 8.25 4.99C9.07 4.99 9.66 5.31 10.04 5.94C10.25 6.29 10.36 6.65 10.37 7.01H9.37C9.3 6.74 9.21 6.53 9.11 6.39C8.93 6.14 8.65 6.01 8.29 6.01C7.93 6.01 7.63 6.19 7.42 6.55C7.37 6.64 7.31 6.75 7.27 6.87H8.83Z" fill="#0D2B49"/>
</svg>
