<svg width="16" height="16" viewBox="0 0 16 16" fill="none" xmlns="http://www.w3.org/2000/svg">
<path d="M13.5 2.5H2.5C1.95 2.5 1.5 2.95 1.5 3.5V11.5C1.5 12.05 1.95 12.5 2.5 12.5H3.5V13.5H5.5V12.5H10.5V13.5H12.5V12.5H13.5C14.05 12.5 14.5 12.05 14.5 11.5V3.5C14.5 2.95 14.05 2.5 13.5 2.5ZM13.5 11.5H2.5V3.5H13.5V11.5ZM3.5 4.5V10.5H12.5V4.5H3.5ZM10.11 7.99C10.06 8.29 9.94 8.57 9.77 8.82C9.68485 8.74644 9.5756 8.70681 9.46309 8.70865C9.35059 8.71049 9.24269 8.75369 9.16 8.83C8.99 9.01 8.99 9.27 9.14 9.45C8.89 9.61 8.62 9.73 8.31 9.79C8.30243 9.67713 8.25225 9.57136 8.16963 9.4941C8.08701 9.41683 7.97812 9.37385 7.865 9.37385C7.75188 9.37385 7.64299 9.41683 7.56037 9.4941C7.47775 9.57136 7.42757 9.67713 7.42 9.79C7.11 9.73 6.84 9.61 6.59 9.45C6.74 9.27 6.74 9.01 6.57 8.83C6.48731 8.75369 6.37941 8.71049 6.26691 8.70865C6.1544 8.70681 6.04515 8.74644 5.96 8.82C5.79 8.57 5.67 8.29 5.62 7.99C5.85 7.96 6.03 7.78 6.03 7.54C6.03 7.3 5.85 7.12 5.62 7.09C5.67 6.79 5.79 6.52 5.96 6.27C6.14 6.41 6.4 6.41 6.57 6.25C6.65008 6.16778 6.69653 6.05859 6.70023 5.94388C6.70393 5.82916 6.66462 5.71721 6.59 5.63C6.84 5.47 7.11 5.35 7.42 5.3C7.44 5.52 7.63 5.71 7.86 5.71C8.1 5.71 8.29 5.52 8.31 5.3C8.62 5.35 8.89 5.47 9.14 5.63C9.06539 5.71721 9.02607 5.82916 9.02977 5.94388C9.03347 6.05859 9.07992 6.16778 9.16 6.25C9.33 6.41 9.59 6.41 9.77 6.27C9.94 6.52 10.06 6.79 10.11 7.09C9.88 7.12 9.7 7.3 9.7 7.54C9.7 7.78 9.88 7.96 10.11 7.99ZM7.86 6.17C7.1 6.17 6.49 6.78 6.49 7.54C6.49 7.90467 6.63487 8.25441 6.89273 8.51227C7.15059 8.77013 7.50033 8.915 7.865 8.915C8.22967 8.915 8.57941 8.77013 8.83727 8.51227C9.09513 8.25441 9.24 7.90467 9.24 7.54C9.24 6.78 8.63 6.17 7.86 6.17ZM7.86 8C7.61 8 7.41 7.8 7.41 7.54C7.41 7.28 7.61 7.08 7.86 7.08C8.12 7.08 8.32 7.28 8.32 7.54C8.32 7.8 8.12 8 7.86 8Z" fill="#0D2B49"/>
</svg>
