<svg width="16" height="16" viewBox="0 0 16 16" fill="none" xmlns="http://www.w3.org/2000/svg">
<path fill-rule="evenodd" clip-rule="evenodd" d="M5.588 9.74992H4.5C3.948 9.74992 3.5 9.30192 3.5 8.74992V7.24992C3.5 6.69792 3.948 6.24992 4.5 6.24992H5.588L8.156 3.80492C8.473 3.50092 9 3.72692 9 4.16692V11.8339C9 12.2739 8.473 12.4989 8.155 12.1959L5.588 9.74992Z" fill="#0D2B49"/>
<path d="M11.5 3.99992C11.5 3.99992 12.5 6.38992 12.5 7.99992C12.5 9.60992 11.5 11.9999 11.5 11.9999" fill="#0D2B49"/>
<path d="M10.5 5.99992C10.5 5.99992 11 7.19492 11 7.99992C11 8.80492 10.5 9.99992 10.5 9.99992" fill="#0D2B49"/>
<path d="M5.588 9.74992L5.93292 9.38794L5.78807 9.24992H5.588V9.74992ZM5.588 6.24992V6.74992H5.78796L5.93277 6.61204L5.588 6.24992ZM8.156 3.80492L8.50078 4.16704L8.50208 4.1658L8.156 3.80492ZM8.155 12.1959L7.81008 12.5579L7.81009 12.5579L8.155 12.1959ZM11.9613 3.80693C11.8547 3.55218 11.5618 3.43208 11.307 3.53867C11.0523 3.64525 10.9322 3.93817 11.0387 4.19291L11.9613 3.80693ZM11.0387 11.8069C10.9322 12.0617 11.0523 12.3546 11.307 12.4612C11.5618 12.5678 11.8547 12.4477 11.9613 12.1929L11.0387 11.8069ZM10.9613 5.80693C10.8547 5.55218 10.5617 5.43208 10.307 5.53867C10.0523 5.64525 9.93216 5.93817 10.0387 6.19291L10.9613 5.80693ZM10.0387 9.80693C9.93216 10.0617 10.0523 10.3546 10.307 10.4612C10.5617 10.5678 10.8547 10.4477 10.9613 10.1929L10.0387 9.80693ZM5.588 9.24992H4.5V10.2499H5.588V9.24992ZM4.5 9.24992C4.22414 9.24992 4 9.02578 4 8.74992H3C3 9.57806 3.67186 10.2499 4.5 10.2499V9.24992ZM4 8.74992V7.24992H3V8.74992H4ZM4 7.24992C4 6.97406 4.22414 6.74992 4.5 6.74992V5.74992C3.67186 5.74992 3 6.42178 3 7.24992H4ZM4.5 6.74992H5.588V5.74992H4.5V6.74992ZM5.93277 6.61204L8.50077 4.16704L7.81123 3.4428L5.24323 5.8878L5.93277 6.61204ZM8.50208 4.1658C8.50522 4.16278 8.50607 4.16277 8.50432 4.16363C8.50271 4.16443 8.50068 4.16507 8.49881 4.16536C8.49556 4.16587 8.49631 4.16495 8.49979 4.16644C8.50328 4.16793 8.50346 4.16926 8.50196 4.16709C8.50106 4.1658 8.50028 4.16421 8.49985 4.16284C8.49938 4.16133 8.5 4.16228 8.5 4.16692H9.5C9.5 3.28988 8.44724 2.83286 7.80992 3.44404L8.50208 4.1658ZM8.5 4.16692V11.8339H9.5V4.16692H8.5ZM8.5 11.8339L8.49991 11.8339L7.81009 12.5579C8.44578 13.1636 9.5 12.7144 9.5 11.8339H8.5ZM8.49992 11.8339L5.93292 9.38794L5.24308 10.1119L7.81008 12.5579L8.49992 11.8339ZM11.5 3.99992C11.0387 4.19291 11.0387 4.19287 11.0387 4.19283C11.0387 4.19283 11.0387 4.19281 11.0387 4.19281C11.0387 4.19281 11.0387 4.19284 11.0387 4.19291C11.0388 4.19306 11.0389 4.19335 11.0391 4.19378C11.0395 4.19464 11.0401 4.19606 11.0409 4.19805C11.0425 4.20202 11.0451 4.20821 11.0485 4.21652C11.0553 4.23316 11.0655 4.25828 11.0786 4.29114C11.1048 4.35686 11.1427 4.45338 11.1883 4.57456C11.2795 4.81721 11.4013 5.15715 11.5228 5.54552C11.7704 6.33639 12 7.27533 12 7.99992H13C13 7.11451 12.7296 6.05345 12.4772 5.24682C12.3487 4.83644 12.2205 4.47826 12.1242 4.22247C12.0761 4.09443 12.0358 3.99165 12.0073 3.92038C11.9931 3.88474 11.9818 3.85695 11.974 3.83779C11.9701 3.8282 11.967 3.82078 11.9649 3.8156C11.9638 3.81301 11.9629 3.81099 11.9623 3.80954C11.962 3.80882 11.9618 3.80823 11.9616 3.8078C11.9615 3.80758 11.9614 3.8074 11.9614 3.80725C11.9614 3.80718 11.9613 3.8071 11.9613 3.80706C11.9613 3.80699 11.9613 3.80693 11.5 3.99992ZM12 7.99992C12 8.72451 11.7704 9.66345 11.5228 10.4543C11.4013 10.8427 11.2795 11.1826 11.1883 11.4253C11.1427 11.5465 11.1048 11.643 11.0786 11.7087C11.0655 11.7416 11.0553 11.7667 11.0485 11.7833C11.0451 11.7916 11.0425 11.7978 11.0409 11.8018C11.0401 11.8038 11.0395 11.8052 11.0391 11.8061C11.0389 11.8065 11.0388 11.8068 11.0387 11.8069C11.0387 11.807 11.0387 11.807 11.0387 11.807L11.0387 11.807C11.0387 11.807 11.0387 11.8069 11.5 11.9999C11.9613 12.1929 11.9613 12.1928 11.9613 12.1928C11.9613 12.1927 11.9614 12.1927 11.9614 12.1926C11.9614 12.1924 11.9615 12.1923 11.9616 12.192C11.9618 12.1916 11.962 12.191 11.9623 12.1903C11.9629 12.1889 11.9638 12.1868 11.9649 12.1842C11.967 12.1791 11.9701 12.1716 11.974 12.1621C11.9818 12.1429 11.9931 12.1151 12.0073 12.0795C12.0358 12.0082 12.0761 11.9054 12.1242 11.7774C12.2205 11.5216 12.3487 11.1634 12.4772 10.753C12.7296 9.94639 13 8.88533 13 7.99992H12ZM10.5 5.99992C10.0387 6.19291 10.0387 6.19286 10.0387 6.19282C10.0387 6.19281 10.0387 6.19277 10.0387 6.19275C10.0387 6.19271 10.0387 6.1927 10.0387 6.1927C10.0387 6.1927 10.0387 6.19277 10.0387 6.19291C10.0389 6.19319 10.0391 6.19375 10.0394 6.1946C10.0401 6.19628 10.0413 6.19906 10.0429 6.20291C10.046 6.21059 10.0508 6.22249 10.0571 6.23822C10.0697 6.26969 10.088 6.31639 10.1101 6.37526C10.1545 6.4933 10.2138 6.65872 10.2728 6.8474C10.3954 7.23889 10.5 7.67783 10.5 7.99992H11.5C11.5 7.51701 11.3546 6.95595 11.2272 6.54869C11.1612 6.338 11.0955 6.15435 11.0461 6.02317C11.0214 5.95743 11.0006 5.90449 10.9859 5.86746C10.9785 5.84894 10.9725 5.83438 10.9684 5.82417C10.9663 5.81906 10.9646 5.81504 10.9634 5.81215C10.9628 5.8107 10.9623 5.80954 10.962 5.80867C10.9618 5.80823 10.9616 5.80787 10.9615 5.80758C10.9615 5.80743 10.9614 5.80731 10.9614 5.8072C10.9613 5.80714 10.9613 5.80708 10.9613 5.80705C10.9613 5.80699 10.9613 5.80693 10.5 5.99992ZM10.5 7.99992C10.5 8.32201 10.3954 8.76095 10.2728 9.15244C10.2138 9.34112 10.1545 9.50654 10.1101 9.62458C10.088 9.68345 10.0697 9.73015 10.0571 9.76162C10.0508 9.77735 10.046 9.78925 10.0429 9.79694C10.0413 9.80078 10.0401 9.80356 10.0394 9.80524C10.0391 9.80609 10.0389 9.80665 10.0387 9.80693C10.0387 9.80707 10.0387 9.80714 10.0387 9.80714C10.0387 9.80714 10.0387 9.80713 10.0387 9.80709C10.0387 9.80707 10.0387 9.80703 10.0387 9.80702C10.0387 9.80698 10.0387 9.80693 10.5 9.99992C10.9613 10.1929 10.9613 10.1929 10.9613 10.1928C10.9613 10.1928 10.9613 10.1927 10.9614 10.1926C10.9614 10.1925 10.9615 10.1924 10.9615 10.1923C10.9616 10.192 10.9618 10.1916 10.962 10.1912C10.9623 10.1903 10.9628 10.1891 10.9634 10.1877C10.9646 10.1848 10.9663 10.1808 10.9684 10.1757C10.9725 10.1655 10.9785 10.1509 10.9859 10.1324C11.0006 10.0954 11.0214 10.0424 11.0461 9.97667C11.0955 9.84549 11.1612 9.66184 11.2272 9.45115C11.3546 9.04389 11.5 8.48283 11.5 7.99992H10.5Z" fill="#0D2B49"/>
</svg>
