<svg width="16" height="16" viewBox="0 0 16 16" fill="none" xmlns="http://www.w3.org/2000/svg">
<path d="M14.25 7H11.5C11.23 7 10.99 7.1 10.79 7.31C10.6 7.49 10.5 7.73 10.5 8C10.5 8.55 10.95 9 11.5 9H14.25C14.39 9 14.5 8.89 14.5 8.75V7.25C14.5 7.11 14.38 7 14.25 7ZM12.91 8.5C12.63 8.5 12.41 8.28 12.41 8C12.41 7.72 12.63 7.5 12.91 7.5C13.19 7.5 13.41 7.72 13.41 8C13.41 8.28 13.19 8.5 12.91 8.5ZM10.09 6.59C9.62 7.05 9.39 7.74 9.55 8.47C9.76 9.39 10.65 10 11.59 10H14.5V12.5C14.5 13.05 14.05 13.5 13.5 13.5H2.5C1.95 13.5 1.5 13.05 1.5 12.5V3.5C1.5 2.95 1.95 2.5 2.5 2.5H13.5C14.05 2.5 14.5 2.95 14.5 3.5V6H11.5C10.95 6 10.45 6.22 10.09 6.59Z" fill="#0D2B49"/>
</svg>
