<svg width="16" height="16" viewBox="0 0 16 16" fill="none" xmlns="http://www.w3.org/2000/svg">
<path d="M13.812 7.54988L8.44999 2.18788C8.39105 2.1285 8.32095 2.08137 8.24372 2.04921C8.16649 2.01705 8.08365 2.00049 7.99999 2.00049C7.91633 2.00049 7.83349 2.01705 7.75626 2.04921C7.67903 2.08137 7.60892 2.1285 7.54999 2.18788L2.18799 7.54988C1.93799 7.79988 1.93799 8.19988 2.18799 8.44988L7.54999 13.8119C7.79999 14.0619 8.19999 14.0619 8.44999 13.8119L13.812 8.44988C14.062 8.19988 14.062 7.79988 13.812 7.54988ZM7.99999 10.4999C7.71999 10.4999 7.49999 10.2799 7.49999 9.99988C7.49999 9.71988 7.71999 9.49988 7.99999 9.49988C8.27999 9.49988 8.49999 9.71988 8.49999 9.99988C8.49999 10.2799 8.27999 10.4999 7.99999 10.4999ZM8.49999 8.99988H7.49999V5.49988H8.49999V8.99988Z" fill="#0D2B49"/>
</svg>
