<svg width="16" height="16" viewBox="0 0 16 16" fill="none" xmlns="http://www.w3.org/2000/svg">
<path d="M14.498 4.99902V7.99902H13.498V5.49902H2.49805V10.499H9.16805C9.34805 10.769 9.64805 10.949 9.98805 10.989V11.279C9.98805 11.3409 9.99586 11.4028 10.0045 11.4715L10.008 11.499H1.99805C1.72805 11.499 1.49805 11.269 1.49805 10.999V4.99902C1.49805 4.71902 1.72805 4.49902 1.99805 4.49902H13.998C14.278 4.49902 14.498 4.71902 14.498 4.99902Z" fill="#0D2B49"/>
<path d="M8.54412 8.44785C8.50612 8.59385 8.46912 8.70685 8.41412 8.77685H8.41512C8.32512 8.91185 8.17112 8.98985 8.01012 8.98185C7.83712 8.98185 7.69712 8.90185 7.58412 8.74485C7.55412 8.70385 7.53012 8.65785 7.51312 8.60985H8.06312L8.14312 8.21585H7.42712L7.42602 8.2016C7.42141 8.14211 7.41712 8.0867 7.41712 8.02185C7.41712 7.95625 7.42151 7.89942 7.42618 7.83903L7.42712 7.82685H8.19312L8.27412 7.43285H7.50312C7.51912 7.37785 7.54212 7.32485 7.57312 7.27685C7.68012 7.09885 7.82612 7.01285 8.01012 7.01285C8.18812 7.01285 8.32312 7.07185 8.42012 7.19585C8.46912 7.26585 8.51212 7.37385 8.54412 7.50885H9.04612C9.03612 7.31985 8.97812 7.13585 8.87812 6.97485C8.68812 6.65585 8.39312 6.49985 7.98912 6.49985C7.69712 6.49185 7.42012 6.62485 7.24412 6.85585C7.10412 7.02185 7.00812 7.22085 6.96412 7.43285H6.42912L6.34912 7.82685H6.90412V8.01085C6.90412 8.08085 6.90412 8.15085 6.90912 8.21585H6.42912L6.34912 8.60985H6.96912C7.01712 8.79885 7.09912 8.96585 7.20112 9.10585C7.40112 9.37085 7.67012 9.49985 8.01512 9.49985C8.29612 9.49985 8.52812 9.40285 8.70612 9.20885C8.89212 8.99585 9.00912 8.72985 9.04112 8.44785H8.54412Z" fill="#0D2B49"/>
<path fill-rule="evenodd" clip-rule="evenodd" d="M13.988 9.98902V11.279C13.988 11.419 13.928 11.539 13.848 11.639L13.488 11.999L13.848 12.339C13.928 12.429 13.988 12.569 13.988 12.699V14.009H14.878C14.948 14.009 14.998 14.059 14.998 14.129V14.879C14.998 14.949 14.948 14.999 14.878 14.999H10.108C10.038 14.999 9.96802 14.949 9.96802 14.879V14.129C9.96802 14.059 10.038 14.009 10.108 14.009H10.988V12.699C10.988 12.569 11.038 12.429 11.118 12.339L11.478 11.999L11.118 11.639C11.088 11.599 11.058 11.549 11.038 11.499C11.008 11.429 10.988 11.359 10.988 11.279V9.98902H10.108C10.038 9.98902 9.96802 9.93902 9.96802 9.86902V9.11902C9.96802 9.04902 10.038 8.99902 10.108 8.99902H14.878C14.948 8.99902 14.998 9.04902 14.998 9.11902V9.86902C14.998 9.93902 14.948 9.98902 14.878 9.98902H13.988ZM12.918 11.059C12.968 11.009 12.988 10.949 12.988 10.889V9.98902H11.978V10.889C11.978 10.949 12.008 11.009 12.068 11.059L12.408 11.399C12.428 11.429 12.458 11.439 12.488 11.439C12.518 11.439 12.548 11.429 12.578 11.399L12.918 11.059Z" fill="#0D2B49"/>
</svg>
