<svg width="16" height="16" viewBox="0 0 16 16" fill="none" xmlns="http://www.w3.org/2000/svg">
<path d="M13.718 9.45104H11.138C10.678 9.45104 10.258 9.75105 10.088 10.211L9.58804 11.671C9.54804 11.701 9.51804 11.731 9.48805 11.761L9.45804 11.781L9.43804 11.811C9.32804 11.951 9.23804 12.111 9.18804 12.281C9.13804 12.421 9.10804 12.601 9.10804 12.801V14.001H2.48804C2.20804 14.001 1.98804 13.771 1.98804 13.501V7.23104C1.98804 7.08104 2.05804 6.94104 2.16804 6.85104L7.66804 2.11104C7.84804 1.96104 8.11804 1.96104 8.30804 2.11104L13.808 6.85104C13.918 6.94104 13.988 7.08104 13.988 7.23104V9.48104C13.898 9.46104 13.808 9.45104 13.718 9.45104Z" fill="#0D2B49"/>
<path d="M14.8782 12.3512C14.9382 12.4212 14.9682 12.5212 14.9782 12.6212C14.9882 12.6812 14.9982 12.7412 14.9992 12.8022V14.6432C14.9992 14.8132 14.8272 15.0022 14.6242 15.0022C14.4042 15.0022 14.2492 14.8132 14.2492 14.6432V14.4022H10.6032V14.6112C10.6032 14.7992 10.4522 15.0012 10.2282 15.0012C9.98015 15.0012 9.85815 14.7912 9.85815 14.6112V12.8012C9.85815 12.6912 9.87815 12.5912 9.90815 12.5012C9.92815 12.4212 9.96815 12.3512 10.0182 12.2912C10.0708 12.2386 10.1311 12.209 10.1856 12.1823C10.1933 12.1786 10.2008 12.1749 10.2082 12.1712L10.7882 10.4712C10.8482 10.3112 10.9882 10.2012 11.1382 10.2012H13.7182C13.8282 10.2012 13.9282 10.2512 13.9882 10.3412C14.0282 10.3812 14.0482 10.4212 14.0682 10.4712L14.6482 12.1712C14.7382 12.2112 14.8282 12.2612 14.8782 12.3512Z" fill="#0D2B49"/>
</svg>
