<svg width="16" height="16" viewBox="0 0 16 16" fill="none" xmlns="http://www.w3.org/2000/svg">
<path d="M13.76 4.865H11.68C11.85 5.635 11.96 6.475 11.99 7.365H14.47C14.4118 6.491 14.1699 5.63912 13.76 4.865ZM7.498 8.362V10.852H5.097C4.88643 10.0385 4.77165 9.20316 4.755 8.363L7.498 8.362ZM5.097 4.878C4.88643 5.69185 4.77165 6.52751 4.755 7.368H7.498V4.878H5.097ZM5.398 11.851C5.8 12.965 6.372 13.822 7.026 14.261C7.176 14.37 7.337 14.45 7.498 14.5V11.85L5.398 11.851ZM8.502 11.851V14.5C8.663 14.45 8.824 14.37 8.974 14.26C9.628 13.822 10.2 12.965 10.602 11.85L8.502 11.851ZM11.406 11.851C11.155 12.636 10.813 13.334 10.401 13.882C11.4827 13.4664 12.4309 12.7643 13.144 11.851H11.406ZM12.009 8.364C11.979 9.251 11.868 10.087 11.697 10.854H13.787C14.198 10.084 14.441 9.235 14.5 8.364H12.009ZM10.4 1.85C10.812 2.398 11.154 3.095 11.405 3.881H13.143C12.4299 2.96768 11.4817 2.2656 10.4 1.85ZM2.856 3.88H4.594C4.845 3.094 5.187 2.397 5.599 1.849C4.51733 2.2646 3.56913 2.96668 2.856 3.88ZM2.213 4.876C1.80172 5.64616 1.5587 6.49488 1.5 7.366H3.991C4.021 6.48 4.132 5.643 4.303 4.876H2.213ZM3.991 8.362H1.5C1.56 9.258 1.811 10.095 2.213 10.852H4.303C4.12253 10.0334 4.01809 9.19984 3.991 8.362ZM4.594 11.849H2.856C3.56941 12.7625 4.51797 13.4646 5.6 13.88C5.188 13.332 4.845 12.634 4.594 11.849ZM8.502 8.361V10.851H10.662C10.853 10.114 10.974 9.277 11.004 8.361H8.502ZM10.662 4.875H8.502V7.365H11.004C10.974 6.449 10.854 5.612 10.662 4.875ZM8.502 1.5V3.88H10.351C9.889 2.616 9.206 1.77 8.502 1.501V1.5ZM5.65 3.881H7.499V1.502C6.795 1.77 6.112 2.616 5.65 3.881Z" fill="#0D2B49"/>
</svg>
