<svg width="192" height="192" viewBox="0 0 192 192" fill="none" xmlns="http://www.w3.org/2000/svg">
<path d="M176.816 15.1123H15.1837V101.285H176.816V15.1123Z" fill="#E6E6E6"/>
<path d="M83.3542 178.756C83.4198 180.719 83.3542 182.29 83.3542 183.468C83.3542 184.647 84.6648 185.17 86.3686 185.17C88.0723 185.17 108.189 185.694 109.893 183.665C111.597 181.636 110.745 177.905 108.189 177.185C105.633 176.465 100.326 177.381 96.9186 173.716L83.3542 178.756Z" fill="#424242"/>
<path d="M93.1369 185.597C91.3633 185.597 89.4451 185.582 87.3822 185.551C86.8872 185.544 86.5375 185.539 86.3688 185.539C84.2512 185.539 82.987 184.765 82.987 183.469C82.987 183.111 82.9933 182.716 82.9995 182.285C83.0143 181.325 83.0325 180.129 82.987 178.768L82.9784 178.503L97.0204 173.286L97.1869 173.465C99.5388 175.996 102.852 176.254 105.513 176.461C106.447 176.5 107.377 176.623 108.289 176.831C108.926 177.03 109.502 177.387 109.962 177.869C110.423 178.352 110.754 178.944 110.923 179.589C111.163 180.314 111.22 181.087 111.09 181.84C110.959 182.592 110.644 183.301 110.174 183.902C109.212 185.048 103.755 185.597 93.1369 185.597ZM83.7298 179.009C83.7653 180.277 83.7481 181.391 83.7341 182.297C83.728 182.723 83.7217 183.114 83.7217 183.469C83.7217 184.707 85.7479 184.803 86.3688 184.803C86.539 184.803 86.8929 184.808 87.3933 184.816C105.488 185.078 109.081 184.06 109.612 183.429C110.004 182.922 110.264 182.326 110.371 181.694C110.477 181.061 110.426 180.413 110.221 179.805C110.087 179.278 109.821 178.794 109.448 178.397C109.075 178.001 108.608 177.706 108.09 177.539C107.224 177.346 106.343 177.231 105.456 177.195C102.729 176.982 99.3497 176.719 96.8199 174.145L83.7298 179.009Z" fill="#181818"/>
<path d="M57.0123 178.363C56.7502 180.261 56.1601 184.646 57.1434 185.039C58.1267 185.432 71.3629 185.039 71.7561 185.039C72.1493 185.039 73.5253 181.243 71.5595 179.279C69.5936 177.315 64.548 177.315 62.5822 177.381C60.7027 177.562 58.8403 177.89 57.0123 178.363Z" fill="#424242"/>
<path d="M61.2791 185.58C58.0419 185.58 57.2483 185.477 57.0067 185.381C56.0965 185.017 55.9961 183.036 56.648 178.312L56.682 178.067L56.9216 178.007C58.7747 177.525 60.6634 177.193 62.5695 177.013C65.1902 176.924 69.8692 177.072 71.8183 179.019C73.3642 180.563 73.0643 183.207 72.4855 184.608C72.2546 185.168 72.0359 185.407 71.7556 185.407C71.704 185.407 71.4289 185.414 70.9879 185.426C66.4215 185.538 63.3503 185.58 61.2791 185.58ZM57.342 178.66C56.6231 183.993 57.1106 184.63 57.2794 184.697C57.5889 184.813 59.7805 184.967 70.9697 184.69C71.274 184.682 71.5012 184.676 71.6332 184.673C72.0281 183.902 72.2304 183.046 72.2229 182.179C72.2509 181.7 72.1838 181.22 72.0254 180.767C71.8669 180.314 71.6204 179.897 71.2999 179.54C69.4798 177.723 64.6039 177.684 62.5939 177.749C60.8219 177.912 59.0657 178.217 57.3421 178.66H57.342Z" fill="#181818"/>
<path d="M104.815 64.4741C108.353 63.1978 111.597 62.3141 113.071 62.6086C114.545 62.9032 114.84 65.0631 117.199 64.9649C119.558 64.8668 124.276 64.4741 124.178 66.1431C124.08 67.8121 120.738 72.2303 106.485 71.2485C92.2332 70.2668 104.815 64.4741 104.815 64.4741Z" fill="white"/>
<path d="M110.342 71.7563C109.151 71.7563 107.861 71.7122 106.46 71.6155C101.866 71.2994 99.6042 70.4873 99.343 69.0592C98.9379 66.8449 104.074 64.4102 104.661 64.1401L104.69 64.1285C108.916 62.6048 111.761 61.9755 113.143 62.2485C113.8 62.4378 114.378 62.8363 114.788 63.3835C115.054 63.7705 115.412 64.0845 115.831 64.2968C116.25 64.509 116.715 64.6127 117.184 64.5982L117.866 64.5666C120.694 64.4277 123.31 64.3798 124.212 65.2944C124.327 65.4072 124.417 65.5435 124.474 65.6939C124.532 65.8444 124.556 66.0055 124.545 66.1663C124.475 66.6464 124.31 67.1078 124.06 67.5239C123.811 67.94 123.481 68.3025 123.09 68.5904C121.665 69.8449 118.202 71.7563 110.342 71.7563ZM104.954 64.8153C102.937 65.7472 99.8375 67.68 100.065 68.9271C100.17 69.4979 101.146 70.5122 106.511 70.8819C116.886 71.5944 121.05 69.4069 122.605 68.0372C123.23 67.5702 123.66 66.8876 123.811 66.1217C123.816 66.0642 123.808 66.0064 123.787 65.9526C123.766 65.8988 123.733 65.8505 123.69 65.8114C122.943 65.0547 119.787 65.208 117.901 65.3009L117.215 65.3334C116.641 65.3451 116.073 65.2197 115.558 64.9677C115.042 64.7157 114.594 64.3443 114.251 63.8843C113.94 63.4562 113.502 63.1366 113 62.9707C112.144 62.7992 110.049 62.978 104.954 64.8153Z" fill="#D1D1D1"/>
<path d="M74.1536 22.9554C74.2792 24.5582 73.9597 26.1644 73.2302 27.597C72.422 28.9231 72.8835 31.1719 71.6138 31.8349C71.3804 31.94 71.1391 32.0267 70.8923 32.0944C69.0454 32.5556 65.0908 32.5556 62.8683 30.7683C60.2709 28.7212 58.7988 26.6745 59.0008 20.1008C59.2028 13.5272 59.2604 11.9996 61.8008 11.4518C64.3115 10.9326 65.3219 11.5961 66.967 11.3365C68.6409 11.0771 70.4307 10.4139 71.6138 11.8557C72.815 13.6684 73.5943 15.7275 73.8941 17.8812C73.819 19.577 73.9059 21.2761 74.1536 22.9554Z" fill="white"/>
<path d="M68.4344 32.7279C66.3719 32.8127 64.3376 32.2255 62.6376 31.0547C59.8275 28.8403 58.4352 26.5359 58.6332 20.09C58.8364 13.4795 58.891 11.7028 61.7236 11.0937C62.8277 10.8628 63.9627 10.8188 65.0813 10.9634C65.6873 11.0484 66.302 11.052 66.9089 10.9739C67.1754 10.9328 67.4432 10.8811 67.7111 10.8293C69.1427 10.5563 70.7656 10.2441 71.8968 11.6228C73.1413 13.4854 73.948 15.6055 74.2564 17.8243L74.2645 17.8733L74.2588 17.923C74.1545 19.0974 74.194 20.2801 74.3764 21.4449C74.4409 21.9716 74.5012 22.4678 74.5203 22.9409V22.9418C74.6419 24.6142 74.3053 26.288 73.5465 27.7833C73.263 28.3559 73.0868 28.9756 73.0265 29.6117C72.86 30.6328 72.687 31.6891 71.7829 32.1613C71.5291 32.278 71.2661 32.3734 70.9966 32.4468C70.1566 32.6414 69.2965 32.7357 68.4344 32.7279ZM63.7066 11.6145C63.0907 11.617 62.4768 11.6834 61.8747 11.8127C59.6706 12.2878 59.5735 13.4132 59.3678 20.1128C59.1608 26.8459 60.7822 28.6561 63.0949 30.4789C65.1555 32.1367 68.9121 32.2105 70.8029 31.7373C71.0241 31.677 71.2403 31.5995 71.4494 31.5056C72.021 31.2077 72.1511 30.4127 72.3017 29.4933C72.3719 28.7645 72.5805 28.0559 72.9163 27.4053C73.6013 26.0321 73.9022 24.4992 73.7868 22.9689C73.7682 22.514 73.7094 22.0389 73.6477 21.5332C73.4602 20.3285 73.4184 19.1055 73.5233 17.8908C73.2271 15.8194 72.4781 13.8388 71.3297 12.0896C70.475 11.0485 69.2577 11.2802 67.8496 11.5523C67.5731 11.605 67.2961 11.6576 67.023 11.6998C66.3551 11.7904 65.6781 11.7888 65.0107 11.695C64.6 11.6557 64.1824 11.6145 63.7066 11.6145Z" fill="#D1D1D1"/>
<path d="M74.0096 17.0449C73.9519 17.3333 73.923 17.6216 73.8941 17.8811C73.5942 15.7273 72.815 13.6682 71.6138 11.8555C70.4306 10.414 68.6408 11.0772 66.9669 11.3363C65.3219 11.5959 64.3114 10.9326 61.8007 11.4516C59.2604 11.9994 59.2027 13.5276 59.0009 20.1006C59.0009 20.5042 58.9723 20.8791 58.9723 21.2539C58.7225 20.6552 58.3251 20.1294 57.8173 19.7257C57.5096 19.5263 57.1443 19.435 56.779 19.4662C56.5369 19.4455 56.2934 19.4816 56.0679 19.5718C55.8423 19.6619 55.641 19.8036 55.4799 19.9854V19.9566C54.6143 16.1223 55.2203 14.0465 55.8841 12.6627C56.6485 10.8498 58.0005 9.34689 59.7227 8.39568C61.9159 7.2139 62.8683 6.29132 65.2352 6.95451C67.6311 7.61769 68.4967 6.60852 69.565 7.67529C70.2872 8.41597 71.1137 9.04728 72.0183 9.54925C72.3797 9.83619 72.6787 10.1939 72.8971 10.6004C73.1155 11.0069 73.2486 11.4537 73.2884 11.9134C73.4321 12.98 74.5001 14.5944 74.0096 17.0449Z" fill="#503D1C"/>
<path d="M59.3395 22.808L58.644 21.4193C58.4206 20.8793 58.0668 20.4031 57.6143 20.0334C57.3746 19.8795 57.0906 19.8094 56.8068 19.8342C56.6142 19.8097 56.4186 19.8322 56.2366 19.8998C56.0546 19.9673 55.8917 20.0779 55.7617 20.2221L55.1122 21.0026V19.9865C54.2182 16.0394 54.8771 13.9113 55.553 12.5043C56.3479 10.6209 57.7543 9.06044 59.5451 8.07466C59.8922 7.88688 60.2056 7.70879 60.4983 7.54118C62.0634 6.64848 63.1932 5.9991 65.3345 6.60077C66.1071 6.81307 66.9118 6.88278 67.7094 6.80648C68.0847 6.72705 68.4738 6.74097 68.8425 6.84701C69.2112 6.95306 69.5482 7.148 69.824 7.41471C70.5219 8.13161 71.321 8.74237 72.196 9.22755C72.608 9.54199 72.9502 9.93858 73.2009 10.3922C73.4516 10.8458 73.6054 11.3465 73.6525 11.8626C73.7166 12.202 73.8097 12.5353 73.9309 12.8587C74.4741 14.2088 74.6262 15.6845 74.3699 17.117C74.3198 17.3698 74.2924 17.6217 74.2672 17.8535L73.9687 20.5745L73.532 17.9388C73.2386 15.8505 72.4867 13.853 71.3302 12.0896C70.4755 11.0485 69.2582 11.2803 67.85 11.5523C67.5736 11.605 67.2966 11.6576 67.0235 11.6998C66.3556 11.7904 65.6786 11.7888 65.0112 11.695C63.9668 11.5563 62.9065 11.596 61.8754 11.8126C59.6713 12.2877 59.5742 13.413 59.3685 20.1127C59.3685 20.3109 59.3609 20.5143 59.3536 20.7132C59.3465 20.8961 59.3398 21.0756 59.3398 21.2544L59.3395 22.808ZM56.9331 19.0938C57.3171 19.0955 57.6924 19.2076 58.0145 19.4166C58.251 19.5776 58.4609 19.7743 58.6369 19.9998C58.8373 13.4611 58.9057 11.6998 61.724 11.0936C62.8281 10.8627 63.9631 10.8186 65.0817 10.9633C65.6877 11.0483 66.3024 11.0518 66.9093 10.9738C67.1758 10.9326 67.4436 10.8809 67.7115 10.8292C69.1431 10.5562 70.766 10.244 71.8972 11.6226C72.7621 12.8462 73.3967 14.2172 73.7698 15.6684C73.7303 14.7867 73.5493 13.9171 73.2337 13.0929C73.0968 12.7263 72.9932 12.348 72.9242 11.9628C72.8518 11.158 72.4708 10.4124 71.8609 9.8824C70.9188 9.36141 70.0578 8.70561 69.3052 7.93576C68.8432 7.47535 68.4552 7.49808 67.7536 7.54118C66.8746 7.6227 65.9881 7.54417 65.1372 7.30941C63.2914 6.7912 62.4285 7.28639 60.862 8.17997C60.5645 8.35042 60.246 8.53145 59.8962 8.72012C58.2446 9.63527 56.9485 11.079 56.2161 12.8194C55.6225 14.0578 55.0452 15.9044 55.7215 19.3265C56.0503 19.1664 56.4131 19.0885 56.7786 19.0996C56.8303 19.0958 56.8819 19.0938 56.9331 19.0938Z" fill="#231400"/>
<path d="M70.8922 32.0948C70.87 32.3469 70.8314 32.5973 70.7766 32.8444C70.3621 34.3837 69.4099 35.7236 68.0925 36.6212C67.7752 36.4193 61.3963 32.7002 60.0109 31.72C59.3611 31.015 58.8691 30.1796 58.5678 29.2695C58.1352 28.2892 57.6732 27.0784 57.2691 25.8963C56.432 23.4746 55.7104 20.9951 55.4796 19.9861C55.6407 19.8043 55.842 19.6626 56.0676 19.5725C56.2931 19.4823 56.5366 19.4462 56.7787 19.4669C57.144 19.4357 57.5093 19.527 57.817 19.7264C58.3248 20.1301 58.7222 20.6559 58.972 21.2546C58.9375 22.8068 59.1024 24.357 59.4624 25.8673C59.9613 27.8621 61.1727 29.6055 62.8683 30.7689C65.0908 32.5559 69.0453 32.5559 70.8922 32.0948Z" fill="white"/>
<path d="M68.0941 37.0576L67.8956 36.9313C67.8233 36.8853 67.4315 36.6544 66.8556 36.3141C64.9151 35.168 60.8772 32.7829 59.799 32.0205C59.0817 31.2834 58.5443 30.3905 58.2288 29.4115C57.8116 28.4661 57.3462 27.2584 56.921 26.0143C56.1093 23.6658 55.3684 21.1469 55.1211 20.0682L55.0804 19.8901L55.1972 19.7502C55.3928 19.5272 55.6373 19.3523 55.9116 19.2394C56.1858 19.1264 56.4825 19.0784 56.7785 19.099C57.214 19.0675 57.6479 19.1788 58.0144 19.416C58.5801 19.8536 59.023 20.43 59.3001 21.0892L59.3393 21.254C59.3069 22.7747 59.4676 24.2935 59.8177 25.7737C60.2993 27.6893 61.4648 29.3625 63.0946 30.4783C65.1556 32.1362 68.9123 32.2099 70.8031 31.7368L71.3163 31.6085L71.257 32.1352L70.892 32.0941L71.2561 32.1468C71.2317 32.4115 71.1905 32.6744 71.1326 32.934C70.7009 34.5663 69.6912 35.9864 68.2912 36.9303L68.0941 37.0576ZM55.8832 20.0975C56.163 21.2436 56.857 23.5809 57.6161 25.7751C58.0351 27.0011 58.4919 28.1877 58.9033 29.1206C59.161 29.9785 59.6131 30.7655 60.2244 31.4203C61.2767 32.1648 65.2969 34.5397 67.2285 35.6804C67.5953 35.8969 67.8885 36.0702 68.0755 36.1813C69.2237 35.3459 70.0502 34.1416 70.4167 32.7698C70.434 32.7018 70.4478 32.6319 70.4602 32.5619C68.281 32.9498 64.7386 32.7449 62.6379 31.0544C60.8775 29.8443 59.6212 28.0314 59.1065 25.9581C58.7465 24.4467 58.578 22.896 58.6047 21.3425C58.3873 20.8313 58.0471 20.3815 57.6142 20.0333C57.3749 19.8784 57.0906 19.8082 56.8067 19.8341C56.477 19.8057 56.1483 19.8994 55.8832 20.0975Z" fill="#D1D1D1"/>
<path d="M68.0926 36.6215C68.0926 36.6215 64.4558 39.6197 62.4645 41.119C61.8007 39.5044 61.3099 38.3511 61.0792 37.9188C59.7635 35.3533 58.8115 32.6169 58.2506 29.7887C58.3666 29.6222 58.4725 29.4488 58.5677 29.2695C58.869 30.1797 59.361 31.0151 60.0108 31.72C61.3963 32.7006 67.7752 36.4196 68.0926 36.6215Z" fill="#C2D3E6"/>
<path d="M62.3056 41.6985L62.1247 41.2588C61.6643 40.1392 61.0223 38.5924 60.7554 38.0924C59.4207 35.4933 58.456 32.7203 57.8893 29.854L57.8634 29.7085L57.9448 29.5858C58.0522 29.4315 58.1503 29.271 58.2387 29.105L58.5965 28.3887L58.906 29.1271C59.163 29.983 59.6141 30.768 60.2242 31.421C61.2765 32.1655 65.2967 34.5404 67.2283 35.6811C67.816 36.0278 68.215 36.2644 68.2892 36.3113L68.7168 36.5834L68.3255 36.9051C68.2892 36.9358 64.6597 39.926 62.6847 41.4134L62.3056 41.6985ZM58.805 30.6562C59.3761 33.1165 60.2484 35.4969 61.4021 37.7437C61.6029 38.1192 61.9822 38.9878 62.6223 40.5375C64.2107 39.3193 66.5296 37.4277 67.4556 36.6691C67.292 36.5711 67.0887 36.4517 66.8558 36.3146C64.9153 35.1685 60.8773 32.7834 59.7992 32.021C59.3743 31.6421 59.0354 31.1768 58.805 30.6562Z" fill="#6E8CBB"/>
<path d="M98.9179 174.832C98.9179 176.879 93.1165 180.223 87.0268 180.021C80.9364 179.848 83.7942 179.848 81.9181 174.14C80.0419 168.46 81.6292 162.666 81.3121 159.206C81.0231 155.775 80.6479 147.53 78.2813 142.023C75.9144 136.546 74.3556 124.062 74.3556 124.062C72.8153 130.479 71.6301 136.975 70.8056 143.522C70.0262 151.451 67.5729 166.788 68.8431 168.749C70.1132 170.709 71.2964 173.246 70.1129 176.014C68.9298 178.753 68.0638 179.733 66.188 179.646C64.1541 179.47 62.1057 179.567 60.0976 179.935C58.7122 180.338 56.3452 180.021 56.3452 177.571C56.3452 175.12 56.2589 167.567 55.2775 163.53C54.2959 159.523 53.8921 147.818 55.5658 144.099C57.2394 140.38 55.8547 134.383 55.9702 131.731C56.0568 129.079 56.4606 125.532 56.5473 122.592C56.6629 119.651 52.622 89.1201 54.094 84.7092C54.094 84.7092 58.5964 84.7669 64.5424 84.3056C67.602 84.0462 71.0654 83.6714 74.4421 83.0659C78.2573 82.4752 81.988 81.4299 85.5546 79.9521C86.0451 81.9701 86.5359 84.1037 86.911 85.7758C87.9212 90.1867 89.6818 98.3458 88.9025 103.737C90.4022 108.731 91.3507 113.874 91.7309 119.074C92.6259 128.675 94.0979 139.688 93.8958 145.656C93.6939 151.653 93.6939 157.361 94.5022 160.792C95.2812 164.223 95.0793 167.163 95.5699 168.46C96.0605 169.729 98.9179 172.756 98.9179 174.832Z" fill="#6E8CBB"/>
<path d="M59.0214 180.451C58.3006 180.471 57.5928 180.257 57.0034 179.841C56.6614 179.574 56.3893 179.228 56.2106 178.833C56.0318 178.437 55.9518 178.004 55.9774 177.571C55.9774 175.318 55.9014 167.652 54.9203 163.618C53.9546 159.676 53.4811 147.836 55.2307 143.948C56.3701 141.418 56.0416 137.777 55.7775 134.85C55.6572 133.809 55.5989 132.762 55.6029 131.714C55.6445 130.442 55.7569 128.987 55.8765 127.447C56.0038 125.804 56.1348 124.106 56.1802 122.581C56.216 121.669 55.831 117.927 55.3431 113.191C54.2344 102.424 52.7162 87.6769 53.7464 84.5929L53.831 84.3382L54.0994 84.342C54.1429 84.343 58.6545 84.3937 64.5147 83.9388C68.315 83.6169 71.5421 83.2128 74.3781 82.7045C78.1651 82.124 81.8679 81.0871 85.4057 79.6167L85.8079 79.4375L85.9118 79.8657C86.4029 81.8856 86.8942 84.0214 87.2697 85.6956C88.0389 89.0546 90.0769 97.9533 89.2791 103.704C90.7559 108.703 91.7005 113.845 92.0973 119.042C92.3412 121.657 92.6278 124.379 92.9119 127.074C93.683 134.392 94.4114 141.302 94.2638 145.669C94.0921 150.763 94.005 157.077 94.8602 160.707C95.2047 162.338 95.4292 163.991 95.5318 165.654C95.5555 166.558 95.6837 167.456 95.9138 168.33C96.2227 168.94 96.586 169.521 96.9992 170.065C98.018 171.53 99.2855 173.352 99.2855 174.833C99.2465 175.202 99.1344 175.56 98.956 175.885C98.7776 176.211 98.5363 176.498 98.2462 176.729C96.2942 178.62 91.6842 180.541 87.0153 180.39C82.9726 180.275 82.5497 180.263 82.3479 178.093C82.2465 176.787 81.985 175.498 81.5692 174.255C80.2965 170.401 80.5905 166.48 80.8269 163.33C80.972 161.972 81.0119 160.605 80.9464 159.24C80.9139 158.853 80.8804 158.41 80.8436 157.917C80.5566 154.103 80.0229 147.005 77.9446 142.17C76.1298 137.97 74.8072 129.858 74.2635 126.096C72.9197 131.857 71.8876 137.686 71.1716 143.559C70.9625 145.687 70.6349 148.332 70.2882 151.133C69.3999 158.303 68.295 167.226 69.1518 168.549C70.3294 170.367 71.7453 173.134 70.4515 176.16C69.2877 178.852 68.3363 180.099 66.1719 180.015C64.179 179.84 62.1716 179.932 60.203 180.287C59.8187 180.397 59.421 180.452 59.0214 180.451ZM54.3717 85.08C53.5447 88.5491 55.0614 103.281 56.074 113.116C56.5839 118.068 56.9522 121.646 56.9144 122.606C56.8694 124.146 56.7369 125.852 56.6092 127.504C56.4906 129.036 56.3786 130.482 56.3375 131.744C56.3353 132.76 56.3928 133.775 56.5097 134.785C56.7814 137.796 57.1196 141.545 55.9008 144.251C54.2396 147.943 54.7126 159.681 55.6344 163.444C56.6346 167.558 56.712 175.297 56.712 177.571C56.689 177.89 56.7436 178.209 56.8712 178.502C56.9987 178.795 57.1954 179.053 57.4443 179.253C57.8202 179.489 58.2429 179.641 58.6832 179.698C59.1234 179.754 59.5708 179.715 59.9942 179.581C62.0436 179.206 64.1339 179.105 66.2099 179.281C67.8263 179.355 68.5862 178.621 69.7756 175.869C70.9178 173.197 69.7125 170.767 68.5349 168.949C67.6043 167.513 68.3718 160.621 69.558 151.042C69.9043 148.246 70.2315 145.605 70.4396 143.487C71.2683 136.923 72.4563 130.41 73.9984 123.976L74.4705 122.017L74.7202 124.017C74.736 124.141 76.2991 136.512 78.6184 141.879C80.7455 146.828 81.2856 154.006 81.5754 157.862C81.6127 158.353 81.6457 158.794 81.6778 159.177C81.7479 160.58 81.7083 161.988 81.5591 163.385C81.3277 166.47 81.04 170.31 82.2666 174.025C82.7001 175.32 82.9729 176.664 83.0788 178.026C83.2203 179.547 83.2203 179.547 87.0373 179.655C91.5024 179.795 95.8918 177.986 97.7345 176.201C98.1663 175.862 98.4569 175.375 98.55 174.833C98.55 173.583 97.3557 171.866 96.3956 170.486C95.9444 169.896 95.5529 169.262 95.2271 168.594C94.9673 167.655 94.8234 166.688 94.7985 165.714C94.6984 164.087 94.4794 162.469 94.1433 160.874C93.2689 157.161 93.3555 150.785 93.5282 145.644C93.6745 141.33 92.9488 134.443 92.1808 127.153C91.8961 124.454 91.6091 121.73 91.3647 119.11C90.9807 113.94 90.0387 108.826 88.5551 103.858L88.5257 103.774L88.5386 103.685C89.3493 98.0738 87.3175 89.2 86.5522 85.8593C86.2035 84.3039 85.7553 82.3523 85.2999 80.4651C81.8253 81.8597 78.2033 82.8541 74.5038 83.4294C71.6478 83.9418 68.3986 84.3488 64.573 84.6735C59.513 85.0657 55.4488 85.0838 54.3717 85.08Z" fill="#2D4068"/>
<path d="M85.5547 79.9527C81.9881 81.4305 78.2574 82.4758 74.4422 83.0664C74.3555 80.1257 74.5289 72.0245 74.2981 71.9383C74.1283 71.8916 73.9542 71.8626 73.7784 71.8517C73.8073 71.8228 73.8073 71.8228 73.7784 71.8228C73.634 71.1598 73.2299 69.8912 72.682 68.2479C70.2861 61.3575 65.0618 47.5191 62.4648 41.1189C64.4562 39.6197 68.0929 36.6214 68.0929 36.6214C69.4103 35.7239 70.3625 34.384 70.777 32.8447C71.8741 33.5943 75.1353 35.8141 76.3188 37.5151C77.7334 39.5908 77.8774 40.4557 77.2422 41.263C76.6073 42.0415 77.1559 42.3297 77.7333 42.6756C78.3394 43.0216 78.8298 43.7712 78.9743 46.02C79.1188 48.2689 81.2253 56.312 81.8602 59.6278C82.4951 62.9144 84.0251 72.8609 84.0251 73.2068C84.0249 73.4084 84.7753 76.5508 85.5547 79.9527Z" fill="#C2D3E6"/>
<path d="M74.0874 83.5015L74.0749 83.0773C74.041 81.9203 74.0471 79.9426 74.0529 78.0298C74.0596 75.7675 74.0682 73.0015 73.9941 72.2477C73.9256 72.2379 73.8401 72.2281 73.7406 72.2171L72.9639 72.1376L73.3791 71.7286C73.192 70.9672 72.7491 69.6119 72.3334 68.3649C70.0303 61.7409 64.7808 47.8053 62.1238 41.258L62.0179 40.996L62.2432 40.8256C64.2059 39.3477 67.8228 36.3685 67.8592 36.3384C69.1069 35.4891 70.0131 34.225 70.4168 32.7707L70.5286 32.2314L70.9836 32.5418C72.2086 33.378 75.4051 35.5597 76.6196 37.3057C77.8862 39.1628 78.4051 40.3792 77.5306 41.4912C77.321 41.7479 77.322 41.8635 77.3273 41.8935C77.3492 42.0189 77.6358 42.1894 77.8654 42.3264C78.7823 42.8513 79.2085 43.9402 79.3406 45.9966C79.7716 48.8067 80.3446 51.5933 81.0572 54.3455C81.5322 56.3807 81.9804 58.3031 82.221 59.5596C82.8283 62.6972 84.3925 72.7654 84.3925 73.2069C84.4111 73.3832 84.7977 75.0497 85.207 76.8148L85.9809 80.1661L85.7045 80.2896C82.1117 81.7843 78.3512 82.8385 74.5051 83.4292L74.0874 83.5015ZM74.084 71.5179C74.1955 71.5323 74.3056 71.556 74.4131 71.5888C74.778 71.7248 74.8067 71.7357 74.7876 78.0317C74.7823 79.7203 74.7771 81.4596 74.7996 82.631C78.3404 82.0595 81.8052 81.0893 85.1279 79.7389L84.4912 76.9816C83.8263 74.1149 83.6574 73.3698 83.6574 73.2069C83.632 72.706 82.1268 62.9444 81.4993 59.6983C81.2615 58.4551 80.8142 56.5405 80.3412 54.5129C79.6144 51.7226 79.0357 48.8957 78.6073 46.0443C78.4625 43.7935 77.9669 43.2323 77.5512 42.9957C77.0935 42.7227 76.684 42.4785 76.6032 42.0207C76.5858 41.8398 76.6085 41.6572 76.6697 41.486C76.7308 41.3149 76.829 41.1593 76.9571 41.0303C77.4221 40.4393 77.4059 39.7632 76.0148 37.7222C75.0005 36.2646 72.3162 34.3505 70.9988 33.4425C70.4849 34.8607 69.5375 36.0811 68.2911 36.9307C68.2897 36.9355 64.9238 39.7083 62.9105 41.2427C65.6032 47.9022 70.7516 61.5782 73.0286 68.1274C73.6019 69.845 73.9271 70.8877 74.084 71.5179Z" fill="#6E8CBB"/>
<path d="M74.6459 36.7873C76.078 36.7629 77.4903 37.1237 78.7351 37.8321C79.98 38.5406 81.0116 39.5705 81.722 40.8142C83.5889 44.1526 86.2403 56.2294 86.3383 57.6039C86.4364 58.9783 86.7302 63.7893 91.7429 64.3794C95.6391 64.9265 99.6023 64.7609 103.439 63.8909C105.897 63.2042 106.978 63.5971 107.076 65.6589C107.174 67.7206 109.04 74.0046 106.288 74.7895C103.535 75.5744 88.4962 77.7312 81.2242 70.0717C73.9522 62.4121 74.6459 36.7873 74.6459 36.7873Z" fill="#6E8CBB"/>
<path d="M97.941 76.0386C92.317 76.0386 85.3058 74.9017 80.9579 70.3245C73.6636 62.6445 74.2433 37.8315 74.2715 36.7785L74.2806 36.4404L74.6174 36.4213C76.1196 36.3858 77.6032 36.7589 78.9098 37.5008C80.2165 38.2426 81.2972 39.3254 82.0365 40.6335C83.9914 44.1275 86.6073 56.2491 86.702 57.5765C86.8082 59.063 87.122 63.4639 91.7847 64.0119C95.6339 64.5461 99.5478 64.3832 103.339 63.531C104.931 63.0876 105.932 63.1009 106.587 63.5741C106.878 63.8291 107.107 64.1478 107.255 64.5053C107.403 64.8629 107.467 65.2499 107.442 65.6362C107.463 66.077 107.572 66.7405 107.699 67.5086C108.18 70.4337 108.839 74.4381 106.39 75.1373C103.619 75.7686 100.783 76.0711 97.941 76.0386ZM74.9995 37.1482C74.9546 40.2408 74.8624 62.8385 81.4908 69.8169C88.6889 77.3957 103.559 75.1804 106.188 74.4308C108.008 73.9116 107.386 70.1304 106.974 67.6287C106.844 66.8385 106.732 66.1546 106.709 65.671C106.733 65.3956 106.696 65.1184 106.6 64.859C106.505 64.5996 106.353 64.3644 106.157 64.1702C105.706 63.8445 104.875 63.8665 103.537 64.2401C99.6531 65.1185 95.6427 65.2885 91.6985 64.7419C88.2044 64.332 86.2778 61.952 85.9721 57.6698C85.8698 56.234 83.2261 44.2657 81.3956 40.9939C80.7426 39.8635 79.8131 38.9176 78.6943 38.2449C77.5755 37.5722 76.3041 37.1948 74.9995 37.1482Z" fill="#2D4068"/>
<path d="M60.1128 23.4474C59.8569 22.857 59.5624 22.2841 59.2312 21.7323C58.9283 20.9601 58.4421 20.2731 57.8144 19.7307C57.5091 19.5382 57.1525 19.443 56.7918 19.4575C55.3117 19.4759 54.9232 20.4924 55.0712 21.9708C55.2192 23.4492 55.9593 26.0737 58.3275 26.166C58.6716 26.2062 59.0194 26.1352 59.3202 25.9633C59.6209 25.7915 59.8587 25.5278 59.9987 25.211C60.2389 24.6539 60.2792 24.0308 60.1128 23.4474Z" fill="white"/>
<path d="M58.4206 26.5356C58.3853 26.5356 58.3493 26.5346 58.3135 26.5336C55.9778 26.4416 54.9184 24.1354 54.7055 22.0072C54.6233 21.611 54.6249 21.2019 54.7102 20.8064C54.7956 20.4108 54.9628 20.0375 55.2011 19.7104C55.4058 19.4997 55.6531 19.3352 55.9266 19.228C56.2001 19.1208 56.4933 19.0733 56.7867 19.0888C57.2201 19.0831 57.6463 19.1993 58.0169 19.424C58.6414 19.923 59.1277 20.5736 59.4294 21.3137L59.5568 21.5618C59.6449 21.7304 59.7418 21.9018 59.8399 22.0742C60.0811 22.472 60.2882 22.8895 60.4589 23.3222V23.3232C60.6569 23.9927 60.6141 24.7105 60.3378 25.3517C60.1776 25.7214 59.9079 26.033 59.5651 26.2447C59.2223 26.4564 58.8229 26.5579 58.4206 26.5356ZM56.8173 19.8244H56.7953C56.6043 19.8094 56.4123 19.8351 56.2319 19.8998C56.0516 19.9645 55.8871 20.0668 55.7492 20.1998C55.585 20.4539 55.4728 20.738 55.4191 21.0357C55.3654 21.3335 55.3713 21.6389 55.4364 21.9343C55.4996 22.5626 55.9348 25.7042 58.3417 25.798C58.6099 25.8295 58.8813 25.7761 59.1177 25.6454C59.3541 25.5146 59.5435 25.3131 59.6594 25.0691C59.8631 24.5959 59.901 24.0678 59.7672 23.5703C59.6101 23.178 59.4208 22.7994 59.2014 22.4382C59.099 22.2582 58.9976 22.0791 58.9057 21.9029L58.7755 21.6486C58.5233 21.0254 58.1243 20.4724 57.6123 20.0366C57.3741 19.8889 57.0975 19.815 56.8173 19.8244Z" fill="#D1D1D1"/>
<path d="M73.8497 126.526C73.825 126.527 73.8003 126.524 73.7761 126.519C73.6805 126.499 73.5966 126.442 73.5428 126.361C73.489 126.28 73.4696 126.18 73.4891 126.085C73.7149 124.978 74.0583 123.657 74.4562 122.127C75.9158 116.52 78.1211 108.048 76.5083 100.724C76.4972 100.677 76.4956 100.628 76.5034 100.58C76.5113 100.533 76.5284 100.487 76.554 100.446C76.5795 100.405 76.6129 100.369 76.6522 100.341C76.6915 100.313 76.736 100.293 76.7831 100.282C76.8302 100.271 76.879 100.27 76.9267 100.278C76.9743 100.285 77.02 100.303 77.061 100.328C77.1019 100.354 77.1375 100.388 77.1655 100.427C77.1935 100.466 77.2134 100.511 77.2242 100.558L77.2257 100.565C78.8763 108.062 76.6445 116.638 75.1675 122.313C74.7719 123.832 74.4305 125.143 74.2095 126.232C74.1925 126.315 74.1474 126.39 74.0819 126.443C74.0164 126.497 73.9344 126.526 73.8497 126.526Z" fill="#2D4068"/>
<path d="M71.6174 39.7453L67.8712 36.9143L68.3141 36.3281L71.1165 38.4458C71.3551 36.7381 71.322 35.0033 71.0185 33.3059L71.7398 33.168C72.1038 35.1561 72.1033 37.1939 71.7384 39.1819L71.6174 39.7453Z" fill="#6E8CBB"/>
<path d="M65.8239 37.1916C66.1116 36.7303 66.5108 36.349 66.9847 36.0826C67.5511 35.738 68.2132 35.5845 68.8734 35.6446C69.5336 35.7047 70.1571 35.9753 70.6519 36.4165C71.224 36.9307 71.5775 37.6445 71.6397 38.4112C71.6593 39.2279 71.0019 39.5252 70.3094 39.6853C69.3468 39.9641 68.3355 40.0325 67.3441 39.8857C66.9444 39.8054 66.5741 39.6174 66.2733 39.3422C65.9725 39.0669 65.7525 38.7147 65.6371 38.3237C65.5515 37.9363 65.6183 37.5309 65.8239 37.1916Z" fill="#DB9D99"/>
<path d="M68.6135 36.3694C69.1826 36.3683 69.732 36.5783 70.1554 36.9587C70.5788 37.3391 70.8461 37.863 70.9057 38.4291C70.9094 38.5818 70.9144 38.7915 70.1446 38.9687C69.5259 39.1284 68.8915 39.2192 68.2529 39.2393C67.9984 39.2412 67.7444 39.2167 67.4951 39.166C67.2324 39.1143 66.9882 38.9937 66.7875 38.8165C66.5868 38.6392 66.437 38.4118 66.3532 38.1575C66.3101 37.95 66.3495 37.7339 66.4632 37.5551C66.6882 37.2055 66.9962 36.9171 67.3598 36.7156C67.7391 36.4898 68.1722 36.3702 68.6136 36.3694M68.6136 35.6338C68.0404 35.6347 67.4779 35.7898 66.9852 36.0829C66.5113 36.3493 66.1121 36.7307 65.8244 37.192C65.6188 37.5312 65.5519 37.9365 65.6376 38.3237C65.7529 38.7148 65.9728 39.067 66.2737 39.3423C66.5745 39.6176 66.9448 39.8055 67.3446 39.8858C67.6435 39.9468 67.9478 39.9766 68.2529 39.9749C68.9473 39.956 69.6373 39.859 70.31 39.6857C71.0026 39.5257 71.6602 39.2283 71.6404 38.4113C71.5765 37.6529 71.2298 36.9463 70.669 36.4318C70.1083 35.9172 69.3745 35.6324 68.6135 35.6338H68.6136Z" fill="#944A45"/>
<path d="M67.7351 39.3152C68.5517 43.3931 70.9105 52.6361 71.5457 58.7076C72.181 64.7791 74.1767 79.6405 75.3563 80.7279C76.536 81.8152 78.9852 84.7148 79.8924 84.8057C80.7996 84.8966 81.2533 82.631 81.6165 80.7279C81.9797 78.8247 79.3475 71.4848 78.531 68.0413C77.7145 64.5977 73.8135 44.3898 71.5454 40.4026C69.2774 36.4154 67.7351 39.3152 67.7351 39.3152Z" fill="#DB9D99"/>
<path d="M79.9544 85.1768C79.9212 85.1771 79.888 85.1755 79.8549 85.172C79.1292 85.0993 78.0005 83.9739 76.3617 82.2662C75.8835 81.7681 75.4428 81.3083 75.1071 80.9981C73.644 79.6509 71.5352 62.1375 71.1803 58.7464C70.4862 53.6896 69.5323 48.6719 68.3223 43.7132C67.9358 41.9998 67.5981 40.5018 67.3752 39.3879L67.3494 39.2595L67.4111 39.1437C67.5832 38.8139 67.8331 38.531 68.1391 38.3196C68.4452 38.1081 68.7981 37.9744 69.1675 37.9301C70.1064 37.9081 70.9927 38.6878 71.8647 40.2211C73.7046 43.4549 76.5388 56.8976 78.0613 64.1192C78.4363 65.8968 78.7247 67.2655 78.8883 67.956C79.149 69.0566 79.6 70.5679 80.0774 72.1683C81.1403 75.7331 82.2394 79.4196 81.9763 80.7968C81.5038 83.2737 81.0515 85.1768 79.9544 85.1768ZM68.1238 39.3847C68.3457 40.4775 68.67 41.9161 69.0389 43.551C70.2555 48.5378 71.2142 53.584 71.9111 58.6695C72.7673 66.8613 74.6959 79.6198 75.6042 80.4569C75.949 80.7758 76.4006 81.2461 76.8909 81.7566C77.8355 82.7412 79.4168 84.3886 79.9282 84.4407C80.527 84.4866 81.0537 81.7091 81.2546 80.6594C81.4836 79.4585 80.3132 75.5334 79.3729 72.3795C78.8929 70.7685 78.4386 69.2476 78.1732 68.127C78.0087 67.4326 77.7183 66.0573 77.3419 64.2719C75.9362 57.6002 73.0091 43.7194 71.2262 40.5847C70.5117 39.3281 69.8076 38.6653 69.19 38.6653H69.1802C68.961 38.6969 68.7519 38.7782 68.5688 38.9028C68.3857 39.0275 68.2335 39.1923 68.1238 39.3847Z" fill="#944A45"/>
<path d="M72.6825 68.2473C69.6522 65.7389 66.1613 59.4817 65.2089 57.8381C64.2277 56.1658 57.5913 46.9387 56.8988 45.9008C56.2063 44.8917 55.6291 43.796 56.0047 43.4213C56.4086 43.0177 57.3037 42.0953 57.3037 42.0953C56.5478 41.821 55.7768 41.5899 54.9947 41.4029C54.302 41.2875 53.9561 39.1829 53.495 35.406C53.5744 35.3212 53.6614 35.244 53.7551 35.1754C55.4238 33.5254 56.9318 31.7205 58.2589 29.7852C58.8192 32.6135 59.7706 35.35 61.0858 37.9159C61.3164 38.3482 61.8071 39.5016 62.4705 41.1163C65.0665 47.5165 70.2876 61.3559 72.6825 68.2473Z" fill="#6E8CBB"/>
<path d="M73.4613 69.3706L72.4483 68.5317C69.5554 66.1372 66.3153 60.5035 65.0956 58.3831L64.8889 58.0249C64.2269 56.8976 60.884 52.1844 58.6718 49.0658C57.6258 47.5908 56.8083 46.4377 56.5883 46.1082C55.5355 44.5749 55.2647 43.6381 55.7402 43.1651C55.9646 42.9409 56.3409 42.5549 56.6304 42.258C56.0709 42.0625 55.5006 41.8994 54.9223 41.7695C54.0264 41.6192 53.6868 40.0608 53.1234 35.4559L53.1013 35.2787L53.2271 35.1513C53.3235 35.0483 53.4301 34.9553 53.5452 34.8736C55.1719 33.2501 56.645 31.4796 57.9457 29.5848L58.4513 28.8262L58.6125 29.7236C59.1642 32.5139 60.1032 35.2134 61.4021 37.7439C61.6211 38.1539 62.053 39.1519 62.804 40.9793C65.4658 47.5372 70.7215 61.491 73.029 68.1274L73.4613 69.3706ZM53.8748 35.5488C54.1039 37.4184 54.5521 40.9497 55.0495 41.0443C55.8534 41.2342 56.6455 41.4705 57.422 41.7521L57.9596 41.9446L57.5616 42.356C57.5616 42.356 56.6638 43.2803 56.2587 43.6863C56.2042 43.7725 56.2587 44.33 57.1962 45.6957C57.4177 46.0281 58.2303 47.1735 59.2702 48.6399C61.4896 51.769 64.8435 56.4975 65.5227 57.6535L65.7318 58.0165C67.4561 61.1884 69.4995 64.1762 71.8302 66.9334C69.3339 59.8957 64.6019 47.3642 62.1239 41.2583C61.6641 40.1396 61.0218 38.5928 60.7549 38.0928C59.553 35.7515 58.6483 33.2692 58.062 30.7036C56.8402 32.3961 55.4799 33.9843 53.9952 35.4516C53.9533 35.4819 53.9132 35.5143 53.8748 35.5488Z" fill="#2D4068"/>
<path d="M70.366 34.1123C74.0892 35.0444 74.8619 36.1344 77.3797 39.0146C79.8976 41.8949 77.4256 43.0408 77.4256 43.0408C78.0577 43.3649 78.5837 43.8633 78.9415 44.4769C79.2993 45.0905 79.474 45.7938 79.4447 46.5035C79.3145 48.9568 82.5347 58.3268 83.589 67.9626C84.6433 77.5985 88.2805 92.6689 88.5332 95.9124C88.7858 99.1558 90.2612 106.637 86.9209 106.496C83.5805 106.354 84.404 95.9569 83.6843 90.8418C82.9646 85.7267 77.7394 64.2537 76.4528 57.3637C75.1663 50.4738 70.6329 36.2759 70.6329 36.2759L70.366 34.1123Z" fill="#6E8CBB"/>
<path d="M87.0212 106.862C86.9853 106.862 86.9493 106.861 86.9134 106.86C84.1646 106.744 83.922 101.287 83.6877 96.0095C83.603 94.0987 83.5226 92.2942 83.3252 90.8911C82.9254 88.0541 81.1255 80.1334 79.3849 72.4732C77.9841 66.308 76.6609 60.4856 76.0898 57.4303C74.8208 50.6425 70.3218 36.5298 70.2768 36.388L69.994 34.1579C69.9867 34.0986 69.9939 34.0384 70.015 33.9825C70.036 33.9266 70.0704 33.8767 70.1151 33.8371C70.1603 33.7986 70.2139 33.7712 70.2716 33.7571C70.3293 33.7429 70.3895 33.7424 70.4474 33.7557C74.0703 34.6617 74.9968 35.7257 77.2343 38.2955L77.65 38.7715C78.0692 39.1512 78.3939 39.6236 78.5981 40.1511C78.8023 40.6786 78.8804 41.2465 78.8262 41.8096C78.7202 42.2828 78.4628 42.7085 78.0929 43.0221C78.6563 43.408 79.1102 43.9331 79.4105 44.5463C79.7108 45.1596 79.8473 45.8401 79.8066 46.5218C80.0214 48.6754 80.4371 50.8042 81.0484 52.8804C82.3335 57.8273 83.3037 62.8507 83.9532 67.9204C84.5831 73.6679 86.1114 81.2363 87.3397 87.3172C88.1562 91.3609 88.801 94.5551 88.9047 95.8807C88.9445 96.3883 89.0143 97.0012 89.0908 97.6726C89.4496 100.815 89.8959 104.726 88.4867 106.241C88.301 106.443 88.0741 106.603 87.8213 106.71C87.5685 106.817 87.2956 106.869 87.0212 106.862ZM70.7893 34.6056L70.9901 36.231C71.0208 36.3056 75.5337 50.4616 76.8113 57.2944C77.3794 60.3362 78.7011 66.1518 80.1006 72.3103C81.8443 79.9849 83.6478 87.921 84.0515 90.7877C84.2544 92.2262 84.3356 94.048 84.4213 95.9769C84.6203 100.459 84.868 106.037 86.9435 106.124C87.1294 106.142 87.3168 106.116 87.4912 106.05C87.6656 105.983 87.8222 105.877 87.9488 105.739C89.1275 104.471 88.6659 100.43 88.3608 97.7558C88.2833 97.0749 88.2124 96.453 88.1718 95.938C88.0718 94.6565 87.4308 91.4824 86.6191 87.4627C85.3885 81.3674 83.8567 73.7809 83.2231 68.0007C82.5764 62.9624 81.6115 57.9701 80.3341 53.0537C79.5678 49.8825 79.0144 47.5905 79.0728 46.4834C79.0974 45.8468 78.9404 45.2163 78.62 44.6656C78.2997 44.115 77.8293 43.6668 77.2637 43.3735C77.2004 43.3437 77.1469 43.2965 77.1095 43.2374C77.072 43.1783 77.0522 43.1097 77.0524 43.0397C77.0525 42.9697 77.0726 42.9012 77.1103 42.8423C77.148 42.7833 77.2018 42.7364 77.2652 42.7069C77.4717 42.5992 77.6534 42.4495 77.7987 42.2674C77.9439 42.0853 78.0494 41.8748 78.1084 41.6495C78.1281 41.2005 78.0475 40.7527 77.8725 40.3387C77.6976 39.9246 77.4326 39.5548 77.0968 39.256L76.6807 38.7781C74.605 36.3948 73.7588 35.4236 70.7895 34.6056H70.7893Z" fill="#2D4068"/>
<path d="M73.0663 73.3104L74.295 71.9358C74.295 71.9358 78.2758 70.7577 79.9472 70.4631C81.6187 70.1685 83.6823 72.0341 86.1396 72.2304C88.5969 72.4267 93.02 71.9358 92.5285 74.194C92.0371 76.4521 84.3704 81.2629 74.0497 79.8885C63.729 78.514 73.0663 73.3104 73.0663 73.3104Z" fill="white"/>
<path d="M77.6561 80.4967C76.4337 80.4964 75.2126 80.4151 74.0009 80.2534C70.7842 79.8243 69.101 78.9872 68.8552 77.6913C68.4586 75.6024 72.1809 73.39 72.8333 73.0193L74.0908 71.6133L74.1907 71.5839C74.3543 71.535 78.211 70.3963 79.8832 70.1013C80.9791 70.0573 82.0647 70.3267 83.0128 70.878C84.0016 71.3821 85.0684 71.7156 86.1683 71.8645C86.6614 71.9037 87.2349 71.9154 87.8313 71.9268C89.8144 71.966 91.8655 72.0072 92.6342 72.9823C92.7729 73.1635 92.8678 73.3743 92.9116 73.5982C92.9554 73.8222 92.9469 74.0532 92.8867 74.2733C92.418 76.429 86.2515 80.4967 77.6561 80.4967ZM74.4988 72.2598L73.2449 73.6312C72.1347 74.2508 69.3121 76.1626 69.5767 77.5542C69.6982 78.1939 70.5816 79.055 74.0973 79.5231C84.5155 80.9129 91.7706 75.9469 92.1691 74.1158C92.2063 74.002 92.2157 73.8808 92.1963 73.7627C92.1769 73.6445 92.1293 73.5327 92.0576 73.4368C91.5037 72.7347 89.4593 72.6944 87.816 72.6619C87.2037 72.6495 86.6154 72.638 86.1093 72.5977C84.9276 72.4422 83.7807 72.0883 82.7168 71.551C81.8964 71.0701 80.9614 70.8193 80.0105 70.8251C78.5252 71.0875 75.125 72.0759 74.4988 72.2598Z" fill="#D1D1D1"/>
<path d="M168.362 184.651H23.7231V185.632H168.362V184.651Z" fill="#B1B1B1"/>
<path d="M73.7781 71.8217C73.2877 71.7929 72.3639 71.764 70.517 71.7924C67.6018 71.8494 54.9881 73.1731 54.8736 68.5025C54.7882 63.832 55.1358 58.095 54.0107 54.8944C53.0589 52.2419 50.1458 42.0644 49.165 38.6335C50.8395 37.4806 52.6293 36.1547 53.4955 35.4053C53.9566 39.1822 54.3026 41.2868 54.9952 41.4022C55.7773 41.5892 56.5483 41.8204 57.3042 42.0946C57.3042 42.0946 56.4091 43.017 56.0052 43.4206C55.6296 43.7953 56.2068 44.891 56.8993 45.9001C57.5919 46.9381 64.2282 56.1651 65.2094 57.8374C66.1618 59.481 69.6528 65.7378 72.683 68.2466C73.2303 69.8901 73.6338 71.1587 73.7781 71.8217Z" fill="#6E8CBB"/>
<path d="M52.1279 81.3564C50.751 85.3815 49.6693 88.2286 49.3731 94.0211C49.077 99.8137 47.6015 105.802 47.7978 106.981C47.9942 108.159 48.6821 109.043 52.3187 109.534C55.9554 110.026 62.934 110.617 65.3914 110.617C67.8487 110.618 72.3701 110.619 73.158 102.666C73.946 94.7136 75.3231 89.5106 73.0639 83.7173" fill="#6E8CBB"/>
<path d="M73.1115 86.0352C72.3321 86.0638 68.003 85.0827 64.5397 84.3037C63.9048 84.1305 63.3274 83.9863 62.7788 83.8709C59.2001 83.034 53.8609 82.5717 47.3669 82.0801C40.8729 81.5885 41.5096 72.5075 41.5101 70.3163C41.5105 68.0964 41.8604 49.011 42.0636 46.0128C42.2668 43.0146 44.2294 41.7751 46.1345 40.6511C46.8562 40.2189 47.9821 39.4695 49.1653 38.6338C50.1462 42.0647 53.0593 52.2422 54.011 54.8947C55.1361 58.0953 54.7885 63.8323 54.8739 68.5028C54.9885 73.1733 67.6022 71.8496 70.5173 71.7926C72.3642 71.7642 73.2879 71.7932 73.7784 71.822V71.8509C73.9542 71.8619 74.1283 71.8909 74.2981 71.9376C74.5289 72.0241 74.3538 80.1253 74.4399 83.0658L74.4399 83.3253C74.5257 86.0355 74.0353 85.9782 73.1115 86.0352Z" fill="#6E8CBB"/>
<path d="M73.083 86.4038C70.286 85.9917 67.5123 85.4344 64.7732 84.7341L64.4623 84.6642C63.8189 84.4898 63.2483 84.3462 62.7064 84.2332C59.0721 83.3837 53.5982 82.9239 47.3414 82.4517C40.9531 81.9699 41.0908 73.6134 41.1363 70.8674L41.1429 70.3228C41.1429 68.3316 41.4878 49.0219 41.6915 45.9943C41.9125 42.7178 44.1463 41.399 45.9409 40.3396C46.6462 39.9184 47.77 39.1693 48.9462 38.3379L49.3689 38.04L49.5111 38.5372C52.0825 47.5258 53.7117 52.988 54.353 54.7743C55.2451 57.3105 55.2346 61.3254 55.226 65.207C55.2231 66.3314 55.2202 67.4434 55.2398 68.4999C55.2454 68.7718 55.3081 69.0395 55.4238 69.2857C55.5395 69.5318 55.7056 69.751 55.9114 69.9288C58.2063 72.0581 65.4956 71.6771 68.9967 71.4922C69.6248 71.4596 70.1429 71.4329 70.5101 71.4251C71.9728 71.4041 73.0797 71.4118 73.8 71.4545L74.1458 71.4741V71.5258C74.2363 71.5396 74.3257 71.5601 74.4132 71.5871C74.7781 71.7231 74.8068 71.7341 74.7877 78.03C74.7819 79.937 74.7757 81.9092 74.8097 83.0545V83.3246C74.891 85.8656 74.4844 86.3215 73.2207 86.3962L73.128 86.4019L73.083 86.4038ZM48.9476 39.2364C47.914 39.9566 46.9521 40.5917 46.3163 40.9728C44.5825 41.9957 42.62 43.1547 42.4248 46.0443C42.2211 49.0622 41.8776 68.3345 41.8776 70.3229C41.8776 70.4771 41.8748 70.6639 41.871 70.8803C41.824 73.7268 41.6992 81.2894 47.3969 81.7185C53.6843 82.1935 59.1879 82.6561 62.8652 83.5152C63.4119 83.6301 63.9959 83.7757 64.6388 83.9501L64.9344 84.0162C68.0397 84.7153 72.2785 85.6683 73.071 85.6683L73.0973 85.6674L73.1772 85.6626C73.8832 85.6214 74.1477 85.6051 74.075 83.3371V83.066C74.041 81.9199 74.0472 79.9418 74.053 78.0291C74.0597 75.7669 74.0683 73.0008 73.9942 72.247C73.9256 72.2372 73.8402 72.2274 73.7407 72.2164L73.4107 72.1723C72.7166 72.1465 71.7481 72.1435 70.5226 72.1608C70.1634 72.1675 69.6526 72.1944 69.035 72.2269C65.1559 72.429 57.9353 72.8063 55.4122 70.4694C55.1341 70.2243 54.91 69.9242 54.7538 69.5881C54.5977 69.2519 54.5131 68.8871 54.5052 68.5165C54.4857 67.4524 54.4885 66.3356 54.4914 65.2065C54.5004 61.3861 54.51 57.4361 53.661 55.0215C53.0271 53.2553 51.4416 47.9454 48.9476 39.2363V39.2364Z" fill="#2D4068"/>
<path d="M64.3575 72.3823C60.8768 72.3823 57.0971 72.0318 55.4125 70.4706C55.1345 70.2256 54.9103 69.9255 54.7542 69.5893C54.5981 69.2532 54.5134 68.8883 54.5056 68.5177C54.486 67.4536 54.4888 66.3369 54.4918 65.2077C54.5008 61.3873 54.5104 57.4373 53.6614 55.0227L54.354 54.7778C55.2454 57.3121 55.2356 61.327 55.2265 65.2089C55.2235 66.3333 55.2207 67.4453 55.2403 68.5018C55.2459 68.7737 55.3086 69.0414 55.4243 69.2876C55.54 69.5337 55.7061 69.7528 55.9119 69.9307C58.2063 72.059 65.4955 71.678 68.9967 71.4931C69.6247 71.4605 70.1428 71.4338 70.5101 71.426C71.6695 71.4088 72.6042 71.4098 73.3025 71.4338C73.0939 70.6704 72.7233 69.5344 72.3664 68.4636C69.4946 66.0319 66.3038 60.4835 65.0956 58.3832L64.8889 58.0249C64.2269 56.8976 60.8839 52.1844 58.6717 49.0659C57.6257 47.5909 56.8082 46.4377 56.5882 46.1083C55.5355 44.5749 55.2647 43.6381 55.7402 43.1651C55.9645 42.941 56.3409 42.5549 56.6303 42.258C56.0708 42.0625 55.5005 41.8995 54.9222 41.7696C54.0714 41.6268 53.7221 40.2132 53.2061 36.1225C52.269 36.8753 50.8212 37.9404 49.3666 38.9423L48.9504 38.3369C50.6934 37.1359 52.4202 35.8487 53.2476 35.1323L53.7686 34.6816L53.8522 35.3655C54.0742 37.1767 54.5353 40.9456 55.0495 41.0442C55.8533 41.234 56.6455 41.4704 57.4219 41.752L57.9595 41.9444L57.5615 42.3559C57.5615 42.3559 56.6637 43.2801 56.2587 43.6861C56.2041 43.7724 56.2587 44.3298 57.1962 45.6956C57.4176 46.028 58.2302 47.1734 59.2701 48.6398C61.4895 51.7689 64.8434 56.4974 65.5227 57.6534L65.7317 58.0164C66.9332 60.1053 70.1255 65.6556 72.9156 67.9648L72.9969 68.0319L73.0299 68.1315C73.6764 70.069 74.007 71.1494 74.1368 71.7442L74.2402 72.2182L73.7566 72.1895C73.054 72.1503 71.9662 72.1388 70.5227 72.1617C70.1635 72.1685 69.6526 72.1953 69.0351 72.2279C67.7464 72.2947 66.089 72.3823 64.3575 72.3823Z" fill="#2D4068"/>
<path d="M65.3998 110.987C63.0201 110.987 56.0301 110.41 52.2776 109.904C48.565 109.402 47.6753 108.439 47.4429 107.047C47.4568 105.703 47.6111 104.364 47.9033 103.051C48.4357 100.059 48.8055 97.0397 49.011 94.0071C49.0895 90.1731 49.8402 86.3825 51.229 82.808L51.4289 82.2246L52.1244 82.4622L51.9241 83.0474C50.5598 86.5577 49.8222 90.2801 49.7448 94.0454C49.5381 97.105 49.1653 100.151 48.6281 103.17C48.3675 104.407 48.2134 105.664 48.1677 106.927C48.3183 107.832 48.7541 108.686 52.3759 109.174C56.1048 109.677 63.0428 110.251 65.3995 110.251C67.8853 110.251 72.0452 110.251 72.799 102.63C72.9564 101.039 73.1372 99.5573 73.3084 98.1589C73.8668 93.5865 74.3076 89.9748 73.4806 86.3157L74.1972 86.1529C75.0524 89.937 74.6047 93.6043 74.0374 98.2476C73.8676 99.6412 73.6873 101.117 73.5304 102.702C72.7113 110.987 67.7732 110.987 65.3998 110.987Z" fill="#2D4068"/>
<path d="M73.083 86.4037C70.286 85.9916 67.5123 85.4343 64.7732 84.734L64.4623 84.6642C63.8189 84.4898 63.2483 84.3462 62.7064 84.2331C59.0721 83.3836 53.5982 82.9238 47.3414 82.4516C40.9531 81.9699 41.0908 73.6134 41.1363 70.8674L41.1429 70.3227C41.1429 68.3315 41.4878 49.0218 41.6915 45.9943C41.9125 42.7177 44.1463 41.3989 45.9409 40.3396C46.6462 39.9184 47.77 39.1693 48.9462 38.3379L49.3699 38.9394C48.1794 39.7802 47.0377 40.5408 46.3159 40.9727C44.582 41.9956 42.6195 43.1545 42.4243 46.0441C42.2206 49.0621 41.8771 68.3344 41.8771 70.3227C41.8771 70.4769 41.8743 70.6637 41.8705 70.8801C41.8235 73.7266 41.6987 81.2893 47.3964 81.7183C53.6839 82.1933 59.1874 82.656 62.8647 83.5151C63.4114 83.63 63.9954 83.7756 64.6383 83.9499L64.9339 84.0161C67.6247 84.7117 70.3509 85.2629 73.1006 85.6673C73.8827 85.6212 74.1472 85.605 74.0746 83.3369V83.0659C74.0406 81.9197 74.0467 79.9416 74.0525 78.029C74.0592 75.7667 74.0678 73.0006 73.9937 72.2468C73.9252 72.237 73.8397 72.2272 73.7402 72.2163L73.4102 72.1722C72.7161 72.1463 71.7476 72.1434 70.5222 72.1607C70.163 72.1674 69.6521 72.1943 69.0346 72.2268C65.1554 72.4289 57.9348 72.8062 55.4117 70.4693C55.1336 70.2242 54.9095 69.9241 54.7534 69.588C54.5973 69.2518 54.5126 68.8869 54.5048 68.5164C54.4852 67.4522 54.488 66.3355 54.491 65.2063C54.5 61.3859 54.5096 57.4359 53.6606 55.0213C53.2693 53.9323 52.5069 51.4654 51.3948 47.6886L52.1001 47.4798C53.2079 51.2429 53.966 53.6977 54.3531 54.7743C55.2452 57.3104 55.2348 61.3254 55.2261 65.2069C55.2232 66.3314 55.2204 67.4433 55.2399 68.4998C55.2456 68.7718 55.3082 69.0395 55.4239 69.2857C55.5396 69.5318 55.7058 69.7509 55.9116 69.9288C58.2063 72.0581 65.4956 71.677 68.9967 71.4922C69.6248 71.4596 70.1429 71.4328 70.5101 71.4251C71.9728 71.404 73.0797 71.4118 73.8 71.4545L74.1458 71.4741V71.5258C74.2363 71.5396 74.3257 71.5601 74.4132 71.5871C74.7781 71.7231 74.8068 71.734 74.7877 78.03C74.7819 79.9369 74.7757 81.9092 74.8097 83.0545V83.3246C74.891 85.8655 74.4844 86.3214 73.2207 86.3962L73.128 86.4019L73.083 86.4037Z" fill="#2D4068"/>
</svg>
