<svg width="192" height="192" viewBox="0 0 192 192" fill="none" xmlns="http://www.w3.org/2000/svg">
<path d="M24.5637 185.026H167.436" stroke="#B1B1B1" stroke-miterlimit="10"/>
<path d="M120.462 113.559C135.269 89.438 137.814 83.9621 157.619 72.0936C177.423 60.2252 175.321 28.6262 137.096 28.8276C121.183 28.9115 104.745 27.5616 89.6945 22.1319C84.6186 20.3635 79.7779 17.9812 75.2802 15.038C70.8288 12.0515 66.9247 6.12876 61.1172 6.51616C45.2124 7.57728 31.5042 25.2286 26.1297 38.5695C17.2575 60.5921 23.8248 84.3598 36.2351 103.578C78.0908 168.395 114.277 123.635 120.462 113.559Z" fill="#E6E6E6"/>
<path d="M57.7916 173.89C57.626 177.229 57.5156 179.768 57.488 181.038C57.4604 182.307 57.8192 184.788 59.8339 184.788H67.3959C68.6654 184.788 70.3765 184.322 70.3765 182.28C70.3765 180.237 69.1898 177.699 68.4998 176.264C67.8099 174.829 67.2855 173.504 67.2855 173.504L57.7916 173.89Z" fill="#424242"/>
<path d="M67.3957 185.155H59.8338C59.524 185.162 59.2161 185.105 58.9293 184.988C58.6426 184.87 58.3833 184.695 58.1677 184.472C57.4166 183.487 57.0448 182.265 57.12 181.029C57.1468 179.804 57.2493 177.396 57.4242 173.871L57.441 173.536L67.5313 173.125L67.6276 173.368C67.6328 173.381 68.1555 174.697 68.8315 176.104C69.4523 177.395 70.7443 180.082 70.7443 182.279C70.7443 184.08 69.4925 185.155 67.3957 185.155ZM58.1423 174.243C57.978 177.578 57.8817 179.866 57.8558 181.044C57.7746 182.084 58.0722 183.119 58.6937 183.957C58.8408 184.109 59.0182 184.229 59.2146 184.309C59.411 184.389 59.622 184.426 59.8338 184.419H67.3957C68.3715 184.419 70.0085 184.142 70.0085 182.279C70.0085 180.25 68.7658 177.664 68.1684 176.422C67.6534 175.351 67.2266 174.333 67.0417 173.882L58.1423 174.243Z" fill="#181818"/>
<path d="M75.4822 175.16C74.5426 176.367 74.0984 177.887 74.2403 179.41V184.653H91.655C91.9551 184.678 92.2572 184.644 92.544 184.552C92.8309 184.461 93.0969 184.313 93.3269 184.119C93.5568 183.924 93.7462 183.687 93.8843 183.419C94.0223 183.151 94.1063 182.859 94.1314 182.559C94.1353 182.512 94.1378 182.465 94.1388 182.418C94.1608 181.643 93.9266 180.882 93.4726 180.253C93.0186 179.625 92.37 179.163 91.6273 178.94C89.8058 178.168 85.8592 176.898 85.114 176.126C84.3688 175.353 82.9337 173.504 82.9337 173.504L75.4822 175.16Z" fill="#424242"/>
<path d="M91.655 185.02H73.8725V179.315C73.7471 177.749 74.2126 176.193 75.1774 174.953L75.2594 174.832L83.0814 173.094L83.2246 173.279C83.2385 173.297 84.656 175.121 85.3789 175.869C86.7389 176.678 88.1888 177.325 89.699 177.798C90.4851 178.092 91.2233 178.369 91.7709 178.601C92.5782 178.856 93.2811 179.365 93.7743 180.054C94.2675 180.742 94.5245 181.571 94.5068 182.417C94.4946 183.122 94.2032 183.792 93.6966 184.282C93.19 184.771 92.5097 185.039 91.8054 185.027C91.7552 185.026 91.7051 185.024 91.655 185.02ZM74.6083 184.285H91.655C92.1641 184.334 92.6722 184.18 93.0674 183.855C93.4626 183.53 93.7127 183.062 93.7625 182.553C93.7669 182.508 93.7697 182.463 93.771 182.417C93.7913 181.715 93.5777 181.025 93.1637 180.457C92.7496 179.889 92.1587 179.474 91.4835 179.278C90.9436 179.05 90.2159 178.777 89.4408 178.487C87.092 177.606 85.388 176.939 84.849 176.381C84.2306 175.739 83.1719 174.404 82.7867 173.913L75.7058 175.486C74.8757 176.581 74.4843 177.947 74.6083 179.315V184.285Z" fill="#181818"/>
<path d="M89.6401 102.429C89.168 102.742 88.7751 103.161 88.4926 103.652C88.2101 104.144 88.0456 104.694 88.0122 105.26V114.142C88.0122 114.496 89.2155 114.991 90.5956 114.779C91.8239 114.65 92.978 114.129 93.8869 113.293C94.9485 112.373 96.3641 111.311 96.5057 108.975C96.6472 106.64 95.2316 104.057 95.3732 102.429L89.6401 102.429Z" fill="white"/>
<path d="M89.9305 115.197C89.2146 115.233 88.506 115.039 87.9079 114.643C87.8294 114.585 87.7649 114.51 87.7193 114.423C87.6737 114.336 87.6481 114.24 87.6444 114.142V105.259C87.6765 104.631 87.8561 104.019 88.1687 103.473C88.4813 102.927 88.9181 102.463 89.4437 102.117L89.5338 102.061H95.7744L95.7395 102.46C95.7621 103.358 95.9261 104.247 96.2252 105.094C96.6523 106.351 96.8711 107.67 96.8729 108.998C96.8046 109.873 96.5412 110.723 96.1018 111.483C95.6625 112.244 95.0584 112.897 94.3339 113.393L94.1279 113.57C93.1659 114.451 91.948 115.002 90.6514 115.143C90.4128 115.179 90.1718 115.197 89.9305 115.197ZM89.7556 102.796C89.3563 103.077 89.0253 103.445 88.7872 103.871C88.5491 104.297 88.41 104.772 88.3803 105.259V114.142C89.0554 114.452 89.8091 114.547 90.5399 114.414C91.6991 114.295 92.7887 113.804 93.646 113.015L93.8549 112.835C94.5022 112.4 95.0436 111.826 95.4388 111.154C95.834 110.482 96.073 109.73 96.1381 108.954C96.1282 107.708 95.9184 106.472 95.5167 105.293C95.2516 104.483 95.0776 103.645 94.9979 102.796L89.7556 102.796Z" fill="#D1D1D1"/>
<path d="M88.1775 91.5135C89.1987 97.4192 90.3026 116.075 89.309 123.47C88.3155 130.866 87.9291 132.66 86.977 134.771C86.0248 136.882 84.4517 138 85.1141 142.926C85.7764 147.852 85.4866 149.467 84.9899 151.702C84.5825 153.176 84.655 154.742 85.1969 156.173C85.5556 157.68 85.5838 159.248 85.2797 160.767C84.7572 164.135 84.5759 167.547 84.7386 170.951C84.9071 175.587 85.1141 175.173 83.9136 175.256C82.713 175.338 82.3404 175.007 81.0157 175.918C79.691 176.829 75.9238 177.325 75.1372 176.332C74.3506 175.338 74.1436 175.794 74.0195 171.737C73.8953 167.68 72.7775 126.741 72.7775 126.741C72.7775 126.741 67.5201 146.652 67.4372 155.883C67.3544 165.114 67.5614 168.053 67.9754 169.709C68.3894 171.365 69.4657 174.759 66.5678 174.759C64.6342 174.721 62.7066 174.987 60.855 175.545C58.9921 176.001 57.1705 175.918 56.8394 173.393C56.5082 170.868 55.5146 165.114 55.2662 162.175C55.0179 159.236 54.6867 152.281 55.763 148.225C56.8393 144.168 56.7979 88.6572 56.7979 88.6572L88.1775 91.5135Z" fill="#6E8CBB"/>
<path d="M77.1263 177.251C76.7195 177.299 76.3074 177.262 75.9155 177.143C75.5236 177.025 75.1605 176.826 74.8488 176.561C74.7372 176.42 74.6381 176.31 74.5494 176.212C73.9247 175.518 73.7571 175.194 73.6517 171.749C73.5477 168.342 72.7318 138.543 72.4818 129.402C71.0744 135.082 67.869 148.77 67.8053 155.886C67.721 165.273 67.9346 168.03 68.3323 169.62L68.4185 169.958C68.7576 171.271 69.2707 173.256 68.4127 174.364C68.1874 174.628 67.9028 174.835 67.5821 174.967C67.2614 175.1 66.9139 175.155 66.5679 175.127C64.8721 175.082 63.1792 175.292 61.5465 175.753L60.9424 175.903C60.4079 176.102 59.8371 176.184 59.2682 176.145C58.6993 176.105 58.1455 175.943 57.6441 175.671C57.3005 175.405 57.0182 175.069 56.8164 174.684C56.6146 174.299 56.4981 173.875 56.4748 173.441C56.3598 172.567 56.1658 171.307 55.9507 169.909C55.5349 167.204 55.063 164.139 54.8996 162.206C54.7694 160.666 54.1825 152.747 55.4074 148.132C56.4594 144.167 56.4307 89.2129 56.4302 88.6582L56.4297 88.2549L56.8317 88.2922L88.4919 91.1731L88.5402 91.4519C89.5228 97.1321 90.6902 115.955 89.6736 123.52C88.6921 130.826 88.2949 132.744 87.3124 134.923C87.103 135.387 86.8645 135.805 86.6335 136.21C85.7799 137.707 84.9736 139.121 85.4785 142.878C86.142 147.812 85.8618 149.476 85.3492 151.782C84.953 153.191 85.0221 154.691 85.5461 156.057C85.9263 157.632 85.9572 159.27 85.6367 160.857C85.1221 164.191 84.9445 167.568 85.1063 170.938C85.1327 171.669 85.16 172.273 85.183 172.774C85.2644 174.56 85.286 175.04 84.9928 175.359C84.8843 175.455 84.7568 175.527 84.6187 175.571C84.4805 175.614 84.3347 175.628 84.1909 175.611L83.9389 175.624C83.6657 175.641 83.3918 175.645 83.1183 175.634C82.7794 175.602 82.4375 175.638 82.1124 175.738C81.7873 175.839 81.4854 176.003 81.2241 176.221C79.9705 176.914 78.5584 177.269 77.1263 177.251ZM73.0754 124.172L73.1453 126.732C73.1564 127.141 74.2649 167.717 74.3875 171.726C74.4891 175.045 74.6299 175.201 75.0965 175.719C75.1938 175.828 75.303 175.949 75.4257 176.105C76.0115 176.841 79.4809 176.528 80.8073 175.616C81.4607 175.083 82.2957 174.826 83.1356 174.898C83.3864 174.909 83.6376 174.906 83.8882 174.89L84.1617 174.875C84.2652 174.876 84.3685 174.867 84.4702 174.848C84.5232 174.168 84.5158 173.486 84.4482 172.808C84.4252 172.305 84.3974 171.698 84.371 170.965C84.2078 167.526 84.3927 164.08 84.9229 160.679C85.2125 159.228 85.1868 157.731 84.8477 156.29C84.2848 154.796 84.2088 153.162 84.6307 151.623C85.126 149.395 85.3962 147.786 84.7495 142.975C84.2115 138.973 85.1179 137.382 85.9945 135.846C86.2274 135.438 86.4468 135.052 86.6418 134.62C87.5874 132.523 87.975 130.64 88.9446 123.423C89.9372 116.034 88.8277 97.8114 87.8614 91.8552L57.166 89.0615C57.1684 94.4898 57.1584 144.401 56.1183 148.319C54.8996 152.914 55.554 161.214 55.6326 162.145C55.794 164.051 56.264 167.105 56.6784 169.797C56.8939 171.201 57.0889 172.468 57.2039 173.345C57.2151 173.677 57.2973 174.001 57.445 174.298C57.5927 174.595 57.8024 174.856 58.0599 175.065C58.4788 175.27 58.9353 175.387 59.4011 175.408C59.867 175.429 60.3323 175.355 60.768 175.189L61.3673 175.039C63.0589 174.565 64.8118 174.347 66.5679 174.391C66.8012 174.417 67.0372 174.387 67.2566 174.304C67.476 174.221 67.6728 174.087 67.8307 173.913C68.4679 173.09 67.9912 171.244 67.7062 170.142L67.6185 169.799C67.2065 168.151 66.9847 165.345 67.0695 155.88C67.1514 146.709 72.3688 126.847 72.4215 126.647L73.0754 124.172Z" fill="#2D4068"/>
<path d="M72.7324 138.553C72.5154 130.645 75.2311 116.565 75.9804 113.491C76.5413 111.293 76.7887 109.026 76.7153 106.759L77.4511 106.736C77.5269 109.07 77.2724 111.403 76.6951 113.665C75.9512 116.718 73.2531 130.699 73.4682 138.532L72.7324 138.553Z" fill="#2D4068"/>
<path d="M106.558 77.6054C106.214 77.5457 105.887 77.4134 105.598 77.2172C105.31 77.021 105.066 76.7656 104.884 76.4679C104.702 76.1702 104.585 75.837 104.542 75.4907C104.499 75.1444 104.53 74.7928 104.633 74.4594C104.944 72.5345 107.241 71.7894 107.324 70.3199C107.283 68.2706 107.548 66.2266 108.111 64.2555C108.897 62.0409 110.201 58.9156 110.843 56.5147C111.484 54.1137 111.898 51.4852 116.059 50.678C120.219 49.8708 132.887 49.677 135.288 50.2396C137.689 50.8021 141.767 52.6649 143.154 54.6519C144.541 56.6388 145.327 57.2184 145.679 60.0539C145.779 61.5669 146.18 63.0447 146.859 64.4004C147.292 65.6517 147.509 66.9675 147.501 68.2915C147.595 69.5389 147.97 70.7488 148.598 71.8308C149.078 72.9187 149.317 74.098 149.298 75.2873C149.322 76.6533 150.605 78.4954 150.378 80.4409C150.15 82.3864 148.825 81.8069 147.915 81.2067C147.004 80.6065 106.558 77.6054 106.558 77.6054Z" fill="#DB9D99"/>
<path d="M149.352 82.1478C148.756 82.0961 148.187 81.8762 147.712 81.5136C146.614 81.0797 122.478 79.1549 106.531 77.9717L106.472 77.9621C105.474 77.7207 103.861 76.937 104.27 74.4002C104.512 73.4061 105.078 72.5209 105.879 71.8843C106.44 71.3363 106.925 70.8631 106.956 70.2988C106.971 70.0334 106.981 69.7383 106.991 69.4202C106.975 67.6282 107.235 65.8443 107.764 64.1318C108.007 63.4478 108.299 62.6775 108.606 61.868C109.282 60.0851 110.048 58.0636 110.488 56.4196L110.608 55.9617C111.197 53.6902 111.865 51.1168 115.989 50.3159C120.197 49.5006 132.967 49.3176 135.372 49.881C137.828 50.4568 142.004 52.3613 143.456 54.4403C143.692 54.7794 143.911 55.0774 144.113 55.3523C145.233 56.6615 145.909 58.2914 146.044 60.0084C146.125 61.2978 146.439 62.5619 146.971 63.739C147.045 63.9029 147.12 64.0705 147.198 64.2592C147.653 65.5491 147.879 66.908 147.868 68.2754C147.957 69.4626 148.315 70.6141 148.914 71.6429C149.431 72.7849 149.688 74.0273 149.666 75.2806C149.732 75.8996 149.887 76.5059 150.126 77.0807C150.589 78.1531 150.8 79.3171 150.743 80.4837C150.748 80.7947 150.671 81.1014 150.52 81.3734C150.37 81.6455 150.15 81.8735 149.884 82.0348C149.717 82.1108 149.535 82.1494 149.352 82.1478ZM106.616 77.2398C116.163 77.9487 147.199 80.294 148.117 80.8986C148.959 81.4542 149.373 81.459 149.574 81.367C149.858 81.2348 149.969 80.7673 150.012 80.3975C150.05 79.3422 149.852 78.2918 149.431 77.3231C149.163 76.6759 148.994 75.9918 148.93 75.294C148.947 74.1687 148.726 73.0524 148.282 72.0185C147.622 70.8841 147.23 69.6146 147.133 68.306C147.139 67.0256 146.931 65.7533 146.519 64.5409C146.444 64.3599 146.371 64.198 146.3 64.0399C145.735 62.7967 145.401 61.4612 145.314 60.0985C145.197 58.5059 144.568 56.994 143.521 55.7883C143.315 55.5085 143.092 55.2058 142.852 54.8619C141.524 52.9582 137.487 51.1322 135.204 50.5976C132.847 50.0458 120.281 50.2336 116.129 51.0383C112.461 51.7501 111.907 53.8856 111.32 56.1466L111.199 56.6093C110.749 58.2888 109.976 60.3294 109.294 62.1286C108.989 62.9334 108.699 63.6988 108.457 64.3781C107.956 66.0191 107.71 67.7274 107.727 69.4433C107.716 69.769 107.707 70.0698 107.691 70.341C107.533 71.1694 107.07 71.9082 106.393 72.4113C105.711 72.9428 105.221 73.682 104.996 74.5171C104.758 75.9953 105.303 76.9112 106.616 77.2398Z" fill="#944A45"/>
<path d="M111.899 73.0926C111.733 70.195 111.526 67.7526 112.106 65.6001C112.685 63.4476 113.141 62.9922 113.099 57.9834" fill="#DB9D99"/>
<path d="M111.531 73.1147L111.49 72.4125C111.214 70.1106 111.301 67.7796 111.75 65.505C111.85 65.1323 111.947 64.8104 112.038 64.5067C112.46 63.0993 112.765 62.0828 112.731 57.9872L113.467 57.9814C113.502 62.1873 113.183 63.2488 112.743 64.7184C112.653 65.0154 112.559 65.3316 112.461 65.6966C112.037 67.8951 111.957 70.1463 112.225 72.3693L112.266 73.0725L111.531 73.1147Z" fill="#944A45"/>
<path d="M104.074 122.063C102.336 129.1 101.259 133.902 101.922 137.71C102.584 141.519 102.387 151.371 102.982 154.765C103.578 158.159 105.233 167.018 105.151 169.916C105.068 172.813 105.287 173.74 103.687 176.878C102.773 178.648 101.962 180.47 101.259 182.334L110.201 180.596L113.016 173.144C112.367 168.365 112.367 163.519 113.016 158.739C114.093 150.791 114.175 146.817 113.182 143.423C112.188 140.028 119.805 119.248 119.805 119.248L104.074 122.063Z" fill="white"/>
<path d="M100.695 182.819L100.913 182.21C101.622 180.332 102.439 178.496 103.36 176.711C104.384 174.974 104.872 172.973 104.761 170.959C104.766 170.636 104.772 170.287 104.782 169.905C104.855 167.372 103.556 160.086 102.858 156.172L102.62 154.828C102.305 152.12 102.137 149.396 102.118 146.669C102.094 143.696 101.907 140.726 101.559 137.773C100.886 133.906 101.925 129.225 103.717 121.975L103.775 121.743L120.371 118.772L120.151 119.374C118.044 125.122 112.748 140.63 113.535 143.319C114.527 146.708 114.488 150.612 113.381 158.789C112.743 163.533 112.743 168.34 113.38 173.084L113.396 173.182L110.473 180.918L100.695 182.819ZM104.374 122.383C102.691 129.206 101.645 133.973 102.284 137.647C102.639 140.634 102.829 143.638 102.853 146.646C102.873 149.338 103.037 152.027 103.344 154.702L103.582 156.043C104.285 159.983 105.593 167.317 105.518 169.926C105.507 170.306 105.502 170.65 105.497 170.971C105.607 173.097 105.091 175.208 104.015 177.044C102.922 179.188 102.187 180.96 101.838 181.846L109.929 180.274L112.638 173.105C112.009 168.32 112.014 163.473 112.652 158.689C113.743 150.629 113.788 146.803 112.829 143.526C111.898 140.348 117.974 123.232 119.242 119.722L104.374 122.383Z" fill="#D1D1D1"/>
<path d="M123.2 120.904C124.194 126.7 124.194 128.19 124.111 130.425C124.023 133.206 124.531 135.974 125.601 138.542C126.843 141.519 126.926 147.977 126.843 151.537C126.7 156.718 126.258 161.888 125.518 167.018C124.856 170.33 124.359 174.221 122.041 177.616C119.723 181.01 118.812 181.755 119.474 182.335C120.137 182.914 129.989 182.583 130.652 178.029C131.314 173.476 131.149 171.241 131.894 168.84C132.639 166.439 136.282 157.249 137.027 150.295C137.772 143.34 136.199 140.608 136.034 133.571C135.868 129.725 136.269 125.875 137.226 122.146L123.2 120.904Z" fill="white"/>
<path d="M121.133 182.913C120.484 182.979 119.828 182.875 119.232 182.611C118.488 181.959 119 181.25 120.236 179.535C120.642 178.973 121.143 178.278 121.737 177.408C123.72 174.504 124.353 171.168 124.911 168.225C124.993 167.79 125.074 167.364 125.158 166.946C125.891 161.836 126.331 156.688 126.475 151.528C126.541 148.699 126.555 141.783 125.262 138.684C124.166 136.068 123.649 133.246 123.743 130.412C123.827 128.162 123.824 126.72 122.838 120.966L122.757 120.496L137.712 121.819L137.578 122.254C136.639 125.946 136.243 129.755 136.401 133.562C136.471 135.911 136.688 138.252 137.052 140.574C137.616 143.796 137.73 147.08 137.393 150.333C136.788 155.977 134.299 163.053 132.962 166.855C132.642 167.764 132.389 168.484 132.245 168.949C131.845 170.426 131.606 171.942 131.534 173.47C131.419 174.755 131.288 176.211 131.016 178.082C130.777 179.722 129.421 181.043 127.093 181.903C125.174 182.558 123.161 182.899 121.133 182.913ZM123.643 121.312C124.56 126.743 124.559 128.266 124.478 130.439C124.388 133.167 124.886 135.882 125.941 138.4C127.288 141.63 127.278 148.669 127.211 151.545C127.065 156.748 126.62 161.938 125.879 167.09C125.796 167.505 125.716 167.93 125.634 168.362C125.062 171.376 124.415 174.792 122.345 177.823C121.746 178.699 121.241 179.399 120.833 179.966C119.733 181.491 119.498 181.866 119.716 182.057C120.214 182.329 124.786 182.293 127.797 180.803C128.415 180.576 128.966 180.199 129.401 179.706C129.836 179.212 130.14 178.618 130.288 177.977C130.557 176.125 130.687 174.68 130.801 173.405C130.879 171.825 131.127 170.258 131.542 168.731C131.688 168.26 131.944 167.531 132.268 166.611C133.595 162.838 136.066 155.813 136.661 150.255C136.997 147.062 136.883 143.837 136.323 140.675C135.955 138.326 135.735 135.956 135.665 133.579C135.526 129.845 135.892 126.11 136.753 122.474L123.643 121.312Z" fill="#D1D1D1"/>
<path d="M110.657 175.504C109.123 177.697 107.676 179.975 105.151 180.058C102.625 180.14 100.142 179.809 98.32 180.554C96.4985 181.3 96.1674 183.079 97.2023 184.653H105.689C107.111 184.523 108.484 184.07 109.704 183.328V184.653H114.507V177.119C114.507 175.38 113.637 172.938 112.685 172.896C111.733 172.855 111.426 174.404 110.657 175.504Z" fill="#BD716D"/>
<path d="M114.874 185.021H109.336V183.945C108.211 184.56 106.968 184.927 105.689 185.021H97.0041L96.8949 184.855C96.6047 184.457 96.4073 183.998 96.3173 183.514C96.2272 183.029 96.2468 182.531 96.3746 182.055C96.5163 181.631 96.7525 181.245 97.0654 180.926C97.3783 180.607 97.7597 180.364 98.1807 180.214C99.7594 179.73 101.416 179.554 103.062 179.695C103.741 179.703 104.438 179.712 105.138 179.69C107.345 179.617 108.687 177.689 110.109 175.646L110.355 175.294C110.585 174.945 110.79 174.58 110.967 174.202C111.385 173.361 111.815 172.506 112.701 172.529C113.962 172.583 114.874 175.308 114.874 177.119L114.874 185.021ZM110.072 184.285H114.138V177.119C114.138 175.361 113.249 173.289 112.669 173.265L112.65 173.264C112.282 173.264 112.016 173.745 111.625 174.529C111.433 174.941 111.21 175.337 110.958 175.715L110.713 176.067C109.25 178.168 107.737 180.341 105.162 180.426C104.451 180.447 103.742 180.438 103.052 180.431C101.506 180.296 99.9478 180.453 98.4595 180.894C98.14 181.005 97.8496 181.186 97.6103 181.425C97.3709 181.663 97.1887 181.953 97.0774 182.272C96.9884 182.612 96.9717 182.967 97.0284 183.313C97.0851 183.66 97.2139 183.991 97.4066 184.285H105.689C107.047 184.159 108.357 183.722 109.52 183.01L110.072 182.689L110.072 184.285Z" fill="#662D23"/>
<path d="M129.865 174.469C128.811 176.386 127.133 179.975 124.649 180.058C122.165 180.14 118.688 179.809 117.529 181.051C117.051 181.5 116.771 182.12 116.751 182.775C116.731 183.431 116.972 184.067 117.421 184.545C117.456 184.582 117.492 184.618 117.529 184.652H125.063C125.719 184.695 126.376 184.595 126.99 184.359C127.604 184.123 128.159 183.757 128.617 183.286V184.652H132.473V177.201C132.473 174.883 132.035 173.172 131.198 173.096C130.362 173.02 130.337 173.612 129.865 174.469Z" fill="#BD716D"/>
<path d="M132.841 185.021H128.249V184.073C127.333 184.757 126.204 185.093 125.063 185.021H117.372L117.263 184.907C116.993 184.652 116.776 184.347 116.624 184.008C116.473 183.669 116.389 183.304 116.378 182.933C116.368 182.562 116.43 182.193 116.563 181.846C116.695 181.499 116.894 181.182 117.149 180.912C117.185 180.874 117.222 180.837 117.26 180.801C118.287 179.7 120.674 179.711 123.002 179.706C123.57 179.711 124.125 179.707 124.637 179.69C126.679 179.622 128.215 176.761 129.232 174.868L129.543 174.293C129.644 174.11 129.723 173.939 129.794 173.785C130.055 173.227 130.319 172.645 131.232 172.731C132.632 172.858 132.841 175.587 132.841 177.202L132.841 185.021ZM128.985 184.285H132.105V177.202C132.105 174.522 131.543 173.498 131.165 173.463C130.796 173.434 130.734 173.512 130.462 174.096C130.384 174.263 130.297 174.448 130.188 174.647L129.88 175.215C128.784 177.258 127.126 180.343 124.661 180.426C124.141 180.443 123.575 180.445 123.001 180.442C120.942 180.441 118.607 180.436 117.797 181.303C117.595 181.489 117.431 181.713 117.315 181.963C117.199 182.213 117.133 182.483 117.121 182.758C117.11 183.033 117.152 183.307 117.247 183.566C117.341 183.824 117.486 184.062 117.672 184.264L117.692 184.285H125.063C125.673 184.327 126.284 184.235 126.855 184.016C127.425 183.797 127.941 183.456 128.366 183.018L128.985 182.44L128.985 184.285Z" fill="#662D23"/>
<path d="M64.5265 124.928L54.767 122.843C54.4548 122.776 54.1588 122.649 53.8959 122.468C53.6329 122.287 53.4083 122.055 53.2347 121.787C53.0611 121.52 52.942 121.22 52.8841 120.906C52.8263 120.592 52.8308 120.27 52.8975 119.958V119.958L53.7163 116.126C53.851 115.496 54.2307 114.945 54.7719 114.594C55.313 114.243 55.9712 114.122 56.6018 114.257L66.3613 116.342C66.9918 116.477 67.543 116.857 67.8936 117.398C68.2442 117.939 68.3655 118.597 68.2308 119.228V119.228L67.412 123.059C67.2773 123.69 66.8976 124.241 66.3564 124.591C65.8153 124.942 65.157 125.063 64.5265 124.928ZM65.0386 122.795C65.0935 122.794 65.1466 122.774 65.189 122.739C65.2315 122.705 65.2609 122.656 65.2724 122.603L66.0904 118.771C66.0972 118.708 66.0825 118.646 66.0485 118.593C66.0146 118.54 65.9636 118.501 65.904 118.481L56.0923 116.391C56.0369 116.391 55.9833 116.41 55.9403 116.445C55.8974 116.48 55.8676 116.529 55.8561 116.583L55.037 120.416C55.0308 120.478 55.0461 120.54 55.0802 120.593C55.1143 120.645 55.1652 120.684 55.2245 120.703L64.9852 122.789C65.0027 122.792 65.0206 122.794 65.0386 122.795V122.795Z" fill="#424242"/>
<path d="M65.0402 125.351C64.8415 125.351 64.6434 125.33 64.449 125.289L54.6902 123.204C53.9643 123.049 53.3297 122.612 52.926 121.989C52.5224 121.365 52.3828 120.608 52.5379 119.882L53.3566 116.05C53.5126 115.325 53.9498 114.691 54.5725 114.287C55.1951 113.883 55.9524 113.743 56.6784 113.897L66.4381 115.982C67.1636 116.138 67.7977 116.576 68.2012 117.199C68.6046 117.821 68.7447 118.579 68.5905 119.305L67.7718 123.136C67.6381 123.762 67.2942 124.323 66.7972 124.726C66.3002 125.129 65.6801 125.35 65.0402 125.351L65.0402 125.351ZM56.0944 114.571C55.6221 114.572 55.1644 114.734 54.7973 115.031C54.4301 115.328 54.1756 115.742 54.0761 116.204L53.2574 120.035C53.2008 120.3 53.1969 120.573 53.2459 120.84C53.295 121.106 53.396 121.36 53.5433 121.588C53.6905 121.815 53.8812 122.011 54.1042 122.165C54.3273 122.318 54.5785 122.427 54.8434 122.483L54.8441 122.484L64.6034 124.568C65.1382 124.683 65.6966 124.58 66.1559 124.283C66.6151 123.986 66.9375 123.519 67.0521 122.984L67.0523 122.983L67.871 119.152C67.9848 118.616 67.8817 118.058 67.5842 117.599C67.2867 117.14 66.8192 116.818 66.2843 116.703L56.5246 114.617C56.3833 114.586 56.239 114.571 56.0944 114.571ZM65.0388 123.163L64.9128 123.15L55.1478 121.064C54.9927 121.024 54.8581 120.928 54.7709 120.794C54.6838 120.659 54.6503 120.497 54.6774 120.339L55.4965 116.506C55.5256 116.37 55.6007 116.247 55.7091 116.16C55.8176 116.072 55.9529 116.024 56.0925 116.023L65.9806 118.122C66.1385 118.16 66.2748 118.259 66.36 118.397C66.4482 118.531 66.4804 118.694 66.4496 118.851L65.6324 122.68C65.603 122.816 65.5282 122.938 65.4203 123.026C65.3124 123.113 65.1778 123.162 65.0387 123.163L65.0388 123.163ZM55.4232 120.37L64.9391 122.403L65.7046 118.815L56.1887 116.788L55.4232 120.37ZM65.7305 118.694L65.7301 118.697L65.7305 118.694Z" fill="#6E8CBB"/>
<path d="M65.0402 125.351C64.8415 125.351 64.6434 125.33 64.449 125.289L54.6902 123.204C53.9643 123.049 53.3297 122.612 52.926 121.989C52.5224 121.365 52.3828 120.608 52.5379 119.882L53.3566 116.05C53.5126 115.325 53.9498 114.691 54.5725 114.287C55.1951 113.883 55.9524 113.743 56.6784 113.897L66.4381 115.982C67.1636 116.138 67.7977 116.576 68.2012 117.199C68.6046 117.821 68.7447 118.579 68.5905 119.305L67.7718 123.136C67.6381 123.762 67.2942 124.323 66.7972 124.726C66.3002 125.129 65.6801 125.35 65.0402 125.351L65.0402 125.351ZM56.0944 114.571C55.6221 114.572 55.1644 114.734 54.7973 115.031C54.4301 115.328 54.1756 115.742 54.0761 116.204L53.2574 120.035C53.2008 120.3 53.1969 120.573 53.2459 120.84C53.295 121.106 53.396 121.36 53.5433 121.588C53.6905 121.815 53.8812 122.011 54.1042 122.165C54.3273 122.318 54.5785 122.427 54.8434 122.483L54.8441 122.484L64.6034 124.568C65.1382 124.683 65.6966 124.58 66.1559 124.283C66.6151 123.986 66.9375 123.519 67.0521 122.984L67.0523 122.983L67.871 119.152C67.9848 118.616 67.8817 118.058 67.5842 117.599C67.2867 117.14 66.8192 116.818 66.2843 116.703L56.5246 114.617C56.3833 114.586 56.239 114.571 56.0944 114.571ZM65.0388 123.163L64.9128 123.15L55.1478 121.064C54.9927 121.024 54.8581 120.928 54.7709 120.794C54.6838 120.659 54.6503 120.497 54.6774 120.339L55.4965 116.506C55.5256 116.37 55.6007 116.247 55.7091 116.16C55.8176 116.072 55.9529 116.024 56.0925 116.023L65.9806 118.122C66.1385 118.16 66.2748 118.259 66.36 118.397C66.4482 118.531 66.4804 118.694 66.4496 118.851L65.6324 122.68C65.603 122.816 65.5282 122.938 65.4203 123.026C65.3124 123.113 65.1778 123.162 65.0387 123.163L65.0388 123.163ZM55.4232 120.37L64.9391 122.403L65.7046 118.815L56.1887 116.788L55.4232 120.37ZM65.7305 118.694L65.7301 118.697L65.7305 118.694Z" fill="#181818"/>
<path d="M54.8421 105.577C54.6393 107.36 54.3629 109.571 54.0865 112.059C53.8101 114.546 54.0059 116.441 55.2934 117.395C56.5808 118.349 57.3199 117.991 58.5359 118.396C59.7518 118.802 61.9215 119.016 62.6129 117.848C63.3043 116.68 63.8766 115.726 64.4964 116.918C65.1163 118.11 65.9508 118.015 66.4276 117.633C66.9045 117.252 67.6674 116.012 66.6422 114.057C65.6169 112.102 61.5876 106.062 61.2777 105.577C60.9677 105.093 54.8421 105.577 54.8421 105.577Z" fill="white"/>
<path d="M60.495 119.085C59.7897 119.079 59.0894 118.965 58.4192 118.745C58.0583 118.632 57.6866 118.558 57.3102 118.522C56.4992 118.472 55.7212 118.183 55.0745 117.691C53.45 116.487 53.4979 114.026 53.7212 112.018C53.886 110.532 54.0508 109.146 54.2002 107.89C54.3008 107.042 54.3947 106.255 54.4766 105.536L54.5111 105.234L54.8129 105.21C61.1608 104.707 61.4703 105.196 61.5877 105.379L61.9733 105.966C63.1 107.676 66.0937 112.219 66.9679 113.886C68.0712 115.989 67.2922 117.412 66.658 117.921C66.4922 118.058 66.2981 118.157 66.0896 118.21C65.8811 118.263 65.6634 118.269 65.4522 118.228C65.1656 118.149 64.9011 118.004 64.6789 117.806C64.4567 117.609 64.2827 117.363 64.1702 117.087C64.0055 116.771 63.9005 116.738 63.8996 116.737C63.6931 116.744 63.1963 117.584 62.9295 118.035C62.6492 118.405 62.2776 118.697 61.8509 118.881C61.4241 119.065 60.957 119.135 60.495 119.085ZM55.1732 105.92C55.0999 106.557 55.018 107.245 54.9308 107.977C54.7818 109.231 54.617 110.616 54.4522 112.099C54.1533 114.792 54.48 116.334 55.5124 117.099C56.0575 117.515 56.7158 117.757 57.4008 117.792C57.8256 117.833 58.245 117.919 58.6521 118.047C59.8353 118.441 61.7501 118.584 62.2962 117.66C62.8223 116.771 63.2778 116.001 63.9001 116.001L63.9207 116.002C64.4419 116.016 64.7288 116.567 64.8227 116.748C64.8908 116.924 64.9957 117.082 65.1306 117.213C65.2654 117.344 65.4269 117.445 65.6041 117.508C65.7088 117.526 65.8162 117.52 65.9187 117.493C66.0212 117.465 66.1164 117.415 66.1976 117.346C66.6245 117.004 67.1993 115.911 66.3164 114.228C65.4589 112.592 62.4802 108.072 61.3587 106.371C61.1934 106.121 61.0713 105.935 61.0052 105.833C59.0629 105.676 57.1099 105.705 55.1732 105.92Z" fill="#D1D1D1"/>
<path d="M78.6206 129.055C78.1588 131.62 74.8034 146.692 74.2686 149.136C73.7338 151.579 73.3934 157.17 68.0569 156.089C62.7201 155.019 44.2548 151.044 42.0545 150.631C39.8666 150.218 36.5964 149.014 37.958 143.252C38.2862 141.903 38.7845 139.8 39.368 137.357C39.7792 137.984 40.3214 138.514 40.9574 138.91C41.5933 139.307 42.3078 139.561 43.0514 139.654C47.4034 140.603 64.8718 144.504 67.1452 144.954C69.4183 145.404 73.2355 146.158 74.2686 141.186C75.302 136.214 76.5055 131.085 76.8702 129.262C77.1376 127.973 77.405 126.77 78.4503 126.113C78.7417 127.066 78.8002 128.075 78.6206 129.055Z" fill="#A58346"/>
<path d="M78.4502 126.113C78.7417 127.066 78.8001 128.075 78.6205 129.055C78.1588 131.619 74.8033 146.692 74.2685 149.135C73.78 151.367 73.4534 156.226 69.3341 156.226C68.9048 156.223 68.4769 156.177 68.0568 156.088C62.72 155.019 44.2548 151.044 42.0544 150.631C39.8665 150.217 36.5963 149.014 37.9579 143.252C38.2862 141.903 38.7845 139.8 39.3679 137.357C39.7791 137.983 40.3213 138.513 40.9573 138.91C41.5932 139.307 42.3077 139.561 43.0513 139.654C47.4034 140.602 64.8718 144.504 67.1451 144.954C67.9936 145.147 68.8588 145.257 69.7286 145.282C71.6236 145.282 73.5744 144.526 74.2685 141.186C75.3019 136.214 76.5054 131.085 76.8701 129.261C77.1375 127.973 77.4049 126.769 78.4502 126.113M78.8622 124.985L78.0589 125.49C76.728 126.325 76.4208 127.806 76.1496 129.112C75.9947 129.886 75.6911 131.245 75.3066 132.966C74.7878 135.288 74.1421 138.178 73.5481 141.036C72.9016 144.147 71.1673 144.546 69.7287 144.546C68.9069 144.52 68.0896 144.415 67.288 144.232C65.8334 143.944 57.933 142.193 51.5849 140.786C47.9804 139.987 44.7602 139.274 43.208 138.935C42.5678 138.858 41.9515 138.645 41.4001 138.311C40.8486 137.976 40.3747 137.528 40.0097 136.997L39.0892 135.356L38.6523 137.186L38.1583 139.257C37.7888 140.808 37.4738 142.13 37.243 143.078C36.6588 145.55 36.8292 147.519 37.7484 148.935C38.2469 149.595 38.8726 150.15 39.5886 150.565C40.3047 150.981 41.0966 151.249 41.9178 151.354C42.9698 151.551 47.8968 152.596 53.1131 153.703C58.7511 154.899 65.1413 156.254 67.9123 156.81C68.38 156.907 68.8563 156.958 69.3341 156.961C73.568 156.961 74.3792 152.55 74.8151 150.18C74.8748 149.856 74.9299 149.555 74.9874 149.292C75.0849 148.847 75.2762 147.982 75.5266 146.849C76.6426 141.8 78.9647 131.296 79.3448 129.185C79.546 128.087 79.4796 126.956 79.1511 125.889L78.8623 124.985L78.8622 124.985Z" fill="#503D1C"/>
<path d="M78.4502 126.113C77.4049 126.77 77.1376 127.973 76.8701 129.262C76.5054 131.085 75.3019 136.215 74.2685 141.186C73.2354 146.158 69.4182 145.404 67.1451 144.954C64.8718 144.505 47.4034 140.603 43.0513 139.655C42.3077 139.561 41.5933 139.307 40.9573 138.911C40.3214 138.514 39.7791 137.984 39.3679 137.357C38.815 136.294 38.6805 135.063 38.991 133.905C39.4166 132.045 41.6413 121.896 41.933 120.692C42.2248 119.501 42.6017 117.714 44.4614 117.009C45.3361 116.58 46.3318 116.464 47.2817 116.681C47.2817 116.681 67.8865 121.276 70.0017 121.738C72.104 122.109 74.1703 122.662 76.1772 123.391C76.9819 123.751 77.6416 124.372 78.0493 125.153C78.2171 125.458 78.3515 125.78 78.4502 126.113Z" fill="#A58346"/>
<path d="M46.5208 116.58C46.7783 116.57 47.0356 116.604 47.2818 116.681C47.2818 116.681 67.8866 121.276 70.0018 121.737C72.1041 122.109 74.1703 122.662 76.1772 123.39C76.982 123.75 77.6416 124.371 78.0493 125.153C78.2171 125.458 78.3515 125.78 78.4503 126.113C77.405 126.769 77.1376 127.973 76.8702 129.261C76.5055 131.085 75.302 136.214 74.2686 141.186C73.5746 144.526 71.6235 145.282 69.7287 145.282C68.8589 145.257 67.9937 145.147 67.1452 144.954C64.8719 144.504 47.4035 140.603 43.0514 139.655C42.3078 139.561 41.5933 139.307 40.9574 138.91C40.3214 138.513 39.7792 137.983 39.368 137.357C38.8151 136.294 38.6806 135.062 38.9911 133.905C39.4167 132.045 41.6414 121.895 41.9331 120.692C42.2249 119.501 42.6018 117.714 44.4615 117.009C45.1164 116.743 45.8141 116.597 46.5209 116.58M46.5209 115.844C45.7251 115.862 44.939 116.024 44.2005 116.321C42.0398 117.14 41.5437 119.18 41.2473 120.398L41.2183 120.517C41.0492 121.215 40.2687 124.745 39.5138 128.159C38.9662 130.637 38.4556 132.946 38.2737 133.741C37.9157 135.08 38.0798 136.505 38.7328 137.728C39.1952 138.443 39.8064 139.049 40.5246 139.506C41.2428 139.962 42.0511 140.258 42.8943 140.374C44.4459 140.711 47.6641 141.425 51.2663 142.223C57.9527 143.705 65.5312 145.385 67.0022 145.676C67.8976 145.879 68.8108 145.994 69.7286 146.018C72.5735 146.018 74.3433 144.442 74.9889 141.336C75.5808 138.488 76.2251 135.604 76.7428 133.287C77.1293 131.557 77.4345 130.191 77.5916 129.405C77.8629 128.099 78.0971 127.203 78.8414 126.736L79.3094 126.443L79.1577 125.911C79.0444 125.526 78.8898 125.154 78.6963 124.803C78.2097 123.873 77.4225 123.137 76.4631 122.713C74.5426 122.002 72.5631 121.463 70.5477 121.101L70.1547 121.018C68.1118 120.572 48.4753 116.193 47.4795 115.971C47.1681 115.881 46.8449 115.838 46.5208 115.844L46.5209 115.844Z" fill="#503D1C"/>
<path d="M112.632 81.6485C111.774 86.2149 109.048 101.117 106.396 110.307C103.743 119.497 100.603 124.547 104.905 124.381C109.208 124.216 115.914 124.306 121.627 124.385C127.34 124.464 135.619 124.961 137.607 125.126C139.594 125.292 140.256 124.712 140.09 120.656C139.925 116.599 140.504 112.79 140.587 107.575C140.67 102.359 139.006 84.9471 139.672 81.6484L112.632 81.6485Z" fill="#DB9D99"/>
<path d="M138.142 125.521C137.955 125.521 137.765 125.509 137.576 125.494C135.412 125.313 127.141 124.83 121.622 124.753C116.105 124.678 109.236 124.584 104.92 124.75C104.532 124.817 104.134 124.784 103.763 124.655C103.392 124.525 103.06 124.303 102.798 124.01C101.881 122.779 102.711 120.343 104.085 116.305C104.692 114.522 105.379 112.502 106.042 110.206C108.527 101.596 111.117 87.7471 112.092 82.5334L112.327 81.2812H140.122L140.033 81.722C139.646 83.6361 140.081 90.7103 140.465 96.952C140.735 101.324 140.988 105.454 140.955 107.581C140.919 109.865 140.79 111.845 140.666 113.759C140.475 116.047 140.405 118.345 140.458 120.641C140.561 123.16 140.346 124.386 139.691 125.014C139.262 125.381 138.705 125.563 138.142 125.521ZM111.214 123.921C114.622 123.921 118.363 123.973 121.632 124.018C127.168 124.094 135.466 124.579 137.637 124.76C138.457 124.827 138.904 124.749 139.181 124.483C139.651 124.033 139.813 122.893 139.723 120.671C139.669 118.349 139.738 116.026 139.931 113.711C140.055 111.805 140.183 109.836 140.219 107.57C140.253 105.47 139.999 101.354 139.731 96.997C139.351 90.8234 138.959 84.4523 139.244 82.0171H112.938L112.816 82.6695C111.839 87.8918 109.244 101.766 106.749 110.409C106.081 112.722 105.39 114.751 104.781 116.542C103.574 120.088 102.703 122.65 103.389 123.57C103.633 123.899 104.13 124.044 104.891 124.014C106.662 123.946 108.859 123.921 111.214 123.921Z" fill="#944A45"/>
<path d="M117.46 75.7286C117.46 72.36 115.141 71.6995 113.32 71.8651C111.498 72.0307 108.407 73.8324 107.083 74.339C105.758 74.8455 104.82 78.8194 106.199 80.696C106.697 81.3761 107.372 81.906 108.151 82.2273C108.93 82.5486 109.783 82.649 110.615 82.5174C111.02 83.1347 111.629 83.5895 112.336 83.8015C113.043 84.0136 113.802 83.9693 114.479 83.6765C117.018 82.6829 117.46 83.1245 117.46 75.7286Z" fill="white"/>
<path d="M113.185 84.3049C112.649 84.291 112.124 84.1568 111.648 83.9124C111.172 83.6679 110.757 83.3195 110.433 82.8928C109.57 82.9982 108.694 82.8701 107.898 82.5218C107.101 82.1735 106.412 81.6177 105.903 80.9125C104.926 79.5847 105.046 77.5239 105.446 76.1625C105.525 75.714 105.701 75.2879 105.961 74.9137C106.221 74.5395 106.559 74.2259 106.951 73.9945C107.336 73.8479 107.885 73.5825 108.52 73.276C110.01 72.4466 111.617 71.8475 113.286 71.4988C113.875 71.4209 114.474 71.4635 115.046 71.6241C115.618 71.7847 116.151 72.0598 116.613 72.4329C117.038 72.8642 117.366 73.3811 117.576 73.9492C117.785 74.5174 117.871 75.1236 117.828 75.7276C117.828 82.6236 117.446 82.9608 115.149 83.8154C114.982 83.8777 114.803 83.9437 114.613 84.0185C114.159 84.2028 113.675 84.3 113.185 84.3049ZM110.813 82.1407L110.928 82.3237C111.286 82.869 111.826 83.2696 112.451 83.4544C113.077 83.6391 113.748 83.5959 114.345 83.3325C114.539 83.2568 114.721 83.1888 114.892 83.1256C116.799 82.4166 117.092 82.3084 117.092 75.7276C117.132 75.2261 117.067 74.7218 116.899 74.2475C116.731 73.7733 116.464 73.34 116.117 72.9761C115.729 72.6743 115.285 72.4529 114.81 72.3249C114.336 72.1969 113.84 72.1649 113.353 72.2307C111.775 72.5812 110.255 73.1561 108.84 73.9379C108.19 74.2522 107.628 74.5233 107.214 74.6823C106.653 75.0849 106.272 75.6902 106.152 76.3695C105.919 77.0401 105.829 77.7521 105.889 78.4595C105.948 79.1669 106.155 79.854 106.496 80.4766C107.71 82.1273 109.131 82.2049 110.6 82.1493L110.813 82.1407Z" fill="#D1D1D1"/>
<path d="M110.259 82.6098C109.598 79.8903 109.4 77.0792 109.671 74.2939L110.401 74.3831C110.149 77.0772 110.342 79.7943 110.972 82.4258L110.259 82.6098Z" fill="#D1D1D1"/>
<path d="M119.681 27.3932C118.522 27.9728 115.914 29.2974 115.21 31.0774C114.656 32.5197 114.584 34.1025 115.003 35.5894C115.464 36.5164 115.538 37.5882 115.21 38.5699C114.714 39.6048 114.051 40.8466 114.175 41.5917C114.3 42.3368 114.548 42.4196 115.003 42.5438C115.459 42.668 115.5 43.0406 115.459 43.3717C115.417 43.7029 115.583 43.7443 115.748 44.1996C115.914 44.6549 116.162 46.021 116.369 46.7247C116.576 47.4284 117.197 48.6703 119.433 48.6289C121.668 48.5875 122.082 48.1735 122.082 48.1735V53.8447L127.671 52.8926C127.671 52.8926 130.735 48.1736 131.48 46.8903C132.225 45.6071 135.205 34.6374 130.942 29.1319C126.678 23.6263 119.681 27.3932 119.681 27.3932Z" fill="white"/>
<path d="M122.083 54.2118C121.985 54.2115 121.892 54.1726 121.823 54.1037C121.754 54.0348 121.715 53.9414 121.715 53.8439V48.7327C120.971 48.9168 120.206 49.0053 119.44 48.9962C117.673 49.0278 116.437 48.2595 116.016 46.8272C115.918 46.4909 115.809 46.0062 115.705 45.5387C115.595 45.0491 115.483 44.5433 115.403 44.3239C115.361 44.2102 115.309 44.1006 115.248 43.9962C115.116 43.7993 115.061 43.5605 115.094 43.3256C115.139 42.9615 115.02 42.9289 114.906 42.8973C114.345 42.744 113.966 42.5745 113.812 41.6509C113.852 40.6188 114.164 39.6156 114.717 38.7433L114.879 38.4099C115.017 38.0208 115.076 37.6085 115.054 37.1965C115.031 36.7845 114.928 36.3809 114.749 36.009L114.651 35.6957C114.21 34.1287 114.286 32.4612 114.869 30.941C115.634 29.0067 118.35 27.6462 119.513 27.0647C119.777 26.9268 126.888 23.2977 131.233 28.9061C135.631 34.5853 132.496 45.8711 131.798 47.0744C131.056 48.3505 128.105 52.8993 127.98 53.0919C127.952 53.1346 127.916 53.1711 127.873 53.1992C127.831 53.2272 127.783 53.2461 127.733 53.2547L122.144 54.207C122.124 54.21 122.103 54.2116 122.083 54.2118ZM122.085 47.7919C122.136 47.7924 122.187 47.8028 122.235 47.8226C122.301 47.8533 122.357 47.9028 122.395 47.9649C122.434 48.0271 122.453 48.0992 122.451 48.1723V53.408L127.45 52.5563C127.957 51.7746 130.5 47.8437 131.162 46.7046C131.83 45.554 134.839 34.7645 130.651 29.3563C126.632 24.1676 120.129 27.5686 119.856 27.7162L119.846 27.721C118.853 28.2182 116.215 29.5374 115.553 31.2111C115.029 32.5761 114.96 34.0736 115.355 35.4811L115.451 35.7868C115.661 36.2462 115.778 36.743 115.793 37.2481C115.809 37.7532 115.724 38.2564 115.542 38.728L115.379 39.0652C114.918 39.8139 114.631 40.6562 114.539 41.5302C114.626 42.0581 114.708 42.0811 115.1 42.1884C115.227 42.2194 115.347 42.275 115.452 42.3522C115.557 42.4293 115.647 42.5265 115.714 42.6381C115.782 42.7497 115.827 42.8735 115.847 43.0026C115.867 43.1316 115.861 43.2633 115.83 43.3901L115.824 43.4157C115.813 43.5 115.818 43.5076 115.89 43.637C115.971 43.7759 116.039 43.9218 116.094 44.0729C116.19 44.3373 116.303 44.8432 116.423 45.3777C116.523 45.829 116.627 46.2965 116.723 46.6203C117.05 47.7355 117.962 48.2959 119.426 48.2605C120.25 48.3353 121.08 48.209 121.845 47.8926C121.876 47.8605 121.913 47.8351 121.955 47.8178C121.996 47.8005 122.04 47.7917 122.085 47.7919L122.085 47.7919Z" fill="#D1D1D1"/>
<path d="M130.928 25.3366C127.042 23.2335 125.408 23.5152 122.207 24.4535C119.005 25.3918 114.7 27.914 115.914 30.4336C117.382 29.767 118.939 29.3144 120.535 29.0897C122.427 28.9793 123.255 29.5865 122.151 31.3527C121.048 33.1188 120.882 33.1189 121.544 34.0019C122.027 34.7251 122.242 35.5947 122.151 36.4597C122.306 37.1831 122.567 37.8799 122.924 38.5278C123.145 39.1349 123.596 39.5213 124.06 38.9141C124.525 38.307 125.353 35.8785 126.843 36.2097C128.334 36.5408 129.106 38.6934 130.707 38.583C132.308 38.4726 140.311 30.4144 130.928 25.3366Z" fill="#CCA761"/>
<path d="M123.583 39.5882C123.544 39.5883 123.506 39.5854 123.468 39.5795C123.25 39.5184 123.054 39.4003 122.897 39.2377C122.741 39.075 122.631 38.8735 122.578 38.6541C122.51 38.4653 122.406 38.2536 122.3 38.0333C122.019 37.5512 121.843 37.0151 121.784 36.4602L121.784 36.3222C121.857 35.5816 121.668 34.839 121.25 34.2231C120.514 33.2411 120.701 32.948 121.487 31.715L121.84 31.1583C122.232 30.5308 122.368 30.0508 122.223 29.8075C122.06 29.5335 121.452 29.4041 120.557 29.4578C119.005 29.6803 117.493 30.1219 116.066 30.7693L115.739 30.9169L115.583 30.594C115.421 30.2635 115.336 29.9004 115.335 29.5323C115.334 29.1642 115.416 28.8006 115.576 28.4691C116.438 26.53 119.564 24.8457 122.103 24.1013C125.306 23.1625 127.028 22.809 131.103 25.0134H131.103C135.699 27.5005 136.1 30.6218 135.627 32.8023C134.941 35.9705 131.924 38.8686 130.732 38.951C130.257 38.9315 129.791 38.805 129.371 38.5809C128.95 38.3568 128.586 38.0409 128.305 37.6567C127.898 37.1615 127.366 36.7857 126.763 36.5693C125.878 36.3682 125.201 37.6299 124.753 38.4615C124.636 38.6961 124.502 38.9221 124.352 39.1379C124.27 39.2691 124.156 39.3785 124.023 39.4568C123.889 39.5352 123.738 39.5802 123.583 39.5882ZM120.943 28.7105C121.941 28.7105 122.569 28.9481 122.856 29.4319C123.161 29.9455 123.033 30.6381 122.463 31.5483L122.108 32.1106C121.408 33.2076 121.408 33.2076 121.839 33.7824C122.353 34.5262 122.594 35.4255 122.52 36.327L122.52 36.4602C122.586 36.9018 122.737 37.3267 122.962 37.7124C123.08 37.9567 123.194 38.1924 123.27 38.4031C123.386 38.7212 123.531 38.8448 123.579 38.8524C123.58 38.8534 123.661 38.8304 123.768 38.6915C123.893 38.5062 124.005 38.3129 124.105 38.1128C124.624 37.149 125.498 35.5299 126.922 35.8509C127.664 36.0898 128.323 36.5347 128.821 37.1337C129.437 37.7411 129.969 38.2575 130.682 38.2173C131.4 38.1674 134.242 35.7206 134.908 32.6472C135.518 29.8334 134.12 27.4833 130.753 25.6612C126.925 23.5899 125.398 23.9041 122.31 24.8075C119.853 25.528 116.981 27.1193 116.249 28.7681C116.071 29.1333 116.027 29.5491 116.123 29.9436C117.52 29.3261 118.999 28.9153 120.514 28.724C120.664 28.7144 120.807 28.7105 120.943 28.7105Z" fill="#795E2E"/>
<path d="M123.2 47.3037C121.39 48.187 119.818 49.4933 118.619 51.1121C116.853 53.651 117.294 55.5827 119.336 55.9139C121.379 56.2451 124.635 53.375 123.2 47.3037Z" fill="#DB9D99"/>
<path d="M119.67 56.3081C119.538 56.3082 119.407 56.2977 119.277 56.2765C118.862 56.2399 118.463 56.0943 118.122 55.8544C117.781 55.6146 117.509 55.2889 117.334 54.9104C116.893 53.8699 117.242 52.4463 118.317 50.9019C119.551 49.2256 121.175 47.8754 123.049 46.9681L123.456 46.7852L123.558 47.2191C124.327 50.4698 123.852 53.3171 122.255 55.031C121.934 55.4082 121.538 55.7159 121.094 55.9354C120.649 56.155 120.165 56.2818 119.67 56.3081ZM122.943 47.8477C121.361 48.6933 119.987 49.8798 118.92 51.3215C118.009 52.6321 117.677 53.8354 118.012 54.6229C118.144 54.8827 118.34 55.1043 118.583 55.2666C118.825 55.429 119.104 55.5266 119.395 55.5503C119.835 55.5762 120.275 55.4972 120.679 55.3198C121.083 55.1425 121.438 54.8718 121.717 54.53C122.367 53.8316 123.746 51.8139 122.943 47.8476V47.8477Z" fill="#944A45"/>
<path d="M121.688 48.5294C121.607 48.5296 121.527 48.5025 121.463 48.4526C121.398 48.4027 121.352 48.3328 121.332 48.2538C121.311 48.1748 121.318 48.0912 121.35 48.0163C121.382 47.9413 121.438 47.8792 121.51 47.8396C122.569 47.2563 123.504 46.4705 124.261 45.5269C124.287 45.4862 124.321 45.4509 124.361 45.4232C124.4 45.3954 124.445 45.3757 124.492 45.3652C124.539 45.3547 124.588 45.3536 124.635 45.362C124.683 45.3703 124.728 45.388 124.769 45.4139C124.81 45.4398 124.845 45.4735 124.873 45.513C124.901 45.5526 124.92 45.5972 124.931 45.6443C124.941 45.6915 124.942 45.7402 124.934 45.7878C124.926 45.8354 124.908 45.8809 124.882 45.9216C124.061 46.9718 123.035 47.8436 121.866 48.4835C121.812 48.5138 121.75 48.5296 121.688 48.5294Z" fill="#D1D1D1"/>
<path d="M125.816 43.2264C125.715 43.2272 125.614 43.2224 125.514 43.212C125.417 43.2003 125.329 43.1507 125.268 43.074C125.208 42.9972 125.181 42.8997 125.193 42.8029C125.204 42.7061 125.254 42.6179 125.331 42.5578C125.408 42.4976 125.505 42.4703 125.602 42.482C126.381 42.5418 127.152 42.2927 127.748 41.7884C128.135 41.3623 128.425 40.8576 128.598 40.3089C128.772 39.7603 128.824 39.1806 128.753 38.6096L128.756 37.1199C128.756 37.0224 128.795 36.9291 128.864 36.8603C128.933 36.7915 129.026 36.7529 129.124 36.7529H129.125C129.173 36.753 129.221 36.7626 129.265 36.7812C129.31 36.7998 129.351 36.8269 129.385 36.8611C129.419 36.8953 129.446 36.9359 129.464 36.9806C129.482 37.0252 129.492 37.0731 129.492 37.1214V37.1218L129.488 38.6C129.566 39.2766 129.494 39.9621 129.278 40.608C129.062 41.2539 128.707 41.8446 128.238 42.3383C127.567 42.9209 126.705 43.237 125.816 43.2264Z" fill="#D1D1D1"/>
<path d="M129.106 23.7239C131.151 20.1229 133.964 23.6812 134.736 24.7299C136.538 27.1113 137.594 29.9728 137.772 32.9537C137.936 35.7546 138.399 38.53 139.152 41.2327C139.704 43.2197 139.704 51.885 139.649 55.6382C139.594 59.3913 137.386 60.7712 134.902 59.7225C132.418 58.6738 129.493 52.6025 129.327 48.9046C129.162 45.2066 129.437 43.882 129.106 42.0054C128.775 40.1288 129.327 38.1419 128.996 35.6582C128.665 33.1744 126.512 28.2924 129.106 23.7239Z" fill="#CCA761"/>
<path d="M136.458 60.4295C135.873 60.4212 135.295 60.2958 134.759 60.0607C132.079 58.9292 129.125 52.6263 128.959 48.9206C128.888 47.3187 128.899 46.1499 128.907 45.211C128.954 44.1607 128.9 43.1083 128.744 42.0686C128.609 41.0833 128.588 40.0859 128.681 39.0958C128.773 37.967 128.756 36.8319 128.631 35.7063C128.564 35.2014 128.417 34.5882 128.248 33.8784C127.618 31.2485 126.667 27.2736 128.786 23.5411C128.986 23.0747 129.303 22.668 129.707 22.3603C130.11 22.0526 130.587 21.8544 131.089 21.785C132.627 21.6844 134.079 23.2172 135.032 24.5106C136.87 26.9477 137.951 29.8717 138.139 32.9184C138.303 35.6974 138.762 38.4512 139.507 41.1336C140.186 43.5786 140.024 55.1517 140.017 55.6432C139.987 57.658 139.339 59.1803 138.192 59.9285C137.676 60.262 137.073 60.4362 136.458 60.4295ZM129.426 23.9051C127.45 27.3847 128.325 31.0387 128.963 33.7069C129.138 34.4369 129.288 35.0663 129.36 35.6086C129.491 36.7796 129.509 37.9605 129.415 39.1351C129.328 40.0692 129.346 41.0101 129.468 41.9402C129.634 43.0244 129.692 44.1221 129.643 45.2177C129.634 46.148 129.624 47.3053 129.694 48.888C129.863 52.654 132.813 58.4406 135.045 59.3823C135.473 59.5999 135.947 59.7074 136.427 59.6952C136.906 59.683 137.375 59.5514 137.79 59.3124C138.725 58.7021 139.255 57.3944 139.281 55.6316C139.342 51.5053 139.318 43.2058 138.798 41.3309C138.041 38.6066 137.574 35.8099 137.406 32.9874C137.23 30.0878 136.208 27.3036 134.464 24.9801C133.245 23.3265 132.086 22.4508 131.133 22.5188C130.501 22.5562 129.927 23.0227 129.426 23.9051Z" fill="#795E2E"/>
<path d="M125.444 52.85L125.444 52.8502L125.454 52.8485C128.008 52.4349 130.019 52.0923 131.676 51.8099C133.844 51.4406 135.406 51.1744 136.788 50.9871C137.093 50.9458 137.404 50.8945 137.711 50.844L137.731 50.8407C138.046 50.7888 138.355 50.738 138.658 50.6975C139.269 50.6158 139.821 50.5808 140.285 50.6547C140.74 50.7271 141.084 50.8992 141.323 51.2146C141.568 51.5388 141.744 52.0673 141.744 52.9337C141.744 54.7509 141.62 62.456 141.496 69.7129C141.433 73.3401 141.371 76.8534 141.325 79.4599C141.302 80.7632 141.282 81.8397 141.269 82.5905L141.253 83.4559L140.837 83.5274L138.902 83.86C137.285 84.1382 135.093 84.5159 132.787 84.9144C128.177 85.7111 123.114 86.5911 121.311 86.9228C120.434 87.0839 119.797 87.0844 119.332 86.9581C118.885 86.8369 118.581 86.5949 118.36 86.214C118.131 85.8163 117.985 85.2524 117.91 84.484C117.834 83.7195 117.831 82.7869 117.862 81.6723C117.951 78.4582 118.148 68.1185 118.266 61.868C118.313 59.4231 118.347 57.6039 118.359 57.0815C118.379 56.1816 118.539 55.3746 119.014 54.7421C119.481 54.119 120.299 53.6053 121.765 53.3874C123.296 53.1598 124.217 53.0253 124.754 52.9478C125.023 52.909 125.196 52.8845 125.301 52.8697L125.413 52.8543L125.437 52.851L125.442 52.8502L125.444 52.8501L125.444 52.85L125.444 52.85Z" fill="#D1D1D1" stroke="#8C8C8C" stroke-width="0.75"/>
<path d="M64.6636 44.9443C62.2625 46.0621 57.1292 49.1252 54.8109 50.5327C52.4925 51.9401 49.8017 54.5894 49.3464 60.5917C48.891 66.594 49.8431 79.6334 50.0915 83.6073C50.4194 87.4823 51.0281 91.3283 51.913 95.1151C52.6996 98.8821 53.8587 102.897 54.0243 104.967C54.1899 107.037 54.9765 106.913 56.591 106.913C58.2055 106.913 62.0969 107.782 61.7657 104.429C61.4345 101.076 60.7722 91.5552 60.7722 91.5552C60.7722 91.5552 69.8383 93.418 75.22 93.5008C80.6017 93.5836 83.7894 93.5836 87.5152 92.5073C88.2179 96.0604 88.6881 99.6557 88.9227 103.27C88.9227 103.27 89.4609 104.388 91.4894 103.85C92.7905 103.463 94.1523 103.323 95.505 103.436C96.6641 103.477 96.5399 101.904 96.4985 100.455C96.4571 99.0063 96.4571 98.2198 96.4571 96.6054C96.4571 94.991 96.0937 94.0389 96.5651 93.211C97.0366 92.3832 96.1259 89.6924 96.0845 89.0301C95.9295 87.1317 96.055 85.2208 96.4571 83.359C97.0781 80.1302 94.7184 73.3 93.9732 70.7749C93.2281 68.2498 89.2953 56.328 88.1361 53.4718C86.977 50.6155 85.1141 48.463 78.1593 47.0555C71.2044 45.6481 64.6636 44.9443 64.6636 44.9443Z" fill="#C2D3E6"/>
<path d="M58.779 107.381C58.3152 107.381 57.8582 107.35 57.4487 107.322C57.1258 107.3 56.8321 107.28 56.5912 107.28L56.3325 107.281C54.8958 107.285 53.8414 107.292 53.6574 104.997C53.3947 103.109 53.0144 101.24 52.5187 99.4C52.1886 98.0223 51.8471 96.5987 51.5529 95.1894C50.6657 91.3852 50.0546 87.5219 49.7244 83.6296L49.6248 82.0949C49.2827 76.8572 48.5699 65.9605 48.9795 60.5638C49.3498 55.6816 51.1946 52.2969 54.6198 50.2179C56.2831 49.2081 61.911 45.8195 64.5085 44.6105L64.6014 44.5674L64.703 44.5779C64.7686 44.5856 71.3403 45.3003 78.2319 46.6952C85.1121 48.0872 87.1984 50.1834 88.4775 53.3335C89.6737 56.2823 93.5971 68.1994 94.3262 70.6702C94.423 70.9998 94.548 71.4022 94.6898 71.8611C95.6944 75.104 97.3754 80.5313 96.8183 83.4285C96.4392 85.1971 96.3113 87.0103 96.4384 88.8146L96.4518 89.0071C96.4989 89.3254 96.5638 89.6408 96.6463 89.9518C96.9984 91.4454 97.2595 92.7349 96.8853 93.3931C96.6619 93.9474 96.6129 94.5567 96.745 95.1396C96.7823 95.563 96.825 96.0421 96.825 96.6054C96.825 98.2149 96.825 98.9995 96.8666 100.444L96.8743 100.706C96.9107 101.847 96.9447 102.925 96.39 103.476C96.2716 103.591 96.1306 103.679 95.9759 103.735C95.8212 103.792 95.6564 103.815 95.4922 103.803L95.2311 103.793C94.0004 103.709 92.7647 103.849 91.5836 104.205C89.2904 104.813 88.6188 103.486 88.591 103.43L88.5551 103.288C88.3323 99.8235 87.8899 96.3769 87.2305 92.9687C83.6352 93.9459 80.4332 93.9459 75.2144 93.8683C70.4955 93.5846 65.803 92.9635 61.1728 92.0097C61.3122 93.9871 61.8473 101.514 62.1319 104.392C62.1993 104.773 62.1806 105.165 62.0771 105.538C61.9735 105.91 61.7878 106.255 61.5335 106.547C60.7615 107.178 59.7713 107.478 58.779 107.381ZM56.5911 106.544C56.8464 106.544 57.1569 106.565 57.4984 106.588C58.675 106.67 60.2841 106.779 61.0051 106.034C61.1838 105.819 61.312 105.566 61.3803 105.294C61.4486 105.023 61.4553 104.74 61.3999 104.465C61.0717 101.144 60.4121 91.6752 60.4054 91.5803L60.3718 91.0965L60.8466 91.1942C60.9366 91.2124 69.9409 93.0519 75.2259 93.1324C80.5606 93.2138 83.7578 93.208 87.413 92.1532L87.7957 92.0431L87.8752 92.4329C88.5739 95.9742 89.0448 99.5567 89.2851 103.158C89.4111 103.33 89.9419 103.882 91.3949 103.494C92.647 103.12 93.9559 102.972 95.2599 103.058L95.5181 103.067C95.5815 103.081 95.6475 103.078 95.7093 103.058C95.7712 103.039 95.8268 103.003 95.8707 102.955C96.1993 102.628 96.1672 101.62 96.1389 100.729L96.1308 100.465C96.0891 99.0129 96.0891 98.2244 96.0891 96.6053C96.0891 96.0746 96.0479 95.6128 96.012 95.2047C95.8564 94.473 95.9383 93.7108 96.2458 93.029C96.5073 92.5691 96.1318 90.9759 95.9301 90.1204C95.8352 89.7698 95.7642 89.4132 95.7174 89.0531L95.7045 88.8682C95.5723 86.9992 95.704 85.1208 96.0958 83.2886C96.618 80.5735 94.9063 75.0475 93.987 72.0785C93.8438 71.6167 93.7183 71.2105 93.6201 70.879C92.912 68.4782 88.9527 56.4624 87.7953 53.6094C86.611 50.6921 84.6426 48.7425 78.0863 47.4156C71.6967 46.1232 65.5835 45.4171 64.726 45.3213C62.1228 46.5504 56.6371 49.8538 55.0021 50.8463C51.7944 52.794 50.064 55.991 49.7134 60.6193C49.3076 65.9642 50.018 76.8265 50.3591 82.0459L50.4588 83.5836C50.7874 87.441 51.3938 91.2697 52.2734 95.0399C52.5652 96.4376 52.9053 97.8565 53.2344 99.2284C53.7421 101.105 54.1285 103.012 54.3913 104.937C54.5202 106.553 54.8943 106.535 56.3295 106.545L56.5911 106.544Z" fill="#6E8CBB"/>
<path d="M60.4054 91.5844C60.0122 86.3249 60.026 81.0428 60.4466 75.7853C61.0072 70.4231 60.9259 65.0131 60.2046 59.6701L60.9261 59.5264C61.6603 64.9427 61.745 70.4274 61.1786 75.8639C60.7617 81.0754 60.7486 86.3114 61.1393 91.525L60.4054 91.5844Z" fill="#6E8CBB"/>
<path d="M86.2319 61.751C86.2733 64.3175 85.7765 74.542 85.7765 77.6881C85.657 79.8571 86.0395 82.0244 86.8942 84.0215C87.7222 86.2154 89.8335 90.8931 87.5152 92.5075" fill="#C2D3E6"/>
<path d="M87.7253 92.8087L87.3047 92.2051C89.1797 90.8993 87.6889 87.0767 86.7979 84.7928L86.5497 84.1509C85.6826 82.1114 85.2923 79.901 85.4086 77.6879C85.4086 76.1733 85.525 72.9801 85.6371 69.8923C85.7593 66.5449 85.8853 63.0825 85.8637 61.7566L86.5995 61.7451C86.6216 63.0902 86.4951 66.5622 86.3725 69.9191C86.2604 73.0002 86.1444 76.1867 86.1444 77.6879C86.0267 79.812 86.4012 81.9347 87.2386 83.8903L87.4834 84.5254C88.453 87.0116 90.076 91.1724 87.7253 92.8087Z" fill="#6E8CBB"/>
<path d="M65.1604 43.3295C65.2846 41.177 65.2846 40.8872 65.7814 39.8523C66.2782 38.8175 66.4437 33.013 66.4023 31.4813C66.3609 29.9497 72.198 25.4883 75.2615 25.4883C78.3249 25.4883 80.8916 25.778 81.6781 27.5166C82.5426 29.2402 83.0095 31.1357 83.0443 33.0636C82.9701 34.2065 83.1985 35.3487 83.7066 36.3752C83.88 36.6995 83.9293 37.0757 83.8455 37.4338C83.7617 37.7918 83.5505 38.1071 83.2513 38.3207C82.5889 38.7347 82.4647 40.1421 82.5061 40.6803C82.5289 41.2453 82.4301 41.8086 82.2163 42.3321C82.0508 42.6672 82.1749 43.4538 81.9679 44.0747C81.7609 44.6956 81.4711 45.7718 77.1244 45.4407L76.5862 49.7221H71.2873L65.1604 43.3295Z" fill="white"/>
<path d="M76.9112 50.0906H71.13L64.7839 43.4685L64.8065 43.0796C64.9191 41.1108 64.9396 40.7563 65.4498 39.6939C65.8752 38.8067 66.0851 33.3545 66.0343 31.4911C66.175 30.6989 66.5989 29.9848 67.2271 29.4821C68.9627 27.6992 72.8225 25.1201 75.2613 25.1201C78.7043 25.1201 81.1705 25.5024 82.0136 27.3658C82.9129 29.1378 83.3912 31.0934 83.4115 33.0805C83.3363 34.0576 83.512 35.0377 83.9217 35.9279L84.0496 36.2421C84.2586 36.6456 84.3127 37.1116 84.2014 37.5522C84.0902 37.9928 83.8215 38.3774 83.446 38.6334C82.9899 38.9179 82.8304 40.0992 82.873 40.6529C82.8998 41.2835 82.7881 41.9124 82.5458 42.4952C82.4974 42.6846 82.4742 42.8795 82.4769 43.0749C82.4748 43.4524 82.4211 43.8279 82.3173 44.191C82.006 45.1289 81.3544 46.0764 77.4458 45.8321L76.9112 50.0906ZM71.4442 49.3548H76.2616L76.8029 45.0475L77.1522 45.0743C81.1451 45.377 81.4483 44.4726 81.6098 43.9869C81.696 43.6784 81.7405 43.3598 81.742 43.0394C81.733 42.7428 81.7821 42.4473 81.8867 42.1695C82.0706 41.7051 82.1565 41.2077 82.1391 40.7085C82.1065 40.2803 82.166 38.5654 83.056 38.0088C83.7214 37.5939 83.4599 36.7557 83.3636 36.5085L83.2424 36.2105C82.7906 35.2201 82.596 34.1317 82.6766 33.0461C82.6496 31.1752 82.1933 29.3354 81.343 27.6686C80.6225 26.0754 77.9944 25.856 75.2614 25.856C73.2714 25.856 69.6564 28.0413 67.7546 29.9948C67.0197 30.7497 66.7639 31.2527 66.7701 31.4721C66.8051 32.7674 66.6743 38.8423 66.1128 40.0121C65.6658 40.9433 65.6515 41.1914 65.5408 43.1219L65.537 43.1909L71.4442 49.3548Z" fill="#D1D1D1"/>
<path d="M66.2651 40.8924C65.2865 42.2471 64.4979 39.0657 64.4151 38.4034C64.195 37.1884 63.8619 35.9965 63.4203 34.8434C62.5755 32.1845 62.3216 29.3731 62.6764 26.6058C63.049 23.17 64.4979 21.8454 67.5614 20.8519C70.6699 19.9777 73.9249 19.7523 77.1243 20.1896C77.9391 20.2685 78.7168 20.5686 79.3735 21.0574C80.0301 21.5462 80.5407 22.2051 80.8501 22.963C81.2641 24.0393 82.1334 26.8128 80.7673 27.0197C79.4012 27.2267 78.2834 26.1504 76.5447 26.1918C74.806 26.2332 74.4263 26.523 74.5541 27.6407C74.6818 28.7583 75.059 29.851 74.3943 30.5051C74.0605 30.8395 73.7997 31.2395 73.6283 31.6799C73.4569 32.1202 73.3786 32.5913 73.3985 33.0634C73.3571 34.2225 72.9431 35.2987 72.3221 35.1332C71.7011 34.9676 71.2458 34.3467 70.5006 33.1048C69.7554 31.863 68.4721 30.7867 67.6441 31.4904C66.8161 32.1942 67.2301 34.4295 67.2715 35.423C67.3129 36.4164 67.0386 39.8215 66.2651 40.8924Z" fill="#503D1C"/>
<path d="M69.7096 37.5325C69.2608 37.5366 68.8174 37.4348 68.4154 37.2354C68.0134 37.036 67.6641 36.7445 67.3958 36.3848C67.2818 36.2641 67.1658 36.1415 67.0394 36.0207C66.9685 35.9538 66.927 35.8615 66.9242 35.764C66.9214 35.6665 66.9574 35.5719 67.0244 35.501C67.0913 35.4301 67.1836 35.3887 67.2811 35.3859C67.3786 35.3831 67.4732 35.4191 67.5441 35.486L67.5462 35.4881C67.6823 35.6164 67.8078 35.7496 67.9304 35.8789C68.2125 36.2745 68.6138 36.5693 69.0757 36.7202C69.5375 36.8711 70.0355 36.87 70.4967 36.7172C70.5928 36.6995 70.6919 36.7207 70.7723 36.7762C70.8527 36.8316 70.9078 36.9167 70.9255 37.0127C70.9431 37.1088 70.9219 37.2079 70.8665 37.2883C70.8111 37.3687 70.726 37.4238 70.6299 37.4415C70.3265 37.4996 70.0185 37.5301 69.7096 37.5325Z" fill="#D1D1D1"/>
<path d="M78.8628 45.8611C76.7014 45.8526 74.5542 45.5104 72.4972 44.8465C72.4052 44.814 72.3299 44.7463 72.2879 44.6582C72.2458 44.5702 72.2405 44.469 72.273 44.3771C72.3055 44.2851 72.3733 44.2098 72.4613 44.1677C72.5493 44.1257 72.6505 44.1204 72.7424 44.1529C74.722 44.7832 76.7854 45.111 78.8628 45.1253C78.9604 45.1248 79.0541 45.1631 79.1234 45.2318C79.1927 45.3004 79.2319 45.3938 79.2324 45.4913C79.2329 45.5888 79.1947 45.6826 79.1261 45.7519C79.0575 45.8213 78.9642 45.8605 78.8666 45.8611H78.8628Z" fill="#D1D1D1"/>
<path d="M74.0083 86.86L74.0072 86.8763C73.969 87.4198 74.0595 87.9647 74.2715 88.4666C74.4836 88.9685 74.811 89.4132 75.2274 89.7647L75.2372 89.773L75.2465 89.782C75.4121 89.9426 75.5646 90.096 75.7085 90.2408C75.9809 90.5148 76.2227 90.758 76.4648 90.9608C76.8316 91.2681 77.1043 91.3959 77.3449 91.3875M74.0083 86.86L77.3455 91.3875C77.3453 91.3875 77.3451 91.3875 77.3449 91.3875M74.0083 86.86L74.0081 86.8437M74.0083 86.86L74.0081 86.8437M77.3449 91.3875C77.3449 91.3875 77.3569 91.3863 77.3832 91.3763C77.4122 91.3653 77.4511 91.3463 77.4999 91.3161C77.5983 91.2552 77.7172 91.1613 77.8519 91.035C78.1205 90.7832 78.421 90.4316 78.7055 90.0434C78.9892 89.6563 79.2491 89.2434 79.4396 88.8738C79.6379 88.4892 79.7354 88.1996 79.7444 88.0429C79.7497 87.9492 79.7381 87.6319 79.7076 87.1061C79.6779 86.5936 79.6321 85.9096 79.5748 85.1058C79.4602 83.4984 79.2999 81.4169 79.1309 79.2802C78.8594 75.8483 78.5657 72.2765 78.4034 70.3021C78.3636 69.818 78.3317 69.4299 78.3099 69.1635C78.2001 67.8185 77.9291 65.2376 77.5949 62.7072C77.2589 60.1631 76.8644 57.7146 76.5132 56.607C76.4643 56.4526 76.4172 56.3033 76.3717 56.1591C76.0757 55.2209 75.8475 54.4976 75.6191 53.9735C75.4881 53.6729 75.368 53.4647 75.2527 53.3287C75.1419 53.1978 75.051 53.1514 74.9724 53.1368C74.789 53.1029 74.6415 53.0794 74.522 53.0681C74.4194 53.0584 74.3528 53.0592 74.3112 53.0641C74.3111 53.0651 74.3111 53.0661 74.311 53.0672L77.3449 91.3875ZM74.0081 86.8437C73.9911 85.8455 73.995 85.5514 74.0005 85.1315C74.004 84.8669 74.0081 84.5522 74.0081 83.98C74.0081 82.5097 74.194 54.9627 74.311 53.0672L74.0081 86.8437Z" fill="#DB9D99" stroke="#944A45" stroke-width="0.75"/>
<path d="M54.2367 140.638L53.678 143.254C53.5377 143.91 53.9562 144.556 54.6127 144.696L55.8415 144.959C56.498 145.099 57.1439 144.681 57.2842 144.024L57.843 141.409C57.9833 140.752 57.5648 140.106 56.9083 139.966L55.6795 139.704C55.023 139.563 54.377 139.982 54.2367 140.638Z" fill="#424242"/>
<path d="M56.0992 145.355C55.9866 145.355 55.8744 145.342 55.7643 145.318L54.5361 145.057C54.1253 144.969 53.7663 144.722 53.5379 144.369C53.3095 144.017 53.2305 143.588 53.3183 143.177V143.177L53.8769 140.563C53.9639 140.152 54.2103 139.794 54.5619 139.565C54.9135 139.336 55.3415 139.257 55.7517 139.344L55.7567 139.345L56.985 139.607C57.3957 139.694 57.7548 139.942 57.9832 140.294C58.2115 140.647 58.2905 141.075 58.2028 141.486V141.486L57.6442 144.102C57.5684 144.456 57.3738 144.773 57.0928 145.001C56.8117 145.229 56.4611 145.354 56.0992 145.355H56.0992ZM55.4233 140.045C55.2296 140.046 55.0419 140.113 54.8915 140.235C54.741 140.357 54.6369 140.527 54.5965 140.716L54.0379 143.331C53.9906 143.55 54.0323 143.779 54.1539 143.967C54.2755 144.156 54.4671 144.289 54.6864 144.336L54.6894 144.336L55.9186 144.6C56.1384 144.646 56.3673 144.603 56.5563 144.482C56.65 144.422 56.7308 144.344 56.794 144.252C56.8572 144.161 56.9017 144.057 56.9246 143.948L57.4832 141.333C57.5065 141.224 57.5082 141.112 57.4881 141.003C57.468 140.893 57.4265 140.789 57.3661 140.695C57.3056 140.602 57.2274 140.521 57.1358 140.458C57.0442 140.395 56.9411 140.351 56.8323 140.327L56.8317 140.327L55.6029 140.065C55.5439 140.052 55.4837 140.045 55.4233 140.045L55.4233 140.045Z" fill="#181818"/>
<path d="M141.526 76.8531C136.447 77.6051 138.651 78.2674 130.622 76.722C122.593 75.1766 123.366 74.4591 120.164 74.3487C116.963 74.2383 115.638 75.0524 115.417 77.1842C115.197 79.3161 114.7 83.014 116.576 83.4556C118.453 83.8972 121.774 83.1796 123.674 82.6829C125.574 82.1861 126.126 81.3582 128.996 82.1309C131.866 82.9037 137.717 84.7802 143.844 84.9458C149.768 85.1059 149.551 83.8729 149.181 80.5984C149.17 80.4947 149.131 80.3958 149.07 80.3112C149.009 80.2266 148.927 80.1593 148.833 80.1158L141.526 76.8531Z" fill="white"/>
<path d="M144.81 85.328C144.503 85.328 144.179 85.3232 143.834 85.3136C139.189 85.0497 134.594 84.217 130.151 82.8342C129.689 82.7039 129.27 82.5861 128.9 82.4865C127.646 82.0268 126.263 82.0743 125.044 82.6187C124.626 82.7813 124.2 82.9217 123.767 83.0393C121.899 83.5279 118.467 84.279 116.492 83.8143C114.396 83.3209 114.769 79.8088 115.016 77.4855L115.052 77.1463C115.296 74.7809 116.782 73.8488 120.177 73.981C121.344 73.9965 122.5 74.2109 123.596 74.6152C125.919 75.3553 128.29 75.9384 130.691 76.3608C136.585 77.496 136.863 77.4309 138.677 77.0199C139.335 76.8704 140.155 76.6846 141.471 76.4891L141.578 76.4738L148.983 79.78C149.136 79.8498 149.268 79.958 149.367 80.0942C149.466 80.2303 149.528 80.3898 149.547 80.557L149.561 80.6835C149.747 82.3227 149.881 83.5068 149.143 84.3096C148.487 85.0253 147.239 85.328 144.81 85.328ZM126.974 81.4498C127.691 81.4651 128.403 81.5746 129.092 81.7755C129.463 81.8761 129.885 81.995 130.351 82.1252C134.735 83.4913 139.27 84.3149 143.854 84.5778C146.617 84.6573 148.04 84.4236 148.602 83.8124C149.112 83.2557 149 82.2651 148.83 80.7658L148.816 80.6403C148.811 80.6 148.797 80.5615 148.773 80.5285C148.75 80.4955 148.718 80.469 148.682 80.4515L141.474 77.2325C140.246 77.4184 139.468 77.5947 138.84 77.7374C136.94 78.1685 136.597 78.249 130.552 77.083C128.122 76.6559 125.723 76.0653 123.371 75.3155C122.34 74.9328 121.252 74.7303 120.152 74.7167C116.737 74.5826 115.953 75.5875 115.784 77.2229L115.748 77.563C115.542 79.504 115.196 82.7527 116.661 83.0976C118.483 83.5249 121.778 82.7987 123.581 82.3274C123.99 82.2158 124.392 82.0831 124.787 81.9298C125.477 81.6278 126.221 81.4647 126.974 81.4498V81.4498Z" fill="#D1D1D1"/>
<path d="M74.0113 53.2936C74.2107 53.4439 74.4489 53.5244 74.9579 53.5244C75.0935 53.5244 75.2237 53.4628 75.3565 53.303C75.4947 53.1369 75.6149 52.886 75.7053 52.5765C75.8871 51.9546 75.9158 51.2144 75.8314 50.7679C75.7573 50.3766 75.4703 49.9795 75.0132 49.8083C74.5679 49.6414 73.887 49.6642 72.9856 50.2651L74.0113 53.2936ZM74.0113 53.2936C73.7878 53.1249 73.587 52.8542 73.2198 52.3591M74.0113 53.2936L73.2198 52.3591M73.2198 52.3591C73.2009 52.3335 73.1814 52.3073 73.1615 52.2805M73.2198 52.3591L73.1615 52.2805M73.1615 52.2805C72.9277 51.9655 72.7639 51.508 72.7349 51.0857M73.1615 52.2805L72.7349 51.0857M72.7349 51.0857C72.7046 50.6448 72.8237 50.3731 72.9856 50.2651L72.7349 51.0857Z" fill="#DB9D99" stroke="#944A45" stroke-width="0.75"/>
<path d="M73.9367 49.2082C74.743 48.482 75.4651 47.6673 76.0893 46.7797C76.6137 45.9793 76.7793 45.4826 77.5244 45.869C78.0503 46.0666 78.5023 46.4219 78.8185 46.8862C79.1347 47.3506 79.2996 47.9013 79.2908 48.4631C79.3968 49.7959 79.5718 51.1223 79.8151 52.437C79.9255 53.1545 79.7875 53.7616 79.2356 53.7064C78.6836 53.6512 78.4076 53.5409 77.1381 52.3542C76.2234 51.3974 75.1375 50.6205 73.9367 50.0636C73.4123 49.9809 73.9367 49.2082 73.9367 49.2082Z" fill="#C2D3E6"/>
<path d="M79.3045 54.0781C79.2693 54.078 79.2341 54.0761 79.1991 54.0723C78.5174 54.0034 78.1745 53.8261 76.8867 52.6219C76.0223 51.718 75.0041 50.9748 73.8797 50.427C73.7735 50.4157 73.6721 50.3766 73.5857 50.3137C73.4994 50.2508 73.4311 50.1663 73.3877 50.0687C73.3468 49.8838 73.3475 49.6921 73.3898 49.5075C73.4322 49.3229 73.5151 49.15 73.6325 49.0014L73.6862 48.9392C74.4715 48.2334 75.1746 47.4412 75.782 46.5776L75.9646 46.2912C76.3469 45.6809 76.7421 45.0467 77.6935 45.542C78.2767 45.768 78.7772 46.1665 79.1281 46.6843C79.4791 47.2021 79.6638 47.8146 79.6576 48.4401C79.7416 49.5845 79.8865 50.7236 80.0916 51.8526L80.1788 52.3814C80.2406 52.6265 80.2491 52.8819 80.2037 53.1305C80.1582 53.3791 80.0598 53.6151 79.9153 53.8224C79.837 53.9053 79.7422 53.9709 79.637 54.0149C79.5318 54.059 79.4185 54.0805 79.3045 54.0781ZM74.0886 49.7209C75.3184 50.3099 76.4356 51.1098 77.3893 52.0845C78.6669 53.2791 78.8566 53.2983 79.2724 53.3404C79.3491 53.3491 79.3706 53.3261 79.3812 53.3165C79.4439 53.2494 79.5297 53.0013 79.4516 52.4926L79.3658 51.9752C79.1563 50.8209 79.0087 49.6562 78.9237 48.486C78.9367 47.9884 78.7923 47.4992 78.5113 47.0883C78.2302 46.6774 77.8267 46.3656 77.3581 46.1973C77.0319 46.0258 77.006 46.0153 76.5878 46.683L76.3976 46.981C75.7654 47.8809 75.0353 48.7079 74.2208 49.447C74.1668 49.5332 74.1225 49.625 74.0886 49.7209Z" fill="#6E8CBB"/>
<path d="M63.7396 43.906C63.8431 43.4867 63.9791 43.0761 64.1465 42.678C64.2029 42.4998 64.3167 42.3453 64.4702 42.2385C64.6236 42.1318 64.8081 42.0788 64.9948 42.0879C65.6847 42.0051 66.4299 43.247 67.1751 43.9921C68.2346 45.0809 69.4537 46.0022 70.7905 46.7242C72.5016 47.6349 74.9027 48.5456 74.2403 50.6981C73.5779 52.8506 73.2467 53.7613 73.026 54.3961C72.8052 55.0308 72.6396 55.224 72.1704 55.224C71.7012 55.224 71.232 54.7548 70.7629 54.0925C69.4777 52.3805 68.0263 50.7997 66.4299 49.3735C65.188 48.4904 63.4492 46.5034 63.5045 45.4546C63.5338 44.9321 63.6125 44.4136 63.7396 43.906Z" fill="#C2D3E6"/>
<path d="M72.1705 55.5916C71.4649 55.5916 70.8871 54.9037 70.4627 54.3049C69.2006 52.6271 67.7787 51.0758 66.2168 49.6728C65.0743 48.8613 63.068 46.7507 63.137 45.4354C63.1673 44.8894 63.2495 44.3475 63.3827 43.8172V43.8162C63.4908 43.3789 63.6329 42.9506 63.8077 42.5353C63.8886 42.2969 64.0426 42.0901 64.2478 41.9443C64.453 41.7984 64.6989 41.721 64.9507 41.7229C65.6415 41.6261 66.2163 42.3217 66.8247 43.044C67.0274 43.2845 67.231 43.5279 67.435 43.731C68.468 44.7953 69.6578 45.6951 70.9633 46.3991C71.1525 46.4997 71.3503 46.6003 71.551 46.7028C73.2085 47.5478 75.2709 48.5978 74.5921 50.8061C74.0057 52.7116 73.6752 53.6553 73.4562 54.28L73.3733 54.5166C73.1688 55.1049 72.937 55.5916 72.1705 55.5916ZM64.0965 43.9935C63.975 44.4787 63.8998 44.9743 63.8719 45.4737C63.8283 46.3052 65.3852 48.1792 66.6432 49.073C68.2731 50.5238 69.7537 52.134 71.063 53.8795C71.6349 54.6862 71.9808 54.8558 72.1705 54.8558C72.3995 54.8558 72.4766 54.8558 72.6788 54.2752L72.7622 54.0366C72.9787 53.4178 73.3064 52.4817 73.8889 50.5896C74.3502 49.0893 73.0726 48.3037 71.2172 47.3591C71.0122 47.2537 70.8105 47.1512 70.6174 47.0487C69.2478 46.3108 67.9991 45.3678 66.9148 44.2521C66.6969 44.0337 66.4784 43.7751 66.2619 43.5173C65.8705 43.0527 65.3201 42.43 65.0388 42.453C64.6709 42.497 64.6034 42.542 64.4851 42.8218C64.3257 43.2018 64.1958 43.5935 64.0965 43.9935L64.0965 43.9935Z" fill="#6E8CBB"/>
<path d="M65.7823 41.5935C65.7186 41.5936 65.6551 41.5852 65.5936 41.5687C64.5095 41.2918 64.0534 38.4771 64.0501 38.4493C63.8291 37.2589 63.5016 36.0908 63.0713 34.9591C62.2161 32.2491 61.9566 29.3863 62.3106 26.5667C62.7245 22.7537 64.5076 21.4555 67.448 20.5023C70.6121 19.6091 73.9266 19.3792 77.1838 19.8269C78.0629 19.9133 78.9015 20.2391 79.6084 20.7688C80.3153 21.2985 80.8636 22.0118 81.1935 22.8313C81.5259 23.6954 82.2359 25.8136 81.6462 26.8292C81.5611 26.979 81.4425 27.107 81.2996 27.2032C81.1567 27.2995 80.9935 27.3613 80.8227 27.3839C80.0775 27.4463 79.3288 27.3163 78.6483 27.0064C77.9866 26.7198 77.2744 26.568 76.5534 26.56C75.944 26.5743 75.2177 26.6222 75.0065 26.8646C74.9021 26.9844 74.8752 27.2105 74.9198 27.5985C74.9457 27.8255 74.9821 28.0497 75.0175 28.271C75.1636 29.1773 75.3145 30.1152 74.6525 30.7677C74.3514 31.0691 74.117 31.4303 73.9644 31.8281C73.8118 32.2258 73.7445 32.6512 73.7667 33.0766C73.8067 33.9086 73.5168 34.7228 72.96 35.3424C72.8582 35.4229 72.7387 35.4782 72.6114 35.5037C72.484 35.5292 72.3525 35.5241 72.2275 35.4889C71.4888 35.2916 71.0006 34.6526 70.1853 33.295C69.8049 32.5376 69.1556 31.9493 68.3644 31.6453C68.2799 31.6273 68.1924 31.6293 68.1088 31.651C68.0253 31.6728 67.9479 31.7138 67.883 31.7708C67.3579 32.2172 67.5002 33.7741 67.585 34.7053C67.6094 34.9726 67.6315 35.213 67.6391 35.4075C67.6789 36.3675 67.4312 39.9074 66.5637 41.1079C66.4837 41.247 66.3704 41.3642 66.2341 41.449C66.0977 41.5337 65.9426 41.5834 65.7823 41.5935ZM74.0125 20.3374C71.8689 20.3112 69.7333 20.6024 67.6751 21.2016C64.5037 22.2305 63.378 23.5536 63.0426 26.6452C62.6999 29.3601 62.948 32.1171 63.7698 34.7272C64.2185 35.9033 64.5568 37.1185 64.7801 38.3573C64.8965 39.2885 65.4733 40.8348 65.7785 40.8568C65.7789 40.8568 65.8465 40.8434 65.9667 40.6767H65.9672C66.635 39.7531 66.9497 36.5447 66.9042 35.4381C66.8966 35.2532 66.8755 35.0252 66.852 34.7713C66.7418 33.5613 66.5905 31.9029 67.4063 31.2103C67.5523 31.0836 67.725 30.9917 67.9117 30.9414C68.0983 30.8911 68.2938 30.8838 68.4837 30.92C69.4939 31.2521 70.3322 31.9696 70.8162 32.9166C71.5108 34.0739 71.9276 34.6477 72.4172 34.778C72.4356 34.7831 72.455 34.7834 72.4735 34.7787C72.492 34.774 72.5089 34.7645 72.5226 34.7512C72.8871 34.2616 73.0671 33.659 73.0309 33.0497C73.0132 32.5311 73.1022 32.0144 73.2923 31.5315C73.4824 31.0487 73.7696 30.61 74.1361 30.2426C74.5279 29.8575 74.4182 29.1763 74.2913 28.3879C74.2539 28.156 74.2156 27.9194 74.1888 27.6818C74.1389 27.4588 74.1364 27.2278 74.1817 27.0038C74.2269 26.7798 74.3188 26.5678 74.4513 26.3817C74.8278 25.9496 75.5282 25.8481 76.5362 25.8241C77.3474 25.8262 78.1498 25.9924 78.895 26.3127C79.4627 26.5771 80.0876 26.695 80.7125 26.6557C80.7744 26.6496 80.8338 26.6286 80.8856 26.5943C80.9374 26.5601 80.9802 26.5138 81.01 26.4593C81.3392 25.8931 80.9942 24.3612 80.5065 23.0956C80.2205 22.3975 79.7483 21.7912 79.1414 21.3429C78.5346 20.8945 77.8164 20.6213 77.065 20.553C76.0547 20.4016 75.0341 20.3295 74.0125 20.3374Z" fill="#231400"/>
</svg>
