<svg width="192" height="192" viewBox="0 0 192 192" fill="none" xmlns="http://www.w3.org/2000/svg">
<path d="M85.896 33.0092C63.3131 54.2072 59.0488 59.2542 34.7164 66.0828C10.3839 72.9114 3.5063 106.866 43.9335 117.65C60.7637 122.139 77.7344 128.293 92.0662 138.353C96.9173 141.679 101.344 145.586 105.247 149.986C109.088 154.419 111.506 161.793 117.75 163.055C134.853 166.51 154.412 151.825 163.929 139.291C179.639 118.601 179.546 91.6268 171.973 67.7735C146.431 -12.675 95.3284 24.1551 85.896 33.0092Z" fill="#E6E6E6"/>
<path d="M168.719 168.356H23.254C22.9545 168.358 22.6663 168.241 22.4529 168.031C22.2395 167.821 22.1183 167.535 22.116 167.235V86.6219C22.1143 85.6874 22.3002 84.7621 22.6627 83.9007C23.0251 83.0393 23.5567 82.2594 24.226 81.6072C25.5812 80.2698 27.4106 79.5232 29.3146 79.5303H162.659C164.562 79.5332 166.388 80.2783 167.75 81.6072C168.419 82.26 168.949 83.04 169.311 83.9013C169.673 84.7626 169.859 85.6877 169.857 86.622V167.235C169.855 167.535 169.734 167.821 169.52 168.031C169.307 168.241 169.019 168.358 168.719 168.356Z" fill="#424242"/>
<path d="M162.659 80.5099C164.304 80.512 165.884 81.156 167.062 82.3049C167.638 82.8667 168.095 83.5382 168.407 84.2796C168.718 85.0211 168.878 85.8176 168.877 86.6219V167.235C168.875 167.275 168.857 167.312 168.827 167.338C168.798 167.365 168.759 167.379 168.719 167.376H23.254C23.2144 167.379 23.1756 167.365 23.146 167.338C23.1165 167.312 23.0986 167.275 23.0963 167.235V86.6219C23.0949 85.8173 23.2552 85.0206 23.5674 84.279C23.8797 83.5375 24.3377 82.8661 24.9142 82.3048C26.0862 81.1486 27.6683 80.5033 29.3146 80.5099H162.659ZM162.659 79.5303H29.3146C27.4106 79.5232 25.5813 80.2698 24.2261 81.6072C23.5568 82.2594 23.0251 83.0393 22.6627 83.9007C22.3003 84.7621 22.1143 85.6874 22.116 86.622V167.235C22.1183 167.535 22.2395 167.821 22.4529 168.031C22.6663 168.241 22.9545 168.358 23.254 168.356H168.719C169.019 168.358 169.307 168.241 169.52 168.031C169.734 167.821 169.855 167.535 169.857 167.235V86.6219C169.859 85.6877 169.673 84.7626 169.311 83.9013C168.949 83.04 168.419 82.2599 167.75 81.6072C166.388 80.2783 164.562 79.5332 162.659 79.5303Z" fill="#181818"/>
<path d="M26.2036 162.281V86.6219C26.2006 86.2231 26.279 85.8279 26.4339 85.4604C26.5887 85.093 26.8168 84.7609 27.1043 84.4845C27.3941 84.1946 27.7388 83.9653 28.1182 83.8103C28.4977 83.6552 28.9042 83.5773 29.3141 83.5812H162.659C163.484 83.5864 164.276 83.9089 164.87 84.4818C165.158 84.7587 165.386 85.0913 165.541 85.4592C165.696 85.8271 165.774 86.2227 165.771 86.6219V162.281H26.2036Z" fill="white"/>
<path d="M166.138 162.648H25.8358V86.622C25.8325 86.1743 25.9204 85.7307 26.0943 85.3181C26.2681 84.9055 26.5241 84.5327 26.8467 84.2223C27.1704 83.8987 27.5553 83.6429 27.979 83.4698C28.4027 83.2966 28.8566 83.2097 29.3143 83.214H162.659C163.581 83.2199 164.465 83.5805 165.129 84.2209C165.451 84.5316 165.707 84.9048 165.881 85.3176C166.054 85.7304 166.142 86.1742 166.138 86.622V162.648ZM26.571 161.914H165.403V86.622C165.406 86.2718 165.337 85.9246 165.201 85.6018C165.065 85.2789 164.865 84.9871 164.613 84.7441C164.088 84.2378 163.388 83.953 162.659 83.9487H29.3143C28.9523 83.9452 28.5933 84.0138 28.2583 84.1506C27.9232 84.2874 27.6187 84.4897 27.3628 84.7456C27.1102 84.9882 26.9098 85.2797 26.7737 85.6023C26.6376 85.9249 26.5686 86.2719 26.5711 86.622L26.571 161.914Z" fill="#181818"/>
<path d="M99.1657 121.326C98.8664 121.326 98.579 121.208 98.3662 120.998L52.5882 75.526C49.8559 72.8375 47.6844 69.6334 46.1997 66.0995C44.7149 62.5655 43.9464 58.772 43.9388 54.9388C43.9311 51.1057 44.6844 47.3091 46.1551 43.7693C47.6257 40.2294 49.7843 37.0167 52.5059 34.3174C58.013 28.8569 65.4556 25.7952 73.211 25.7998H73.2697C81.0455 25.8105 88.4997 28.904 93.9983 34.402L139.773 79.8708C139.878 79.9749 139.96 80.0984 140.016 80.2344C140.073 80.3704 140.102 80.5161 140.102 80.6633C140.102 80.8105 140.073 80.9563 140.016 81.0923C139.96 81.2282 139.878 81.3518 139.773 81.4558L99.9652 120.998C99.7525 121.208 99.4651 121.326 99.1657 121.326Z" fill="white"/>
<path d="M99.1659 121.692C98.9694 121.693 98.7748 121.655 98.593 121.581C98.4113 121.506 98.2462 121.396 98.1071 121.257L52.3293 75.786C49.5625 73.0636 47.3636 69.819 45.8602 66.2404C44.3567 62.6617 43.5786 58.8203 43.5709 54.9387C43.5632 51.0571 44.326 47.2125 45.8153 43.628C47.3045 40.0434 49.4905 36.7901 52.2465 34.0567C57.8379 28.5138 65.3969 25.4109 73.2702 25.4268C81.1434 25.4428 88.6898 28.5763 94.2587 34.1419L140.032 79.6096C140.311 79.8888 140.468 80.2674 140.468 80.6622C140.469 81.057 140.312 81.4358 140.033 81.7152L100.224 121.257C99.9422 121.535 99.5621 121.692 99.1659 121.692ZM73.2689 26.1664C65.5905 26.1466 58.2173 29.1712 52.7649 34.5776C50.0782 37.2429 47.9472 40.415 46.4955 43.9099C45.0438 47.4049 44.3001 51.1532 44.3077 54.9377C44.3153 58.7221 45.0739 62.4674 46.5396 65.9565C48.0053 69.4456 50.1489 72.6091 52.8463 75.2637L98.625 120.737C98.7721 120.873 98.9651 120.948 99.1654 120.948C99.3658 120.948 99.5588 120.873 99.7059 120.737L139.514 81.1949C139.655 81.0534 139.734 80.8619 139.734 80.6623C139.734 80.4627 139.654 80.2713 139.513 80.1301L93.7393 34.6624C88.3097 29.2319 80.948 26.1766 73.2688 26.1665L73.2689 26.1664Z" fill="#D1D1D1"/>
<path d="M103.146 122.378C102.074 122.381 101.012 122.173 100.021 121.766C99.0301 121.358 98.1291 120.759 97.3698 120.003L84.4365 107.15C82.9509 105.624 82.1278 103.574 82.1466 101.445C82.1653 99.3161 83.0242 97.2806 84.5364 95.7817C86.0525 94.2795 88.0944 93.4272 90.2286 93.4057C92.3629 93.3842 94.4215 94.1951 95.9677 95.6664L108.922 108.539C109.679 109.29 110.28 110.183 110.69 111.167C111.1 112.151 111.311 113.207 111.311 114.273C111.311 115.339 111.1 116.394 110.69 117.379C110.28 118.363 109.679 119.256 108.922 120.006L108.919 120.008C107.384 121.531 105.308 122.384 103.146 122.378Z" fill="white"/>
<path d="M103.146 122.745C102.026 122.749 100.917 122.531 99.881 122.106C98.8455 121.68 97.9042 121.054 97.111 120.263L84.1771 107.41C83.0225 106.216 82.244 104.71 81.9383 103.077C81.6326 101.445 81.8131 99.7582 82.4575 98.2274C83.1018 96.6966 84.1816 95.3888 85.5628 94.4664C86.9439 93.5439 88.5656 93.0475 90.2264 93.0387C92.4565 93.0125 94.6083 93.8603 96.2212 95.4006L109.181 108.279C110.761 109.845 111.659 111.973 111.679 114.198C111.699 116.423 110.839 118.566 109.286 120.16L109.241 120.206C109.221 120.226 109.201 120.246 109.181 120.266L109.07 120.373C107.477 121.901 105.353 122.751 103.146 122.745ZM90.2298 93.7734C88.1911 93.7884 86.2399 94.6033 84.796 96.0425C83.352 97.4731 82.5318 99.4164 82.5141 101.449C82.4963 103.482 83.2825 105.439 84.7012 106.895L97.6294 119.743C99.079 121.176 101.029 121.989 103.068 122.01C105.106 122.03 107.073 121.257 108.551 119.853V119.641L108.767 119.64C110.181 118.183 110.963 116.228 110.944 114.198C110.924 112.168 110.104 110.228 108.662 108.799L95.7081 95.9272C94.2331 94.5218 92.267 93.7488 90.2298 93.7734Z" fill="#D1D1D1"/>
<path d="M113.098 112.499C112.027 112.502 110.966 112.294 109.975 111.887C108.985 111.479 108.084 110.88 107.325 110.124L94.3892 97.2674C92.9036 95.7419 92.0806 93.6914 92.0993 91.5622C92.118 89.4329 92.9769 87.3972 94.4891 85.898C96.0018 84.3917 98.0451 83.5391 100.18 83.5234C102.311 83.5227 104.362 84.3307 105.92 85.7842L118.874 98.6525C119.631 99.4033 120.232 100.297 120.643 101.281C121.053 102.265 121.264 103.321 121.264 104.388C121.264 105.454 121.053 106.51 120.643 107.494C120.232 108.478 119.631 109.372 118.874 110.123L118.871 110.126C118.112 110.881 117.212 111.479 116.221 111.887C115.23 112.294 114.169 112.502 113.098 112.499Z" fill="white"/>
<path d="M113.098 112.866C111.979 112.869 110.87 112.652 109.835 112.226C108.8 111.8 107.859 111.174 107.067 110.384L94.13 97.5282C92.9752 96.3346 92.1966 94.828 91.8906 93.1957C91.5846 91.5633 91.7649 89.8771 92.4089 88.3463C93.0529 86.8155 94.1324 85.5075 95.5133 84.5848C96.8942 83.6622 98.5157 83.1654 100.176 83.1562H100.228C102.436 83.1687 104.56 84.0122 106.175 85.5191L119.133 98.392C120.714 99.9594 121.611 102.087 121.631 104.313C121.651 106.539 120.791 108.682 119.239 110.277V110.279L119.13 110.387L119.128 110.39L119.088 110.428C117.489 111.997 115.338 112.872 113.098 112.866ZM100.229 83.8909H100.182C98.1437 83.906 96.1926 84.7204 94.7484 86.1591C93.3047 87.5901 92.4847 89.5334 92.467 91.5661C92.4492 93.5987 93.2351 95.5561 94.6536 97.0121L107.585 109.864C109.034 111.298 110.984 112.111 113.023 112.131C115.061 112.151 117.027 111.376 118.504 109.971V109.893L118.658 109.82C119.371 109.101 119.936 108.249 120.32 107.311C120.704 106.374 120.9 105.37 120.896 104.358C120.892 103.345 120.688 102.343 120.297 101.408C119.906 100.474 119.334 99.6262 118.615 98.9129L105.661 86.0453C104.185 84.6706 102.246 83.9015 100.229 83.8909Z" fill="#D1D1D1"/>
<path d="M123.045 102.612C120.884 102.607 118.811 101.755 117.272 100.238L104.339 87.3838C103.365 86.4475 102.64 85.2821 102.232 83.994C101.824 82.7059 101.745 81.336 102.002 80.0094C102.259 78.6829 102.845 77.4418 103.705 76.3996C104.565 75.3573 105.672 74.5471 106.926 74.0427C107.938 73.6558 109.011 73.4522 110.094 73.4414C111.179 73.4514 112.251 73.6767 113.248 74.1041C114.245 74.5315 115.147 75.1526 115.903 75.9313L128.827 88.7674C129.584 89.5182 130.185 90.4114 130.595 91.3957C131.005 92.3799 131.217 93.4355 131.217 94.5018C131.217 95.568 131.005 96.6237 130.595 97.6079C130.185 98.5921 129.584 99.4853 128.827 100.236C128.801 100.261 128.777 100.284 128.751 100.308C127.223 101.792 125.175 102.619 123.045 102.612Z" fill="white"/>
<path d="M123.045 102.98C120.787 102.975 118.622 102.084 117.013 100.498L104.08 87.6447C103.267 86.8645 102.619 85.9298 102.173 84.8955C101.727 83.8612 101.493 82.7482 101.483 81.6219C101.474 80.4956 101.689 79.3787 102.118 78.337C102.546 77.2952 103.178 76.3496 103.977 75.5557C104.781 74.7568 105.737 74.1266 106.788 73.7022C107.841 73.2994 108.958 73.0867 110.086 73.0742C111.221 73.0829 112.343 73.3174 113.387 73.7638C114.431 74.2103 115.376 74.8599 116.166 75.6748L129.086 88.5071C129.878 89.292 130.506 90.2258 130.934 91.2547C131.363 92.2835 131.584 93.3871 131.584 94.5017C131.584 95.6163 131.363 96.7199 130.935 97.7489C130.506 98.7778 129.878 99.7116 129.087 100.497L128.993 100.584C127.399 102.128 125.265 102.988 123.045 102.98ZM110.091 73.8089C109.056 73.8204 108.032 74.0147 107.065 74.3829C106.104 74.7706 105.23 75.3464 104.495 76.0766C103.764 76.8011 103.186 77.6647 102.794 78.6164C102.402 79.5682 102.205 80.5888 102.214 81.6179C102.223 82.6471 102.438 83.6641 102.847 84.6087C103.256 85.5534 103.849 86.4066 104.593 87.1181L117.532 99.9771C119.001 101.426 120.981 102.241 123.045 102.245C125.08 102.252 127.035 101.462 128.494 100.044L128.827 100.236L128.568 99.9762C129.29 99.2568 129.864 98.4026 130.258 97.4621C130.845 96.0474 130.998 94.4899 130.697 92.988C130.396 91.4861 129.655 90.1077 128.568 89.0285L115.644 76.1919C114.922 75.4467 114.06 74.8522 113.106 74.4432C112.153 74.0341 111.128 73.8185 110.091 73.8089H110.091Z" fill="#D1D1D1"/>
<path d="M82.035 122.381C80.9638 122.385 79.9026 122.177 78.9119 121.769C77.9213 121.362 77.0208 120.763 76.262 120.007C75.5048 119.256 74.9038 118.363 74.4936 117.379C74.0835 116.394 73.8723 115.339 73.8723 114.272C73.8723 113.206 74.0835 112.15 74.4936 111.166C74.9038 110.182 75.5048 109.289 76.262 108.538L89.1983 95.6858C89.9523 94.9113 90.8521 94.2937 91.846 93.8686C92.8398 93.4435 93.908 93.2194 94.9889 93.2091C96.074 93.2036 97.1499 93.4077 98.1575 93.8104C99.4151 94.3131 100.526 95.1238 101.389 96.168C102.251 97.2122 102.837 98.4564 103.093 99.7863C103.349 101.116 103.267 102.489 102.854 103.779C102.441 105.069 101.71 106.234 100.73 107.168L87.8109 120.007C87.0516 120.763 86.1506 121.362 85.1595 121.769C84.1683 122.177 83.1066 122.385 82.035 122.381Z" fill="#E6E6E6"/>
<path d="M82.035 122.749C80.9157 122.752 79.8066 122.535 78.7715 122.109C77.7364 121.683 76.7955 121.057 76.0029 120.267C75.2114 119.482 74.5831 118.548 74.1544 117.519C73.7256 116.49 73.5048 115.387 73.5048 114.272C73.5047 113.158 73.7254 112.054 74.1541 111.025C74.5828 109.997 75.211 109.063 76.0024 108.278L88.9392 95.4252C89.7269 94.6172 90.6665 93.973 91.7042 93.5296C92.7418 93.0862 93.8569 92.8525 94.9852 92.8418C96.1182 92.8429 97.241 93.0559 98.2956 93.4698C99.6102 93.9954 100.772 94.843 101.673 95.9346C102.575 97.0263 103.187 98.327 103.455 99.7172C103.722 101.107 103.636 102.543 103.204 103.891C102.773 105.239 102.009 106.457 100.983 107.433L88.0704 120.267C87.2772 121.057 86.3358 121.683 85.3001 122.109C84.2644 122.535 83.1549 122.753 82.035 122.749ZM95.0235 93.5765H94.9905C93.9586 93.5865 92.9389 93.8006 91.9901 94.2065C91.0413 94.6123 90.1823 95.2019 89.4624 95.9413L76.5208 108.798C75.7981 109.515 75.2244 110.368 74.8329 111.307C74.4415 112.247 74.2399 113.255 74.24 114.272C74.24 115.29 74.4416 116.298 74.8332 117.237C75.2247 118.177 75.7985 119.03 76.5213 119.746C77.9892 121.199 79.9712 122.014 82.0367 122.014C84.1021 122.014 86.0842 121.199 87.5521 119.746L100.47 106.907C101.404 106.014 102.1 104.902 102.493 103.671C102.886 102.44 102.964 101.13 102.72 99.8611C102.476 98.5922 101.918 97.4047 101.097 96.4071C100.276 95.4096 99.2175 94.6339 98.019 94.1509C97.0663 93.7699 96.0495 93.5749 95.0235 93.5765Z" fill="#B1B1B1"/>
<path d="M72.0881 112.503C69.9251 112.502 67.8497 111.648 66.3122 110.127L66.3092 110.123C65.5521 109.372 64.9512 108.479 64.5411 107.494C64.1309 106.51 63.9198 105.455 63.9198 104.388C63.9198 103.322 64.1309 102.266 64.5411 101.282C64.9512 100.298 65.5521 99.4047 66.3092 98.654L79.2455 85.8003C80.7701 84.335 82.8039 83.5187 84.9185 83.5235H85.0037C87.1384 83.5391 89.1817 84.3918 90.6944 85.898C92.2039 87.3944 93.0626 89.4257 93.0841 91.5512C93.1055 93.6766 92.288 95.7248 90.809 97.2514L77.8639 110.127C76.3274 111.65 74.2514 112.504 72.0881 112.503Z" fill="#E6E6E6"/>
<path d="M72.088 112.871C69.8281 112.869 67.6598 111.977 66.053 110.388L65.9443 110.277C64.3928 108.682 63.5335 106.539 63.5532 104.314C63.5729 102.089 64.47 99.9613 66.0496 98.394L78.986 85.5397C80.6002 83.9933 82.7543 83.1382 84.9896 83.1565C87.225 83.1749 89.3648 84.0651 90.9535 85.6378C92.5316 87.2021 93.4292 89.3257 93.4516 91.5476C93.474 93.7696 92.6194 95.9108 91.0731 97.5067L78.1234 110.387C76.5184 111.98 74.3488 112.872 72.088 112.871H72.088ZM66.635 109.929C67.3469 110.62 68.1846 111.169 69.103 111.545C70.5282 112.133 72.0951 112.287 73.6076 111.988C75.1201 111.69 76.5108 110.951 77.6055 109.866L90.5495 96.9916C91.9592 95.534 92.7378 93.5795 92.7164 91.5518C92.6949 89.5242 91.8753 87.5866 90.4351 86.1591C88.9906 84.7202 87.0391 83.9057 85.0003 83.8909C82.9535 83.8729 80.9802 84.6531 79.4991 86.0659L66.5685 98.9149C65.8457 99.6316 65.2721 100.484 64.8806 101.424C64.4891 102.363 64.2876 103.371 64.2876 104.389C64.2876 105.407 64.4891 106.415 64.8806 107.354C65.2721 108.294 65.8457 109.146 66.5685 109.863L66.635 109.929Z" fill="#B1B1B1"/>
<path d="M62.1324 102.614C60.5213 102.618 58.945 102.145 57.6026 101.254C56.2602 100.363 55.2118 99.094 54.5899 97.6076C54.1791 96.6243 53.9673 95.5693 53.9668 94.5036C53.9663 93.4379 54.1771 92.3827 54.587 91.399C54.9979 90.4139 55.5993 89.5197 56.3565 88.7675L69.2928 75.9168C70.0479 75.1429 70.9484 74.5259 71.9426 74.1011C72.9368 73.6763 74.0052 73.4522 75.0863 73.4415C76.1735 73.4108 77.2545 73.616 78.255 74.0428C79.2591 74.4482 80.1721 75.0502 80.9403 75.8134C81.7086 76.5765 82.3166 77.4855 82.7287 78.4869C83.1389 79.4846 83.3448 80.5545 83.3342 81.6332C83.3236 82.712 83.0967 83.7776 82.667 84.7671C82.2342 85.7587 81.6076 86.6539 80.824 87.4L67.9083 100.238C66.3709 101.759 64.2954 102.613 62.1324 102.614H62.1324Z" fill="#E6E6E6"/>
<path d="M62.1322 102.982C60.4487 102.986 58.8016 102.491 57.3989 101.56C55.9963 100.629 54.9009 99.3033 54.2511 97.7502C53.8213 96.7221 53.5997 95.6189 53.5991 94.5046C53.5985 93.3903 53.819 92.287 54.2477 91.2585C54.6773 90.2288 55.3059 89.294 56.0973 88.5076L69.0336 75.6567C69.8224 74.8494 70.7628 74.2058 71.8009 73.7627C72.8389 73.3197 73.9543 73.0859 75.0829 73.0748C76.2191 73.0409 77.3491 73.2554 78.3938 73.7033C79.4432 74.127 80.3973 74.7562 81.2002 75.5539C82.003 76.3515 82.6384 77.3016 83.0689 78.3482C83.4976 79.3913 83.7128 80.5097 83.7017 81.6374C83.6906 82.7651 83.4534 83.8791 83.0043 84.9136C82.5515 85.9504 81.8963 86.8864 81.0772 87.6668L68.1677 100.499C66.561 102.089 64.3924 102.981 62.1322 102.981V102.982ZM75.293 73.8071C75.2275 73.8071 75.1619 73.8076 75.0954 73.8095C74.0618 73.8188 73.0404 74.0325 72.0897 74.4382C71.1391 74.8439 70.2781 75.4336 69.5563 76.1733L56.6152 89.029C55.8924 89.7473 55.3184 90.6011 54.926 91.5416C54.5369 92.4826 54.3375 93.4911 54.3392 94.5093C54.3409 95.5275 54.5436 96.5354 54.9357 97.4751C55.3278 98.4148 55.9016 99.2678 56.6242 99.9852C57.3467 100.703 58.2039 101.27 59.1463 101.656C61.058 102.44 63.2016 102.441 65.1138 101.658C66.0616 101.27 66.9233 100.7 67.6493 99.9777L80.5645 87.1401C81.3151 86.426 81.9154 85.5691 82.3303 84.6199C82.7385 83.6727 82.9532 82.6534 82.9616 81.6221C82.9701 80.5907 82.7722 79.5681 82.3796 78.6143C81.987 77.6606 81.4076 76.795 80.6755 76.0685C79.9434 75.342 79.0734 74.7692 78.1167 74.3839C77.2238 74.0036 76.2635 73.8075 75.293 73.8071L75.293 73.8071Z" fill="#B1B1B1"/>
<path d="M52.1797 92.7274C50.0174 92.7299 47.942 91.8768 46.4067 90.3542L46.4038 90.3513C45.6478 89.5998 45.0475 88.7066 44.6372 87.7228C44.2263 86.7394 44.0145 85.6844 44.014 84.6187C44.0135 83.553 44.2243 82.4978 44.6342 81.5141C45.0459 80.5295 45.6471 79.6354 46.4038 78.8827L59.3429 66.032C60.092 65.2578 60.9885 64.6414 61.9796 64.2193C62.9764 63.7909 64.0486 63.5651 65.1336 63.5552C66.22 63.534 67.299 63.7388 68.3022 64.1565C69.3062 64.5625 70.2191 65.1649 70.9873 65.9283C71.7555 66.6916 72.3636 67.6007 72.776 68.6021C73.3946 70.1065 73.5437 71.7629 73.2037 73.3536C72.8638 74.9443 72.0507 76.395 70.8713 77.5152L57.9556 90.3528C56.4192 91.8757 54.3429 92.7292 52.1797 92.7274Z" fill="#E6E6E6"/>
<path d="M52.1795 93.0947C49.941 93.0973 47.7907 92.222 46.1904 90.6567L46.0392 90.5811L46.0382 90.5037C44.4867 88.9089 43.6274 86.766 43.6473 84.5411C43.6672 82.3162 44.5646 80.1891 46.1445 78.6223L59.0842 65.7709C59.8652 64.963 60.8007 64.3205 61.835 63.8815C62.8763 63.4339 63.9963 63.198 65.1297 63.1875C66.2654 63.1626 67.3936 63.3769 68.4411 63.8165C69.4903 64.2408 70.4443 64.8704 71.2471 65.6682C72.0499 66.4661 72.6854 67.4162 73.1161 68.4628C73.7626 70.0357 73.9183 71.7672 73.563 73.4301C73.2076 75.0931 72.3577 76.6097 71.1249 77.7809L58.2149 90.6132C56.6092 92.2042 54.4398 93.0962 52.1794 93.0947H52.1795ZM46.6677 90.0952C47.3927 90.8137 48.2515 91.3833 49.1955 91.7717C51.1096 92.5523 53.2535 92.5518 55.1673 91.7702C56.1125 91.3828 56.9719 90.8124 57.696 90.0918L70.6118 77.2543C71.3616 76.5436 71.9606 75.6893 72.3733 74.7422C72.786 73.7952 73.0038 72.7747 73.0137 71.7417C73.0227 70.7114 72.8255 69.6897 72.4337 68.7367C72.042 67.7838 71.4635 66.9188 70.7324 66.1927C69.9985 65.4611 69.1251 64.8845 68.1639 64.4971C67.2096 64.0929 66.1801 63.8969 65.1441 63.9221C64.1054 63.9312 63.079 64.147 62.1247 64.5569C61.1782 64.9589 60.3223 65.5471 59.6078 66.2865L46.6629 79.1432C45.9403 79.8621 45.3662 80.7162 44.9732 81.6567C44.386 83.0715 44.2331 84.6291 44.5341 86.1311C44.8351 87.6331 45.5763 89.0116 46.6634 90.0909L46.6677 90.0952Z" fill="#B1B1B1"/>
<path d="M112.205 141.491H79.7952V143.733H112.205V141.491Z" fill="#C2D3E6"/>
<path d="M174.149 174.612H17.8505C16.7553 174.61 15.7048 174.178 14.9258 173.408C14.541 173.029 14.2357 172.577 14.0277 172.079C13.8198 171.58 13.7134 171.045 13.7147 170.505V167.235C13.7159 166.937 13.8354 166.651 14.047 166.441C14.2587 166.231 14.5452 166.113 14.8435 166.114H177.156C177.455 166.113 177.741 166.231 177.953 166.441C178.165 166.651 178.284 166.937 178.285 167.235V170.505C178.286 171.046 178.18 171.581 177.972 172.079C177.764 172.578 177.459 173.03 177.074 173.41C176.69 173.793 176.234 174.096 175.732 174.303C175.23 174.509 174.692 174.614 174.149 174.612Z" fill="#8C8C8C"/>
<path d="M174.15 175.102H17.8503C16.6252 175.101 15.4502 174.616 14.5796 173.754C14.1489 173.33 13.8073 172.825 13.5746 172.267C13.3419 171.709 13.2229 171.11 13.2245 170.506V167.235C13.2261 166.807 13.3975 166.397 13.701 166.095C14.0045 165.793 14.4153 165.624 14.8433 165.625H177.157C177.585 165.624 177.996 165.793 178.299 166.095C178.603 166.397 178.774 166.807 178.776 167.235V170.506C178.777 171.111 178.658 171.71 178.425 172.268C178.192 172.826 177.851 173.333 177.42 173.757C176.99 174.186 176.48 174.525 175.919 174.756C175.358 174.987 174.757 175.105 174.15 175.102ZM14.8433 166.605C14.6751 166.604 14.5135 166.67 14.3938 166.788C14.2741 166.906 14.2061 167.067 14.2048 167.235V170.506C14.2037 170.981 14.2973 171.452 14.4804 171.891C14.6634 172.329 14.9321 172.727 15.2708 173.061C15.9577 173.74 16.8843 174.122 17.8503 174.123H174.15C174.628 174.125 175.102 174.032 175.545 173.85C175.988 173.668 176.39 173.401 176.729 173.063C177.067 172.729 177.336 172.331 177.519 171.892C177.702 171.453 177.796 170.981 177.795 170.506V167.235C177.794 167.067 177.726 166.906 177.606 166.788C177.487 166.67 177.325 166.604 177.157 166.605L14.8433 166.605Z" fill="#424242"/>
<path d="M108.022 170.979H83.9779C83.798 170.996 83.6185 170.942 83.4779 170.828C83.3373 170.715 83.2467 170.551 83.2255 170.371V166.728C83.2467 166.549 83.3373 166.385 83.4779 166.271C83.6185 166.157 83.798 166.103 83.9779 166.12H108.022C108.202 166.103 108.382 166.157 108.522 166.271C108.663 166.385 108.753 166.549 108.775 166.728V170.371C108.753 170.551 108.663 170.715 108.522 170.828C108.382 170.942 108.202 170.996 108.022 170.979Z" fill="#B1B1B1"/>
<path d="M108.022 166.855L108.039 166.856V170.244L108.022 170.244H83.978L83.9607 170.244V166.856L83.978 166.855H108.022ZM108.022 166.12H83.978C83.798 166.103 83.6186 166.157 83.478 166.271C83.3374 166.385 83.2467 166.549 83.2255 166.728V170.371C83.2467 170.551 83.3373 170.715 83.478 170.828C83.6186 170.942 83.798 170.996 83.978 170.979H108.022C108.202 170.996 108.382 170.942 108.522 170.828C108.663 170.715 108.753 170.551 108.775 170.371V166.728C108.753 166.549 108.663 166.385 108.522 166.271C108.382 166.157 108.202 166.103 108.022 166.12Z" fill="#666666"/>
<path d="M151.085 148.368L145.704 145.131L140.394 148.368V129.14H151.085V148.368Z" fill="#BD716D"/>
<path d="M145.647 136.15C143.837 136.137 142.072 135.59 140.573 134.575C139.074 133.561 137.91 132.126 137.226 130.45C136.541 128.775 136.369 126.934 136.729 125.161C137.09 123.388 137.967 121.761 139.251 120.485C140.535 119.21 142.168 118.343 143.944 117.995C145.72 117.646 147.559 117.831 149.23 118.527C150.9 119.222 152.328 120.396 153.332 121.902C154.336 123.407 154.872 125.176 154.872 126.986C154.861 129.424 153.884 131.757 152.154 133.475C150.425 135.193 148.085 136.155 145.647 136.15Z" fill="#E9CA8F"/>
<path d="M132.346 75.2057C132.046 75.206 131.759 75.0879 131.546 74.8773L112.258 55.7128C111.249 55.9615 110.213 56.0855 109.174 56.0821C105.926 56.086 102.792 54.8841 100.38 52.7092C98.3643 50.8966 96.9682 48.4974 96.3881 45.8496L90.7268 48.376C89.0421 49.1302 87.1522 49.2943 85.3627 48.8417C83.5733 48.3891 81.9887 47.3462 80.8651 45.8817C80.4962 45.4013 80.1808 44.8821 79.9245 44.3332C79.4802 43.3622 79.234 42.3124 79.2002 41.2451C79.1664 40.1778 79.3457 39.1144 79.7276 38.1173C80.1058 37.1182 80.6775 36.2036 81.4099 35.4259C82.1423 34.6482 83.021 34.0228 83.9957 33.5855L95.1374 28.6035C98.404 26.9678 101.817 25.6436 105.332 24.6484C107.873 24.0401 110.472 23.7031 113.084 23.643C120.339 23.4203 127.427 25.84 133.031 30.4521C133.643 30.9626 134.234 31.4958 134.806 32.0516C137.541 34.7311 139.703 37.9396 141.158 41.4814C143.372 46.8007 143.95 52.6593 142.819 58.3088C141.687 63.9584 138.898 69.1424 134.806 73.1989L133.151 74.87C132.936 75.0816 132.647 75.2018 132.346 75.2057Z" fill="#E6E6E6"/>
<path d="M132.403 75.5783C132.376 75.5783 132.348 75.5768 132.32 75.574C131.933 75.5667 131.562 75.4107 131.286 75.1382L112.144 56.1189C111.17 56.3416 110.174 56.4528 109.174 56.4504C105.835 56.4542 102.614 55.2185 100.134 52.9826C98.1726 51.2236 96.7798 48.9206 96.1326 46.367L90.8764 48.7121C89.1161 49.5001 87.1416 49.6714 85.272 49.1983C83.4024 48.7253 81.7469 47.6356 80.5732 46.1053C80.1879 45.604 79.8587 45.0621 79.5914 44.4891C79.1305 43.4723 78.8749 42.3746 78.8393 41.2588C78.8036 40.143 78.9887 39.0312 79.3838 37.9871C79.7789 36.9431 80.3762 35.9873 81.1416 35.1746C81.907 34.3619 82.8253 33.7084 83.8438 33.2515L96.3977 27.6323C99.2335 26.2373 102.197 25.1186 105.247 24.2917C107.814 23.678 110.438 23.3376 113.076 23.2763C120.418 23.0652 127.588 25.5139 133.267 30.1712C133.876 30.6792 134.48 31.2235 135.062 31.7889C137.833 34.5027 140.023 37.7528 141.497 41.3409C143.739 46.7275 144.325 52.6602 143.179 58.3812C142.033 64.1022 139.208 69.3518 135.065 73.4598L133.412 75.1291C133.139 75.3927 132.782 75.5517 132.403 75.5783ZM132.401 74.8436C132.582 74.8109 132.751 74.7309 132.89 74.6116L134.544 72.9413C138.585 68.9364 141.34 63.8179 142.458 58.2396C143.575 52.6613 143.005 46.8765 140.819 41.6241C139.383 38.1277 137.25 34.9606 134.549 32.316C133.98 31.7631 133.39 31.2312 132.796 30.7352C127.256 26.1865 120.256 23.7979 113.092 24.011C110.506 24.071 107.933 24.4046 105.418 25.0064C102.412 25.8193 99.4932 26.9229 96.7017 28.3015L84.1459 33.9217C83.2155 34.3395 82.3767 34.9367 81.6775 35.6792C80.9783 36.4217 80.4324 37.2948 80.0711 38.2486C79.7069 39.2007 79.536 40.2159 79.5683 41.2348C79.6007 42.2537 79.8357 43.2559 80.2597 44.183C80.5041 44.7062 80.8049 45.2012 81.1567 45.6591C82.23 47.0577 83.7434 48.0537 85.4525 48.486C87.1616 48.9184 88.9665 48.762 90.5758 48.0421L96.651 45.331L96.7472 45.772C97.3077 48.3462 98.665 50.6783 100.626 52.4373C102.971 54.5512 106.017 55.7195 109.174 55.7157C110.183 55.7187 111.189 55.5984 112.169 55.3574L112.37 55.3072L112.517 55.4531L131.805 74.6173C131.949 74.7594 132.143 74.8391 132.346 74.8393L132.401 74.8436Z" fill="#B1B1B1"/>
<path d="M133.001 92.7255C131.93 92.7291 130.87 92.5214 129.879 92.1141C128.889 91.7069 127.989 91.1082 127.231 90.3524L114.292 77.4986C113.514 76.7526 112.893 75.8585 112.465 74.8689C112.038 73.8793 111.813 72.8142 111.803 71.7363C111.794 70.6585 112 69.5895 112.41 68.5925C112.819 67.5955 113.424 66.6905 114.189 65.9307C114.958 65.1655 115.872 64.562 116.879 64.156C117.889 63.7647 118.963 63.5609 120.047 63.5547C121.133 63.5647 122.206 63.791 123.204 64.2202C124.201 64.6455 125.102 65.2675 125.852 66.0489L138.777 78.8808C139.535 79.6313 140.136 80.5245 140.547 81.5087C140.957 82.493 141.169 83.5488 141.169 84.6153C141.169 85.6817 140.958 86.7377 140.548 87.7221C140.138 88.7066 139.537 89.6 138.78 90.3509L138.777 90.3539C137.242 91.8786 135.165 92.7316 133.001 92.7255Z" fill="white"/>
<path d="M133.001 93.0933C131.882 93.0972 130.774 92.88 129.739 92.4544C128.704 92.0287 127.764 91.4028 126.971 90.6127L114.033 77.7599C113.22 76.9798 112.572 76.0451 112.126 75.0108C111.68 73.9765 111.445 72.8634 111.435 71.7371C111.426 70.6107 111.641 69.4938 112.07 68.4521C112.498 67.4103 113.131 66.4647 113.93 65.6709C114.733 64.8709 115.689 64.2401 116.74 63.816C117.792 63.4059 118.911 63.1929 120.04 63.1875C121.179 63.1972 122.303 63.4336 123.349 63.883C124.391 64.3274 125.333 64.9776 126.117 65.7948L139.036 78.6204C140.617 80.1863 141.516 82.3131 141.536 84.5382C141.557 86.7632 140.699 88.9065 139.147 90.5018V90.5783L138.995 90.6549C137.395 92.2238 135.242 93.0998 133.001 93.0933ZM120.043 63.9222C119.008 63.9269 117.982 64.1218 117.017 64.4971C116.058 64.8836 115.187 65.4578 114.454 66.1858C113.721 66.9138 113.141 67.781 112.748 68.7365C112.158 70.1692 112.015 71.7465 112.335 73.2623C112.656 74.7781 113.426 76.162 114.545 77.2333L127.49 90.0919C128.939 91.5254 130.89 92.3383 132.928 92.3582C134.966 92.3781 136.932 91.6035 138.409 90.1985V90.1268L138.56 90.0512C139.264 89.3403 139.825 88.5003 140.211 87.5773C140.798 86.1621 140.951 84.604 140.649 83.1016C140.348 81.5993 139.606 80.2207 138.518 79.1418L125.593 66.31C124.875 65.5614 124.014 64.9656 123.06 64.5584C122.106 64.1484 121.081 63.9322 120.043 63.9222Z" fill="#D1D1D1"/>
</svg>
