<svg width="196" height="192" viewBox="0 0 196 192" fill="none" xmlns="http://www.w3.org/2000/svg">
<path d="M101.144 151.02C123.999 133.976 128.419 129.812 151.45 125.957C174.481 122.102 184.18 91.992 148.12 78.3424C133.108 72.6598 118.132 65.456 105.97 54.9649C101.842 51.482 98.1654 47.5169 95.0219 43.1583C91.935 38.7731 90.4486 31.8588 84.8382 30.1164C69.4728 25.3447 50.0439 36.7772 40.0535 47.2228C23.5617 64.466 20.9599 88.9189 25.5403 111.261C40.9883 186.615 91.5975 158.139 101.144 151.02Z" fill="#E6E6E6"/>
<path d="M31.4323 120.851L31.2985 120.72C24.7253 114.285 24.7292 113.459 27.8005 109.95L28.3415 109.329C30.5847 106.726 32.6423 106.18 33.9734 106.18C35.1384 106.18 36.2282 106.603 37.0417 107.37C38.6355 108.873 50.3581 120.68 50.8562 121.182L51.7585 122.091L31.4323 120.851Z" fill="#CCA761"/>
<path d="M33.9735 106.669C35.079 106.669 36.023 107.089 36.6954 107.723C38.3016 109.237 50.4973 121.523 50.4973 121.523L31.6524 120.373C24.6036 113.473 25.511 113.372 28.7235 109.645C30.5912 107.478 32.4382 106.669 33.9735 106.669ZM33.9735 105.689C32.5365 105.689 30.3268 106.266 27.9595 109.013C27.772 109.23 27.5925 109.435 27.4221 109.63C24.0435 113.488 24.4058 114.664 30.9455 121.066L31.2129 121.328L31.5902 121.351L50.4352 122.501L53.0192 122.659L51.2143 120.841C50.7158 120.338 38.9887 108.525 37.3889 107.017C36.481 106.161 35.268 105.689 33.9735 105.689Z" fill="#795E2E"/>
<path d="M38.1617 121.003C37.7662 115.295 38.8966 105.103 44.3698 100.618C46.3757 98.7436 49.3009 98.1605 51.8952 99.1184C54.9305 100.432 54.8955 103.316 55.384 106.094C55.8922 109.049 56.5523 111.977 57.3617 114.867C57.6755 116.924 58.5057 118.872 59.7779 120.537L38.1617 121.003Z" fill="#BD716D"/>
<path d="M37.6951 121.502L37.6629 121.035C37.3104 115.942 38.1902 105.042 44.0496 100.242C46.1551 98.2713 49.3143 97.6399 52.0721 98.6597C54.9598 99.9086 55.3328 102.422 55.6942 104.852C55.7508 105.237 55.8084 105.624 55.8768 106.01C56.3807 108.941 57.0428 111.876 57.8445 114.737C58.157 116.764 58.9598 118.648 60.1785 120.242L60.7615 121.005L37.6951 121.502H37.6951ZM49.3709 99.1548C47.6717 99.1548 45.9842 99.7861 44.7147 100.972C39.3113 105.401 38.3748 115.411 38.6326 120.502L58.8367 120.066C57.8221 118.517 57.1453 116.762 56.868 114.939C56.0701 112.104 55.4002 109.136 54.8904 106.175C54.8221 105.782 54.7625 105.386 54.7039 104.993C54.3533 102.628 54.0496 100.586 51.6932 99.5661C50.9432 99.2892 50.1561 99.1548 49.3709 99.1548Z" fill="#662D23"/>
<path d="M27.2024 111.87C25.1448 112.714 22.7813 113.313 22.5032 112.551C22.257 112.02 22.4467 111.394 22.9481 111.081C22.9481 111.081 20.8349 111.897 19.7783 111.244C18.7217 110.591 19.4168 109.42 20.7515 109.257C20.7515 109.257 16.0801 109.066 15.5796 107.215C15.0791 105.364 17.387 105.609 18.5548 105.963C19.7227 106.317 21.1408 105.854 19.5002 105.201C17.8597 104.548 17.387 103.214 18.9441 102.996C20.5012 102.778 18.2768 101.989 17.7763 101.581C17.2758 101.172 14.3284 99.1852 16.2192 97.9058C18.11 96.6264 20.8627 100.71 20.8627 100.71C20.8627 100.71 20.0285 98.3958 21.0573 98.2869C22.1015 98.3896 23.0371 98.9634 23.5876 99.8386C23.5876 99.8386 21.6134 94.6394 25.5062 97.7426C25.5062 97.7426 23.393 93.1967 25.0057 91.9445C26.6184 90.6924 28.537 94.7211 28.8429 98.1509C28.8429 98.1509 29.5658 96.2182 31.0117 96.8987C32.4576 97.5793 31.4566 100.982 31.4566 100.982C31.4566 100.982 32.5966 100.165 33.4864 100.737C34.3762 101.309 35.0157 104.058 31.1229 108.168C27.2301 112.278 27.2024 111.87 27.2024 111.87H27.2024Z" fill="#B8DFBC"/>
<path d="M23.3503 113.389C23.0486 113.389 22.78 113.35 22.5671 113.257C22.2361 113.114 22.0935 112.884 22.033 112.715C21.9099 112.453 21.8689 112.164 21.9031 111.882C21.1433 112.028 20.1912 112.077 19.5115 111.659C18.9343 111.302 18.6668 110.751 18.7957 110.184C18.8455 109.965 18.95 109.76 19.0974 109.578C17.5623 109.333 15.4754 108.745 15.0964 107.341C14.8621 106.475 15.1492 105.977 15.4314 105.711C16.3572 104.84 18.3191 105.379 18.7019 105.496C18.8552 105.542 19.0046 105.569 19.1423 105.584C18.0642 105.105 17.4099 104.321 17.5007 103.596C17.532 103.353 17.6961 102.808 18.5349 102.58C18.4177 102.516 18.3035 102.455 18.2146 102.408C17.9011 102.243 17.6306 102.1 17.4568 101.958L17.281 101.822C16.1814 100.981 15.0613 99.9711 15.0945 98.8638C15.1052 98.4955 15.2595 97.9602 15.9353 97.5035C16.3797 97.2016 16.8855 97.1026 17.4422 97.2083C18.3992 97.3896 19.3396 98.1698 20.0525 98.9212C20.075 98.6725 20.1355 98.441 20.2566 98.2535C20.4226 97.9947 20.6883 97.834 21.0037 97.8005C21.0369 97.7967 21.072 97.7962 21.1072 97.8C21.6512 97.8536 22.1736 98.0215 22.6404 98.2836C22.5261 97.5336 22.5701 96.7888 23.0613 96.444C23.4578 96.1642 23.9568 96.2364 24.4685 96.4727C23.9383 94.9014 23.4295 92.5438 24.6951 91.5613C25.1599 91.2002 25.7078 91.1256 26.2381 91.3485C27.5916 91.9201 28.697 94.4001 29.1551 96.797C29.3338 96.6296 29.5457 96.4813 29.7908 96.3837C30.2439 96.2039 30.742 96.2283 31.2283 96.4574C32.4812 97.0471 32.3758 98.9317 32.1648 100.127C32.6414 100.002 33.2224 99.9826 33.7605 100.328C34.2224 100.624 34.5398 101.217 34.6316 101.955C34.7644 103.02 34.533 105.288 31.489 108.501C28.3591 111.807 27.613 112.356 27.2527 112.38C26.3289 112.752 24.5671 113.389 23.3504 113.389L23.3503 113.389ZM22.947 110.591C23.1306 110.591 23.3054 110.69 23.3933 110.859C23.5105 111.084 23.4334 111.358 23.2166 111.494C22.9275 111.675 22.8162 112.042 22.9587 112.348C23.1716 112.515 24.5886 112.412 27.0095 111.418C27.0476 111.403 27.0857 111.392 27.1248 111.386C27.3396 111.243 28.1287 110.609 30.7566 107.836C33.6287 104.803 33.7293 102.796 33.6394 102.074C33.574 101.55 33.3679 101.247 33.2117 101.147C32.6277 100.769 31.7576 101.372 31.7507 101.379C31.5759 101.501 31.3425 101.501 31.1697 101.382C30.9959 101.262 30.9177 101.047 30.9763 100.847C31.2634 99.8659 31.5974 97.7182 30.7947 97.3403C30.5593 97.2294 30.3601 97.2136 30.1697 97.2906C29.7205 97.4671 29.3982 98.0946 29.3113 98.3214C29.2293 98.5357 29.0056 98.661 28.7752 98.6356C28.5437 98.605 28.365 98.4218 28.3445 98.1937C28.1121 95.5821 26.8953 92.693 25.8425 92.2482C25.6472 92.1669 25.4959 92.1898 25.3162 92.329C24.3298 93.0948 25.325 96.1709 25.9617 97.5403C26.0574 97.7469 25.9959 97.9918 25.8123 98.1305C25.6277 98.2697 25.3699 98.2654 25.1912 98.1229C23.9842 97.161 23.6306 97.2466 23.6306 97.2471C23.4666 97.448 23.6629 98.6308 24.0564 99.6683C24.1463 99.9046 24.0379 100.169 23.8064 100.279C23.5769 100.388 23.2966 100.312 23.1619 100.096C22.7127 99.3818 21.947 98.8968 21.1013 98.7853C20.9763 98.9542 21.0515 99.7592 21.3347 100.547C21.4187 100.78 21.3113 101.038 21.0857 101.148C20.8592 101.257 20.5857 101.186 20.4461 100.98C19.9705 100.276 18.4705 98.4008 17.2517 98.1698C16.9607 98.1152 16.7234 98.1597 16.5037 98.3094C16.1033 98.5802 16.0964 98.815 16.0935 98.8925C16.0711 99.6535 17.4451 100.704 17.8972 101.05L18.0964 101.205C18.1931 101.284 18.4568 101.423 18.6892 101.546C19.4373 101.941 20.0818 102.282 19.9793 102.845C19.8855 103.359 19.2527 103.448 19.0144 103.481C18.6863 103.527 18.5037 103.634 18.4939 103.715C18.4714 103.894 18.8084 104.397 19.6892 104.748C20.5378 105.086 20.8796 105.499 20.7048 105.976C20.4587 106.653 19.2126 106.676 18.407 106.431C17.5525 106.172 16.4646 106.096 16.1238 106.418C15.9959 106.539 15.9753 106.765 16.0632 107.09C16.3699 108.225 19.3679 108.71 20.7722 108.768C21.032 108.778 21.241 108.982 21.2517 109.237C21.2624 109.491 21.072 109.712 20.8142 109.743C20.2175 109.816 19.8318 110.135 19.7722 110.397C19.7371 110.551 19.8289 110.697 20.0447 110.83C20.7302 111.254 22.2761 110.813 22.7654 110.625C22.8249 110.602 22.8865 110.591 22.947 110.591H22.947Z" fill="#729A77"/>
<path d="M79.09 83.2161C75.9757 81.4891 73.2398 80.2871 72.3316 81.3855C71.4233 82.4839 71.3966 85.8835 74.6556 88.9433C77.9147 92.0031 82.5628 91.2969 83.6046 89.5448C84.6464 87.7926 82.9101 85.3344 79.09 83.2161V83.2161Z" fill="#B8DFBC"/>
<path d="M79.8933 91.5397C77.8728 91.5397 75.8444 90.7371 74.3103 89.2964C70.988 86.1783 70.8015 82.457 71.9431 81.0765C73.0681 79.7176 75.7116 80.7795 79.3356 82.7894C82.0837 84.3128 83.8425 86.0434 84.2888 87.6615C84.4997 88.423 84.4118 89.1591 84.0358 89.7905C83.53 90.6424 82.363 91.2704 80.9147 91.4699C80.5759 91.5168 80.2341 91.5397 79.8933 91.5397V91.5397ZM73.4157 81.4453C73.0886 81.4453 72.8571 81.5281 72.7204 81.6931C72.069 82.4809 71.8005 85.5842 75.0017 88.5895C76.5749 90.0665 78.7302 90.7811 80.7751 90.4998C81.906 90.3444 82.8239 89.8838 83.1716 89.2978C83.4138 88.8918 83.4646 88.4273 83.3239 87.9174C82.9528 86.5734 81.32 85.015 78.8435 83.6418C76.2077 82.1805 74.3903 81.4453 73.4157 81.4453Z" fill="#729A77"/>
<path d="M72.2635 58.8924C67.924 60.5579 61.5215 63.7298 64.028 66.2887C66.5345 68.8476 75.8084 68.2166 77.4197 63.905C79.031 59.5934 78.5655 56.4737 72.2635 58.8924H72.2635Z" fill="#97C09B"/>
<path d="M69.1756 68.284C66.9754 68.284 64.8064 67.7904 63.6678 66.6276C63.0779 66.0259 62.8523 65.3237 63.0154 64.5962C63.5887 62.0434 68.9412 59.6408 72.0809 58.436C74.9812 57.322 76.8953 57.267 77.9353 58.2614C78.9734 59.2567 78.9588 61.2116 77.8894 64.0729C77.1863 65.9532 75.0838 67.3814 72.1199 67.9908C71.1961 68.1807 70.1824 68.284 69.1756 68.284V68.284ZM72.2635 58.8918L72.4461 59.3476C67.5672 61.2202 64.3279 63.3119 63.993 64.8066C63.9002 65.2161 64.0262 65.5796 64.3885 65.9493C65.6111 67.1973 68.8435 67.6617 71.9148 67.0323C74.533 66.4937 76.3689 65.2921 76.95 63.7362C77.8465 61.3388 77.9471 59.6437 77.2361 58.9616C76.5271 58.2834 74.8699 58.4168 72.4461 59.3476L72.2635 58.8918L72.2635 58.8918Z" fill="#4F7053"/>
<path d="M107.638 86.5539L107.754 90.8641L107.787 92.3604C107.816 93.6244 106.801 94.6759 105.511 94.7186L99.5634 94.8488C98.2713 94.8863 97.1928 93.8906 97.1545 92.6248C97.1545 92.6235 97.1544 92.6221 97.1544 92.6207L97.0048 86.8143C96.9804 85.5427 98.0004 84.4863 99.2978 84.4395L101.025 84.4073L105.229 84.2933C106.529 84.2708 107.605 85.2801 107.638 86.5539Z" fill="#DB9D99"/>
<path d="M111.402 82.2452L111.535 88.0679C111.553 88.7024 111.3 89.3154 110.837 89.7596L106.85 93.663C107.312 93.219 107.565 92.606 107.547 91.9716L107.514 90.4753L107.398 86.1651C107.365 84.8912 106.289 83.8818 104.989 83.9044L100.785 84.0184L99.0579 84.0505C98.4887 84.0683 97.9454 84.288 97.5292 84.6688L101.517 80.7651C101.933 80.3845 102.476 80.1649 103.045 80.1472L108.976 80.0007C110.277 79.9696 111.36 80.9715 111.402 82.2452L111.402 82.2452Z" fill="#BD716D"/>
<path d="M107.439 94.4022L106.736 93.7058L106.768 93.6747C107.112 93.3293 107.302 92.8577 107.287 92.3746L107.137 86.5669C107.112 85.5658 106.251 84.7393 105.237 84.7833L99.3074 84.9292C98.865 84.943 98.4382 85.1162 98.1111 85.4156L97.4158 84.7115L101.403 80.808C101.92 80.3345 102.578 80.068 103.269 80.047L109.204 79.9001C110.752 79.8652 112.091 81.0825 112.142 82.6179V82.6232L112.275 88.4457C112.297 89.212 111.987 89.9611 111.427 90.4987L107.478 94.3639C107.466 94.3769 107.453 94.3893 107.439 94.4022L107.439 94.4022ZM105.265 83.8032C106.818 83.8032 108.098 85.0215 108.137 86.542L108.283 92.191L110.723 89.8023C111.09 89.4512 111.289 88.9671 111.275 88.4701L111.142 82.6476C111.108 81.6632 110.275 80.8793 109.274 80.8793C109.26 80.8793 109.244 80.8793 109.228 80.8797L103.298 81.0261C102.852 81.04 102.426 81.2126 102.098 81.5121L99.615 83.9438L105.215 83.8037C105.231 83.8037 105.249 83.8032 105.265 83.8032L105.265 83.8032Z" fill="#662D23"/>
<path d="M104.201 56.385L103.247 60.5942L102.909 62.0538C102.624 63.287 101.38 64.0663 100.118 63.8019L94.3146 62.5174C93.0521 62.2474 92.2521 61.026 92.5277 59.7893C92.5281 59.7876 92.5284 59.786 92.5288 59.7843L93.8208 54.1154C94.1119 52.8759 95.3627 52.093 96.6332 52.3553L98.3172 52.7338L102.423 53.6202C103.691 53.9068 104.485 55.1414 104.201 56.3849V56.385Z" fill="#DB9D99"/>
<path d="M109.056 53.5314L107.744 59.2121C107.604 59.832 107.207 60.3668 106.648 60.6879L101.814 63.5292C102.373 63.2082 102.77 62.6734 102.909 62.0536L103.247 60.594L104.201 56.3848C104.485 55.1412 103.691 53.9066 102.423 53.6201L98.317 52.7336L96.6331 52.3551C96.0763 52.2373 95.4949 52.3216 94.9968 52.5923L99.8317 49.7507C100.33 49.4802 100.911 49.396 101.467 49.5138L107.258 50.7785C108.528 51.0567 109.33 52.2858 109.056 53.5314L109.056 53.5314Z" fill="#BD716D"/>
<path d="M102.066 63.9518L101.556 63.109L101.595 63.0856C102.014 62.8326 102.314 62.4203 102.421 61.9477L103.713 56.2782C103.935 55.3 103.306 54.3219 102.311 54.0971L96.5203 52.8319C96.0886 52.7411 95.6316 52.8075 95.239 53.0199L94.74 52.1718L99.575 49.3302C100.192 48.9934 100.895 48.8916 101.573 49.0346L107.367 50.3002C108.899 50.636 109.876 52.1321 109.545 53.6345L109.544 53.6393L108.231 59.3198C108.063 60.0674 107.578 60.7208 106.901 61.1101L102.114 63.9231C102.098 63.9327 102.082 63.9423 102.066 63.9518H102.066ZM97.0623 51.949L102.531 53.1414C104.065 53.4882 105.031 54.9901 104.689 56.491L103.432 62.006L106.391 60.2678C106.833 60.0134 107.146 59.591 107.256 59.106L108.568 53.4255C108.782 52.4478 108.146 51.4749 107.149 51.2559L101.359 49.9912C100.926 49.9008 100.468 49.9644 100.074 50.1787L97.0622 51.949H97.0623Z" fill="#662D23"/>
<path d="M135.804 25.4201C142.602 22.3304 147.904 20.0394 149.857 21.951C151.81 23.8625 151.304 29.5442 148.7 32.0487C146.096 34.5531 142.191 37.739 132.573 36.3939C122.954 35.0487 128.764 28.6197 135.804 25.4201Z" fill="#B8DFBC"/>
<path d="M136.814 37.1975C135.513 37.1975 134.082 37.1 132.503 36.879C129.14 36.4088 127.303 35.2905 127.042 33.5551C126.608 30.6719 131.015 27.0563 135.593 24.9756H135.594C143.266 21.4882 148.082 19.5199 150.211 21.6044C151.079 22.4544 151.552 23.9314 151.544 25.7634C151.532 28.3482 150.554 30.9522 149.051 32.3981C147.223 34.1559 144.06 37.1975 136.814 37.1975V37.1975ZM136.014 25.8643C131.228 28.0397 127.721 31.3554 128.031 33.4126C128.266 34.9757 130.669 35.633 132.643 35.9089C141.775 37.1856 145.537 34.4051 148.349 31.6988C149.672 30.4274 150.533 28.0957 150.544 25.7591C150.551 24.2132 150.172 22.9514 149.504 22.297C147.714 20.5492 141.766 23.2503 136.014 25.8643H136.014Z" fill="#729A77"/>
<path d="M129.696 65.0933C134.523 66.8164 138.192 68.2239 137.315 70.2154C135.27 72.9201 132.168 74.6683 128.753 75.04C124.724 75.5799 120.892 73.1701 119.716 69.3566C117.509 63.8622 124.697 63.3089 129.696 65.0933Z" fill="#97C09B"/>
<path d="M127.6 75.6082C123.784 75.6082 120.373 73.1817 119.237 69.4986C118.336 67.2601 119.008 65.9146 119.732 65.1866C121.72 63.1882 126.439 63.4092 129.867 64.6332C134.197 66.1791 137.088 67.3113 137.787 68.9007C138.003 69.392 137.999 69.8994 137.774 70.4098L137.717 70.5069C135.596 73.3118 132.349 75.1413 128.808 75.5273C128.402 75.5814 127.999 75.6082 127.6 75.6082ZM124.521 64.67C122.807 64.67 121.284 65.0302 120.448 65.8701C119.694 66.6282 119.604 67.7413 120.18 69.1777C121.306 72.82 124.878 75.0672 128.685 74.5549C131.943 74.2 134.921 72.5311 136.877 69.9726C136.97 69.7325 136.968 69.5139 136.869 69.2886C136.288 67.968 132.695 66.6852 129.525 65.5535C127.971 64.9991 126.159 64.67 124.521 64.67Z" fill="#4F7053"/>
<path d="M126.809 121.301C126.805 122.57 125.755 123.598 124.459 123.601H21.0794C19.7826 123.606 18.7275 122.58 18.7227 121.31C18.7179 120.039 19.7653 119.006 21.062 119.001C21.0678 119.001 21.0736 119.001 21.0794 119.001H124.459C125.755 119.004 126.805 120.032 126.809 121.301V121.301Z" fill="#424242"/>
<path d="M21.0691 124.092C19.5047 124.092 18.2283 122.847 18.2224 121.312C18.2166 119.774 19.49 118.517 21.0603 118.512H124.46C126.026 118.516 127.303 119.766 127.309 121.3V121.304C127.303 122.837 126.026 124.088 124.461 124.092H21.0691ZM21.0799 119.491C20.0447 119.495 19.2185 120.31 19.2224 121.308C19.2263 122.306 20.0769 123.127 21.0779 123.112H124.46C125.474 123.109 126.304 122.298 126.309 121.302C126.304 120.306 125.474 119.494 124.459 119.491H21.0799V119.491Z" fill="#181818"/>
<path d="M22.2542 123.602H123.285V125.074C123.285 136.964 113.445 146.603 101.307 146.603H44.2312C32.0936 146.603 22.2542 136.964 22.2542 125.074V123.602H22.2542Z" fill="#666666"/>
<path d="M101.307 147.092H44.2312C31.8376 147.092 21.7546 137.215 21.7546 125.074V123.111H123.785V125.074C123.785 137.215 113.702 147.092 101.307 147.092ZM22.7537 124.091L22.7546 125.073C22.7546 136.674 32.3894 146.113 44.2312 146.113H101.307C113.15 146.113 122.785 136.674 122.785 125.074V124.091H22.7537Z" fill="#292929"/>
<path d="M130.969 127.002H119.016C117.396 127.002 116.082 128.289 116.082 129.876V129.879C116.082 131.466 117.396 132.752 119.016 132.752H130.969C132.59 132.752 133.903 131.466 133.903 129.879V129.876C133.903 128.289 132.59 127.002 130.969 127.002Z" fill="#D1D1D1"/>
<path d="M130.969 133.242H119.015C117.122 133.242 115.582 131.733 115.582 129.878C115.582 128.021 117.122 126.512 119.015 126.512H130.969C132.863 126.512 134.403 128.021 134.403 129.875C134.403 131.733 132.863 133.242 130.969 133.242ZM119.015 127.491C117.674 127.491 116.582 128.561 116.582 129.875C116.582 131.193 117.674 132.262 119.015 132.262H130.969C132.311 132.262 133.403 131.193 133.403 129.878C133.403 128.561 132.311 127.491 130.969 127.491H119.015Z" fill="#8C8C8C"/>
<path d="M51.0447 110.063C50.8455 110.063 50.656 109.942 50.5749 109.754L51.0359 109.564L50.5652 109.731C50.1335 108.727 48.9578 105.711 49.1941 103.16C48.2751 103.824 46.9041 104.56 45.3357 104.56C44.6179 104.56 43.9177 104.403 43.2556 104.095C43.0886 104.017 42.9783 103.855 42.9705 103.673C42.9626 103.491 43.0583 103.321 43.2185 103.229C43.8943 102.842 44.5417 102.414 45.1589 101.946C44.8728 101.988 44.5818 102.009 44.2888 102.009C43.4119 102.01 42.5652 101.821 41.7732 101.448C41.6257 101.379 41.5222 101.242 41.4959 101.084C41.4705 100.925 41.5252 100.765 41.6433 100.653C41.822 100.486 46.0437 96.5444 48.8943 96.5444C49.1287 96.5444 49.3533 96.5707 49.5603 96.6219C49.8074 96.6798 50.0349 96.74 50.2449 96.795C50.6941 96.9137 51.0486 97.0069 51.3279 97.0069C51.6423 97.0069 52.0134 96.9189 52.7654 95.8719C53.4236 94.9674 53.8748 94.15 54.2039 93.553C54.6384 92.7662 54.8562 92.3711 55.2615 92.2922C55.2937 92.286 55.3709 92.2773 55.4041 92.2773C56.2576 92.2773 56.7049 93.7826 56.7049 94.5895C56.7049 95.3309 56.6443 96.1503 55.9246 96.4822C55.4949 96.6468 54.5594 97.3499 54.4822 97.6522C54.4441 97.8244 54.6033 98.0171 54.8172 98.2506L54.948 98.3969C55.1726 98.6533 55.3758 98.9475 55.5437 99.2617C56.1258 100.274 56.3914 101.435 56.3045 102.607C56.2351 103.312 56.2351 104.015 56.3035 104.709C56.3474 105.577 56.4412 106.425 56.5808 107.252C56.6511 107.941 56.8386 108.571 57.1443 109.157C57.2341 109.329 57.2117 109.537 57.0877 109.688C56.991 109.804 56.8474 109.869 56.699 109.869C56.656 109.869 56.6121 109.864 56.5681 109.853C56.1707 109.747 55.8006 109.575 55.4666 109.34C54.242 108.515 53.448 107.189 53.2859 105.754C52.4773 106.249 51.4539 107.087 51.4656 107.993L51.5017 108.949C51.5125 109.251 51.5154 109.399 51.5252 109.466C51.5887 109.714 51.4441 109.958 51.1961 110.039C51.1463 110.055 51.0945 110.063 51.0447 110.063L51.0447 110.063Z" fill="#B8DFBC"/>
<path d="M55.4045 92.7667C55.7716 92.7666 56.2051 93.8159 56.2051 94.5892C56.2051 95.3713 56.1116 95.8542 55.7117 96.0383C55.289 96.1993 54.1377 96.9813 53.9966 97.5334C53.8791 98.0624 54.3494 98.4534 54.5603 98.7063C54.7701 98.9462 54.9513 99.2086 55.1007 99.4885C55.6398 100.426 55.885 101.498 55.8057 102.571C55.7347 103.297 55.7347 104.029 55.8057 104.756C55.8495 105.619 55.9436 106.479 56.0873 107.332C56.159 108.046 56.3664 108.74 56.699 109.379C56.3614 109.29 56.0429 109.142 55.7588 108.942C54.4236 108.043 53.6661 106.524 53.762 104.94C53.762 104.94 50.9422 106.205 50.9656 107.999C51.0126 109.126 51.0126 109.471 51.0362 109.563C50.8481 109.126 48.8512 104.572 50.026 101.789C50.026 101.789 47.9449 104.069 45.3358 104.069C44.7357 104.069 44.1078 103.949 43.4707 103.652C45.0711 102.736 46.5207 101.588 47.7701 100.248C46.7838 101.085 45.5428 101.519 44.2889 101.519C43.5082 101.519 42.7227 101.351 41.9903 101.006C41.9903 101.006 46.2121 97.034 48.8947 97.034C49.0845 97.034 49.2663 97.0538 49.4386 97.0964C50.2682 97.2917 50.8351 97.4963 51.328 97.4963C51.9377 97.4963 52.434 97.1835 53.1747 96.1532C54.5135 94.3132 55.0068 92.8411 55.3595 92.7721C55.3743 92.7685 55.3893 92.7667 55.4045 92.7667ZM55.4045 91.7871C55.3225 91.7871 55.196 91.8024 55.1165 91.8219C54.528 91.9357 54.2404 92.4569 53.764 93.3204C53.4408 93.9059 52.9983 94.7078 52.3604 95.5847C51.6902 96.5167 51.4456 96.5167 51.328 96.5167C51.1142 96.5167 50.7878 96.4307 50.3747 96.3218C50.1613 96.2655 49.929 96.2043 49.6724 96.1439C49.4355 96.0854 49.1702 96.0544 48.8947 96.0544C45.8962 96.0544 41.7593 99.8655 41.2975 100.3C41.0611 100.522 40.951 100.844 41.0028 101.161C41.0547 101.479 41.262 101.751 41.5575 101.89C42.1927 102.188 42.86 102.378 43.5496 102.457C43.3578 102.577 43.1633 102.693 42.9665 102.806C42.6464 102.989 42.456 103.33 42.4716 103.693C42.4874 104.056 42.7066 104.38 43.0413 104.536C43.771 104.876 44.543 105.049 45.3359 105.049C46.6054 105.049 47.7507 104.607 48.6591 104.087C48.7107 106.386 49.6102 108.774 50.1066 109.925C50.2677 110.298 50.6427 110.532 51.038 110.532C51.1415 110.532 51.2464 110.516 51.3493 110.482C51.8228 110.327 52.1074 109.865 52.0206 109.391C52.0138 109.313 52.0103 109.174 52.0018 108.93C51.9936 108.698 51.9825 108.384 51.9648 107.959C51.959 107.502 52.4117 107.002 52.9374 106.592C53.2759 107.858 54.0684 108.992 55.1922 109.749C55.5585 110.007 55.9836 110.205 56.4388 110.325C56.5249 110.348 56.6123 110.359 56.699 110.359C56.9959 110.359 57.2831 110.229 57.4757 109.996C57.7248 109.695 57.7694 109.279 57.5899 108.934C57.3129 108.402 57.1423 107.831 57.0826 107.236C57.0804 107.215 57.0776 107.193 57.074 107.172C56.9369 106.359 56.8462 105.529 56.8045 104.707C56.7364 103.999 56.7364 103.327 56.8012 102.664C56.8969 101.373 56.6095 100.116 55.972 99.0076C55.8027 98.6895 55.5783 98.3647 55.3199 98.0692C55.2929 98.0364 55.2433 97.9816 55.1894 97.9227C55.143 97.8721 55.0695 97.7919 55.0198 97.7267C55.2486 97.461 55.8387 97.0427 56.0744 96.9512C56.0936 96.9438 56.1183 96.9335 56.137 96.9249C57.2051 96.4332 57.2051 95.1877 57.2051 94.5891C57.2051 93.6121 56.6769 91.7871 55.4045 91.7871L55.4045 91.7871Z" fill="#729A77"/>
<path d="M24.5873 92.166V92.1935L24.6148 92.166H24.5873ZM24.5873 92.166V92.1935L24.6148 92.166H24.5873ZM24.5873 92.166V92.1935L24.6148 92.166H24.5873Z" fill="#6E8CBB"/>
<path d="M56.2263 170.41C53.4851 170.405 51.2488 168.215 51.2429 165.529C51.2429 163.417 54.5564 159.128 56.2371 157.174C57.9167 159.128 61.2302 163.418 61.2302 165.53C61.2253 168.221 58.9851 170.41 56.2371 170.41H56.2263V170.41Z" fill="#BD716D"/>
<path d="M56.2367 157.938C58.2202 160.307 60.7304 163.858 60.7304 165.528C60.7251 167.95 58.7094 169.921 56.2271 169.921C53.7598 169.915 51.7482 167.945 51.743 165.53C51.743 163.858 54.2532 160.307 56.2367 157.938M56.2367 156.422C56.2367 156.422 50.743 162.56 50.743 165.53C50.7494 168.493 53.2001 170.894 56.225 170.9H56.2369C59.2654 170.9 61.7239 168.498 61.7303 165.53C61.7303 162.56 56.2367 156.422 56.2367 156.422Z" fill="#662D23"/>
<path d="M75.2224 170.41C72.4802 170.405 70.2449 168.215 70.24 165.529C70.24 163.417 73.5535 159.128 75.2332 157.174C76.9138 159.128 80.2273 163.418 80.2273 165.53C80.2214 168.221 77.9812 170.41 75.2332 170.41H75.2224V170.41Z" fill="#E9CA8F"/>
<path d="M75.2335 157.938C77.217 160.307 79.7272 163.858 79.7272 165.528C79.7219 167.95 77.7062 169.921 75.2239 169.921C72.7566 169.915 70.745 167.945 70.7399 165.53C70.7399 163.858 73.25 160.307 75.2335 157.938M75.2335 156.422C75.2335 156.422 69.7399 162.56 69.7399 165.53C69.7462 168.493 72.1969 170.894 75.2218 170.9H75.2338C78.2622 170.9 80.7207 168.498 80.7272 165.53C80.7272 162.56 75.2335 156.422 75.2335 156.422Z" fill="#A58346"/>
<path d="M94.2185 170.413C91.4802 170.404 89.2459 168.215 89.2371 165.533C89.2371 163.416 92.5486 159.129 94.2273 157.176C95.9099 159.129 99.2273 163.417 99.2273 165.534C99.2175 168.223 96.9705 170.412 94.2175 170.413H94.2185L94.2185 170.413Z" fill="#BD716D"/>
<path d="M94.2275 157.94C96.2134 160.307 98.7268 163.858 98.7268 165.532C98.7186 167.953 96.6954 169.924 94.2201 169.924C91.7562 169.916 89.745 167.945 89.7368 165.535C89.7368 163.858 92.2452 160.307 94.2275 157.94ZM94.2268 156.425C94.2268 156.425 88.7368 162.557 88.7368 165.535C88.7468 168.493 91.1969 170.893 94.2168 170.903C97.2568 170.903 99.7168 168.503 99.7268 165.535C99.7268 162.557 94.2268 156.425 94.2268 156.425Z" fill="#662D23"/>
<path d="M166.879 170.445H29.4792V171.425H166.879V170.445Z" fill="#B1B1B1"/>
<path d="M99.4881 95.3398C98.7654 95.3398 98.0769 95.0729 97.5457 94.5821C97.0301 94.1062 96.7205 93.4729 96.6638 92.7861L96.655 92.7736L96.6541 92.621L96.5047 86.8272C96.4754 85.2956 97.7205 84.007 99.2791 83.9506L105.215 83.8038C106.781 83.7942 108.097 85.0048 108.137 86.5412L108.287 92.3503C108.322 93.8747 107.085 95.1571 105.528 95.2083L99.574 95.3388C99.5457 95.3398 99.5173 95.3398 99.488 95.3398H99.4881ZM97.6502 92.4704L97.655 92.611C97.6697 93.0922 97.8738 93.5394 98.2322 93.8695C98.5896 94.1995 99.0349 94.3899 99.5486 94.3593L105.501 94.2291C106.506 94.1961 107.31 93.3629 107.287 92.3718L107.137 86.566C107.112 85.5659 106.251 84.7393 105.237 84.7834L99.3074 84.9297C98.2976 84.9661 97.4851 85.8079 97.5047 86.8057L97.6502 92.4704L97.6502 92.4704Z" fill="#944A45"/>
<path d="M100.607 64.3425C100.411 64.3425 100.213 64.3229 100.013 64.2808L94.2039 62.9955C93.4666 62.8377 92.8328 62.4062 92.4236 61.7806C92.0242 61.1707 91.8846 60.4475 92.0281 59.7387L92.0603 59.5918L93.3328 54.0089C93.6844 52.5166 95.2088 51.559 96.7371 51.8761L102.531 53.1422C104.066 53.489 105.031 54.9909 104.689 56.4914L103.396 62.1623C103.098 63.4552 101.913 64.3425 100.607 64.3425L100.607 64.3425ZM93.0213 59.8716L93.0164 59.8941C92.9119 60.3643 92.9998 60.8465 93.2654 61.2516C93.531 61.6567 93.9412 61.9365 94.4207 62.0394L100.228 63.3241C101.221 63.5312 102.199 62.9133 102.422 61.9461L103.713 56.2781C103.936 55.3013 103.307 54.3232 102.311 54.0979L96.5213 52.8327C95.5349 52.628 94.5359 53.2527 94.3084 54.2256L93.0213 59.8716Z" fill="#944A45"/>
<path d="M180.848 129.336C180.86 130.927 179.581 132.24 177.958 132.303L129.182 133.961C131.742 133.248 133.227 131.117 132.499 128.609C132.023 126.971 130.684 126.158 128.994 125.759L177.888 126.369C179.532 126.41 180.844 127.725 180.848 129.336Z" fill="#666666"/>
<path d="M129.182 134.451C128.937 134.451 128.726 134.276 128.688 134.037C128.649 133.793 128.803 133.558 129.046 133.49C131.453 132.819 132.647 130.911 132.018 128.742C131.642 127.45 130.644 126.653 128.877 126.234C128.629 126.176 128.467 125.945 128.498 125.697C128.529 125.452 128.742 125.269 128.994 125.269H129.001L177.894 125.879C179.828 125.928 181.342 127.445 181.348 129.333C181.362 131.199 179.882 132.718 177.978 132.792L129.2 134.45C129.194 134.451 129.188 134.451 129.182 134.451ZM131.442 126.279C132.206 126.832 132.715 127.56 132.979 128.474C133.543 130.412 132.918 132.226 131.427 133.395L177.941 131.814C179.3 131.76 180.358 130.674 180.348 129.339V129.338C180.345 127.983 179.258 126.893 177.875 126.858L131.442 126.279Z" fill="#292929"/>
</svg>
