<svg width="196" height="192" viewBox="0 0 196 192" fill="none" xmlns="http://www.w3.org/2000/svg">
<path d="M118.2 154.147C135.551 129.137 138.603 123.415 160.742 111.783C182.88 100.151 182.251 66.23 140.711 64.3871C123.417 63.6198 105.63 61.2903 89.5624 54.6705C84.1368 52.5032 79.0023 49.6936 74.2735 46.3044C69.5938 42.8694 65.6623 36.3223 59.3326 36.424C41.9971 36.7028 26.1792 54.85 19.6413 68.8343C8.84869 91.9188 14.7388 117.702 27.2154 138.932C69.2944 210.535 110.953 164.594 118.2 154.147Z" fill="#E6E6E6"/>
<path d="M65.4656 116.661C63.6941 116.661 61.9714 116.308 60.3454 115.61C56.4783 113.288 39.7615 77.9025 35.781 63.7128L35.1951 61.6283C31.0779 47.0172 27.5232 34.3987 34.7683 32.2592C37.0837 31.5752 38.779 31.2705 40.2663 31.2705C44.7068 31.2705 47.5495 34.1466 49.4841 40.5967C51.4519 47.1578 51.987 50.5758 51.8269 51.7649C52.7107 52.8545 56.7878 58.4226 58.7419 70.6168C62.8562 76.9038 65.7868 83.7858 67.4558 91.0744C67.864 91.6723 70.5124 95.5955 72.7195 99.9127C76.0046 106.339 76.7742 110.565 75.0076 112.471C72.5886 115.133 69.1091 116.661 65.4656 116.661V116.661Z" fill="#666666"/>
<path d="M40.2663 31.7608C44.0255 31.7607 46.944 33.8652 49.0044 40.7356C51.9569 50.5804 51.2858 51.893 51.2858 51.893C51.2858 51.893 56.1172 57.2748 58.2644 70.795C62.3806 77.0642 65.3337 83.9964 66.9877 91.2721C66.9877 91.2721 78.5292 107.943 74.6372 112.143C72.2547 114.764 68.8939 116.172 65.4652 116.172C63.807 116.172 62.1332 115.843 60.5459 115.162C57.0566 113.062 40.4238 78.4165 36.2635 63.5837C32.1031 48.7509 27.8002 34.8288 34.9129 32.7285C36.8537 32.1555 38.639 31.7609 40.2663 31.7608ZM40.2668 30.7812C38.7284 30.7813 36.9883 31.0926 34.6244 31.7907C26.911 34.0682 30.5264 46.8999 34.7126 61.7579L35.2993 63.8432C39.4134 78.5115 56.0495 113.605 60.0223 115.997L60.0814 116.032L60.1449 116.06C61.8347 116.784 63.6247 117.152 65.4652 117.152C69.2517 117.152 72.8669 115.563 75.384 112.795C77.3243 110.701 76.6009 106.413 73.1661 99.6938C70.9964 95.4497 68.4758 91.6905 67.9223 90.8785C66.2458 83.601 63.319 76.727 59.2197 70.4398C57.3235 58.7152 53.4551 53.0481 52.3382 51.6131C52.4546 49.9025 51.6339 46.0283 49.9638 40.4595C47.9564 33.7661 44.9658 30.7813 40.2668 30.7813L40.2668 30.7812Z" fill="#292929"/>
<path d="M73.6873 129.097C73.3318 129.097 73.0417 129.076 72.8015 129.032C65.3152 127.677 63.4314 119.68 63.4128 119.599L63.3748 119.43L63.4539 119.275C64.3562 117.51 68.863 111.618 88.9988 109.825C96.9148 106.173 105.363 104.183 114.11 103.912C122.344 100.178 131.097 97.8835 140.134 97.0924C141.328 96.5624 153.403 91.3066 162.097 91.3066C162.898 91.3066 163.656 91.3526 164.351 91.4425C166.766 91.7582 168.533 94.9638 169.077 100.016C169.679 105.61 166.713 106.122 160.212 107.243C158.059 107.614 149.147 110.097 137.863 113.239C113.83 119.932 80.9158 129.097 73.6873 129.097L73.6873 129.097Z" fill="#666666"/>
<path d="M162.098 91.796C162.859 91.7959 163.591 91.8376 164.285 91.9282C166.298 92.1907 168.043 95.0785 168.58 100.067C169.116 105.055 166.969 105.58 160.125 106.761C153.479 107.908 84.3333 128.607 73.6876 128.607C73.369 128.607 73.1032 128.589 72.8926 128.551C65.6456 127.238 63.901 119.494 63.901 119.494C65.6456 116.081 72.7584 111.749 89.1312 110.305C96.9924 106.665 105.536 104.654 114.227 104.398C122.437 100.663 131.246 98.3532 140.263 97.5725C140.263 97.5725 153.142 91.7967 162.098 91.796M162.099 90.8164H162.098C153.463 90.8171 141.583 95.9169 140.005 96.6116C130.974 97.4124 122.225 99.7044 113.992 103.425C105.242 103.71 96.7908 105.701 88.8649 109.345C75.147 110.579 65.4867 114.204 63.0068 119.055L62.8481 119.365L62.9244 119.705C63.0016 120.047 64.9017 128.1 72.7108 129.514C72.9819 129.563 73.3014 129.587 73.6876 129.587C80.9852 129.587 113.939 120.41 138 113.71C149.27 110.572 158.172 108.093 160.298 107.726C166.908 106.585 170.225 106.012 169.574 99.9638C169.005 94.671 167.077 91.304 164.417 90.9572C163.701 90.8638 162.921 90.8164 162.099 90.8164Z" fill="#292929"/>
<path d="M170.146 173.404C145.256 173.404 115.7 164.234 88.1472 146.149C87.6042 145.793 87.157 145.499 86.8103 145.279C86.6999 145.208 86.572 145.17 86.4392 145.17C86.2752 145.17 86.115 145.229 85.991 145.335C85.0603 146.133 84.1267 146.946 83.1746 147.775L82.9509 147.97C76.864 153.405 70.3933 158.558 63.7234 163.282C54.4949 169.812 41.6433 173.123 25.5271 173.123H23.5496V169.253H25.5271C40.7966 169.253 52.8679 166.189 61.406 160.146C67.9734 155.492 74.3357 150.425 80.3171 145.085C81.0769 144.422 81.8191 143.777 82.5584 143.139C82.5886 143.113 82.6179 143.082 82.6453 143.049C82.8738 142.763 82.822 142.344 82.5271 142.118C36.6208 106.572 26.6843 50.9655 26.6843 39.1062V37.1709H30.6394V39.1062C30.6394 50.7345 40.4548 105.186 85.8015 139.713C85.9226 139.805 86.0691 139.853 86.2224 139.853C86.3855 139.853 86.5437 139.796 86.6677 139.694C87.0456 139.378 87.4255 139.063 87.8181 138.753L88.988 137.821C97.9968 130.621 125.409 108.714 162.144 106.281L164.118 106.153L164.385 110.012L162.415 110.144C126.942 112.49 100.264 133.808 91.4978 140.813L90.1462 141.889C90.1052 141.923 90.0632 141.967 90.029 142.015C89.9245 142.16 89.8845 142.335 89.9148 142.51C89.946 142.684 90.0446 142.836 90.1921 142.938L91.0534 143.536C102.248 151.316 131.428 169.533 170.146 169.533H172.124V173.404H170.146H170.146Z" fill="#B1B1B1"/>
<path d="M30.1398 37.6612V39.1065C30.1398 51.011 40.1016 105.537 85.4954 140.1C85.7098 140.263 85.9663 140.344 86.2225 140.344C86.4965 140.344 86.77 140.251 86.9913 140.067C87.3663 139.755 87.743 139.442 88.1321 139.135L89.304 138.201C98.2804 131.027 125.6 109.193 162.178 106.771L163.653 106.675L163.852 109.557L162.38 109.656C126.74 112.013 99.9718 133.41 91.1743 140.44L89.9908 141.382L89.8322 141.509C89.7517 141.574 89.6804 141.65 89.6202 141.733C89.246 142.254 89.3731 142.972 89.9042 143.339C100.823 150.909 130.299 170.023 170.187 170.023H171.664V172.914H170.187C130.472 172.914 92.9447 148.612 87.0841 144.868C86.8872 144.743 86.6629 144.68 86.4396 144.68C86.1607 144.68 85.8832 144.777 85.6622 144.967C84.6574 145.828 83.6498 146.706 82.6193 147.604C76.522 153.048 70.1156 158.15 63.4309 162.886C54.2898 169.354 41.5351 172.634 25.5275 172.634H24.0497V169.743H25.5275C40.9002 169.743 53.0718 166.649 61.6991 160.543C68.3019 155.864 74.6301 150.824 80.6536 145.448C81.4086 144.789 82.1498 144.144 82.8881 143.507C82.9423 143.46 82.9921 143.409 83.0366 143.353C83.4379 142.851 83.3477 142.125 82.8354 141.732C37.2277 106.418 27.1842 51.2188 27.1842 39.1067V37.6612H30.1398ZM31.1398 36.6816H26.1842V39.1067C26.1842 51.0131 36.1545 106.836 82.2152 142.501C82.2668 142.541 82.2819 142.587 82.2859 142.62C82.2899 142.653 82.2869 142.702 82.2493 142.749C81.4874 143.41 80.7447 144.056 79.9884 144.716C74.0078 150.055 67.66 155.11 61.113 159.749C52.6621 165.731 40.6893 168.764 25.5275 168.764H23.0497V173.614H25.5275C41.7509 173.614 54.7004 170.272 64.0165 163.68C70.7063 158.941 77.1916 153.776 83.2928 148.328C84.3125 147.44 85.318 146.564 86.3208 145.704C86.3632 145.668 86.4087 145.66 86.4396 145.66C86.4747 145.66 86.5076 145.67 86.5373 145.689C86.8823 145.909 87.3264 146.201 87.8655 146.554C115.502 164.695 145.193 173.893 170.187 173.893H172.664V169.043H170.187C131.627 169.043 102.497 150.889 91.3415 143.136L90.4818 142.54C90.4308 142.504 90.4137 142.459 90.4079 142.427C90.4023 142.394 90.4028 142.346 90.4376 142.298L90.6224 142.142L91.8053 141.2C100.55 134.212 127.134 112.969 162.448 110.633L163.921 110.535L164.917 110.468L164.85 109.491L164.651 106.609L164.583 105.633L163.587 105.697L162.112 105.793C125.217 108.237 97.7119 130.217 88.6736 137.44L87.5007 138.375C87.1085 138.685 86.7248 139.003 86.343 139.322C86.3009 139.356 86.2541 139.364 86.2225 139.364C86.1932 139.364 86.1495 139.357 86.1075 139.326C40.9213 104.921 31.1398 50.6872 31.1398 39.1065V36.6816V36.6816Z" fill="#666666"/>
<path d="M26.4597 32.7637H30.7537C31.4371 32.7637 31.9919 33.3072 31.9919 33.9767V40.6683C31.9919 41.3378 31.4371 41.8813 30.7537 41.8813H26.4587C25.7753 41.8813 25.2205 41.3378 25.2205 40.6683V33.9776C25.2205 33.3076 25.7757 32.7637 26.4597 32.7637L26.4597 32.7637Z" fill="#8C8C8C"/>
<path d="M30.7533 33.253C31.161 33.253 31.4916 33.5769 31.4916 33.9763V40.6681C31.4916 41.0676 31.161 41.3914 30.7533 41.3914H26.4592C26.0515 41.3914 25.7208 41.0675 25.7208 40.6681V33.9763C25.7208 33.5769 26.0515 33.253 26.4592 33.253H30.7533ZM30.7533 32.2734H26.4592C25.5006 32.2734 24.7208 33.0373 24.7208 33.9763V40.6681C24.7208 41.6071 25.5006 42.371 26.4592 42.371H30.7533C31.7118 42.371 32.4916 41.6071 32.4916 40.6681V33.9763C32.4916 33.0373 31.7118 32.2734 30.7533 32.2734Z" fill="#424242"/>
<path d="M161.534 104.942H168.379C169.062 104.942 169.617 105.486 169.617 106.155V110.352C169.617 111.022 169.062 111.566 168.378 111.566H161.535C160.851 111.566 160.296 111.022 160.296 110.352V106.155C160.296 105.486 160.851 104.942 161.534 104.942Z" fill="#8C8C8C"/>
<path d="M168.378 105.432C168.786 105.432 169.116 105.756 169.116 106.155V110.353C169.116 110.752 168.786 111.076 168.378 111.076H161.534C161.126 111.076 160.796 110.752 160.796 110.353V106.155C160.796 105.756 161.126 105.432 161.534 105.432H168.378ZM168.378 104.452H161.534C160.576 104.452 159.796 105.216 159.796 106.155V110.353C159.796 111.292 160.576 112.056 161.534 112.056H168.378C169.337 112.056 170.116 111.292 170.116 110.353V106.155C170.116 105.216 169.337 104.452 168.378 104.452Z" fill="#424242"/>
<path d="M64.4568 118.993C64.2644 118.993 64.1013 118.98 63.9763 118.951L64.2068 117.998C64.8513 118.145 67.8787 117.527 69.824 117.038L127.284 102.571L159.636 94.3873C162.002 93.7713 165.957 92.686 166.487 92.4014L166.968 93.2604C166.158 93.6957 160.529 95.1684 159.89 95.3349L127.533 103.519L70.072 117.987C69.3425 118.171 65.9822 118.993 64.4568 118.993L64.4568 118.993Z" fill="#292929"/>
<path d="M74.3035 112.508C69.9431 108.681 64.2009 96.6136 60.2625 87.869C56.4002 79.2995 52.2234 67.102 49.3992 58.3789C46.9919 50.9425 41.2634 31.753 41.2058 31.5597L42.1648 31.2852C42.2224 31.4779 47.948 50.657 50.3523 58.0824C53.1687 66.7829 57.3328 78.9441 61.1765 87.4735C65.0789 96.1348 70.7537 108.077 74.9714 111.778L74.3035 112.508L74.3035 112.508Z" fill="#292929"/>
<path d="M181.997 173.36H14V174.341H181.997V173.36Z" fill="#B1B1B1"/>
</svg>
