<svg width="192" height="192" viewBox="0 0 192 192" fill="none" xmlns="http://www.w3.org/2000/svg">
<path d="M70.9232 67.7112C72.1003 61.2944 78.3071 62.6944 78.3071 62.6944C77.9861 59.661 81.6245 58.7276 81.6245 58.7276C78.0931 51.3773 83.9788 48.6939 83.9788 48.6939C86.8682 39.0102 95.3223 43.7937 95.3223 43.7937C107.415 40.7603 111.267 52.544 111.267 52.544C118.758 47.1772 123.36 53.7107 123.36 53.7107C124.556 53.867 125.694 54.3233 126.667 55.0373C127.64 55.7512 128.416 56.6996 128.925 57.7942C137.914 56.3941 139.412 65.1444 139.412 65.1444C140.48 64.6809 141.672 64.59 142.798 64.8862C143.924 65.1825 144.917 65.8487 145.619 66.7778C149.257 64.5611 153.645 66.7778 152.681 72.028C151.718 77.2782 145.084 74.7114 145.084 74.7114C137.486 78.7949 129.46 75.2948 129.46 75.2948C124.751 76.8115 122.29 74.8281 122.29 74.8281C112.658 82.0617 96.8204 75.8781 96.8204 75.8781C89.4365 80.4283 81.7315 75.6448 81.7315 75.6448C79.1632 77.8615 75.0967 76.3448 75.0967 76.3448C63.6462 80.195 60.5429 74.4781 60.5429 74.4781C60.5429 74.4781 54.2291 77.6282 52.1958 73.5447C50.1626 69.4613 53.694 66.4278 59.2587 67.7112C60.8748 66.6579 62.7928 66.1659 64.7164 66.3111C66.8546 66.3858 68.9599 66.8607 70.9232 67.7112Z" fill="#E6E6E6"/>
<path d="M105.169 97.8591C106.794 99.8787 108.94 101.415 111.376 102.303C115.236 103.752 119.801 106.867 114.897 112.917C110.256 118.644 102.912 118.1 97.8937 116.807C94.9377 116.112 91.8531 116.182 88.9318 117.011C87.7985 117.301 86.6075 117.275 85.4876 116.938C82.707 116.231 79.7868 116.293 77.0387 117.117C72.6925 118.27 66.7 118.94 63.2091 115.401C63.2091 115.401 58.2237 117.392 55.3408 114.953C55.3408 114.953 39.9598 119.795 39.2141 110.625C38.7184 104.528 44.3862 102.813 48.8653 103.073C51.9052 103.103 54.8927 102.282 57.4901 100.702C57.7945 100.537 58.1094 100.392 58.4329 100.268C61.2594 99.2764 63.7422 97.4949 65.5864 95.1347C66.4803 93.8912 67.6947 92.9135 69.1003 92.3056C70.5059 91.6977 72.05 91.4824 73.5682 91.6826C75.523 91.8994 77.5001 91.79 79.419 91.3588C85.086 89.9424 97.5972 88.2253 105.169 97.8591Z" fill="#E6E6E6"/>
<path d="M106.733 135.859H89.5999V136.934H106.733V135.859Z" fill="#6E8CBB"/>
<path d="M106.733 142.279H89.5999V143.354H106.733V142.279Z" fill="#6E8CBB"/>
<path d="M106.733 148.698H89.5999V149.773H106.733V148.698Z" fill="#6E8CBB"/>
<path d="M75.7015 65.0769C75.5596 65.0851 75.4185 65.0496 75.2973 64.9751C75.1761 64.9007 75.0807 64.7909 75.0238 64.6605C73.5854 61.1489 71.0322 58.2076 67.7577 56.2897C64.2423 54.1673 60.2416 52.9815 56.1374 52.8455C52.0333 52.7095 47.9628 53.6278 44.3146 55.5127C44.2052 55.5733 44.0817 55.6037 43.9567 55.6007C43.8317 55.5978 43.7098 55.5616 43.6034 55.4959C43.4966 55.4304 43.4087 55.3383 43.3485 55.2285C43.2882 55.1187 43.2576 54.9951 43.2596 54.8698C43.7221 28.5975 67.3818 7.22461 96.002 7.22461C96.1434 7.22499 96.2814 7.26719 96.3988 7.34587C96.5162 7.42456 96.6077 7.53622 96.6618 7.6668C96.7159 7.79738 96.7301 7.94104 96.7027 8.07969C96.6753 8.21835 96.6075 8.34579 96.5079 8.44599C96.3039 8.65002 76.0369 29.2906 76.0369 54.255C76.0369 57.5138 76.199 60.8175 76.519 64.0763C76.5352 64.2432 76.4922 64.4104 76.3974 64.5487C76.3493 64.6936 76.2594 64.821 76.1391 64.915C76.0188 65.009 75.8733 65.0653 75.7211 65.0769L75.7015 65.0769Z" fill="#BD716D"/>
<path d="M75.7246 65.445H75.7016C75.4853 65.4544 75.2713 65.397 75.0888 65.2806C74.9062 65.1642 74.7639 64.9944 74.6812 64.7943C73.2717 61.3571 70.7711 58.4788 67.5647 56.6028C64.1041 54.5144 60.1662 53.3475 56.1265 53.2133C52.0868 53.0792 48.0802 53.9824 44.4887 55.8367C44.3225 55.9284 44.1348 55.9742 43.945 55.9692C43.7552 55.9643 43.5701 55.9088 43.4089 55.8085C43.2487 55.709 43.1169 55.5697 43.0263 55.4043C42.9357 55.2388 42.8894 55.0528 42.8919 54.8642C43.3581 28.3931 67.1832 6.85742 96.0019 6.85742C96.2158 6.85778 96.4247 6.92137 96.6025 7.04021C96.7802 7.15905 96.9189 7.32782 97.001 7.52527C97.083 7.72273 97.1049 7.94005 97.0637 8.14988C97.0226 8.35972 96.9202 8.55269 96.7697 8.70451C96.5643 8.91009 76.4048 29.3576 76.4048 54.2555C76.4048 57.5055 76.5665 60.7979 76.8848 64.0409C76.9074 64.2767 76.8525 64.5134 76.7283 64.7151C76.6491 64.9198 76.5127 65.0974 76.3355 65.2268C76.1582 65.3562 75.9475 65.4319 75.7284 65.4451L75.7246 65.445ZM55.3563 52.4651C59.8034 52.4208 64.1718 53.6394 67.9538 55.9793C71.2957 57.9386 73.9005 60.9426 75.3666 64.5284C75.399 64.5877 75.4479 64.6364 75.5073 64.6686C75.5667 64.7008 75.6342 64.7151 75.7016 64.7098H75.7212C75.7963 64.6983 75.8668 64.6662 75.9248 64.6171C75.9828 64.5679 76.026 64.5035 76.0495 64.4312L76.095 64.3403C76.1406 64.2728 76.1611 64.1914 76.1529 64.1103C75.8322 60.846 75.6695 57.5294 75.6695 54.2555C75.6695 29.0565 96.0421 8.39243 96.2479 8.18662C96.2961 8.13779 96.3288 8.07582 96.342 8.00848C96.3552 7.94113 96.3482 7.8714 96.322 7.808C96.2957 7.7446 96.2513 7.69035 96.1944 7.65204C96.1375 7.61373 96.0705 7.59307 96.0019 7.59263C67.5818 7.59263 44.0866 28.8043 43.6271 54.8768C43.6258 54.9382 43.6408 54.9989 43.6704 55.0527C43.7001 55.1066 43.7434 55.1516 43.796 55.1834C43.8469 55.215 43.9053 55.2324 43.9651 55.2338C44.0249 55.2353 44.0841 55.2207 44.1364 55.1915C47.5943 53.3713 51.4487 52.4347 55.3563 52.4651Z" fill="#662D23"/>
<path d="M116.336 65.1189H116.291C116.139 65.1092 115.994 65.0511 115.877 64.9531C115.759 64.855 115.677 64.7222 115.64 64.5739C115.64 64.5683 115.559 64.4173 115.556 64.4145C115.494 64.2921 115.468 64.1544 115.481 64.0177C115.802 60.8063 115.964 57.5222 115.964 54.255C115.964 29.2906 95.7003 8.65006 95.4963 8.44599C95.3966 8.34579 95.3288 8.21834 95.3014 8.07969C95.274 7.94103 95.2883 7.79737 95.3424 7.66679C95.3964 7.53621 95.4879 7.42455 95.6053 7.34587C95.7228 7.26718 95.8608 7.22499 96.0021 7.22461C124.622 7.22461 148.279 28.5975 148.74 54.8726C148.742 54.9976 148.712 55.121 148.651 55.2304C148.591 55.3398 148.503 55.4315 148.396 55.4962C148.289 55.561 148.167 55.5966 148.042 55.5995C147.917 55.6024 147.794 55.5724 147.684 55.5127C144.037 53.6286 139.969 52.7103 135.867 52.8453C131.765 52.9804 127.765 54.1643 124.251 56.2841C120.974 58.1957 118.426 61.141 117.004 64.6577C116.953 64.7934 116.861 64.9102 116.742 64.9926C116.623 65.075 116.481 65.119 116.336 65.1189Z" fill="#BD716D"/>
<path d="M116.336 65.4869H116.291C116.057 65.4766 115.832 65.3909 115.651 65.2426C115.469 65.0943 115.341 64.8913 115.284 64.6639C115.291 64.6914 115.252 64.6227 115.241 64.6026C115.139 64.4121 115.095 64.1961 115.115 63.9811C115.434 60.7909 115.597 57.5187 115.597 54.2555C115.597 29.308 95.44 8.90985 95.2366 8.70667C95.0854 8.55511 94.9825 8.36217 94.9408 8.15217C94.8991 7.94218 94.9206 7.72455 95.0024 7.52674C95.0843 7.32893 95.2229 7.15979 95.4008 7.04068C95.5787 6.92156 95.7879 6.85779 96.002 6.85742C124.82 6.85742 148.643 28.3943 149.108 54.8665C149.111 55.056 149.065 55.2431 148.973 55.4089C148.881 55.5748 148.747 55.7137 148.585 55.8117C148.423 55.9096 148.238 55.9633 148.048 55.9673C147.859 55.9713 147.671 55.9254 147.505 55.8343C143.916 53.9823 139.913 53.08 135.877 53.2132C131.841 53.3464 127.906 54.5108 124.447 56.5954C121.239 58.4654 118.742 61.347 117.348 64.7886C117.271 64.9945 117.133 65.1718 116.952 65.2967C116.771 65.4216 116.556 65.4879 116.336 65.4869ZM115.885 64.2501C115.953 64.3459 115.995 64.4575 116.008 64.5743C116.042 64.6257 116.087 64.6686 116.14 64.6995C116.193 64.7304 116.253 64.7485 116.314 64.7524L116.336 65.1193V64.7517C116.407 64.7519 116.476 64.7305 116.533 64.6904C116.591 64.6503 116.636 64.5934 116.66 64.5274C118.111 60.9353 120.712 57.9261 124.057 55.9717C127.627 53.8179 131.689 52.6152 135.856 52.4783C140.023 52.3413 144.155 53.2748 147.858 55.1896C147.912 55.2188 147.972 55.2336 148.032 55.2325C148.093 55.2313 148.152 55.2143 148.205 55.183C148.257 55.1517 148.3 55.1074 148.329 55.0543C148.359 55.0012 148.374 54.9413 148.373 54.8806C147.915 28.8054 124.422 7.59262 96.002 7.59262C95.9331 7.59296 95.8659 7.6137 95.8087 7.65223C95.7516 7.69076 95.7072 7.74535 95.6811 7.80911C95.655 7.87286 95.6483 7.94292 95.662 8.01045C95.6757 8.07798 95.709 8.13994 95.7579 8.18852C95.9613 8.39147 116.332 29.0065 116.332 54.2555C116.332 57.5428 116.169 60.84 115.847 64.0548C115.841 64.1222 115.854 64.1899 115.885 64.2501L115.885 64.2501Z" fill="#662D23"/>
<path d="M75.8064 64.8621C75.7727 64.8621 75.739 64.8593 75.7058 64.8537C75.5471 64.8316 75.4004 64.7567 75.2894 64.6412C75.1783 64.5256 75.1094 64.376 75.0937 64.2165C74.771 60.9129 74.6061 57.5618 74.6061 54.2554C74.6061 28.6901 95.2866 7.64425 95.4962 7.43463C95.6329 7.3054 95.8139 7.2334 96.0021 7.2334C96.1902 7.2334 96.3712 7.3054 96.5079 7.43463C96.7175 7.64426 117.395 28.6901 117.395 54.2554C117.395 57.5702 117.23 60.9017 116.906 64.1578C116.89 64.3165 116.822 64.4653 116.711 64.5807C116.601 64.6961 116.456 64.7715 116.298 64.7949C116.14 64.8183 115.979 64.7884 115.84 64.71C115.701 64.6316 115.593 64.5091 115.531 64.3618C114.06 60.9913 111.567 58.1679 108.405 56.2901C104.664 54.0292 100.376 52.8337 96.0049 52.8327C91.6338 52.8318 87.3455 54.0253 83.6035 56.2845C80.4156 58.1585 77.9147 61.008 76.4701 64.4122C76.4171 64.5449 76.3255 64.6587 76.2072 64.7389C76.0889 64.8191 75.9493 64.862 75.8064 64.8621Z" fill="#E9CA8F"/>
<path d="M75.8064 65.2297C75.7519 65.2298 75.6975 65.2251 75.6437 65.2159C75.4049 65.1817 75.1847 65.068 75.0185 64.8932C74.8524 64.7183 74.75 64.4926 74.728 64.2524C74.4031 60.9263 74.2384 57.5628 74.2384 54.2554C74.2384 28.5181 95.026 7.38549 95.2356 7.17489C95.4456 6.98505 95.7186 6.87992 96.0016 6.87988C96.2847 6.87985 96.5577 6.9849 96.7677 7.17469C96.9779 7.38458 117.763 28.4682 117.763 54.2554C117.763 57.5765 117.598 60.9206 117.272 64.1942C117.248 64.4345 117.144 64.6599 116.977 64.8345C116.811 65.0092 116.59 65.1232 116.351 65.1585C116.112 65.1938 115.869 65.1483 115.658 65.0293C115.448 64.9103 115.284 64.7246 115.191 64.5015C113.749 61.203 111.308 58.4403 108.212 56.6032C104.53 54.3783 100.309 53.2016 96.0071 53.2002C91.7047 53.1989 87.4837 54.3728 83.7998 56.5953C80.678 58.4286 78.2281 61.2169 76.8116 64.5487C76.732 64.7501 76.5935 64.9229 76.4142 65.0444C76.2349 65.1659 76.0231 65.2305 75.8064 65.2297ZM96.0019 7.60088C95.9108 7.59867 95.8224 7.63236 95.7559 7.6947C95.5482 7.90242 74.9736 28.8185 74.9736 54.2554C74.9736 57.5389 75.1373 60.8784 75.4594 64.1808C75.4675 64.2578 75.501 64.33 75.5547 64.3858C75.6083 64.4417 75.6791 64.4781 75.7557 64.4893L75.8064 64.4945C75.8758 64.4942 75.9434 64.4733 76.0008 64.4344C76.0582 64.3955 76.1026 64.3403 76.1286 64.276C77.6033 60.7982 80.1569 57.8864 83.4126 55.9704C87.213 53.6756 91.5684 52.4635 96.0079 52.465C100.447 52.4665 104.802 53.6816 108.601 55.979C111.828 57.8974 114.371 60.7806 115.871 64.2217C115.9 64.292 115.952 64.3506 116.018 64.3887C116.084 64.4267 116.161 64.4421 116.236 64.4323C116.315 64.4221 116.387 64.3858 116.443 64.3292C116.498 64.2725 116.532 64.1989 116.541 64.1203C116.864 60.8717 117.028 57.5523 117.028 54.2554C117.028 28.7692 96.4557 7.9022 96.248 7.69446C96.1814 7.63221 96.093 7.5986 96.0019 7.60088Z" fill="#A58346"/>
<path d="M95.2575 142.647L43.2882 55.6848L43.9191 55.3076L95.2654 141.23L148.083 55.3037L148.709 55.6887L95.2575 142.647Z" fill="#181818"/>
<path d="M95.2663 143.263L74.8398 64.9458L75.551 64.7596L95.2898 140.439L116.434 64.4873L117.144 64.6842L95.2663 143.263Z" fill="#181818"/>
<path d="M115.254 131.924H75.3219V184.653H115.254V131.924Z" fill="white"/>
<path d="M115.744 185.143H74.8314V131.434H115.744V185.143ZM75.8117 184.163H114.763V132.414H75.8117V184.163Z" fill="#D1D1D1"/>
<path d="M106.697 149.023H83.8788V150.454H106.697V149.023Z" fill="#B1B1B1"/>
<path d="M106.697 157.573H83.8788V159.004H106.697V157.573Z" fill="#B1B1B1"/>
<path d="M106.697 166.123H83.8788V167.554H106.697V166.123Z" fill="#B1B1B1"/>
</svg>
