<svg width="192" height="192" viewBox="0 0 192 192" fill="none" xmlns="http://www.w3.org/2000/svg">
<path d="M131.252 92.8398H101.517C100.776 92.8398 100.175 93.4408 100.175 94.182V94.9454C100.175 95.6866 100.776 96.2876 101.517 96.2876H131.252C131.993 96.2876 132.594 95.6866 132.594 94.9454V94.182C132.594 93.4408 131.993 92.8398 131.252 92.8398Z" fill="#8C8C8C"/>
<path d="M131.252 96.6548H101.516C101.063 96.654 100.629 96.4735 100.308 96.1528C99.9879 95.8321 99.8078 95.3973 99.8076 94.944V94.1824C99.8078 93.7291 99.9879 93.2944 100.308 92.9737C100.629 92.6529 101.063 92.4724 101.516 92.4717H131.252C131.706 92.4725 132.14 92.6531 132.46 92.9738C132.781 93.2945 132.961 93.7292 132.961 94.1824V94.944C132.961 95.3973 132.781 95.8319 132.46 96.1526C132.14 96.4734 131.706 96.654 131.252 96.6548ZM101.516 93.2069C101.258 93.2073 101.01 93.3103 100.827 93.4932C100.645 93.676 100.542 93.9239 100.542 94.1824V94.944C100.542 95.2025 100.645 95.4504 100.827 95.6333C101.01 95.8162 101.258 95.9191 101.516 95.9195H131.252C131.511 95.919 131.759 95.816 131.941 95.6332C132.124 95.4503 132.226 95.2024 132.226 94.944V94.1824C132.226 93.924 132.124 93.6762 131.941 93.4933C131.759 93.3104 131.511 93.2074 131.252 93.2069H101.516Z" fill="#424242"/>
<path d="M147.191 66.076C147.466 65.5177 147.237 64.8419 146.679 64.5667C146.12 64.2915 145.444 64.521 145.169 65.0793L131.161 93.4953C130.886 94.0536 131.115 94.7294 131.674 95.0046C132.232 95.2798 132.908 95.0503 133.183 94.492L147.191 66.076Z" fill="#B1B1B1"/>
<path d="M132.184 95.4951C131.955 95.4949 131.73 95.442 131.525 95.3405C131.17 95.1647 130.899 94.8552 130.771 94.4799C130.644 94.1046 130.67 93.694 130.845 93.3382L144.826 64.9109C144.913 64.7349 145.034 64.5777 145.181 64.4483C145.329 64.3188 145.5 64.2197 145.686 64.1566C145.872 64.0935 146.068 64.0675 146.264 64.0803C146.46 64.0931 146.651 64.1443 146.827 64.2311C147.004 64.3178 147.161 64.4384 147.29 64.5859C147.42 64.7334 147.519 64.905 147.582 65.0908C147.645 65.2766 147.671 65.473 147.658 65.6688C147.645 65.8646 147.594 66.056 147.507 66.2321L133.526 94.6593C133.402 94.9099 133.211 95.121 132.974 95.2686C132.737 95.4163 132.463 95.4948 132.184 95.4951ZM131.849 94.6809C131.939 94.725 132.036 94.751 132.136 94.7575C132.235 94.764 132.335 94.7508 132.43 94.7187C132.524 94.6865 132.611 94.6361 132.686 94.5702C132.761 94.5043 132.823 94.4243 132.867 94.3348L146.848 65.9075C146.893 65.818 146.92 65.7204 146.927 65.6205C146.934 65.5206 146.921 65.4203 146.889 65.3254C146.857 65.2304 146.807 65.1428 146.741 65.0674C146.675 64.992 146.595 64.9304 146.505 64.8861C146.415 64.8418 146.317 64.8157 146.217 64.8093C146.117 64.803 146.017 64.8164 145.922 64.8488C145.828 64.8813 145.74 64.9322 145.665 64.9986C145.59 65.0649 145.529 65.1455 145.485 65.2355L131.504 93.6627C131.415 93.8437 131.401 94.0524 131.466 94.2432C131.531 94.434 131.669 94.5914 131.849 94.6809V94.6809Z" fill="#666666"/>
<path d="M123.343 170.389C123.274 170.389 123.205 170.388 123.135 170.386C119.332 170.265 115.779 166.909 114 164.919C113.419 164.269 112.92 163.691 112.467 163.167C111.007 161.233 109.171 159.614 107.071 158.405L106.844 158.275L106.894 158.017C107.121 156.839 107.338 156.055 107.53 155.362C108.016 153.722 108.265 152.02 108.269 150.309C108.391 147.16 107.661 142.23 107.017 137.881C106.785 136.315 106.561 134.795 106.38 133.405C105.531 126.86 106.564 119.561 107.255 115.793L107.306 115.516L107.587 115.493C110.878 115.228 113.332 115.834 115.09 117.35C117.901 119.776 118.755 124.407 119.172 130.614C119.234 131.545 119.279 133.29 119.335 135.5C119.476 141.013 119.689 149.343 120.426 153.215C121.661 159.693 125.728 165.158 128.042 167.839L128.267 168.099L128.022 168.341C127.42 168.979 126.695 169.489 125.891 169.841C125.087 170.193 124.22 170.379 123.343 170.389ZM107.665 157.901C109.74 159.14 111.559 160.764 113.023 162.686C113.473 163.207 113.969 163.782 114.547 164.429C116.248 166.331 119.628 169.539 123.159 169.651C123.914 169.67 124.665 169.539 125.369 169.264C126.073 168.99 126.715 168.578 127.258 168.052C124.865 165.23 120.932 159.79 119.705 153.353C118.956 149.422 118.742 141.055 118.601 135.519C118.545 133.317 118.501 131.579 118.439 130.664C118.034 124.641 117.228 120.166 114.61 117.907C113.058 116.568 110.87 116.01 107.927 116.205C107.245 120.004 106.293 127.021 107.109 133.31C107.288 134.696 107.513 136.212 107.744 137.773C108.424 142.368 109.127 147.119 109.003 150.338C108.995 152.105 108.737 153.863 108.238 155.559C108.064 156.186 107.869 156.891 107.665 157.901Z" fill="#6E8CBB"/>
<path d="M91.0585 103.06C97.2324 103.408 106.732 102.953 112.15 103.405C117.567 103.858 120.359 103.185 123.827 106.717C127.295 110.248 126.35 111.749 128.114 118.1C129.878 124.45 133.388 136.919 137.573 144.257C141.758 151.596 145.901 160.653 152.087 166.823C151.132 168.775 151.475 169.637 148.366 170.048C145.258 170.459 139.474 165.34 137.537 163.095C135.6 160.85 134.146 158.532 131.971 157.582C131.642 155.158 132.691 156.611 130.25 153.247C127.81 149.882 119.378 138.759 116.984 134.43C114.589 130.101 114.911 128.44 113.915 124.57C112.919 120.7 114.221 118.435 108.239 118.126C102.257 117.816 91.7802 118.983 84.9779 119.438C86.9391 114.021 88.966 108.561 91.0585 103.06Z" fill="#97B3D5"/>
<path d="M148.006 170.439C144.536 170.439 138.891 165.227 137.259 163.336C136.813 162.819 136.392 162.298 135.983 161.79C134.607 160.087 133.418 158.615 131.824 157.919L131.635 157.836L131.607 157.631C131.533 157.153 131.514 156.668 131.55 156.185C131.582 155.708 131.582 155.708 129.982 153.502C129.471 152.798 128.755 151.83 127.898 150.673C124.419 145.971 118.595 138.103 116.663 134.608C115.403 132.433 114.563 130.041 114.184 127.557C114.017 126.678 113.844 125.768 113.559 124.662C113.373 123.901 113.231 123.13 113.133 122.353C112.788 119.935 112.615 118.72 108.22 118.493C103.878 118.27 97.1168 118.829 91.1537 119.324C88.9428 119.508 86.8391 119.682 85.0026 119.805L84.4413 119.843L84.633 119.313C86.4035 114.423 88.393 109.064 90.7152 102.93L90.8104 102.678L91.0791 102.693C93.9684 102.856 97.6399 102.842 101.19 102.829C105.175 102.814 109.292 102.798 112.181 103.039C113.223 103.126 114.168 103.171 115.039 103.213C118.743 103.39 121.19 103.508 124.089 106.459C126.572 108.988 126.871 110.54 127.411 113.36C127.643 114.567 127.932 116.07 128.468 118.001C130.015 123.571 133.638 136.614 137.892 144.075C138.783 145.636 139.671 147.275 140.578 148.947C143.987 155.237 147.513 161.742 152.346 166.563L152.533 166.749L152.417 166.985C152.239 167.348 152.107 167.673 151.99 167.964C151.418 169.374 151.026 170.068 148.414 170.412C148.279 170.43 148.142 170.439 148.006 170.439ZM132.31 157.333C133.973 158.131 135.228 159.686 136.554 161.328C136.959 161.829 137.374 162.344 137.815 162.855C139.689 165.026 145.387 170.073 148.318 169.684C150.623 169.38 150.824 168.884 151.309 167.687C151.407 167.448 151.513 167.186 151.644 166.9C146.83 162.023 143.324 155.555 139.932 149.298C139.028 147.63 138.142 145.996 137.255 144.439C132.954 136.898 129.315 123.794 127.76 118.199C127.216 116.238 126.925 114.719 126.69 113.499C126.16 110.733 125.893 109.345 123.565 106.974C120.868 104.229 118.661 104.123 115.004 103.948C114.125 103.906 113.171 103.86 112.119 103.772C109.262 103.534 105.159 103.548 101.193 103.564C97.7403 103.578 94.174 103.591 91.3067 103.442C89.1097 109.248 87.212 114.357 85.5156 119.033C87.2106 118.914 89.1088 118.756 91.093 118.592C97.08 118.094 103.864 117.53 108.258 117.759C113.256 118.018 113.496 119.701 113.86 122.25C113.954 123 114.091 123.744 114.271 124.478C114.561 125.607 114.744 126.57 114.906 127.419C115.267 129.828 116.081 132.146 117.305 134.252C119.214 137.704 125.019 145.548 128.488 150.235C129.347 151.395 130.064 152.365 130.547 153.031C132.3 155.446 132.333 155.492 132.282 156.236C132.254 156.601 132.263 156.969 132.31 157.333L132.31 157.333Z" fill="#4E6393"/>
<path d="M38.8745 18.0518C37.7453 17.886 37.4292 18.1166 36.3422 17.2234C35.7692 16.7256 35.062 16.4077 34.3092 16.3097C33.5564 16.2116 32.7914 16.3377 32.1099 16.6722C30.1845 17.3812 29.3126 19.2009 29.1554 21.4455C28.9983 23.6903 27.2211 24.1731 28.641 26.6959C30.0607 29.2188 33.3564 28.8337 35.9868 28.0865C39.3243 26.1254 38.9799 21.2772 38.8745 18.0518Z" fill="#CCA761"/>
<path d="M33.9558 17.0341C34.6673 17.0416 35.3512 17.3112 35.8764 17.7914C36.4831 18.372 37.2871 18.7012 38.1268 18.7129L38.1627 18.7156C38.2687 21.7315 38.3634 25.7583 35.6932 27.405C34.6647 27.714 33.5997 27.8846 32.5262 27.9122C31.8913 27.9841 31.2491 27.874 30.6745 27.5946C30.0998 27.3153 29.6165 26.8783 29.2808 26.3346C28.9975 25.9617 28.8391 25.5089 28.8282 25.0406C28.8174 24.5724 28.9546 24.1127 29.2203 23.7271C29.5903 23.0359 29.8174 22.2774 29.888 21.4967C30.0418 19.3013 30.8747 17.9101 32.3635 17.3618C32.8708 17.1596 33.4098 17.0486 33.9558 17.0341M33.9558 16.2988C33.3233 16.3132 32.6984 16.4394 32.11 16.6718C30.1845 17.3809 29.3126 19.2005 29.1554 21.4453C28.9983 23.69 27.2212 24.1728 28.641 26.6955C29.0414 27.3515 29.6177 27.8821 30.3045 28.2271C30.9912 28.5721 31.7609 28.7177 32.5262 28.6474C33.6997 28.617 34.8638 28.4282 35.9868 28.0862C39.3243 26.1251 38.9799 21.2769 38.8745 18.0515C37.7453 17.8856 37.4292 18.1162 36.3423 17.2231C35.6857 16.6349 34.8372 16.3063 33.9558 16.2988H33.9558Z" fill="#795E2E"/>
<path d="M54.7775 120.289C63.5074 122.115 69.6449 120.774 77.3529 121.149C85.0611 121.524 91.6509 118.1 92.6344 110.716C93.618 103.333 93.4852 100.001 86.085 96.5872C78.6848 93.1737 57.9717 98.199 53.8606 104.006C49.7495 109.814 51.2567 119.552 54.7775 120.289Z" fill="#97B3D5"/>
<path d="M79.3991 96.2132C81.5742 96.1211 83.7451 96.4758 85.7778 97.2553C92.6186 100.411 92.8862 103.266 91.9065 110.62C91.0872 116.77 86.0695 120.442 78.4843 120.442C78.1224 120.442 77.7563 120.433 77.3886 120.415C76.4067 120.368 75.3956 120.344 74.2974 120.344C72.691 120.344 71.1145 120.395 69.5899 120.444C68.0912 120.492 66.5416 120.541 64.9888 120.541C61.61 120.577 58.2372 120.251 54.9278 119.569C54.1695 119.411 53.4346 118.555 52.9114 117.221C52.1989 115.109 51.9682 112.864 52.2361 110.651C52.504 108.438 53.2638 106.313 54.4598 104.432C57.3417 100.361 69.9278 96.2131 79.399 96.2131M79.399 95.4779C70.195 95.4779 57.0458 99.5073 53.8606 104.007C49.7495 109.814 51.2567 119.552 54.7775 120.289C58.1367 120.979 61.5597 121.31 64.9888 121.276C68.1277 121.276 71.1182 121.08 74.2973 121.08C75.294 121.08 76.309 121.099 77.3529 121.15C77.7326 121.168 78.1106 121.177 78.4843 121.177C85.6977 121.177 91.6993 117.737 92.6345 110.717C93.618 103.333 93.4853 100.001 86.0851 96.5876C83.9564 95.7619 81.6803 95.3841 79.3991 95.4779H79.399Z" fill="#4E6393"/>
<path d="M108.996 176.46C108.755 176.46 108.514 176.454 108.277 176.447C108.046 176.44 107.816 176.434 107.588 176.434H107.202L107.234 175.792C107.36 173.329 107.569 169.207 106.467 167.339C106.132 166.771 105.81 166.284 105.516 165.84C104.44 164.211 103.662 163.034 104.112 160.561C104.144 160.37 104.209 160.186 104.303 160.017C104.45 159.752 104.592 159.462 104.735 159.17C105.31 157.998 105.904 156.785 106.988 156.568C107.413 156.53 107.842 156.592 108.239 156.75C108.637 156.907 108.992 157.155 109.276 157.474C110.525 158.622 111.713 159.835 112.834 161.108C114.306 162.808 115.912 164.388 117.636 165.833C120.736 168.252 122.662 169.531 126.183 167.696L126.415 167.575C127.555 166.972 128.004 166.814 129.881 167.479C131.966 168.164 134.121 168.614 136.305 168.821C138.285 169.11 139.956 170.658 140.031 172.271C140.062 172.943 139.822 174.581 136.937 175.28C133.254 176.003 129.5 176.31 125.748 176.195C124.641 176.201 123.615 176.205 122.716 176.239C121.804 176.316 120.888 176.173 120.044 175.821C119.2 175.469 118.453 174.919 117.866 174.217C117.491 173.812 117.064 173.459 116.595 173.167C115.724 172.531 114.943 171.78 114.273 170.934C113.257 169.798 111.846 168.235 111.225 168.326C111.183 168.331 111.072 168.346 110.955 168.576C110.826 169.713 110.784 170.858 110.827 172.001C110.872 173.355 110.819 174.71 110.666 176.055L110.616 176.285L110.386 176.335C109.928 176.427 109.462 176.469 108.996 176.46ZM107.974 175.703C108.082 175.706 108.19 175.709 108.298 175.712C108.862 175.746 109.428 175.729 109.989 175.661C110.09 174.897 110.091 173.367 110.092 172C110.095 169.667 110.115 168.606 110.301 168.242C110.373 168.072 110.487 167.924 110.632 167.811C110.777 167.699 110.949 167.625 111.131 167.597C112.16 167.468 113.45 168.911 114.82 170.444C115.442 171.222 116.157 171.921 116.95 172.524C117.478 172.846 117.959 173.24 118.38 173.693C118.9 174.32 119.562 174.811 120.312 175.127C121.062 175.442 121.877 175.572 122.688 175.505C123.594 175.47 124.629 175.465 125.745 175.46C129.44 175.574 133.136 175.274 136.765 174.565C138.446 174.158 139.346 173.355 139.297 172.305C139.239 171.047 137.821 169.785 136.199 169.549C133.968 169.333 131.767 168.871 129.637 168.172C127.974 167.583 127.74 167.706 126.758 168.225L126.523 168.349C122.412 170.492 119.989 168.601 117.185 166.413C115.428 164.944 113.792 163.336 112.293 161.605C111.189 160.352 110.021 159.158 108.793 158.027C108.587 157.79 108.331 157.601 108.044 157.474C107.757 157.346 107.446 157.283 107.132 157.289C106.404 157.435 105.89 158.482 105.394 159.495C105.245 159.798 105.099 160.097 104.946 160.373C104.89 160.472 104.853 160.58 104.835 160.693C104.438 162.875 105.075 163.838 106.129 165.434C106.428 165.888 106.757 166.385 107.099 166.966C108.295 168.992 108.112 172.993 107.974 175.703L107.974 175.703Z" fill="#6E8CBB"/>
<path d="M128.975 160.442C129 160.291 129.051 160.145 129.126 160.011C130.142 158.176 130.911 155.281 133.537 157.585C136.163 159.889 138.924 163.655 141.908 166.014C144.891 168.373 147.062 169.991 150.878 168.006C152.093 167.374 152.345 167.121 154.298 167.82C156.406 168.519 158.589 168.969 160.802 169.16C164.122 169.622 166.154 173.699 161.391 174.927C156.629 176.155 150.887 175.799 147.233 175.895C143.579 175.99 142.948 173.715 141.281 172.77C139.615 171.825 136.172 166.196 135.115 168.247C134.789 168.88 135.098 174.446 134.797 175.825C133.892 175.939 132.978 175.958 132.07 175.882C132.201 173.339 132.466 168.992 131.275 166.962C129.711 164.298 128.436 163.405 128.975 160.442Z" fill="#BD716D"/>
<path d="M133.632 176.294C133.347 176.294 133.063 176.282 132.783 176.271C132.543 176.261 132.303 176.251 132.067 176.249L131.684 176.246L131.716 175.626C131.843 173.156 132.058 169.022 130.958 167.148C130.623 166.577 130.302 166.089 130.009 165.644C128.938 164.018 128.165 162.843 128.614 160.376C128.645 160.185 128.71 160.001 128.805 159.832C128.953 159.566 129.095 159.276 129.239 158.983C129.812 157.817 130.405 156.612 131.484 156.396C131.911 156.36 132.341 156.423 132.739 156.581C133.137 156.74 133.493 156.988 133.779 157.308C135.047 158.477 136.251 159.712 137.385 161.01C138.843 162.704 140.431 164.28 142.136 165.725C145.261 168.196 147.199 169.504 150.708 167.68L150.932 167.562C152.08 166.958 152.533 166.798 154.421 167.474C156.506 168.164 158.665 168.608 160.853 168.795C162.843 169.073 164.475 170.563 164.568 172.189C164.607 172.87 164.384 174.535 161.483 175.283C157.729 176.251 153.4 176.248 149.93 176.243C148.954 176.241 148.048 176.241 147.242 176.262C146.323 176.32 145.402 176.16 144.556 175.794C143.71 175.429 142.962 174.869 142.373 174.16C141.998 173.749 141.57 173.388 141.1 173.09C140.233 172.444 139.455 171.686 138.787 170.835C137.76 169.676 136.361 168.088 135.709 168.17C135.667 168.176 135.558 168.189 135.442 168.415C135.313 169.558 135.27 170.708 135.314 171.856C135.359 173.208 135.307 174.56 135.155 175.904L135.105 176.137L134.871 176.185C134.463 176.263 134.047 176.3 133.632 176.294ZM132.456 175.523C132.575 175.526 132.694 175.531 132.812 175.536C133.367 175.575 133.925 175.566 134.478 175.507C134.577 174.743 134.578 173.218 134.579 171.856C134.581 169.509 134.601 168.442 134.789 168.078C134.861 167.91 134.975 167.763 135.12 167.652C135.265 167.54 135.436 167.468 135.617 167.441C136.641 167.314 137.953 168.786 139.336 170.347C139.957 171.132 140.671 171.838 141.462 172.45C141.991 172.779 142.472 173.18 142.892 173.64C143.409 174.279 144.073 174.784 144.827 175.113C145.581 175.441 146.403 175.583 147.223 175.527C148.034 175.506 148.948 175.505 149.931 175.508C153.366 175.507 157.636 175.515 161.3 174.571C162.971 174.14 163.895 173.287 163.834 172.231C163.763 170.965 162.379 169.75 160.751 169.524C158.514 169.328 156.307 168.872 154.174 168.166C152.499 167.568 152.265 167.691 151.274 168.213L151.047 168.332C146.946 170.465 144.506 168.536 141.68 166.302C139.944 164.833 138.326 163.229 136.843 161.505C135.726 160.228 134.542 159.012 133.295 157.862C133.089 157.622 132.833 157.432 132.544 157.303C132.256 157.174 131.943 157.111 131.627 157.118C130.904 157.262 130.393 158.302 129.898 159.307C129.749 159.611 129.601 159.912 129.447 160.189C129.391 160.288 129.354 160.396 129.337 160.508V160.508C128.94 162.684 129.573 163.646 130.622 165.239C130.921 165.694 131.25 166.193 131.592 166.775C132.782 168.804 132.597 172.806 132.456 175.523Z" fill="#662D23"/>
<path d="M61.8732 28.6521C61.7718 30.5054 61.2304 32.7803 62.0278 34.1394C62.7923 35.2742 63.4086 36.502 63.862 37.7929C64.1448 38.8971 63.7919 39.3114 63.1359 39.5092C62.4798 39.7071 62.0616 39.6976 62.0698 40.2454C62.078 40.7931 62.1722 40.9103 61.984 41.2843C61.7959 41.6584 61.6157 41.6721 61.5918 42.0969C61.5959 43.0923 61.4083 44.0792 61.0393 45.0037C60.6143 45.9026 60.8208 46.4317 59.7853 47.1615C59.1388 47.531 58.4134 47.7404 57.6695 47.7723C56.9256 47.8042 56.1848 47.6576 55.5091 47.3448C53.9453 46.7192 52.0905 45.8589 50.9473 47.836C46.4589 46.7999 42.0201 45.8172 37.5433 44.8318C38.2024 43.1408 39.1593 41.3423 38.569 39.4687C40.7768 39.9707 43.4984 38.6346 43.8218 36.7639C44.2331 34.3841 42.2478 32.3749 43.6074 30.7416C44.9671 29.1083 45.8057 31.3725 46.8102 31.9935C47.7775 32.5419 48.6557 33.2345 49.4145 34.0472C50.1434 34.8797 50.6221 35.6094 51.8522 35.2445C53.0823 34.8796 52.8449 33.7116 52.5976 32.2186C52.3503 30.7255 54.8129 30.269 55.4436 28.745C56.0742 27.2211 56.0662 26.0376 57.5141 24.7751C58.4975 23.9176 58.9348 21.5241 59.1792 20.1357C59.782 21.114 59.3989 20.8707 59.9266 22.2795C60.4544 23.6883 61.9745 26.7988 61.8732 28.6521Z" fill="white"/>
<path d="M51.1288 48.2548L50.8644 48.1936C46.2524 47.1295 41.716 46.1262 37.4644 45.1904L37.0452 45.098L37.2015 44.6978C37.2933 44.4614 37.3913 44.223 37.4898 43.9827C38.0784 42.5486 38.6875 41.0657 38.219 39.579L38.0263 38.9682L38.6502 39.1099C39.2581 39.2319 39.884 39.2329 40.4922 39.1129C41.1005 38.9929 41.6791 38.7543 42.195 38.4105C42.5101 38.2254 42.7845 37.9786 43.0018 37.6849C43.2191 37.3912 43.3749 37.0566 43.4597 36.7012C43.556 35.7744 43.4384 34.8379 43.1159 33.9637C42.7808 32.79 42.4341 31.5766 43.3254 30.5058C43.4632 30.3033 43.6446 30.1342 43.8562 30.0108C44.0678 29.8874 44.3043 29.8128 44.5484 29.7926H44.5623C45.245 29.7926 45.7504 30.3722 46.239 30.9328C46.4597 31.2148 46.7168 31.4664 47.0036 31.6809C48.0022 32.2479 48.9083 32.9641 49.6906 33.8048L49.8794 34.0226C50.5546 34.8085 50.8854 35.146 51.748 34.8918C52.5512 34.6534 52.5264 34.0254 52.2591 32.4228L52.2352 32.2788C52.0607 31.2243 52.8954 30.6168 53.7025 30.03C54.2872 29.6865 54.7706 29.1945 55.1039 28.604C55.2703 28.2024 55.3908 27.8252 55.5065 27.4638C55.7744 26.3161 56.3917 25.2797 57.2732 24.4975C58.1774 23.7091 58.6096 21.2521 58.8176 20.0717L58.9849 19.1201L59.4917 19.9425C59.7312 20.2748 59.8906 20.658 59.9574 21.0621C60.0242 21.4345 60.1292 21.7991 60.2706 22.1501C60.3777 22.4364 60.5264 22.7934 60.6942 23.196C61.3822 24.8503 62.3251 27.1153 62.24 28.672C62.2151 29.1258 62.1644 29.604 62.1133 30.0884C61.9598 31.533 61.8011 33.0264 62.3442 33.9527L62.6249 34.428C63.3007 35.4424 63.8366 36.5434 64.218 37.7011C64.5164 38.8667 64.197 39.5732 63.2417 39.8609C63.1202 39.8978 63.0069 39.9274 62.9022 39.9547C62.4346 40.0773 62.4346 40.0897 62.437 40.24C62.4389 40.3855 62.448 40.4985 62.4552 40.5942C62.501 40.8871 62.4509 41.1871 62.3122 41.4491C62.2475 41.5761 62.1703 41.6964 62.0817 41.8081C62.0414 41.8487 62.0097 41.897 61.9885 41.9501C61.9673 42.0033 61.957 42.0602 61.9584 42.1173C61.9597 43.1601 61.7603 44.1933 61.3712 45.1607C61.2705 45.3819 61.1882 45.611 61.125 45.8457C61.0544 46.1768 60.9182 46.4904 60.7244 46.7679C60.5306 47.0455 60.2831 47.2814 59.9966 47.4617C59.3002 47.8663 58.5167 48.0979 57.7122 48.1369C56.9076 48.1758 56.1055 48.0211 55.3732 47.6857L55.1647 47.6019C53.3736 46.8801 52.1334 46.5178 51.2651 48.0198L51.1288 48.2548ZM38.0449 44.5652C42.0965 45.458 46.3996 46.4105 50.7745 47.4186C52.0367 45.547 53.9942 46.3378 55.4391 46.9198L55.6456 47.0031C56.2646 47.2932 56.9438 47.4316 57.627 47.4068C58.3102 47.3819 58.9776 47.1947 59.5739 46.8604C59.7924 46.7269 59.9807 46.5492 60.1265 46.3386C60.2723 46.1281 60.3725 45.8894 60.4207 45.6379C60.4942 45.3664 60.5902 45.1014 60.7075 44.8457C61.0521 43.9631 61.2276 43.0236 61.2249 42.0761C61.2302 41.8137 61.3268 41.5614 61.4979 41.3624C61.5587 41.2866 61.6117 41.2048 61.6561 41.1183C61.7344 40.9753 61.7581 40.8088 61.7226 40.6497C61.7145 40.5425 61.7049 40.4146 61.7025 40.2505C61.6915 39.5119 62.2361 39.3692 62.7161 39.2433C62.8127 39.2185 62.9179 39.1907 63.0303 39.1571C63.4376 39.0341 63.7546 38.8537 63.5065 37.8839C63.1395 36.7948 62.6305 35.7588 61.9927 34.8027L61.7111 34.3251C61.0451 33.1897 61.2167 31.5737 61.3826 30.0108C61.4329 29.5394 61.4826 29.0736 61.5065 28.6318C61.5825 27.2432 60.6396 24.9781 60.0162 23.4789C59.8445 23.0668 59.6925 22.7011 59.583 22.4086C59.4672 22.1096 59.371 21.8034 59.2952 21.4919C59.126 22.7996 58.5923 24.0332 57.7551 25.0518C56.9744 25.746 56.4323 26.6685 56.2055 27.6883C56.084 28.0674 55.9574 28.4637 55.7829 28.8854C55.4031 29.6053 54.8328 30.2069 54.1343 30.6245C53.3439 31.1993 52.8644 31.5813 52.96 32.1581L52.9839 32.3017C53.2277 33.7669 53.4582 35.1512 51.9564 35.5964C50.6086 35.999 49.9531 35.2374 49.3224 34.5022L49.1383 34.2891C48.403 33.5045 47.5529 32.8358 46.6171 32.306C46.2657 32.0555 45.9521 31.7558 45.6858 31.4162C45.3052 30.9796 44.9112 30.5278 44.5612 30.5278H44.5564C44.4203 30.5527 44.2909 30.6055 44.1761 30.6827C44.0613 30.76 43.9637 30.8601 43.8894 30.9767C43.2468 31.7484 43.5007 32.6368 43.822 33.7616C44.1771 34.7418 44.3008 35.7907 44.1835 36.8266C44.0824 37.2806 43.8901 37.7093 43.6183 38.0867C43.3465 38.4641 43.0008 38.7824 42.6023 39.0222C41.5535 39.7095 40.3045 40.025 39.0551 39.9183C39.1749 41.4208 38.8678 42.9266 38.1691 44.2622C38.1276 44.3637 38.0862 44.4647 38.0449 44.5652Z" fill="#D1D1D1"/>
<path d="M59.1795 20.1508C58.9363 21.5104 58.4968 23.9204 57.5139 24.7756C56.0666 26.0348 56.0741 27.222 55.4434 28.7449C54.8127 30.2678 52.3501 30.7257 52.5975 32.2184C52.8449 33.7113 53.0822 34.8793 51.8521 35.2443C50.6221 35.6093 50.1433 34.879 49.4144 34.0469C48.6555 33.2343 47.7773 32.5419 46.8101 31.9934C45.8059 31.3724 44.9665 29.1077 43.6074 30.7415C42.2483 32.3753 44.2319 34.3825 43.8222 36.7641C43.5001 38.6361 40.7692 39.9632 38.5766 39.4759C38.3118 39.1044 37.9857 38.7806 37.6124 38.5184C36.3353 37.6042 35.3245 36.3667 34.6835 34.9329C34.0424 33.4991 33.7944 31.9206 33.9647 30.3593C34.0692 29.6703 34.2993 29.0065 34.6435 28.4006C35.767 26.5504 36.5163 24.4977 36.8488 22.3589C36.9001 20.8556 37.1935 19.3704 37.7179 17.9606C38.2297 16.7475 39.0949 15.7166 40.2009 15.0023C41.9449 13.8199 44.0739 13.3466 46.1545 13.6788C48.4284 13.9583 50.4868 14.1896 52.5664 15.5288C54.646 16.868 57.1743 18.1259 59.0079 19.9017C59.0846 19.976 59.1923 20.0795 59.1795 20.1508Z" fill="#CCA761"/>
<path d="M49.6751 36.8626C49.0562 37.3537 48.2904 37.6227 47.5004 37.6267C46.1224 37.4911 44.8128 36.9604 43.729 36.0986L43.9347 35.7949L44.1404 35.4912C44.3657 35.6479 44.591 35.7949 44.8164 35.9222C46.3739 36.8822 47.667 37.2545 48.911 36.4904C49.02 36.4253 49.1247 36.3533 49.2245 36.2749L49.4498 36.5688L49.6751 36.8626Z" fill="#D1D1D1"/>
<path d="M35.5002 48.7446C34.552 53.0663 32.6984 56.8472 34.0051 61.3464C35.2206 65.5731 36.763 69.6989 38.6181 73.6865C40.7862 78.5431 43.1926 85.5703 43.7605 91.6789C44.3282 97.7875 45.7268 107.469 47.6728 112.58C49.6187 117.692 49.2273 120.8 55.1668 121.23C61.1064 121.661 69.6063 118.408 75.5544 114.987C81.5025 111.565 88.0265 105.362 84.4471 98.0515C80.8677 90.7411 71.5067 91.1287 70.7124 82.1518C69.9182 73.1748 69.437 64.2487 63.9128 57.9782C58.3886 51.7077 53.1901 50.2758 47.3782 48.967C41.5664 47.6581 40.4334 48.2217 35.5002 48.7446Z" fill="#6E8CBB"/>
<path d="M41.5474 48.8983C43.4607 48.9482 45.3624 49.2118 47.217 49.6842C53.36 51.0677 58.1138 52.5074 63.3619 58.4646C68.4208 64.2069 69.1155 72.2317 69.851 80.7277L69.9808 82.2166C70.4618 87.653 73.9332 89.9156 77.2903 92.1036C79.7645 93.7161 82.3229 95.3837 83.7876 98.375C87.5902 106.141 79.0407 112.133 75.1885 114.349C70.2285 117.202 62.2965 120.533 56.2654 120.533C55.9062 120.533 55.5543 120.521 55.2198 120.497C50.9153 120.185 50.3739 118.476 49.2952 115.072C49.0347 114.249 48.7395 113.318 48.359 112.318C46.5836 107.655 45.1373 98.5579 44.4917 91.6108C43.7761 83.9125 40.3282 75.7155 39.2886 73.3865C37.4481 69.4292 35.9174 65.3352 34.7102 61.1411C33.7743 57.9184 34.5775 55.0268 35.428 51.9656C35.6574 51.1397 35.8934 50.2902 36.0996 49.4188C36.7411 49.3468 37.3171 49.2755 37.8492 49.2097C39.0742 49.0286 40.3094 48.9246 41.5475 48.8983M41.5475 48.1631C39.7457 48.1631 38.1866 48.4599 35.5002 48.7445C34.552 53.0662 32.6984 56.8471 34.0051 61.3464C35.2206 65.5731 36.763 69.6989 38.6181 73.6865C40.7862 78.5431 43.1927 85.5703 43.7605 91.6789C44.3282 97.7874 45.7268 107.469 47.6728 112.58C49.6187 117.691 49.2273 120.8 55.1668 121.23C55.5239 121.256 55.891 121.269 56.2655 121.269C62.1199 121.269 69.9639 118.202 75.5544 114.987C81.5025 111.565 88.0266 105.362 84.4471 98.0514C80.8677 90.7411 71.5067 91.1288 70.7124 82.1518C69.9182 73.1748 69.4369 64.2488 63.9128 57.9783C58.3886 51.7077 53.1901 50.2758 47.3783 48.9669C45.4713 48.4793 43.5152 48.2096 41.5474 48.1631L41.5475 48.1631Z" fill="#2D4068"/>
<path d="M34.5133 47.1569C34.804 45.519 34.3683 45.1088 35.4694 44.0748C36.5707 43.0409 37.0207 43.0918 39.3084 43.9147C41.5961 44.7376 49.0788 46.909 51.3959 47.6826C53.7129 48.4562 55.7182 48.9423 55.9214 50.7436C56.1246 52.5449 53.5383 51.7184 51.6033 51.4867C49.6685 51.2549 45.6202 51.8857 42.7206 51.7344C39.8211 51.5832 33.7633 51.3829 34.5133 47.1569Z" fill="#6E8CBB"/>
<path d="M36.9919 44.0331C37.7052 44.1248 38.4016 44.3179 39.0603 44.6067C40.3903 45.085 43.3471 45.981 46.2065 46.8477C48.2528 47.4677 50.1856 48.0535 51.1636 48.38L51.7771 48.582C53.8735 49.267 55.0657 49.7089 55.1918 50.826C55.2051 50.8995 55.2032 50.9749 55.186 51.0476C55.1803 51.0524 55.0648 51.1425 54.6161 51.1425C54.0175 51.1153 53.4217 51.044 52.8335 50.9292C52.4446 50.8645 52.0563 50.8004 51.6907 50.7566C51.3083 50.7151 50.9238 50.6961 50.5391 50.6996C49.639 50.6996 48.5626 50.7729 47.423 50.8503C46.174 50.9352 44.8825 51.0229 43.708 51.0229C43.381 51.0229 43.0636 51.016 42.7589 51.0001L42.5339 50.9886C40.5492 50.8869 36.8548 50.6978 35.6128 49.1346C35.4168 48.8737 35.2814 48.5723 35.2162 48.2525C35.1511 47.9327 35.158 47.6024 35.2364 47.2855C35.3104 46.8567 35.3563 46.4236 35.3741 45.9888C35.3442 45.7269 35.3837 45.4618 35.4886 45.22C35.5935 44.9782 35.7601 44.7682 35.9717 44.6111C36.4953 44.1196 36.7178 44.0331 36.9919 44.0331M36.9918 43.2979C36.6982 43.3153 36.4113 43.3934 36.1493 43.5271C35.8873 43.6608 35.6558 43.8472 35.4694 44.0748C34.3683 45.1088 34.804 45.519 34.5133 47.1569C33.7633 51.3829 39.8211 51.5832 42.7206 51.7344C43.0376 51.751 43.3678 51.7581 43.708 51.7581C45.9872 51.7581 48.6918 51.4349 50.5391 51.4349C50.8945 51.4315 51.2499 51.4488 51.6034 51.4867C52.6004 51.6676 53.6059 51.7982 54.6161 51.8778C55.4508 51.8778 56.021 51.626 55.9215 50.7436C55.7183 48.9422 53.7129 48.4561 51.3959 47.6826C49.0788 46.9089 41.5961 44.7374 39.3085 43.9147C38.5726 43.591 37.7911 43.3829 36.9917 43.2979L36.9918 43.2979Z" fill="#2D4068"/>
<path d="M94.4098 89.6836C96.8885 89.6802 99.3556 90.0205 101.741 90.6947C103.883 91.4082 106.067 91.9887 108.281 92.4327C110.526 92.8915 113.145 94.2488 111.503 96.704C105.054 96.6281 98.6178 96.5064 92.1737 96.3721C92.8939 94.1335 93.6393 91.904 94.4098 89.6836Z" fill="white"/>
<path d="M111.698 97.0735L111.499 97.0711C104.585 96.9902 97.8459 96.8581 92.1658 96.7394L91.6729 96.7289L91.8239 96.2588C92.5909 93.876 93.3233 91.6851 94.063 89.5622L94.1519 89.3066L94.4226 89.3157C96.9362 89.3133 99.4381 89.6598 101.856 90.3453C103.985 91.0547 106.155 91.6313 108.355 92.0719C109.306 92.2667 111.588 92.8871 112.225 94.4404C112.373 94.853 112.412 95.2965 112.339 95.7286C112.266 96.1607 112.083 96.5667 111.808 96.9079L111.698 97.0735ZM92.6745 96.0147C98.1911 96.1291 104.662 96.2545 111.303 96.3335C111.469 96.1037 111.579 95.8371 111.621 95.5563C111.663 95.2755 111.637 94.9887 111.546 94.7199C111.134 93.7181 109.552 93.0675 108.207 92.7923C105.979 92.3461 103.781 91.762 101.625 91.0433C99.3616 90.3991 97.0206 90.0685 94.6674 90.0605C94.0085 91.9575 93.3544 93.9124 92.6745 96.0147Z" fill="#D1D1D1"/>
<path d="M48.854 50.7303C51.3289 50.8336 53.7534 51.4623 55.9667 52.5746C57.653 53.6194 58.9149 55.2275 59.5286 57.114C60.3252 60.1982 61.6728 63.113 63.5063 65.7178C65.3752 68.3165 66.9253 71.1302 68.1233 74.0985C68.944 76.1837 68.7689 76.2996 70.0091 77.0885C71.2492 77.8775 71.2616 78.313 72.135 79.361C73.0083 80.4089 74.3256 79.9835 75.3032 81.4377C76.2806 82.8919 78.5542 83.0304 80.1802 84.2692C81.8061 85.5081 83.1562 85.4689 85.4782 86.1046C87.8002 86.7402 93.5238 88.3862 94.8324 90.5576C96.1409 92.729 95.4364 94.4958 94.3579 96.4783C93.2794 98.4607 91.8657 101.044 88.7839 100.027C85.702 99.011 83.9951 97.7618 79.8639 97.2258C75.372 96.8358 70.9384 95.9407 66.6471 94.5574C61.2169 92.7329 53.5641 86.0338 50.9982 80.1312C48.4324 74.2286 43.6969 69.0131 40.9794 64.5329C38.2619 60.0525 37.2116 58.0866 38.0464 53.6168C38.409 51.6754 40.8428 51.3884 42.4737 50.978C44.2663 50.6746 46.0871 50.5719 47.9024 50.6717C48.2032 50.6697 48.5434 50.7128 48.854 50.7303Z" fill="#97B3D5"/>
<path d="M46.0694 51.4C46.3378 51.4 46.6046 51.402 46.8673 51.4039C47.1258 51.4058 47.3806 51.4076 47.6293 51.4076L47.922 51.4067C48.0908 51.4067 48.2726 51.4226 48.4528 51.4376C48.5746 51.4477 48.6957 51.4576 48.8128 51.4642C51.1841 51.5616 53.5074 52.1626 55.6285 53.2271C57.143 54.1787 58.2752 55.6319 58.8276 57.333C59.9721 61.0001 61.0569 63.7573 62.9262 66.1684C64.7521 68.712 66.2675 71.4646 67.4401 74.3679C67.5912 74.7519 67.708 75.068 67.8061 75.3333C67.9154 75.8376 68.134 76.3117 68.4466 76.7222C68.7593 77.1327 69.1582 77.4696 69.6152 77.709C70.1465 78.0186 70.5945 78.4528 70.9203 78.9742C71.0925 79.2168 71.2876 79.4917 71.5712 79.8319C72.0231 80.3348 72.6097 80.6975 73.2615 80.8771C73.8415 81.015 74.351 81.3604 74.6939 81.8481C75.4543 82.7739 76.4771 83.4478 77.6278 83.7811C78.3741 84.0454 79.0827 84.4061 79.7354 84.8541C80.8796 85.6764 82.2053 86.2104 83.6 86.4108C84.1232 86.5254 84.6641 86.6439 85.2845 86.8138C91.6527 88.5568 93.6497 90.0181 94.2036 90.9373C95.2398 92.6567 94.8514 94.0338 93.713 96.1265C92.8475 97.7174 91.8665 99.5207 90.1037 99.5207C89.7325 99.5149 89.3645 99.4501 89.0136 99.3288C88.0579 99.0137 87.2231 98.6694 86.4158 98.3365C84.3664 97.4065 82.1901 96.7864 79.9583 96.4965C79.481 96.4345 79.01 96.3756 78.5419 96.3171C74.5756 95.9342 70.6644 95.1101 66.8808 93.8602C61.8429 92.1675 54.2682 85.811 51.6716 79.8377C49.8573 76.0623 47.6447 72.4916 45.0714 69.1866C43.7815 67.4077 42.5632 65.7272 41.6071 64.1511C38.891 59.6729 37.9912 57.9125 38.7683 53.7518C38.9802 52.6172 40.2364 52.247 41.9878 51.8476C42.2186 51.795 42.4421 51.7439 42.6527 51.691C43.7763 51.4606 44.923 51.363 46.0694 51.4M46.0694 50.6648C44.8626 50.6268 43.6557 50.7319 42.4736 50.9779C40.8428 51.3883 38.409 51.6753 38.0464 53.6166C37.2116 58.0865 38.2619 60.0524 40.9794 64.5327C43.6969 69.013 48.4324 74.2285 50.9982 80.1311C53.5642 86.0337 61.217 92.7327 66.6472 94.5572C70.9385 95.9406 75.372 96.8357 79.8639 97.2257C83.9952 97.7616 85.7021 99.0109 88.7839 100.027C89.2088 100.173 89.6544 100.251 90.1037 100.256C92.2966 100.256 93.4469 98.1528 94.3579 96.4781C95.4364 94.4956 96.141 92.7288 94.8324 90.5574C93.5238 88.3861 87.8003 86.74 85.4782 86.1045C83.1563 85.4688 81.8061 85.5079 80.1802 84.269C78.5542 83.0302 76.2806 82.8918 75.3032 81.4376C74.3257 79.9834 73.0084 80.4088 72.135 79.3608C71.2617 78.3128 71.2493 77.8773 70.0091 77.0884C68.7689 76.2995 68.9441 76.1835 68.1233 74.0983C66.9253 71.13 65.3753 68.3164 63.5064 65.7177C61.6728 63.1128 60.3253 60.198 59.5286 57.1138C58.9149 55.2274 57.653 53.6192 55.9667 52.5745C53.7535 51.4622 51.3289 50.8335 48.8541 50.7301C48.5502 50.713 48.218 50.6714 47.922 50.6714L47.9025 50.6715C47.8122 50.6721 47.7212 50.6724 47.6293 50.6723C47.1278 50.6723 46.6018 50.6648 46.0694 50.6648L46.0694 50.6648Z" fill="#4E6393"/>
<path d="M55.8821 123.038L31.8835 46.123L28.0415 47.3218L52.0401 124.237L55.8821 123.038Z" fill="#B1B1B1"/>
<path d="M51.7193 124.852L27.4286 47.0013L32.2046 45.5078L56.4953 123.359L51.7193 124.852ZM28.6555 47.6446L52.3619 123.624L55.2684 122.715L31.562 46.7361L28.6555 47.6446Z" fill="#666666"/>
<path d="M148.296 96.0684H95.9801V100.391H148.296V96.0684Z" fill="#E6E6E6"/>
<path d="M148.785 100.881H95.4906V95.5781H148.785L148.785 100.881ZM96.4698 99.901H147.806V96.5584H96.4698V99.901Z" fill="#B1B1B1"/>
<path d="M148.296 100.392H95.9801V178.286H148.296V100.392Z" fill="#D1D1D1"/>
<path d="M148.785 178.776H95.4906V99.9014H148.785L148.785 178.776ZM96.4698 177.795H147.806V100.882H96.4698V177.795Z" fill="#8C8C8C"/>
<path d="M77.7803 124.271H59.0004V175.974H77.7803V124.271Z" fill="#666666"/>
<path d="M78.2701 176.465H58.5106V123.78H78.2701V176.465ZM59.4898 175.484H77.2909V124.761H59.4898V175.484Z" fill="#292929"/>
<path d="M93.2075 120.242H43.573V124.271H93.2075V120.242Z" fill="#D1D1D1"/>
<path d="M93.6972 124.761H43.0834V119.752H93.6972V124.761ZM44.0626 123.78H92.718V120.732H44.0626V123.78Z" fill="#8C8C8C"/>
<path d="M39.5338 39.945C39.1853 39.9462 38.8377 39.9093 38.4972 39.8349L38.3762 39.8081L38.1056 39.4822C37.9073 39.2219 37.6672 38.9962 37.3951 38.8144C36.069 37.8586 35.0193 36.5688 34.3527 35.0762C33.6862 33.5836 33.4264 31.9411 33.5997 30.3156C33.7079 29.5827 33.951 28.8762 34.3169 28.232L34.4302 28.0118C35.4823 26.2672 36.1803 24.3324 36.4843 22.318L36.5498 21.69C36.6084 20.3566 36.8911 19.0427 37.386 17.8032C37.9248 16.5278 38.8356 15.4445 39.9994 14.6947C41.8157 13.4637 44.0323 12.97 46.1993 13.3137L46.3284 13.3295C48.5943 13.4348 50.8017 14.0829 52.7649 15.2193C53.3286 15.5826 53.9258 15.9392 54.5325 16.3025C56.2306 17.2314 57.8177 18.3502 59.2631 19.6374C59.3539 19.7029 59.4269 19.7901 59.4754 19.891C59.5239 19.9919 59.5464 20.1034 59.5409 20.2152C59.2985 21.5736 58.8466 24.1025 57.7551 25.0531C56.9741 25.746 56.4319 26.6679 56.206 27.6872C56.0845 28.0668 55.9573 28.4636 55.7823 28.8853C55.4029 29.6049 54.8329 30.2061 54.1347 30.6234C53.3439 31.1987 52.8638 31.5807 52.9599 32.158L52.9838 32.3016C53.2277 33.7668 53.4581 35.1511 51.9563 35.5963C50.6056 35.9993 49.954 35.2378 49.3233 34.503L49.1383 34.2895C48.4046 33.5029 47.5542 32.8339 46.6171 32.3059C46.2657 32.0552 45.9519 31.7556 45.6852 31.4161C45.3027 30.9771 44.9002 30.5583 44.5564 30.5277C44.4203 30.5526 44.2908 30.6053 44.176 30.6825C44.0613 30.7598 43.9637 30.8599 43.8894 30.9766C43.2473 31.7487 43.5007 32.6371 43.822 33.762C44.1768 34.7419 44.3007 35.7904 44.1839 36.826C44.0839 37.2772 43.8935 37.7035 43.6241 38.0791C43.3547 38.4547 43.012 38.7717 42.6166 39.0111C41.7018 39.6159 40.6304 39.9405 39.5338 39.945ZM38.7769 39.1418C39.9729 39.3317 41.1966 39.0672 42.2074 38.4004C42.5196 38.2158 42.7913 37.9702 43.0066 37.6784C43.2218 37.3865 43.376 37.0543 43.4601 36.7016C43.5558 35.7747 43.438 34.8383 43.1159 33.964C42.7807 32.7908 42.4345 31.5774 43.3253 30.5061C43.463 30.3036 43.6442 30.1343 43.8557 30.0108C44.0672 29.8874 44.3037 29.8127 44.5478 29.7924C45.2349 29.7441 45.746 30.3683 46.2389 30.9326C46.4595 31.2145 46.7164 31.4659 47.003 31.6803C48.0018 32.2475 48.9081 32.9638 49.6906 33.8046L49.8799 34.0239C50.555 34.8089 50.8887 35.144 51.748 34.8917C52.5512 34.6533 52.5264 34.0253 52.2591 32.4227L52.2352 32.2786C52.0602 31.2241 52.8954 30.6162 53.703 30.0289C54.2874 29.6855 54.7708 29.1939 55.1044 28.6039C55.2703 28.2023 55.3908 27.8246 55.5065 27.4627C55.7744 26.3154 56.3917 25.2795 57.2732 24.4979C58.1391 23.744 58.5775 21.4272 58.796 20.2085L58.7539 20.1674C57.3475 18.9201 55.8051 17.8353 54.1558 16.9334C53.5419 16.5663 52.938 16.2049 52.3676 15.8378C50.4977 14.7601 48.3952 14.1499 46.239 14.059L46.1094 14.0432C44.1155 13.7263 42.0757 14.1789 40.403 15.3093C39.354 15.9877 38.5339 16.9666 38.0496 18.1181C37.5943 19.2831 37.3344 20.5151 37.2803 21.7647L37.2139 22.3989C36.8986 24.5022 36.1749 26.5235 35.0833 28.3488L34.97 28.5685C34.6458 29.1355 34.4287 29.7572 34.3294 30.4028C34.1712 31.8991 34.4117 33.4106 35.0266 34.7839C35.6414 36.1572 36.6087 37.3433 37.8302 38.2219C38.1524 38.4404 38.4375 38.7092 38.6746 39.0179L38.7769 39.1418ZM58.818 20.085L58.8175 20.0874L58.818 20.086V20.085Z" fill="#795E2E"/>
</svg>
