<svg width="192" height="192" viewBox="0 0 192 192" fill="none" xmlns="http://www.w3.org/2000/svg">
<path d="M119.598 18.5908H21.2528V116.429H119.598V18.5908Z" fill="#E6E6E6"/>
<path d="M27.6477 56.5049H13.7142V70.3679H27.6477V56.5049Z" fill="#B8DFBC"/>
<path d="M166.854 53.1434C164.733 53.1501 162.631 52.7373 160.67 51.9288C158.708 51.1202 156.926 49.9318 155.426 48.432C154.214 47.2265 153.252 45.7934 152.596 44.2151C151.94 42.6367 151.602 40.9441 151.602 39.2348C151.602 37.5254 151.94 35.8329 152.596 34.2545C153.252 32.6761 154.214 31.243 155.426 30.0375C157.42 28.0569 160.117 26.9453 162.928 26.9453C165.739 26.9453 168.436 28.0569 170.43 30.0375C171.23 30.8333 171.864 31.7792 172.297 32.821C172.73 33.8627 172.953 34.9797 172.953 36.1078C172.953 37.2359 172.73 38.3529 172.297 39.3947C171.864 40.4364 171.23 41.3823 170.43 42.1781C169.776 42.8325 168.999 43.3511 168.143 43.7039C167.288 44.0567 166.371 44.2368 165.446 44.2339H165.443C164.517 44.2371 163.599 44.0572 162.743 43.7044C161.886 43.3515 161.108 42.8328 160.453 42.1781C159.917 41.6446 159.492 41.0105 159.202 40.3122C158.911 39.6139 158.762 38.8652 158.762 38.109C158.762 37.3529 158.911 36.6041 159.202 35.9058C159.492 35.2075 159.917 34.5734 160.453 34.04L161.489 35.0636C161.089 35.4634 160.771 35.9382 160.555 36.4609C160.338 36.9836 160.227 37.5439 160.227 38.1097C160.227 38.6754 160.339 39.2356 160.556 39.7581C160.773 40.2806 161.091 40.7551 161.492 41.1545C162.011 41.6726 162.627 42.0832 163.305 42.3625C163.983 42.6418 164.71 42.7844 165.443 42.7821C166.176 42.7842 166.903 42.6414 167.581 42.3621C168.259 42.0828 168.875 41.6724 169.394 41.1545C170.058 40.4926 170.585 39.7061 170.945 38.8401C171.304 37.974 171.489 37.0456 171.489 36.1078C171.489 35.1701 171.304 34.2416 170.945 33.3756C170.585 32.5096 170.058 31.7231 169.394 31.0612C167.674 29.3548 165.35 28.3972 162.928 28.3972C160.506 28.3972 158.181 29.3548 156.462 31.0612C155.386 32.1328 154.531 33.4065 153.948 34.8091C153.365 36.2118 153.065 37.7158 153.065 39.2348C153.065 40.7538 153.365 42.2578 153.948 43.6604C154.531 45.0631 155.386 46.3368 156.462 47.4084C159.226 50.1519 162.962 51.6916 166.856 51.6916C170.75 51.6916 174.486 50.1519 177.249 47.4084L178.286 48.4321C176.785 49.9321 175.002 51.1207 173.04 51.9292C171.079 52.7378 168.976 53.1504 166.854 53.1434Z" fill="#77BBC8"/>
<path d="M165.557 114.175L169.629 118.227L168.594 119.263L164.522 115.212L160.45 119.263L159.416 118.227L163.487 114.175L159.416 110.124L160.45 109.101L164.522 113.153L168.594 109.101L169.629 110.124L165.557 114.175Z" fill="#EBC5C4"/>
<path d="M144.366 164.16H47.4874V67.7676H144.366V164.16ZM48.2193 163.427H143.634V68.5006H48.2193V163.427Z" fill="#6E8CBB"/>
<path d="M145.173 67.0449H46.8276V164.883H145.173V67.0449Z" fill="white"/>
<path d="M145.66 165.371H46.3395V66.5557H145.66V165.371ZM47.3153 164.394H144.684V67.5331H47.3154L47.3153 164.394Z" fill="#D1D1D1"/>
<path d="M69.7959 137.969L73.8818 142.035L96 120.026L118.115 142.035L122.201 137.969L100.086 115.964L122.201 93.9603L118.115 89.895L96 111.9L73.8818 89.895L69.7959 93.9603L91.9151 115.964L69.7959 137.969Z" fill="#BD716D"/>
<path d="M177.917 162.015H14.0828V177.904H177.917V162.015Z" fill="#D1D1D1"/>
<path d="M178.286 178.286H13.7142V161.633H178.286V178.286ZM14.4512 177.522H177.549V162.397H14.4512V177.522Z" fill="#8C8C8C"/>
<path d="M54.5926 18.8024L58.6785 22.853L57.6303 23.8766L53.5582 19.825L49.486 23.8766L48.4515 22.853L52.5237 18.8024L48.4515 14.737L49.486 13.7144L53.5582 17.7659L57.6303 13.7144L58.6785 14.737L54.5926 18.8024Z" fill="#EBC5C4"/>
</svg>
