<svg width="192" height="192" viewBox="0 0 192 192" fill="none" xmlns="http://www.w3.org/2000/svg">
<path d="M38.785 42.9906C40.3135 34.7879 48.3727 36.5776 48.3727 36.5776C47.9558 32.6999 52.6802 31.5068 52.6802 31.5068C48.0948 22.111 55.7372 18.6808 55.7372 18.6808C59.4888 6.30222 70.466 12.4169 70.466 12.4169C86.1676 8.53931 91.1699 23.6024 91.1699 23.6024C100.897 16.742 106.871 25.0938 106.871 25.0938C112.013 25.5412 114.097 30.3137 114.097 30.3137C125.769 28.524 127.714 39.7095 127.714 39.7095C129.099 39.1136 130.642 38.9953 132.101 39.3734C133.561 39.7514 134.852 40.6042 135.773 41.7975C140.498 38.9638 146.195 41.7975 144.944 48.5088C143.694 55.22 135.079 51.939 135.079 51.939C125.213 57.1589 114.792 52.6847 114.792 52.6847C108.678 54.6235 105.482 52.0881 105.482 52.0881C92.9763 61.3348 72.4114 53.4304 72.4114 53.4304C62.8237 59.2468 52.8192 53.1321 52.8192 53.1321C49.4843 55.9657 44.2041 54.0269 44.2041 54.0269C29.3363 58.9485 25.3067 51.6407 25.3067 51.6407C25.3067 51.6407 17.1085 55.6675 14.4685 50.4476C11.8285 45.2276 16.4138 41.3501 23.6393 42.9906C25.745 41.6413 28.2321 41.0132 30.7259 41.2009C33.4996 41.2954 36.232 41.9022 38.785 42.9906Z" fill="#E6E6E6"/>
<path d="M60.3813 39.4604H60.2729C35.4321 39.4604 15.2947 59.5979 15.2947 84.4386V113.888C15.2947 138.729 35.4321 158.866 60.2729 158.866H60.3813C85.222 158.866 105.359 138.729 105.359 113.888V84.4386C105.359 59.5979 85.222 39.4604 60.3813 39.4604Z" fill="#B8DFBC"/>
<path d="M60.3272 159.355C48.2725 159.356 36.7097 154.575 28.1755 146.062C19.6413 137.548 14.8326 125.997 14.8043 113.942V84.3848C14.8328 72.3301 19.6415 60.7789 28.1756 52.265C36.7096 43.7511 48.2722 38.9697 60.3269 38.9697C72.3817 38.9697 83.9442 43.7511 92.4783 52.265C101.012 60.7789 105.821 72.3301 105.85 84.3848V113.942C105.821 125.997 101.013 137.548 92.4786 146.061C83.9444 154.575 72.3817 159.356 60.3272 159.355ZM60.3272 39.9497C48.5321 39.9488 37.2183 44.6267 28.8679 52.957C20.5175 61.2873 15.8124 72.5898 15.7849 84.3848V113.942C15.8137 125.737 20.5192 137.038 28.8693 145.368C37.2194 153.698 48.5324 158.376 60.3269 158.376C72.1214 158.376 83.4344 153.698 91.7846 145.368C100.135 137.038 104.84 125.737 104.869 113.942V84.3848C104.841 72.5898 100.136 61.2874 91.7861 52.9571C83.4358 44.6267 72.1222 39.9489 60.3272 39.9496V39.9497Z" fill="#729A77"/>
<path d="M60.3272 184.499C60.2298 184.499 60.1363 184.461 60.0674 184.392C59.9984 184.323 59.9596 184.23 59.9595 184.132V80.8902C59.9595 80.7927 59.9982 80.6991 60.0672 80.6302C60.1361 80.5612 60.2297 80.5225 60.3272 80.5225C60.4247 80.5225 60.5183 80.5612 60.5872 80.6302C60.6562 80.6991 60.6949 80.7927 60.6949 80.8902V184.132C60.6948 184.23 60.656 184.323 60.587 184.392C60.5181 184.461 60.4246 184.499 60.3272 184.499Z" fill="#795E2E"/>
<path d="M59.9298 122.436C59.8815 122.437 59.8337 122.427 59.7891 122.409C59.7444 122.39 59.7039 122.363 59.6698 122.329L40.5464 103.252C40.5121 103.217 40.485 103.177 40.4664 103.132C40.4478 103.088 40.4383 103.04 40.4382 102.991C40.4382 102.943 40.4477 102.895 40.4662 102.851C40.4847 102.806 40.5119 102.765 40.5461 102.731C40.5803 102.697 40.621 102.67 40.6656 102.652C40.7103 102.633 40.7582 102.624 40.8066 102.624C40.8549 102.624 40.9027 102.634 40.9473 102.653C40.9919 102.671 41.0324 102.698 41.0664 102.733L60.1898 121.81C60.2411 121.862 60.276 121.927 60.2902 121.998C60.3043 122.069 60.297 122.143 60.2691 122.21C60.2413 122.277 60.1942 122.335 60.1338 122.375C60.0734 122.415 60.0024 122.437 59.9298 122.436Z" fill="#795E2E"/>
<path d="M60.2932 144.747C60.2206 144.747 60.1496 144.725 60.0892 144.685C60.0288 144.645 59.9817 144.587 59.9538 144.52C59.926 144.453 59.9187 144.38 59.9328 144.308C59.9469 144.237 59.9819 144.172 60.0332 144.12L79.1566 125.042C79.1906 125.008 79.2311 124.981 79.2756 124.963C79.3202 124.944 79.3679 124.935 79.4161 124.935C79.4644 124.935 79.5121 124.944 79.5567 124.962C79.6013 124.981 79.6418 125.008 79.676 125.042C79.7101 125.076 79.7372 125.116 79.7557 125.161C79.7742 125.205 79.7838 125.253 79.7838 125.301C79.7839 125.35 79.7744 125.397 79.756 125.442C79.7376 125.487 79.7106 125.527 79.6766 125.561L60.5532 144.639C60.5191 144.673 60.4785 144.7 60.4339 144.719C60.3893 144.737 60.3415 144.747 60.2932 144.747Z" fill="#795E2E"/>
<path d="M36.2989 113.199C44.0692 113.199 50.3682 106.915 50.3682 99.1633C50.3682 91.4118 44.0692 85.1279 36.2989 85.1279C28.5287 85.1279 22.2297 91.4118 22.2297 99.1633C22.2297 106.915 28.5287 113.199 36.2989 113.199Z" fill="#97C09B"/>
<path d="M36.2988 113.566C33.4518 113.559 30.6707 112.708 28.3069 111.122C25.943 109.535 24.1025 107.283 23.0177 104.651C21.933 102.019 21.6528 99.124 22.2124 96.3325C22.772 93.541 24.1464 90.9781 26.162 88.9673C28.1776 86.9566 30.7439 85.5884 33.5367 85.0355C36.3295 84.4825 39.2235 84.7698 41.8531 85.8608C44.4828 86.9519 46.7301 88.7979 48.3111 91.1655C49.8922 93.5332 50.736 96.3163 50.736 99.1633C50.7272 102.986 49.2021 106.65 46.4956 109.35C43.789 112.05 40.1219 113.566 36.2988 113.566ZM36.2988 85.495C33.5968 85.5015 30.9574 86.3087 28.714 87.8147C26.4705 89.3206 24.7237 91.4576 23.6943 93.9558C22.6648 96.454 22.3989 99.2013 22.93 101.851C23.4612 104.5 24.7657 106.932 26.6786 108.841C28.5915 110.749 31.0271 112.047 33.6777 112.572C36.3282 113.097 39.0748 112.824 41.5705 111.788C44.0662 110.753 46.199 109.001 47.6994 106.754C49.1999 104.507 50.0006 101.865 50.0006 99.1633C49.9921 95.5351 48.5447 92.0584 45.976 89.496C43.4073 86.9335 39.9271 85.4946 36.2988 85.495Z" fill="#4F7053"/>
<path d="M60.3271 85.3872C68.0974 85.3872 74.3964 79.1033 74.3964 71.3518C74.3964 63.6003 68.0974 57.3164 60.3271 57.3164C52.5569 57.3164 46.2579 63.6003 46.2579 71.3518C46.2579 79.1033 52.5569 85.3872 60.3271 85.3872Z" fill="#97C09B"/>
<path d="M60.3273 85.7538C57.4802 85.747 54.699 84.8966 52.3351 83.3099C49.9712 81.7232 48.1306 79.4714 47.0458 76.8392C45.961 74.2069 45.6807 71.3121 46.2403 68.5206C46.7999 65.7291 48.1744 63.1661 50.19 61.1553C52.2056 59.1446 54.7719 57.7763 57.5647 57.2234C60.3576 56.6705 63.2517 56.9578 65.8813 58.0489C68.511 59.14 70.7583 60.9861 72.3393 63.3538C73.9203 65.7215 74.764 68.5047 74.764 71.3518C74.755 75.1747 73.23 78.8379 70.5235 81.5379C67.8171 84.2378 64.1502 85.754 60.3273 85.7538ZM60.3273 57.683C57.6253 57.6894 54.9858 58.4965 52.7423 60.0024C50.4988 61.5082 48.752 63.6452 47.7224 66.1434C46.6929 68.6415 46.4268 71.3888 46.9579 74.0381C47.489 76.6874 48.7933 79.1198 50.7062 81.0282C52.6191 82.9365 55.0546 84.2351 57.7052 84.7599C60.3557 85.2847 63.1023 85.0121 65.598 83.9767C68.0938 82.9412 70.2266 81.1893 71.7271 78.9422C73.2276 76.6952 74.0285 74.0538 74.0285 71.3518C74.0201 67.7236 72.5728 64.2468 70.0042 61.6843C67.4356 59.1218 63.9555 57.6828 60.3273 57.683Z" fill="#4F7053"/>
<path fill-rule="evenodd" clip-rule="evenodd" d="M60.3272 64.4614C60.7611 64.4725 61.1882 64.5717 61.5825 64.7531C61.9769 64.9345 62.3302 65.1942 62.6209 65.5165C62.9117 65.8388 63.1338 66.2168 63.2738 66.6277C63.4137 67.0386 63.4686 67.4736 63.4351 67.9064C63.4351 68.1521 63.4259 68.3577 63.4098 68.5288C63.5502 68.6379 63.663 68.8549 63.6078 69.2844C63.5088 70.0584 63.3039 70.3018 63.0898 70.3179C62.9757 71.0508 62.6093 71.7209 62.0538 72.2126V73.4184C62.3426 73.911 62.8094 74.2739 63.358 74.4323L64.7347 74.8767C65.3742 75.0167 65.9559 75.3481 66.4024 75.8269C66.8488 76.3057 67.1388 76.9092 67.2337 77.5569C62.6746 78.4694 57.9798 78.4694 53.4207 77.5569C53.5156 76.9093 53.8054 76.306 54.2516 75.8272C54.6978 75.3485 55.2792 75.0169 55.9185 74.8767L57.2963 74.4323C57.8451 74.2743 58.3121 73.9112 58.6005 73.4183V72.2126C58.045 71.721 57.6786 71.0508 57.5645 70.3179C57.3504 70.3018 57.1455 70.0584 57.0465 69.2844C56.9913 68.8549 57.1041 68.6379 57.2445 68.5288C57.2269 68.3218 57.2185 68.1143 57.2192 67.9064C57.1856 67.4737 57.2405 67.0386 57.3805 66.6277C57.5205 66.2168 57.7426 65.8388 58.0333 65.5165C58.3241 65.1942 58.6774 64.9344 59.0718 64.7531C59.4661 64.5717 59.8932 64.4725 60.3272 64.4614Z" fill="white"/>
<path fill-rule="evenodd" clip-rule="evenodd" d="M36.299 91.4121C36.7329 91.4231 37.16 91.5224 37.5544 91.7038C37.9487 91.8851 38.302 92.1449 38.5928 92.4672C38.8835 92.7894 39.1056 93.1675 39.2456 93.5784C39.3856 93.9893 39.4405 94.4243 39.4069 94.8571C39.4069 95.1028 39.3977 95.3084 39.3816 95.4795C39.522 95.5886 39.6348 95.8056 39.5796 96.2351C39.4806 97.009 39.2757 97.2525 39.0616 97.2685C38.9475 98.0015 38.5811 98.6716 38.0256 99.1633V100.369C38.3144 100.862 38.7812 101.225 39.3298 101.383L40.7065 101.827C41.346 101.967 41.9277 102.299 42.3742 102.778C42.8206 103.256 43.1106 103.86 43.2055 104.508C38.6464 105.42 33.9516 105.42 29.3925 104.508C29.4873 103.86 29.7772 103.257 30.2234 102.778C30.6696 102.299 31.251 101.968 31.8903 101.827L33.2682 101.383C33.817 101.225 34.2839 100.862 34.5724 100.369V99.1633C34.0169 98.6716 33.6505 98.0015 33.5364 97.2685C33.3223 97.2525 33.1174 97.009 33.0184 96.2351C32.9631 95.8056 33.0759 95.5885 33.2164 95.4795C33.1988 95.2725 33.1904 95.065 33.191 94.8571C33.1575 94.4243 33.2124 93.9893 33.3524 93.5784C33.4923 93.1675 33.7145 92.7894 34.0052 92.4672C34.296 92.1449 34.6493 91.8851 35.0436 91.7038C35.4379 91.5224 35.8651 91.4231 36.299 91.4121Z" fill="white"/>
<path d="M82.1506 136.105C89.9208 136.105 96.2198 129.821 96.2198 122.07C96.2198 114.318 89.9208 108.034 82.1506 108.034C74.3804 108.034 68.0814 114.318 68.0814 122.07C68.0814 129.821 74.3804 136.105 82.1506 136.105Z" fill="#97C09B"/>
<path d="M82.1506 136.472C79.3036 136.465 76.5225 135.615 74.1585 134.028C71.7946 132.441 69.954 130.19 68.8692 127.558C67.7844 124.925 67.5041 122.031 68.0637 119.239C68.6232 116.448 69.9976 113.885 72.0132 111.874C74.0287 109.863 76.595 108.495 79.3878 107.942C82.1806 107.389 85.0747 107.676 87.7044 108.767C90.334 109.858 92.5814 111.704 94.1624 114.072C95.7435 116.439 96.5873 119.223 96.5874 122.07C96.5784 125.893 95.0535 129.556 92.347 132.256C89.6406 134.956 85.9736 136.472 82.1506 136.472ZM82.1506 108.401C79.4486 108.408 76.8091 109.215 74.5656 110.721C72.3221 112.227 70.5753 114.364 69.5457 116.862C68.5162 119.36 68.2502 122.107 68.7813 124.757C69.3124 127.406 70.6168 129.838 72.5297 131.747C74.4426 133.655 76.8782 134.953 79.5288 135.478C82.1794 136.003 84.926 135.73 87.4217 134.695C89.9174 133.659 92.0503 131.907 93.5507 129.66C95.0512 127.413 95.8519 124.772 95.8519 122.07C95.8433 118.441 94.396 114.965 91.8274 112.402C89.2589 109.84 85.7788 108.401 82.1506 108.401Z" fill="#4F7053"/>
<path fill-rule="evenodd" clip-rule="evenodd" d="M82.1505 115.18C82.5845 115.191 83.0116 115.29 83.4059 115.471C83.8003 115.653 84.1536 115.912 84.4443 116.235C84.7351 116.557 84.9572 116.935 85.0972 117.346C85.2371 117.757 85.292 118.192 85.2585 118.625C85.2585 118.87 85.2493 119.076 85.2332 119.247C85.3736 119.356 85.4864 119.573 85.4312 120.003C85.3322 120.777 85.1273 121.02 84.9132 121.036C84.7991 121.769 84.4327 122.439 83.8772 122.931V124.137C84.166 124.629 84.6328 124.992 85.1814 125.151L86.5581 125.595C87.1976 125.735 87.7793 126.066 88.2257 126.545C88.6722 127.024 88.9622 127.627 89.0571 128.275C84.4979 129.188 79.8032 129.188 75.244 128.275C75.3389 127.628 75.6287 127.024 76.075 126.545C76.5212 126.067 77.1026 125.735 77.7419 125.595L79.1197 125.151C79.6685 124.993 80.1355 124.629 80.4239 124.137V122.931C79.8684 122.439 79.502 121.769 79.3879 121.036C79.1738 121.02 78.9689 120.777 78.8699 120.003C78.8147 119.573 78.9275 119.356 79.0679 119.247C79.0504 119.04 79.0419 118.833 79.0426 118.625C79.0091 118.192 79.064 117.757 79.2039 117.346C79.3439 116.935 79.566 116.557 79.8568 116.235C80.1475 115.912 80.5008 115.653 80.8952 115.471C81.2895 115.29 81.7166 115.191 82.1505 115.18Z" fill="white"/>
<path d="M134.664 6.85645H134.56C110.74 6.85645 91.4296 26.1668 91.4296 49.9873V92.7155C91.4296 116.536 110.74 135.846 134.56 135.846H134.664C158.485 135.846 177.795 116.536 177.795 92.7155V49.9873C177.795 26.1668 158.485 6.85645 134.664 6.85645Z" fill="#729A77"/>
<path d="M134.612 136.335C123.048 136.336 111.955 131.75 103.767 123.582C95.5796 115.414 90.9663 104.332 90.9393 92.7673V49.9356C90.9667 38.3707 95.5801 27.2888 103.767 19.1208C111.955 10.9528 123.048 6.36572 134.613 6.36572C146.177 6.36572 157.27 10.9528 165.458 19.1208C173.645 27.2888 178.258 38.3707 178.286 49.9356V92.7673C178.259 104.332 173.645 115.414 165.458 123.582C157.27 131.75 146.177 136.336 134.612 136.335ZM134.612 7.34576C123.307 7.3449 112.463 11.8285 104.46 19.8129C96.4559 27.7973 91.9463 38.6304 91.9199 49.9357V92.7673C91.9475 104.072 96.4576 114.904 104.461 122.888C112.464 130.872 123.308 135.356 134.612 135.356C145.917 135.356 156.76 130.872 164.764 122.888C172.767 114.904 177.277 104.072 177.305 92.7673V49.9357C177.279 38.6304 172.769 27.7973 164.765 19.8129C156.762 11.8284 145.918 7.34486 134.612 7.34572V7.34576Z" fill="#2E4B33"/>
<path d="M134.215 91.435C134.167 91.4351 134.119 91.4257 134.074 91.4072C134.03 91.3888 133.989 91.3617 133.955 91.3276L114.832 72.2497C114.798 72.2155 114.771 72.175 114.752 72.1304C114.734 72.0858 114.724 72.0381 114.724 71.9898C114.725 71.9416 114.734 71.8939 114.753 71.8493C114.771 71.8048 114.798 71.7644 114.832 71.7303C114.867 71.6962 114.907 71.6692 114.952 71.6508C114.996 71.6324 115.044 71.623 115.092 71.623C115.14 71.6231 115.188 71.6327 115.233 71.6512C115.277 71.6697 115.318 71.6968 115.352 71.7309L134.475 90.8088C134.526 90.8602 134.561 90.9256 134.576 90.9968C134.59 91.068 134.582 91.1418 134.554 91.2089C134.527 91.2759 134.48 91.3332 134.419 91.3734C134.359 91.4137 134.288 91.4351 134.215 91.435Z" fill="#795E2E"/>
<path d="M112.369 81.5293C120.139 81.5293 126.438 75.2454 126.438 67.4939C126.438 59.7424 120.139 53.4585 112.369 53.4585C104.599 53.4585 98.2997 59.7424 98.2997 67.4939C98.2997 75.2454 104.599 81.5293 112.369 81.5293Z" fill="#97C09B"/>
<path d="M112.369 81.8959C109.522 81.8891 106.741 81.0386 104.377 79.452C102.013 77.8653 100.172 75.6135 99.0877 72.9813C98.0029 70.349 97.7226 67.4542 98.2822 64.6627C98.8418 61.8712 100.216 59.3082 102.232 57.2974C104.247 55.2867 106.814 53.9184 109.607 53.3655C112.399 52.8126 115.294 53.0999 117.923 54.191C120.553 55.2821 122.8 57.1282 124.381 59.4959C125.962 61.8636 126.806 64.6468 126.806 67.4939C126.797 71.3168 125.272 74.98 122.565 77.68C119.859 80.3799 116.192 81.8961 112.369 81.8959ZM112.369 53.825C109.667 53.8315 107.028 54.6386 104.784 56.1445C102.541 57.6503 100.794 59.7873 99.7643 62.2855C98.7347 64.7836 98.4687 67.5309 98.9998 70.1802C99.5308 72.8295 100.835 75.2619 102.748 77.1703C104.661 79.0786 107.096 80.3772 109.747 80.902C112.398 81.4268 115.144 81.1542 117.64 80.1187C120.136 79.0833 122.268 77.3314 123.769 75.0843C125.269 72.8372 126.07 70.1959 126.07 67.4939C126.062 63.8657 124.615 60.3889 122.046 57.8264C119.477 55.2639 115.997 53.8249 112.369 53.825Z" fill="#4F7053"/>
<path d="M134.613 115.724C134.54 115.724 134.469 115.703 134.409 115.663C134.348 115.622 134.301 115.565 134.273 115.498C134.245 115.431 134.238 115.357 134.252 115.286C134.266 115.215 134.301 115.149 134.353 115.098L153.476 96.02C153.545 95.9515 153.638 95.913 153.735 95.9131C153.832 95.9131 153.926 95.9517 153.994 96.0203C154.063 96.089 154.102 96.1821 154.102 96.2792C154.103 96.3764 154.064 96.4698 153.996 96.5388L134.873 115.617C134.838 115.651 134.798 115.678 134.753 115.696C134.709 115.715 134.661 115.724 134.613 115.724Z" fill="#795E2E"/>
<path d="M156.459 105.818C164.229 105.818 170.528 99.5345 170.528 91.783C170.528 84.0314 164.229 77.7476 156.459 77.7476C148.689 77.7476 142.39 84.0314 142.39 91.783C142.39 99.5345 148.689 105.818 156.459 105.818Z" fill="#97C09B"/>
<path d="M156.459 106.185C153.612 106.179 150.831 105.328 148.467 103.742C146.103 102.155 144.262 99.9032 143.177 97.2709C142.093 94.6387 141.812 91.7439 142.372 88.9524C142.931 86.1609 144.306 83.5979 146.321 81.5871C148.337 79.5764 150.903 78.2081 153.696 77.6551C156.489 77.1022 159.383 77.3894 162.013 78.4804C164.642 79.5715 166.89 81.4174 168.471 83.7851C170.052 86.1528 170.896 88.9359 170.896 91.7829C170.887 95.6059 169.362 99.2693 166.655 101.969C163.949 104.669 160.282 106.186 156.459 106.185ZM156.459 78.1146C153.757 78.1211 151.117 78.9282 148.874 80.4341C146.63 81.9399 144.884 84.0769 143.854 86.5751C142.824 89.0733 142.558 91.8206 143.09 94.4699C143.621 97.1192 144.925 99.5517 146.838 101.46C148.751 103.368 151.186 104.667 153.837 105.192C156.488 105.716 159.234 105.444 161.73 104.408C164.226 103.373 166.358 101.621 167.859 99.3735C169.359 97.1264 170.16 94.485 170.16 91.7829C170.152 88.1548 168.704 84.6782 166.136 82.1158C163.567 79.5534 160.087 78.1144 156.459 78.1146Z" fill="#4F7053"/>
<path d="M134.613 71.7187C134.54 71.7189 134.469 71.6974 134.409 71.6572C134.348 71.6169 134.301 71.5596 134.273 71.4926C134.245 71.4255 134.238 71.3517 134.252 71.2805C134.266 71.2093 134.301 71.1439 134.353 71.0925L153.476 52.0147C153.545 51.9461 153.638 51.9077 153.735 51.9077C153.832 51.9078 153.926 51.9463 153.994 52.015C154.063 52.0836 154.102 52.1767 154.102 52.2739C154.103 52.3711 154.064 52.4644 153.996 52.5334L134.872 71.6113C134.838 71.6454 134.798 71.6725 134.753 71.6909C134.709 71.7094 134.661 71.7188 134.613 71.7187Z" fill="#795E2E"/>
<path d="M156.459 61.813C164.229 61.813 170.528 55.5291 170.528 47.7776C170.528 40.026 164.229 33.7422 156.459 33.7422C148.689 33.7422 142.39 40.026 142.39 47.7776C142.39 55.5291 148.689 61.813 156.459 61.813Z" fill="#97C09B"/>
<path d="M156.459 62.1796C153.612 62.1728 150.831 61.3223 148.467 59.7356C146.103 58.149 144.262 55.8972 143.177 53.2649C142.093 50.6327 141.812 47.7379 142.372 44.9464C142.932 42.1549 144.306 39.5919 146.322 37.5811C148.337 35.5704 150.903 34.2021 153.696 33.6492C156.489 33.0963 159.383 33.3836 162.013 34.4747C164.643 35.5658 166.89 37.4118 168.471 39.7796C170.052 42.1473 170.896 44.9305 170.896 47.7776C170.887 51.6005 169.362 55.2637 166.655 57.9637C163.949 60.6636 160.282 62.1798 156.459 62.1796ZM156.459 34.1087C153.757 34.1152 151.117 34.9223 148.874 36.4282C146.63 37.934 144.884 40.071 143.854 42.5692C142.824 45.0673 142.558 47.8146 143.09 50.4639C143.621 53.1132 144.925 55.5456 146.838 57.454C148.751 59.3623 151.186 60.6609 153.837 61.1857C156.487 61.7105 159.234 61.4379 161.73 60.4024C164.225 59.367 166.358 57.615 167.859 55.368C169.359 53.1209 170.16 50.4796 170.16 47.7776C170.152 44.1493 168.704 40.6726 166.136 38.1101C163.567 35.5476 160.087 34.1086 156.459 34.1087Z" fill="#4F7053"/>
<path fill-rule="evenodd" clip-rule="evenodd" d="M156.459 40.8872C156.893 40.8982 157.32 40.9975 157.714 41.1789C158.108 41.3602 158.462 41.62 158.752 41.9423C159.043 42.2645 159.265 42.6426 159.405 43.0535C159.545 43.4644 159.6 43.8994 159.567 44.3322C159.567 44.5779 159.557 44.7835 159.541 44.9546C159.682 45.0637 159.795 45.2807 159.739 45.7102C159.64 46.4841 159.435 46.7276 159.221 46.7436C159.107 47.4766 158.741 48.1467 158.185 48.6384V49.8441C158.474 50.3367 158.941 50.6996 159.489 50.8581L160.866 51.3025C161.506 51.4424 162.087 51.7739 162.534 52.2527C162.98 52.7315 163.27 53.3349 163.365 53.9826C158.806 54.8952 154.111 54.8952 149.552 53.9826C149.647 53.3351 149.937 52.7318 150.383 52.253C150.829 51.7742 151.411 51.4427 152.05 51.3025L153.428 50.8581C153.977 50.7 154.444 50.337 154.732 49.8441V48.6384C154.177 48.1467 153.81 47.4766 153.696 46.7437C153.482 46.7276 153.277 46.4841 153.178 45.7102C153.123 45.2807 153.236 45.0637 153.376 44.9546C153.358 44.7476 153.35 44.5401 153.351 44.3322C153.317 43.8994 153.372 43.4644 153.512 43.0535C153.652 42.6426 153.874 42.2646 154.165 41.9423C154.456 41.62 154.809 41.3602 155.203 41.1789C155.598 40.9975 156.025 40.8982 156.459 40.8872Z" fill="white"/>
<path fill-rule="evenodd" clip-rule="evenodd" d="M156.459 84.8931C156.893 84.9041 157.32 85.0033 157.714 85.1847C158.108 85.3661 158.462 85.6258 158.752 85.9481C159.043 86.2704 159.265 86.6485 159.405 87.0594C159.545 87.4702 159.6 87.9053 159.567 88.338C159.567 88.5838 159.557 88.7893 159.541 88.9604C159.682 89.0695 159.795 89.2865 159.739 89.716C159.64 90.49 159.435 90.7334 159.221 90.7495C159.107 91.4824 158.741 92.1526 158.185 92.6442V93.85C158.474 94.3426 158.941 94.7055 159.489 94.8639L160.866 95.3084C161.506 95.4483 162.087 95.7797 162.534 96.2585C162.98 96.7374 163.27 97.3408 163.365 97.9885C158.806 98.901 154.111 98.901 149.552 97.9885C149.647 97.341 149.937 96.7376 150.383 96.2589C150.829 95.7801 151.411 95.4486 152.05 95.3084L153.428 94.8639C153.977 94.7059 154.444 94.3429 154.732 93.85V92.6442C154.177 92.1526 153.81 91.4824 153.696 90.7495C153.482 90.7334 153.277 90.49 153.178 89.716C153.123 89.2865 153.236 89.0695 153.376 88.9604C153.358 88.7534 153.35 88.5459 153.351 88.338C153.317 87.9053 153.372 87.4702 153.512 87.0593C153.652 86.6485 153.874 86.2704 154.165 85.9481C154.456 85.6258 154.809 85.3661 155.203 85.1847C155.598 85.0033 156.025 84.9041 156.459 84.8931Z" fill="white"/>
<path fill-rule="evenodd" clip-rule="evenodd" d="M112.266 60.604C112.7 60.615 113.127 60.7143 113.521 60.8957C113.916 61.077 114.269 61.3368 114.56 61.6591C114.851 61.9813 115.073 62.3594 115.213 62.7703C115.353 63.1812 115.408 63.6162 115.374 64.049C115.374 64.2947 115.365 64.5003 115.349 64.6714C115.489 64.7805 115.602 64.9975 115.547 65.427C115.448 66.2009 115.243 66.4444 115.029 66.4604C114.915 67.1934 114.548 67.8635 113.993 68.3552V69.5609C114.281 70.0535 114.748 70.4165 115.297 70.5749L116.674 71.0193C117.313 71.1593 117.895 71.4907 118.341 71.9695C118.788 72.4483 119.078 73.0517 119.173 73.6995C114.613 74.612 109.919 74.612 105.359 73.6995C105.454 73.0519 105.744 72.4486 106.19 71.9698C106.637 71.4911 107.218 71.1595 107.857 71.0193L109.235 70.5749C109.784 70.4169 110.251 70.0538 110.539 69.5609V68.3552C109.984 67.8635 109.618 67.1934 109.503 66.4605C109.289 66.4444 109.084 66.2009 108.985 65.427C108.93 64.9975 109.043 64.7805 109.183 64.6714C109.166 64.4644 109.157 64.2569 109.158 64.049C109.125 63.6162 109.179 63.1812 109.319 62.7703C109.459 62.3594 109.681 61.9813 109.972 61.6591C110.263 61.3368 110.616 61.077 111.011 60.8957C111.405 60.7143 111.832 60.615 112.266 60.604Z" fill="white"/>
<path d="M134.613 184.499C134.515 184.499 134.422 184.461 134.353 184.392C134.284 184.323 134.245 184.23 134.245 184.132V56.3282C134.245 56.231 134.284 56.138 134.353 56.0694C134.422 56.0009 134.515 55.9624 134.612 55.9624C134.71 55.9624 134.803 56.0009 134.872 56.0694C134.941 56.138 134.98 56.231 134.98 56.3282V184.132C134.98 184.23 134.941 184.323 134.872 184.392C134.803 184.461 134.71 184.499 134.613 184.499Z" fill="#795E2E"/>
<path fill-rule="evenodd" clip-rule="evenodd" d="M152.372 182.72C152.36 177.912 150.442 173.306 147.038 169.91C143.634 166.515 139.023 164.608 134.215 164.608C129.407 164.608 124.796 166.515 121.392 169.91C117.989 173.306 116.071 177.912 116.059 182.72H152.372Z" fill="#729A77"/>
<path d="M152.739 183.087H115.691V182.72C115.703 177.815 117.66 173.114 121.133 169.65C124.605 166.186 129.31 164.24 134.215 164.24C139.121 164.24 143.825 166.186 147.298 169.65C150.771 173.114 152.728 177.815 152.739 182.72V183.087ZM116.43 182.353H152C151.893 177.707 149.972 173.288 146.649 170.04C143.325 166.792 138.862 164.974 134.215 164.974C129.568 164.974 125.106 166.792 121.782 170.04C118.458 173.288 116.538 177.707 116.43 182.353Z" fill="#2E4B33"/>
<path fill-rule="evenodd" clip-rule="evenodd" d="M137.121 182.72C137.112 179.093 135.665 175.619 133.098 173.058C130.53 170.497 127.052 169.059 123.426 169.059C119.8 169.059 116.321 170.497 113.754 173.058C111.187 175.619 109.74 179.093 109.731 182.72H137.121Z" fill="#97C09B"/>
<path d="M137.489 183.087H109.363V182.72C109.373 178.997 110.86 175.431 113.496 172.802C116.132 170.174 119.703 168.698 123.426 168.698C127.148 168.698 130.719 170.174 133.355 172.802C135.992 175.431 137.478 178.997 137.489 182.72V183.087ZM110.103 182.353H136.748C136.644 178.889 135.195 175.602 132.708 173.188C130.221 170.774 126.891 169.424 123.426 169.424C119.96 169.424 116.63 170.774 114.143 173.188C111.656 175.602 110.207 178.889 110.103 182.353Z" fill="#4F7053"/>
<path d="M155.741 182.976H39.5463V184.899H155.741V182.976Z" fill="#A58346"/>
<path d="M155.741 182.976V184.899H39.5462V182.976H155.741M156.476 182.242H38.8108V185.633H156.476V182.242L156.476 182.242Z" fill="#503D1C"/>
</svg>
