<svg width="192" height="192" viewBox="0 0 192 192" fill="none" xmlns="http://www.w3.org/2000/svg">
<path d="M36.2196 21.289C36.2196 21.289 16.1323 24.3481 26.2059 36.7018C36.2795 49.0556 55.9665 39.2496 55.9665 39.2496C55.9665 39.2496 61.4052 45.8633 69.3664 39.7906C69.3664 39.7906 86.8244 47.8993 94.6922 39.9718C94.6922 39.9718 101.298 42.5943 105.118 39.3831C105.118 39.3831 125.497 45.7588 126.485 33.6834C127.473 21.608 109.986 22.5846 107.171 25.8363C106.076 23.4783 104.201 21.57 101.863 20.4334C99.525 19.2968 96.8663 19.0014 94.3355 19.597C94.3355 19.597 91.8937 5.19567 77.1259 9.47918C77.1259 9.47918 48.3724 -1.44127 36.2196 21.289Z" fill="#E6E6E6"/>
<path d="M113.595 138.535C113.982 144.833 117.46 169.251 117.46 169.251C117.46 169.251 119.779 173.03 121.904 170.317C124.029 167.604 124.126 167.895 124.609 163.922C125.092 159.949 128.474 139.891 128.474 139.891L113.595 138.535Z" fill="white"/>
<path d="M120.228 171.665C120.188 171.665 120.148 171.664 120.107 171.661C118.47 171.567 117.202 169.53 117.149 169.444L117.098 169.303C117.063 169.059 113.614 144.799 113.231 138.557L113.204 138.13L128.9 139.561L128.834 139.952C128.8 140.153 125.449 160.047 124.972 163.967C124.539 167.525 124.408 167.762 122.815 169.757L122.191 170.544C121.975 170.872 121.684 171.144 121.343 171.339C121.002 171.533 120.62 171.645 120.228 171.665ZM117.81 169.119C118.019 169.435 119.027 170.864 120.15 170.928C120.445 170.922 120.734 170.842 120.991 170.695C121.247 170.549 121.462 170.34 121.617 170.089C121.849 169.793 122.057 169.532 122.244 169.298C123.739 167.426 123.828 167.313 124.246 163.877C124.688 160.249 127.573 143.046 128.047 140.221L113.989 138.939C114.474 145.558 117.595 167.606 117.81 169.119Z" fill="#D1D1D1"/>
<path d="M129.826 142.023C130.309 145.899 133.884 154.038 136.009 157.72C137.928 161.031 139.483 164.54 140.646 168.185C141.033 169.929 141.902 170.511 144.801 170.414C147.699 170.317 148.279 168.573 146.926 165.278C145.574 161.984 147.699 157.236 146.153 152.391C144.607 147.546 143.931 141.635 140.453 140.376C136.975 139.116 129.826 142.023 129.826 142.023Z" fill="white"/>
<path d="M144.233 170.791C141.687 170.791 140.704 170.134 140.29 168.265C139.134 164.657 137.593 161.184 135.693 157.906C133.48 154.071 129.952 145.996 129.463 142.069L129.428 141.788L129.689 141.682C129.986 141.561 137.012 138.736 140.577 140.031C143.462 141.076 144.484 144.912 145.565 148.974C145.858 150.074 146.161 151.212 146.501 152.28C147.143 154.711 147.297 157.246 146.954 159.738C146.791 161.835 146.651 163.645 147.264 165.139C148.099 167.172 148.208 168.622 147.598 169.571C147.27 169.987 146.844 170.315 146.358 170.526C145.872 170.738 145.341 170.825 144.813 170.782C144.611 170.789 144.418 170.792 144.233 170.791ZM130.228 142.26C130.831 146.146 134.246 153.935 136.325 157.536C138.261 160.881 139.83 164.425 141.004 168.106C141.324 169.553 141.912 170.141 144.789 170.047C145.198 170.089 145.611 170.031 145.993 169.878C146.376 169.726 146.715 169.484 146.984 169.173C147.448 168.451 147.315 167.188 146.588 165.418C145.909 163.763 146.062 161.78 146.225 159.68C146.556 157.284 146.414 154.845 145.805 152.503C145.459 151.42 145.154 150.273 144.859 149.163C143.828 145.292 142.855 141.636 140.33 140.722C137.39 139.664 131.542 141.76 130.228 142.26L130.228 142.26Z" fill="#D1D1D1"/>
<path d="M63.5511 174.096C63.7455 172.186 63.8101 170.265 63.7443 168.347L73.2122 169.186L74.0495 175.194L63.2935 178.23L63.5511 174.096Z" fill="white"/>
<path d="M64.5001 169.152L72.5688 169.867L73.2368 174.66L64.0875 177.243L64.2802 174.149C64.4685 171.544 64.5042 169.999 64.5001 169.152M63.7443 168.347C63.8101 170.266 63.7455 172.186 63.5511 174.096L63.2935 178.231L74.0495 175.194L73.2122 169.187L63.7443 168.347Z" fill="#D1D1D1"/>
<path d="M43.5205 169.703C43.456 169.897 42.4255 178.747 42.4255 178.747L52.7307 174.806L50.5408 168.605L43.5205 169.703Z" fill="white"/>
<path d="M50.0546 169.425L51.8027 174.375L43.2921 177.63C43.6124 174.894 44.005 171.588 44.1659 170.346L50.0545 169.425M50.5408 168.605L43.5205 169.704C43.456 169.897 42.4255 178.747 42.4255 178.747L52.7307 174.807L50.5408 168.605Z" fill="#D1D1D1"/>
<path d="M39.0119 38.5361C32.413 41.01 28.8195 45.4643 25.6313 52.0049C23.378 56.8253 22.4764 62.1672 23.0228 67.4601C23.3984 70.9837 23.5436 74.528 23.4576 78.0704C23.2644 82.6731 27.4186 88.0994 27.95 88.8746C28.4814 89.6498 30.4619 92.8958 34.278 92.1691C38.0941 91.4424 37.5628 90.6187 39.6399 91.1517C41.717 91.6846 52.3925 93.9133 54.4697 94.3009C56.5468 94.6885 63.3578 95.8512 66.3045 95.2214C69.2511 94.5915 75.3376 89.3106 75.3376 89.3106L62.7759 43.3923C62.3591 41.8723 61.5116 40.5053 60.3355 39.456C59.1594 38.4068 57.705 37.7201 56.1475 37.4787C51.5901 36.7615 44.859 36.344 39.0119 38.5361Z" fill="#E6E6E6"/>
<path d="M64.055 95.7723C60.8136 95.656 57.5864 95.285 54.4032 94.6627C52.2729 94.2647 41.6364 92.0434 39.5493 91.5077C39.2163 91.3817 38.8604 91.3276 38.505 91.3489C38.1496 91.3701 37.8027 91.4663 37.4871 91.6311C36.475 92.0411 35.4221 92.3423 34.3463 92.5294C30.4663 93.2708 28.4051 90.2067 27.7282 89.2003L27.4765 88.8397C24.4451 84.5931 22.9702 80.9647 23.0925 78.0555C23.1948 75.2146 23.1037 72.37 22.8198 69.5415C22.7603 68.8346 22.7027 68.1544 22.6584 67.4848C22.1036 62.1274 23.0178 56.7201 25.3028 51.8429C28.9295 44.404 32.8642 40.4483 38.8845 38.1917C44.7881 35.9809 51.5618 36.3855 56.2043 37.1164C57.8302 37.3715 59.3481 38.09 60.5763 39.1857C61.8044 40.2814 62.6906 41.7079 63.1288 43.2943L75.7514 89.4366L75.5768 89.5887C75.3254 89.8068 69.3842 94.9391 66.3805 95.581C65.6137 95.7225 64.8346 95.7866 64.055 95.7723ZM38.566 90.6151C38.9601 90.6267 39.3512 90.6875 39.7302 90.7959C41.8082 91.3288 52.4113 93.5434 54.5365 93.9395C55.9638 94.2064 63.2344 95.5036 66.2281 94.8617C68.7778 94.3173 73.9109 90.0421 74.9237 89.1821L62.4234 43.4895C62.0226 42.0389 61.2121 40.7346 60.089 39.7329C58.9658 38.7312 57.5777 38.0745 56.0909 37.8415C51.5347 37.125 44.8947 36.7223 39.1396 38.8804C32.3321 41.4327 28.9471 46.037 25.9596 52.1662C23.7336 56.9284 22.8446 62.2063 23.3876 67.435C23.4318 68.1008 23.4889 68.7771 23.548 69.4793C23.835 72.3387 23.9268 75.2143 23.8226 78.0861C23.7074 80.8278 25.1367 84.3014 28.0704 88.411L28.3336 88.7889C28.9438 89.6958 30.8005 92.4528 34.2102 91.808C35.2408 91.6295 36.2494 91.3412 37.2187 90.948C37.6402 90.7459 38.0988 90.6326 38.566 90.6151L38.566 90.6151Z" fill="#B1B1B1"/>
<path d="M37.8527 89.4072C37.9815 92.8956 37.9815 101.746 38.4323 104.782C38.8832 107.818 40.2358 117.637 40.3645 120.867C40.4933 124.097 41.1374 129.458 39.2696 136.37C37.4018 143.282 38.7544 153.231 39.1408 155.298C39.5273 157.365 41.5239 165.634 41.5883 168.541C41.6527 171.447 41.4595 172.546 44.229 173.256C46.9985 173.967 52.3443 171.706 52.6019 170.931C52.8416 170.495 52.9452 169.997 52.8992 169.502C52.8533 169.007 52.66 168.537 52.3443 168.153C51.4426 166.603 50.7341 165.892 51.3137 159.303C51.8934 152.714 49.7679 150.13 51.0561 146.642C52.3443 143.153 52.4086 143.089 52.4086 141.151C52.4086 139.213 52.9239 139.084 53.6968 138.244C54.4697 137.404 54.8561 133.334 55.2426 132.559C55.7472 131.626 56.0127 130.583 56.0155 129.523C55.9511 128.425 56.8528 121.125 57.4325 119.833C57.4325 119.833 59.3647 127.197 60.1376 128.231C60.9105 129.265 60.3952 130.944 60.7816 131.655C61.1681 132.365 61.4257 136.5 61.2325 140.763C61.0393 145.027 61.1037 159.497 61.1681 161.241C61.2951 162.942 61.6638 164.617 62.263 166.215C62.9715 168.67 62.0054 170.22 64.3884 171.189C66.7715 172.158 72.0529 172.739 73.9851 170.995C75.9173 169.251 73.5987 169.639 73.6631 164.471C73.7275 159.303 74.1139 145.866 73.9207 143.605C73.7803 142.194 73.9115 140.769 74.3071 139.406C74.4715 138.618 74.4715 137.805 74.3071 137.016C74.273 135.521 74.4026 134.026 74.6936 132.559C74.8868 131.267 74.758 129.975 73.9207 127.262C73.2773 125.194 73.1229 123.005 73.4698 120.867C73.6631 118.735 71.8597 95.8024 69.1545 91.0867L37.8527 89.4072Z" fill="#97B3D5"/>
<path d="M45.442 173.758C45.0032 173.763 44.5652 173.715 44.1384 173.612C41.2956 172.882 41.2751 171.632 41.2337 169.14L41.2228 168.549C41.1757 166.41 40.0624 161.31 39.3261 157.935C39.08 156.807 38.8797 155.889 38.7816 155.365C38.2486 152.515 37.1296 142.888 38.9168 136.274C40.0917 131.708 40.482 126.976 40.071 122.28C40.0424 121.777 40.0167 121.31 39.9996 120.881C39.872 117.694 38.5413 108.004 38.0706 104.836C37.7469 102.654 37.6546 97.5876 37.5808 93.5171C37.5508 91.8842 37.5246 90.4282 37.4875 89.4208L37.4723 89.019L69.3718 90.7305L69.4708 90.9027C72.2913 95.8198 74.0242 118.799 73.8338 120.9L73.8076 121.184C73.4991 123.183 73.6572 125.226 74.2698 127.153C75.0665 129.734 75.2716 131.163 75.0546 132.614L74.9847 133.075C74.7346 134.361 74.6294 135.672 74.671 136.982L74.7243 137.519C74.8378 138.172 74.8173 138.84 74.6643 139.484C74.6334 139.628 74.5977 139.775 74.5606 139.93C74.2455 141.117 74.1519 142.353 74.2845 143.574C74.4216 145.174 74.2769 152.042 74.1494 158.101C74.096 160.621 74.048 162.922 74.0285 164.475C73.945 165.953 74.2165 167.428 74.8204 168.779C75.2312 169.729 75.3778 170.231 74.2293 171.268C72.0956 173.193 66.5185 172.451 64.2515 171.53C62.4234 170.786 62.3335 169.651 62.2292 168.336C62.1949 167.654 62.0885 166.977 61.9118 166.317L61.5853 165.204C61.1324 163.933 60.8688 162.602 60.8028 161.254C60.7366 159.471 60.6762 144.964 60.8675 140.747C61.0727 136.214 60.7585 132.378 60.4606 131.83C60.28 131.375 60.2059 130.884 60.244 130.395C60.3096 129.722 60.1706 129.044 59.8452 128.451C59.2331 127.632 58.0366 123.451 57.4307 121.236C56.8997 123.965 56.5488 126.726 56.3803 129.501C56.3814 130.626 56.1029 131.733 55.5697 132.724C55.3744 133.341 55.2286 133.973 55.1338 134.613C54.7697 136.537 54.4727 137.941 53.9653 138.493C53.834 138.636 53.7102 138.758 53.5946 138.873C53.0482 139.413 52.774 139.685 52.774 141.151C52.774 143.051 52.7074 143.231 51.5951 146.238L51.3985 146.77C50.7669 148.479 51.0064 150.005 51.3095 151.938C51.7591 154.376 51.883 156.864 51.6779 159.335C51.1434 165.411 51.7117 166.368 52.4984 167.693L52.6598 167.967C53.5341 169.471 53.2971 170.105 53.0463 170.776C53.0134 170.863 52.9797 170.953 52.9482 171.047C52.6508 171.944 48.4381 173.758 45.442 173.758ZM38.2314 89.7959C38.2619 90.7745 38.2857 92.0707 38.3119 93.5038C38.3852 97.5532 38.477 102.593 38.794 104.727C39.2657 107.907 40.6012 117.635 40.7297 120.852C40.7468 121.278 40.773 121.741 40.8006 122.239C41.2177 127.014 40.8192 131.826 39.6221 136.467C37.8711 142.947 38.9753 152.422 39.5003 155.229C39.5974 155.748 39.7959 156.659 40.04 157.778C40.7826 161.181 41.9048 166.323 41.9538 168.531L41.9648 169.127C42.0052 171.572 42.0171 172.309 44.3193 172.9C46.9204 173.567 51.9178 171.427 52.2605 170.802C52.2895 170.711 52.3262 170.613 52.3619 170.517C52.5818 169.929 52.7274 169.54 52.0287 168.338L51.8707 168.07C51.0136 166.627 50.3943 165.583 50.9497 159.27C51.1485 156.859 51.0266 154.431 50.5871 152.052C50.2677 150.014 50.0155 148.404 50.7132 146.514L50.9098 145.983C52.0006 143.034 52.043 142.919 52.043 141.151C51.9681 140.634 52.024 140.107 52.2054 139.618C52.3868 139.129 52.6881 138.693 53.0815 138.35C53.1896 138.243 53.3057 138.128 53.4285 137.994C53.8331 137.555 54.1838 135.702 54.4156 134.475C54.5115 133.767 54.6791 133.07 54.9158 132.395C55.3914 131.52 55.6437 130.541 55.6502 129.545C55.586 128.445 56.4831 121.055 57.0995 119.682L57.5235 118.738L57.7863 119.739C58.5554 122.672 59.8942 127.294 60.4297 128.01C60.8567 128.725 61.0476 129.556 60.9751 130.386C60.9473 130.755 60.9904 131.126 61.1022 131.478C61.5534 132.308 61.7847 136.655 61.5977 140.78C61.4073 144.985 61.4677 159.449 61.5329 161.228C61.5971 162.514 61.851 163.783 62.2864 164.995L62.6143 166.112C62.8052 166.82 62.9204 167.546 62.9579 168.278C63.0598 169.566 63.1159 170.275 64.5257 170.848C67.0449 171.874 72.0252 172.272 73.741 170.721C74.5482 169.992 74.4954 169.87 74.1499 169.072C73.5068 167.625 73.2148 166.047 73.2974 164.466C73.3169 162.911 73.3655 160.608 73.4183 158.086C73.5392 152.344 73.6896 145.198 73.5564 143.637C73.415 142.337 73.5146 141.021 73.85 139.757C73.8857 139.609 73.92 139.468 73.9495 139.329C74.0877 138.761 74.1039 138.169 73.9971 137.594L73.9428 137.052C73.8939 135.681 74.0011 134.309 74.2622 132.962L74.3321 132.505C74.502 131.365 74.4325 130.16 73.5715 127.371C72.932 125.351 72.7638 123.211 73.0799 121.116L73.1056 120.833C73.3074 118.607 71.5188 96.4081 68.9315 91.4422L38.2314 89.7959Z" fill="#4E6393"/>
<path d="M42.4603 177.215C43.2266 176.314 44.5228 175.962 45.1307 174.742C45.6459 173.709 46.1612 173.063 48.9307 173.063C51.7002 173.063 52.4087 172.675 53.1816 174.355C53.9545 176.034 56.4019 179.135 58.2697 179.652C60.1375 180.168 60.0087 183.398 59.6223 183.915C59.2358 184.432 60.0087 185.078 56.3375 185.078H44.0365C42.7921 185.078 42.3928 183.945 42.2389 182.896C41.9604 181.506 41.837 180.09 41.871 178.672C41.9045 178.136 42.1113 177.624 42.4603 177.215Z" fill="#8C8C8C"/>
<path d="M51.0044 173.758C51.9358 173.758 52.1326 173.825 52.518 174.663C53.2835 176.326 55.867 179.749 58.0757 180.36C58.2531 180.418 58.4146 180.517 58.5478 180.647C58.681 180.778 58.7824 180.938 58.844 181.114C59.1431 181.864 59.2106 182.685 59.0379 183.474C58.9138 183.646 58.8252 183.842 58.7773 184.049C58.7719 184.069 58.7674 184.089 58.7615 184.108C57.9762 184.342 57.1531 184.422 56.3375 184.343H44.0365C43.7618 184.343 43.1903 184.343 42.9621 182.789L42.8743 182.208C42.6509 181.065 42.5586 179.9 42.5992 178.736C42.6193 178.352 42.7659 177.985 43.016 177.692C43.305 177.389 43.631 177.123 43.9866 176.901C44.7374 176.461 45.3578 175.829 45.7843 175.071C46.1667 174.304 46.4194 173.797 48.9307 173.797C49.43 173.797 49.8634 173.784 50.243 173.774C50.5263 173.766 50.7783 173.758 51.0044 173.758M51.0041 173.023C50.4738 173.023 49.8048 173.062 48.9307 173.062C46.1612 173.062 45.6459 173.708 45.1307 174.742C44.5228 175.961 43.2266 176.314 42.4603 177.215C42.1113 177.624 41.9045 178.136 41.871 178.672C41.837 180.089 41.9604 181.506 42.2389 182.896C42.3928 183.944 42.792 185.078 44.0365 185.078H56.3375C60.0087 185.078 59.2358 184.432 59.6222 183.915C60.0087 183.398 60.1375 180.168 58.2697 179.651C56.4019 179.135 53.9544 176.034 53.1815 174.355C53.047 173.903 52.7502 173.517 52.3482 173.271C51.9461 173.026 51.4674 172.937 51.0041 173.023H51.0041Z" fill="#424242"/>
<path d="M61.8121 179.07C62.1827 175.657 62.8426 172.675 63.8731 172.417C64.9037 172.158 64.646 176.486 66.7715 176.292C68.8969 176.099 69.1545 176.034 70.7003 174.355C72.2461 172.675 74.3071 171.383 76.0461 173.256C77.7851 175.13 81.1987 177.907 84.9987 178.23C88.7987 178.553 91.2462 179.393 90.7953 182.365C90.3445 185.336 86.8021 185.013 79.7817 185.013H65.4189C64.2595 185.013 61.1036 185.595 61.8121 179.07Z" fill="#8C8C8C"/>
<path d="M74.1403 173.068C74.4049 173.078 74.6643 173.145 74.9008 173.264C75.1374 173.383 75.3457 173.552 75.5116 173.758C76.5529 174.88 80.3101 178.57 84.9371 178.963C86.7437 179.116 88.9219 179.426 89.7373 180.465C89.9156 180.723 90.0376 181.016 90.0954 181.324C90.1532 181.632 90.1454 181.949 90.0727 182.254C89.8086 183.995 88.1287 184.289 83.2146 184.289C82.7231 184.289 82.2071 184.287 81.6665 184.284C81.0687 184.281 80.4404 184.28 79.7817 184.279H65.419C65.3319 184.279 65.2345 184.281 65.1288 184.285C65.0202 184.288 64.9015 184.292 64.7758 184.292C64.4836 184.321 64.1886 184.285 63.9116 184.187C63.6346 184.09 63.3824 183.933 63.1728 183.727C62.5132 182.988 62.2941 181.405 62.539 179.151C62.962 175.254 63.5422 173.858 63.8458 173.375C63.9195 173.58 63.9958 173.834 64.0549 174.032C64.4134 175.227 64.9551 177.033 66.6353 177.033C66.7011 177.033 66.7684 177.031 66.8376 177.024C69.1299 176.815 69.569 176.666 71.2371 174.854C72.3119 173.686 73.3158 173.068 74.1404 173.068M74.1404 172.334C72.7722 172.528 71.536 173.254 70.7004 174.355C69.1546 176.034 68.897 176.099 66.7716 176.293C66.725 176.297 66.6796 176.299 66.6353 176.299C64.7155 176.299 64.8698 172.406 63.9597 172.406C63.9305 172.406 63.9015 172.409 63.8733 172.417C62.8427 172.675 62.1829 175.657 61.8122 179.071C61.2109 184.608 63.393 185.027 64.7759 185.027C65.0224 185.027 65.2436 185.013 65.419 185.013H79.7818C81.0368 185.013 82.1797 185.024 83.2147 185.024C87.9689 185.024 90.4251 184.805 90.7954 182.365C91.2463 179.393 88.7988 178.554 84.9988 178.231C81.1988 177.908 77.7852 175.13 76.0462 173.257C75.813 172.975 75.5222 172.748 75.1934 172.588C74.8646 172.429 74.5056 172.342 74.1404 172.333L74.1404 172.334Z" fill="#424242"/>
<path d="M49.1239 44.8989C48.9811 41.6049 49.9612 40.4415 52.0222 40.377C52.8829 40.413 53.7199 40.6696 54.4529 41.1221C55.186 41.5745 55.7906 42.2077 56.2087 42.9609C56.7239 43.9299 58.2697 48.904 54.0188 47.8704C49.7679 46.8368 49.1883 46.3846 49.1239 44.8989Z" fill="#D1D1D1"/>
<path d="M55.0667 48.3784C54.684 48.3734 54.3032 48.3226 53.9325 48.2273C49.8708 47.2391 48.838 46.7464 48.759 44.9154C48.6742 42.9629 48.9698 41.6906 49.6885 40.9129C49.9927 40.6109 50.356 40.3748 50.7555 40.2194C51.155 40.0641 51.5823 39.9927 52.0106 40.0098C52.9379 40.0513 53.8393 40.328 54.6301 40.814C55.4209 41.3 56.0749 41.9793 56.5307 42.7879C56.9481 43.5723 57.8215 46.2872 56.7873 47.6303C56.5813 47.8837 56.3175 48.0838 56.0181 48.214C55.7187 48.3442 55.3924 48.4006 55.0667 48.3784ZM52.1392 40.7426C52.1039 40.7426 52.0687 40.7436 52.0335 40.7445C51.7022 40.7252 51.3705 40.7745 51.0592 40.8894C50.7479 41.0043 50.4637 41.1823 50.2244 41.4123C49.6552 42.0284 49.4148 43.1639 49.4891 44.883C49.539 46.0404 49.7623 46.4566 54.1048 47.5136C55.1381 47.7643 55.8458 47.6533 56.2095 47.1807C56.9586 46.2078 56.2732 43.8622 55.8863 43.1342C55.5104 42.4549 54.9708 41.8803 54.3164 41.4626C53.662 41.045 52.9136 40.7974 52.1392 40.7426Z" fill="#8C8C8C"/>
<path d="M70.7647 101.617C70.1851 104.847 69.1546 108.658 67.9952 110.144C66.8359 111.629 66.3206 113.955 69.1546 114.407C71.9885 114.859 74.6936 112.663 78.0427 106.978C81.3919 101.294 78.558 102.004 77.0766 100.777L70.7647 101.617Z" fill="white"/>
<path d="M69.8592 114.831C69.6039 114.831 69.3491 114.81 69.0972 114.77C68.6215 114.752 68.1601 114.603 67.7636 114.34C67.3671 114.076 67.0509 113.709 66.8497 113.277C66.7071 112.69 66.7107 112.076 66.8603 111.49C67.0099 110.904 67.3009 110.364 67.7079 109.917C68.8544 108.446 69.8777 104.492 70.4051 101.551L70.4526 101.287L77.1864 100.391L77.3087 100.493C77.6154 100.722 77.9506 100.909 78.3058 101.052C78.9631 101.351 79.6427 101.66 79.8883 102.442C80.1891 103.4 79.717 104.857 78.3572 107.166C75.2602 112.421 72.6044 114.831 69.8592 114.831ZM71.0766 101.945C70.4984 105.066 69.477 108.84 68.2828 110.37C67.9541 110.717 67.714 111.138 67.5829 111.598C67.4519 112.057 67.4339 112.541 67.5304 113.01C67.6932 113.316 67.9349 113.574 68.2305 113.756C68.5261 113.938 68.8649 114.037 69.2119 114.045C71.8943 114.467 74.5206 112.236 77.728 106.79C78.9393 104.735 79.4181 103.385 79.1911 102.663C79.0512 102.217 78.649 102.014 78.0046 101.721C77.642 101.571 77.2963 101.383 76.9732 101.161L71.0766 101.945Z" fill="#D1D1D1"/>
<path d="M61.6833 55.9455C60.9908 57.4382 60.7021 59.0865 60.846 60.7258C60.9104 62.7929 60.5883 65.3122 61.5544 66.6042C62.5205 67.8963 61.6188 71.4491 62.585 75.7773C63.5511 80.1054 63.7443 82.0433 65.5477 84.4981C67.3511 86.9528 67.6731 89.7306 68.1884 91.3455C68.7036 92.9605 69.7342 96.1904 69.4121 98.9036C69.0901 101.617 69.5409 103.619 71.8596 103.555C74.1783 103.49 80.5546 103.49 79.8461 99.6788C79.1376 95.8674 76.8833 86.1776 74.6291 82.3663C72.3749 78.555 72.246 76.0356 74.1138 72.8057C75.9816 69.5758 79.7173 66.6688 78.3003 63.1805C76.8833 59.6922 62.5205 53.6845 61.6833 55.9455Z" fill="#503D1C"/>
<path d="M71.752 103.923C71.3851 103.944 71.0181 103.885 70.6762 103.75C70.3342 103.615 70.0255 103.408 69.7712 103.143C69.0387 102.337 68.8026 100.936 69.0491 98.859C69.3614 96.2282 68.3352 93.0082 67.8421 91.4613C67.717 91.0691 67.6037 90.6157 67.4795 90.1154C67.1089 88.184 66.3517 86.3475 65.2534 84.7161C63.6704 82.5618 63.2949 80.8093 62.6138 77.6294C62.4968 77.0841 62.3711 76.4967 62.2283 75.8568C61.8458 73.9608 61.6703 72.0288 61.7048 70.095C61.6895 68.5777 61.6772 67.38 61.2621 66.8252C60.444 65.7298 60.4645 63.9361 60.484 62.2008C60.4897 61.7034 60.4954 61.2078 60.4806 60.7372C60.3363 59.0504 60.6327 57.355 61.3407 55.8172C61.5163 55.3427 62.0199 55.0959 62.8366 55.0825H62.9018C66.5866 55.0825 77.3297 59.8188 78.6386 63.0417C79.7466 65.7681 77.9522 68.1358 76.2169 70.4259C75.5702 71.2438 74.9734 72.1 74.4298 72.9897C72.634 76.0959 72.7682 78.5009 74.9433 82.1782C77.1717 85.9454 79.451 95.55 80.2054 99.6109C80.2976 100.009 80.2988 100.423 80.2091 100.821C80.1193 101.22 79.9409 101.593 79.6871 101.914C78.196 103.764 74.2718 103.861 72.1633 103.914L71.8696 103.922C71.8301 103.922 71.7906 103.923 71.752 103.923ZM62.9108 55.8172H62.848C62.3902 55.8248 62.0827 55.9205 62.026 56.0735C61.3488 57.5211 61.0678 59.1225 61.2117 60.7142C61.2265 61.1953 61.2207 61.7005 61.215 62.2094C61.1965 63.8213 61.1774 65.4887 61.8466 66.3832C62.4059 67.1313 62.4182 68.3711 62.4358 70.0873C62.4017 71.9696 62.5711 73.8501 62.9413 75.696C63.085 76.3379 63.2112 76.9282 63.3283 77.4744C63.9884 80.5547 64.352 82.2518 65.8417 84.2799C66.9944 85.9898 67.7924 87.9136 68.1886 89.9374C68.3086 90.4195 68.4171 90.8577 68.5366 91.2327C69.0473 92.8341 70.1062 96.1564 69.7755 98.946C69.5584 100.772 69.7388 102.018 70.3109 102.647C70.5104 102.847 70.7523 102.999 71.0187 103.093C71.2851 103.186 71.5691 103.218 71.8496 103.187L72.1452 103.179C73.9938 103.133 77.8404 103.037 79.1188 101.451C79.3057 101.214 79.436 100.937 79.4998 100.641C79.5635 100.345 79.5591 100.039 79.4867 99.7457C78.74 95.7259 76.493 86.2362 74.3151 82.5531C72.0077 78.652 71.8672 75.9601 73.7977 72.6204C74.3561 71.7042 74.9698 70.8228 75.6353 69.9811C77.3202 67.7569 78.9117 65.6571 77.9617 63.3191C76.8618 60.6108 66.5514 55.8172 62.9108 55.8172Z" fill="#231400"/>
<path d="M50.3477 36.178C50.1303 39.0127 50.9273 42.4441 52.8595 42.9609C54.7918 43.4777 59.5579 41.8627 59.5579 41.8627C59.2091 45.8378 59.1875 49.8348 59.4935 53.8134C60.0732 58.2707 60.3308 58.5937 65.0969 60.8547C69.2842 62.7855 73.6678 64.2583 78.1715 65.2474C79.7817 65.4412 79.4597 64.0846 79.2021 61.3715C78.9444 58.6583 79.0732 56.5266 77.8495 53.6842C76.6258 50.8419 79.7817 46.3846 80.7478 41.4751C81.7139 36.5656 83.4529 30.8163 78.3648 29.6536C73.2766 28.4908 69.0257 30.3641 66.1274 30.4287C63.2291 30.4933 61.8121 30.8809 57.8833 33.0127C53.9544 35.1444 50.4121 35.3382 50.3477 36.178Z" fill="#E9CA8F"/>
<path d="M78.4481 65.6332C78.3412 65.6325 78.2344 65.6255 78.1283 65.6122C73.5858 64.6166 69.1642 63.1329 64.9407 61.1868C60.0546 58.8689 59.7291 58.4575 59.1308 53.8609C58.8151 50.04 58.8214 46.1993 59.1498 42.3794C57.8343 42.7879 54.4094 43.7531 52.7659 43.3159C50.6446 42.7477 49.7494 39.1995 49.9831 36.1488C50.0335 35.4935 50.8807 35.2371 52.4185 34.7712C54.2503 34.2648 56.0238 33.5671 57.7096 32.6896C61.5667 30.5965 63.0602 30.1297 66.1192 30.0608C67.1905 29.9919 68.2545 29.8367 69.3009 29.5968C72.2907 28.8308 75.4119 28.7279 78.4457 29.2955C83.4142 30.431 82.3371 35.6064 81.3871 40.1724C81.291 40.6354 81.1953 41.0946 81.1063 41.5471C80.6834 43.4171 80.1027 45.248 79.3705 47.02C78.3629 49.6546 77.4924 51.9304 78.1849 53.5385C78.9808 55.4977 79.4062 57.5876 79.4395 59.7021C79.4752 60.2292 79.5124 60.7706 79.5661 61.337L79.6451 62.13C79.8141 63.7773 79.9164 64.7713 79.3762 65.3051C79.2515 65.4194 79.1051 65.5074 78.9456 65.5638C78.7861 65.6201 78.6169 65.6438 78.4481 65.6332ZM59.9699 41.3357L59.9218 41.8944C59.9156 41.969 59.2879 49.4001 59.8562 53.7652C60.4211 58.1121 60.5725 58.3016 65.253 60.5229C69.4046 62.4379 73.7505 63.8998 78.2155 64.8832C78.3245 64.9128 78.4386 64.9191 78.5502 64.9016C78.6618 64.8841 78.7685 64.8433 78.8632 64.7818C79.1531 64.4948 79.0494 63.4846 78.918 62.2056L78.838 61.4058C78.7838 60.8338 78.7466 60.2866 78.7105 59.7528C78.6848 57.7209 78.279 55.7118 77.5139 53.8293C76.7029 51.9467 77.6229 49.5416 78.6881 46.7569C79.4069 45.0243 79.9762 43.2333 80.3896 41.4036C80.4791 40.9492 80.5753 40.4871 80.6719 40.0222C81.5957 35.5806 82.5514 30.9868 78.2841 30.0111C75.3488 29.471 72.3312 29.5757 69.4405 30.3182C68.3536 30.5671 67.2483 30.7268 66.1355 30.7955C63.3474 30.8577 62.0276 31.181 58.0572 33.3363C56.3282 34.238 54.5089 34.9547 52.6295 35.4744C51.9541 35.617 51.3063 35.8684 50.7115 36.2187C50.5054 38.9489 51.3026 42.1641 52.9541 42.6061C54.7556 43.0825 59.3942 41.5299 59.4413 41.5146L59.9699 41.3357Z" fill="#A58346"/>
<path d="M35.4696 24.8731C35.0605 22.206 34.2459 17.3151 36.1137 15.8293C37.9815 14.3436 39.1408 13.31 39.3985 12.664C39.6561 12.018 43.0697 9.36947 47.9646 9.82166C52.8596 10.2738 53.1172 10.7906 55.4358 10.9198C57.7545 11.049 57.9477 13.2454 56.7883 14.7313C55.753 16.2206 54.6252 17.6434 53.4116 18.9914C51.7412 20.6518 49.5736 21.5413 47.4891 22.5463C45.1997 23.6923 42.8217 24.652 40.3781 25.416C39.266 25.7455 35.7744 26.8601 35.4696 24.8731Z" fill="#503D1C"/>
<path d="M37.2805 26.3941C36.7698 26.4181 36.2626 26.2985 35.8165 26.0487C35.6228 25.9264 35.4588 25.7625 35.3363 25.5689C35.2138 25.3753 35.1359 25.1569 35.1083 24.9295L35.0721 24.6951C34.6357 21.8606 33.9056 17.1167 35.8865 15.5411C37.3138 14.4056 38.8069 13.16 39.0591 12.5277C39.3661 11.7576 42.8658 8.98435 47.9979 9.45597C49.7054 9.59031 51.4019 9.83993 53.0758 10.2031C53.8575 10.3889 54.6539 10.506 55.456 10.5532C55.9078 10.5415 56.3536 10.6587 56.7411 10.8912C57.1287 11.1236 57.442 11.4617 57.6444 11.8657C57.8336 12.3852 57.8807 12.9457 57.7807 13.4895C57.6807 14.0332 57.4373 14.5404 57.0757 14.9585C56.7339 15.3967 56.4051 15.8472 56.0757 16.2978C55.3519 17.3444 54.547 18.3324 53.6684 19.2528C52.1381 20.6186 50.384 21.7104 48.4829 22.4805L47.6472 22.8775C45.339 24.0298 42.9429 24.9965 40.4813 25.7684L40.3599 25.8048C39.365 26.1404 38.329 26.3386 37.2805 26.3941ZM35.8308 24.8166C35.8428 24.9405 35.8831 25.06 35.9484 25.1659C36.0137 25.2719 36.1024 25.3615 36.2077 25.4279C37.1173 26.0057 39.3219 25.3485 40.1519 25.1007L40.2747 25.0643C42.6983 24.3023 45.0578 23.3497 47.3311 22.2155L48.1716 21.8156C49.9958 21.078 51.6809 20.0347 53.1543 18.7305C54.0049 17.8367 54.7846 16.8782 55.4865 15.8634C55.8206 15.4062 56.1542 14.9489 56.5007 14.505C56.7767 14.1909 56.966 13.8101 57.0498 13.4004C57.1336 12.9907 57.1091 12.5662 56.9786 12.1689C56.8293 11.888 56.6027 11.6556 56.3257 11.4992C56.0487 11.3427 55.7327 11.2687 55.4151 11.2859C54.576 11.2377 53.7427 11.1157 52.925 10.9215C51.2788 10.5648 49.6104 10.3194 47.9313 10.1868C43.1756 9.75725 39.9277 12.3583 39.7378 12.8013C39.4765 13.4566 38.5556 14.3558 36.3405 16.117C34.6933 17.4276 35.4095 22.0826 35.7946 24.5832L35.8308 24.8166Z" fill="#231400"/>
<path d="M38.1096 89.8878C38.0489 89.8877 37.9893 89.8726 37.9359 89.8438C36.0982 88.8432 36.1011 86.8611 36.1025 85.9092C36.1062 84.5466 35.7891 83.2023 35.1768 81.9851C34.8772 81.443 34.518 80.936 34.1059 80.4736C33.378 79.7823 32.9211 78.8537 32.8175 77.8553C32.7685 76.2252 32.7704 76.0664 32.8665 73.6145C33.0294 72.1171 33.3489 70.6409 33.8198 69.2102C34.4279 67.3166 34.8369 65.3647 35.0402 63.3862C35.2342 60.6741 35.9162 58.0193 37.0535 55.5495C37.0733 55.5057 37.1016 55.4663 37.1367 55.4335C37.1718 55.4007 37.213 55.3752 37.258 55.3583C37.3029 55.3414 37.3508 55.3336 37.3988 55.3352C37.4468 55.3368 37.494 55.3478 37.5378 55.3677C37.5815 55.3876 37.6209 55.4159 37.6537 55.4509C37.6865 55.486 37.7121 55.5272 37.7289 55.5722C37.7458 55.6172 37.7537 55.665 37.7521 55.713C37.7504 55.7611 37.7394 55.8083 37.7195 55.852L37.7179 55.8556C36.6189 58.2416 35.9591 60.8062 35.7703 63.4264C35.5655 65.4592 35.1475 67.4648 34.5233 69.4101C34.0708 70.7858 33.7602 72.2043 33.5966 73.6432C33.5019 76.0702 33.5 76.2271 33.5485 77.8323C33.6577 78.6638 34.0532 79.4313 34.667 80.0029C35.1138 80.5063 35.5027 81.0582 35.8264 81.6483C36.4833 82.9477 36.8281 84.3824 36.8336 85.8384C36.8322 86.7826 36.8298 88.406 38.2843 89.1971C38.3559 89.2362 38.4125 89.298 38.4452 89.3728C38.4779 89.4476 38.4847 89.5311 38.4647 89.6102C38.4447 89.6893 38.399 89.7595 38.3347 89.8098C38.2704 89.8601 38.1912 89.8875 38.1096 89.8878H38.1096Z" fill="#B1B1B1"/>
<path d="M61.2324 68.219C61.2324 66.7979 63.3578 63.8909 65.3545 63.2449C67.3511 62.5989 69.9918 63.0511 70.9579 64.2139C71.924 65.3767 73.1477 66.5395 73.985 66.6687C74.8223 66.7979 77.141 67.1209 77.2054 69.8986C77.2698 72.6763 76.9478 74.9373 74.0494 74.8727C71.1511 74.8081 71.2155 76.3585 68.7037 76.1C66.1918 75.8416 61.4256 75.3895 61.4256 72.0303C61.4256 68.6712 61.2324 69.5756 61.2324 68.219Z" fill="white"/>
<path d="M69.2371 76.496C69.0465 76.4956 68.856 76.4854 68.6664 76.4654C65.9545 76.187 61.0603 75.6848 61.0603 72.0305C61.0984 71.0905 61.057 70.149 60.9365 69.2161C60.8819 68.8867 60.8586 68.553 60.8671 68.2192C60.8671 66.6045 63.1297 63.5786 65.2424 62.8946C67.3819 62.2021 70.1838 62.71 71.2384 63.9785C71.9371 65.0004 72.9078 65.8063 74.0408 66.305C74.919 66.4409 77.5 66.8379 77.571 69.8895C77.6114 71.643 77.5115 73.4042 76.5153 74.4058C76.184 74.7099 75.7927 74.9412 75.3666 75.0849C74.9405 75.2286 74.4891 75.2814 74.0413 75.24C73.1155 75.1852 72.1946 75.4102 71.3984 75.8857C70.7475 76.2834 69.9998 76.4945 69.2371 76.496ZM67.3438 63.3156C66.7072 63.311 66.0738 63.4053 65.4661 63.5949C63.5476 64.2148 61.5981 67.0101 61.5981 68.2192C61.5901 68.5145 61.6103 68.8099 61.6585 69.1013C61.7867 70.0721 61.8311 71.0521 61.7913 72.0305C61.7913 75.0209 66.2581 75.4801 68.6578 75.7259C69.4913 75.8554 70.3436 75.6812 71.0595 75.2352C71.968 74.709 73.0088 74.4557 74.0575 74.5053C74.4062 74.5435 74.7591 74.5082 75.0934 74.4018C75.4277 74.2954 75.736 74.1201 75.9984 73.8873C76.8004 73.0799 76.877 71.4976 76.8399 69.9067C76.7837 67.4702 74.8052 67.166 73.9604 67.0359C72.8238 66.8608 71.4173 65.3407 70.6773 64.4491C70.2247 64.0483 69.6969 63.7416 69.1246 63.547C68.5522 63.3524 67.9468 63.2737 67.3438 63.3156Z" fill="#D1D1D1"/>
<path d="M74.1783 67.4436C75.7241 66.8622 77.463 66.1516 78.4292 67.5728C79.3835 69.2809 79.7244 71.2642 79.3953 73.1929C79.0732 74.8078 75.9173 77.521 72.8901 77.1334C69.863 76.7458 74.1783 67.4436 74.1783 67.4436Z" fill="#E6E6E6"/>
<path d="M73.4759 77.5379C73.2646 77.5382 73.0535 77.5251 72.8438 77.4987C72.6118 77.4739 72.3895 77.3926 72.1963 77.2618C72.0031 77.1311 71.845 76.9549 71.7358 76.7487C70.5369 74.5618 73.505 68.0261 73.8471 67.2886L73.9104 67.1518L74.1898 67.0465C75.7233 66.4697 77.6314 65.7503 78.7308 67.366C79.7376 69.1573 80.0987 71.2399 79.7536 73.2656C79.4038 75.02 76.4315 77.5379 73.4759 77.5379ZM74.4473 67.7343C73.5282 69.7499 71.5312 74.8526 72.3764 76.3937C72.43 76.4989 72.5095 76.5887 72.6074 76.6545C72.7054 76.7203 72.8186 76.7599 72.9362 76.7697C75.7524 77.1361 78.7537 74.5436 79.0369 73.1211C79.3438 71.2895 79.0233 69.4079 78.1273 67.7812C77.4063 66.7184 76.2012 67.0742 74.4473 67.7343Z" fill="#B1B1B1"/>
<path d="M73.9205 42.1011C73.8251 42.1009 73.7335 42.0635 73.6653 41.9969C73.597 41.9302 73.5575 41.8396 73.5549 41.7443C73.4279 37.4586 73.4902 30.5593 73.4907 30.4895C73.4926 30.2876 73.6301 30.1604 73.8595 30.126C73.9568 30.1272 74.0495 30.167 74.1174 30.2366C74.1853 30.3062 74.2229 30.3999 74.2218 30.4971C74.2213 30.566 74.1589 37.4509 74.286 41.7233C74.2875 41.7714 74.2796 41.8193 74.2626 41.8643C74.2456 41.9093 74.2199 41.9506 74.187 41.9857C74.154 42.0207 74.1145 42.049 74.0707 42.0688C74.0268 42.0886 73.9795 42.0996 73.9314 42.1011L73.9205 42.1011Z" fill="#A58346"/>
<path d="M59.4939 42.6819C59.4791 42.6818 59.4643 42.6809 59.4497 42.679C59.3532 42.6671 59.2655 42.6173 59.2057 42.5407C59.1459 42.4641 59.1189 42.3669 59.1308 42.2705C59.1351 42.2332 59.582 38.5128 59.7086 36.9239C59.7176 36.8276 59.7637 36.7386 59.8372 36.6758C59.9106 36.6129 60.0057 36.5811 60.1022 36.5871C60.1992 36.5953 60.2889 36.6416 60.3518 36.7158C60.4147 36.79 60.4456 36.8862 60.4377 36.9832C60.3092 38.5865 59.8609 42.3212 59.8561 42.3585C59.8457 42.4474 59.8031 42.5293 59.7364 42.5889C59.6696 42.6485 59.5834 42.6815 59.4939 42.6819Z" fill="#A58346"/>
<path d="M57.3684 120.588C57.3556 120.588 57.3432 120.587 57.3304 120.586C57.2336 120.576 57.145 120.527 57.0839 120.452C57.0228 120.376 56.9942 120.279 57.0043 120.182C57.3908 116.435 58.2285 109.067 58.2285 109.067L58.9548 109.152C58.9548 109.152 58.1181 116.514 57.7316 120.259C57.7224 120.349 57.6802 120.432 57.6131 120.493C57.5461 120.554 57.4589 120.588 57.3684 120.588Z" fill="#4E6393"/>
<path d="M120.938 78.9424C115.334 85.2407 113.306 86.1128 111.373 89.9888C109.441 93.8647 109.151 99.6785 108.765 104.136C108.171 110.556 106.875 116.893 104.9 123.031C102.485 130.492 99.9733 134.659 106.35 137.372C112.726 140.085 123.257 144.93 134.753 144.348C146.25 143.767 143.641 142.217 142.965 138.825C141.638 133.168 141.771 127.266 143.352 121.674C145.574 113.826 147.313 90.2794 144.511 81.8493L120.938 78.9424Z" fill="#EBC5C4"/>
<path d="M132.823 144.764C122.666 144.764 113.512 140.84 107.33 138.19L106.207 137.711C100.334 135.21 101.649 131.396 103.641 125.622C103.934 124.771 104.244 123.872 104.553 122.918C106.523 116.807 107.813 110.498 108.401 104.104L108.519 102.684C108.859 98.5311 109.282 93.3633 111.046 89.8238C112.283 87.3433 113.575 86.0499 115.715 83.9089C116.991 82.6318 118.579 81.0429 120.665 78.6972L120.793 78.5537L120.983 78.5776L144.784 81.5126L144.857 81.7326C147.755 90.4494 145.837 114.237 143.703 121.774C142.147 127.312 142.016 133.152 143.324 138.754C143.425 139.227 143.552 139.693 143.705 140.152C144.02 141.161 144.293 142.033 143.774 142.782C143.12 143.728 141.386 144.381 134.772 144.715C134.118 144.748 133.469 144.764 132.823 144.764ZM121.083 79.3305C119.045 81.613 117.487 83.1723 116.231 84.4293C114.072 86.5894 112.884 87.7795 111.7 90.1529C110 93.5652 109.583 98.6545 109.248 102.744L109.129 104.168C108.537 110.617 107.235 116.981 105.248 123.145C104.938 124.104 104.626 125.009 104.331 125.862C102.343 131.627 101.248 134.802 106.492 137.034L107.617 137.515C114.13 140.307 123.971 144.528 134.735 143.981C140.051 143.713 142.575 143.229 143.174 142.363C143.474 141.931 143.315 141.355 143.007 140.373C142.847 139.889 142.713 139.396 142.607 138.897C141.274 133.182 141.409 127.222 143 121.573C145.097 114.168 146.992 90.9622 144.235 82.185L121.083 79.3305Z" fill="#BD716D"/>
<path d="M118.812 168.185C116.765 168.087 116.397 168.282 116.494 170.123C116.59 171.964 115.914 173.999 114.078 178.263C112.243 182.526 113.692 185.142 116.977 185.142C120.262 185.142 123.933 185.239 123.836 181.073C123.714 177.788 124.171 174.508 125.189 171.383C125.962 169.154 125.382 164.406 123.45 165.957C121.517 167.507 120.841 168.282 118.812 168.185Z" fill="#D1D1D1"/>
<path d="M124.158 166.387C124.636 166.609 125.117 169.358 124.498 171.141C123.447 174.348 122.975 177.717 123.105 181.09C123.15 181.496 123.112 181.906 122.993 182.297C122.875 182.687 122.678 183.049 122.415 183.362C121.398 184.408 119.19 184.408 117.415 184.408H116.977C116.495 184.448 116.01 184.367 115.567 184.173C115.124 183.979 114.736 183.678 114.438 183.297C113.765 182.268 113.876 180.584 114.749 178.554C116.549 174.376 117.333 172.161 117.224 170.085C117.177 169.185 117.279 169.028 117.3 169.006C117.304 169.002 117.408 168.9 118.101 168.9C118.302 168.9 118.527 168.907 118.778 168.919C118.903 168.925 119.023 168.928 119.139 168.928C120.968 168.928 121.847 168.21 123.303 167.021C123.491 166.867 123.69 166.704 123.906 166.531C123.977 166.464 124.064 166.414 124.158 166.387M124.163 165.652C123.898 165.669 123.646 165.777 123.45 165.957C121.625 167.421 120.92 168.194 119.139 168.194C119.034 168.194 118.925 168.191 118.812 168.186C118.548 168.173 118.312 168.165 118.101 168.165C116.678 168.165 116.41 168.52 116.494 170.124C116.59 171.965 115.914 173.999 114.078 178.263C112.243 182.526 113.692 185.143 116.977 185.143H117.415C120.58 185.143 123.928 185.055 123.836 181.073C123.714 177.789 124.171 174.508 125.189 171.383C125.856 169.458 125.514 165.652 124.163 165.652L124.163 165.652Z" fill="#8C8C8C"/>
<path d="M142.579 166.247C140.3 166.969 139.294 168.476 140.26 170.414C141.226 172.352 141.999 175.356 141.419 177.39C140.84 179.425 138.134 185.045 144.318 185.045C150.501 185.045 151.274 182.623 149.921 172.449C148.568 162.274 144.414 165.666 142.579 166.247Z" fill="#D1D1D1"/>
<path d="M145.795 165.975C147.472 165.975 148.617 168.186 149.196 172.546C149.931 178.072 150.098 181.568 148.778 183.083C148.029 183.944 146.695 184.311 144.318 184.311C142.87 184.311 141.902 183.983 141.44 183.335C140.598 182.154 141.346 179.934 141.842 178.464C141.953 178.133 142.052 177.838 142.122 177.593C142.759 175.358 141.974 172.212 140.914 170.085C140.765 169.839 140.672 169.563 140.642 169.276C140.612 168.99 140.646 168.701 140.741 168.43C140.962 168.053 141.259 167.727 141.613 167.472C141.968 167.217 142.371 167.038 142.798 166.948C143.095 166.846 143.387 166.729 143.671 166.597C144.331 166.251 145.053 166.039 145.795 165.975M145.795 165.24C144.675 165.396 143.588 165.736 142.579 166.247C140.3 166.969 139.294 168.476 140.26 170.414C141.226 172.352 141.999 175.356 141.419 177.39C140.84 179.425 138.135 185.045 144.318 185.045C150.501 185.045 151.274 182.623 149.921 172.448C149.145 166.613 147.448 165.24 145.795 165.24L145.795 165.24Z" fill="#8C8C8C"/>
<path d="M150.245 71.2488C147.152 76.6836 151.152 86.1017 143.152 84.1669C139.788 83.3386 136.378 82.7115 132.939 82.2888C130.131 81.9474 127.209 82.0896 124.428 81.3783C122.907 80.9677 121.418 80.4446 119.975 79.8134C118.925 71.1066 119.435 55.2864 122.301 51.1038C125.649 46.1813 147.011 43.4783 152.571 48.9129C152.571 48.9129 145.876 48.2585 147.663 59.8959C149.479 71.505 151.408 65.8428 153.082 63.7657C153.082 63.7657 153.337 65.8428 150.245 71.2488Z" fill="#DB9D99"/>
<path d="M145.047 84.7917C144.379 84.7805 143.714 84.6906 143.067 84.5239C139.718 83.6968 136.322 83.0726 132.898 82.6546C131.888 82.5312 130.842 82.47 129.83 82.4117C127.982 82.3621 126.143 82.1353 124.339 81.7344C122.799 81.3189 121.292 80.7897 119.83 80.1511L119.637 80.067L119.612 79.8575C118.572 71.2325 118.994 55.2825 121.999 50.8954C123.85 48.1748 130.509 46.3686 136.288 45.787C142.251 45.1834 149.728 45.6215 152.826 48.6502L153.565 49.3725L152.537 49.2787C151.951 49.2603 151.368 49.368 150.828 49.5947C150.288 49.8213 149.803 50.1615 149.406 50.5922C147.831 52.2778 147.354 55.4748 148.024 59.8399C148.912 65.5166 149.761 66.5182 150.188 66.61C150.679 66.7335 151.424 65.5683 151.968 64.7302C152.253 64.2911 152.522 63.8759 152.797 63.5344L153.339 62.8629L153.444 63.721C153.455 63.8109 153.678 65.9825 150.562 71.4314C149.473 73.3447 149.291 75.8597 149.129 78.0791C148.943 80.6323 148.768 83.045 147.249 84.1594C146.603 84.6034 145.83 84.8253 145.047 84.7917ZM120.313 79.559C121.679 80.1468 123.086 80.6363 124.522 81.0235C126.281 81.4106 128.072 81.6297 129.872 81.6779C130.895 81.7372 131.953 81.7994 132.983 81.9248C136.436 82.3463 139.86 82.9757 143.237 83.8093C144.882 84.2073 146.053 84.1279 146.818 83.5664C148.063 82.6519 148.219 80.5081 148.4 78.0256C148.567 75.7278 148.757 73.1238 149.928 71.0661H149.928C151.035 69.2495 151.9 67.2957 152.501 65.2545C151.756 66.3987 150.982 67.5256 150.035 67.3285C149.227 67.1544 148.27 66.1423 147.302 59.9538C146.584 55.2797 147.117 51.9564 148.885 50.0766C149.612 49.2969 150.577 48.7793 151.629 48.6044C148.375 46.275 141.75 45.9765 136.361 46.5179C129.725 47.1866 124.067 49.1573 122.602 51.3116C119.815 55.3791 119.307 70.9024 120.313 79.559Z" fill="#944A45"/>
<path d="M149.986 48.3874C153.592 48.9041 155.009 50.7129 157.586 54.9764C160.162 59.2399 166.474 70.6093 167.633 72.9348C168.792 75.2604 170.081 77.3275 168.02 80.0407C165.959 82.7538 161.45 89.8597 155.653 94.2523C149.857 98.645 149.857 99.0326 145.735 98.5159C141.613 97.9991 139.294 100.066 137.748 95.4151C136.202 90.764 136.46 90.764 140.711 89.8597C144.962 88.9553 146.765 92.1852 148.44 91.9268C150.114 91.6684 152.433 87.5341 154.365 85.0794C156.297 82.6246 159.775 78.1027 159.775 78.1027C159.775 78.1027 154.236 69.0589 151.274 67.3793C151.274 67.3793 144.575 69.5757 145.091 58.5939C145.606 47.6122 149.986 48.3874 149.986 48.3874Z" fill="white"/>
<path d="M147.877 99.0571C147.145 99.0426 146.414 98.9835 145.689 98.8802C144.669 98.7719 143.642 98.7639 142.62 98.8563C140.37 98.9997 138.591 99.1117 137.401 95.5319C136.578 93.0524 136.265 91.8805 136.734 91.0568C137.206 90.2293 138.306 89.9949 140.498 89.5291L140.635 89.4994C141.66 89.2929 142.717 89.3042 143.737 89.5328C144.758 89.7614 145.718 90.2021 146.557 90.8263C147.299 91.2807 147.88 91.6442 148.384 91.5629C149.443 91.4003 151.013 89.1522 152.399 87.1681C152.959 86.3665 153.539 85.5371 154.079 84.8512C155.766 82.7064 158.635 78.9841 159.331 78.0791C158.486 76.7265 153.845 69.413 151.222 67.7753C150.531 67.9552 149.81 67.9806 149.109 67.8494C148.408 67.7183 147.744 67.4339 147.166 67.0167C145.349 65.6248 144.528 62.7855 144.725 58.5763C145.02 52.3103 146.592 49.781 147.859 48.7632C148.154 48.5009 148.5 48.3004 148.874 48.1734C149.249 48.0464 149.645 47.9955 150.039 48.0237C153.779 48.5603 155.306 50.4966 157.898 54.7861C160.523 59.1302 166.8 70.4424 167.96 72.7698L168.19 73.2262C169.264 75.3499 170.374 77.5463 168.31 80.2632C167.948 80.7405 167.51 81.3537 167.002 82.0645C164.641 85.3668 160.69 90.8952 155.873 94.5457L154.364 95.6955C151.001 98.2679 149.969 99.0571 147.877 99.0571ZM144.209 98.0574C144.734 98.0558 145.259 98.0871 145.78 98.1512C149.36 98.5979 149.617 98.4038 153.921 95.111L155.433 93.9583C160.161 90.3757 164.072 84.9047 166.408 81.6359C166.921 80.9184 167.363 80.2985 167.729 79.8173C169.515 77.4669 168.598 75.656 167.538 73.559L167.306 73.0989C166.15 70.78 159.892 59.5013 157.273 55.1668C154.751 50.993 153.381 49.2443 149.934 48.7507L149.925 48.7497C149.625 48.7348 149.324 48.7813 149.042 48.8864C148.76 48.9915 148.503 49.153 148.286 49.361C147.148 50.2956 145.735 52.6595 145.456 58.6107C145.27 62.5587 145.993 65.1885 147.602 66.4273C148.114 66.7846 148.698 67.0239 149.314 67.1281C149.929 67.2324 150.56 67.1988 151.161 67.03L151.313 66.9802L151.453 67.0596C154.463 68.7662 159.859 77.5366 160.087 77.9097L160.219 78.1259L160.065 78.3268C160.065 78.3268 156.585 82.8507 154.652 85.3064C154.125 85.9761 153.577 86.7605 152.997 87.5908C151.384 89.8982 149.862 92.0783 148.495 92.2898C147.649 92.2881 146.829 91.9925 146.177 91.4537C145.417 90.8768 144.544 90.4683 143.615 90.2553C142.685 90.0424 141.721 90.0299 140.786 90.2187L140.649 90.2474C138.796 90.6415 137.678 90.8797 137.369 91.4221C137.038 92.0037 137.422 93.2741 138.095 95.2984C139.106 98.3433 140.337 98.2649 142.575 98.1233C143.08 98.0919 143.623 98.0574 144.209 98.0574Z" fill="#D1D1D1"/>
<path d="M151.595 67.8757C151.512 67.8754 151.431 67.8467 151.366 67.7943C151.302 67.742 151.257 67.6691 151.239 67.5877C150.569 65.3524 149.717 63.1757 148.691 61.0798C148.648 60.9922 148.642 60.8915 148.674 60.7995C148.705 60.7076 148.772 60.6319 148.859 60.589C148.902 60.5678 148.948 60.5551 148.996 60.5517C149.043 60.5483 149.09 60.5543 149.135 60.5693C149.18 60.5843 149.222 60.608 149.258 60.6391C149.294 60.6702 149.323 60.708 149.344 60.7505L149.348 60.7583C150.403 62.9044 151.274 65.1359 151.953 67.4289C151.974 67.5238 151.957 67.6232 151.905 67.7054C151.852 67.7875 151.77 67.8457 151.675 67.8671C151.649 67.8728 151.622 67.8757 151.595 67.8757Z" fill="#D1D1D1"/>
<path d="M113.918 50.5835C112.068 49.7275 111.47 50.2605 110.44 51.3587C109.409 52.4569 108.056 53.6196 107.67 55.17C107.244 56.6696 106.497 58.0584 105.48 59.2397C104.901 59.7565 104.643 61.3715 104.643 62.8572C104.643 64.343 104.385 66.4102 104.192 68.2835C103.999 70.1569 102.84 76.1646 105.351 76.1646C107.863 76.1646 108.25 73.3222 112.114 74.6788C115.979 76.0354 121.389 78.1025 122.741 76.6813C123.235 76.1547 123.574 75.5026 123.722 74.7962C123.869 74.0898 123.82 73.3564 123.579 72.6762C123.459 71.5391 123.416 70.3953 123.45 69.2525C123.321 67.5729 123.45 53.7488 123.965 52.0047C124.48 50.2605 120.809 52.0047 119.457 51.7463C117.588 51.4732 115.738 51.0849 113.918 50.5835Z" fill="#C2D3E6"/>
<path d="M121.149 77.5225C119.044 77.5225 115.81 76.3764 112.861 75.3318L111.993 75.0247C111.327 74.7141 110.586 74.6007 109.858 74.6978C109.129 74.7949 108.444 75.0986 107.883 75.5729C107.165 76.1579 106.276 76.4946 105.351 76.5324C105.12 76.5379 104.89 76.4916 104.679 76.3969C104.468 76.3022 104.281 76.1616 104.132 75.9852C102.988 74.6736 103.445 71.2058 103.718 69.1338C103.764 68.7846 103.804 68.4824 103.829 68.2451L103.938 67.2062C104.105 65.6565 104.277 64.0531 104.277 62.8573C104.277 62.1446 104.346 59.7597 105.237 58.9657C106.2 57.8347 106.909 56.5098 107.315 55.0809C107.781 53.7477 108.589 52.5608 109.66 51.6398C109.835 51.459 110.009 51.2821 110.173 51.107C111.252 49.9552 112.017 49.2989 114.07 50.2498C115.468 50.6582 116.893 50.9663 118.335 51.172C118.8 51.2533 119.214 51.326 119.524 51.3853C120.188 51.3977 120.849 51.3126 121.488 51.1328C122.681 50.8745 123.713 50.6506 124.176 51.1529C124.284 51.2846 124.354 51.4431 124.378 51.6115C124.403 51.7798 124.381 51.9516 124.315 52.1086C123.813 53.8104 123.689 67.5945 123.814 69.2246C123.858 69.8215 123.866 70.4205 123.837 71.0183C123.793 71.5448 123.826 72.075 123.934 72.592C124.189 73.3319 124.237 74.1274 124.074 74.8927C123.91 75.658 123.541 76.3642 123.005 76.9351C122.751 77.1526 122.456 77.3166 122.137 77.4176C121.818 77.5185 121.482 77.5542 121.149 77.5225ZM110.226 73.9447C110.913 73.9592 111.592 74.0899 112.234 74.3312L113.104 74.6392C116.403 75.8073 121.387 77.5732 122.477 76.4281C122.927 75.9447 123.235 75.3464 123.366 74.6992C123.498 74.052 123.448 73.3811 123.222 72.7604C123.099 72.1797 123.06 71.5843 123.106 70.9925C123.134 70.4221 123.127 69.8506 123.085 69.2811C122.968 67.7582 123.065 53.7607 123.615 51.9C123.666 51.7269 123.646 51.658 123.64 51.6523C123.462 51.4552 122.278 51.7135 121.641 51.8513C120.911 52.0657 120.148 52.1521 119.388 52.1067C119.081 52.0483 118.67 51.9766 118.209 51.8953C116.703 51.6937 115.217 51.3667 113.765 50.9176C112.083 50.138 111.653 50.6019 110.705 51.6102C110.537 51.79 110.361 51.9708 110.181 52.1545C109.205 52.9843 108.462 54.0542 108.024 55.2588C107.579 56.8294 106.794 58.2826 105.723 59.5148C105.302 59.8898 105.008 61.2645 105.008 62.8573C105.008 64.0923 104.834 65.7158 104.666 67.2856L104.556 68.3216C104.531 68.5636 104.49 68.8736 104.443 69.2304C104.203 71.0509 103.756 74.4402 104.681 75.5011C104.763 75.5984 104.866 75.6757 104.982 75.7271C105.098 75.7785 105.224 75.8026 105.351 75.7977C106.131 75.7571 106.877 75.464 107.476 74.9625C108.258 74.3329 109.223 73.9756 110.226 73.9447Z" fill="#6E8CBB"/>
<path d="M114.29 67.0892C114.178 67.0896 114.066 67.0774 113.956 67.0529C113.757 67.0101 113.572 66.9187 113.416 66.7868C113.261 66.6549 113.141 66.4867 113.066 66.2971C112.874 65.8465 112.604 65.0516 112.261 64.0442C111.902 62.9881 111.494 61.7904 111.064 60.6626L111.747 60.4004C112.182 61.5407 112.591 62.7442 112.953 63.807C113.277 64.7598 113.557 65.5825 113.738 66.0063C113.768 66.0891 113.818 66.1629 113.884 66.2207C113.95 66.2785 114.029 66.3183 114.115 66.3363C114.327 66.3564 114.541 66.3316 114.742 66.2635C114.944 66.1955 115.129 66.0856 115.285 65.9412C116.991 65.013 118.819 64.33 120.715 63.9122C121.019 63.8873 121.111 63.7888 121.154 63.7171C121.26 63.5391 121.347 63.0235 120.731 61.5809C119.772 59.3347 119.055 57.3162 119.048 57.2962L119.737 57.0493C119.743 57.0694 120.453 59.0678 121.403 61.291C121.987 62.6581 122.107 63.5496 121.78 64.0959C121.671 64.2634 121.523 64.4013 121.347 64.4971C121.172 64.5929 120.975 64.6437 120.775 64.645C119.038 65.0528 117.357 65.6726 115.771 66.4904C115.362 66.8563 114.839 67.0681 114.29 67.0892Z" fill="#6E8CBB"/>
<path d="M114.69 66.6042C115.351 67.6182 116.246 68.4585 117.3 69.0543C118.354 69.6502 119.535 69.9841 120.745 70.0279C123.901 70.0925 124.545 67.5731 124.416 65.3122C124.264 63.6624 123.918 62.0362 123.385 60.4673C122.457 62.3876 120.816 63.8705 118.812 64.6016C115.657 65.5706 114.69 66.6042 114.69 66.6042Z" fill="white"/>
<path d="M120.861 70.3966C120.82 70.3966 120.779 70.3966 120.737 70.3957C119.47 70.3576 118.23 70.0124 117.125 69.3897C116.021 68.767 115.084 67.8855 114.395 66.8207L114.216 66.5749L114.424 66.3529C114.466 66.308 115.494 65.2365 118.706 64.2503C120.606 63.5458 122.162 62.1373 123.052 60.3166L123.428 59.4814L123.73 60.3462C124.277 61.9467 124.629 63.6068 124.781 65.2911C124.871 66.0072 124.819 66.7341 124.627 67.4299C124.435 68.1256 124.106 68.7763 123.661 69.3443C123.293 69.7044 122.854 69.9839 122.372 70.165C121.89 70.3462 121.376 70.4251 120.861 70.3966ZM115.19 66.661C115.819 67.5599 116.65 68.2993 117.616 68.8202C118.581 69.3411 119.656 69.629 120.752 69.661C121.185 69.7012 121.622 69.6482 122.033 69.5056C122.444 69.3631 122.819 69.1342 123.135 68.8345C123.888 67.833 124.217 66.5753 124.051 65.3332C123.939 63.9972 123.685 62.677 123.293 61.3947C122.303 63.0618 120.753 64.3228 118.919 64.9524C117.588 65.305 116.326 65.8829 115.19 66.661Z" fill="#D1D1D1"/>
<path d="M37.595 37.5344C38.1747 34.6275 39.5529 30.9711 37.7238 29.1366C37.6594 29.072 33.8594 25.4545 35.6628 23.1935C37.4661 20.9326 39.2035 22.1582 40.4289 23.3873C41.1374 24.0979 41.9103 22.9997 41.5882 21.9015C41.3799 21.0226 41.5183 20.0971 41.9747 19.3176C42.422 18.4093 42.6847 17.4212 42.7476 16.4106C42.812 15.1187 44.6154 13.4391 47.7713 13.7621C50.9273 14.0851 54.9849 14.7311 55.5002 17.7026C56.1317 20.9167 56.2188 24.2141 55.7578 27.457C55.1782 30.364 53.4391 34.6275 53.3748 35.984C53.3104 37.3406 50.3588 36.8302 50.2188 38.3742C50.1544 39.0848 49.8324 46.3198 49.8324 46.3198L37.595 37.5344Z" fill="white"/>
<path d="M50.1673 47.0116L37.1901 37.695L37.2367 37.4625C37.3433 36.9268 37.4771 36.3672 37.6127 35.797C38.2038 33.3165 38.8154 30.7517 37.4652 29.3971C36.7822 28.7294 33.5034 25.3142 35.3777 22.9638C35.637 22.5802 35.9758 22.257 36.3712 22.016C36.7665 21.775 37.2091 21.6219 37.6689 21.5671C38.2508 21.6118 38.8179 21.7729 39.3364 22.041C39.8549 22.309 40.3143 22.6784 40.6873 23.1274C40.852 23.2929 40.9381 23.2431 40.981 23.2192C41.1345 23.0621 41.2402 22.8645 41.2856 22.6495C41.3311 22.4345 41.3144 22.2111 41.2375 22.0052C41.0018 21.0373 41.1488 20.0158 41.6478 19.1535C42.0726 18.2908 42.3223 17.3524 42.3827 16.3927C42.4225 16.0298 42.5342 15.6786 42.7114 15.3594C42.8886 15.0402 43.1276 14.7596 43.4145 14.5339C44.0282 14.0503 44.7356 13.6995 45.492 13.5037C46.2484 13.3079 47.0372 13.2714 47.8085 13.3965C50.2263 13.6443 55.2566 14.1599 55.8606 17.6401C56.1718 19.4376 56.8201 23.9979 56.1161 27.5288C55.7419 29.1635 55.2816 30.7774 54.7373 32.3636C54.2997 33.545 53.9659 34.7624 53.7397 36.0018C53.6964 36.9192 52.794 37.1957 51.9982 37.4396C51.1482 37.7008 50.6289 37.8959 50.5827 38.4077C50.5199 39.1022 50.2006 46.2645 50.1972 46.3363L50.1673 47.0116ZM38.0011 37.3745L49.4971 45.6283C49.5795 43.804 49.8013 38.93 49.8546 38.3407C49.9488 37.3008 50.9669 36.988 51.7845 36.7374C52.5351 36.5068 52.992 36.3404 53.0096 35.9673C53.2314 34.661 53.5771 33.3787 54.042 32.1379C54.5768 30.5784 55.0299 28.9921 55.3994 27.3853C56.079 23.9759 55.4446 19.5228 55.14 17.7664C54.6921 15.1825 51.1449 14.4765 47.7342 14.1274C47.0617 14.0243 46.3755 14.0565 45.7155 14.2219C45.0556 14.3873 44.4353 14.6826 43.8909 15.0907C43.4644 15.416 43.1845 15.8974 43.1128 16.429C43.0465 17.4904 42.7709 18.5282 42.3017 19.4826C41.8829 20.1772 41.7527 21.0082 41.9391 21.7976C42.0669 22.1582 42.0793 22.5495 41.9746 22.9174C41.8699 23.2853 41.6532 23.6115 41.3546 23.8506C41.1651 23.9621 40.9422 24.0029 40.7254 23.9657C40.5087 23.9286 40.3121 23.816 40.1704 23.6478C39.8699 23.2715 39.4975 22.9586 39.075 22.7274C38.6525 22.4961 38.1883 22.3512 37.7093 22.3009C37.353 22.3527 37.0118 22.4795 36.7082 22.6729C36.4045 22.8663 36.1454 23.122 35.9478 23.423C34.4376 25.3171 37.6022 28.5056 37.9678 28.8634C39.6217 30.5222 38.932 33.416 38.3238 35.9683C38.2095 36.4475 38.0967 36.9191 38.0011 37.3745Z" fill="#D1D1D1"/>
<path d="M49.4976 37.8918C46.3235 37.8918 43.4345 36.0809 41.0766 32.5892C41.022 32.5085 41.0016 32.4094 41.0198 32.3137C41.038 32.218 41.0933 32.1334 41.1737 32.0783C41.2527 32.0238 41.3501 32.0028 41.4446 32.0201C41.539 32.0373 41.6228 32.0914 41.6773 32.1704L41.6811 32.1759C44.2008 35.9068 47.3306 37.5905 50.7417 37.0586C50.8364 37.0427 50.9334 37.0651 51.0116 37.1209C51.0897 37.1766 51.1425 37.2611 51.1583 37.3557L51.1596 37.3638C51.1748 37.4598 51.1513 37.558 51.0942 37.6368C51.0371 37.7155 50.951 37.7684 50.8549 37.7837C50.406 37.8554 49.9522 37.8915 49.4976 37.8918Z" fill="#D1D1D1"/>
<path d="M38.7726 29.6307C38.2888 29.6344 37.8125 29.5111 37.3914 29.2729C37.3072 29.2242 37.2457 29.1441 37.2203 29.0502C37.195 28.9562 37.2079 28.8561 37.2562 28.7716C37.2791 28.7302 37.3099 28.6937 37.3468 28.6642C37.3838 28.6347 37.4262 28.6128 37.4716 28.5997C37.5171 28.5866 37.5646 28.5825 37.6116 28.5878C37.6586 28.5931 37.7041 28.6075 37.7456 28.6304L37.755 28.6358C38.2652 28.9103 38.8634 28.9712 39.4184 28.8051C39.6423 28.7496 39.8531 28.6505 40.0387 28.5134C40.2242 28.3764 40.3809 28.204 40.4998 28.0063C40.5222 27.9641 40.5528 27.9267 40.5897 27.8962C40.6266 27.8658 40.6691 27.8429 40.7149 27.8289C40.7606 27.8149 40.8087 27.8101 40.8563 27.8147C40.9039 27.8192 40.9502 27.8331 40.9924 27.8556L40.9952 27.8571C41.0806 27.9037 41.144 27.9822 41.1717 28.0754C41.1994 28.1685 41.1892 28.2689 41.1433 28.3546C40.9783 28.6386 40.7587 28.8871 40.497 29.0857C40.2353 29.2842 39.9368 29.4288 39.6188 29.5111C39.3437 29.5903 39.0589 29.6305 38.7726 29.6307Z" fill="#D1D1D1"/>
<path d="M70.1206 32.2375C66.7835 32.0854 66.4494 29.0076 65.8697 28.297C65.29 27.5864 64.646 27.3926 64.4528 26.4883C64.2596 25.5839 62.8426 23.3229 63.8731 22.2247C63.8731 22.2247 62.8667 11.8874 71.924 11.3076C74.9511 11.1138 80.2969 13.5039 79.5884 22.1602C79.5884 22.1602 81.3274 23.7751 78.4935 27.0696C75.6596 30.3642 75.7884 32.4959 70.1206 32.2375Z" fill="white"/>
<path d="M70.9753 32.6248C70.6997 32.6248 70.4099 32.6181 70.1038 32.6047C67.2929 32.4765 66.4381 30.4417 65.9274 29.2259C65.8387 28.9824 65.7246 28.749 65.5871 28.5294C65.418 28.3304 65.2327 28.1458 65.0331 27.9775C64.5629 27.6329 64.2306 27.1324 64.0955 26.5655C64.0135 26.2745 63.9112 25.9897 63.7894 25.7131C63.3401 24.6015 62.7323 23.0977 63.4967 22.1028C63.4358 21.2007 63.2844 16.7877 65.8512 13.7542C66.6087 12.8907 67.5378 12.1945 68.5794 11.71C69.621 11.2256 70.7521 10.9637 71.9005 10.9409C72.9277 10.9036 73.9512 11.083 74.9044 11.4675C75.8577 11.8521 76.7192 12.4331 77.433 13.1727C78.7894 14.5617 80.321 17.2231 79.965 22.033C80.3605 22.5295 81.3614 24.2974 78.7699 27.3098C78.155 28.0254 77.6752 28.6931 77.2521 29.2833C75.8276 31.2683 74.8538 32.6248 70.9753 32.6248ZM70.1371 31.87C74.3521 32.0699 75.1741 30.9229 76.659 28.8537C77.0912 28.251 77.5805 27.569 78.2168 26.8295C80.7594 23.8745 79.3967 22.4845 79.3372 22.4271L79.2135 22.3066L79.2244 22.1306C79.5243 18.4638 78.7242 15.5441 76.9113 13.6873C76.2699 13.0243 75.4969 12.5027 74.642 12.1559C73.7872 11.8091 72.8693 11.6448 71.9472 11.6736C70.8977 11.692 69.8635 11.9285 68.9104 12.3683C67.9572 12.808 67.1061 13.4413 66.4109 14.2278C63.8008 17.3081 64.2325 22.141 64.2368 22.1898L64.253 22.3554L64.1392 22.4778C63.5319 23.1236 64.0721 24.4609 64.4667 25.4367C64.6059 25.7521 64.7207 26.0777 64.8103 26.4106C64.9154 26.8239 65.1667 27.1851 65.5176 27.4274C65.7466 27.6217 65.959 27.8348 66.1525 28.0646C66.3398 28.3356 66.4903 28.6303 66.6004 28.9408C67.073 30.0649 67.7869 31.7629 70.1371 31.8701V31.87Z" fill="#D1D1D1"/>
<path d="M75.724 34.3691C74.1138 33.9815 73.2765 32.3665 73.5986 28.2968C73.9206 24.2271 78.6867 25.4545 79.9105 27.8446C81.1342 30.2347 81.0794 35.6582 75.724 34.3691Z" fill="white"/>
<path d="M77.2202 34.9311C76.6867 34.9257 76.1558 34.857 75.6386 34.7264C73.6601 34.249 72.9186 32.2573 73.2341 28.2682C73.2027 27.5895 73.4139 26.9219 73.8299 26.3848C74.2459 25.8478 74.8395 25.4763 75.5044 25.337C76.4357 25.2177 77.3816 25.3759 78.2233 25.792C79.065 26.2082 79.7651 26.8635 80.2358 27.676C81.0935 29.352 81.2682 32.1215 80.0555 33.675C79.7165 34.0944 79.2825 34.4271 78.7895 34.6455C78.2965 34.8639 77.7585 34.9618 77.2202 34.9311ZM75.809 34.0128C77.5162 34.4231 78.7499 34.1562 79.48 33.2216C80.5723 31.8221 80.2434 29.2975 79.5856 28.0128C79.1883 27.3413 78.605 26.7994 77.9063 26.4524C77.2075 26.1054 76.4232 25.9682 75.6481 26.0574C75.1449 26.1761 74.6999 26.4689 74.3916 26.8839C74.0833 27.2989 73.9316 27.8095 73.9632 28.3256C73.602 32.8839 74.76 33.7592 75.8089 34.0128H75.809Z" fill="#D1D1D1"/>
<path d="M79.5769 22.1666C79.5769 22.1666 79.4637 23.8454 78.4421 24.3006C77.3924 24.7559 77.2792 23.9592 77.194 22.9918C77.1372 22.0243 76.57 22.1666 76.3144 19.6911C76.0591 17.2442 74.6407 16.789 73.3922 16.9312C72.1726 17.045 71.0945 18.0977 69.4208 17.8985C67.7468 17.6995 67.4067 17.8985 67.2363 18.8091C67.0376 19.6911 66.8956 23.0772 66.1299 23.7032C65.5623 24.1868 65.1086 23.6177 63.8605 22.2235V22.1951C63.8037 21.5692 63.1513 11.8664 71.917 11.2975C74.9527 11.1267 80.2861 13.5167 79.5769 22.1666Z" fill="#424242"/>
<path d="M77.9165 24.7995C77.7522 24.8021 77.5904 24.759 77.4491 24.6751C76.9489 24.3757 76.8856 23.6572 76.8299 23.024C76.8153 22.7662 76.7394 22.5156 76.6086 22.2931C76.2158 21.4926 75.9919 20.62 75.9508 19.7293C75.9382 18.9553 75.6196 18.2179 75.0646 17.6783C74.8324 17.5082 74.5682 17.3867 74.288 17.3211C74.0077 17.2555 73.7171 17.2472 73.4335 17.2966C72.9684 17.3688 72.5166 17.51 72.0932 17.7156C71.2557 18.1442 70.3161 18.3335 69.3779 18.2628C67.7454 18.0705 67.7078 18.2733 67.5955 18.877C67.5408 19.1209 67.4941 19.5275 67.437 20.0116C67.2166 21.8856 66.9835 23.4784 66.3609 23.9883C65.5585 24.6742 64.925 23.9663 63.776 22.6777L63.4952 22.3639V22.2233C63.4776 22.0176 63.0573 17.024 65.8564 13.7341C66.6141 12.8748 67.5418 12.182 68.5809 11.6995C69.62 11.2171 70.7479 10.9555 71.8933 10.9312C72.9247 10.9019 73.9508 11.0883 74.906 11.4784C75.8612 11.8685 76.7245 12.4537 77.4405 13.1965C78.8027 14.6008 80.3419 17.3033 79.9416 22.1956C79.9331 22.3151 79.7846 24.105 78.5899 24.6359C78.3789 24.7356 78.1497 24.7912 77.9165 24.7995ZM73.7909 16.5399C74.4161 16.5225 75.028 16.7226 75.522 17.1063C75.8745 17.4324 76.1583 17.8257 76.3568 18.263C76.5553 18.7002 76.6645 19.1728 76.6781 19.6528C76.7107 20.4564 76.9101 21.2444 77.2635 21.9669C77.4369 22.2743 77.538 22.6172 77.559 22.9695C77.5881 23.3005 77.6442 23.9366 77.8236 24.0438C77.8974 24.0906 78.0754 24.0581 78.2972 23.9625C78.9626 23.6669 79.1834 22.5476 79.2125 22.141L79.2129 22.1362C79.5123 18.4819 78.7184 15.567 76.9169 13.7093C76.2752 13.0404 75.5007 12.513 74.6433 12.1608C73.7858 11.8086 72.8642 11.6394 71.9376 11.664C70.8905 11.6837 69.8589 11.9203 68.9078 12.3588C67.9567 12.7972 67.1069 13.4281 66.4118 14.2115C63.9731 17.0785 64.1692 21.3843 64.2177 22.0731L64.32 22.1879C65.4557 23.4583 65.6613 23.62 65.8935 23.4229C66.3428 23.0546 66.5827 21.0189 66.7112 19.9245C66.7731 19.4003 66.8216 18.9851 66.8797 18.7278C67.1153 17.4641 67.8368 17.3359 69.4636 17.5339C70.2768 17.5866 71.0889 17.4152 71.8115 17.0383C72.2996 16.802 72.8214 16.6426 73.3583 16.5658C73.5019 16.5488 73.6463 16.5402 73.7909 16.5399Z" fill="#181818"/>
<path d="M38.7202 35.9776C38.2458 35.6721 37.6722 35.5604 37.1178 35.6655C36.6732 35.8074 36.2715 36.0589 35.9497 36.3969C35.6279 36.7349 35.3963 37.1485 35.2764 37.5995C34.5679 39.3436 35.5984 41.3462 36.1781 42.0568C37.1954 43.422 38.0594 44.8951 38.7544 46.4495C39.2053 47.6768 40.0426 48.5166 40.9442 47.7414C41.8459 46.9662 44.4222 43.8009 47.0629 45.4159C49.7036 47.0308 49.9613 44.8991 47.1916 42.8965C44.719 41.1086 42.4193 39.0976 40.1139 37.1018C39.6827 36.6875 39.2164 36.3114 38.7202 35.9776Z" fill="#D1D1D1"/>
<path d="M40.2414 48.4075C40.1376 48.4077 40.0342 48.3942 39.9339 48.3674C39.1015 48.1502 38.6227 47.1515 38.4118 46.5766C37.7304 45.0606 36.8867 43.623 35.8955 42.2889C35.3534 41.6259 34.1245 39.4639 34.9379 37.4608C35.0796 36.9526 35.3474 36.4884 35.7165 36.1114C36.0857 35.7345 36.5441 35.4569 37.0492 35.3045C37.6909 35.1805 38.3558 35.3083 38.9058 35.6613C39.3169 35.9239 39.7018 36.2254 40.0553 36.5615L40.7092 37.1326C42.8543 38.9904 45.0732 40.9113 47.4053 42.5979C49.0516 43.7889 49.8817 45.2066 49.3791 45.9691C49.1968 46.2465 48.5862 46.7765 46.8728 45.7299C44.8295 44.4767 42.7629 46.4952 41.6521 47.5772C41.4665 47.758 41.3084 47.912 41.1823 48.021C40.9266 48.2607 40.5918 48.3983 40.2414 48.4075ZM37.5313 35.9924C37.4153 35.9928 37.2997 36.004 37.1858 36.0259C36.538 36.1503 36.0387 36.6936 35.6147 37.7382C34.9398 39.4008 36.0268 41.2921 36.4609 41.823C37.503 43.2208 38.3871 44.7297 39.0972 46.3221C39.3651 47.0501 39.7559 47.5618 40.1181 47.6566C40.1881 47.6766 40.3965 47.7302 40.7068 47.4624C40.8239 47.3619 40.971 47.2184 41.1433 47.0501C42.3065 45.9165 44.7267 43.5564 47.2526 45.1023C48.243 45.7079 48.7113 45.6524 48.7699 45.5635C48.906 45.3559 48.5733 44.3485 46.9779 43.1948C44.6201 41.4891 42.3893 39.5577 40.2318 37.6894L39.5698 37.1106C39.2512 36.8066 38.9046 36.5334 38.5346 36.2946L38.5341 36.2936C38.234 36.1027 37.887 35.9984 37.5313 35.9924Z" fill="#8C8C8C"/>
<path d="M126.799 53.4258C127.958 57.6247 130.019 63.6324 133.948 62.2112C137.877 60.79 148.375 50.9064 148.375 50.9064L141.999 28.4907L128.023 39.3433L126.799 53.4258Z" fill="white"/>
<path d="M132.801 62.791C132.266 62.7897 131.739 62.658 131.267 62.4074C128.817 61.1341 127.404 56.9909 126.447 53.5241L126.429 53.46L127.672 39.1507L142.202 27.8691L148.788 51.0216L148.625 51.1746C148.195 51.5802 138.026 61.1265 134.072 62.5566C133.665 62.7085 133.235 62.7878 132.801 62.791ZM127.169 53.3911C128.016 56.4495 129.395 60.607 131.603 61.755C131.943 61.9335 132.318 62.0359 132.701 62.0551C133.085 62.0743 133.468 62.0097 133.824 61.8659C137.374 60.5812 146.618 52.0442 147.962 50.791L141.796 29.1128L128.373 39.5353L127.169 53.3911Z" fill="#D1D1D1"/>
<path d="M123.385 55.687C129.246 54.9765 134.657 53.9429 134.528 50.0024C134.399 46.0618 133.497 43.2841 134.399 40.0542C135.301 36.8242 142.386 36.1783 141.613 42.9611C140.84 49.744 141.291 51.4881 143.287 52.3279C145.284 53.1677 149.341 52.3925 150.63 51.0359C151.918 49.6793 153.142 47.6768 150.952 45.5451C148.762 43.4133 149.599 44.1885 149.277 41.7337C148.997 40.2389 148.803 38.729 148.697 37.2118C148.633 35.4031 143.352 22.3542 140.002 20.933C136.653 19.5118 132.467 19.964 131.243 21.256C129.05 23.6654 127.577 26.6422 126.992 29.8476C126.649 31.8842 126.153 33.8923 125.511 35.8553C125.133 37.3328 125.316 38.898 126.026 40.248C126.67 41.8629 126.284 43.4133 124.287 45.0283C122.29 46.6432 123.385 55.687 123.385 55.687Z" fill="#424242"/>
<path d="M123.385 56.0547C123.295 56.0544 123.209 56.0213 123.142 55.9617C123.076 55.9021 123.033 55.8202 123.023 55.7313C122.908 54.7852 121.964 46.4357 124.058 44.7425C125.795 43.3372 126.312 41.952 125.686 40.385C124.945 38.9615 124.757 37.3138 125.158 35.7597C125.285 35.2871 125.391 34.9504 125.498 34.6155C125.989 33.0318 126.368 31.4156 126.633 29.7788C127.231 26.5042 128.737 23.4633 130.979 21.0026C132.321 19.5849 136.619 19.0999 140.145 20.5941C143.686 22.098 148.993 35.2402 149.063 37.1984C149.086 38.007 149.173 38.8125 149.324 39.6072C149.41 40.1171 149.515 40.7389 149.639 41.686C149.705 42.1742 149.736 42.6665 149.732 43.1592C149.733 43.847 149.733 43.847 151.206 45.281C153.066 47.0919 152.961 49.1133 150.894 51.2896C149.453 52.8078 145.255 53.554 143.146 52.6662C140.866 51.7077 140.477 49.7035 141.25 42.9191C141.68 39.1423 139.615 38.3177 138.707 38.1388C137.915 37.9531 137.084 38.0535 136.36 38.4223C135.636 38.7911 135.066 39.4044 134.75 40.1534C134.289 42.2124 134.24 44.3425 134.608 46.4204C134.727 47.5358 134.85 48.6904 134.893 49.9895C135.034 54.2839 129.307 55.339 123.429 56.0517C123.414 56.0537 123.4 56.0546 123.385 56.0547ZM135.545 20.423C133.675 20.423 132.102 20.8812 131.508 21.5097C129.362 23.8673 127.922 26.7802 127.351 29.9166C127.08 31.5821 126.694 33.2268 126.194 34.8385C126.091 35.1637 125.987 35.4909 125.864 35.951C125.508 37.3519 125.687 38.8351 126.365 40.1114C127.118 41.9969 126.513 43.6988 124.517 45.3146C123.078 46.4778 123.414 52.583 123.706 55.2779C129.117 54.6073 134.28 53.6066 134.162 50.0145C134.121 48.7422 133.999 47.6019 133.881 46.4989C133.498 44.3283 133.555 42.103 134.047 39.9546C134.407 39.0243 135.091 38.2554 135.973 37.7893C136.855 37.3231 137.876 37.1912 138.847 37.4176C139.711 37.5879 142.489 38.4948 141.976 43.0034C141.203 49.7878 141.684 51.2553 143.428 51.989C145.245 52.7515 149.136 52.077 150.365 50.7827C152.149 48.9048 152.254 47.3245 150.698 45.8092C149.13 44.2833 149.002 44.158 149.001 43.1593C149.005 42.6986 148.976 42.2383 148.915 41.7818C148.792 40.8471 148.688 40.2339 148.603 39.7307C148.447 38.9041 148.356 38.0663 148.332 37.2253C148.267 35.3972 142.988 22.5994 139.86 21.2715C138.492 20.7061 137.026 20.4177 135.545 20.423L135.545 20.423Z" fill="#181818"/>
<path d="M130.084 31.6559C129.347 33.1383 129.006 34.7865 129.097 36.4396C129.187 38.0927 129.705 39.6941 130.599 41.0873C133.046 45.1571 135.558 45.3508 137.169 45.1571C138.779 44.9633 142.643 42.5731 142.901 38.6326C143.158 34.6921 143.352 33.9815 142.643 32.5603C142.047 31.4891 141.613 30.3353 141.355 29.1366C141.033 27.7154 140.067 28.6198 139.874 29.395C139.68 30.1702 138.07 30.7516 137.04 30.687C137.04 30.687 137.619 29.0074 136.589 29.2658C135.558 29.5242 135.236 30.7516 133.948 30.687C132.66 30.6224 130.792 30.5578 130.084 31.6559Z" fill="white"/>
<path d="M136.437 45.5701C134.037 45.5701 132.019 44.1581 130.286 41.2777C127.881 37.277 128.697 33.13 129.777 31.4559C130.619 30.152 132.713 30.2592 133.967 30.3204C134.22 30.3205 134.47 30.2629 134.698 30.1518C134.925 30.0407 135.124 29.8792 135.28 29.6795C135.613 29.3213 136.034 29.056 136.5 28.9094C136.644 28.8578 136.8 28.8487 136.95 28.8833C137.099 28.9179 137.235 28.9947 137.342 29.1045C137.458 29.2801 137.534 29.479 137.564 29.6871C137.595 29.8952 137.579 30.1075 137.519 30.3089C138.413 30.2152 139.41 29.7445 139.519 29.3064C139.674 28.6827 140.175 27.9986 140.79 28.0226C141.047 28.0255 141.509 28.1632 141.711 29.0557C141.963 30.2254 142.388 31.3512 142.97 32.3963C143.618 33.6954 143.561 34.4846 143.373 37.1001C143.341 37.5564 143.304 38.0711 143.265 38.6565C143.073 40.2803 142.39 41.8069 141.309 43.0334C140.228 44.2599 138.799 45.128 137.212 45.5223C136.955 45.5537 136.696 45.5696 136.437 45.5701ZM130.39 31.8558C129.698 33.2819 129.382 34.8616 129.473 36.4443C129.565 38.027 130.06 39.5599 130.911 40.8969C133.245 44.778 135.573 44.9741 137.125 44.7933C138.634 44.6116 142.296 42.2879 142.536 38.6087C142.574 38.0213 142.611 37.5047 142.644 37.0475C142.83 34.4588 142.874 33.8446 142.316 32.7254C141.706 31.6281 141.261 30.4462 140.998 29.2184C140.911 28.8328 140.801 28.7592 140.781 28.7573C140.655 28.7573 140.328 29.0854 140.228 29.4843C139.967 30.5328 138.116 31.1211 137.017 31.0542L136.538 31.0245L136.694 30.5682C136.823 30.2627 136.861 29.9264 136.802 29.6001C136.805 29.6058 136.761 29.602 136.677 29.623C136.33 29.7417 136.019 29.9476 135.774 30.2209C135.548 30.4886 135.266 30.7023 134.947 30.8467C134.627 30.991 134.28 31.0622 133.93 31.0551C132.835 30.9958 131.003 30.9059 130.39 31.8558L130.39 31.8558Z" fill="#D1D1D1"/>
<path d="M113.112 50.2282C113.112 48.3549 113.306 49.0009 111.824 46.8046C110.343 44.6082 111.245 43.2398 111.245 42.541C111.245 42.2826 109.763 37.3732 112.211 34.7246C114.658 32.0761 118.394 31.5593 121.807 32.9159C125.221 34.2724 126.316 37.4378 126.316 40.9261C126.316 44.4144 125.479 52.5538 120.97 52.1662C118.265 51.9359 115.614 51.2819 113.112 50.2282Z" fill="white"/>
<path d="M121.278 52.5468C121.166 52.5468 121.053 52.542 120.939 52.5324C118.192 52.3025 115.498 51.6377 112.96 50.5627L112.747 50.4642L112.752 49.6568C112.765 48.8035 112.765 48.8035 112.128 47.8928C111.966 47.6603 111.766 47.3743 111.521 47.0117C111.095 46.4513 110.807 45.7985 110.681 45.1062C110.554 44.4139 110.591 43.7014 110.791 43.0264C110.836 42.868 110.866 42.7055 110.879 42.5414C110.875 42.5289 110.857 42.4505 110.833 42.3376C110.054 38.7608 110.427 36.1147 111.943 34.475C114.392 31.8233 118.223 31.0962 121.942 32.5742C125.087 33.8236 126.681 36.6342 126.681 40.9266C126.681 41.7359 126.598 48.9116 123.728 51.5605C123.07 52.1945 122.191 52.5482 121.278 52.5468ZM113.48 49.9878C115.884 50.9599 118.418 51.5705 121.001 51.7997C121.407 51.8419 121.818 51.7938 122.204 51.6588C122.59 51.5239 122.941 51.3054 123.233 51.019C125.239 49.1689 125.95 44.4259 125.95 40.9266C125.95 36.9651 124.511 34.3851 121.673 33.2572C120.15 32.5628 118.45 32.355 116.804 32.6623C115.159 32.9696 113.648 33.777 112.478 34.9744C111.136 36.4275 110.822 38.8526 111.547 42.1807C111.58 42.2986 111.601 42.4194 111.61 42.5414C111.599 42.7635 111.563 42.9836 111.502 43.1976C111.324 43.7731 111.289 44.3828 111.397 44.9751C111.506 45.5673 111.756 46.1245 112.127 46.5994C112.369 46.9581 112.566 47.2403 112.727 47.4709C113.012 47.7553 113.228 48.101 113.359 48.4816C113.49 48.8623 113.532 49.2678 113.483 49.6673L113.48 49.9878Z" fill="#D1D1D1"/>
<path d="M126.32 40.9398C126.318 42.1583 126.233 43.3752 126.064 44.5819C124.249 43.586 124.135 41.3097 124.05 40.1432C123.993 38.9765 123.624 38.2084 122.972 38.6635C122.319 39.1187 121.61 38.4074 121.241 38.3506C120.844 38.2652 120.333 38.7205 119.823 38.4644C119.284 38.2084 119.369 38.2084 118.461 38.5498C117.553 38.8627 117.355 38.6635 115.936 37.6961C114.518 36.7287 114.461 40.9398 114.263 42.6186C114.092 44.2973 113.383 44.0128 113.043 43.586C112.564 43.0861 111.917 42.7819 111.227 42.7324C111.249 42.6683 111.258 42.6008 111.255 42.5332C111.255 42.2772 109.752 37.3831 112.22 34.7369C114.66 32.0623 118.405 31.5502 121.809 32.9159C125.213 34.2818 126.32 37.4401 126.32 40.9398Z" fill="#795E2E"/>
<path d="M126.064 44.9489C126.003 44.9487 125.943 44.9333 125.889 44.9039C123.949 43.8392 123.782 41.5165 123.692 40.269L123.685 40.1695C123.645 39.3478 123.453 38.9565 123.341 38.901C123.317 38.8867 123.251 38.9164 123.18 38.9651C122.915 39.1134 122.612 39.1813 122.309 39.1605C122.006 39.1398 121.716 39.0314 121.473 38.8484C121.381 38.7946 121.285 38.7492 121.185 38.7126C121.055 38.7102 120.926 38.7346 120.805 38.7843C120.625 38.8631 120.43 38.9045 120.233 38.906C120.036 38.9075 119.841 38.869 119.66 38.7929C119.305 38.6236 119.305 38.6246 118.756 38.8312L118.589 38.8943C117.556 39.2502 117.193 38.9996 115.986 38.174L115.731 37.9999C115.662 37.9521 115.571 37.9004 115.512 37.9291C115.011 38.1692 114.814 40.5197 114.72 41.6494C114.688 42.0331 114.659 42.3822 114.626 42.6616C114.531 43.5914 114.262 44.1137 113.802 44.2496C113.604 44.2917 113.398 44.2727 113.212 44.1952C113.025 44.1176 112.867 43.9851 112.757 43.8153C112.34 43.3933 111.783 43.1382 111.191 43.0978C111.136 43.0925 111.083 43.0747 111.036 43.0459C110.989 43.0171 110.949 42.9779 110.92 42.9313C110.89 42.8848 110.871 42.8323 110.864 42.7775C110.857 42.7227 110.863 42.6671 110.88 42.6147C110.882 42.5193 110.869 42.4242 110.843 42.3325C110.051 38.7642 110.425 36.1249 111.953 34.4852C114.39 31.8143 118.219 31.0815 121.944 32.5739C125.09 33.8366 126.685 36.651 126.685 40.9396C126.684 42.1756 126.598 43.4101 126.426 44.6341C126.413 44.7212 126.37 44.801 126.303 44.8588C126.237 44.9165 126.152 44.9485 126.064 44.9488L126.064 44.9489ZM123.328 38.1645C123.445 38.1643 123.56 38.1909 123.664 38.242C124.222 38.5184 124.38 39.4186 124.415 40.1246L124.421 40.2155C124.498 41.2754 124.619 42.9725 125.778 43.9444C125.894 42.947 125.953 41.9438 125.954 40.9397C125.954 36.9811 124.514 34.3963 121.673 33.2569C118.237 31.8765 114.718 32.5423 112.489 34.9846C111.133 36.4387 110.82 38.8561 111.557 42.1728C111.582 42.2866 111.598 42.3622 111.608 42.4186C112.275 42.5284 112.884 42.8622 113.335 43.3647C113.449 43.5082 113.569 43.5628 113.595 43.5455C113.596 43.5446 113.812 43.4432 113.899 42.5813C113.932 42.3029 113.961 41.9623 113.992 41.5873C114.176 39.3775 114.382 37.6565 115.197 37.2653C115.351 37.1969 115.52 37.1724 115.687 37.1947C115.854 37.217 116.011 37.2852 116.141 37.3915L116.398 37.5676C117.569 38.3702 117.665 38.4343 118.343 38.2028L118.498 38.1435C119.244 37.8612 119.36 37.8364 119.904 38.0956C120.012 38.1432 120.129 38.1667 120.247 38.1646C120.365 38.1625 120.482 38.1347 120.588 38.0832C120.819 37.9907 121.07 37.9587 121.317 37.9904C121.493 38.0336 121.661 38.1039 121.816 38.1989C122.22 38.4151 122.505 38.5424 122.763 38.3616C122.927 38.2389 123.124 38.1701 123.328 38.1645Z" fill="#36250D"/>
<path d="M120.182 52.4531C120.154 52.4532 120.125 52.45 120.098 52.4435C118.549 52.0045 117.14 51.1736 116.006 50.0309C115.934 49.965 115.892 49.8736 115.887 49.7764C115.883 49.6793 115.917 49.5844 115.982 49.5124C116.014 49.477 116.053 49.4482 116.096 49.4278C116.139 49.4073 116.186 49.3955 116.233 49.3931C116.281 49.3906 116.329 49.3976 116.374 49.4135C116.419 49.4295 116.46 49.4542 116.495 49.4861L116.499 49.4894C117.542 50.5456 118.838 51.3164 120.265 51.7279C120.352 51.7487 120.429 51.8008 120.48 51.8744C120.532 51.948 120.555 52.0379 120.545 52.1272C120.534 52.2165 120.492 52.299 120.425 52.359C120.358 52.4191 120.272 52.4525 120.182 52.4531H120.182Z" fill="#D1D1D1"/>
<path d="M114.433 48.367C113.723 48.3695 113.018 48.2491 112.349 48.0111C112.261 47.9706 112.193 47.897 112.159 47.8062C112.125 47.7154 112.128 47.6148 112.168 47.5264C112.208 47.438 112.281 47.369 112.371 47.3343C112.462 47.2997 112.562 47.3022 112.651 47.3414C113.225 47.5352 113.827 47.6335 114.433 47.6323C114.53 47.6323 114.623 47.671 114.692 47.7399C114.761 47.8087 114.8 47.9022 114.8 47.9996C114.8 48.097 114.761 48.1905 114.692 48.2594C114.623 48.3282 114.53 48.367 114.433 48.367H114.433Z" fill="#D1D1D1"/>
<path d="M122.556 84.1489C124.381 86.5546 126.82 89.2477 128.392 89.979C129.964 90.7102 131.358 92.4012 129.223 93.9637C127.087 95.5262 123.95 94.862 118.827 91.6072C113.704 88.3524 116.325 87.7437 117.027 86.114L122.556 84.1489Z" fill="white"/>
<path d="M126.665 95.1303C124.63 95.1303 122.029 94.0761 118.632 91.9179C116.543 90.5911 115.543 89.5876 115.388 88.6663C115.368 88.3276 115.422 87.9884 115.547 87.6729C115.672 87.3573 115.864 87.073 116.111 86.8401C116.341 86.5755 116.536 86.2822 116.692 85.9677L116.755 85.8213L122.685 83.7139L122.847 83.9262C124.507 86.1141 126.995 88.9246 128.545 89.645C129.071 89.8433 129.54 90.168 129.91 90.5904C130.281 91.0129 130.542 91.52 130.67 92.0672C130.685 92.5106 130.579 92.9497 130.361 93.3365C130.144 93.7234 129.825 94.043 129.438 94.2607C128.634 94.8462 127.659 95.1517 126.665 95.1303ZM117.293 86.4097C117.12 86.726 116.916 87.0238 116.683 87.2984C116.282 87.8026 116.04 88.1326 116.109 88.5439C116.223 89.2231 117.176 90.1233 119.022 91.2962C123.917 94.4052 126.996 95.1342 129.008 93.6677C129.285 93.5182 129.517 93.298 129.681 93.0295C129.846 92.7609 129.936 92.4536 129.942 92.139C129.827 91.7195 129.611 91.3342 129.315 91.0161C129.018 90.6979 128.649 90.4563 128.238 90.3118C126.619 89.5589 124.207 86.9004 122.427 84.5844L117.293 86.4097Z" fill="#D1D1D1"/>
<path d="M111.985 87.211C108.757 84.5568 103.999 77.715 104.321 76.4877C104.643 75.2603 105.223 72.9993 107.734 72.8055C110.246 72.6117 114.368 72.1595 117.46 73.8391C120.551 75.5187 122.162 75.9063 121.582 77.6504C121.002 79.3946 121.904 80.8158 122.741 82.1723C123.579 83.5289 123.643 84.4333 122.097 85.0793C120.353 86.0088 118.766 87.2079 117.395 88.6322C116.365 89.6658 115.914 90.441 111.985 87.211Z" fill="#8C8C8C"/>
<path d="M115.921 89.8984C115.058 89.8984 113.874 89.2383 111.754 87.4953C108.723 85.0042 103.56 77.9491 103.967 76.3936C104.29 75.1653 104.949 72.6522 107.706 72.4389L108.173 72.4025C110.746 72.194 114.633 71.886 117.633 73.5161C118.176 73.8107 118.673 74.0652 119.12 74.2948C121.231 75.3777 122.506 76.031 121.928 77.7673C121.412 79.3219 122.191 80.5847 123.015 81.9201C123.267 82.2328 123.451 82.5945 123.556 82.9822C123.66 83.3699 123.683 83.7751 123.622 84.172C123.497 84.4691 123.309 84.7349 123.07 84.9504C122.83 85.1659 122.546 85.3258 122.238 85.4185C120.54 86.3333 118.994 87.505 117.653 88.892L117.529 89.0183C117.337 89.2693 117.095 89.4773 116.819 89.6289C116.542 89.7805 116.236 89.8723 115.921 89.8984ZM112.217 86.9271C115.722 89.8085 116.18 89.3474 117.009 88.5017L117.137 88.3716C118.542 86.9138 120.168 85.6878 121.957 84.7393C122.513 84.5078 122.829 84.2485 122.925 83.9481C123.038 83.5971 122.88 83.0948 122.431 82.3659C121.558 80.9529 120.61 79.4166 121.235 77.5339C121.597 76.4462 120.981 76.0741 118.788 74.9491C118.336 74.7176 117.834 74.4603 117.286 74.1628C114.475 72.636 110.717 72.9383 108.231 73.1344L107.762 73.1717C105.523 73.3448 104.995 75.3576 104.679 76.5611C104.447 77.4469 108.758 84.0831 112.217 86.9271L112.217 86.9271Z" fill="#424242"/>
<path d="M104.128 79.2655C104.487 78.2863 105.867 76.1648 108.057 76.7462C109.735 77.2055 111.493 77.2936 113.209 77.0046C114.755 76.8108 117.009 76.617 117.782 78.3612C118.555 80.1053 119.199 82.5601 117.782 83.4644C116.365 84.3688 112.243 86.6298 108.443 86.0484C107.683 85.9486 106.954 85.6834 106.308 85.2715C105.662 84.8596 105.113 84.311 104.702 83.6643C104.291 83.0177 104.026 82.2887 103.927 81.5287C103.827 80.7687 103.896 79.9962 104.128 79.2655Z" fill="white"/>
<path d="M109.738 86.5111C109.286 86.5122 108.835 86.479 108.388 86.4116C107.544 86.2985 106.737 85.9955 106.028 85.5254C105.319 85.0553 104.725 84.4304 104.293 83.6976C103.885 83.0188 103.629 82.2602 103.541 81.4734C103.454 80.6866 103.537 79.8901 103.785 79.1383C104.148 78.1482 105.639 75.7289 108.15 76.3909C109.783 76.8357 111.494 76.9206 113.164 76.6396C114.473 76.477 117.197 76.1374 118.116 78.2123C118.684 79.4951 119.809 82.6061 117.978 83.7742C116.895 84.4658 113.381 86.5111 109.738 86.5111ZM104.47 79.3928C104.259 80.042 104.19 80.7292 104.268 81.4075C104.346 82.0858 104.569 82.7393 104.922 83.3236C105.301 83.9621 105.819 84.5064 106.438 84.9154C107.058 85.3244 107.762 85.5874 108.498 85.6846C112.435 86.2882 116.759 83.6833 117.586 83.1543C118.975 82.2684 117.831 79.3765 117.448 78.5108C116.833 77.1217 115.068 77.1409 113.254 77.3686C111.492 77.6654 109.686 77.574 107.963 77.1007C105.982 76.5765 104.77 78.5768 104.47 79.3928H104.47Z" fill="#D1D1D1"/>
<path d="M24.7944 185.026H167.667" stroke="#E6E6E6" stroke-miterlimit="10"/>
</svg>
