<svg width="192" height="192" viewBox="0 0 192 192" fill="none" xmlns="http://www.w3.org/2000/svg">
<path d="M137.524 185.388H37.313C35.4636 185.378 33.6936 184.635 32.3915 183.321C31.0894 182.008 30.3614 180.231 30.3673 178.382V23.4266C30.3614 21.5771 31.0894 19.8008 32.3915 18.4873C33.6936 17.1738 35.4636 16.4305 37.313 16.4204H137.524C139.374 16.4306 141.143 17.174 142.445 18.4874C143.747 19.8009 144.475 21.5772 144.469 23.4266V178.382C144.475 180.231 143.747 182.008 142.445 183.321C141.143 184.634 139.374 185.378 137.524 185.388Z" fill="#E6E6E6"/>
<path d="M146.843 176.07H46.6321C44.7826 176.06 43.0127 175.316 41.7106 174.003C40.4085 172.689 39.6805 170.913 39.6864 169.064V14.1082C39.6805 12.2587 40.4085 10.4824 41.7106 9.16895C43.0127 7.85549 44.7826 7.11217 46.6321 7.10205H146.843C148.693 7.11223 150.462 7.85561 151.764 9.16909C153.066 10.4826 153.794 12.2589 153.788 14.1082V169.064C153.794 170.913 153.066 172.689 151.764 174.003C150.462 175.316 148.693 176.06 146.843 176.07Z" fill="white"/>
<path d="M146.843 176.56H46.6323C44.6529 176.55 42.7584 175.755 41.3644 174.349C39.9704 172.944 39.1908 171.043 39.1966 169.064V14.1085C39.1908 12.1291 39.9704 10.2282 41.3644 8.82286C42.7584 7.41754 44.6529 6.62255 46.6323 6.6123H146.843C148.823 6.62277 150.717 7.41787 152.11 8.82319C153.504 10.2285 154.284 12.1293 154.278 14.1085V169.064C154.284 171.043 153.504 172.944 152.11 174.349C150.717 175.754 148.823 176.55 146.843 176.56ZM46.6323 7.5919C44.9126 7.60191 43.2672 8.29362 42.0568 9.51528C40.8465 10.7369 40.1702 12.3888 40.1763 14.1085V169.064C40.1702 170.784 40.8465 172.435 42.0568 173.657C43.2672 174.879 44.9126 175.57 46.6323 175.58H146.843C148.563 175.57 150.208 174.878 151.418 173.657C152.628 172.435 153.304 170.783 153.298 169.064V14.1085C153.304 12.389 152.628 10.7373 151.418 9.51561C150.208 8.29395 148.563 7.60213 146.843 7.5919H46.6323Z" fill="#D1D1D1"/>
<path d="M110.046 153.185H83.4275C82.6051 153.185 81.7907 153.023 81.0308 152.708C80.271 152.394 79.5805 151.932 78.9989 151.351C78.4174 150.769 77.956 150.079 77.6412 149.319C77.3264 148.559 77.1644 147.745 77.1643 146.922V146.922C77.1644 145.261 77.8243 143.668 78.9988 142.494C80.1733 141.319 81.7663 140.66 83.4273 140.66H110.046C110.869 140.66 111.683 140.822 112.443 141.136C113.203 141.451 113.893 141.912 114.475 142.494C115.056 143.075 115.518 143.766 115.832 144.525C116.147 145.285 116.309 146.1 116.309 146.922V146.922C116.309 147.745 116.147 148.559 115.833 149.319C115.518 150.079 115.056 150.769 114.475 151.351C113.893 151.932 113.203 152.393 112.443 152.708C111.683 153.023 110.869 153.185 110.046 153.185H110.046Z" fill="#6E8CBB"/>
<path d="M130.807 116.291H61.3047C61.124 116.292 60.9501 116.222 60.8213 116.095C60.6925 115.968 60.6194 115.796 60.6179 115.615C60.6165 115.434 60.6869 115.26 60.8137 115.132C60.9404 115.003 61.1131 114.93 61.2938 114.928H130.807C130.987 114.927 131.161 114.997 131.29 115.124C131.419 115.251 131.492 115.424 131.493 115.604C131.495 115.785 131.424 115.959 131.297 116.088C131.171 116.216 130.998 116.289 130.817 116.291H130.807Z" fill="#B8DFBC"/>
<path d="M65.3931 121.872C67.0542 121.872 68.6472 121.212 69.8217 120.037C70.9962 118.863 71.6561 117.27 71.6561 115.609C71.656 113.948 70.9962 112.355 69.8216 111.18C68.6471 110.006 67.054 109.346 65.393 109.346C63.7319 109.346 62.1389 110.006 60.9643 111.18C59.7898 112.355 59.1299 113.948 59.1299 115.609C59.1299 117.27 59.7897 118.863 60.9642 120.037C62.1388 121.212 63.7318 121.872 65.3928 121.872H65.3931Z" fill="#97C09B"/>
<path d="M96.7372 121.872C98.3983 121.872 99.9913 121.212 101.166 120.037C102.34 118.863 103 117.27 103 115.609C103 113.948 102.34 112.355 101.166 111.18C99.9912 110.006 98.3981 109.346 96.7371 109.346C95.076 109.346 93.483 110.006 92.3084 111.18C91.1339 112.355 90.474 113.948 90.474 115.609C90.474 117.27 91.1338 118.863 92.3083 120.037C93.4829 121.212 95.0759 121.872 96.737 121.872H96.7372Z" fill="#97C09B"/>
<path d="M128.081 121.872C129.742 121.872 131.335 121.212 132.51 120.037C133.684 118.863 134.344 117.27 134.344 115.609C134.344 113.948 133.684 112.355 132.51 111.18C131.335 110.006 129.742 109.346 128.081 109.346C126.42 109.346 124.827 110.006 123.652 111.18C122.478 112.355 121.818 113.948 121.818 115.609C121.818 117.27 122.478 118.863 123.652 120.037C124.827 121.212 126.42 121.872 128.081 121.872H128.081Z" fill="#C2D3E6"/>
<path d="M154.807 133.042C154.201 133.042 153.605 132.882 153.082 132.577L145.461 128.177C144.67 127.72 144.092 126.968 143.856 126.086C143.619 125.204 143.743 124.264 144.199 123.473L144.201 123.47C144.658 122.68 145.411 122.104 146.293 121.869C147.175 121.633 148.114 121.757 148.905 122.214L156.528 126.617C157.319 127.073 157.897 127.825 158.133 128.707C158.37 129.589 158.247 130.528 157.791 131.319L157.789 131.323C157.486 131.845 157.051 132.279 156.527 132.581C156.004 132.883 155.411 133.041 154.807 133.042Z" fill="#C2D3E6"/>
<path d="M149.385 119.053C148.471 119.053 147.596 118.69 146.95 118.044C146.304 117.399 145.941 116.523 145.941 115.61C145.941 114.696 146.304 113.821 146.95 113.175C147.596 112.529 148.471 112.167 149.385 112.167H158.189C159.102 112.167 159.978 112.529 160.624 113.175C161.269 113.821 161.632 114.696 161.632 115.61C161.632 116.523 161.269 117.399 160.624 118.044C159.978 118.69 159.102 119.053 158.189 119.053H149.385Z" fill="#C2D3E6"/>
<path d="M147.183 109.468C146.424 109.468 145.687 109.218 145.085 108.756C144.484 108.294 144.051 107.647 143.855 106.914C143.659 106.181 143.711 105.405 144.001 104.704C144.292 104.004 144.806 103.419 145.463 103.04L145.464 103.04L153.085 98.6399C153.477 98.4124 153.91 98.2645 154.359 98.2046C154.808 98.1447 155.264 98.1739 155.702 98.2907C156.139 98.4075 156.55 98.6095 156.909 98.8851C157.269 99.1607 157.57 99.5046 157.797 99.897C158.023 100.289 158.17 100.723 158.228 101.172C158.287 101.621 158.256 102.077 158.138 102.515C158.02 102.952 157.817 103.362 157.541 103.72C157.264 104.079 156.919 104.38 156.526 104.605L156.525 104.606L148.904 109.006C148.381 109.309 147.787 109.468 147.183 109.468Z" fill="#C2D3E6"/>
<path d="M125.701 53.7599C125.702 58.3342 124.62 62.8437 122.542 66.919C120.465 70.9943 117.451 74.5195 113.749 77.2059C110.047 79.8923 105.761 81.6636 101.242 82.3745C96.7232 83.0855 92.1004 82.716 87.752 81.2963V81.1689C87.7554 79.681 87.4647 78.207 86.8964 76.8318C86.3282 75.4567 85.4937 74.2074 84.4409 73.1559C88.806 67.8761 91.1898 61.2374 91.1805 54.3869V54.3771C91.1854 49.7687 90.1094 45.2233 88.039 41.1062C85.9685 36.9891 82.9613 33.415 79.2589 30.671C83.5561 27.4191 88.6754 25.4306 94.0409 24.929C99.4065 24.4274 104.806 25.4326 109.631 27.8316C114.457 30.2306 118.517 33.9283 121.356 38.5088C124.195 43.0893 125.7 48.371 125.701 53.7599Z" fill="#E6E6E6"/>
<path d="M83.9019 72.6562C83.8703 72.6971 83.8408 72.7396 83.8137 72.7836C83.844 72.7394 83.8767 72.6968 83.9117 72.6562C84.0293 72.5191 84.137 72.3721 84.2546 72.235C84.1453 72.3822 84.0276 72.5228 83.9019 72.6562ZM62.5664 83.1673C63.4611 83.1445 64.3539 83.0726 65.2407 82.9517C64.3493 83.0595 63.4578 83.1281 62.5664 83.1673ZM59.4807 83.0987C60.4842 83.1803 61.4916 83.2032 62.4978 83.1673C61.4888 83.1966 60.4799 83.1673 59.4807 83.0987ZM57.3158 82.8538C58.0309 82.9713 58.7558 83.0497 59.4807 83.0987C58.7558 83.0399 58.0309 82.9615 57.3158 82.8538ZM53.0644 81.8742C53.9891 82.1731 54.9313 82.4152 55.8856 82.5991C54.9354 82.4032 53.995 82.1583 53.0644 81.8742ZM48.9697 80.2481C49.8499 80.6881 50.756 81.0741 51.6831 81.404C50.7623 81.0611 49.8611 80.6791 48.9697 80.2481ZM43.915 77.0742C45.4786 78.314 47.1737 79.3783 48.9697 80.2481C47.1817 79.3639 45.4881 78.3004 43.915 77.0742ZM42.1027 75.5264C41.9754 75.4089 41.8382 75.2913 41.7109 75.164C41.8382 75.3011 41.9656 75.4187 42.0929 75.5362C42.3084 75.7321 42.524 75.9281 42.7395 76.1044C42.524 75.9183 42.3084 75.7224 42.1027 75.5264ZM40.4864 34.8342C40.4605 34.8611 40.4376 34.8907 40.4178 34.9224C40.5158 34.8146 40.6137 34.7166 40.7117 34.6089C40.6318 34.679 40.5565 34.7542 40.4864 34.8342ZM32.924 52.2219C32.9827 51.4873 33.0611 50.7624 33.1688 50.0473C33.0513 50.7722 32.9729 51.497 32.924 52.2219Z" fill="#6E8CBB"/>
<path d="M72.4016 54.3773C72.0979 56.9145 71.373 57.6883 70.6677 57.6883C70.4047 59.2597 69.8356 60.7641 68.9926 62.1161V62.1259C68.6177 62.8696 68.0534 63.5014 67.3567 63.9577V67.9741C67.7611 68.7237 68.3092 69.3864 68.9698 69.9243C69.6303 70.4621 70.3904 70.8646 71.2065 71.1087C69.3671 72.0654 67.8254 73.5084 66.7494 75.2805C65.6733 77.0527 65.104 79.0861 65.1036 81.1594C65.1047 81.7595 65.1505 82.3587 65.2407 82.952C64.3493 83.0598 63.4579 83.1283 62.5665 83.1675H62.4979C61.4889 83.1969 60.4799 83.1675 59.4807 83.099C58.7558 83.0402 58.0309 82.9618 57.3158 82.8541C57.0709 82.8149 56.8358 82.7757 56.6007 82.7365C56.3656 82.6973 56.1305 82.6483 55.8856 82.5994C54.9354 82.4034 53.995 82.1586 53.0644 81.8745C52.5942 81.7275 52.1338 81.5708 51.6832 81.4043C50.7624 81.0614 49.8612 80.6794 48.9697 80.2483C47.1818 79.3641 45.4882 78.3007 43.915 77.0745C43.5134 76.761 43.1215 76.4377 42.7395 76.1047C42.524 75.9186 42.3085 75.7226 42.1028 75.5267C43.6156 74.2033 45.4017 73.23 47.3338 72.6761L51.7224 71.2361C52.6203 71.0061 53.4632 70.599 54.2016 70.0389C54.9401 69.4787 55.5592 68.7767 56.0228 67.9741V63.9577C54.7983 63.4679 52.9469 60.1569 52.7118 57.6883C51.9183 57.6883 51.1836 56.9145 50.9485 54.3773C50.8237 53.9537 50.8076 53.5055 50.9018 53.0741C50.996 52.6426 51.1973 52.2418 51.4873 51.9088V49.8712C51.4873 43.7879 55.4644 38.5471 61.626 38.5471C63.2596 38.5211 64.8729 38.9112 66.3142 39.6806C67.7554 40.4501 68.9772 41.5736 69.8644 42.9455C71.1981 45.0069 71.8933 47.4162 71.8628 49.8712C71.8823 50.5525 71.8429 51.2342 71.7452 51.9088C72.0381 52.2415 72.2497 52.6375 72.3636 53.0659C72.4775 53.4942 72.4905 53.9431 72.4016 54.3773Z" fill="#C2D3E6"/>
<path d="M90.4455 54.3771C90.4455 54.8963 90.4357 55.4253 90.4063 55.9445C90.3769 56.4343 90.3377 56.9339 90.2887 57.4237C90.2692 57.6686 90.2398 57.9135 90.2006 58.1584C90.1908 58.2759 90.1712 58.3935 90.1516 58.511C90.1222 58.7265 90.0928 58.942 90.0536 59.1576C90.0518 59.1878 90.0452 59.2176 90.034 59.2457C89.9753 59.618 89.9067 59.9902 89.8283 60.3527C89.1501 63.5559 87.931 66.6202 86.2234 69.4139C86.0079 69.7665 85.7924 70.1094 85.5573 70.4425C85.4202 70.6482 85.283 70.8539 85.136 71.0499C84.8519 71.4515 84.5581 71.8433 84.2544 72.2352C84.1451 72.3823 84.0274 72.523 83.9017 72.6564C81.8402 70.8318 79.1804 69.8278 76.4274 69.8352C75.2642 69.8348 74.1079 70.0133 72.9989 70.3641C72.3814 70.5614 71.7817 70.8104 71.2062 71.1086C70.3901 70.8645 69.6301 70.462 68.9696 69.9242C68.309 69.3863 67.7609 68.7236 67.3564 67.9739V63.9576C68.0532 63.5013 68.6174 62.8695 68.9923 62.1258V62.116C69.8353 60.764 70.4045 59.2596 70.6674 57.6882C71.3727 57.6882 72.0976 56.9143 72.4013 54.3772C72.4902 53.943 72.4773 53.4941 72.3634 53.0658C72.2495 52.6374 72.0378 52.2413 71.745 51.9086C71.8427 51.2341 71.882 50.5524 71.8625 49.8711C71.8931 47.4161 71.1979 45.0067 69.8642 42.9453C68.977 41.5735 67.7552 40.4499 66.314 39.6805C64.8728 38.911 63.2594 38.5209 61.6259 38.5469C55.4642 38.5469 51.4871 43.7878 51.4871 49.871V51.9086C51.1971 52.2417 50.9958 52.6424 50.9016 53.0739C50.8075 53.5053 50.8235 53.9535 50.9483 54.3771C51.1834 56.9143 51.9181 57.6882 52.7116 57.6882C52.9467 60.1567 54.7981 63.4678 56.0226 63.9576V67.9739C55.5591 68.7765 54.9399 69.4785 54.2014 70.0387C53.463 70.5988 52.6201 71.0059 51.7222 71.2359L47.3336 72.6759C45.4015 73.2298 43.6154 74.2031 42.1026 75.5265C41.9753 75.409 41.8381 75.2914 41.7108 75.1641C41.6252 75.0969 41.5465 75.0214 41.4757 74.9388C41.4481 74.9212 41.4247 74.8978 41.4071 74.8702C41.1034 74.5665 40.8095 74.2727 40.5157 73.9494C40.3491 73.7829 40.1924 73.6065 40.0455 73.4302C39.8887 73.2539 39.732 73.0776 39.5851 72.8914C39.4242 72.7237 39.2768 72.5435 39.1442 72.3527C38.9973 72.1763 38.8504 71.9902 38.7132 71.8041C38.5513 71.6106 38.4008 71.4078 38.2626 71.1967L37.91 70.6971C37.7506 70.4835 37.6035 70.2612 37.4691 70.031C37.3614 69.8645 37.2536 69.7078 37.1557 69.5412C36.9695 69.2571 36.7932 68.9633 36.6267 68.6596C36.4699 68.3755 36.3132 68.0914 36.1565 67.7976C36.1378 67.7784 36.1244 67.7548 36.1173 67.729C35.9704 67.4449 35.8234 67.1608 35.6863 66.8669C35.5295 66.5633 35.3924 66.2596 35.2651 65.9559C35.1867 65.7698 35.0985 65.5739 35.0202 65.3878C34.9222 65.1625 34.834 64.9371 34.7557 64.7118C34.6479 64.4376 34.5402 64.1437 34.4422 63.8498C34.3638 63.6539 34.3051 63.458 34.2463 63.262C34.1385 62.9486 34.0504 62.6449 33.9622 62.3216C33.9324 62.253 33.9126 62.1804 33.9034 62.1061C33.7957 61.7633 33.7173 61.4204 33.6291 61.0776C33.6095 60.9992 33.59 60.9111 33.5704 60.8131C33.4822 60.4016 33.394 59.9902 33.3157 59.569C33.2373 59.1576 33.1687 58.7363 33.1099 58.3151C33.1002 58.3053 33.1002 58.3053 33.1099 58.2955C33.0512 57.8939 33.0022 57.4825 32.9728 57.0808C32.9497 56.9021 32.9366 56.7222 32.9336 56.542C32.9042 56.258 32.8846 55.9837 32.8748 55.6996C32.8553 55.2588 32.8455 54.8082 32.8455 54.3576C32.8455 54.0637 32.8455 53.7796 32.8651 53.4857C32.8601 53.4205 32.8601 53.355 32.8651 53.2898C32.8629 53.2568 32.8662 53.2237 32.8748 53.1918V53.0939C32.8846 52.8 32.8944 52.5061 32.9238 52.222C32.9826 51.4874 33.061 50.7625 33.1687 50.0474C33.1981 49.8122 33.2373 49.5771 33.2863 49.342C33.3255 49.1069 33.3744 48.8718 33.4234 48.6367C33.4236 48.5768 33.4335 48.5172 33.4528 48.4604C33.541 48.0588 33.6291 47.6571 33.7271 47.2653C33.7369 47.2163 33.7565 47.1674 33.7663 47.1282V47.1184C33.7761 47.0988 33.7761 47.0792 33.7859 47.0596L33.8153 46.942C33.9132 46.56 34.0308 46.178 34.1483 45.7959C34.2953 45.3257 34.452 44.8653 34.6185 44.4147C34.7067 44.1796 34.7948 43.9543 34.883 43.729C34.9633 43.4947 35.0582 43.2657 35.1671 43.0433C35.2651 42.818 35.363 42.5927 35.461 42.3771C35.5533 42.1464 35.6579 41.9208 35.7744 41.7012C35.8724 41.4955 35.9899 41.28 36.0977 41.0743C36.2153 40.8196 36.3524 40.5747 36.4993 40.32C36.6855 39.9771 36.8814 39.6441 37.0969 39.311C37.381 38.8408 37.6846 38.3804 37.9981 37.9298C38.194 37.6457 38.3899 37.3714 38.6055 37.0971C38.9875 36.578 39.3989 36.0686 39.8397 35.569C39.9289 35.4565 40.0237 35.3486 40.1238 35.2457C40.212 35.138 40.3099 35.0302 40.4177 34.9225C40.5157 34.8147 40.6136 34.7167 40.7116 34.609C40.8849 34.4044 41.0714 34.2113 41.27 34.031C41.4365 33.8547 41.6226 33.6686 41.8087 33.502C42.0144 33.2963 42.23 33.1004 42.4455 32.9143C42.5924 32.7771 42.7393 32.6498 42.8961 32.5127C43.9247 31.6182 45.0219 30.8059 46.1777 30.0833C46.3638 29.9657 46.5499 29.8481 46.7361 29.7404C46.9516 29.6033 47.1769 29.4759 47.3924 29.3486C47.5981 29.231 47.8038 29.1134 48.0193 29.0057C48.2153 28.8882 48.421 28.7804 48.6267 28.6825C48.8324 28.5747 49.0479 28.4669 49.2634 28.369C49.4417 28.2774 49.6248 28.1957 49.812 28.1241C50.0765 27.9967 50.341 27.8792 50.6055 27.7714C51.0169 27.5951 51.4381 27.4384 51.8495 27.2914C52.1924 27.1641 52.5451 27.0465 52.8879 26.9388C52.9957 26.8996 53.1034 26.8702 53.2112 26.8408C53.5736 26.7233 53.9361 26.6253 54.3083 26.5274C54.408 26.4955 54.5094 26.4693 54.612 26.449C54.9157 26.3706 55.2193 26.302 55.5328 26.2335C55.5513 26.2255 55.5715 26.2221 55.5916 26.2237C55.8169 26.1649 56.0422 26.1257 56.2675 26.0865C56.5418 26.0278 56.8161 25.9788 57.0904 25.9396C57.2176 25.92 57.3451 25.9004 57.4822 25.8808C57.5214 25.871 57.5508 25.871 57.59 25.8612C57.972 25.8122 58.3638 25.7633 58.7557 25.7241C59.2357 25.6751 59.7157 25.6359 60.2055 25.6163C60.6757 25.5869 61.1557 25.5771 61.6357 25.5771H61.6553C62.0079 25.5771 62.3508 25.5869 62.7034 25.5967C62.8797 25.6065 63.0561 25.6065 63.2324 25.6261C63.5165 25.6359 63.8006 25.6555 64.0846 25.6849C64.2512 25.6947 64.4275 25.7143 64.6038 25.7339C64.8585 25.7535 65.123 25.7829 65.3875 25.822C65.554 25.8416 65.7108 25.8612 65.8773 25.8906C66.0144 25.9102 66.1614 25.9298 66.3083 25.9592C66.6316 26.0082 66.9548 26.0669 67.2781 26.1355C67.7973 26.2335 68.3165 26.351 68.8259 26.4882C69.1687 26.5763 69.5116 26.6645 69.8544 26.7722C70.0335 26.8188 70.21 26.8744 70.3834 26.9388C70.7948 27.0661 71.2063 27.2033 71.6079 27.3502C71.843 27.4384 72.0683 27.5265 72.2936 27.6147C72.5287 27.7029 72.754 27.791 72.9793 27.8988L73.4495 28.1045C74.5148 28.5768 75.5487 29.1166 76.5451 29.7208C76.6626 29.7992 76.7899 29.8776 76.9173 29.9559C77.5051 30.3184 78.083 30.72 78.6512 31.1412H78.661C78.6875 31.1518 78.711 31.1686 78.7295 31.1902C78.9157 31.3274 79.1116 31.4645 79.2879 31.6114C79.4446 31.729 79.5916 31.8465 79.7385 31.9739C79.954 32.1404 80.1793 32.3265 80.3851 32.5127C80.6593 32.738 80.9336 32.9829 81.1981 33.2278C81.4626 33.4727 81.7271 33.7274 81.9818 33.9918C82.1581 34.1584 82.3344 34.3347 82.4912 34.511C82.5121 34.522 82.5292 34.5391 82.5402 34.56C82.7361 34.7657 82.932 34.9714 83.1083 35.1771C83.2259 35.2947 83.3238 35.4122 83.4315 35.5396C83.5792 35.6972 83.7166 35.8641 83.843 36.0392C83.9606 36.1665 84.0683 36.3037 84.1761 36.431C84.2642 36.5388 84.3426 36.6563 84.4308 36.7641C84.4385 36.7677 84.4452 36.7732 84.4503 36.78C84.4555 36.7869 84.4588 36.7948 84.4602 36.8033C84.6953 37.0971 84.9108 37.4008 85.1263 37.7045C85.3516 38.0082 85.5573 38.3118 85.763 38.6351C85.7849 38.6573 85.8016 38.6841 85.812 38.7135C85.9295 38.8898 86.0471 39.0661 86.1548 39.2522C86.3312 39.5363 86.5075 39.8204 86.6642 40.1143C86.6939 40.1545 86.7201 40.1971 86.7426 40.2416C86.9483 40.6139 87.154 40.9959 87.3499 41.378C87.761 42.188 88.1304 43.0185 88.4569 43.8661C88.5744 44.1698 88.692 44.4832 88.7997 44.7967C89.0153 45.3943 89.2014 45.9918 89.3679 46.5894C89.4561 46.8735 89.5246 47.1576 89.5932 47.4514C89.652 47.6571 89.701 47.8629 89.7402 48.0784C89.7891 48.2645 89.8283 48.4604 89.8675 48.6563C89.9459 49.009 90.0046 49.3616 90.0634 49.7241C90.083 49.8514 90.1124 49.9788 90.132 50.1061C90.132 50.1355 90.1418 50.1649 90.1418 50.1943C90.1712 50.4294 90.2104 50.6645 90.2299 50.8996C90.2593 51.0857 90.2789 51.2718 90.2985 51.4678C90.3475 51.9282 90.3769 52.3886 90.4063 52.8588V52.8784C90.4357 53.378 90.4455 53.8776 90.4455 54.3771Z" fill="white"/>
<path d="M83.902 72.6562C83.8704 72.6971 83.8409 72.7396 83.8138 72.7836C83.8441 72.7394 83.8768 72.6969 83.9118 72.6562H83.902Z" fill="#6E8CBB"/>
<path d="M91.1804 54.377C91.1794 48.535 89.4463 42.8245 86.2 37.9675C82.9538 33.1105 78.3403 29.3251 72.9429 27.0899C67.5454 24.8548 61.6064 24.2702 55.8767 25.4101C50.147 26.5501 44.884 29.3634 40.7532 33.4942C36.6223 37.6251 33.809 42.8881 32.669 48.6178C31.5291 54.3475 32.1137 60.2865 34.3488 65.6839C36.584 71.0814 40.3694 75.6949 45.2264 78.9411C50.0834 82.1873 55.7939 83.9205 61.6359 83.9215C62.8873 83.9242 64.1375 83.8423 65.3779 83.6766C65.9932 86.3818 67.5797 88.7671 69.8366 90.3804C72.0936 91.9937 74.864 92.7227 77.6227 92.4292C80.3814 92.1357 82.9365 90.8401 84.8035 88.7881C86.6705 86.736 87.7196 84.0702 87.7518 81.2962V81.1688C87.7553 79.6809 87.4645 78.2069 86.8963 76.8317C86.3281 75.4566 85.4936 74.2073 84.4408 73.1558C88.8059 67.876 91.1897 61.2373 91.1804 54.3868V54.377ZM87.0171 81.0513V81.1688C87.018 83.767 86.0633 86.2747 84.3349 88.2145C82.6065 90.1543 80.2251 91.3907 77.6441 91.6884C75.063 91.9861 72.4627 91.3242 70.3381 89.8287C68.2135 88.3333 66.7131 86.1087 66.1224 83.5786C66.0637 83.3435 66.0147 83.0986 65.9657 82.8537V82.8439C65.8832 82.2893 65.8407 81.7295 65.8384 81.1688C65.8408 79.1043 66.4441 77.0852 67.5748 75.3578C68.7055 73.6305 70.3146 72.2697 72.2057 71.4415H72.2155C72.616 71.2656 73.0285 71.1183 73.4498 71.0007C74.4159 70.7117 75.4193 70.5665 76.4277 70.5696C79.0093 70.5641 81.5025 71.5091 83.4318 73.2243C83.6175 73.3807 83.7941 73.5475 83.9608 73.7239C85.8952 75.675 86.9918 78.3039 87.0171 81.0513ZM90.4065 55.9443C90.3771 56.4341 90.3379 56.9337 90.289 57.4235C90.2694 57.6684 90.24 57.9133 90.2008 58.1582C90.191 58.2758 90.1714 58.3933 90.1518 58.5109C90.1224 58.7264 90.093 58.9419 90.0539 59.1574C90.0521 59.1876 90.0454 59.2174 90.0343 59.2456C89.9755 59.6178 89.907 59.9901 89.8286 60.3525C89.1503 63.5557 87.9312 66.62 86.2237 69.4137C86.0081 69.7664 85.7926 70.1092 85.5575 70.4423C85.4204 70.648 85.2833 70.8538 85.1363 71.0497C84.8522 71.4513 84.5583 71.8432 84.2546 72.235C84.1371 72.3722 84.0293 72.5191 83.9118 72.6562C83.8768 72.6968 83.8441 72.7394 83.8138 72.7836C83.8409 72.7396 83.8703 72.6971 83.902 72.6562C81.8405 70.8316 79.1807 69.8277 76.4277 69.835C75.2645 69.8347 74.1081 70.0131 72.9991 70.364C72.3817 70.5612 71.782 70.8103 71.2065 71.1085C69.3671 72.0651 67.8254 73.5081 66.7494 75.2802C65.6733 77.0524 65.104 79.0858 65.1036 81.1591C65.1047 81.7592 65.1505 82.3584 65.2407 82.9517C64.3539 83.0726 63.4612 83.1445 62.5665 83.1673H62.4979C61.4918 83.2032 60.4843 83.1803 59.4808 83.0987C58.7559 83.0497 58.031 82.9713 57.3159 82.8538C57.071 82.8146 56.8359 82.7754 56.6008 82.7362C56.3657 82.697 56.1306 82.6481 55.8857 82.5991C54.9314 82.4152 53.9892 82.1731 53.0645 81.8742C52.5943 81.7273 52.1339 81.5705 51.6833 81.404C50.7561 81.0741 49.85 80.6881 48.9698 80.2481C47.1738 79.3784 45.4787 78.314 43.9151 77.0742C43.5134 76.7607 43.1216 76.4375 42.7396 76.1044C42.5241 75.9281 42.3086 75.7322 42.093 75.5362C41.9658 75.4187 41.8384 75.3011 41.711 75.164C41.6254 75.0968 41.5467 75.0213 41.4759 74.9387C41.4483 74.9211 41.4249 74.8977 41.4073 74.8701C41.1037 74.5664 40.8097 74.2726 40.5159 73.9493C40.3494 73.7828 40.1926 73.6064 40.0457 73.4301C39.889 73.2538 39.7322 73.0775 39.5853 72.8913C39.4244 72.7236 39.277 72.5434 39.1445 72.3526C38.9975 72.1762 38.8506 71.9901 38.7135 71.804C38.5515 71.6105 38.4011 71.4077 38.2628 71.1966L37.9102 70.697C37.7509 70.4834 37.6037 70.2611 37.4694 70.0309C37.3616 69.8644 37.2539 69.7077 37.1559 69.5411C36.9698 69.257 36.7935 68.9632 36.6269 68.6595C36.4702 68.3754 36.3135 68.0913 36.1567 67.7975C36.1381 67.7783 36.1246 67.7547 36.1175 67.7289C35.9706 67.4448 35.8237 67.1607 35.6865 66.8668C35.5298 66.5632 35.3926 66.2595 35.2653 65.9558C35.1869 65.7697 35.0988 65.5738 35.0204 65.3877C34.9224 65.1624 34.8343 64.937 34.7559 64.7117C34.6481 64.4375 34.5404 64.1436 34.4424 63.8497C34.3641 63.6538 34.3053 63.4579 34.2465 63.262C34.1388 62.9485 34.0506 62.6448 33.9624 62.3215C33.9326 62.2529 33.9128 62.1803 33.9037 62.106C33.7959 61.7632 33.7175 61.4203 33.6294 61.0775C33.6098 60.9991 33.5902 60.911 33.5706 60.813C33.4824 60.4015 33.3943 59.9901 33.3159 59.5689C33.2375 59.1575 33.169 58.7362 33.1102 58.315C33.1004 58.3052 33.1004 58.3052 33.1102 58.2954C33.0514 57.8938 33.0024 57.4824 32.973 57.0807C32.9499 56.902 32.9368 56.7221 32.9339 56.5419C32.9045 56.2579 32.8849 55.9836 32.8751 55.6995C32.8555 55.2587 32.8457 54.8081 32.8457 54.3575V53.9558C32.8457 53.7991 32.8555 53.6424 32.8653 53.4856C32.8604 53.4204 32.8604 53.3549 32.8653 53.2897C32.8632 53.2567 32.8665 53.2236 32.8751 53.1917V53.0938C32.8849 52.7999 32.8947 52.506 32.9241 52.2219C32.973 51.497 33.0514 50.7722 33.169 50.0473C33.1984 49.8121 33.2375 49.577 33.2865 49.3419C33.3257 49.1068 33.3747 48.8717 33.4237 48.6366C33.4239 48.5767 33.4338 48.5171 33.453 48.4603C33.5314 48.0587 33.6294 47.6668 33.7273 47.2652C33.7371 47.2162 33.7567 47.1673 33.7665 47.1281V47.1182C33.7763 47.0986 33.7763 47.079 33.7861 47.0594L33.8155 46.9419C33.9135 46.5598 34.031 46.1778 34.1486 45.7958C34.2955 45.3256 34.4522 44.8652 34.6188 44.4145C34.7069 44.1794 34.7951 43.9541 34.8833 43.7288C34.9636 43.4946 35.0584 43.2655 35.1673 43.0431C35.2653 42.8178 35.3633 42.5925 35.4612 42.377C35.5535 42.1462 35.6582 41.9206 35.7747 41.7011C35.8726 41.4954 35.9902 41.2799 36.0979 41.0741C36.2155 40.8194 36.3526 40.5745 36.4996 40.3198C36.6857 39.977 36.8816 39.6439 37.0971 39.3109C37.3812 38.8407 37.6849 38.3803 37.9984 37.9296C38.1943 37.6456 38.3902 37.3713 38.6057 37.097C38.9877 36.5778 39.3992 36.0684 39.84 35.5688C39.9291 35.4563 40.0239 35.3484 40.1241 35.2456C40.2122 35.1378 40.3102 35.0301 40.4179 34.9223C40.4377 34.8906 40.4607 34.8611 40.4865 34.8341C40.5566 34.7542 40.6319 34.6789 40.7118 34.6088C40.8851 34.4042 41.0717 34.2111 41.2702 34.0309C41.4367 33.8545 41.6228 33.6684 41.809 33.5019C42.0147 33.2962 42.2302 33.1003 42.4457 32.9141C42.5926 32.777 42.7396 32.6496 42.8963 32.5125C43.9249 31.6181 45.0222 30.8058 46.1779 30.0831C46.3641 29.9656 46.5502 29.848 46.7363 29.7403C46.9518 29.6031 47.1771 29.4758 47.3926 29.3484C47.5984 29.2309 47.8041 29.1133 48.0196 29.0056C48.2155 28.888 48.4212 28.7803 48.6269 28.6823C48.8326 28.5745 49.0482 28.4668 49.2637 28.3688C49.4419 28.2773 49.625 28.1955 49.8122 28.1239C50.0767 27.9966 50.3412 27.879 50.6057 27.7713C51.0171 27.595 51.4384 27.4382 51.8498 27.2913C52.1897 27.1562 52.5363 27.0385 52.8882 26.9386C52.9959 26.8994 53.1037 26.8701 53.2114 26.8407C53.5739 26.7231 53.9363 26.6252 54.3086 26.5272C54.4082 26.4953 54.5096 26.4691 54.6122 26.4488C54.9159 26.3705 55.2196 26.2921 55.533 26.2333C55.5516 26.2253 55.5717 26.222 55.5918 26.2235C55.8171 26.1647 56.0424 26.1256 56.2677 26.0864C56.542 26.0276 56.8163 25.9786 57.0906 25.9394C57.2179 25.9198 57.3453 25.9003 57.4824 25.8807C57.5216 25.8709 57.551 25.8709 57.5902 25.8611C57.9722 25.8023 58.3641 25.7631 58.7559 25.7239C59.2359 25.675 59.7159 25.6358 60.2057 25.6162C60.6759 25.5868 61.1559 25.577 61.6359 25.577H61.6555C62.0081 25.577 62.351 25.5868 62.7037 25.5966C62.88 25.6064 63.0563 25.6064 63.2326 25.626C63.5168 25.6358 63.8008 25.6554 64.0849 25.6847C64.2515 25.6945 64.4277 25.7141 64.6041 25.7337C64.8588 25.7533 65.1233 25.7827 65.3877 25.8219C65.5543 25.8415 65.711 25.8611 65.8775 25.8905C66.0147 25.9101 66.1616 25.9296 66.3086 25.959C66.6318 26.008 66.9551 26.0668 67.2784 26.1354C67.7975 26.2333 68.3167 26.3509 68.8261 26.488C69.169 26.5664 69.5118 26.6643 69.8547 26.7721C70.0337 26.8186 70.2103 26.8742 70.3837 26.9386C70.7951 27.066 71.2065 27.2031 71.6081 27.3501C71.8433 27.4382 72.0686 27.5264 72.2939 27.6145C72.529 27.7027 72.7543 27.7909 72.9796 27.8986L73.4498 28.1043C74.515 28.5766 75.549 29.1165 76.5453 29.7207C76.6628 29.799 76.7902 29.8774 76.9175 29.9558C77.5053 30.3182 78.0833 30.7198 78.6514 31.1411H78.6612C78.6877 31.1516 78.7112 31.1684 78.7298 31.1901C78.9159 31.3272 79.1118 31.4643 79.2882 31.6113C79.4449 31.7288 79.5918 31.8464 79.7388 31.9737C79.9543 32.1403 80.1796 32.3264 80.3853 32.5125C80.6596 32.7378 80.9339 32.9827 81.1984 33.2276C81.4628 33.4725 81.7273 33.7272 81.982 33.9917C82.1584 34.1582 82.3347 34.3345 82.4914 34.5109C82.5124 34.5218 82.5294 34.5389 82.5404 34.5598C82.7363 34.7656 82.9322 34.9713 83.1086 35.1769C83.2261 35.2945 83.3241 35.412 83.4318 35.5394C83.5795 35.697 83.7169 35.8639 83.8433 36.039C83.9608 36.1664 84.0686 36.3035 84.1763 36.4309C84.2645 36.5386 84.3428 36.6562 84.431 36.7639C84.4387 36.7676 84.4455 36.773 84.4506 36.7799C84.4557 36.7867 84.4591 36.7947 84.4604 36.8031C84.6955 37.097 84.911 37.4007 85.1265 37.7043C85.3518 38.008 85.5673 38.3215 85.7633 38.6349C85.7851 38.6572 85.8019 38.6839 85.8122 38.7133C85.9298 38.8896 86.0473 39.066 86.1551 39.2521C86.3314 39.5362 86.5077 39.8203 86.6645 40.1141C86.6941 40.1543 86.7204 40.1969 86.7428 40.2415C86.9584 40.6137 87.1543 40.9958 87.3502 41.3778C87.7612 42.1879 88.1307 43.0183 88.4571 43.866C88.5747 44.1696 88.6922 44.4831 88.8 44.7966C89.0155 45.3942 89.2016 45.9917 89.3682 46.5892C89.4563 46.8733 89.5347 47.1672 89.5935 47.4513C89.6522 47.657 89.7012 47.8627 89.7404 48.0782C89.7894 48.2643 89.8286 48.4603 89.8677 48.6562C89.9461 49.0088 90.0049 49.3615 90.0637 49.7239C90.0833 49.8513 90.1126 49.9786 90.1322 50.106C90.1322 50.1354 90.142 50.1647 90.142 50.1941C90.1714 50.4292 90.2106 50.6643 90.2302 50.8994C90.2596 51.0856 90.2792 51.2717 90.2988 51.4676C90.3477 51.928 90.3771 52.3884 90.4065 52.8586V52.8782C90.4359 53.3778 90.4457 53.8774 90.4457 54.377C90.4457 54.8962 90.4359 55.4252 90.4065 55.9443Z" fill="#D1D1D1"/>
<path d="M83.9607 73.7242C83.794 73.5477 83.6174 73.3809 83.4317 73.2246C81.5024 71.5093 79.0092 70.5643 76.4276 70.5699C75.4192 70.5667 74.4158 70.7119 73.4497 71.0009C73.0284 71.1185 72.6159 71.2658 72.2154 71.4417H72.2056C70.3145 72.2699 68.7054 73.6307 67.5747 75.3581C66.444 77.0854 65.8407 79.1046 65.8383 81.1691C65.8406 81.7298 65.8831 82.2896 65.9656 82.8442V82.854C66.0146 83.0989 66.0636 83.3438 66.1223 83.5789C66.713 86.109 68.2134 88.3335 70.338 89.829C72.4626 91.3244 75.0629 91.9863 77.644 91.6886C80.225 91.391 82.6064 90.1545 84.3348 88.2147C86.0632 86.2749 87.0179 83.7672 87.017 81.1691V81.0515C86.9917 78.3042 85.8951 75.6752 83.9607 73.7242ZM81.0611 82.1878H77.3191V85.9397H75.2717V82.1878H71.5297V80.1405H75.2717V76.3984H77.3191V80.1405H81.0611V82.1878Z" fill="white"/>
<path d="M81.0612 80.1405V82.1878H77.3192V85.9397H75.2718V82.1878H71.5298V80.1405H75.2718V76.3984H77.3192V80.1405H81.0612Z" fill="#6E8CBB"/>
</svg>
