<svg width="192" height="192" viewBox="0 0 192 192" fill="none" xmlns="http://www.w3.org/2000/svg">
<path d="M153.795 126.426C151.719 129.12 149.415 131.631 146.909 133.929C146.272 134.517 145.626 135.095 144.95 135.663C144.948 135.663 144.947 135.663 144.946 135.664C144.945 135.664 144.944 135.665 144.943 135.666C144.942 135.667 144.941 135.668 144.941 135.669C144.94 135.67 144.94 135.671 144.94 135.673V135.673C136.114 143.186 124.388 149.113 113.759 146.968C108.342 145.871 106.246 139.503 102.915 135.673C101.45 133.991 99.8799 132.404 98.2132 130.922C97.7039 130.452 97.1749 130.001 96.646 129.56C94.9904 128.169 93.2663 126.857 91.4933 125.613C79.0623 116.924 64.3488 111.604 49.7626 107.725C37.0377 104.336 29.7202 98.3114 26.566 91.7383C26.2953 91.1729 26.0533 90.5943 25.8411 90.0044C25.8313 89.9947 25.8313 89.9946 25.8411 89.9848C25.3446 88.6556 25.0123 87.2706 24.8517 85.8608C24.7928 85.4591 24.7536 85.0477 24.734 84.6461C24.2149 75.2322 31.0329 66.1612 41.7692 63.1538C62.8696 57.2567 66.5626 52.8877 86.1447 34.5693C94.3145 26.9187 138.621 -4.90822 160.77 64.6134C162.73 70.6957 164.047 76.9667 164.698 83.3236C164.737 83.6763 164.767 84.0289 164.796 84.3816C164.894 85.4591 164.963 86.5171 165.002 87.5849V87.5946C165.021 87.9963 165.041 88.3783 165.041 88.7702V88.78C165.423 102.132 162.249 115.327 153.795 126.426Z" fill="#E6E6E6"/>
<path d="M177.159 168.911H169.861V90.1025C169.861 89.1698 169.675 88.2465 169.313 87.3869C168.951 86.5272 168.421 85.7486 167.754 85.0968C166.896 84.264 165.847 83.6551 164.698 83.3237C164.037 83.1275 163.35 83.0285 162.661 83.0298H29.3187C27.65 83.0249 26.0307 83.5958 24.734 84.6461C24.5577 84.7832 24.3913 84.94 24.2247 85.0968C23.5559 85.7473 23.0248 86.5256 22.663 87.3856C22.3012 88.2456 22.116 89.1695 22.1186 90.1025V168.911H14.8402C14.4133 168.909 14.0032 169.077 13.7 169.377C13.3969 169.678 13.2256 170.087 13.2238 170.514V170.517V173.779C13.223 174.382 13.3421 174.98 13.5742 175.536C13.8063 176.093 14.1468 176.598 14.5757 177.022C15.4496 177.879 16.6237 178.36 17.8476 178.364H174.151C175.376 178.367 176.553 177.884 177.423 177.022C177.852 176.598 178.192 176.093 178.424 175.536C178.656 174.979 178.776 174.382 178.775 173.779V170.517C178.774 170.09 178.604 169.681 178.301 169.38C177.999 169.079 177.589 168.91 177.162 168.911H177.159ZM23.0982 90.1025C23.0991 88.5124 23.7295 86.9874 24.8516 85.8608C24.8683 85.8356 24.8881 85.8126 24.9105 85.7923C26.0859 84.6367 27.6703 83.9924 29.3186 83.9996H162.661C163.39 83.9974 164.113 84.1269 164.796 84.3817C165.643 84.6838 166.415 85.1649 167.059 85.7923C167.636 86.3521 168.094 87.0221 168.407 87.7625C168.72 88.5029 168.881 89.2986 168.881 90.1025V168.911H23.0982L23.0982 90.1025ZM108.039 169.871V173.25H83.9602V169.871H108.039ZM177.795 173.779C177.796 174.253 177.702 174.723 177.518 175.16C177.335 175.598 177.066 175.994 176.728 176.326C176.39 176.664 175.988 176.932 175.546 177.114C175.103 177.296 174.629 177.387 174.151 177.384H17.8476C16.883 177.384 15.9573 177.004 15.2713 176.326C14.9336 175.993 14.6653 175.597 14.482 175.16C14.2987 174.723 14.204 174.253 14.2034 173.779V170.517C14.2033 170.434 14.2195 170.351 14.2513 170.274C14.2831 170.197 14.3298 170.127 14.3887 170.067C14.4476 170.008 14.5176 169.961 14.5946 169.929C14.6717 169.897 14.7543 169.881 14.8378 169.88H83.2255V173.378C83.2467 173.557 83.3376 173.722 83.4786 173.835C83.6197 173.949 83.7996 174.003 83.9798 173.985H108.019C108.199 174.003 108.379 173.949 108.52 173.835C108.661 173.722 108.752 173.557 108.773 173.378V169.88H177.159C177.242 169.88 177.325 169.897 177.402 169.928C177.479 169.96 177.549 170.007 177.608 170.066C177.667 170.125 177.714 170.195 177.746 170.272C177.778 170.349 177.795 170.431 177.795 170.515V170.517L177.795 173.779Z" fill="#424242"/>
<path d="M108.039 169.88V173.25H83.9602V169.88H108.039Z" fill="#B1B1B1"/>
<path d="M177.795 170.517V173.779C177.796 174.253 177.701 174.723 177.518 175.16C177.335 175.598 177.066 175.994 176.728 176.326C176.39 176.664 175.988 176.932 175.546 177.114C175.103 177.295 174.629 177.387 174.151 177.384H17.8475C16.883 177.384 15.9573 177.004 15.2712 176.326C14.9335 175.993 14.6652 175.597 14.4819 175.16C14.2986 174.722 14.2039 174.253 14.2034 173.779V170.517C14.2032 170.434 14.2195 170.351 14.2513 170.274C14.2831 170.197 14.3298 170.126 14.3887 170.067C14.4476 170.008 14.5176 169.961 14.5946 169.929C14.6717 169.897 14.7543 169.881 14.8377 169.88H83.2255V173.378C83.2467 173.557 83.3375 173.722 83.4786 173.835C83.6196 173.949 83.7996 174.003 83.9798 173.985H108.019C108.199 174.003 108.379 173.949 108.52 173.835C108.661 173.722 108.752 173.557 108.773 173.378V169.88H177.159C177.242 169.88 177.325 169.896 177.402 169.928C177.479 169.96 177.549 170.007 177.608 170.066C177.667 170.124 177.714 170.194 177.746 170.271C177.778 170.348 177.795 170.431 177.795 170.515L177.795 170.517Z" fill="#8C8C8C"/>
<path d="M167.059 85.7922C166.415 85.1649 165.643 84.6838 164.796 84.3816C164.113 84.1268 163.39 83.9974 162.661 83.9996H29.3186C27.6703 83.9923 26.0859 84.6366 24.9104 85.7922C24.8881 85.8126 24.8683 85.8356 24.8516 85.8608C23.7295 86.9874 23.0991 88.5124 23.0981 90.1024V168.911H168.881V90.1024C168.881 89.2986 168.72 88.5029 168.407 87.7625C168.094 87.0221 167.636 86.3521 167.059 85.7922ZM166.138 165.942H25.8312V90.1024C25.828 89.6555 25.9168 89.2126 26.0921 88.8014C26.2673 88.3902 26.5253 88.0195 26.85 87.7122C27.1711 87.3877 27.5544 87.1311 27.9768 86.9578C28.3992 86.7844 28.8522 86.6979 29.3087 86.7032H162.661C163.581 86.7069 164.465 87.0647 165.129 87.7024C165.451 88.0135 165.706 88.3865 165.88 88.799C166.053 89.2116 166.141 89.655 166.138 90.1024V165.942Z" fill="#424242"/>
<path d="M165.129 87.7025C164.465 87.0648 163.581 86.707 162.661 86.7034H29.3088C28.8522 86.698 28.3993 86.7846 27.9769 86.9579C27.5544 87.1312 27.1712 87.3878 26.85 87.7123C26.5254 88.0196 26.2674 88.3903 26.0921 88.8015C25.9169 89.2127 25.8281 89.6556 25.8313 90.1025V165.943H166.138V90.1025C166.141 89.6551 166.053 89.2117 165.88 88.7991C165.706 88.3866 165.451 88.0136 165.129 87.7025ZM165.403 165.208H26.5659V90.1025C26.564 89.7531 26.6334 89.407 26.7699 89.0853C26.9063 88.7636 27.1069 88.4731 27.3594 88.2315C27.6157 87.977 27.92 87.7757 28.2546 87.6395C28.5892 87.5033 28.9475 87.4349 29.3088 87.4381H162.661C163.388 87.4407 164.087 87.7251 164.61 88.2315C164.864 88.4719 165.066 88.7622 165.202 89.0842C165.339 89.4061 165.407 89.7528 165.403 90.1025L165.403 165.208Z" fill="#181818"/>
<path d="M164.61 88.2316C164.087 87.7251 163.389 87.4407 162.661 87.4381H29.3089C28.9476 87.4349 28.5893 87.5034 28.2547 87.6396C27.9201 87.7758 27.6158 87.977 27.3595 88.2316C27.107 88.4731 26.9064 88.7636 26.77 89.0853C26.6335 89.407 26.5641 89.7532 26.566 90.1026V165.208H165.404V90.1026C165.407 89.7529 165.339 89.4062 165.202 89.0842C165.066 88.7622 164.864 88.472 164.61 88.2316ZM47.8819 136.427C46.2332 136.424 44.6532 135.767 43.4891 134.599C42.325 133.432 41.672 131.85 41.6736 130.201C41.6752 128.553 42.3313 126.972 43.4976 125.807C44.664 124.641 46.2452 123.987 47.8939 123.987C49.5426 123.987 51.1238 124.641 52.2902 125.807C53.4565 126.972 54.1126 128.553 54.1141 130.201C54.1157 131.85 53.4627 133.432 52.2986 134.599C51.1345 135.767 49.5546 136.424 47.9059 136.427C47.8979 136.427 47.8899 136.427 47.8819 136.427H47.8819ZM70.0011 130.922H56.9921C56.9027 130.922 56.8141 130.905 56.7315 130.871C56.6489 130.836 56.5738 130.786 56.5105 130.723C56.4472 130.66 56.397 130.585 56.3627 130.502C56.3284 130.42 56.3107 130.331 56.3106 130.242C56.3106 130.153 56.3281 130.064 56.3622 129.981C56.3964 129.899 56.4464 129.824 56.5096 129.76C56.5728 129.697 56.6478 129.647 56.7303 129.613C56.8129 129.578 56.9014 129.561 56.9908 129.561H70.001C70.1816 129.56 70.3548 129.632 70.4826 129.76C70.6104 129.887 70.6823 130.06 70.6825 130.241C70.6826 130.421 70.6111 130.595 70.4835 130.722C70.356 130.85 70.1829 130.922 70.0023 130.922H70.0011H70.0011ZM79.2092 136.467C77.5486 136.465 75.9566 135.804 74.7832 134.629C73.6098 133.454 72.9511 131.861 72.9519 130.2C72.9527 128.54 73.6129 126.947 74.7875 125.773C75.962 124.6 77.5546 123.94 79.2152 123.94C80.8758 123.94 82.4685 124.6 83.643 125.773C84.8175 126.947 85.4777 128.54 85.4785 130.2C85.4793 131.861 84.8206 133.454 83.6472 134.629C82.4738 135.804 80.8818 136.465 79.2212 136.467H79.2092H79.2092ZM101.387 130.922H88.3782C88.2888 130.922 88.2002 130.905 88.1176 130.871C88.035 130.836 87.9599 130.786 87.8966 130.723C87.7688 130.596 87.6969 130.423 87.6967 130.242C87.6966 130.061 87.7681 129.888 87.8957 129.76C88.0233 129.633 88.1964 129.561 88.3769 129.561H101.387C101.568 129.561 101.741 129.632 101.868 129.76C101.996 129.888 102.068 130.061 102.068 130.241C102.068 130.422 101.996 130.595 101.868 130.723C101.741 130.85 101.568 130.922 101.387 130.922H101.387ZM110.546 136.467C109.308 136.467 108.098 136.1 107.069 135.412C106.039 134.724 105.237 133.746 104.763 132.603C104.289 131.459 104.166 130.2 104.407 128.986C104.649 127.772 105.245 126.656 106.12 125.781C106.996 124.905 108.111 124.309 109.325 124.068C110.539 123.826 111.798 123.95 112.942 124.424C114.086 124.898 115.063 125.7 115.751 126.729C116.439 127.759 116.806 128.969 116.806 130.207C116.806 131.029 116.644 131.843 116.33 132.602C116.016 133.362 115.555 134.052 114.974 134.633C114.393 135.214 113.703 135.675 112.944 135.99C112.184 136.304 111.37 136.467 110.549 136.467H110.546H110.546ZM132.724 130.922H119.706C119.525 130.922 119.352 130.85 119.224 130.723C119.096 130.595 119.025 130.422 119.025 130.241C119.025 130.061 119.096 129.888 119.224 129.76C119.352 129.632 119.525 129.561 119.706 129.561H132.724C132.905 129.561 133.078 129.632 133.206 129.76C133.333 129.888 133.405 130.061 133.405 130.241C133.405 130.422 133.333 130.595 133.206 130.723C133.078 130.85 132.905 130.922 132.724 130.922ZM141.883 136.467C140.645 136.467 139.435 136.1 138.406 135.412C137.376 134.724 136.574 133.746 136.1 132.603C135.627 131.459 135.503 130.2 135.744 128.986C135.986 127.772 136.582 126.656 137.457 125.781C138.333 124.905 139.448 124.309 140.662 124.068C141.877 123.826 143.135 123.95 144.279 124.424C145.423 124.898 146.4 125.7 147.088 126.729C147.776 127.759 148.143 128.969 148.143 130.207C148.143 131.029 147.982 131.843 147.667 132.602C147.353 133.362 146.892 134.052 146.311 134.633C145.73 135.214 145.04 135.675 144.281 135.99C143.521 136.304 142.708 136.467 141.886 136.467H141.883H141.883Z" fill="white"/>
<path d="M141.884 136.466C145.341 136.466 148.143 133.664 148.143 130.207C148.143 126.75 145.341 123.947 141.884 123.947C138.426 123.947 135.624 126.75 135.624 130.207C135.624 133.664 138.426 136.466 141.884 136.466Z" fill="#C2D3E6"/>
<path d="M133.4 130.246C133.4 130.425 133.329 130.597 133.202 130.724C133.075 130.85 132.903 130.922 132.724 130.922H119.705C119.525 130.922 119.352 130.85 119.224 130.723C119.096 130.595 119.025 130.422 119.025 130.241C119.025 130.061 119.096 129.888 119.224 129.76C119.352 129.632 119.525 129.561 119.705 129.561H132.724C132.904 129.561 133.077 129.634 133.204 129.762C133.33 129.89 133.401 130.063 133.4 130.243L133.4 130.246Z" fill="#C2D3E6"/>
<path d="M110.546 136.466C114.003 136.466 116.806 133.664 116.806 130.207C116.806 126.75 114.003 123.947 110.546 123.947C107.089 123.947 104.287 126.75 104.287 130.207C104.287 133.664 107.089 136.466 110.546 136.466Z" fill="#C2D3E6"/>
<path d="M102.063 130.246C102.063 130.425 101.991 130.597 101.865 130.724C101.738 130.851 101.566 130.922 101.387 130.922H88.3782C88.1977 130.922 88.0244 130.851 87.8966 130.723C87.7688 130.596 87.6969 130.423 87.6968 130.242C87.6966 130.061 87.7682 129.888 87.8957 129.76C88.0233 129.633 88.1964 129.561 88.377 129.561H101.387C101.567 129.561 101.74 129.634 101.867 129.762C101.993 129.89 102.064 130.063 102.063 130.243L102.063 130.246Z" fill="#C2D3E6"/>
<path d="M85.0582 130.26C85.0591 131.499 84.6927 132.71 84.0051 133.741C83.3176 134.772 82.3398 135.575 81.1955 136.05C80.0512 136.525 78.7917 136.65 77.5763 136.41C76.3609 136.169 75.2443 135.573 74.3675 134.698C73.4907 133.822 72.8932 132.706 72.6505 131.491C72.4078 130.276 72.5309 129.017 73.0042 127.872C73.4774 126.727 74.2796 125.748 75.3092 125.058C76.3389 124.369 77.5498 124.001 78.7888 124H78.7889C80.4501 123.999 82.0436 124.658 83.2192 125.832C84.3948 127.006 85.0563 128.598 85.0582 130.26Z" fill="#C2D3E6"/>
<path d="M70.6868 130.246C70.6863 130.335 70.6683 130.424 70.6337 130.506C70.5991 130.588 70.5487 130.663 70.4853 130.726C70.4219 130.788 70.3467 130.838 70.2641 130.872C70.1815 130.906 70.093 130.923 70.0038 130.922H70.001H56.9921C56.8115 130.922 56.6383 130.851 56.5105 130.723C56.3827 130.596 56.3108 130.423 56.3107 130.242C56.3105 130.061 56.3821 129.888 56.5096 129.76C56.6372 129.633 56.8103 129.561 56.9909 129.561H70.001C70.1818 129.559 70.3556 129.63 70.4842 129.757C70.6128 129.884 70.6857 130.057 70.6868 130.238V130.246Z" fill="#B8DFBC"/>
<path d="M54.1217 130.197C54.1256 131.431 53.7634 132.639 53.0809 133.667C52.3985 134.695 51.4265 135.498 50.2877 135.974C49.149 136.45 47.8948 136.577 46.6836 136.34C45.4724 136.103 44.3587 135.513 43.4833 134.643C42.6078 133.773 42.0101 132.663 41.7655 131.453C41.5209 130.243 41.6405 128.988 42.1092 127.847C42.5779 126.705 43.3747 125.728 44.3987 125.039C45.4227 124.35 46.628 123.98 47.8621 123.977H47.8818C49.5337 123.975 51.1186 124.63 52.2885 125.796C53.4584 126.962 54.1177 128.545 54.1217 130.197Z" fill="#97C09B"/>
</svg>
