<svg width="192" height="192" viewBox="0 0 192 192" fill="none" xmlns="http://www.w3.org/2000/svg">
<path d="M165.347 107.269H26.7969V178.641H165.347V107.269Z" fill="#E6E6E6"/>
<path d="M18.2923 41.1143C17.4834 41.1143 16.6927 41.3541 16.0201 41.8035C15.3476 42.2529 14.8234 42.8916 14.5138 43.639C14.2043 44.3863 14.1233 45.2086 14.2811 46.0019C14.4389 46.7953 14.8284 47.524 15.4004 48.096C15.9724 48.6679 16.7011 49.0575 17.4944 49.2153C18.2878 49.3731 19.1101 49.2921 19.8574 48.9825C20.6047 48.673 21.2435 48.1488 21.6929 47.4762C22.1422 46.8037 22.3821 46.0129 22.3821 45.2041C22.3821 44.667 22.2764 44.1352 22.0709 43.639C21.8654 43.1429 21.5642 42.692 21.1845 42.3122C20.8048 41.9325 20.354 41.6312 19.8578 41.4257C19.3617 41.2201 18.8299 41.1143 18.2928 41.1143H18.2923Z" fill="#C2D3E6"/>
<path d="M18.2963 49.679C17.1118 49.6795 15.9757 49.2095 15.1378 48.3723C14.2999 47.5352 13.8289 46.3994 13.8284 45.215C13.8278 44.0305 14.2979 42.8944 15.135 42.0565C15.9722 41.2186 17.1079 40.7476 18.2924 40.7471H18.2943C19.4764 40.7499 20.6091 41.2212 21.4442 42.0578C22.2793 42.8944 22.7486 44.028 22.7493 45.2101C22.7499 46.3922 22.2818 47.5263 21.4477 48.3638C20.6135 49.2013 19.4813 49.6739 18.2992 49.678L18.2963 49.679ZM18.2933 41.4818C17.5566 41.485 16.8372 41.7061 16.2259 42.1174C15.6146 42.5287 15.1387 43.1116 14.8581 43.7929C14.5775 44.4741 14.5047 45.2232 14.649 45.9457C14.7934 46.6682 15.1482 47.3318 15.669 47.853C16.0131 48.1994 16.4225 48.4742 16.8735 48.6613C17.3244 48.8484 17.808 48.9443 18.2963 48.9433H18.2992C19.0359 48.9401 19.7551 48.719 20.3664 48.3079C20.9776 47.8967 21.4536 47.3139 21.7342 46.6328C22.0149 45.9517 22.0878 45.2028 21.9437 44.4804C21.7996 43.758 21.445 43.0943 20.9245 42.573C20.5804 42.226 20.1708 41.9507 19.7195 41.7632C19.2681 41.5757 18.784 41.4797 18.2953 41.4808L18.2933 41.4818Z" fill="#6E8CBB"/>
<path d="M35.6415 21.75L21.074 26.7459L32.6763 36.8896L35.6415 21.75Z" fill="#A2DAE6"/>
<path d="M32.9147 37.5849L20.3534 26.6046L36.1248 21.1953L32.9147 37.5849ZM21.7934 26.8877L32.4386 36.1938L35.1599 22.3042L21.7934 26.8877Z" fill="#5594A1"/>
<path d="M155.88 23.7109L159.502 38.7065L170.652 28.0652L155.88 23.7109Z" fill="#E9CA8F"/>
<path d="M159.295 39.412L155.374 23.1792L171.365 27.892L159.295 39.412ZM156.386 24.243L159.71 38.0014L169.938 28.2388L156.386 24.243Z" fill="#A58346"/>
<path d="M82.6897 47.4701C82.3609 46.1088 81.8744 44.7905 81.2399 43.542C79.2614 39.7245 76.5521 36.3329 73.2661 33.5599L73.031 33.3542L71.5616 32.1297L71.5518 32.1101C71.0816 31.7379 70.5624 31.3362 69.9453 30.8758L69.6906 30.7093C67.9226 29.6142 65.8828 29.0372 63.8032 29.044C61.5056 29.0441 59.2625 29.7431 57.3715 31.0481C55.4805 32.3531 54.0312 34.2024 53.216 36.3505C52.4008 38.4986 52.2582 40.8438 52.8072 43.0748C53.3562 45.3058 54.5708 47.3171 56.2897 48.8416L56.3975 48.9395L56.4465 48.9885C56.6522 49.1648 56.8579 49.3314 57.0538 49.4685L57.2204 49.586L57.4653 49.7526C57.8607 50.0062 58.2694 50.2383 58.6897 50.4481C58.7289 50.4677 58.7681 50.4873 58.8171 50.5069C63.1665 52.3877 70.2881 52.5052 72.022 52.5052H82.6995L82.6897 47.4701ZM72.022 51.7705C70.6114 51.7705 63.3722 51.6824 59.0914 49.8211C59.0678 49.8132 59.0448 49.8034 59.0228 49.7918C58.6289 49.598 58.2462 49.3822 57.8767 49.1452L57.6416 48.9885L57.475 48.8709C57.3281 48.7632 57.1518 48.626 56.9461 48.4497L56.8873 48.4007L56.7795 48.293C55.1715 46.8678 54.035 44.9871 53.5211 42.9008C53.0072 40.8144 53.1401 38.6211 53.9023 36.612C54.6644 34.603 56.0197 32.8734 57.7882 31.6529C59.5566 30.4323 61.6545 29.7787 63.8032 29.7787C65.7406 29.7711 67.6412 30.3074 69.2889 31.3265L69.5044 31.4636C70.0628 31.875 70.533 32.2473 70.964 32.5803L70.9738 32.5999L71.0914 32.6979L72.551 33.9028L72.7763 34.1085C75.988 36.8225 78.6399 40.1366 80.5836 43.8652C81.1754 45.0385 81.6354 46.2738 81.955 47.5485L81.9648 51.7705H72.022Z" fill="#A58346"/>
<path d="M125.733 58.1379C128.444 57.9409 131.115 57.3672 133.668 56.4334C133.717 56.4138 133.756 56.404 133.805 56.3844C134.011 56.3163 134.214 56.2378 134.412 56.1493C134.896 55.9691 135.368 55.7564 135.823 55.5126C135.864 55.4932 135.903 55.4703 135.94 55.444C136.059 55.3933 136.173 55.3344 136.283 55.2677C136.322 55.2481 136.352 55.2285 136.391 55.2089C136.401 55.1991 136.42 55.1991 136.43 55.1893C136.45 55.1795 136.46 55.1697 136.479 55.16C136.487 55.1598 136.494 55.158 136.501 55.1546C136.508 55.1512 136.514 55.1463 136.518 55.1404L136.989 54.8759C137.087 54.8171 137.184 54.7583 137.273 54.6995C137.4 54.631 137.518 54.5526 137.635 54.4742C137.748 54.4104 137.856 54.3384 137.958 54.2587C138.438 53.9246 138.899 53.5649 139.34 53.1812C139.369 53.1518 139.398 53.1322 139.418 53.1126L139.477 53.0538C142.657 50.2355 144.662 46.3258 145.097 42.0989C145.531 37.8721 144.362 33.6362 141.822 30.23C139.282 26.8238 135.555 24.4955 131.38 23.7062C127.205 22.917 122.886 23.7242 119.278 25.9681C119.229 25.9886 119.183 26.0149 119.14 26.0465C118.288 26.6734 117.485 27.2808 116.721 27.8979L116.691 27.9273C104.574 37.7624 103.702 46.9902 103.702 46.9902H88.3224C88.3224 46.9902 87.4506 37.7624 75.333 27.9273L75.3037 27.8979C74.5396 27.2808 73.7363 26.6734 72.8841 26.0465C72.8417 26.0149 72.7956 25.9886 72.7469 25.9681C70.066 24.2905 66.9658 23.4043 63.8032 23.4114C60.3633 23.4118 57.0048 24.4584 54.1736 26.4121C51.3423 28.3658 49.1721 31.1344 47.951 34.3503C46.7299 37.5662 46.5156 41.0774 47.3366 44.4179C48.1576 47.7584 49.975 50.7703 52.5477 53.0538L52.6065 53.1126C52.6261 53.1322 52.6555 53.1518 52.6849 53.1812C53.1256 53.5649 53.5867 53.9246 54.0661 54.2587C54.1684 54.3384 54.2765 54.4104 54.3894 54.4742C54.5069 54.5526 54.6245 54.631 54.7518 54.6995C54.84 54.7583 54.9379 54.8171 55.0359 54.8759L55.5061 55.1404C55.5108 55.1463 55.5167 55.1512 55.5235 55.1546C55.5303 55.158 55.5377 55.1598 55.5453 55.16C55.5649 55.1697 55.5747 55.1795 55.5943 55.1893C55.6041 55.1991 55.6237 55.1991 55.6335 55.2089C55.6726 55.2285 55.702 55.2481 55.7412 55.2677C55.8512 55.3344 55.9658 55.3933 56.0841 55.444C56.1212 55.4703 56.1605 55.4932 56.2016 55.5126C56.6569 55.7564 57.1282 55.9691 57.6122 56.1493C57.8111 56.2375 58.0135 56.3159 58.2196 56.3844C58.2686 56.404 58.3077 56.4138 58.3567 56.4334C60.9097 57.3672 63.5802 57.9409 66.2914 58.1379H22.3861V87.7412H34.8171V171.94H157.266V87.7412H169.697V58.1379H125.733ZM65.1355 57.2857C65.117 57.2775 65.0968 57.2742 65.0767 57.2759C64.2475 57.1842 63.4236 57.0502 62.6081 56.8742C62.2065 56.7959 61.8147 56.7077 61.4228 56.6C61.3151 56.5804 61.2073 56.551 61.0996 56.5216C61.0898 56.5216 61.0702 56.5118 61.0604 56.5118C60.7959 56.4432 60.5412 56.3648 60.2865 56.2767C60.1396 56.2375 59.9926 56.1983 59.8653 56.1591C59.7967 56.1395 59.7281 56.12 59.6694 56.1004C59.6008 56.0808 59.5322 56.0612 59.4735 56.0416H59.4637C59.3853 56.0122 59.3167 55.9926 59.2384 55.9632C59.1698 55.9436 59.111 55.924 59.0522 55.9044C58.9641 55.8653 58.8759 55.8359 58.7877 55.8065C58.68 55.7673 58.631 55.7477 58.631 55.7477C58.5807 55.7358 58.5315 55.7194 58.4841 55.6987C57.1792 55.2157 55.9309 54.5916 54.7616 53.8375C54.6782 53.7933 54.5994 53.7408 54.5265 53.6808L54.5069 53.671L54.4873 53.6514C54.0346 53.3396 53.5996 53.0028 53.1845 52.6424C53.1551 52.613 53.1257 52.5934 53.0963 52.564L53.0375 52.5053C50.5757 50.3211 48.8363 47.4398 48.0504 44.2439C47.2645 41.048 47.4691 37.6886 48.6371 34.6117C49.8052 31.5349 51.8814 28.886 54.5902 27.0168C57.2989 25.1475 60.5121 24.1463 63.8032 24.1461C66.8281 24.1373 69.7934 24.9865 72.3551 26.5951L72.3845 26.6146L72.453 26.6342C73.2955 27.2612 74.0792 27.8587 74.8237 28.4563L75.0098 28.613L75.0686 28.662C79.463 32.0972 83.0676 36.4368 85.6384 41.3869C86.5625 43.1614 87.2194 45.0628 87.5877 47.0293V47.911L87.5975 57.4032V58.1379L85.8441 58.1477C84.5314 58.1575 83.3167 58.1575 82.2098 58.1379H79.3886C78.4775 58.1477 77.5959 58.1477 76.7437 58.1379C75.3918 58.1281 74.1281 58.0889 72.9428 58.0302C72.5216 58.0106 72.12 57.991 71.7281 57.9616L71.2286 57.9322C70.8367 57.9028 70.4449 57.8832 70.0726 57.8538C68.1722 57.6971 66.5363 57.5012 65.1355 57.2857ZM87.6073 171.206H35.5518V87.7412H87.6073V171.206ZM87.6073 87.0065H23.1208V58.8726H87.6073V87.0065ZM88.3322 47.7248H103.692V58.1379H88.3322V47.7248ZM103.702 171.206H88.342V87.7412H103.702V171.206ZM103.702 87.0065H88.342V58.8726H103.702V87.0065ZM104.427 57.4032L104.437 47.911V47.0293C104.805 45.0628 105.462 43.1615 106.386 41.3869C108.957 36.4368 112.561 32.0972 116.956 28.662L117.015 28.613L117.201 28.4563C117.945 27.8587 118.729 27.2612 119.571 26.6342L119.64 26.6146L119.669 26.595C122.231 24.9865 125.196 24.1373 128.221 24.1461C131.512 24.1464 134.725 25.1476 137.434 27.0169C140.143 28.8861 142.219 31.535 143.387 34.6118C144.555 37.6887 144.76 41.048 143.974 44.2439C143.188 47.4397 141.449 50.321 138.987 52.5052L138.928 52.564C138.899 52.5934 138.869 52.613 138.84 52.6424C138.425 53.0028 137.99 53.3396 137.537 53.6514L137.518 53.671L137.498 53.6808C137.425 53.7408 137.346 53.7933 137.263 53.8375C136.094 54.5916 134.845 55.2157 133.54 55.6987C133.493 55.7196 133.444 55.736 133.393 55.7477C133.393 55.7477 133.344 55.7673 133.237 55.8065C133.149 55.8359 133.06 55.8652 132.972 55.9044C132.913 55.924 132.855 55.9436 132.786 55.9632C132.708 55.9926 132.639 56.0122 132.561 56.0416H132.551C132.492 56.0612 132.424 56.0808 132.355 56.1003C132.296 56.1199 132.228 56.1395 132.159 56.1591C132.032 56.1983 131.885 56.2375 131.738 56.2767C131.483 56.3648 131.229 56.4432 130.964 56.5118C130.954 56.5118 130.935 56.5216 130.925 56.5216C130.817 56.551 130.709 56.5803 130.602 56.5999C130.21 56.7077 129.818 56.7959 129.416 56.8742C128.601 57.0501 127.777 57.1842 126.948 57.2759C126.928 57.2741 126.907 57.2775 126.889 57.2857C125.488 57.5012 123.852 57.6971 121.952 57.8538C121.58 57.8832 121.188 57.9028 120.796 57.9322L120.335 57.9616H120.296C119.904 57.991 119.503 58.0106 119.082 58.0301C117.896 58.0889 116.633 58.1281 115.281 58.1379C114.429 58.1477 113.547 58.1477 112.636 58.1379H109.815C108.708 58.1575 107.493 58.1575 106.18 58.1477L104.437 58.1379H104.427V57.4032ZM156.531 171.206H104.437V87.7412H156.531V171.206ZM168.962 87.0065H104.437V58.8726H168.962V87.0065Z" fill="#A58346"/>
<path d="M87.5877 47.911V47.0293C87.2192 45.0628 86.5623 43.1615 85.6383 41.3869C83.0676 36.4368 79.4629 32.0972 75.0685 28.662L75.0098 28.613L74.8236 28.4563C74.0791 27.8587 73.2955 27.2612 72.453 26.6342L72.3844 26.6146L72.3551 26.595C69.7934 24.9865 66.8281 24.1373 63.8032 24.1461C60.5121 24.1464 57.299 25.1476 54.5902 27.0169C51.8815 28.8861 49.8053 31.535 48.6373 34.6118C47.4693 37.6887 47.2646 41.048 48.0505 44.2439C48.8364 47.4397 50.5757 50.321 53.0375 52.5052L53.0963 52.564C53.1257 52.5934 53.1551 52.613 53.1844 52.6424C53.5996 53.0028 54.0345 53.3396 54.4873 53.6514L54.5069 53.671L54.5265 53.6808C54.5994 53.7408 54.6781 53.7933 54.7616 53.8375C55.9309 54.5916 57.1791 55.2157 58.484 55.6987C58.5314 55.7196 58.5806 55.736 58.631 55.7477C58.631 55.7477 58.68 55.7673 58.7877 55.8065C58.8759 55.8359 58.964 55.8652 59.0522 55.9044C59.111 55.924 59.1698 55.9436 59.2383 55.9632C59.3167 55.9926 59.3853 56.0122 59.4636 56.0416H59.4734C59.5322 56.0612 59.6008 56.0808 59.6693 56.1003C59.7281 56.1199 59.7967 56.1395 59.8653 56.1591C59.9926 56.1983 60.1395 56.2375 60.2865 56.2767C60.5412 56.3648 60.7959 56.4432 61.0604 56.5118C61.0702 56.5118 61.0898 56.5216 61.0996 56.5216C61.2073 56.551 61.3151 56.5803 61.4228 56.5999C61.8147 56.7077 62.2065 56.7959 62.6081 56.8742C63.4236 57.0501 64.2475 57.1842 65.0767 57.2759C65.0968 57.2742 65.117 57.2776 65.1355 57.2857C66.5363 57.5012 68.1722 57.6971 70.0726 57.8538C70.4449 57.8832 70.8367 57.9028 71.2285 57.9322L71.7281 57.9616C72.12 57.991 72.5216 58.0106 72.9428 58.0301C74.1281 58.0889 75.3918 58.1281 76.7436 58.1379C77.5959 58.1477 78.4775 58.1477 79.3885 58.1379H82.2097C83.3167 58.1575 84.5314 58.1575 85.844 58.1477L87.5975 58.1379V57.4032L87.5877 47.911ZM72.4138 52.5052H72.022C70.2881 52.5052 63.1665 52.3877 58.8171 50.5069C58.7681 50.4873 58.7289 50.4677 58.6898 50.4481C58.2694 50.2384 57.8607 50.0062 57.4653 49.7526L57.2204 49.5861L57.0538 49.4685C56.8579 49.3314 56.6522 49.1648 56.4465 48.9885L56.3975 48.9395L56.2898 48.8416C54.5707 47.3171 53.356 45.3059 52.8069 43.0748C52.2579 40.8438 52.4004 38.4985 53.2157 36.3504C54.0309 34.2023 55.4803 32.353 57.3713 31.048C59.2624 29.743 61.5056 29.0441 63.8032 29.044C65.8828 29.0372 67.9226 29.6142 69.6906 30.7093L69.9453 30.8759C70.5624 31.3363 71.0816 31.7379 71.5518 32.1101L71.5616 32.1297L73.031 33.3542L73.2661 33.5599C76.5524 36.3327 79.2617 39.7243 81.24 43.542C81.8744 44.7905 82.3609 46.1088 82.6898 47.4701L82.6995 52.5052H72.4138Z" fill="#BD716D"/>
<path d="M128.221 24.1461C125.196 24.1373 122.231 24.9865 119.669 26.595L119.64 26.6146L119.571 26.6342C118.729 27.2612 117.945 27.8587 117.201 28.4563L117.015 28.613L116.956 28.662C112.561 32.0972 108.957 36.4368 106.386 41.3869C105.462 43.1614 104.805 45.0628 104.437 47.0293V47.911L104.427 57.4032V58.1379H112.636C113.547 58.1477 114.429 58.1477 115.281 58.1379C116.633 58.1281 117.896 58.0889 119.082 58.0301C119.503 58.0106 119.904 57.991 120.296 57.9616H120.335L120.796 57.9322C121.188 57.9028 121.58 57.8832 121.952 57.8538C123.852 57.6971 125.488 57.5012 126.889 57.2857C126.907 57.2776 126.928 57.2742 126.948 57.2759C127.777 57.1842 128.601 57.0501 129.416 56.8742C129.818 56.7959 130.21 56.7077 130.602 56.5999C130.709 56.5803 130.817 56.551 130.925 56.5216C130.935 56.5216 130.954 56.5118 130.964 56.5118C131.229 56.4432 131.483 56.3648 131.738 56.2767C131.885 56.2375 132.032 56.1983 132.159 56.1591C132.228 56.1395 132.296 56.1199 132.355 56.1004C132.424 56.0808 132.492 56.0612 132.551 56.0416H132.561C132.639 56.0122 132.708 55.9926 132.786 55.9632C132.855 55.9436 132.913 55.924 132.972 55.9044C133.06 55.8652 133.149 55.8359 133.237 55.8065C133.344 55.7673 133.393 55.7477 133.393 55.7477C133.444 55.7358 133.493 55.7194 133.54 55.6987C134.845 55.2157 136.093 54.5916 137.263 53.8375C137.346 53.7933 137.425 53.7408 137.498 53.6808L137.517 53.671L137.537 53.6514C137.99 53.3396 138.425 53.0028 138.84 52.6424C138.869 52.613 138.899 52.5934 138.928 52.564L138.987 52.5052C141.449 50.321 143.188 47.4398 143.974 44.2439C144.76 41.048 144.555 37.6886 143.387 34.6117C142.219 31.5349 140.143 28.886 137.434 27.0168C134.726 25.1475 131.512 24.1463 128.221 24.1461ZM135.735 48.8416L135.627 48.9395L135.578 48.9885C135.372 49.1648 135.166 49.3314 134.971 49.4685L134.804 49.5861L134.559 49.7526C134.164 50.0062 133.755 50.2384 133.335 50.4481C133.295 50.4677 133.256 50.4873 133.207 50.5069C128.858 52.3877 121.736 52.5052 120.002 52.5052H109.325L109.335 47.4701C109.663 46.1088 110.15 44.7904 110.784 43.542C112.763 39.7245 115.472 36.3329 118.758 33.5599L118.993 33.3542L120.463 32.1297L120.473 32.1101C120.943 31.7379 121.462 31.3363 122.079 30.8759L122.334 30.7093C124.102 29.6142 126.142 29.0372 128.221 29.044C130.519 29.0442 132.762 29.7431 134.653 31.0482C136.544 32.3532 137.993 34.2025 138.808 36.3505C139.624 38.4986 139.766 40.8438 139.217 43.0748C138.668 45.3058 137.454 47.3171 135.735 48.8416Z" fill="#BD716D"/>
<path d="M103.692 47.7246H88.3323V58.1377H103.692V47.7246Z" fill="#BD716D"/>
<path d="M103.702 58.8726H88.342V87.0064H103.702V58.8726Z" fill="#BD716D"/>
<path d="M168.962 58.8726H104.437V87.0064H168.962V58.8726Z" fill="#E9CA8F"/>
<path d="M156.531 87.7417H104.437V171.206H156.531V87.7417Z" fill="#E9CA8F"/>
<path d="M103.702 87.7417H88.342V171.206H103.702V87.7417Z" fill="#BD716D"/>
<path d="M87.6073 87.7417H35.5518V171.206H87.6073V87.7417Z" fill="#E9CA8F"/>
<path d="M87.6073 58.8726H23.1207V87.0064H87.6073V58.8726Z" fill="#E9CA8F"/>
<path d="M128.221 29.044C126.142 29.0372 124.102 29.6142 122.334 30.7093L122.079 30.8758C121.462 31.3362 120.943 31.7379 120.473 32.1101L120.463 32.1297L118.993 33.3542L118.758 33.5599C115.472 36.3329 112.763 39.7245 110.784 43.542C110.15 44.7904 109.663 46.1088 109.335 47.4701L109.325 52.5052H120.002C121.736 52.5052 128.858 52.3877 133.207 50.5069C133.256 50.4873 133.295 50.4677 133.335 50.4481C133.755 50.2383 134.164 50.0062 134.559 49.7526L134.804 49.586L134.971 49.4685C135.166 49.3314 135.372 49.1648 135.578 48.9885L135.627 48.9395L135.735 48.8416C137.454 47.3171 138.668 45.3059 139.217 43.0748C139.766 40.8438 139.624 38.4985 138.809 36.3504C137.993 34.2023 136.544 32.3529 134.653 31.048C132.762 29.743 130.519 29.044 128.221 29.044ZM135.245 48.293L135.137 48.4007L135.078 48.4497C134.873 48.626 134.696 48.7632 134.549 48.8709L134.383 48.9885L134.148 49.1452C133.778 49.3822 133.395 49.598 133.002 49.7918C132.98 49.8034 132.957 49.8132 132.933 49.8211C128.652 51.6824 121.413 51.7705 120.002 51.7705H110.06L110.069 47.5485C110.389 46.2737 110.849 45.0384 111.441 43.8652C113.384 40.1366 116.036 36.8225 119.248 34.1085L119.473 33.9028L120.933 32.6979L121.051 32.5999L121.06 32.5803C121.491 32.2473 121.962 31.875 122.52 31.4636L122.735 31.3265C124.383 30.3073 126.284 29.7711 128.221 29.7787C130.37 29.7787 132.468 30.4323 134.236 31.6529C136.005 32.8734 137.36 34.603 138.122 36.612C138.884 38.6211 139.017 40.8144 138.503 42.9008C137.989 44.9871 136.853 46.8678 135.245 48.293Z" fill="#A58346"/>
<path d="M132.316 148.47C132.194 148.47 132.074 148.447 131.96 148.403C131.717 148.308 131.522 148.121 131.417 147.882C131.312 147.643 131.306 147.373 131.4 147.129C133.202 142.497 135.336 141.17 140.193 141.661C144.684 142.12 146.923 136.426 147.158 135.776C148.589 131.831 152.459 132.305 156.052 133.284C156.896 133.52 157.213 133.32 157.318 133.258C157.955 132.887 158.279 131.584 158.565 130.436C158.633 129.681 158.854 128.947 159.213 128.28C159.572 127.612 160.063 127.023 160.655 126.55C163.129 125.624 165.778 125.259 168.411 125.481C168.671 125.499 168.913 125.62 169.084 125.816C169.256 126.013 169.342 126.269 169.324 126.529V126.53C169.311 126.786 169.196 127.026 169.006 127.198C168.816 127.37 168.565 127.46 168.308 127.446H168.308L168.28 127.445C166.02 127.236 163.742 127.52 161.603 128.277C161.053 128.58 160.744 129.82 160.47 130.915C160.307 132.493 159.533 133.944 158.313 134.958C157.89 135.181 157.426 135.317 156.949 135.356C156.471 135.395 155.991 135.338 155.537 135.186C150.913 133.92 149.64 134.695 149.004 136.447C147.698 140.043 144.597 144.099 139.994 143.62C136.037 143.217 134.705 144.048 133.231 147.842C133.16 148.026 133.034 148.185 132.871 148.297C132.707 148.409 132.514 148.469 132.316 148.47Z" fill="#B8DFBC"/>
<path d="M132.308 148.837C132.143 148.837 131.98 148.806 131.827 148.746C131.494 148.615 131.226 148.358 131.082 148.03C130.938 147.702 130.929 147.331 131.058 146.997C132.913 142.227 135.229 140.792 140.231 141.295C144.584 141.747 146.724 135.9 146.814 135.651C148.355 131.402 152.615 131.965 156.15 132.931C156.462 133.058 156.811 133.063 157.127 132.946C157.636 132.648 157.968 131.318 158.21 130.348C158.288 129.554 158.524 128.783 158.905 128.081C159.286 127.379 159.804 126.761 160.428 126.264L160.529 126.206C163.056 125.267 165.758 124.895 168.444 125.114C168.8 125.141 169.131 125.307 169.365 125.576C169.599 125.846 169.717 126.197 169.692 126.554C169.676 126.904 169.521 127.234 169.261 127.471C169.002 127.707 168.659 127.831 168.308 127.814L168.29 127.813C166.07 127.611 163.831 127.887 161.726 128.623C161.372 128.823 161.045 130.134 160.829 131C160.654 132.658 159.836 134.18 158.549 135.241C158.076 135.501 157.554 135.662 157.016 135.713C156.479 135.763 155.936 135.702 155.422 135.534C150.634 134.226 149.839 135.228 149.351 136.573C147.996 140.302 144.727 144.476 139.957 143.984C136.175 143.597 134.984 144.346 133.574 147.974C133.475 148.227 133.302 148.444 133.079 148.598C132.855 148.752 132.59 148.835 132.319 148.836L132.308 148.837ZM138.431 141.931C134.939 141.931 133.259 143.366 131.744 147.263C131.685 147.415 131.689 147.585 131.754 147.735C131.82 147.884 131.942 148.002 132.094 148.061C132.166 148.089 132.235 148.076 132.314 148.103H132.319C132.442 148.102 132.563 148.064 132.664 147.993C132.766 147.923 132.844 147.824 132.889 147.709C134.428 143.75 135.894 142.837 140.032 143.254C144.364 143.689 147.396 139.802 148.66 136.322C149.478 134.067 151.368 133.663 155.636 134.832C156.046 134.969 156.479 135.022 156.91 134.988C157.341 134.954 157.761 134.833 158.144 134.633C159.259 133.682 159.962 132.336 160.107 130.877C160.422 129.599 160.739 128.334 161.427 127.955C163.632 127.166 165.983 126.867 168.315 127.079C168.393 127.085 168.472 127.076 168.546 127.052C168.621 127.028 168.69 126.989 168.75 126.938C168.81 126.888 168.859 126.825 168.895 126.756C168.93 126.686 168.952 126.61 168.958 126.531L168.958 126.531L168.959 126.509C168.972 126.346 168.919 126.184 168.812 126.06C168.705 125.936 168.554 125.859 168.39 125.846H168.389C165.829 125.633 163.253 125.984 160.843 126.872C160.302 127.315 159.855 127.861 159.527 128.478C159.199 129.096 158.997 129.772 158.933 130.468C158.605 131.802 158.275 133.124 157.505 133.574C157.267 133.697 157.005 133.766 156.737 133.777C156.469 133.788 156.203 133.74 155.955 133.637C152.35 132.654 148.83 132.247 147.504 135.9C147.407 136.17 145.058 142.533 140.156 142.025C139.583 141.966 139.008 141.935 138.431 141.931Z" fill="#729A77"/>
</svg>
