<svg width="196" height="196" viewBox="0 0 196 196" fill="none" xmlns="http://www.w3.org/2000/svg">
<path d="M162.292 116.464C161.971 116.954 161.642 117.434 161.292 117.904C151.922 130.774 135.902 138.854 111.312 134.854C100.312 133.064 93.5215 132.034 88.6917 131.594C88.3516 131.564 88.0215 131.534 87.6917 131.504C78.5916 130.784 76.6316 132.364 63.9016 134.904C57.9714 136.084 51.0415 135.624 44.6416 132.754C44.2615 132.574 43.8816 132.404 43.5115 132.214C42.8916 131.904 42.2815 131.574 41.6814 131.224C41.2815 130.984 40.8816 130.744 40.4915 130.484C39.5715 129.884 38.6614 129.224 37.7815 128.494C37.3516 128.144 36.9314 127.774 36.5115 127.384C29.2415 120.694 23.9714 109.384 23.9714 91.804C23.9714 86.8741 24.6116 82.3041 25.7314 78.0641C25.9016 77.3941 26.0916 76.734 26.3015 76.0841C26.6917 74.7741 27.1416 73.4941 27.6216 72.2541C27.8416 71.7041 28.0615 71.1641 28.2815 70.6241C28.4614 70.2241 28.6316 69.8241 28.8215 69.4241C29.0815 68.8341 29.3616 68.2541 29.6416 67.6841C30.3616 66.2241 31.1416 64.7941 31.9514 63.4141L31.9614 63.4041C32.3716 62.7141 32.7915 62.044 33.2214 61.3741C35.3916 57.9941 37.8015 54.8441 40.3115 51.8941C47.7715 43.1141 58.5916 35.8941 70.8015 31.0841C71.1116 30.9541 71.4216 30.8341 71.7415 30.7141C77.1614 28.6441 82.8516 27.044 88.6316 26.0041C90.9915 25.5741 93.3716 25.244 95.7515 25.0041C96.9417 24.8841 98.1416 24.7841 99.3416 24.7141C100.761 24.624 102.181 24.5641 103.602 24.5341C104.882 24.5141 106.161 24.5041 107.442 24.5341C107.501 24.544 107.562 24.544 107.612 24.544C134.852 25.114 160.521 37.114 168.491 59.9741C174.211 76.3941 173.392 99.9641 162.292 116.464Z" fill="#E6E6E6"/>
<path d="M58.1754 164.154V167.124C56.7955 167.004 55.3654 166.934 53.8954 166.904V164.154C53.8954 163.744 54.2155 163.424 54.6256 163.424H57.4454C57.8556 163.424 58.1754 163.744 58.1754 164.154Z" fill="#E6E6E6"/>
<path d="M75.0555 184.784H24.8556C25.0656 169.084 35.4054 167.854 49.9554 167.854C64.5055 167.854 74.8453 169.084 75.0555 184.784Z" fill="#424242"/>
<path d="M76.0515 184.804C75.8916 171.894 69.0715 168.214 59.1716 167.214V164.154C59.1716 163.204 58.3916 162.424 57.4417 162.424H54.6216C53.6717 162.424 52.8916 163.204 52.8916 164.154V166.884C52.6216 166.874 52.3616 166.864 52.0916 166.874H52.0816L44.6416 132.754L32.4016 76.5541L31.0816 70.9642L75.4514 41.6841C75.6516 42.0142 75.8716 42.3342 76.1016 42.6642C75.0315 44.7742 74.1917 47.0142 73.6016 49.3641C71.4216 57.9142 72.7114 66.7941 77.2114 74.3741L77.4314 74.7341V74.7441L77.4417 74.7542C77.4815 74.8942 77.5315 75.0242 77.6116 75.1442C78.0015 75.7941 78.8516 76.0742 80.0315 76.0742C84.1814 76.0742 92.5215 72.5242 100.132 68.5142H100.142C102.172 70.1741 104.711 71.0641 107.271 71.0641C108.082 71.0641 108.882 70.9742 109.672 70.8041C112.592 70.1542 115.092 68.4042 116.701 65.8741C118.292 63.3942 118.822 60.4441 118.221 57.5541C127.112 51.3942 135.872 43.8841 134.172 40.9841L134.082 40.8342L133.971 40.6442C129.471 33.0641 122.282 27.6941 113.741 25.5142C111.711 24.9941 109.661 24.6741 107.612 24.5441C107.562 24.5441 107.501 24.5441 107.442 24.5342C106.711 24.4941 105.971 24.4742 105.231 24.4841C100.942 16.9241 96.1416 12.3342 90.9514 10.8242C86.9314 9.66419 82.6614 10.3141 78.2515 12.7742C74.3015 14.9742 71.6917 18.3741 70.7114 22.6342C70.1016 25.2542 70.1516 28.1042 70.8015 31.0842C71.1316 32.5742 71.6016 34.0842 72.2315 35.6241L33.2215 61.3741L23.6917 67.6642C23.5115 67.7842 23.4314 67.9841 23.4815 68.1942L24.8115 74.1642L25.7315 78.0641L26.2415 80.1942L36.5115 127.384L45.1216 166.924C32.7715 167.354 23.8516 170.124 23.8516 185.284V185.764H171.981V184.804H76.0515ZM53.8916 164.154C53.8916 163.744 54.2114 163.424 54.6216 163.424H57.4417C57.8516 163.424 58.1716 163.744 58.1716 164.154V167.124C56.7915 167.004 55.3616 166.934 53.8916 166.904V164.154ZM78.4715 74.6342C78.3816 74.4942 78.3616 74.2941 78.3916 74.0542V74.0342C78.4114 73.8641 78.4614 73.6841 78.5415 73.4941C78.5816 73.3942 78.6216 73.2941 78.6814 73.1842C78.7815 72.9742 78.9016 72.7441 79.0615 72.5042C79.1316 72.3842 79.2114 72.2642 79.3115 72.1342C79.5015 71.8442 79.7415 71.5342 80.0115 71.2142C80.0916 71.1141 80.1814 71.0142 80.2715 70.9142C80.5115 70.6242 80.7715 70.3342 81.0716 70.0242C81.2114 69.8641 81.3616 69.7142 81.5215 69.5542C81.8015 69.2642 82.1016 68.9642 82.4216 68.6642C82.4514 68.6242 82.4915 68.5942 82.5215 68.5742C82.7014 68.3942 82.8816 68.2242 83.0716 68.0542C83.4417 67.7042 83.8316 67.3442 84.2415 66.9941C84.4417 66.8142 84.6614 66.6241 84.8716 66.4442C85.5115 65.8842 86.2014 65.3242 86.9216 64.7441C87.1614 64.5441 87.4016 64.3542 87.6516 64.1642C87.9016 63.9642 88.1516 63.7642 88.4114 63.5641C88.6717 63.3641 88.9314 63.1542 89.1917 62.9642C89.4514 62.7542 89.7215 62.5541 89.9915 62.3641C90.2615 62.1442 90.5415 61.9441 90.8216 61.7441C91.1016 61.5342 91.3816 61.3242 91.6717 61.1241C91.9514 60.9142 92.2415 60.7042 92.5315 60.5041C93.7014 59.6542 94.9314 58.8141 96.2014 57.9641V57.9742C96.1814 58.1241 96.1516 58.2842 96.1316 58.4441C96.1016 58.6642 96.0816 58.8841 96.0716 59.1042C96.0615 59.2242 96.0515 59.3442 96.0615 59.4641C96.0415 59.7842 96.0515 60.0941 96.0615 60.4041C96.0716 60.6042 96.0916 60.8141 96.1116 61.0141C96.1516 61.4441 96.2215 61.8641 96.3115 62.2842C96.7515 64.2242 97.6614 65.9841 98.9815 67.4142C99.1016 67.5441 99.2215 67.6741 99.3516 67.8041C87.0115 74.2541 79.3916 76.1542 78.4715 74.6342ZM115.862 65.3342C114.392 67.6442 112.122 69.2341 109.451 69.8242C106.322 70.5242 102.981 69.6741 100.532 67.5441C99.9417 67.0342 99.4217 66.4542 98.9815 65.8342C98.8616 65.6742 98.7515 65.5142 98.6516 65.3442C98.4614 65.0642 98.3015 64.7742 98.1516 64.4742C98.0615 64.3041 97.9815 64.1241 97.9114 63.9442C97.6416 63.3442 97.4417 62.7142 97.2915 62.0642C97.2815 62.0441 97.2815 62.0342 97.2715 62.0242C97.2014 61.6642 97.1416 61.3041 97.1016 60.9342C97.0616 60.5642 97.0415 60.1842 97.0415 59.8041C97.0415 59.5541 97.0515 59.3142 97.0716 59.0642C97.0916 58.8142 97.1216 58.5541 97.1614 58.3041C97.1917 58.1042 97.2215 57.8942 97.2715 57.6942C97.3116 57.5242 97.3516 57.3442 97.4016 57.1741C97.4016 57.1741 97.4114 57.1741 97.4114 57.1642C97.9016 56.8442 98.3816 56.5342 98.8716 56.2242C99.3516 55.8942 99.8416 55.5842 100.322 55.2941C100.802 54.9941 101.272 54.6942 101.752 54.4042C102.221 54.1042 102.681 53.8142 103.152 53.5342C103.582 53.2742 104.012 53.0242 104.442 52.7742C105.032 52.4241 105.632 52.0642 106.241 51.7142C106.772 51.4142 107.302 51.1141 107.842 50.8041C108.102 50.6542 108.382 50.5042 108.652 50.3542C108.922 50.2042 109.192 50.0541 109.461 49.9042C109.701 49.9542 109.931 50.0142 110.161 50.0842C110.392 50.1542 110.622 50.2341 110.842 50.3142C111.181 50.4442 111.502 50.5842 111.822 50.7441C112.142 50.9042 112.442 51.0842 112.741 51.2742C113.192 51.5642 113.622 51.8942 114.022 52.2341C114.181 52.3842 114.352 52.5342 114.502 52.6942C114.612 52.8041 114.721 52.9241 114.822 53.0441C114.872 53.0842 114.911 53.1342 114.951 53.1842C115.002 53.2442 115.052 53.3041 115.092 53.3641C115.112 53.3741 115.122 53.3942 115.132 53.4042C115.152 53.4241 115.172 53.4542 115.192 53.4742C115.211 53.5042 115.231 53.5242 115.252 53.5541C115.322 53.6542 115.402 53.7542 115.471 53.8542C115.572 53.9742 115.661 54.1141 115.752 54.2441C116.292 55.0342 116.701 55.9042 116.991 56.8242C117.062 57.0342 117.122 57.2442 117.172 57.4542C117.181 57.4742 117.181 57.5042 117.192 57.5242L117.221 57.6442C117.812 60.3041 117.322 63.0342 115.862 65.3342ZM132.681 41.1042C132.761 41.1242 132.842 41.1542 132.911 41.1842C132.991 41.2142 133.072 41.2542 133.132 41.3042C133.152 41.3142 133.161 41.3242 133.172 41.3342L133.251 41.4042C133.271 41.4342 133.292 41.4642 133.312 41.4842C134.211 42.9942 129.132 48.7442 117.951 56.5142C117.942 56.4942 117.931 56.4642 117.922 56.4442C117.672 55.6942 117.352 54.9742 116.961 54.3042C116.832 54.0742 116.692 53.8542 116.552 53.6442C116.402 53.4242 116.251 53.2142 116.092 53.0142C115.942 52.8142 115.771 52.6142 115.602 52.4242C115.261 52.0342 114.892 51.6742 114.501 51.3342C114.281 51.1442 114.042 50.9642 113.802 50.7842C113.372 50.4842 112.931 50.2042 112.461 49.9542C112.001 49.7142 111.521 49.4942 111.021 49.3142C110.922 49.2742 110.812 49.2442 110.701 49.2142C110.701 49.2142 110.711 49.2142 110.721 49.2042C111.052 49.0242 111.372 48.8542 111.692 48.6842C112.011 48.5142 112.332 48.3442 112.652 48.1842C113.721 47.6242 114.751 47.1042 115.741 46.6142C116.142 46.4142 116.531 46.2242 116.922 46.0442C118.362 45.3542 119.721 44.7341 121.001 44.1942C121.302 44.0642 121.602 43.9342 121.892 43.8142C122.011 43.7642 122.132 43.7242 122.241 43.6742C122.461 43.5842 122.672 43.4942 122.882 43.4142C123.031 43.3542 123.172 43.2942 123.312 43.2442C123.541 43.1542 123.771 43.0642 123.991 42.9842C124.092 42.9442 124.192 42.9042 124.291 42.8742C124.511 42.7842 124.731 42.7042 124.951 42.6242C125.392 42.4642 125.822 42.3242 126.221 42.1942C127.102 41.9042 127.902 41.6642 128.622 41.4842C128.902 41.4142 129.181 41.3442 129.442 41.2942C129.592 41.2642 129.741 41.2342 129.892 41.2042C129.922 41.2042 129.951 41.1942 129.981 41.1842C130.241 41.1342 130.481 41.0942 130.711 41.0742C130.842 41.0542 130.961 41.0441 131.082 41.0342C131.392 41.0142 131.672 40.9942 131.922 41.0042C131.981 41.0042 132.042 41.0042 132.102 41.0142C132.152 41.0242 132.201 41.0242 132.251 41.0242C132.301 41.0242 132.352 41.0342 132.402 41.0442C132.402 41.0442 132.411 41.0542 132.422 41.0442C132.431 41.0442 132.442 41.0442 132.451 41.0542C132.531 41.0642 132.612 41.0742 132.681 41.1042ZM105.221 25.4941C105.332 25.4841 105.431 25.4841 105.542 25.4841H105.792V25.4941C108.362 25.5042 110.942 25.8342 113.491 26.4841C121.362 28.4841 128.042 33.2842 132.431 40.0642C132.352 40.0541 132.261 40.0441 132.181 40.0441C132.052 40.0342 131.911 40.0242 131.761 40.0242H131.692C131.622 40.0242 131.542 40.0242 131.451 40.0342C131.372 40.0342 131.292 40.0441 131.211 40.0441C130.902 40.0642 130.582 40.1042 130.241 40.1442C130.092 40.1742 129.942 40.1942 129.782 40.2242C129.582 40.2642 129.382 40.3042 129.181 40.3442C128.971 40.3842 128.762 40.4442 128.542 40.4942C128.201 40.5742 127.842 40.6642 127.471 40.7742C127.451 40.7842 127.422 40.7842 127.402 40.7942C127.122 40.8742 126.842 40.9642 126.542 41.0542C126.392 41.1042 126.231 41.1542 126.082 41.2042C125.852 41.2742 125.622 41.3542 125.392 41.4342C125.282 41.4742 125.172 41.5142 125.052 41.5442C124.802 41.6342 124.552 41.7242 124.302 41.8142C123.711 42.0342 123.112 42.2642 122.491 42.5142C121.741 42.8142 120.971 43.1342 120.192 43.4742C119.802 43.6442 119.402 43.8142 119.012 43.9942C117.822 44.5242 116.622 45.0842 115.422 45.6741C114.622 46.0642 113.822 46.4642 113.032 46.8742C112.762 47.0042 112.501 47.1442 112.241 47.2842C111.971 47.4142 111.711 47.5541 111.451 47.6942C111.192 47.8342 110.931 47.9642 110.672 48.1042C110.201 48.3542 109.751 48.5942 109.302 48.8542L109.142 48.9442C109.132 48.9542 109.112 48.9542 109.102 48.9642C109.092 48.9742 109.092 48.9742 109.082 48.9742C108.011 49.5642 106.951 50.1642 105.902 50.7542C105.332 51.0842 104.772 51.4142 104.211 51.7441C103.681 52.0541 103.152 52.3741 102.632 52.6842C102.152 52.9742 101.672 53.2742 101.181 53.5742C100.701 53.8742 100.201 54.1842 99.7114 54.4941C98.7215 55.1241 97.7215 55.7642 96.7014 56.4341L96.5415 56.5342V56.5541H96.5315C95.8816 56.9841 95.2515 57.4042 94.6316 57.8242C94.2715 58.0642 93.9114 58.3141 93.5615 58.5541C91.7215 59.8242 90.0015 61.0742 88.4314 62.2842C87.9016 62.6841 87.3916 63.0842 86.9016 63.4742C86.7715 63.5742 86.6516 63.6741 86.5315 63.7742C86.0115 64.1841 85.5115 64.5942 85.0315 65.0042C84.7915 65.2042 84.5515 65.4042 84.3215 65.6042C84.0916 65.7941 83.8716 65.9941 83.6516 66.1842C83.4314 66.3741 83.2114 66.5641 83.0015 66.7642C82.7915 66.9542 82.5916 67.1442 82.3916 67.3242C82.1917 67.5042 81.9915 67.6942 81.8015 67.8742C81.4314 68.2442 81.0715 68.5942 80.7415 68.9342C80.5715 69.1042 80.4114 69.2742 80.2615 69.4442C80.1016 69.6141 79.9614 69.7742 79.8115 69.9442C79.7014 70.0742 79.5816 70.2042 79.4714 70.3242C79.4514 70.3542 79.4314 70.3842 79.4016 70.4142C78.8816 71.0441 78.4514 71.6242 78.1216 72.1542C77.9614 72.4241 77.8215 72.6842 77.7114 72.9241C77.6814 72.9841 77.6516 73.0342 77.6316 73.0942C73.6216 65.9142 72.5315 57.6142 74.5715 49.6142C75.2415 46.9841 76.2214 44.4941 77.4814 42.1741C78.0615 41.0942 78.7114 40.0541 79.4216 39.0541H79.4314C80.0115 38.2042 80.6516 37.3842 81.3416 36.5942C83.5615 34.0142 86.2215 31.7742 89.2415 29.9841C91.3616 28.7242 93.6016 27.7142 95.9016 26.9841H95.9114C96.9016 26.6642 97.9114 26.3942 98.9314 26.1841C100.812 25.7742 102.721 25.5541 104.652 25.5042C104.842 25.4941 105.032 25.4841 105.221 25.4941ZM71.7415 30.7142C71.1516 27.9342 71.1216 25.2842 71.6814 22.8542C72.6016 18.8842 75.0415 15.7042 78.7315 13.6442C82.9114 11.3242 86.9217 10.7042 90.6717 11.7842C95.4915 13.1941 100.011 17.4742 104.102 24.5142C103.931 24.5242 103.772 24.5242 103.602 24.5342C102.652 24.5842 101.711 24.6841 100.772 24.8242C100.022 24.9341 99.2915 25.0742 98.5615 25.2341H98.5515C98.5415 25.2341 98.5315 25.2441 98.5315 25.2441C95.1216 25.9941 91.8216 27.2941 88.7315 29.1241C84.7215 31.5041 81.3316 34.6341 78.7215 38.3242C78.2114 39.0142 77.7515 39.7242 77.3115 40.4542H77.3015C77.0716 40.8542 76.8416 41.2541 76.6216 41.6542C76.5015 41.4841 76.3816 41.3041 76.2815 41.1341C75.7415 40.3241 75.2615 39.5141 74.8216 38.7042C74.8115 38.6941 74.8115 38.6841 74.8015 38.6741C74.3115 37.7842 73.8716 36.8941 73.4815 36.0041C73.3416 35.6941 73.2114 35.3741 73.0816 35.0641C72.4915 33.5942 72.0415 32.1342 71.7415 30.7142ZM37.7815 128.494L27.2215 79.9742L26.3015 76.0842L25.7915 73.9442L24.5315 68.3142L31.9514 63.4142L31.9614 63.4042L72.6416 36.5642C72.9314 37.2142 73.2515 37.8842 73.6016 38.5442L74.0816 39.4241C74.3416 39.8942 74.6216 40.3742 74.9114 40.8442L72.1614 42.6542L30.2615 70.2941L29.9417 70.4841L30.0215 70.8042V70.8142L31.4217 76.7742L43.5115 132.214L51.0615 166.864H48.5315C47.7215 166.864 46.9216 166.874 46.1416 166.894L37.7815 128.494ZM24.8516 184.784C24.8616 184.434 24.8716 184.084 24.8816 183.754C24.8916 183.584 24.9016 183.424 24.9114 183.264C24.9217 182.994 24.9417 182.724 24.9715 182.454C24.9915 182.224 25.0115 182.004 25.0415 181.784C25.0616 181.534 25.0916 181.294 25.1316 181.054C25.1316 181.014 25.1416 180.974 25.1516 180.934C25.1717 180.724 25.2014 180.504 25.2515 180.304C25.2515 180.284 25.2615 180.274 25.2615 180.254C25.2715 180.144 25.2915 180.034 25.3216 179.924C25.3716 179.624 25.4417 179.324 25.5115 179.034C25.5616 178.824 25.6216 178.614 25.6814 178.414C25.7215 178.244 25.7715 178.074 25.8316 177.904C25.9217 177.604 26.0215 177.314 26.1316 177.034C26.2115 176.824 26.2915 176.624 26.3816 176.424C26.5015 176.144 26.6316 175.874 26.7715 175.604C26.9016 175.354 27.0315 175.114 27.1814 174.884C27.3015 174.674 27.4314 174.474 27.5716 174.284C27.7415 174.024 27.9314 173.774 28.1216 173.534C28.2115 173.414 28.3116 173.294 28.4217 173.184C28.5816 172.994 28.7515 172.814 28.9217 172.644C28.9815 172.584 29.0415 172.534 29.1016 172.474C29.2715 172.314 29.4514 172.154 29.6316 172.004C29.8916 171.784 30.1614 171.574 30.4417 171.384C30.5515 171.304 30.6717 171.224 30.7915 171.144C31.0515 170.974 31.3316 170.804 31.6116 170.654C32.0415 170.414 32.4815 170.194 32.9514 169.994C33.1216 169.914 33.2915 169.844 33.4715 169.784C33.5616 169.744 33.6614 169.704 33.7615 169.674C34.3716 169.444 35.0115 169.244 35.6717 169.074C35.9114 169.004 36.1516 168.944 36.4016 168.884C36.7615 168.804 37.1316 168.724 37.5015 168.664C37.9217 168.574 38.3616 168.504 38.8015 168.444C39.1717 168.384 39.5415 168.334 39.9217 168.294C39.9314 168.284 39.9515 168.284 39.9715 168.284C40.3716 168.234 40.7715 168.194 41.1814 168.154C41.5315 168.124 41.8916 168.094 42.2515 168.074C43.2415 167.994 44.2715 167.944 45.3316 167.914C45.5015 167.914 45.6717 167.904 45.8416 167.894C46.0115 167.894 46.1814 167.894 46.3516 167.884C47.1316 167.864 47.9314 167.854 48.7415 167.854H49.4314L51.2815 167.864H51.7915C51.8916 167.864 51.9915 167.864 52.0916 167.874C52.1614 167.864 52.2315 167.874 52.3015 167.874H52.8916C53.2315 167.884 53.5616 167.884 53.8916 167.894H53.9217C54.5816 167.914 55.2215 167.934 55.8516 167.964C56.0616 167.974 56.2715 167.984 56.4815 167.994C56.8816 168.024 57.2715 168.044 57.6516 168.074C57.8316 168.084 58.0015 168.104 58.1717 168.114C58.2615 168.124 58.3516 168.134 58.4417 168.144C58.6917 168.164 58.9314 168.184 59.1717 168.214C59.7615 168.274 60.3516 168.344 60.9217 168.424C61.2015 168.464 61.4815 168.504 61.7615 168.554C62.0215 168.594 62.2815 168.644 62.5415 168.694C62.7715 168.734 63.0015 168.784 63.2215 168.834C63.5415 168.904 63.8516 168.974 64.1614 169.054C64.4217 169.124 64.6716 169.194 64.9216 169.264C65.4114 169.414 65.8916 169.574 66.3516 169.754C67.5215 170.204 68.5916 170.764 69.5415 171.444C69.8816 171.684 70.2114 171.944 70.5215 172.224C70.5816 172.274 70.6416 172.334 70.7014 172.394C70.8516 172.524 70.9915 172.654 71.1216 172.804C71.3216 173.004 71.5115 173.214 71.6917 173.434C71.7815 173.544 71.8716 173.654 71.9615 173.764C72.0115 173.834 72.0616 173.894 72.1116 173.964C72.1917 174.074 72.2715 174.184 72.3516 174.304C72.5315 174.554 72.6917 174.824 72.8516 175.094C72.9815 175.314 73.1016 175.534 73.2115 175.764C73.3316 175.994 73.4417 176.234 73.5415 176.474C73.6316 176.674 73.7215 176.884 73.8015 177.104C73.9016 177.364 73.9915 177.624 74.0716 177.904C74.1316 178.064 74.1814 178.234 74.2215 178.404C74.2815 178.594 74.3316 178.784 74.3816 178.984C74.4417 179.224 74.4915 179.464 74.5415 179.714C74.6614 180.274 74.7615 180.864 74.8316 181.474C74.8716 181.784 74.9016 182.094 74.9314 182.424C74.9615 182.744 74.9815 183.064 75.0015 183.404C75.0215 183.614 75.0315 183.834 75.0315 184.054C75.0415 184.294 75.0515 184.534 75.0515 184.784L24.8516 184.784Z" fill="#181818"/>
<path d="M30.2615 70.2939L29.9417 70.4839L30.0215 70.8039V70.854L31.4216 76.774L43.5115 132.214L51.0615 166.864H48.5315C47.7214 166.864 46.9216 166.874 46.1416 166.894L37.7815 128.494L27.2214 79.974L26.3015 76.084L25.7915 73.944L24.5315 68.314L31.9514 63.414L31.9614 63.404L72.6416 36.564C72.9314 37.214 73.2515 37.884 73.6016 38.5439L74.0815 39.4239C74.3416 39.894 74.6216 40.374 74.9114 40.844L72.1614 42.654L30.2615 70.2939Z" fill="#666666"/>
<path d="M162.29 88.3177V169.942C162.29 171.626 158.764 174.93 157.302 174.93H92.6758C91.2066 174.93 87.6876 171.626 87.6876 169.942V88.3177C87.6876 86.6406 91.2133 83.3296 92.6758 83.3296H156.93C159.001 83.3296 162.29 85.7096 162.29 88.3177Z" fill="white"/>
<path d="M157.302 84.3296C159.501 84.3296 161.29 86.1187 161.29 88.3177V169.942C161.29 172.141 159.501 173.93 157.302 173.93H92.6759C90.4767 173.93 88.6876 172.141 88.6876 169.942V88.3177C88.6876 86.1187 90.4767 84.3296 92.6759 84.3296H157.302ZM157.302 83.3296H92.6759C89.921 83.3296 87.6876 85.5629 87.6876 88.3177V169.942C87.6876 172.697 89.921 174.93 92.6759 174.93H157.302C160.057 174.93 162.29 172.697 162.29 169.942V88.3177C162.29 85.5629 160.057 83.3296 157.302 83.3296Z" fill="#D1D1D1"/>
<path d="M143.142 97.7637H96.9425V99.7637H143.142V97.7637Z" fill="#B1B1B1"/>
<path d="M131.219 105.205H96.9425V107.205H131.219V105.205Z" fill="#B1B1B1"/>
<path d="M119.297 112.647H96.9425V114.647H119.297V112.647Z" fill="#B1B1B1"/>
<path d="M93.9103 163.715L93.2228 163.415C93.2863 163.271 94.7853 159.88 96.9943 157.232C97.0314 157.193 98.6818 155.511 100.089 153.844C100.122 153.807 102.225 151.473 103.68 148.56C103.221 147.474 103.964 146.462 104.239 146.086C104.414 145.848 104.736 145.413 105.129 145.549C105.334 145.625 105.455 145.841 105.438 146.101C105.204 146.94 104.882 147.763 104.513 148.546C104.547 148.59 104.585 148.634 104.626 148.679L104.883 148.849C104.975 148.937 105.667 149.726 105.226 151.363C104.829 152.831 104.273 154.108 104.249 154.162L103.835 155.355C104.694 154.56 106.08 153.325 106.283 153.144C106.333 153.088 106.419 153.015 106.546 152.985C106.642 152.963 106.791 152.957 106.958 153.059C107.099 153.148 107.16 153.286 107.219 153.419C107.316 153.635 107.395 153.78 107.595 153.825C108.047 153.924 109.531 153.644 110.096 153.087L110.201 153.013L110.493 152.878L110.739 153.164C110.741 153.164 111.842 154.502 113.993 154.523C116.278 154.541 120.372 154.429 120.413 154.428L120.435 155.178C120.394 155.179 116.293 155.297 113.985 155.273C112.038 155.254 110.831 154.307 110.355 153.842C109.52 154.431 108.079 154.699 107.431 154.557C106.952 154.45 106.724 154.111 106.601 153.866C106.058 154.35 104.574 155.678 103.959 156.266C103.65 156.563 103.262 156.929 102.92 156.697C102.776 156.599 102.665 156.386 102.788 156.084L103.551 153.888C103.567 153.848 104.12 152.579 104.501 151.168C104.829 149.955 104.402 149.423 104.384 149.402L104.16 149.257C102.69 152.081 100.761 154.219 100.652 154.339C99.2364 156.017 97.5665 157.718 97.5499 157.735C95.4308 160.277 93.9249 163.681 93.9103 163.715Z" fill="#6E8CBB"/>
<path d="M99.3556 67.8039C87.0155 74.2539 79.3953 76.1539 78.4754 74.6339C78.3853 74.4939 78.3653 74.2939 78.3953 74.0539V74.0339C78.4254 73.8639 78.4754 73.6939 78.5455 73.4939C78.5855 73.3939 78.6353 73.2939 78.6854 73.1839C78.7855 72.9739 78.9053 72.7439 79.0655 72.5039C79.1453 72.3839 79.2254 72.2639 79.3155 72.1339C79.5054 71.8439 79.7454 71.5339 80.0155 71.2139C80.0953 71.1139 80.1854 71.0139 80.2755 70.9139C80.5155 70.6239 80.7755 70.3339 81.0755 70.0239C81.2154 69.8639 81.3653 69.7139 81.5255 69.5539C81.8055 69.2639 82.1056 68.9639 82.4254 68.6639C82.4554 68.6239 82.4954 68.5939 82.5255 68.5739C82.7054 68.3939 82.8853 68.2239 83.0755 68.0539C83.4454 67.7039 83.8355 67.3439 84.2454 66.9939C84.4454 66.8139 84.6654 66.6239 84.8756 66.4439C85.5155 65.8839 86.2054 65.3239 86.9254 64.7439C87.1654 64.5439 87.4054 64.3539 87.6554 64.1639C87.9054 63.9639 88.1554 63.7639 88.4154 63.5639C88.6754 63.3639 88.9354 63.1539 89.1954 62.9639C89.4554 62.7539 89.7254 62.5539 89.9954 62.3639C90.2655 62.1539 90.5455 61.9539 90.8255 61.7439C91.1055 61.5339 91.3853 61.3239 91.6754 61.1239C91.9554 60.9139 92.2454 60.7039 92.5355 60.5039C93.7054 59.6539 94.9354 58.8139 96.2054 57.9639V57.9739C96.1854 58.1239 96.1554 58.2839 96.1353 58.4439C96.1055 58.6639 96.0855 58.8839 96.0755 59.1039C96.0655 59.2239 96.0555 59.3439 96.0655 59.4639C96.0455 59.7839 96.0555 60.0939 96.0655 60.4039C96.0755 60.6039 96.0953 60.8139 96.1153 61.0139C96.1554 61.4439 96.2254 61.8639 96.3155 62.2839C96.7554 64.2239 97.6654 65.9839 98.9854 67.4139C99.1055 67.5439 99.2254 67.6739 99.3556 67.8039Z" fill="#D1D1D1"/>
<path d="M117.955 56.5141C117.945 56.4941 117.935 56.4641 117.925 56.4441C117.675 55.6941 117.355 54.9741 116.965 54.3041C116.835 54.0741 116.695 53.8541 116.555 53.6441C116.405 53.4241 116.255 53.2141 116.095 53.0141C115.945 52.8142 115.775 52.6141 115.605 52.4241C115.265 52.0341 114.895 51.6741 114.505 51.3341C114.285 51.1441 114.045 50.9641 113.805 50.7841C113.385 50.4641 112.935 50.1941 112.465 49.9541C112.005 49.7141 111.525 49.4941 111.025 49.3141C110.925 49.2741 110.815 49.2441 110.705 49.2141C110.705 49.2141 110.715 49.2141 110.725 49.2041C111.055 49.0241 111.375 48.8541 111.695 48.6841C112.015 48.5141 112.335 48.3441 112.655 48.1841C113.725 47.6241 114.755 47.1041 115.745 46.6141C116.145 46.4141 116.535 46.2241 116.925 46.0441C118.365 45.3541 119.725 44.7341 121.005 44.1941C121.305 44.0641 121.605 43.9341 121.895 43.8141C122.015 43.7641 122.135 43.7241 122.245 43.6741C122.465 43.5841 122.675 43.4941 122.885 43.4141C123.035 43.3541 123.175 43.2941 123.315 43.2441C123.545 43.1541 123.775 43.0641 123.995 42.9841C124.095 42.9441 124.195 42.9041 124.295 42.8741C124.515 42.7841 124.735 42.7041 124.955 42.6241C125.395 42.4641 125.825 42.3241 126.225 42.1941C127.105 41.9041 127.905 41.6641 128.625 41.4841C128.905 41.4141 129.185 41.3441 129.445 41.2941C129.595 41.2641 129.745 41.2341 129.895 41.2041C129.925 41.2041 129.955 41.1941 129.985 41.1841C130.245 41.1341 130.485 41.0941 130.715 41.0741C130.845 41.0541 130.965 41.0441 131.085 41.0341C131.395 41.0141 131.675 40.9941 131.925 41.0041C131.985 41.0041 132.045 41.0041 132.105 41.0141C132.155 41.0241 132.205 41.0241 132.255 41.0241C132.305 41.0241 132.355 41.0341 132.405 41.0441C132.405 41.0441 132.415 41.0541 132.425 41.0441C132.435 41.0441 132.445 41.0441 132.455 41.0541C132.535 41.0641 132.615 41.0841 132.685 41.1041C132.765 41.1241 132.845 41.1541 132.915 41.1841C132.995 41.2141 133.075 41.2541 133.135 41.3041C133.155 41.3141 133.165 41.3241 133.175 41.3341L133.255 41.4041C133.275 41.4341 133.295 41.4641 133.315 41.4841C134.215 42.9941 129.135 48.7441 117.955 56.5141Z" fill="#D1D1D1"/>
<path d="M104.106 24.5141C102.985 24.5542 101.876 24.6641 100.775 24.8241C100.025 24.9342 99.2854 25.0741 98.5555 25.2341C98.5455 25.2341 98.5354 25.2442 98.5354 25.2442C95.1255 25.9942 91.8255 27.2941 88.7354 29.1242C84.7254 31.5042 81.3355 34.6342 78.7254 38.3241C78.2154 39.0141 77.7554 39.7241 77.3155 40.4541H77.3055C77.0755 40.8541 76.8453 41.2542 76.6255 41.6541C76.5054 41.4841 76.3853 41.3041 76.2854 41.1342C75.7454 40.3241 75.2654 39.5141 74.8255 38.7041C74.3255 37.8041 73.8755 36.9041 73.4854 36.0042C73.3453 35.6942 73.2154 35.3742 73.0855 35.0642C71.3355 30.7141 70.8355 26.5241 71.6853 22.8541C72.6055 18.8842 75.0455 15.7041 78.7354 13.6441C82.9153 11.3241 86.9253 10.7041 90.6753 11.7841C95.4954 13.1942 100.015 17.4741 104.106 24.5141Z" fill="#424242"/>
<path d="M132.435 40.0644C132.356 40.0544 132.265 40.0444 132.185 40.0444C132.056 40.0344 131.915 40.0244 131.765 40.0244H131.695C131.626 40.0244 131.545 40.0244 131.455 40.0344C131.376 40.0344 131.295 40.0444 131.215 40.0444C130.905 40.0644 130.586 40.1044 130.245 40.1444C130.095 40.1744 129.945 40.1944 129.785 40.2244C129.586 40.2644 129.385 40.3044 129.185 40.3444C128.975 40.3844 128.765 40.4444 128.545 40.4944C128.205 40.5744 127.845 40.6644 127.475 40.7744C127.455 40.7844 127.425 40.7844 127.405 40.7944C127.126 40.8744 126.845 40.9644 126.545 41.0544C126.395 41.1044 126.235 41.1544 126.086 41.2044C125.856 41.2744 125.626 41.3544 125.395 41.4344C125.285 41.4744 125.175 41.5144 125.056 41.5444C124.806 41.6344 124.556 41.7244 124.306 41.8144C123.715 42.0344 123.115 42.2644 122.495 42.5144C121.745 42.8144 120.975 43.1344 120.195 43.4744C119.806 43.6444 119.405 43.8144 119.015 43.9944C117.826 44.5244 116.626 45.0844 115.425 45.6744C114.626 46.0644 113.826 46.4644 113.035 46.8744C112.765 47.0044 112.505 47.1444 112.245 47.2844C111.975 47.4144 111.715 47.5544 111.455 47.6944C111.195 47.8343 110.935 47.9644 110.675 48.1044C110.205 48.3544 109.755 48.5944 109.306 48.8544L109.145 48.9444C109.135 48.9543 109.115 48.9543 109.106 48.9644C109.099 48.971 109.092 48.9744 109.086 48.9744C108.015 49.5644 106.955 50.1644 105.905 50.7544C105.336 51.0844 104.775 51.4144 104.215 51.7444C103.685 52.0444 103.165 52.3544 102.635 52.6744C102.155 52.9644 101.665 53.2643 101.185 53.5743C100.705 53.8744 100.205 54.1844 99.7154 54.4944C98.6954 55.1244 97.6954 55.7743 96.7054 56.4244C96.6554 56.4643 96.5953 56.4944 96.5455 56.5344C95.8953 56.9643 95.2555 57.3943 94.6353 57.8243C94.2755 58.0644 93.9154 58.3144 93.5655 58.5544C91.7254 59.8243 90.0055 61.0743 88.4354 62.2844C87.9054 62.6844 87.3953 63.0843 86.9054 63.4744C86.7755 63.5743 86.6554 63.6744 86.5355 63.7743C86.0155 64.1844 85.5155 64.5944 85.0355 65.0044C84.7955 65.2043 84.5555 65.4043 84.3255 65.6044C84.0953 65.7944 83.8756 65.9944 83.6554 66.1844C83.4354 66.3744 83.2154 66.5644 83.0055 66.7643C82.7955 66.9543 82.5953 67.1443 82.3953 67.3243C82.1954 67.5044 81.9954 67.6944 81.8055 67.8744C81.4354 68.2444 81.0755 68.5944 80.7454 68.9344C80.5755 69.1044 80.4154 69.2744 80.2655 69.4444C80.1056 69.6144 79.9654 69.7744 79.8155 69.9444C79.7054 70.0743 79.5855 70.2044 79.4754 70.3243C79.4554 70.3544 79.4354 70.3844 79.4054 70.4144C78.8756 71.0344 78.4454 71.6244 78.1256 72.1544C77.9554 72.4244 77.8155 72.6844 77.7154 72.9244C77.6854 72.9844 77.6553 73.0344 77.6353 73.0944C73.6256 65.9144 72.5355 57.6144 74.5755 49.6144C75.2454 46.9844 76.2254 44.4944 77.4854 42.1744C78.0655 41.0944 78.7154 40.0544 79.4254 39.0544H79.4354C80.0155 38.2043 80.6553 37.3844 81.3453 36.5944C83.5655 34.0143 86.2254 31.7744 89.2454 29.9844C91.3653 28.7244 93.6055 27.7144 95.9053 26.9844C96.8953 26.6644 97.9154 26.3943 98.9354 26.1844C100.816 25.7744 102.725 25.5544 104.655 25.5044C104.845 25.4944 105.035 25.4844 105.225 25.4944C105.336 25.4844 105.435 25.4844 105.545 25.4844H105.795V25.4944C108.365 25.5044 110.945 25.8344 113.495 26.4844C121.365 28.4844 128.045 33.2844 132.435 40.0644Z" fill="#424242"/>
<path d="M115.865 65.3343C114.395 67.6443 112.125 69.2343 109.455 69.8243C106.325 70.5243 102.985 69.6743 100.535 67.5443C99.9453 67.0343 99.4253 66.4543 98.9854 65.8343C98.8652 65.6743 98.7554 65.5143 98.6553 65.3443C98.4653 65.0643 98.3054 64.7743 98.1553 64.4743C98.0654 64.3043 97.9854 64.1243 97.9153 63.9443C97.6453 63.3443 97.4453 62.7143 97.2954 62.0643C97.2153 61.6843 97.1553 61.3143 97.1055 60.9343C97.0654 60.5643 97.0454 60.1843 97.0454 59.8043C97.0454 59.5543 97.0554 59.3143 97.0754 59.0643C97.0952 58.8143 97.1255 58.5543 97.1653 58.3043C97.1953 58.1043 97.2253 57.8943 97.2754 57.6943C97.3154 57.5243 97.3555 57.3443 97.4053 57.1743C97.4053 57.1743 97.4153 57.1743 97.4153 57.1643C97.9053 56.8443 98.3853 56.5343 98.8755 56.2243C99.3555 55.9043 99.8452 55.5943 100.325 55.2943C100.805 54.9943 101.275 54.6943 101.755 54.4043C102.225 54.1143 102.695 53.8243 103.155 53.5443C103.585 53.2843 104.015 53.0343 104.445 52.7743C105.035 52.4243 105.635 52.0643 106.245 51.7143C106.775 51.4143 107.305 51.1143 107.845 50.8043C108.105 50.6543 108.385 50.5043 108.655 50.3543C108.925 50.2043 109.195 50.0543 109.465 49.9043C109.705 49.9543 109.935 50.0143 110.165 50.0843C110.395 50.1543 110.625 50.2343 110.845 50.3143C111.185 50.4443 111.505 50.5843 111.825 50.7443C112.145 50.9043 112.445 51.0843 112.745 51.2743C113.195 51.5643 113.625 51.8943 114.025 52.2343C114.185 52.3843 114.355 52.5343 114.505 52.6943C114.615 52.8043 114.725 52.9243 114.825 53.0443C114.925 53.1443 115.015 53.2543 115.095 53.3643C115.115 53.3743 115.125 53.3943 115.135 53.4043C115.155 53.4243 115.175 53.4543 115.195 53.4743C115.215 53.5043 115.235 53.5243 115.255 53.5543C115.325 53.6543 115.405 53.7543 115.475 53.8543C115.575 53.9743 115.665 54.1143 115.755 54.2443C116.295 55.0343 116.705 55.9043 116.995 56.8243C117.065 57.0343 117.125 57.2443 117.175 57.4543C117.185 57.4743 117.185 57.5043 117.195 57.5243L117.225 57.6443C117.815 60.3043 117.325 63.0343 115.865 65.3343Z" fill="#E9CA8F"/>
</svg>
