<svg width="192" height="192" viewBox="0 0 192 192" fill="none" xmlns="http://www.w3.org/2000/svg">
<path d="M33.5948 13.7144H158.405C161.213 13.7144 163.906 14.8298 165.892 16.8154C167.878 18.801 168.993 21.494 168.993 24.302V167.698C168.993 170.506 167.878 173.199 165.892 175.185C163.906 177.17 161.213 178.286 158.405 178.286H33.5948C30.7867 178.286 28.0937 177.17 26.1081 175.185C24.1226 173.199 23.0071 170.506 23.0071 167.698V24.302C23.0071 21.494 24.1226 18.801 26.1081 16.8154C28.0937 14.8298 30.7867 13.7144 33.5948 13.7144Z" fill="#E6E6E6"/>
<path d="M162.713 41.6729V150.39C165.924 150.39 169.005 149.118 171.281 146.853C173.557 144.587 174.843 141.511 174.856 138.3V53.763C174.843 50.5514 173.557 47.4762 171.281 45.2103C169.005 42.9444 165.924 41.6725 162.713 41.6729Z" fill="white"/>
<path d="M162.713 150.88H162.222V41.1831H162.713C166.055 41.1796 169.262 42.5021 171.631 44.8605C174 47.2188 175.336 50.4204 175.347 53.7628V138.3C175.336 141.642 174 144.844 171.631 147.202C169.263 149.561 166.055 150.883 162.713 150.88ZM163.203 42.1732V149.89C166.198 149.768 169.031 148.494 171.11 146.335C173.19 144.176 174.356 141.297 174.366 138.3V53.7628C174.356 50.7652 173.19 47.8871 171.11 45.7281C169.031 43.5691 166.198 42.2957 163.203 42.1732Z" fill="#D1D1D1"/>
<path d="M17.1437 53.7629V138.3C17.1575 141.511 18.4431 144.587 20.719 146.852C22.995 149.118 26.0759 150.39 29.2875 150.39V41.6729C26.0759 41.6725 22.995 42.9444 20.7191 45.2103C18.4431 47.4762 17.1575 50.5514 17.1437 53.7629Z" fill="white"/>
<path d="M29.778 150.88H29.2875C25.9449 150.883 22.7375 149.561 20.369 147.202C18.0004 144.844 16.664 141.642 16.6531 138.3V53.7628C16.6641 50.4204 18.0005 47.2188 20.3691 44.8605C22.7376 42.5021 25.945 41.1796 29.2875 41.1831H29.778V150.88ZM28.7969 42.1732C25.8018 42.2957 22.9695 43.5691 20.89 45.7281C18.8105 47.8871 17.6442 50.7652 17.6342 53.7628V138.299C17.644 141.297 18.8102 144.176 20.8897 146.335C22.9692 148.494 25.8017 149.768 28.7969 149.89V42.1732Z" fill="#D1D1D1"/>
<path d="M141.167 167.706H50.8333C47.1409 167.715 43.5958 166.259 40.9758 163.657C38.3557 161.055 36.8747 157.521 36.8577 153.828V38.172C36.8747 34.4797 38.3557 30.9449 40.9758 28.3431C43.5958 25.7414 47.1409 24.2852 50.8333 24.294H141.167C144.859 24.2852 148.404 25.7414 151.024 28.3431C153.644 30.9449 155.125 34.4797 155.142 38.172V153.828C155.125 157.521 153.644 161.055 151.024 163.657C148.404 166.259 144.859 167.715 141.167 167.706Z" fill="white"/>
<path d="M141.166 168.196H50.8336C47.0113 168.205 43.3415 166.697 40.6295 164.003C37.9175 161.31 36.3847 157.651 36.3673 153.828V38.1714C36.3847 34.3491 37.9175 30.6898 40.6295 27.9963C43.3415 25.3028 47.0113 23.795 50.8336 23.8037H141.166C144.989 23.795 148.659 25.3028 151.371 27.9963C154.083 30.6898 155.615 34.3491 155.633 38.1714V153.828C155.615 157.651 154.083 161.31 151.371 164.003C148.659 166.697 144.989 168.205 141.166 168.196ZM50.8336 24.7833C47.2712 24.7745 43.8508 26.1791 41.3227 28.689C38.7946 31.1989 37.3653 34.6091 37.3484 38.1714V153.828C37.3653 157.391 38.7946 160.801 41.3227 163.311C43.8508 165.821 47.2712 167.225 50.8336 167.216H141.166C144.729 167.225 148.149 165.821 150.677 163.311C153.205 160.801 154.635 157.391 154.652 153.828V38.1714C154.635 34.6091 153.205 31.1989 150.677 28.689C148.149 26.1791 144.729 24.7745 141.166 24.7833H50.8336Z" fill="#D1D1D1"/>
<path d="M120.241 95.9389C112.259 97.5319 104.139 98.3302 96 98.3221C87.8612 98.3235 79.7419 97.5253 71.7592 95.9389C72.6158 90.1438 76.6226 87.8861 80.6792 86.5313L85.3916 85.001C86.353 84.7545 87.2558 84.3193 88.0474 83.7206C88.839 83.1219 89.5037 82.3718 90.0028 81.5139V77.2241C88.6924 76.6973 86.7019 73.1601 86.4497 70.5258C85.593 70.5258 84.8121 69.6981 84.5598 66.9886C84.4218 66.5368 84.4027 66.057 84.5042 65.5956C84.6057 65.1342 84.8245 64.7067 85.1393 64.3545V62.172C85.1393 55.6744 89.398 50.0801 96 50.0801C102.728 50.0801 106.986 55.6744 106.986 62.172C107.015 62.9019 106.973 63.6328 106.861 64.3545C107.173 64.7096 107.399 65.1321 107.522 65.589C107.644 66.0459 107.659 66.5249 107.566 66.9886C107.238 69.6981 106.457 70.5258 105.701 70.5258C105.374 73.1601 103.358 76.6972 102.148 77.2241V81.5139C102.778 83.0693 104.668 84.3487 106.659 85.001L111.497 86.5313C115.504 87.8861 119.46 90.1438 120.241 95.9389Z" fill="#C2D3E6"/>
<path d="M132.955 127.364H59.7573V129.263H132.955V127.364Z" fill="#B1B1B1"/>
<path d="M132.992 140.021H59.7202V141.92H132.992V140.021Z" fill="#B1B1B1"/>
<path d="M116.537 106.864H76.1757V119.252H116.537V106.864Z" fill="#6E8CBB"/>
</svg>
