<svg width="196" height="196" viewBox="0 0 196 196" fill="none" xmlns="http://www.w3.org/2000/svg">
<path d="M136.265 22.5486V173.455C136.265 177.634 132.877 181.02 128.699 181.02H67.3009C63.1226 181.02 59.7349 177.634 59.7341 173.455V22.5486C59.7347 18.3704 63.1223 14.9838 67.3005 14.9844H75.6453C76.288 14.9843 76.8092 15.5052 76.8093 16.148V17.4384C76.8094 19.6882 78.6333 21.5118 80.883 21.5117H115.116C117.366 21.512 119.19 19.6885 119.19 17.4388V16.148C119.19 15.5052 119.712 14.9842 120.354 14.9844H128.699C132.877 14.9837 136.265 18.3707 136.265 22.5486Z" fill="white"/>
<path d="M128.701 7.99854H67.2989C59.2639 7.99854 52.7502 14.5122 52.7502 22.5472V173.45C52.7502 181.485 59.2639 187.998 67.2989 187.998H128.701C136.736 187.998 143.25 181.485 143.25 173.45V22.5472C143.25 14.5122 136.736 7.99854 128.701 7.99854Z" fill="#666666"/>
<path d="M128.699 7.99807C136.734 7.997 143.249 14.5099 143.25 22.545V173.451C143.249 181.486 136.734 187.999 128.699 187.998H67.301C59.2659 187.999 52.7514 181.486 52.7503 173.451V22.545C52.7513 14.5099 59.2659 7.99703 67.3009 7.99807H128.699ZM128.699 6.99807H67.301C58.7176 7.00661 51.7608 13.9615 51.75 22.545V173.451C51.7608 182.035 58.7176 188.989 67.301 188.998H128.699C137.282 188.989 144.239 182.035 144.25 173.451V22.545C144.239 13.9615 137.282 7.00665 128.699 6.99807Z" fill="#292929"/>
<path d="M136.265 22.5447V173.452C136.265 177.63 132.877 181.016 128.699 181.016H67.3009C63.1226 181.016 59.7349 177.63 59.7341 173.452V22.5447C59.7347 18.3665 63.1223 14.9799 67.3005 14.9805H75.6453C76.288 14.9804 76.8092 15.5013 76.8093 16.1441V17.4345C76.8094 19.6842 78.6333 21.5079 80.883 21.5078H115.116C117.366 21.5081 119.19 19.6845 119.19 17.4349V16.1441C119.19 15.5013 119.712 14.9803 120.354 14.9805H128.699C132.877 14.9798 136.265 18.3668 136.265 22.5447Z" fill="white"/>
<path d="M128.699 14.9805C132.877 14.9798 136.265 18.3663 136.265 22.5444V173.452C136.265 177.63 132.877 181.016 128.699 181.016H67.3009C63.1227 181.017 59.735 177.63 59.7342 173.452V22.5449C59.7348 18.3666 63.1225 14.9799 67.3008 14.9805H75.6453C76.2881 14.9804 76.8092 15.5014 76.8093 16.1442V17.4347C76.8094 19.6844 78.6333 21.5081 80.883 21.508H115.116C117.366 21.5082 119.19 19.6848 119.19 17.4351V16.1443C119.19 15.5015 119.712 14.9804 120.354 14.9805H128.699ZM128.699 14.2305H120.355C119.298 14.2315 118.441 15.0876 118.44 16.1443V17.4346C118.438 19.2693 116.951 20.7559 115.116 20.7579H80.8837C79.0489 20.7561 77.5618 19.2694 77.5595 17.4346V16.1443C77.5582 15.0878 76.7019 14.2316 75.6453 14.2305H67.3009C62.7105 14.235 58.9899 17.9544 58.984 22.5449V173.452C58.99 178.042 62.7106 181.762 67.301 181.766H128.699C133.289 181.761 137.01 178.042 137.016 173.452V22.5449C137.01 17.9545 133.289 14.2351 128.699 14.2305Z" fill="#292929"/>
<path d="M136.265 22.5447V39.6873H59.7343V22.5447C59.7348 18.3665 63.1224 14.9799 67.3007 14.9805H75.6454C76.2881 14.9804 76.8093 15.5013 76.8094 16.1441V17.4345C76.8095 19.6842 78.6334 21.5079 80.8831 21.5078H115.116C117.366 21.5081 119.19 19.6845 119.19 17.4349V16.1441C119.19 15.5013 119.712 14.9803 120.354 14.9805H128.699C132.877 14.9798 136.265 18.3668 136.265 22.5447Z" fill="#C2D3E6"/>
<path d="M136.265 160.736V173.452C136.265 177.63 132.877 181.016 128.699 181.016H67.3009C63.1226 181.016 59.7349 177.63 59.7341 173.452V160.736H136.265Z" fill="#C2D3E6"/>
<path d="M92.9542 76.8276H78.9691C77.3904 76.8276 76.1106 78.1074 76.1106 79.6861V92.9612C76.1106 94.5399 77.3904 95.8197 78.9691 95.8197H92.9542C94.5329 95.8197 95.8126 94.5399 95.8126 92.9612V79.6861C95.8126 78.1074 94.5329 76.8276 92.9542 76.8276Z" fill="#FF4612"/>
<path fill-rule="evenodd" clip-rule="evenodd" d="M89.4064 87.127C88.2532 87.127 87.3901 87.7817 87.152 88.8977C87.0851 87.8561 86.4304 87.2311 85.4706 87.2311C84.801 87.2311 84.3546 87.5361 84.1016 87.9454C83.804 87.4841 83.313 87.2311 82.7029 87.2311C82.1374 87.2311 80.3369 87.1641 80.3369 89.5003V91.2042C80.3295 91.5538 80.6048 91.8514 80.9545 91.8588C81.2967 91.8663 81.5869 91.591 81.6018 91.2339V89.3292C81.6018 88.7861 81.8993 88.4215 82.3978 88.4215C82.8591 88.4215 83.127 88.7489 83.127 89.3218V91.2042C83.127 91.5613 83.4097 91.844 83.7519 91.844C84.1016 91.844 84.3843 91.5613 84.3843 91.2042V89.173C84.4364 88.7192 84.7117 88.4215 85.1581 88.4215C85.6417 88.4215 85.9021 88.7489 85.9021 89.3218V91.2042C85.8872 91.5613 86.1625 91.8514 86.5122 91.8588C86.8619 91.8737 87.152 91.591 87.1595 91.2413V90.2072C87.405 91.2934 88.268 91.9482 89.4436 91.9482C89.9941 91.9482 90.5149 91.777 90.8944 91.4943C90.9092 91.4868 90.9241 91.4794 90.9316 91.472C90.9465 91.4571 90.9613 91.4496 90.9762 91.4348L90.9837 91.4274C90.9986 91.4125 91.0209 91.3976 91.0432 91.3827C91.4152 91.0405 91.1994 90.4081 90.7084 90.3411C90.4852 90.3113 90.2694 90.4081 90.1429 90.5941C89.9941 90.7875 89.7486 90.8916 89.4064 90.8916C88.826 90.8916 88.4838 90.5271 88.454 89.9542H91.1771C91.4078 89.9542 91.5863 89.7682 91.5863 89.5375V89.4334C91.5863 87.99 90.7233 87.127 89.4064 87.127ZM88.3722 89.0911C88.4094 88.5257 88.7591 88.1983 89.2948 88.1983C89.8602 88.1983 90.1355 88.548 90.1579 89.0911H88.3722Z" fill="white"/>
<path fill-rule="evenodd" clip-rule="evenodd" d="M81.944 81.413C81.944 81.8074 81.6241 82.1273 81.2298 82.1273C80.8429 82.1273 80.5229 81.8073 80.5155 81.4204V81.413C80.523 81.0187 80.8429 80.6987 81.2372 80.6987C81.6315 80.6987 81.9514 81.0187 81.944 81.413Z" fill="white"/>
<path fill-rule="evenodd" clip-rule="evenodd" d="M89.265 85.5571C89.1906 86.4945 88.4689 87.0302 87.2785 86.9409C86.8395 86.9037 86.4824 86.7996 86.1922 86.6284C85.783 86.8665 85.3738 86.9335 84.8232 86.9335C84.2727 86.9335 83.8188 86.7847 83.5287 86.4722C83.298 86.7401 82.9707 86.9335 82.4871 86.9335C81.3413 86.9335 80.508 86.4573 80.5154 85.3934L80.5452 82.8414C80.5452 82.7001 80.6568 82.5885 80.7982 82.5885H81.5794C81.7207 82.5885 81.8323 82.7075 81.8323 82.8489L81.81 85.0809C81.81 85.5868 82.1299 85.7728 82.4871 85.7728C82.8293 85.7728 83.1343 85.6017 83.1641 85.1627L83.1864 81.6213C83.1864 81.4055 83.3575 81.2344 83.5733 81.2344H84.0941C84.3099 81.2344 84.481 81.4129 84.481 81.6213V82.2314C84.5851 82.1644 84.7116 82.1272 84.8381 82.1272C84.9646 82.1272 85.0985 82.1644 85.2101 82.2314C85.5375 82.4397 85.6417 82.8712 85.4333 83.206C85.2325 83.5334 84.8009 83.6375 84.4735 83.4367H84.4661L84.4586 85.0809C84.4586 85.5794 84.7711 85.7654 85.1208 85.7728C85.597 85.7728 85.8425 85.4975 85.8425 85.4975C85.9616 85.3785 86.1178 85.319 86.2815 85.319C86.4972 85.3264 86.713 85.438 86.8097 85.6314C86.8916 85.81 87.0776 85.9291 87.3678 85.9514C87.7174 85.9737 87.9481 85.8398 87.9704 85.5794C87.9927 85.3041 87.829 85.2 87.1818 84.9916C86.2294 84.6717 85.6045 84.4113 85.6788 83.4738C85.7458 82.5959 86.4675 82.0826 87.6058 82.1718C88.2605 82.2239 88.7219 82.462 89.0045 82.8117C89.3171 83.206 89.012 83.7863 88.5135 83.7789C88.2903 83.7714 88.0894 83.6449 87.9927 83.4441C87.9183 83.2878 87.7695 83.1837 87.5165 83.1614C87.1743 83.1316 86.9883 83.2655 86.9659 83.511C86.9436 83.831 87.2785 83.8979 87.8141 84.0839C88.7069 84.3964 89.3245 84.7238 89.265 85.5571Z" fill="white"/>
<path d="M117.031 76.8276H103.046C101.467 76.8276 100.187 78.1074 100.187 79.6861V92.9612C100.187 94.5399 101.467 95.8197 103.046 95.8197H117.031C118.61 95.8197 119.889 94.5399 119.889 92.9612V79.6861C119.889 78.1074 118.61 76.8276 117.031 76.8276Z" fill="#E6E6E6"/>
<path d="M117.031 100.194H103.046C101.467 100.194 100.187 101.474 100.187 103.053V116.328C100.187 117.907 101.467 119.186 103.046 119.186H117.031C118.61 119.186 119.889 117.907 119.889 116.328V103.053C119.889 101.474 118.61 100.194 117.031 100.194Z" fill="#E6E6E6"/>
<path d="M92.9542 100.194H78.9691C77.3904 100.194 76.1106 101.474 76.1106 103.053V116.328C76.1106 117.907 77.3904 119.186 78.9691 119.186H92.9542C94.5329 119.186 95.8126 117.907 95.8126 116.328V103.053C95.8126 101.474 94.5329 100.194 92.9542 100.194Z" fill="#E6E6E6"/>
<path d="M117.968 31.2515H78.0317C76.5439 31.2515 75.3378 32.4576 75.3378 33.9454C75.3378 35.4332 76.5439 36.6393 78.0317 36.6393H117.968C119.456 36.6393 120.662 35.4332 120.662 33.9454C120.662 32.4576 119.456 31.2515 117.968 31.2515Z" fill="#97B3D5"/>
</svg>
