<svg width="192" height="192" viewBox="0 0 192 192" fill="none" xmlns="http://www.w3.org/2000/svg">
<path d="M147.506 177.919H44.495C42.6462 177.96 40.8566 177.266 39.5183 175.99C38.1801 174.714 37.4022 172.959 37.3552 171.11V20.5228C37.4022 18.6741 38.1801 16.9195 39.5183 15.6433C40.8566 14.367 42.6462 13.6733 44.495 13.7141H147.506C149.355 13.6734 151.145 14.3672 152.483 15.6434C153.821 16.9196 154.598 18.6743 154.645 20.5228V171.11C154.598 172.959 153.821 174.713 152.483 175.99C151.145 177.266 149.355 177.96 147.506 177.919Z" fill="#E6E6E6"/>
<path d="M125.856 154.044H66.1445L65.9771 153.288C65.3523 150.45 65.0386 147.553 65.0416 144.647C65.0286 138.887 66.2781 133.193 68.7023 127.967C70.612 123.975 73.2632 120.382 76.5146 117.381C80.0425 114.093 84.0415 111.732 87.106 107.937C89.0519 105.527 91.1277 102.722 91.1277 99.9045C91.1276 94.4785 86.8733 89.6486 82.4807 86.9512C78.2508 84.4646 74.5967 81.1086 71.76 77.1051C67.3569 70.6366 65.0148 62.9868 65.0416 55.162C65.0335 51.7969 65.4562 48.4447 66.2993 45.187L66.4879 44.4683H125.511L125.698 45.187C126.543 48.4444 126.966 51.7968 126.957 55.162C126.957 65.7267 122.564 77.4237 113.89 83.9156C108.46 87.9788 100.871 92.079 100.871 99.9048C100.871 103.295 102.68 106.472 104.873 108.946C107.231 111.608 110.424 113.259 113.215 115.398C116.174 117.648 118.735 120.378 120.79 123.476C123.84 128.183 125.815 133.505 126.573 139.063C126.829 140.914 126.958 142.781 126.957 144.65C126.961 147.555 126.647 150.453 126.023 153.29L125.856 154.044Z" fill="#D1D1D1"/>
<path d="M126.148 154.41H65.8516L65.6204 153.367C64.9899 150.503 64.6734 147.579 64.6764 144.646C64.6636 138.832 65.9249 133.085 68.3716 127.81C70.3051 123.779 72.9837 120.149 76.2661 117.112C77.5963 115.872 79.0064 114.753 80.3703 113.67C82.7387 111.932 84.903 109.931 86.8219 107.706C88.7285 105.345 90.7625 102.6 90.7625 99.9046C90.7625 94.421 86.3858 89.7793 82.2902 87.2641C78.0193 84.7479 74.3285 81.3572 71.46 77.3144C67.0197 70.782 64.6553 63.061 64.6764 55.1623C64.6683 51.7656 65.0949 48.3818 65.9457 45.0933L66.2063 44.1016H125.793L126.051 45.0942C126.905 48.382 127.332 51.7657 127.323 55.1623C127.323 66.7996 122.136 78.2011 114.108 84.2097C113.34 84.7843 112.529 85.3599 111.702 85.9469C106.796 89.427 101.236 93.372 101.236 99.9046C101.237 103.53 103.362 106.69 105.146 108.703C106.776 110.393 108.611 111.873 110.608 113.108C111.547 113.745 112.519 114.404 113.436 115.107C116.43 117.38 119.019 120.141 121.095 123.275C124.175 128.027 126.169 133.401 126.935 139.012C127.193 140.88 127.323 142.764 127.323 144.65C127.326 147.582 127.01 150.506 126.38 153.369L126.148 154.41ZM66.4374 153.677H125.563L125.666 153.21C126.285 150.399 126.596 147.528 126.592 144.65C126.593 142.798 126.465 140.948 126.211 139.114C125.46 133.61 123.505 128.339 120.485 123.677C118.454 120.613 115.921 117.912 112.993 115.689C112.092 114.999 111.13 114.347 110.199 113.715C108.15 112.447 106.269 110.927 104.6 109.19C102.732 107.083 100.506 103.761 100.506 99.9046C100.506 92.9931 106.23 88.9317 111.28 85.3485C112.101 84.7653 112.908 84.1936 113.671 83.6218C121.52 77.7468 126.592 66.5763 126.592 55.1624C126.601 51.8285 126.182 48.5073 125.345 45.2804L125.229 44.8347H66.7694L66.6524 45.2804C65.8173 48.5077 65.3987 51.8287 65.4069 55.1623C65.3853 62.9117 67.7042 70.487 72.0602 76.8963C74.8602 80.8648 78.4787 84.1867 82.6716 86.638C86.9361 89.2571 91.493 94.1175 91.493 99.9046C91.493 102.84 89.3748 105.709 87.3898 108.168C85.4341 110.432 83.2317 112.47 80.8236 114.245C79.471 115.319 78.0719 116.43 76.7636 117.649C73.5492 120.622 70.9261 124.176 69.0327 128.123C66.6313 133.3 65.3937 138.94 65.4069 144.647C65.4039 147.526 65.7147 150.397 66.3338 153.209L66.4374 153.677Z" fill="#6E8CBB"/>
<path d="M146.867 37.8584H141.65V158.883H146.867V37.8584Z" fill="#D1D1D1"/>
<path d="M147.233 159.25H141.285V37.4917H147.233V159.25ZM142.016 158.517H146.502V38.2247H142.016V158.517Z" fill="#D1D1D1"/>
<path d="M50.35 37.8584H45.1328V158.883H50.35V37.8584Z" fill="#D1D1D1"/>
<path d="M50.7151 159.25H44.7676V37.4917H50.7151V159.25ZM45.4981 158.517H49.9846V38.2247H45.4981V158.517Z" fill="#8C8C8C"/>
<path d="M40.8938 163.735V156.923H54.5888V163.735H40.8938Z" fill="#E9CA8F"/>
<path d="M54.9542 164.102H40.5287V156.557H54.9542V164.102ZM41.2592 163.368H54.2238V157.29H41.2592V163.368Z" fill="#A58346"/>
<path d="M40.8938 42.0252V34.79H54.5888V42.0252H40.8938Z" fill="#E9CA8F"/>
<path d="M54.9542 42.391H40.5287V34.4229H54.9542V42.391ZM41.2592 41.658H54.2238V35.1559H41.2592V41.658Z" fill="#A58346"/>
<path d="M137.411 163.735V156.923H151.106V163.735H137.411Z" fill="#E9CA8F"/>
<path d="M151.471 164.102H137.046V156.557H151.471V164.102ZM137.776 163.368H150.741V157.29H137.776V163.368Z" fill="#A58346"/>
<path d="M137.411 42.0252V34.79H151.106V42.0252H137.411Z" fill="#E9CA8F"/>
<path d="M151.471 42.391H137.046V34.4229H151.471V42.391ZM137.776 41.658H150.741V35.1559H137.776V41.658Z" fill="#A58346"/>
<path d="M104.363 84.2196C101.977 84.2131 99.5939 84.0608 97.2265 83.7638C94.4032 83.3685 91.6072 82.7982 88.8545 82.0563C87.8629 81.8069 86.8787 81.5626 85.8945 81.3385L84.317 80.9758L85.7121 80.1523C90.2534 77.4702 105.942 69.4967 117.263 79.4144L117.883 79.9933L117.486 80.4328C116.616 81.3368 115.687 82.1812 114.705 82.9604L114.43 83.1015C111.129 83.8637 107.751 84.2389 104.363 84.2196Z" fill="#CCA761"/>
<path d="M159.308 20.606H32.6918V34.7899H159.308V20.606Z" fill="#795E2E"/>
<path d="M159.673 35.1562H32.3265V20.2393H159.673V35.1562ZM33.057 34.4232H158.943V20.9723H33.057V34.4232Z" fill="#36250D"/>
<path d="M159.308 163.735H32.6918V177.919H159.308V163.735Z" fill="#795E2E"/>
<path d="M159.673 178.286H32.3265V163.369H159.673V178.286ZM33.057 177.553H158.943V164.102H33.057V177.553Z" fill="#36250D"/>
<path d="M125.598 153.951H66.4004L66.2892 153.445C65.3542 149.507 65.0256 145.45 65.3148 141.414L65.3648 140.855L66.1281 140.835C80.6437 140.155 84.2221 136.49 88.9257 128.293C92.5315 122.007 94.395 109.955 91.385 100.697L91.3538 100.495C91.3738 100.332 91.3825 100.167 91.38 100.002C91.38 94.7961 87.3208 90.3497 83.8586 87.524C83.7849 87.5039 83.3428 87.2142 82.9856 86.98L82.6171 86.7383C79.5462 85.0301 76.7971 82.7988 74.4938 80.1449L73.6869 79.2156L74.9035 79.0796C78.6917 78.7517 82.5082 79.0909 86.1792 80.082C87.1672 80.3061 88.1576 80.5529 89.1556 80.8022C91.8605 81.5307 94.6076 82.0925 97.3813 82.4846C102.961 83.2726 108.636 83.0568 114.14 81.8474L116.623 81.2631L114.707 82.958C113.274 84.4035 111.677 85.6761 109.948 86.7496L109.389 87.1563C109.02 87.4006 108.379 87.8855 108.171 87.9862C104.831 90.7339 100.639 94.8636 100.639 100.069C100.634 100.188 100.64 100.307 100.656 100.424L100.634 100.764C97.6247 110.022 99.4696 122.007 103.077 128.293C107.778 136.49 111.355 140.155 125.873 140.835L126.852 140.841L126.905 141.398C127.01 142.556 126.957 143.497 126.957 144.65L127.062 144.838C126.924 147.748 126.471 150.635 125.711 153.447L125.598 153.951Z" fill="#E9CA8F"/>
<path d="M126.246 154.533H65.7541L65.5016 153.394C64.8692 150.521 64.5517 147.588 64.5547 144.646C64.5418 138.814 65.8071 133.05 68.2618 127.759C70.2018 123.713 72.8896 120.07 76.1834 117.023C77.5169 115.78 78.9289 114.658 80.2948 113.575C82.6557 111.841 84.8135 109.847 86.7273 107.63C88.6211 105.284 90.6408 102.56 90.6408 99.9047C90.6408 94.4707 86.2946 89.8662 82.2265 87.3683C77.9411 84.8435 74.238 81.441 71.3601 77.3842C66.9055 70.8313 64.5335 63.086 64.5547 55.1624C64.5465 51.7553 64.9745 48.3612 65.8283 45.0628L66.1127 43.9795H125.887L126.169 45.0628C127.025 48.3609 127.454 51.7552 127.444 55.1624C127.444 66.837 122.238 78.2767 114.181 84.3073C113.412 84.8828 112.6 85.4593 111.772 86.0464C106.891 89.5103 101.358 93.4352 101.358 99.9048C101.358 103.492 103.468 106.625 105.237 108.622C106.861 110.304 108.688 111.777 110.676 113.007C111.617 113.645 112.59 114.304 113.51 115.01C116.515 117.291 119.113 120.062 121.196 123.207C124.287 127.975 126.287 133.366 127.055 138.995C127.315 140.869 127.445 142.758 127.444 144.65C127.448 147.591 127.131 150.524 126.499 153.396L126.246 154.533ZM66.535 153.555H125.465L125.548 153.184C126.164 150.381 126.474 147.52 126.47 144.65C126.471 142.804 126.344 140.96 126.09 139.131C125.343 133.645 123.394 128.392 120.383 123.745C118.36 120.692 115.836 118.001 112.919 115.787C112.022 115.099 111.06 114.448 110.131 113.817C108.074 112.543 106.185 111.016 104.509 109.271C102.627 107.148 100.384 103.799 100.384 99.9048C100.384 92.9293 106.135 88.8488 111.21 85.2484C112.031 84.6662 112.836 84.0945 113.599 83.5246C121.418 77.6716 126.47 66.5392 126.47 55.1625C126.479 51.839 126.062 48.5281 125.227 45.3111L125.135 44.9569H66.8631L66.7699 45.312C65.9376 48.5291 65.5204 51.8394 65.5287 55.1624C65.5071 62.8869 67.8184 70.4379 72.1601 76.8268C74.9506 80.7813 78.5566 84.0914 82.7349 86.5341C87.0279 89.1704 91.6148 94.067 91.6148 99.9047C91.6148 102.88 89.4828 105.769 87.4844 108.244C85.5234 110.516 83.3146 112.561 80.8992 114.342C79.5481 115.413 78.1513 116.523 76.8464 117.739C73.6433 120.701 71.0295 124.242 69.1426 128.176C66.7492 133.336 65.5156 138.959 65.5287 144.647C65.5257 147.517 65.8355 150.379 66.4527 153.182L66.535 153.555Z" fill="#8C8C8C"/>
<path d="M62.7598 44.4685V34.79H129.24V44.4685H62.7598Z" fill="#503D1C"/>
<path d="M129.605 44.8346H62.3947V34.4229H129.605V44.8346ZM63.1251 44.1015H128.875V35.1559H63.1251V44.1015Z" fill="#231400"/>
<path d="M62.7598 163.723V154.044H129.24V163.723H62.7598Z" fill="#503D1C"/>
<path d="M129.605 164.089H62.3947V153.678H129.605V164.089ZM63.1251 163.356H128.875V154.411H63.1251V163.356Z" fill="#231400"/>
</svg>
