<svg width="192" height="192" viewBox="0 0 192 192" fill="none" xmlns="http://www.w3.org/2000/svg">
<path fill-rule="evenodd" clip-rule="evenodd" d="M55.6408 70.5308H43.6898C40.5241 70.5434 37.4916 71.8065 35.2531 74.045C33.0145 76.2836 31.7514 79.316 31.7388 82.4818V166.335C31.7514 169.501 33.0145 172.533 35.2531 174.772C37.4916 177.01 40.5241 178.273 43.6898 178.286H139.494C142.66 178.273 145.692 177.01 147.931 174.772C150.169 172.533 151.432 169.501 151.445 166.335V82.4818C151.432 79.316 150.169 76.2836 147.931 74.045C145.692 71.8065 142.66 70.5434 139.494 70.5308H55.6408Z" fill="#E6E6E6"/>
<path fill-rule="evenodd" clip-rule="evenodd" d="M76.5061 61.6164V49.6654C76.5061 43.3002 79.0346 37.1957 83.5355 32.6948C88.0364 28.1939 94.1409 25.6654 100.506 25.6654C106.871 25.6654 112.976 28.1939 117.477 32.6948C121.978 37.1957 124.506 43.3002 124.506 49.6654V61.6164H136.457V49.6654C136.457 40.1306 132.669 30.9863 125.927 24.2442C119.185 17.502 110.041 13.7144 100.506 13.7144C90.9713 13.7144 81.827 17.502 75.0849 24.2442C68.3427 30.9863 64.5551 40.1306 64.5551 49.6654V61.6164H76.5061Z" fill="#D1D1D1" stroke="#8C8C8C" stroke-miterlimit="10"/>
<path fill-rule="evenodd" clip-rule="evenodd" d="M64.4571 61.8125H52.5061C49.3403 61.8251 46.3079 63.0883 44.0693 65.3268C41.8308 67.5653 40.5676 70.5978 40.5551 73.7635V157.617C40.5676 160.782 41.8308 163.815 44.0693 166.053C46.3079 168.292 49.3403 169.555 52.5061 169.568H148.31C151.476 169.555 154.508 168.292 156.747 166.053C158.985 163.815 160.249 160.782 160.261 157.617V73.7635C160.249 70.5978 158.985 67.5653 156.747 65.3268C154.508 63.0883 151.476 61.8251 148.31 61.8125H64.4571Z" fill="#E9CA8F" stroke="#A58346" stroke-miterlimit="10"/>
<path fill-rule="evenodd" clip-rule="evenodd" d="M106.384 120V133.616C106.384 135.201 105.754 136.721 104.634 137.842C103.513 138.962 101.993 139.592 100.408 139.592C98.8234 139.592 97.3035 138.962 96.1829 137.842C95.0622 136.721 94.4327 135.201 94.4327 133.616V120C92.6107 118.973 91.0961 117.478 90.0455 115.67C88.995 113.862 88.4466 111.806 88.4572 109.714C88.4572 106.545 89.7163 103.505 91.9576 101.264C94.1988 99.0223 97.2386 97.7632 100.408 97.7632C103.578 97.7632 106.618 99.0223 108.859 101.264C111.1 103.505 112.359 106.545 112.359 109.714C112.391 111.81 111.851 113.874 110.798 115.686C109.746 117.498 108.219 118.989 106.384 120Z" fill="#424242"/>
</svg>
