<svg width="192" height="192" viewBox="0 0 192 192" fill="none" xmlns="http://www.w3.org/2000/svg">
<path d="M151.969 121.854C150.552 93.5862 149.557 87.6303 159.188 66.6454C168.818 45.6616 149.225 20.781 117.805 42.5504C104.724 51.6136 90.4007 59.7893 74.9153 63.8164C69.7283 65.2263 64.3885 65.9967 59.0145 66.1106C53.6542 66.1625 47.0861 63.4833 42.5143 67.0843C29.9932 76.9488 28.6599 99.258 31.7662 113.301C36.8934 136.483 55.7437 152.38 76.8441 161.221C148.006 191.039 152.561 133.661 151.969 121.854Z" fill="#E6E6E6"/>
<path d="M64.2497 68.2096C64.2497 68.2096 63.5639 69.1559 62.5295 70.4627C62.2711 69.1034 61.5463 67.8769 60.4802 66.9949C60.3131 66.8584 60.1011 66.7891 59.8857 66.8007C59.6702 66.8123 59.4669 66.9039 59.3155 67.0576C58.0136 68.4036 54.3215 72.2406 50.5481 76.1707C50.2297 75.4213 39.9215 51.534 36.5341 43.6385C36.5341 43.6385 36.2735 41.4462 39.5532 41.0024C42.8328 40.5587 48.9093 48.6765 48.9093 48.6765C53.3625 53.7959 64.2497 68.2096 64.2497 68.2096Z" fill="white" stroke="#D1D1D1" stroke-width="0.75" stroke-miterlimit="10"/>
<path d="M153.532 185.359L98.3031 185.184C95.3354 185.178 92.4084 184.494 89.746 183.183C87.0835 181.872 84.7562 179.969 82.9421 177.62C77.6073 170.721 69.3993 160.103 61.7379 150.178C56.2071 143.015 50.9692 136.194 47.2958 131.393L57.9273 119.526C62.9203 113.28 65.3634 108.479 66.5065 104.624L123.025 104.8C121.666 102.965 118.032 96.2311 117.934 91.0686C117.843 88.7698 117.958 86.4674 118.276 84.189C119.839 86.9798 122.438 91.1568 123.328 92.5429C124.412 94.2504 125.624 95.1584 126.602 94.4463C127.413 93.8311 129.113 92.348 131.184 92.1824C131.907 93.0807 132.64 93.9656 133.382 94.8371C135.688 97.5692 138.151 100.176 140.496 102.849C143.643 106.44 143.505 110.51 143.124 117.975C142.724 125.431 140.418 163.656 140.418 163.656L154.753 182.93C154.923 183.156 155.026 183.425 155.051 183.706C155.076 183.988 155.022 184.271 154.895 184.523C154.768 184.776 154.573 184.988 154.332 185.135C154.091 185.283 153.814 185.361 153.532 185.359Z" fill="white" stroke="#D1D1D1" stroke-width="0.75" stroke-miterlimit="10"/>
<path d="M67.4831 143.767C64.4273 143.757 61.5006 142.534 59.3466 140.366C57.1927 138.199 55.9879 135.264 55.9974 132.208V132.208L56.3598 17.8519C56.3751 14.8042 57.595 11.8863 59.7536 9.73468C61.9121 7.5831 64.8341 6.37256 67.8818 6.36719L114.513 6.51511C116.026 6.51986 117.524 6.82259 118.92 7.40602C120.316 7.98945 121.583 8.84214 122.65 9.91542C123.716 10.9887 124.561 12.2615 125.136 13.6613C125.71 15.061 126.004 16.5602 125.999 18.0733L125.636 132.429C125.621 135.477 124.401 138.395 122.242 140.546C120.084 142.698 117.162 143.909 114.115 143.915L67.4831 143.767Z" fill="#666666"/>
<path d="M67.8818 6.85703H67.9171L114.512 7.00495C115.961 7.00945 117.395 7.29926 118.731 7.85785C120.068 8.41644 121.282 9.23286 122.303 10.2605C123.324 11.2881 124.133 12.5068 124.683 13.847C125.233 15.1872 125.514 16.6227 125.509 18.0714L125.147 132.427C125.137 135.347 123.971 138.143 121.903 140.205C119.836 142.266 117.035 143.423 114.116 143.424H114.079L67.4841 143.277C66.0353 143.272 64.6016 142.982 63.2649 142.424C61.9282 141.865 60.7146 141.049 59.6934 140.021C58.6723 138.993 57.8635 137.774 57.3134 136.434C56.7633 135.094 56.4825 133.658 56.4872 132.21L56.8496 17.8539C56.8591 14.9342 58.0256 12.1372 60.0935 10.0759C62.1614 8.01466 64.962 6.85714 67.8818 6.85703ZM67.8818 5.87744C64.7045 5.88301 61.6584 7.14511 59.4082 9.38832C57.158 11.6315 55.8864 14.6737 55.871 17.851L55.5086 132.207C55.502 135.391 56.7589 138.448 59.0036 140.707C61.2483 142.967 64.2975 144.243 67.4821 144.257L114.077 144.403C117.261 144.406 120.315 143.147 122.574 140.904C124.832 138.66 126.109 135.613 126.127 132.43L126.49 18.0743C126.495 16.497 126.189 14.9341 125.59 13.4749C124.991 12.0156 124.111 10.6886 122.999 9.5697C121.887 8.45075 120.566 7.56175 119.111 6.95344C117.655 6.34513 116.095 6.02944 114.517 6.02438H114.516L67.92 5.87744H67.8818Z" fill="#292929"/>
<path d="M67.302 138.572C65.6832 138.567 64.1323 137.92 62.9905 136.773C61.8486 135.625 61.2092 134.071 61.2129 132.452L61.5763 18.0818C61.5853 16.4671 62.2326 14.9215 63.3768 13.7823C64.521 12.643 66.0694 12.0025 67.6841 12.0005L74.0338 12.0211C74.365 12.0224 74.6822 12.1551 74.9158 12.39C75.1494 12.6248 75.2803 12.9427 75.2798 13.274L75.2769 14.2526C75.2759 14.6099 75.3454 14.9639 75.4812 15.2943C75.617 15.6248 75.8166 15.9253 76.0686 16.1786C76.3206 16.432 76.62 16.6332 76.9497 16.7708C77.2795 16.9084 77.6331 16.9798 77.9904 16.9807H77.9914L103.962 17.063C104.684 17.0639 105.376 16.7792 105.888 16.2711C106.4 15.7629 106.69 15.0728 106.694 14.3515L106.697 13.3739C106.699 13.0432 106.831 12.7265 107.066 12.4932C107.3 12.2599 107.618 12.1289 107.948 12.1288L114.282 12.1494C115.901 12.1536 117.452 12.8007 118.594 13.9483C119.735 15.096 120.375 16.6501 120.37 18.2689L120.007 132.639C119.998 134.254 119.351 135.799 118.207 136.939C117.063 138.078 115.515 138.718 113.9 138.72L67.302 138.572Z" fill="white"/>
<path d="M67.8887 12.1488H67.9073L74.2384 12.1693C74.4725 12.1699 74.6968 12.2634 74.8619 12.4293C75.0271 12.5951 75.1196 12.8198 75.1191 13.0539L75.1161 14.0315C75.1142 14.8507 75.4376 15.637 76.0154 16.2177C76.5931 16.7984 77.3778 17.1258 78.1969 17.128L104.168 17.2103H104.178C104.995 17.2109 105.78 16.8872 106.359 16.3102C106.939 15.7332 107.265 14.9501 107.268 14.1324L107.271 13.1548C107.272 12.9211 107.365 12.6973 107.531 12.5326C107.697 12.3678 107.921 12.2755 108.155 12.2761H108.158L114.489 12.2967C115.242 12.2985 115.988 12.4487 116.683 12.7387C117.378 13.0287 118.009 13.4528 118.541 13.9867C119.072 14.5207 119.493 15.1541 119.78 15.8507C120.066 16.5474 120.213 17.2936 120.211 18.0469V18.0479L119.848 132.418C119.843 133.936 119.235 135.39 118.159 136.462C117.084 137.533 115.627 138.134 114.109 138.133H114.09L67.5096 137.985C65.9881 137.981 64.5305 137.373 63.4573 136.295C62.3841 135.216 61.7832 133.755 61.7868 132.234L62.1493 17.8637C62.1548 16.3455 62.7621 14.8914 63.8379 13.8201C64.9138 12.7488 66.3705 12.1478 67.8887 12.1488ZM67.8887 11.4141C66.1768 11.416 64.5351 12.0951 63.322 13.3031C62.1089 14.511 61.4228 16.1498 61.4136 17.8617L61.0512 132.232C61.0485 133.948 61.7267 135.594 62.9367 136.811C64.1468 138.027 65.79 138.714 67.5057 138.72L114.086 138.868C115.801 138.87 117.448 138.193 118.665 136.985C119.882 135.776 120.571 134.135 120.582 132.42L120.944 18.0498C120.949 16.3337 120.271 14.6861 119.061 13.4694C117.851 12.2527 116.207 11.5666 114.491 11.562H114.49L108.159 11.5414C107.73 11.541 107.319 11.7102 107.015 12.0122C106.71 12.3141 106.538 12.7242 106.536 13.1528L106.533 14.1305C106.529 14.7532 106.279 15.3492 105.838 15.7885C105.397 16.2278 104.799 16.4748 104.177 16.4756L78.1979 16.3933C77.5737 16.3911 76.9759 16.1414 76.5356 15.699C76.0952 15.2567 75.8482 14.6577 75.8489 14.0335L75.8518 13.0559C75.8525 12.6271 75.6831 12.2156 75.3809 11.9115C75.0786 11.6074 74.6681 11.4356 74.2394 11.4337L67.9083 11.4131L67.8887 11.4141Z" fill="#292929"/>
<path d="M120.211 18.0481L120.169 31.0404L62.1071 30.8562L62.1482 17.8639C62.1511 17.1105 62.3023 16.3651 62.5933 15.6701C62.8843 14.9752 63.3093 14.3444 63.8441 13.8137C64.3789 13.283 65.0129 12.8629 65.7101 12.5772C66.4072 12.2916 67.1538 12.1461 67.9072 12.149L74.2383 12.1686C74.4724 12.1691 74.6967 12.2626 74.8618 12.4285C75.027 12.5944 75.1195 12.8191 75.119 13.0531L75.116 14.0308C75.1149 14.4364 75.1937 14.8383 75.3479 15.2135C75.5022 15.5886 75.7288 15.9297 76.0149 16.2173C76.301 16.5049 76.641 16.7332 77.0153 16.8894C77.3897 17.0455 77.7912 17.1263 78.1968 17.1273H78.1978L104.169 17.2095C104.574 17.2111 104.976 17.1328 105.352 16.979C105.727 16.8252 106.068 16.599 106.356 16.3133C106.644 16.0275 106.873 15.6879 107.03 15.3137C107.186 14.9396 107.268 14.5383 107.269 14.1326L107.272 13.155C107.273 13.0391 107.296 12.9244 107.341 12.8175C107.385 12.7106 107.451 12.6135 107.533 12.5319C107.616 12.4503 107.713 12.3857 107.821 12.3419C107.928 12.298 108.043 12.2757 108.159 12.2763L114.49 12.2959C116.011 12.3005 117.468 12.9089 118.541 13.9876C119.614 15.0663 120.214 16.5268 120.211 18.0481Z" fill="#C2D3E6"/>
<path d="M119.879 122.781L119.848 132.418C119.842 133.939 119.232 135.396 118.153 136.468C117.073 137.54 115.611 138.139 114.09 138.133L67.5095 137.986C65.988 137.982 64.5304 137.374 63.4572 136.296C62.384 135.217 61.7831 133.756 61.7868 132.235L61.8171 122.598L119.879 122.781Z" fill="#C2D3E6"/>
<path d="M131.393 91.9638C129.318 92.1314 127.613 93.6086 126.809 94.2208C125.83 94.9389 124.616 94.0269 123.536 92.3263C122.644 90.9333 120.048 86.7554 118.478 83.9714C118.519 83.6912 118.574 83.4101 118.628 83.1299C118.926 81.6605 119.711 78.9235 121.611 78.8226C124.314 78.6845 125.744 83.7 126.836 85.5211C128.209 87.7679 129.732 89.9203 131.393 91.9638Z" fill="#EBC5C4" stroke="#D1D1D1" stroke-width="0.75" stroke-miterlimit="10"/>
<path d="M66.6191 81.6556V81.6693C65.3838 82.8948 64.0153 84.2534 63.3708 84.8794C62.0427 86.3968 60.2609 87.4456 58.2896 87.8701C57.6372 87.9305 56.9797 87.8377 56.3695 87.5991C55.7593 87.3605 55.2132 86.9827 54.7748 86.4957C54.614 86.3682 54.4624 86.2294 54.3213 86.0804C57.0857 83.3894 59.6904 80.8317 61.4488 79.1135V79.0998C62.0797 78.4866 62.6165 77.9674 62.9926 77.5942C63.2038 77.3912 63.4863 77.2793 63.7791 77.2828C64.072 77.2863 64.3518 77.4048 64.558 77.6128C65.6417 78.7184 66.3609 80.1292 66.6191 81.6556Z" fill="#EBC5C4" stroke="#D1D1D1" stroke-width="0.75" stroke-miterlimit="10"/>
<path d="M61.2433 79.3194V79.3331C59.4849 81.0513 56.8812 83.609 54.1158 86.2999C50.3708 89.9764 46.33 93.9192 43.7262 96.4368L41.8474 93.8918C41.8474 93.8918 38.0338 89.6031 41.0422 86.2451C42.4391 84.6856 46.5475 80.3685 50.5481 76.172L50.5618 76.1857C50.5618 76.1857 53.5623 79.4555 56.7548 76.8332C58.8812 74.9019 60.8152 72.7688 62.5295 70.4639C62.9909 72.4162 62.8616 75.2619 61.2433 79.3194Z" fill="white" stroke="#D1D1D1" stroke-width="0.75" stroke-miterlimit="10"/>
<path d="M62.735 70.2435C61.021 72.5486 59.087 74.6818 56.9604 76.6128C53.7679 79.2352 50.7674 75.9653 50.7674 75.9653L50.7537 75.9516C54.5261 72.0215 58.2182 68.1834 59.521 66.8385C59.6722 66.6844 59.8756 66.5924 60.0912 66.5808C60.3068 66.5692 60.5189 66.6388 60.6857 66.7758C61.7516 67.6579 62.4764 68.8843 62.735 70.2435Z" fill="#EBC5C4" stroke="#D1D1D1" stroke-width="0.75" stroke-miterlimit="10"/>
<path d="M66.199 86.3243C65.3173 90.0496 64.5209 92.0392 63.3111 93.7594C62.1185 95.294 60.8028 96.729 59.3771 98.05C57.0143 100.394 49.7124 107.641 44.1817 113.117C42.984 111.544 41.8854 109.898 40.8922 108.189C38.9879 105.27 37.6194 102.258 41.8336 98.2625C42.3165 97.81 42.9611 97.184 43.7262 96.4376C46.3299 93.92 50.3707 89.9772 54.1157 86.3007C54.2569 86.4498 54.4084 86.5886 54.5693 86.7161C55.0077 87.203 55.5538 87.5808 56.1639 87.8194C56.7741 88.058 57.4316 88.1508 58.084 88.0905C60.0551 87.6655 61.8369 86.6168 63.1652 85.0998C63.8097 84.4738 65.1782 83.1151 66.4135 81.8896C66.6469 83.3669 66.5739 84.8764 66.199 86.3243Z" fill="white" stroke="#D1D1D1" stroke-width="0.75" stroke-miterlimit="10"/>
<path d="M67.5605 97.0678C65.3721 99.3728 62.0964 102.73 60.9434 103.288C59.4015 104.045 57.3826 103.664 55.3264 102.054L59.5818 97.8309C61.0075 96.5099 62.3231 95.075 63.5158 93.5403C65.8864 93.4012 67.2627 93.9801 67.5605 97.0678Z" fill="#EBC5C4" stroke="#D1D1D1" stroke-width="0.75" stroke-miterlimit="10"/>
<path d="M67.4039 98.6772C67.3922 100.692 67.0883 102.694 66.5016 104.621C65.3653 108.48 62.9144 113.283 57.9302 119.522L47.2948 131.396C44.6959 127.992 42.87 125.608 42.2979 124.818C39.2073 120.571 39.7911 117.726 40.6375 116.66C40.6877 116.6 40.7413 116.542 40.7981 116.487L40.9862 116.301L41.9795 115.316C42.4488 114.849 42.9464 114.357 43.349 113.957L43.5772 113.731L44.1817 113.131V113.117C47.6856 109.653 51.8999 105.471 55.1217 102.273C57.1779 103.884 59.1968 104.264 60.7387 103.508C61.8907 102.95 65.1665 99.5921 67.3559 97.2871C67.3803 97.7015 67.4058 98.1697 67.4039 98.6772Z" fill="white" stroke="#D1D1D1" stroke-width="0.75" stroke-miterlimit="10"/>
<path d="M75.9928 24.4478L106.378 24.5438C106.89 24.5454 107.381 24.7505 107.743 25.1141C108.104 25.4776 108.306 25.9698 108.305 26.4824C108.303 26.995 108.098 27.4859 107.734 27.8472C107.371 28.2086 106.879 28.4107 106.366 28.4092L75.9811 28.3132C75.4685 28.3116 74.9775 28.1065 74.6162 27.7429C74.2549 27.3794 74.0527 26.8872 74.0542 26.3746C74.0558 25.862 74.261 25.3711 74.6245 25.0097C74.9881 24.6484 75.4802 24.4463 75.9928 24.4478Z" fill="#97B3D5"/>
<path d="M111.677 147.182C112.958 143.912 122.294 111.346 123.209 109.718C124.124 108.077 124.37 106.568 123.103 104.92L123.023 104.8C121.664 102.965 118.032 96.2311 117.928 91.0716C117.842 88.7721 117.957 86.4695 118.271 84.1899C119.841 86.9749 122.437 91.1529 123.33 92.5449C124.408 94.2455 125.623 95.1584 126.603 94.4394C127.407 93.8272 129.111 92.349 131.186 92.1824C131.906 93.0797 132.639 93.964 133.386 94.8352C135.692 97.5682 138.146 100.169 140.493 102.849C143.64 106.44 143.506 110.503 143.121 117.972C142.723 125.428 140.421 163.655 140.421 163.655L154.756 182.931C154.925 183.158 155.027 183.427 155.051 183.709C155.075 183.99 155.02 184.273 154.893 184.526C154.765 184.778 154.57 184.99 154.329 185.137C154.088 185.285 153.81 185.362 153.528 185.361L98.3051 185.187C95.337 185.179 92.41 184.493 89.7472 183.182C87.0844 181.871 84.7562 179.969 82.9402 177.621C77.6053 170.722 69.3993 160.104 61.7408 150.177" fill="white"/>
<path d="M111.677 147.182C112.958 143.912 122.294 111.346 123.209 109.718C124.124 108.077 124.37 106.568 123.103 104.92L123.023 104.8C121.664 102.965 118.032 96.2311 117.928 91.0716C117.842 88.7721 117.957 86.4695 118.271 84.1899C119.841 86.9749 122.437 91.1529 123.33 92.5449C124.408 94.2455 125.623 95.1584 126.603 94.4394C127.407 93.8272 129.111 92.349 131.186 92.1824C131.906 93.0797 132.639 93.964 133.386 94.8352C135.692 97.5682 138.146 100.169 140.493 102.849C143.64 106.44 143.506 110.503 143.121 117.972C142.723 125.428 140.421 163.655 140.421 163.655L154.756 182.931C154.925 183.158 155.027 183.427 155.051 183.709C155.075 183.99 155.02 184.273 154.893 184.526C154.765 184.778 154.57 184.99 154.329 185.137C154.088 185.285 153.81 185.362 153.528 185.361L98.3051 185.187C95.337 185.179 92.41 184.493 89.7472 183.182C87.0844 181.871 84.7562 179.969 82.9402 177.621C77.6053 170.722 69.3993 160.104 61.7408 150.177" stroke="#D1D1D1" stroke-width="0.75" stroke-miterlimit="10"/>
</svg>
