<svg width="192" height="192" viewBox="0 0 192 192" fill="none" xmlns="http://www.w3.org/2000/svg">
<path d="M121.842 112.404H14.2041C13.3044 112.405 12.4134 112.228 11.5819 111.885C10.7504 111.541 9.99468 111.037 9.35793 110.402C8.72119 109.766 8.21586 109.011 7.87081 108.181C7.52577 107.35 7.34775 106.459 7.34692 105.559V22.9964C7.34775 22.0968 7.52576 21.2061 7.87081 20.3752C8.21586 19.5443 8.72118 18.7896 9.35793 18.154C9.99467 17.5184 10.7504 17.0145 11.5819 16.6709C12.4134 16.3274 13.3044 16.151 14.2041 16.1519H43.7937L58.3489 26.9076H121.842C123.659 26.906 125.402 27.6262 126.688 28.9098C127.974 30.1934 128.697 31.9353 128.699 33.7522V105.559C128.697 107.376 127.974 109.118 126.688 110.402C125.402 111.685 123.659 112.406 121.842 112.404Z" fill="#E6E6E6"/>
<path d="M130.658 106.537H23.0202C22.1206 106.538 21.2295 106.362 20.398 106.018C19.5665 105.675 18.8108 105.171 18.1741 104.535C17.5374 103.9 17.032 103.145 16.687 102.314C16.3419 101.483 16.1639 100.592 16.1631 99.6927V17.1297C16.1639 16.2301 16.3419 15.3394 16.687 14.5085C17.032 13.6776 17.5373 12.9229 18.1741 12.2873C18.8108 11.6517 19.5665 11.1478 20.398 10.8042C21.2295 10.4607 22.1206 10.2843 23.0202 10.2852H52.6099L67.1651 21.0409H130.658C131.558 21.0401 132.449 21.2165 133.28 21.56C134.112 21.9035 134.867 22.4075 135.504 23.0431C136.141 23.6786 136.646 24.4334 136.991 25.2643C137.336 26.0951 137.514 26.9858 137.515 27.8855V99.6927C137.514 100.592 137.336 101.483 136.991 102.314C136.646 103.145 136.141 103.9 135.504 104.535C134.867 105.171 134.112 105.675 133.28 106.018C132.449 106.362 131.558 106.538 130.658 106.537Z" fill="#E9CA8F"/>
<path d="M130.658 107.025H23.0201C21.074 107.025 19.2075 106.253 17.8302 104.878C16.4529 103.503 15.6771 101.638 15.6732 99.692V17.1294C15.6771 15.1833 16.4529 13.3182 17.8302 11.9434C19.2075 10.5686 21.074 9.79625 23.0201 9.7959H52.7717L67.3267 20.5516H130.658C132.604 20.552 134.471 21.3243 135.848 22.6991C137.226 24.074 138.001 25.939 138.005 27.8851V99.6921C138.001 101.638 137.225 103.503 135.848 104.878C134.471 106.253 132.604 107.025 130.658 107.025ZM23.0201 10.7737C21.3335 10.7741 19.716 11.4435 18.5223 12.635C17.3286 13.8265 16.6563 15.4428 16.6528 17.1294V99.6921C16.6563 101.379 17.3286 102.995 18.5223 104.186C19.716 105.378 21.3335 106.047 23.0201 106.048H130.658C132.345 106.047 133.962 105.378 135.156 104.186C136.35 102.995 137.022 101.379 137.026 99.6921V27.8851C137.022 26.1985 136.35 24.5822 135.156 23.3907C133.962 22.1992 132.345 21.5298 130.658 21.5294H67.0034L52.4483 10.7737H23.0201Z" fill="#A58346"/>
<path d="M143.119 129.397L132.729 139.769L120.802 127.863L131.192 117.492L143.119 129.397Z" fill="#B1B1B1"/>
<path d="M132.729 140.46L120.109 127.863L131.192 116.801L143.812 129.398L132.729 140.46ZM121.494 127.863L132.729 139.077L142.427 129.398L131.192 118.183L121.494 127.863Z" fill="#666666"/>
<path d="M96.6093 137.344C122.578 137.344 143.629 116.331 143.629 90.4103C143.629 64.4892 122.578 43.4761 96.6093 43.4761C70.6408 43.4761 49.5892 64.4892 49.5892 90.4103C49.5892 116.331 70.6408 137.344 96.6093 137.344Z" fill="#D1D1D1"/>
<path d="M96.6095 137.834C87.2338 137.816 78.0735 135.021 70.2862 129.799C62.4989 124.578 56.4341 117.165 52.858 108.498C49.282 99.8315 48.3552 90.2991 50.1948 81.1056C52.0344 71.9121 56.5579 63.4702 63.1936 56.8466C69.8293 50.223 78.2794 45.715 87.4762 43.8922C96.6731 42.0694 106.204 43.0136 114.864 46.6055C123.525 50.1974 130.926 56.2758 136.133 64.0726C141.34 71.8694 144.119 81.0348 144.119 90.4105C144.094 102.995 139.077 115.056 130.17 123.946C121.264 132.836 109.194 137.831 96.6095 137.834ZM96.6095 43.9652C87.4271 43.982 78.4557 46.7202 70.829 51.8339C63.2022 56.9476 57.2624 64.2072 53.7601 72.6955C50.2578 81.1837 49.3501 90.5197 51.1518 99.5236C52.9535 108.528 57.3837 116.795 63.8826 123.282C70.3814 129.769 78.6574 134.184 87.6646 135.97C96.6718 137.755 106.006 136.83 114.488 133.312C122.97 129.794 130.218 123.841 135.318 116.205C140.418 108.569 143.14 99.5929 143.14 90.4105C143.115 78.0855 138.201 66.2738 129.478 57.5666C120.755 48.8595 108.935 43.9679 96.6095 43.9652V43.9652Z" fill="#8C8C8C"/>
<path d="M96.6093 132.456C119.873 132.456 138.731 113.631 138.731 90.4105C138.731 67.1895 119.873 48.3652 96.6093 48.3652C73.3459 48.3652 54.4872 67.1895 54.4872 90.4105C54.4872 113.631 73.3459 132.456 96.6093 132.456Z" fill="white"/>
<path d="M96.6095 132.945C88.2004 132.929 79.9845 130.422 73 125.739C66.0155 121.056 60.5759 114.407 57.3685 106.634C54.1611 98.8605 53.3299 90.3107 54.9799 82.065C56.6299 73.8193 60.687 66.2477 66.6386 60.307C72.5902 54.3662 80.1692 50.323 88.4179 48.6881C96.6666 47.0532 105.215 47.9001 112.982 51.1216C120.75 54.3432 127.388 59.795 132.059 66.788C136.729 73.781 139.221 82.0015 139.221 90.4107C139.198 101.698 134.699 112.515 126.711 120.489C118.722 128.463 107.897 132.942 96.6095 132.945ZM96.6095 48.8543C88.3937 48.8694 80.3667 51.3194 73.5428 55.8948C66.7188 60.4702 61.4043 66.9656 58.2706 74.5604C55.137 82.1551 54.3248 90.5083 55.9369 98.5645C57.5489 106.621 61.5128 114.018 67.3275 119.822C73.1423 125.626 80.5471 129.577 88.6062 131.174C96.6653 132.771 105.017 131.944 112.606 128.797C120.195 125.649 126.681 120.323 131.244 113.49C135.807 106.658 138.242 98.6265 138.242 90.4107C138.219 79.383 133.823 68.8146 126.019 61.0239C118.214 53.2333 107.637 48.8567 96.6095 48.8543Z" fill="#8C8C8C"/>
<path d="M101.794 91.6328L116.85 76.6043C117.11 76.3444 117.317 76.0358 117.458 75.696C117.599 75.3563 117.671 74.9921 117.671 74.6243C117.671 74.2564 117.599 73.8922 117.458 73.5525C117.317 73.2127 117.11 72.9041 116.85 72.6442C116.59 72.3844 116.281 72.1784 115.941 72.0381C115.601 71.8979 115.236 71.826 114.868 71.8267C114.501 71.8273 114.136 71.9005 113.797 72.0421C113.458 72.1836 113.149 72.3907 112.89 72.6515L97.8337 87.6801L82.7776 72.6514C82.5181 72.3914 82.2099 72.1851 81.8706 72.0442C81.5313 71.9033 81.1675 71.8306 80.8002 71.8302C80.4328 71.8299 80.0689 71.9019 79.7294 72.0422C79.3898 72.1825 79.0812 72.3883 78.8212 72.6478C78.5612 72.9074 78.3548 73.2156 78.2139 73.5549C78.073 73.8942 78.0003 74.2579 78 74.6253C77.9997 74.9927 78.0717 75.3566 78.212 75.6961C78.3523 76.0357 78.5581 76.3442 78.8176 76.6043L93.8737 91.6328L78.8176 106.661C78.295 107.187 78.0023 107.898 78.0036 108.639C78.005 109.38 78.3003 110.091 78.8248 110.614C79.3493 111.138 80.0601 111.432 80.8012 111.432C81.5423 111.432 82.2531 111.138 82.7776 110.614L97.8337 95.5856L112.89 110.614C113.149 110.875 113.457 111.082 113.797 111.224C114.136 111.365 114.501 111.438 114.868 111.439C115.236 111.44 115.601 111.368 115.941 111.228C116.281 111.087 116.59 110.881 116.85 110.621C117.11 110.362 117.317 110.053 117.458 109.713C117.599 109.374 117.671 109.009 117.671 108.641C117.671 108.274 117.599 107.909 117.458 107.57C117.317 107.23 117.11 106.921 116.85 106.661L101.794 91.6328Z" fill="#DB9D99"/>
<path d="M180.583 178.142C178.284 180.434 175.171 181.721 171.924 181.721C168.678 181.721 165.564 180.434 163.266 178.142L128.286 143.226L145.603 125.94L180.583 160.856C181.72 161.99 182.622 163.337 183.237 164.82C183.852 166.303 184.169 167.893 184.169 169.499C184.169 171.105 183.852 172.695 183.237 174.178C182.622 175.661 181.72 177.008 180.583 178.142Z" fill="#666666"/>
<path d="M171.925 182.204C170.253 182.208 168.597 181.881 167.052 181.243C165.507 180.606 164.103 179.669 162.92 178.488L127.594 143.226L145.603 125.25L180.929 160.511C182.11 161.692 183.046 163.093 183.685 164.635C184.324 166.177 184.653 167.83 184.653 169.5C184.653 171.169 184.324 172.822 183.685 174.364C183.046 175.906 182.11 177.308 180.929 178.488C179.747 179.669 178.342 180.605 176.797 181.243C175.252 181.881 173.596 182.207 171.925 182.204ZM128.979 143.226L163.613 177.796C165.813 180.001 168.799 181.241 171.914 181.244C175.029 181.247 178.017 180.012 180.222 177.812C182.426 175.611 183.666 172.625 183.669 169.51C183.672 166.395 182.437 163.407 180.237 161.203L145.603 126.632L128.979 143.226Z" fill="#292929"/>
<path d="M45.8086 91.9757L39.6166 85.7954L45.7812 79.6426L43.4223 77.2877L37.2577 83.4405L31.0657 77.2603L28.7157 79.6064L34.9077 85.7866L28.7431 91.9394L31.103 94.2934L37.2666 88.1406L43.4586 94.3218L45.8086 91.9757Z" fill="#DB9D99"/>
<path d="M31.0663 77.2603L37.2579 83.4407L43.4221 77.2877L45.781 79.6423L39.6168 85.7952L45.8087 91.9758L43.4586 94.3215L37.2668 88.141L31.1026 94.294L28.7436 91.9393L34.9078 85.7863L28.7163 79.606L31.0663 77.2603M31.0663 76.2231L30.5468 76.7418L28.1968 79.0874L27.6772 79.606L28.1968 80.1245L33.8688 85.7863L28.2241 91.4208L27.7046 91.9393L28.2241 92.4578L30.5831 94.8125L31.1026 95.3312L31.6221 94.8125L37.2668 89.178L42.9391 94.84L43.4586 95.3585L43.9781 94.84L46.3282 92.4943L46.8477 91.9758L46.3282 91.4573L40.6558 85.7951L46.3006 80.1607L46.8201 79.6423L46.3006 79.1238L43.9416 76.7691L43.4221 76.2505L42.9026 76.7691L37.2579 82.4036L31.5858 76.7418L31.0663 76.2232V76.2231Z" fill="#944A45"/>
</svg>
