<svg width="192" height="192" viewBox="0 0 192 192" fill="none" xmlns="http://www.w3.org/2000/svg">
<path d="M134.694 171.32V172.457C134.698 173.967 134.104 175.417 133.04 176.489C131.977 177.562 130.532 178.169 129.022 178.178H30.4065C28.8964 178.169 27.4514 177.562 26.3882 176.489C25.325 175.417 24.7303 173.967 24.7347 172.457V38.5563C24.7287 37.0457 25.3228 35.5945 26.3863 34.5217C27.4499 33.449 28.8959 32.8424 30.4065 32.8354H33.0612V164.62C33.0576 166.39 33.7557 168.089 35.0025 169.344C36.2492 170.6 37.943 171.311 39.7126 171.32L134.694 171.32Z" fill="#E6E6E6"/>
<path d="M49.0873 20.855V25.9782H39.7126C39.0102 25.9773 38.3122 26.0898 37.6456 26.3113C37.6622 24.9011 38.2171 23.5506 39.1969 22.5363C40.1766 21.5219 41.5071 20.9205 42.9158 20.855L49.0873 20.855Z" fill="#A58346"/>
<path d="M140.297 26.2819C139.66 26.0812 138.996 25.9788 138.328 25.9782H128.855V20.855H135.027C136.431 20.9187 137.758 21.5156 138.737 22.524C139.717 23.5324 140.275 24.8764 140.297 26.2819Z" fill="#A58346"/>
<path d="M120.803 20.855H57.1395V25.9782H120.803V20.855Z" fill="#A58346"/>
<path d="M141.277 26.6837V26.576C141.335 24.8592 140.709 23.1895 139.537 21.9334C138.366 20.6772 136.744 19.9372 135.027 19.8755H128.856V16.8976C128.855 15.9234 128.468 14.9893 127.779 14.3004C127.09 13.6116 126.156 13.2245 125.182 13.2241H124.477C123.503 13.2245 122.568 13.6116 121.88 14.3004C121.191 14.9893 120.804 15.9234 120.803 16.8976V19.8755H57.1396V16.8976C57.1392 15.9234 56.7521 14.9893 56.0633 14.3004C55.3744 13.6116 54.4403 13.2245 53.4661 13.2241H52.7608C51.7867 13.2245 50.8525 13.6116 50.1637 14.3004C49.4748 14.9893 49.0877 15.9234 49.0874 16.8976V19.8755H42.9159C41.1993 19.9372 39.5771 20.6772 38.4055 21.9334C37.2338 23.1895 36.6083 24.8592 36.6661 26.576V26.7327C36.3246 26.899 36.0027 27.1027 35.7061 27.34C34.8804 27.9629 34.2113 28.7697 33.7521 29.6966C33.293 30.6234 33.0564 31.6445 33.0612 32.6788V164.62C33.0577 166.39 33.7558 168.089 35.0025 169.345C36.2493 170.6 37.943 171.311 39.7127 171.32H138.328C140.098 171.311 141.792 170.6 143.038 169.345C144.285 168.089 144.983 166.39 144.98 164.62V32.6788C144.983 31.4335 144.639 30.212 143.984 29.1525C143.33 28.093 142.392 27.2378 141.277 26.6837ZM128.856 20.8552H135.027C136.431 20.919 137.758 21.516 138.737 22.5244C139.717 23.5328 140.274 24.8767 140.297 26.2821C139.66 26.0836 138.996 25.9812 138.328 25.9785H128.855L128.856 20.8552ZM121.538 31.7385V16.8976C121.544 16.12 121.855 15.3757 122.405 14.8258C122.955 14.2759 123.699 13.9645 124.477 13.9589H125.182C125.567 13.9583 125.949 14.0338 126.305 14.1808C126.662 14.3278 126.986 14.5435 127.258 14.8157C127.531 15.0879 127.748 15.4111 127.896 15.767C128.044 16.1229 128.12 16.5044 128.121 16.8898V34.6968C128.119 35.4755 127.808 36.2217 127.258 36.7723C126.707 37.323 125.961 37.6333 125.182 37.6356H124.477C123.699 37.63 122.955 37.3186 122.405 36.7687C121.855 36.2187 121.544 35.4745 121.538 34.6968V31.758C121.528 31.758 121.528 31.7483 121.528 31.7385H121.538ZM124.477 38.3703H125.182C126.156 38.3699 127.09 37.9828 127.779 37.294C128.468 36.6051 128.855 35.671 128.856 34.6968V33.0903C129.578 33.6884 130.159 34.4383 130.559 35.2865C130.958 36.1347 131.166 37.0604 131.167 37.998V38.0078C131.165 39.0769 130.893 40.128 130.376 41.0637C129.859 41.9994 129.114 42.7892 128.209 43.3597C127.305 43.9302 126.272 44.2629 125.205 44.327C124.137 44.3911 123.071 44.1843 122.106 43.7261C121.14 43.2678 120.305 42.5728 119.68 41.7057C119.055 40.8386 118.659 39.8275 118.529 38.7664C118.399 37.7053 118.539 36.6285 118.937 35.6361C119.334 34.6438 119.977 33.768 120.803 33.0903V34.6968C120.807 35.6699 121.195 36.6022 121.883 37.2903C122.571 37.9784 123.504 38.3666 124.477 38.3703ZM57.1396 20.8552H120.803V25.9785H57.1396V20.8552ZM49.822 31.7287V16.8976C49.8243 16.1189 50.1347 15.3728 50.6853 14.8221C51.236 14.2715 51.9821 13.9612 52.7608 13.9589H53.4661C54.2438 13.9645 54.988 14.2759 55.5379 14.8258C56.0879 15.3757 56.3993 16.12 56.4049 16.8976V31.7385H56.4147C56.4147 31.7483 56.4147 31.758 56.4049 31.758V34.6968C56.3993 35.4745 56.0879 36.2187 55.538 36.7686C54.988 37.3186 54.2438 37.63 53.4661 37.6356H52.7608C51.9831 37.63 51.2389 37.3186 50.689 36.7686C50.1391 36.2187 49.8277 35.4745 49.822 34.6968V31.758C49.8123 31.758 49.8122 31.7483 49.8122 31.7385C49.8122 31.7287 49.8123 31.7287 49.822 31.7287ZM52.7608 38.3703H53.4661C54.4393 38.3666 55.3715 37.9784 56.0596 37.2903C56.7477 36.6022 57.1359 35.67 57.1396 34.6968V33.1001C57.8622 33.6956 58.4441 34.4435 58.8438 35.2903C59.2435 36.137 59.451 37.0617 59.4514 37.998V38.0078C59.4511 39.0786 59.1799 40.1318 58.6631 41.0696C58.1463 42.0074 57.4007 42.7992 56.4956 43.3714C55.5905 43.9436 54.5554 44.2775 53.4866 44.3421C52.4178 44.4067 51.35 44.1998 50.3826 43.7408C49.4152 43.2818 48.5796 42.5856 47.9536 41.7168C47.3277 40.8481 46.9316 39.8351 46.8023 38.7722C46.6731 37.7093 46.8148 36.6309 47.2143 35.6375C47.6138 34.644 48.2582 33.7678 49.0874 33.0903V34.6968C49.0877 35.671 49.4748 36.6051 50.1637 37.294C50.8525 37.9828 51.7867 38.3699 52.7608 38.3703ZM42.9159 20.8552H49.0874V25.9785H39.7127C39.0101 25.9759 38.3119 26.0884 37.6457 26.3115C37.6606 24.9008 38.215 23.5494 39.1951 22.5347C40.1752 21.52 41.5066 20.919 42.9159 20.8552ZM144 164.62C144.004 166.13 143.41 167.58 142.346 168.653C141.283 169.725 139.838 170.332 138.328 170.341H39.7127C38.2026 170.332 36.7575 169.725 35.6943 168.653C34.6311 167.58 34.0365 166.13 34.0408 164.62V50.3311H144V164.62ZM144 49.5964H34.0408V32.6788C34.0356 31.7191 34.2737 30.7737 34.7327 29.9309C35.1918 29.0881 35.857 28.3753 36.6661 27.8592C36.8217 27.7547 36.9855 27.6629 37.1559 27.5849C37.3125 27.496 37.4763 27.4206 37.6457 27.3596C37.6636 27.3488 37.6837 27.3421 37.7045 27.34C38.3436 27.0864 39.0251 26.9568 39.7127 26.958H49.0874V32.1792C48.0849 32.8715 47.2782 33.8108 46.7452 34.9063C46.2122 36.0018 45.971 37.2163 46.045 38.4323C46.119 39.6483 46.5056 40.8246 47.1675 41.8474C47.8293 42.8702 48.744 43.7048 49.8229 44.2705C50.9019 44.8361 52.1086 45.1137 53.3263 45.0763C54.544 45.0389 55.7314 44.6878 56.7736 44.057C57.8158 43.4262 58.6775 42.537 59.2754 41.4755C59.8732 40.4141 60.1869 39.2162 60.1861 37.998V37.9882C60.1865 36.8456 59.9095 35.7201 59.3788 34.7082C58.8481 33.6964 58.0797 32.8285 57.1396 32.1792V26.958H120.803V32.1792C119.801 32.8715 118.994 33.8108 118.461 34.9063C117.928 36.0018 117.687 37.2163 117.761 38.4323C117.835 39.6483 118.222 40.8246 118.883 41.8474C119.545 42.8702 120.46 43.7048 121.539 44.2705C122.618 44.8361 123.825 45.1137 125.042 45.0763C126.26 45.0389 127.447 44.6878 128.49 44.057C129.532 43.4262 130.393 42.537 130.991 41.4755C131.589 40.4141 131.903 39.2162 131.902 37.998V37.9882C131.904 36.8454 131.627 35.7195 131.096 34.7074C130.565 33.6954 129.796 32.8277 128.856 32.1792V26.958H138.328C139.001 26.9549 139.669 27.0779 140.297 27.3204C140.466 27.378 140.63 27.4501 140.787 27.5359C140.955 27.6144 141.119 27.7027 141.277 27.8004C142.113 28.3097 142.803 29.0265 143.28 29.8814C143.757 30.7362 144.005 31.6998 144 32.6788V49.5964Z" fill="#D1D1D1"/>
<path d="M34.0408 50.3311V164.62C34.0365 166.13 34.6311 167.58 35.6943 168.653C36.7575 169.725 38.2026 170.332 39.7126 170.341H138.328C139.838 170.332 141.283 169.725 142.346 168.653C143.41 167.58 144.004 166.13 144 164.62V50.3311H34.0408ZM61.773 99.6731H114.367V101.378H61.773V99.6731ZM114.367 120.822H61.773V119.118H114.367V120.822ZM119.765 111.105H56.3755V109.391H119.765V111.105Z" fill="white"/>
<path d="M144 32.6788V49.5964H34.0408V32.6788C34.0367 31.7193 34.2752 30.7743 34.7342 29.9317C35.1932 29.0891 35.8577 28.3762 36.6661 27.8592C36.8227 27.7563 36.9863 27.6646 37.1559 27.585C37.3125 27.496 37.4763 27.4206 37.6457 27.3596C37.6636 27.3488 37.6837 27.3421 37.7045 27.3401C38.3442 27.0884 39.0253 26.9589 39.7127 26.958H49.0874V32.1792C48.0848 32.8715 47.2779 33.8109 46.7448 34.9064C46.2118 36.0019 45.9705 37.2165 46.0444 38.4326C46.1184 39.6487 46.505 40.8251 47.1669 41.848C47.8288 42.8709 48.7435 43.7055 49.8225 44.2713C50.9016 44.837 52.1084 45.1145 53.3262 45.0771C54.5439 45.0397 55.7314 44.6885 56.7737 44.0576C57.8159 43.4267 58.6777 42.5375 59.2755 41.4759C59.8733 40.4143 60.187 39.2164 60.1861 37.998V37.9882C60.1853 36.8459 59.9077 35.7208 59.3771 34.7091C58.8466 33.6975 58.0788 32.8294 57.1396 32.1792V26.958H120.803V32.1792C119.801 32.8715 118.994 33.8109 118.461 34.9064C117.928 36.0019 117.686 37.2165 117.76 38.4326C117.834 39.6487 118.221 40.8251 118.883 41.848C119.545 42.8709 120.459 43.7055 121.538 44.2713C122.618 44.837 123.824 45.1145 125.042 45.0771C126.26 45.0397 127.447 44.6885 128.49 44.0576C129.532 43.4267 130.394 42.5375 130.991 41.4759C131.589 40.4143 131.903 39.2164 131.902 37.998V37.9882C131.903 36.8455 131.627 35.7196 131.096 34.7076C130.565 33.6956 129.796 32.8279 128.856 32.1792V26.958H138.328C139.001 26.9571 139.669 27.08 140.297 27.3205C140.466 27.3781 140.63 27.4502 140.787 27.536C140.957 27.6106 141.121 27.699 141.277 27.8005C142.113 28.3094 142.803 29.0262 143.281 29.8811C143.758 30.7359 144.006 31.6998 144 32.6788Z" fill="#CCA761"/>
<path d="M59.4514 37.9981V38.0078C59.451 39.0786 59.1799 40.1319 58.6631 41.0697C58.1463 42.0075 57.4006 42.7993 56.4955 43.3715C55.5905 43.9436 54.5553 44.2775 53.4865 44.3421C52.4177 44.4067 51.3499 44.1999 50.3825 43.7409C49.4151 43.2819 48.5796 42.5856 47.9536 41.7169C47.3276 40.8481 46.9316 39.8352 46.8023 38.7722C46.673 37.7093 46.8147 36.6309 47.2143 35.6375C47.6138 34.6441 48.2581 33.7678 49.0873 33.0903V34.6969C49.0893 35.6705 49.477 36.6037 50.1655 37.2922C50.8539 37.9806 51.7871 38.3683 52.7608 38.3703H53.4661C54.4392 38.3666 55.3714 37.9784 56.0595 37.2903C56.7476 36.6022 57.1358 35.67 57.1395 34.6969V33.1001C57.8617 33.696 58.4434 34.444 58.8431 35.2906C59.2427 36.1373 59.4504 37.0618 59.4514 37.9981Z" fill="#424242"/>
<path d="M131.167 37.9981V38.0078C131.165 39.0769 130.893 40.1281 130.376 41.0638C129.859 41.9994 129.113 42.7892 128.209 43.3597C127.305 43.9302 126.272 44.263 125.204 44.327C124.137 44.3911 123.071 44.1844 122.105 43.7261C121.14 43.2678 120.305 42.5729 119.68 41.7058C119.055 40.8387 118.659 39.8276 118.529 38.7664C118.399 37.7053 118.539 36.6285 118.937 35.6362C119.334 34.6438 119.976 33.7681 120.803 33.0903V34.6969C120.807 35.67 121.195 36.6022 121.883 37.2903C122.571 37.9784 123.504 38.3666 124.477 38.3703H125.182C126.156 38.3683 127.089 37.9806 127.777 37.2922C128.466 36.6037 128.853 35.6705 128.855 34.6969V33.0903C129.578 33.6882 130.16 34.4379 130.559 35.2862C130.959 36.1345 131.166 37.0604 131.167 37.9981Z" fill="#424242"/>
<path d="M56.4049 16.8978V31.7582C56.3557 31.8646 56.2966 31.9663 56.2286 32.0618C56.168 32.1676 56.0957 32.2662 56.013 32.3557C55.7069 32.7363 55.319 33.0432 54.8781 33.2534C54.4372 33.4637 53.9546 33.572 53.4661 33.5704H52.7608C52.2711 33.571 51.7874 33.4623 51.3451 33.2521C50.9028 33.042 50.5129 32.7357 50.2041 32.3557C50.1277 32.2634 50.0589 32.1652 49.9983 32.0618C49.9303 31.9663 49.8712 31.8647 49.822 31.7582V16.8978C49.8243 16.1191 50.1347 15.3729 50.6853 14.8223C51.2359 14.2716 51.9821 13.9613 52.7608 13.959H53.4661C54.2443 13.9629 54.9895 14.2738 55.5398 14.8241C56.09 15.3744 56.4009 16.1196 56.4049 16.8978Z" fill="white"/>
<path d="M56.4049 31.7578V34.6966C56.3993 35.4743 56.0878 36.2185 55.5379 36.7684C54.988 37.3183 54.2438 37.6297 53.4661 37.6354H52.7608C51.9826 37.6314 51.2374 37.3205 50.6871 36.7702C50.1369 36.22 49.826 35.4748 49.822 34.6966V31.7578C49.8712 31.8643 49.9303 31.966 49.9983 32.0615C50.0589 32.1648 50.1277 32.2631 50.2041 32.3554C50.5129 32.7354 50.9028 33.0416 51.3451 33.2518C51.7874 33.4619 52.2711 33.5707 52.7608 33.5701H53.4661C53.9546 33.5717 54.4371 33.4633 54.878 33.2531C55.3189 33.0428 55.7069 32.736 56.013 32.3554C56.0957 32.2658 56.168 32.1672 56.2286 32.0615C56.2966 31.966 56.3557 31.8643 56.4049 31.7578Z" fill="#D1D1D1"/>
<path d="M128.121 16.8978V31.7778C128.075 31.8778 128.019 31.9729 127.954 32.0618C127.894 32.1676 127.821 32.2661 127.739 32.3557V32.3655C127.428 32.7425 127.037 33.0461 126.595 33.2544C126.153 33.4627 125.671 33.5706 125.182 33.5704H124.477C123.987 33.571 123.503 33.4623 123.061 33.2521C122.619 33.042 122.229 32.7357 121.92 32.3557C121.844 32.2634 121.775 32.1652 121.714 32.0618C121.646 31.9663 121.587 31.8647 121.538 31.7582V16.8978C121.542 16.1196 121.853 15.3744 122.403 14.8241C122.953 14.2738 123.699 13.9629 124.477 13.959H125.182C125.961 13.9596 126.708 14.2694 127.259 14.8204C127.81 15.3714 128.12 16.1185 128.121 16.8978Z" fill="white"/>
<path d="M128.121 31.7774V34.6966C128.119 35.4753 127.808 36.2215 127.258 36.7721C126.707 37.3227 125.961 37.6331 125.182 37.6354H124.477C123.699 37.6298 122.955 37.3183 122.405 36.7684C121.855 36.2185 121.544 35.4743 121.538 34.6966V31.7578C121.587 31.8643 121.646 31.966 121.714 32.0615C121.775 32.1648 121.844 32.2631 121.92 32.3554C122.229 32.7354 122.619 33.0416 123.061 33.2518C123.503 33.4619 123.987 33.5707 124.477 33.5701H125.182C125.671 33.5703 126.153 33.4624 126.595 33.2541C127.037 33.0457 127.428 32.7422 127.739 32.3652V32.3554C127.821 32.2658 127.894 32.1672 127.954 32.0615C128.019 31.9726 128.075 31.8774 128.121 31.7774Z" fill="#D1D1D1"/>
<path d="M119.765 109.391H56.3755V111.105H119.765V109.391Z" fill="#B1B1B1"/>
<path d="M114.367 99.6733H61.7731V101.378H114.367V99.6733Z" fill="#B1B1B1"/>
<path d="M114.367 119.118H61.7731V120.823H114.367V119.118Z" fill="#B1B1B1"/>
<path d="M163.68 58.2362H163.572V49.8803C163.572 49.0517 163.242 48.2572 162.656 47.6713C162.07 47.0854 161.276 46.756 160.447 46.7554H156.94C156.112 46.756 155.317 47.0854 154.731 47.6713C154.146 48.2572 153.816 49.0517 153.816 49.8803V160.28C153.819 161.276 154.126 162.246 154.695 163.064C155.263 163.881 156.067 164.505 156.999 164.855V168.685C156.999 169.135 157.178 169.566 157.496 169.883C157.813 170.201 158.244 170.38 158.694 170.38C159.143 170.38 159.574 170.201 159.892 169.883C160.21 169.566 160.389 169.135 160.389 168.685V164.845C160.477 164.816 160.565 164.777 160.653 164.737C160.745 164.706 160.833 164.667 160.918 164.62C161.091 164.534 161.258 164.435 161.417 164.326C162.082 163.881 162.626 163.279 163.002 162.573C163.378 161.868 163.574 161.08 163.572 160.28V58.9708H163.67C164.429 58.9717 165.156 59.2734 165.692 59.8096C166.228 60.3458 166.53 61.0729 166.531 61.8312V90.9447C166.531 91.0421 166.569 91.1356 166.638 91.2045C166.707 91.2733 166.801 91.312 166.898 91.312C166.995 91.312 167.089 91.2733 167.158 91.2045C167.227 91.1356 167.265 91.0421 167.265 90.9447V61.8312C167.265 60.8795 166.888 59.9666 166.216 59.2927C165.544 58.6188 164.632 58.2389 163.68 58.2362ZM162.838 160.28C162.834 161.078 162.602 161.857 162.168 162.526C161.733 163.195 161.116 163.725 160.389 164.052C160.272 164.108 160.151 164.153 160.026 164.189C159.907 164.24 159.782 164.276 159.654 164.297C159.337 164.375 159.011 164.414 158.684 164.414C158.364 164.414 158.045 164.375 157.734 164.297C157.483 164.236 157.237 164.154 156.999 164.052C156.272 163.725 155.654 163.195 155.22 162.526C154.786 161.857 154.553 161.078 154.55 160.28V154.912H162.838V160.28ZM162.838 154.177H154.55V123.173H162.838V154.177ZM162.838 122.439H154.55V58.9611H162.838V122.439ZM162.838 49.8803V58.2264H154.55V49.8803C154.55 49.5671 154.611 49.2568 154.73 48.9672C154.849 48.6776 155.024 48.4143 155.245 48.1923C155.466 47.9704 155.729 47.7941 156.018 47.6736C156.307 47.5532 156.617 47.4908 156.93 47.4901H160.447C160.761 47.4894 161.071 47.5504 161.36 47.6697C161.65 47.7889 161.913 47.964 162.135 48.185C162.357 48.406 162.534 48.6685 162.654 48.9577C162.774 49.2468 162.837 49.5568 162.838 49.87V49.8705L162.838 49.8803Z" fill="#2D4068"/>
<path d="M162.838 154.912V160.28C162.834 161.078 162.602 161.857 162.168 162.526C161.733 163.195 161.116 163.725 160.389 164.052C160.272 164.108 160.151 164.153 160.026 164.189C159.907 164.24 159.782 164.276 159.654 164.297C159.337 164.375 159.011 164.414 158.684 164.414C158.364 164.414 158.045 164.375 157.734 164.297C157.483 164.236 157.237 164.154 156.999 164.052C156.272 163.725 155.654 163.195 155.22 162.526C154.786 161.857 154.553 161.078 154.55 160.28V154.912H162.838Z" fill="#C2D3E6"/>
<path d="M162.837 58.9614H154.55V122.439H162.837V58.9614Z" fill="white"/>
<path d="M162.838 49.8804V58.2266H154.55V49.8804C154.55 49.567 154.611 49.2565 154.731 48.9667C154.85 48.6769 155.026 48.4135 155.247 48.1916C155.469 47.9696 155.731 47.7935 156.021 47.6731C156.31 47.5528 156.621 47.4906 156.934 47.4902H160.447C160.761 47.4898 161.071 47.5512 161.361 47.6708C161.651 47.7904 161.914 47.9658 162.136 48.1872C162.358 48.4086 162.534 48.6715 162.655 48.961C162.775 49.2505 162.837 49.5608 162.838 49.8743V49.8804Z" fill="#6E8CBB"/>
<path d="M162.837 123.173H154.55V154.177H162.837V123.173Z" fill="#6E8CBB"/>
</svg>
