<svg width="196" height="192" viewBox="0 0 196 192" fill="none" xmlns="http://www.w3.org/2000/svg">
<path d="M75.5794 97.8278C99.5103 97.8278 118.91 78.9121 118.91 55.5785C118.91 32.2448 99.5103 13.3291 75.5794 13.3291C51.6486 13.3291 32.2488 32.2448 32.2488 55.5785C32.2488 78.9121 51.6486 97.8278 75.5794 97.8278Z" fill="#E6E6E6"/>
<path d="M118.433 142.428C116.343 147.181 113.089 151.186 109.07 154.188C108.849 154.365 108.618 154.532 108.387 154.689C107.352 155.427 106.257 156.097 105.132 156.687C104.851 156.845 104.56 156.992 104.268 157.13C100.803 158.823 96.9851 159.876 92.997 160.161C90.7769 160.505 88.0445 160.112 88.0445 160.112C78.1694 157.661 70.3537 150.163 67.5208 140.706C67.4305 140.391 67.34 140.076 67.2596 139.761C66.9282 138.501 66.6871 137.202 66.5463 135.884C66.5062 135.598 66.4861 135.303 66.4661 135.008C66.4058 134.299 66.3756 133.591 66.3756 132.872C66.3756 128.021 67.6615 123.258 70.0925 119.046C70.1528 118.928 70.2132 118.82 70.2834 118.702L70.9967 118.987C76.6524 121.27 82.7402 123.888 89.1795 126.84C100.712 132.125 110.527 137.527 118.433 142.428Z" fill="#CCA761"/>
<path d="M59.9563 130.766C59.9563 131.022 59.9563 131.288 59.9664 131.544C43.1497 122.294 31.7478 113.712 30.2711 109.776C30.1002 109.304 30.0801 108.92 30.2107 108.644C30.5122 108.024 31.5067 107.709 33.144 107.709C36.9213 107.709 44.1041 109.363 53.748 112.581C56.8522 113.614 60.2075 114.814 63.7938 116.173C61.2823 120.621 59.9563 125.659 59.9563 130.766H59.9563Z" fill="#795E2E"/>
<path d="M142.071 163.202C140.674 164.776 133.471 164.058 109.874 154.512C113.802 151.491 116.986 147.515 119.066 142.821C131.985 150.871 139.67 157.504 141.247 159.885C141.98 160.997 142.714 162.473 142.071 163.202Z" fill="#503D1C"/>
<path d="M139.439 7.60889C132.316 9.57704 126.58 15.6193 124.712 23.3738C123.245 23.0885 121.788 22.8425 120.332 22.6456C122.602 14.6549 129.011 8.84883 136.716 7.81557C137.63 7.68764 138.535 7.61874 139.439 7.6089L139.439 7.60889Z" fill="#CCA761"/>
<path d="M157.35 39.6996C152.006 34.4938 145.587 30.1344 138.263 27.2805C134.064 25.647 129.765 24.3972 125.455 23.5214C125.204 23.4624 124.953 23.4131 124.712 23.3738C126.58 15.6192 132.316 9.57698 139.439 7.60882C140.463 7.58918 141.488 7.62852 142.493 7.74661C152.046 8.79958 160.143 15.5995 161.399 24.4858C162.102 29.5538 160.635 35.0843 157.35 39.6996Z" fill="#E9CA8F"/>
<path d="M88.0444 160.111C75.1053 158.97 64.497 149.739 61.5435 137.645C61.4632 137.34 61.3929 137.025 61.3225 136.71V136.7C61.0613 135.441 60.8805 134.161 60.79 132.852C60.7599 132.557 60.7499 132.262 60.7399 131.967C60.7198 131.573 60.7097 131.17 60.7097 130.766C60.7097 125.747 62.0156 120.797 64.5071 116.438C66.3756 117.146 68.2942 117.904 70.2834 118.701C67.7317 122.992 66.3756 127.883 66.3756 132.872C66.3756 133.59 66.4057 134.299 66.4661 135.008C66.486 135.303 66.5062 135.598 66.5463 135.883C66.687 137.202 66.9281 138.501 67.2596 139.761C67.3399 140.076 67.4304 140.39 67.5208 140.705C70.3537 150.162 78.1693 157.661 88.0444 160.111L88.0444 160.111Z" fill="#A58346"/>
<path d="M150.921 163.172L150.901 163.28C150.891 163.329 150.881 163.379 150.871 163.418C150.841 163.566 150.8 163.694 150.73 163.831L150.71 163.881C148.078 169.401 142.844 172.108 106.026 157.051C107.121 156.441 108.186 155.762 109.201 155.024C128.499 162.847 136.425 164.619 139.861 164.609C141.819 164.609 142.322 164.038 142.643 163.684C143.417 162.808 143.166 161.44 141.88 159.492C139.288 155.565 120.542 140.41 89.491 126.171C74.5629 119.331 60.1472 113.683 48.8959 110.268C40.8091 107.818 30.8837 105.495 29.5277 108.329C29.3066 108.792 29.3166 109.373 29.5678 110.032C31.0947 114.126 42.4766 122.854 60.0064 132.42C60.0768 133.719 60.2275 134.998 60.4686 136.258C35.9468 123.199 21.5913 111.095 21.7321 105.83C21.7321 105.466 21.8024 105.151 21.9631 104.836C22.0034 104.757 22.0435 104.678 22.0936 104.6C22.5858 103.842 23.5805 103.301 25.0471 102.986C26.0618 102.769 27.2573 102.661 28.6334 102.661C40.5177 102.661 65.371 110.406 91.9521 122.589C121.778 136.267 146.35 152.308 150.368 160.732C150.811 161.666 151.001 162.483 150.921 163.172V163.172Z" fill="#CCA761"/>
<path d="M157.889 40.2426C161.329 35.4427 162.889 29.6827 162.139 24.3831C160.589 13.3431 148.889 5.42797 136.619 7.07368C128.569 8.17083 121.909 14.2345 119.579 22.561C102.299 20.3766 85.7287 24.1382 76.8886 33.1896L76.8087 33.2582L76.7786 33.2974L76.7387 33.3366C75.6587 34.3749 69.9987 40.1545 64.9487 51.8704C61.8886 59.6778 57.6186 67.5047 53.2387 73.3333C46.9587 81.6794 35.2686 94.0909 24.3786 101.604C23.9787 101.888 23.5786 102.163 23.1887 102.417L23.0487 102.496C22.4287 102.995 21.9287 103.495 21.6086 103.985C21.5387 104.073 21.4887 104.141 21.4487 104.22C21.3886 104.318 21.3386 104.406 21.2687 104.543C21.0786 104.925 20.9787 105.346 20.9787 105.817C20.8087 112.106 37.1587 124.723 60.6587 137.173C63.6587 150.76 76.0287 160.977 90.7887 160.977C91.5088 160.977 92.2287 160.958 92.9487 160.899C97.2987 160.615 101.449 159.43 105.179 157.5C125.889 165.964 136.919 168.941 143.129 168.941C148.269 168.941 150.099 166.894 151.369 164.239L151.429 164.151V164.092C151.519 163.926 151.579 163.75 151.609 163.583C151.629 163.534 151.639 163.466 151.639 163.426L151.659 163.319L151.349 163.23L151.409 163.24L151.669 163.27V163.25C151.729 162.868 151.769 162.417 151.769 161.869V161.585C151.749 161.183 151.729 160.791 151.729 160.38C151.379 147.292 154.579 130.15 157.899 119.981C159.419 115.319 161.789 110.146 164.769 105.023C166.019 102.839 167.359 100.732 168.729 98.7537L168.819 98.6362C168.989 98.3619 169.179 98.0974 169.369 97.8329C169.369 97.8231 169.379 97.8133 169.389 97.8035C170.069 96.677 171.279 94.3749 172.849 90.0647C172.859 90.0451 172.859 90.0255 172.869 90.0059C173.959 86.7145 174.259 84.677 174.309 84.3341L174.329 84.2263C177.179 71.0802 170.809 53.1733 157.889 40.2427V40.2426ZM136.719 7.81817C137.629 7.69083 138.539 7.62225 139.439 7.61244C140.459 7.59289 141.489 7.63205 142.489 7.74959C152.049 8.79777 160.139 15.5961 161.399 24.481C162.099 29.5553 160.639 35.0802 157.349 39.7039C152.009 34.4924 145.589 30.1332 138.259 27.2827C134.069 25.6468 129.769 24.3929 125.459 23.521C125.209 23.4622 124.949 23.4133 124.709 23.3741C123.249 23.09 121.789 22.8451 120.329 22.6492C122.599 14.6557 129.009 8.84674 136.719 7.81818V7.81817ZM59.9687 131.541C43.1487 122.293 31.7488 113.712 30.2687 109.774C30.0986 109.304 30.0786 108.922 30.2087 108.648C30.5088 108.021 31.5088 107.707 33.1487 107.707C36.9187 107.707 44.1086 109.363 53.7488 112.576C56.8486 113.614 60.2087 114.819 63.7987 116.171C61.2787 120.618 59.9587 125.663 59.9587 130.767C59.9587 131.021 59.9587 131.286 59.9687 131.541ZM105.129 156.687C104.849 156.843 104.559 156.99 104.269 157.128C100.799 158.822 96.9887 159.87 92.9987 160.164C90.7786 160.507 88.0487 160.115 88.0487 160.115C75.1086 158.969 64.4987 149.741 61.5387 137.643C61.4587 137.34 61.3886 137.026 61.3187 136.713V136.703C61.0587 135.439 60.8786 134.166 60.7887 132.853C60.7588 132.559 60.7487 132.266 60.7387 131.972C60.7187 131.57 60.7087 131.168 60.7087 130.767C60.7087 125.751 62.0186 120.795 64.5088 116.435C66.3786 117.15 68.2987 117.905 70.2786 118.698L70.9987 118.982C76.6486 121.275 82.7387 123.89 89.1787 126.839C100.709 132.128 110.529 137.526 118.429 142.424C116.339 147.185 113.089 151.181 109.069 154.189C108.849 154.365 108.619 154.532 108.389 154.688C107.349 155.423 106.259 156.099 105.129 156.687L105.129 156.687ZM119.069 142.826C131.989 150.868 139.669 157.5 141.249 159.88C141.979 160.997 142.709 162.476 142.069 163.201C140.679 164.778 133.469 164.053 109.879 154.512C113.799 151.495 116.989 147.518 119.069 142.826V142.826ZM150.919 163.172L150.899 163.279C150.889 163.328 150.879 163.377 150.869 163.417C150.839 163.563 150.799 163.691 150.729 163.828L150.709 163.877C148.079 169.402 142.849 172.106 106.029 157.049C107.119 156.442 108.189 155.766 109.199 155.021C128.499 162.848 136.429 164.621 139.859 164.612C141.819 164.612 142.319 164.034 142.639 163.681C143.419 162.809 143.169 161.438 141.879 159.488C139.289 155.56 120.539 140.406 89.4887 126.172C74.5587 119.335 60.1487 113.683 48.8987 110.264C40.8087 107.815 30.8886 105.493 29.5287 108.334C29.3087 108.795 29.3187 109.372 29.5687 110.029C31.0986 114.124 42.4787 122.852 60.0088 132.422C60.0786 133.715 60.2287 134.999 60.4687 136.262C35.9487 123.194 21.5886 111.097 21.7287 105.826C21.7287 105.464 21.7987 105.15 21.9587 104.837C21.9987 104.759 22.0387 104.68 22.0986 104.602C22.5886 103.838 23.5786 103.299 25.0487 102.985C25.2987 102.937 25.5687 102.888 25.8386 102.848C26.1987 102.79 26.5886 102.76 26.9787 102.731C27.3886 102.692 27.8187 102.672 28.2686 102.672C28.3886 102.662 28.5088 102.662 28.6286 102.662C28.7287 102.662 28.8286 102.662 28.9187 102.672C29.0088 102.672 29.0986 102.672 29.1987 102.682C29.7287 102.682 30.2887 102.711 30.8886 102.75H30.9387C31.4988 102.79 32.0786 102.839 32.6787 102.907C32.7887 102.917 32.8987 102.937 33.0187 102.946C33.8486 103.035 34.7087 103.152 35.6086 103.299C36.3486 103.417 37.0986 103.544 37.8987 103.691C38.1086 103.72 38.3087 103.759 38.5088 103.808C41.9988 104.484 45.9087 105.444 50.1687 106.679C50.5587 106.786 50.9587 106.894 51.3486 107.012C53.1387 107.531 54.9787 108.109 56.8686 108.726C58.0986 109.118 59.3386 109.539 60.6086 109.97C60.9888 110.097 61.3586 110.225 61.7488 110.362C63.0088 110.803 64.3087 111.263 65.6086 111.733C73.8786 114.731 82.8087 118.395 91.9487 122.587C121.779 136.272 146.349 152.308 150.369 160.732C150.809 161.663 150.999 162.486 150.919 163.172ZM173.589 84.1088L173.569 84.0892V84.2557C173.559 84.3537 173.519 84.6084 173.439 85.0198C173.419 85.0982 173.399 85.1863 173.389 85.2843C173.349 85.4704 173.299 85.6761 173.249 85.9112C173.149 86.352 173.019 86.8614 172.859 87.4492C172.849 87.4884 172.829 87.5276 172.829 87.5667C172.669 88.1447 172.479 88.7912 172.239 89.5161C172.199 89.6435 172.159 89.761 172.119 89.8786C170.549 94.1594 169.349 96.4321 168.659 97.539C168.649 97.5586 168.629 97.5782 168.619 97.6076C168.559 97.6957 168.509 97.7741 168.459 97.8426C168.059 98.401 167.669 98.9692 167.279 99.5472C167.099 99.8116 166.919 100.086 166.749 100.36C165.839 101.741 164.949 103.181 164.099 104.661C161.119 109.823 158.719 115.054 157.179 119.766C153.859 129.944 150.649 147.097 150.959 160.243C150.549 159.42 149.969 158.538 149.209 157.598C149.089 157.441 148.959 157.284 148.829 157.128C148.619 156.873 148.389 156.618 148.149 156.354C147.999 156.187 147.849 156.021 147.689 155.854C147.539 155.688 147.379 155.511 147.209 155.345C147.039 155.168 146.869 155.002 146.689 154.826C141.319 149.516 131.919 142.933 119.989 136.096C119.469 135.792 118.939 135.488 118.399 135.194C116.979 134.391 115.519 133.578 114.019 132.765C113.049 132.236 112.059 131.697 111.049 131.168C109.409 130.306 107.749 129.434 106.039 128.563C101.639 126.329 97.0387 124.106 92.2787 121.921C78.9287 115.808 66.0187 110.812 54.9287 107.345C53.5487 106.914 52.1887 106.502 50.8686 106.11C45.4487 104.543 40.5687 103.387 36.3886 102.692C35.5287 102.545 34.6787 102.427 33.8786 102.319C32.9087 102.192 31.9988 102.104 31.1286 102.035L29.9487 101.967C29.4687 101.947 29.0088 101.937 28.5587 101.937C27.1587 101.937 25.9187 102.045 24.8887 102.261C24.8087 102.28 24.7388 102.3 24.6687 102.319L24.6787 102.31C24.7388 102.27 24.7787 102.231 24.8486 102.192C35.7687 94.6394 47.5287 82.1692 53.8386 73.7643C58.2588 67.8868 62.5687 60.0011 65.6487 52.1545C70.6487 40.5659 76.1987 34.8843 77.2687 33.8655L77.3087 33.8263L77.3586 33.7872L77.4287 33.7088C84.9587 25.9896 98.2488 22.1888 112.779 22.7276C115.469 22.6688 122.399 23.7268 123.239 23.8541C123.289 23.8639 123.319 23.8639 123.319 23.8639C128.239 24.7358 133.189 26.0973 137.979 27.9684C163.219 37.7937 177.589 65.7219 173.589 84.1088L173.589 84.1088Z" fill="#795E2E"/>
<path d="M173.589 84.1087L173.569 84.0891V84.2556C173.559 84.3536 173.519 84.6083 173.439 85.0197C173.419 85.0981 173.399 85.1862 173.389 85.2842C173.349 85.4703 173.299 85.676 173.249 85.9111C173.149 86.3519 173.019 86.8613 172.859 87.4491C172.849 87.4883 172.829 87.5275 172.829 87.5666C172.669 88.1446 172.479 88.7911 172.239 89.516C172.199 89.6433 172.159 89.7609 172.119 89.8785C170.549 94.1593 169.349 96.432 168.659 97.5389C168.649 97.5585 168.629 97.5781 168.619 97.6074C168.559 97.6956 168.509 97.774 168.459 97.8425C168.059 98.4009 167.669 98.9691 167.279 99.5471C167.099 99.8115 166.919 100.086 166.749 100.36C165.839 101.741 164.949 103.181 164.099 104.661C161.119 109.823 158.719 115.054 157.179 119.766C153.859 129.944 150.649 147.096 150.959 160.243C150.549 159.42 149.969 158.538 149.209 157.598C149.089 157.441 148.959 157.284 148.829 157.127C148.619 156.873 148.389 156.618 148.149 156.354C147.999 156.187 147.849 156.02 147.689 155.854C147.539 155.687 147.379 155.511 147.209 155.345C147.039 155.168 146.869 155.002 146.689 154.825C141.319 149.516 131.919 142.933 119.989 136.096C119.469 135.792 118.939 135.488 118.399 135.194C116.979 134.391 115.519 133.578 114.019 132.765C113.049 132.236 112.059 131.697 111.049 131.168C109.409 130.306 107.749 129.434 106.039 128.563C101.639 126.329 97.0387 124.105 92.2787 121.921C78.9287 115.808 66.0187 110.812 54.9287 107.345C53.5487 106.914 52.1887 106.502 50.8687 106.11C45.4487 104.543 40.5687 103.387 36.3887 102.692C35.5287 102.545 34.6787 102.427 33.8787 102.319C32.9087 102.192 31.9988 102.104 31.1287 102.035L29.9487 101.967C30.4988 101.565 31.0687 101.173 31.6187 100.752C41.8586 93.1699 52.4187 81.8557 58.2787 74.0679C62.6587 68.2295 66.9287 60.4124 69.9888 52.6148C75.0487 40.8793 80.6987 35.0997 81.7887 34.0613L81.8286 34.0222L81.8586 33.983L81.9387 33.9144C88.0587 27.645 97.9087 23.9128 109.139 22.943C110.339 22.8353 111.549 22.7667 112.779 22.7275C115.469 22.6687 122.399 23.7267 123.239 23.854C123.289 23.8638 123.319 23.8638 123.319 23.8638C128.239 24.7357 133.189 26.0973 137.979 27.9683C163.219 37.7936 177.589 65.7218 173.589 84.1087V84.1087Z" fill="#E9CA8F"/>
<path d="M112.779 22.7275C111.549 22.7667 110.339 22.8353 109.139 22.9431C97.9087 23.9128 88.0587 27.6451 81.9387 33.9145L81.8586 33.9831L81.8286 34.0222L81.7887 34.0614C80.6987 35.0998 75.0487 40.8794 69.9888 52.6149C66.9287 60.4125 62.6587 68.2296 58.2787 74.068C52.4187 81.8557 41.8586 93.17 31.6186 100.752C31.0687 101.173 30.4988 101.565 29.9487 101.967C29.4687 101.947 29.0088 101.937 28.5587 101.937C27.1587 101.937 25.9187 102.045 24.8887 102.261C24.8087 102.28 24.7388 102.3 24.6687 102.319L24.6787 102.31C24.7388 102.27 24.7787 102.231 24.8486 102.192C35.7687 94.6394 47.5287 82.1691 53.8386 73.7643C58.2588 67.8867 62.5687 60.001 65.6487 52.1545C70.6487 40.5659 76.1987 34.8843 77.2687 33.8655L77.3087 33.8263L77.3587 33.7871L77.4287 33.7088C84.9588 25.9896 98.2488 22.1887 112.779 22.7275L112.779 22.7275Z" fill="#CCA761"/>
<path d="M142.865 152.006C143.692 141.769 145.791 131.175 147.907 124.012C149.978 116.993 153.733 108.843 158.203 101.669C164.546 90.7286 165.758 82.9539 165.938 81.5031L165.946 81.448L165.947 81.3851L165.968 81.2824C167.623 70.7293 162.601 58.0908 153.322 47.1304" stroke="#795E2E" stroke-width="0.75" stroke-miterlimit="10"/>
<path d="M155.215 20.2334C156.404 22.4044 157.086 25.0124 157.086 27.9473C157.086 31.5385 156.065 34.8512 154.343 37.5113" stroke="#795E2E" stroke-width="0.75" stroke-miterlimit="10"/>
<path d="M114.704 139.668C112.274 146.521 104.933 152.881 97.6616 154.877" stroke="#795E2E" stroke-width="0.75" stroke-miterlimit="10"/>
</svg>
