<svg width="192" height="192" viewBox="0 0 192 192" fill="none" xmlns="http://www.w3.org/2000/svg">
<path d="M81.6089 41.8352C60.1967 64.7932 56.2239 70.1844 32.0723 78.7291C7.9208 87.2737 3.25521 122.074 44.875 130.256C62.2016 133.662 79.7828 138.742 94.9581 147.95C100.089 150.987 104.83 154.64 109.075 158.827C113.26 163.051 116.203 170.345 122.605 171.2C140.137 173.543 158.93 157.374 167.711 144.058C182.205 122.076 180.292 94.8048 171.022 71.1929C139.757 -8.4415 90.5524 32.246 81.6089 41.8352Z" fill="#E6E6E6"/>
<path d="M158.595 47.2471C166.022 47.2471 172.042 41.2755 172.042 33.9092C172.042 26.5429 166.022 20.5713 158.595 20.5713C151.169 20.5713 145.148 26.5429 145.148 33.9092C145.148 41.2755 151.169 47.2471 158.595 47.2471Z" fill="#BD716D"/>
<path d="M163.379 63.8574C162.663 63.8627 161.965 64.0797 161.373 64.4811C160.781 64.8824 160.32 65.4502 160.05 66.1128C159.78 66.7755 159.712 67.5033 159.854 68.2045C159.997 68.9057 160.344 69.5489 160.852 70.0531C161.36 70.5573 162.006 70.8999 162.708 71.0377C163.41 71.1754 164.138 71.1022 164.798 70.8272C165.459 70.5523 166.023 70.0879 166.42 69.4926C166.818 68.8973 167.03 68.1977 167.03 67.4821C167.025 66.5176 166.638 65.5943 165.954 64.9148C165.27 64.2352 164.344 63.855 163.379 63.8574Z" fill="#729A77"/>
<path d="M123.935 25.541C123.219 25.5463 122.521 25.7633 121.929 26.1647C121.336 26.566 120.876 27.1338 120.606 27.7965C120.336 28.4591 120.267 29.1869 120.41 29.8881C120.553 30.5893 120.9 31.2325 121.408 31.7367C121.916 32.2409 122.562 32.5835 123.264 32.7213C123.966 32.859 124.693 32.7858 125.354 32.5108C126.015 32.2359 126.579 31.7715 126.976 31.1762C127.373 30.5809 127.585 29.8813 127.586 29.1657C127.581 28.2012 127.194 27.2778 126.51 26.5982C125.825 25.9186 124.899 25.5384 123.935 25.541Z" fill="#BD716D"/>
<path d="M85.8951 72.2262C88.5366 72.2262 90.678 70.1021 90.678 67.482C90.678 64.8618 88.5366 62.7378 85.8951 62.7378C83.2536 62.7378 81.1122 64.8618 81.1122 67.482C81.1122 70.1021 83.2536 72.2262 85.8951 72.2262Z" fill="#6E8CBB"/>
<path d="M85.8956 63.8574C85.18 63.8627 84.482 64.0797 83.8896 64.4811C83.2971 64.8824 82.8368 65.4502 82.5665 66.1129C82.2963 66.7755 82.2283 67.5033 82.3711 68.2045C82.5139 68.9057 82.861 69.5489 83.3689 70.0531C83.8767 70.5573 84.5224 70.8999 85.2246 71.0377C85.9268 71.1754 86.6541 71.1022 87.3148 70.8272C87.9755 70.5523 88.5399 70.0879 88.9371 69.4926C89.3342 68.8973 89.5462 68.1977 89.5463 67.4821C89.5417 66.5177 89.1547 65.5945 88.4703 64.915C87.7859 64.2356 86.86 63.8552 85.8956 63.8574Z" fill="#C2D3E6"/>
<path d="M123.935 101.998C123.219 102.003 122.521 102.22 121.929 102.621C121.336 103.023 120.876 103.59 120.606 104.253C120.335 104.916 120.267 105.643 120.41 106.345C120.553 107.046 120.9 107.689 121.408 108.193C121.916 108.697 122.561 109.04 123.264 109.178C123.966 109.316 124.693 109.242 125.354 108.967C126.015 108.692 126.579 108.228 126.976 107.633C127.373 107.037 127.585 106.338 127.585 105.622C127.581 104.658 127.194 103.734 126.51 103.055C125.825 102.375 124.899 101.995 123.935 101.998Z" fill="#CCA761"/>
<path d="M70.843 58.1529L69.8315 57.0443C71.6923 55.3867 73.2061 53.3768 74.2858 51.1308C75.3654 48.8848 75.9893 46.4472 76.1216 43.9587C76.2539 41.4702 75.8919 38.9802 75.0565 36.6324C74.2211 34.2846 72.9288 32.1255 71.2544 30.2799L72.3779 29.2822C74.1841 31.2731 75.5781 33.602 76.4792 36.1346C77.3804 38.6672 77.7709 41.3532 77.6282 44.0375C77.4855 46.7218 76.8124 49.3513 75.6478 51.774C74.4832 54.1968 72.8502 56.3648 70.843 58.1529Z" fill="#5594A1"/>
<path d="M137.55 119.153L136.423 118.155C140.098 114.121 145.216 111.698 150.666 111.413C156.116 111.128 161.459 113.003 165.535 116.632L164.526 117.741C160.749 114.377 155.798 112.639 150.748 112.904C145.697 113.168 140.955 115.413 137.55 119.153Z" fill="#729A77"/>
<path d="M107.333 47.9108L115.332 55.8347L113.727 57.4246L105.741 49.5007L97.7417 57.4246L96.1361 55.8347L104.135 47.9108L96.1361 39.9731L97.7417 38.396L105.741 46.3199L113.727 38.396L115.332 39.9731L107.333 47.9108Z" fill="#E9CA8F"/>
<path d="M146.142 86.4L154.128 94.3239L152.522 95.9138L144.537 87.9899L136.551 95.9138L134.946 94.3239L142.931 86.4L134.946 78.4624L136.551 76.8853L144.537 84.8092L152.522 76.8853L154.128 78.4624L146.142 86.4Z" fill="#E9CA8F"/>
<path d="M104.508 88.9574C104.468 88.9575 104.429 88.9555 104.39 88.9515C104.242 88.9371 104.1 88.8938 103.969 88.8241C103.839 88.7544 103.723 88.6597 103.63 88.5453C103.536 88.4309 103.466 88.2992 103.423 88.1576C103.381 88.0161 103.366 87.8675 103.381 87.7204C103.989 82.0084 105.985 79.8774 111.608 78.9482C116.863 78.0789 117.606 71.0293 117.671 70.2285C118.078 65.4049 122.581 64.7543 126.931 64.7543C127.945 64.7543 128.258 64.4392 128.361 64.3357C128.969 63.7201 128.936 62.2294 128.904 60.7868C128.865 58.9329 128.824 57.0163 130.063 55.8246C132.519 53.4689 138.237 52.3137 138.482 52.2655C138.774 52.2087 139.077 52.2688 139.326 52.433C139.575 52.5972 139.749 52.8523 139.812 53.1436C139.84 53.2883 139.84 53.4373 139.811 53.582C139.783 53.7266 139.725 53.8642 139.643 53.9867C139.561 54.1092 139.455 54.2143 139.332 54.2959C139.21 54.3775 139.072 54.434 138.927 54.4622C137.455 54.7554 133.283 55.8581 131.64 57.432C131.109 57.944 131.142 59.4289 131.168 60.7372C131.21 62.5547 131.254 64.6143 129.977 65.9022C129.57 66.2812 129.09 66.5734 128.566 66.7612C128.042 66.949 127.486 67.0285 126.931 66.9948C121.316 66.9948 120.11 68.2492 119.93 70.4152C119.559 74.8247 117.256 80.2858 111.98 81.1566C107.377 81.918 106.132 83.2526 105.634 87.9538C105.603 88.2306 105.471 88.4863 105.263 88.6716C105.055 88.8569 104.786 88.9587 104.508 88.9574Z" fill="#BD716D"/>
<path d="M128.713 135.975L102.342 144.788L102.328 144.775L46.171 88.982L54.8855 62.7427L128.713 135.975Z" fill="#E9CA8F"/>
<path d="M102.247 145.207L102.087 145.052L45.7504 89.0826L54.723 62.0645L55.1444 62.4815L129.396 136.134L102.247 145.207ZM46.592 88.8817L102.44 144.368L128.031 135.816L55.0476 63.421L46.592 88.8817Z" fill="#6E8CBB"/>
<path d="M75.6597 153.709V153.697L37.4978 115.625L37.3489 115.545L46.1711 88.9819L102.328 144.775L102.342 144.788L75.6597 153.709Z" fill="#DB9D99"/>
<path d="M75.2917 154.219V153.848L37.2752 115.922L36.9042 115.719L46.0095 88.3027L103.01 144.934L102.459 145.136L75.2917 154.219ZM37.7865 115.394L75.7685 153.286L101.66 144.628L46.3331 89.6611L37.7865 115.394Z" fill="#A58346"/>
<path d="M75.6597 153.697V153.709L49.3547 162.51L49.3684 162.47L28.6079 141.877L37.3488 115.544L37.4977 115.625L75.6597 153.697Z" fill="#E9CA8F"/>
<path d="M48.7733 163.092L48.9476 162.57L28.1871 141.978L37.1392 115.01L37.7578 115.365L76.027 153.544V153.974L48.7733 163.092ZM29.0288 141.777L49.4934 162.077L74.989 153.547L37.5275 116.175L29.0288 141.777Z" fill="#A58346"/>
<path d="M49.3685 162.47L49.355 162.51L24.9929 170.65C24.3726 170.858 23.7065 170.89 23.0693 170.741C22.4321 170.592 21.849 170.269 21.3854 169.807C20.9217 169.345 20.5959 168.763 20.4445 168.127C20.293 167.49 20.322 166.824 20.528 166.203L28.6082 141.877L49.3685 162.47Z" fill="#DB9D99"/>
<path d="M23.8657 171.2C23.2503 171.199 22.6438 171.053 22.0961 170.772C21.5483 170.491 21.0751 170.085 20.7151 169.586C20.3552 169.086 20.119 168.509 20.0258 167.901C19.9326 167.292 19.9852 166.671 20.1792 166.086L28.4456 141.199L49.7893 162.369L49.6457 162.8L25.1095 170.998C24.7084 171.131 24.2884 171.199 23.8657 171.2ZM28.7702 142.555L20.8772 166.318C20.6926 166.874 20.6666 167.471 20.8022 168.041C20.9379 168.612 21.2298 169.133 21.6451 169.547C22.0605 169.96 22.5829 170.25 23.1537 170.383C23.7245 170.517 24.3212 170.488 24.8769 170.301L48.7131 162.336L28.7702 142.555Z" fill="#A58346"/>
<path d="M23.8638 171.319C23.2289 171.319 22.6033 171.167 22.0383 170.878C21.4734 170.588 20.9852 170.169 20.614 169.654C20.2427 169.139 19.9991 168.543 19.903 167.916C19.8069 167.288 19.8612 166.647 20.0614 166.044L54.668 61.8345L55.2291 62.3922L129.622 136.184L128.868 136.437L25.1469 171.112C24.733 171.249 24.2998 171.319 23.8638 171.319ZM55.0998 63.6444L20.9916 166.353C20.8141 166.888 20.7892 167.462 20.9197 168.01C21.0502 168.558 21.3308 169.059 21.7302 169.457C22.1296 169.855 22.6318 170.133 23.1806 170.261C23.7294 170.389 24.303 170.362 24.8371 170.182L127.802 135.759L55.0998 63.6444Z" fill="#795E2E"/>
<path d="M134.108 142.82L48.4642 57.9033L50.0678 56.3223L135.713 141.239L134.108 142.82Z" fill="#CCA761"/>
<path d="M50.068 56.322L135.713 141.239L134.108 142.82L48.4639 57.9032L50.068 56.322M50.0701 54.9438L49.3794 55.6246L47.7752 57.2058L47.0698 57.9012L47.7732 58.5986L133.418 143.515L134.106 144.198L134.797 143.517L136.401 141.936L137.107 141.241L136.403 140.544L50.7588 55.6266L50.0701 54.9438H50.0701Z" fill="#795E2E"/>
</svg>
