<svg width="192" height="192" viewBox="0 0 192 192" fill="none" xmlns="http://www.w3.org/2000/svg">
<path d="M122.747 147.045C141.344 119.109 144.596 112.733 168.637 99.5297C192.677 86.3266 191.468 48.8017 145.997 47.3755C127.067 46.783 107.571 44.4696 89.8905 37.3822C83.9278 35.0663 78.269 32.0337 73.0386 28.3513C67.8652 24.621 63.4665 17.4333 56.5393 17.6371C37.5841 18.2013 20.5558 38.5201 13.616 54.093C2.16731 79.8003 9.00314 108.247 22.9803 131.556C70.1103 210.173 114.979 158.712 122.75 147.042L122.747 147.045Z" fill="#E6E6E6"/>
<path d="M148.488 33.3066H43.51C40.7383 33.3102 38.0805 34.4096 36.1163 36.365C34.152 38.3205 33.0407 40.9734 33.0248 43.745V148.254C33.0407 151.026 34.152 153.679 36.1163 155.634C38.0805 157.59 40.7383 158.689 43.51 158.693H148.488C151.26 158.689 153.918 157.59 155.882 155.634C157.846 153.679 158.957 151.026 158.973 148.254V43.745C158.957 40.9734 157.846 38.3205 155.882 36.365C153.918 34.4096 151.26 33.3102 148.488 33.3066Z" fill="white"/>
<path d="M148.488 159.183H43.51C40.6061 159.186 37.8196 158.037 35.7617 155.988C33.7038 153.939 32.5426 151.158 32.5328 148.254V43.7459C32.5426 40.8421 33.7038 38.0607 35.7617 36.0119C37.8196 33.9631 40.6061 32.8143 43.51 32.8174H148.488C151.392 32.8143 154.179 33.9631 156.236 36.0119C158.294 38.0607 159.456 40.8421 159.465 43.746V148.254C159.456 151.158 158.294 153.939 156.236 155.988C154.179 158.037 151.392 159.186 148.488 159.183ZM43.51 33.797C40.8664 33.794 38.3295 34.8398 36.4561 36.705C34.5826 38.5702 33.5255 41.1023 33.5168 43.7459V148.254C33.5255 150.898 34.5826 153.43 36.4561 155.295C38.3295 157.16 40.8664 158.206 43.51 158.203H148.488C151.132 158.206 153.669 157.16 155.542 155.295C157.416 153.43 158.473 150.898 158.481 148.254V43.7459C158.473 41.1024 157.416 38.5702 155.542 36.705C153.669 34.8399 151.132 33.794 148.488 33.797H43.51Z" fill="#D1D1D1"/>
<path d="M95.9991 69.794C83.4902 69.7797 71.4866 74.7288 62.6227 83.5551C55.016 91.0958 50.2353 101.024 49.0833 111.673H59.7889C60.7639 103.805 64.3965 96.5061 70.0852 90.9842C73.4864 87.5777 77.5258 84.8753 81.9724 83.0315C86.4189 81.1877 91.1854 80.2386 95.9991 80.2386C100.813 80.2386 105.579 81.1877 110.026 83.0315C114.472 84.8753 118.512 87.5777 121.913 90.9842C127.602 96.5062 131.234 103.805 132.209 111.673H142.915C141.763 101.024 136.982 91.0958 129.375 83.555C120.512 74.7287 108.508 69.7796 95.9991 69.794Z" fill="#C2D3E6"/>
<path d="M143.327 112.041H131.883L131.843 111.719C130.869 103.937 127.276 96.7174 121.655 91.2477C118.289 87.8747 114.29 85.1987 109.888 83.3727C105.486 81.5467 100.768 80.6066 96.0021 80.6061C91.2366 80.6057 86.5177 81.5449 82.1155 83.3701C77.7133 85.1953 73.7142 87.8706 70.3471 91.2429C64.7305 96.7182 61.1374 103.937 60.155 111.719L60.1152 112.041H48.6705L48.7167 111.633C50.0135 100.008 55.5564 89.272 64.2821 81.483C73.0079 73.6941 84.3021 69.4009 95.9985 69.4269H96.0341C108.622 69.457 120.692 74.439 129.636 83.2962C137.296 90.9002 142.112 100.903 143.281 111.633L143.327 112.041ZM132.534 111.306H142.5C141.274 100.893 136.555 91.2019 129.114 83.8147C120.308 75.0957 108.426 70.1914 96.0341 70.1616H95.999C84.5544 70.1359 73.4983 74.3107 64.9272 81.8946C56.3561 89.4784 50.866 99.9439 49.4979 111.306H59.4641C60.5254 103.481 64.1732 96.2356 69.8272 90.7225C73.2628 87.2823 77.3429 84.5531 81.8342 82.6912C86.3255 80.8292 91.1398 79.871 96.0017 79.8714C100.864 79.8718 105.678 80.8307 110.169 82.6933C114.66 84.5559 118.74 87.2856 122.175 90.7263C127.833 96.2341 131.481 103.481 132.534 111.306H132.534Z" fill="#6E8CBB"/>
</svg>
