<svg width="192" height="192" viewBox="0 0 192 192" fill="none" xmlns="http://www.w3.org/2000/svg">
<mask id="mask0_6045_638" style="mask-type:luminance" maskUnits="userSpaceOnUse" x="0" y="0" width="192" height="192">
<path d="M192 0H0V192H192V0Z" fill="white"/>
</mask>
<g mask="url(#mask0_6045_638)">
<path fill-rule="evenodd" clip-rule="evenodd" d="M144.5 14.7V177.4C144.5 179.3 144.1 181.2 143.4 183C142.7 184.8 141.6 186.4 140.2 187.8C138.8 189.2 137.2 190.2 135.4 191C133.6 191.7 131.7 192.1 129.8 192.1H63.3999C61.4999 192.1 59.5999 191.7 57.7999 191C55.9999 190.3 54.3999 189.2 52.9999 187.8C51.5999 186.4 50.5999 184.8 49.7999 183C49.0999 181.2 48.7 179.3 48.7 177.4V14.7C48.7 10.8 50.1999 7.1 52.9999 4.3C55.6999 1.6 59.4999 0 63.3999 0H129.8C131.7 0 133.6 0.4 135.4 1.1C137.2 1.8 138.8 2.9 140.2 4.3C141.6 5.7 142.6 7.3 143.4 9.1C144.1 10.9 144.5 12.8 144.5 14.7Z" fill="#06192D"/>
<path fill-rule="evenodd" clip-rule="evenodd" d="M139.5 177.3C139.5 179.9 138.5 182.3 136.7 184.1C134.9 185.9 132.4 186.9 129.9 186.9H63.4999C60.8999 186.9 58.4999 185.9 56.6999 184.1C54.8999 182.3 53.8999 179.8 53.8999 177.3V14.1999C53.9999 11.6999 55.0999 9.3999 56.8999 7.5999C58.6999 5.8999 61.0999 4.8999 63.5999 4.8999H130C132.5 4.8999 134.9 5.8999 136.7 7.5999C138.5 9.2999 139.6 11.5999 139.7 14.0999V177.3H139.5Z" fill="#112B47"/>
<path fill-rule="evenodd" clip-rule="evenodd" d="M146.2 45.3V65.9C146.2 66.1 146.2 66.3 146 66.4C145.9 66.5 145.7 66.6 145.5 66.6H144.5V44.5H145.5C145.7 44.5 145.9 44.5 146 44.7C146.1 44.8 146.2 45 146.2 45.2V45.3Z" fill="#06192D"/>
<path fill-rule="evenodd" clip-rule="evenodd" d="M48.8999 70.4H47.8999C47.5999 70.4 47.3999 70.3 47.1999 70.1C46.9999 69.9 46.8999 69.7 46.8999 69.4V58.5C46.8999 58.2 46.9999 58 47.1999 57.8C47.3999 57.6 47.5999 57.5 47.8999 57.5H48.8999V70.4Z" fill="#06192D"/>
<path fill-rule="evenodd" clip-rule="evenodd" d="M48.8999 52.7999H47.8999C47.5999 52.7999 47.3999 52.6999 47.1999 52.4999C46.9999 52.2999 46.8999 52.0999 46.8999 51.7999V40.8999C46.8999 40.5999 46.9999 40.3999 47.1999 40.1999C47.3999 39.9999 47.5999 39.8999 47.8999 39.8999H48.8999V52.7999Z" fill="#06192D"/>
<path fill-rule="evenodd" clip-rule="evenodd" d="M48.8999 26.7001H47.8999C47.5999 26.7001 47.3999 26.6001 47.1999 26.4001C46.9999 26.2001 46.8999 26.0001 46.8999 25.7001V20.6001C46.8999 20.3001 46.9999 20.1001 47.1999 19.9001C47.3999 19.7001 47.5999 19.6001 47.8999 19.6001H48.8999V26.7001Z" fill="#06192D"/>
<path fill-rule="evenodd" clip-rule="evenodd" d="M48.9 35.2H47.5C47.4 35.2 47.3 35.1 47.2 35C47.1 34.9 47 34.8 47 34.7V29.2C47 28.9 47.1 28.7 47.3 28.5C47.5 28.3 47.7 28.2 48 28.2H49V35.2999L48.9 35.2Z" fill="#06192D"/>
<path fill-rule="evenodd" clip-rule="evenodd" d="M139.5 14.9999V33.4999H53.7V14.1999C53.8 11.6999 54.9 9.3999 56.7 7.5999C58.5 5.8999 60.9 4.8999 63.4 4.8999H129.8C132.3 4.8999 134.7 5.8999 136.5 7.5999C138.3 9.2999 139.4 11.5999 139.5 14.0999V14.8999L139.5 14.9999Z" fill="#2D4068"/>
<path fill-rule="evenodd" clip-rule="evenodd" d="M114.4 12.2H78.8C77.3 12.2 75.8 11.6 74.7 10.5C73.6 9.39995 73 7.99995 73 6.39995V2.69995H120.1V6.39995C120.1 7.89995 119.5 9.39995 118.4 10.5C117.3 11.6 115.9 12.2 114.3 12.2H114.4Z" fill="#06192D"/>
<path d="M78.2 180.7H115" stroke="white" stroke-width="0.8" stroke-linecap="round" stroke-linejoin="round"/>
<path fill-rule="evenodd" clip-rule="evenodd" d="M126.6 71.9H73.4C73.1 71.9 72.8 71.7999 72.6 71.5999C72.4 71.3999 72.3 71.1 72.3 70.8V59.5C72.3 59.2 72.4 58.8999 72.6 58.6999C72.8 58.4999 73.1 58.4 73.4 58.4H126.6C126.9 58.4 127.2 58.4999 127.4 58.6999C127.6 58.8999 127.7 59.2 127.7 59.5V70.8C127.7 71.1 127.6 71.3999 127.4 71.5999C127.2 71.7999 126.9 71.9 126.6 71.9ZM117 147.8H63.8C63.5 147.8 63.2 147.7 63 147.5C62.8 147.3 62.7 147 62.7 146.7V135.4C62.7 135.1 62.8 134.8 63 134.6C63.2 134.4 63.5 134.3 63.8 134.3H117C117.3 134.3 117.6 134.4 117.8 134.6C118 134.8 118.1 135.1 118.1 135.4V147.1C118.1 147.2 118 147.4 117.9 147.5C117.8 147.6 117.7 147.7 117.5 147.7H117.1L117 147.8ZM117 129.9H63.8C63.5 129.9 63.2 129.8 63 129.6C62.8 129.4 62.7 129.1 62.7 128.8V89.0999C62.7 88.7999 62.8 88.4999 63 88.2999C63.2 88.0999 63.5 87.9999 63.8 87.9999H117C117.3 87.9999 117.6 88.0999 117.8 88.2999C118 88.4999 118.1 88.7999 118.1 89.0999V128.8C118.1 129.1 118 129.4 117.8 129.6C117.6 129.8 117.3 129.9 117 129.9ZM68.1 50.0999C68.1 51.0999 67.8 52 67.3 52.9C66.8 53.7 66 54.3999 65.1 54.6999C64.2 55.0999 63.2 55.2 62.2 55C61.2 54.8 60.3 54.2999 59.7 53.5999C59 52.8999 58.5 51.9999 58.3 51.0999C58.1 50.0999 58.3 49.0999 58.6 48.1999C59 47.2999 59.6 46.5 60.4 46C61.2 45.5 62.2 45.2 63.2 45.2C64.5 45.2 65.8 45.7 66.7 46.7C67.6 47.6 68.2 48.8999 68.2 50.1999L68.1 50.0999ZM133.9 92.6999C133.9 93.6999 133.6 94.5999 133.1 95.5C132.6 96.2999 131.8 97 130.9 97.3C130 97.7 129 97.7999 128 97.5999C127 97.3999 126.1 96.8999 125.5 96.1999C124.8 95.4999 124.3 94.5999 124.1 93.6999C123.9 92.6999 124.1 91.7 124.4 90.8C124.8 89.9 125.4 89.0999 126.2 88.5999C127 88.0999 128 87.8 129 87.8C130 87.8 131.6 88.3 132.5 89.3C133.4 90.2 134 91.5 134 92.8L133.9 92.6999ZM126.6 54.9H73.5C73.4 54.9 73.2 54.7999 73.1 54.6999C73 54.5999 72.9 54.5 72.9 54.3V47C72.9 46.9 73 46.6999 73.1 46.5999C73.2 46.4999 73.3 46.4 73.5 46.4H127C127.1 46.4 127.3 46.4999 127.4 46.5999C127.5 46.6999 127.6 46.8 127.6 47V53.9C127.6 54.2 127.5 54.4999 127.3 54.6999C127.1 54.8999 126.8 55 126.5 55L126.6 54.9Z" fill="#2D4068"/>
<path fill-rule="evenodd" clip-rule="evenodd" d="M117 165.2H63.8C63.5 165.2 63.2 165.1 63 164.9C62.8 164.7 62.7 164.4 62.7 164.1V152.8C62.7 152.5 62.8 152.2 63 152C63.2 151.8 63.5 151.7 63.8 151.7H117C117.3 151.7 117.6 151.8 117.8 152C118 152.2 118.1 152.5 118.1 152.8V164.1C118.1 164.4 118 164.7 117.8 164.9C117.6 165.1 117.3 165.2 117 165.2Z" fill="#2D4068"/>
<path d="M33.9707 189.6L35.0106 189.129L35.113 189.6H33.9707ZM56.6505 185.398L55.9315 186.58L56.103 185.207L56.6505 185.398Z" fill="white" stroke="white"/>
<path fill-rule="evenodd" clip-rule="evenodd" d="M27.7999 99.8999C27.7999 99.8999 14.7 144.6 14.7 145.5C14.7 146.4 51.2 176.2 51.9 176.2C52.6 176.2 55.4 170.8 55.4 169.8C55.4 168.8 46.7 161.7 46.7 161.7L27.7999 99.8999Z" fill="#2D4068"/>
<path fill-rule="evenodd" clip-rule="evenodd" d="M43.6999 111.5L40.7999 107.8L41.9999 101.5C37.1999 101.8 32.3999 101.2 27.7999 99.8999C28.6999 107 40.7999 180.5 40.7999 180.5H47.7999V180.1L51.8999 99.2C50.8999 99.8 49.8999 100.2 48.6999 100.5C46.0999 106.3 43.5999 111.5 43.5999 111.5L43.6999 111.5Z" fill="#4E6393"/>
<mask id="path-17-inside-1_6045_638" fill="white">
<path d="M169.8 142.8L169.6 142.5C168 139.6 165.7 137.2 162.9 135.5C160.1 133.8 156.9 132.9 153.6 132.9H153.2V113.4H153.6C167.5 113.4 179.5 120.4 186.4 132.6L186.6 132.9L169.8 142.7V142.8ZM154 132.1C157.3 132.1 160.5 133.1 163.3 134.8C166.1 136.5 168.5 138.9 170.1 141.7L185.5 132.7C178.7 121.1 167.3 114.3 153.9 114.2V132.1L154 132.1Z"/>
</mask>
<path d="M169.8 142.8L169.6 142.5C168 139.6 165.7 137.2 162.9 135.5C160.1 133.8 156.9 132.9 153.6 132.9H153.2V113.4H153.6C167.5 113.4 179.5 120.4 186.4 132.6L186.6 132.9L169.8 142.7V142.8ZM154 132.1C157.3 132.1 160.5 133.1 163.3 134.8C166.1 136.5 168.5 138.9 170.1 141.7L185.5 132.7C178.7 121.1 167.3 114.3 153.9 114.2V132.1L154 132.1Z" fill="white"/>
<path d="M169.8 142.8L168.968 143.355L170.8 146.103V142.8H169.8ZM169.6 142.5L168.724 142.983L168.745 143.02L168.768 143.055L169.6 142.5ZM153.2 132.9H152.2V133.9H153.2V132.9ZM153.2 113.4V112.4H152.2V113.4H153.2ZM186.4 132.6L185.53 133.092L185.548 133.124L185.568 133.155L186.4 132.6ZM186.6 132.9L187.104 133.764L188.021 133.229L187.432 132.345L186.6 132.9ZM169.8 142.7L169.296 141.836L168.8 142.126V142.7H169.8ZM154 132.1L154 133.1H154V132.1ZM170.1 141.7L169.232 142.196L169.733 143.073L170.605 142.563L170.1 141.7ZM185.5 132.7L186.004 133.563L186.869 133.058L186.363 132.194L185.5 132.7ZM153.9 114.2L153.907 113.2L152.9 113.192V114.2H153.9ZM153.9 132.1H152.9V133.1L153.9 133.1L153.9 132.1ZM170.632 142.245L170.432 141.945L168.768 143.055L168.968 143.355L170.632 142.245ZM170.476 142.017C168.792 138.965 166.369 136.436 163.419 134.645L162.381 136.355C165.031 137.963 167.208 140.235 168.724 142.983L170.476 142.017ZM163.419 134.645C160.463 132.85 157.083 131.9 153.6 131.9V133.9C156.717 133.9 159.737 134.75 162.381 136.355L163.419 134.645ZM153.6 131.9H153.2V133.9H153.6V131.9ZM154.2 132.9V113.4H152.2V132.9H154.2ZM153.2 114.4H153.6V112.4H153.2V114.4ZM153.6 114.4C167.138 114.4 178.806 121.204 185.53 133.092L187.27 132.108C180.194 119.595 167.862 112.4 153.6 112.4V114.4ZM185.568 133.155L185.768 133.455L187.432 132.345L187.232 132.045L185.568 133.155ZM186.096 132.036L169.296 141.836L170.304 143.564L187.104 133.764L186.096 132.036ZM168.8 142.7V142.8H170.8V142.7H168.8ZM154 133.1C157.097 133.1 160.119 134.039 162.781 135.655L163.819 133.945C160.881 132.161 157.503 131.1 154 131.1V133.1ZM162.781 135.655C165.445 137.272 167.721 139.553 169.232 142.196L170.968 141.204C169.279 138.247 166.754 135.727 163.819 133.945L162.781 135.655ZM170.605 142.563L186.004 133.563L184.995 131.837L169.595 140.837L170.605 142.563ZM186.363 132.194C179.391 120.301 167.672 113.303 153.907 113.2L153.892 115.2C166.928 115.297 178.009 121.899 184.637 133.206L186.363 132.194ZM152.9 114.2V132.1H154.9V114.2H152.9ZM153.9 133.1L154 133.1L154 131.1L153.9 131.1L153.9 133.1Z" fill="white" mask="url(#path-17-inside-1_6045_638)"/>
<path d="M153.8 170.499C153.829 170.499 153.858 170.498 153.887 170.498L153.892 170.8H153.8V170.499Z" fill="white" stroke="white"/>
<path d="M147.4 111.003V111.1H147.8V129.6C137.461 129.655 129.1 138.266 129.1 148.7C129.1 152.141 129.999 155.484 131.698 158.431L115.387 167.97C112.063 162.169 110.4 155.685 110.4 149C110.4 128.24 127.01 111.277 147.4 111.003Z" fill="white" stroke="white"/>
<mask id="path-21-inside-2_6045_638" fill="white">
<path fill-rule="evenodd" clip-rule="evenodd" d="M137.6 160.7L138 161.4L121.1 171.3L120.9 170.8V170.5L137.7 160.7H137.6Z"/>
</mask>
<path fill-rule="evenodd" clip-rule="evenodd" d="M137.6 160.7L138 161.4L121.1 171.3L120.9 170.8V170.5L137.7 160.7H137.6Z" fill="white"/>
<path d="M137.6 160.7V159.7H135.877L136.732 161.196L137.6 160.7ZM138 161.4L138.505 162.263L139.359 161.763L138.868 160.904L138 161.4ZM121.1 171.3L120.172 171.671L120.603 172.75L121.605 172.163L121.1 171.3ZM120.9 170.8H119.9V170.993L119.972 171.171L120.9 170.8ZM120.9 170.5L120.396 169.636L119.9 169.926V170.5H120.9ZM137.7 160.7L138.204 161.564L141.399 159.7H137.7V160.7ZM136.732 161.196L137.132 161.896L138.868 160.904L138.468 160.204L136.732 161.196ZM137.495 160.537L120.595 170.437L121.605 172.163L138.505 162.263L137.495 160.537ZM122.028 170.929L121.829 170.429L119.972 171.171L120.172 171.671L122.028 170.929ZM121.9 170.8V170.5H119.9V170.8H121.9ZM121.404 171.364L138.204 161.564L137.196 159.836L120.396 169.636L121.404 171.364ZM137.7 159.7H137.6V161.7H137.7V159.7Z" fill="white" mask="url(#path-21-inside-2_6045_638)"/>
<mask id="path-23-inside-3_6045_638" fill="white">
<path d="M55.2896 65.0282C56.2222 63.7226 55.4253 54.7064 52.7374 49.622C51.6622 47.5886 50.4047 46.3686 48.9816 45.9267C47.4225 43.1565 45.5088 41.3882 43.2901 40.6512V33.8642C43.321 33.7936 43.3501 33.7207 43.3803 33.6492C44.43 33.4907 45.2398 32.5907 45.2398 31.4975C45.2398 30.2929 44.2598 29.3129 43.0552 29.3129C42.7789 29.3129 42.5552 29.5365 42.5552 29.8129C42.5552 30.0893 42.7789 30.3129 43.0552 30.3129C43.7085 30.3129 44.2398 30.8441 44.2398 31.4975C44.2398 32.1508 43.7085 32.682 43.0552 32.682C43.0503 32.682 43.0464 32.6847 43.0416 32.6848C42.8402 32.6816 42.6495 32.7981 42.5704 32.9955C42.5025 33.1649 42.4322 33.3315 42.3599 33.4945C42.316 33.5683 42.2906 33.6547 42.2901 33.7465V33.7699L42.2981 41.0158C42.2985 41.0386 42.2947 41.0612 42.2982 41.0834L42.3008 43.5336C42.1802 43.7304 41.1148 44.121 39.1983 44.1313C38.9224 44.1327 38.6998 44.3578 38.7012 44.6342C38.7027 44.9091 38.9263 45.1313 39.2012 45.1313H39.2042C40.4327 45.1244 43.2901 44.9604 43.2901 43.5819V41.7083C44.9547 42.3573 46.4344 43.7047 47.7036 45.7311C47.7025 45.7311 47.7014 45.7309 47.7003 45.7309C46.3804 45.7597 45.1807 46.3822 44.1348 47.5805C43.9537 47.7885 43.9752 48.1044 44.1832 48.2861C44.3907 48.4677 44.7071 48.4457 44.8887 48.2377C45.7418 47.2602 46.6949 46.7533 47.7217 46.7309C49.2047 46.6684 50.588 47.7719 51.7652 49.9247C54.5157 54.956 55.085 63.5414 54.4761 64.4472C54.3993 64.5547 54.2162 64.6705 53.9456 64.789C53.9354 64.7939 53.9246 64.7967 53.9149 64.8022C52.7004 65.3227 49.791 65.8957 46.5147 66.0805C42.9537 66.2802 41.6007 65.8764 41.3843 65.6366C41.2994 65.5326 41.0728 64.873 41.0455 63.0951C41.0411 62.8217 40.8184 62.603 40.5455 62.603H40.5377C40.2618 62.6073 40.0411 62.8344 40.0455 63.1108C40.085 65.6864 40.502 66.1508 40.6397 66.3041C40.9228 66.6186 41.4805 66.8222 42.1808 66.9499C42.5554 70.4967 43.7315 78.3338 45.3297 82.6459C44.8184 85.2829 43.0462 94.5616 41.7971 101.107C35.3105 101.317 28.9863 100.499 28.398 99.8778C27.4161 98.0653 21.2574 50.9325 35.8633 42.518C35.8815 42.5075 35.8922 42.4905 35.9085 42.4783C35.9371 42.4568 35.9641 42.4357 35.9876 42.4087C36.0084 42.3847 36.0236 42.3591 36.0393 42.332C36.0556 42.3041 36.0707 42.277 36.0814 42.2461C36.0927 42.2132 36.0972 42.1803 36.1016 42.1459C36.1043 42.1249 36.1138 42.1065 36.1138 42.0849V38.392C36.1148 38.3598 36.1124 38.3281 36.107 38.2968C36.0948 38.2241 36.0665 38.1567 36.0264 38.0981C35.9859 38.039 35.9327 37.9877 35.8682 37.9496C35.8414 37.934 35.813 37.9203 35.7838 37.9101C32.8834 36.7817 30.9796 32.1078 31.2554 26.789C31.2696 26.5131 31.0577 26.2783 30.7818 26.2636C30.5025 26.2407 30.2706 26.4609 30.2564 26.7372C29.9683 32.2939 31.9962 37.2407 35.1138 38.7099V41.8097C31.3074 44.1446 28.5547 49.0867 26.9361 56.52C25.7736 61.8582 25.3103 68.1087 25.2507 74.1957L24.5343 73.7431C16.4263 68.6137 7.59285 63.1415 5.40633 63.1415C4.24324 63.1415 3.39022 63.4116 2.87069 63.9443C2.26278 64.5678 2.2828 65.3535 2.29403 65.8271C2.29403 66.517 2.70809 70.0492 10.8263 72.1982C12.0626 73.5584 21.301 82.9137 25.5721 85.6354C26.0844 93.6317 27.0651 99.7291 27.5733 100.442C28.3927 101.588 34.5831 102.14 39.7833 102.14C40.4117 102.14 41.0169 102.129 41.6051 102.113C40.9622 105.482 40.4991 107.911 40.4991 107.911C40.4722 108.052 40.5069 108.197 40.5948 108.31L43.4825 112.046C43.5777 112.169 43.7242 112.24 43.878 112.24C43.8961 112.24 43.9141 112.239 43.9322 112.237C44.1056 112.219 44.2564 112.11 44.3302 111.953C44.5301 111.529 46.805 106.692 49.2494 101.259C51.451 100.708 52.6945 99.9295 53.026 98.8818C53.239 98.2202 53.6183 95.0496 53.9065 90.4635C54.7607 88.3259 55.3539 86.6518 55.4732 85.8676C55.9392 82.8022 55.0575 69.6601 54.6864 65.5091C54.9555 65.3589 55.1674 65.1994 55.2896 65.0282ZM11.4878 71.4379C11.421 71.3549 11.3287 71.2963 11.2256 71.2694C3.38433 69.2333 3.294 65.9652 3.294 65.8271L3.29205 65.7055C3.28424 65.4101 3.27301 64.9643 3.58697 64.6425C3.90631 64.3148 4.53521 64.1415 5.40631 64.1415C7.48639 64.1415 19.0582 71.4623 23.9996 74.5883L25.2435 75.374C25.2391 78.4893 25.3365 81.5408 25.497 84.3861C20.9698 81.1887 11.9908 72.0559 11.4878 71.4379ZM52.0733 98.578C51.8958 99.1392 51.0883 99.656 49.7828 100.07C50.7911 97.8153 51.8039 95.5085 52.6916 93.4087C52.448 96.3681 52.1981 98.1903 52.0733 98.578ZM54.4849 85.7172C54.3748 86.4408 53.8113 88.0226 52.9968 90.0575C52.9686 90.1025 52.9504 90.1521 52.9376 90.2058C51.7624 93.1294 50.0856 96.9549 48.464 100.562C48.4415 100.596 48.4289 100.633 48.415 100.671C46.4255 105.095 44.5312 109.165 43.773 110.787L41.5235 107.877C41.959 105.594 45.6348 86.3187 46.3379 82.6977C46.356 82.6063 46.3477 82.5121 46.3145 82.4252C44.7598 78.3258 43.5987 70.7171 43.1994 67.0763C43.6877 67.1154 44.2045 67.1343 44.73 67.1342C45.3526 67.1342 45.982 67.1117 46.5709 67.0785C48.743 66.9563 51.824 66.5686 53.7189 65.9227C54.1649 71.0044 54.9057 82.9483 54.4849 85.7172Z"/>
</mask>
<path d="M55.2896 65.0282C56.2222 63.7226 55.4253 54.7064 52.7374 49.622C51.6622 47.5886 50.4047 46.3686 48.9816 45.9267C47.4225 43.1565 45.5088 41.3882 43.2901 40.6512V33.8642C43.321 33.7936 43.3501 33.7207 43.3803 33.6492C44.43 33.4907 45.2398 32.5907 45.2398 31.4975C45.2398 30.2929 44.2598 29.3129 43.0552 29.3129C42.7789 29.3129 42.5552 29.5365 42.5552 29.8129C42.5552 30.0893 42.7789 30.3129 43.0552 30.3129C43.7085 30.3129 44.2398 30.8441 44.2398 31.4975C44.2398 32.1508 43.7085 32.682 43.0552 32.682C43.0503 32.682 43.0464 32.6847 43.0416 32.6848C42.8402 32.6816 42.6495 32.7981 42.5704 32.9955C42.5025 33.1649 42.4322 33.3315 42.3599 33.4945C42.316 33.5683 42.2906 33.6547 42.2901 33.7465V33.7699L42.2981 41.0158C42.2985 41.0386 42.2947 41.0612 42.2982 41.0834L42.3008 43.5336C42.1802 43.7304 41.1148 44.121 39.1983 44.1313C38.9224 44.1327 38.6998 44.3578 38.7012 44.6342C38.7027 44.9091 38.9263 45.1313 39.2012 45.1313H39.2042C40.4327 45.1244 43.2901 44.9604 43.2901 43.5819V41.7083C44.9547 42.3573 46.4344 43.7047 47.7036 45.7311C47.7025 45.7311 47.7014 45.7309 47.7003 45.7309C46.3804 45.7597 45.1807 46.3822 44.1348 47.5805C43.9537 47.7885 43.9752 48.1044 44.1832 48.2861C44.3907 48.4677 44.7071 48.4457 44.8887 48.2377C45.7418 47.2602 46.6949 46.7533 47.7217 46.7309C49.2047 46.6684 50.588 47.7719 51.7652 49.9247C54.5157 54.956 55.085 63.5414 54.4761 64.4472C54.3993 64.5547 54.2162 64.6705 53.9456 64.789C53.9354 64.7939 53.9246 64.7967 53.9149 64.8022C52.7004 65.3227 49.791 65.8957 46.5147 66.0805C42.9537 66.2802 41.6007 65.8764 41.3843 65.6366C41.2994 65.5326 41.0728 64.873 41.0455 63.0951C41.0411 62.8217 40.8184 62.603 40.5455 62.603H40.5377C40.2618 62.6073 40.0411 62.8344 40.0455 63.1108C40.085 65.6864 40.502 66.1508 40.6397 66.3041C40.9228 66.6186 41.4805 66.8222 42.1808 66.9499C42.5554 70.4967 43.7315 78.3338 45.3297 82.6459C44.8184 85.2829 43.0462 94.5616 41.7971 101.107C35.3105 101.317 28.9863 100.499 28.398 99.8778C27.4161 98.0653 21.2574 50.9325 35.8633 42.518C35.8815 42.5075 35.8922 42.4905 35.9085 42.4783C35.9371 42.4568 35.9641 42.4357 35.9876 42.4087C36.0084 42.3847 36.0236 42.3591 36.0393 42.332C36.0556 42.3041 36.0707 42.277 36.0814 42.2461C36.0927 42.2132 36.0972 42.1803 36.1016 42.1459C36.1043 42.1249 36.1138 42.1065 36.1138 42.0849V38.392C36.1148 38.3598 36.1124 38.3281 36.107 38.2968C36.0948 38.2241 36.0665 38.1567 36.0264 38.0981C35.9859 38.039 35.9327 37.9877 35.8682 37.9496C35.8414 37.934 35.813 37.9203 35.7838 37.9101C32.8834 36.7817 30.9796 32.1078 31.2554 26.789C31.2696 26.5131 31.0577 26.2783 30.7818 26.2636C30.5025 26.2407 30.2706 26.4609 30.2564 26.7372C29.9683 32.2939 31.9962 37.2407 35.1138 38.7099V41.8097C31.3074 44.1446 28.5547 49.0867 26.9361 56.52C25.7736 61.8582 25.3103 68.1087 25.2507 74.1957L24.5343 73.7431C16.4263 68.6137 7.59285 63.1415 5.40633 63.1415C4.24324 63.1415 3.39022 63.4116 2.87069 63.9443C2.26278 64.5678 2.2828 65.3535 2.29403 65.8271C2.29403 66.517 2.70809 70.0492 10.8263 72.1982C12.0626 73.5584 21.301 82.9137 25.5721 85.6354C26.0844 93.6317 27.0651 99.7291 27.5733 100.442C28.3927 101.588 34.5831 102.14 39.7833 102.14C40.4117 102.14 41.0169 102.129 41.6051 102.113C40.9622 105.482 40.4991 107.911 40.4991 107.911C40.4722 108.052 40.5069 108.197 40.5948 108.31L43.4825 112.046C43.5777 112.169 43.7242 112.24 43.878 112.24C43.8961 112.24 43.9141 112.239 43.9322 112.237C44.1056 112.219 44.2564 112.11 44.3302 111.953C44.5301 111.529 46.805 106.692 49.2494 101.259C51.451 100.708 52.6945 99.9295 53.026 98.8818C53.239 98.2202 53.6183 95.0496 53.9065 90.4635C54.7607 88.3259 55.3539 86.6518 55.4732 85.8676C55.9392 82.8022 55.0575 69.6601 54.6864 65.5091C54.9555 65.3589 55.1674 65.1994 55.2896 65.0282ZM11.4878 71.4379C11.421 71.3549 11.3287 71.2963 11.2256 71.2694C3.38433 69.2333 3.294 65.9652 3.294 65.8271L3.29205 65.7055C3.28424 65.4101 3.27301 64.9643 3.58697 64.6425C3.90631 64.3148 4.53521 64.1415 5.40631 64.1415C7.48639 64.1415 19.0582 71.4623 23.9996 74.5883L25.2435 75.374C25.2391 78.4893 25.3365 81.5408 25.497 84.3861C20.9698 81.1887 11.9908 72.0559 11.4878 71.4379ZM52.0733 98.578C51.8958 99.1392 51.0883 99.656 49.7828 100.07C50.7911 97.8153 51.8039 95.5085 52.6916 93.4087C52.448 96.3681 52.1981 98.1903 52.0733 98.578ZM54.4849 85.7172C54.3748 86.4408 53.8113 88.0226 52.9968 90.0575C52.9686 90.1025 52.9504 90.1521 52.9376 90.2058C51.7624 93.1294 50.0856 96.9549 48.464 100.562C48.4415 100.596 48.4289 100.633 48.415 100.671C46.4255 105.095 44.5312 109.165 43.773 110.787L41.5235 107.877C41.959 105.594 45.6348 86.3187 46.3379 82.6977C46.356 82.6063 46.3477 82.5121 46.3145 82.4252C44.7598 78.3258 43.5987 70.7171 43.1994 67.0763C43.6877 67.1154 44.2045 67.1343 44.73 67.1342C45.3526 67.1342 45.982 67.1117 46.5709 67.0785C48.743 66.9563 51.824 66.5686 53.7189 65.9227C54.1649 71.0044 54.9057 82.9483 54.4849 85.7172Z" fill="white" stroke="white" stroke-width="2" mask="url(#path-23-inside-3_6045_638)"/>
<path d="M45.7027 19.3843C45.7027 19.9954 45.8934 20.4823 46.1782 20.8933C45.8861 20.4765 45.7027 19.9955 45.7027 19.3843ZM45.7027 19.3843C45.7027 18.874 45.5316 17.6286 44.9927 16.3792C45.6122 17.8562 45.7027 19.3057 45.7027 19.3843ZM23.7063 21.833L23.7063 21.8331C23.7022 21.8488 23.6982 21.8644 23.6941 21.88C23.6955 21.8747 23.6969 21.8694 23.6983 21.8641L23.7063 21.833L23.7063 21.833ZM23.7063 21.833L23.714 21.8033C23.7199 21.7802 23.7259 21.7569 23.732 21.7335M23.7063 21.833L23.732 21.7335M23.732 21.7335C23.7235 21.7665 23.715 21.7995 23.7064 21.8327L23.732 21.7335ZM27.7329 11.8438C27.078 11.8438 26.0592 12.1353 25.1993 12.756C24.3211 13.3901 23.5615 14.4052 23.5615 15.8545C23.5615 15.9005 23.5619 15.9462 23.5627 15.9916C23.5619 15.9462 23.5615 15.9005 23.5615 15.8545C23.5615 14.4672 24.2351 13.4767 25.1071 12.8172C25.9959 12.1449 27.059 11.8438 27.7329 11.8438ZM27.7329 11.8438C28.9401 11.8438 29.7622 12.232 30.6066 12.6308L30.6283 12.641L30.6286 12.6411L30.6371 12.6452C31.2943 12.9551 31.9872 13.2818 32.9202 13.5026C31.9887 13.282 31.2939 12.9548 30.6284 12.6406C29.7121 12.2085 28.9309 11.8438 27.7329 11.8438ZM48.9155 23.563C49.2082 23.9993 49.3921 24.5089 49.3921 25.1602C49.3921 24.5089 49.2025 23.9947 48.9155 23.563ZM45.7762 30.6811L45.7762 30.6811L45.7749 30.6818L45.7753 30.6816L45.7763 30.6814L45.7763 30.6813L45.7764 30.6813C45.7766 30.6812 45.7768 30.6812 45.7769 30.6812C45.7771 30.6812 45.7772 30.6812 45.7772 30.6812C45.7772 30.6812 45.7771 30.6812 45.7769 30.6812L45.7762 30.6811ZM28.2144 27.2461C27.7687 27.2461 26.5231 26.9995 25.3945 26.3747C24.2689 25.7516 23.4014 24.8373 23.4014 23.5557C23.4014 25.0109 24.556 25.9356 25.591 26.463C26.1268 26.7361 26.6792 26.9295 27.139 27.0549C27.585 27.1767 27.9863 27.2461 28.2144 27.2461ZM24.043 19.8657C24.043 20.314 23.9673 20.7526 23.863 21.2038C23.9623 20.772 24.043 20.3143 24.043 19.8657C24.043 19.7445 24.0374 19.6216 24.0275 19.4969C24.0375 19.6219 24.043 19.7445 24.043 19.8657ZM23.8344 18.2155C23.8344 18.2155 23.8344 18.2156 23.8344 18.2157C23.8527 18.3158 23.8706 18.4136 23.8876 18.5093C23.8716 18.4198 23.855 18.3298 23.8384 18.2392L23.8341 18.2162C23.8341 18.2161 23.8341 18.2161 23.8341 18.216C23.8127 18.099 23.7911 17.9806 23.7698 17.8607C23.7908 17.9783 23.812 18.0939 23.8329 18.2077L23.8344 18.2155Z" fill="white" stroke="white"/>
<path d="M32.5927 30.8637L32.5928 30.8637L32.5929 30.8638L32.593 30.8637C32.658 30.7835 32.7155 30.6897 32.7664 30.5873C32.7143 30.6917 32.6566 30.785 32.5928 30.8635C32.5928 30.8636 32.5928 30.8636 32.5927 30.8637ZM32.5923 30.8641L32.5922 30.8642L32.5922 30.864L32.5923 30.8638L32.5927 30.8635L32.5923 30.864L32.5923 30.8641Z" fill="white" stroke="white"/>
<path d="M35.736 31.751C35.736 31.9411 35.682 32.1762 35.5742 32.4015C35.6797 32.1757 35.736 31.9347 35.736 31.751Z" fill="white" stroke="white"/>
<mask id="path-27-inside-4_6045_638" fill="white">
<path d="M35.1871 28.515C35.1871 28.2278 35.0485 27.9951 34.8774 27.9951C34.7064 27.9951 34.5677 28.2278 34.5677 28.515C34.5677 28.8021 34.7064 29.0348 34.8774 29.0348C35.0485 29.0348 35.1871 28.8021 35.1871 28.515Z"/>
</mask>
<path d="M35.1871 28.515C35.1871 28.2278 35.0485 27.9951 34.8774 27.9951C34.7064 27.9951 34.5677 28.2278 34.5677 28.515C34.5677 28.8021 34.7064 29.0348 34.8774 29.0348C35.0485 29.0348 35.1871 28.8021 35.1871 28.515Z" fill="white"/>
<path d="M36.1871 28.515C36.1871 28.2226 36.1186 27.9094 35.9555 27.6357C35.805 27.3829 35.4558 26.9951 34.8774 26.9951V28.9951C34.4701 28.9951 34.2757 28.7237 34.2372 28.6591C34.1863 28.5735 34.1871 28.5202 34.1871 28.515H36.1871ZM34.8774 26.9951C34.2991 26.9951 33.9499 27.3829 33.7994 27.6355C33.6363 27.9093 33.5677 28.2225 33.5677 28.515H35.5677C35.5677 28.5203 35.5685 28.5736 35.5176 28.6592C35.4791 28.7237 35.2847 28.9951 34.8774 28.9951V26.9951ZM33.5677 28.515C33.5677 28.8074 33.6363 29.1206 33.7994 29.3944C33.9499 29.6471 34.2991 30.0348 34.8774 30.0348V28.0348C35.2847 28.0348 35.4791 28.3062 35.5176 28.3707C35.5685 28.4563 35.5677 28.5097 35.5677 28.515H33.5677ZM34.8774 30.0348C35.4558 30.0348 35.805 29.647 35.9555 29.3943C36.1186 29.1205 36.1871 28.8073 36.1871 28.515H34.1871C34.1871 28.5097 34.1863 28.4564 34.2372 28.3708C34.2757 28.3063 34.4701 28.0348 34.8774 28.0348V30.0348Z" fill="white" mask="url(#path-27-inside-4_6045_638)"/>
<path fill-rule="evenodd" clip-rule="evenodd" d="M9.34497 68.9713L-0.155029 62.7713L5.04497 59.8713L14.245 65.6713L9.34497 68.8713V68.9713Z" fill="#D1D1D1"/>
</g>
</svg>
