<svg width="192" height="192" viewBox="0 0 192 192" fill="none" xmlns="http://www.w3.org/2000/svg">
<path d="M92.6326 110.702C92.6326 110.702 72.055 113.85 82.3745 126.562C92.694 139.273 112.862 129.183 112.862 129.183C112.862 129.183 118.433 135.989 126.589 129.74C126.589 129.74 144.473 138.083 152.533 129.926C152.533 129.926 159.299 132.625 163.212 129.321C163.212 129.321 184.09 135.881 185.102 123.456C186.114 111.03 168.2 112.035 165.316 115.381C164.2 112.959 162.282 110.998 159.886 109.828C157.49 108.658 154.763 108.352 152.167 108.961C152.167 108.961 149.666 94.1421 134.538 98.5498C134.538 98.5498 105.082 87.3129 92.6326 110.702Z" fill="#E6E6E6"/>
<path d="M41.4568 70.3261C43.196 59.8596 52.3663 62.1432 52.3663 62.1432C51.892 57.1954 57.2677 55.673 57.2677 55.673C52.0501 43.6842 60.7461 39.3073 60.7461 39.3073C65.0151 23.5124 77.5058 31.3147 77.5058 31.3147C95.3721 26.3669 101.064 45.5871 101.064 45.5871C112.132 36.8334 118.93 47.4901 118.93 47.4901C124.78 48.061 127.152 54.1506 127.152 54.1506C140.433 51.867 142.647 66.1395 142.647 66.1395C144.241 65.4124 146.044 65.2814 147.726 65.7703C149.409 66.2592 150.861 67.3355 151.817 68.8037C157.193 65.188 163.675 68.8037 162.252 77.3671C160.829 85.9306 151.027 81.744 151.027 81.744C139.801 88.4045 127.943 82.6955 127.943 82.6955C120.986 85.1694 117.349 81.9343 117.349 81.9343C103.12 93.7329 79.7194 83.647 79.7194 83.647C68.8097 91.0687 57.4258 83.2664 57.4258 83.2664C53.6312 86.8821 47.6231 84.4082 47.6231 84.4082C30.7053 90.6881 26.1202 81.3635 26.1202 81.3635C26.1202 81.3635 16.7917 86.5015 13.7876 79.8411C10.7836 73.1806 16.0012 68.2328 24.2229 70.3261C26.5548 68.6326 29.4128 67.8232 32.2864 68.0425C35.4667 68.172 38.5872 68.949 41.4568 70.3261Z" fill="#E6E6E6"/>
<path d="M179.904 49.3096L140.088 160.472L105.749 138.449L84.9012 125.136L179.851 49.336L179.891 49.3096H179.904Z" fill="white"/>
<path d="M140.088 160.839C140.017 160.839 139.948 160.819 139.889 160.78L105.551 138.759L84.7035 125.445C84.6543 125.413 84.6134 125.37 84.584 125.32C84.5546 125.27 84.5377 125.213 84.5347 125.155C84.5316 125.096 84.5425 125.038 84.5665 124.985C84.5905 124.932 84.6268 124.885 84.6724 124.849L179.622 49.0497C179.707 48.9853 179.813 48.9547 179.919 48.9637C180.025 48.9727 180.125 49.0207 180.198 49.0985C180.233 49.146 180.256 49.2013 180.265 49.2596C180.274 49.3178 180.269 49.3775 180.25 49.4334L140.434 160.595C140.415 160.647 140.385 160.695 140.346 160.733C140.306 160.772 140.259 160.801 140.206 160.819C140.168 160.832 140.128 160.839 140.088 160.839ZM85.5315 125.102L105.947 138.141L139.897 159.914L179.128 50.386L85.5315 125.102Z" fill="#6E8CBB"/>
<path d="M179.851 49.3362L84.9012 125.136L84.8875 125.122L72.2381 162.096L64.5326 113.672L179.851 49.3362Z" fill="#8C8C8C"/>
<path d="M72.2376 162.463L72.206 162.462C72.1244 162.455 72.0475 162.421 71.9875 162.365C71.9275 162.309 71.8879 162.235 71.875 162.154L64.1703 113.73C64.1583 113.655 64.1696 113.579 64.2024 113.512C64.2353 113.444 64.2882 113.388 64.354 113.352L179.672 49.0164C179.752 48.9715 179.846 48.9584 179.936 48.9798C180.026 49.0011 180.104 49.0554 180.155 49.1319C180.207 49.2083 180.227 49.3012 180.213 49.3922C180.199 49.4833 180.152 49.5657 180.08 49.6232L85.1899 125.375L72.5853 162.215C72.5605 162.287 72.5136 162.35 72.4513 162.395C72.3889 162.439 72.3142 162.463 72.2376 162.463ZM64.9361 113.867L72.3682 160.58L84.5404 125.004C84.5581 124.952 84.5872 124.905 84.6254 124.866C84.6636 124.827 84.7101 124.797 84.7614 124.778L176.149 51.8218L64.9361 113.867Z" fill="#424242"/>
<path d="M179.891 49.3096L179.851 49.336L64.5326 113.672L11.76 84.8991L179.891 49.3096Z" fill="#D1D1D1"/>
<path d="M64.5329 114.039C64.4714 114.039 64.4108 114.023 64.3569 113.994L11.5837 85.2213C11.5178 85.1855 11.4645 85.1303 11.431 85.0632C11.3975 84.9961 11.3853 84.9203 11.3962 84.8461C11.4071 84.7718 11.4405 84.7027 11.4919 84.6481C11.5433 84.5935 11.6103 84.5559 11.6837 84.5405L179.815 48.951C179.898 48.9331 179.985 48.945 180.061 48.9845C180.137 49.0239 180.196 49.0886 180.229 49.1672C180.263 49.2459 180.267 49.3337 180.243 49.4154C180.218 49.4972 180.166 49.5678 180.095 49.615L180.054 49.6418L64.7118 113.992C64.6571 114.023 64.5955 114.039 64.5329 114.039ZM12.8078 85.0527L64.531 113.253L177.606 50.1683L12.8078 85.0527Z" fill="#292929"/>
<path d="M105.749 138.45L72.2508 162.123L72.238 162.096L84.8748 125.162L84.9012 125.136L105.749 138.45Z" fill="#666666"/>
<path d="M72.251 162.49C72.2208 162.49 72.1908 162.486 72.1615 162.479C72.1102 162.466 72.0622 162.442 72.021 162.409C71.9797 162.376 71.9461 162.334 71.9224 162.287C71.8743 162.191 71.8627 162.081 71.8899 161.978L84.527 125.044C84.5452 124.991 84.5753 124.943 84.615 124.903C84.6769 124.84 84.7574 124.798 84.8446 124.785C84.9319 124.771 85.0213 124.785 85.0995 124.826L105.947 138.141C105.998 138.173 106.04 138.218 106.07 138.27C106.099 138.323 106.115 138.381 106.117 138.442C106.118 138.502 106.105 138.561 106.078 138.615C106.051 138.669 106.011 138.715 105.962 138.75L72.4634 162.423C72.4013 162.466 72.3271 162.49 72.251 162.49ZM85.0833 125.687L72.9359 161.189L105.092 138.465L85.0833 125.687Z" fill="#292929"/>
<path d="M72.251 162.612C72.211 162.612 72.1712 162.607 72.1324 162.598C72.0638 162.581 71.9998 162.549 71.9446 162.505C71.8895 162.461 71.8446 162.405 71.8129 162.342C71.7861 162.288 71.7663 162.232 71.754 162.173L64.0871 113.986L11.525 85.3289C11.4372 85.2809 11.3662 85.2073 11.3216 85.1178C11.2769 85.0282 11.2608 84.9272 11.2753 84.8283C11.2899 84.7293 11.3344 84.6372 11.4029 84.5643C11.4714 84.4914 11.5605 84.4413 11.6584 84.4206L179.789 48.8311C179.823 48.824 179.857 48.8205 179.891 48.8206H179.904C179.983 48.8205 180.06 48.8393 180.13 48.8754C180.199 48.9114 180.259 48.9638 180.305 49.0279C180.35 49.092 180.379 49.1661 180.389 49.2438C180.4 49.3216 180.392 49.4007 180.365 49.4746L140.549 160.637C140.524 160.706 140.484 160.769 140.432 160.82C140.379 160.872 140.316 160.911 140.246 160.935C140.177 160.959 140.103 160.967 140.03 160.958C139.957 160.949 139.887 160.924 139.825 160.885L105.526 139.077L72.5351 162.522C72.4522 162.581 72.3529 162.612 72.251 162.612ZM13.157 85.1038L64.7677 113.242C64.8334 113.278 64.89 113.329 64.9331 113.39C64.9762 113.451 65.0047 113.521 65.0165 113.595L72.6026 161.273L105.226 138.089C105.306 138.033 105.4 138.001 105.498 137.999C105.595 137.996 105.691 138.023 105.773 138.075L139.833 159.73L179.148 49.9672L13.157 85.1038Z" fill="#8C8C8C"/>
<path d="M10.277 130.654L9.52173 129.399L36.0794 113.267L36.8347 114.522L10.277 130.654Z" fill="#C2D3E6"/>
<path d="M7.2304 112.849L6.85718 111.431L25.9622 106.368L26.3354 107.786L7.2304 112.849Z" fill="#C2D3E6"/>
</svg>
