<svg width="192" height="192" viewBox="0 0 192 192" fill="none" xmlns="http://www.w3.org/2000/svg">
<path d="M157.499 171.301C157.061 173.264 155.963 175.017 154.389 176.268C152.815 177.52 150.86 178.194 148.849 178.178H33.3551C31.0245 178.194 28.7828 177.285 27.121 175.65C25.4593 174.016 24.5131 171.79 24.4897 169.46V31.249C24.5124 29.0884 25.3282 27.0114 26.7822 25.413C28.2361 23.8146 30.2267 22.8062 32.3755 22.5796C32.3445 22.8528 32.3282 23.1275 32.3265 23.4024V161.603C32.3456 164.194 33.3934 166.672 35.2392 168.491C37.085 170.309 39.5777 171.32 42.1689 171.301H42.1714H157.499Z" fill="#E6E6E6"/>
<path d="M167.216 57.5509L122.998 13.9983C122.904 13.9069 122.794 13.8348 122.673 13.786C122.552 13.7373 122.423 13.7129 122.292 13.7142H42.1714C40.0524 13.6966 37.9854 14.3707 36.2841 15.6342C35.909 15.9109 35.5554 16.2154 35.2261 16.5452C35.0498 16.7216 34.8931 16.8979 34.7265 17.084C34.6286 17.2015 34.5306 17.3191 34.4425 17.4367C34.3739 17.5052 34.3249 17.5836 34.2661 17.6522C34.2074 17.7403 34.1388 17.8285 34.08 17.9167L34.0212 18.0048C33.0715 19.3541 32.503 20.9344 32.3755 22.5795C32.3446 22.8527 32.3282 23.1274 32.3265 23.4024V161.603C32.3457 164.194 33.3934 166.672 35.2392 168.491C37.085 170.309 39.5777 171.32 42.1689 171.301H42.1714H157.665C160.253 171.324 162.744 170.319 164.59 168.506C166.436 166.692 167.487 164.22 167.51 161.632L167.51 161.603V58.2464C167.51 58.1168 167.483 57.9886 167.433 57.8692C167.383 57.7498 167.309 57.6416 167.216 57.5509ZM166.531 161.603C166.511 163.858 165.626 166.02 164.058 167.64C162.49 169.261 160.359 170.218 158.106 170.312C157.969 170.321 157.822 170.321 157.675 170.321H42.1714C39.8414 170.341 37.5989 169.435 35.9367 167.802C34.2744 166.169 33.3283 163.943 33.3061 161.613V23.4024C33.3078 23.1307 33.3242 22.8593 33.3551 22.5893V22.511C33.3845 22.2758 33.4139 22.0506 33.4629 21.8253C33.4712 21.7623 33.4843 21.7001 33.502 21.6391C33.5314 21.4922 33.5608 21.3551 33.6 21.2179C33.9014 20.088 34.4241 19.0291 35.138 18.1028C35.2261 17.9951 35.3045 17.8971 35.3927 17.7893C36.8628 16.0481 38.9535 14.9482 41.2212 14.7232C41.3312 14.7037 41.4426 14.6939 41.5543 14.6938C41.76 14.6742 41.9657 14.6742 42.1714 14.6742H122.292L122.312 14.684L166.531 58.2464V161.603Z" fill="#D1D1D1"/>
<path d="M122.312 14.6841L122.292 14.6743H42.1713C41.9656 14.6743 41.7599 14.6743 41.5542 14.6939C41.4425 14.694 41.3311 14.7038 41.2211 14.7233C38.9534 14.9483 36.8627 16.0482 35.3926 17.7894C35.3044 17.8972 35.226 17.9951 35.1379 18.1029C34.424 19.0292 33.9013 20.088 33.5999 21.218C33.5607 21.3551 33.5313 21.4923 33.5019 21.6392C33.4842 21.7002 33.4711 21.7624 33.4628 21.8253C33.4138 22.0506 33.3844 22.2759 33.355 22.5111V22.5894C33.3241 22.8594 33.3077 23.1308 33.306 23.4025V161.613C33.3281 163.943 34.2743 166.169 35.9365 167.802C37.5988 169.435 39.8413 170.341 42.1713 170.322H157.675C157.822 170.322 157.969 170.322 158.106 170.312C160.359 170.218 162.49 169.261 164.058 167.64C165.626 166.02 166.511 163.858 166.531 161.603V58.2465L122.312 14.6841ZM93.4138 106.824H86.2334C83.8921 106.864 81.566 106.442 79.3879 105.583C77.2098 104.723 75.2223 103.443 73.5391 101.815C71.8559 100.187 70.5099 98.2436 69.578 96.0955C68.6461 93.9473 68.1466 91.6366 68.1079 89.2953C68.0693 86.954 68.4923 84.6281 69.3528 82.4503C70.2133 80.2726 71.4944 78.2857 73.123 76.6032C74.7515 74.9207 76.6957 73.5756 78.8442 72.6446C80.9928 71.7136 83.3037 71.2151 85.645 71.1775L85.6652 71.1772H93.4138V73.156H86.2334C82.0353 73.0952 77.9847 74.7028 74.9709 77.6259C71.9571 80.549 70.2265 84.5486 70.159 88.7466C70.0915 92.9445 71.6927 96.9977 74.611 100.016C77.5293 103.035 81.5261 104.772 85.724 104.846H93.4138V106.824ZM112.114 83.7943C112.65 83.7923 113.165 84.0022 113.547 84.3784C113.929 84.7547 114.146 85.2666 114.152 85.8025V92.1992C114.147 92.7337 113.931 93.2445 113.55 93.6192C113.169 93.994 112.654 94.202 112.12 94.1976L112.114 94.1975H86.106C85.5722 94.2015 85.0586 93.9931 84.6783 93.6184C84.2981 93.2437 84.0822 92.7333 84.0783 92.1994V85.8025C84.0834 85.2681 84.2993 84.7573 84.6791 84.3813C85.0588 84.0052 85.5716 83.7943 86.106 83.7943H112.114ZM112.535 106.824H104.816V104.846H111.997C116.195 104.906 120.245 103.299 123.259 100.376C126.273 97.4527 128.004 93.453 128.071 89.2551C128.139 85.0571 126.537 81.004 123.619 77.9855C120.701 74.9671 116.704 73.2301 112.506 73.1559H104.816V71.1771H111.997C114.337 71.1418 116.662 71.5677 118.838 72.4308C121.014 73.2938 122.999 74.577 124.679 76.2071C126.359 77.8371 127.701 79.7822 128.63 81.9311C129.558 84.08 130.054 86.3908 130.09 88.7314C130.125 91.0721 129.699 93.3967 128.836 95.5727C127.973 97.7487 126.69 99.7335 125.06 101.414C123.43 103.094 121.485 104.436 119.336 105.365C117.187 106.293 114.876 106.789 112.535 106.824Z" fill="white"/>
<path d="M70.1387 88.7413C70.0692 92.943 71.6717 97.0002 74.5936 100.02C77.5156 103.04 81.5176 104.776 85.7193 104.846L85.724 104.846H93.4138V106.825H86.2334C81.5063 106.904 76.9413 105.102 73.5426 101.816C70.1439 98.5295 68.19 94.0276 68.1106 89.3006C68.0311 84.5735 69.8328 80.0085 73.1192 76.6098C76.4056 73.2111 80.9075 71.2572 85.6345 71.1777L85.6652 71.1772H93.4138V73.156H86.2334C82.0324 73.0887 77.9767 74.6928 74.9584 77.6155C71.9401 80.5383 70.2064 84.5403 70.1387 88.7413Z" fill="#C2D3E6"/>
<path d="M130.09 88.7314C130.162 93.4581 128.353 98.0198 125.061 101.413C121.77 104.806 117.265 106.753 112.538 106.824L112.535 106.824H104.816V104.846H111.997C116.195 104.906 120.245 103.299 123.259 100.376C126.273 97.4527 128.004 93.453 128.071 89.2551C128.139 85.0571 126.537 81.0039 123.619 77.9855C120.701 74.967 116.704 73.23 112.506 73.1559H104.816V71.1771H111.997C114.337 71.1415 116.662 71.5673 118.838 72.4301C121.013 73.2929 122.998 74.5758 124.678 76.2056C126.358 77.8354 127.701 79.7801 128.629 81.9288C129.558 84.0775 130.054 86.388 130.09 88.7285V88.7314Z" fill="#C2D3E6"/>
<path d="M114.152 85.8024V92.1991C114.147 92.7336 113.931 93.2444 113.55 93.6191C113.169 93.9939 112.654 94.202 112.12 94.1975L112.114 94.1975H86.1061C85.8418 94.1994 85.5796 94.1493 85.3347 94.0499C85.0897 93.9505 84.8667 93.8039 84.6784 93.6184C84.4901 93.4328 84.3402 93.212 84.2373 92.9685C84.1343 92.725 84.0803 92.4637 84.0784 92.1993V85.8024C84.0835 85.268 84.2994 84.7572 84.6791 84.3812C85.0589 84.0051 85.5717 83.7942 86.1061 83.7942H112.114C112.65 83.7921 113.165 84.0021 113.547 84.3783C113.929 84.7545 114.146 85.2665 114.152 85.8024Z" fill="#C2D3E6"/>
</svg>
