<svg width="192" height="192" viewBox="0 0 192 192" fill="none" xmlns="http://www.w3.org/2000/svg">
<path d="M151.603 100.966V169.053C151.591 171.515 150.601 173.87 148.851 175.602C147.102 177.333 144.737 178.298 142.275 178.286H142.271H32.3532C31.1345 178.293 29.9264 178.059 28.7978 177.599C27.6692 177.139 26.6423 176.462 25.7757 175.605C24.909 174.748 24.2197 173.729 23.7469 172.605C23.2742 171.482 23.0273 170.277 23.0204 169.058V169.053V32.8781C23.0331 30.4168 24.0231 28.0614 25.7725 26.33C27.5219 24.5987 29.8874 23.6331 32.3487 23.6459H32.3532H87.312V100.966L151.603 100.966Z" fill="#E6E6E6"/>
<path d="M158.554 18.9258V164.95C158.554 167.826 156.498 170.173 154 170.173H35.6834C33.174 170.173 31.1293 167.826 31.1293 164.95V18.9258C31.1293 16.0613 33.1854 13.7144 35.6834 13.7144H154C156.509 13.7144 158.554 16.0613 158.554 18.9258Z" fill="white"/>
<path d="M154 14.6939C155.971 14.6939 157.575 16.5924 157.575 18.9256V164.95C157.575 167.29 155.971 169.193 154 169.193H35.6834C33.7121 169.193 32.1084 167.29 32.1084 164.95V18.9256C32.1084 16.5924 33.7121 14.6939 35.6834 14.6939H154ZM154 13.7144H35.6834C33.1854 13.7144 31.1293 16.0615 31.1293 18.9256V164.95C31.1293 167.826 33.174 170.173 35.6834 170.173H154C156.498 170.173 158.554 167.826 158.554 164.95V18.9256C158.554 16.0615 156.509 13.7144 154 13.7144Z" fill="#D1D1D1"/>
<path d="M85.1201 64.5452H46.9369V66.4518H85.1201V64.5452Z" fill="#B1B1B1"/>
<path d="M105.483 51.834H46.9369V53.7407H105.483V51.834Z" fill="#B1B1B1"/>
<path d="M125.848 39.1228H46.9369V41.0295H125.848V39.1228Z" fill="#B1B1B1"/>
<path d="M41.5407 150.915L40.8628 150.634C42.5785 146.46 45.0187 142.623 48.0705 139.298C48.4707 138.847 48.9321 138.348 49.4379 137.799C53.1237 134.072 56.2578 129.837 58.7449 125.222C58.6147 124.982 58.5219 124.724 58.4695 124.456C58.3996 123.941 58.4366 123.417 58.5783 122.917C58.7199 122.417 58.9631 121.952 59.2927 121.55C60.1714 120.302 60.5817 119.966 60.9838 120.181C61.143 120.264 61.5159 120.461 60.9493 121.995C60.5489 123.078 60.0943 124.14 59.5872 125.177C59.7486 125.386 59.9434 125.566 60.1638 125.711C61.1353 126.335 61.5728 128.344 60.3608 131.425C59.5753 133.421 58.5899 136.139 58.0215 137.725C59.5356 136.373 62.4749 133.733 63.0023 133.169C63.0743 133.071 63.1701 132.993 63.2805 132.943C63.3909 132.892 63.5123 132.871 63.6334 132.88C63.9465 132.933 64.0761 133.225 64.2018 133.508C64.3969 133.947 64.6182 134.444 65.3712 134.49C66.8603 134.495 68.3102 134.014 69.5014 133.12C69.548 133.066 69.6054 133.022 69.6701 132.991C69.7347 132.96 69.8051 132.942 69.8767 132.94C70.1258 132.942 70.3348 133.125 70.6163 133.413C71.3545 134.167 72.8911 135.751 77.2838 135.661C83.5511 135.555 86.9991 135.449 87.033 135.448L87.056 136.182C87.0215 136.183 83.5697 136.289 77.2962 136.396C72.5756 136.48 70.8386 134.688 70.0919 133.927C70.0331 133.866 69.9657 133.797 69.9097 133.745C68.5808 134.718 66.9736 135.236 65.3267 135.223C64.9188 135.197 64.5284 135.048 64.2075 134.795C63.8867 134.542 63.6505 134.197 63.5304 133.806L63.4917 133.72C62.7669 134.468 59.384 137.496 57.9378 138.785C57.8484 138.865 57.735 138.913 57.6155 138.921C57.496 138.929 57.3772 138.897 57.2779 138.83C57.1786 138.763 57.1044 138.665 57.0671 138.551C57.0298 138.438 57.0315 138.315 57.0719 138.202C57.5462 136.869 58.7496 133.514 59.677 131.155C60.7948 128.315 60.3253 126.688 59.7669 126.329C59.5723 126.202 59.3928 126.053 59.2319 125.885C56.7333 130.429 53.6191 134.606 49.9776 138.297C49.4751 138.843 49.0166 139.338 48.6193 139.786C45.6226 143.05 43.2262 146.818 41.5407 150.915ZM60.4105 121.284C60.2771 121.446 60.1069 121.668 59.8927 121.973C59.6237 122.294 59.4226 122.666 59.3015 123.068C59.1805 123.469 59.142 123.89 59.1885 124.307C59.5748 123.479 59.9348 122.624 60.2608 121.74C60.3226 121.573 60.3717 121.42 60.4104 121.284L60.4105 121.284Z" fill="#6E8CBB"/>
<path d="M142.736 89.8538C142.664 89.8537 142.592 89.8321 142.532 89.7917C142.472 89.7513 142.425 89.6939 142.397 89.6267C142.369 89.5595 142.362 89.4857 142.376 89.4144C142.39 89.3431 142.425 89.2776 142.477 89.2262L162.055 69.6736C162.561 69.1693 162.846 68.4848 162.847 67.7707C162.848 67.0565 162.565 66.3713 162.061 65.8656L162.056 65.8614L160.263 64.0706C160.195 64.0015 160.157 63.9084 160.157 63.8114C160.157 63.7144 160.196 63.6215 160.264 63.5528C160.333 63.4841 160.426 63.4453 160.523 63.4448C160.62 63.4443 160.713 63.4822 160.782 63.5502L162.575 65.341C162.894 65.6592 163.146 66.0371 163.319 66.453C163.492 66.8689 163.581 67.3147 163.581 67.765C163.581 68.2153 163.493 68.6613 163.321 69.0774C163.149 69.4936 162.896 69.8718 162.578 70.1904L162.575 70.194L142.996 89.7466C142.962 89.7807 142.921 89.8077 142.877 89.8261C142.832 89.8445 142.784 89.8539 142.736 89.8538Z" fill="#6E8CBB"/>
<path d="M84.0559 137.062C84.2935 137.299 84.6154 137.433 84.951 137.433C85.2867 137.433 85.6086 137.299 85.8461 137.062L90.6958 132.219L88.9056 130.431L84.0559 135.275C83.9386 135.392 83.8454 135.531 83.7818 135.684C83.7182 135.837 83.6853 136.001 83.6852 136.167C83.685 136.333 83.7175 136.497 83.7809 136.651C83.8442 136.804 83.9371 136.943 84.0543 137.061L84.0559 137.062Z" fill="#6E8CBB"/>
<path d="M84.9508 137.799C84.6279 137.8 84.3122 137.704 84.0436 137.525C83.775 137.346 83.5656 137.091 83.442 136.793C83.3183 136.495 83.286 136.166 83.349 135.85C83.4121 135.533 83.5677 135.242 83.7962 135.014L88.9056 129.912L91.2152 132.219L86.1059 137.323C85.9541 137.474 85.774 137.594 85.5758 137.676C85.3776 137.758 85.1652 137.8 84.9508 137.799ZM88.9056 130.951L84.3154 135.535C84.2321 135.618 84.166 135.716 84.1208 135.824C84.0756 135.933 84.0522 136.049 84.0519 136.166C84.0517 136.284 84.0745 136.4 84.1192 136.509C84.1638 136.617 84.2295 136.716 84.3123 136.799L84.3154 136.802C84.4842 136.97 84.7127 137.065 84.951 137.065C85.1893 137.065 85.4178 136.97 85.5866 136.802L90.1758 132.219L88.9056 130.951Z" fill="#2D4068"/>
<path d="M118.506 109.213L111.942 102.657L156.26 58.3975L162.823 64.9539L118.506 109.213Z" fill="white"/>
<path d="M156.259 59.4356L161.784 64.9535L118.506 108.175L112.982 102.657L156.259 59.4357M156.259 58.3977L111.942 102.657L118.506 109.213L162.823 64.9535L156.259 58.3977L156.259 58.3977Z" fill="#2D4068"/>
<path d="M162.003 65.7729L155.438 59.2174L161.546 53.118C162.103 52.5619 162.858 52.2495 163.645 52.2495C164.433 52.2495 165.188 52.5619 165.745 53.118L168.11 55.4801C168.385 55.755 168.604 56.0813 168.753 56.4406C168.902 56.7999 168.979 57.185 168.98 57.574C168.98 57.9631 168.904 58.3484 168.755 58.7079C168.607 59.0675 168.389 59.3943 168.114 59.6696L168.11 59.6735L162.003 65.7729Z" fill="#6E8CBB"/>
<path d="M163.645 52.984C163.939 52.9832 164.23 53.0406 164.501 53.1528C164.772 53.2651 165.019 53.4299 165.226 53.6379L167.591 55.9998C167.798 56.2064 167.963 56.4518 168.075 56.722C168.187 56.9921 168.245 57.2817 168.245 57.5743C168.246 57.8668 168.188 58.1565 168.077 58.4269C167.965 58.6973 167.801 58.943 167.594 59.1501L167.591 59.1533L162.003 64.7348L156.478 59.2174L162.065 53.6379C162.272 53.4299 162.518 53.2651 162.79 53.1528C163.061 53.0406 163.352 52.9832 163.645 52.984M163.645 52.2493C163.255 52.2489 162.869 52.3253 162.509 52.4744C162.149 52.6235 161.821 52.8422 161.546 53.1179L155.438 59.2174L162.003 65.7728L168.11 59.6733C168.385 59.3984 168.604 59.072 168.753 58.7127C168.902 58.3534 168.979 57.9682 168.98 57.5792C168.98 57.1901 168.904 56.8048 168.755 56.4452C168.607 56.0857 168.389 55.7589 168.114 55.4835L168.11 55.4798L165.745 53.1179C165.469 52.8421 165.142 52.6234 164.782 52.4743C164.421 52.3253 164.035 52.2488 163.645 52.2493L163.645 52.2493Z" fill="#2D4068"/>
<path d="M97.1686 130.523L90.6044 123.967L112.763 101.837L119.327 108.393L97.1686 130.523Z" fill="#6E8CBB"/>
<path d="M112.763 102.875L118.288 108.393L97.1685 129.485L91.6438 123.967L112.763 102.875M112.763 101.837L90.6044 123.967L97.1685 130.523L119.327 108.393L112.763 101.837H112.763Z" fill="#2D4068"/>
<path d="M87.3209 133.802C86.8905 133.372 86.5488 132.862 86.3156 132.3C86.0823 131.739 85.962 131.136 85.9614 130.528C85.9609 129.92 86.0801 129.318 86.3123 128.756C86.5445 128.194 86.8852 127.683 87.3148 127.252L87.3209 127.246L91.425 123.147L97.9891 129.703L93.885 133.802C93.014 134.671 91.8336 135.159 90.6029 135.159C89.3723 135.159 88.1919 134.671 87.3209 133.802Z" fill="#C2D3E6"/>
<path d="M91.425 124.185L96.9497 129.703L93.3662 133.282C92.6359 134.016 91.644 134.43 90.6085 134.433C89.5731 134.435 88.579 134.026 87.845 133.296C87.1109 132.566 86.6971 131.574 86.6944 130.539C86.6918 129.503 87.1005 128.509 87.8308 127.775L87.8397 127.766L91.425 124.185M91.425 123.147L87.3209 127.246C86.4535 128.117 85.9672 129.297 85.9688 130.526C85.9704 131.755 86.4597 132.933 87.3294 133.802C88.1991 134.67 89.378 135.158 90.6071 135.158C91.8363 135.158 93.0152 134.671 93.885 133.802L97.9891 129.703L91.425 123.147L91.425 123.147Z" fill="#2D4068"/>
</svg>
