<svg width="192" height="192" viewBox="0 0 192 192" fill="none" xmlns="http://www.w3.org/2000/svg">
<path d="M85.2143 136.952C119.372 136.952 147.063 109.364 147.063 75.3331C147.063 41.302 119.372 13.7144 85.2143 13.7144C51.0563 13.7144 23.3657 41.302 23.3657 75.3331C23.3657 109.364 51.0563 136.952 85.2143 136.952Z" fill="#E6E6E6"/>
<path d="M136.26 32.2249C135.336 32.2206 134.433 31.9426 133.667 31.4258C132.9 30.9091 132.304 30.1768 131.953 29.3215C131.602 28.4661 131.513 27.526 131.696 26.6198C131.879 25.7136 132.326 24.8819 132.981 24.2297C133.636 23.5775 134.47 23.1341 135.377 22.9553C136.284 22.7765 137.224 22.8704 138.078 23.2252C138.931 23.58 139.661 24.1797 140.174 24.9487C140.687 25.7177 140.961 26.6215 140.961 27.546C140.957 28.7894 140.459 29.9803 139.578 30.8575C138.697 31.7347 137.504 32.2264 136.26 32.2249ZM136.26 23.6001C135.481 23.6038 134.72 23.8384 134.073 24.2743C133.427 24.7101 132.924 25.3277 132.628 26.0491C132.333 26.7704 132.257 27.5632 132.412 28.3274C132.566 29.0916 132.943 29.7929 133.496 30.3429C134.048 30.8928 134.752 31.2668 135.516 31.4175C136.281 31.5682 137.074 31.489 137.794 31.1897C138.514 30.8905 139.129 30.3848 139.562 29.7363C139.994 29.0878 140.225 28.3256 140.225 27.546C140.222 26.4973 139.802 25.4929 139.059 24.7532C138.315 24.0135 137.309 23.5988 136.26 23.6001Z" fill="#6E8CBB"/>
<path d="M136.26 23.2334C135.408 23.2373 134.576 23.4936 133.87 23.9699C133.163 24.4461 132.614 25.121 132.29 25.9094C131.967 26.6978 131.884 27.5643 132.053 28.3996C132.221 29.2348 132.634 30.0014 133.238 30.6026C133.842 31.2037 134.61 31.6125 135.446 31.7773C136.282 31.9421 137.148 31.8555 137.935 31.5285C138.722 31.2015 139.394 30.6488 139.867 29.94C140.34 29.2312 140.593 28.3982 140.593 27.5461C140.592 26.9784 140.479 26.4166 140.26 25.8926C140.042 25.3687 139.722 24.8929 139.32 24.4924C138.918 24.0919 138.44 23.7746 137.915 23.5586C137.39 23.3426 136.828 23.2321 136.26 23.2334Z" fill="#EBC5C4"/>
<path d="M136.26 32.2249C135.336 32.2206 134.433 31.9426 133.667 31.4258C132.9 30.9091 132.304 30.1768 131.953 29.3215C131.602 28.4661 131.513 27.526 131.696 26.6198C131.879 25.7136 132.326 24.8819 132.981 24.2297C133.636 23.5775 134.47 23.1341 135.377 22.9553C136.284 22.7765 137.224 22.8704 138.078 23.2252C138.931 23.58 139.661 24.1797 140.174 24.9487C140.687 25.7177 140.961 26.6215 140.961 27.546C140.957 28.7894 140.459 29.9803 139.578 30.8575C138.697 31.7347 137.504 32.2264 136.26 32.2249ZM136.26 23.6001C135.481 23.6038 134.72 23.8384 134.073 24.2743C133.427 24.7101 132.924 25.3277 132.628 26.0491C132.333 26.7704 132.257 27.5632 132.412 28.3274C132.566 29.0916 132.943 29.7929 133.496 30.3429C134.048 30.8928 134.752 31.2668 135.516 31.4175C136.281 31.5682 137.074 31.489 137.794 31.1897C138.514 30.8905 139.129 30.3848 139.562 29.7363C139.994 29.0878 140.225 28.3256 140.225 27.546C140.222 26.4973 139.802 25.4929 139.059 24.7532C138.315 24.0135 137.309 23.5988 136.26 23.6001Z" fill="#BD716D"/>
<path d="M22.701 78.4309C21.8489 78.4348 21.017 78.6911 20.3104 79.1673C19.6038 79.6436 19.0541 80.3185 18.7307 81.1069C18.4073 81.8953 18.3247 82.7618 18.4934 83.5971C18.662 84.4324 19.0743 85.199 19.6783 85.8002C20.2822 86.4013 21.0507 86.8101 21.8867 86.9749C22.7228 87.1397 23.5889 87.0532 24.3758 86.7261C25.1627 86.3991 25.8351 85.8463 26.3081 85.1375C26.7811 84.4287 27.0336 83.5957 27.0335 82.7436C27.0322 82.1759 26.9192 81.6141 26.7007 81.0901C26.4823 80.5662 26.1628 80.0904 25.7605 79.6899C25.3582 79.2895 24.8809 78.9722 24.356 78.7561C23.831 78.5401 23.2687 78.4296 22.701 78.4309Z" fill="#E9CA8F"/>
<path d="M22.701 78.4308C23.5531 78.4347 24.385 78.691 25.0916 79.1672C25.7982 79.6435 26.3479 80.3184 26.6713 81.1068C26.9947 81.8952 27.0773 82.7617 26.9087 83.597C26.74 84.4323 26.3277 85.1989 25.7238 85.8C25.1199 86.4012 24.3514 86.81 23.5153 86.9748C22.6793 87.1396 21.8131 87.053 21.0262 86.726C20.2394 86.399 19.567 85.8463 19.0939 85.1375C18.6209 84.4287 18.3685 83.5956 18.3685 82.7435C18.3698 82.1758 18.4829 81.614 18.7013 81.0901C18.9197 80.5661 19.2392 80.0903 19.6415 79.6898C20.0439 79.2894 20.5211 78.9721 21.0461 78.756C21.571 78.54 22.1334 78.4295 22.701 78.4308ZM22.701 77.6978C21.704 77.7022 20.7307 78.0019 19.9039 78.5591C19.0771 79.1162 18.4338 79.9058 18.0554 80.8282C17.6769 81.7505 17.5802 82.7644 17.7775 83.7417C17.9747 84.719 18.457 85.6159 19.1636 86.3194C19.8701 87.0228 20.7693 87.5011 21.7474 87.694C22.7256 87.8868 23.739 87.7856 24.6597 87.403C25.5803 87.0205 26.3671 86.3737 26.9205 85.5444C27.474 84.7152 27.7693 83.7405 27.7693 82.7435C27.7648 81.4028 27.2287 80.1186 26.2785 79.1726C25.3283 78.2267 24.0417 77.6963 22.701 77.6978Z" fill="#A58346"/>
<path d="M173.632 97.1374H169.993V93.5139H168.606V97.1374H164.967V98.5177H168.606V102.141H169.993V98.5177H173.632V97.1374Z" fill="#A2DAE6"/>
<path d="M169.993 93.5143V97.137H173.632V98.5182H169.993V102.141H168.606V98.5182H164.967V97.137H168.606V93.5143H169.993ZM170.728 92.7812H167.87V96.404H164.232V99.2512H167.87V102.874H170.728V99.2512H174.367V96.404H170.728V92.7812H170.728Z" fill="#5594A1"/>
<path d="M39.2288 145.45H37.8417V149.072H34.2035V150.454H37.8417V154.077H39.2288V150.454H42.867V149.072H39.2288V145.45Z" fill="#E9CA8F"/>
<path d="M39.2283 145.45V149.073H42.8673V150.454H39.2283V154.077H37.8421V150.454H34.2031V149.073H37.8421V145.45H39.2283ZM39.9641 144.717H37.1063V148.34H33.4673V151.187H37.1063V154.81H39.9641V151.187H43.6031V148.34H39.9641V144.717Z" fill="#A58346"/>
<path d="M59.502 141.98C59.2457 141.98 58.9986 141.885 58.808 141.714C58.6174 141.543 58.4967 141.307 58.469 141.052C58.0182 136.788 56.8919 135.579 52.7317 134.889C47.946 134.095 45.8545 129.124 45.5187 125.107C45.3549 123.146 44.2665 122.013 39.1911 122.013C38.6852 122.044 38.1785 121.971 37.7018 121.799C37.2251 121.626 36.7884 121.359 36.4186 121.013C35.2624 119.836 35.303 117.962 35.3382 116.308C35.364 115.124 35.3924 113.781 34.9145 113.319C33.4321 111.89 29.6551 110.886 28.3243 110.622C28.1904 110.595 28.0631 110.543 27.9496 110.467C27.8361 110.391 27.7387 110.293 27.663 110.18C27.5872 110.066 27.5346 109.939 27.5082 109.805C27.4817 109.671 27.482 109.534 27.5089 109.4C27.5358 109.266 27.5888 109.139 27.6649 109.026C27.741 108.912 27.8388 108.815 27.9525 108.74C28.0662 108.664 28.1937 108.612 28.3277 108.586C28.4616 108.56 28.5994 108.561 28.7331 108.588C28.9524 108.634 34.1361 109.686 36.3603 111.83C37.4908 112.92 37.4528 114.665 37.4163 116.354C37.3906 117.598 37.3595 119.008 37.9051 119.564C37.9958 119.658 38.276 119.942 39.1912 119.942C43.1388 119.942 47.2232 120.535 47.5901 124.935C47.651 125.66 48.3224 132.056 53.0729 132.844C58.174 133.691 59.9867 135.633 60.5377 140.837C60.5517 140.972 60.5389 141.109 60.4999 141.24C60.4609 141.37 60.3966 141.492 60.3106 141.598C60.2246 141.703 60.1186 141.791 59.9987 141.856C59.8788 141.921 59.7472 141.961 59.6117 141.975C59.5751 141.978 59.5385 141.98 59.502 141.98Z" fill="#E9CA8F"/>
<path d="M161.554 178.286H35.8644V163.741H161.554V178.286ZM36.6002 177.553H160.818V164.474H36.6002V177.553Z" fill="#6E8CBB"/>
<path d="M161.186 164.108H36.2322V177.919H161.186V164.108Z" fill="#D1D1D1"/>
<path d="M161.554 178.286H35.8644V163.741H161.554V178.286ZM36.6002 177.553H160.818V164.474H36.6002V177.553Z" fill="#8C8C8C"/>
<path d="M35.2722 53.7512L33.0564 64.9901L24.386 57.46L35.2722 53.7512Z" fill="#A2DAE6"/>
<path d="M33.2939 65.6831L23.6635 57.3189L35.7562 53.1982L33.2939 65.6831ZM25.1082 57.6014L32.8177 64.2972L34.7885 54.3036L25.1082 57.6014Z" fill="#5594A1"/>
<path d="M98.7102 140.106C88.2279 140.058 77.9948 136.906 69.3024 131.047C60.61 125.189 53.848 116.887 49.8698 107.188C45.8917 97.4903 44.8757 86.831 46.9501 76.5559C49.0246 66.2809 54.0965 56.8507 61.5256 49.4556C68.9548 42.0605 78.4082 37.032 88.6926 35.0048C98.9771 32.9775 109.632 34.0425 119.311 38.0651C128.991 42.0878 137.262 48.8879 143.081 57.6071C148.899 66.3263 152.004 76.5738 152.004 87.0562C151.955 101.153 146.317 114.655 136.326 124.6C126.335 134.546 112.807 140.122 98.7102 140.106Z" fill="#B8DFBC"/>
<path d="M98.7099 140.594C88.1312 140.546 77.8038 137.365 69.0314 131.452C60.259 125.54 53.4348 117.161 49.42 107.374C45.4052 97.5864 44.3799 86.8289 46.4735 76.4593C48.5671 66.0897 53.6856 56.5727 61.1832 49.1095C68.6808 41.6463 78.2212 36.5715 88.6003 34.5257C98.9795 32.4798 109.732 33.5546 119.501 37.6143C129.27 41.674 137.617 48.5367 143.489 57.3362C149.361 66.1357 152.495 76.4775 152.495 87.0564C152.445 101.283 146.755 114.91 136.672 124.946C126.589 134.983 112.937 140.611 98.7099 140.594ZM98.7099 34.4929C88.3244 34.5405 78.1858 37.6637 69.5737 43.4682C60.9617 49.2726 54.2621 57.4983 50.3207 67.1069C46.3792 76.7155 45.3726 87.2764 47.4278 97.4566C49.483 107.637 54.508 116.98 61.8684 124.307C69.2288 131.634 78.5948 136.616 88.7843 138.625C98.9737 140.634 109.53 139.579 119.12 135.594C128.711 131.609 136.906 124.872 142.671 116.233C148.436 107.595 151.513 97.4419 151.514 87.0564C151.466 73.0888 145.879 59.7106 135.98 49.8565C126.081 40.0025 112.678 34.4772 98.7099 34.4929Z" fill="#729A77"/>
<path d="M87.2544 107.656C86.6989 107.661 86.1485 107.55 85.638 107.331C85.1274 107.112 84.6677 106.789 84.2878 106.384L68.8079 91.239L74.6511 85.5177L87.254 97.805L120.049 65.75L125.896 71.4732L90.1578 106.453C89.7804 106.839 89.3285 107.145 88.8295 107.352C88.3304 107.559 87.7946 107.663 87.2544 107.656ZM69.8579 91.239L84.8171 105.875C85.1287 106.209 85.5062 106.475 85.9257 106.655C86.3453 106.836 86.7977 106.927 87.2544 106.923C87.696 106.93 88.1342 106.846 88.5424 106.677C88.9506 106.509 89.3203 106.259 89.6289 105.943L124.846 71.4732L120.049 66.7771L87.2549 98.8321L74.652 86.5448L69.8579 91.239Z" fill="#6E8CBB"/>
<path d="M130.129 146.434C130 146.434 129.873 146.411 129.753 146.364C129.626 146.315 129.509 146.241 129.411 146.148C129.312 146.054 129.233 145.941 129.178 145.817C129.123 145.692 129.093 145.558 129.09 145.422C129.087 145.286 129.11 145.15 129.16 145.023C131.069 140.149 133.329 138.751 138.474 139.269C143.231 139.752 145.603 133.761 145.852 133.076C147.368 128.924 151.467 129.423 155.274 130.454C156.168 130.702 156.504 130.492 156.615 130.427C157.289 130.036 157.633 128.665 157.936 127.457C158.347 125.82 158.772 124.123 160.151 123.368C162.864 121.881 168.149 122.226 168.365 122.243C168.501 122.252 168.634 122.287 168.756 122.347C168.879 122.408 168.988 122.492 169.077 122.594C169.167 122.696 169.236 122.816 169.28 122.945C169.323 123.074 169.341 123.21 169.332 123.346C169.324 123.483 169.29 123.616 169.229 123.739C169.169 123.862 169.085 123.972 168.982 124.062C168.879 124.151 168.758 124.219 168.628 124.262C168.498 124.304 168.361 124.32 168.225 124.309C166.865 124.217 162.958 124.193 161.152 125.186C160.57 125.504 160.243 126.81 159.953 127.961C159.55 129.564 159.095 131.382 157.668 132.215C157.219 132.451 156.727 132.593 156.222 132.635C155.717 132.676 155.208 132.615 154.727 132.455C149.829 131.123 148.481 131.938 147.807 133.783C146.423 137.567 143.139 141.835 138.263 141.33C134.071 140.907 132.661 141.781 131.098 145.773C131.022 145.968 130.889 146.135 130.716 146.253C130.543 146.371 130.338 146.434 130.129 146.434Z" fill="#BD716D"/>
<path d="M159.574 47.5515L170.612 50.7842L162.28 58.6836L159.574 47.5515Z" fill="#E9CA8F"/>
<path d="M162.073 59.3854L159.066 47.0208L171.327 50.6107L162.073 59.3854ZM160.081 48.0822L162.488 57.9804L169.896 50.9562L160.081 48.0822Z" fill="#A58346"/>
<path d="M98.7105 131.757C89.8778 131.717 81.2551 129.061 73.9306 124.124C66.6062 119.188 60.9083 112.192 57.5562 104.02C54.204 95.848 53.3479 86.8662 55.0959 78.2082C56.8439 69.5501 61.1176 61.604 67.3776 55.3727C73.6376 49.1413 81.6033 44.9042 90.2693 43.196C98.9353 41.4878 107.913 42.3852 116.07 45.7748C124.226 49.1644 131.195 54.8944 136.098 62.2415C141.001 69.5885 143.617 78.2234 143.617 87.0561C143.576 98.9345 138.825 110.311 130.406 118.691C121.988 127.071 110.589 131.77 98.7105 131.757Z" fill="white"/>
<path d="M98.7104 132.123C89.8053 132.083 81.1118 129.405 73.7273 124.428C66.3427 119.451 60.5981 112.398 57.2185 104.159C53.8388 95.9199 52.9757 86.8644 54.7381 78.1354C56.5004 69.4063 60.8092 61.395 67.1206 55.1126C73.432 48.8302 81.463 44.5583 90.2001 42.8362C98.9372 41.114 107.989 42.0188 116.212 45.4363C124.435 48.8538 131.462 54.6308 136.405 62.0382C141.348 69.4456 143.985 78.1513 143.985 87.0565C143.944 99.0322 139.154 110.502 130.666 118.951C122.178 127.4 110.686 132.137 98.7104 132.123ZM98.7104 42.7189C89.9503 42.759 81.3985 45.3932 74.1342 50.2892C66.8699 55.1851 61.2188 62.1233 57.8942 70.228C54.5695 78.3328 53.7203 87.2407 55.4537 95.8277C57.1871 104.415 61.4255 112.296 67.6339 118.476C73.8423 124.656 81.7423 128.859 90.337 130.553C98.9317 132.248 107.836 131.358 115.925 127.997C124.015 124.636 130.927 118.953 135.79 111.667C140.653 104.38 143.249 95.8166 143.249 87.0565C143.209 75.275 138.497 63.9906 130.147 55.6786C121.798 47.3667 110.492 42.706 98.7104 42.7189V42.7189Z" fill="#729A77"/>
<path d="M120.049 66.2629L125.371 71.4728L89.8999 106.192C89.5486 106.544 89.1305 106.823 88.6699 107.011C88.2094 107.2 87.7158 107.294 87.2182 107.289C86.7206 107.284 86.229 107.18 85.7724 106.982C85.3158 106.784 84.9034 106.497 84.5594 106.137L69.3329 91.2387L74.6515 86.0315L87.2542 98.3184L120.049 66.2629" fill="#729A77"/>
</svg>
