<svg width="192" height="192" viewBox="0 0 192 192" fill="none" xmlns="http://www.w3.org/2000/svg">
<path d="M185.143 97.9536H6.85718V162.612H185.143V97.9536Z" fill="#E6E6E6"/>
<path d="M165.346 30.3633H122.728C117.168 30.3633 112.66 34.871 112.66 40.4315V144.61C112.66 150.17 117.168 154.678 122.728 154.678H165.346C170.907 154.678 175.414 150.17 175.414 144.61V40.4315C175.414 34.871 170.907 30.3633 165.346 30.3633Z" fill="#666666"/>
<path d="M165.325 30.3631C167.995 30.3574 170.558 31.4127 172.45 33.2968C174.342 35.1809 175.409 37.7395 175.414 40.4098V144.631C175.409 147.302 174.342 149.86 172.45 151.744C170.558 153.628 167.995 154.684 165.325 154.678H122.75C120.08 154.684 117.516 153.628 115.624 151.744C113.732 149.86 112.666 147.302 112.66 144.631V40.4098C112.666 37.7396 113.732 35.1809 115.624 33.2968C117.516 31.4127 120.08 30.3574 122.75 30.3631H165.325M165.325 29.3877H122.75C119.821 29.3848 117.011 30.5436 114.936 32.6099C112.861 34.6762 111.69 37.4813 111.68 40.4098V144.631C111.69 147.56 112.861 150.365 114.936 152.431C117.011 154.498 119.821 155.656 122.75 155.653H165.325C168.253 155.656 171.063 154.498 173.138 152.431C175.214 150.365 176.384 147.56 176.394 144.631V40.4098C176.384 37.4813 175.214 34.6762 173.138 32.6099C171.063 30.5436 168.253 29.3848 165.325 29.3877L165.325 29.3877Z" fill="#292929"/>
<path d="M170.571 40.4097V144.632C170.568 146.02 170.014 147.351 169.03 148.33C168.046 149.31 166.713 149.859 165.325 149.856H122.75C121.361 149.859 120.028 149.31 119.044 148.33C118.06 147.351 117.506 146.02 117.503 144.632V40.4097C117.504 39.7222 117.641 39.0417 117.906 38.407C118.17 37.7724 118.557 37.1961 119.044 36.7109C119.531 36.2258 120.109 35.8414 120.745 35.5797C121.381 35.318 122.062 35.1841 122.75 35.1856H128.536C128.749 35.1851 128.954 35.2695 129.106 35.4202C129.257 35.571 129.342 35.7756 129.343 35.9892V36.8804C129.344 37.2506 129.417 37.6171 129.56 37.9588C129.702 38.3006 129.911 38.611 130.173 38.8722C130.435 39.1334 130.746 39.3404 131.089 39.4814C131.431 39.6223 131.798 39.6944 132.168 39.6936H155.906C156.276 39.6944 156.643 39.6222 156.985 39.4813C157.328 39.3403 157.639 39.1333 157.901 38.8721C158.163 38.6109 158.372 38.3005 158.514 37.9588C158.656 37.6171 158.73 37.2506 158.731 36.8804V35.9892C158.731 35.8834 158.752 35.7787 158.793 35.6811C158.834 35.5834 158.893 35.4948 158.968 35.4201C159.043 35.3455 159.132 35.2864 159.23 35.2461C159.328 35.2059 159.433 35.1853 159.538 35.1856H165.325C166.012 35.1841 166.693 35.318 167.329 35.5797C167.965 35.8415 168.543 36.2259 169.03 36.711C169.517 37.1961 169.904 37.7724 170.168 38.4071C170.433 39.0417 170.57 39.7222 170.571 40.4097Z" fill="white"/>
<path d="M165.325 35.1854C166.012 35.1839 166.693 35.3179 167.329 35.5796C167.965 35.8413 168.543 36.2257 169.03 36.7109C169.517 37.196 169.904 37.7723 170.168 38.4069C170.433 39.0416 170.57 39.7221 170.571 40.4096V144.632C170.568 146.02 170.014 147.351 169.03 148.33C168.046 149.31 166.713 149.859 165.325 149.856H122.75C121.361 149.859 120.028 149.31 119.044 148.33C118.06 147.351 117.506 146.02 117.503 144.632V40.4096C117.504 39.722 117.641 39.0415 117.906 38.4069C118.17 37.7722 118.557 37.1959 119.044 36.7108C119.531 36.2257 120.109 35.8413 120.745 35.5796C121.381 35.3179 122.062 35.1839 122.75 35.1854H128.536C128.75 35.185 128.955 35.2694 129.106 35.4201C129.257 35.5709 129.343 35.7755 129.343 35.9891V36.8803C129.344 37.2505 129.417 37.617 129.56 37.9587C129.702 38.3005 129.911 38.6108 130.173 38.8721C130.435 39.1333 130.747 39.3403 131.089 39.4812C131.431 39.6222 131.798 39.6943 132.168 39.6935H155.906C156.276 39.6942 156.643 39.6221 156.985 39.4811C157.328 39.3402 157.639 39.1332 157.901 38.872C158.163 38.6107 158.372 38.3004 158.514 37.9587C158.656 37.6169 158.73 37.2505 158.731 36.8803V35.9891C158.731 35.8833 158.752 35.7786 158.793 35.681C158.834 35.5833 158.893 35.4946 158.968 35.42C159.043 35.3454 159.132 35.2862 159.23 35.246C159.328 35.2057 159.433 35.1852 159.538 35.1854H165.325M165.325 34.4539H159.538C159.13 34.4534 158.739 34.6148 158.45 34.9026C158.161 35.1904 157.998 35.5812 157.996 35.9891V36.8803C157.994 37.4333 157.773 37.9631 157.382 38.3533C156.99 38.7436 156.459 38.9624 155.906 38.9619H132.168C131.615 38.9625 131.084 38.7436 130.692 38.3534C130.301 37.9631 130.079 37.4334 130.078 36.8803V35.9891C130.076 35.5812 129.913 35.1905 129.624 34.9027C129.335 34.6149 128.944 34.4535 128.536 34.4539H122.75C121.167 34.4522 119.649 35.0784 118.527 36.1949C117.406 37.3114 116.773 38.8271 116.768 40.4096V144.632C116.773 146.214 117.406 147.73 118.527 148.846C119.649 149.963 121.167 150.589 122.75 150.587H165.325C166.907 150.589 168.425 149.963 169.547 148.846C170.668 147.73 171.301 146.214 171.306 144.632V40.4096C171.301 38.8272 170.668 37.3115 169.547 36.195C168.425 35.0784 166.907 34.4523 165.325 34.4539L165.325 34.4539Z" fill="#6E8CBB"/>
<path d="M165.325 35.1854C166.012 35.1839 166.693 35.3179 167.329 35.5796C167.965 35.8413 168.543 36.2257 169.03 36.7109C169.517 37.196 169.904 37.7723 170.168 38.4069C170.433 39.0416 170.57 39.7221 170.571 40.4096V144.632C170.568 146.02 170.014 147.351 169.03 148.33C168.046 149.31 166.713 149.859 165.325 149.856H122.75C121.361 149.859 120.028 149.31 119.044 148.33C118.06 147.351 117.506 146.02 117.503 144.632V40.4096C117.504 39.722 117.641 39.0415 117.906 38.4069C118.17 37.7722 118.557 37.1959 119.044 36.7108C119.531 36.2257 120.109 35.8413 120.745 35.5796C121.381 35.3179 122.062 35.1839 122.75 35.1854H128.536C128.75 35.185 128.955 35.2694 129.106 35.4201C129.257 35.5709 129.343 35.7755 129.343 35.9891V36.8803C129.344 37.2505 129.417 37.617 129.56 37.9587C129.702 38.3005 129.911 38.6108 130.173 38.8721C130.435 39.1333 130.747 39.3403 131.089 39.4812C131.431 39.6222 131.798 39.6943 132.168 39.6935H155.906C156.276 39.6942 156.643 39.6221 156.985 39.4811C157.328 39.3402 157.639 39.1332 157.901 38.872C158.163 38.6107 158.372 38.3004 158.514 37.9587C158.656 37.6169 158.73 37.2505 158.731 36.8803V35.9891C158.731 35.8833 158.752 35.7786 158.793 35.681C158.834 35.5833 158.893 35.4946 158.968 35.42C159.043 35.3454 159.132 35.2862 159.23 35.246C159.328 35.2057 159.433 35.1852 159.538 35.1854H165.325M165.325 34.4539H159.538C159.13 34.4534 158.739 34.6148 158.45 34.9026C158.161 35.1904 157.998 35.5812 157.996 35.9891V36.8803C157.994 37.4333 157.773 37.9631 157.382 38.3533C156.99 38.7436 156.459 38.9624 155.906 38.9619H132.168C131.615 38.9625 131.084 38.7436 130.692 38.3534C130.301 37.9631 130.079 37.4334 130.078 36.8803V35.9891C130.076 35.5812 129.913 35.1905 129.624 34.9027C129.335 34.6149 128.944 34.4535 128.536 34.4539H122.75C121.167 34.4522 119.649 35.0784 118.527 36.1949C117.406 37.3114 116.773 38.8271 116.768 40.4096V144.632C116.773 146.214 117.406 147.73 118.527 148.846C119.649 149.963 121.167 150.589 122.75 150.587H165.325C166.907 150.589 168.425 149.963 169.547 148.846C170.668 147.73 171.301 146.214 171.306 144.632V40.4096C171.301 38.8272 170.668 37.3115 169.547 36.195C168.425 35.0784 166.907 34.4523 165.325 34.4539L165.325 34.4539Z" fill="#292929"/>
<path d="M69.8843 30.3633H27.2663C21.7058 30.3633 17.1981 34.871 17.1981 40.4315V144.61C17.1981 150.17 21.7058 154.678 27.2663 154.678H69.8843C75.4448 154.678 79.9525 150.17 79.9525 144.61V40.4315C79.9525 34.871 75.4448 30.3633 69.8843 30.3633Z" fill="#666666"/>
<path d="M69.8625 155.166H27.288C24.489 155.169 21.8033 154.061 19.8199 152.086C17.8365 150.111 16.7174 147.43 16.7081 144.631V40.4101C16.7174 37.6112 17.8365 34.9302 19.8199 32.9553C21.8033 30.9803 24.489 29.8727 27.288 29.8755H69.8625C72.6614 29.8727 75.3472 30.9803 77.3306 32.9553C79.314 34.9302 80.4331 37.6112 80.4423 40.4101V144.631C80.4331 147.43 79.314 150.111 77.3306 152.086C75.3472 154.061 72.6614 155.169 69.8625 155.166ZM27.288 30.8509C24.7482 30.8484 22.3111 31.8534 20.5113 33.6454C18.7115 35.4375 17.6961 37.8703 17.6877 40.4101V144.631C17.6961 147.171 18.7115 149.604 20.5113 151.396C22.3111 153.188 24.7482 154.193 27.288 154.19H69.8625C72.4023 154.193 74.8394 153.188 76.6392 151.396C78.439 149.604 79.4544 147.171 79.4627 144.631V40.4101C79.4544 37.8703 78.4389 35.4375 76.6392 33.6455C74.8394 31.8534 72.4023 30.8484 69.8625 30.8509L27.288 30.8509Z" fill="#292929"/>
<path d="M75.1093 40.4097V144.632C75.1063 146.02 74.5519 147.351 73.5679 148.33C72.584 149.31 71.2512 149.859 69.8627 149.856H27.2879C25.8993 149.859 24.5664 149.31 23.5825 148.33C22.5985 147.351 22.044 146.02 22.0409 144.632V40.4097C22.0424 39.7222 22.1793 39.0417 22.4438 38.407C22.7083 37.7724 23.0952 37.196 23.5824 36.7109C24.0696 36.2258 24.6476 35.8414 25.2834 35.5797C25.9192 35.318 26.6003 35.1841 27.2879 35.1856H33.074C33.1798 35.1853 33.2846 35.2059 33.3824 35.2462C33.4802 35.2865 33.5691 35.3456 33.644 35.4202C33.719 35.4949 33.7785 35.5835 33.8192 35.6811C33.8599 35.7788 33.8809 35.8835 33.8811 35.9892V36.8804C33.8819 37.2506 33.9556 37.6171 34.098 37.9589C34.2404 38.3006 34.4487 38.611 34.7111 38.8722C34.9734 39.1334 35.2847 39.3404 35.627 39.4814C35.9694 39.6223 36.3362 39.6944 36.7064 39.6936H60.4442C60.8144 39.6944 61.1811 39.6222 61.5234 39.4813C61.8657 39.3403 62.177 39.1333 62.4393 38.8721C62.7016 38.6109 62.9099 38.3005 63.0523 37.9588C63.1946 37.6171 63.2683 37.2506 63.2691 36.8804V35.9892C63.2693 35.8834 63.2904 35.7787 63.3311 35.6811C63.3718 35.5834 63.4313 35.4948 63.5063 35.4201C63.5813 35.3455 63.6703 35.2864 63.7681 35.2461C63.8659 35.2059 63.9707 35.1853 64.0765 35.1856H69.8627C70.5502 35.1841 71.2313 35.318 71.8671 35.5798C72.5028 35.8415 73.0808 36.2259 73.568 36.711C74.0552 37.1961 74.4421 37.7724 74.7065 38.4071C74.971 39.0417 75.1078 39.7222 75.1093 40.4097Z" fill="white"/>
<path d="M69.8627 35.1854C70.5502 35.1839 71.2313 35.3179 71.8671 35.5796C72.5028 35.8413 73.0808 36.2257 73.568 36.7109C74.0552 37.196 74.4421 37.7723 74.7065 38.4069C74.971 39.0416 75.1078 39.7221 75.1093 40.4096V144.632C75.1063 146.02 74.5519 147.351 73.568 148.33C72.584 149.31 71.2512 149.859 69.8627 149.856H27.2878C25.8993 149.859 24.5664 149.31 23.5824 148.33C22.5984 147.351 22.0439 146.02 22.0408 144.632V40.4096C22.0423 39.722 22.1792 39.0415 22.4437 38.4069C22.7082 37.7722 23.0951 37.1959 23.5823 36.7108C24.0696 36.2257 24.6476 35.8413 25.2834 35.5796C25.9191 35.3179 26.6002 35.1839 27.2878 35.1854H33.074C33.1798 35.1852 33.2845 35.2058 33.3823 35.2461C33.4801 35.2863 33.5691 35.3455 33.644 35.4201C33.719 35.4947 33.7785 35.5834 33.8192 35.681C33.8598 35.7787 33.8809 35.8834 33.8811 35.9891V36.8803C33.8819 37.2505 33.9556 37.617 34.098 37.9587C34.2404 38.3005 34.4487 38.6108 34.7111 38.8721C34.9734 39.1333 35.2846 39.3403 35.627 39.4812C35.9694 39.6222 36.3361 39.6943 36.7064 39.6935H60.4441C60.8143 39.6942 61.1811 39.6221 61.5234 39.4811C61.8657 39.3402 62.1769 39.1332 62.4392 38.872C62.7015 38.6107 62.9098 38.3004 63.0522 37.9587C63.1946 37.6169 63.2683 37.2505 63.269 36.8803V35.9891C63.2693 35.8833 63.2903 35.7786 63.331 35.681C63.3718 35.5833 63.4313 35.4946 63.5063 35.42C63.5813 35.3454 63.6702 35.2862 63.7681 35.246C63.8659 35.2057 63.9707 35.1852 64.0765 35.1854H69.8627M69.8627 34.4539H64.0765C63.6686 34.4534 63.2771 34.6148 62.988 34.9026C62.6989 35.1904 62.5357 35.5812 62.5343 35.9891V36.8803C62.5326 37.4333 62.3115 37.9631 61.9197 38.3533C61.5278 38.7436 60.9972 38.9624 60.4441 38.9619H36.7064C36.1533 38.9625 35.6226 38.7436 35.2307 38.3534C34.8388 37.9631 34.6176 37.4334 34.6158 36.8803V35.9891C34.6145 35.5812 34.4514 35.1905 34.1624 34.9027C33.8733 34.6149 33.4819 34.4535 33.074 34.4539H27.2878C25.7054 34.4522 24.1869 35.0784 23.0655 36.1949C21.9441 37.3114 21.3114 38.8272 21.3062 40.4096V144.632C21.3114 146.214 21.9441 147.73 23.0655 148.846C24.1869 149.963 25.7053 150.589 27.2878 150.587H69.8627C71.4451 150.589 72.9635 149.963 74.0848 148.846C75.2062 147.73 75.8388 146.214 75.844 144.632V40.4096C75.8388 38.8272 75.2062 37.3115 74.0848 36.1949C72.9635 35.0784 71.4451 34.4523 69.8627 34.4539V34.4539Z" fill="#6E8CBB"/>
<path d="M69.8627 35.1854C70.5502 35.1839 71.2313 35.3179 71.8671 35.5796C72.5028 35.8413 73.0808 36.2257 73.568 36.7109C74.0552 37.196 74.4421 37.7723 74.7065 38.4069C74.971 39.0416 75.1078 39.7221 75.1093 40.4096V144.632C75.1063 146.02 74.5519 147.351 73.568 148.33C72.584 149.31 71.2512 149.859 69.8627 149.856H27.2878C25.8993 149.859 24.5664 149.31 23.5824 148.33C22.5984 147.351 22.0439 146.02 22.0408 144.632V40.4096C22.0423 39.722 22.1792 39.0415 22.4437 38.4069C22.7082 37.7722 23.0951 37.1959 23.5823 36.7108C24.0696 36.2257 24.6476 35.8413 25.2834 35.5796C25.9191 35.3179 26.6002 35.1839 27.2878 35.1854H33.074C33.1798 35.1852 33.2845 35.2058 33.3823 35.2461C33.4801 35.2863 33.5691 35.3455 33.644 35.4201C33.719 35.4947 33.7785 35.5834 33.8192 35.681C33.8598 35.7787 33.8809 35.8834 33.8811 35.9891V36.8803C33.8819 37.2505 33.9556 37.617 34.098 37.9587C34.2404 38.3005 34.4487 38.6108 34.7111 38.8721C34.9734 39.1333 35.2846 39.3403 35.627 39.4812C35.9694 39.6222 36.3361 39.6943 36.7064 39.6935H60.4441C60.8143 39.6942 61.1811 39.6221 61.5234 39.4811C61.8657 39.3402 62.1769 39.1332 62.4392 38.872C62.7015 38.6107 62.9098 38.3004 63.0522 37.9587C63.1946 37.6169 63.2683 37.2505 63.269 36.8803V35.9891C63.2693 35.8833 63.2903 35.7786 63.331 35.681C63.3718 35.5833 63.4313 35.4946 63.5063 35.42C63.5813 35.3454 63.6702 35.2862 63.7681 35.246C63.8659 35.2057 63.9707 35.1852 64.0765 35.1854H69.8627M69.8627 34.4539H64.0765C63.6686 34.4534 63.2771 34.6148 62.988 34.9026C62.6989 35.1904 62.5357 35.5812 62.5343 35.9891V36.8803C62.5326 37.4333 62.3115 37.9631 61.9197 38.3533C61.5278 38.7436 60.9972 38.9624 60.4441 38.9619H36.7064C36.1533 38.9625 35.6226 38.7436 35.2307 38.3534C34.8388 37.9631 34.6176 37.4334 34.6158 36.8803V35.9891C34.6145 35.5812 34.4514 35.1905 34.1624 34.9027C33.8733 34.6149 33.4819 34.4535 33.074 34.4539H27.2878C25.7054 34.4522 24.1869 35.0784 23.0655 36.1949C21.9441 37.3114 21.3114 38.8272 21.3062 40.4096V144.632C21.3114 146.214 21.9441 147.73 23.0655 148.846C24.1869 149.963 25.7053 150.589 27.2878 150.587H69.8627C71.4451 150.589 72.9635 149.963 74.0848 148.846C75.2062 147.73 75.8388 146.214 75.844 144.632V40.4096C75.8388 38.8272 75.2062 37.3115 74.0848 36.1949C72.9635 35.0784 71.4451 34.4523 69.8627 34.4539V34.4539Z" fill="#292929"/>
<path d="M73.8011 76.8432C70.8692 76.8414 68.0036 75.9703 65.5668 74.3401C63.1299 72.7099 61.231 70.3938 60.1103 67.6846C58.9896 64.9753 58.6973 61.9946 59.2704 59.1193C59.8435 56.2439 61.2562 53.6031 63.33 51.5306C65.4039 49.458 68.0456 48.0469 70.9213 47.4756C73.797 46.9043 76.7775 47.1984 79.486 48.3209C82.1946 49.4433 84.5095 51.3435 86.1382 53.7815C87.7669 56.2194 88.6362 59.0854 88.6362 62.0173C88.6306 65.9493 87.0656 69.7185 84.2844 72.4979C81.5032 75.2774 77.733 76.8401 73.8011 76.8432ZM73.8011 48.4822C71.1241 48.4825 68.5074 49.2766 66.2818 50.7641C64.0562 52.2515 62.3216 54.3656 61.2974 56.8388C60.2732 59.3121 60.0054 62.0335 60.5279 64.6589C61.0503 67.2844 62.3396 69.696 64.2325 71.5887C66.1255 73.4815 68.5373 74.7704 71.1628 75.2925C73.7883 75.8147 76.5097 75.5465 78.9828 74.522C81.4559 73.4975 83.5698 71.7627 85.0569 69.5369C86.5441 67.3111 87.3379 64.6943 87.3379 62.0173C87.3334 58.4287 85.9056 54.9884 83.3679 52.451C80.8302 49.9136 77.3897 48.4863 73.8011 48.4822Z" fill="#6E8CBB"/>
<path d="M77.7282 66.272C77.4302 66.9136 76.9534 67.4556 76.355 67.833C75.7565 68.2103 75.0619 68.4069 74.3545 68.3993C71.8634 68.3993 69.9432 66.8945 69.3205 64.0413H68.1265V62.5888L69.1646 62.5369V61.5511H68.1265V60.1503L69.3724 60.0468V59.9947C69.6 59.0615 70.0052 58.1809 70.5659 57.4009C71.0064 56.847 71.567 56.4004 72.2053 56.0948C72.8436 55.7892 73.543 55.6326 74.2507 55.6367C74.903 55.6239 75.5482 55.7738 76.1281 56.0727C76.708 56.3717 77.2043 56.8103 77.5723 57.3491L77.5204 57.401L76.0674 58.7499C75.8773 58.4885 75.6272 58.2767 75.3381 58.1322C75.0491 57.9877 74.7295 57.9148 74.4064 57.9197C73.3685 57.9197 72.6937 58.698 72.3823 59.9948H76.3787V61.5512H72.1229V61.9664C72.1117 62.1409 72.1292 62.3161 72.1748 62.4849H75.6002V64.0413H72.3824C72.6937 65.3384 73.4204 66.1167 74.5104 66.1167C74.8483 66.1073 75.1781 66.0118 75.4688 65.8393C75.7594 65.6668 76.0012 65.4229 76.1712 65.1308L77.7282 66.272Z" fill="#6E8CBB"/>
<path d="M107.807 68.9603C104.876 68.958 102.011 68.0866 99.5746 66.4563C97.1383 64.826 95.24 62.51 94.1197 59.801C92.9994 57.092 92.7075 54.1117 93.2807 51.2368C93.8539 48.3619 95.2666 45.7215 97.3402 43.6494C99.4138 41.5772 102.055 40.1664 104.931 39.5952C107.806 39.024 110.786 39.3181 113.494 40.4402C116.202 41.5624 118.517 43.4623 120.146 45.8998C121.774 48.3373 122.644 51.2029 122.644 54.1344C122.639 58.0667 121.073 61.8362 118.292 64.6158C115.51 67.3953 111.74 68.9578 107.807 68.9603ZM107.807 40.6018C105.131 40.6026 102.515 41.3971 100.289 42.8848C98.0643 44.3725 96.3303 46.4866 95.3066 48.9597C94.283 51.4328 94.0156 54.154 94.5384 56.7791C95.0612 59.4041 96.3506 61.8152 98.2437 63.7075C100.137 65.5998 102.548 66.8883 105.174 67.41C107.799 67.9317 110.52 67.6633 112.993 66.6386C115.465 65.6139 117.579 63.8791 119.066 61.6533C120.552 59.4276 121.346 56.811 121.346 54.1344C121.341 50.5458 119.913 47.1055 117.375 44.5685C114.837 42.0315 111.396 40.6049 107.807 40.6017V40.6018Z" fill="#6E8CBB"/>
<path d="M111.736 58.3897C111.438 59.0313 110.961 59.5733 110.363 59.9507C109.764 60.328 109.069 60.5246 108.362 60.5169C105.871 60.5169 103.951 59.0121 103.328 56.1589H102.134V54.7062L103.172 54.6543V53.6688H102.134V52.2678L103.38 52.1643V52.1124C103.607 51.1791 104.013 50.2985 104.573 49.5186C105.014 48.9647 105.575 48.518 106.213 48.2124C106.851 47.9068 107.551 47.7502 108.258 47.7544C108.911 47.7416 109.556 47.8914 110.136 48.1903C110.715 48.4892 111.212 48.9278 111.58 49.4664L111.528 49.5186L110.075 50.8675C109.885 50.606 109.635 50.3941 109.346 50.2496C109.057 50.1051 108.737 50.0321 108.414 50.037C107.376 50.037 106.701 50.8153 106.39 52.1124H110.386V53.6688H106.13V54.0838C106.119 54.2584 106.137 54.4336 106.182 54.6025H109.608V56.159H106.39C106.701 57.4558 107.428 58.2341 108.518 58.2341C108.856 58.2248 109.186 58.1294 109.476 57.9569C109.767 57.7844 110.009 57.5406 110.179 57.2485L111.736 58.3897Z" fill="#6E8CBB"/>
<path d="M58.3117 105.724H38.8388L38.6537 105.557C36.4224 103.55 34.8523 100.914 34.1506 97.996C33.4489 95.0782 33.6487 92.0161 34.7234 89.214C35.7982 86.412 37.6975 84.0018 40.1706 82.3017C42.6436 80.6016 45.5741 79.6914 48.5752 79.6914C51.5763 79.6914 54.5068 80.6016 56.9799 82.3017C59.4529 84.0018 61.3522 86.412 62.427 89.214C63.5018 92.0161 63.7015 95.0782 62.9998 97.996C62.2981 100.914 60.728 103.55 58.4968 105.557L58.3117 105.724Z" fill="#E9CA8F"/>
<path d="M58.4527 106.089H38.6977L38.4079 105.829C36.1216 103.772 34.5128 101.07 33.7939 98.0801C33.075 95.09 33.2798 91.9522 34.3814 89.0809C35.4829 86.2097 37.4293 83.74 39.9636 81.9979C42.4979 80.2559 45.5009 79.3233 48.5763 79.3235C51.6516 79.3236 54.6545 80.2564 57.1887 81.9987C59.7228 83.7411 61.669 86.2109 62.7702 89.0823C63.8714 91.9537 64.076 95.0915 63.3568 98.0816C62.6376 101.072 61.0286 103.773 58.7421 105.83L58.4527 106.089ZM38.98 105.358H58.1705L58.2508 105.286C60.427 103.329 61.9584 100.757 62.6429 97.9118C63.3275 95.0661 63.1328 92.0798 62.0848 89.347C61.0368 86.6142 59.1846 84.2636 56.7728 82.6053C54.361 80.9471 51.503 80.0593 48.5762 80.0592C45.6494 80.059 42.7913 80.9465 40.3794 82.6045C37.9674 84.2625 36.115 86.613 35.0667 89.3456C34.0184 92.0783 33.8235 95.0646 34.5077 97.9104C35.1919 100.756 36.7231 103.327 38.8991 105.285L38.98 105.358Z" fill="#A58346"/>
<path d="M73.8011 76.8434C81.9943 76.8434 88.6362 70.2057 88.6362 62.0175C88.6362 53.8294 81.9943 47.1917 73.8011 47.1917C65.6079 47.1917 58.9659 53.8294 58.9659 62.0175C58.9659 70.2057 65.6079 76.8434 73.8011 76.8434Z" fill="#E9CA8F"/>
<path d="M73.8009 77.2092C70.7968 77.207 67.8607 76.3141 65.364 74.6435C62.8672 72.9729 60.9218 70.5995 59.7737 67.8234C58.6256 65.0473 58.3263 61.9931 58.9138 59.047C59.5012 56.1008 60.9489 53.395 63.074 51.2715C65.199 49.148 67.9059 47.7023 70.8525 47.117C73.7991 46.5318 76.853 46.8333 79.6283 47.9834C82.4035 49.1335 84.7755 51.0807 86.4443 53.5787C88.1131 56.0767 89.0037 59.0134 89.0037 62.0176C88.9977 66.0467 87.3937 69.909 84.5436 72.757C81.6935 75.605 77.8301 77.2062 73.8009 77.2092ZM73.8009 47.5575C70.9413 47.5591 68.1464 48.4085 65.7695 49.9983C63.3926 51.5882 61.5405 53.8471 60.4473 56.4895C59.3541 59.1319 59.0689 62.039 59.6277 64.8435C60.1866 67.6479 61.5644 70.2237 63.587 72.2452C65.6096 74.2667 68.1861 75.6431 70.9909 76.2004C73.7957 76.7577 76.7027 76.4708 79.3445 75.3762C81.9862 74.2815 84.2441 72.4281 85.8326 70.0503C87.4212 67.6725 88.2691 64.8771 88.2691 62.0176C88.2637 58.1828 86.7374 54.5067 84.025 51.7958C81.3127 49.085 77.6357 47.5607 73.8009 47.5575Z" fill="#A58346"/>
<path d="M143.284 99.7363C140.352 99.7347 137.486 98.8638 135.049 97.2338C132.612 95.6037 130.713 93.2877 129.592 90.5785C128.471 87.8693 128.179 84.8885 128.752 82.0131C129.325 79.1377 130.737 76.4967 132.811 74.4241C134.885 72.3514 137.527 70.9402 140.402 70.3688C143.278 69.7974 146.259 70.0914 148.967 71.2138C151.676 72.3362 153.991 74.2364 155.62 76.6744C157.248 79.1123 158.118 81.9784 158.118 84.9104C158.112 88.842 156.547 92.6109 153.766 95.3902C150.985 98.1696 147.215 99.7325 143.284 99.7363Z" fill="#E9CA8F"/>
<path d="M143.284 100.102C140.279 100.1 137.343 99.2075 134.846 97.537C132.349 95.8666 130.404 93.4933 129.255 90.7172C128.107 87.9411 127.808 84.8869 128.395 81.9407C128.982 78.9944 130.43 76.2885 132.555 74.1648C134.68 72.0412 137.387 70.5953 140.333 70.0099C143.28 69.4246 146.334 69.726 149.109 70.8761C151.884 72.0262 154.257 73.9733 155.925 76.4714C157.594 78.9694 158.485 81.9062 158.485 84.9104C158.479 88.9393 156.875 92.8012 154.025 95.6491C151.175 98.4971 147.312 100.098 143.284 100.102ZM143.284 70.4503C140.424 70.4516 137.629 71.3008 135.252 72.8905C132.875 74.4802 131.022 76.739 129.929 79.3813C128.835 82.0237 128.55 84.9309 129.109 87.7355C129.667 90.54 131.045 93.1159 133.068 95.1375C135.09 97.1592 137.667 98.5357 140.472 99.0931C143.276 99.6505 146.183 99.3638 148.825 98.2691C151.467 97.1745 153.725 95.3211 155.314 92.9433C156.902 90.5655 157.75 87.77 157.75 84.9104C157.745 81.0759 156.219 77.4001 153.507 74.6893C150.795 71.9785 147.118 70.4541 143.284 70.4503Z" fill="#A58346"/>
<path d="M53.3761 99.0962C53.078 99.7378 52.6012 100.28 52.0028 100.657C51.4044 101.034 50.7098 101.231 50.0024 101.223C47.5113 101.223 45.5911 99.7187 44.9684 96.8655H43.7745V95.3077H44.8124V94.3754H43.7745V92.8221L45.0202 92.819C45.2477 91.8856 45.653 91.0048 46.214 90.2249C46.6544 89.671 47.215 89.2244 47.8532 88.9189C48.4915 88.6133 49.1909 88.4567 49.8985 88.461C50.5508 88.4482 51.196 88.598 51.7758 88.8969C52.3557 89.1958 52.8521 89.6343 53.2201 90.173L53.1682 90.2249L51.7152 91.5738C51.5251 91.3124 51.275 91.1006 50.9859 90.9561C50.6969 90.8116 50.3773 90.7387 50.0542 90.7435C49.0163 90.7435 48.3415 91.5219 48.0301 92.8189H52.0266V94.3754H47.7707V94.7903C47.7595 94.9649 47.777 95.1402 47.8226 95.3091H51.248V96.8655H48.0302C48.3415 98.1623 49.0682 98.9406 50.1582 98.9406C50.4961 98.9313 50.8259 98.8358 51.1165 98.6634C51.4072 98.4909 51.649 98.2471 51.819 97.955L53.3761 99.0962Z" fill="white"/>
<path d="M77.7281 66.272C77.43 66.9136 76.9532 67.4556 76.3548 67.8329C75.7563 68.2103 75.0618 68.4069 74.3543 68.3993C71.8633 68.3993 69.943 66.8945 69.3204 64.0413H68.1266V62.4835H69.1644V61.5512H68.1266V59.9979L69.3722 59.9948C69.5997 59.0614 70.0051 58.1806 70.566 57.4007C71.0065 56.8468 71.567 56.4003 72.2053 56.0947C72.8436 55.7891 73.5429 55.6325 74.2506 55.6367C74.9028 55.6239 75.548 55.7738 76.1279 56.0726C76.7078 56.3715 77.2041 56.8101 77.5721 57.3488L77.5202 57.4006L76.0672 58.7495C75.8772 58.4882 75.627 58.2763 75.338 58.1319C75.0489 57.9874 74.7293 57.9145 74.4062 57.9193C73.3684 57.9193 72.6935 58.6977 72.3822 59.9947H76.3786V61.5511H72.1227V61.9661C72.1115 62.1407 72.1291 62.3159 72.1747 62.4848H75.6V64.0412H72.3822C72.6935 65.338 73.4203 66.1163 74.5103 66.1163C74.8481 66.107 75.178 66.0116 75.4686 65.8391C75.7592 65.6666 76.001 65.4228 76.1711 65.1308L77.7281 66.272Z" fill="white"/>
<path d="M107.807 68.9603C104.876 68.958 102.011 68.0866 99.5746 66.4563C97.1383 64.826 95.24 62.51 94.1197 59.801C92.9994 57.092 92.7075 54.1117 93.2807 51.2368C93.8539 48.3619 95.2666 45.7215 97.3402 43.6494C99.4138 41.5772 102.055 40.1664 104.931 39.5952C107.806 39.024 110.786 39.3181 113.494 40.4402C116.202 41.5624 118.517 43.4623 120.146 45.8998C121.774 48.3373 122.644 51.2029 122.644 54.1344C122.639 58.0667 121.073 61.8362 118.292 64.6158C115.51 67.3953 111.74 68.9578 107.807 68.9603Z" fill="#E9CA8F"/>
<path d="M107.807 69.326C104.803 69.3233 101.868 68.4302 99.3717 66.7595C96.8754 65.0888 94.9304 62.7155 93.7827 59.9397C92.635 57.1638 92.336 54.11 92.9236 51.1643C93.5111 48.2185 94.9588 45.5131 97.0836 43.39C99.2084 41.2668 101.915 39.8213 104.861 39.2361C107.807 38.6509 110.861 38.9524 113.636 40.1023C116.411 41.2522 118.783 43.1991 120.451 45.6967C122.12 48.1943 123.011 51.1306 123.011 54.1343C123.005 58.1637 121.401 62.0263 118.551 64.8744C115.7 67.7224 111.837 69.3234 107.807 69.326ZM107.807 39.6766C104.948 39.6787 102.153 40.5284 99.777 42.1184C97.4005 43.7085 95.5489 45.9674 94.4561 48.6097C93.3634 51.252 93.0785 54.1589 93.6377 56.963C94.1968 59.7671 95.5748 62.3425 97.5975 64.3635C99.6201 66.3846 102.197 67.7606 105.001 68.3175C107.806 68.8744 110.712 68.5873 113.354 67.4925C115.995 66.3977 118.253 64.5442 119.841 62.1665C121.429 59.7889 122.277 56.9937 122.276 54.1343C122.271 50.2996 120.744 46.6237 118.032 43.9132C115.319 41.2027 111.642 39.6791 107.807 39.6766V39.6766Z" fill="#A58346"/>
<path d="M64.0653 105.445H33.0853V106.736H64.0653V105.445Z" fill="#D1D1D1"/>
<path d="M64.0652 105.445V106.736H33.0853V105.445H64.0652ZM64.7999 104.714H32.3506V107.467H64.7999V104.714Z" fill="#8C8C8C"/>
<path d="M159.527 105.445H128.547V106.736H159.527V105.445Z" fill="#D1D1D1"/>
<path d="M159.527 105.445V106.736H128.547V105.445H159.527ZM160.262 104.714H127.812V107.467H160.262V104.714Z" fill="#8C8C8C"/>
<path d="M111.736 58.3894C111.438 59.0311 110.961 59.573 110.362 59.9504C109.764 60.3277 109.069 60.5243 108.362 60.5167C105.871 60.5167 103.951 59.0119 103.328 56.1587H102.134V54.601H103.172V53.6686H102.134V52.1153L103.38 52.1122C103.607 51.1788 104.013 50.298 104.574 49.5181C105.014 48.9642 105.575 48.5177 106.213 48.2121C106.851 47.9065 107.551 47.75 108.258 47.7542C108.911 47.7414 109.556 47.8912 110.136 48.1901C110.715 48.489 111.212 48.9275 111.58 49.4662L111.528 49.5181L110.075 50.867C109.885 50.6056 109.635 50.3938 109.346 50.2493C109.057 50.1048 108.737 50.0319 108.414 50.0368C107.376 50.0368 106.701 50.8151 106.39 52.1121H110.386V53.6685H106.13V54.0835C106.119 54.2581 106.137 54.4333 106.182 54.6022H109.608V56.1587H106.39C106.701 57.4554 107.428 58.2338 108.518 58.2338C108.856 58.2244 109.186 58.129 109.476 57.9565C109.767 57.7841 110.009 57.5403 110.179 57.2482L111.736 58.3894Z" fill="white"/>
<path d="M147.21 89.1651C146.912 89.8067 146.435 90.3487 145.837 90.726C145.239 91.1033 144.544 91.3 143.837 91.2923C141.346 91.2923 139.425 89.7875 138.803 86.9343H137.609V85.3766H138.647V84.4442H137.609V82.8909L138.855 82.8878C139.082 81.9544 139.487 81.0736 140.048 80.2937C140.489 79.7398 141.049 79.2933 141.688 78.9877C142.326 78.6822 143.025 78.5256 143.733 78.5298C144.385 78.517 145.03 78.6668 145.61 78.9657C146.19 79.2646 146.686 79.7032 147.054 80.2418L147.003 80.2937L145.55 81.6426C145.359 81.3813 145.109 81.1695 144.82 81.025C144.531 80.8805 144.212 80.8076 143.889 80.8124C142.851 80.8124 142.176 81.5908 141.864 82.8878H145.861V84.4442H141.605V84.8592C141.594 85.0338 141.611 85.209 141.657 85.3779H145.082V86.9343H141.865C142.176 88.2311 142.903 89.0095 143.993 89.0095C144.33 89.0001 144.66 88.9047 144.951 88.7323C145.242 88.5598 145.483 88.316 145.653 88.0239L147.21 89.1651Z" fill="white"/>
</svg>
