<svg width="196" height="192" viewBox="0 0 196 192" fill="none" xmlns="http://www.w3.org/2000/svg">
<path d="M44.0932 99.3563C45.9279 88.6584 55.6016 90.9926 55.6016 90.9926C55.1012 85.9354 60.772 84.3793 60.772 84.3793C55.268 72.1253 64.4413 67.6518 64.4413 67.6518C68.9445 51.5078 82.1208 59.4825 82.1208 59.4825C100.968 54.4252 106.972 74.0704 106.972 74.0704C118.647 65.1231 125.819 76.0155 125.819 76.0155C127.736 76.3352 129.538 77.128 131.056 78.3191C132.573 79.5102 133.756 81.0603 134.492 82.8233C148.502 80.4892 150.837 95.0773 150.837 95.0773C152.517 94.3307 154.413 94.1948 156.186 94.6938C157.959 95.1928 159.492 96.2942 160.511 97.8004C166.182 94.1048 173.02 97.8004 171.519 106.553C170.018 115.306 159.677 111.027 159.677 111.027C147.835 117.835 135.326 111.999 135.326 111.999C127.987 114.528 124.151 111.221 124.151 111.221C109.14 123.281 84.4558 112.972 84.4558 112.972C72.9475 120.558 60.9389 112.583 60.9389 112.583C56.936 116.278 50.598 113.75 50.598 113.75C32.7517 120.168 27.9148 110.638 27.9148 110.638C27.9148 110.638 18.0744 115.889 14.9054 109.082C11.7364 102.274 17.2404 97.2168 25.9134 99.3562C28.3803 97.6223 31.3922 96.7959 34.4196 97.0221C37.7718 97.1536 41.0622 97.9476 44.0932 99.3563Z" fill="#E6E6E6"/>
<path d="M52.6951 80.3118H52.6151C51.7551 80.3412 50.9051 80.3706 50.055 80.4098C49.8751 80.4098 49.7051 80.4196 49.5251 80.4294C48.835 80.4588 48.1451 80.4882 47.4552 80.5176C44.1151 80.6743 41.045 80.8702 38.2451 81.0759C36.7551 81.1935 35.295 81.311 33.8651 81.4482C33.4951 81.4776 33.1351 81.5167 32.785 81.5461C31.3951 81.6735 30.0951 81.8008 28.8951 81.9282C28.4951 81.9674 28.1051 82.0163 27.7251 82.0555C25.8751 74.5225 21.6652 57.1837 20.9252 54.1567H26.4452C29.3451 54.1567 30.0951 54.9208 32.7751 58.1339C34.1151 59.7502 35.4518 61.3731 36.785 63.0025C40.6752 67.7437 44.6952 72.6514 48.9151 77.1967L49.5951 77.9216C50.4987 78.8677 51.5441 79.6737 52.6951 80.3118Z" fill="#97B3D5"/>
<path d="M180.44 93.8051C180.13 95.6369 176.24 99.2712 150.32 99.2712H71.65C59.8041 98.8731 48.0543 97.037 36.6698 93.8051L35.4698 93.4426H180.42C180.442 93.5621 180.449 93.6839 180.44 93.8051Z" fill="#97B3D5"/>
<path d="M181.145 93.0662C180.495 90.1568 173.855 87.3748 173.855 87.3748C169.235 80.7821 154.835 80.0376 144.225 80.0376C141.135 80.0376 138.355 80.0964 136.245 80.0964H66.155C65.275 80.0964 64.395 80.0964 63.5349 80.1258C60.3049 80.1258 57.2151 80.1944 54.2949 80.2629C52.7235 79.6116 51.3096 78.6437 50.145 77.4221L49.475 76.6972C45.265 72.1715 41.255 67.2735 37.375 62.5421C36.0349 60.916 34.6949 59.2931 33.355 57.6735C30.605 54.3723 29.6751 53.4221 26.4451 53.4221H19.975L20.085 53.8825C20.085 53.8825 24.9251 73.8172 26.975 82.1438C20.845 82.8589 17.625 83.4858 17.625 83.4858V86.7674C22.0837 89.3378 26.8022 91.4487 31.7051 93.0662C44.6084 97.2084 58.0446 99.5433 71.615 100.002H150.315C175.335 100.002 181.215 96.6123 181.215 93.5462C181.212 93.384 181.189 93.2227 181.145 93.0662ZM20.925 54.1568H26.445C29.3449 54.1568 30.0949 54.9209 32.7749 58.134C34.1149 59.7503 35.4516 61.3731 36.7848 63.0025C40.675 67.7438 44.695 72.6515 48.915 77.1968L49.5949 77.9217C50.4986 78.8678 51.5439 79.6737 52.695 80.3119H52.615C51.755 80.3413 50.905 80.3707 50.0549 80.4099C49.875 80.4099 49.7051 80.4197 49.525 80.4295C48.835 80.4589 48.145 80.4882 47.4551 80.5176C44.115 80.6744 41.0449 80.8703 38.245 81.076C36.7051 81.2033 35.245 81.3209 33.865 81.4482C33.495 81.4776 33.135 81.5168 32.7849 81.5462C31.395 81.6735 30.095 81.8009 28.895 81.9282C28.495 81.9674 28.105 82.0164 27.725 82.0556C25.875 74.5225 21.665 57.1838 20.9251 54.1568H20.925ZM180.435 93.8009C180.125 95.6327 176.235 99.267 150.315 99.267H71.645C59.7991 98.8689 48.0494 97.0329 36.665 93.8009L35.465 93.4384L34.2449 93.0662L33.0448 92.7038L31.8148 92.3315C27.144 90.7763 22.642 88.7714 18.375 86.3462V84.1029C19.615 83.8874 22.7051 83.378 27.485 82.8197H27.525C29.105 82.6433 30.905 82.4572 32.855 82.2809C33.905 82.1829 34.9651 82.085 36.0449 81.9968C37.2949 81.889 38.5749 81.7911 39.865 81.7029C40.235 81.6735 40.615 81.6441 40.995 81.6246C42.485 81.5168 44.005 81.4286 45.5449 81.3503C48.365 81.1935 51.265 81.0858 54.225 80.9976C54.8049 80.9878 55.385 80.9682 55.9651 80.9487C58.475 80.8997 60.9651 80.8605 63.5549 80.8605C64.405 80.8311 65.2949 80.8311 66.155 80.8311H136.245C137.205 80.8311 138.295 80.8213 139.495 80.8115C140.955 80.7919 142.535 80.7723 144.225 80.7723C149.825 80.6841 155.422 81.0676 160.955 81.9184C166.365 82.8882 171.035 84.6417 173.235 87.7862L173.355 87.9625L173.555 88.0507C175.605 88.9127 178.785 90.6858 179.975 92.3315C180.08 92.4399 180.165 92.566 180.225 92.7038C180.333 92.9354 180.398 93.1843 180.415 93.4384C180.442 93.5573 180.449 93.6798 180.435 93.8009H180.435Z" fill="#D1D1D1"/>
<path d="M180.415 93.4383H35.4651L34.245 93.066L33.0449 92.7036L31.8149 92.3313C27.1441 90.7762 22.6421 88.7713 18.375 86.346V84.1028C19.615 83.8872 22.7051 83.3779 27.485 82.8195H27.525C29.105 82.6432 30.905 82.457 32.855 82.2807C33.905 82.1828 34.9651 82.0848 36.0449 81.9966C37.2949 81.8888 38.5749 81.7909 39.865 81.7028C40.235 81.6734 40.615 81.6439 40.995 81.6244C42.485 81.5166 44.005 81.4285 45.5449 81.3501C48.365 81.1934 51.265 81.0856 54.225 80.9974C54.8049 80.9877 55.385 80.9681 55.9651 80.9485C58.475 80.8995 60.9651 80.8603 63.5549 80.8603C64.405 80.8309 65.2949 80.8309 66.155 80.8309H136.245C137.205 80.8309 138.295 80.8211 139.495 80.8113C140.955 80.7917 142.535 80.7721 144.225 80.7721C149.825 80.6839 155.422 81.0674 160.955 81.9183C166.365 82.8881 171.035 84.6415 173.235 87.786L173.355 87.9623L173.555 88.0505C175.605 88.9126 178.785 90.6856 179.975 92.3313C180.08 92.4397 180.165 92.5658 180.225 92.7036C180.333 92.9352 180.398 93.1841 180.415 93.4383H180.415Z" fill="white"/>
<path d="M72.4551 88.2661V89.5395C72.4557 89.8685 72.3437 90.1881 72.137 90.4474C71.9303 90.7067 71.6409 90.8906 71.315 90.9697H70.585C70.258 90.891 69.9672 90.7075 69.7588 90.4484C69.5505 90.1893 69.4365 89.8694 69.4351 89.5395V88.2661C69.4364 87.8742 69.5959 87.4987 69.8788 87.2216C70.1617 86.9444 70.545 86.7882 70.9451 86.7869H70.9551C71.3541 86.7886 71.7361 86.9453 72.0173 87.2226C72.2985 87.4999 72.456 87.8752 72.4551 88.2661Z" fill="#C2D3E6"/>
<path d="M79.0349 88.2661V89.5395C79.0355 89.8684 78.9236 90.1881 78.7169 90.4473C78.5103 90.7066 78.2209 90.8905 77.895 90.9697H77.165C76.838 90.891 76.5472 90.7076 76.3388 90.4484C76.1305 90.1893 76.0165 89.8694 76.015 89.5395V88.2661C76.0164 87.8742 76.1759 87.4987 76.4588 87.2216C76.7417 86.9445 77.125 86.7882 77.525 86.7869H77.5349C77.9339 86.7886 78.316 86.9453 78.5972 87.2226C78.8784 87.4999 79.0358 87.8752 79.0349 88.2661Z" fill="#C2D3E6"/>
<path d="M85.615 88.2661V89.5395C85.6156 89.8685 85.5036 90.1881 85.297 90.4474C85.0903 90.7067 84.8009 90.8906 84.475 90.9697H83.745C83.4179 90.891 83.1271 90.7076 82.9188 90.4484C82.7104 90.1893 82.5964 89.8694 82.595 89.5395V88.2661C82.5963 87.8742 82.7559 87.4987 83.0387 87.2216C83.3216 86.9445 83.7049 86.7882 84.105 86.7869H84.115C84.514 86.7886 84.896 86.9453 85.1773 87.2226C85.4585 87.4999 85.6159 87.8752 85.615 88.2661Z" fill="#C2D3E6"/>
<path d="M92.1951 88.2661V89.5395C92.1957 89.8685 92.0837 90.1881 91.877 90.4474C91.6704 90.7067 91.3809 90.8906 91.0549 90.9697H90.3249C89.9979 90.891 89.7072 90.7075 89.4988 90.4484C89.2905 90.1893 89.1765 89.8694 89.175 89.5395V88.2661C89.1764 87.8742 89.3359 87.4987 89.6188 87.2216C89.9017 86.9444 90.285 86.7882 90.685 86.7869H90.695C91.0941 86.7886 91.4761 86.9453 91.7573 87.2226C92.0386 87.4999 92.196 87.8752 92.1951 88.2661Z" fill="#C2D3E6"/>
<path d="M98.775 88.2661V89.5395C98.7756 89.8685 98.6636 90.1881 98.457 90.4474C98.2503 90.7066 97.9609 90.8905 97.635 90.9697H96.905C96.578 90.891 96.2872 90.7076 96.0788 90.4484C95.8705 90.1893 95.7565 89.8694 95.755 89.5395V88.2661C95.7564 87.8742 95.9159 87.4987 96.1988 87.2216C96.4817 86.9445 96.8649 86.7882 97.265 86.7869H97.275C97.674 86.7886 98.0561 86.9453 98.3373 87.2226C98.6185 87.4999 98.7759 87.8752 98.775 88.2661Z" fill="#C2D3E6"/>
<path d="M105.355 88.2661V89.5395C105.356 89.8684 105.244 90.1881 105.037 90.4473C104.83 90.7066 104.541 90.8905 104.215 90.9697H103.485C103.158 90.891 102.867 90.7076 102.659 90.4484C102.45 90.1893 102.336 89.8694 102.335 89.5395V88.2661C102.336 87.8742 102.496 87.4987 102.779 87.2216C103.062 86.9445 103.445 86.7882 103.845 86.7869H103.855C104.254 86.7886 104.636 86.9453 104.917 87.2226C105.198 87.4999 105.356 87.8752 105.355 88.2661Z" fill="#C2D3E6"/>
<path d="M109.795 92.3706C109.617 91.9618 109.322 91.6121 108.946 91.3636C108.57 91.1151 108.129 90.9783 107.675 90.9698H105.575C105.919 90.5697 106.107 90.0628 106.105 89.5396V88.2661C106.106 87.6803 105.87 87.118 105.448 86.7029C105.026 86.2877 104.453 86.0537 103.855 86.0522H103.845C103.548 86.0519 103.254 86.109 102.98 86.2202C102.705 86.3313 102.456 86.4944 102.246 86.7C102.036 86.9056 101.87 87.1498 101.756 87.4186C101.643 87.6873 101.585 87.9753 101.585 88.2661V89.5396C101.583 90.0628 101.771 90.5697 102.115 90.9698H98.995C99.3392 90.5697 99.5271 90.0628 99.525 89.5396V88.2661C99.5262 87.6803 99.2899 87.118 98.8679 86.7029C98.446 86.2877 97.873 86.0537 97.275 86.0522H97.265C96.9682 86.0519 96.6741 86.109 96.3998 86.2202C96.1255 86.3313 95.8762 86.4944 95.6663 86.7C95.4564 86.9056 95.2899 87.1498 95.1764 87.4186C95.063 87.6873 95.0047 87.9753 95.005 88.2661V89.5396C95.003 90.0628 95.1908 90.5697 95.5349 90.9698H92.415C92.7592 90.5697 92.9471 90.0628 92.945 89.5396V88.2661C92.9462 87.6803 92.7099 87.118 92.2879 86.7029C91.866 86.2877 91.293 86.0537 90.695 86.0522H90.685C90.3882 86.0519 90.0941 86.109 89.8198 86.2202C89.5455 86.3313 89.2962 86.4944 89.0863 86.7C88.8764 86.9056 88.7099 87.1498 88.5964 87.4186C88.483 87.6873 88.4247 87.9753 88.425 88.2661V89.5396C88.4229 90.0628 88.6108 90.5697 88.955 90.9698H85.835C86.1793 90.5697 86.3671 90.0628 86.365 89.5396V88.2661C86.3662 87.6803 86.1299 87.118 85.7079 86.7029C85.286 86.2877 84.713 86.0537 84.115 86.0522H84.105C83.8082 86.0519 83.5141 86.109 83.2398 86.2202C82.9655 86.3313 82.7162 86.4944 82.5063 86.7C82.2964 86.9056 82.1299 87.1498 82.0164 87.4186C81.903 87.6873 81.8447 87.9753 81.845 88.2661V89.5396C81.8429 90.0628 82.0308 90.5697 82.375 90.9698H79.255C79.5992 90.5697 79.787 90.0628 79.7849 89.5396V88.2661C79.7861 87.6803 79.5498 87.118 79.1279 86.7028C78.7059 86.2877 78.133 86.0537 77.5349 86.0522H77.525C77.2282 86.0519 76.9341 86.109 76.6598 86.2202C76.3855 86.3313 76.1362 86.4944 75.9263 86.7C75.7164 86.9056 75.5499 87.1498 75.4364 87.4186C75.323 87.6873 75.2647 87.9753 75.265 88.2661V89.5396C75.263 90.0628 75.4508 90.5697 75.7949 90.9698H72.6751C73.0193 90.5697 73.2071 90.0628 73.2051 89.5396V88.2661C73.2063 87.6803 72.9699 87.118 72.548 86.7029C72.1261 86.2877 71.5531 86.0537 70.9551 86.0522H70.9451C70.6482 86.0519 70.3542 86.109 70.0799 86.2202C69.8055 86.3313 69.5563 86.4944 69.3463 86.7C69.1364 86.9056 68.97 87.1498 68.8565 87.4186C68.743 87.6873 68.6848 87.9753 68.6851 88.2661V89.5396C68.683 90.0628 68.8708 90.5697 69.2151 90.9698H65.2051C64.6077 90.9787 64.0377 91.2165 63.6172 91.6322C63.1966 92.0478 62.9589 92.6083 62.9551 93.1935C62.9618 93.3284 62.9785 93.4626 63.005 93.5951C63.0135 93.7013 63.0442 93.8046 63.095 93.8988C63.1083 93.9916 63.1388 94.0812 63.1851 94.1633C63.3672 94.524 63.6431 94.8315 63.985 95.0547L64.075 95.1037C64.2138 95.1914 64.3656 95.2575 64.5251 95.2996C64.7345 95.3694 64.9539 95.4058 65.1751 95.4074H107.715L108.125 95.3584C108.213 95.3491 108.298 95.3224 108.375 95.2801C108.573 95.2224 108.762 95.1366 108.935 95.0254L109.375 94.6629L109.515 94.4768C109.535 94.4474 109.555 94.4082 109.585 94.369L109.715 94.1731C109.77 94.072 109.807 93.9628 109.825 93.8499L109.935 93.2621L109.945 93.1837C109.943 92.9063 109.892 92.6312 109.795 92.3706ZM102.335 89.5396V88.2662C102.336 87.8743 102.496 87.4988 102.779 87.2217C103.062 86.9446 103.445 86.7883 103.845 86.787H103.855C104.254 86.7887 104.636 86.9454 104.917 87.2227C105.198 87.5 105.356 87.8753 105.355 88.2662V89.5396C105.356 89.8686 105.244 90.1882 105.037 90.4475C104.83 90.7067 104.541 90.8907 104.215 90.9698H103.485C103.158 90.8912 102.867 90.7077 102.659 90.4485C102.45 90.1894 102.336 89.8695 102.335 89.5396L102.335 89.5396ZM95.7549 88.2662C95.7563 87.8743 95.9158 87.4988 96.1987 87.2217C96.4816 86.9446 96.8649 86.7883 97.2649 86.787H97.2749C97.674 86.7887 98.056 86.9454 98.3372 87.2227C98.6184 87.5 98.7758 87.8753 98.7749 88.2662V89.5396C98.7756 89.8686 98.6636 90.1882 98.4569 90.4475C98.2503 90.7067 97.9609 90.8907 97.6349 90.9698H96.9049C96.5779 90.8912 96.2871 90.7077 96.0788 90.4486C95.8704 90.1894 95.7564 89.8695 95.7549 89.5396V88.2662ZM89.175 88.2662C89.1763 87.8743 89.3359 87.4988 89.6187 87.2217C89.9016 86.9446 90.2849 86.7883 90.685 86.787H90.695C91.094 86.7887 91.476 86.9454 91.7573 87.2227C92.0385 87.5 92.1959 87.8753 92.195 88.2662V89.5396C92.1956 89.8686 92.0836 90.1883 91.877 90.4475C91.6703 90.7068 91.3808 90.8907 91.0549 90.9698H90.3249C89.9979 90.8912 89.7071 90.7077 89.4987 90.4485C89.2904 90.1894 89.1764 89.8695 89.175 89.5396L89.175 88.2662ZM82.5949 88.2662C82.5963 87.8743 82.7558 87.4988 83.0387 87.2217C83.3216 86.9446 83.7049 86.7883 84.1049 86.787H84.1149C84.5139 86.7887 84.896 86.9454 85.1772 87.2227C85.4584 87.5 85.6158 87.8753 85.6149 88.2662V89.5396C85.6156 89.8686 85.5036 90.1882 85.2969 90.4475C85.0903 90.7068 84.8008 90.8907 84.4749 90.9698H83.7449C83.4179 90.8912 83.1271 90.7077 82.9187 90.4486C82.7104 90.1894 82.5964 89.8695 82.5949 89.5396V88.2662ZM76.0149 88.2662C76.0163 87.8743 76.1758 87.4988 76.4587 87.2217C76.7416 86.9446 77.1249 86.7883 77.5249 86.787H77.5348C77.9338 86.7887 78.3159 86.9454 78.5971 87.2227C78.8783 87.5 79.0357 87.8753 79.0348 88.2662V89.5396C79.0354 89.8686 78.9235 90.1882 78.7169 90.4475C78.5102 90.7067 78.2208 90.8907 77.8949 90.9698H77.1649C76.8379 90.8912 76.5471 90.7077 76.3387 90.4486C76.1304 90.1894 76.0164 89.8695 76.0149 89.5396V88.2662ZM69.4349 88.2662C69.4363 87.8743 69.5958 87.4988 69.8787 87.2217C70.1616 86.9446 70.5449 86.7883 70.9449 86.787H70.9549C71.3539 86.7887 71.7359 86.9454 72.0172 87.2227C72.2984 87.5 72.4558 87.8753 72.4549 88.2662V89.5396C72.4555 89.8686 72.3435 90.1883 72.1369 90.4475C71.9302 90.7068 71.6407 90.8907 71.3148 90.9698H70.5848C70.2578 90.8912 69.967 90.7077 69.7587 90.4485C69.5503 90.1894 69.4363 89.8695 69.4349 89.5396L69.4349 88.2662ZM109.085 93.7225L109.025 93.8401C108.981 93.9282 108.931 94.0133 108.875 94.0947L108.495 94.4376C108.372 94.5075 108.241 94.5634 108.105 94.6041C108.077 94.6106 108.05 94.6204 108.025 94.6335L107.675 94.6727H65.2049C65.0479 94.6745 64.8919 94.648 64.7448 94.5943C64.6348 94.5649 64.5347 94.5258 64.5048 94.516L64.3648 94.3886H64.3248C64.1241 94.2427 63.9627 94.0511 63.8548 93.8303C63.8345 93.8015 63.824 93.7672 63.8248 93.7323L63.8148 93.6343L63.7549 93.556V93.507L63.7449 93.4678C63.7266 93.3738 63.7133 93.279 63.7049 93.1837C63.7052 92.9978 63.7461 92.8141 63.8248 92.6449C63.9319 92.3706 64.1208 92.1342 64.367 91.9664C64.6131 91.7987 64.9051 91.7075 65.2049 91.7045H107.665C107.969 91.7085 108.266 91.7972 108.521 91.9603C108.776 92.1233 108.979 92.354 109.105 92.6254C109.159 92.7969 109.189 92.9748 109.195 93.1543L109.085 93.7225Z" fill="#B1B1B1"/>
<path d="M111.935 88.2661V89.5395C111.935 89.9318 111.776 90.3081 111.493 90.5855C111.21 90.8629 110.826 91.0187 110.425 91.0187C110.025 91.0187 109.64 90.8629 109.357 90.5855C109.074 90.3081 108.915 89.9318 108.915 89.5395V88.2661C108.916 87.8742 109.076 87.4987 109.359 87.2216C109.642 86.9444 110.025 86.7882 110.425 86.7869H110.435C110.834 86.7886 111.216 86.9453 111.497 87.2226C111.779 87.4999 111.936 87.8752 111.935 88.2661Z" fill="#C2D3E6"/>
<path d="M110.435 86.0522H110.425C110.128 86.0519 109.834 86.109 109.56 86.2202C109.285 86.3313 109.036 86.4944 108.826 86.7C108.616 86.9056 108.45 87.1498 108.336 87.4186C108.223 87.6873 108.165 87.9753 108.165 88.2661V89.5396C108.165 89.8304 108.223 90.1184 108.336 90.3872C108.45 90.6559 108.616 90.9001 108.826 91.1057C109.036 91.3114 109.285 91.4744 109.56 91.5856C109.834 91.6967 110.128 91.7538 110.425 91.7535H110.435C111.033 91.752 111.606 91.518 112.028 91.1029C112.45 90.6877 112.686 90.1254 112.685 89.5396V88.2661C112.686 87.6803 112.45 87.118 112.028 86.7029C111.606 86.2877 111.033 86.0537 110.435 86.0522ZM111.935 89.5397C111.935 89.932 111.776 90.3082 111.493 90.5856C111.21 90.863 110.826 91.0188 110.425 91.0188C110.025 91.0188 109.64 90.863 109.357 90.5856C109.074 90.3082 108.915 89.932 108.915 89.5397V88.2662C108.916 87.8743 109.076 87.4988 109.359 87.2217C109.642 86.9446 110.025 86.7883 110.425 86.787H110.435C110.834 86.7887 111.216 86.9454 111.497 87.2227C111.779 87.5 111.936 87.8753 111.935 88.2662V89.5397Z" fill="#B1B1B1"/>
<path d="M118.515 88.2661V89.5395C118.515 89.9318 118.356 90.3081 118.073 90.5855C117.79 90.8629 117.405 91.0187 117.005 91.0187C116.605 91.0187 116.22 90.8629 115.937 90.5855C115.654 90.3081 115.495 89.9318 115.495 89.5395V88.2661C115.496 87.8742 115.656 87.4987 115.939 87.2216C116.222 86.9445 116.605 86.7882 117.005 86.7869H117.015C117.414 86.7886 117.796 86.9453 118.077 87.2226C118.358 87.4999 118.516 87.8752 118.515 88.2661Z" fill="#C2D3E6"/>
<path d="M117.015 86.0522H117.005C116.708 86.0519 116.414 86.109 116.14 86.2202C115.865 86.3313 115.616 86.4944 115.406 86.7C115.196 86.9056 115.03 87.1498 114.916 87.4186C114.803 87.6873 114.745 87.9753 114.745 88.2661V89.5396C114.745 89.8304 114.803 90.1184 114.916 90.3872C115.03 90.6559 115.196 90.9001 115.406 91.1057C115.616 91.3114 115.865 91.4744 116.14 91.5856C116.414 91.6967 116.708 91.7538 117.005 91.7535H117.015C117.613 91.752 118.186 91.518 118.608 91.1029C119.03 90.6877 119.266 90.1254 119.265 89.5396V88.2661C119.266 87.6803 119.03 87.118 118.608 86.7029C118.186 86.2877 117.613 86.0537 117.015 86.0522ZM118.515 89.5397C118.515 89.932 118.356 90.3082 118.073 90.5856C117.79 90.863 117.405 91.0188 117.005 91.0188C116.605 91.0188 116.22 90.863 115.937 90.5856C115.654 90.3082 115.495 89.932 115.495 89.5397V88.2662C115.496 87.8743 115.656 87.4988 115.939 87.2217C116.222 86.9446 116.605 86.7883 117.005 86.787H117.015C117.414 86.7887 117.796 86.9454 118.077 87.2227C118.358 87.5 118.516 87.8753 118.515 88.2662V89.5397Z" fill="#B1B1B1"/>
<path d="M125.095 88.2661V89.5395C125.095 89.9318 124.936 90.3081 124.653 90.5855C124.37 90.8629 123.985 91.0187 123.585 91.0187C123.184 91.0187 122.8 90.8629 122.517 90.5855C122.234 90.3081 122.075 89.9318 122.075 89.5395V88.2661C122.076 87.8742 122.236 87.4987 122.519 87.2216C122.802 86.9445 123.185 86.7882 123.585 86.7869H123.595C123.994 86.7886 124.376 86.9453 124.657 87.2226C124.938 87.4999 125.096 87.8752 125.095 88.2661Z" fill="#C2D3E6"/>
<path d="M123.595 86.0522H123.585C123.288 86.0519 122.994 86.109 122.72 86.2202C122.445 86.3313 122.196 86.4944 121.986 86.7C121.776 86.9056 121.61 87.1498 121.496 87.4186C121.383 87.6873 121.325 87.9753 121.325 88.2661V89.5396C121.325 89.8304 121.383 90.1184 121.496 90.3872C121.61 90.6559 121.776 90.9001 121.986 91.1057C122.196 91.3114 122.445 91.4744 122.72 91.5856C122.994 91.6967 123.288 91.7538 123.585 91.7535H123.595C124.193 91.752 124.766 91.518 125.188 91.1029C125.61 90.6877 125.846 90.1254 125.845 89.5396V88.2661C125.846 87.6803 125.61 87.118 125.188 86.7029C124.766 86.2877 124.193 86.0537 123.595 86.0522ZM125.095 89.5397C125.095 89.932 124.936 90.3082 124.653 90.5856C124.37 90.863 123.985 91.0188 123.585 91.0188C123.184 91.0188 122.8 90.863 122.517 90.5856C122.234 90.3082 122.075 89.932 122.075 89.5397V88.2662C122.076 87.8743 122.236 87.4988 122.519 87.2217C122.802 86.9446 123.185 86.7883 123.585 86.787H123.595C123.994 86.7887 124.376 86.9454 124.657 87.2227C124.938 87.5 125.096 87.8753 125.095 88.2662V89.5397Z" fill="#B1B1B1"/>
<path d="M131.675 88.2661V89.5395C131.675 89.9318 131.516 90.3081 131.233 90.5855C130.95 90.8629 130.566 91.0187 130.165 91.0187C129.765 91.0187 129.38 90.8629 129.097 90.5855C128.814 90.3081 128.655 89.9318 128.655 89.5395V88.2661C128.656 87.8742 128.816 87.4987 129.099 87.2216C129.382 86.9444 129.765 86.7882 130.165 86.7869H130.175C130.574 86.7886 130.956 86.9453 131.237 87.2226C131.519 87.4999 131.676 87.8752 131.675 88.2661Z" fill="#C2D3E6"/>
<path d="M130.175 86.0522H130.165C129.868 86.0519 129.574 86.109 129.3 86.2202C129.025 86.3313 128.776 86.4944 128.566 86.7C128.356 86.9056 128.19 87.1498 128.076 87.4186C127.963 87.6873 127.905 87.9753 127.905 88.2661V89.5396C127.905 89.8304 127.963 90.1184 128.076 90.3872C128.19 90.6559 128.356 90.9001 128.566 91.1057C128.776 91.3114 129.025 91.4744 129.3 91.5856C129.574 91.6967 129.868 91.7538 130.165 91.7535H130.175C130.773 91.752 131.346 91.518 131.768 91.1029C132.19 90.6877 132.426 90.1254 132.425 89.5396V88.2661C132.426 87.6803 132.19 87.118 131.768 86.7029C131.346 86.2877 130.773 86.0537 130.175 86.0522ZM131.675 89.5397C131.675 89.932 131.516 90.3082 131.233 90.5856C130.95 90.863 130.566 91.0188 130.165 91.0188C129.765 91.0188 129.38 90.863 129.097 90.5856C128.814 90.3082 128.655 89.932 128.655 89.5397V88.2662C128.656 87.8743 128.816 87.4988 129.099 87.2217C129.382 86.9446 129.765 86.7883 130.165 86.787H130.175C130.574 86.7887 130.956 86.9454 131.237 87.2227C131.518 87.5 131.676 87.8753 131.675 88.2662V89.5397Z" fill="#B1B1B1"/>
<path d="M138.255 88.2661V89.5395C138.255 89.9318 138.096 90.3081 137.813 90.5855C137.53 90.8629 137.145 91.0187 136.745 91.0187C136.345 91.0187 135.96 90.8629 135.677 90.5855C135.394 90.3081 135.235 89.9318 135.235 89.5395V88.2661C135.236 87.8742 135.396 87.4987 135.679 87.2216C135.962 86.9445 136.345 86.7882 136.745 86.7869H136.755C137.154 86.7886 137.536 86.9453 137.817 87.2226C138.098 87.4999 138.256 87.8752 138.255 88.2661Z" fill="#C2D3E6"/>
<path d="M136.755 86.0522H136.745C136.448 86.0519 136.154 86.109 135.88 86.2202C135.605 86.3313 135.356 86.4944 135.146 86.7C134.936 86.9056 134.77 87.1498 134.656 87.4186C134.543 87.6873 134.485 87.9753 134.485 88.2661V89.5396C134.485 89.8304 134.543 90.1184 134.656 90.3872C134.77 90.6559 134.936 90.9001 135.146 91.1057C135.356 91.3114 135.605 91.4744 135.88 91.5856C136.154 91.6967 136.448 91.7538 136.745 91.7535H136.755C137.353 91.752 137.926 91.518 138.348 91.1029C138.77 90.6877 139.006 90.1254 139.005 89.5396V88.2661C139.006 87.6803 138.77 87.118 138.348 86.7029C137.926 86.2877 137.353 86.0537 136.755 86.0522ZM138.255 89.5397C138.255 89.932 138.096 90.3082 137.813 90.5856C137.53 90.863 137.145 91.0188 136.745 91.0188C136.345 91.0188 135.96 90.863 135.677 90.5856C135.394 90.3082 135.235 89.932 135.235 89.5397V88.2662C135.236 87.8743 135.396 87.4988 135.679 87.2217C135.962 86.9446 136.345 86.7883 136.745 86.787H136.755C137.154 86.7887 137.536 86.9454 137.817 87.2227C138.098 87.5 138.256 87.8753 138.255 88.2662V89.5397Z" fill="#B1B1B1"/>
<path d="M60.605 84.6318H54.425V94.6139H60.605V84.6318Z" fill="#6E8CBB"/>
<path d="M103.365 98.1404V104.233L102.555 104.057C101.275 103.783 100.405 103.528 100.405 103.528L99.925 103.391V98.9828L100.405 98.8457C100.405 98.8457 101.275 98.591 102.555 98.307L103.365 98.1404Z" fill="#8C8C8C"/>
<path d="M43.905 84.2693H27.885C27.6393 84.2715 27.3965 84.3212 27.1704 84.4155C26.9444 84.5098 26.7396 84.6469 26.5677 84.8189C26.3958 84.9909 26.2603 85.1944 26.1689 85.4178C26.0774 85.6412 26.0319 85.8801 26.0349 86.1207C26.0299 86.3651 26.0782 86.6077 26.1765 86.8324C26.2748 87.057 26.4209 87.2586 26.605 87.4236C26.9522 87.7578 27.4181 87.9474 27.905 87.9526H43.915C44.4091 87.9496 44.8819 87.7554 45.2304 87.4122C45.5789 87.069 45.7746 86.6047 45.775 86.1207V86.0913C45.772 85.6073 45.5737 85.1441 45.2233 84.8028C44.873 84.4614 44.3991 84.2696 43.905 84.2693ZM43.905 85.004C44.2042 85.008 44.4898 85.1275 44.6995 85.3366C44.9093 85.5458 45.0262 85.8276 45.025 86.1207C45.0249 86.2647 44.9957 86.4072 44.9391 86.54C44.8824 86.6728 44.7995 86.7933 44.695 86.8946C44.4809 87.0993 44.1943 87.2151 43.895 87.2178H27.905C27.6072 87.2128 27.3234 87.0931 27.115 86.8847C27.0053 86.7874 26.9189 86.6676 26.8619 86.5339C26.8048 86.4001 26.7786 86.2557 26.7849 86.1109C26.7822 85.9664 26.809 85.8229 26.8636 85.6887C26.9182 85.5545 26.9995 85.4323 27.1029 85.3292C27.2062 85.2262 27.3295 85.1443 27.4655 85.0885C27.6015 85.0326 27.7475 85.0039 27.895 85.0039L27.905 84.6317V85.0039L43.905 85.004Z" fill="#B1B1B1"/>
<path d="M45.0249 86.1209C45.0249 86.2648 44.9956 86.4073 44.939 86.5401C44.8824 86.673 44.7994 86.7935 44.695 86.8947C44.4808 87.0994 44.1942 87.2152 43.895 87.218H27.9049C27.6072 87.2129 27.3234 87.0933 27.1149 86.8849C27.0053 86.7876 26.9189 86.6678 26.8618 86.534C26.8048 86.4003 26.7785 86.2558 26.7849 86.111C26.7822 85.9666 26.8089 85.8231 26.8635 85.6889C26.9181 85.5547 26.9995 85.4325 27.1028 85.3294C27.2062 85.2263 27.3295 85.1445 27.4655 85.0886C27.6015 85.0328 27.7475 85.004 27.895 85.0041L27.905 84.6318V85.0041H43.905C44.2042 85.0081 44.4898 85.1276 44.6995 85.3368C44.9092 85.5459 45.0262 85.8277 45.0249 86.1209Z" fill="#E6E6E6"/>
<path d="M109.195 93.1544L109.085 93.7226L109.025 93.8401C108.981 93.9282 108.931 94.0133 108.875 94.0948L108.495 94.4377C108.372 94.5076 108.241 94.5634 108.105 94.6042C108.077 94.6106 108.05 94.6205 108.025 94.6336L107.675 94.6728H65.205C65.048 94.6746 64.8921 94.648 64.7449 94.5944C64.6349 94.565 64.5348 94.5258 64.5049 94.516L64.3649 94.3887H64.3249C64.1242 94.2428 63.9629 94.0511 63.8549 93.8303C63.8346 93.8016 63.8241 93.7673 63.8249 93.7323L63.8149 93.6344L63.755 93.556V93.507L63.745 93.4679C63.7268 93.3739 63.7135 93.2791 63.7051 93.1838C63.7054 92.9979 63.7462 92.8142 63.825 92.645C63.932 92.3706 64.121 92.1342 64.3671 91.9665C64.6133 91.7988 64.9052 91.7075 65.2051 91.7046H107.665C107.97 91.7086 108.267 91.7973 108.521 91.9603C108.776 92.1233 108.979 92.354 109.105 92.6254C109.159 92.797 109.19 92.9749 109.195 93.1544Z" fill="#E6E6E6"/>
<path d="M129.294 42.8378C129.294 42.8378 117.569 44.5825 123.448 51.6212C129.326 58.6598 140.818 53.0708 140.818 53.0708C141.292 53.5933 141.868 54.0191 142.51 54.3238C143.153 54.6285 143.851 54.8063 144.564 54.8468C145.277 54.8874 145.991 54.7901 146.665 54.5603C147.34 54.3305 147.962 53.9729 148.495 53.5078C148.544 53.4654 148.591 53.4222 148.638 53.3781C148.638 53.3781 158.827 57.9973 163.42 53.4795C163.42 53.4795 167.275 54.9734 169.505 53.1433C169.505 53.1433 181.399 56.7748 181.976 49.894C182.554 43.0131 172.347 43.5708 170.704 45.4239C170.063 44.0783 168.968 42.9902 167.604 42.3428C166.239 41.6954 164.689 41.5283 163.213 41.8695C163.056 40.7841 162.65 39.7475 162.027 38.8371C161.403 37.9266 160.578 37.166 159.612 36.6118C158.647 36.0576 157.566 35.7242 156.45 35.6365C155.335 35.5488 154.213 35.7091 153.17 36.1054C153.17 36.1054 136.388 29.8848 129.294 42.8378Z" fill="#E6E6E6"/>
<path d="M139.604 142.244C140.87 143.763 142.535 144.916 144.419 145.579C147.413 146.666 150.954 149.003 147.151 153.543C143.55 157.84 137.853 157.432 133.96 156.462C131.666 155.94 129.275 155.993 127.008 156.615C126.128 156.832 125.205 156.813 124.336 156.56C122.178 156.03 119.915 156.076 117.782 156.694C114.41 157.56 109.761 158.062 107.053 155.407C107.053 155.407 103.186 156.901 100.949 155.071C100.949 155.071 89.0173 158.704 88.4389 151.823C88.0543 147.248 92.4511 145.961 95.9259 146.157C98.281 146.18 100.597 145.564 102.617 144.378C102.853 144.253 103.097 144.144 103.348 144.051C105.535 143.312 107.46 141.976 108.897 140.2C109.597 139.264 110.541 138.529 111.631 138.073C112.72 137.618 113.915 137.457 115.089 137.61C116.606 137.772 118.139 137.69 119.628 137.367C124.024 136.304 133.73 135.015 139.604 142.244Z" fill="#E6E6E6"/>
<path d="M129.23 95.9994C124.375 94.6508 119.264 94.4394 114.31 95.3823C111.504 95.7852 108.728 96.3677 106 97.1259L105.73 97.2043V97.2729C104.88 97.4492 104.15 97.6451 103.56 97.8018C102.94 97.939 102.58 98.0565 102.58 98.0565L102.32 98.1447V104.238L102.59 104.316C102.6 104.316 103.86 104.688 105.73 105.1V105.159L105.99 105.247C110.971 106.657 116.116 107.434 121.3 107.559C124.004 107.623 126.699 107.218 129.26 106.363L129.5 106.275V96.0777L129.23 95.9994ZM103.07 103.689V98.6835C103.24 98.6345 103.48 98.5659 103.8 98.4974C104.31 98.37 104.96 98.1937 105.73 98.0271V104.346C104.47 104.071 103.51 103.807 103.07 103.689V103.689ZM128.75 105.766C121.06 108.45 108.46 105.168 106.48 104.61V97.7627C109.091 97.0435 111.747 96.4873 114.43 96.0974C119.182 95.1987 124.081 95.3797 128.75 96.6263L128.75 105.766Z" fill="#D1D1D1"/>
<path d="M128.75 96.6264V105.766C121.06 108.45 108.46 105.168 106.48 104.61V97.7627C109.091 97.0436 111.747 96.4873 114.43 96.0974C119.182 95.1988 124.081 95.3797 128.75 96.6264Z" fill="white"/>
<path d="M105.73 98.0271V104.345C104.47 104.071 103.51 103.807 103.07 103.689V98.6834C103.24 98.6344 103.48 98.5659 103.8 98.4973C104.31 98.3699 104.96 98.1936 105.73 98.0271Z" fill="#D1D1D1"/>
</svg>
