<svg width="72" height="72" viewBox="0 0 72 72" fill="none" xmlns="http://www.w3.org/2000/svg">
<path d="M36 64C51.464 64 64 51.464 64 36C64 20.536 51.464 8 36 8C20.536 8 8 20.536 8 36C8 51.464 20.536 64 36 64Z" fill="white"/>
<path d="M36 8.75C41.3896 8.75 46.6581 10.3482 51.1393 13.3425C55.6205 16.3367 59.1132 20.5926 61.1757 25.5719C63.2382 30.5512 63.7779 36.0302 62.7264 41.3162C61.675 46.6022 59.0797 51.4577 55.2687 55.2687C51.4577 59.0796 46.6022 61.6749 41.3162 62.7264C36.0302 63.7778 30.5512 63.2382 25.5719 61.1757C20.5926 59.1132 16.3367 55.6205 13.3425 51.1393C10.3482 46.658 8.75001 41.3895 8.75001 36C8.75818 28.7754 11.6318 21.849 16.7404 16.7404C21.849 11.6318 28.7754 8.75817 36 8.75ZM36 8C30.4621 8 25.0486 9.64217 20.444 12.7189C15.8395 15.7955 12.2506 20.1685 10.1314 25.2849C8.01213 30.4012 7.45764 36.0311 8.53802 41.4625C9.61841 46.894 12.2852 51.8831 16.201 55.799C20.1169 59.7149 25.106 62.3816 30.5375 63.462C35.969 64.5424 41.5988 63.9879 46.7152 61.8686C51.8315 59.7494 56.2045 56.1605 59.2812 51.556C62.3578 46.9514 64 41.5379 64 36C64 28.5739 61.05 21.452 55.799 16.201C50.548 10.95 43.4261 8 36 8Z" fill="#D1D1D1"/>
<path d="M57.677 32.8472C58.1683 33.4504 58.8147 33.9083 59.5468 34.1718C60.7095 34.6037 62.0846 35.532 60.6075 37.3354C59.2095 39.0423 56.9971 38.8802 55.4855 38.4949C54.5948 38.2875 53.6663 38.3084 52.7858 38.5556C52.4444 38.642 52.0859 38.6344 51.7483 38.5337C50.9105 38.3232 50.0315 38.3416 49.2033 38.5872C47.894 38.9308 46.0889 39.1304 45.0373 38.0756C45.0373 38.0756 43.5355 38.6691 42.6671 37.9423C42.6671 37.9423 38.0338 39.3854 37.8092 36.6522C37.6599 34.835 39.3672 34.3237 40.7165 34.4014C41.6312 34.4105 42.5305 34.1659 43.3145 33.6946C43.4063 33.6452 43.5011 33.602 43.5985 33.5651C44.448 33.271 45.1957 32.7401 45.7534 32.0351C46.0248 31.6634 46.3913 31.3717 46.8144 31.1906C47.2375 31.0095 47.7016 30.9458 48.1579 31.0062C48.7467 31.0708 49.3421 31.0382 49.9203 30.9097C51.6274 30.4875 55.3961 29.9757 57.677 32.8472Z" fill="#E6E6E6"/>
<path d="M17.9585 26.9388C17.9735 26.6422 18.0538 26.3526 18.1938 26.0907C18.3338 25.8288 18.53 25.6012 18.7683 25.424C19.0066 25.2468 19.2811 25.1246 19.5722 25.0659C19.8633 25.0073 20.1638 25.0138 20.4521 25.0849C20.3437 23.964 21.5724 23.6191 21.5724 23.6191C20.3798 20.903 22.3675 19.9114 22.3675 19.9114C23.3432 16.333 26.1982 18.1006 26.1982 18.1006C30.2819 16.9797 31.5829 21.3341 31.5829 21.3341C31.8604 21.0541 32.1973 20.8401 32.5686 20.7077C32.9399 20.5754 33.3362 20.5282 33.7282 20.5696C34.1203 20.611 34.498 20.7399 34.8335 20.9468C35.169 21.1538 35.4537 21.4335 35.6666 21.7652C36.0823 21.8364 36.4729 22.0123 36.8017 22.2763C37.1305 22.5403 37.3866 22.8837 37.5459 23.2742C40.5815 22.7568 41.0875 25.9903 41.0875 25.9903C41.4515 25.8249 41.8626 25.7949 42.2468 25.9055C42.6311 26.0162 42.9632 26.2602 43.1836 26.5939C44.4123 25.7747 45.894 26.5939 45.5687 28.5339C45.2435 30.474 43.0029 29.5255 43.0029 29.5255C42.1969 29.9581 41.3034 30.2022 40.3895 30.2396C39.4756 30.2769 38.5651 30.1065 37.7266 29.7411C37.3427 29.925 36.9176 30.0059 36.4931 29.9756C36.0685 29.9454 35.6591 29.8051 35.3052 29.5686C32.0527 32.2416 26.7041 29.9566 26.7041 29.9566C25.9333 30.4248 25.0456 30.6652 24.1439 30.65C23.2421 30.6347 22.3631 30.3644 21.6085 29.8704C21.2889 30.1026 20.9147 30.2485 20.5222 30.2938C20.1296 30.3391 19.7321 30.2824 19.3679 30.1291C15.501 31.5518 14.453 29.4393 14.453 29.4393C14.453 29.4393 12.3208 30.6033 11.6341 29.0944C10.9475 27.5855 12.1401 26.4645 14.0193 26.9388C14.5536 26.5546 15.2063 26.3713 15.8624 26.4214C16.5889 26.4506 17.3019 26.6266 17.9585 26.9388Z" fill="#E6E6E6"/>
<path d="M33.6413 37.8058C31.1351 38.7683 28.9277 40.3759 27.2426 42.4658C26.3945 42.5259 25.5561 42.6822 24.7434 42.9318C24.8205 42.4495 25.0536 42.0057 25.407 41.6685C25.1989 41.1944 25.1704 40.6607 25.3269 40.1672C25.4834 39.6737 25.8142 39.2539 26.2574 38.9864C26.002 38.3687 25.9645 37.6825 26.1511 37.0406C26.3377 36.3988 26.7373 35.8396 27.2841 35.4552C26.9872 35.2679 26.7375 35.0145 26.5544 34.7149C26.3714 34.4153 26.26 34.0775 26.2289 33.7277C26.1978 33.378 26.2478 33.0258 26.3751 32.6986C26.5023 32.3714 26.7034 32.0779 26.9626 31.8411C25.0234 30.526 26.444 28.4032 26.444 28.4032C26.1387 28.2246 25.8797 27.9768 25.6877 27.6798C25.4958 27.3827 25.3763 27.0447 25.339 26.693C25.3017 26.3413 25.3475 25.9858 25.4728 25.6551C25.5981 25.3243 25.7994 25.0277 26.0605 24.7891C25.3551 22.6662 27.056 22.1484 27.056 22.1484C26.7665 22.0136 26.525 21.7936 26.3637 21.5179C26.2025 21.2423 26.1292 20.9239 26.1536 20.6055C26.1152 20.1858 26.2034 19.7643 26.4067 19.3951C26.61 19.026 26.9192 18.7262 27.2945 18.5344C27.4387 18.4572 27.592 18.3981 27.7507 18.3584C27.5597 19.5816 27.5318 20.8247 27.6677 22.0553C27.7566 24.3354 28.0552 26.6024 28.5597 28.8277C28.7805 29.8789 29.3244 30.8348 30.1153 31.5616C30.9138 32.2657 31.5258 33.6741 32.656 33.9122C32.7805 33.9329 32.9256 33.964 33.071 33.9847C33.3721 35.2393 33.5629 36.5179 33.6413 37.8058Z" fill="#424242"/>
<path d="M24.2549 43.4844L24.375 42.8604C24.4615 42.387 24.6687 41.9441 24.9766 41.5742C24.8126 41.0843 24.8066 40.5553 24.9596 40.0618C25.1126 39.5684 25.4167 39.1355 25.8291 38.8242C25.6534 38.2324 25.6427 37.6037 25.7981 37.0062C25.9536 36.4087 26.2692 35.8649 26.7109 35.4336C26.2102 34.9984 25.8994 34.3846 25.845 33.7233C25.7907 33.0621 25.997 32.4058 26.4199 31.8946C25.9628 31.4675 25.6671 30.8956 25.5829 30.2757C25.4987 29.6557 25.6313 29.0257 25.958 28.4922C25.6705 28.2689 25.4316 27.9893 25.2559 27.6704C25.0803 27.3515 24.9716 27.0001 24.9365 26.6377C24.9225 25.9257 25.1734 25.2338 25.6406 24.6963C25.4336 24.0777 25.4727 23.403 25.75 22.8125C25.8951 22.5356 26.1007 22.295 26.3516 22.1084C25.981 21.7019 25.7764 21.1712 25.7783 20.6211C25.7384 20.1294 25.8451 19.6369 26.085 19.2058C26.3249 18.7748 26.6871 18.4245 27.126 18.1992C27.2953 18.1092 27.475 18.0403 27.6612 17.9941L28.2237 17.8555L28.1201 18.4258C27.9349 19.6156 27.9086 20.8247 28.042 22.0215C28.043 22.041 28.0449 22.0605 28.0469 22.0791L28.2979 22.1621L28.0606 22.2344C28.1483 24.4218 28.4367 26.5967 28.9219 28.7314C29.1252 29.7115 29.6298 30.6034 30.3653 31.2822C30.667 31.569 30.9422 31.8825 31.1876 32.2187C31.6466 32.8076 32.1211 33.416 32.7335 33.5449L32.877 33.5703C32.9561 33.5859 33.0401 33.6016 33.1241 33.6133L33.3604 33.6465L33.4307 33.876C33.7413 35.1581 33.9371 36.4654 34.0157 37.7822L34.0333 38.0606L33.7716 38.1572C31.3294 39.1012 29.1777 40.6693 27.5313 42.7051L27.4308 42.8262L27.2745 42.8399C26.4547 42.8968 25.6441 43.0472 24.8585 43.2881L24.2549 43.4844ZM27.3272 22.458L27.165 22.5068C26.8429 22.6287 26.5755 22.8628 26.4121 23.166C26.3129 23.4046 26.2621 23.6605 26.2628 23.9188C26.2635 24.1772 26.3155 24.4329 26.416 24.6709L26.4902 24.8926L26.3232 25.0566C25.9211 25.4689 25.6925 26.0198 25.6845 26.5957C25.7289 26.9037 25.8401 27.1982 26.0103 27.4587C26.1805 27.7191 26.4057 27.9392 26.6699 28.1035L26.9521 28.3154L26.7568 28.6113C26.707 28.6855 25.5703 30.4443 27.1728 31.5303L27.5615 31.7939L27.2177 32.1152C26.8331 32.4977 26.6077 33.0117 26.5869 33.5537C26.6191 33.8744 26.7197 34.1844 26.8817 34.4631C27.0437 34.7417 27.2635 34.9823 27.5263 35.1689L27.9345 35.5156L27.4697 35.7812C26.997 36.1254 26.6554 36.6201 26.5008 37.184C26.3462 37.748 26.388 38.3477 26.6191 38.8848L26.6982 39.166L26.4443 39.3115C26.0747 39.53 25.7995 39.8781 25.6722 40.2881C25.545 40.6982 25.5748 41.1409 25.7558 41.5303L25.8564 41.7861L25.6435 41.959C25.5153 42.0802 25.4089 42.2225 25.3291 42.3799C25.8969 42.2487 26.4731 42.1574 27.0537 42.1065C28.7105 40.1009 30.8383 38.5371 33.247 37.5547C33.1703 36.4644 33.0123 35.3813 32.7744 34.3144C32.7627 34.3124 32.7509 34.3106 32.7392 34.3076L32.5947 34.2822C31.7595 34.0024 31.0512 33.4343 30.5967 32.6797C30.3786 32.3798 30.1345 32.0998 29.8672 31.8428C29.0177 31.0667 28.4329 30.0438 28.1953 28.918C27.7079 26.7959 27.4173 24.6334 27.3272 22.458ZM27.2832 18.9746C27.0255 19.1536 26.8198 19.3978 26.6872 19.6823C26.5546 19.9667 26.4998 20.2812 26.5283 20.5937C26.5683 21.5664 27.167 21.79 27.1729 21.792L27.2725 21.8252C27.1883 20.8767 27.1919 19.9224 27.2832 18.9746V18.9746Z" fill="#181818"/>
<path d="M59.3908 50.6674C56.1855 55.6811 51.453 59.5313 45.8921 61.6496C40.3311 63.7678 34.2364 64.0418 28.5078 62.4312C31.3834 58.0212 34.616 53.8547 38.173 49.9735C39.0562 49.0278 39.9983 48.1389 40.9938 47.3122C41.5123 46.8876 42.0516 46.4837 42.5909 46.111V46.1006C45.8473 43.8224 49.3731 42.4348 52.505 43.0976C53.3845 43.2765 54.222 43.6208 54.973 44.1124C57.0263 45.4482 58.4679 48.2131 59.3908 50.6674Z" fill="#424242"/>
<path d="M36.0264 63.8414C33.4502 63.8431 30.886 63.4899 28.4062 62.7916L27.916 62.6529L28.1934 62.2261C31.0823 57.7978 34.3292 53.6135 37.9014 49.7154C38.7957 48.7576 39.7498 47.8574 40.7578 47.0201C41.2256 46.6373 41.7178 46.2652 42.2207 45.9107L42.376 45.7926C46.125 43.1696 49.6553 42.1099 52.583 42.7301C53.5077 42.9188 54.3882 43.2814 55.1777 43.7984C57.3994 45.2427 58.8857 48.2594 59.7412 50.5347L59.8076 50.7105L59.707 50.8677C57.1772 54.8546 53.6785 58.1355 49.5375 60.4042C45.3964 62.6729 40.7481 63.8554 36.0264 63.8414ZM29.1035 62.2037C34.6676 63.6565 40.5481 63.3195 45.9098 61.2407C51.2716 59.1618 55.8422 55.4466 58.9727 50.6227C58.1484 48.4762 56.7647 45.7252 54.7685 44.4264C54.0569 43.9605 53.2632 43.6341 52.4297 43.4644C49.0674 42.7535 45.4551 44.5826 42.9658 46.2964L42.8047 46.4185C42.2627 46.7935 41.7334 47.191 41.2314 47.6011C40.248 48.4186 39.3171 49.2973 38.4443 50.232C35.0193 53.9695 31.8959 57.9726 29.1035 62.2037Z" fill="#181818"/>
<path d="M38.173 49.9737C34.6159 53.8549 31.3833 58.0214 28.5077 62.4313C24.747 61.3784 21.2541 59.5356 18.262 57.0257C20.45 51.9205 22.6071 46.9395 25.262 45.4277C25.262 45.4277 27.7715 50.7089 38.173 49.9737Z" fill="#D1D1D1"/>
<path d="M28.6728 62.8662L28.4072 62.792C24.5932 61.7294 21.0516 59.8609 18.0215 57.3125L17.8076 57.1338L17.917 56.8779C20.0635 51.8701 22.2832 46.6924 25.0762 45.1016L25.4248 44.9033L25.5996 45.2656C25.624 45.3154 28.1621 50.3037 38.1465 49.5996L39.1103 49.5313L38.4443 50.2315C34.9044 54.0968 31.6863 58.245 28.8223 62.6348L28.6728 62.8662ZM18.7168 56.915C21.5465 59.2464 24.8229 60.9748 28.3447 61.9941C31.0295 57.9158 34.0106 54.0405 37.2637 50.3994C28.9209 50.7236 25.8984 47.1347 25.1328 45.9521C22.7393 47.6035 20.6943 52.3037 18.7168 56.915Z" fill="#181818"/>
<path d="M27.2425 42.4658C26.4698 43.373 25.8051 44.3669 25.2619 45.4275C22.607 46.9394 20.4499 51.9203 18.2619 57.0255C17.6 56.4784 16.9665 55.8977 16.364 55.2858C16.8746 54.628 17.479 54.0488 18.1581 53.5668C17.9051 53.0282 17.764 52.4439 17.7435 51.8492C17.7229 51.2545 17.8233 50.6618 18.0385 50.107C18.2538 49.5522 18.5794 49.0469 18.9957 48.6217C19.4119 48.1965 19.9102 47.8602 20.4603 47.6331C20.667 46.529 21.1772 45.5042 21.9337 44.6738C22.6902 43.8434 23.6632 43.2402 24.7434 42.9318C25.556 42.6822 26.3945 42.5259 27.2425 42.4658Z" fill="#424242"/>
<path d="M18.4092 57.6338L18.0225 57.3145C17.3513 56.7594 16.7088 56.1704 16.0977 55.5498L15.8672 55.3164L16.0674 55.0576C16.542 54.4474 17.0931 53.9005 17.707 53.4306C17.2532 52.3016 17.2528 51.041 17.7061 49.9118C18.1593 48.7825 19.0312 47.872 20.1396 47.3701C20.3819 46.2381 20.928 45.1934 21.7193 44.3484C22.5106 43.5035 23.5171 42.8901 24.6309 42.5742C25.4693 42.3155 26.3347 42.1536 27.21 42.0918L28.1055 42.0156L27.5303 42.7061C26.7796 43.5902 26.1322 44.5571 25.6006 45.5879L25.5508 45.6943L25.4473 45.7539C22.8731 47.2197 20.7041 52.2793 18.6065 57.1729L18.4092 57.6338ZM16.8672 55.2598C17.2715 55.6582 17.6894 56.044 18.1162 56.4121C20.1757 51.6143 22.3154 46.7656 24.9746 45.1611C25.3817 44.3826 25.8541 43.6401 26.3867 42.9414C25.8686 43.0147 25.3574 43.1306 24.8584 43.2881C23.8409 43.5802 22.9247 44.1495 22.2122 44.9325C21.4998 45.7155 21.0192 46.6812 20.8242 47.7217L20.7793 47.9063L20.6035 47.9795C20.097 48.1859 19.6381 48.4938 19.2551 48.8844C18.8722 49.2749 18.5733 49.7397 18.3768 50.2502C18.1804 50.7606 18.0906 51.3059 18.1129 51.8524C18.1353 52.3989 18.2693 52.935 18.5068 53.4277L18.6181 53.71L18.3661 53.878C17.8112 54.2747 17.3076 54.7388 16.8672 55.2598L16.8672 55.2598Z" fill="#181818"/>
<path d="M42.5908 46.1V46.1103C42.0516 46.4831 41.5123 46.887 40.9938 47.3115C39.9983 48.1382 39.0562 49.0271 38.173 49.9729C27.7715 50.7081 25.262 45.4269 25.262 45.4269C27.0634 41.9735 30.0331 39.2723 33.6413 37.8052C33.5629 36.5173 33.3721 35.2387 33.0709 33.9841C34.5829 34.2069 36.1246 33.8799 37.416 33.0625C39.0803 31.9019 40.3359 30.2458 41.0041 28.3301C40.8679 31.4139 41.1152 34.5028 41.7404 37.5257C42.6531 41.4814 43.3167 43.625 42.5908 46.1Z" fill="white"/>
<path d="M36.2207 50.4199C27.3281 50.4199 25.0225 45.7988 24.9228 45.5889L24.8467 45.4287L24.9219 45.2685C26.7215 41.812 29.6636 39.086 33.2471 37.5547C33.1703 36.3873 32.9913 35.2289 32.7119 34.0928L32.5459 33.543L33.1162 33.6123C34.5322 33.8273 35.9784 33.5257 37.1904 32.7627C38.7976 31.652 40.0089 30.0579 40.6484 28.2119L41.4434 25.8193L41.3789 28.3398C41.2358 31.3925 41.48 34.451 42.1055 37.4424L42.3897 38.6572C43.1553 41.9033 43.6191 43.8721 42.9658 46.1533V46.3066L42.8047 46.4189C42.2627 46.7939 41.7334 47.1914 41.2315 47.6016C40.248 48.419 39.3171 49.2977 38.4443 50.2324L38.3438 50.3379L38.1992 50.3477C37.5059 50.3964 36.8464 50.4205 36.2207 50.4199ZM25.6875 45.4179C26.2012 46.2509 29.1435 50.1972 38.002 49.6094C38.8666 48.6907 39.7869 47.8261 40.7578 47.0205C41.2393 46.6269 41.7451 46.2441 42.2637 45.8818C42.834 43.8125 42.3887 41.9228 41.6602 38.8291L41.375 37.6103C40.8433 35.1536 40.5865 32.6453 40.6094 30.1318C39.8532 31.3992 38.8444 32.4975 37.6455 33.3583C36.4396 34.1492 35.0049 34.5164 33.5674 34.4023C33.7919 35.5177 33.9417 36.6468 34.0156 37.7822L34.0332 38.0605L33.7715 38.1572C31.3294 39.1011 29.1776 40.6693 27.5313 42.705C26.8254 43.5438 26.2075 44.4529 25.6875 45.4179Z" fill="#181818"/>
<path d="M52.5049 43.0979C49.373 42.4351 45.8472 43.8227 42.5908 46.1008C43.3166 43.6259 42.653 41.4823 41.7403 37.5266C41.1151 34.5037 40.8678 31.4148 41.0041 28.331C41.0456 26.674 41.1491 25.1622 41.2218 23.8884C41.419 20.4608 40.9418 18.9592 38.6811 16.0391C36.4204 13.1292 32.687 13.7194 30.3537 14.7239C29.6311 15.0369 29.0072 15.5405 28.5487 16.1807C28.0902 16.821 27.8144 17.5738 27.7507 18.3587C27.5919 18.3983 27.4387 18.4574 27.2944 18.5347C27.3463 14.4236 31.5153 10.3538 36.6589 10.3021C41.8441 10.2607 45.0899 14.1647 46.3138 18.2033C47.5374 22.2523 46.9255 24.3648 46.9255 24.3648C48.3477 28.0439 48.8186 32.0223 48.2945 35.9318C49.4433 37.1291 50.1272 38.697 50.2232 40.3536C51.2413 41.0193 52.0362 41.9753 52.5049 43.0979Z" fill="#666666"/>
<path d="M41.9307 47.0205L42.2314 45.9951C42.8506 43.8808 42.4023 41.9795 41.6602 38.8291L41.375 37.6103C40.7345 34.5576 40.4838 31.4361 40.6289 28.3203C40.6631 26.9853 40.7363 25.7441 40.8018 24.6445L40.8477 23.8662C41.04 20.5244 40.5791 19.1035 38.3848 16.2685C35.9023 13.0742 31.7227 14.541 30.5019 15.0684C29.8355 15.3553 29.2607 15.82 28.8407 16.4116C28.4206 17.0033 28.1713 17.699 28.1201 18.4228L28.0781 18.6641L27.8408 18.7227C27.7125 18.7549 27.5886 18.8024 27.4717 18.8643L26.9121 19.165L26.9199 18.5293C26.9766 13.998 31.5264 9.97852 36.6553 9.92676H36.7412C42.2373 9.92676 45.4736 14.1377 46.6729 18.0948C47.3931 20.0902 47.615 22.2313 47.3193 24.3321C48.713 27.9853 49.1839 31.9259 48.6904 35.8047C49.7937 36.9996 50.4651 38.5295 50.5977 40.1504C51.6016 40.8532 52.3842 41.8279 52.8535 42.96L53.1104 43.6094L52.4268 43.4648C48.9941 42.7393 45.2988 44.6631 42.8057 46.4082L41.9307 47.0205ZM34.082 13.5341C35.0196 13.5002 35.9518 13.6886 36.8027 14.0839C37.6535 14.4792 38.3987 15.0702 38.9775 15.8085C41.2851 18.791 41.7988 20.3798 41.5957 23.9091L41.5508 24.6884C41.4853 25.7812 41.4121 27.0136 41.3789 28.3398C41.2358 31.3925 41.4799 34.451 42.1054 37.4423L42.3896 38.6572C43.0537 41.4736 43.4912 43.3281 43.1679 45.2597C46.3183 43.2246 49.2919 42.3095 51.8564 42.6132C51.4054 41.8354 50.7808 41.1723 50.0312 40.6757L49.8457 40.5644L49.8486 40.3476C49.7484 38.7931 49.1043 37.3235 48.0293 36.1962L47.8984 36.0644L47.9238 35.8798C48.429 32.0392 47.9682 28.1332 46.583 24.5156L46.5283 24.3926L46.5654 24.2617C46.5713 24.2412 47.124 22.1807 45.9541 18.3115C44.834 14.6133 41.8262 10.6768 36.7402 10.6768H36.6621C34.8933 10.6863 33.1629 11.1935 31.6688 12.1405C30.1748 13.0874 28.9775 14.4357 28.2139 16.0312C28.6951 15.2917 29.3894 14.7155 30.2051 14.3789C31.428 13.8412 32.7462 13.554 34.082 13.5341Z" fill="#292929"/>
<path d="M40.9216 23.9458C40.8489 25.2195 40.7454 26.7314 40.7038 28.3883C40.0356 30.3041 38.78 31.9601 37.1157 33.1207C35.8244 33.9381 34.2826 34.2651 32.7706 34.0423C32.6253 34.0217 32.4802 33.9906 32.3556 33.9698C31.2254 33.7317 30.6135 32.3233 29.8149 31.6192C29.024 30.8924 28.4802 29.9365 28.2594 28.8853C27.7548 26.66 27.4562 24.393 27.3674 22.1129C27.2314 20.8824 27.2593 19.6392 27.4504 18.416C27.5141 17.6311 27.7899 16.8783 28.2484 16.2381C28.7069 15.5978 29.3308 15.0943 30.0534 14.7812C32.3867 13.7767 36.1201 13.1865 38.3808 16.0964C40.6416 19.0166 41.1188 20.5181 40.9216 23.9458Z" fill="white"/>
<path d="M33.666 34.4692C33.3517 34.4694 33.0377 34.4508 32.7256 34.4136C32.624 34.3999 32.5313 34.3823 32.4424 34.3657L32.2949 34.3394C31.4594 34.0595 30.7508 33.4914 30.2959 32.7368C30.0778 32.4369 29.8337 32.1569 29.5665 31.8999C28.7175 31.1236 28.1331 30.1007 27.8955 28.9751C27.3855 26.731 27.0834 24.4446 26.9932 22.145C26.8546 20.8814 26.8842 19.605 27.0811 18.3491C27.162 17.5049 27.4662 16.6973 27.9626 16.0096C28.4589 15.3219 29.1295 14.7787 29.9053 14.436C32.6807 13.2427 36.4415 12.9888 38.6768 15.8657C40.9854 18.8472 41.4991 20.438 41.2959 23.9663L41.2529 24.6948C41.1875 25.8003 41.1123 27.0522 41.0791 28.398L41.0596 28.5064C40.3661 30.4915 39.0671 32.2089 37.3457 33.4165C36.2598 34.1443 34.9726 34.5125 33.666 34.4692ZM33.8301 14.3286C32.5805 14.3562 31.3483 14.6269 30.2022 15.1255C29.5357 15.4125 28.9609 15.8772 28.5406 16.4688C28.1204 17.0604 27.8709 17.7561 27.8194 18.48C27.6342 19.6711 27.608 20.8816 27.7412 22.0796C27.8288 24.3385 28.1236 26.5846 28.6221 28.7896C28.8245 29.7694 29.3289 30.6612 30.0645 31.3394C30.3662 31.6264 30.6417 31.9399 30.8877 32.2759C31.3467 32.8648 31.8213 33.4732 32.4326 33.6021L32.5801 33.6285C32.6582 33.6431 32.7403 33.6587 32.8233 33.6705C34.2368 33.8851 35.6803 33.5835 36.8897 32.8209C38.4809 31.7199 39.685 30.1458 40.3311 28.3219C40.3653 26.9859 40.4395 25.7457 40.5049 24.651L40.5479 23.9234C40.7403 20.5806 40.2793 19.1607 38.084 16.3258C37.5846 15.6789 36.9382 15.1604 36.1984 14.8131C35.4587 14.4658 34.6468 14.2997 33.8301 14.3286H33.8301Z" fill="#181818"/>
</svg>
