<svg width="72" height="72" viewBox="0 0 72 72" fill="none" xmlns="http://www.w3.org/2000/svg">
<path d="M36.0404 56.872C44.7731 50.2158 46.4618 48.5893 55.2616 47.084C64.0614 45.5786 67.7676 33.8198 53.9894 28.4892C48.2534 26.2701 42.5315 23.4568 37.8844 19.3597C36.3071 17.9993 34.9022 16.4508 33.7013 14.7489C32.5219 13.0364 31.954 10.3361 29.8103 9.65571C23.9394 7.79223 16.5159 12.2569 12.6987 16.3362C6.39745 23.0702 5.40333 32.6197 7.15343 41.345C13.0559 70.7724 32.393 59.6521 36.0404 56.872Z" fill="#E6E6E6"/>
<path d="M11.5879 21.3977C10.3785 20.8688 9.27069 20.133 8.31421 19.2233C8.31421 18.2633 8.61521 17.4632 9.13263 17.4443C9.78894 17.559 10.4046 17.8411 10.92 18.2632C11.5032 18.6491 12.3499 19.2421 12.3875 19.5245C12.4251 19.7881 12.444 20.4093 11.5879 21.3977Z" fill="white"/>
<path d="M11.5879 21.6222C11.5621 21.6223 11.5365 21.618 11.5122 21.6095C10.3149 21.0949 9.2174 20.374 8.26961 19.4796L8.16996 19.3966C8.14465 19.3754 8.12428 19.349 8.11027 19.3191C8.09626 19.2893 8.08895 19.2567 8.08887 19.2237C8.08887 18.0479 8.50506 17.2432 9.12446 17.2197C9.8276 17.3346 10.489 17.6297 11.0442 18.0762C12.3719 18.9542 12.5815 19.2764 12.6108 19.4952C12.6224 19.8779 12.5524 20.2586 12.4053 20.6121C12.2583 20.9655 12.0375 21.2836 11.7579 21.5451C11.7367 21.5693 11.7105 21.5887 11.6812 21.602C11.6519 21.6153 11.6201 21.6222 11.5879 21.6222ZM8.54023 19.1192L8.5583 19.1348C9.43353 19.952 10.4324 20.6257 11.518 21.131C11.7269 20.9261 11.892 20.6809 12.0031 20.4103C12.1143 20.1397 12.1693 19.8493 12.1648 19.5567C12.1531 19.5177 12.029 19.2667 10.796 18.4512C10.3154 18.0655 9.75114 17.7976 9.14839 17.669H9.13667C8.8172 17.6817 8.56075 18.3106 8.54023 19.1192Z" fill="#181818"/>
<path d="M14.2408 19.5437C13.8113 20.3011 13.5363 21.1361 13.4318 22.0004C12.9304 21.8029 12.4185 21.6332 11.8984 21.4922C11.7949 21.4639 11.6915 21.4263 11.5879 21.398C12.444 20.4097 12.4252 19.7885 12.3876 19.5249C12.35 19.2425 11.5033 18.6495 10.9201 18.2636C10.4046 17.8414 9.78899 17.5594 9.13268 17.4447C8.61529 17.4635 8.31426 18.2636 8.31426 19.2237C7.9662 18.9225 7.61814 18.6213 7.26066 18.3483C5.78372 17.2094 6.2635 16.5411 6.45166 16.3434C6.64918 16.1458 7.67459 14.7621 10.2334 16.9553C11.4531 17.9857 12.7999 18.8556 14.2408 19.5437Z" fill="#EBC5C4"/>
<path d="M13.4318 22.2249C13.4034 22.225 13.3752 22.2197 13.3488 22.2093C12.8552 22.015 12.3513 21.8481 11.8393 21.7093C11.7841 21.6946 11.7294 21.677 11.6742 21.6595C11.6259 21.6438 11.577 21.6282 11.5282 21.6145C11.4915 21.6045 11.4579 21.5854 11.4307 21.5588C11.4034 21.5323 11.3833 21.4993 11.3723 21.4629C11.3612 21.4265 11.3596 21.3879 11.3676 21.3507C11.3756 21.3135 11.3928 21.279 11.4178 21.2503C11.6531 21.0354 11.841 20.7738 11.9696 20.4822C12.0982 20.1907 12.1646 19.8755 12.1647 19.5569C12.153 19.5178 12.0289 19.2669 10.7959 18.4514C10.3153 18.0656 9.75103 17.7977 9.14828 17.6691H9.13652C8.80337 17.6818 8.5391 18.3644 8.5391 19.2238C8.53925 19.267 8.52694 19.3093 8.50366 19.3457C8.48037 19.3821 8.44709 19.4109 8.40781 19.4289C8.36853 19.4468 8.32491 19.453 8.28218 19.4468C8.23944 19.4406 8.19941 19.4222 8.16688 19.3938C7.81663 19.091 7.47079 18.7922 7.12396 18.5275C6.84143 18.3573 6.5964 18.1314 6.4037 17.8637C6.211 17.5959 6.07464 17.2918 6.00288 16.9699C5.99154 16.8268 6.01115 16.6829 6.06037 16.5481C6.1096 16.4133 6.18729 16.2907 6.28816 16.1886C7.28466 15.1124 8.68662 15.3321 10.3797 16.7843C11.585 17.8022 12.9155 18.6617 14.3389 19.342C14.3668 19.3554 14.3916 19.3745 14.4118 19.3981C14.432 19.4216 14.4471 19.4491 14.4561 19.4787C14.465 19.5085 14.4677 19.5399 14.4641 19.5708C14.4604 19.6017 14.4503 19.6315 14.4346 19.6584C14.0214 20.3906 13.7564 21.197 13.6545 22.0315C13.6498 22.0652 13.6375 22.0974 13.6186 22.1257C13.5996 22.1539 13.5745 22.1775 13.5451 22.1946C13.5107 22.2147 13.4716 22.2252 13.4318 22.2249ZM11.9746 21.2795C12.4118 21.3997 12.8407 21.5374 13.2525 21.6907C13.3693 20.9766 13.5974 20.2852 13.9286 19.6418C12.5502 18.9629 11.26 18.1181 10.0866 17.1261C8.58795 15.8409 7.43415 15.6153 6.65502 16.4562L6.61057 16.503C6.55436 16.5594 6.51105 16.6272 6.48364 16.7019C6.45623 16.7766 6.44537 16.8564 6.45181 16.9357C6.47037 17.1808 6.64965 17.5939 7.398 18.1711C7.63931 18.3547 7.87818 18.5529 8.11266 18.7531C8.20938 17.838 8.59137 17.2393 9.12431 17.2198C9.82746 17.3347 10.4888 17.6298 11.0441 18.0763C12.3718 18.9543 12.5813 19.2765 12.6106 19.4953C12.6286 19.82 12.5817 20.1451 12.4725 20.4515C12.3632 20.7579 12.194 21.0394 11.9746 21.2795Z" fill="#181818"/>
<path d="M38.6617 31.2242C38.246 31.8591 37.6777 32.3796 37.0088 32.738C36.3399 33.0965 35.5918 33.2815 34.833 33.2762C33.9812 33.2445 33.1425 33.0563 32.3589 32.7208C32.3589 32.7208 23.9394 27.6379 21.4372 26.659C19.6971 26.0623 18.0967 25.1175 16.7336 23.8822C15.7452 23.0755 14.6293 22.4393 13.4316 21.9997C13.5362 21.1353 13.8111 20.3003 14.2406 19.543C15.6984 20.2594 17.2364 20.7997 18.822 21.1525C21.4372 21.7079 24.5509 23.8822 25.8491 24.5505C27.1567 25.2188 34.8612 27.0543 34.8612 27.0543C34.8706 27.1013 36.2817 27.3649 36.451 27.4214C37.0143 27.6034 37.5379 27.8909 37.9938 28.2685C38.4362 28.603 38.7459 29.0833 38.8682 29.6242C38.9904 30.1652 38.9173 30.732 38.6617 31.2242Z" fill="white"/>
<path d="M34.9037 33.5277C34.8783 33.5277 34.8529 33.5267 34.8275 33.5267C33.9411 33.4952 33.0682 33.2988 32.2537 32.9475C32.1453 32.8841 23.8 27.8527 21.3458 26.8917C19.5804 26.2845 17.9564 25.3257 16.5719 24.0733C15.6055 23.284 14.5138 22.6621 13.342 22.2334C13.2894 22.2131 13.2452 22.1756 13.2166 22.127C13.188 22.0785 13.1765 22.0217 13.1842 21.9658C13.2965 21.0696 13.5822 20.2039 14.0254 19.4169C14.0573 19.3628 14.1085 19.3226 14.1687 19.3045C14.2289 19.2864 14.2937 19.2917 14.3502 19.3192C15.7904 20.0248 17.3087 20.5584 18.8736 20.9091C20.952 21.5174 22.9281 22.4324 24.7364 23.6241C25.2288 23.9161 25.6538 24.169 25.9635 24.3282C27.2296 24.9756 34.8426 26.7931 34.9193 26.8116C34.9441 26.8175 34.9678 26.827 34.9897 26.84C35.1054 26.8771 35.5539 26.9708 35.8553 27.0333C36.1713 27.0997 36.4585 27.1613 36.5303 27.1847C37.1245 27.3769 37.6764 27.6809 38.1565 28.0802C38.6421 28.4517 38.9811 28.9826 39.1138 29.5794C39.2465 30.1763 39.1644 30.8008 38.8819 31.343C38.452 32.0085 37.8633 32.5566 37.1688 32.938C36.4744 33.3193 35.696 33.522 34.9037 33.5277ZM32.4877 32.5071C33.2342 32.8184 34.0302 32.9943 34.8383 33.0267C35.5511 33.0321 36.254 32.8595 36.8831 32.5244C37.5123 32.1892 38.0477 31.7023 38.4409 31.1077L38.4414 31.1067C38.6719 30.665 38.7371 30.1556 38.6251 29.6701C38.5132 29.1847 38.2314 28.7552 37.8308 28.4591C37.3995 28.1017 36.9039 27.8299 36.3707 27.6583C36.3052 27.6369 36.0419 27.5831 35.7533 27.5226C35.4166 27.466 35.0841 27.3874 34.7577 27.2872C34.0562 27.1192 27.0157 25.4288 25.7354 24.7735C25.4111 24.6065 24.9797 24.3506 24.4805 24.0537C22.7181 22.892 20.7939 21.997 18.77 21.3974C17.242 21.0575 15.7575 20.5454 14.3449 19.871C14.029 20.4891 13.8144 21.1538 13.7093 21.8398C14.8641 22.2821 15.9401 22.9077 16.8957 23.6924C18.2365 24.9107 19.8129 25.841 21.5275 26.4259C24.0217 27.4025 32.1423 32.2981 32.4881 32.5071H32.4877Z" fill="#D1D1D1"/>
<path d="M44.5882 30.7536C41.1922 34.6694 38.276 34.9706 38.276 34.9706C37.3751 35.2208 36.4286 35.2595 35.5103 35.0836C34.448 34.9861 33.4105 34.7059 32.4436 34.2553C32.3966 33.6434 32.3589 33.1069 32.3589 32.721C33.1425 33.0564 33.9812 33.2447 34.833 33.2763C35.5918 33.2817 36.3399 33.0967 37.0088 32.7382C37.6777 32.3797 38.246 31.8592 38.6617 31.2243C38.9173 30.7321 38.9904 30.1653 38.8682 29.6244C38.7459 29.0834 38.4362 28.6032 37.9938 28.2687C37.5379 27.8911 37.0143 27.6036 36.451 27.4216C36.2817 27.3651 34.8706 27.1016 34.8612 27.0544C35.7455 26.0473 37.9938 26.3296 38.8875 26.4427C39.7812 26.5462 39.8565 25.9343 39.9693 24.2683C39.9787 24.1647 39.9881 24.0706 40.0069 23.9671V23.9576C41.2393 22.3386 41.8507 21.6515 42.2458 21.1809C42.6974 20.6538 43.5064 20.4561 45.7453 21.1715V21.1809C45.7641 21.2279 45.7829 21.2844 45.8018 21.3315C45.5861 21.2584 45.3662 21.1987 45.1433 21.1526C43.8639 20.9079 43.196 21.0115 42.8291 21.4632C42.4716 21.9057 42.1141 22.2916 41.5027 23.0728C40.8913 23.8541 41.5873 23.9953 42.3305 24.3812C43.0906 24.6212 43.9115 24.5811 44.6447 24.2682C45.4624 24.2119 46.2832 24.2182 47.1 24.287C47.1565 24.4 47.1941 24.4659 47.1941 24.4659C47.1941 24.4659 47.9748 26.8285 44.5882 30.7536Z" fill="#DB9D99"/>
<path d="M36.8142 35.3749C36.4528 35.3749 36.0156 35.3564 35.4899 35.3075C34.4021 35.2072 33.3396 34.9205 32.349 34.4598C32.3127 34.4431 32.2816 34.417 32.2589 34.3842C32.2361 34.3514 32.2225 34.3131 32.2195 34.2733C32.1741 33.6835 32.1335 33.1209 32.1335 32.7205C32.1334 32.6827 32.1429 32.6455 32.1611 32.6124C32.1793 32.5793 32.2056 32.5513 32.2375 32.5311C32.2695 32.5111 32.3058 32.4992 32.3434 32.4967C32.381 32.4941 32.4186 32.5009 32.453 32.5164C33.209 32.8376 34.017 33.0189 34.8378 33.0516H34.9028C35.6088 33.0441 36.3022 32.8641 36.9227 32.5273C37.5433 32.1904 38.072 31.7069 38.4628 31.1189C38.6966 30.6724 38.763 30.1569 38.65 29.6657C38.5371 29.1744 38.2522 28.7398 37.8468 28.4401C37.4133 28.0805 36.9151 27.8071 36.3789 27.6345C36.3232 27.6159 36.0101 27.5505 35.7581 27.4977C34.6746 27.2721 34.6746 27.2721 34.6404 27.0983C34.6337 27.0644 34.6348 27.0294 34.6438 26.9961C34.6528 26.9627 34.6694 26.9319 34.6922 26.9059C35.657 25.8073 37.9396 26.0973 38.9156 26.2194C39.2048 26.2545 39.3142 26.192 39.3733 26.1422C39.6137 25.942 39.6742 25.2955 39.7446 24.2525C39.7548 24.1383 39.7656 24.0377 39.7851 23.9273C39.7847 23.9076 39.7883 23.8881 39.7956 23.8698C39.8029 23.8515 39.8138 23.8349 39.8276 23.8209C40.8671 22.4556 41.4689 21.7486 41.8671 21.2808L42.0737 21.0366C42.6823 20.3256 43.7668 20.3032 45.814 20.9575C45.8528 20.9698 45.8875 20.9923 45.9144 21.0228C45.9413 21.0532 45.9595 21.0904 45.9669 21.1304L46.0109 21.2485C46.0266 21.2881 46.0307 21.3313 46.0229 21.3732C46.015 21.415 45.9954 21.4537 45.9664 21.4849C45.9374 21.5161 45.9002 21.5384 45.8591 21.5493C45.8179 21.5602 45.7745 21.5592 45.7339 21.5464C45.5266 21.4759 45.3152 21.4181 45.1008 21.3735C43.9431 21.1528 43.3154 21.2222 43.0043 21.605C42.8709 21.77 42.7371 21.9273 42.5905 22.1001C42.3448 22.3901 42.0625 22.7232 41.68 23.2115C41.5422 23.3873 41.4773 23.5299 41.4973 23.6129C41.529 23.7476 41.8197 23.8853 42.1006 24.0182C42.208 24.0689 42.3209 24.1226 42.4342 24.1822C42.9927 24.3869 43.6073 24.3772 44.159 24.1549C44.3051 24.1168 44.4507 24.0797 44.5967 24.0484C45.4334 23.9791 46.2746 23.9837 47.1105 24.0621C47.1506 24.0639 47.1896 24.0765 47.2232 24.0985C47.2569 24.1205 47.2841 24.1511 47.3019 24.1871C47.3537 24.2906 47.3884 24.3531 47.3899 24.3561C47.4412 24.4977 48.1895 26.9245 44.7589 30.9002L44.7584 30.9012C41.506 34.6513 38.7017 35.1406 38.3358 35.1904C37.8435 35.3415 37.3283 35.404 36.8142 35.3749ZM32.6582 34.1063C33.5673 34.5137 34.5375 34.7681 35.5295 34.8593C36.4091 35.0189 37.3127 34.9876 38.1791 34.7675C38.2026 34.7572 38.2274 34.7503 38.2528 34.747C38.2812 34.744 41.132 34.3964 44.4185 30.6062C47.5482 26.9792 47.0295 24.7203 46.983 24.5465C46.9745 24.5332 46.9667 24.5196 46.9596 24.5055C46.206 24.4518 45.4498 24.4456 44.6955 24.4869C44.5518 24.5182 44.4112 24.5543 44.2705 24.5904C43.6137 24.8493 42.8826 24.8462 42.2281 24.5817C42.1182 24.525 42.0102 24.4733 41.9077 24.4254C41.4959 24.2301 41.1402 24.0611 41.0592 23.7164C41.0403 23.5743 41.0544 23.4298 41.1006 23.2941C41.1468 23.1584 41.2237 23.0352 41.3254 22.9341C41.7128 22.439 41.9985 22.1021 42.2472 21.8091C42.3913 21.6392 42.5232 21.4849 42.6545 21.3218C42.7819 21.1641 42.9452 21.0392 43.1308 20.9576C42.8542 20.9845 42.5985 21.117 42.4171 21.3277L42.2101 21.5718C41.8193 22.0318 41.2307 22.7232 40.2195 24.0503C40.2073 24.1451 40.2004 24.2134 40.1936 24.2886C40.1111 25.5104 40.0495 26.1656 39.6616 26.4879C39.5483 26.5723 39.4185 26.6318 39.2806 26.6626C39.1427 26.6934 38.9999 26.6948 38.8615 26.6666C38.1209 26.5739 36.2906 26.3414 35.3327 26.9479C35.5007 26.985 35.6947 27.025 35.8505 27.0573C36.2276 27.1364 36.4449 27.1823 36.5226 27.2077C37.1137 27.3989 37.6628 27.7012 38.1405 28.0983C38.6215 28.4664 38.9573 28.9923 39.0889 29.5835C39.2205 30.1748 39.1395 30.7935 38.86 31.3308C38.4323 31.9924 37.8468 32.5371 37.1561 32.9161C36.4655 33.2951 35.6915 33.4964 34.9038 33.5018C34.8784 33.5018 34.8535 33.5018 34.8281 33.5008C34.0636 33.4747 33.3084 33.3249 32.5918 33.0575C32.604 33.3631 32.6294 33.7264 32.6582 34.1063H32.6582Z" fill="#944A45"/>
<path d="M37.1942 51.5753C37.0381 53.1107 37.1851 54.6618 37.6269 56.1405C36.9039 56.3848 36.1503 56.5273 35.388 56.5641C35.2093 55.9052 34.8612 55.0298 34.3532 53.6085C33.6166 51.2483 33.5128 48.736 34.0522 46.323C34.2968 44.6852 33.7418 43.7345 33.4125 41.9555C33.1397 40.5342 32.6505 36.7126 32.4436 34.2559C33.4105 34.7065 34.448 34.9867 35.5104 35.0842C36.4287 35.2601 37.3752 35.2214 38.2761 34.9712C38.8311 35.8748 38.2761 41.3436 37.8903 43.5933C37.3925 46.2241 37.1593 48.8981 37.1942 51.5753Z" fill="white"/>
<path d="M35.3882 56.814C35.3333 56.8139 35.28 56.7958 35.2364 56.7624C35.1928 56.7291 35.1613 56.6824 35.1469 56.6294C35.0262 56.1841 34.8235 55.6314 34.5431 54.8647C34.4166 54.52 34.2749 54.1323 34.1176 53.6919C33.3749 51.3727 33.2544 48.8991 33.7684 46.5188L33.805 46.2844C33.9194 45.3414 33.8195 44.3846 33.5129 43.4855C33.3991 43.0529 33.2706 42.5636 33.1666 42.0011C32.8823 40.5177 32.3913 36.6191 32.1945 34.2763C32.1908 34.2327 32.1987 34.1889 32.2173 34.1494C32.2359 34.1098 32.2645 34.0758 32.3004 34.0508C32.3363 34.0257 32.3781 34.0106 32.4216 34.0068C32.4652 34.003 32.509 34.0107 32.5486 34.0292C33.4895 34.4667 34.4986 34.7392 35.5318 34.8349C36.4072 34.9925 37.306 34.9618 38.1686 34.745C38.2245 34.7198 38.2876 34.7154 38.3465 34.7328C38.4053 34.7502 38.4559 34.7882 38.4891 34.8398C39.1671 35.9433 38.4026 42.0841 38.1369 43.6349L38.0695 44.0178C37.6218 46.5135 37.4124 49.0461 37.4442 51.5814C37.2884 53.087 37.4308 54.6086 37.8633 56.0591C37.8846 56.1211 37.8807 56.189 37.8525 56.2481C37.8243 56.3073 37.774 56.353 37.7124 56.3755C36.9689 56.6278 36.1939 56.775 35.4097 56.813L35.3882 56.814ZM32.7294 34.6532C32.9585 37.1689 33.4152 40.6427 33.658 41.9083C33.7591 42.4542 33.8797 42.9142 33.9965 43.3586C34.321 44.3236 34.4245 45.3492 34.2994 46.3596L34.2622 46.596C33.7646 48.8942 33.8771 51.2826 34.5885 53.5239C34.7453 53.9624 34.887 54.3491 35.013 54.6929C35.2578 55.3619 35.4439 55.8706 35.5719 56.2964C36.1614 56.2562 36.7448 56.1511 37.3113 55.983C36.9347 54.5435 36.8104 53.0497 36.944 51.5678C36.9125 49.0082 37.1243 46.4514 37.5766 43.9318L37.644 43.55C38.049 41.1876 38.4827 36.46 38.1359 35.2773C37.2614 35.4343 36.3677 35.4531 35.4873 35.3329C34.5391 35.2463 33.6093 35.0172 32.7294 34.6532Z" fill="#D1D1D1"/>
<path d="M38.1537 57.7968C37.8245 57.9192 37.514 58.0321 37.4199 58.0604C36.964 58.1902 36.4756 58.1397 36.0559 57.9192C35.86 57.8147 35.634 57.7814 35.4163 57.825C35.4881 57.5615 35.5073 57.2865 35.4727 57.0156C36.2605 56.9777 37.0379 56.819 37.7775 56.5449C37.932 56.9529 38.0577 57.3713 38.1537 57.7968Z" fill="#EBC5C4"/>
<path d="M36.8595 58.3503C36.534 58.3601 36.2124 58.276 35.9334 58.1081C35.7815 58.0326 35.6084 58.0116 35.4429 58.0485C35.4059 58.053 35.3684 58.0482 35.3337 58.0346C35.299 58.0209 35.2682 57.9989 35.2441 57.9704C35.22 57.9419 35.2034 57.9079 35.1957 57.8715C35.1881 57.835 35.1896 57.7972 35.2001 57.7614C35.2643 57.5255 35.2808 57.2791 35.2485 57.0368C35.243 56.9772 35.2612 56.9179 35.2993 56.8717C35.3181 56.8489 35.3413 56.8301 35.3675 56.8164C35.3936 56.8026 35.4223 56.7942 35.4517 56.7916C36.218 56.7553 36.9742 56.6015 37.6939 56.3356C37.7221 56.3242 37.7523 56.3187 37.7827 56.3194C37.8131 56.3201 37.8431 56.3269 37.8707 56.3395C37.8984 56.3521 37.9232 56.3702 37.9437 56.3927C37.9642 56.4152 37.9799 56.4416 37.9899 56.4703L38.028 56.5787C38.1701 56.9606 38.2856 57.3519 38.3738 57.7497C38.3848 57.8025 38.3766 57.8575 38.3507 57.9048C38.3247 57.9521 38.2826 57.9885 38.2321 58.0075C37.897 58.1325 37.5805 58.2468 37.4848 58.2761C37.2798 58.3242 37.0701 58.3491 36.8595 58.3503ZM35.695 57.5885C35.8671 57.5906 36.0353 57.6403 36.181 57.7321C36.5486 57.9165 36.9723 57.9556 37.3675 57.8415C37.432 57.8219 37.642 57.7458 37.8902 57.654C37.8215 57.3774 37.7386 57.1045 37.6415 56.8366C37.0168 57.045 36.3681 57.1733 35.7111 57.2184C35.7153 57.342 35.71 57.4658 35.695 57.5885Z" fill="#BD716D"/>
<path d="M37.373 65.0263C37.3208 65.1107 37.2492 65.1812 37.164 65.232C37.0789 65.2828 36.9828 65.3123 36.8838 65.3181C35.9713 65.2616 35.802 63.5391 35.8866 62.3719C35.9713 61.2047 35.5197 61.0071 35.0494 60.3952C34.8837 60.1964 34.7838 59.9511 34.7636 59.6931C34.7434 59.4351 34.8038 59.1772 34.9365 58.9551C35.3504 59.181 35.3975 59.2657 35.595 59.7364C35.7428 60.125 35.9666 60.4802 36.2535 60.7812C36.701 61.2881 36.9308 61.9509 36.8932 62.6261C36.8421 63.4542 37.0075 64.2814 37.373 65.0263Z" fill="#DB9D99"/>
<path d="M36.9074 65.5433C36.8952 65.5433 36.883 65.5433 36.8708 65.5423C36.7429 65.5342 36.618 65.4998 36.504 65.4414C36.39 65.3829 36.2892 65.3016 36.2079 65.2025C35.7101 64.3419 35.5177 63.3384 35.6618 62.3547C35.7096 62.0848 35.6882 61.8072 35.5997 61.5478C35.5113 61.2884 35.3585 61.0557 35.1557 60.8713C35.0644 60.7678 34.9681 60.6584 34.8709 60.5314C34.682 60.302 34.5671 60.0207 34.5414 59.7247C34.5157 59.4286 34.5803 59.1317 34.7268 58.8732C34.7385 58.8434 34.7564 58.8164 34.7793 58.794C34.8022 58.7716 34.8296 58.7543 34.8597 58.7433C34.8898 58.7328 34.9218 58.7287 34.9536 58.7312C34.9854 58.7337 35.0163 58.7428 35.0444 58.758C35.2296 58.84 35.394 58.9628 35.5253 59.1171C35.6565 59.2715 35.7513 59.4535 35.8025 59.6496C35.9106 59.952 36.076 60.2309 36.2895 60.4709C36.3335 60.5236 36.3794 60.5783 36.4297 60.6418C36.9092 61.1897 37.1563 61.903 37.1184 62.6301C37.0667 63.4143 37.2198 64.1985 37.563 64.9056C37.5883 64.9454 37.6004 64.9922 37.5977 65.0394C37.595 65.0865 37.5775 65.1316 37.5478 65.1683C37.4771 65.2758 37.3825 65.3656 37.2715 65.4307C37.1604 65.4957 37.0358 65.5343 36.9074 65.5433ZM35.0566 59.2892C34.991 59.4506 34.9724 59.6273 35.0028 59.7988C35.0332 59.9704 35.1115 60.1299 35.2285 60.2589C35.3184 60.3752 35.4083 60.4777 35.4938 60.5744C35.7369 60.8033 35.9203 61.0883 36.0279 61.4044C36.1355 61.7205 36.1641 62.0582 36.1112 62.3879C35.985 63.2521 36.1376 64.134 36.5469 64.9056C36.5892 64.9596 36.6422 65.0042 36.7027 65.0365C36.7632 65.0688 36.8298 65.088 36.8981 65.0931C36.9727 65.0824 37.0418 65.0482 37.0955 64.9954C36.7756 64.2464 36.6295 63.4348 36.6681 62.6213C36.7035 62.0026 36.4936 61.3948 36.0838 60.9299C36.0296 60.8615 35.9861 60.8097 35.9446 60.7609C35.7014 60.4854 35.512 60.1667 35.3863 59.8214C35.254 59.505 35.2051 59.3966 35.0566 59.2892Z" fill="#944A45"/>
<path d="M38.4171 61.0537C38.432 62.4475 38.0714 63.8196 37.373 65.0259C37.0075 64.281 36.8422 63.4538 36.8932 62.6256C36.9309 61.9505 36.701 61.2877 36.2535 60.7807C35.9667 60.4798 35.7428 60.1245 35.595 59.7359C35.3975 59.2653 35.3504 59.1805 34.9365 58.9546C35.0212 58.7569 35.1247 58.5405 35.247 58.2769C35.3198 58.1329 35.3765 57.9814 35.4163 57.8251C35.634 57.7815 35.8601 57.8148 36.056 57.9192C36.4756 58.1397 36.964 58.1902 37.42 58.0604C37.5141 58.0322 37.8245 57.9192 38.1538 57.7969C38.2039 57.9888 38.2416 58.1837 38.2666 58.3805C38.1255 58.5593 37.975 58.7287 37.8245 58.8982C37.6928 59.0299 37.5423 59.124 37.42 59.2558C37.2318 59.4347 37.5517 59.7924 37.6552 59.943C37.7775 60.1406 37.9091 60.3383 38.0409 60.5265C38.1631 60.696 38.2854 60.8654 38.4077 61.0442C38.4077 61.0455 38.4079 61.0467 38.4084 61.0479C38.4088 61.049 38.4095 61.0501 38.4104 61.051C38.4113 61.0518 38.4124 61.0525 38.4135 61.053C38.4147 61.0535 38.4159 61.0537 38.4171 61.0537Z" fill="#EBC5C4"/>
<path d="M37.3731 65.2511H37.3589C37.3235 65.2488 37.2892 65.2382 37.2587 65.2203C37.2281 65.2023 37.2022 65.1774 37.1831 65.1476C36.7946 64.3645 36.6172 63.4937 36.6682 62.6211C36.7036 62.0024 36.4937 61.3946 36.084 60.9297C36.0297 60.8613 35.9863 60.8095 35.9447 60.7607C35.7016 60.4852 35.5122 60.1665 35.3864 59.8212C35.2023 59.3817 35.1803 59.3436 34.8286 59.1522C34.7795 59.1255 34.7422 59.0815 34.7239 59.0288C34.7055 58.976 34.7075 58.9184 34.7294 58.867C34.7949 58.7127 34.8715 58.5487 34.9595 58.3611L35.043 58.1824C35.1095 58.0511 35.1614 57.9129 35.1979 57.7703C35.2089 57.7261 35.2331 57.6862 35.2673 57.656C35.3015 57.6259 35.3441 57.6068 35.3893 57.6013C35.6604 57.5483 35.9416 57.5948 36.1812 57.7322C36.5488 57.9166 36.9725 57.9556 37.3677 57.8415C37.4478 57.8171 37.7517 57.7068 38.075 57.5857C38.1044 57.5746 38.1359 57.5698 38.1672 57.5717C38.1986 57.5735 38.2293 57.582 38.2572 57.5964C38.2851 57.6109 38.3097 57.631 38.3293 57.6556C38.3489 57.6802 38.3631 57.7086 38.371 57.739C38.4242 57.9406 38.4639 58.1455 38.4897 58.3523C38.4936 58.3818 38.4915 58.4118 38.4836 58.4405C38.4756 58.4692 38.4619 58.496 38.4433 58.5193C38.3095 58.6902 38.1663 58.8513 38.0232 59.0135L37.9837 59.0574C37.9171 59.1224 37.8469 59.1837 37.7736 59.241C37.7069 59.2927 37.6437 59.3488 37.5846 59.409C37.6327 59.5271 37.6991 59.6368 37.7814 59.7342L37.841 59.8153C37.9666 60.0184 38.096 60.2127 38.225 60.3973C38.35 60.5701 38.4663 60.7313 38.5821 60.9002C38.6026 60.9221 38.6185 60.9479 38.6288 60.9761C38.6391 61.0043 38.6437 61.0343 38.6421 61.0643C38.6553 62.5068 38.2764 63.9258 37.546 65.1699C37.5249 65.1953 37.4985 65.2158 37.4686 65.2298C37.4387 65.2439 37.4061 65.2511 37.3731 65.2511ZM35.2237 58.8612C35.5097 59.041 35.7166 59.3227 35.8026 59.6494C35.9108 59.9518 36.0761 60.2307 36.2896 60.4707C36.3336 60.5234 36.3795 60.5781 36.4298 60.6416C36.9093 61.1895 37.1564 61.9028 37.1186 62.6299C37.0916 63.2919 37.1877 63.9531 37.4019 64.5801C37.8925 63.4915 38.16 62.3157 38.1883 61.122C38.0823 60.9686 37.9759 60.8212 37.8693 60.6727C37.7228 60.4647 37.5885 60.2626 37.4639 60.0614L37.4204 60.0028C37.2704 59.8016 36.9583 59.3836 37.2651 59.0926C37.3354 59.0206 37.4105 58.9534 37.4898 58.8914C37.551 58.8439 37.6096 58.7931 37.6652 58.7391C37.7995 58.5867 37.9187 58.453 38.0301 58.3153C38.0193 58.241 38.0066 58.1678 37.9924 58.0965C37.755 58.1834 37.5572 58.2537 37.4849 58.2762C36.9651 58.4176 36.411 58.3576 35.9335 58.1082C35.827 58.0545 35.7082 58.0299 35.5891 58.0369C35.5507 58.1538 35.5037 58.2678 35.4484 58.3777L35.3673 58.5516C35.3156 58.663 35.2677 58.7645 35.2237 58.8612L35.2237 58.8612Z" fill="#BD716D"/>
<path d="M45.8677 16.0984C45.2281 16.315 45.3033 17.8493 45.388 19.5436C45.3865 19.5783 45.3896 19.6131 45.3974 19.6471C45.4535 20.1672 45.5703 20.679 45.7455 21.1719C43.5066 20.4566 42.6975 20.6543 42.246 21.1814C41.8509 21.652 41.2394 22.3391 40.0071 23.9581C40.2911 22.6712 40.9111 21.4825 41.8039 20.513C42.1895 20.1366 42.5376 18.8658 42.0673 18.7434C43.1209 18.7717 43.8923 17.9152 43.5724 17.6045C43.4362 17.4875 43.3357 17.3345 43.2825 17.163C43.2293 16.9916 43.2254 16.8086 43.2714 16.635C43.3466 16.3432 43.4219 16.0138 43.2337 16.0232C42.9935 16.0525 42.7498 16.0167 42.5282 15.9196C42.246 15.8067 42.3024 15.2136 42.5658 14.8936C42.8292 14.5735 43.2055 14.5924 43.2337 14.4889C43.2525 14.3853 42.9985 14.2535 42.6223 13.9712C42.246 13.6794 42.2648 13.2558 42.293 12.7193C42.3798 12.3748 42.399 12.0168 42.3494 11.665C43.6947 11.872 45.134 13.4723 46.1123 14.3665C47.1659 15.3454 46.4981 15.8726 45.8677 16.0984Z" fill="white"/>
<path d="M40.0069 24.2077C39.9735 24.2074 39.9405 24.2008 39.9097 24.1881C39.8585 24.1666 39.8159 24.1285 39.7887 24.0801C39.7616 24.0316 39.7513 23.9755 39.7597 23.9205C40.0512 22.5818 40.6948 21.3451 41.6242 20.3384C41.886 20.0043 42.033 19.5947 42.0433 19.1704C42.0492 19.1055 42.035 19.0405 42.0028 18.9839C41.944 18.9684 41.8929 18.9321 41.859 18.8816C41.8251 18.8312 41.8107 18.7701 41.8186 18.7099C41.8266 18.6496 41.8562 18.5943 41.9019 18.5543C41.9477 18.5143 42.0065 18.4924 42.0673 18.4927L42.1185 18.4937C42.3386 18.4967 42.5568 18.4532 42.7588 18.3661C42.9609 18.2789 43.1422 18.15 43.291 17.9878C43.3901 17.8667 43.398 17.7905 43.395 17.7769C43.2282 17.6301 43.1056 17.4399 43.0409 17.2273C42.9761 17.0148 42.9719 16.7885 43.0286 16.5737C43.0609 16.4487 43.0824 16.352 43.0936 16.2817C42.8644 16.2941 42.6357 16.2484 42.4288 16.1489C42.3499 16.1138 42.2806 16.0604 42.2264 15.9932C42.1723 15.9259 42.135 15.8467 42.1177 15.7622C42.0832 15.5825 42.088 15.3976 42.132 15.22C42.1759 15.0425 42.2579 14.8766 42.3722 14.7338C42.4901 14.5935 42.6398 14.4833 42.8089 14.4125L42.7664 14.3832C42.6809 14.3227 42.5817 14.2533 42.4723 14.1713C41.9858 13.7934 42.0136 13.265 42.0434 12.7064C42.0532 12.5804 42.0712 12.4551 42.0971 12.3314C42.1489 12.1302 42.1515 11.9195 42.1045 11.7171C42.0961 11.6774 42.0975 11.6363 42.1083 11.5972C42.1192 11.5581 42.1393 11.5222 42.167 11.4925C42.1954 11.4638 42.2301 11.4421 42.2683 11.4291C42.3065 11.416 42.3473 11.412 42.3873 11.4173C43.5846 11.6019 44.7887 12.7572 45.7564 13.6859C45.942 13.8647 46.1179 14.0336 46.281 14.182C46.4858 14.324 46.6503 14.5167 46.7583 14.7413C46.8662 14.9659 46.914 15.2147 46.897 15.4633C46.829 15.6781 46.706 15.8713 46.5403 16.024C46.3746 16.1766 46.1719 16.2833 45.9523 16.3335L45.9479 16.3345C45.4853 16.4917 45.5698 18.1773 45.6377 19.5309C45.6411 19.5455 45.646 19.6168 45.647 19.6314C45.7002 20.1308 45.8132 20.622 45.9835 21.0944C45.9977 21.1382 45.9996 21.1851 45.9888 21.2299C45.978 21.2747 45.9551 21.3157 45.9225 21.3483C45.8899 21.3805 45.8491 21.4033 45.8045 21.4141C45.7599 21.425 45.7133 21.4235 45.6695 21.4098C43.3941 20.6823 42.7576 20.9694 42.4362 21.3434L42.2291 21.5885C41.8344 22.0524 41.2375 22.7536 40.2058 24.1091C40.1824 24.1397 40.1524 24.1646 40.1179 24.1817C40.0834 24.1988 40.0454 24.2076 40.0069 24.2077ZM42.5211 18.9556C42.5497 19.2664 42.5164 19.5797 42.4231 19.8776C42.3299 20.1755 42.1786 20.4519 41.9779 20.691C41.4365 21.298 40.9886 21.9823 40.6487 22.7213C41.1983 22.0279 41.572 21.5884 41.848 21.2642L42.0546 21.0201C42.6232 20.355 43.5972 20.2827 45.3694 20.7954C45.2557 20.4267 45.1814 20.047 45.1477 19.6626C45.1386 19.6236 45.1353 19.5834 45.1379 19.5435C45.0426 17.6489 44.9669 16.142 45.7851 15.8617C46.1417 15.7338 46.3679 15.5521 46.407 15.3627C46.45 15.1537 46.2893 14.8725 45.942 14.5502C45.7774 14.3998 45.5991 14.2279 45.4095 14.0463C44.6332 13.1819 43.6908 12.4828 42.6384 11.9906C42.6372 12.1371 42.6205 12.2831 42.5885 12.4261C42.5666 12.5285 42.5513 12.6323 42.5426 12.7367C42.5143 13.2757 42.5114 13.5687 42.7756 13.7738C42.8767 13.85 42.972 13.9164 43.0536 13.974C43.3354 14.1713 43.5216 14.3012 43.48 14.5326C43.456 14.6056 43.4126 14.6707 43.3544 14.721C43.2963 14.7712 43.2255 14.8047 43.1498 14.8178C42.9994 14.8562 42.8634 14.9377 42.7585 15.0522C42.6856 15.1391 42.6352 15.2427 42.6118 15.3537C42.5884 15.4648 42.5926 15.5799 42.6242 15.6889C42.8075 15.7714 43.0102 15.8009 43.2094 15.7739C43.2659 15.7701 43.3226 15.7793 43.375 15.8008C43.4274 15.8223 43.4742 15.8555 43.5118 15.8979C43.6583 16.0776 43.6021 16.354 43.5138 16.6967C43.4788 16.8263 43.4816 16.9632 43.5219 17.0912C43.5621 17.2193 43.6381 17.3331 43.7409 17.4194C43.8214 17.4997 43.8743 17.6036 43.892 17.7159C43.9096 17.8282 43.8911 17.9433 43.8391 18.0444C43.7046 18.2877 43.5157 18.4966 43.287 18.6547C43.0584 18.8127 42.7962 18.9157 42.5211 18.9556Z" fill="#D1D1D1"/>
<path d="M42.067 18.7437H42.0576C42.0539 18.7401 42.0495 18.7374 42.0446 18.7358C42.0397 18.7342 42.0345 18.7337 42.0294 18.7343C41.3177 18.5777 40.6651 18.2218 40.148 17.7083C39.5459 17.1529 39.5835 16.9835 38.6899 16.7106C37.8056 16.4282 37.6645 15.534 37.9185 14.5362C38.163 13.5385 39.3296 13.5102 39.5835 13.0867C39.8336 12.6571 40.1899 12.299 40.6182 12.0468C41.0465 11.7946 41.5325 11.6568 42.0294 11.6465C42.1329 11.6465 42.2269 11.6559 42.3398 11.6653H42.3492C42.3987 12.0171 42.3796 12.3751 42.2928 12.7196C42.2646 13.2561 42.2458 13.6797 42.6221 13.9715C42.9983 14.2538 43.2523 14.3856 43.2335 14.4892C43.2053 14.5927 42.829 14.5738 42.5656 14.8939C42.3022 15.2139 42.2458 15.8069 42.528 15.9199C42.7496 16.017 42.9933 16.0528 43.2335 16.0235C43.4217 16.0141 43.3464 16.3435 43.2712 16.6353C43.2252 16.8089 43.2291 16.9919 43.2823 17.1633C43.3355 17.3348 43.436 17.4878 43.5722 17.6048C43.892 17.9154 43.1206 18.7719 42.067 18.7437Z" fill="#795E2E"/>
<path d="M42.1186 18.968C42.1005 18.968 42.0824 18.968 42.0643 18.967H42.0575C42.0294 18.9673 42.0015 18.962 41.9754 18.9514C41.2272 18.7845 40.541 18.4105 39.9951 17.8723C39.8456 17.7345 39.7343 17.6193 39.6385 17.5207C39.377 17.2138 39.0198 17.004 38.6244 16.925C37.7144 16.634 37.3788 15.7433 37.7002 14.4796C37.7922 14.1931 37.9514 13.9328 38.1645 13.7204C38.3777 13.5081 38.6385 13.3498 38.9253 13.2588C39.0997 13.1975 39.2586 13.0989 39.3909 12.9698C39.6621 12.509 40.0464 12.1249 40.5073 11.8539C40.9683 11.5829 41.4907 11.4339 42.0253 11.4209H42.0263C42.1196 11.4209 42.2026 11.4268 42.2949 11.4346L42.3575 11.4395C42.4068 11.443 42.4538 11.462 42.4917 11.4937C42.5297 11.5254 42.5567 11.5683 42.569 11.6162C42.6293 11.8813 42.6274 12.1567 42.5636 12.4209C42.5417 12.5243 42.5263 12.6291 42.5177 12.7344C42.4893 13.2667 42.4869 13.5811 42.7605 13.793C42.8621 13.8692 42.9573 13.9366 43.0394 13.9942C43.3129 14.1856 43.4942 14.3126 43.4556 14.5284C43.4082 14.7032 43.2666 14.7511 43.142 14.794C42.987 14.834 42.847 14.9181 42.739 15.0362C42.6724 15.1215 42.6238 15.2194 42.5962 15.3239C42.5685 15.4285 42.5624 15.5376 42.5782 15.6446C42.589 15.6876 42.6041 15.7071 42.612 15.7101C42.8004 15.7925 43.0075 15.8232 43.2118 15.7989C43.2645 15.7911 43.3183 15.7976 43.3677 15.8177C43.417 15.8378 43.46 15.8708 43.4922 15.9132C43.6314 16.0831 43.5762 16.3546 43.4893 16.6906C43.4532 16.8246 43.4562 16.9661 43.4978 17.0984C43.5394 17.2308 43.618 17.3485 43.7243 17.4377C43.8008 17.5146 43.851 17.6138 43.8675 17.721C43.884 17.8283 43.866 17.938 43.8161 18.0344C43.6447 18.3296 43.3961 18.5725 43.097 18.737C42.7979 18.9015 42.4597 18.9814 42.1186 18.968ZM42.0932 18.5178C42.3498 18.5331 42.6059 18.4803 42.8356 18.3647C43.0652 18.2491 43.2603 18.0748 43.4008 17.8596C43.4218 17.8098 43.4243 17.7736 43.4155 17.7648C43.2511 17.6202 43.1302 17.4328 43.0662 17.2234C43.0022 17.0141 42.9976 16.7911 43.053 16.5793C43.0823 16.4729 43.1056 16.365 43.1229 16.256C42.8875 16.2681 42.6528 16.2232 42.4385 16.1251C42.3632 16.0917 42.297 16.0408 42.2454 15.9766C42.1939 15.9123 42.1584 15.8367 42.142 15.756C42.1082 15.5803 42.113 15.3993 42.1561 15.2256C42.1992 15.0519 42.2796 14.8896 42.3916 14.7501C42.5169 14.6013 42.6782 14.487 42.8601 14.4181C42.8337 14.3995 42.8068 14.38 42.7809 14.3624C42.6955 14.3019 42.5963 14.2325 42.4869 14.1505C42.0116 13.7814 42.0389 13.2599 42.0682 12.7071C42.0782 12.5824 42.096 12.4585 42.1215 12.336C42.1584 12.1853 42.1701 12.0295 42.1562 11.875C42.1142 11.8721 42.0726 11.8701 42.0297 11.8701C41.5722 11.8823 41.1254 12.0108 40.7314 12.2435C40.3374 12.4762 40.0092 12.8055 39.7777 13.2002C39.6067 13.4159 39.377 13.5777 39.1163 13.6661C38.6982 13.8614 38.2659 14.0645 38.1374 14.589C37.9537 15.3107 37.9127 16.2247 38.7588 16.4962C39.2265 16.5966 39.6488 16.8465 39.9619 17.2082C40.0528 17.3019 40.1583 17.4103 40.3004 17.5422C40.7825 18.0227 41.39 18.3581 42.0536 18.51C42.067 18.5114 42.0802 18.514 42.0932 18.5178Z" fill="#36250D"/>
<path d="M65.6603 24.8806C65.5139 24.8597 65.3693 24.8282 65.2275 24.7865C65.4004 24.8798 65.5615 24.9936 65.7073 25.1253C65.7825 25.2477 65.6979 25.3512 65.3498 25.2477C65.0112 25.1442 64.2774 24.8335 64.2774 24.8335C64.2774 24.8335 64.9641 25.5865 65.2181 25.8595C65.4627 26.1231 65.4062 26.349 65.1805 26.2267C64.9547 26.1137 63.6941 24.9089 63.2144 24.57C63.0144 24.4419 62.807 24.3256 62.5935 24.2217H62.5841C62.2676 24.045 61.9244 23.921 61.5681 23.8547C61.38 23.8829 61.5869 24.25 61.9161 24.5607C61.9897 24.6284 62.0588 24.7007 62.1231 24.7772C62.4403 25.1067 62.6924 25.4931 62.8663 25.9162C62.8945 26.1986 62.697 26.255 62.443 26.0197C62.1984 25.7844 60.665 24.3254 60.4957 24.0618C60.3264 23.7889 59.9218 23.2241 59.7619 23.2524C58.3697 23.4783 54.5034 24.5231 52.9229 24.5514C51.9258 24.5702 49.1789 24.3819 47.0999 24.2878C46.2832 24.219 45.4624 24.2127 44.6447 24.269C43.9116 24.5818 43.0907 24.6219 42.3305 24.382C41.5873 23.996 40.8912 23.8549 41.5027 23.0736C42.1142 22.2923 42.4716 21.9064 42.8291 21.464C43.196 21.0122 43.8639 20.9087 45.1433 21.1534C45.3662 21.1994 45.5862 21.2592 45.8018 21.3322C46.2722 21.4923 46.6954 21.6993 47.2505 21.8405C47.8775 21.9963 48.5245 22.0566 49.1695 22.0194C51.3425 21.9346 58.0122 21.464 59.762 21.9064C61.3852 22.4167 62.9568 23.0785 64.4561 23.883C64.8042 24.0619 65.3498 24.3819 65.5568 24.4949C65.7543 24.6171 65.8202 24.89 65.6603 24.8806Z" fill="white"/>
<path d="M65.2904 26.5099C65.2099 26.5085 65.1311 26.4866 65.0613 26.4464C64.7294 26.2122 64.4165 25.9523 64.1254 25.6691C63.7375 25.3253 63.2984 24.9356 63.0702 24.7745C62.8899 24.659 62.703 24.554 62.5104 24.4601C62.4973 24.4564 62.4845 24.4515 62.4723 24.4454C62.2934 24.3553 62.1098 24.2748 61.9223 24.2042C61.9743 24.2654 62.0296 24.3238 62.0879 24.379C62.162 24.4467 62.2317 24.5191 62.2965 24.5958C62.649 24.9694 62.9267 25.407 63.1147 25.8849C63.1369 25.9793 63.1275 26.0784 63.0882 26.1671C63.0489 26.2557 62.9817 26.3291 62.8969 26.3761C62.8114 26.4181 62.5794 26.4865 62.2731 26.2033L62.1612 26.0958C61.498 25.5013 60.8716 24.867 60.2854 24.1964C60.1365 23.9445 59.9553 23.713 59.7466 23.5079C59.2738 23.5889 58.5508 23.752 57.7189 23.9405C56.146 24.3488 54.5441 24.6364 52.9274 24.8009C52.2518 24.8155 50.8347 24.7354 49.3282 24.6534C48.5677 24.6114 47.79 24.5684 47.089 24.5372C46.2943 24.4815 45.497 24.473 44.7013 24.5118C44.5572 24.5431 44.417 24.5792 44.2768 24.6153C43.6138 24.875 42.8766 24.8712 42.2164 24.6046C42.107 24.5479 41.9995 24.4962 41.8969 24.4483C41.4798 24.2501 41.1188 24.0792 41.0348 23.7227C41.0147 23.5769 41.0287 23.4284 41.0758 23.289C41.1228 23.1495 41.2016 23.0229 41.3059 22.919C41.6932 22.4239 41.9795 22.0869 42.2281 21.794C42.3722 21.6241 42.5036 21.4688 42.635 21.3067C43.0722 20.7676 43.8357 20.6465 45.1903 20.9082C45.4156 20.9538 45.6378 21.0135 45.8556 21.0869C46.0534 21.1533 46.2186 21.2178 46.3856 21.2832C46.6874 21.4078 46.997 21.5128 47.3123 21.5977C47.9164 21.7465 48.5394 21.8045 49.1607 21.7696C49.5661 21.754 50.1298 21.7247 50.7888 21.6905C53.8067 21.5323 58.3642 21.294 59.8238 21.6641C61.466 22.1796 63.056 22.8486 64.5728 23.6622C64.8073 23.7823 65.1341 23.9679 65.3871 24.1124L65.6773 24.2755C65.7879 24.3346 65.8771 24.4271 65.9321 24.5399C65.9871 24.6526 66.0051 24.7799 65.9835 24.9035C65.9715 24.9416 65.9528 24.9773 65.9283 25.0089C65.9654 25.0679 65.984 25.1365 65.9818 25.2061C65.9796 25.2757 65.9568 25.343 65.9161 25.3996C65.8004 25.55 65.5849 25.5802 65.2787 25.4875C65.2508 25.4796 65.22 25.4699 65.1878 25.4582C65.2718 25.549 65.3466 25.63 65.4013 25.6886C65.6309 25.9367 65.6914 26.2092 65.5556 26.3849C65.524 26.4247 65.4836 26.4567 65.4376 26.4783C65.3916 26.5 65.3412 26.5108 65.2904 26.5099ZM59.7788 22.9991C59.9078 22.9991 60.1892 23.0948 60.7084 23.9298C61.2746 24.5641 61.8752 25.1669 62.5075 25.7355L62.5207 25.7482C62.353 25.4602 62.1566 25.19 61.9345 24.9415C61.8781 24.874 61.8176 24.8101 61.7533 24.7501C61.5667 24.5743 61.1632 24.1495 61.2629 23.8311C61.2814 23.772 61.3166 23.7195 61.3641 23.6799C61.4117 23.6402 61.4696 23.6151 61.531 23.6075C61.9319 23.6505 62.319 23.7787 62.6663 23.9835C62.6797 23.9871 62.6928 23.992 62.7053 23.9981C62.9284 24.1067 63.1449 24.2283 63.3536 24.3624C63.5255 24.4835 63.7756 24.6954 64.0477 24.9337C64.0307 24.8942 64.024 24.851 64.0285 24.8083C64.0329 24.7655 64.0483 24.7246 64.0731 24.6895C64.1065 24.6434 64.1544 24.6099 64.2092 24.5943C64.2639 24.5787 64.3223 24.582 64.375 24.6036C64.3794 24.6056 64.6945 24.7393 65.0007 24.8575C64.9843 24.8042 64.9869 24.7469 65.0081 24.6954C65.021 24.6634 65.0401 24.6342 65.0645 24.6098C65.0888 24.5853 65.1178 24.5659 65.1497 24.5528L65.1395 24.5469C64.8928 24.4063 64.5733 24.2237 64.3418 24.1055C62.8593 23.3096 61.3055 22.6544 59.7007 22.1484C58.3168 21.7998 53.6205 22.0439 50.8151 22.1894C50.1528 22.2236 49.5871 22.2529 49.1792 22.2695C48.509 22.3067 47.8371 22.2431 47.1857 22.081C46.8516 21.9917 46.5236 21.8808 46.2039 21.749C46.0436 21.6865 45.8854 21.625 45.7212 21.5684C45.5165 21.4995 45.3079 21.4427 45.0965 21.3984C43.6525 21.1221 43.2383 21.3564 43.0238 21.6211C42.89 21.7861 42.7566 21.9444 42.6096 22.1172C42.3644 22.4063 42.082 22.7393 41.6996 23.2276C41.514 23.4649 41.513 23.5723 41.5213 23.6075C41.5506 23.7305 41.8359 23.8653 42.1114 23.9962C42.2188 24.047 42.3322 24.1007 42.446 24.1602C42.9989 24.3623 43.6071 24.3518 44.1528 24.1309C44.2988 24.0938 44.4454 24.0557 44.5914 24.0245C45.4304 23.9552 46.2738 23.9594 47.112 24.0372C47.8144 24.0694 48.5936 24.1124 49.3556 24.1544C50.8533 24.2364 52.2631 24.3175 52.9181 24.3009C54.5006 24.1356 56.0685 23.8519 57.6085 23.4522C58.4839 23.2549 59.2401 23.084 59.7222 23.0049C59.7409 23.0015 59.7598 22.9995 59.7788 22.9991ZM59.8057 23.4981L59.8008 23.4991L59.8057 23.4981Z" fill="#D1D1D1"/>
<path d="M56.1779 7.40064C55.7745 7.38973 55.3727 7.45356 54.9926 7.58891C54.7104 7.77717 54.2024 8.09717 54.3811 8.23839C54.5599 8.37961 54.7856 8.23839 55.2842 8.22897C55.7828 8.21954 56.0085 8.52076 55.8016 8.71845C55.5852 8.91608 55.0302 8.70903 54.6257 8.89729C54.2306 9.07614 53.5721 9.56556 53.1299 9.56556C52.6878 9.56556 52.4714 9.53735 52.3774 9.77267C52.2833 9.99857 50.7593 16.0698 48.7086 19.4678C47.9936 20.6444 47.5421 21.3786 47.2505 21.8398C46.6955 21.6986 46.2721 21.4915 45.8018 21.3315C45.7829 21.2844 45.7641 21.228 45.7453 21.1809V21.1715C45.5701 20.6785 45.4533 20.1668 45.3972 19.6466C46.2157 18.3571 46.7801 18.1782 47.0999 17.5946C47.4584 16.9812 47.7247 16.3183 47.8901 15.6273C48.0406 14.9496 50.6935 10.5256 51.1638 9.62198C51.826 8.65653 52.7057 7.86016 53.732 7.29705C54.4224 6.85777 55.165 6.50677 55.9427 6.25225C56.2908 6.21456 56.4225 6.44052 56.2343 6.53462C55.8957 6.67993 55.5714 6.85639 55.2654 7.06173C55.1337 7.20295 55.9051 6.98642 56.2155 7.08058C56.526 7.16532 56.3378 7.37243 56.1779 7.40064Z" fill="white"/>
<path d="M47.2506 22.0896C47.2299 22.0894 47.2092 22.0868 47.1891 22.0818C46.8538 21.9922 46.5247 21.881 46.2038 21.7488C46.0436 21.6863 45.8853 21.6248 45.7212 21.5681C45.6869 21.5566 45.6555 21.5376 45.6292 21.5127C45.603 21.4877 45.5825 21.4573 45.5693 21.4236L45.5131 21.2732C45.5063 21.2562 45.5014 21.2385 45.4984 21.2205C45.3192 20.7173 45.2014 20.1943 45.1477 19.6628C45.1444 19.6102 45.1579 19.5579 45.1863 19.5134C45.5194 18.9772 45.9222 18.4876 46.3841 18.0573C46.5786 17.8901 46.7462 17.6937 46.8808 17.4753C47.2281 16.8826 47.4858 16.2419 47.6458 15.5739C48.332 14.0466 49.1226 12.5684 50.012 11.1499C50.4389 10.4077 50.796 9.78753 50.9421 9.50725C51.6273 8.49987 52.5406 7.66841 53.6077 7.08043C54.3321 6.63168 55.107 6.27011 55.9163 6.00325C56.2817 5.97493 56.5015 6.13606 56.5557 6.32162C56.5794 6.40747 56.5712 6.49899 56.5326 6.57925C56.4939 6.6595 56.4276 6.72306 56.3457 6.75815C56.3203 6.77378 56.2749 6.79624 56.2177 6.82456C56.2414 6.82848 56.2647 6.83403 56.2876 6.84116C56.6197 6.93198 56.6354 7.16539 56.632 7.23473C56.6171 7.33853 56.569 7.43473 56.495 7.509C56.4209 7.58326 56.3249 7.63162 56.2211 7.64685L56.2065 7.6488C56.1694 7.65368 56.1039 7.65661 56.0209 7.65954C55.7174 7.65196 55.415 7.69927 55.1284 7.7992L55.0747 7.83533C55.0087 7.87833 54.8988 7.95154 54.7992 8.02479C54.958 7.9985 55.1184 7.98317 55.2793 7.97889H55.3047C55.4615 7.96136 55.62 7.99046 55.7603 8.06255C55.9006 8.13464 56.0166 8.24651 56.0937 8.38417C56.1291 8.47196 56.1367 8.56854 56.1154 8.66079C56.0941 8.75304 56.0449 8.83649 55.9745 8.89981C55.7697 9.0388 55.5205 9.09659 55.2755 9.06192C55.0917 9.04272 54.9059 9.06406 54.7313 9.12443C54.615 9.17716 54.4783 9.25627 54.3307 9.34123C53.9734 9.59162 53.562 9.75423 53.13 9.81585L53.0001 9.81485C52.6753 9.81385 52.6264 9.82363 52.6093 9.86563C52.5947 9.90563 52.5556 10.0473 52.4931 10.2699C51.6932 13.5147 50.4939 16.6478 48.9227 19.5973C48.2061 20.7761 47.7543 21.5114 47.4622 21.9733C47.4395 22.0089 47.4082 22.0382 47.3713 22.0585C47.3343 22.0789 47.2928 22.0895 47.2506 22.0896ZM45.9952 21.1345C46.1266 21.1814 46.2556 21.2322 46.3855 21.283C46.6229 21.3757 46.8667 21.4705 47.1378 21.5496C47.4294 21.0847 47.8568 20.3874 48.4953 19.3386C50.0425 16.4272 51.2235 13.3356 52.0114 10.1342C52.0852 9.87249 52.1321 9.71136 52.1462 9.67722C52.2932 9.311 52.6161 9.31002 53.0035 9.3149L53.13 9.3159C53.4713 9.24484 53.7949 9.10603 54.0816 8.90768C54.2447 8.81393 54.3967 8.72701 54.5227 8.67037C54.7648 8.57675 55.0251 8.53968 55.2838 8.56197C55.4009 8.57125 55.5188 8.56202 55.633 8.53463C55.5269 8.50095 55.4166 8.48221 55.3052 8.47896H55.2886C55.1427 8.48306 54.9972 8.49777 54.8534 8.52296C54.7487 8.55533 54.6382 8.56424 54.5297 8.54904C54.4212 8.53385 54.3174 8.49493 54.2257 8.43506C54.1828 8.40191 54.1485 8.35901 54.1256 8.30992C54.1026 8.26083 54.0917 8.20697 54.0938 8.15283C54.1046 7.89696 54.3796 7.69583 54.7982 7.41844L54.8539 7.38132C54.924 7.33752 54.9996 7.30305 55.0786 7.27878C55.0584 7.25775 55.0416 7.2337 55.0288 7.20749C55.0078 7.15509 55.0017 7.09793 55.0111 7.04229C55.0205 6.98664 55.045 6.93466 55.082 6.89205C55.1057 6.8638 55.1324 6.83826 55.1616 6.81588C54.7826 6.9985 54.32 7.24363 53.8579 7.51316C52.8724 8.05356 52.0259 8.81546 51.3852 9.73881C51.2382 10.021 50.8776 10.649 50.4458 11.399C49.6007 12.7849 48.8291 14.2143 48.1343 15.6814C47.9641 16.3965 47.6892 17.0827 47.3185 17.7175C47.1606 17.9798 46.9627 18.2157 46.7319 18.4168C46.319 18.8011 45.9566 19.2362 45.6533 19.7118C45.7141 20.1831 45.8248 20.6467 45.9835 21.0946C45.9868 21.1042 45.9894 21.114 45.9913 21.1239L45.9952 21.1345Z" fill="#D1D1D1"/>
<path d="M38.4171 61.054C38.4159 61.0541 38.4146 61.0539 38.4135 61.0534C38.4123 61.0529 38.4113 61.0522 38.4104 61.0513C38.4095 61.0505 38.4088 61.0494 38.4084 61.0483C38.4079 61.0471 38.4077 61.0459 38.4077 61.0446C38.2854 60.8658 38.1631 60.6964 38.0409 60.5269C37.9091 60.3387 37.7774 60.141 37.6551 59.9434C37.5517 59.7928 37.2318 59.4351 37.4199 59.2562C37.5422 59.1244 37.6927 59.0303 37.8245 58.8986C37.975 58.7291 38.1255 58.5597 38.2666 58.3809C38.2948 58.5126 38.3136 58.6539 38.3325 58.8044C38.4307 59.55 38.4591 60.3032 38.4171 61.054Z" fill="white"/>
<path d="M38.4173 61.2783C38.3784 61.2774 38.3404 61.2671 38.3064 61.2482C38.2724 61.2293 38.2436 61.2024 38.2224 61.1699L38.2214 61.1709C38.1041 60.999 37.9869 60.8369 37.8692 60.6728C37.7226 60.4648 37.5883 60.2627 37.4637 60.0615L37.4202 60.0029C37.2702 59.8017 36.9581 59.3837 37.2649 59.0927C37.3352 59.0207 37.4103 58.9535 37.4896 58.8915C37.5508 58.844 37.6094 58.7932 37.665 58.7392C37.8232 58.5595 37.961 58.4052 38.0895 58.2421C38.1159 58.2085 38.1514 58.1832 38.1917 58.169C38.232 58.1548 38.2755 58.1524 38.3172 58.162C38.3588 58.1717 38.3968 58.1929 38.4268 58.2234C38.4569 58.2538 38.4776 58.2921 38.4866 58.3339C38.5159 58.4716 38.5364 58.6191 38.5555 58.7763C38.6557 59.535 38.6847 60.3014 38.6419 61.0654C38.6389 61.1229 38.6139 61.1771 38.5721 61.2167C38.5303 61.2563 38.4749 61.2784 38.4173 61.2783ZM38.1188 58.9052L38.0231 59.0136L37.9835 59.0575C37.917 59.1224 37.847 59.1837 37.7739 59.2411C37.7069 59.2927 37.6436 59.3488 37.5844 59.4091C37.6325 59.5272 37.6989 59.637 37.7813 59.7343L37.8409 59.8154C37.9615 60.0107 38.0861 60.1982 38.2101 60.376C38.2114 59.8842 38.1809 59.393 38.1188 58.9052Z" fill="#BD716D"/>
<path d="M59.75 65.5H9.75122V66H59.75V65.5Z" fill="#D1D1D1"/>
</svg>
