<svg width="72" height="72" viewBox="0 0 72 72" fill="none" xmlns="http://www.w3.org/2000/svg">
<path d="M35.9 48.5C33.5 48.5 31.6 50.4 31.5 52.7V52.8V52.9C31.6 55.3 33.5 57.2 35.9 57.2C38.3 57.2 40.2 55.3 40.3 52.9V52.8V52.7C40.3 50.4 38.3 48.5 35.9 48.5Z" fill="#E6E6E6"/>
<path d="M36.1002 23.4998C38.5002 23.4998 40.4002 21.5998 40.5002 19.2998V19.1998V19.0998C40.4002 16.6998 38.5002 14.7998 36.1002 14.7998C33.7002 14.7998 31.8002 16.6998 31.7002 19.0998V19.1998V19.2998C31.7002 21.5998 33.7002 23.4998 36.1002 23.4998Z" fill="#E6E6E6"/>
<path d="M16.1001 5V67H55.9001V5H16.1001ZM33.8001 7.6H38.3001V7.8H33.8001V7.6ZM33.0001 7.9H33.2001V8.8C33.2001 10.3 34.5001 11.6 36.0001 11.6C37.5001 11.6 38.8001 10.3 38.8001 8.8V7.9H39.0001V8.8C39.0001 10.5 37.6001 11.8 36.0001 11.8C34.4001 11.8 33.0001 10.4 33.0001 8.8V7.9ZM31.7001 5V17.6C32.3001 15.8 34.0001 14.5 36.1001 14.5C38.1001 14.5 39.9001 15.8 40.5001 17.6V5H40.7001V19.1V19.2C40.6001 21.7 38.6001 23.7 36.1001 23.7C33.6001 23.7 31.5001 21.7 31.5001 19.2V19.1V5H31.7001ZM20.5001 5H20.7001V8.8C20.7001 17.2 27.5001 24.1 36.0001 24.1C44.4001 24.1 51.3001 17.3 51.3001 8.8V5H51.5001V8.8C51.5001 17.3 44.5001 24.3 36.0001 24.3C27.5001 24.3 20.5001 17.3 20.5001 8.8V5ZM38.2001 64.4H33.7001V64.2H38.2001V64.4ZM39.0001 64.1H38.8001V63.2C38.8001 61.7 37.5001 60.4 36.0001 60.4C34.5001 60.4 33.2001 61.7 33.2001 63.2V64.1H33.0001V63.2C33.0001 61.5 34.4001 60.2 36.0001 60.2C37.6001 60.2 39.0001 61.6 39.0001 63.2V64.1ZM40.3001 67V54.4C39.7001 56.2 38.0001 57.5 35.9001 57.5C33.9001 57.5 32.1001 56.2 31.5001 54.4V67H31.3001V52.9V52.8C31.4001 50.3 33.4001 48.3 35.9001 48.3C38.4001 48.3 40.5001 50.3 40.5001 52.8V52.9V67H40.3001ZM51.5001 67H51.3001V63.2C51.3001 54.8 44.5001 47.9 36.0001 47.9C27.6001 47.9 20.7001 54.7 20.7001 63.2V67H20.5001V63.2C20.5001 54.7 27.5001 47.7 36.0001 47.7C44.5001 47.7 51.5001 54.7 51.5001 63.2V67ZM55.9001 36.1H38.4001C38.3001 37.4 37.3001 38.4 36.0001 38.4C34.7001 38.4 33.7001 37.4 33.6001 36.1H16.1001V35.9H33.6001C33.7001 34.6 34.7001 33.6 36.0001 33.6C37.3001 33.6 38.3001 34.6 38.4001 35.9H55.9001V36.1Z" fill="#E6E6E6"/>
<path d="M52.1 31.9004L52 31.5004C52 31.5004 52 31.5004 52 31.4004C50.8 27.0004 47.8001 23.4004 43.9001 21.3004H43.8C41.5 20.1004 38.8 19.4004 36 19.4004C34.2 19.4004 32.4 19.7004 30.8 20.2004L30.6 20.3004C27.5 21.4004 24.8 23.3004 22.9 25.8004L22.7001 26.0004C20.6001 28.8004 19.3 32.2004 19.3 36.0004C19.3 37.4004 19.5 38.8004 19.8 40.1004L19.9 40.3004C21.2 45.0004 24.5 48.9004 28.8 51.0004L28.9 51.1004C31 52.1004 33.4 52.7004 36 52.7004C41.9 52.7004 47 49.6004 50 45.1004L50.1 45.0004C51.7 42.4004 52.7001 39.4004 52.7001 36.1004C52.7001 34.6004 52.5 33.2004 52.1 31.9004ZM51.9001 36.0004C51.9001 39.1004 51 41.9004 49.5 44.4004C48.8 44.1004 46.9 43.2004 46 41.4004C45.7001 40.9004 45.6 40.3004 45.5 39.7004C49.3 37.8004 50.9 35.9004 51.6 34.5004C51.7 34.4004 51.7001 34.3004 51.7001 34.2004C51.9001 34.8004 51.9001 35.4004 51.9001 36.0004ZM51 34.2004C50.4 35.4004 48.9 37.1004 45.6 38.8004C45.6 38.3004 45.7001 37.8004 45.9001 37.3004L46 37.0004C47.5 32.3004 49 27.9004 46.2001 23.8004C48.7001 25.9004 50.5001 28.8004 51.4001 32.0004C51.4001 32.5004 51.4001 33.2004 51 34.2004ZM45.3 36.8004L45.2001 37.2004C45 37.9004 44.8 38.6004 44.8 39.3004C44.1 39.6004 43.4 39.9004 42.6 40.3004C42.4 37.9004 41.8 35.3004 40.5 32.8004C36.9 25.4004 33.2001 22.0004 31.7001 20.9004C33.1 20.5004 34.5 20.3004 36 20.3004C38.7001 20.3004 41.3 21.0004 43.5 22.2004C48.7001 26.3004 47 31.4004 45.3 36.8004ZM30.8 21.0004C31.6 21.6004 35.8 24.7004 39.8 32.9004C41 35.4004 41.6 38.0004 41.8 40.4004C41.6 40.5004 41.4001 40.5004 41.2001 40.6004C40.2001 40.9004 39.2001 41.2004 38.2001 41.4004C37.9001 38.4004 35.6 37.4004 32.8 36.4004C29.3 35.0004 25 33.3004 23.4 26.2004C25.3 23.9004 27.9 22.0004 30.8 21.0004ZM22.9 27.0004C24.6 34.0004 29 35.7004 32.6 37.1004C35.2 38.1004 37.3 39.0004 37.5 41.6004C28.3 43.5004 21.7 40.5004 20.6 39.9004C20.3001 38.6004 20.1 37.3004 20.1 36.0004C20.1 32.7004 21.1 29.6004 22.9 27.0004ZM31.5 43.0004C33.3 43.0004 35.3 42.8004 37.5 42.4004C37.3 48.0004 30.3001 50.1004 29.2001 50.4004C25.3001 48.5004 22.3 45.1004 20.9 40.9004C22.4 41.6004 26.3 43.0004 31.5 43.0004ZM38.3 42.2004C39.3 42.0004 40.4 41.7004 41.5 41.3004C41.6 41.3004 41.8 41.2004 42 41.1004C42.3 46.2004 40.9 50.3004 40.6 51.2004C39.2 51.6004 37.7001 51.8004 36.2001 51.8004C34.1 51.8004 32.2 51.4004 30.4 50.7004C32.6 50.0004 38.2 47.6004 38.3 42.2004ZM42.6 40.9004C43.4 40.6004 44.1 40.3004 44.8 40.0004C44.9 40.6004 45 41.2004 45.3 41.7004C46.3 43.6004 48.2 44.6004 49.1 45.0004C47.2 47.7004 44.5 49.8004 41.3 51.0004C41.9 49.4004 42.9 45.6004 42.6 40.9004Z" fill="#503D1C"/>
<path d="M45.2999 36.7998L45.2 37.1998C45 37.8998 44.7999 38.5998 44.7999 39.2998C44.0999 39.5998 43.3999 39.8998 42.5999 40.2998C42.3999 37.8998 41.8 35.2998 40.5 32.7998C36.9 25.3998 33.2 21.9998 31.7 20.8998C33.1 20.4998 34.5 20.2998 36 20.2998C38.7 20.2998 41.3 20.9998 43.5 22.1998C48.7 26.2998 46.9999 31.3998 45.2999 36.7998Z" fill="#A58346"/>
<path d="M51.0001 34.1998C50.4001 35.3998 48.9001 37.0998 45.6001 38.7998C45.6001 38.2998 45.7001 37.7998 45.9001 37.2998L46.0001 36.9998C47.5001 32.2998 49.0001 27.8998 46.2001 23.7998C48.7001 25.8998 50.5001 28.7998 51.4001 31.9998C51.4001 32.4998 51.4001 33.1998 51.0001 34.1998Z" fill="#A58346"/>
<path d="M51.9 36.0002C51.9 39.1002 51 41.9002 49.5 44.4002C48.8 44.1002 46.9 43.2002 46 41.4002C45.7 40.9002 45.6 40.3002 45.5 39.7002C49.3 37.8002 50.9 35.9002 51.6 34.5002C51.7 34.4002 51.7 34.3002 51.7 34.2002C51.9 34.8002 51.9 35.4002 51.9 36.0002Z" fill="#A58346"/>
<path d="M49.1 45C47.2 47.7 44.5 49.8 41.3 51C41.8 49.4 42.9 45.6 42.5 40.9C43.3 40.6 44.0001 40.3 44.7001 40C44.8001 40.6 44.9001 41.2 45.2001 41.7C46.3001 43.6 48.2 44.6 49.1 45Z" fill="#A58346"/>
<path d="M40.5 51.2996C39.1 51.6996 37.6 51.8996 36.1 51.8996C34 51.8996 32.1 51.4996 30.3 50.7996C32.7 49.9996 38.3001 47.5996 38.4001 42.1996C39.4001 41.9996 40.5 41.6996 41.6 41.2996C41.7 41.2996 41.9 41.1996 42.1 41.0996C42.2 46.2996 40.8 50.3996 40.5 51.2996Z" fill="#A58346"/>
<path d="M37.4999 42.4004C37.2999 48.0004 30.2999 50.1004 29.1999 50.4004C25.2999 48.5004 22.2999 45.1004 20.8999 40.9004C22.4999 41.6004 26.2999 43.0004 31.4999 43.0004C33.2999 43.0004 35.2999 42.8004 37.4999 42.4004Z" fill="#A58346"/>
<path d="M37.5001 41.6C28.3001 43.5 21.7001 40.5 20.6001 39.9C20.3001 38.6 20.1001 37.3 20.1001 36C20.1001 32.7 21.1001 29.6 22.9001 27C24.6001 34 29.0001 35.7 32.6001 37.1C35.2001 38.1 37.2001 39 37.5001 41.6Z" fill="#A58346"/>
<path d="M41.7999 40.4C41.5999 40.5 41.3999 40.5 41.1999 40.6C40.1999 40.9 39.1999 41.2 38.1999 41.4C37.8999 38.4 35.5999 37.4 32.7999 36.4C29.2999 35 24.9999 33.3 23.3999 26.2C25.2999 23.8 27.7999 22 30.6999 21C31.4999 21.6 35.6999 24.7 39.6999 32.9C40.9999 35.5 41.5999 38 41.7999 40.4Z" fill="#A58346"/>
</svg>
