<svg width="72" height="72" viewBox="0 0 72 72" fill="none" xmlns="http://www.w3.org/2000/svg">
<path d="M37.273 57.541C45.893 50.915 47.56 49.296 56.2463 47.7975C64.9326 46.299 68.591 34.5936 54.9905 29.2873C49.3285 27.0782 43.6804 24.2777 39.0932 20.1993C37.5348 18.8435 36.1481 17.3021 34.9641 15.6095C33.7998 13.9047 33.2392 11.2168 31.1232 10.5395C25.328 8.68446 18.0002 13.1289 14.2323 17.1896C8.01229 23.8929 7.03097 33.399 8.75851 42.0847C14.5848 71.3782 33.6726 60.3085 37.273 57.541Z" fill="#E6E6E6"/>
<path d="M60.5049 21.5576H36.5068C34.864 21.5576 33.5322 22.8894 33.5322 24.5322V60.652C33.5322 62.2948 34.864 63.6266 36.5068 63.6266H60.5049C62.1477 63.6266 63.4795 62.2948 63.4795 60.652V24.5322C63.4795 22.8894 62.1477 21.5576 60.5049 21.5576Z" fill="#D1D1D1"/>
<path d="M60.5117 64.0003H36.5004C35.6131 63.9973 34.7632 63.6425 34.1371 63.0137C33.511 62.3849 33.1598 61.5334 33.1606 60.6461V24.5387C33.1598 23.6514 33.511 22.7999 34.1371 22.1711C34.7632 21.5424 35.6131 21.1876 36.5004 21.1846H60.5117C61.399 21.1876 62.2489 21.5424 62.875 22.1711C63.5011 22.7999 63.8523 23.6514 63.8515 24.5387V60.6461C63.8523 61.5334 63.5011 62.3849 62.875 63.0137C62.2489 63.6425 61.399 63.9973 60.5117 64.0003ZM36.5004 21.9313C35.8106 21.9335 35.1498 22.2093 34.6631 22.6981C34.1763 23.187 33.9033 23.8489 33.904 24.5388V60.6461C33.9033 61.3359 34.1763 61.9979 34.6631 62.4867C35.1498 62.9755 35.8106 63.2513 36.5004 63.2536H60.5117C61.2015 63.2513 61.8623 62.9755 62.349 62.4867C62.8358 61.9979 63.1088 61.3359 63.1081 60.6461V24.5387C63.1088 23.8489 62.8358 23.1869 62.349 22.6981C61.8623 22.2093 61.2015 21.9335 60.5117 21.9312L36.5004 21.9313Z" fill="#8C8C8C"/>
<path d="M54.2616 39.7446C53.097 37.7706 51.8031 35.8758 50.3886 34.0725C49.7162 33.1498 49.1783 32.417 48.9631 32.1185C48.8287 31.9014 48.6135 31.5757 48.6135 31.5757C48.5995 31.5568 48.5813 31.5414 48.5603 31.5308C48.5392 31.5202 48.516 31.5146 48.4925 31.5146C48.4689 31.5146 48.4457 31.5202 48.4247 31.5308C48.4037 31.5414 48.3854 31.5568 48.3714 31.5757C48.3714 31.5757 48.1563 31.9014 48.0218 32.1185C47.8335 32.4442 47.2956 33.1498 46.5963 34.0725C45.2075 35.8885 43.9234 37.7823 42.7503 39.7446C42.4725 40.2914 42.3252 40.8952 42.32 41.5086C42.3155 41.6538 42.3245 41.7992 42.3469 41.9428C42.4038 42.6025 42.7009 43.2184 43.1818 43.6736C43.6627 44.1288 44.2939 44.3917 44.9557 44.4125C45.4809 44.4075 45.9977 44.2798 46.4647 44.0395C46.9317 43.7991 47.336 43.4529 47.6453 43.0284C47.4648 44.4093 46.8421 45.6947 45.8702 46.6921C45.8433 46.7193 45.8164 46.8007 45.8433 46.8278C45.8702 46.855 45.9239 46.9093 45.9777 46.9093H51.061C51.0888 46.9097 51.1162 46.9023 51.14 46.8879C51.1638 46.8735 51.183 46.8527 51.1955 46.8278C51.2056 46.8052 51.2084 46.78 51.2036 46.7557C51.1987 46.7314 51.1865 46.7092 51.1686 46.6921C50.1816 45.7054 49.5562 44.4145 49.3935 43.0284C49.7028 43.4529 50.1071 43.7991 50.5741 44.0395C51.0411 44.2798 51.5579 44.4075 52.0831 44.4125C52.7463 44.3961 53.3799 44.1346 53.8617 43.6785C54.3434 43.2225 54.6392 42.6041 54.6919 41.9428V41.4814C54.6997 40.8752 54.5515 40.2771 54.2616 39.7446Z" fill="#424242"/>
<path d="M51.0608 47.1586H45.9778C45.9187 47.1547 45.8609 47.1392 45.8078 47.1128C45.7547 47.0864 45.7074 47.0498 45.6686 47.005C45.6106 46.9351 45.5812 46.8459 45.5861 46.7553C45.5911 46.6646 45.63 46.5792 45.6952 46.516C46.4289 45.7652 46.9575 44.8385 47.2303 43.8248C46.5924 44.3595 45.788 44.6552 44.9557 44.661C44.2326 44.6411 43.542 44.3559 43.0155 43.8599C42.489 43.3638 42.1632 42.6915 42.1003 41.9708C42.0769 41.8181 42.0675 41.6635 42.0723 41.509C42.0766 40.8569 42.2328 40.2148 42.5286 39.6336C43.5178 37.9365 44.6126 36.3032 45.8065 34.7433L46.5015 33.7867C47.136 32.9505 47.6369 32.2894 47.8077 31.9929C47.9471 31.7673 48.1654 31.4378 48.1654 31.4378C48.2039 31.3875 48.2535 31.3468 48.3103 31.3188C48.3671 31.2908 48.4297 31.2763 48.493 31.2764C48.5564 31.2765 48.6188 31.2912 48.6756 31.3193C48.7323 31.3475 48.7818 31.3884 48.8202 31.4388C48.8202 31.4388 49.0379 31.7674 49.1739 31.9871C49.2848 32.1397 49.5069 32.444 49.7978 32.8417L50.5885 33.9257C52.0107 35.7382 53.311 37.6431 54.481 39.6277C54.789 40.1967 54.9469 40.8348 54.9398 41.4817V41.9426C54.8822 42.6681 54.5588 43.3468 54.0316 43.8485C53.5043 44.3501 52.8104 44.6395 52.083 44.6609C51.2428 44.6551 50.4315 44.354 49.791 43.8102C50.0592 44.8341 50.5955 45.7681 51.3445 46.5159C51.399 46.5702 51.4353 46.64 51.4483 46.7158C51.4613 46.7916 51.4504 46.8696 51.4171 46.9389C51.3845 47.0053 51.3337 47.0612 51.2707 47.1001C51.2076 47.139 51.1349 47.1593 51.0608 47.1586ZM46.2415 46.6608H50.7965C49.8801 45.6641 49.3027 44.4028 49.1472 43.0577L49.0402 42.138L49.5919 42.8798C49.8792 43.2722 50.2538 43.5925 50.6862 43.8152C51.1185 44.0379 51.5967 44.157 52.083 44.1632C52.6861 44.1498 53.2625 43.9119 53.6995 43.496C54.1365 43.0801 54.4026 42.5161 54.4457 41.9144L54.4442 41.4818C54.452 40.919 54.3152 40.3636 54.0469 39.8689L54.0391 39.8533C52.8729 37.8991 51.5875 36.0185 50.1902 34.2222L49.398 33.1362C49.1066 32.7376 48.8835 32.4323 48.7625 32.2641C48.6774 32.128 48.5675 31.9579 48.4925 31.8431C48.4185 31.9569 48.3115 32.1221 48.2326 32.2495C48.0497 32.5664 47.5657 33.2042 46.8959 34.088L46.2078 35.0359C45.0333 36.575 43.9531 38.1837 42.973 39.8533C42.7112 40.3662 42.5725 40.9331 42.5679 41.5089C42.5639 41.6377 42.5712 41.7665 42.5897 41.8939C42.6361 42.4969 42.9031 43.0616 43.3396 43.4802C43.776 43.8988 44.3514 44.1419 44.9557 44.1631C45.442 44.1571 45.9203 44.038 46.3526 43.8152C46.7849 43.5925 47.1595 43.2722 47.4467 42.8798L48.0207 42.1069L47.8905 43.0626C47.7131 44.3999 47.1387 45.6533 46.2415 46.6608ZM46.0257 46.6608H46.0267L46.0185 46.6521L46.0257 46.6608Z" fill="#181818"/>
<path d="M56.7282 58.0585C57.1566 58.7846 57.6326 59.4817 58.1529 60.1451C58.4003 60.4845 58.5981 60.7541 58.6773 60.8639C58.7268 60.9437 58.8059 61.0635 58.8059 61.0635C58.8111 61.0705 58.8178 61.0761 58.8255 61.08C58.8332 61.0839 58.8418 61.086 58.8504 61.086C58.8591 61.086 58.8676 61.0839 58.8753 61.08C58.8831 61.0761 58.8898 61.0705 58.8949 61.0635C58.8949 61.0635 58.9741 60.9437 59.0235 60.8639C59.0928 60.7441 59.2907 60.4845 59.5479 60.1451C60.0588 59.477 60.5312 58.7804 60.9627 58.0585C61.0649 57.8573 61.1191 57.6352 61.121 57.4096C61.1227 57.3561 61.1194 57.3027 61.1111 57.2498C61.0902 57.0072 60.9809 56.7806 60.804 56.6132C60.6271 56.4457 60.3949 56.349 60.1514 56.3413C59.9582 56.3432 59.7681 56.3901 59.5963 56.4785C59.4245 56.567 59.2758 56.6943 59.1621 56.8505C59.2284 56.3425 59.4575 55.8697 59.8151 55.5027C59.825 55.4927 59.8348 55.4628 59.825 55.4528C59.8151 55.4428 59.7953 55.4229 59.7755 55.4229H57.9056C57.8954 55.4227 57.8853 55.4254 57.8766 55.4307C57.8678 55.436 57.8607 55.4437 57.8561 55.4528C57.8524 55.4611 57.8514 55.4704 57.8532 55.4793C57.8549 55.4883 57.8594 55.4964 57.866 55.5027C58.2291 55.8657 58.4592 56.3406 58.519 56.8505C58.4053 56.6943 58.2565 56.567 58.0847 56.4785C57.9129 56.3901 57.7228 56.3432 57.5296 56.3413C57.2857 56.3474 57.0526 56.4436 56.8754 56.6113C56.6981 56.7791 56.5893 57.0066 56.5699 57.2498V57.4196C56.5671 57.6426 56.6216 57.8626 56.7282 58.0585Z" fill="#424242"/>
<path d="M35.4932 8.37305H11.4951C9.85229 8.37305 8.52051 9.70483 8.52051 11.3477V47.4674C8.52051 49.1103 9.85229 50.442 11.4951 50.442H35.4932C37.136 50.442 38.4678 49.1103 38.4678 47.4674V11.3477C38.4678 9.70483 37.136 8.37305 35.4932 8.37305Z" fill="white"/>
<path d="M35.4997 50.8157H11.4885C10.6011 50.8127 9.75121 50.4579 9.12511 49.8291C8.49901 49.2003 8.14786 48.3489 8.14868 47.4615V11.3542C8.14786 10.4668 8.49901 9.61538 9.12511 8.98658C9.75121 8.35779 10.6011 8.00299 11.4885 8H35.4997C36.387 8.00299 37.237 8.35779 37.8631 8.98658C38.4892 9.61538 38.8403 10.4668 38.8395 11.3542V47.4615C38.8403 48.3489 38.4892 49.2003 37.8631 49.8291C37.237 50.4579 36.387 50.8127 35.4997 50.8157ZM11.4885 8.74667C10.7986 8.74892 10.1379 9.02471 9.6511 9.51354C9.16434 10.0024 8.89136 10.6643 8.89204 11.3542V47.4615C8.89136 48.1514 9.16434 48.8133 9.6511 49.3022C10.1379 49.791 10.7986 50.0668 11.4885 50.069H35.4997C36.1895 50.0668 36.8503 49.791 37.3371 49.3022C37.8238 48.8133 38.0968 48.1514 38.0961 47.4615V11.3542C38.0968 10.6643 37.8238 10.0024 37.3371 9.51354C36.8503 9.02471 36.1895 8.74892 35.4997 8.74667H11.4885Z" fill="#D1D1D1"/>
<path d="M26.9525 26.7597C26.6841 26.7557 26.4166 26.7929 26.1596 26.8701C26.4446 26.4118 26.6136 25.891 26.6517 25.3527C26.6517 25.2423 26.679 25.1595 26.679 25.0492C26.7011 24.619 26.6354 24.1889 26.4859 23.7849C26.3365 23.3809 26.1065 23.0116 25.8098 22.6993C25.5131 22.387 25.156 22.1384 24.7602 21.9685C24.3644 21.7986 23.9382 21.7109 23.5074 21.7109C23.0767 21.7109 22.6505 21.7986 22.2547 21.9685C21.8589 22.1384 21.5018 22.387 21.2051 22.6993C20.9084 23.0116 20.6784 23.3809 20.529 23.7849C20.3795 24.1889 20.3138 24.619 20.3359 25.0492C20.3313 25.1877 20.3405 25.3263 20.3632 25.463C20.4146 25.9641 20.5832 26.4461 20.8553 26.87C20.5959 26.8044 20.33 26.7674 20.0624 26.7597C19.2067 26.8035 18.4004 27.1744 17.8102 27.7956C17.22 28.4168 16.8909 29.241 16.8909 30.0979C16.8909 30.9548 17.22 31.779 17.8102 32.4003C18.4004 33.0215 19.2067 33.3923 20.0624 33.4362C20.1997 33.4407 20.3371 33.4315 20.4726 33.4086C20.9815 33.337 21.4648 33.1409 21.8798 32.8377C22.2947 32.5345 22.6284 32.1336 22.8513 31.6705C22.8237 33.5851 22.1273 35.4297 20.8827 36.8848C20.8553 36.9124 20.828 36.9952 20.8553 37.0228C20.868 37.048 20.8876 37.0692 20.9118 37.0838C20.936 37.0985 20.9638 37.106 20.992 37.1055H26.0775C26.1058 37.106 26.1336 37.0985 26.1578 37.0838C26.182 37.0692 26.2016 37.048 26.2142 37.0228C26.2245 36.9998 26.2273 36.9741 26.2224 36.9495C26.2175 36.9248 26.2051 36.9022 26.1869 36.8848C24.9252 35.4335 24.2012 33.5924 24.1363 31.6705C24.386 32.1682 24.7628 32.5911 25.2286 32.8963C25.6943 33.2015 26.2324 33.3782 26.7884 33.4086H26.9251C27.7883 33.3864 28.6074 33.0223 29.2022 32.3963C29.797 31.7703 30.1187 30.9336 30.0967 30.0704C30.1102 29.6459 30.0393 29.223 29.8882 28.8261C29.737 28.4292 29.5086 28.0663 29.2161 27.7583C28.9236 27.4504 28.5729 27.2035 28.1844 27.0321C27.7958 26.8607 27.3771 26.7681 26.9525 26.7597Z" fill="#424242"/>
<path d="M26.0778 37.3548H20.9919C20.9228 37.3553 20.8548 37.3377 20.7946 37.3037C20.7344 37.2698 20.6841 37.2207 20.6488 37.1613C20.6073 37.09 20.5906 37.007 20.6012 36.9253C20.6118 36.8435 20.6491 36.7676 20.7073 36.7092C21.7071 35.5369 22.3436 34.0987 22.5391 32.5704C22.0121 33.1629 21.2907 33.5477 20.505 33.6554C20.359 33.6806 20.2108 33.6907 20.0627 33.6856C19.141 33.6414 18.2716 33.2441 17.6349 32.5762C16.9982 31.9082 16.6431 31.0209 16.6431 30.0981C16.6431 29.1753 16.9982 28.2879 17.6349 27.62C18.2716 26.952 19.141 26.5548 20.0627 26.5106C20.1726 26.5108 20.2823 26.5179 20.3913 26.532C20.2481 26.2006 20.1556 25.8496 20.1169 25.4907C20.093 25.3449 20.0834 25.197 20.0884 25.0493C20.0661 24.5865 20.1381 24.124 20.2999 23.6898C20.4617 23.2556 20.7099 22.8587 21.0296 22.5233C21.3493 22.1879 21.7338 21.9209 22.1597 21.7384C22.5856 21.556 23.0442 21.4619 23.5075 21.4619C23.9709 21.4619 24.4294 21.556 24.8554 21.7384C25.2813 21.9209 25.6658 22.1879 25.9854 22.5233C26.3051 22.8587 26.5534 23.2556 26.7152 23.6898C26.877 24.124 26.9489 24.5865 26.9267 25.0493C26.9258 25.1119 26.9204 25.1742 26.9107 25.236C26.9041 25.2746 26.9004 25.3135 26.8996 25.3527C26.8772 25.7584 26.7802 26.1565 26.6136 26.5271C26.7261 26.5155 26.8392 26.51 26.9523 26.5106C27.3967 26.5109 27.8365 26.6006 28.2456 26.7743C28.6546 26.948 29.0246 27.2022 29.3334 27.5217C29.8138 28.022 30.1407 28.6495 30.2755 29.3298C30.4103 30.0102 30.3472 30.7149 30.0938 31.3606C29.8404 32.0062 29.4073 32.5657 28.8457 32.9727C28.2841 33.3798 27.6177 33.6174 26.9252 33.6574H26.7762C25.8963 33.6101 25.0693 33.2224 24.4701 32.5763C24.6896 34.1129 25.3505 35.5527 26.3726 36.7209C26.4242 36.7747 26.4581 36.8431 26.4696 36.9168C26.4811 36.9906 26.4697 37.0661 26.4369 37.1331C26.4037 37.1998 26.3524 37.2559 26.289 37.2951C26.2255 37.3343 26.1524 37.3549 26.0778 37.3548ZM26.0014 37.0495L26.013 37.0631L26.0014 37.0495ZM21.0805 37.0359L21.0703 37.0475L21.0805 37.0359ZM21.229 36.857H25.8383C24.637 35.3928 23.9517 33.5737 23.8884 31.6809L23.841 30.5434L24.3569 31.5564C24.5874 32.0147 24.9347 32.4042 25.3636 32.6857C25.7926 32.9671 26.2882 33.1306 26.8004 33.1596H26.9253C27.722 33.1362 28.4771 32.798 29.0251 32.2191C29.5731 31.6402 29.8693 30.8677 29.8489 30.0708C29.8581 29.6648 29.7859 29.2611 29.6367 28.8834C29.4875 28.5058 29.2643 28.1617 28.9802 27.8716C28.7173 27.5991 28.4024 27.3822 28.054 27.2339C27.7056 27.0856 27.331 27.0089 26.9524 27.0083C26.7083 27.0043 26.465 27.0381 26.2313 27.1084L25.6278 27.2912L25.9458 26.7448C26.2118 26.3214 26.3694 25.8388 26.4046 25.34C26.4056 25.2817 26.4108 25.2235 26.42 25.166C26.4267 25.1274 26.4304 25.0884 26.4312 25.0493C26.4532 24.6518 26.3938 24.2539 26.2568 23.8801C26.1198 23.5063 25.908 23.1643 25.6344 22.8752C25.3608 22.586 25.031 22.3556 24.6653 22.1982C24.2997 22.0408 23.9057 21.9596 23.5076 21.9596C23.1094 21.9596 22.7155 22.0408 22.3498 22.1982C21.9841 22.3556 21.6544 22.586 21.3807 22.8752C21.1071 23.1643 20.8953 23.5063 20.7583 23.8801C20.6213 24.2539 20.562 24.6518 20.584 25.0493C20.5796 25.1716 20.587 25.294 20.6062 25.4148C20.6519 25.8841 20.8082 26.3359 21.0621 26.7332L21.4028 27.2485L20.8013 27.1133C20.5596 27.0517 20.312 27.0165 20.0627 27.0083C19.2727 27.0519 18.5294 27.3964 17.9856 27.971C17.4417 28.5457 17.1386 29.3068 17.1386 30.0981C17.1386 30.8893 17.4417 31.6504 17.9856 32.2251C18.5294 32.7997 19.2727 33.1442 20.0627 33.1878C20.1832 33.1922 20.3039 33.1843 20.4228 33.1644C20.8943 33.0992 21.3425 32.9185 21.7274 32.6385C22.1124 32.3585 22.4223 31.9878 22.6297 31.5593L23.1146 30.5803L23.0991 31.6741C23.0721 33.5621 22.4137 35.3867 21.229 36.857Z" fill="#181818"/>
<path d="M14.8662 13.0623C14.7675 13.0608 14.6691 13.0745 14.5745 13.1029C14.6794 12.9344 14.7416 12.7428 14.7556 12.5447C14.7556 12.5041 14.7656 12.4737 14.7656 12.4331C14.7737 12.2748 14.7495 12.1166 14.6945 11.968C14.6396 11.8194 14.5549 11.6835 14.4458 11.5687C14.3367 11.4538 14.2053 11.3623 14.0597 11.2998C13.9141 11.2373 13.7573 11.2051 13.5989 11.2051C13.4404 11.2051 13.2836 11.2373 13.138 11.2998C12.9924 11.3623 12.8611 11.4538 12.7519 11.5687C12.6428 11.6835 12.5582 11.8194 12.5032 11.968C12.4482 12.1166 12.4241 12.2748 12.4322 12.4331C12.4305 12.484 12.4338 12.535 12.4422 12.5853C12.4611 12.7697 12.5231 12.947 12.6232 13.1029C12.5278 13.0788 12.4299 13.0652 12.3315 13.0623C12.0167 13.0784 11.7201 13.2149 11.503 13.4434C11.2859 13.6719 11.1648 13.9751 11.1648 14.2903C11.1648 14.6056 11.2859 14.9088 11.503 15.1373C11.7201 15.3658 12.0167 15.5023 12.3315 15.5184C12.382 15.5201 12.4326 15.5167 12.4824 15.5082C12.6696 15.4819 12.8474 15.4097 13 15.2982C13.1527 15.1867 13.2754 15.0392 13.3574 14.8688C13.3473 15.5731 13.0911 16.2517 12.6332 16.787C12.6232 16.7971 12.6131 16.8276 12.6232 16.8377C12.6279 16.847 12.6351 16.8548 12.644 16.8602C12.6529 16.8656 12.6631 16.8684 12.6735 16.8682H14.5443C14.5547 16.8684 14.5649 16.8656 14.5738 16.8602C14.5827 16.8548 14.5899 16.847 14.5946 16.8377C14.5983 16.8293 14.5994 16.8199 14.5976 16.8108C14.5958 16.8017 14.5912 16.7934 14.5845 16.787C14.1204 16.2531 13.854 15.5758 13.8302 14.8688C13.922 15.0519 14.0607 15.2075 14.232 15.3198C14.4033 15.432 14.6013 15.4971 14.8058 15.5082H14.8561C15.1736 15.5001 15.475 15.3661 15.6938 15.1358C15.9126 14.9055 16.031 14.5977 16.0229 14.2802C16.0278 14.124 16.0017 13.9684 15.9461 13.8224C15.8905 13.6764 15.8065 13.5429 15.6989 13.4297C15.5913 13.3164 15.4623 13.2256 15.3194 13.1625C15.1764 13.0995 15.0224 13.0654 14.8662 13.0623Z" fill="#424242"/>
</svg>
