<svg width="72" height="72" viewBox="0 0 72 72" fill="none" xmlns="http://www.w3.org/2000/svg">
<path d="M66.7512 60.9971H5.02246V61.4995H66.7512V60.9971Z" fill="#D1D1D1"/>
<path d="M35.2139 18.5618C35.2252 18.3048 35.2934 18.0535 35.4135 17.8261C35.5337 17.5986 35.7029 17.4007 35.9088 17.2466C36.1147 17.0924 36.3523 16.9859 36.6044 16.9347C36.8564 16.8834 37.1167 16.8888 37.3665 16.9504C37.2729 15.976 38.3336 15.6762 38.3336 15.6762C37.3041 13.3153 39.0199 12.4534 39.0199 12.4534C39.8623 9.34302 42.3269 10.8795 42.3269 10.8795C45.8521 9.90513 46.9753 13.6901 46.9753 13.6901C47.2142 13.4471 47.505 13.2612 47.8259 13.1462C48.1468 13.0313 48.4894 12.9904 48.8284 13.0264C49.1673 13.0624 49.4937 13.1745 49.7832 13.3543C50.0728 13.5341 50.318 13.777 50.5005 14.0648C50.8601 14.1276 51.1978 14.2809 51.4816 14.5104C51.7655 14.7399 51.9861 15.038 52.1228 15.3764C54.7434 14.9267 55.1801 17.7373 55.1801 17.7373C55.4946 17.594 55.8501 17.5681 56.1821 17.6644C56.514 17.7606 56.8005 17.9726 56.9896 18.262C58.0503 17.55 59.3294 18.262 59.0486 19.9483C58.7678 21.6347 56.8336 20.8102 56.8336 20.8102C56.1387 21.1861 55.3672 21.3984 54.5778 21.4309C53.7885 21.4633 53.0021 21.3152 52.2788 20.9976C51.9476 21.1574 51.5804 21.2276 51.2137 21.2013C50.8469 21.175 50.4935 21.0531 50.1886 20.8477C47.3808 23.1711 42.7636 21.185 42.7636 21.185C42.099 21.5918 41.3323 21.8008 40.5532 21.7875C39.7742 21.7742 39.015 21.5392 38.3647 21.11C38.0894 21.3117 37.7664 21.4385 37.4273 21.478C37.0883 21.5174 36.7448 21.4681 36.4305 21.3348C33.0924 22.5715 32.1877 20.7352 32.1877 20.7352C32.1877 20.7352 30.347 21.747 29.7543 20.4354C29.1615 19.1238 30.1911 18.1495 31.8133 18.5617C32.2737 18.2281 32.8375 18.0687 33.4044 18.112C34.0318 18.1375 34.6475 18.2905 35.2139 18.5618Z" fill="#E6E6E6"/>
<path d="M17.4454 61.0152C24.1813 61.0152 29.6418 55.5249 29.6418 48.7522C29.6418 41.9796 24.1813 36.4893 17.4454 36.4893C10.7095 36.4893 5.24902 41.9796 5.24902 48.7522C5.24902 55.5249 10.7095 61.0152 17.4454 61.0152Z" fill="#424242"/>
<path d="M17.4454 61.266C14.9673 61.2796 12.541 60.5573 10.4739 59.1905C8.40687 57.8238 6.79212 55.8741 5.83434 53.5886C4.87656 51.3031 4.61887 48.7847 5.09395 46.3526C5.56902 43.9205 6.75546 41.6842 8.50289 39.9271C10.2503 38.17 12.4801 36.9713 14.9095 36.4828C17.339 35.9944 19.8588 36.2382 22.1495 37.1834C24.4402 38.1286 26.3988 39.7326 27.7769 41.7921C29.155 43.8516 29.8907 46.2739 29.8907 48.752C29.896 52.0606 28.5887 55.2363 26.2556 57.5823C23.9224 59.9283 20.754 61.2531 17.4454 61.266ZM17.4454 36.74C15.0669 36.7272 12.7382 37.4208 10.7544 38.7329C8.77062 40.045 7.221 41.9166 6.30195 44.1103C5.38291 46.304 5.13582 48.7212 5.59199 51.0555C6.04817 53.3898 7.18707 55.5362 8.86437 57.2225C10.5417 58.9089 12.6818 60.0593 15.0137 60.5281C17.3455 60.9968 19.764 60.7627 21.9626 59.8555C24.1613 58.9483 26.0411 57.4088 27.3639 55.4321C28.6866 53.4553 29.3928 51.1304 29.3929 48.752C29.3977 45.5759 28.1426 42.5275 25.9028 40.2756C23.663 38.0237 20.6214 36.7522 17.4454 36.74V36.74Z" fill="#181818"/>
<path d="M17.4454 59.514C23.3565 59.514 28.1484 54.696 28.1484 48.7526C28.1484 42.8093 23.3565 37.9912 17.4454 37.9912C11.5343 37.9912 6.74243 42.8093 6.74243 48.7526C6.74243 54.696 11.5343 59.514 17.4454 59.514Z" fill="#E6E6E6"/>
<path d="M17.4453 59.7649C15.2645 59.777 13.1293 59.1413 11.3102 57.9386C9.49116 56.7358 8.07012 55.0201 7.22723 53.0088C6.38434 50.9975 6.15754 48.7813 6.57559 46.641C6.99365 44.5007 8.03772 42.5327 9.57549 40.9864C11.1132 39.4401 13.0755 38.3852 15.2134 37.9553C17.3514 37.5255 19.5689 37.74 21.5848 38.5718C23.6006 39.4036 25.3242 40.8151 26.537 42.6276C27.7498 44.44 28.3972 46.5716 28.3971 48.7524C28.4018 51.664 27.2514 54.4587 25.1983 56.5232C23.1451 58.5877 20.3569 59.7535 17.4453 59.7649ZM17.4453 38.2419C15.3641 38.2307 13.3265 38.8376 11.5907 39.9857C9.8549 41.1338 8.49898 42.7714 7.69483 44.6909C6.89067 46.6104 6.67446 48.7255 7.07362 50.768C7.47277 52.8105 8.46931 54.6885 9.93694 56.1641C11.4046 57.6396 13.2772 58.6463 15.3176 59.0564C17.3579 59.4666 19.4741 59.2617 21.3979 58.4679C23.3217 57.6741 24.9665 56.3271 26.124 54.5974C27.2814 52.8678 27.8993 50.8335 27.8993 48.7524C27.9036 45.9733 26.8053 43.306 24.8455 41.3356C22.8857 39.3652 20.2243 38.2526 17.4453 38.2419V38.2419Z" fill="#181818"/>
<path d="M17.4454 58.0118C22.5317 58.0118 26.6549 53.866 26.6549 48.752C26.6549 43.6379 22.5317 39.4922 17.4454 39.4922C12.3591 39.4922 8.23584 43.6379 8.23584 48.752C8.23584 53.866 12.3591 58.0118 17.4454 58.0118Z" fill="white"/>
<path d="M17.4453 58.1381C15.5869 58.1483 13.7672 57.6065 12.217 56.5814C10.6668 55.5563 9.45586 54.0941 8.73759 52.38C8.01932 50.666 7.8261 48.7773 8.18242 46.9533C8.53873 45.1293 9.42854 43.4521 10.7391 42.1344C12.0496 40.8166 13.7218 39.9176 15.5439 39.5513C17.3659 39.185 19.2556 39.3678 20.9736 40.0767C22.6916 40.7855 24.1604 41.9885 25.194 43.533C26.2276 45.0776 26.7793 46.8942 26.7793 48.7527C26.7833 51.2342 25.8029 53.616 24.053 55.3755C22.3032 57.1349 19.9268 58.1285 17.4453 58.1381ZM17.4453 39.6186C15.6367 39.6088 13.8658 40.1363 12.3573 41.134C10.8487 42.1318 9.67026 43.5549 8.97137 45.2231C8.27247 46.8913 8.08456 48.7294 8.43144 50.5045C8.77832 52.2796 9.64439 53.9118 10.9199 55.1942C12.1954 56.4765 13.8228 57.3514 15.596 57.7078C17.3693 58.0643 19.2084 57.8863 20.8803 57.1964C22.5522 56.5065 23.9817 55.3357 24.9876 53.8325C25.9934 52.3293 26.5304 50.5614 26.5304 48.7527C26.5342 46.3375 25.5798 44.0195 23.8766 42.3071C22.1734 40.5947 19.8605 39.6278 17.4453 39.6186Z" fill="#B1B1B1"/>
<path d="M54.5548 61.0152C61.2907 61.0152 66.7512 55.5249 66.7512 48.7522C66.7512 41.9796 61.2907 36.4893 54.5548 36.4893C47.8189 36.4893 42.3584 41.9796 42.3584 48.7522C42.3584 55.5249 47.8189 61.0152 54.5548 61.0152Z" fill="#424242"/>
<path d="M54.5547 61.266C52.0767 61.2796 49.6504 60.5573 47.5833 59.1905C45.5162 57.8238 43.9015 55.8741 42.9437 53.5886C41.9859 51.3031 41.7282 48.7847 42.2033 46.3526C42.6784 43.9205 43.8648 41.6842 45.6123 39.9271C47.3597 38.17 49.5895 36.9713 52.0189 36.4828C54.4484 35.9944 56.9682 36.2382 59.2589 37.1834C61.5496 38.1286 63.5082 39.7326 64.8863 41.7921C66.2644 43.8516 67.0001 46.2739 67 48.752C67.0054 52.0606 65.698 55.2363 63.3649 57.5823C61.0318 59.9283 57.8634 61.2531 54.5547 61.266ZM54.5547 36.74C52.1763 36.7272 49.8476 37.4208 47.8638 38.7329C45.88 40.045 44.3304 41.9166 43.4113 44.1103C42.4923 46.304 42.2452 48.7212 42.7014 51.0555C43.1575 53.3898 44.2964 55.5362 45.9737 57.2225C47.651 58.9089 49.7912 60.0593 52.123 60.5281C54.4549 60.9968 56.8734 60.7627 59.072 59.8555C61.2707 58.9483 63.1505 57.4088 64.4733 55.4321C65.796 53.4553 66.5022 51.1304 66.5022 48.752C66.5071 45.5758 65.252 42.5275 63.0122 40.2756C60.7724 38.0237 57.7308 36.7522 54.5547 36.74V36.74Z" fill="#181818"/>
<path d="M54.5548 59.514C60.4659 59.514 65.2577 54.696 65.2577 48.7526C65.2577 42.8093 60.4659 37.9912 54.5548 37.9912C48.6437 37.9912 43.8518 42.8093 43.8518 48.7526C43.8518 54.696 48.6437 59.514 54.5548 59.514Z" fill="#E6E6E6"/>
<path d="M54.5546 59.7649C52.3739 59.777 50.2387 59.1413 48.4196 57.9386C46.6005 56.7358 45.1795 55.0201 44.3366 53.0088C43.4937 50.9975 43.2669 48.7813 43.685 46.641C44.103 44.5007 45.1471 42.5327 46.6849 40.9864C48.2226 39.4401 50.1848 38.3852 52.3228 37.9553C54.4608 37.5255 56.6782 37.74 58.6941 38.5718C60.71 39.4036 62.4336 40.8151 63.6464 42.6276C64.8591 44.44 65.5065 46.5716 65.5065 48.7524C65.5112 51.664 64.3608 54.4587 62.3076 56.5232C60.2545 58.5877 57.4663 59.7535 54.5546 59.7649ZM54.5546 38.2419C52.4735 38.2307 50.4359 38.8376 48.7001 39.9857C46.9643 41.1338 45.6084 42.7714 44.8042 44.6909C44 46.6104 43.7838 48.7255 44.183 50.768C44.5821 52.8105 45.5787 54.6885 47.0463 56.1641C48.5139 57.6396 50.3866 58.6463 52.4269 59.0564C54.4673 59.4666 56.5834 59.2617 58.5072 58.4679C60.4311 57.6741 62.0759 56.3271 63.2333 54.5974C64.3908 52.8678 65.0086 50.8335 65.0087 48.7524C65.013 45.9733 63.9147 43.306 61.9549 41.3356C59.9951 39.3652 57.3337 38.2526 54.5546 38.2419V38.2419Z" fill="#181818"/>
<path d="M54.5547 58.0118C59.641 58.0118 63.7643 53.866 63.7643 48.752C63.7643 43.6379 59.641 39.4922 54.5547 39.4922C49.4685 39.4922 45.3452 43.6379 45.3452 48.752C45.3452 53.866 49.4685 58.0118 54.5547 58.0118Z" fill="white"/>
<path d="M54.5547 58.1381C52.6963 58.1483 50.8766 57.6065 49.3264 56.5814C47.7762 55.5563 46.5652 54.0941 45.847 52.38C45.1287 50.666 44.9355 48.7773 45.2918 46.9533C45.6481 45.1293 46.5379 43.4521 47.8484 42.1344C49.159 40.8166 50.8312 39.9176 52.6532 39.5513C54.4752 39.185 56.365 39.3678 58.083 40.0767C59.8009 40.7855 61.2698 41.9885 62.3034 43.533C63.337 45.0776 63.8887 46.8942 63.8887 48.7527C63.8927 51.2342 62.9122 53.616 61.1624 55.3755C59.4125 57.1349 57.0362 58.1285 54.5547 58.1381ZM54.5547 39.6186C52.746 39.6088 50.9752 40.1363 49.4666 41.134C47.9581 42.1318 46.7796 43.5549 46.0807 45.2231C45.3819 46.8913 45.1939 48.7294 45.5408 50.5045C45.8877 52.2796 46.7538 53.9118 48.0293 55.1942C49.3047 56.4766 50.9322 57.3514 52.7054 57.7078C54.4786 58.0643 56.3178 57.8863 57.9897 57.1964C59.6616 56.5065 61.0911 55.3357 62.097 53.8325C63.1028 52.3293 63.6398 50.5614 63.6398 48.7527C63.6435 46.3375 62.6891 44.0195 60.9859 42.3071C59.2828 40.5947 56.9699 39.6278 54.5547 39.6186Z" fill="#B1B1B1"/>
<path d="M54.5548 50.1605C55.3281 50.1605 55.955 49.5302 55.955 48.7526C55.955 47.9751 55.3281 47.3447 54.5548 47.3447C53.7815 47.3447 53.1545 47.9751 53.1545 48.7526C53.1545 49.5302 53.7815 50.1605 54.5548 50.1605Z" fill="#424242"/>
<path d="M54.5546 50.4113C54.226 50.4134 53.9041 50.3178 53.6299 50.1367C53.3557 49.9556 53.1414 49.6971 53.0143 49.3941C52.8871 49.0911 52.8528 48.7571 52.9157 48.4346C52.9785 48.112 53.1358 47.8154 53.3675 47.5823C53.5991 47.3492 53.8948 47.1902 54.217 47.1254C54.5391 47.0606 54.8733 47.0928 55.1771 47.2182C55.4809 47.3435 55.7406 47.5562 55.9234 47.8293C56.1061 48.1025 56.2036 48.4237 56.2036 48.7523C56.1992 49.1892 56.0244 49.6072 55.7164 49.9171C55.4083 50.227 54.9915 50.4043 54.5546 50.4113ZM54.5546 47.5953C54.3256 47.5942 54.1014 47.6611 53.9104 47.7875C53.7194 47.914 53.5703 48.0942 53.4819 48.3055C53.3934 48.5168 53.3697 48.7495 53.4137 48.9743C53.4577 49.199 53.5674 49.4057 53.7289 49.568C53.8905 49.7304 54.0966 49.8412 54.3211 49.8863C54.5456 49.9314 54.7785 49.9088 54.9902 49.8215C55.2019 49.7341 55.3829 49.5859 55.5103 49.3955C55.6377 49.2052 55.7057 48.9814 55.7058 48.7523C55.7026 48.4475 55.5804 48.1559 55.3654 47.9398C55.1504 47.7236 54.8594 47.6 54.5546 47.5953V47.5953Z" fill="#181818"/>
<path d="M32.4279 54.4407C31.6938 54.4448 30.975 54.2309 30.3627 53.826C29.7503 53.4212 29.2719 52.8436 28.9881 52.1666C28.7044 51.4896 28.628 50.7435 28.7687 50.0231C28.9094 49.3026 29.2608 48.6401 29.7784 48.1195C30.2961 47.599 30.9566 47.2439 31.6763 47.0991C32.396 46.9544 33.1424 47.0266 33.821 47.3066C34.4996 47.5866 35.0798 48.0617 35.4881 48.6718C35.8964 49.2819 36.1143 49.9995 36.1143 50.7336C36.1043 51.7101 35.7133 52.6441 35.0247 53.3365C34.3361 54.029 33.4043 54.4252 32.4279 54.4407ZM32.4279 47.5289C31.7934 47.5257 31.1722 47.7109 30.6431 48.0611C30.114 48.4113 29.7007 48.9107 29.4557 49.496C29.2106 50.0813 29.1449 50.7262 29.2667 51.3489C29.3885 51.9716 29.6925 52.5441 30.14 52.9939C30.5876 53.4437 31.1586 53.7506 31.7807 53.8755C32.4028 54.0005 33.048 53.938 33.6345 53.6959C34.221 53.4538 34.7225 53.043 35.0753 52.5157C35.4282 51.9883 35.6165 51.3681 35.6165 50.7336C35.6076 49.8892 35.2693 49.0816 34.6737 48.483C34.0781 47.8844 33.2723 47.542 32.4279 47.5289Z" fill="#181818"/>
<path d="M26.4495 32.8462L26.28 32.028L27.4328 31.6871L27.5514 31.8065L46.1911 30.9457L46.2166 30.8604L47.6746 30.4258L49.7174 37.5082C49.7174 37.5082 53.3792 45.7752 53.6928 46.4144C53.9918 47.0223 54.4132 47.562 54.9304 47.9996C55.3542 48.332 55.083 49.1246 54.6676 49.278C54.2523 49.4314 53.6504 49.5593 53.3114 48.4598C52.5947 46.7218 51.7912 45.0208 50.904 43.3632C50.5989 42.7752 48.4798 38.3519 48.3272 37.9513C48.1746 37.5507 47.4541 35.1218 47.4541 35.1218L32.3491 51.4712C31.3757 51.362 30.4023 51.2528 29.4289 51.1438C27.4073 50.9173 25.3856 50.6913 23.3639 50.4657C21.6381 50.2732 19.9122 50.0819 18.1862 49.8918C17.5095 49.8179 16.6994 49.8678 16.3258 49.1744C15.99 48.5511 16.4906 48.1398 17.0915 48.0849C17.5888 48.0394 18.2217 48.0621 19.1033 46.4258C19.9848 44.7894 26.4495 32.8462 26.4495 32.8462ZM31.3093 50.0848L26.8112 34.2439L18.719 49.0621L31.3093 50.0848ZM32.2135 48.4485L46.5895 32.5394L27.964 33.4258L32.2135 48.4485Z" fill="#97C09B"/>
<path d="M32.4457 51.7344L22.4817 50.6201C21.0413 50.4591 19.6005 50.2995 18.1594 50.1411C18.0622 50.1303 17.962 50.1225 17.8614 50.1146C17.5225 50.1453 17.1816 50.0855 16.8734 49.9413C16.5651 49.7972 16.3007 49.5739 16.1069 49.2942C16.0237 49.1627 15.9759 49.0118 15.9684 48.8563C15.9608 48.7009 15.9936 48.5461 16.0636 48.4071C16.1713 48.2364 16.3193 48.0948 16.4946 47.9949C16.67 47.8951 16.8673 47.8399 17.069 47.8344L17.1409 47.8281C17.5945 47.7903 18.1084 47.7466 18.8843 46.3055C19.7238 44.748 25.6193 33.8562 26.1871 32.8067L25.9893 31.8523L27.5041 31.4038L27.6494 31.55L46.0043 30.7026L46.0179 30.6575L47.8439 30.1133L49.9567 37.4378C49.9815 37.4878 53.6082 45.6754 53.9159 46.303C54.199 46.8765 54.5962 47.3863 55.0831 47.8011C55.2049 47.9024 55.2968 48.035 55.349 48.1847C55.4011 48.3343 55.4115 48.4953 55.3791 48.6504C55.3575 48.836 55.2885 49.0128 55.1789 49.164C55.0692 49.3152 54.9226 49.4358 54.753 49.514C54.6 49.5854 54.4338 49.6237 54.265 49.6267C54.0963 49.6296 53.9288 49.5971 53.7734 49.5312C53.5948 49.4217 53.4405 49.2768 53.3202 49.1053C53.1998 48.9337 53.116 48.7394 53.0738 48.5341C52.3632 46.8099 51.5654 45.1228 50.6835 43.4796C50.403 42.9393 48.2615 38.479 48.0947 38.0413C47.9785 37.7361 47.5546 36.3298 47.3402 35.6129L32.4457 51.7344ZM26.5707 32.2036L26.7121 32.8852L26.6679 32.9662C26.6679 32.9662 20.2036 44.9095 19.3218 46.5459C18.417 48.225 17.7034 48.2849 17.1822 48.329L17.1137 48.3349C16.9949 48.3357 16.8778 48.364 16.7718 48.4176C16.6658 48.4713 16.5736 48.5488 16.5026 48.6441C16.4743 48.7103 16.4633 48.7827 16.4706 48.8543C16.4779 48.926 16.5033 48.9946 16.5444 49.0538C16.7987 49.5258 17.3339 49.5685 17.9003 49.6137C18.0063 49.622 18.1108 49.6303 18.2129 49.6417C19.6543 49.7992 21.0954 49.9588 22.5362 50.1206L32.2522 51.2074L47.5678 34.6301L47.6922 35.0496C47.6995 35.0736 48.4117 37.4741 48.5595 37.8607C48.7 38.2302 50.7992 42.6194 51.1249 43.2465C52.021 44.9164 52.8302 46.6316 53.5493 48.385C53.6015 48.666 53.7613 48.9156 53.9946 49.0808C54.09 49.1142 54.1913 49.128 54.2922 49.1213C54.3931 49.1147 54.4916 49.0877 54.5819 49.042C54.666 48.9933 54.7375 48.9255 54.7906 48.844C54.8436 48.7625 54.8767 48.6696 54.8871 48.5729C54.9032 48.5062 54.9015 48.4365 54.8823 48.3707C54.8631 48.3049 54.8271 48.2452 54.7778 48.1975C54.2308 47.7368 53.7853 47.1675 53.4696 46.5258C53.1574 45.8894 49.6397 37.9481 49.4905 37.6105L47.5055 30.7379L46.4156 31.0628L46.3777 31.1884L27.453 32.0623L27.3611 31.9701L26.5707 32.2036ZM31.6475 50.3644L18.3149 49.2815L26.8842 33.5893L31.6475 50.3644ZM19.1229 48.8428L30.9708 49.805L26.7384 34.8985L19.1229 48.8428ZM32.0967 48.9503L27.6382 33.1894L47.1793 32.2596L32.0967 48.9503ZM28.2897 33.6614L32.33 47.9463L45.9999 32.8189L28.2897 33.6614Z" fill="#4F7053"/>
<path d="M32.4222 54.2025L17.1069 49.973C16.8198 49.8931 16.5669 49.7212 16.3869 49.4838C16.2068 49.2463 16.1096 48.9564 16.1101 48.6584V48.6583C16.1091 48.2977 16.2514 47.9515 16.5057 47.6958C16.76 47.4401 17.1054 47.2959 17.466 47.2949H32.4222C33.3357 47.2974 34.2108 47.6627 34.855 48.3104C35.4992 48.9581 35.8597 49.8352 35.8572 50.7487V50.7487C35.8597 51.6622 35.4992 52.5393 34.855 53.187C34.2108 53.8347 33.3357 54.2 32.4222 54.2025Z" fill="#97C09B"/>
<path d="M32.4221 54.4528L32.3564 54.444L17.0414 50.2148C16.6663 50.1098 16.3417 49.8728 16.1274 49.5475C15.9132 49.2221 15.8237 48.8303 15.8754 48.4442C15.9271 48.0581 16.1166 47.7037 16.4089 47.4462C16.7013 47.1887 17.0768 47.0455 17.4663 47.043H32.4221C33.4007 47.049 34.3373 47.442 35.0272 48.1361C35.7171 48.8303 36.1043 49.7692 36.1043 50.7479C36.1043 51.7266 35.7171 52.6655 35.0272 53.3597C34.3373 54.0538 33.4007 54.4468 32.4221 54.4528ZM17.4663 47.5454C17.1977 47.5467 16.9387 47.645 16.737 47.8223C16.5353 47.9996 16.4045 48.2438 16.3687 48.5099C16.333 48.7761 16.3946 49.0461 16.5424 49.2704C16.6901 49.4946 16.914 49.6578 17.1726 49.73L32.4551 53.9504C33.2986 53.9373 34.1029 53.5918 34.6933 52.9892C35.2836 52.3865 35.6123 51.5752 35.6079 50.7315C35.6036 49.8879 35.2665 49.0801 34.67 48.4835C34.0735 47.8869 33.2656 47.5498 32.422 47.5454H17.4663Z" fill="#4F7053"/>
<path d="M31.5807 50.8575L31.5581 51.3348C32.4237 53.2443 33.1342 55.2204 33.6829 57.2439L34.9035 56.9711C34.0582 54.9767 33.4321 52.8963 33.0361 50.7666L31.5807 50.8575Z" fill="#E6E6E6"/>
<path d="M33.5055 57.5404L33.4428 57.3108C32.8968 55.3021 32.1916 53.3402 31.3339 51.4436L31.3062 51.3862L31.3422 50.6202L33.2663 50.5L33.2843 50.7478C33.6791 52.8503 34.2989 54.9042 35.1331 56.8741L35.2468 57.1513L33.5055 57.5404ZM31.8093 51.2837C32.6332 53.1174 33.3181 55.0104 33.8584 56.9467L34.5614 56.7897C33.7841 54.9348 33.1977 53.0056 32.8113 51.0319L31.8186 51.0943L31.8093 51.2837Z" fill="#B1B1B1"/>
<path d="M36.487 57.5391L32.526 58.3661L32.311 57.3251L36.271 56.4971L36.487 57.5391Z" fill="#424242"/>
<path d="M32.3331 58.663L32.0161 57.1301L36.4643 56.2002L36.7813 57.7331L32.3331 58.663ZM32.6054 57.5197L32.7191 58.0692L36.1921 57.3435L36.0784 56.7939L32.6054 57.5197Z" fill="#181818"/>
<path d="M34.3756 57.9807C34.6537 57.9807 34.8791 57.7552 34.8791 57.4772C34.8791 57.1991 34.6537 56.9736 34.3756 56.9736C34.0975 56.9736 33.8721 57.1991 33.8721 57.4772C33.8721 57.7552 34.0975 57.9807 34.3756 57.9807Z" fill="#424242"/>
<path d="M34.3754 58.2347C34.2391 58.2337 34.1057 58.1959 33.9891 58.1255C33.8724 58.0551 33.7769 57.9545 33.7126 57.8344C33.6483 57.7143 33.6175 57.5791 33.6235 57.443C33.6296 57.3069 33.6721 57.1749 33.7468 57.061C33.8282 56.936 33.9449 56.838 34.0822 56.7797C34.2194 56.7213 34.3709 56.7051 34.5174 56.7331C34.6639 56.7612 34.7987 56.8322 34.9047 56.9372C35.0106 57.0421 35.0829 57.1763 35.1124 57.3225V57.323C35.1327 57.4205 35.1336 57.521 35.1151 57.6188C35.0966 57.7166 35.059 57.8099 35.0044 57.8932C34.9361 57.9977 34.8428 58.0837 34.733 58.1433C34.6232 58.2029 34.5003 58.2343 34.3754 58.2347ZM34.3759 57.2219C34.3584 57.222 34.341 57.2238 34.3239 57.2273C34.26 57.2407 34.2037 57.278 34.1666 57.3317C34.1296 57.3854 34.1145 57.4512 34.1245 57.5157C34.1346 57.5801 34.169 57.6382 34.2207 57.678C34.2724 57.7178 34.3374 57.7363 34.4023 57.7295C34.4672 57.7228 34.527 57.6914 34.5694 57.6418C34.6118 57.5923 34.6335 57.5283 34.6302 57.4632C34.6268 57.398 34.5985 57.3367 34.5512 57.2918C34.5038 57.2469 34.4411 57.2219 34.3759 57.2219Z" fill="#181818"/>
<path d="M27.707 31.5547L25.956 32.1367L25.71 31.3877L27.461 30.8057L27.707 31.5547Z" fill="#97C09B"/>
<path d="M25.7983 32.453L25.3953 31.2277L27.6189 30.4893L28.0219 31.7145L25.7983 32.453ZM26.0253 31.5477L26.1143 31.819L27.3919 31.3946L27.3029 31.1232L26.0253 31.5477Z" fill="#4F7053"/>
<path d="M47.7881 30.3348L46.0271 30.8838L45.8101 30.1808L47.5711 29.6318L47.7881 30.3348Z" fill="#97C09B"/>
<path d="M45.8629 31.1977L45.4978 30.0156L47.7346 29.3184L48.0997 30.5004L45.8629 31.1977ZM46.122 30.3473L46.1906 30.5696L47.4754 30.1687L47.4069 29.9464L46.122 30.3473Z" fill="#4F7053"/>
<path d="M47.2971 29.7134L46.1161 30.0814L45.6851 28.6844L46.8671 28.3164L47.2971 29.7134Z" fill="#D1D1D1"/>
<path d="M45.9523 30.3945L45.3738 28.5182L47.0301 28.002L47.6086 29.8778L45.9523 30.3945ZM45.997 28.8499L46.2799 29.7665L46.9853 29.5461L46.7024 28.63L45.997 28.8499Z" fill="#8C8C8C"/>
<path d="M48.8299 28.3109C47.728 28.3829 46.6436 28.6226 45.614 29.0217L45.1162 27.41L46.5997 26.9495C46.5997 26.9495 46.6097 27.0596 47.6252 27.0596C48.2802 27.0485 48.9213 26.8692 49.487 26.5391H50.4328C50.4569 26.7634 50.4334 26.9903 50.3636 27.2048C50.2939 27.4194 50.1796 27.6168 50.0283 27.7841C49.8769 27.9514 49.6919 28.0848 49.4854 28.1756C49.2789 28.2664 49.0555 28.3125 48.8299 28.3109Z" fill="#D1D1D1"/>
<path d="M45.4498 29.3343L44.8042 27.2435L46.8207 26.6178L46.8339 26.768C47.0964 26.8004 47.3609 26.8137 47.6253 26.8077C48.2331 26.7952 48.8279 26.6295 49.3545 26.3259L49.4153 26.2876L50.6666 26.2871L50.6812 26.5226C50.7054 27.0725 50.5253 27.6119 50.1756 28.0369C50.0013 28.2147 49.7912 28.3534 49.5592 28.4438C49.3272 28.5343 49.0786 28.5744 48.83 28.5614C47.9193 28.6044 47.0211 28.7899 46.1678 29.111L45.4498 29.3343ZM45.4284 27.5752L45.7779 28.7067L46.0186 28.6316C46.9196 28.2933 47.8685 28.1 48.83 28.059C49.0098 28.0705 49.1901 28.044 49.359 27.9813C49.5279 27.9186 49.6818 27.821 49.8105 27.6949C50.0252 27.4395 50.1529 27.1224 50.1751 26.7896H49.5553C48.9651 27.1205 48.3019 27.2994 47.6253 27.3102C47.2718 27.3304 46.9173 27.3001 46.5723 27.2204L45.4284 27.5752Z" fill="#8C8C8C"/>
<path d="M27.285 30.8631L26.169 31.2341L25.204 28.3111L24.646 28.5011L24.377 27.6701L24.935 27.4901L26.05 27.1191L26.319 27.9401L27.285 30.8631Z" fill="#D1D1D1"/>
<path d="M26.0122 31.5511L25.0467 28.6296L24.4876 28.8204L24.0627 27.5079L26.2086 26.8027L27.5995 31.0236L26.0122 31.5511ZM25.3608 27.9917L26.3272 30.9171L26.9694 30.7037L25.8916 27.4367L24.6918 27.8327L24.8046 28.1816L25.3608 27.9917Z" fill="#8C8C8C"/>
<path d="M26.677 28.1921H26.139L25.814 27.1991L26.285 27.0381L26.677 28.1921Z" fill="#8C8C8C"/>
<path d="M22.946 26.3797L23.5111 27.5843H25.4898C26.1234 27.584 26.7348 27.3511 27.2079 26.9296L29.0264 25.3115L22.946 26.3797Z" fill="#E6E6E6"/>
<path d="M25.4897 27.8361H23.3535L22.5811 26.1894L29.8523 24.9121L27.373 27.1187C26.8543 27.5805 26.1841 27.8358 25.4897 27.8361ZM23.6686 27.3336H25.4897C26.0627 27.3335 26.6158 27.1229 27.0439 26.7419L28.2004 25.7119L23.3112 26.5711L23.6686 27.3336Z" fill="#8C8C8C"/>
<path d="M20.3466 24.8345C21.0278 24.1635 22.0193 24.7436 24.1892 24.7436H30.3827C30.5861 24.7436 30.88 25.1527 30.767 25.3572C29.2149 25.7108 27.6456 25.9839 26.0654 26.1754C25.1386 26.3572 24.6414 27.1072 23.805 27.1072C22.9686 27.1072 19.239 25.9254 20.3466 24.8345Z" fill="#503D1C"/>
<path d="M23.805 27.3586C23.1526 27.3586 20.3728 26.5867 19.9523 25.545C19.8913 25.3922 19.8798 25.2242 19.9193 25.0645C19.9588 24.9048 20.0473 24.7616 20.1725 24.6549C20.6844 24.1524 21.3305 24.2344 22.228 24.3457C22.8777 24.438 23.5328 24.487 24.1891 24.4925H30.3826C30.499 24.5079 30.6098 24.5516 30.7054 24.6198C30.801 24.6879 30.8784 24.7785 30.9309 24.8835C30.9909 24.9698 31.0273 25.0702 31.0366 25.1748C31.0459 25.2795 31.0278 25.3847 30.9839 25.4802C30.8813 25.6657 30.7068 25.7452 27.7209 26.175C27.0364 26.2732 26.4215 26.3615 26.1128 26.4223C25.7514 26.5118 25.4095 26.6668 25.104 26.8796C24.7263 27.1612 24.2751 27.3275 23.805 27.3586ZM20.5206 25.0141C20.366 25.1662 20.3796 25.2722 20.4132 25.3556C20.6971 26.0587 23.1268 26.8561 23.805 26.8561C24.1833 26.8222 24.5442 26.6812 24.8454 26.4498C25.2007 26.2055 25.598 26.0288 26.0175 25.9287C26.3315 25.8674 26.9552 25.7776 27.6505 25.6775C28.597 25.5411 30.1313 25.3202 30.5367 25.1941C30.4999 25.1119 30.4402 25.042 30.3646 24.993L24.1891 24.995C23.5122 24.9897 22.8365 24.9395 22.1663 24.8448C21.2586 24.7299 20.8463 24.6936 20.5206 25.014V25.0141Z" fill="#231400"/>
<path d="M49.4964 26.9842C50.0507 26.9842 50.5001 26.5324 50.5001 25.975C50.5001 25.4177 50.0507 24.9658 49.4964 24.9658C48.9421 24.9658 48.4927 25.4177 48.4927 25.975C48.4927 26.5324 48.9421 26.9842 49.4964 26.9842Z" fill="#503D1C"/>
<path d="M49.4964 27.236C49.2468 27.2376 49.0023 27.1649 48.794 27.0274C48.5856 26.8898 48.4228 26.6935 48.3262 26.4633C48.2296 26.233 48.2035 25.9793 48.2513 25.7343C48.2991 25.4893 48.4185 25.2639 48.5945 25.0868C48.7705 24.9097 48.9951 24.7889 49.2398 24.7396C49.4846 24.6904 49.7384 24.7149 49.9692 24.8101C50.2 24.9052 50.3974 25.0668 50.5362 25.2743C50.6751 25.4818 50.7492 25.7258 50.7492 25.9754C50.7499 26.3086 50.6184 26.6285 50.3835 26.8648C50.1486 27.1011 49.8296 27.2346 49.4964 27.236ZM49.4964 25.2173C49.3464 25.2167 49.1995 25.2606 49.0744 25.3436C48.9493 25.4265 48.8517 25.5447 48.7938 25.6832C48.7359 25.8216 48.7205 25.9742 48.7494 26.1214C48.7783 26.2687 48.8502 26.4041 48.9561 26.5104C49.062 26.6167 49.1971 26.6893 49.3443 26.7188C49.4914 26.7483 49.644 26.7334 49.7827 26.6762C49.9214 26.6189 50.04 26.5217 50.1234 26.397C50.2069 26.2722 50.2514 26.1255 50.2514 25.9754C50.2516 25.7749 50.1722 25.5824 50.0307 25.4403C49.8891 25.2982 49.697 25.218 49.4964 25.2173Z" fill="#231400"/>
<path d="M32.1771 51.6296C32.6515 51.6296 33.036 51.2429 33.036 50.766C33.036 50.289 32.6515 49.9023 32.1771 49.9023C31.7027 49.9023 31.3181 50.289 31.3181 50.766C31.3181 51.2429 31.7027 51.6296 32.1771 51.6296Z" fill="#424242"/>
<path d="M32.177 51.8811C31.9562 51.8824 31.74 51.8182 31.5557 51.6966C31.3715 51.5749 31.2275 51.4013 31.142 51.1977C31.0566 50.9941 31.0335 50.7697 31.0758 50.553C31.118 50.3363 31.2236 50.137 31.3793 49.9804C31.5349 49.8238 31.7335 49.7169 31.95 49.6733C32.1664 49.6297 32.3909 49.6514 32.5951 49.7356C32.7992 49.8197 32.9737 49.9626 33.0965 50.1461C33.2193 50.3296 33.2849 50.5454 33.2849 50.7662C33.2855 51.0609 33.1692 51.3438 32.9615 51.5528C32.7538 51.7618 32.4716 51.8799 32.177 51.8811ZM32.177 50.1538C32.0558 50.1534 31.9371 50.1889 31.8361 50.2559C31.7351 50.323 31.6563 50.4184 31.6096 50.5303C31.5629 50.6422 31.5504 50.7654 31.5738 50.8843C31.5972 51.0032 31.6553 51.1126 31.7409 51.1984C31.8264 51.2843 31.9355 51.3429 32.0544 51.3667C32.1733 51.3905 32.2965 51.3785 32.4085 51.3322C32.5206 51.2859 32.6163 51.2074 32.6837 51.1067C32.7511 51.0059 32.7871 50.8874 32.7871 50.7662C32.7872 50.6042 32.723 50.4487 32.6086 50.3339C32.4943 50.2191 32.339 50.1543 32.177 50.1538Z" fill="#181818"/>
</svg>
