<svg width="72" height="72" viewBox="0 0 72 72" fill="none" xmlns="http://www.w3.org/2000/svg">
<path d="M40.1311 65.3001L40.9361 64.4901L41.5391 65.3001H41.9411L43.2521 64.5511L43.5491 65.0981H45.3591L45.9621 64.6921H46.1631L46.3641 65.0981L47.3691 64.2871L47.5701 65.3001L48.7771 64.6921L49.8501 65.1591L51.1901 64.6921L51.3911 65.0981L52.1951 64.6921L52.9991 65.3001H40.1311Z" fill="#4F7053"/>
<path d="M25.7561 65.3001L26.5601 64.4901L27.1631 65.3001H27.5651L28.8761 64.5511L29.1741 65.0981H30.9831L31.5861 64.6921H31.7871L31.9881 65.0981L32.9941 64.2871L33.1951 65.3001L34.4011 64.6921L35.4751 65.1591L36.8141 64.6921L37.0151 65.0981L37.8191 64.6921L38.6231 65.3001H25.7561Z" fill="#4F7053"/>
<path d="M16.318 49.5991C16.3548 48.9317 16.4321 48.9553 17.1624 48.7023C17.8928 48.4494 18.2351 47.8745 18.4862 48.3114C18.7373 48.7483 20.4034 50.8869 20.4034 50.8869C20.4034 50.8869 18.7144 53.0484 18.0526 52.7265C17.3907 52.4045 16.2952 50.013 16.318 49.5991Z" fill="#6E8CBB"/>
<path d="M18.1937 53.0088C18.1068 53.0098 18.0209 52.9909 17.9424 52.9536C17.1912 52.5886 16.0394 50.0954 16.0669 49.5856C16.1081 48.827 16.281 48.7369 16.9359 48.5138L17.0802 48.464C17.2992 48.3818 17.5072 48.2731 17.6998 48.1404C17.9384 47.9887 18.1456 47.8543 18.3754 47.9139C18.446 47.934 18.5117 47.9685 18.5684 48.0153C18.625 48.0621 18.6713 48.1201 18.7043 48.1857C18.9027 48.5315 20.1409 50.1407 20.6014 50.7317C20.6358 50.7763 20.6545 50.831 20.6543 50.8873C20.6541 50.9436 20.6351 50.9982 20.6004 51.0425C20.1114 51.6691 18.9734 53.0088 18.1937 53.0088ZM16.5696 49.6127C16.8572 50.6904 17.404 51.6815 18.1623 52.4995C18.3989 52.6182 19.2925 51.8582 20.0829 50.8849C19.6902 50.3781 18.4883 48.8187 18.2684 48.4379C18.2154 48.4069 18.0739 48.4995 17.9698 48.5665C17.7442 48.7204 17.5005 48.8461 17.2442 48.9408L17.0979 48.9915C16.5942 49.1635 16.5942 49.1635 16.5696 49.6127Z" fill="#4E6393"/>
<path d="M27.7763 31.5215C27.428 31.9368 26.9672 32.2428 26.4493 32.4027C26.4493 32.4027 26.0371 32.19 26.4493 31.9165C26.8665 31.7117 27.315 31.5781 27.7763 31.5215Z" fill="white"/>
<path d="M26.4496 32.654C26.4097 32.6541 26.3703 32.6446 26.3347 32.6264C26.2494 32.5851 26.1755 32.5234 26.1198 32.4466C26.0641 32.3699 26.0283 32.2805 26.0156 32.1865C26.0157 32.0869 26.0434 31.9892 26.0955 31.9042C26.1477 31.8193 26.2223 31.7505 26.3112 31.7053C26.7587 31.4763 27.2435 31.329 27.7428 31.2704C27.7937 31.2626 27.8458 31.2711 27.8917 31.2946C27.9375 31.3181 27.9747 31.3555 27.9981 31.4014C28.0221 31.4466 28.0319 31.4979 28.0261 31.5488C28.0203 31.5996 27.9993 31.6475 27.9657 31.6861C27.5807 32.1532 27.0614 32.4906 26.4781 32.6525L26.4496 32.654ZM26.753 32.0388C26.7216 32.0521 26.6922 32.0664 26.6647 32.0811C26.6941 32.0683 26.7236 32.054 26.753 32.0388H26.753Z" fill="#181818"/>
<path d="M29.7063 38.4495C29.5354 38.2571 29.2639 37.9937 29.0528 38.014C28.7311 38.0342 28.4396 39.2497 28.0475 39.1586C27.6655 39.0674 27.9771 37.0721 27.9771 37.0721C27.4466 36.7316 26.8844 36.4432 26.2983 36.2111C26.2882 34.3271 26.4491 32.4027 26.4491 32.4027C26.967 32.2428 27.4278 31.9368 27.7761 31.5215C27.7761 31.5215 27.756 33.7802 27.7962 34.1246C27.9053 34.9379 28.2554 35.6999 28.8015 36.3124C29.3298 36.906 29.6478 37.6571 29.7063 38.4495Z" fill="#795E2E"/>
<path d="M28.0964 39.4158C28.0607 39.4157 28.0251 39.4115 27.9904 39.4035C27.8421 39.3681 27.4032 39.2631 27.7046 37.1939C27.2188 36.9111 26.7154 36.6597 26.1974 36.4413C26.1529 36.4216 26.115 36.3895 26.0884 36.3488C26.0617 36.3081 26.0474 36.2605 26.0471 36.2118C26.0372 34.3382 26.1973 32.4 26.1993 32.3808C26.2041 32.3228 26.2288 32.2683 26.2692 32.2265C26.3097 32.1846 26.3634 32.1581 26.4212 32.1513C26.8784 32.0041 27.2832 31.7276 27.5867 31.3553C27.6204 31.3164 27.6652 31.2888 27.7151 31.2762C27.765 31.2636 27.8176 31.2666 27.8657 31.2849C27.9138 31.3032 27.9551 31.3358 27.9841 31.3783C28.013 31.4209 28.0282 31.4713 28.0276 31.5228C28.0217 32.1468 28.0148 33.8254 28.0453 34.0954C28.1482 34.8566 28.4765 35.5697 28.9879 36.1429C29.556 36.7786 29.8972 37.5848 29.958 38.4352C29.9609 38.4873 29.9475 38.539 29.9197 38.5831C29.8919 38.6273 29.8511 38.6617 29.8029 38.6816C29.7547 38.7015 29.7015 38.7059 29.6506 38.6943C29.5998 38.6826 29.5538 38.6554 29.5191 38.6165C29.2128 38.2722 29.0782 38.2648 29.0763 38.2648C28.9903 38.3953 28.9116 38.5304 28.8406 38.6697C28.6492 39.0218 28.4341 39.4158 28.0964 39.4158ZM26.5498 36.0463C27.1016 36.2698 27.6307 36.5457 28.1297 36.8703C28.1658 36.898 28.1938 36.9349 28.2107 36.9771C28.2276 37.0193 28.2329 37.0653 28.226 37.1102C28.117 37.6908 28.0883 38.2836 28.1405 38.872C28.2083 38.7784 28.3291 38.5573 28.3988 38.4278C28.5883 38.08 28.7523 37.7796 29.037 37.7618C29.1445 37.7536 29.252 37.776 29.3473 37.8263C29.2094 37.3286 28.9595 36.8691 28.6168 36.4827C28.0358 35.8333 27.6633 35.0244 27.5475 34.1608C27.518 33.9096 27.518 32.8245 27.521 32.1192C27.277 32.3354 26.9932 32.5019 26.6854 32.6093C26.6481 33.1166 26.5498 34.5839 26.5498 36.0463V36.0463Z" fill="#36250D"/>
<path d="M28.5392 40.2946C28.123 40.2715 27.7111 40.1978 27.3128 40.0749L26.9426 39.9808C26.5351 39.8818 26.0648 39.3642 26.0471 36.2123C26.0469 36.1703 26.0572 36.1288 26.0771 36.0917C26.097 36.0546 26.1259 36.0231 26.161 36C26.1958 35.9766 26.2359 35.9624 26.2777 35.9589C26.3195 35.9553 26.3614 35.9626 26.3996 35.9798C27.004 36.2197 27.5835 36.5181 28.1298 36.8708C28.1658 36.8985 28.1938 36.9354 28.2107 36.9776C28.2276 37.0198 28.2329 37.0658 28.226 37.1107C28.117 37.6913 28.0883 38.2841 28.1406 38.8726C28.2083 38.779 28.3291 38.5578 28.3988 38.4283C28.5883 38.0806 28.7523 37.7801 29.0371 37.7624C29.2924 37.7412 29.5634 37.9096 29.8943 38.282C29.9314 38.3233 29.9535 38.3759 29.9571 38.4312C30.0015 38.8565 29.9112 39.2851 29.6989 39.6562C29.5832 39.8592 29.4137 40.0263 29.209 40.1389C29.0044 40.2516 28.7726 40.3054 28.5392 40.2946ZM26.5548 36.6029C26.6088 39.3479 27.0428 39.4863 27.0614 39.4907L27.4385 39.5868C28.4322 39.8444 28.9241 39.9429 29.2727 39.3888C29.4157 39.1347 29.4809 38.8442 29.4603 38.5534C29.1961 38.2717 29.0773 38.2653 29.0763 38.2653C28.9903 38.3958 28.9116 38.5309 28.8407 38.6702C28.6305 39.0573 28.4047 39.4976 27.9903 39.4041C27.8421 39.3686 27.4032 39.2637 27.7046 37.1945C27.333 36.9754 26.9491 36.7779 26.5548 36.6029Z" fill="#181818"/>
<path d="M29.9276 13.1778C27.9673 15.6391 24.7704 16.3379 21.1816 16.2468C18.6382 16.1007 16.2467 14.9883 14.4963 13.1373C14.4963 13.1373 17.1101 12.9449 18.035 12.9145C22.971 12.7321 24.1673 14.0084 28.3795 13.5425C28.9088 13.4866 29.429 13.3641 29.9276 13.1778Z" fill="#795E2E"/>
<path d="M21.7649 16.5067C21.5715 16.5067 21.3751 16.5043 21.1758 16.4993C18.5596 16.3613 16.0982 15.2163 14.3073 13.3042C14.2763 13.269 14.2558 13.2259 14.2479 13.1797C14.2401 13.1335 14.2453 13.086 14.2629 13.0426C14.2806 12.9991 14.31 12.9615 14.3478 12.9338C14.3856 12.9062 14.4304 12.8896 14.4772 12.886C14.5842 12.8781 17.1067 12.6934 18.0268 12.6629C19.812 12.597 21.5989 12.73 23.3547 13.0594C24.9978 13.399 26.6841 13.4776 28.3517 13.2924C28.8607 13.2391 29.3609 13.1215 29.8402 12.9422C29.8917 12.9226 29.9481 12.9207 30.0007 12.9368C30.0533 12.9528 30.0991 12.9859 30.1309 13.0308C30.1633 13.0755 30.1802 13.1295 30.179 13.1847C30.1778 13.2398 30.1584 13.2931 30.124 13.3362C28.4272 15.467 25.6887 16.5067 21.7649 16.5067ZM15.0634 13.35C16.7259 14.9309 18.8969 15.8685 21.1876 15.995C24.8128 16.0831 27.4247 15.3271 29.1372 13.6751C28.8957 13.7281 28.6515 13.7677 28.4056 13.7938C26.6929 13.9809 24.9614 13.9009 23.2732 13.5569C21.5503 13.2293 19.7958 13.0985 18.0435 13.1672C17.3925 13.1884 15.8813 13.2919 15.0634 13.35Z" fill="#36250D"/>
<path d="M27.5147 13.0055L27.0222 14.8792C26.8211 14.9806 26.62 15.0717 26.4189 15.1527C25.4398 15.556 24.3765 15.7125 23.3227 15.6085C23.1156 15.4825 22.929 15.3253 22.7697 15.1426C22.7596 15.2641 22.7395 15.3958 22.7194 15.5275C21.7644 15.3599 20.8562 14.9904 20.0554 14.4437L20.7591 12.5801L21.1009 12.6003L27.3136 12.9953L27.5147 13.0055Z" fill="#503D1C"/>
<path d="M23.9616 15.8932C23.7402 15.8931 23.519 15.8819 23.2988 15.8597C23.2611 15.8564 23.2248 15.8442 23.1927 15.8242C23.105 15.7708 23.0204 15.7124 22.9394 15.6494C22.9214 15.6827 22.8958 15.7114 22.8648 15.7331C22.8375 15.7526 22.8066 15.7665 22.7739 15.7739C22.7412 15.7812 22.7073 15.7819 22.6743 15.7759C21.6804 15.6026 20.7356 15.217 19.9043 14.6455C19.8607 14.6127 19.829 14.5666 19.814 14.5142C19.7989 14.4618 19.8013 14.4059 19.8208 14.3549L20.5248 12.4911C20.5411 12.4393 20.5749 12.3948 20.6204 12.3652C20.6659 12.3355 20.7202 12.3226 20.7742 12.3286L27.5278 12.7541C27.5652 12.7561 27.6017 12.7663 27.6347 12.7841C27.6676 12.8019 27.6962 12.8268 27.7183 12.8571C27.7402 12.8876 27.7551 12.9224 27.762 12.9593C27.769 12.9961 27.7678 13.034 27.7586 13.0704L27.2657 14.944C27.2565 14.9786 27.2402 15.0108 27.2177 15.0386C27.1952 15.0664 27.167 15.089 27.1351 15.1051C26.9269 15.2095 26.7207 15.3036 26.5125 15.3868C25.703 15.7193 24.8367 15.8912 23.9616 15.8932ZM23.4068 15.3637C24.4011 15.4514 25.402 15.2989 26.325 14.9189C26.487 14.8539 26.6471 14.7825 26.8081 14.7041L27.1931 13.2403L20.9294 12.8428L20.3609 14.347C21.0213 14.7608 21.7476 15.0587 22.5083 15.2277C22.5123 15.1923 22.5162 15.1568 22.5191 15.1228C22.523 15.0735 22.5413 15.0264 22.5718 14.9874C22.6023 14.9484 22.6437 14.9193 22.6906 14.9037C22.7376 14.8882 22.7882 14.8868 22.8359 14.8999C22.8837 14.9129 22.9265 14.9397 22.959 14.977C23.0895 15.1262 23.2402 15.2564 23.4068 15.3637Z" fill="#231400"/>
<path d="M27.7661 46.4106C27.7963 47.2716 27.5048 47.626 26.6804 47.9805C26.0773 48.2439 24.2375 48.9934 23.3026 49.3884C22.227 50.7355 22.3476 54.2096 22.3476 54.7768C22.3476 55.344 19.3318 58.8182 18.6883 54.2907C18.5087 52.8876 18.6167 51.4627 19.0055 50.1028C19.3944 48.7428 20.0561 47.4762 20.9503 46.3802C20.6889 45.8029 20.4276 45.1445 20.1763 44.4254C19.0704 41.245 17.0799 36.9605 20.8196 31.2784C20.5683 30.0326 20.1763 28.6551 20.116 28.0474C20.0908 27.6967 20.0908 27.3447 20.116 26.994C20.3873 26.6598 20.7292 26.2242 21.1312 25.7077C22.3176 24.1884 21.453 21.7271 21.1112 20.6738C20.881 19.9865 20.5952 19.3192 20.2566 18.6784C20.4897 18.6143 20.7155 18.526 20.9302 18.415C21.2821 19.2557 22.9308 23.0945 23.1218 23.1755C24.1931 23.3131 25.2796 23.2755 26.3388 23.0641C26.2546 21.6146 26.0495 20.1747 25.7255 18.7594C25.9064 18.8506 26.0875 18.9316 26.2483 19.0025C26.379 19.4178 26.9319 21.322 27.1128 22.1019C27.2536 22.6894 27.4948 23.8339 27.6356 24.5226C27.6356 24.5328 27.6456 24.5429 27.6356 24.553C27.6413 25.0076 27.5558 25.4588 27.3843 25.8799C26.8816 27.1561 26.2985 27.2776 26.6805 30.5593C27.0625 33.8511 27.4144 35.7452 27.5954 38.0849C27.7661 40.4246 27.736 45.5598 27.7661 46.4106Z" fill="#97B3D5"/>
<path d="M20.1654 56.8358C19.5183 56.8358 18.7308 56.3763 18.4402 54.3258C18.2582 52.9155 18.3611 51.483 18.7426 50.1131C19.1241 48.7432 19.7765 47.4637 20.6613 46.3504C20.4148 45.7948 20.1723 45.1762 19.9386 44.5088C19.859 44.2773 19.7736 44.0409 19.6872 43.7985C18.5894 40.7408 17.0891 36.559 20.5523 31.2267C20.4501 30.7322 20.3284 30.2209 20.2155 29.749C20.0688 29.1965 19.9521 28.6365 19.8659 28.0714C19.8383 27.7071 19.8383 27.3412 19.8659 26.9769C19.869 26.9248 19.8882 26.8749 19.9209 26.8341C20.1919 26.5011 20.5326 26.0667 20.9333 25.552C21.9957 24.1916 21.2623 21.9465 20.9097 20.8678L20.8724 20.7511C20.6461 20.0782 20.366 19.4246 20.0348 18.7967C20.0173 18.7634 20.0073 18.7267 20.0056 18.6892C20.0039 18.6516 20.0105 18.6142 20.025 18.5795C20.0396 18.545 20.0617 18.5142 20.0898 18.4893C20.1178 18.4644 20.151 18.4461 20.187 18.4356C20.4032 18.3759 20.6128 18.2942 20.8125 18.1918C20.8434 18.1759 20.8773 18.1663 20.9121 18.1638C20.9468 18.1612 20.9818 18.1657 21.0147 18.177C21.0477 18.1888 21.0778 18.2073 21.1032 18.2314C21.1286 18.2555 21.1486 18.2846 21.162 18.3169C21.6785 19.5517 22.9727 22.5179 23.2604 22.9523C24.1979 23.0444 25.1434 23.0156 26.0736 22.8666C25.9888 21.5056 25.7911 20.154 25.4825 18.8257C25.4694 18.7789 25.4703 18.7293 25.4849 18.6829C25.4995 18.6365 25.5272 18.5953 25.5647 18.5644C25.6022 18.5334 25.6479 18.514 25.6962 18.5085C25.7445 18.5029 25.7934 18.5115 25.8369 18.5332C26.0147 18.6223 26.1914 18.7016 26.3495 18.7711C26.3823 18.7856 26.4116 18.8069 26.4355 18.8337C26.4593 18.8604 26.4772 18.892 26.4879 18.9262C26.6225 19.3547 27.1753 21.2565 27.3569 22.0441C27.4983 22.6317 27.7399 23.7803 27.8823 24.4713C27.8947 24.5119 27.8963 24.555 27.8872 24.5964C27.8869 25.0677 27.7956 25.5345 27.6182 25.9712C27.5122 26.2416 27.4022 26.4612 27.2981 26.6696C26.9279 27.4109 26.6353 27.9965 26.9298 30.5297C27.086 31.8739 27.2372 32.9846 27.3737 33.9879C27.5691 35.4291 27.738 36.6743 27.846 38.0648C27.9687 39.7443 27.9884 42.7814 28.0001 44.791C28.005 45.5668 28.009 46.1588 28.0178 46.4012C28.0657 46.8017 27.9666 47.2061 27.7388 47.5391C27.5111 47.8721 27.1702 48.1111 26.7796 48.2118C26.4398 48.3601 25.7063 48.6635 24.962 48.9708C24.4161 49.1969 23.8643 49.4249 23.4607 49.5949C22.8607 50.4002 22.5701 52.0882 22.5976 54.6135L22.5986 54.7765C22.4183 55.2902 22.109 55.749 21.7005 56.109C21.292 56.469 20.7979 56.7181 20.2656 56.8324C20.2331 56.8349 20.1998 56.8358 20.1654 56.8358ZM20.3628 27.0892C20.3422 27.4009 20.3435 27.7136 20.3667 28.025C20.4512 28.566 20.5639 29.1021 20.7045 29.6313C20.8262 30.1411 20.9588 30.6962 21.0658 31.2276C21.0787 31.293 21.0657 31.3608 21.0295 31.4168C17.6311 36.5802 19.0332 40.4876 20.1595 43.6276C20.2478 43.8719 20.3333 44.1098 20.4138 44.3418C20.6612 45.0491 20.9185 45.6998 21.1787 46.275C21.1969 46.3155 21.2042 46.36 21.1999 46.4041C21.1956 46.4483 21.1798 46.4906 21.1542 46.5267C20.2765 47.5953 19.627 48.8323 19.2459 50.1616C18.8647 51.4908 18.7599 52.8841 18.938 54.2554C19.0726 55.2025 19.3946 56.3315 20.1684 56.3315H20.1713C21.0305 56.328 22.0605 55.0395 22.0959 54.7696L22.0949 54.6194C22.0654 51.9212 22.4061 50.1081 23.1062 49.2304C23.1324 49.1974 23.1665 49.1716 23.2054 49.1555C23.6139 48.9831 24.1952 48.7422 24.7706 48.5043C25.5109 48.1985 26.2415 47.8965 26.5803 47.7488C27.3481 47.4188 27.5396 47.1454 27.515 46.4189C27.5062 46.1741 27.5023 45.5771 27.4974 44.7945C27.4856 42.9129 27.4659 39.7645 27.3452 38.1027C27.2382 36.728 27.0702 35.4897 26.8748 34.0559C26.7383 33.0496 26.5871 31.9359 26.431 30.5878C26.1188 27.9049 26.4408 27.2601 26.8493 26.4435C26.9465 26.2475 27.0506 26.0406 27.1507 25.7864C27.3106 25.3948 27.3901 24.9751 27.3844 24.5521L27.3854 24.5359L27.3844 24.5221C27.2489 23.8867 27.0094 22.7459 26.868 22.1603C26.7403 21.6067 26.4133 20.4516 26.1944 19.7015C26.3873 20.8092 26.5194 21.9267 26.59 23.0489C26.5933 23.1068 26.5765 23.1641 26.5425 23.2112C26.5086 23.2583 26.4595 23.2923 26.4035 23.3074C25.2896 23.5378 24.144 23.5708 23.0188 23.405C22.1406 21.9249 21.3978 20.3685 20.7997 18.7548C20.7408 18.7794 20.6799 18.8036 20.6161 18.8267C20.904 19.3978 21.1495 19.9893 21.3506 20.5964L21.3879 20.7107C21.7669 21.8726 22.5564 24.2906 21.3299 25.8628C20.9509 26.3489 20.6259 26.7632 20.3628 27.0893V27.0892Z" fill="#4E6393"/>
<path d="M25.7254 18.7594C26.0494 20.1748 26.2545 21.6147 26.3387 23.0641C25.2795 23.2755 24.193 23.3131 23.1217 23.1755C22.9307 23.0945 21.282 19.2557 20.9302 18.415C21.098 18.333 21.2508 18.2235 21.3825 18.091C22.1312 17.4327 22.6079 16.5191 22.7196 15.5284C22.7397 15.3968 22.7598 15.2651 22.7699 15.1436C22.9292 15.3263 23.1158 15.4834 23.3229 15.6095C23.6967 15.8393 24.1087 16.0005 24.5392 16.0855C24.6046 16.1048 24.6722 16.115 24.7403 16.1159C24.7302 17.1389 24.7504 18.2834 25.6752 18.7392C25.6953 18.7493 25.7054 18.7594 25.7254 18.7594Z" fill="#DB9D99"/>
<path d="M24.2825 23.5096C23.8585 23.5298 23.4337 23.4945 23.0188 23.4047C22.7291 23.2816 21.4399 20.2864 20.6985 18.5117C20.6743 18.4539 20.6725 18.3892 20.6934 18.3301C20.7142 18.271 20.7563 18.2218 20.8115 18.192C20.9523 18.1221 21.0818 18.0313 21.1954 17.9226C21.9085 17.2998 22.363 16.4331 22.4699 15.4924C22.4905 15.3628 22.5092 15.2382 22.519 15.1225C22.5229 15.0731 22.5412 15.026 22.5717 14.987C22.6022 14.9481 22.6435 14.919 22.6905 14.9034C22.7375 14.8878 22.788 14.8865 22.8358 14.8995C22.8835 14.9125 22.9264 14.9394 22.9589 14.9767C23.1017 15.1399 23.2686 15.2804 23.4538 15.3934C23.8041 15.608 24.1898 15.7586 24.5928 15.8381C24.7637 15.8864 24.8461 15.8638 24.9188 15.9376C24.9422 15.9613 24.9607 15.9894 24.9732 16.0202C24.9857 16.0511 24.9919 16.0841 24.9915 16.1174C24.9807 17.2084 25.0337 18.1413 25.7858 18.5117C25.8987 18.5117 25.937 18.5821 25.9675 18.6915C26.2977 20.1237 26.5059 21.5812 26.59 23.0486C26.5933 23.1065 26.5765 23.1638 26.5425 23.2109C26.5086 23.258 26.4595 23.292 26.4035 23.3072C25.7065 23.4549 24.9949 23.5229 24.2825 23.5096ZM23.2604 22.9521C24.1979 23.0442 25.1434 23.0154 26.0735 22.8664C25.9891 21.5446 25.8016 20.2314 25.5129 18.9388C24.5447 18.4231 24.4839 17.2626 24.4868 16.3317L24.4701 16.3268C24.0156 16.2356 23.581 16.0641 23.1867 15.8204C23.1063 15.7711 23.0286 15.7175 22.954 15.6598C22.8182 16.6744 22.3189 17.6053 21.5489 18.2797V18.2792C21.4592 18.372 21.3578 18.4528 21.2474 18.5196C21.8081 19.849 22.9874 22.5398 23.2604 22.9521Z" fill="#944A45"/>
<path d="M27.6354 24.5221C27.4946 23.8333 27.2534 22.6888 27.1126 22.1013C26.9316 21.3214 26.3787 19.4173 26.248 19.002C26.9819 19.3565 27.4745 19.7717 27.4745 21.6152C27.4745 23.0129 27.6354 23.8232 27.6354 24.5221Z" fill="#DB9D99"/>
<path d="M27.6358 24.7743C27.5779 24.7741 27.5218 24.754 27.4769 24.7173C27.432 24.6806 27.4011 24.6296 27.3894 24.5728C27.249 23.8867 27.0094 22.746 26.868 22.1603C26.6912 21.3969 26.1374 19.4887 26.0088 19.0779C25.9938 19.0311 25.9929 18.9809 26.0061 18.9336C26.0193 18.8863 26.0462 18.8438 26.0833 18.8116C26.1204 18.7794 26.1661 18.7587 26.2148 18.7522C26.2636 18.7457 26.3131 18.7536 26.3574 18.775C27.2657 19.2134 27.7262 19.7729 27.7262 21.615C27.7262 22.4228 27.7812 23.0419 27.8263 23.5399C27.8587 23.9054 27.8872 24.2211 27.8872 24.5221C27.8874 24.5844 27.8644 24.6447 27.8227 24.691C27.7809 24.7373 27.7234 24.7665 27.6614 24.7728L27.6358 24.7743ZM26.6814 19.5744C26.8454 20.1364 27.0663 20.9132 27.2224 21.5082C27.2107 20.3926 27.0104 19.8833 26.6814 19.5744Z" fill="#944A45"/>
<path d="M25.7255 18.7589C25.7154 18.7184 25.7054 18.688 25.6953 18.6475L26.2281 18.9209C26.2363 18.9475 26.243 18.9746 26.2482 19.0019" fill="white"/>
<path d="M26.2483 19.2548C26.1978 19.2547 26.1485 19.2395 26.1068 19.211C26.0651 19.1826 26.033 19.1422 26.0146 19.0952L25.8172 18.9937C25.8067 18.9981 25.7959 19.0015 25.7848 19.0041C25.7527 19.0122 25.7192 19.0138 25.6864 19.0089C25.6536 19.0039 25.6221 18.9925 25.5938 18.9753C25.5655 18.958 25.5408 18.9353 25.5214 18.9085C25.5019 18.8816 25.488 18.8512 25.4804 18.8189L25.6365 18.7632L25.4676 18.7711L25.451 18.7076C25.4399 18.6607 25.4423 18.6116 25.4579 18.566C25.4735 18.5204 25.5018 18.4802 25.5393 18.4499C25.5772 18.4199 25.6228 18.4014 25.6709 18.3967C25.719 18.392 25.7674 18.4012 25.8103 18.4234L26.3425 18.6967C26.3991 18.7268 26.4425 18.7769 26.4643 18.8371C26.4776 18.8753 26.4878 18.9145 26.4947 18.9543C26.5011 18.9868 26.5011 19.0202 26.4946 19.0526C26.4881 19.0851 26.4753 19.1159 26.4569 19.1434C26.4384 19.1709 26.4148 19.1945 26.3873 19.2128C26.3597 19.2312 26.3288 19.2439 26.2964 19.2503C26.2805 19.2532 26.2644 19.2547 26.2483 19.2548Z" fill="#944A45"/>
<path d="M20.2566 18.6783L20.1963 18.5568C20.4096 18.4392 20.6314 18.3376 20.8598 18.2529C20.8798 18.3084 20.9033 18.3625 20.9302 18.415" fill="white"/>
<path d="M20.2567 18.9299C20.2099 18.93 20.164 18.9169 20.1242 18.8922C20.0845 18.8675 20.0525 18.8321 20.0318 18.79L19.9719 18.6708C19.943 18.6142 19.9365 18.5487 19.9538 18.4875C19.9711 18.4263 20.0109 18.3739 20.0652 18.3408C20.2903 18.2154 20.5247 18.1073 20.7663 18.0177C20.7979 18.0052 20.8316 17.9992 20.8656 18.0001C20.8995 18.001 20.9329 18.0089 20.9637 18.0231C20.9946 18.0372 21.0224 18.0575 21.0454 18.0826C21.0683 18.1078 21.086 18.1373 21.0972 18.1694C21.1141 18.2148 21.1334 18.2592 21.1552 18.3024C21.1848 18.3622 21.1895 18.4313 21.1683 18.4946C21.1472 18.5579 21.1019 18.6103 21.0422 18.6403C20.9916 18.6659 20.9337 18.6734 20.8782 18.6617C20.8227 18.6499 20.7728 18.6196 20.7369 18.5758C20.6436 18.6157 20.568 18.6502 20.5081 18.6782C20.5081 18.7251 20.4951 18.771 20.4704 18.8109C20.4458 18.8507 20.4106 18.8829 20.3686 18.9038C20.3338 18.9209 20.2955 18.9298 20.2567 18.9299Z" fill="#944A45"/>
<path d="M23.3026 49.636C23.2604 49.636 23.2188 49.6252 23.1818 49.6048C23.1449 49.5844 23.1136 49.5549 23.0911 49.5192C23.0686 49.4835 23.0554 49.4426 23.0529 49.4004C23.0504 49.3582 23.0586 49.3161 23.0768 49.278C23.0978 49.2308 23.1271 49.1878 23.1632 49.1509C23.2526 49.046 23.3498 48.9376 23.443 48.8332C24.3759 47.7954 24.9385 47.1689 24.6498 41.3582C24.6465 41.2916 24.6698 41.2264 24.7145 41.1769C24.7592 41.1274 24.8218 41.0977 24.8884 41.0942L24.9012 41.0938C24.9659 41.0939 25.028 41.1188 25.0748 41.1635C25.1216 41.2081 25.1494 41.269 25.1526 41.3336C25.4511 47.3516 24.8364 48.0367 23.8162 49.1711C23.7258 49.2725 23.6306 49.3779 23.5334 49.4912C23.5123 49.5345 23.4795 49.571 23.4387 49.5966C23.3979 49.6222 23.3508 49.6359 23.3026 49.636Z" fill="#4E6393"/>
<path d="M16.4778 49.6221C15.8388 50.4499 13.739 53.3243 10.635 53.2783C10.635 53.2783 10.3612 55.8538 12.1414 56.3367C13.9216 56.8196 12.4837 55.8538 14.4922 54.4741C15.7645 53.6092 17.0995 52.8406 18.4863 52.1745L16.4778 49.6221Z" fill="white"/>
<path d="M12.8245 56.7131C12.5702 56.7001 12.3185 56.6555 12.0753 56.5801C10.1105 56.0476 10.3727 53.3657 10.3845 53.2519C10.391 53.19 10.4202 53.1327 10.4664 53.0911C10.5126 53.0494 10.5726 53.0264 10.6349 53.0263C10.6587 53.0277 10.6826 53.0279 10.7065 53.0268C13.5462 53.0268 15.5493 50.4187 16.2111 49.5573L16.2799 49.4676C16.3032 49.4375 16.3331 49.413 16.3673 49.3961C16.4015 49.3792 16.4391 49.3703 16.4772 49.3701H16.4782C16.5162 49.3702 16.5537 49.3789 16.5879 49.3955C16.6221 49.4122 16.6521 49.4363 16.6756 49.4661L18.6836 52.0185C18.7072 52.0485 18.7237 52.0834 18.7318 52.1206C18.74 52.1578 18.7396 52.1964 18.7307 52.2334C18.7218 52.2705 18.7047 52.3051 18.6805 52.3346C18.6564 52.364 18.6259 52.3877 18.5913 52.4037C17.2179 53.0645 15.8952 53.8261 14.6342 54.6822C14.081 54.9973 13.6706 55.5135 13.4883 56.1234C13.3587 56.5348 13.1927 56.7131 12.8245 56.7131ZM10.8735 53.5287C10.8597 54.1286 10.9422 55.7506 12.2069 56.0934C12.9119 56.285 12.9168 56.2663 13.0091 55.9708C13.2235 55.2531 13.7026 54.6437 14.3494 54.2661C15.5468 53.4546 16.798 52.7256 18.0944 52.0841L16.4802 50.0321C15.6888 51.0517 13.7004 53.4381 10.8735 53.5287Z" fill="#D1D1D1"/>
<path d="M19.2167 56.5903C19.4833 57.7272 19.5757 58.898 19.4906 60.0626C19.3281 61.2545 19.0685 62.4312 18.7146 63.5809C18.7146 63.5809 21.3393 64.1327 22.2066 63.2589C23.0739 62.3851 22.7544 61.6953 22.7544 61.6953C22.7544 61.6953 21.1795 61.4423 22.024 56.3604L19.2167 56.5903Z" fill="white"/>
<path d="M20.3933 64.0092C19.8117 64.0037 19.2321 63.9428 18.6621 63.8274C18.6278 63.82 18.5954 63.8056 18.5669 63.7849C18.5385 63.7643 18.5147 63.7379 18.4971 63.7076C18.4794 63.6772 18.4683 63.6435 18.4644 63.6085C18.4606 63.5736 18.464 63.5383 18.4746 63.5048C18.8235 62.3706 19.08 61.2099 19.2415 60.0343C19.3216 58.8996 19.2313 57.7593 18.9734 56.6514C18.9644 56.6161 18.9632 56.5791 18.9699 56.5432C18.9766 56.5073 18.9911 56.4733 19.0124 56.4436C19.0336 56.4138 19.061 56.3891 19.0928 56.3711C19.1246 56.353 19.1599 56.3422 19.1963 56.3392L22.0036 56.1092C22.0418 56.1062 22.0801 56.1119 22.1158 56.1259C22.1514 56.1399 22.1834 56.1618 22.2093 56.19C22.2352 56.2182 22.2544 56.2519 22.2654 56.2886C22.2763 56.3253 22.2788 56.364 22.2726 56.4018C21.4969 61.0692 22.7911 61.4445 22.8039 61.4479C22.842 61.4571 22.8778 61.4745 22.9086 61.4988C22.9395 61.5231 22.9647 61.5538 22.9826 61.5888C22.9993 61.6238 23.3646 62.4493 22.3846 63.4369C21.8153 63.8691 21.1051 64.0732 20.3933 64.0092ZM19.0363 63.3836C19.867 63.5211 21.4665 63.6476 22.0291 63.0812C22.2073 62.9406 22.3481 62.7582 22.4388 62.5502C22.5296 62.3422 22.5677 62.115 22.5496 61.8887C22.3607 61.7924 22.1994 61.6495 22.0812 61.4735C21.6658 60.8938 21.277 59.5846 21.7257 56.6377L19.5253 56.8179C19.7558 57.8925 19.8282 58.995 19.7403 60.0904C19.593 61.2051 19.3576 62.3062 19.0362 63.3836H19.0363Z" fill="#D1D1D1"/>
<path d="M10.475 52.7764C9.01079 53.4118 9.14597 53.8657 9.41626 54.7736C9.68655 55.6814 9.86677 56.158 10.2497 56.3622C10.6327 56.5665 10.7678 57.792 10.9931 58.3367C11.2183 58.8814 11.9392 60.7651 12.66 60.8786C13.3808 60.9921 14.5747 60.5382 14.1467 59.6758C13.7187 58.8133 13.1229 58.0848 13.8764 56.5665C14.1016 56.1126 13.7909 56.187 13.4259 56.0899C12.6496 55.9149 11.9475 55.5013 11.4183 54.907C10.8891 54.3127 10.5592 53.5677 10.475 52.7764Z" fill="#503D1C"/>
<path d="M12.8962 61.1486C12.8039 61.1489 12.7116 61.142 12.6203 61.1279C11.9025 61.0151 11.3026 59.7625 10.8097 58.5519L10.7606 58.4337C10.669 58.1842 10.5942 57.9288 10.5367 57.6693C10.4483 57.319 10.2853 56.6669 10.1322 56.5851C9.64516 56.3251 9.4458 55.7547 9.17577 54.8459C8.87629 53.8387 8.78399 53.2358 10.3747 52.5452C10.4118 52.529 10.4523 52.5221 10.4927 52.5251C10.5331 52.5281 10.5721 52.5409 10.6064 52.5625C10.641 52.5839 10.6699 52.6132 10.6907 52.6481C10.7116 52.683 10.7237 52.7224 10.7262 52.7629C10.8038 53.5024 11.1127 54.1986 11.609 54.7522C12.1053 55.3058 12.7637 55.6887 13.4903 55.8463C13.5581 55.8645 13.6238 55.8754 13.6837 55.8862C13.7784 55.8866 13.8715 55.9103 13.9549 55.9551C14.0383 56 14.1094 56.0646 14.1619 56.1433C14.1944 56.2313 14.2058 56.3256 14.1952 56.4187C14.1846 56.5119 14.1524 56.6013 14.1011 56.6797C13.8664 57.0728 13.7519 57.526 13.7716 57.9833C13.7913 58.4407 13.9444 58.8823 14.212 59.2538C14.266 59.3562 14.32 59.4587 14.3721 59.5636C14.4575 59.7153 14.4975 59.8884 14.4874 60.0623C14.4773 60.2361 14.4175 60.4034 14.3151 60.5443C14.1375 60.743 13.9183 60.9002 13.673 61.0046C13.4278 61.1091 13.1626 61.1582 12.8962 61.1486ZM10.2765 53.1447C9.33091 53.6052 9.41732 53.8968 9.65691 54.7011C9.91613 55.5719 10.0801 55.9862 10.3678 56.1399C10.7184 56.327 10.8666 56.9196 11.0237 57.5466C11.0762 57.7817 11.1434 58.0134 11.225 58.2401L11.2751 58.3612C12.0096 60.1664 12.4544 60.591 12.6989 60.6294C12.9167 60.6614 13.139 60.6435 13.3489 60.577C13.5588 60.5106 13.7508 60.3973 13.9106 60.2458C13.9591 60.1798 13.9862 60.1006 13.9883 60.0188C13.9904 59.937 13.9674 59.8565 13.9223 59.7882C13.8723 59.6877 13.8202 59.5887 13.7682 59.4902C13.4642 59.0468 13.2918 58.5265 13.2711 57.9893C13.2505 57.4521 13.3823 56.92 13.6513 56.4546C13.6621 56.4324 13.671 56.4132 13.6778 56.3975C13.6513 56.392 13.6228 56.3871 13.5973 56.3832C13.5247 56.3704 13.4442 56.3561 13.3607 56.3339C12.5941 56.1558 11.8952 55.7601 11.3481 55.1943C10.8009 54.6285 10.4288 53.9168 10.2765 53.1447Z" fill="#231400"/>
<path d="M11.1507 55.2963C11.3023 55.1025 11.4124 54.8796 11.4744 54.6415C11.5364 54.4034 11.5489 54.1551 11.5111 53.9119C11.5183 53.6084 11.5408 53.3054 11.5787 53.0041L12.277 52.8906C12.277 52.8906 12.0518 54.207 11.9842 54.7516C11.9166 55.2963 12.232 55.9772 11.8265 56.136C11.421 56.2949 10.6101 56.068 11.1507 55.2963Z" fill="#503D1C"/>
<path d="M11.551 56.436C11.4195 56.4417 11.2883 56.418 11.167 56.3666C11.0457 56.3152 10.9374 56.2375 10.85 56.139C10.7321 55.9888 10.5878 55.6608 10.9442 55.1515L10.9452 55.151C11.0589 55.022 11.145 54.8711 11.1984 54.7077C11.2518 54.5442 11.2712 54.3716 11.2555 54.2004C11.2565 54.1127 11.2565 54.0152 11.2604 53.9029C11.267 53.5896 11.2903 53.2768 11.3301 52.966C11.3381 52.9134 11.3625 52.8647 11.3999 52.8269C11.4373 52.7891 11.4858 52.7642 11.5383 52.7557L12.2364 52.6419C12.276 52.6355 12.3165 52.6386 12.3546 52.651C12.3926 52.6635 12.4272 52.6848 12.4554 52.7133C12.4835 52.7418 12.5044 52.7766 12.5164 52.8148C12.5284 52.853 12.531 52.8936 12.5241 52.933C12.5221 52.9463 12.3003 54.2506 12.2335 54.783C12.2206 54.9654 12.2288 55.1487 12.258 55.3293C12.3032 55.7164 12.3602 56.1981 11.9183 56.371C11.8009 56.4151 11.6764 56.4371 11.551 56.436ZM11.3556 55.441C11.2339 55.6159 11.1926 55.7602 11.2456 55.8277C11.3139 55.8814 11.395 55.9164 11.4809 55.9292C11.5668 55.9421 11.6546 55.9324 11.7356 55.9011C11.8152 55.8701 11.7838 55.6026 11.7582 55.3878C11.7241 55.1672 11.7162 54.9434 11.7347 54.7209C11.7808 54.3466 11.8987 53.6265 11.9703 53.196L11.8063 53.2226C11.7926 53.3674 11.7739 53.5999 11.7631 53.921C11.7592 54.0274 11.7592 54.1195 11.7582 54.2023C11.7901 54.6518 11.6457 55.0961 11.3557 55.4411L11.3556 55.441Z" fill="#231400"/>
<path d="M18.2015 63.0806C18.2015 63.0806 18.0888 64.692 18.9673 64.8735C19.6846 65.1326 20.4657 65.1565 21.1974 64.9416C21.859 64.7279 22.5734 64.7439 23.2247 64.987C24.1881 65.1261 25.1697 65.0643 26.108 64.8055C26.5811 64.5785 26.9189 64.4423 26.8964 63.6934C26.8739 62.9444 26.7225 62.5625 25.8602 62.6494C23.6077 62.8764 23.022 61.4238 23.022 61.4238C23.022 61.4238 22.0534 63.7842 18.2015 63.0806Z" fill="#503D1C"/>
<path d="M20.3607 65.3497C19.9703 65.3349 19.5825 65.2786 19.204 65.1817L18.9163 65.1202C17.8352 64.8965 17.9452 63.1376 17.9511 63.0628C17.9533 63.0275 17.9631 62.993 17.9797 62.9618C17.9963 62.9305 18.0193 62.9032 18.0473 62.8815C18.0753 62.8599 18.1075 62.8444 18.1418 62.8359C18.1761 62.8275 18.2118 62.8262 18.2466 62.8323C21.8355 63.4893 22.7526 61.4147 22.7899 61.3265C22.8091 61.2808 22.8412 61.2417 22.8825 61.2142C22.9237 61.1867 22.9721 61.172 23.0217 61.1719H23.0237C23.0734 61.1724 23.1218 61.1875 23.1628 61.2155C23.2039 61.2435 23.2358 61.2829 23.2544 61.329C23.275 61.3797 23.8171 62.5958 25.8349 62.3983C26.0019 62.3633 26.1744 62.3639 26.341 62.4003C26.5077 62.4366 26.6649 62.5078 26.8021 62.6091C26.9312 62.7548 27.0286 62.9258 27.0881 63.1112C27.1476 63.2965 27.1679 63.4922 27.1477 63.6859C27.1843 63.9764 27.1149 64.2704 26.9522 64.5139C26.7895 64.7573 26.5445 64.934 26.262 65.0113C25.2597 65.3125 24.203 65.3879 23.168 65.232L22.9923 65.1901C22.4407 64.9937 21.839 64.9894 21.2847 65.1778C20.9899 65.2914 20.6767 65.3497 20.3607 65.3497ZM18.4518 63.3776C18.4656 63.7923 18.5569 64.5311 19.0184 64.6267L19.31 64.6882C19.8925 64.8878 20.5239 64.8937 21.1099 64.705C21.7572 64.4808 22.4607 64.4791 23.1091 64.7L23.2819 64.7409C24.1897 64.8678 25.1137 64.8123 25.9999 64.5779C26.482 64.3474 26.6617 64.2612 26.645 63.7007C26.6332 63.2988 26.5811 63.0855 26.4702 62.9885C26.2937 62.886 26.0849 62.8543 25.886 62.8998C25.3649 63.0033 24.8257 62.9664 24.3235 62.7929C23.8214 62.6194 23.3745 62.3154 23.0286 61.9122C22.5661 62.5767 21.2945 63.8011 18.4518 63.3776Z" fill="#231400"/>
<path d="M19.1699 61.3327C19.4177 61.2192 20.7693 62.6263 20.9495 62.8306C21.1297 63.0348 21.5126 62.7171 21.7153 63.1029C21.9181 63.4887 21.8505 64.1469 21.1522 64.1015C20.4539 64.0561 20.7242 63.3526 20.7242 63.3526C20.7242 63.3526 18.8996 62.1951 18.9447 61.9001C18.9834 61.6985 19.0599 61.506 19.1699 61.3327Z" fill="#503D1C"/>
<path d="M21.22 64.3561C21.1925 64.3561 21.165 64.3551 21.1356 64.3531C21.0164 64.3546 20.8986 64.3266 20.7928 64.2717C20.6869 64.2168 20.5962 64.1367 20.5288 64.0384C20.4289 63.8659 20.3961 63.6627 20.4365 63.4675C18.6288 62.3031 18.6759 61.9953 18.6965 61.8618C18.7403 61.624 18.83 61.3969 18.9606 61.1934C18.9863 61.1539 19.0228 61.1227 19.0657 61.1033C19.5448 60.8885 20.8753 62.3657 21.1385 62.6632C21.1725 62.6548 21.2075 62.6506 21.2426 62.6509C21.3791 62.6235 21.5207 62.6413 21.6462 62.7016C21.7716 62.762 21.874 62.8616 21.9378 62.9853C22.0232 63.1417 22.0674 63.3173 22.0662 63.4955C22.065 63.6737 22.0184 63.8487 21.9309 64.0039C21.8533 64.1194 21.7469 64.2126 21.6222 64.2744C21.4976 64.3362 21.3589 64.3644 21.22 64.3561ZM19.2022 61.8894C19.7055 62.3672 20.2612 62.7865 20.8587 63.1395C20.9078 63.1709 20.9447 63.2182 20.9629 63.2736C20.9812 63.329 20.9797 63.389 20.9588 63.4434C20.917 63.547 20.9149 63.6625 20.9529 63.7675C20.9903 63.8266 21.0914 63.8448 21.1689 63.8498C21.2313 63.8612 21.2956 63.8562 21.3553 63.8351C21.4151 63.814 21.4683 63.7776 21.5097 63.7296C21.548 63.6496 21.5665 63.5616 21.5636 63.4729C21.5607 63.3842 21.5365 63.2976 21.493 63.2203C21.4576 63.1543 21.4439 63.1439 21.275 63.1543C21.1831 63.1715 21.0884 63.1662 20.999 63.1389C20.9096 63.1117 20.8281 63.0632 20.7614 62.9977C20.3133 62.4997 19.8218 62.0426 19.2925 61.6318C19.2535 61.7143 19.2232 61.8006 19.2022 61.8894Z" fill="#231400"/>
<path d="M21.6439 31.9873C20.6698 32.7504 19.4361 33.103 18.2058 32.9698C18.1354 32.9495 18.1254 32.9293 18.1656 32.909C19.246 32.357 20.432 32.0427 21.6439 31.9873Z" fill="white"/>
<path d="M18.6219 33.25C18.462 33.2543 18.3021 33.2422 18.1447 33.214C17.9483 33.1574 17.8992 33.0426 17.8914 32.9559C17.8912 32.9 17.9061 32.8451 17.9346 32.7971C17.9632 32.749 18.0042 32.7096 18.0534 32.683C19.1679 32.1116 20.3929 31.788 21.6442 31.7344C21.6941 31.7344 21.7429 31.7493 21.7843 31.7771C21.8257 31.8049 21.858 31.8444 21.8769 31.8905C21.8957 31.9367 21.9005 31.9873 21.8907 32.0362C21.8809 32.085 21.857 32.13 21.8219 32.1654C20.9218 32.9024 19.7847 33.2878 18.6219 33.25ZM20.6515 32.3467C20.1942 32.4297 19.744 32.5486 19.3053 32.7023C19.7686 32.648 20.2219 32.5283 20.6515 32.3467Z" fill="#181818"/>
<path d="M18.2057 32.9699C18.1908 32.9508 18.1773 32.9305 18.1655 32.9092L18.2057 32.9699Z" fill="white"/>
<path d="M18.1848 33.2123C18.149 33.2125 18.1137 33.2041 18.0819 33.1877C18.0501 33.1713 18.0228 33.1475 18.0022 33.1182C17.9805 33.0895 17.9609 33.0594 17.9433 33.0281C17.9135 32.9685 17.9081 32.8997 17.9283 32.8362C17.9484 32.7728 17.9926 32.7197 18.0513 32.6882C18.1093 32.6574 18.1772 32.6508 18.2401 32.6698C18.303 32.6888 18.3558 32.7319 18.3871 32.7897C18.4175 32.8279 18.4366 32.874 18.4421 32.9225C18.4476 32.9711 18.4393 33.0202 18.4182 33.0643C18.3971 33.1084 18.364 33.1456 18.3227 33.1718C18.2815 33.198 18.2337 33.212 18.1848 33.2123H18.1848Z" fill="#181818"/>
<path d="M18.0071 25.34C17.8702 27.3635 17.5963 28.0534 18.1897 30.077C18.7831 32.1005 19.2396 33.4343 19.2396 33.4343C19.8916 33.2792 20.5322 33.0794 21.1567 32.8364C21.1567 32.8364 20.7459 31.1347 20.472 29.663C20.1982 28.1914 19.7873 27.4095 20.4264 25.2939L18.0071 25.34Z" fill="white"/>
<path d="M19.2395 33.6859C19.1871 33.6858 19.136 33.6693 19.0934 33.6388C19.0508 33.6082 19.0188 33.5651 19.0019 33.5154C18.997 33.5021 18.5365 32.153 17.9483 30.1474C17.5687 28.9479 17.471 27.677 17.6626 26.4335C17.693 26.1045 17.7283 25.7425 17.7568 25.3219C17.7608 25.2591 17.7883 25.2 17.8337 25.1565C17.8792 25.113 17.9394 25.0882 18.0023 25.0869L20.4217 25.0411C20.4615 25.04 20.5009 25.0485 20.5366 25.0659C20.5724 25.0833 20.6034 25.1091 20.627 25.1411C20.6511 25.1728 20.6673 25.2098 20.6743 25.2491C20.6813 25.2883 20.6789 25.3286 20.6672 25.3667C20.2657 26.4982 20.2303 27.7273 20.5661 28.8801C20.6162 29.1111 20.6702 29.3524 20.7193 29.6159C20.9883 31.064 21.3978 32.7594 21.4017 32.7761C21.4153 32.8328 21.409 32.8925 21.3838 32.9451C21.3586 32.9977 21.316 33.0399 21.2632 33.0648C20.6234 33.315 19.9669 33.5203 19.2984 33.679C19.2791 33.6835 19.2593 33.6858 19.2395 33.6859ZM18.2409 25.5869C18.2164 25.9164 18.1889 26.2104 18.1624 26.4813C17.977 27.661 18.0691 28.8677 18.4314 30.0055C18.8781 31.5315 19.2513 32.6737 19.4035 33.1322C19.8973 33.0083 20.3847 32.8595 20.8636 32.6865C20.7448 32.1851 20.4404 30.869 20.2243 29.7085C20.1772 29.4509 20.1242 29.215 20.0751 28.9894C19.7502 27.8658 19.7557 26.6724 20.0908 25.5519L18.2409 25.5869Z" fill="#D1D1D1"/>
<path d="M23.5941 39.0672L22.8201 38.7026C22.5286 38.9254 22.5487 40.2827 22.2974 40.7283C22.0461 41.1639 21.3122 40.5865 21.3122 40.5865C21.2047 40.6329 21.0877 40.653 20.971 40.6451C20.8542 40.6372 20.7409 40.6016 20.6407 40.5412C20.5404 40.4808 20.456 40.3973 20.3944 40.2978C20.3329 40.1982 20.296 40.0854 20.2868 39.9687C19.6434 39.9181 19.6233 39.5129 19.6233 39.4622C19.6233 39.4622 19.4423 39.3204 19.191 39.1381C18.9397 38.9558 19.5831 37.2036 19.5328 37.001C19.4889 36.6166 19.499 36.2279 19.5629 35.8463C19.6133 35.269 18.437 33.3344 18.2058 32.9698C19.4361 33.1029 20.6697 32.7504 21.6439 31.9873H21.654C21.654 31.9873 21.654 32.1696 21.7545 34.3777C21.7242 34.9927 21.8353 35.6065 22.0793 36.1719C22.3233 36.7373 22.6936 37.2392 23.1619 37.6391C23.3439 37.8246 23.4782 38.0514 23.5535 38.3001C23.6288 38.5487 23.6427 38.812 23.5941 39.0672Z" fill="#795E2E"/>
<path d="M22.0084 41.143C21.7353 41.1193 21.4742 41.0201 21.2543 40.8564C21.1141 40.889 20.9688 40.8924 20.8272 40.8665C20.6857 40.8406 20.551 40.7858 20.4315 40.7056C20.2614 40.578 20.1376 40.3983 20.0789 40.1939C19.9175 40.1752 19.7653 40.1084 19.6423 40.0022C19.5192 39.8961 19.4308 39.7554 19.3887 39.5984C19.313 39.5413 19.1913 39.4487 19.044 39.3423C18.774 39.1463 18.8663 38.6734 19.1412 37.641C19.2005 37.4403 19.2483 37.2364 19.2846 37.0302C19.2368 36.6272 19.2461 36.2195 19.3121 35.8191C19.0199 34.8499 18.5747 33.9337 17.9934 33.1051C17.9664 33.0626 17.9528 33.0129 17.9542 32.9626C17.9556 32.9122 17.972 32.8634 18.0012 32.8224C18.0305 32.7814 18.0714 32.7501 18.1187 32.7327C18.166 32.7153 18.2175 32.7126 18.2663 32.7249C19.4108 32.8376 20.5552 32.5098 21.4664 31.8082C21.5037 31.7772 21.5488 31.7568 21.5967 31.7493C21.6447 31.7418 21.6938 31.7475 21.7389 31.7657C21.7839 31.7838 21.8231 31.8139 21.8525 31.8526C21.8818 31.8913 21.9 31.9373 21.9053 31.9856C21.9053 31.9949 21.9083 32.2304 22.0055 34.3661C21.9641 34.8541 22.0292 35.3454 22.1961 35.8059C22.3631 36.2663 22.6281 36.6851 22.9726 37.0332C23.1013 37.1736 23.2319 37.3174 23.3605 37.4849C23.5692 37.703 23.7213 37.9689 23.8033 38.2594C23.8853 38.55 23.8947 38.8562 23.8308 39.1512C23.8192 39.1843 23.8008 39.2145 23.7768 39.2401C23.7528 39.2656 23.7237 39.2858 23.6914 39.2994C23.6591 39.3136 23.6241 39.3205 23.5888 39.3197C23.5535 39.319 23.5189 39.3105 23.4872 39.295L22.9167 39.0266C22.8551 39.2726 22.8085 39.5221 22.7772 39.7738C22.7476 40.1448 22.6594 40.5089 22.5161 40.8525C22.4765 40.9246 22.4215 40.987 22.355 41.0353C22.2884 41.0836 22.212 41.1165 22.1311 41.1317C22.0907 41.1392 22.0496 41.143 22.0084 41.143ZM21.3122 40.3343C21.3685 40.3345 21.423 40.3534 21.4674 40.388C21.6288 40.5248 21.8268 40.6111 22.0369 40.6362C22.1746 40.3418 22.2568 40.0246 22.2794 39.7003C22.3717 39.0703 22.4404 38.6758 22.6683 38.502C22.7048 38.474 22.7483 38.4567 22.794 38.4518C22.8397 38.4469 22.8859 38.4548 22.9275 38.4744L23.3693 38.6822C23.318 38.3545 23.1777 38.0472 22.9638 37.7937C22.843 37.638 22.7213 37.5046 22.6025 37.374C22.2162 36.9839 21.9181 36.5154 21.7284 36.0003C21.5387 35.4851 21.4617 34.9352 21.5027 34.3877C21.4595 33.4218 21.434 32.8426 21.4202 32.4958C20.5916 32.9951 19.6412 33.256 18.6738 33.2499C19.2213 34.0397 19.6083 34.9293 19.8128 35.8683C19.7544 36.2272 19.7435 36.5922 19.7804 36.9539C19.7813 37.2337 19.729 37.5112 19.6263 37.7715C19.5058 38.1608 19.4246 38.5611 19.3837 38.9664C19.6155 39.1359 19.7785 39.2634 19.7785 39.2634C19.8085 39.2871 19.8327 39.3172 19.8494 39.3516C19.8661 39.386 19.8747 39.4237 19.8747 39.4619C19.8757 39.4984 19.9002 39.6851 20.3067 39.7171C20.3663 39.7218 20.4222 39.7476 20.4645 39.7898C20.5068 39.8321 20.5327 39.888 20.5374 39.9476C20.5547 40.0846 20.6231 40.21 20.7289 40.2988C20.8082 40.3429 20.896 40.3695 20.9865 40.3768C21.0769 40.3841 21.1679 40.372 21.2533 40.3411C21.2726 40.3366 21.2924 40.3343 21.3122 40.3343Z" fill="#36250D"/>
<path d="M27.4244 12.5098C27.3958 12.6736 27.3589 12.8358 27.3138 12.9959C27.133 13.7583 26.8309 14.4867 26.4191 15.1533C26.2533 15.4513 26.0094 15.6984 25.7135 15.8679C25.4177 16.0375 25.0812 16.1231 24.7403 16.1156C24.6722 16.1147 24.6045 16.1044 24.5392 16.0851C24.1087 16.0002 23.6967 15.839 23.3229 15.6091C23.1157 15.4831 22.9292 15.3259 22.7699 15.1432C22.4603 14.8229 22.2537 14.4172 22.1768 13.9784C22.0033 13.9952 21.8284 13.968 21.6682 13.8993C21.5081 13.8305 21.3679 13.7224 21.2606 13.5851C21.1533 13.4477 21.0825 13.2855 21.0546 13.1135C21.0267 12.9414 21.0427 12.7651 21.1011 12.6009C21.1057 12.5701 21.1124 12.5397 21.1212 12.5098L27.4244 12.5098Z" fill="white"/>
<path d="M24.8746 16.3731C24.8236 16.3731 24.7715 16.3706 24.7195 16.3662C24.6355 16.3591 24.5521 16.3459 24.4701 16.3268C24.0156 16.2356 23.581 16.0642 23.1867 15.8204C22.6008 15.4521 22.1685 14.8836 21.9701 14.2206C21.8023 14.2137 21.6378 14.1727 21.4863 14.1001C21.3349 14.0275 21.1998 13.9249 21.0893 13.7985C20.9652 13.6187 20.8801 13.4148 20.8397 13.2001C20.7993 12.9854 20.8044 12.7645 20.8546 12.5519C20.8602 12.5112 20.8691 12.471 20.8812 12.4317C20.8983 12.3815 20.9305 12.3378 20.9734 12.3065C21.0163 12.2752 21.0677 12.2579 21.1207 12.2568H27.4247C27.4611 12.2569 27.4971 12.2649 27.5301 12.2802C27.5632 12.2955 27.5925 12.3178 27.6161 12.3455C27.6395 12.3734 27.6566 12.4059 27.6664 12.4408C27.6762 12.4758 27.6785 12.5125 27.6731 12.5484C27.6731 12.5484 27.6407 12.7518 27.5562 13.0622C27.3697 13.8515 27.056 14.6053 26.6273 15.2939C26.4486 15.6059 26.1945 15.8681 25.8883 16.0566C25.5822 16.2451 25.2336 16.3539 24.8746 16.3731ZM21.3328 12.7612C21.2871 13.0098 21.3388 13.2664 21.4772 13.4779C21.568 13.5685 21.6779 13.6378 21.7988 13.6806C21.9197 13.7235 22.0487 13.7389 22.1763 13.7256C22.2386 13.7258 22.2986 13.7489 22.3448 13.7907C22.3911 13.8324 22.4202 13.8898 22.4267 13.9517C22.4997 14.3356 22.683 14.6898 22.954 14.9713C23.0981 15.1367 23.2666 15.279 23.4538 15.3934C23.8041 15.608 24.1897 15.7586 24.5928 15.8382C24.6406 15.8529 24.6901 15.8612 24.7401 15.8628C25.0406 15.8691 25.337 15.7926 25.597 15.6417C25.8569 15.4908 26.0704 15.2713 26.2139 15.0072C26.6092 14.3662 26.8984 13.6654 27.0702 12.9321C27.0869 12.8701 27.1016 12.8129 27.1143 12.7612H21.3328Z" fill="#D1D1D1"/>
<path d="M33.5568 9.29848C33.2856 10.178 32.818 10.9843 32.1892 11.6563C31.5605 12.3284 30.7871 12.8487 29.9276 13.1778C29.429 13.364 28.9088 13.4865 28.3795 13.5424C24.1673 14.0083 22.971 12.7321 18.035 12.9144C17.1101 12.9448 14.4963 13.1372 14.4963 13.1372C16.593 12.4354 18.6031 11.4975 20.4879 10.3417C20.4879 10.3417 20.7593 9.16673 20.89 8.36664C21.0207 7.56655 22.7398 7.02964 23.544 6.92838C24.3382 6.82706 25.826 6.39154 26.4895 7.43482C27.153 8.46796 27.3239 8.93382 28.1483 9.03516C29.9433 9.24188 31.7501 9.32984 33.5568 9.29848Z" fill="#A58346"/>
<path d="M26.6048 13.8975C25.4864 13.8816 24.3716 13.7675 23.2731 13.5566C21.5503 13.229 19.7958 13.0983 18.0435 13.167C17.1332 13.197 14.54 13.3872 14.5145 13.3891C14.4558 13.3962 14.3965 13.3812 14.3483 13.3471C14.3 13.313 14.2662 13.2621 14.2533 13.2044C14.238 13.1482 14.2425 13.0884 14.2661 13.0351C14.2897 12.9819 14.331 12.9383 14.3829 12.9119C14.7378 12.7461 15.1028 12.6029 15.4758 12.4833C17.1604 11.9155 18.769 11.1432 20.2655 10.1836C20.3343 9.88219 20.5365 8.97344 20.6416 8.32623C20.8026 7.3431 22.681 6.78307 23.5127 6.67865C23.6207 6.66486 23.7425 6.64465 23.8741 6.6225C24.7352 6.47966 26.0412 6.2615 26.702 7.29975L26.9485 7.69133C27.4119 8.4341 27.5847 8.71189 28.1788 8.78528C29.9606 8.99269 31.7544 9.08007 33.5479 9.04683C33.587 9.0461 33.6258 9.05423 33.6614 9.07061C33.6969 9.08698 33.7283 9.11118 33.7531 9.1414C33.7774 9.17207 33.7943 9.20794 33.8025 9.24621C33.8107 9.28448 33.8099 9.32413 33.8003 9.36206C33.5223 10.2828 33.0362 11.1272 32.3796 11.83C31.7231 12.5329 30.9137 13.0753 30.014 13.4153C29.496 13.6088 28.9556 13.7359 28.4056 13.7935C27.8077 13.8613 27.2065 13.896 26.6048 13.8975ZM18.9753 12.6449C20.4446 12.6513 21.9102 12.7899 23.3546 13.0591C24.9977 13.3988 26.6841 13.4774 28.3516 13.2921C28.8607 13.2389 29.3609 13.1212 29.8402 12.9419C30.6075 12.6473 31.3038 12.1937 31.8834 11.6109C32.463 11.0282 32.9128 10.3294 33.2033 9.56058C31.5042 9.56988 29.8061 9.4781 28.1179 9.28574C27.2863 9.18329 27.0153 8.74836 26.5223 7.95881L26.2788 7.57166C25.7947 6.81412 24.7323 6.99094 23.9556 7.12048C23.8181 7.14314 23.6905 7.16432 23.5756 7.1791C22.6663 7.29337 21.2308 7.84158 21.1385 8.40801C21.0079 9.20693 20.7438 10.3511 20.732 10.3994C20.7171 10.4642 20.6772 10.5205 20.621 10.556C19.2283 11.4543 17.7405 12.1959 16.1847 12.7671C16.8789 12.7213 17.6144 12.6764 18.0268 12.6627C18.3577 12.6503 18.6738 12.6444 18.9753 12.6449Z" fill="#503D1C"/>
<path d="M21.1112 20.6732C21.4529 21.7265 22.3175 24.1878 21.1312 25.7071C20.7291 26.2236 20.3873 26.6592 20.1159 26.9934C20.1386 26.6976 20.1789 26.4033 20.2366 26.1122L17.1804 26.0008C17.1804 26.0008 17.3312 22.6483 17.5624 21.4024C17.7937 20.1566 18.1756 19.0019 19.5328 18.8297C19.7771 18.7949 20.0189 18.7441 20.2566 18.6777C20.5952 19.3186 20.881 19.9859 21.1112 20.6732Z" fill="#DB9D99"/>
<path d="M20.1162 27.2457C20.0842 27.2457 20.0525 27.2396 20.0229 27.2275C19.973 27.2075 19.9309 27.172 19.9026 27.1262C19.8744 27.0805 19.8615 27.0269 19.8658 26.9734C19.8855 26.7281 19.9129 26.5134 19.9385 26.3537L17.1715 26.2533C17.1382 26.2519 17.1056 26.244 17.0754 26.23C17.0452 26.2161 17.0181 26.1963 16.9956 26.1718C16.973 26.1473 16.9555 26.1186 16.9441 26.0874C16.9327 26.0562 16.9275 26.023 16.9289 25.9897C16.9358 25.8518 17.0841 22.6054 17.3148 21.3563C17.5623 20.0269 17.9982 18.7709 19.5016 18.5798C19.7332 18.5466 19.9624 18.4986 20.1879 18.436C20.2432 18.4196 20.3024 18.423 20.3555 18.4456C20.4085 18.4681 20.452 18.5085 20.4786 18.5596C20.8244 19.2137 21.116 19.8951 21.3505 20.5968L21.3878 20.7111C21.7668 21.873 22.5563 24.2909 21.3299 25.8632C20.9253 26.3813 20.5826 26.8177 20.3116 27.1527C20.288 27.1817 20.2582 27.2051 20.2244 27.2211C20.1906 27.2372 20.1536 27.2456 20.1162 27.2457ZM17.4434 25.7582L20.2448 25.8602C20.2816 25.8617 20.3175 25.8711 20.3503 25.8879C20.383 25.9046 20.4117 25.9283 20.4343 25.9572C20.4706 26.0048 20.4893 26.0635 20.4873 26.1232C20.6258 25.9464 20.775 25.7558 20.9331 25.5524C21.9956 24.192 21.2621 21.9469 20.9096 20.8682L20.8723 20.7515L20.8713 20.7505C20.6676 20.1403 20.4184 19.5463 20.126 18.9734C19.9551 19.0142 19.7699 19.0495 19.5702 19.0793C18.443 19.2226 18.062 20.0919 17.8096 21.4489C17.6212 22.4655 17.4847 24.9549 17.4434 25.7582Z" fill="#944A45"/>
<path d="M18.3265 54.4977C18.3037 55.4176 18.3037 55.6245 18.3037 56.1074C18.3037 56.5903 18.3493 56.7513 19.0341 56.8433C20.1314 56.9131 21.233 56.8669 22.3206 56.7053C22.9597 56.5673 22.6858 54.8656 22.5945 54.4977C22.5032 54.1298 21.1795 54.7507 20.5404 54.7277C19.9014 54.7048 19.5818 54.8657 18.9428 54.4288C18.3037 53.9918 18.3265 54.4977 18.3265 54.4977Z" fill="#6E8CBB"/>
<path d="M19.855 57.1329C19.5697 57.1371 19.2844 57.1237 19.0008 57.093C18.1838 56.9831 18.0522 56.7127 18.0522 56.1074C18.0522 55.6242 18.0522 55.4164 18.0748 54.4987C18.07 54.4106 18.0889 54.3228 18.1297 54.2445C18.1705 54.1663 18.2316 54.1004 18.3066 54.0539C18.5982 53.8874 18.9644 54.1382 19.0842 54.2204C19.2299 54.3292 19.3956 54.4082 19.5719 54.4528C19.7481 54.4975 19.9314 54.5068 20.1113 54.4805C20.2439 54.4746 20.3892 54.4711 20.5493 54.4755C20.8658 54.4592 21.1786 54.3999 21.4791 54.2992C22.0594 54.146 22.4277 54.0593 22.6614 54.1992C22.7052 54.225 22.7434 54.2592 22.7738 54.3C22.8041 54.3408 22.826 54.3872 22.8381 54.4366C23.0313 55.1641 23.013 55.9317 22.7851 56.6491C22.7408 56.7251 22.6815 56.7911 22.6107 56.8432C22.54 56.8953 22.4593 56.9323 22.3737 56.9521C21.5401 57.0781 20.698 57.1386 19.855 57.1329ZM18.5776 54.5149C18.555 55.4222 18.555 55.6286 18.555 56.1074C18.555 56.5009 18.555 56.5241 19.0675 56.5935C20.136 56.6574 21.2083 56.6122 22.2676 56.4585C22.2823 56.4556 22.3177 56.4482 22.3579 56.3827C22.5153 55.8099 22.5187 55.2057 22.3678 54.6312C22.1088 54.6551 21.8533 54.7075 21.6058 54.7873C21.2574 54.8971 20.8964 54.9618 20.5315 54.9799C20.3813 54.9745 20.2517 54.9799 20.1309 54.9843C19.6596 55.043 19.1838 54.9187 18.8014 54.6371C18.7323 54.587 18.6571 54.5459 18.5776 54.5149Z" fill="#4E6393"/>
<path d="M20.259 26.6253C20.3801 25.6015 20.5776 24.5881 20.85 23.5938L20.259 26.6253Z" fill="white"/>
<path d="M20.2587 26.8773L20.2322 26.8758C20.1992 26.8723 20.1673 26.8623 20.1382 26.8464C20.1091 26.8306 20.0835 26.8091 20.0627 26.7833C20.0419 26.7575 20.0264 26.7279 20.017 26.6961C20.0077 26.6643 20.0047 26.631 20.0083 26.598C20.131 25.5599 20.3316 24.5326 20.6082 23.5245C20.6172 23.4927 20.6324 23.463 20.6529 23.4371C20.6734 23.4112 20.6988 23.3896 20.7277 23.3736C20.7565 23.3575 20.7883 23.3473 20.8211 23.3435C20.8539 23.3397 20.8871 23.3424 20.9189 23.3514C20.9506 23.3605 20.9803 23.3758 21.0062 23.3963C21.032 23.4168 21.0536 23.4423 21.0696 23.4712C21.0856 23.5001 21.0958 23.5318 21.0995 23.5646C21.1032 23.5975 21.1005 23.6307 21.0913 23.6624C20.8238 24.6433 20.6292 25.6426 20.5091 26.6522C20.5022 26.7139 20.4729 26.7709 20.4267 26.8124C20.3805 26.8539 20.3207 26.877 20.2587 26.8773Z" fill="#944A45"/>
<path d="M37.7671 62.8209C37.3038 62.8127 36.8539 62.6648 36.4761 62.3966C34.7031 61.2057 36.4496 55.2185 37.2831 52.6992L38.2373 53.0197C36.8187 57.3056 36.2905 61.0544 37.0337 61.5539C37.1673 61.6558 37.3204 61.7291 37.4836 61.7691C37.6468 61.8091 37.8165 61.8149 37.9821 61.7863C38.9049 61.5994 39.7924 60.2551 40.4394 59.2739C40.6436 58.9653 40.8311 58.6814 41.0009 58.4559C42.1014 56.9999 44.7865 55.0969 47.0376 55.6211L46.8098 56.6082C45.08 56.1987 42.7543 57.8071 41.801 59.0692C41.6429 59.2799 41.4682 59.5459 41.2767 59.8348C40.4904 61.0267 39.5116 62.5104 38.1794 62.7794C38.0437 62.8069 37.9056 62.8208 37.7671 62.8209Z" fill="#B1B1B1"/>
<path d="M37.7671 63.0726C37.2542 63.0646 36.7556 62.902 36.3364 62.6062C34.4884 61.365 35.9869 55.8164 37.0444 52.6198L37.124 52.3799L38.5546 52.8596L38.4761 53.0985C36.8854 57.9028 36.6968 61.0236 37.1731 61.3443C37.2799 61.427 37.4025 61.4869 37.5334 61.5203C37.6643 61.5537 37.8007 61.5598 37.9341 61.5384C38.7559 61.3719 39.6426 60.0257 40.2288 59.1347C40.4488 58.8027 40.6334 58.5254 40.8003 58.3033C41.9393 56.7966 44.7211 54.8234 47.0944 55.3751L47.3389 55.4322L46.9972 56.9113L46.7517 56.8532C45.1315 56.4725 42.9163 58.0107 42.0012 59.2209C41.8568 59.414 41.6968 59.6553 41.523 59.9184L41.4857 59.974C40.6727 61.2064 39.6632 62.7367 38.2287 63.0264C38.0767 63.0569 37.9221 63.0724 37.7671 63.0726ZM37.4431 53.0187C35.8131 58.0196 35.5028 61.4394 36.6153 62.1871C36.8314 62.3442 37.077 62.4558 37.3375 62.515C37.5979 62.5743 37.8677 62.58 38.1304 62.5318C39.3588 62.2836 40.3054 60.8503 41.0654 59.6982L41.1037 59.6396C41.2844 59.3672 41.4494 59.1175 41.5996 58.917C42.5766 57.624 44.7967 56.0651 46.6191 56.3163L46.734 55.8193C44.6317 55.5036 42.2202 57.2586 41.2009 58.6077C41.0399 58.8224 40.8612 59.0914 40.6678 59.3834C39.9785 60.4306 39.0604 61.825 38.0323 62.0333C37.834 62.0685 37.6307 62.0627 37.4348 62.0162C37.2389 61.9697 37.0546 61.8835 36.8933 61.7629C35.8947 61.0921 36.7156 56.8911 37.9204 53.1788L37.4431 53.0187Z" fill="#666666"/>
<path d="M35.4666 48.5065C34.592 47.281 33.5465 45.6199 32.7121 44.2728C32.1793 43.4219 31.7169 42.6826 31.4957 42.3788C31.355 42.1863 31.2041 41.9432 31.0433 41.6698C30.146 39.9276 28.6398 38.5758 26.811 37.8715C26.7481 37.851 26.6899 37.818 26.6399 37.7745C26.5899 37.731 26.5492 37.678 26.5201 37.6184C26.4911 37.5589 26.4743 37.4942 26.4707 37.428C26.4671 37.3619 26.4769 37.2957 26.4994 37.2334C26.542 37.108 26.6325 37.0045 26.7512 36.9457C26.8699 36.8869 27.0071 36.8774 27.1327 36.9194C29.185 37.6958 30.8807 39.1988 31.8978 41.1431C32.0486 41.3862 32.1793 41.5989 32.3099 41.7812C32.5513 42.1154 32.9936 42.8346 33.5666 43.736C33.9084 44.283 34.3005 44.911 34.7126 45.5491C34.9036 46.3188 35.1449 47.3924 35.4666 48.5065Z" fill="#B1B1B1"/>
<path d="M36.1147 49.8489L35.2624 48.654C34.3767 47.4133 33.3201 45.7322 32.4993 44.4062L32.4541 44.3343C31.9435 43.5197 31.5026 42.8163 31.2925 42.5282C31.1619 42.3494 31.0185 42.1243 30.8271 41.7987C29.9583 40.1086 28.4996 38.7961 26.7276 38.11C26.6344 38.0788 26.5484 38.0295 26.4744 37.965C26.4004 37.9004 26.3399 37.8218 26.2965 37.7337C26.2526 37.6437 26.2269 37.5459 26.221 37.446C26.2151 37.3461 26.2291 37.246 26.2621 37.1515C26.2952 37.0565 26.3467 36.9691 26.4135 36.894C26.4804 36.819 26.5614 36.7578 26.652 36.7141C26.7395 36.6711 26.8347 36.6462 26.932 36.6408C27.0294 36.6354 27.1268 36.6496 27.2185 36.6826C29.3257 37.476 31.0676 39.0166 32.1124 41.0111C32.2724 41.2707 32.3932 41.4657 32.514 41.6342C32.6966 41.8869 32.9882 42.3498 33.3584 42.9355L33.7787 43.6009C34.1204 44.1486 34.5132 44.7757 34.9236 45.4125L34.956 45.4884L35.1102 46.1194C35.2702 46.7819 35.4686 47.6064 35.7082 48.4373L36.1147 49.8489ZM26.9741 37.1446C26.9376 37.1449 26.9017 37.1533 26.869 37.1692C26.8078 37.1985 26.7606 37.2509 26.7378 37.3148C26.715 37.3787 26.7184 37.4491 26.7472 37.5105C26.7618 37.5395 26.7819 37.5653 26.8065 37.5863C26.8312 37.6074 26.8597 37.6233 26.8906 37.6332C28.7772 38.3527 30.3319 39.743 31.2572 41.5376C31.4162 41.8071 31.5625 42.0435 31.699 42.2306C31.919 42.5331 32.3638 43.2433 32.8793 44.0659L32.9254 44.1388C33.4979 45.0633 34.1842 46.1602 34.8461 47.1561C34.7636 46.8286 34.689 46.5188 34.6212 46.238L34.4788 45.6504C34.0743 45.0239 33.6894 44.4082 33.3536 43.8703L32.9333 43.2053C32.568 42.6271 32.2803 42.17 32.1065 41.9291C31.9789 41.7518 31.8522 41.5474 31.7088 41.3149C30.718 39.4053 29.0603 37.9262 27.0506 37.1583C27.0261 37.1492 27.0002 37.1446 26.9741 37.1446Z" fill="#666666"/>
<path d="M62.7405 61.6027C62.7576 61.7224 62.7438 61.8444 62.7003 61.9572C62.633 62.1108 62.5192 62.2394 62.3749 62.3249C62.2306 62.4103 62.0631 62.4482 61.8961 62.4332C61.6966 62.4311 61.4992 62.3934 61.313 62.3218C60.2474 61.9673 38.2213 53.7125 35.6981 52.7198C33.9603 52.111 32.4373 51.0094 31.3149 49.5496C30.7922 48.8811 26.5398 43.2597 25.3435 41.6695C24.1928 40.3985 22.6563 39.5408 20.9705 39.2285C20.841 39.1939 20.7303 39.1096 20.6626 38.9939C20.5949 38.8782 20.5754 38.7405 20.6086 38.6106C20.6244 38.5461 20.6529 38.4854 20.6924 38.432C20.7319 38.3787 20.7817 38.3337 20.8388 38.2998C20.8959 38.2658 20.9591 38.2436 21.0249 38.2344C21.0906 38.2251 21.1576 38.2291 21.2218 38.246C23.1266 38.609 24.8563 39.5962 26.1377 41.0516C27.334 42.6418 31.5864 48.2632 32.1092 48.9215C33.119 50.2389 34.4924 51.2319 36.06 51.7778C38.3822 52.6793 57.1309 59.7187 60.9812 61.1266C60.7044 60.9631 60.4192 60.8144 60.1267 60.681C59.4632 60.3771 57.6436 59.587 55.3214 58.5843C53.4516 57.774 51.6219 56.9738 49.8727 56.2142C42.9161 53.1756 37.3668 50.6637 36.6229 49.9344C36.2032 49.4873 35.8168 49.01 35.4668 48.5063C35.1451 47.3922 34.9038 46.3185 34.7128 45.5488C35.4782 46.8374 36.3491 48.0604 37.3166 49.2052C38.0002 49.8736 45.198 53.0743 51.069 55.6268C52.8081 56.3965 54.4266 57.0954 55.7235 57.6525C58.0457 58.6552 59.8754 59.4452 60.5489 59.7592C61.9463 60.4176 62.6701 61.0253 62.7405 61.5925L62.7405 61.6027Z" fill="#B1B1B1"/>
<path d="M61.8958 62.6859C61.6667 62.6837 61.44 62.6407 61.2261 62.5588C60.1391 62.1973 38.1049 53.9377 35.6069 52.9551C33.8265 52.3293 32.2661 51.1998 31.1157 49.7037C30.5962 49.0397 26.3661 43.4478 25.1427 41.8219C24.027 40.596 22.5393 39.7707 20.9086 39.4729C20.8121 39.4482 20.7213 39.4048 20.6415 39.345C20.5618 39.2852 20.4946 39.2103 20.4437 39.1246C20.3929 39.0388 20.3595 38.9439 20.3453 38.8453C20.3312 38.7466 20.3366 38.6461 20.3613 38.5495C20.386 38.453 20.4295 38.3622 20.4892 38.2824C20.549 38.2026 20.6239 38.1354 20.7097 38.0846C20.7954 38.0338 20.8903 38.0003 20.989 37.9862C21.0877 37.9721 21.1881 37.9775 21.2847 38.0022C23.2462 38.3756 25.0257 39.3961 26.3386 40.9003C27.5641 42.5287 31.7824 48.1059 32.3057 48.7649C33.2889 50.0468 34.626 51.0127 36.1519 51.5434C37.6866 52.1394 46.7065 55.533 53.6113 58.116L49.7721 56.4462C40.9721 52.6014 37.1122 50.7671 36.4475 50.115C36.0158 49.6601 35.6202 49.1723 35.2642 48.656L35.225 48.5768C34.9824 47.7355 34.7821 46.9051 34.6211 46.2377L34.0948 44.1074L34.9245 45.4137C35.675 46.6886 36.5338 47.8967 37.4912 49.0245C37.7838 49.3107 39.948 50.5175 51.1693 55.3957C52.9083 56.166 54.5255 56.8645 55.8226 57.421C58.0447 58.3805 59.9643 59.209 60.6546 59.5311C62.1638 60.2424 62.9052 60.8876 62.9896 61.5614L62.9886 61.5619C63.0131 61.7243 62.9952 61.8902 62.9366 62.0436C62.8521 62.2461 62.7063 62.417 62.5195 62.5323C62.3328 62.6475 62.1146 62.7012 61.8958 62.6859ZM21.0932 38.482C21.049 38.482 21.0056 38.4939 20.9676 38.5164C20.9098 38.552 20.8682 38.6087 20.8517 38.6745C20.843 38.7066 20.8409 38.7401 20.8457 38.7729C20.8504 38.8058 20.8618 38.8374 20.8792 38.8656C20.8956 38.8947 20.9178 38.9202 20.9442 38.9406C20.9707 38.961 21.001 38.9759 21.0333 38.9844C22.7755 39.3068 24.3616 40.1978 25.5433 41.518C26.7667 43.143 30.9929 48.73 31.5123 49.3944C32.6084 50.8175 34.0944 51.8913 35.7896 52.4852C38.2866 53.4673 60.2992 61.7195 61.392 62.0825C61.5527 62.1453 61.7233 62.1789 61.8958 62.1815C62.0115 62.1976 62.1294 62.1759 62.2318 62.1196C62.3342 62.0634 62.4158 61.9755 62.4643 61.8692C62.4926 61.7981 62.5023 61.721 62.4928 61.6451L62.4888 61.5929C62.4505 61.2993 62.0617 60.7516 60.4415 59.9877C59.7591 59.6695 57.8424 58.8425 55.6243 57.8845C54.3271 57.3274 52.708 56.628 50.968 55.8577C37.9881 50.215 37.3508 49.5914 37.1407 49.3865C36.4594 48.6234 35.8463 47.8019 35.3084 46.9317C35.4223 47.3927 35.5519 47.8917 35.6953 48.3935C36.0307 48.8722 36.3991 49.3268 36.798 49.754C37.5697 50.511 44.2438 53.4806 49.9723 55.9837L55.421 58.3529C57.4977 59.2498 59.5175 60.1246 60.2304 60.4517C60.5311 60.5891 60.8244 60.7422 61.1092 60.9102L60.8942 61.3639C57.0372 59.9532 38.2502 52.8989 35.9693 52.0138C34.3584 51.4514 32.9473 50.4299 31.91 49.0752C31.3867 48.4172 27.1634 42.8341 25.937 41.2042C24.6904 39.7935 23.0091 38.8387 21.159 38.4908C21.1376 38.4849 21.1155 38.482 21.0932 38.482Z" fill="#666666"/>
<path d="M62.7501 64.9961H12.4858V65.5005H62.7501V64.9961Z" fill="#4F7053"/>
<path d="M26.3548 28.5635C26.3548 28.5635 27.1605 31.4762 27.35 32.0492L26.5444 32.5744C26.5444 32.5744 25.3596 29.5662 26.3548 28.5635Z" fill="white"/>
<path d="M26.5439 32.827C26.5179 32.8269 26.4921 32.8229 26.4673 32.8152C26.4318 32.8037 26.3993 32.7845 26.3721 32.759C26.3449 32.7334 26.3238 32.7021 26.3102 32.6674C26.1825 32.3438 25.0965 29.4742 26.1766 28.3857C26.2071 28.3538 26.2457 28.3308 26.2882 28.3191C26.3308 28.3075 26.3757 28.3077 26.4182 28.3197C26.4607 28.3309 26.4996 28.3531 26.531 28.3841C26.5623 28.415 26.585 28.4536 26.5969 28.496C26.6047 28.5251 27.403 31.4094 27.5886 31.97C27.6062 32.0229 27.6057 32.0802 27.5872 32.1328C27.5687 32.1854 27.5333 32.2303 27.4865 32.2606L26.6803 32.7862C26.6399 32.813 26.5924 32.8272 26.5439 32.827ZM26.2768 29.2235C26.1634 30.2301 26.2989 31.2492 26.6715 32.1911L27.0525 31.9424C26.8738 31.3553 26.4957 30.0081 26.2768 29.2235Z" fill="#D1D1D1"/>
<path d="M55.9648 65.3001C58.8797 65.3001 61.2426 62.9194 61.2426 59.9826C61.2426 57.0458 58.8797 54.665 55.9648 54.665C53.05 54.665 50.687 57.0458 50.687 59.9826C50.687 62.9194 53.05 65.3001 55.9648 65.3001Z" fill="#424242"/>
<path d="M55.9647 55.1696C56.9183 55.162 57.8526 55.4378 58.6492 55.9621C59.4458 56.4863 60.0687 57.2354 60.4389 58.1142C60.809 58.9931 60.9098 59.9621 60.7285 60.8983C60.5471 61.8345 60.0917 62.6957 59.4201 63.3727C58.7484 64.0497 57.8909 64.5119 56.9561 64.7007C56.0214 64.8896 55.0516 64.7965 54.1699 64.4333C53.2881 64.0701 52.5341 63.4532 52.0035 62.6608C51.4729 61.8685 51.1897 60.9363 51.1897 59.9827C51.1861 58.7117 51.6868 57.4911 52.582 56.5888C53.4772 55.6865 54.6937 55.1761 55.9647 55.1696H55.9647ZM55.9647 54.6652C54.9113 54.6573 53.8793 54.9624 52.9996 55.5419C52.1199 56.1214 51.4321 56.9492 51.0235 57.9201C50.6149 58.8911 50.5039 59.9615 50.7046 60.9957C50.9052 62.0298 51.4085 62.9811 52.1506 63.7288C52.8927 64.4764 53.8402 64.9869 54.8728 65.1953C55.9054 65.4037 56.9766 65.3007 57.9506 64.8994C58.9246 64.4981 59.7575 63.8166 60.3436 62.9412C60.9297 62.0659 61.2425 61.0362 61.2425 59.9827C61.2478 58.5777 60.6947 57.2281 59.7049 56.2309C58.7151 55.2337 57.3698 54.6705 55.9647 54.6652Z" fill="#181818"/>
<path d="M55.9647 63.2741C57.7692 63.2741 59.2319 61.8003 59.2319 59.9822C59.2319 58.1642 57.7692 56.6904 55.9647 56.6904C54.1603 56.6904 52.6975 58.1642 52.6975 59.9822C52.6975 61.8003 54.1603 63.2741 55.9647 63.2741Z" fill="#D1D1D1"/>
<path d="M55.9651 63.5264C55.2631 63.5315 54.5753 63.328 53.9891 62.9417C53.4029 62.5554 52.9447 62.0037 52.6725 61.3566C52.4003 60.7094 52.3264 59.9961 52.4603 59.3069C52.5941 58.6177 52.9296 57.9838 53.4242 57.4856C53.9188 56.9874 54.5502 56.6473 55.2384 56.5085C55.9266 56.3696 56.6405 56.4383 57.2895 56.7058C57.9386 56.9733 58.4936 57.4275 58.8842 58.0109C59.2748 58.5942 59.4833 59.2804 59.4833 59.9825C59.4854 60.9186 59.1163 61.8173 58.4567 62.4817C57.7972 63.146 56.9012 63.5217 55.9651 63.5264ZM55.9651 56.943C55.3629 56.9382 54.7728 57.1124 54.2698 57.4434C53.7668 57.7745 53.3734 58.2476 53.1396 58.8025C52.9059 59.3575 52.8422 59.9695 52.9568 60.5607C53.0713 61.1519 53.3589 61.6958 53.783 62.1233C54.2072 62.5508 54.7487 62.8427 55.339 62.9619C55.9293 63.0812 56.5417 63.0224 57.0985 62.793C57.6554 62.5637 58.1315 62.1741 58.4666 61.6737C58.8016 61.1733 58.9805 60.5847 58.9805 59.9825C58.9827 59.1798 58.6665 58.4091 58.1012 57.8393C57.5359 57.2695 56.7677 56.9472 55.9651 56.943Z" fill="#181818"/>
<path d="M59.3224 51.3729C58.1173 52.1008 56.8758 52.7668 55.6028 53.3683C54.2155 54.057 52.4864 54.9281 51.0689 55.627C50.6266 55.8498 50.2245 56.0524 49.8726 56.2144C48.9678 56.6702 48.3748 56.9741 48.3748 56.9741C47.852 56.8019 40.3425 53.9659 38.2615 53.1859C36.9144 52.6897 36.0599 50.5424 35.4667 48.5065C35.145 47.3924 34.9037 46.3188 34.7127 45.549C34.7089 45.545 34.706 45.5402 34.7043 45.5349C34.7025 45.5296 34.702 45.5241 34.7027 45.5186L59.3224 51.3729Z" fill="#729A77"/>
<path d="M34.7027 45.5187L59.3224 51.3731C58.1173 52.101 56.8758 52.767 55.6028 53.3684C54.2155 54.0572 52.4864 54.9283 51.069 55.6272C50.6266 55.85 50.2245 56.0526 49.8727 56.2146C48.9678 56.6704 48.3748 56.9742 48.3748 56.9742C47.852 56.8021 40.3425 53.9661 38.2615 53.1861C36.9144 52.6898 36.0599 50.5426 35.4668 48.5067C35.1451 47.3926 34.9038 46.3189 34.7128 45.5492C34.7089 45.5451 34.706 45.5403 34.7043 45.5351C34.7026 45.5298 34.702 45.5242 34.7027 45.5187H34.7027ZM34.2 44.8809V45.7271L34.2533 45.7877L34.3739 46.2839C34.536 46.9571 34.7378 47.7949 34.9839 48.6471C35.5261 50.5083 36.4375 53.0515 38.0882 53.6596L40.7312 54.6536C44.6135 56.115 47.8566 57.3344 48.218 57.4535L48.417 57.519L48.6035 57.4234C48.6042 57.4231 49.196 57.1199 50.0983 56.6653C50.4376 56.5094 50.8434 56.3052 51.2896 56.0804C52.1254 55.6683 53.068 55.1971 53.9854 54.7385C54.6264 54.4181 55.2551 54.1039 55.8259 53.8205C57.1183 53.2101 58.3784 52.5334 59.6011 51.7931L60.5642 51.1501L59.4385 50.8824L34.8187 45.028L34.2 44.8809H34.2Z" fill="#2E4B33"/>
<path d="M61.2224 49.0641L35.9393 43.5845C35.85 43.5643 35.7572 43.5643 35.6679 43.5845C34.9269 43.6876 34.2557 44.0766 33.798 44.6683C33.7356 44.7576 33.6959 44.8607 33.6824 44.9689C33.6689 45.077 33.6821 45.1867 33.7207 45.2886C33.7594 45.3904 33.8224 45.4813 33.9042 45.5533C33.986 45.6252 34.0841 45.6761 34.1901 45.7014L59.3024 51.8698C59.5108 51.9226 59.7299 51.9154 59.9344 51.8491C60.1389 51.7828 60.3205 51.66 60.4583 51.495L61.5843 50.1479C61.6599 50.0607 61.7114 49.9554 61.7338 49.8423C61.7562 49.7292 61.7488 49.6122 61.7123 49.5029C61.6758 49.3935 61.6114 49.2955 61.5255 49.2186C61.4396 49.1416 61.3352 49.0884 61.2224 49.0641ZM59.6341 50.9075L35.3864 44.9519C35.6139 44.8049 35.8487 44.6697 36.0901 44.5468L60.4484 49.9352L59.6341 50.9075Z" fill="#2E4B33"/>
<path d="M60.4482 49.9353L59.634 50.9076L35.3862 44.952C35.6137 44.805 35.8486 44.6698 36.0899 44.5469L60.4482 49.9353Z" fill="#729A77"/>
<path d="M42.3025 46.7253C43.1926 46.1217 45.5206 44.4143 47.4549 45.6388C49.3892 46.8633 53.0865 49.3812 53.0865 49.3812L42.3025 46.7253Z" fill="#795E2E"/>
</svg>
