<svg width="72" height="72" viewBox="0 0 72 72" fill="none" xmlns="http://www.w3.org/2000/svg">
<path d="M25.5674 18.3119C33.5561 12.1925 51.1339 5.26353 55.8718 16.4283C56.293 17.4508 56.6183 18.5104 56.8435 19.5931C59.6645 32.5004 52.1994 42.4149 58.661 50.0301C65.1226 57.6452 28.9459 67.7139 24.091 55.3525C19.2362 42.9913 12.955 40.0023 14.7454 35.9259C17.1252 30.5078 19.1045 24.4874 23.3984 20.1867C24.0797 19.5152 24.8043 18.8889 25.5674 18.3119H25.5674Z" fill="#E6E6E6"/>
<path d="M41.6704 44.4148H44.9347V40.6055H41.6704V44.4148Z" fill="#8C8C8C"/>
<path d="M42.4437 52.5553V53.4125C42.4426 54.4279 42.2398 55.433 41.8472 56.3694C41.4545 57.3059 40.8798 58.155 40.1563 58.8675C38.6844 60.3174 36.7008 61.1292 34.6347 61.1274H25.9581C23.654 61.1321 21.4253 60.307 19.6798 58.8031C17.9459 57.3099 16.8182 55.234 16.5092 52.9667L12.5093 35.8482L17.4984 34.7168L20.8389 49.1264H38.973C39.4286 49.1263 39.8798 49.2148 40.3014 49.3872C40.7218 49.5589 41.1043 49.8114 41.4274 50.1304C41.7492 50.448 42.0049 50.8261 42.1798 51.243C42.3541 51.6585 42.4438 52.1047 42.4437 52.5553H42.4437Z" fill="#424242"/>
<path d="M25.9431 61.5002C23.5523 61.5023 21.2405 60.6445 19.4298 59.0834C17.6268 57.5317 16.4544 55.3735 16.1339 53.0164L12.0552 35.5694L17.7836 34.2705L21.1411 48.7543H38.9725C39.478 48.7535 39.9788 48.8517 40.4465 49.0435C40.9131 49.2334 41.3376 49.5135 41.6956 49.8679C42.0523 50.2187 42.3357 50.637 42.5291 51.0984C42.7225 51.5598 42.8222 52.0551 42.8223 52.5554V53.4128C42.8241 54.4776 42.6129 55.532 42.2012 56.514C41.7894 57.496 41.1855 58.3858 40.4248 59.131C38.8848 60.6564 36.8024 61.5085 34.6348 61.5002H25.9431ZM12.9629 36.1283L16.8783 52.8839C17.1713 55.0738 18.2571 57.0803 19.93 58.5235C21.6018 59.9647 23.7362 60.7567 25.9435 60.7549H34.6348C36.6015 60.7622 38.4908 59.989 39.8881 58.605C40.5788 57.9284 41.1272 57.1205 41.5009 56.2288C41.8747 55.3371 42.0664 54.3797 42.0647 53.4128V52.5554C42.0647 52.1531 41.9847 51.7547 41.8292 51.3836C41.6737 51.0124 41.4458 50.676 41.1589 50.3939C40.5765 49.8192 39.7907 49.4978 38.9725 49.4996H20.5363L17.2133 35.1642L12.9629 36.1283Z" fill="#181818"/>
<path d="M12.6398 17.7861L9.45337 18.507L13.4234 35.6364L16.6099 34.9156L12.6398 17.7861Z" fill="#E6E6E6"/>
<path d="M13.1384 36.0843L9 18.2278L12.9248 17.3398L17.0633 35.1964L13.1384 36.0843ZM9.90672 18.7877L13.7087 35.1906L16.1566 34.6365L12.3546 18.2336L9.90672 18.7877Z" fill="#B1B1B1"/>
<path d="M42.9319 46.3665H43.4231L45.0251 45.4697L45.3877 46.1238H47.598L48.3347 45.6386H48.5803L48.8259 46.1238L50.0538 45.1533L50.2994 46.3665L51.7729 45.6386L53.0841 46.1976L54.7199 45.6386L54.9655 46.1238L55.9478 45.6386L56.9302 46.3665H42.9319Z" fill="#4F7053"/>
<path d="M15.7532 61.0016L16.8882 59.8803L17.7392 61.0016H18.3067L20.1573 59.9649L20.5768 60.721H23.131L23.982 60.1603H24.266L24.5495 60.721L25.9686 59.5996L26.252 61.0016L27.9546 60.1603L29.47 60.8062L31.3597 60.1603L31.6438 60.7209L32.7788 60.1603L33.9138 61.0016L15.7532 61.0016Z" fill="#4F7053"/>
<path d="M39.2048 46.1026V45.6013C39.2052 45.3656 39.2524 45.1323 39.3436 44.915C39.4348 44.6976 39.5682 44.5005 39.7361 44.3351C40.0776 43.9985 40.5378 43.8097 41.0174 43.8096H45.588C46.0676 43.8097 46.5279 43.9985 46.8694 44.3351C47.0373 44.5006 47.1707 44.6976 47.2619 44.915C47.3531 45.1323 47.4002 45.3656 47.4007 45.6013V46.1026H39.2048Z" fill="#D1D1D1"/>
<path d="M47.6528 46.3505H38.9517V45.6008C38.9515 45.3323 39.0051 45.0665 39.1091 44.8189C39.2131 44.5714 39.3656 44.3471 39.5575 44.1593C39.9455 43.7746 40.4702 43.5593 41.0167 43.5606H45.5878C46.1346 43.5594 46.6596 43.7749 47.048 44.1598C47.2397 44.3476 47.392 44.5718 47.4958 44.8193C47.5997 45.0667 47.6531 45.3325 47.6528 45.6008V46.3505ZM39.4568 45.8536H47.1476V45.6008C47.1478 45.3977 47.1074 45.1966 47.0288 45.0093C46.9502 44.822 46.8349 44.6522 46.6898 44.5101C46.3964 44.2193 45.9998 44.0565 45.5868 44.0574H41.0177C40.6048 44.0564 40.2085 44.2192 39.9156 44.5101C39.7703 44.6523 39.6549 44.8221 39.5761 45.0094C39.4973 45.1968 39.4568 45.3981 39.4568 45.6013V45.8536Z" fill="#8C8C8C"/>
<path d="M43.3026 41.2404C44.7127 41.2233 46.0863 40.7896 47.2505 39.9937C48.4146 39.1978 49.3174 38.0754 49.8452 36.7677C50.373 35.46 50.5022 34.0254 50.2166 32.6444C49.931 31.2634 49.2434 29.9978 48.2402 29.0066C47.237 28.0155 45.9631 27.3433 44.5787 27.0745C43.1944 26.8056 41.7614 26.9522 40.4602 27.4958C39.159 28.0394 38.0476 28.9558 37.2659 30.1295C36.4842 31.3032 36.0671 32.6819 36.0671 34.0921C36.0788 35.9995 36.8476 37.8242 38.2045 39.1647C39.5614 40.5053 41.3953 41.2519 43.3026 41.2404Z" fill="white"/>
<path d="M43.3029 41.6127C41.8194 41.5945 40.3743 41.138 39.1496 40.3005C37.9249 39.463 36.9753 38.282 36.4201 36.9061C35.865 35.5302 35.7292 34.0209 36.0298 32.568C36.3304 31.1151 37.0539 29.7835 38.1094 28.7408C39.165 27.6982 40.5053 26.991 41.9617 26.7082C43.4182 26.4254 44.9258 26.5797 46.2948 27.1517C47.6638 27.7236 48.833 28.6877 49.6555 29.9225C50.4779 31.1574 50.9167 32.6079 50.9168 34.0916C50.902 36.0978 50.0921 38.0163 48.6648 39.4263C47.2375 40.8362 45.3092 41.6225 43.3029 41.6127ZM43.3029 27.3162C41.9662 27.332 40.6641 27.7428 39.5603 28.4969C38.4565 29.251 37.6005 30.3148 37.0999 31.5543C36.5993 32.7939 36.4765 34.1538 36.747 35.4629C37.0175 36.772 37.6692 37.9719 38.62 38.9116C39.5708 39.8512 40.7784 40.4886 42.0906 40.7436C43.4029 40.9985 44.7612 40.8596 45.9947 40.3444C47.2282 39.8291 48.2818 38.9605 49.0228 37.8479C49.7638 36.7353 50.1592 35.4284 50.1591 34.0916C50.1463 32.2846 49.4172 30.5565 48.1319 29.2863C46.8466 28.0161 45.1099 27.3076 43.3029 27.3162Z" fill="#D1D1D1"/>
<path d="M40.6912 32.8012C41.0093 32.7973 41.3191 32.6995 41.5817 32.52C41.8443 32.3404 42.048 32.0873 42.167 31.7923C42.2861 31.4973 42.3152 31.1737 42.2508 30.8622C42.1864 30.5507 42.0313 30.2652 41.805 30.0416C41.5787 29.818 41.2913 29.6664 40.9791 29.6057C40.6668 29.5451 40.3436 29.5782 40.05 29.7008C39.7565 29.8234 39.5058 30.0301 39.3295 30.2949C39.1532 30.5596 39.0591 30.8706 39.0591 31.1887C39.0617 31.619 39.2351 32.0306 39.5412 32.333C39.8473 32.6354 40.261 32.8038 40.6912 32.8012Z" fill="#E6E6E6"/>
<path d="M44.3163 40.03C44.4742 40.0281 44.628 39.9795 44.7584 39.8903C44.8888 39.8012 44.9899 39.6755 45.049 39.529C45.1081 39.3826 45.1226 39.2219 45.0906 39.0672C45.0586 38.9126 44.9816 38.7708 44.8692 38.6598C44.7569 38.5488 44.6142 38.4735 44.4592 38.4434C44.3041 38.4133 44.1436 38.4297 43.9979 38.4906C43.8522 38.5515 43.7277 38.6541 43.6401 38.7855C43.5526 38.917 43.5059 39.0714 43.5059 39.2293C43.5065 39.3351 43.528 39.4397 43.569 39.5372C43.6101 39.6347 43.67 39.7232 43.7452 39.7975C43.8205 39.8719 43.9097 39.9307 44.0076 39.9706C44.1056 40.0104 44.2105 40.0306 44.3163 40.03Z" fill="#E6E6E6"/>
<path d="M46.5029 38.8746C46.6609 38.8727 46.8147 38.8241 46.9451 38.735C47.0755 38.6459 47.1766 38.5202 47.2357 38.3737C47.2948 38.2272 47.3093 38.0666 47.2773 37.9119C47.2453 37.7573 47.1683 37.6155 47.0559 37.5045C46.9436 37.3935 46.8009 37.3182 46.6459 37.2881C46.4908 37.258 46.3304 37.2744 46.1846 37.3353C46.0389 37.3962 45.9144 37.4988 45.8269 37.6303C45.7393 37.7617 45.6926 37.9161 45.6926 38.0741C45.6939 38.2877 45.78 38.492 45.932 38.6422C46.084 38.7923 46.2893 38.8759 46.5029 38.8746Z" fill="#E6E6E6"/>
<path d="M48.1486 37.0338C48.3065 37.0319 48.4603 36.9833 48.5907 36.8941C48.721 36.805 48.8221 36.6793 48.8812 36.5328C48.9403 36.3864 48.9548 36.2257 48.9228 36.071C48.8908 35.9164 48.8138 35.7746 48.7014 35.6637C48.589 35.5527 48.4464 35.4774 48.2913 35.4473C48.1363 35.4172 47.9758 35.4336 47.8301 35.4945C47.6844 35.5554 47.5599 35.658 47.4724 35.7895C47.3848 35.9209 47.3381 36.0753 47.3381 36.2332C47.3388 36.339 47.3603 36.4436 47.4013 36.5411C47.4424 36.6386 47.5023 36.727 47.5775 36.8014C47.6528 36.8757 47.742 36.9345 47.8399 36.9744C47.9379 37.0143 48.0428 37.0344 48.1486 37.0338Z" fill="#E6E6E6"/>
<path d="M44.4253 37.5954C44.5833 37.5935 44.7371 37.5449 44.8675 37.4558C44.9979 37.3667 45.099 37.241 45.1581 37.0945C45.2173 36.948 45.2317 36.7873 45.1997 36.6327C45.1678 36.478 45.0907 36.3362 44.9784 36.2252C44.866 36.1142 44.7233 36.0389 44.5683 36.0088C44.4132 35.9787 44.2527 35.9951 44.107 36.056C43.9613 36.1169 43.8368 36.2196 43.7492 36.351C43.6617 36.4825 43.615 36.6369 43.615 36.7949C43.6163 37.0085 43.7024 37.2128 43.8544 37.363C44.0063 37.5131 44.2117 37.5967 44.4253 37.5954Z" fill="#E6E6E6"/>
<path d="M46.2869 36.1158C46.4448 36.1139 46.5986 36.0653 46.729 35.9762C46.8594 35.8871 46.9605 35.7614 47.0196 35.6149C47.0787 35.4685 47.0932 35.3078 47.0612 35.1531C47.0292 34.9985 46.9522 34.8567 46.8399 34.7457C46.7275 34.6347 46.5848 34.5594 46.4298 34.5293C46.2748 34.4992 46.1143 34.5156 45.9686 34.5765C45.8228 34.6374 45.6984 34.74 45.6108 34.8715C45.5233 35.0029 45.4766 35.1573 45.4766 35.3153C45.4779 35.5289 45.564 35.7332 45.7159 35.8834C45.8679 36.0335 46.0733 36.1171 46.2869 36.1158Z" fill="#E6E6E6"/>
<path d="M63 46.127H35.6194V46.6238H63V46.127Z" fill="#4F7053"/>
<path d="M46.7482 60.9307H13.7769V61.4275H46.7482V60.9307Z" fill="#4F7053"/>
</svg>
