<svg width="72" height="72" viewBox="0 0 72 72" fill="none" xmlns="http://www.w3.org/2000/svg">
<path d="M54.5695 5.24805H17.4028V66.752H54.5695V5.24805Z" fill="#E6E6E6"/>
<path d="M54.8206 67H17.1521V5H54.8206V67ZM17.6541 66.504H54.3186V5.496H17.6541V66.504Z" fill="white"/>
<path d="M54.5696 20.9961H17.4031V21.2441H54.5696V20.9961Z" fill="white"/>
<path d="M54.5696 35.876H17.4031V36.124H54.5696V35.876Z" fill="white"/>
<path d="M54.5696 51.252H17.4031V51.5H54.5696V51.252Z" fill="white"/>
<path d="M50.5513 66.8764C50.5182 66.8765 50.4865 66.8636 50.4629 66.8403C50.4394 66.8171 50.4261 66.7855 50.4258 66.7524C50.4258 66.5877 50.4224 66.4245 50.416 66.2612C50.415 66.2282 50.4271 66.196 50.4497 66.1719C50.4723 66.1477 50.5035 66.1335 50.5366 66.1324H50.5415C50.5738 66.1322 50.6049 66.1445 50.6283 66.1667C50.6517 66.1889 50.6656 66.2193 50.667 66.2516C50.6734 66.4177 50.6766 66.5846 50.6768 66.7524C50.6765 66.7855 50.6632 66.8171 50.6397 66.8403C50.6161 66.8636 50.5844 66.8765 50.5513 66.8764ZM21.4613 65.8718L21.4515 65.8713C21.4352 65.8702 21.4192 65.8658 21.4046 65.8585C21.39 65.8512 21.3769 65.841 21.3662 65.8286C21.3555 65.8163 21.3474 65.8019 21.3422 65.7864C21.3371 65.7708 21.3351 65.7544 21.3363 65.7381C21.3495 65.5715 21.3664 65.4053 21.3868 65.2397C21.3912 65.2071 21.4083 65.1775 21.4344 65.1573C21.4604 65.1372 21.4934 65.1281 21.5261 65.1321C21.5588 65.136 21.5886 65.1526 21.6091 65.1784C21.6297 65.2041 21.6393 65.2369 21.6358 65.2697C21.6162 65.4315 21.5996 65.5947 21.5863 65.7574C21.5837 65.7887 21.5693 65.8179 21.5462 65.839C21.523 65.8602 21.4927 65.8719 21.4613 65.8718H21.4613ZM50.3042 64.4138C50.2753 64.4139 50.2473 64.4041 50.2248 64.3859C50.2024 64.3677 50.187 64.3423 50.1812 64.314C50.1488 64.1532 50.1125 63.9929 50.0733 63.8335C50.0659 63.8013 50.0716 63.7675 50.0889 63.7394C50.1063 63.7113 50.1341 63.6912 50.1662 63.6834C50.1983 63.6756 50.2322 63.6808 50.2605 63.6978C50.2888 63.7149 50.3093 63.7424 50.3175 63.7744C50.3577 63.9377 50.3939 64.1009 50.4273 64.2656C50.4305 64.2816 50.4305 64.2982 50.4272 64.3142C50.424 64.3302 50.4176 64.3455 50.4084 64.359C50.3993 64.3726 50.3875 64.3842 50.3738 64.3932C50.3602 64.4022 50.3448 64.4084 50.3287 64.4114L50.3042 64.4138ZM21.9079 63.4364C21.8963 63.4365 21.8848 63.4348 21.8736 63.4316C21.8578 63.4273 21.8431 63.4199 21.8302 63.4099C21.8173 63.3998 21.8065 63.3873 21.7985 63.3731C21.7904 63.3588 21.7853 63.3431 21.7834 63.3269C21.7815 63.3107 21.7828 63.2942 21.7873 63.2785C21.8334 63.1186 21.8828 62.9596 21.9354 62.8014C21.9459 62.7701 21.9684 62.7442 21.9979 62.7294C22.0274 62.7146 22.0615 62.712 22.0929 62.7222C22.1243 62.7324 22.1504 62.7546 22.1655 62.7839C22.1806 62.8133 22.1836 62.8474 22.1737 62.8789C22.1222 63.0339 22.0738 63.1897 22.0285 63.3463C22.021 63.3724 22.0051 63.3953 21.9834 63.4116C21.9616 63.4278 21.9351 63.4365 21.9079 63.4364ZM49.5708 62.0453C49.5462 62.0453 49.5221 62.0382 49.5015 62.0247C49.4809 62.0112 49.4648 61.9919 49.4551 61.9693C49.3909 61.8181 49.3237 61.6675 49.2546 61.5188C49.2476 61.504 49.2437 61.488 49.243 61.4717C49.2423 61.4554 49.2449 61.4391 49.2506 61.4238C49.2563 61.4085 49.265 61.3945 49.2762 61.3826C49.2874 61.3707 49.3009 61.3612 49.3158 61.3546C49.3459 61.3408 49.3803 61.3394 49.4114 61.3507C49.4425 61.362 49.4679 61.3852 49.482 61.4151C49.5531 61.5663 49.6213 61.719 49.6865 61.8734C49.6928 61.8884 49.6961 61.9046 49.6961 61.9209C49.6962 61.9372 49.693 61.9534 49.6867 61.9685C49.6805 61.9836 49.6713 61.9973 49.6597 62.0088C49.6482 62.0203 49.6344 62.0294 49.6193 62.0356C49.604 62.0421 49.5874 62.0454 49.5708 62.0452L49.5708 62.0453ZM22.8267 61.1366C22.8068 61.1366 22.7871 61.132 22.7693 61.123C22.7547 61.1157 22.7417 61.1055 22.7311 61.0931C22.7204 61.0807 22.7123 61.0663 22.7073 61.0508C22.7022 61.0353 22.7003 61.0189 22.7016 61.0026C22.7029 60.9863 22.7074 60.9704 22.7149 60.9559C22.7924 60.8077 22.8718 60.6604 22.9546 60.5156C22.9711 60.4868 22.9983 60.4657 23.0302 60.4569C23.0621 60.448 23.0963 60.452 23.1253 60.4681C23.1396 60.4759 23.1522 60.4865 23.1624 60.4993C23.1726 60.512 23.1802 60.5266 23.1847 60.5423C23.1891 60.558 23.1904 60.5745 23.1885 60.5907C23.1865 60.6069 23.1813 60.6225 23.1733 60.6367C23.0924 60.7796 23.0141 60.9238 22.9384 61.0693C22.9277 61.0896 22.9116 61.1066 22.8919 61.1184C22.8722 61.1303 22.8497 61.1366 22.8267 61.1366L22.8267 61.1366ZM48.3892 59.8617C48.3686 59.8618 48.3482 59.8568 48.33 59.8471C48.3118 59.8373 48.2962 59.8232 48.2848 59.806C48.1931 59.6699 48.099 59.5352 48.0024 59.402C47.9929 59.3888 47.986 59.3738 47.9823 59.3579C47.9786 59.342 47.9781 59.3256 47.9808 59.3095C47.9834 59.2934 47.9893 59.278 47.998 59.2642C48.0067 59.2504 48.018 59.2385 48.0314 59.2291C48.0584 59.2098 48.092 59.202 48.1247 59.2073C48.1575 59.2127 48.1869 59.2308 48.2064 59.2577C48.3049 59.3928 48.4007 59.53 48.4937 59.6694C48.5028 59.6829 48.5092 59.6981 48.5123 59.7141C48.5155 59.7301 48.5155 59.7466 48.5122 59.7626C48.5089 59.7785 48.5024 59.7937 48.4932 59.8071C48.4839 59.8206 48.4721 59.832 48.4583 59.8408C48.4379 59.8545 48.4138 59.8617 48.3893 59.8617L48.3892 59.8617ZM24.1739 59.0494C24.1461 59.0493 24.1191 59.0401 24.0969 59.0232C24.0839 59.0134 24.073 59.001 24.0649 58.9869C24.0567 58.9727 24.0514 58.9571 24.0494 58.9409C24.0473 58.9247 24.0485 58.9083 24.0529 58.8926C24.0573 58.8768 24.0647 58.8622 24.0749 58.8494C24.1788 58.7171 24.2849 58.5871 24.3931 58.4594C24.4146 58.4343 24.4452 58.4186 24.4781 58.4157C24.5111 58.4128 24.5439 58.423 24.5696 58.4439C24.5822 58.4542 24.5927 58.467 24.6003 58.4814C24.608 58.4958 24.6127 58.5116 24.6142 58.5278C24.6156 58.5441 24.6138 58.5604 24.6089 58.576C24.6039 58.5915 24.5959 58.6059 24.5852 58.6183C24.4789 58.7442 24.3748 58.872 24.273 59.0014C24.2612 59.0164 24.2461 59.0285 24.229 59.0369C24.2118 59.0452 24.193 59.0494 24.1739 59.0494ZM46.8195 57.9339C46.8027 57.9339 46.786 57.9306 46.7705 57.9241C46.755 57.9176 46.741 57.9081 46.7293 57.8961C46.6145 57.7784 46.4975 57.6629 46.3783 57.5498C46.3664 57.5386 46.3568 57.5252 46.3502 57.5102C46.3435 57.4953 46.3399 57.4792 46.3395 57.4629C46.3392 57.4466 46.3421 57.4304 46.348 57.4152C46.354 57.4 46.363 57.3861 46.3743 57.3744C46.3976 57.3509 46.4292 57.3373 46.4623 57.3365C46.4954 57.3358 46.5275 57.348 46.5518 57.3705C46.6739 57.4863 46.7932 57.604 46.9097 57.7237C46.9211 57.7353 46.9301 57.7491 46.9361 57.7643C46.9421 57.7794 46.9451 57.7956 46.9448 57.8119C46.9445 57.8283 46.941 57.8443 46.9345 57.8593C46.928 57.8742 46.9185 57.8877 46.9068 57.899C46.8832 57.9214 46.852 57.9339 46.8195 57.9339L46.8195 57.9339ZM25.8845 57.2379C25.8669 57.2379 25.8496 57.2343 25.8335 57.2272C25.8175 57.2201 25.8031 57.2097 25.7913 57.1967C25.7803 57.1847 25.7718 57.1706 25.7662 57.1553C25.7607 57.1399 25.7583 57.1236 25.7592 57.1073C25.7601 57.091 25.7642 57.0751 25.7713 57.0604C25.7784 57.0457 25.7884 57.0326 25.8006 57.0219C25.9256 56.9104 26.0534 56.801 26.184 56.6934C26.2095 56.6721 26.2424 56.6618 26.2755 56.6647C26.3085 56.6676 26.3391 56.6835 26.3605 56.7089C26.3711 56.7213 26.3791 56.7357 26.3841 56.7513C26.3891 56.7668 26.3909 56.7832 26.3894 56.7994C26.388 56.8157 26.3833 56.8315 26.3756 56.8459C26.3679 56.8603 26.3575 56.873 26.3448 56.8833C26.2173 56.9889 26.0914 57.0964 25.9683 57.2059C25.9452 57.2265 25.9154 57.2378 25.8844 57.2378L25.8845 57.2379ZM44.9286 56.3122C44.902 56.3122 44.8762 56.3039 44.8546 56.2885C44.7212 56.1926 44.5857 56.0988 44.4481 56.0071C44.4345 55.9981 44.4228 55.9865 44.4137 55.9729C44.4047 55.9594 44.3984 55.9442 44.3952 55.9282C44.3921 55.9122 44.3921 55.8957 44.3954 55.8797C44.3987 55.8638 44.4051 55.8486 44.4143 55.8351C44.4331 55.8078 44.4619 55.789 44.4944 55.7827C44.527 55.7764 44.5607 55.7833 44.5883 55.8017C44.7285 55.8947 44.8666 55.9901 45.0026 56.088C45.0158 56.0975 45.0271 56.1096 45.0357 56.1235C45.0442 56.1374 45.05 56.1528 45.0525 56.1689C45.0551 56.1851 45.0544 56.2016 45.0505 56.2174C45.0467 56.2333 45.0397 56.2482 45.03 56.2614C45.0182 56.2772 45.0029 56.29 44.9853 56.2988C44.9677 56.3076 44.9482 56.3122 44.9285 56.3122L44.9286 56.3122ZM27.8901 55.7489C27.8689 55.749 27.8479 55.7436 27.8293 55.7334C27.8107 55.7231 27.795 55.7083 27.7837 55.6903C27.775 55.6765 27.7691 55.6611 27.7664 55.645C27.7637 55.6289 27.7643 55.6125 27.768 55.5966C27.7717 55.5807 27.7786 55.5658 27.7882 55.5526C27.7978 55.5394 27.81 55.5282 27.8239 55.5198C27.9676 55.4312 28.1122 55.3454 28.2593 55.2612C28.2881 55.2448 28.3223 55.2403 28.3544 55.2488C28.3865 55.2574 28.4139 55.2781 28.4309 55.3067C28.4391 55.3208 28.4444 55.3364 28.4465 55.3526C28.4486 55.3688 28.4475 55.3853 28.4432 55.4011C28.4389 55.4168 28.4316 55.4316 28.4215 55.4445C28.4115 55.4574 28.399 55.4682 28.3848 55.4762C28.2406 55.5585 28.0978 55.6432 27.9563 55.73C27.9365 55.7425 27.9135 55.749 27.8901 55.7488L27.8901 55.7489ZM42.7827 55.0334C42.7633 55.0333 42.7442 55.0288 42.7268 55.0203C42.5787 54.9481 42.4289 54.8781 42.2772 54.8101C42.2623 54.8035 42.2488 54.794 42.2375 54.7821C42.2263 54.7703 42.2175 54.7563 42.2117 54.741C42.206 54.7257 42.2033 54.7095 42.2038 54.6931C42.2044 54.6768 42.2081 54.6607 42.215 54.6459C42.229 54.6159 42.2543 54.5926 42.2854 54.5811C42.3165 54.5696 42.3509 54.5707 42.3811 54.5844C42.5346 54.6532 42.6876 54.7244 42.8386 54.7985C42.8533 54.8056 42.8664 54.8156 42.8772 54.8278C42.888 54.84 42.8963 54.8543 42.9015 54.8697C42.9067 54.8852 42.9089 54.9016 42.9077 54.9178C42.9066 54.9341 42.9023 54.95 42.8949 54.9646C42.8845 54.9854 42.8684 55.0028 42.8486 55.015C42.8288 55.0271 42.8059 55.0335 42.7827 55.0334ZM30.1217 54.6178C30.097 54.6178 30.0728 54.6106 30.0522 54.597C30.0315 54.5834 30.0153 54.564 30.0056 54.5413C29.9993 54.5262 29.9961 54.51 29.9962 54.4936C29.9963 54.4773 29.9995 54.4611 30.0059 54.446C30.0122 54.4309 30.0215 54.4172 30.0331 54.4057C30.0447 54.3942 30.0585 54.3852 30.0737 54.379C30.2296 54.3156 30.387 54.2549 30.5458 54.1969C30.5612 54.191 30.5776 54.1883 30.5941 54.1888C30.6105 54.1893 30.6267 54.1931 30.6417 54.1999C30.6567 54.2067 30.6702 54.2164 30.6814 54.2284C30.6927 54.2405 30.7014 54.2546 30.7071 54.2701C30.7128 54.2854 30.7155 54.3017 30.7148 54.318C30.7142 54.3343 30.7103 54.3504 30.7035 54.3652C30.6966 54.38 30.6868 54.3934 30.6747 54.4044C30.6627 54.4154 30.6485 54.4239 30.6331 54.4294C30.4772 54.4866 30.3228 54.5463 30.1698 54.6086C30.1545 54.6147 30.1382 54.6179 30.1217 54.6178ZM40.4495 54.1276C40.4372 54.1277 40.425 54.1259 40.4133 54.1223C40.2549 54.0753 40.0952 54.0306 39.9343 53.9881C39.9184 53.9841 39.9035 53.977 39.8905 53.9671C39.8774 53.9573 39.8665 53.945 39.8582 53.9309C39.8499 53.9168 39.8446 53.9012 39.8424 53.885C39.8402 53.8688 39.8413 53.8523 39.8455 53.8365C39.8547 53.8048 39.8758 53.7779 39.9045 53.7616C39.9331 53.7452 39.967 53.7406 39.999 53.7489C40.1622 53.7915 40.3245 53.8368 40.4858 53.885C40.5015 53.8895 40.5161 53.8972 40.5289 53.9074C40.5416 53.9177 40.5521 53.9304 40.5599 53.9447C40.5677 53.9591 40.5726 53.9749 40.5743 53.9911C40.5759 54.0074 40.5744 54.0238 40.5696 54.0395C40.5617 54.0651 40.5458 54.0875 40.5241 54.1034C40.5025 54.1193 40.4764 54.1278 40.4495 54.1276ZM32.5113 53.8695C32.4806 53.8698 32.4509 53.8587 32.4279 53.8384C32.4049 53.8181 32.3902 53.79 32.3867 53.7595C32.3833 53.729 32.3912 53.6983 32.4091 53.6734C32.4269 53.6484 32.4534 53.631 32.4833 53.6244C32.6476 53.5876 32.8128 53.5527 32.9785 53.5212C32.9946 53.5173 33.0113 53.5169 33.0277 53.5198C33.044 53.5227 33.0595 53.5289 33.0733 53.5381C33.0871 53.5473 33.0989 53.5592 33.1079 53.5731C33.1169 53.5871 33.1229 53.6027 33.1256 53.619C33.1286 53.6351 33.1285 53.6516 33.1252 53.6676C33.1219 53.6836 33.1154 53.6988 33.1062 53.7123C33.097 53.7258 33.0853 53.7373 33.0716 53.7463C33.0579 53.7552 33.0426 53.7613 33.0266 53.7644C32.8628 53.7958 32.7004 53.8299 32.5392 53.8666C32.53 53.8685 32.5207 53.8695 32.5113 53.8695ZM37.9983 53.6123L37.9821 53.6113C37.8183 53.5899 37.6531 53.572 37.4874 53.556C37.4545 53.5529 37.4242 53.5369 37.4031 53.5115C37.3819 53.4861 37.3717 53.4533 37.3747 53.4204C37.3753 53.4037 37.3796 53.3873 37.3871 53.3724C37.3946 53.3575 37.4052 53.3443 37.4182 53.3337C37.4311 53.3232 37.4462 53.3156 37.4624 53.3113C37.4786 53.307 37.4954 53.3062 37.5119 53.309C37.6806 53.325 37.8477 53.3439 38.0144 53.3652C38.0459 53.369 38.0747 53.3847 38.095 53.4091C38.1152 53.4335 38.1253 53.4647 38.1233 53.4963C38.1212 53.528 38.1071 53.5576 38.0838 53.5792C38.0606 53.6007 38.03 53.6125 37.9983 53.6122V53.6123ZM34.9925 53.5154C34.9599 53.5159 34.9285 53.5035 34.905 53.4811C34.8814 53.4586 34.8677 53.4278 34.8666 53.3952C34.8656 53.3627 34.8774 53.3311 34.8995 53.3072C34.9215 53.2833 34.9521 53.269 34.9846 53.2674C35.1528 53.2572 35.3209 53.2495 35.4901 53.2441C35.5223 53.2458 35.5529 53.2588 35.5766 53.2808C35.6002 53.3027 35.6154 53.3323 35.6195 53.3643C35.6203 53.3973 35.6079 53.4294 35.5851 53.4533C35.5624 53.4773 35.531 53.4913 35.4979 53.4921C35.3317 53.4975 35.1655 53.5052 35.0003 53.5154H34.9925Z" fill="white"/>
<path d="M47.1612 66.876H24.8113V66.752C24.8113 61.2137 29.8242 56.708 35.9862 56.708C42.1483 56.708 47.1612 61.2137 47.1612 66.752L47.1612 66.876ZM25.0633 66.628H46.9092C46.8347 61.2834 41.9635 56.956 35.9862 56.956C30.0089 56.956 25.1378 61.2834 25.0633 66.628Z" fill="white"/>
<path d="M21.4231 5.62334C21.3904 5.6235 21.3589 5.6108 21.3354 5.58797C21.3119 5.56514 21.2984 5.53401 21.2976 5.50128C21.2961 5.417 21.2952 5.33223 21.2952 5.24795C21.2956 5.21494 21.309 5.18342 21.3325 5.16023C21.356 5.13703 21.3877 5.12402 21.4207 5.12402C21.4537 5.12402 21.4854 5.13703 21.5089 5.16023C21.5323 5.18342 21.5457 5.21494 21.5462 5.24795C21.5462 5.33126 21.5472 5.41409 21.5486 5.4974C21.5489 5.51398 21.5458 5.53044 21.5396 5.54581C21.5334 5.56119 21.5242 5.57516 21.5125 5.5869C21.5008 5.59865 21.4869 5.60792 21.4715 5.61418C21.4562 5.62044 21.4397 5.62355 21.4231 5.62334Z" fill="white"/>
<path d="M35.9863 18.7638C35.8995 18.7638 35.8127 18.7634 35.727 18.7619C35.6941 18.7616 35.6626 18.7483 35.6396 18.7249C35.6165 18.7014 35.6037 18.6698 35.604 18.6369C35.6042 18.604 35.6175 18.5726 35.641 18.5495C35.6644 18.5264 35.6961 18.5136 35.729 18.5139H35.731C35.8918 18.5168 36.0555 18.5168 36.2173 18.5139H36.2197C36.2526 18.5136 36.2843 18.5263 36.3078 18.5493C36.3313 18.5724 36.3446 18.6038 36.345 18.6367C36.3453 18.6696 36.3325 18.7012 36.3095 18.7247C36.2865 18.7482 36.2551 18.7616 36.2222 18.7619C36.1437 18.7634 36.0652 18.7638 35.9863 18.7638ZM38.1743 18.6132C38.1427 18.6136 38.1122 18.6019 38.089 18.5805C38.0658 18.5591 38.0516 18.5297 38.0493 18.4982C38.0471 18.4668 38.0569 18.4356 38.0769 18.4111C38.0968 18.3867 38.1254 18.3708 38.1567 18.3666C38.3179 18.3439 38.4778 18.3186 38.6381 18.2921C38.6543 18.2888 38.6709 18.2888 38.6871 18.2922C38.7033 18.2956 38.7186 18.3022 38.7321 18.3117C38.7456 18.3211 38.7571 18.3332 38.7658 18.3473C38.7745 18.3613 38.7802 18.377 38.7827 18.3933C38.7854 18.4094 38.7849 18.4259 38.7813 18.4418C38.7776 18.4577 38.7708 18.4728 38.7612 18.4861C38.7517 18.4994 38.7397 18.5106 38.7257 18.5192C38.7118 18.5278 38.6964 18.5336 38.6802 18.5362C38.518 18.5638 38.3552 18.589 38.192 18.6117L38.1743 18.6132ZM33.7752 18.6098L33.7571 18.6084C33.5933 18.5851 33.4311 18.5599 33.2688 18.5318C33.2527 18.5292 33.2372 18.5233 33.2234 18.5146C33.2095 18.506 33.1975 18.4947 33.188 18.4813C33.1785 18.468 33.1718 18.453 33.1682 18.437C33.1645 18.4211 33.1641 18.4046 33.1668 18.3885C33.1694 18.3722 33.1752 18.3565 33.184 18.3426C33.1928 18.3286 33.2043 18.3165 33.2178 18.3071C33.2314 18.2977 33.2467 18.2911 33.2629 18.2878C33.2791 18.2845 33.2957 18.2844 33.3119 18.2877C33.4712 18.3148 33.6317 18.34 33.7934 18.3633C33.8096 18.3655 33.8252 18.3708 33.8393 18.3791C33.8535 18.3873 33.8658 18.3983 33.8756 18.4114C33.8855 18.4245 33.8927 18.4394 33.8967 18.4552C33.9008 18.4711 33.9016 18.4876 33.8992 18.5038C33.8947 18.5334 33.8797 18.5603 33.8569 18.5798C33.8342 18.5993 33.8052 18.6099 33.7752 18.6098ZM40.5658 18.0857C40.536 18.086 40.507 18.0756 40.4842 18.0563C40.4615 18.0369 40.4465 18.0101 40.4419 17.9806C40.4374 17.9511 40.4437 17.9209 40.4596 17.8956C40.4755 17.8704 40.5 17.8517 40.5285 17.8431C40.684 17.7956 40.8382 17.7459 40.9914 17.6939C41.0227 17.683 41.0571 17.6849 41.087 17.6994C41.1168 17.7138 41.1398 17.7395 41.1507 17.7709C41.156 17.7863 41.1582 17.8027 41.1572 17.819C41.1562 17.8353 41.1519 17.8513 41.1446 17.8659C41.1374 17.8806 41.1273 17.8936 41.1149 17.9043C41.1026 17.915 41.0882 17.9232 41.0727 17.9283C40.9173 17.9811 40.7607 18.0318 40.603 18.0804C40.5909 18.0838 40.5784 18.0856 40.5658 18.0857V18.0857ZM31.3842 18.0794C31.3714 18.0794 31.3587 18.0774 31.3465 18.0736C31.1891 18.0252 31.0322 17.9743 30.8773 17.9211C30.8618 17.9158 30.8475 17.9076 30.8352 17.8968C30.8229 17.886 30.8129 17.8729 30.8057 17.8582C30.7985 17.8436 30.7942 17.8276 30.7932 17.8113C30.7922 17.795 30.7945 17.7786 30.7999 17.7631C30.8115 17.7322 30.8346 17.707 30.8644 17.6927C30.8942 17.6784 30.9283 17.6763 30.9597 17.6866C31.1126 17.7389 31.2667 17.7891 31.422 17.8373C31.4376 17.842 31.4522 17.8498 31.4648 17.8602C31.4774 17.8706 31.4878 17.8834 31.4954 17.8979C31.503 17.9124 31.5077 17.9282 31.5091 17.9445C31.5106 17.9607 31.5088 17.9771 31.5039 17.9927C31.4957 18.018 31.4797 18.04 31.4582 18.0556C31.4367 18.0712 31.4108 18.0795 31.3842 18.0794V18.0794ZM42.8396 17.1867C42.8164 17.1868 42.7936 17.1804 42.7738 17.1683C42.7539 17.1561 42.7379 17.1387 42.7274 17.118C42.72 17.1034 42.7156 17.0875 42.7145 17.0712C42.7134 17.0549 42.7155 17.0385 42.7207 17.0231C42.726 17.0076 42.7343 16.9933 42.7451 16.9811C42.7559 16.9689 42.769 16.9589 42.7837 16.9518C42.9293 16.8796 43.074 16.806 43.2166 16.7295C43.2458 16.7136 43.2801 16.7099 43.312 16.7193C43.3439 16.7286 43.3708 16.7502 43.3867 16.7794C43.3946 16.7937 43.3995 16.8094 43.4012 16.8257C43.4029 16.8419 43.4013 16.8583 43.3966 16.874C43.3919 16.8896 43.3842 16.9041 43.3738 16.9168C43.3634 16.9294 43.3507 16.9398 43.3363 16.9475C43.1907 17.025 43.0437 17.1004 42.8955 17.1737C42.8781 17.1823 42.859 17.1867 42.8396 17.1867V17.1867ZM29.1114 17.1756C29.092 17.1756 29.0729 17.1711 29.0555 17.1625C28.908 17.0899 28.7617 17.0146 28.6167 16.9368C28.6023 16.9291 28.5896 16.9187 28.5792 16.9061C28.5689 16.8935 28.5611 16.8789 28.5564 16.8633C28.5517 16.8477 28.5502 16.8313 28.5519 16.815C28.5536 16.7988 28.5584 16.7831 28.5662 16.7687C28.5823 16.7397 28.6092 16.7182 28.6411 16.7088C28.6729 16.6995 28.7071 16.7031 28.7364 16.7188C28.879 16.7954 29.0227 16.8693 29.1673 16.9407C29.182 16.9478 29.1951 16.9577 29.206 16.97C29.2168 16.9822 29.225 16.9965 29.2303 17.0119C29.2355 17.0274 29.2377 17.0437 29.2365 17.06C29.2354 17.0763 29.231 17.0922 29.2237 17.1068C29.2132 17.1275 29.1971 17.1449 29.1773 17.1571C29.1575 17.1692 29.1347 17.1756 29.1114 17.1756V17.1756ZM44.937 15.9298C44.9172 15.9298 44.8978 15.9252 44.8802 15.9164C44.8626 15.9075 44.8473 15.8947 44.8355 15.8789C44.8258 15.8658 44.8188 15.8508 44.8149 15.835C44.8111 15.8191 44.8104 15.8026 44.813 15.7865C44.8155 15.7704 44.8213 15.7549 44.8298 15.741C44.8384 15.7271 44.8496 15.715 44.8629 15.7055C44.9948 15.6111 45.1246 15.5143 45.2522 15.4154C45.2786 15.3952 45.3118 15.3861 45.3448 15.3901C45.3777 15.3941 45.4079 15.4108 45.4287 15.4367C45.4388 15.4495 45.4463 15.4642 45.4506 15.48C45.455 15.4957 45.4563 15.5122 45.4543 15.5284C45.4523 15.5446 45.4471 15.5602 45.439 15.5744C45.4309 15.5886 45.42 15.6011 45.4071 15.6111C45.2767 15.7113 45.1447 15.8097 45.011 15.9061C44.9894 15.9214 44.9635 15.9297 44.937 15.9298V15.9298ZM27.0199 15.9191C26.9934 15.9192 26.9675 15.9109 26.946 15.8954C26.8131 15.7995 26.6817 15.7015 26.5518 15.6014C26.5388 15.5914 26.528 15.579 26.5199 15.5648C26.5118 15.5506 26.5066 15.5349 26.5046 15.5187C26.5026 15.5025 26.5038 15.486 26.5082 15.4703C26.5126 15.4546 26.5201 15.4398 26.5302 15.427C26.551 15.4011 26.5811 15.3843 26.6141 15.3803C26.6471 15.3763 26.6803 15.3855 26.7067 15.4057C26.8337 15.5045 26.9628 15.6009 27.094 15.6949C27.1073 15.7044 27.1185 15.7164 27.1271 15.7303C27.1357 15.7442 27.1414 15.7597 27.144 15.7758C27.1465 15.792 27.1458 15.8084 27.142 15.8243C27.1381 15.8402 27.1311 15.8551 27.1215 15.8683C27.1097 15.8841 27.0944 15.897 27.0768 15.9058C27.0592 15.9147 27.0397 15.9192 27.02 15.9191L27.0199 15.9191ZM46.7901 14.3444C46.7576 14.3445 46.7263 14.332 46.7029 14.3095C46.691 14.2983 46.6816 14.2848 46.675 14.2698C46.6684 14.2549 46.6649 14.2388 46.6647 14.2225C46.6644 14.2061 46.6674 14.1899 46.6734 14.1748C46.6795 14.1596 46.6885 14.1458 46.6999 14.1342C46.8132 14.0189 46.9249 13.9017 47.0338 13.7835C47.0562 13.759 47.0874 13.7444 47.1206 13.7429C47.1538 13.7413 47.1862 13.753 47.2108 13.7753C47.223 13.7861 47.2329 13.7992 47.2399 13.814C47.2469 13.8287 47.2509 13.8446 47.2517 13.8609C47.2525 13.8772 47.25 13.8935 47.2444 13.9088C47.2388 13.9241 47.2302 13.9382 47.2191 13.9501C47.1083 14.0702 46.9954 14.1891 46.8804 14.3066C46.8686 14.3186 46.8545 14.3281 46.8391 14.3346C46.8236 14.3411 46.8069 14.3444 46.7901 14.3444ZM25.1721 14.3333C25.1553 14.3333 25.1387 14.3299 25.1232 14.3234C25.1077 14.317 25.0937 14.3075 25.0819 14.2955C24.9672 14.1787 24.8546 14.0601 24.7441 13.9395C24.7331 13.9274 24.7245 13.9133 24.719 13.898C24.7134 13.8826 24.711 13.8663 24.7118 13.85C24.7126 13.8336 24.7167 13.8176 24.7237 13.8029C24.7308 13.7882 24.7407 13.775 24.753 13.7641C24.7778 13.742 24.8103 13.7305 24.8435 13.7322C24.8767 13.7338 24.9079 13.7484 24.9304 13.7729C25.0388 13.8915 25.1494 14.0083 25.2623 14.1231C25.2738 14.1347 25.2828 14.1485 25.2888 14.1637C25.2949 14.1788 25.2979 14.195 25.2976 14.2113C25.2973 14.2277 25.2938 14.2438 25.2873 14.2587C25.2807 14.2737 25.2712 14.2872 25.2594 14.2984C25.2359 14.3209 25.2047 14.3334 25.1722 14.3333H25.1721ZM48.3359 12.466C48.311 12.466 48.2866 12.4587 48.2658 12.4452C48.2522 12.4361 48.2405 12.4245 48.2314 12.4109C48.2223 12.3973 48.2159 12.3821 48.2128 12.3661C48.2096 12.3501 48.2096 12.3336 48.2128 12.3175C48.216 12.3015 48.2223 12.2863 48.2314 12.2727C48.3221 12.14 48.4099 12.0054 48.4962 11.8692C48.5144 11.8417 48.5426 11.8222 48.5748 11.8149C48.6071 11.8076 48.6409 11.813 48.6692 11.83C48.6832 11.8385 48.6953 11.8497 48.7048 11.863C48.7144 11.8762 48.7212 11.8913 48.7249 11.9072C48.7286 11.9231 48.7291 11.9396 48.7264 11.9557C48.7236 11.9718 48.7177 11.9872 48.709 12.001C48.6217 12.139 48.5321 12.2758 48.4403 12.4113C48.4286 12.4281 48.413 12.4419 48.3948 12.4514C48.3766 12.461 48.3564 12.466 48.3359 12.466H48.3359ZM23.6298 12.4558C23.6093 12.4558 23.5891 12.4508 23.5709 12.4413C23.5527 12.4318 23.5371 12.418 23.5254 12.4011C23.4337 12.2655 23.3443 12.1286 23.2572 11.9904C23.2485 11.9766 23.2426 11.9612 23.2399 11.9451C23.2372 11.929 23.2378 11.9125 23.2415 11.8967C23.2452 11.8808 23.2521 11.8658 23.2617 11.8526C23.2713 11.8394 23.2835 11.8283 23.2974 11.8199C23.3114 11.8111 23.3269 11.8052 23.3431 11.8025C23.3593 11.7997 23.3759 11.8002 23.392 11.8039C23.408 11.8076 23.4231 11.8144 23.4365 11.824C23.4499 11.8335 23.4613 11.8456 23.47 11.8596C23.5558 11.9952 23.6439 12.1295 23.7342 12.2626C23.7434 12.2761 23.7497 12.2914 23.7529 12.3074C23.7561 12.3234 23.7561 12.3399 23.7529 12.3559C23.7498 12.3719 23.7434 12.3872 23.7343 12.4008C23.7252 12.4143 23.7135 12.426 23.6999 12.435C23.6791 12.4486 23.6547 12.4558 23.6298 12.4558ZM49.511 10.3439C49.494 10.3439 49.4772 10.3404 49.4615 10.3338C49.4465 10.3275 49.4328 10.3183 49.4213 10.3067C49.4098 10.295 49.4008 10.2813 49.3947 10.2661C49.3886 10.251 49.3855 10.2348 49.3857 10.2185C49.3859 10.2021 49.3893 10.186 49.3958 10.171C49.46 10.0242 49.5212 9.87635 49.5792 9.72733C49.5911 9.69639 49.6148 9.67143 49.6451 9.65792C49.6753 9.6444 49.7097 9.64343 49.7407 9.65522C49.7717 9.66701 49.7968 9.69059 49.8104 9.72081C49.8241 9.75103 49.8252 9.78542 49.8135 9.81646C49.7542 9.96855 49.6918 10.1193 49.6262 10.2689C49.6164 10.2912 49.6003 10.3102 49.5798 10.3236C49.5594 10.3369 49.5355 10.344 49.511 10.3439ZM22.4566 10.3323C22.4322 10.3324 22.4083 10.3253 22.3878 10.3119C22.3674 10.2986 22.3512 10.2796 22.3414 10.2572C22.2762 10.1076 22.2138 9.95643 22.1541 9.80386C22.1482 9.78861 22.1454 9.77234 22.1458 9.756C22.1463 9.73965 22.15 9.72356 22.1567 9.70864C22.1634 9.69373 22.173 9.68029 22.1849 9.66912C22.1968 9.65794 22.2109 9.64924 22.2262 9.64353C22.2572 9.63147 22.2916 9.63219 22.3221 9.64555C22.3525 9.6589 22.3764 9.68379 22.3885 9.71474C22.4468 9.86441 22.5079 10.0126 22.5718 10.1594C22.5783 10.1744 22.5817 10.1905 22.5819 10.2068C22.5821 10.2232 22.5791 10.2394 22.573 10.2545C22.5669 10.2696 22.5578 10.2834 22.5463 10.295C22.5349 10.3066 22.5212 10.3159 22.5061 10.3221C22.4905 10.3288 22.4736 10.3323 22.4566 10.3323H22.4566ZM50.2602 8.0417C50.2511 8.04167 50.2421 8.0407 50.2332 8.0388C50.2172 8.03542 50.202 8.02891 50.1885 8.01964C50.1751 8.01038 50.1635 7.99854 50.1547 7.98481C50.1458 7.97108 50.1397 7.95573 50.1368 7.93964C50.1338 7.92355 50.1341 7.90704 50.1376 7.89106C50.1719 7.73506 50.2038 7.57864 50.2322 7.42074C50.2383 7.38827 50.2569 7.35951 50.2841 7.3407C50.3113 7.3219 50.3448 7.31457 50.3773 7.32031C50.4098 7.32605 50.4388 7.3444 50.4579 7.37136C50.477 7.39833 50.4847 7.43173 50.4793 7.46433C50.4499 7.62514 50.418 7.78499 50.3827 7.94433C50.3764 7.97206 50.3608 7.99681 50.3385 8.0145C50.3163 8.0322 50.2886 8.04179 50.2602 8.0417ZM21.7085 8.0277C21.6801 8.02779 21.6524 8.01821 21.6302 8.00051C21.6079 7.98282 21.5923 7.95807 21.5859 7.93034C21.5506 7.77098 21.5188 7.61114 21.4903 7.44984C21.4851 7.41727 21.493 7.38397 21.5122 7.35714C21.5313 7.33031 21.5603 7.31212 21.5928 7.30651C21.6253 7.30091 21.6587 7.30833 21.6858 7.32718C21.7129 7.34603 21.7314 7.37478 21.7374 7.40721C21.7659 7.56464 21.7967 7.72157 21.8311 7.87706C21.8345 7.89304 21.8348 7.90955 21.8319 7.92564C21.829 7.94173 21.8229 7.95708 21.814 7.97081C21.8051 7.98454 21.7936 7.99637 21.7801 8.00564C21.7666 8.0149 21.7515 8.02141 21.7355 8.02479C21.7266 8.02668 21.7176 8.02764 21.7085 8.02766V8.0277Z" fill="white"/>
<path d="M50.5489 5.62334H50.5469C50.5305 5.6232 50.5143 5.61982 50.4992 5.61341C50.4842 5.607 50.4705 5.59768 50.459 5.58599C50.4475 5.57429 50.4385 5.56044 50.4324 5.54524C50.4262 5.53004 50.4232 5.51378 50.4233 5.4974C50.4248 5.41409 50.4258 5.33126 50.4258 5.24795C50.4262 5.21494 50.4396 5.18342 50.4631 5.16023C50.4866 5.13703 50.5183 5.12402 50.5513 5.12402C50.5843 5.12402 50.616 5.13703 50.6395 5.16023C50.663 5.18342 50.6764 5.21494 50.6768 5.24795C50.6768 5.33223 50.6758 5.41695 50.6744 5.50128C50.6736 5.534 50.66 5.56513 50.6366 5.58795C50.6131 5.61078 50.5816 5.62348 50.5489 5.62334Z" fill="white"/>
<path d="M35.9862 15.292C29.8242 15.292 24.8113 10.7864 24.8113 5.24802V5.12402H47.1612V5.24802C47.1612 10.7864 42.1483 15.292 35.9862 15.292ZM25.0632 5.37202C25.1378 10.7166 30.009 15.044 35.9862 15.044C41.9635 15.044 46.8347 10.7166 46.9092 5.37202H25.0632Z" fill="white"/>
<path d="M64.6393 7.08108L66.4149 8.83449C66.8043 9.27565 66.6554 9.58106 65.9108 10.1806C65.172 10.7745 65.0918 10.6953 65.0918 10.6953L62.755 8.38764C62.755 8.38764 62.6748 8.30844 63.2762 7.57882C63.8834 6.8435 64.1926 6.69647 64.6393 7.08108Z" fill="#503D1C"/>
<path d="M65.0952 11.0744C65.0447 11.0746 64.9947 11.0644 64.9483 11.0444C64.9019 11.0244 64.8602 10.995 64.8256 10.9582L62.4885 8.65062C62.2165 8.38034 62.4317 8.01416 62.9837 7.34378C63.3906 6.85117 63.724 6.53972 64.127 6.50578C64.2671 6.4999 64.4069 6.52302 64.5377 6.5737C64.6684 6.62438 64.7873 6.70151 64.8869 6.80028L64.9055 6.81772L66.6807 8.57119C66.7849 8.66983 66.8669 8.78943 66.9214 8.9221C66.9759 9.05478 67.0017 9.1975 66.997 9.34086C66.9626 9.73902 66.647 10.0679 66.1483 10.469C65.6679 10.855 65.3414 11.0744 65.0952 11.0744ZM63.1989 8.30044L65.1801 10.2563C65.3505 10.1434 65.515 10.0217 65.6728 9.89161C66.1356 9.51961 66.24 9.3525 66.2464 9.27743C66.2298 9.20063 66.1893 9.13109 66.1307 9.07883L64.3829 7.35347C64.3306 7.29991 64.2638 7.26286 64.1907 7.24691C64.1147 7.2532 63.9451 7.35686 63.5676 7.81411C63.4363 7.96967 63.3133 8.132 63.1989 8.30042V8.30044Z" fill="#36250D"/>
<path d="M65.0967 10.6943C65.0967 10.6943 62.7663 12.8569 60.4659 15.0293C58.1656 17.2018 51.5259 23.749 49.4867 25.8024C47.4476 27.8459 44.1327 31.5659 43.6104 32.1214C43.309 32.4488 43.0579 32.5976 42.7967 32.548C42.5868 32.5035 42.3987 32.3879 42.2643 32.2206L40.9585 30.931C40.8067 30.8055 40.6921 30.6408 40.627 30.4548C40.5566 30.1771 40.7073 29.9291 41.0589 29.6017C41.2197 29.4529 41.6516 29.0661 42.2342 28.5502C43.6606 27.2904 45.991 25.227 47.4576 23.7986C49.5369 21.7848 56.1666 15.2277 58.3665 12.956C59.4915 11.7854 60.6267 10.6148 61.4504 9.75181C62.2439 8.92843 62.7562 8.38281 62.7562 8.38281L65.0967 10.6943Z" fill="#795E2E"/>
<path d="M42.8941 32.9291C42.8376 32.9292 42.7813 32.9238 42.7259 32.9131C42.4377 32.8579 42.1778 32.7035 41.9915 32.4767L40.6923 31.1941C40.4921 31.0239 40.3435 30.8011 40.2633 30.5508C40.2298 30.3175 40.2623 30.0795 40.3573 29.8638C40.4523 29.6481 40.6059 29.4634 40.8007 29.3307C40.9634 29.1805 41.3973 28.7911 41.9832 28.2733C43.1848 27.2115 45.6846 25.0033 47.1936 23.5337C49.2552 21.5366 55.8717 14.9941 58.0945 12.6987L59.4447 11.2974C60.0869 10.6314 60.687 10.0094 61.1763 9.49646C61.9685 8.67446 62.4794 8.13053 62.4804 8.13004L62.7461 7.84668L65.6381 10.7026L65.3547 10.9656C65.3542 10.966 63.025 13.1268 60.7262 15.2978C58.4039 17.4911 51.778 24.0263 49.7552 26.0626C48.2138 27.6072 45.9273 30.1284 44.6992 31.4827C44.3031 31.9196 44.0128 32.2398 43.8864 32.3745C43.7674 32.5295 43.618 32.6587 43.4474 32.7541C43.2768 32.8495 43.0885 32.909 42.8941 32.9291ZM62.7657 8.91817C62.5383 9.15793 62.1765 9.53768 61.723 10.0085C61.2337 10.521 60.6331 11.1439 59.9899 11.8104L58.6397 13.2121C56.4115 15.5129 49.7852 22.0656 47.7217 24.0641C46.2004 25.5458 43.6913 27.7623 42.4852 28.8279C41.9062 29.3404 41.4763 29.725 41.3164 29.8732C40.9537 30.2113 40.9806 30.3183 40.9924 30.3643C41.0408 30.4808 41.1183 30.5828 41.2174 30.6608L42.5308 31.9574C42.7058 32.1396 42.7999 32.1734 42.8411 32.1783C42.9897 32.2059 43.1887 32.0257 43.3314 31.8712C43.4598 31.7346 43.7466 31.4183 44.1384 30.9862C45.3709 29.6276 47.6648 27.0977 49.2184 25.5409C51.2432 23.5026 57.8788 16.9573 60.2056 14.7602C62.0269 13.0402 63.8674 11.3264 64.5562 10.6861L62.7657 8.91817Z" fill="#36250D"/>
<path d="M43.903 31.6598L41.927 28.7568L42.551 28.3418L44.528 31.2438L43.903 31.6598Z" fill="#36250D"/>
<path d="M45.8549 29.5367L44.0349 26.9177L44.4489 26.6367L46.2689 29.2567L45.8549 29.5367Z" fill="#36250D"/>
<path d="M47.702 27.5349L46.012 25.1199L46.424 24.8389L48.115 27.2529L47.702 27.5349Z" fill="#36250D"/>
<path d="M49.5739 25.6086L47.9609 23.2967L48.3749 23.0146L49.9879 25.3266L49.5739 25.6086Z" fill="#36250D"/>
<path d="M51.473 23.6822L49.886 21.3962L50.3 21.1152L51.886 23.4012L51.473 23.6822Z" fill="#36250D"/>
<path d="M53.4109 21.8213L51.7849 19.5233L52.1969 19.2393L53.8219 21.5383L53.4109 21.8213Z" fill="#36250D"/>
<path d="M55.308 19.9198L53.709 17.6208L54.122 17.3398L55.722 19.6388L55.308 19.9198Z" fill="#36250D"/>
<path d="M57.222 18.0352L55.571 15.7362L55.98 15.4492L57.6311 17.7482L57.222 18.0352Z" fill="#36250D"/>
<path d="M59.1549 16.1942L57.5039 13.7672L57.9209 13.4902L59.5719 15.9172L59.1549 16.1942Z" fill="#36250D"/>
<path d="M61.081 14.3195L59.377 11.8405L59.793 11.5615L61.4959 14.0405L61.081 14.3195Z" fill="#36250D"/>
<path d="M63.045 12.4844L61.25 9.89035L61.665 9.61035L63.459 12.2044L63.045 12.4844Z" fill="#36250D"/>
<path d="M42.7968 32.5482C42.636 32.7268 42.3246 33.0541 41.8826 33.5105C38.7988 36.7444 29.5172 46.4858 22.2245 54.0647C13.3548 63.2903 12.9931 62.7447 12.0589 63.0522C11.1518 63.3508 10.1749 63.3635 9.26038 63.0885C8.34585 62.8135 7.53794 62.264 6.94605 61.5146C6.40199 60.9544 5.99963 60.2724 5.77249 59.5252C5.54535 58.7781 5.5 57.9875 5.64021 57.2193C5.72052 56.8324 6.51412 54.6103 8.4327 54.9674C10.3413 55.3146 10.4015 56.4851 10.3212 57.874C10.2508 59.2628 11.3156 58.9354 11.7275 58.5287C12.1393 58.1319 15.2131 55.1559 16.9911 53.3604C18.5782 51.7731 35.3233 35.554 39.6928 31.3479C40.1549 30.9114 40.4764 30.6039 40.627 30.4551C40.6921 30.641 40.8067 30.8057 40.9585 30.9313L42.2644 32.2209C42.3988 32.3881 42.5869 32.5037 42.7968 32.5482Z" fill="#CCA761"/>
<path d="M10.5644 63.6498C9.81013 63.6545 9.06494 63.4854 8.38663 63.1555C7.70832 62.8256 7.11513 62.3439 6.65311 61.7477C6.09196 61.1441 5.67513 60.421 5.43403 59.6329C5.19293 58.8448 5.13386 58.0122 5.26126 57.198C5.39609 56.5431 6.36778 54.2045 8.50236 54.6012C10.863 55.0304 10.7629 56.7538 10.6972 57.8945C10.6776 58.2786 10.7605 58.4559 10.8443 58.4927C10.9577 58.5051 11.0725 58.491 11.1795 58.4515C11.2865 58.412 11.3829 58.3482 11.4611 58.265C11.9847 57.7608 14.9909 54.8478 16.7221 53.0997C18.3389 51.4823 35.2303 35.1235 39.4299 31.0809C39.8917 30.645 40.2113 30.3394 40.3609 30.1916L40.8222 29.7354L40.9908 30.3587C41.0385 30.4775 41.1166 30.5816 41.2173 30.6605L42.5307 31.9572C42.7057 32.1393 42.7999 32.1732 42.8411 32.1781L43.5583 32.2614L43.0783 32.7947C42.916 32.9753 42.6008 33.3057 42.1547 33.7673L41.2418 34.7244C37.6301 38.5127 29.1716 47.3845 22.4973 54.3203C14.3119 62.8341 13.2903 63.1054 12.3886 63.3442C12.3185 63.3626 12.2499 63.3805 12.1778 63.4047C11.6558 63.5687 11.1116 63.6513 10.5644 63.6498ZM8.03221 55.3012C6.54921 55.3012 6.01332 57.2721 6.00891 57.2934C5.89777 58.0077 5.95078 58.738 6.16391 59.4288C6.37703 60.1196 6.74469 60.7527 7.23898 61.2803C7.78351 61.9689 8.52606 62.474 9.36654 62.7276C10.207 62.9812 11.105 62.9711 11.9396 62.6985C12.0268 62.6699 12.1092 62.6481 12.1935 62.6259C12.9186 62.4336 13.9119 62.1701 21.9511 53.8079C28.6245 46.8731 37.0825 38.0022 40.6937 34.2144L41.6085 33.2549C41.8365 33.0194 42.0292 32.8189 42.1841 32.6557C42.1164 32.5998 42.0521 32.54 41.9914 32.4765L40.6922 31.1938C40.6408 31.1458 40.5932 31.0974 40.5506 31.0489C40.3907 31.2015 40.1902 31.3919 39.9529 31.6162C35.7568 35.6554 18.8728 52.0069 17.2589 53.6213C15.5239 55.3733 12.5112 58.2921 11.9901 58.7944C11.8083 58.9876 11.5756 59.1256 11.3189 59.1925C11.0622 59.2594 10.7919 59.2526 10.5389 59.1727C10.2438 59.0434 9.90156 58.7097 9.94519 57.8543C10.0251 56.4777 9.95843 55.6223 8.3646 55.3326C8.25499 55.312 8.14373 55.3015 8.03221 55.3012Z" fill="#795E2E"/>
<path d="M7.36065 7.08108L5.58514 8.83449C5.19568 9.27565 5.34456 9.58106 6.08914 10.1806C6.82796 10.7745 6.90814 10.6953 6.90814 10.6953L9.24497 8.38764C9.24497 8.38764 9.32516 8.30844 8.7238 7.57882C8.11663 6.8435 7.80736 6.69647 7.36065 7.08108Z" fill="#503D1C"/>
<path d="M6.9047 11.0745C6.65859 11.0745 6.33257 10.855 5.85163 10.469C5.35303 10.0679 5.03731 9.73899 5.00299 9.34088C4.99743 9.20173 5.02113 9.06297 5.07256 8.93356C5.12399 8.80415 5.20201 8.68697 5.30156 8.58961L7.11307 6.80033C7.21253 6.70143 7.3314 6.6242 7.46219 6.57352C7.59297 6.52283 7.73284 6.49978 7.87297 6.50583C8.27597 6.53974 8.60934 6.85119 9.01576 7.34332C9.56829 8.01418 9.78351 8.38032 9.5124 8.64968L7.17434 10.9582C7.13978 10.9951 7.09801 11.0244 7.05162 11.0444C7.00523 11.0644 6.95522 11.0746 6.9047 11.0745ZM7.61705 7.35346L5.85163 9.09724C5.80097 9.14561 5.76668 9.20861 5.75357 9.27743C5.75995 9.3525 5.86437 9.51961 6.32718 9.89161C6.48497 10.0217 6.64943 10.1434 6.81989 10.2563L8.80107 8.30044C8.68673 8.13174 8.5635 7.96925 8.43191 7.81364C8.05491 7.35688 7.88527 7.25322 7.80928 7.24693C7.75726 7.23772 7.70039 7.28228 7.61707 7.35349L7.61705 7.35346Z" fill="#36250D"/>
<path d="M6.90332 10.6943C6.90332 10.6943 9.23377 12.8569 11.5341 15.0293C13.8344 17.2018 20.4741 23.749 22.5133 25.8024C24.5525 27.8459 27.8673 31.5659 28.3897 32.1214C28.691 32.4488 28.9421 32.5976 29.2033 32.548C29.4132 32.5035 29.6013 32.3879 29.7357 32.2206L31.0416 30.931C31.1934 30.8055 31.308 30.6408 31.3731 30.4548C31.4434 30.1771 31.2927 29.9291 30.9411 29.6017C30.7804 29.4529 30.3484 29.0661 29.7658 28.5502C28.3395 27.2904 26.009 25.227 24.5424 23.7986C22.4631 21.7848 15.8334 15.2277 13.6335 12.956C12.5085 11.7854 11.3734 10.6148 10.5497 9.75181C9.75614 8.92843 9.24383 8.38281 9.24383 8.38281L6.90332 10.6943Z" fill="#795E2E"/>
<path d="M29.0926 32.932C28.8997 32.9092 28.7133 32.8478 28.5446 32.7514C28.3759 32.655 28.2283 32.5257 28.1106 32.3711C27.9871 32.2398 27.6969 31.9197 27.3007 31.4828C26.0726 30.1284 23.7861 27.6073 22.2452 26.0631C20.2219 24.0263 13.5961 17.4911 11.2737 15.2978C8.9749 13.1264 6.64518 10.9651 6.64518 10.9651L6.36182 10.7021L9.2539 7.84668L9.51957 8.13001C9.52057 8.1305 10.0314 8.67445 10.8222 9.49501C11.3129 10.0094 11.913 10.6314 12.5552 11.2974L13.9064 12.6996C16.1282 14.9941 22.7448 21.5366 24.8058 23.5332C26.3237 25.0115 28.8181 27.2139 30.0168 28.2723C30.6027 28.7915 31.0366 29.1805 31.1983 29.3297C31.3927 29.4618 31.5463 29.6457 31.6417 29.8606C31.7371 30.0754 31.7705 30.3126 31.7381 30.5455C31.6568 30.8009 31.505 31.0282 31.3003 31.2013L30.0016 32.4834C29.8099 32.7134 29.5423 32.8673 29.2471 32.9174C29.1962 32.927 29.1445 32.9319 29.0926 32.932ZM7.44382 10.6856C8.13263 11.3259 9.97306 13.0401 11.7944 14.7602C14.1211 16.9573 20.7568 23.5027 22.782 25.5414C24.3352 27.0977 26.6291 29.6276 27.8616 30.9862C28.2533 31.4183 28.5401 31.7346 28.6656 31.8678C28.8112 32.0257 29.0112 32.2059 29.1318 32.1826C29.2 32.1735 29.2941 32.1395 29.4623 31.9642L30.7752 30.668C30.8789 30.5872 30.9595 30.4807 31.0091 30.359C31.0194 30.3183 31.0463 30.2113 30.6826 29.8722C30.5237 29.725 30.0938 29.3399 29.5143 28.8269C28.3117 27.7647 25.8084 25.554 24.2778 24.0636C22.2148 22.0656 15.5885 15.5129 13.3612 13.2131L12.0101 11.8103C11.3669 11.1438 10.7663 10.521 10.2755 10.007C9.82304 9.53718 9.46123 9.15791 9.23424 8.91815L7.44382 10.6856Z" fill="#36250D"/>
<path d="M27.9929 31.5901L27.5759 31.3131L29.5529 28.4111L29.9689 28.6881L27.9929 31.5901Z" fill="#36250D"/>
<path d="M26.145 29.5367L25.731 29.2567L27.551 26.6367L27.965 26.9177L26.145 29.5367Z" fill="#36250D"/>
<path d="M24.298 27.5349L23.885 27.2529L25.576 24.8389L25.988 25.1199L24.298 27.5349Z" fill="#36250D"/>
<path d="M22.426 25.6086L22.012 25.3266L23.625 23.0146L24.039 23.2967L22.426 25.6086Z" fill="#36250D"/>
<path d="M20.527 23.6822L20.114 23.4012L21.7 21.1152L22.114 21.3962L20.527 23.6822Z" fill="#36250D"/>
<path d="M18.589 21.8213L18.178 21.5383L19.803 19.2393L20.215 19.5233L18.589 21.8213Z" fill="#36250D"/>
<path d="M16.6921 19.9198L16.2781 19.6388L17.8781 17.3398L18.2911 17.6208L16.6921 19.9198Z" fill="#36250D"/>
<path d="M14.7779 18.0352L14.3689 17.7482L16.0199 15.4492L16.4289 15.7362L14.7779 18.0352Z" fill="#36250D"/>
<path d="M12.845 16.1942L12.428 15.9172L14.079 13.4902L14.496 13.7672L12.845 16.1942Z" fill="#36250D"/>
<path d="M10.9189 14.3195L10.5039 14.0405L12.2069 11.5615L12.6229 11.8405L10.9189 14.3195Z" fill="#36250D"/>
<path d="M8.95502 12.4844L8.54102 12.2044L10.335 9.61035L10.75 9.89035L8.95502 12.4844Z" fill="#36250D"/>
<path d="M29.2034 32.5482C29.3641 32.7268 29.6755 33.0541 30.1175 33.5105C33.2013 36.7444 42.4829 46.4858 49.7756 54.0647C58.6454 63.2903 59.007 62.7447 59.9412 63.0522C60.8483 63.3508 61.8252 63.3635 62.7398 63.0885C63.6543 62.8135 64.4622 62.264 65.0541 61.5146C65.5982 60.9544 66.0005 60.2724 66.2276 59.5252C66.4548 58.7781 66.5001 57.9875 66.3599 57.2193C66.2796 56.8324 65.486 54.6103 63.5674 54.9674C61.6589 55.3146 61.5986 56.4851 61.679 57.874C61.7493 59.2628 60.6845 58.9354 60.2726 58.5287C59.8608 58.1319 56.7871 55.1559 55.0091 53.3604C53.4219 51.7731 36.6769 35.554 32.3073 31.3479C31.8452 30.9114 31.5238 30.6039 31.3732 30.4551C31.3081 30.641 31.1934 30.8057 31.0416 30.9313L29.7358 32.2209C29.6014 32.3881 29.4133 32.5037 29.2034 32.5482Z" fill="#DB9D99"/>
<path d="M61.4356 63.6498C60.8884 63.6513 60.3442 63.5686 59.8222 63.4047C59.7501 63.3805 59.6814 63.3626 59.6113 63.3442C58.7098 63.1054 57.6881 62.8346 49.5027 54.3203C42.7396 47.2915 34.2405 38.3766 30.6111 34.5699L29.8433 33.7649C29.3992 33.3057 29.0839 32.9753 28.9216 32.7947L28.4417 32.2614L29.1589 32.1781C29.2001 32.1732 29.2942 32.1393 29.4624 31.964L30.7753 30.6677C30.879 30.587 30.9596 30.4804 31.0092 30.3587L31.1778 29.7354L31.6392 30.1916C31.7887 30.3394 32.1083 30.645 32.5677 31.0785C36.7697 35.1235 53.6611 51.4823 55.2765 53.0982C57.0091 54.8478 60.0153 57.7608 60.5355 58.2617C60.614 58.3454 60.7109 58.4098 60.8185 58.4499C60.9261 58.4899 61.0415 58.5046 61.1557 58.4927C61.2395 58.4558 61.3223 58.2786 61.3027 57.892C61.237 56.7542 61.137 55.0308 63.4991 54.6012C65.6386 54.2025 66.6044 56.544 66.7284 57.1442C66.8643 57.966 66.8105 58.808 66.5711 59.6059C66.3318 60.4038 65.9132 61.1364 65.3474 61.7477C64.8852 62.3438 64.2919 62.8255 63.6135 63.1553C62.9351 63.4852 62.1899 63.6544 61.4356 63.6498ZM29.8159 32.6561C29.9708 32.8189 30.163 33.0184 30.3895 33.2524L31.1592 34.0598C34.7881 37.866 43.2862 46.7805 50.0489 53.8078C58.0876 62.1701 59.0809 62.4336 59.8065 62.6254C59.8908 62.6481 59.9732 62.6699 60.0604 62.6985C60.8951 62.971 61.7932 62.9811 62.6338 62.7275C63.4744 62.4738 64.217 61.9685 64.7615 61.2797C65.2519 60.7582 65.6179 60.1325 65.8322 59.4494C66.0465 58.7664 66.1035 58.0437 65.9989 57.3355C65.9862 57.2706 65.3792 54.9989 63.6369 55.3326C62.042 55.6227 61.9749 56.4781 62.0548 57.8518C62.0984 58.7096 61.7562 59.0434 61.4611 59.1727C61.2073 59.2521 60.9362 59.2585 60.6789 59.191C60.4217 59.1235 60.1886 58.9849 60.0065 58.791C59.4888 58.2921 56.4761 55.3733 54.7396 53.6198C53.1272 52.0068 36.2432 35.6553 32.0446 31.6137C31.8083 31.3909 31.6088 31.201 31.4494 31.0489C31.4043 31.0993 31.3547 31.15 31.3004 31.201L30.0017 32.4832C29.9433 32.5445 29.8813 32.6023 29.8159 32.6561Z" fill="#944A45"/>
</svg>
