<svg width="72" height="72" viewBox="0 0 72 72" fill="none" xmlns="http://www.w3.org/2000/svg">
<path d="M23.3094 23.8341C23.3413 23.3873 23.4705 22.9528 23.6879 22.5611C23.9054 22.1694 24.2058 21.8299 24.5682 21.5665C24.9305 21.3031 25.3461 21.1221 25.7858 21.0361C26.2255 20.9502 26.6786 20.9614 27.1135 21.0689C26.9481 19.3969 28.8226 18.8825 28.8226 18.8825C27.0033 14.8311 30.0355 13.3521 30.0355 13.3521C31.5241 8.01459 35.8796 10.6512 35.8796 10.6512C42.1095 8.97918 44.0943 15.4742 44.0943 15.4742C47.9535 12.5161 50.3242 16.1173 50.3242 16.1173C50.9538 16.2184 51.5472 16.478 52.0488 16.8718C52.5503 17.2655 52.9434 17.7804 53.1911 18.368C57.8222 17.5963 58.5941 22.4193 58.5941 22.4193C59.148 22.1704 59.7718 22.1242 60.3564 22.2888C60.9409 22.4534 61.449 22.8183 61.7917 23.3196C63.6662 22.0978 65.9267 23.3196 65.4305 26.2135C64.9343 29.1073 61.5161 27.6925 61.5161 27.6925C60.2817 28.3383 58.9195 28.7021 57.5275 28.7577C56.1356 28.8133 54.7487 28.5593 53.4668 28.0141C51.041 28.8501 49.7729 27.7568 49.7729 27.7568C44.811 31.7438 36.6515 28.3356 36.6515 28.3356C32.8473 30.8436 28.8778 28.207 28.8778 28.207C27.5546 29.4288 25.4596 28.5928 25.4596 28.5928C19.5605 30.715 17.9616 27.5639 17.9616 27.5639C17.9616 27.5639 14.7088 29.3002 13.6613 27.0494C12.6138 24.7987 14.4332 23.1267 17.3 23.8341C18.1197 23.2591 19.1134 22.9863 20.1118 23.0624C21.2183 23.1053 22.3052 23.3676 23.3094 23.8341Z" fill="#E6E6E6"/>
<path d="M19.2756 39.8125L24.236 54.935C24.6502 56.1367 25.4303 57.1784 26.4668 57.914C27.5034 58.6496 28.7443 59.0421 30.0153 59.0363C31.2863 59.0305 32.5235 58.6268 33.5533 57.8818C34.5831 57.1368 35.3537 56.088 35.7569 54.8826L40.5475 39.8125H19.2756ZM35.6406 44.8824L32.7537 53.9752C32.5435 54.6161 32.1157 55.1633 31.5443 55.5219C30.973 55.8806 30.2941 56.0279 29.6255 55.9386C29.0678 55.8582 28.5441 55.6224 28.1141 55.2582C27.6842 54.894 27.3655 54.4161 27.1945 53.8792L24.2539 44.8911C24.1797 44.658 24.1623 44.4105 24.2033 44.1693C24.2442 43.9281 24.3422 43.7002 24.4892 43.5046C24.6362 43.309 24.8278 43.1514 25.0481 43.045C25.2684 42.9385 25.511 42.8864 25.7555 42.8928H34.1391C34.3818 42.8895 34.6219 42.9434 34.8399 43.0502C35.0579 43.1569 35.2477 43.3135 35.3939 43.5073C35.5401 43.701 35.6386 43.9265 35.6815 44.1654C35.7244 44.4043 35.7104 44.6499 35.6406 44.8824V44.8824Z" fill="#503D1C" stroke="#231400" stroke-width="0.75" stroke-miterlimit="10"/>
<path d="M30.8994 19.4105C32.6887 19.4105 34.1393 17.9943 34.1393 16.2472C34.1393 14.5002 32.6887 13.084 30.8994 13.084C29.11 13.084 27.6594 14.5002 27.6594 16.2472C27.6594 17.9943 29.11 19.4105 30.8994 19.4105Z" fill="#424242"/>
<path d="M30.8992 19.782C30.2034 19.7658 29.5279 19.5446 28.9572 19.1463C28.3865 18.7479 27.9461 18.19 27.6911 17.5424C27.436 16.8949 27.3777 16.1864 27.5235 15.5059C27.6692 14.8254 28.0125 14.203 28.5104 13.7166C29.0082 13.2303 29.6385 12.9017 30.3223 12.772C31.006 12.6422 31.7129 12.7171 32.3543 12.9872C32.9957 13.2574 33.5431 13.7108 33.928 14.2906C34.3129 14.8705 34.5182 15.551 34.5181 16.2469C34.5056 17.1952 34.1177 18.0998 33.4393 18.7625C32.7609 19.4252 31.8475 19.7918 30.8992 19.782ZM30.8992 13.4556C30.3501 13.4692 29.8173 13.6444 29.3674 13.9593C28.9175 14.2742 28.5704 14.7149 28.3697 15.2261C28.169 15.7373 28.1235 16.2963 28.2389 16.8333C28.3543 17.3702 28.6256 17.8611 29.0187 18.2447C29.4117 18.6282 29.9092 18.8873 30.4488 18.9895C30.9884 19.0917 31.5462 19.0324 32.0523 18.8192C32.5584 18.606 32.9904 18.2482 33.2941 17.7906C33.5979 17.3331 33.76 16.7961 33.7601 16.2469C33.7498 15.4977 33.4429 14.7832 32.9066 14.2599C32.3703 13.7367 31.6484 13.4474 30.8992 13.4556Z" fill="#181818"/>
<path d="M7.54932 39.8125L13.1712 56.9683C13.6402 58.3327 14.5249 59.5159 15.7009 60.3516C16.8769 61.1874 18.2852 61.6337 19.7279 61.6279C21.1706 61.6222 22.5753 61.1645 23.7446 60.3194C24.9139 59.4742 25.789 58.284 26.247 56.9159L31.6813 39.8125H7.54932ZM26.1131 45.5631L22.8329 55.8775C22.5964 56.6063 22.1117 57.229 21.4634 57.6372C20.815 58.0454 20.044 58.2132 19.2846 58.1114C18.6519 58.0208 18.0578 57.7532 17.5707 57.3394C17.0836 56.9256 16.7235 56.3825 16.5318 55.7727L13.1891 45.5718C13.1064 45.307 13.088 45.0263 13.1352 44.753C13.1825 44.4796 13.2941 44.2214 13.4609 43.9997C13.6277 43.7781 13.8448 43.5993 14.0944 43.4781C14.3439 43.357 14.6188 43.2969 14.8961 43.303H24.406C24.6817 43.2992 24.9545 43.3605 25.2022 43.4817C25.4498 43.6029 25.6655 43.7808 25.8317 44.0008C25.9979 44.2209 26.11 44.4769 26.1589 44.7483C26.2078 45.0198 26.1921 45.2989 26.1131 45.5631Z" fill="#795E2E"/>
<path d="M19.7049 62.0004C18.1837 62.0134 16.6975 61.5446 15.4591 60.6612C14.2206 59.7779 13.2935 58.5253 12.8106 57.0828L7.02905 39.4404H32.1966L26.6091 57.0265C26.14 58.484 25.2167 59.7531 23.9744 60.6481C22.7321 61.5431 21.2359 62.017 19.7049 62.0004ZM8.06941 40.1851L13.5321 56.854C13.9753 58.1428 14.811 59.2604 15.922 60.0499C17.0329 60.8394 18.3633 61.2611 19.7262 61.2557C21.0891 61.2504 22.4161 60.8183 23.5208 60.0201C24.6256 59.2219 25.4525 58.0977 25.8856 56.8054L31.1661 40.1851L8.06941 40.1851ZM19.6901 58.508C19.5394 58.5081 19.389 58.4991 19.2395 58.4809C18.5351 58.383 17.873 58.0874 17.3299 57.6283C16.7868 57.1692 16.3851 56.5655 16.1713 55.8873L12.8283 45.6864C12.7236 45.371 12.6971 45.0348 12.751 44.7068C12.8049 44.3789 12.9376 44.0689 13.1378 43.8035C13.3414 43.5299 13.6068 43.3082 13.9124 43.1566C14.218 43.0049 14.555 42.9276 14.8961 42.9309H24.4061C24.7428 42.9285 25.0754 43.0049 25.3773 43.1541C25.6792 43.3032 25.942 43.521 26.1447 43.7899C26.3466 44.0541 26.4821 44.363 26.5397 44.6905C26.5974 45.018 26.5754 45.3546 26.4758 45.6718L26.4748 45.6748L23.1945 55.9891C22.9537 56.7268 22.4843 57.3687 21.8541 57.8216C21.224 58.2745 20.466 58.5149 19.6901 58.508ZM14.8961 43.6756C14.6738 43.6731 14.4541 43.7232 14.2549 43.8218C14.0557 43.9204 13.8825 44.0646 13.7496 44.2428C13.6206 44.4142 13.535 44.6144 13.5003 44.8261C13.4655 45.0379 13.4827 45.2549 13.5503 45.4586L16.8929 55.6584C17.0609 56.2007 17.3791 56.6842 17.8107 57.053C18.2423 57.4217 18.7695 57.6607 19.3313 57.742C20.0025 57.8297 20.6833 57.6806 21.2563 57.3202C21.8293 56.9599 22.2587 56.411 22.4705 55.768L25.7509 45.4537C25.8152 45.248 25.8293 45.0299 25.7918 44.8177C25.7544 44.6054 25.6665 44.4053 25.5357 44.234C25.404 44.0592 25.2333 43.9177 25.0371 43.8207C24.841 43.7237 24.6249 43.674 24.406 43.6756H14.8961Z" fill="#231400"/>
<path d="M26.113 45.5622L22.8328 55.8767C22.5963 56.6055 22.1117 57.2282 21.4633 57.6364C20.815 58.0446 20.0439 58.2124 19.2846 58.1106C18.6519 58.02 18.0577 57.7524 17.5706 57.3386C17.0836 56.9247 16.7234 56.3816 16.5318 55.7719L13.1891 45.571C13.1064 45.3062 13.0879 45.0255 13.1352 44.7521C13.1824 44.4788 13.2941 44.2206 13.4609 43.9989C13.6276 43.7772 13.8448 43.5984 14.0943 43.4773C14.3439 43.3561 14.6187 43.2961 14.8961 43.3022H24.4059C24.6817 43.2984 24.9544 43.3597 25.2021 43.4809C25.4498 43.6021 25.6655 43.7799 25.8317 44C25.9979 44.22 26.11 44.4761 26.1589 44.7475C26.2077 45.0189 26.192 45.298 26.113 45.5622Z" fill="white"/>
<path d="M19.6901 58.582C19.5363 58.5817 19.3827 58.5723 19.2301 58.5539C18.5116 58.4544 17.8361 58.1532 17.2819 57.6852C16.7277 57.2172 16.3176 56.6016 16.0993 55.9099L12.7563 45.708C12.648 45.3815 12.6205 45.0336 12.6763 44.6942C12.7321 44.3547 12.8695 44.0339 13.0766 43.7592C13.2873 43.476 13.562 43.2465 13.8782 43.0895C14.1943 42.9324 14.5431 42.8523 14.8962 42.8556H24.4061C24.7547 42.8532 25.099 42.9324 25.4114 43.087C25.7239 43.2415 25.9958 43.4671 26.2054 43.7456C26.4146 44.0188 26.555 44.3383 26.6147 44.6772C26.6744 45.0161 26.6517 45.3643 26.5484 45.6925L26.5474 45.6954L23.2671 56.0097C23.0214 56.7628 22.5422 57.4181 21.8991 57.8806C21.2559 58.3431 20.4822 58.5888 19.6901 58.582ZM14.8961 43.7495C14.6858 43.747 14.4779 43.7943 14.2894 43.8874C14.1009 43.9806 13.9371 44.1171 13.8113 44.2857C13.6891 44.4477 13.608 44.637 13.5751 44.8373C13.5422 45.0376 13.5584 45.2429 13.6223 45.4356L16.9649 55.6355C17.1284 56.1641 17.4383 56.6356 17.8588 56.9952C18.2793 57.3549 18.7931 57.5881 19.3407 57.6677C19.9943 57.7519 20.6568 57.6061 21.2147 57.2553C21.7726 56.9045 22.1911 56.3706 22.3985 55.745L25.6783 45.4317C25.7393 45.2371 25.7526 45.0308 25.7171 44.83C25.6816 44.6292 25.5984 44.4398 25.4745 44.2779C25.3502 44.1124 25.1887 43.9784 25.0032 43.8866C24.8176 43.7948 24.6131 43.7479 24.4061 43.7495L14.8961 43.7495Z" fill="#181818"/>
<path d="M26.113 45.5622L22.8328 55.8767C22.5963 56.6055 22.1117 57.2282 21.4633 57.6364C20.815 58.0446 20.0439 58.2124 19.2846 58.1106C18.6519 58.02 18.0577 57.7524 17.5706 57.3386C17.0836 56.9247 16.7234 56.3816 16.5318 55.7719L13.1891 45.571C13.1064 45.3062 13.0879 45.0255 13.1352 44.7521C13.1824 44.4788 13.2941 44.2206 13.4609 43.9989C13.6276 43.7772 13.8448 43.5984 14.0943 43.4773C14.3439 43.3561 14.6187 43.2961 14.8961 43.3022H24.4059C24.6817 43.2984 24.9544 43.3597 25.2021 43.4809C25.4498 43.6021 25.6655 43.7799 25.8317 44C25.9979 44.22 26.11 44.4761 26.1589 44.7475C26.2077 45.0189 26.192 45.298 26.113 45.5622Z" fill="white"/>
<path d="M19.6899 58.3837C18.9257 58.3849 18.1817 58.1387 17.5691 57.6818C16.9566 57.225 16.5084 56.582 16.2916 55.8492L12.9486 45.6474C12.8501 45.3506 12.8252 45.0344 12.8759 44.7258C12.9266 44.4173 13.0515 44.1257 13.2398 43.876C13.4317 43.6185 13.6818 43.4098 13.9696 43.2671C14.2574 43.1244 14.5748 43.0517 14.896 43.0548H24.4059C24.7231 43.0524 25.0364 43.1244 25.3206 43.265C25.6049 43.4056 25.8523 43.6109 26.0429 43.8644C26.2331 44.1128 26.3608 44.4034 26.415 44.7115C26.4693 45.0197 26.4487 45.3363 26.3548 45.6348L26.3543 45.6368L23.0739 55.951C22.8415 56.6635 22.3882 57.2833 21.7797 57.7207C21.1712 58.1581 20.4393 58.3903 19.6899 58.3837ZM14.896 43.5512C14.654 43.5485 14.4148 43.6031 14.1979 43.7104C13.981 43.8178 13.7926 43.9748 13.6479 44.1688C13.507 44.356 13.4135 44.5745 13.3755 44.8056C13.3375 45.0368 13.3562 45.2738 13.4298 45.4962L16.7723 55.697C16.9481 56.2618 17.2804 56.7652 17.7306 57.1489C18.1807 57.5325 18.7304 57.7809 19.3159 57.865C20.0165 57.9569 20.7271 57.8012 21.3252 57.4248C21.9232 57.0485 22.371 56.4751 22.5913 55.8037L25.8716 45.4904C25.9419 45.2661 25.9573 45.0282 25.9165 44.7967C25.8757 44.5652 25.7799 44.3469 25.6372 44.1601C25.4937 43.9696 25.3076 43.8153 25.0938 43.7095C24.88 43.6038 24.6444 43.5496 24.4059 43.5512H14.896Z" fill="#181818"/>
<path d="M55.8132 39.8121H6.87891C6.87885 37.5913 7.19486 35.3818 7.81742 33.25H54.8747C55.5016 35.3808 55.8177 37.591 55.8132 39.8121Z" fill="#E6E6E6"/>
<path d="M56.1924 40.1846H6.5V39.8123C6.50044 37.5567 6.82147 35.3127 7.45346 33.1475L7.53193 32.8779H55.1595L55.2385 33.1465C55.8752 35.311 56.1965 37.5561 56.1925 39.8123L56.1924 40.1846ZM7.261 39.4399H55.4314C55.4032 37.4725 55.1199 35.5171 54.5885 33.6225H8.10539C7.5771 35.5177 7.29334 37.4727 7.261 39.4399Z" fill="#231400"/>
<path d="M54.8749 33.2499H7.81763C9.34269 28.2091 12.4581 23.7971 16.6982 20.6734C20.9383 17.5497 26.0754 15.882 31.3418 15.9196C36.6096 15.8806 41.7485 17.5475 45.9903 20.6713C50.2321 23.7951 53.349 28.2078 54.8749 33.2499Z" fill="#795E2E"/>
<path d="M55.3776 33.6226H7.3147L7.45338 33.1475C9.03635 28.0481 12.2093 23.5889 16.5083 20.422C20.8073 17.2552 26.0067 15.5469 31.3461 15.5469C36.6856 15.5469 41.885 17.2552 46.184 20.422C50.4829 23.5889 53.6559 28.0481 55.2389 33.1475L55.3776 33.6226ZM8.3264 32.878H54.3659C52.7542 28.0477 49.6639 23.8468 45.5326 20.87C41.4012 17.8933 36.4382 16.2915 31.3461 16.2915C26.2541 16.2915 21.291 17.8933 17.1597 20.87C13.0284 23.8468 9.93809 28.0477 8.3264 32.878Z" fill="#231400"/>
<path d="M61.8369 48.4198H52.7203C47.2246 48.4249 41.8556 46.7691 37.3174 43.6694L31.6814 39.8076H55.8134L62.9446 45.3048C63.2347 45.529 63.4465 45.8392 63.5498 46.191C63.6531 46.5428 63.6426 46.9183 63.5197 47.2638C63.3968 47.6092 63.168 47.907 62.8657 48.1147C62.5635 48.3223 62.2034 48.4291 61.8369 48.4198Z" fill="#795E2E"/>
<path d="M61.8366 48.7929H52.72C47.1456 48.8068 41.6985 47.1266 37.1005 43.9751L30.4756 39.4355H55.9441L63.1785 45.0126C63.5324 45.2772 63.7921 45.6484 63.9194 46.0716C64.0467 46.4949 64.0349 46.9478 63.8857 47.3638C63.7371 47.7867 63.4593 48.1523 63.0916 48.4087C62.7239 48.6652 62.2849 48.7996 61.8366 48.7929ZM32.8869 40.1802L37.5338 43.3643C42.0044 46.428 47.3003 48.0614 52.72 48.0482H61.8366C62.1285 48.0554 62.4151 47.9693 62.6547 47.8024C62.8944 47.6356 63.0745 47.3966 63.1691 47.1204C63.268 46.8512 63.2767 46.5572 63.194 46.2827C63.1113 46.0082 62.9417 45.7679 62.7106 45.5981L55.6826 40.1801L32.8869 40.1802Z" fill="#231400"/>
<path d="M46.2034 29.3242C44.3207 24.1021 41.1731 22.3413 38.6409 21.3912L38.8215 20.9277C41.2496 21.8391 44.7056 23.6842 46.6801 29.1594L46.2034 29.3242Z" fill="#231400"/>
</svg>
