<svg width="72" height="72" viewBox="0 0 72 72" fill="none" xmlns="http://www.w3.org/2000/svg">
<path d="M53.6069 5H18.4614V67H53.6069V5Z" fill="#E6E6E6"/>
<path d="M51.0963 6.5H48.5859V8.5H51.0963V6.5Z" fill="white"/>
<path d="M51.0963 11.25H48.5859V13.25H51.0963V11.25Z" fill="white"/>
<path d="M51.0963 16H48.5859V18H51.0963V16Z" fill="white"/>
<path d="M51.0963 20.75H48.5859V22.75H51.0963V20.75Z" fill="white"/>
<path d="M51.0963 25.5H48.5859V27.5H51.0963V25.5Z" fill="white"/>
<path d="M51.0963 30.25H48.5859V32.25H51.0963V30.25Z" fill="white"/>
<path d="M51.0963 35H48.5859V37H51.0963V35Z" fill="white"/>
<path d="M51.0963 39.75H48.5859V41.75H51.0963V39.75Z" fill="white"/>
<path d="M51.0963 44.5H48.5859V46.5H51.0963V44.5Z" fill="white"/>
<path d="M51.0963 49.25H48.5859V51.25H51.0963V49.25Z" fill="white"/>
<path d="M51.0963 54H48.5859V56H51.0963V54Z" fill="white"/>
<path d="M51.0963 58.75H48.5859V60.75H51.0963V58.75Z" fill="white"/>
<path d="M51.0963 63.5H48.5859V65.5H51.0963V63.5Z" fill="white"/>
<path d="M22.9801 6.5H20.4697V8.5H22.9801V6.5Z" fill="white"/>
<path d="M22.9801 11.25H20.4697V13.25H22.9801V11.25Z" fill="white"/>
<path d="M22.9801 16H20.4697V18H22.9801V16Z" fill="white"/>
<path d="M22.9801 20.75H20.4697V22.75H22.9801V20.75Z" fill="white"/>
<path d="M22.9801 25.5H20.4697V27.5H22.9801V25.5Z" fill="white"/>
<path d="M22.9801 30.25H20.4697V32.25H22.9801V30.25Z" fill="white"/>
<path d="M22.9801 35H20.4697V37H22.9801V35Z" fill="white"/>
<path d="M22.9801 39.75H20.4697V41.75H22.9801V39.75Z" fill="white"/>
<path d="M22.9801 44.5H20.4697V46.5H22.9801V44.5Z" fill="white"/>
<path d="M22.9801 49.25H20.4697V51.25H22.9801V49.25Z" fill="white"/>
<path d="M22.9801 54H20.4697V56H22.9801V54Z" fill="white"/>
<path d="M22.9801 58.75H20.4697V60.75H22.9801V58.75Z" fill="white"/>
<path d="M22.9801 63.5H20.4697V65.5H22.9801V63.5Z" fill="white"/>
<path d="M14.9712 30.2812H57.0968V51.2481C57.0968 51.8002 56.988 52.3469 56.7768 52.8569C56.5655 53.3669 56.2559 53.8304 55.8655 54.2207C55.4751 54.6111 55.0117 54.9207 54.5017 55.132C53.9916 55.3433 53.445 55.452 52.8929 55.452H19.175C18.0601 55.452 16.9908 55.0091 16.2025 54.2207C15.4141 53.4323 14.9712 52.3631 14.9712 51.2481V30.2812Z" fill="white"/>
<path d="M52.884 55.8271H19.184C17.9698 55.8284 16.8047 55.3478 15.9443 54.491C15.0839 53.6342 14.5986 52.4711 14.5947 51.2568V29.9062H57.4733V51.2568C57.4695 52.4711 56.9842 53.6342 56.1238 54.491C55.2634 55.3478 54.0983 55.8283 52.884 55.8271ZM15.3478 30.6562V51.2568C15.3511 52.2718 15.7568 53.244 16.476 53.9602C17.1952 54.6764 18.169 55.0781 19.184 55.0771H52.884C53.8989 55.0781 54.8728 54.6764 55.592 53.9602C56.3112 53.244 56.7169 52.2718 56.7202 51.2568V30.6562H15.3478Z" fill="#D1D1D1"/>
<path d="M57.6236 26.6104H14.4448V30.2811H57.6236V26.6104Z" fill="#424242"/>
<path d="M58 30.6563H14.0681V26.2354H58V30.6563ZM14.8212 29.9063H57.2468V26.9854H14.8212V29.9063Z" fill="#181818"/>
<path d="M26.7601 30.4268L26.3511 30.1358L28.9841 26.4648L29.3931 26.7558L26.7601 30.4268Z" fill="#181818"/>
<path d="M30.296 30.4268L29.887 30.1358L32.52 26.4648L32.928 26.7558L30.296 30.4268Z" fill="#181818"/>
<path d="M33.8321 30.4268L33.4231 30.1358L36.0551 26.4648L36.4641 26.7558L33.8321 30.4268Z" fill="#181818"/>
<path d="M37.367 30.4268L36.958 30.1358L39.591 26.4648L40 26.7558L37.367 30.4268Z" fill="#181818"/>
<path d="M40.9019 30.4268L40.4929 30.1358L43.1259 26.4648L43.5349 26.7558L40.9019 30.4268Z" fill="#181818"/>
<path d="M44.4381 30.4268L44.0291 30.1358L46.6621 26.4648L47.0711 26.7558L44.4381 30.4268Z" fill="#181818"/>
<path d="M47.9739 30.4268L47.5649 30.1358L50.1979 26.4648L50.6069 26.7558L47.9739 30.4268Z" fill="#181818"/>
<path d="M51.5091 30.4268L51.1001 30.1358L53.7331 26.4648L54.1421 26.7558L51.5091 30.4268Z" fill="#181818"/>
<path d="M15.1901 26.6111L57.477 17.9165L56.9446 15.3487C56.8874 15.0758 56.7243 14.8367 56.491 14.6839C56.2577 14.5311 55.9733 14.477 55.7003 14.5336L14.4448 23.0162L15.1901 26.6111Z" fill="#424242"/>
<path d="M14.8973 27.054L14 22.7249L55.624 14.1663C55.9946 14.0898 56.3805 14.1632 56.6971 14.3706C57.0137 14.578 57.2352 14.9024 57.3131 15.2727L57.9216 18.2073L14.8973 27.054ZM14.8894 23.3069L15.4827 26.1673L57.0321 17.6253L56.5756 15.4251C56.5578 15.3381 56.5229 15.2555 56.473 15.1821C56.4231 15.1087 56.3592 15.0459 56.2849 14.9973C56.2109 14.9479 56.1277 14.9139 56.0402 14.8973C55.9528 14.8807 55.8629 14.8819 55.776 14.9007L14.8894 23.3069Z" fill="#181818"/>
<path d="M53.697 18.8422L50.373 15.7772L50.714 15.4102L54.038 18.4752L53.697 18.8422Z" fill="#181818"/>
<path d="M50.2339 19.5541L46.9099 16.4891L47.2509 16.1221L50.5749 19.1871L50.2339 19.5541Z" fill="#181818"/>
<path d="M46.771 20.266L43.448 17.201L43.789 16.834L47.113 19.898L46.771 20.266Z" fill="#181818"/>
<path d="M43.3091 20.9779L39.9851 17.9129L40.3261 17.5459L43.6501 20.6099L43.3091 20.9779Z" fill="#181818"/>
<path d="M39.846 21.6888L36.522 18.6248L36.864 18.2578L40.187 21.3218L39.846 21.6888Z" fill="#181818"/>
<path d="M36.3841 22.4007L33.0601 19.3367L33.4011 18.9697L36.7251 22.0337L36.3841 22.4007Z" fill="#181818"/>
<path d="M32.9209 23.1126L29.5979 20.0486L29.9389 19.6816L33.2619 22.7456L32.9209 23.1126Z" fill="#181818"/>
<path d="M29.459 23.8246L26.135 20.7606L26.476 20.3936L29.8 23.4576L29.459 23.8246Z" fill="#181818"/>
<path d="M54.4638 34.1016H17.0776V34.8516H54.4638V34.1016Z" fill="#181818"/>
<path d="M54.4638 41.9678H17.0776V42.7178H54.4638V41.9678Z" fill="#181818"/>
<path d="M54.4638 50.083H17.0776V50.333H54.4638V50.083Z" fill="#181818"/>
<path d="M26.807 34.4766H26.3049V42.3428H26.807V34.4766Z" fill="#181818"/>
<path d="M36.285 34.4766H35.783V42.3428H36.285V34.4766Z" fill="#181818"/>
<path d="M45.7633 34.4766H45.2612V42.3428H45.7633V34.4766Z" fill="#181818"/>
<path d="M23.396 27.1349V29.2329H16.551V23.4639H19.71L23.396 27.1349Z" fill="#424242"/>
<path d="M23.7729 29.6074H16.1746V23.0889H19.8666L23.7729 26.9795L23.7729 29.6074ZM16.9277 28.8574H23.0198V27.29L19.5548 23.8388H16.9277V28.8574Z" fill="#181818"/>
</svg>
