<svg width="72" height="72" viewBox="0 0 72 72" fill="none" xmlns="http://www.w3.org/2000/svg">
<path d="M56 11H16V61H56V11Z" fill="#D1D1D1"/>
<path d="M55.25 11.75V60.25H16.75V11.75H55.25ZM56 11H16V61H56V11Z" fill="#8C8C8C"/>
<path d="M56 11H16V32.7742H56V11Z" fill="white"/>
<path d="M55.25 11.75V32.0242H16.75V11.75H55.25ZM56 11H16V32.7742H56V11Z" fill="#8C8C8C"/>
<path d="M34.0934 54.5857C34.0918 54.8255 34.169 55.0592 34.3133 55.2507H20.9155C20.7399 55.2499 20.5718 55.1794 20.4481 55.0547C20.3244 54.93 20.2553 54.7614 20.2559 54.5857V54.5781C20.2553 54.4025 20.3244 54.2338 20.4481 54.1091C20.5718 53.9844 20.7399 53.9139 20.9155 53.9131H34.3133C34.1711 54.1086 34.0941 54.344 34.0934 54.5857Z" fill="white"/>
<path d="M34.8169 55.5H20.9155C20.6735 55.4976 20.4422 55.3998 20.2719 55.2278C20.1016 55.0558 20.0061 54.8236 20.0061 54.5815C20.0061 54.3395 20.1016 54.1073 20.2719 53.9353C20.4422 53.7633 20.6735 53.6655 20.9155 53.6631H34.8008L34.5166 54.0586C34.4049 54.2115 34.3443 54.3956 34.3432 54.585C34.3415 54.7702 34.4011 54.9508 34.5127 55.0986L34.8169 55.5ZM20.9155 54.1631C20.8061 54.1654 20.7019 54.2105 20.6253 54.2887C20.5488 54.367 20.5059 54.4721 20.5059 54.5815C20.5059 54.691 20.5488 54.7961 20.6253 54.8743C20.7019 54.9526 20.8061 54.9977 20.9155 55H33.9062C33.8211 54.7273 33.8223 54.435 33.9097 54.1631H20.9155Z" fill="#666666"/>
<path d="M52.6698 54.578V54.5857C52.6703 54.7613 52.6012 54.93 52.4775 55.0547C52.3538 55.1794 52.1857 55.2499 52.0101 55.2507H36.1482C36.2924 55.0591 36.3697 54.8255 36.3681 54.5857C36.3673 54.344 36.2904 54.1086 36.1482 53.9131H52.0101C52.1857 53.9139 52.3538 53.9844 52.4775 54.1091C52.6012 54.2338 52.6703 54.4024 52.6698 54.578Z" fill="#D1D1D1"/>
<path d="M52.0102 55.5H35.6455L35.9487 55.0996C36.0599 54.9512 36.1194 54.7704 36.1182 54.585C36.1171 54.3956 36.0565 54.2115 35.9448 54.0586L35.6606 53.6631H52.0102C52.2521 53.664 52.4838 53.7609 52.6543 53.9325C52.8249 54.104 52.9204 54.3362 52.9199 54.5781V54.585C52.9204 54.8269 52.8249 55.0591 52.6543 55.2306C52.4838 55.4022 52.2521 55.499 52.0102 55.5ZM36.5547 55H52.0102C52.1196 54.9991 52.2241 54.955 52.3009 54.8772C52.3776 54.7994 52.4205 54.6943 52.4199 54.585V54.5782C52.4205 54.4689 52.3776 54.3638 52.3009 54.286C52.2241 54.2082 52.1196 54.164 52.0102 54.1632H36.5518C36.6393 54.4351 36.6403 54.7275 36.5547 55Z" fill="#666666"/>
<path d="M36.3679 54.585C36.3695 54.8248 36.2923 55.0584 36.1481 55.25C36.0456 55.3985 35.9085 55.5199 35.7487 55.6038C35.5889 55.6877 35.4111 55.7315 35.2306 55.7315C35.0502 55.7315 34.8724 55.6877 34.7126 55.6038C34.5528 55.5199 34.4157 55.3985 34.3132 55.25C34.169 55.0584 34.0917 54.8248 34.0933 54.585C34.094 54.3432 34.171 54.1079 34.3132 53.9124C34.4172 53.7659 34.5547 53.6464 34.7143 53.5639C34.8739 53.4815 35.051 53.4385 35.2306 53.4385C35.4103 53.4385 35.5873 53.4815 35.7469 53.5639C35.9066 53.6464 36.0441 53.7659 36.1481 53.9124C36.2902 54.1079 36.3672 54.3433 36.3679 54.585Z" fill="white"/>
<path d="M35.2305 55.9824C35.009 55.9832 34.7906 55.9295 34.5946 55.8262C34.3986 55.7228 34.231 55.5729 34.1065 55.3896C33.9329 55.1575 33.8404 54.8748 33.8433 54.5849C33.844 54.2911 33.9374 54.005 34.1104 53.7676C34.2374 53.5884 34.4056 53.4423 34.6008 53.3415C34.7959 53.2408 35.0124 53.1883 35.232 53.1885C35.4517 53.1887 35.6681 53.2415 35.863 53.3426C36.058 53.4438 36.2259 53.5902 36.3526 53.7696C36.5248 54.0066 36.6177 54.292 36.6182 54.585C36.6137 54.9525 36.4663 55.3039 36.2073 55.5647C35.9483 55.8255 35.598 55.9753 35.2305 55.9824L35.2305 55.9824ZM35.2305 53.6885C35.0908 53.6872 34.9529 53.7201 34.8287 53.7843C34.7046 53.8484 34.5979 53.9419 34.5181 54.0566C34.4056 54.2099 34.3445 54.3948 34.3433 54.5849C34.3416 54.7702 34.4011 54.9508 34.5127 55.0986C34.5949 55.2103 34.7019 55.3014 34.8253 55.3645C34.9488 55.4276 35.0853 55.4611 35.2239 55.4622C35.3626 55.4634 35.4996 55.4321 35.6241 55.3711C35.7485 55.31 35.857 55.2207 35.941 55.1103C36.0564 54.9596 36.1188 54.7748 36.1182 54.5849C36.1172 54.3956 36.0565 54.2114 35.9449 54.0586C35.865 53.9433 35.7581 53.8494 35.6336 53.7849C35.5091 53.7204 35.3707 53.6873 35.2305 53.6885Z" fill="#666666"/>
<path d="M25.2828 46.3284C27.0958 46.3284 28.5655 44.8468 28.5655 43.0192C28.5655 41.1916 27.0958 39.71 25.2828 39.71C23.4697 39.71 22 41.1916 22 43.0192C22 44.8468 23.4697 46.3284 25.2828 46.3284Z" fill="white"/>
<path d="M25.2827 46.5782C24.5776 46.5835 23.8869 46.3792 23.2981 45.9913C22.7093 45.6033 22.249 45.0493 21.9755 44.3994C21.7021 43.7495 21.6279 43.033 21.7623 42.3408C21.8966 41.6487 22.2336 41.012 22.7303 40.5116C23.2271 40.0112 23.8612 39.6697 24.5524 39.5302C25.2436 39.3908 25.9606 39.4598 26.6125 39.7285C27.2644 39.9972 27.8217 40.4534 28.2139 41.0394C28.6061 41.6253 28.8155 42.3145 28.8154 43.0196C28.8177 43.9596 28.447 44.8622 27.7847 45.5293C27.1225 46.1964 26.2227 46.5736 25.2827 46.5782ZM25.2827 39.9601C24.6765 39.9548 24.0825 40.1297 23.5759 40.4627C23.0694 40.7956 22.6732 41.2715 22.4376 41.83C22.2019 42.3885 22.1375 43.0044 22.2525 43.5995C22.3675 44.1947 22.6568 44.7423 23.0835 45.1728C23.5102 45.6033 24.0552 45.8973 24.6493 46.0175C25.2434 46.1378 25.8599 46.0788 26.4204 45.8481C26.981 45.6174 27.4604 45.2254 27.7977 44.7218C28.1351 44.2183 28.3153 43.6258 28.3154 43.0196C28.3181 42.212 28.0003 41.4363 27.4317 40.8627C26.8632 40.2891 26.0903 39.9645 25.2827 39.9601V39.9601Z" fill="#666666"/>
<path d="M46.7173 46.3284C48.5303 46.3284 50.0001 44.8468 50.0001 43.0192C50.0001 41.1916 48.5303 39.71 46.7173 39.71C44.9043 39.71 43.4346 41.1916 43.4346 43.0192C43.4346 44.8468 44.9043 46.3284 46.7173 46.3284Z" fill="white"/>
<path d="M46.7172 46.5782C46.0122 46.5835 45.3214 46.3792 44.7327 45.9913C44.1439 45.6034 43.6836 45.0493 43.4101 44.3994C43.1367 43.7495 43.0625 43.033 43.1968 42.3408C43.3312 41.6487 43.6681 41.012 44.1649 40.5116C44.6616 40.0112 45.2958 39.6697 45.987 39.5302C46.6781 39.3908 47.3951 39.4598 48.047 39.7285C48.6989 39.9972 49.2563 40.4534 49.6485 41.0394C50.0407 41.6253 50.25 42.3145 50.25 43.0196C50.2522 43.9596 49.8816 44.8622 49.2193 45.5293C48.5571 46.1964 47.6572 46.5736 46.7172 46.5782ZM46.7172 39.9601C46.1111 39.9548 45.5171 40.1297 45.0105 40.4627C44.504 40.7956 44.1078 41.2715 43.8721 41.83C43.6365 42.3885 43.5721 43.0044 43.6871 43.5995C43.8021 44.1947 44.0913 44.7423 44.5181 45.1728C44.9448 45.6033 45.4898 45.8973 46.0839 46.0175C46.678 46.1378 47.2945 46.0788 47.855 45.8481C48.4156 45.6175 48.8949 45.2254 49.2323 44.7218C49.5697 44.2183 49.7499 43.6258 49.75 43.0196C49.7527 42.212 49.4349 41.4363 48.8663 40.8627C48.2978 40.2891 47.5249 39.9645 46.7172 39.9601V39.9601Z" fill="#666666"/>
<path d="M36.1932 48.56C39.1756 48.56 41.5932 46.1228 41.5932 43.1164C41.5932 40.11 39.1756 37.6729 36.1932 37.6729C33.2109 37.6729 30.7932 40.11 30.7932 43.1164C30.7932 46.1228 33.2109 48.56 36.1932 48.56Z" fill="white"/>
<path d="M36.1929 48.8107C35.065 48.8193 33.9598 48.4927 33.0178 47.8724C32.0757 47.252 31.3391 46.3658 30.9014 45.3262C30.4637 44.2865 30.3447 43.1403 30.5594 42.0329C30.7742 40.9256 31.313 39.9069 32.1075 39.1062C32.902 38.3055 33.9165 37.7588 35.0221 37.5355C36.1278 37.3122 37.2749 37.4224 38.3179 37.852C39.3609 38.2816 40.2528 39.0113 40.8804 39.9485C41.5081 40.8858 41.8432 41.9883 41.8433 43.1163C41.8474 44.6202 41.2548 46.0643 40.1956 47.1319C39.1363 48.1994 37.6968 48.8031 36.1929 48.8107ZM36.1929 37.923C35.1638 37.9143 34.1553 38.2116 33.2955 38.7771C32.4356 39.3426 31.7631 40.1507 31.3633 41.0991C30.9635 42.0474 30.8544 43.0931 31.0499 44.1035C31.2454 45.1139 31.7367 46.0435 32.4614 46.7742C33.1861 47.505 34.1115 48.0039 35.1203 48.2078C36.129 48.4117 37.1756 48.3114 38.1272 47.9195C39.0788 47.5276 39.8926 46.8618 40.4652 46.0066C41.0378 45.1515 41.3434 44.1455 41.3433 43.1163C41.3475 41.7451 40.8076 40.4283 39.842 39.4547C38.8764 38.4811 37.5641 37.9302 36.1929 37.923Z" fill="#666666"/>
<path d="M34.9241 45.5499V40.8779L38.4001 43.2139L34.9241 45.5499Z" fill="#B1B1B1"/>
<path d="M34.7993 45.7842V40.6436L38.624 43.2139L34.7993 45.7842ZM35.0493 41.1123V45.3154L38.1758 43.2139L35.0493 41.1123Z" fill="#666666"/>
<path d="M45.9451 44.4466V41.8506L47.8761 43.1486L45.9451 44.4466Z" fill="#B1B1B1"/>
<path d="M45.8198 44.6816V41.6172L48.1001 43.1494L45.8198 44.6816ZM46.0698 42.0859V44.2129L47.6518 43.1495L46.0698 42.0859Z" fill="#666666"/>
<path d="M48.1265 41.7568H47.8765V44.2871H48.1265V41.7568Z" fill="#666666"/>
<path d="M26.055 44.4466V41.8506L24.124 43.1486L26.055 44.4466Z" fill="#B1B1B1"/>
<path d="M26.1802 44.6816L23.8999 43.1494L26.1802 41.6172V44.6816ZM24.3482 43.1494L25.9302 44.2129V42.0859L24.3482 43.1494Z" fill="#666666"/>
<path d="M24.106 41.8838H23.856V44.4141H24.106V41.8838Z" fill="#666666"/>
<path d="M41.2113 16.8595C41.1505 16.8074 41.079 16.7695 41.0018 16.7485C40.9246 16.7275 40.8437 16.7238 40.7649 16.7378L34.1535 17.8446C34.0252 17.8679 33.9091 17.9354 33.8254 18.0354C33.7417 18.1353 33.6956 18.2615 33.6951 18.3919V24.3269C33.387 24.1615 33.0433 24.0739 32.6937 24.0715C32.2769 24.0681 31.8684 24.1887 31.5202 24.4178C31.172 24.647 30.8996 24.9744 30.7378 25.3586C30.576 25.7427 30.5319 26.1663 30.6112 26.5756C30.6904 26.9848 30.8895 27.3613 31.1831 27.6573C31.4766 27.9532 31.8515 28.1553 32.2601 28.2379C32.6687 28.3204 33.0927 28.2797 33.4781 28.121C33.8636 27.9622 34.1932 27.6926 34.4251 27.3462C34.6571 26.9998 34.7809 26.5923 34.7809 26.1755V21.1891L40.3065 20.2648V23.2079C39.9984 23.0426 39.6547 22.9549 39.3051 22.9525C38.8883 22.9492 38.4798 23.0697 38.1316 23.2989C37.7833 23.5281 37.511 23.8555 37.3492 24.2397C37.1873 24.6238 37.1433 25.0474 37.2225 25.4567C37.3018 25.8659 37.5009 26.2424 37.7944 26.5384C38.088 26.8343 38.4629 27.0364 38.8715 27.1189C39.2801 27.2015 39.704 27.1608 40.0895 27.0021C40.4749 26.8433 40.8046 26.5736 41.0365 26.2273C41.2684 25.8809 41.3923 25.4734 41.3923 25.0565V17.2729C41.3972 17.1946 41.3834 17.1162 41.3519 17.0443C41.3204 16.9723 41.2722 16.909 41.2113 16.8595ZM32.6937 27.1727C32.4937 27.1743 32.2978 27.1165 32.1307 27.0066C31.9636 26.8966 31.833 26.7395 31.7553 26.5552C31.6777 26.3709 31.6565 26.1677 31.6945 25.9713C31.7326 25.775 31.8281 25.5944 31.9689 25.4524C32.1098 25.3104 32.2896 25.2134 32.4857 25.1738C32.6817 25.1342 32.8851 25.1537 33.07 25.2299C33.255 25.3061 33.4131 25.4354 33.5244 25.6016C33.6357 25.7678 33.6951 25.9633 33.6951 26.1633C33.6959 26.2954 33.6707 26.4264 33.6207 26.5487C33.5708 26.6711 33.4972 26.7823 33.4042 26.8761C33.3111 26.9699 33.2005 27.0444 33.0785 27.0953C32.9566 27.1462 32.8258 27.1725 32.6937 27.1727ZM34.7809 20.0824V18.8418L40.3065 17.9175V19.1459L34.7809 20.0824ZM39.3051 26.0782C39.1051 26.0798 38.9091 26.0219 38.7421 25.912C38.575 25.802 38.4444 25.645 38.3667 25.4606C38.2891 25.2763 38.2679 25.0731 38.3059 24.8768C38.344 24.6804 38.4395 24.4998 38.5803 24.3578C38.7212 24.2158 38.901 24.1189 39.0971 24.0792C39.2931 24.0396 39.4965 24.0592 39.6814 24.1353C39.8664 24.2115 40.0245 24.3409 40.1358 24.5071C40.2471 24.6732 40.3065 24.8687 40.3065 25.0687C40.3073 25.2009 40.2821 25.3318 40.2321 25.4542C40.1822 25.5765 40.1086 25.6878 40.0156 25.7816C39.9225 25.8754 39.8118 25.9499 39.6899 26.0008C39.568 26.0517 39.4372 26.078 39.3051 26.0782H39.3051Z" fill="#97C09B"/>
<path d="M32.6939 28.529C32.0725 28.5246 31.4781 28.2746 31.0402 27.8336C30.6024 27.3926 30.3567 26.7964 30.3567 26.175C30.3567 25.5536 30.6024 24.9574 31.0402 24.5164C31.4781 24.0754 32.0725 23.8254 32.6939 23.821C32.9495 23.8212 33.2033 23.8638 33.4449 23.947V18.3913C33.4454 18.2025 33.512 18.0198 33.6331 17.8749C33.7542 17.73 33.9223 17.6322 34.108 17.5983L40.7233 16.4919C40.8381 16.4702 40.9564 16.475 41.0692 16.5057C41.1819 16.5365 41.2862 16.5926 41.3741 16.6696C41.4649 16.7448 41.5364 16.8406 41.5828 16.9489C41.6293 17.0572 41.6493 17.175 41.6412 17.2926L41.6422 25.0563C41.6388 25.5178 41.4988 25.968 41.2399 26.35C40.9811 26.7321 40.6148 27.029 40.1875 27.2032C39.7601 27.3775 39.2907 27.4213 38.8384 27.3292C38.3862 27.237 37.9714 27.013 37.6462 26.6854C37.3211 26.3579 37.1002 25.9414 37.0115 25.4885C36.9227 25.0355 36.97 24.5665 37.1475 24.1404C37.3249 23.7144 37.6245 23.3504 38.0086 23.0943C38.3926 22.8383 38.8438 22.7017 39.3053 22.7018C39.561 22.702 39.815 22.7446 40.0568 22.8278V20.5593L35.0309 21.4011V26.1755C35.0324 26.7973 34.7872 27.3943 34.3491 27.8355C33.911 28.2767 33.3157 28.5261 32.6939 28.529ZM32.6939 24.321C32.3265 24.3176 31.9664 24.4234 31.6593 24.6251C31.3521 24.8267 31.1118 25.115 30.9688 25.4535C30.8259 25.7919 30.7867 26.1652 30.8562 26.526C30.9258 26.8868 31.101 27.2187 31.3595 27.4798C31.6181 27.7408 31.9484 27.9191 32.3084 27.9921C32.6685 28.0651 33.0422 28.0295 33.382 27.8897C33.7218 27.75 34.0124 27.5124 34.2169 27.2072C34.4215 26.902 34.5308 26.5429 34.5309 26.1755V20.9772L40.5567 19.9694V23.6208L40.1905 23.4294C39.9185 23.2822 39.6145 23.2041 39.3053 23.2018C38.9379 23.1984 38.5778 23.3043 38.2706 23.5059C37.9635 23.7075 37.7232 23.9959 37.5802 24.3343C37.4372 24.6728 37.398 25.0461 37.4675 25.4069C37.5371 25.7676 37.7123 26.0996 37.9708 26.3606C38.2294 26.6217 38.5597 26.8 38.9198 26.873C39.2799 26.946 39.6535 26.9103 39.9933 26.7706C40.3331 26.6308 40.6237 26.3933 40.8283 26.0881C41.0328 25.7829 41.1421 25.4238 41.1422 25.0563V17.2731C41.1465 17.2321 41.1407 17.1907 41.1254 17.1524C41.1101 17.1141 41.0857 17.0801 41.0543 17.0534L41.0436 17.0446C41.0103 17.0177 40.9716 16.9984 40.9301 16.9881C40.8885 16.9778 40.8453 16.9767 40.8033 16.985L34.1949 18.0905C34.1248 18.1038 34.0615 18.1411 34.0159 18.196C33.9702 18.2509 33.9452 18.3199 33.9449 18.3913V24.7409L33.5787 24.5485C33.3069 24.4013 33.0031 24.3231 32.6939 24.321V24.321ZM32.6939 27.4226C32.4445 27.4242 32.2003 27.3518 31.9921 27.2144C31.7839 27.0771 31.6212 26.881 31.5246 26.6511C31.428 26.4211 31.4019 26.1677 31.4495 25.9229C31.4971 25.6781 31.6163 25.4529 31.7921 25.2759C31.9678 25.099 32.1921 24.9782 32.4366 24.9289C32.6811 24.8795 32.9347 24.9039 33.1653 24.9989C33.3959 25.0939 33.5931 25.2552 33.7319 25.4624C33.8707 25.6696 33.9448 25.9134 33.9449 26.1628C33.9456 26.4956 33.8143 26.8151 33.5798 27.0512C33.3453 27.2873 33.0267 27.4209 32.6939 27.4225V27.4226ZM32.6939 25.404C32.494 25.4062 32.303 25.4871 32.1624 25.6293C32.0218 25.7714 31.9429 25.9633 31.9429 26.1633C31.9429 26.3632 32.0218 26.5551 32.1624 26.6973C32.303 26.8394 32.494 26.9204 32.6939 26.9226C32.8935 26.9189 33.0837 26.8373 33.224 26.6954C33.3643 26.5535 33.4436 26.3624 33.4449 26.1628C33.4457 25.9627 33.367 25.7704 33.2263 25.6282C33.0855 25.486 32.8941 25.4053 32.6939 25.404V25.404ZM39.3053 26.3278C39.0559 26.3294 38.8117 26.2569 38.6036 26.1195C38.3955 25.9821 38.2328 25.786 38.1363 25.556C38.0398 25.3261 38.0137 25.0727 38.0613 24.8279C38.109 24.5831 38.2283 24.358 38.404 24.1811C38.5798 24.0041 38.8041 23.8834 39.0486 23.8341C39.293 23.7848 39.5466 23.8092 39.7772 23.9042C40.0078 23.9992 40.2049 24.1606 40.3437 24.3678C40.4825 24.575 40.5566 24.8187 40.5567 25.0681C40.5574 25.4009 40.426 25.7205 40.1914 25.9566C39.9568 26.1928 39.6381 26.3263 39.3053 26.3278V26.3278ZM39.3053 24.3093C39.1547 24.3077 39.0072 24.3509 38.8812 24.4334C38.7553 24.516 38.6568 24.634 38.5981 24.7727C38.5395 24.9113 38.5233 25.0642 38.5518 25.2121C38.5802 25.3599 38.652 25.4959 38.7579 25.6029C38.8638 25.7098 38.9991 25.7829 39.1467 25.8128C39.2942 25.8426 39.4473 25.828 39.5865 25.7707C39.7257 25.7134 39.8447 25.616 39.9285 25.4909C40.0122 25.3658 40.0568 25.2186 40.0567 25.0681C40.0574 24.8679 39.9787 24.6756 39.8379 24.5333C39.697 24.3911 39.5055 24.3105 39.3053 24.3093V24.3093ZM34.5309 20.3776V18.6296L40.5567 17.6228V19.3562L34.5309 20.3776ZM35.0309 19.0534V19.7858L40.0567 18.9343V18.2126L35.0309 19.0534Z" fill="#4F7053"/>
</svg>
