<svg width="72" height="72" viewBox="0 0 72 72" fill="none" xmlns="http://www.w3.org/2000/svg">
<path d="M67.2729 52H4.78174V59.5H67.2729V52Z" fill="#E6E6E6"/>
<path d="M67.2333 51.4775H4.77246V51.9775H67.2333V51.4775Z" fill="#B1B1B1"/>
<path d="M16.6852 21.9625C16.7022 21.6591 16.7858 21.3632 16.9302 21.0958C17.0746 20.8284 17.2761 20.5962 17.5205 20.4156C17.7649 20.235 18.0461 20.1105 18.344 20.0509C18.642 19.9914 18.9495 19.9983 19.2445 20.0711C19.1332 18.9275 20.3943 18.5756 20.3943 18.5756C19.1703 15.8045 21.2103 14.7928 21.2103 14.7928C22.2118 11.142 25.142 12.9454 25.142 12.9454C29.3333 11.8018 30.6685 16.2443 30.6685 16.2443C30.9539 15.9583 31.2997 15.7398 31.6804 15.6047C32.0612 15.4695 32.4674 15.4213 32.8692 15.4635C33.271 15.5057 33.6583 15.6372 34.0028 15.8484C34.3472 16.0596 34.64 16.3452 34.8598 16.6842C35.2856 16.7559 35.6861 16.9349 36.0235 17.2042C36.361 17.4736 36.6243 17.8244 36.7886 18.2237C39.9042 17.6959 40.4235 20.9948 40.4235 20.9948C40.7969 20.8257 41.2182 20.7948 41.6122 20.9076C42.0063 21.0204 42.3474 21.2695 42.5748 21.6106C43.8359 20.7749 45.3566 21.6106 45.0228 23.59C44.6889 25.5693 42.3893 24.6016 42.3893 24.6016C41.5613 25.0431 40.6443 25.2921 39.7068 25.3302C38.7692 25.3682 37.8351 25.1944 36.974 24.8216C36.5798 25.0093 36.1438 25.0918 35.7083 25.061C35.2728 25.0302 34.8527 24.8871 34.4889 24.6456C31.1507 27.3727 25.6612 25.0415 25.6612 25.0415C24.8692 25.5193 23.9586 25.7645 23.0337 25.749C22.1088 25.7334 21.2069 25.4577 20.4314 24.9535C20.1026 25.1905 19.7186 25.3392 19.316 25.3854C18.9134 25.4316 18.5056 25.3738 18.1317 25.2174C14.163 26.6689 13.0874 24.5136 13.0874 24.5136C13.0874 24.5136 10.899 25.7012 10.1942 24.1617C9.48951 22.6222 10.7135 21.4786 12.6422 21.9625C13.1914 21.5701 13.861 21.3833 14.5339 21.4346C15.2792 21.4643 16.0108 21.6438 16.6852 21.9625Z" fill="#E6E6E6"/>
<path d="M58.821 49.0901L48.0213 48.7501C48.0213 48.7501 47.8803 44.8401 49.9355 43.0702C50.5656 42.438 51.3485 41.9795 52.2082 41.7395C53.0679 41.4994 53.9751 41.4858 54.8416 41.7001C55.7247 41.9244 56.5356 42.3712 57.197 42.9979C57.8583 43.6246 58.3481 44.4103 58.6194 45.2801C58.9056 46.529 58.9738 47.818 58.821 49.0901Z" fill="#729A77"/>
<path d="M59.0339 49.3462L47.7788 48.9922L47.7699 48.7583C47.764 48.5938 47.6488 44.708 49.7703 42.8809C50.4358 42.2285 51.256 41.7557 52.1541 41.5067C53.0521 41.2578 53.9987 41.2409 54.9051 41.4575C55.8336 41.692 56.6859 42.1621 57.3797 42.8222C58.0735 43.4824 58.5852 44.3103 58.8655 45.2261C59.16 46.5057 59.2293 47.8269 59.0703 49.1304L59.0339 49.3462ZM48.2729 48.5073L58.5997 48.832C58.7033 47.6608 58.6269 46.4806 58.3733 45.3325C58.1241 44.5107 57.6662 43.7674 57.0443 43.1751C56.4223 42.5828 55.6576 42.1617 54.8246 41.9528C53.9916 41.744 53.1186 41.7544 52.2908 41.9832C51.463 42.212 50.7086 42.6513 50.1011 43.2583C48.4423 44.6865 48.2828 47.6548 48.2729 48.5073Z" fill="#2E4B33"/>
<path d="M25.8579 48.6204H14.8669L14.877 48.5804C14.9547 47.178 15.268 45.7987 15.8039 44.5004C15.9075 44.3235 16.0219 44.1532 16.1464 43.9904C16.2549 43.8308 16.3762 43.6803 16.5092 43.5404C17.0084 43.0188 17.607 42.6023 18.2696 42.3155C18.9322 42.0287 19.6455 41.8773 20.3675 41.8704C21.2352 41.8358 22.0979 42.0168 22.8785 42.3972C23.6591 42.7777 24.3332 43.3457 24.8405 44.0504C25.7774 45.3504 25.7874 47.0804 25.8579 48.6204Z" fill="#729A77"/>
<path d="M26.1219 48.8701H14.542L14.6227 48.5581C14.7026 47.1173 15.0293 45.7009 15.5885 44.3706C15.6968 44.1861 15.8163 44.0084 15.9463 43.8384C16.0594 43.6718 16.1862 43.5148 16.3253 43.3691C16.8468 42.825 17.4714 42.3902 18.1627 42.09C18.8539 41.7898 19.5981 41.6302 20.3517 41.6206C21.2626 41.5802 22.1693 41.7681 22.9892 42.1672C23.8091 42.5663 24.5162 43.1639 25.0465 43.9058C25.8144 45.2367 26.1792 46.762 26.0964 48.2964L26.1219 48.8701ZM15.1479 48.3701H25.5948L25.5928 48.3174C25.6787 46.8797 25.3462 45.4479 24.6354 44.1953C24.1524 43.526 23.5115 42.9864 22.7698 42.6243C22.0281 42.2622 21.2084 42.0888 20.3836 42.1196C19.6941 42.1267 19.013 42.2709 18.3798 42.5437C17.7466 42.8166 17.174 43.2127 16.6954 43.709C16.5711 43.8392 16.4578 43.9795 16.3568 44.1284C16.2349 44.2877 16.1228 44.4542 16.0211 44.627C15.517 45.8152 15.2216 47.0815 15.1479 48.3701Z" fill="#2E4B33"/>
<path d="M67.1222 45.7204C67.1222 44.3304 66.679 44.1904 66.1954 43.8105C65.3287 43.1729 64.3842 42.6487 63.3847 42.2504C63.3847 42.2504 63.1127 41.8404 62.7701 41.4304C61.6922 40.1504 60.574 40.1004 59.0628 39.9004C57.5517 39.6904 45.926 38.1305 45.926 38.1305C45.926 38.1305 44.1026 36.9404 40.9191 34.7205C40.1437 34.1541 39.3252 33.6492 38.4711 33.2105C36.8189 32.4405 35.2675 32.3905 31.3385 32.5105C29.0857 32.6199 26.8538 32.9959 24.6895 33.6305C21.3183 34.6299 18.0443 35.9318 14.9074 37.5205C14.0511 37.9404 13.1847 38.3805 12.3385 38.8404C10.4413 39.7637 8.61902 40.8336 6.88829 42.0404C6.77749 42.1304 6.67677 42.2104 6.58608 42.3004C6.21582 42.6192 5.97857 43.0652 5.9212 43.5504C5.747 43.5659 5.57857 43.6206 5.42852 43.7105C5.27846 43.8003 5.15068 43.9229 5.05474 44.0691C4.9588 44.2153 4.89719 44.3814 4.87452 44.5548C4.85186 44.7282 4.86872 44.9045 4.92386 45.0704C5.06486 45.6503 6.26369 48.6204 6.26369 48.6204H14.8671L14.8772 48.5804C14.9549 47.178 15.2682 45.7987 15.8041 44.5004C15.9077 44.3236 16.0221 44.1533 16.1466 43.9904C16.255 43.8308 16.3763 43.6803 16.5093 43.5404C17.0085 43.0188 17.6071 42.6023 18.2697 42.3155C18.9324 42.0287 19.6457 41.8774 20.3677 41.8704C21.2354 41.8358 22.0981 42.0168 22.8787 42.3973C23.6593 42.7777 24.3334 43.3457 24.8407 44.0505C25.7775 45.3504 25.7876 47.0804 25.8581 48.6204C25.9085 48.8525 26.0468 49.056 26.244 49.1884C26.4412 49.3208 26.682 49.3717 26.9159 49.3304H47.0543C48.0214 49.3304 48.0214 48.7504 48.0214 48.7504C48.0214 48.7504 47.8804 44.8404 49.9355 43.0705C50.5656 42.4383 51.3486 41.9799 52.2083 41.7398C53.068 41.4997 53.9752 41.4862 54.8417 41.7004C55.7248 41.9247 56.5358 42.3715 57.1971 42.9982C57.8585 43.6249 58.3482 44.4107 58.6196 45.2804C58.9057 46.5294 58.9739 47.8183 58.8211 49.0904C58.8915 49.2604 59.1636 49.3005 59.5464 49.3005C59.9191 49.3005 65.3391 49.4304 65.9234 49.2605C66.5077 49.0905 66.7797 48.1405 66.7797 48.1405C67.0117 47.3549 67.1271 46.5396 67.1222 45.7204Z" fill="#97C09B"/>
<path d="M63.6213 49.7228C62.7225 49.7228 61.553 49.7092 60.0665 49.6833L59.5467 49.675C59.2347 49.675 58.6538 49.675 58.4707 49.2316C58.4451 49.1675 58.4373 49.0977 58.4481 49.0295C58.5908 47.8038 58.5239 46.5628 58.2502 45.3596C57.7905 43.2888 55.5647 42.2776 54.7456 42.0632C53.9384 41.8686 53.0947 41.8851 52.2957 42.1111C51.4967 42.3372 50.7694 42.7651 50.1837 43.3537C48.2906 44.9831 48.3979 48.6994 48.3999 48.737C48.3999 49.0808 48.1183 49.7053 47.0542 49.7053H26.9159C26.5994 49.7454 26.2793 49.6672 26.0169 49.4857C25.7546 49.3042 25.5685 49.0322 25.4944 48.7219L25.4668 48.3229C25.5519 46.9097 25.2277 45.5019 24.5331 44.2683C24.0617 43.6171 23.4374 43.0919 22.7151 42.739C21.9929 42.386 21.1949 42.2162 20.3915 42.2443C19.7182 42.2509 19.0529 42.3913 18.4343 42.6572C17.8156 42.9232 17.256 43.3095 16.788 43.7936C16.6681 43.9189 16.559 44.054 16.4617 44.1975C16.3414 44.3551 16.2306 44.5197 16.1299 44.6906C15.6141 45.9354 15.3178 47.2602 15.2542 48.6062C15.2493 48.6424 15.2422 48.6783 15.2331 48.7136C15.2118 48.7945 15.1644 48.866 15.0981 48.917C15.0318 48.968 14.9505 48.9956 14.8669 48.9953H6.26385C6.18857 48.9955 6.11495 48.9732 6.05242 48.9313C5.98989 48.8893 5.94129 48.8297 5.91285 48.76C5.7893 48.4533 4.69953 45.7473 4.55629 45.1584C4.49431 44.9648 4.47205 44.7607 4.49084 44.5582C4.50963 44.3558 4.56909 44.1593 4.66565 43.9804C4.76222 43.8015 4.8939 43.6439 5.0528 43.5171C5.21171 43.3903 5.39458 43.2969 5.59045 43.2424C5.70733 42.7747 5.96218 42.353 6.32189 42.032C6.42055 41.9375 6.52388 41.848 6.63149 41.7639C8.38321 40.5326 10.2314 39.4445 12.1582 38.5105C13.0072 38.0486 13.879 37.6062 14.7399 37.1843C17.8964 35.5842 21.1918 34.274 24.5853 33.2698C26.7795 32.6274 29.042 32.2465 31.3257 32.135C35.2271 32.0159 36.8676 32.0481 38.6313 32.8708C39.5049 33.3189 40.3423 33.8345 41.1357 34.4128C43.9325 36.3625 45.6956 37.5286 46.0628 37.7698C47.1221 37.9124 57.6792 39.3293 59.1146 39.5286L59.4443 39.5716C60.1273 39.5699 60.8027 39.7133 61.4261 39.9922C62.0494 40.2712 62.6064 40.6793 63.0602 41.1897C63.3122 41.492 63.5288 41.7942 63.6331 41.9451C64.6273 42.349 65.5667 42.8766 66.4289 43.5154L66.5894 43.6355C66.9254 43.8588 67.1899 44.1741 67.3514 44.5437C67.5129 44.9134 67.5645 45.3217 67.5 45.7199C67.5056 46.5795 67.3835 47.4352 67.1378 48.259C67.1092 48.3605 66.7922 49.3981 66.0293 49.6198C65.2311 49.7235 64.4254 49.758 63.6213 49.7228ZM59.2248 48.9147C59.2829 48.9167 59.3863 48.925 59.5467 48.925C59.6067 48.925 59.7987 48.9284 60.0803 48.9333C61.9914 49.0363 63.9069 49.0252 65.8166 48.9001C66.1041 48.8166 66.3443 48.2824 66.4162 48.0373C66.637 47.2848 66.7474 46.5042 66.744 45.7199C66.744 44.6828 66.5038 44.506 66.1385 44.238L65.9613 44.1042C65.1239 43.4906 64.2123 42.9851 63.2482 42.5998C63.1751 42.5718 63.1125 42.5218 63.0691 42.4567C63.0661 42.4509 62.8052 42.0602 62.4784 41.6691C61.5776 40.5993 60.6907 40.4865 59.3479 40.3151L59.0122 40.2717C57.4991 40.0617 45.8758 38.5017 45.8758 38.5017C45.8196 38.4943 45.7658 38.4745 45.7183 38.4436C45.6996 38.4314 43.8537 37.2248 40.7016 35.0266C39.9421 34.4726 39.141 33.9781 38.3054 33.5476C36.7761 32.8342 35.3757 32.761 31.3503 32.885C29.1283 32.9942 26.927 33.3655 24.792 33.991C21.4433 34.9828 18.1915 36.2763 15.0765 37.8557C14.2235 38.2742 13.3616 38.7117 12.5199 39.1692C10.6462 40.0854 8.84432 41.1418 7.12963 42.3293C7.03359 42.4031 6.94143 42.4818 6.8535 42.5651C6.54487 42.8246 6.34596 43.1913 6.29679 43.5915C6.28733 43.6742 6.25068 43.7514 6.19261 43.8111C6.13453 43.8707 6.0583 43.9094 5.97587 43.9211C5.73799 43.9514 5.52184 44.0749 5.37487 44.2643C5.31099 44.3722 5.27065 44.4923 5.25648 44.6169C5.24231 44.7414 5.25465 44.8676 5.29267 44.987C5.39259 45.3986 6.14077 47.2985 6.51978 48.2453H14.5253C14.6073 46.886 14.9308 45.5521 15.4807 44.3063C15.5912 44.1178 15.7134 43.9363 15.8464 43.7629C15.9618 43.5929 16.0912 43.4328 16.2333 43.2843C16.7653 42.7283 17.4027 42.2839 18.1084 41.9769C18.8141 41.6699 19.5738 41.5065 20.3433 41.4962C21.2761 41.4523 22.2051 41.6434 23.0449 42.0519C23.8847 42.4604 24.6085 43.0732 25.1498 43.8342C25.9332 45.1839 26.3058 46.7329 26.2219 48.2912L26.2357 48.6032C26.34 48.9347 26.5517 48.9552 26.9159 48.9552H47.0542C47.4972 48.9552 47.634 48.8141 47.6448 48.7311C47.6379 48.5968 47.5208 44.653 49.6875 42.7873C50.3683 42.1212 51.207 41.6388 52.125 41.3852C53.043 41.1316 54.0104 41.115 54.9365 41.3371C56.111 41.6452 58.4668 42.8483 58.9885 45.1999C59.2609 46.4182 59.3406 47.6717 59.2248 48.9147Z" fill="#4F7053"/>
<path d="M47.9823 47.6631H25.7852V47.9131H47.9823V47.6631Z" fill="#4F7053"/>
<path d="M66.7488 48.0254H58.9954V48.2754H66.7488V48.0254Z" fill="#4F7053"/>
<path d="M65.1365 44.3374H58.2405V43.8374H65.1365C65.1756 43.8423 65.2153 43.8394 65.2533 43.829C65.2913 43.8185 65.3269 43.8006 65.358 43.7764C65.388 43.7141 65.3939 43.643 65.3747 43.5767L65.8591 43.4385C65.8902 43.5453 65.8976 43.6576 65.8808 43.7676C65.864 43.8776 65.8233 43.9826 65.7616 44.0752C65.6863 44.1662 65.5902 44.2375 65.4813 44.2832C65.3724 44.3288 65.2541 44.3474 65.1365 44.3374Z" fill="#4F7053"/>
<path d="M65.982 44.9385H61.8199C61.6814 44.9385 61.5691 45.0508 61.5691 45.1893V45.879C61.5691 46.0176 61.6814 46.1299 61.8199 46.1299H65.982C66.1206 46.1299 66.2329 46.0176 66.2329 45.879V45.1893C66.2329 45.0508 66.1206 44.9385 65.982 44.9385Z" fill="#729A77"/>
<path d="M65.9811 46.2549H61.8209C61.7211 46.2553 61.6253 46.2161 61.5544 46.1458C61.4835 46.0756 61.4434 45.9801 61.4429 45.8804V45.1885C61.4434 45.0887 61.4835 44.9931 61.5543 44.9228C61.6252 44.8525 61.721 44.8132 61.8209 44.8135H65.9811C66.0809 44.8132 66.1768 44.8525 66.2477 44.9228C66.3185 44.9931 66.3586 45.0887 66.3591 45.1885V45.8804C66.3586 45.9801 66.3185 46.0756 66.2476 46.1458C66.1767 46.2161 66.0809 46.2553 65.9811 46.2549ZM61.8209 45.0635C61.8044 45.0634 61.788 45.0666 61.7728 45.0728C61.7575 45.0791 61.7437 45.0883 61.732 45.0999C61.7203 45.1115 61.711 45.1253 61.7046 45.1405C61.6982 45.1557 61.6949 45.172 61.6949 45.1885V45.8804C61.6949 45.8968 61.6982 45.9131 61.7046 45.9283C61.711 45.9435 61.7203 45.9572 61.732 45.9688C61.7437 45.9804 61.7576 45.9895 61.7728 45.9957C61.7881 46.0019 61.8044 46.005 61.8209 46.0049H65.9811C65.9976 46.005 66.0139 46.0019 66.0291 45.9957C66.0444 45.9895 66.0583 45.9804 66.07 45.9688C66.0817 45.9572 66.091 45.9435 66.0974 45.9283C66.1037 45.9131 66.107 45.8968 66.1071 45.8804V45.1885C66.1071 45.172 66.1037 45.1557 66.0974 45.1405C66.091 45.1253 66.0817 45.1115 66.07 45.0999C66.0583 45.0883 66.0444 45.0791 66.0292 45.0728C66.0139 45.0666 65.9976 45.0634 65.9811 45.0635H61.8209Z" fill="#4F7053"/>
<path d="M19.4045 37.8213C20.5604 36.7646 24.3503 34.6799 31.0005 34.2456C33.6079 34.0753 36.6956 33.7688 37.7934 34.8245C38.8913 35.8802 41.3957 38.7067 41.3957 38.7067C41.3957 38.7067 29.8362 39.0813 22.9725 39.0813C21.7717 39.0813 18.1008 39.0132 19.4045 37.8213Z" fill="#E6E6E6"/>
<path d="M22.9727 39.3307C19.2505 39.3307 18.9975 38.6872 18.9143 38.4757C18.809 38.2091 18.9168 37.9264 19.2338 37.6369C20.4909 36.4874 24.3805 34.4269 30.9836 33.9953L31.5964 33.9543C34.1924 33.777 36.876 33.5929 37.9687 34.6442C39.0614 35.695 41.4822 38.4255 41.5846 38.5412L41.937 38.9387L41.4034 38.9562C41.2882 38.9597 29.7619 39.3307 22.9727 39.3307ZM34.5192 34.3185C33.5958 34.3185 32.5878 34.3874 31.6314 34.4528L31.0171 34.4943C24.5537 34.9167 20.7838 36.8996 19.5754 38.0041V38.0045C19.4199 38.1461 19.3672 38.2521 19.3834 38.2941C19.4622 38.4933 20.3063 38.8307 22.9727 38.8307C28.9148 38.8307 38.4944 38.5461 40.8511 38.4733C40.1217 37.6569 38.4501 35.8039 37.6182 35.0036C36.6917 34.4332 35.5999 34.1919 34.5192 34.3185Z" fill="#4F7053"/>
<path d="M28.8209 39.008L27.0389 34.752L26.3989 34.873L28.1619 39.014L28.8209 39.008Z" fill="#729A77"/>
<path d="M28.0791 39.1406L26.2224 34.7798L27.1153 34.6094L29.0089 39.1314L28.0791 39.1406ZM26.5758 34.9673L28.2454 38.8887L28.6328 38.8852L26.9617 34.8935L26.5758 34.9673Z" fill="#4F7053"/>
<path d="M45.7871 49.3031L45.5351 49.2924C45.5381 49.2216 45.8324 42.1728 45.8088 40.6728C45.8105 40.5449 45.7855 40.4181 45.7355 40.3004C45.6855 40.1827 45.6116 40.0767 45.5184 39.9892C44.7491 39.5312 43.8519 39.3355 42.9618 39.4316L42.825 39.4336V39.1836L42.9578 39.1821C43.9143 39.0787 44.8778 39.2997 45.6936 39.8095C45.8104 39.92 45.9032 40.0533 45.9664 40.2011C46.0295 40.349 46.0617 40.5082 46.0608 40.6689C46.0844 42.1762 45.7901 49.2319 45.7871 49.3031Z" fill="#4F7053"/>
<path d="M47.6964 41.0332H46.7815V41.5554H47.6964V41.0332Z" fill="#729A77"/>
<path d="M47.6964 41.0332V41.5554H46.7815V41.0332H47.6964ZM47.6964 40.7832H46.7815C46.7486 40.7831 46.7159 40.7894 46.6854 40.8019C46.6549 40.8144 46.6272 40.8328 46.6038 40.856C46.5804 40.8792 46.5618 40.9068 46.549 40.9372C46.5363 40.9676 46.5297 41.0002 46.5295 41.0332V41.5554C46.5297 41.5883 46.5363 41.621 46.549 41.6514C46.5618 41.6818 46.5804 41.7094 46.6038 41.7326C46.6272 41.7558 46.6549 41.7742 46.6854 41.7867C46.7159 41.7991 46.7486 41.8055 46.7815 41.8054H47.6964C47.7294 41.8055 47.7621 41.7991 47.7926 41.7867C47.8231 41.7742 47.8508 41.7558 47.8742 41.7326C47.8976 41.7094 47.9162 41.6818 47.9289 41.6514C47.9417 41.621 47.9483 41.5883 47.9484 41.5554V41.0332C47.9483 41.0002 47.9417 40.9676 47.9289 40.9372C47.9162 40.9068 47.8976 40.8792 47.8742 40.856C47.8508 40.8328 47.8231 40.8144 47.7926 40.8019C47.7621 40.7894 47.7294 40.7831 47.6964 40.7832Z" fill="#4F7053"/>
<path d="M31.16 41.1694C31.7407 41.1694 32.2114 40.9363 32.2114 40.6487C32.2114 40.3611 31.7407 40.1279 31.16 40.1279C30.5794 40.1279 30.1086 40.3611 30.1086 40.6487C30.1086 40.9363 30.5794 41.1694 31.16 41.1694Z" fill="#729A77"/>
<path d="M31.1603 41.2944C30.4889 41.2944 29.9829 41.0166 29.9829 40.6484C29.9829 40.2803 30.4889 40.0029 31.1603 40.0029C31.8317 40.0029 32.3377 40.2803 32.3377 40.6484C32.3377 41.0166 31.8317 41.2944 31.1603 41.2944ZM31.1603 40.2529C30.6307 40.2529 30.2349 40.4619 30.2349 40.6485C30.2349 40.8355 30.6307 41.0445 31.1603 41.0445C31.6899 41.0445 32.0857 40.8355 32.0857 40.6485C32.0857 40.4619 31.69 40.2529 31.1603 40.2529Z" fill="#4F7053"/>
<path d="M41.8412 38.8537C41.5896 39.3305 41.3837 39.6483 41.9326 39.8073C42.1058 39.8627 42.2921 39.8618 42.4647 39.8047C42.6373 39.7476 42.7873 39.6372 42.8933 39.4894C43.0076 39.3532 42.8475 38.4678 42.8475 38.4678L41.8412 38.8537Z" fill="#729A77"/>
<path d="M42.2078 39.9746C42.1028 39.9738 41.9984 39.9582 41.8977 39.9282C41.8121 39.9133 41.731 39.8794 41.6603 39.829C41.5896 39.7785 41.5311 39.7128 41.4892 39.6367C41.3976 39.4204 41.5266 39.1782 41.69 38.8721L41.752 38.7549L42.9451 38.2969L42.9717 38.4463C43.0495 38.8765 43.1164 39.4209 42.9894 39.5708C42.8984 39.6931 42.7807 39.793 42.6453 39.863C42.5098 39.9329 42.3602 39.9711 42.2078 39.9746ZM41.9312 38.9541L41.9125 38.9888C41.7855 39.227 41.6762 39.4326 41.7215 39.5391C41.7471 39.5977 41.8298 39.6479 41.9686 39.688C42.1182 39.736 42.2792 39.7349 42.4281 39.6849C42.5771 39.6349 42.7061 39.5387 42.7965 39.4102C42.8184 39.1526 42.8025 38.8931 42.7492 38.6402L41.9312 38.9541Z" fill="#4F7053"/>
<path d="M53.4371 51.4313C56.0519 51.4313 58.1715 49.3273 58.1715 46.7318C58.1715 44.1363 56.0519 42.0322 53.4371 42.0322C50.8223 42.0322 48.7026 44.1363 48.7026 46.7318C48.7026 49.3273 50.8223 51.4313 53.4371 51.4313Z" fill="#424242"/>
<path d="M53.4372 51.6818C52.4598 51.6746 51.5063 51.3782 50.6971 50.83C49.8879 50.2817 49.2592 49.5062 48.8901 48.6011C48.521 47.696 48.4282 46.7019 48.6233 45.7441C48.8184 44.7864 49.2927 43.9078 49.9863 43.2192C50.68 42.5306 51.5621 42.0627 52.5212 41.8747C53.4804 41.6867 54.4738 41.7868 55.3761 42.1625C56.2785 42.5382 57.0494 43.1727 57.5917 43.9859C58.134 44.7991 58.4234 45.7546 58.4234 46.7321C58.4171 48.0492 57.8886 49.3101 56.9538 50.238C56.019 51.1659 54.7543 51.6852 53.4372 51.6818ZM53.4372 42.2824C52.5585 42.2888 51.7013 42.5552 50.9738 43.048C50.2463 43.5408 49.681 44.238 49.3492 45.0516C49.0173 45.8653 48.9338 46.759 49.1092 47.62C49.2845 48.481 49.7109 49.2709 50.3345 49.89C50.9581 50.5091 51.751 50.9297 52.6133 51.0987C53.4756 51.2678 54.3686 51.1778 55.1798 50.8401C55.9911 50.5023 56.6841 49.932 57.1716 49.2009C57.6592 48.4698 57.9193 47.6108 57.9193 46.7321C57.9138 45.548 57.4387 44.4145 56.5984 43.5803C55.7581 42.7461 54.6212 42.2793 53.4372 42.2824Z" fill="#181818"/>
<path d="M53.4371 50.4317C52.7065 50.4262 51.9939 50.2046 51.3892 49.7947C50.7844 49.3848 50.3145 48.805 50.0388 48.1285C49.763 47.4519 49.6938 46.7089 49.8397 45.993C49.9856 45.2771 50.3402 44.6205 50.8588 44.1059C51.3774 43.5913 52.0367 43.2417 52.7537 43.1012C53.4707 42.9608 54.2131 43.0357 54.8876 43.3167C55.562 43.5976 56.1381 44.0719 56.5434 44.6798C56.9486 45.2877 57.1649 46.0019 57.1648 46.7325C57.1601 47.7171 56.7649 48.6596 56.0661 49.3532C55.3672 50.0467 54.4217 50.4346 53.4371 50.4317Z" fill="#E6E6E6"/>
<path d="M53.4371 50.5567C52.6819 50.5512 51.9452 50.3221 51.3199 49.8984C50.6946 49.4747 50.2088 48.8754 49.9237 48.176C49.6385 47.4766 49.5668 46.7084 49.7176 45.9683C49.8685 45.2283 50.235 44.5494 50.7711 44.0173C51.3072 43.4853 51.9888 43.1238 52.73 42.9786C53.4712 42.8334 54.2388 42.9108 54.936 43.2012C55.6332 43.4916 56.2289 43.9819 56.6479 44.6104C57.0668 45.2388 57.2903 45.9772 57.2902 46.7325C57.2853 47.7502 56.8768 48.7244 56.1544 49.4413C55.4321 50.1583 54.4549 50.5594 53.4371 50.5567ZM53.4371 43.1573C52.7313 43.1625 52.0427 43.3766 51.4583 43.7725C50.874 44.1684 50.4199 44.7285 50.1533 45.3821C49.8867 46.0358 49.8197 46.7537 49.9605 47.4454C50.1014 48.1371 50.4439 48.7716 50.9448 49.2689C51.4457 49.7662 52.0827 50.1041 52.7754 50.24C53.4681 50.3759 54.1855 50.3036 54.8372 50.0323C55.4889 49.7611 56.0457 49.3029 56.4374 48.7157C56.8291 48.1285 57.0381 47.4384 57.0382 46.7325C57.0337 45.7812 56.652 44.8706 55.9769 44.2004C55.3018 43.5301 54.3884 43.155 53.4371 43.1573Z" fill="#181818"/>
<path d="M53.4369 49.1612C52.9572 49.1576 52.4893 49.012 52.0923 48.7428C51.6952 48.4736 51.3867 48.0929 51.2057 47.6487C51.0247 47.2045 50.9793 46.7166 51.0751 46.2465C51.171 45.7765 51.4039 45.3454 51.7444 45.0075C52.0849 44.6697 52.5179 44.4402 52.9886 44.348C53.4594 44.2558 53.9469 44.3051 54.3897 44.4896C54.8325 44.6741 55.2108 44.9855 55.4768 45.3847C55.7429 45.7839 55.8848 46.2529 55.8847 46.7326C55.8816 47.3791 55.6222 47.9979 55.1632 48.4533C54.7043 48.9086 54.0834 49.1633 53.4369 49.1612Z" fill="#D1D1D1"/>
<path d="M53.4373 49.2862C52.9329 49.2824 52.441 49.1294 52.0234 48.8465C51.6059 48.5635 51.2814 48.1632 51.0911 47.6961C50.9007 47.2291 50.8528 46.7161 50.9536 46.2218C51.0543 45.7276 51.2991 45.2743 51.6572 44.919C52.0152 44.5637 52.4704 44.3223 52.9654 44.2254C53.4604 44.1284 53.973 44.1802 54.4386 44.3741C54.9042 44.5681 55.302 44.8956 55.5817 45.3153C55.8615 45.735 56.0107 46.2281 56.0106 46.7325C56.0072 47.4121 55.7344 48.0627 55.252 48.5414C54.7695 49.0201 54.1169 49.288 53.4373 49.2862ZM53.4373 44.4278C52.9823 44.4312 52.5385 44.5692 52.1619 44.8244C51.7852 45.0796 51.4925 45.4406 51.3207 45.8619C51.1489 46.2832 51.1057 46.746 51.1964 47.1918C51.2872 47.6376 51.508 48.0466 51.8309 48.3672C52.1538 48.6878 52.5643 48.9056 53.0108 48.9932C53.4573 49.0808 53.9197 49.0342 54.3398 48.8594C54.7598 48.6845 55.1187 48.3893 55.3712 48.0108C55.6237 47.6323 55.7585 47.1875 55.7586 46.7325C55.7557 46.1193 55.5097 45.5322 55.0745 45.1002C54.6393 44.6681 54.0505 44.4263 53.4373 44.4278Z" fill="#8C8C8C"/>
<path d="M20.5018 51.4313C23.1165 51.4313 25.2362 49.3273 25.2362 46.7318C25.2362 44.1363 23.1165 42.0322 20.5018 42.0322C17.887 42.0322 15.7673 44.1363 15.7673 46.7318C15.7673 49.3273 17.887 51.4313 20.5018 51.4313Z" fill="#424242"/>
<path d="M20.5019 51.6818C19.5245 51.6745 18.5711 51.378 17.762 50.8297C16.9528 50.2814 16.3241 49.5058 15.9551 48.6007C15.5862 47.6956 15.4934 46.7016 15.6885 45.7438C15.8837 44.7861 16.358 43.9076 17.0517 43.219C17.7454 42.5304 18.6274 42.0627 19.5866 41.8747C20.5458 41.6867 21.5391 41.7868 22.4414 42.1625C23.3438 42.5383 24.1146 43.1727 24.6569 43.9859C25.1992 44.7991 25.4885 45.7546 25.4886 46.7321C25.4823 48.0493 24.9537 49.3102 24.0188 50.2382C23.0839 51.1661 21.8191 51.6853 20.5019 51.6818ZM20.5019 42.2824C19.6232 42.2888 18.7661 42.5553 18.0387 43.0482C17.3112 43.5411 16.746 44.2383 16.4142 45.052C16.0824 45.8656 15.999 46.7593 16.1744 47.6203C16.3498 48.4813 16.7762 49.2711 17.3998 49.8902C18.0234 50.5092 18.8164 50.9297 19.6786 51.0988C20.5409 51.2678 21.434 51.1778 22.2451 50.84C23.0563 50.5023 23.7494 49.9319 24.2369 49.2008C24.7244 48.4698 24.9845 47.6108 24.9845 46.7321C24.9789 45.548 24.5037 44.4145 23.6633 43.5803C22.8229 42.7461 21.686 42.2793 20.5019 42.2824Z" fill="#181818"/>
<path d="M20.5015 50.4317C19.771 50.4262 19.0584 50.2046 18.4536 49.7947C17.8489 49.3848 17.379 48.805 17.1032 48.1285C16.8275 47.4519 16.7582 46.7089 16.9042 45.993C17.0501 45.2771 17.4047 44.6205 17.9233 44.1059C18.4419 43.5913 19.1012 43.2417 19.8182 43.1012C20.5351 42.9608 21.2776 43.0357 21.952 43.3167C22.6264 43.5976 23.2026 44.0719 23.6079 44.6798C24.0131 45.2877 24.2293 46.0019 24.2292 46.7325C24.2245 47.7171 23.8294 48.6596 23.1305 49.3532C22.4316 50.0467 21.4861 50.4346 20.5015 50.4317Z" fill="#E6E6E6"/>
<path d="M20.5018 50.5567C19.7466 50.5511 19.0099 50.3219 18.3847 49.8982C17.7595 49.4744 17.2738 48.8751 16.9887 48.1757C16.7036 47.4762 16.632 46.7081 16.7829 45.968C16.9338 45.228 17.3003 44.5492 17.8364 44.0172C18.3725 43.4852 19.0541 43.1238 19.7953 42.9786C20.5365 42.8334 21.3041 42.9109 22.0013 43.2013C22.6985 43.4917 23.2941 43.982 23.7131 44.6104C24.132 45.2389 24.3555 45.9773 24.3554 46.7325C24.3506 47.7504 23.942 48.7247 23.2196 49.4416C22.4971 50.1586 21.5197 50.5596 20.5018 50.5567ZM20.5018 43.1573C19.796 43.1626 19.1075 43.3767 18.5232 43.7727C17.9388 44.1687 17.4848 44.7288 17.2183 45.3825C16.9519 46.0361 16.8848 46.754 17.0258 47.4457C17.1667 48.1373 17.5092 48.7718 18.0102 49.2691C18.5111 49.7664 19.1481 50.1042 19.8408 50.24C20.5334 50.3759 21.2508 50.3036 21.9025 50.0323C22.5541 49.761 23.1109 49.3029 23.5026 48.7157C23.8943 48.1284 24.1033 47.4384 24.1034 46.7325C24.0989 45.7811 23.7171 44.8704 23.0419 44.2002C22.3667 43.5299 21.4532 43.1549 20.5018 43.1573Z" fill="#181818"/>
<path d="M20.5016 49.1612C20.0219 49.1576 19.554 49.012 19.157 48.7428C18.7599 48.4736 18.4514 48.0929 18.2704 47.6487C18.0894 47.2045 18.044 46.7166 18.1398 46.2465C18.2357 45.7765 18.4686 45.3454 18.8091 45.0075C19.1496 44.6697 19.5826 44.4402 20.0533 44.348C20.5241 44.2558 21.0116 44.3051 21.4544 44.4896C21.8972 44.6741 22.2755 44.9855 22.5415 45.3847C22.8076 45.7839 22.9495 46.2529 22.9494 46.7326C22.9463 47.3791 22.6869 47.9979 22.2279 48.4533C21.769 48.9086 21.1481 49.1633 20.5016 49.1612Z" fill="#D1D1D1"/>
<path d="M20.5018 49.2862C19.9974 49.2823 19.5055 49.1292 19.088 48.8462C18.6705 48.5632 18.3462 48.1629 18.1559 47.6958C17.9655 47.2287 17.9178 46.7157 18.0186 46.2215C18.1194 45.7273 18.3642 45.274 18.7223 44.9188C19.0803 44.5635 19.5355 44.3223 20.0305 44.2253C20.5255 44.1284 21.0381 44.1802 21.5036 44.3742C21.9692 44.5682 22.367 44.8956 22.6467 45.3153C22.9264 45.735 23.0757 46.2281 23.0756 46.7325C23.0723 47.4122 22.7994 48.0629 22.3168 48.5417C21.8343 49.0205 21.1815 49.2882 20.5018 49.2862ZM20.5018 44.4278C20.0468 44.4313 19.603 44.5693 19.2264 44.8246C18.8498 45.0799 18.5572 45.4409 18.3855 45.8622C18.2137 46.2836 18.1706 46.7463 18.2614 47.1921C18.3523 47.6379 18.5731 48.0469 18.896 48.3674C19.2189 48.6879 19.6294 48.9057 20.0759 48.9932C20.5224 49.0808 20.9848 49.0342 21.4048 48.8593C21.8248 48.6845 22.1837 48.3892 22.4362 48.0107C22.6887 47.6322 22.8235 47.1875 22.8236 46.7325C22.8208 46.1191 22.5747 45.532 22.1394 45.0999C21.7041 44.6678 21.1151 44.4261 20.5018 44.4278Z" fill="#8C8C8C"/>
<path d="M48.0621 46.9936H33.0814C32.6209 47.0325 32.1592 46.9363 31.7525 46.7169C31.3458 46.4975 31.0119 46.1644 30.7915 45.7583C29.8056 43.3794 29.1741 41.8042 28.9142 41.0757C28.6529 40.5239 28.6155 39.8923 28.8099 39.3135C28.8291 39.249 28.8483 39.1856 28.865 39.1191L29.1092 39.1797C29.0919 39.2495 29.0718 39.3169 29.0511 39.3848C28.8734 39.9133 28.9094 40.4904 29.1515 40.9927C29.3292 41.4902 29.7988 42.7051 31.0249 45.6636C31.2304 46.0197 31.5327 46.3102 31.8967 46.5014C32.2608 46.6926 32.6715 46.7766 33.0814 46.7437H48.0621V46.9936Z" fill="#4F7053"/>
<path d="M10.9179 43.5404H6.0622C6.01497 43.5391 5.96772 43.5424 5.92114 43.5504C5.97851 43.0652 6.21576 42.6192 6.58602 42.3004C6.67671 42.2103 6.77743 42.1304 6.88823 42.0404H9.62846C9.8723 42.0341 10.1108 42.1123 10.3036 42.2618C10.4963 42.4112 10.6315 42.6227 10.6862 42.8604C10.7769 43.1004 10.8575 43.3404 10.9179 43.5404Z" fill="#729A77"/>
<path d="M5.7771 43.7053L5.7963 43.5363C5.85612 43.0222 6.10658 42.5491 6.4982 42.2106C6.59145 42.1214 6.6892 42.037 6.79107 41.9577L6.82553 41.9299L6.88853 41.9152H9.62873C9.89814 41.9103 10.1612 41.997 10.375 42.1611C10.5887 42.3252 10.7404 42.557 10.8051 42.8186C10.8918 43.0476 10.9749 43.2922 11.0384 43.5046L11.0867 43.6652H6.0621C6.02309 43.665 5.98412 43.6675 5.94544 43.6725L5.7771 43.7053ZM6.06899 43.4153H10.747C10.6939 43.2503 10.6324 43.0735 10.5684 42.9041C10.5218 42.691 10.4026 42.5008 10.2312 42.366C10.0598 42.2312 9.84676 42.1603 9.62873 42.1653H6.93331C6.84365 42.2353 6.75757 42.3098 6.67538 42.3885C6.36769 42.6563 6.15495 43.0165 6.06897 43.4153L6.06899 43.4153Z" fill="#4F7053"/>
<path d="M24.5483 34.5199C24.1755 34.6498 17.6172 37.2799 16.4889 37.7499C16.2402 37.9032 15.9454 37.9642 15.6563 37.9222C15.3671 37.8801 15.102 37.7377 14.9072 37.5199C18.0441 35.9312 21.3181 34.6293 24.6893 33.6299C24.8404 34.0199 24.8808 34.3998 24.5483 34.5199Z" fill="#E6E6E6"/>
<path d="M15.7849 38.1807C15.3944 38.1551 15.0263 37.9893 14.7483 37.7139L14.4451 37.4697L14.7945 37.2964C17.9449 35.6996 21.2336 34.392 24.6203 33.3896L24.8423 33.3262L24.9249 33.54C24.9952 33.6773 25.0373 33.8273 25.0488 33.981C25.0603 34.1348 25.041 34.2893 24.9919 34.4356C24.9571 34.5102 24.9074 34.577 24.846 34.6318C24.7846 34.6867 24.7127 34.7286 24.6346 34.7549L24.6321 34.7559C24.2871 34.876 17.746 37.4981 16.5868 37.9805C16.3358 38.1008 16.063 38.1689 15.7849 38.1807ZM15.3901 37.561C15.6707 37.7275 15.9079 37.7275 16.3893 37.5205C17.4368 37.0845 24.032 34.436 24.4627 34.2847C24.4779 34.2811 24.4921 34.2742 24.5042 34.2645C24.5164 34.2548 24.5263 34.2425 24.5331 34.2285C24.5611 34.133 24.558 34.0311 24.5243 33.9375C21.3821 34.8835 18.3263 36.0957 15.3901 37.561V37.561Z" fill="#4F7053"/>
<path d="M45.926 38.13C45.0726 38.4624 44.1711 38.6548 43.2564 38.7C42.4404 38.58 39.005 34.95 38.3905 34.34C37.786 33.74 37.9976 33.52 38.4711 33.21C39.3252 33.6487 40.1437 34.1536 40.9191 34.72C44.1026 36.9399 45.926 38.13 45.926 38.13Z" fill="#E6E6E6"/>
<path d="M43.4501 38.9614C43.3741 38.9621 43.2981 38.9575 43.2227 38.9477C42.6606 38.8652 41.3277 37.7017 38.6194 34.9307C38.4383 34.7456 38.2975 34.6016 38.2119 34.5166C37.8801 34.188 37.7443 33.9287 37.7699 33.6763C37.8014 33.3726 38.0534 33.1836 38.332 33.0015L38.4521 32.9229L38.5811 32.9854C39.447 33.4303 40.2771 33.9417 41.0639 34.5151C44.2072 36.707 46.0461 37.9091 46.0649 37.9209L46.4803 38.1924L46.0137 38.3643C45.1895 38.6765 44.3274 38.8773 43.4501 38.9614ZM38.4905 33.499C38.3901 33.5708 38.2778 33.6626 38.2709 33.7265C38.2679 33.7568 38.2808 33.8774 38.5682 34.1631C38.6549 34.249 38.7976 34.395 38.9807 34.5825C41.433 37.0903 42.884 38.3926 43.2936 38.4531C44 38.4352 44.6987 38.3016 45.3619 38.0576C44.6462 37.582 43.0514 36.5122 40.7744 34.9243C40.0469 34.397 39.2838 33.9208 38.4905 33.499Z" fill="#4F7053"/>
<path d="M16.5092 43.5402C16.3763 43.6801 16.255 43.8306 16.1465 43.9902C16.022 44.1531 15.9076 44.3234 15.804 44.5002C15.2682 45.7985 14.9548 47.1779 14.8772 48.5802L14.8671 48.6202H6.26369C6.26369 48.6202 5.06486 45.6501 4.92386 45.0703C4.86872 44.9044 4.85186 44.7281 4.87452 44.5547C4.89719 44.3812 4.9588 44.2152 5.05474 44.069C5.15068 43.9228 5.27846 43.8002 5.42852 43.7103C5.57857 43.6205 5.747 43.5658 5.9212 43.5503C5.96778 43.5424 6.01502 43.539 6.06226 43.5403L16.5092 43.5402Z" fill="#97C09B"/>
<path d="M15.0621 48.8704H6.09336L6.02988 48.7131C5.98066 48.5916 4.82246 45.7195 4.67873 45.1291C4.61894 44.9254 4.60373 44.7112 4.63414 44.501C4.66454 44.2909 4.73986 44.0898 4.85495 43.9114C4.97791 43.7469 5.13221 43.6085 5.30894 43.504C5.48568 43.3995 5.68135 43.331 5.88468 43.3025C5.94327 43.2931 6.00257 43.289 6.06188 43.2903H17.0901L16.6934 43.7112C16.5697 43.8407 16.4571 43.9803 16.3567 44.1286C16.2348 44.2879 16.1227 44.4544 16.021 44.6272C15.5057 45.892 15.2042 47.2337 15.1286 48.5974L15.1109 48.6824L15.0621 48.8704ZM6.43447 48.3704H14.6388C14.7172 46.9917 15.0387 45.6377 15.5883 44.3709C15.6967 44.1864 15.8162 44.0086 15.9461 43.8386L15.9791 43.7903H6.06188C6.03112 43.7889 6.00029 43.7905 5.96983 43.7952C5.83283 43.8123 5.70056 43.8563 5.58062 43.9247C5.46067 43.9931 5.35541 44.0844 5.27088 44.1936C5.19668 44.3155 5.14926 44.4517 5.13177 44.5933C5.11429 44.7349 5.12715 44.8786 5.16948 45.0149C5.27135 45.4348 6.00771 47.3093 6.43447 48.3704Z" fill="#4F7053"/>
<path d="M14.9079 47.1409L5.57593 47.0039L5.57993 46.7539L14.9119 46.8909L14.9079 47.1409Z" fill="#4F7053"/>
<path d="M40.9774 38.9075C40.8673 38.8721 40.7669 38.8118 40.684 38.7313C40.5195 38.5062 40.4418 38.2293 40.4653 37.9515C40.4888 37.6737 40.6119 37.4137 40.8119 37.2195C41.3837 36.493 42.3672 37.3103 42.6416 37.5373C42.9161 37.7644 43.3735 38.7179 42.5043 38.8768C42.0042 39.0025 41.4821 39.013 40.9774 38.9075Z" fill="#729A77"/>
<path d="M41.5441 39.1113C41.338 39.1161 41.1325 39.0872 40.9357 39.0258C40.8074 38.9842 40.6905 38.9133 40.5941 38.8188C40.4057 38.5732 40.3136 38.2671 40.3354 37.9583C40.3572 37.6495 40.4912 37.3593 40.7123 37.1426C40.7817 37.0488 40.8697 36.9705 40.9708 36.9124C41.072 36.8543 41.1841 36.8178 41.3 36.8052C41.3327 36.8017 41.3655 36.7999 41.3984 36.7998C41.8951 36.8684 42.3575 37.0921 42.7196 37.439C42.8672 37.5759 42.9798 37.7463 43.0482 37.9357C43.1165 38.1251 43.1385 38.3282 43.1123 38.5278C43.0745 38.6569 42.9982 38.7713 42.8935 38.8557C42.7888 38.9401 42.6607 38.9904 42.5266 39C42.2031 39.0663 41.8743 39.1036 41.5441 39.1113ZM41.3984 37.0498C41.3748 37.0499 41.3511 37.0512 41.3276 37.0537C41.245 37.0628 41.1653 37.0892 41.0936 37.1311C41.0218 37.173 40.9597 37.2294 40.9111 37.2968C40.669 37.6035 40.3687 38.2328 40.7743 38.644C40.8433 38.7107 40.9269 38.7606 41.0184 38.7895C41.5026 38.8876 42.0026 38.8754 42.4813 38.7539C42.7009 38.7139 42.8278 38.6191 42.8692 38.4643C42.8834 38.3116 42.8631 38.1577 42.8098 38.0139C42.7565 37.8701 42.6714 37.7402 42.5611 37.6338C42.2407 37.3271 41.8357 37.1237 41.3984 37.0498Z" fill="#4F7053"/>
</svg>
