<svg width="72" height="72" viewBox="0 0 72 72" fill="none" xmlns="http://www.w3.org/2000/svg">
<path d="M44.4949 52.2843C50.401 43.3723 51.434 41.3384 59.069 37.1264C66.704 32.9144 66.32 20.9434 51.879 20.4884C45.867 20.2994 39.675 19.5614 34.06 17.3004C32.178 16.5424 30.352 15.6104 28.708 14.4194C27.065 13.2294 25.668 10.9364 23.468 11.0014C17.448 11.1814 12.04 17.6634 9.83595 22.6314C6.19995 30.8324 8.37095 39.9073 12.81 47.3433C27.778 72.4233 42.028 56.0063 44.4959 52.2833L44.4949 52.2843Z" fill="#E6E6E6"/>
<path d="M52.67 16H19.33C17.5 16 16 17.5 16 19.33V52.67C16 54.5 17.5 56 19.33 56H52.67C54.5 56 56 54.5 56 52.67V19.33C56 17.5 54.5 16 52.67 16ZM55 52.67C55 53.95 53.95 55 52.67 55H19.33C18.05 55 17 53.95 17 52.67V19.33C17 18.05 18.05 17 19.33 17H52.67C53.95 17 55 18.05 55 19.33V52.67Z" fill="#4E6393"/>
<path d="M55 19.33V52.67C55 53.95 53.95 55 52.67 55H19.33C18.05 55 17 53.95 17 52.67V19.33C17 18.05 18.05 17 19.33 17H52.67C53.95 17 55 18.05 55 19.33Z" fill="#97B3D5"/>
<path d="M47.9339 40.4996C47.5306 38.0455 46.3558 35.7838 44.5799 34.0426C42.2999 31.7426 39.2509 30.4726 35.9999 30.4726C32.7489 30.4726 29.6999 31.7426 27.4139 34.0486C25.6409 35.7886 24.4679 38.0486 24.0659 40.4996H21.6699C22.1224 37.4246 23.5555 34.5778 25.7559 32.3826C28.4989 29.6466 32.1379 28.1396 35.9999 28.1396C39.8619 28.1396 43.5009 29.6466 46.2469 32.3846C48.4464 34.5794 49.8787 37.4255 50.3309 40.4996H47.9339Z" fill="white"/>
<path d="M36.0001 28.6397C37.8374 28.6364 39.6573 28.9966 41.3548 29.6995C43.0523 30.4025 44.594 31.4344 45.8911 32.7357C47.8751 34.7147 49.2159 37.2464 49.7381 39.9997H48.3511C47.8719 37.6041 46.6839 35.4077 44.9411 33.6957C42.5611 31.2947 39.3851 29.9717 36.0001 29.9717C32.6151 29.9717 29.4401 31.2947 27.0701 33.6847C25.3226 35.399 24.131 37.5993 23.6501 39.9997H22.2621C22.7836 37.2474 24.1233 34.7164 26.1061 32.7377C27.4034 31.4357 28.9456 30.4034 30.6436 29.7C32.3417 28.9967 34.1621 28.6363 36.0001 28.6397ZM36.0001 27.6397C32.1701 27.6397 28.3401 29.0997 25.4001 32.0297C22.8701 34.5697 21.4701 37.6997 21.1001 40.9997H24.5001C24.8001 38.5697 25.9001 36.2297 27.7701 34.3997C30.0351 32.1147 33.0181 30.9717 36.0001 30.9717C38.9821 30.9717 41.9651 32.1147 44.2301 34.3997C46.0382 36.1643 47.1915 38.4921 47.5001 40.9997H50.9001C50.5301 37.6997 49.1301 34.5697 46.6001 32.0297C45.2089 30.6366 43.5565 29.5317 41.7375 28.7784C39.9186 28.0251 37.9689 27.6381 36.0001 27.6397Z" fill="white"/>
<path d="M36.0001 28.6397C37.8374 28.6364 39.6573 28.9966 41.3548 29.6995C43.0523 30.4025 44.594 31.4344 45.8911 32.7357C47.8751 34.7147 49.2159 37.2464 49.7381 39.9997H48.3511C47.8719 37.6041 46.6839 35.4077 44.9411 33.6957C42.5611 31.2947 39.3851 29.9717 36.0001 29.9717C32.6151 29.9717 29.4401 31.2947 27.0701 33.6847C25.3226 35.399 24.131 37.5993 23.6501 39.9997H22.2621C22.7836 37.2474 24.1233 34.7164 26.1061 32.7377C27.4034 31.4357 28.9456 30.4034 30.6436 29.7C32.3417 28.9967 34.1621 28.6363 36.0001 28.6397ZM36.0001 27.6397C32.1701 27.6397 28.3401 29.0997 25.4001 32.0297C22.8701 34.5697 21.4701 37.6997 21.1001 40.9997H24.5001C24.8001 38.5697 25.9001 36.2297 27.7701 34.3997C30.0351 32.1147 33.0181 30.9717 36.0001 30.9717C38.9821 30.9717 41.9651 32.1147 44.2301 34.3997C46.0382 36.1643 47.1915 38.4921 47.5001 40.9997H50.9001C50.5301 37.6997 49.1301 34.5697 46.6001 32.0297C45.2089 30.6366 43.5565 29.5317 41.7375 28.7784C39.9186 28.0251 37.9689 27.6381 36.0001 27.6397Z" fill="#4E6393"/>
</svg>
