<svg width="72" height="72" viewBox="0 0 72 72" fill="none" xmlns="http://www.w3.org/2000/svg">
<path d="M33.4711 60.1186L31.9881 56.4096L30.0891 59.8106L29.8721 59.8126L27.7241 56.1406L27.9401 56.0166L29.9781 59.4986L31.8971 56.0596L32.1231 56.0736L33.7031 60.0266L33.4711 60.1186Z" fill="#666666"/>
<path d="M30.105 56.0791H29.855V59.7508H30.105V56.0791Z" fill="#666666"/>
<path d="M28.8193 37.3089C33.7094 37.3089 37.6736 33.3631 37.6736 28.4958C37.6736 23.6284 33.7094 19.6826 28.8193 19.6826C23.9293 19.6826 19.9651 23.6284 19.9651 28.4958C19.9651 33.3631 23.9293 37.3089 28.8193 37.3089Z" fill="#E6E6E6"/>
<path d="M39.263 5.93359L23.939 55.7616L39.4 55.8296L39.263 5.93359Z" fill="#6E8CBB"/>
<path d="M39.5244 55.9561L39.3984 55.9551L23.77 55.8861L23.8193 55.7266L39.3867 5.11035L39.3887 5.93417L39.5244 55.9561ZM24.1079 55.639L39.2744 55.7052L39.1406 6.758L24.1079 55.639Z" fill="#666666"/>
<path d="M57.8849 60.8859L39.3459 5.08386L39.5839 5.00586L58.1229 60.8079L57.8849 60.8859Z" fill="#666666"/>
<path d="M17.1839 61.477L16.9509 61.388L38.8299 5L39.0629 5.089L17.1839 61.477Z" fill="#666666"/>
<path d="M58.3799 60.8291L53.97 66.5624H15.4199L13.3401 65.8457L14.6099 61.9141C14.9492 62.0411 15.3013 62.1312 15.6599 62.1828C16.5146 62.3038 17.3768 62.3636 18.24 62.362C20.4199 62.4018 28.9099 62.1828 35.27 62.0435C38.6201 61.9738 44.8701 61.6453 50.03 61.3367C54.6401 61.068 58.3799 60.8291 58.3799 60.8291Z" fill="#D1D1D1"/>
<path d="M53.9698 66.8116H15.42C15.3922 66.8115 15.3647 66.8069 15.3384 66.7979L13.2588 66.0811C13.1972 66.0601 13.1462 66.0157 13.117 65.9575C13.0877 65.8993 13.0826 65.8319 13.1026 65.7699L14.3721 61.8385C14.3823 61.8065 14.3988 61.7769 14.4207 61.7515C14.4426 61.7261 14.4695 61.7054 14.4996 61.6906C14.5607 61.6614 14.6309 61.6576 14.6949 61.6799C15.0185 61.8012 15.3543 61.8873 15.6963 61.9367C16.541 62.0558 17.3931 62.1147 18.2461 62.1127C19.9556 62.137 25.563 62.0154 30.9854 61.8909L35.2647 61.7946C38.0801 61.7363 43.5938 61.4717 50.0157 61.0875C54.6251 60.8191 58.3643 60.5808 58.3643 60.5808C58.4124 60.575 58.4611 60.5844 58.5035 60.6078C58.546 60.6312 58.5799 60.6673 58.6007 60.7111C58.6231 60.7535 58.633 60.8014 58.629 60.8491C58.625 60.8969 58.6074 60.9425 58.5782 60.9805L54.1681 66.7142C54.1447 66.7446 54.1147 66.7692 54.0803 66.7861C54.0459 66.8029 54.0081 66.8117 53.9698 66.8116ZM15.462 66.3136H53.8467L57.8467 61.1119C56.6456 61.1877 53.6055 61.3774 50.045 61.5856C43.6182 61.9688 38.0967 62.2333 35.2754 62.2927L30.9971 62.389C25.5699 62.5135 19.9571 62.6331 18.2359 62.6107C17.3595 62.612 16.484 62.5508 15.6163 62.4279C15.3291 62.387 15.046 62.3216 14.7701 62.2324L13.6534 65.6901L15.462 66.3136Z" fill="#8C8C8C"/>
<path d="M52.0156 61.4503L51.6191 61.1469C52.5049 59.9943 53.7549 58.3894 53.7549 58.3894C53.7772 58.3608 53.8054 58.3374 53.8376 58.3208C53.8698 58.3042 53.9052 58.2947 53.9414 58.2931L58.7314 58.0898C58.7738 58.091 58.8154 58.1015 58.8533 58.1207C58.8911 58.1399 58.9242 58.1672 58.9502 58.2007C58.9741 58.2361 58.9884 58.2772 58.9917 58.3198C58.9949 58.3625 58.987 58.4052 58.9687 58.4439L58.3554 59.754C58.3357 59.7956 58.305 59.831 58.2666 59.8563C58.2282 59.8817 58.1836 59.8961 58.1377 59.898L53.0781 60.075C52.7295 60.5244 52.3477 61.0185 52.0156 61.4503ZM54.0791 58.7863C53.9707 58.9244 53.75 59.2084 53.4756 59.5624L57.9668 59.4058L58.3418 58.6053L54.0791 58.7863Z" fill="#8C8C8C"/>
<path d="M55.907 61.1036L55.448 60.9046L56.561 58.3516L57.02 58.5506L55.907 61.1036Z" fill="#8C8C8C"/>
<path d="M16.4917 60.5078H14.7437V61.0058H16.4917V60.5078Z" fill="#8C8C8C"/>
<path d="M17.5361 62.5727L15.4243 59.5944L14.6924 59.538L15.2153 62.062L14.7261 62.1632L14.1357 59.3153C14.1277 59.2775 14.1287 59.2383 14.1386 59.201C14.1486 59.1636 14.1671 59.1291 14.1929 59.1003C14.2171 59.0696 14.2488 59.0458 14.285 59.0311C14.3213 59.0164 14.3607 59.0114 14.3994 59.0167L15.5796 59.1071C15.6162 59.1099 15.6517 59.1206 15.6837 59.1386C15.7156 59.1566 15.7433 59.1814 15.7646 59.2112L17.9443 62.2847L17.5361 62.5727Z" fill="#8C8C8C"/>
<path d="M39.5811 5H38.8311V59.7873H39.5811V5Z" fill="#2D4068"/>
<path d="M50.03 61.3362C44.8701 61.6448 38.6201 61.9732 35.27 62.043C28.9099 62.1823 20.4199 62.4013 18.24 62.3615C17.3768 62.3632 16.5146 62.3033 15.6599 62.1823L16.26 61.5055C16.26 61.5055 24.21 61.1173 25.01 60.9779L25.7084 59.9644L45.2381 59.6758L50.03 61.3362Z" fill="#424242"/>
<path d="M18.8932 62.6151C18.6349 62.6151 18.4146 62.6131 18.2359 62.6102C17.3595 62.6115 16.4841 62.5504 15.6163 62.4274C15.5728 62.4197 15.5321 62.4006 15.4984 62.372C15.4647 62.3434 15.4393 62.3064 15.4247 62.2647C15.41 62.223 15.4068 62.1781 15.4152 62.1348C15.4237 62.0914 15.4435 62.0511 15.4728 62.0179L16.0728 61.3409C16.095 61.3159 16.122 61.2956 16.152 61.2811C16.1821 61.2666 16.2148 61.2581 16.2481 61.2563C18.8785 61.1279 23.9073 60.8643 24.8663 60.7476L25.5025 59.8236C25.5252 59.7908 25.5554 59.7639 25.5905 59.7451C25.6257 59.7263 25.6648 59.7162 25.7047 59.7156L45.2345 59.4268C45.2686 59.4462 45.2931 59.4316 45.3204 59.4404L50.1124 61.1007C50.1671 61.1194 50.2136 61.1566 50.2438 61.2059C50.2741 61.2551 50.2863 61.3134 50.2784 61.3706C50.2704 61.4279 50.2427 61.4806 50.2002 61.5197C50.1576 61.5588 50.1028 61.5819 50.045 61.585C43.6183 61.9683 38.0968 62.2328 35.2755 62.2922L30.9972 62.3885C26.1329 62.5003 21.1197 62.6151 18.8932 62.6151ZM16.1544 62.0004C16.6441 62.0558 17.2955 62.0899 18.2462 62.1122C19.9566 62.1414 25.5621 62.0159 30.9854 61.8905L35.2647 61.7942C37.8956 61.7397 42.8829 61.5053 48.7657 61.161L45.1983 59.9258L25.8414 60.2117L25.2164 61.1192C25.1975 61.1465 25.1734 61.1698 25.1454 61.1877C25.1174 61.2056 25.0861 61.2177 25.0533 61.2233C24.2882 61.3565 17.3614 61.7008 16.378 61.7485L16.1544 62.0004Z" fill="#181818"/>
<path d="M61 66.502H11V66.9999H61V66.502Z" fill="#4E6393"/>
<path d="M38.8994 55.3887H22.439V56.1357H38.8994V55.3887Z" fill="#2D4068"/>
<path d="M36.674 61.9423L36.425 61.9213L39.0131 32.3623L39.2621 32.3613L41.986 61.7173L41.738 61.7403L39.142 33.7653L36.674 61.9423Z" fill="#666666"/>
<path d="M13.293 65.8523L13.2881 65.6033C13.6831 65.5955 52.8193 64.7883 55.5088 64.5869L55.5283 64.8359C52.831 65.0373 13.688 65.8445 13.293 65.8523Z" fill="#8C8C8C"/>
</svg>
