<svg width="72" height="72" viewBox="0 0 72 72" fill="none" xmlns="http://www.w3.org/2000/svg">
<path d="M16.124 5.12402H55.876V36V66.876H16.124V5.12402Z" fill="#E6E6E6"/>
<path d="M56 67H16V5H56V67ZM16.2484 66.751H55.7515V5.249H16.2484V66.751Z" fill="white"/>
<path d="M55.8758 35.876H16.1243V36.125H55.8758V35.876Z" fill="white"/>
<path d="M36 41.4783C39.0187 41.4783 41.4659 39.0257 41.4659 36.0004C41.4659 32.975 39.0187 30.5225 36 30.5225C32.9813 30.5225 30.5342 32.975 30.5342 36.0004C30.5342 39.0257 32.9813 41.4783 36 41.4783Z" fill="#E6E6E6"/>
<path d="M36 41.6023C34.8915 41.6047 33.8071 41.2782 32.8841 40.6641C31.9612 40.05 31.2412 39.1759 30.8153 38.1524C30.3893 37.1289 30.2766 36.0021 30.4914 34.9145C30.7062 33.8269 31.2388 32.8275 32.0218 32.0427C32.8048 31.258 33.8031 30.7232 34.8902 30.506C35.9773 30.2888 37.1043 30.3991 38.1288 30.8227C39.1532 31.2464 40.0289 31.9645 40.6451 32.8861C41.2612 33.8076 41.5901 34.8913 41.5901 35.9999C41.59 37.4836 41.0015 38.9067 39.9535 39.9569C38.9055 41.0072 37.4837 41.5989 36 41.6023ZM36 30.6465C34.9407 30.6441 33.9045 30.9561 33.0226 31.5429C32.1407 32.1298 31.4527 32.965 31.0457 33.943C30.6387 34.921 30.531 35.9978 30.7362 37.037C30.9415 38.0763 31.4504 39.0313 32.1986 39.7811C32.9468 40.531 33.9007 41.042 34.9395 41.2496C35.9783 41.4571 37.0553 41.3518 38.0342 40.9469C39.0131 40.5421 39.8498 39.8559 40.4386 38.9753C41.0274 38.0947 41.3416 37.0592 41.3416 35.9999C41.3416 34.5821 40.7792 33.2222 39.7778 32.2186C38.7764 31.215 37.4178 30.6496 36 30.6465Z" fill="white"/>
<path d="M31.7864 56.4178C32.2979 55.795 32.941 55.2933 33.6696 54.9489C34.3982 54.6044 35.1941 54.4258 36 54.4258C36.8059 54.4258 37.6018 54.6044 38.3304 54.9489C39.059 55.2933 39.7022 55.795 40.2137 56.4178H31.7864Z" fill="#E6E6E6"/>
<path d="M40.4765 56.5418H31.5242L31.6906 56.3385C32.2137 55.7014 32.8715 55.1882 33.6168 54.8359C34.362 54.4835 35.176 54.3008 36.0003 54.3008C36.8247 54.3008 37.6387 54.4835 38.3839 54.8359C39.1291 55.1882 39.787 55.7014 40.3101 56.3385L40.4765 56.5418ZM32.0579 56.2928H39.9427C39.4432 55.7437 38.8345 55.3051 38.1556 55.005C37.4767 54.7048 36.7426 54.5498 36.0003 54.5498C35.2581 54.5498 34.524 54.7048 33.8451 55.005C33.1662 55.3051 32.5575 55.7437 32.0579 56.2928Z" fill="white"/>
<path d="M48.4224 56.418H23.5776V66.8758H48.4224V56.418Z" fill="#E6E6E6"/>
<path d="M48.5465 66.9998H23.4534V56.293H48.5465V66.9998ZM23.7018 66.7508H48.2981V56.542H23.7018V66.7508Z" fill="white"/>
<path d="M30.2858 66.876H41.7144V63.39H30.2858V66.876Z" fill="#E6E6E6"/>
<path d="M41.8386 66.9996H30.1616V63.2646H41.8386V66.9996ZM30.4101 66.7506H41.5902V63.5136H30.4101V66.7506Z" fill="white"/>
<path d="M40.2137 15.582C39.7022 16.2048 39.059 16.7065 38.3304 17.0509C37.6018 17.3954 36.8059 17.574 36 17.574C35.1941 17.574 34.3982 17.3954 33.6696 17.0509C32.941 16.7065 32.2979 16.2048 31.7864 15.582H40.2137Z" fill="#E6E6E6"/>
<path d="M36.0001 17.699C35.1755 17.7011 34.3608 17.5193 33.6153 17.1668C32.8698 16.8143 32.2123 16.3 31.6906 15.6613L31.5242 15.458H40.4765L40.3101 15.6613C39.7884 16.3 39.1308 16.8143 38.3852 17.1668C37.6396 17.5193 36.8248 17.7011 36.0001 17.699ZM32.0579 15.707C32.5575 16.256 33.1662 16.6946 33.8451 16.9948C34.524 17.2949 35.2581 17.4499 36.0003 17.4499C36.7426 17.4499 37.4767 17.2949 38.1556 16.9948C38.8345 16.6946 39.4432 16.256 39.9427 15.707H32.0579Z" fill="white"/>
<path d="M48.4224 5.12402H23.5776V15.5819H48.4224V5.12402Z" fill="#E6E6E6"/>
<path d="M48.5465 15.7068H23.4534V5H48.5465V15.7068ZM23.7018 15.4578H48.2981V5.249H23.7018V15.4578Z" fill="white"/>
<path d="M41.7142 5.12402H30.2856V8.60996H41.7142V5.12402Z" fill="#E6E6E6"/>
<path d="M41.8386 8.73494H30.1616V5H41.8386V8.73494ZM30.4101 8.48594H41.5902V5.249H30.4101V8.48594Z" fill="white"/>
<path d="M29.2932 49.2456C28.6696 49.2785 27.7096 49.2785 27.1763 49.2785C23.8435 46.9265 21.5063 43.4174 20.6206 39.4355C21.6885 39.514 22.7608 39.514 23.8287 39.4355C24.0011 39.7727 26.1753 44.1638 28.1445 44.6324C28.1316 46.2333 28.5149 47.8124 29.2604 49.2291C29.2701 49.2368 29.2812 49.2424 29.2932 49.2456Z" fill="#E6E6E6"/>
<path d="M27.1762 49.5275H27.0976L27.0336 49.4828C23.6468 47.0981 21.2731 43.5342 20.378 39.4899L20.3052 39.165L20.6371 39.1874C21.6892 39.2666 22.7458 39.2669 23.798 39.1884L23.9707 39.167L24.0498 39.3217C25.195 41.584 26.8725 44.0749 28.2016 44.3911L28.3928 44.4368V44.6332C28.3889 46.1598 28.7454 47.6658 29.4332 49.0286L30.6594 49.4225L29.3061 49.4945C28.6762 49.5275 27.7003 49.5275 27.1762 49.5275ZM20.9389 39.7039C21.853 43.4714 24.0956 46.7826 27.2549 49.0296C27.6746 49.0296 28.3224 49.0286 28.8654 49.013C28.2494 47.6997 27.9194 46.2704 27.8973 44.82C26.1757 44.2237 24.4288 41.1521 23.6849 39.701C22.7705 39.7593 21.8534 39.7603 20.9389 39.7039Z" fill="#181818"/>
<path d="M23.8205 39.4113C23.8215 39.42 23.8243 39.4284 23.8287 39.436C22.7607 39.5145 21.6885 39.5145 20.6205 39.436C20.3528 38.2347 20.218 37.0076 20.2185 35.7768C20.2136 32.9452 20.9339 30.1595 22.3108 27.6853C23.2133 27.6524 24.5179 27.7347 25.1087 27.7758C25.1044 27.7848 25.0989 27.7931 25.0922 27.8005C25.1433 29.8895 25.4801 31.9618 26.0932 33.9595C26.0932 33.9595 24.6081 35.0449 23.8205 39.4113Z" fill="#E6E6E6"/>
<path d="M22.4779 39.7465C21.7787 39.7465 21.0596 39.7134 20.6039 39.6833L20.4186 39.6716L20.3778 39.4897C20.1064 38.2705 19.9696 37.0252 19.9697 35.7762C19.9683 32.9025 20.6993 30.0759 22.0937 27.5632L22.1616 27.4406L22.3013 27.4357C22.9482 27.4134 23.924 27.4445 25.1255 27.5272L25.4972 27.5525L25.3385 27.8705C25.4005 29.9106 25.734 31.9333 26.3304 33.8853L26.3833 34.0555L26.2396 34.1605C26.227 34.1702 24.8368 35.2615 24.0788 39.3768L24.2171 39.6374L23.859 39.6822C23.4002 39.73 22.9391 39.7514 22.4779 39.7465ZM20.8232 39.1979C21.7492 39.26 22.6782 39.2636 23.6047 39.2086C24.2758 35.6332 25.4142 34.2608 25.8092 33.8785C25.232 31.9718 24.9061 29.9978 24.8396 28.0067C23.8526 27.9425 23.0369 27.9133 22.4595 27.9299C20.5932 31.3723 20.0131 35.3667 20.8232 39.1979V39.1979Z" fill="#181818"/>
<path d="M30.5567 23.0554C28.0378 24.0257 25.3548 27.4547 25.1086 27.7754C24.5179 27.7343 23.2133 27.6521 22.3108 27.6849C24.1163 24.4336 26.9797 21.8976 30.4254 20.498L30.5567 23.0554Z" fill="#424242"/>
<path d="M25.2242 28.0336L25.0917 28.0239C23.9067 27.9422 22.9479 27.913 22.32 27.9344L21.8779 27.9499L22.0939 27.5638C23.9305 24.2656 26.8367 21.6921 30.3329 20.268L30.656 20.1377L30.8137 23.2229L30.6459 23.2881C28.1546 24.2481 25.4207 27.7778 25.3057 27.9276L25.2242 28.0336ZM22.7659 27.4286C23.3516 27.4286 24.1091 27.4587 24.9942 27.5181C25.5285 26.8392 27.9363 23.895 30.2994 22.8912L30.1956 20.8642C27.0827 22.2128 24.4753 24.5102 22.7456 27.4286L22.7659 27.4286Z" fill="#181818"/>
<path d="M42.4701 20.5142C42.4619 21.0322 42.4291 22.4301 42.3716 23.2606C42.3597 23.2575 42.3485 23.2519 42.3388 23.2442C40.2651 23.2238 38.2176 23.7092 36.3738 24.6586C34.8887 23.2031 30.5648 23.0551 30.5648 23.0551H30.5566L30.4253 20.4977C34.2893 18.9352 38.6103 18.9411 42.4701 20.5142H42.4701Z" fill="#E6E6E6"/>
<path d="M36.3382 24.9723L36.2003 24.8371C34.8013 23.4667 30.5986 23.3052 30.5559 23.3043L30.3284 23.2965L30.3085 23.0679L30.1682 20.3348L30.3317 20.2677C34.2559 18.6811 38.644 18.687 42.5639 20.2842L42.7216 20.3484L42.7187 20.5186C42.7109 20.9972 42.6784 22.425 42.6197 23.279L42.5969 23.6048L42.2859 23.4949C40.2762 23.488 38.2939 23.9601 36.5031 24.8721L36.3382 24.9723ZM30.7932 22.8179C31.7099 22.8695 34.9727 23.1389 36.4085 24.3547C38.1939 23.4817 40.152 23.0191 42.1393 23.0008C42.182 22.246 42.2087 21.2063 42.2189 20.682C38.5125 19.2259 34.3936 19.2193 30.6826 20.6635L30.7932 22.8179Z" fill="#181818"/>
<path d="M51.0934 28.8034L50.396 29.5599L50.3878 29.5517C49.234 28.9149 48.0225 28.389 46.7694 27.9811C45.7297 26.0586 44.2159 24.4339 42.3716 23.2611C42.429 22.4306 42.4619 21.0327 42.47 20.5146C46.2914 22.0843 49.3738 25.0471 51.0934 28.8034Z" fill="#E6E6E6"/>
<path d="M50.3979 29.9244L50.2154 29.7309C49.0923 29.1119 47.911 28.6046 46.6887 28.2165L46.6013 28.1863L46.5547 28.1056C45.5375 26.2221 44.0562 24.6295 42.2511 23.4788L42.1133 23.4019L42.124 23.2434C42.1822 22.4011 42.2147 20.9849 42.222 20.5103L42.2278 20.1465L42.5641 20.2836C46.4489 21.8696 49.5809 24.8799 51.3194 28.6989L51.3888 28.8497L50.3979 29.9244ZM46.9381 27.7759C48.1173 28.1668 49.2633 28.6518 50.3649 29.2261L50.7982 28.7563C49.1513 25.2354 46.2758 22.4367 42.7116 20.8857C42.699 21.4761 42.6718 22.4371 42.6296 23.1237C44.4168 24.308 45.8942 25.9032 46.9381 27.7759Z" fill="#181818"/>
<path d="M37.2355 30.5221C35.3784 31.9932 33.6466 33.616 32.0582 35.3737L26.0933 33.9594C25.4801 31.9616 25.1433 29.8894 25.0923 27.8004C25.0989 27.793 25.1045 27.7846 25.1087 27.7757C25.3548 27.455 28.0379 24.026 30.5568 23.0557H30.565C30.565 23.0557 34.8889 23.2037 36.374 24.6592C36.7961 26.5913 37.0839 28.5503 37.2355 30.5221Z" fill="white"/>
<path d="M32.1564 35.6532L25.8982 34.17L25.856 34.0338C25.2311 32.0106 24.8905 29.9103 24.8438 27.7933L24.8467 27.699L24.9117 27.63C25.2091 27.237 27.892 23.8153 30.4673 22.8232L30.5565 22.8066C30.754 22.8135 35.0111 22.9759 36.5479 24.4815L36.6003 24.5331L36.6163 24.6041C37.0401 26.5492 37.3298 28.5212 37.4834 30.5061L37.4917 30.6364L37.3908 30.7172C35.5492 32.1763 33.8312 33.785 32.2544 35.5269L32.1564 35.6532ZM26.2898 33.7507L31.9623 35.0949C33.5056 33.4006 35.1832 31.8338 36.9788 30.4097C36.8261 28.5195 36.5486 26.6415 36.1481 24.7879C34.7797 23.5361 31.0423 23.327 30.5993 23.3065C28.2376 24.2451 25.6735 27.4568 25.3387 27.8857C25.3949 29.8742 25.7147 31.8464 26.2898 33.7507Z" fill="#181818"/>
<path d="M33.5103 42.1738C31.8101 43.174 30.0121 43.9979 28.1443 44.6324C26.1751 44.1638 24.0009 39.7727 23.8285 39.4355C23.8241 39.428 23.8213 39.4196 23.8203 39.4108C24.608 35.0444 26.0931 33.959 26.0931 33.959L32.058 35.3734L33.5103 42.1738Z" fill="#424242"/>
<path d="M28.1428 44.8816C28.123 44.8822 28.1032 44.8799 28.0841 44.8748C26.2571 44.4401 24.3574 41.031 23.6256 39.5856C23.5934 39.533 23.5749 39.4731 23.5718 39.4115C24.3724 34.9539 25.883 33.8052 25.9466 33.7585L26.0393 33.6914L32.2684 35.1679L33.7882 42.2866L33.6499 42.381C33.0603 42.7827 28.8872 44.8816 28.1428 44.8816ZM24.0784 39.3795C25.225 41.6292 26.8841 44.0773 28.2015 44.3915C29.9392 43.7532 31.6214 42.9731 33.2311 42.0591L31.8481 35.5803L26.1611 34.2322C25.8554 34.5289 24.732 35.8303 24.0784 39.3795Z" fill="#181818"/>
<path d="M48.0085 47.2721C46.5124 48.8377 44.7143 50.0835 42.7231 50.9344C40.7318 51.7852 38.5886 52.2234 36.4232 52.2224C36.2345 52.2224 36.054 52.2224 35.8653 52.2059L35.8489 51.359C38.9667 51.4905 41.3708 48.7029 41.3708 48.7029C42.4669 48.8323 43.5782 48.7017 44.6145 48.3217C45.6508 47.9417 46.5831 47.323 47.3357 46.5156L48.0085 47.2721Z" fill="#E6E6E6"/>
<path d="M36.423 52.4715C36.227 52.4715 36.0397 52.4716 35.8432 52.454L35.6209 52.4346L35.5947 51.0992L35.8587 51.1099C38.8032 51.2392 41.1596 48.5664 41.1829 48.5392L41.262 48.4477L41.3833 48.4536C42.4418 48.5759 43.5143 48.4496 44.5154 48.0845C45.5165 47.7194 46.4186 47.1258 47.1499 46.3507L47.3353 46.1416L48.347 47.2786L48.1874 47.4449C46.6711 49.0384 44.8458 50.306 42.8231 51.1703C40.8004 52.0345 38.6227 52.4773 36.423 52.4715ZM36.109 51.9706C36.2134 51.9736 36.3129 51.9696 36.423 51.9736C38.517 51.9793 40.5909 51.5655 42.5224 50.7566C44.4538 49.9477 46.2037 48.7602 47.6687 47.264L47.3324 46.8867C46.5684 47.6408 45.6475 48.2173 44.6354 48.575C43.6232 48.9328 42.5446 49.063 41.4764 48.9564C40.0913 50.4977 38.1674 51.4485 36.1018 51.6127L36.109 51.9706Z" fill="#181818"/>
<path d="M35.8652 52.2064C32.7439 52.1072 29.7213 51.0888 27.1763 49.279C27.7096 49.279 28.6696 49.279 29.2931 49.2461C31.3025 50.3835 33.5214 51.1024 35.816 51.3594H35.8489L35.8652 52.2064Z" fill="#424242"/>
<path d="M36.1184 52.4635L35.8569 52.4548C32.6871 52.3531 29.6176 51.3188 27.0326 49.4814L26.396 49.0291H27.1763C27.696 49.0291 28.6626 49.0291 29.2798 48.9961L29.3526 48.9922L29.4162 49.0292C31.3924 50.1453 33.5728 50.8528 35.8278 51.1097L36.0602 51.1213L36.0971 51.3538L36.1184 52.4635ZM27.989 49.5252C30.2766 50.9801 32.9035 51.8144 35.6113 51.9461L35.6045 51.593C33.3667 51.3072 31.2042 50.5957 29.2337 49.497C28.8708 49.5145 28.4103 49.5213 27.989 49.5252Z" fill="#181818"/>
<path d="M52.595 36.689V36.6972C52.3917 40.6599 50.7628 44.4156 48.0084 47.272L47.3357 46.5155C48.5035 45.0923 49.1926 43.337 49.3048 41.4994C50.723 40.2198 51.6876 38.5144 52.0535 36.6396L52.595 36.689Z" fill="#E6E6E6"/>
<path d="M48.0011 47.6372L47.0029 46.5157L47.1504 46.3504C48.277 44.9694 48.9435 43.2706 49.0565 41.492L49.0594 41.3879L49.1351 41.3169C50.5105 40.0752 51.4478 38.4223 51.8074 36.6045L51.8409 36.3701L52.8434 36.4615V36.6969C52.636 40.7232 50.9828 44.5394 48.1874 47.4446L48.0011 47.6372ZM47.6663 46.5128L48.0142 46.9038C50.5599 44.17 52.0853 40.6421 52.3334 36.9148L52.2577 36.908C51.8414 38.7098 50.8982 40.3469 49.5481 41.6107C49.4238 43.3958 48.7684 45.103 47.6663 46.5128Z" fill="#181818"/>
<path d="M52.6277 35.7768C52.6277 36.0893 52.6195 36.3853 52.5949 36.6896L52.0534 36.6403C52.0575 36.6297 52.0603 36.6187 52.0616 36.6074C52.4636 34.3954 50.5027 29.8234 50.396 29.5603L51.0934 28.8037C52.1081 30.9881 52.6318 33.3683 52.6277 35.7768Z" fill="#424242"/>
<path d="M52.822 36.9595L51.7166 36.8584L51.8181 36.5598C52.1621 34.6631 50.6583 30.8378 50.1896 29.7104L50.1279 29.5635L50.2133 29.3904L51.162 28.3613L51.3187 28.6979C52.3515 30.9141 52.8832 33.3307 52.8759 35.7758C52.8759 36.0958 52.8676 36.3983 52.8424 36.7095L52.822 36.9595ZM52.3397 36.4158L52.364 36.4178C52.3751 36.2067 52.379 35.9957 52.379 35.7759C52.3855 33.529 51.9232 31.3056 51.0218 29.2475L50.686 29.6113C51.3231 31.1616 52.5518 34.4579 52.3397 36.4158Z" fill="#181818"/>
<path d="M41.3706 48.7029C41.3706 48.7029 38.9666 51.4905 35.8487 51.359H35.8159C33.5213 51.102 31.3024 50.3831 29.293 49.2456C29.2811 49.2425 29.2699 49.2369 29.2602 49.2292C28.5148 47.8125 28.1314 46.2333 28.1444 44.6325C30.0121 43.9979 31.8102 43.1741 33.5104 42.1738C33.5104 42.1738 37.8672 44.1474 40.2137 44.3036C40.4024 44.6736 41.3706 48.7029 41.3706 48.7029Z" fill="white"/>
<path d="M36.0656 51.6131C35.9904 51.6131 35.9147 51.6111 35.8385 51.6082C33.4935 51.35 31.2251 50.6198 29.1697 49.4616L29.0475 49.3585C28.2758 47.9041 27.88 46.2798 27.896 44.6334V44.3144L28.2046 44.3923C29.993 43.7343 31.7214 42.9233 33.3706 41.9684L33.4856 41.8906L33.6127 41.948C33.6559 41.9675 37.9557 43.904 40.2305 44.0557L40.3713 44.0645L40.4353 44.1909C40.6275 44.5683 41.4495 47.9667 41.6125 48.6446L41.6421 48.7691L41.5587 48.8654C41.4596 48.9802 39.1532 51.6131 36.0656 51.6131ZM29.4444 49.0502C31.4132 50.1564 33.5838 50.8569 35.8278 51.1102C38.5234 51.2337 40.6532 49.1056 41.0981 48.6319C40.758 47.2226 40.2281 45.1042 40.0393 44.539C37.7918 44.117 35.6053 43.4176 33.5302 42.4566C31.8867 43.3903 30.1693 44.1873 28.3953 44.8396C28.4208 46.3046 28.7796 47.7445 29.4444 49.0502Z" fill="#181818"/>
<path d="M49.3047 41.4996C49.1924 43.3371 48.5034 45.0924 47.3355 46.5156C46.5829 47.323 45.6506 47.9417 44.6143 48.3217C43.578 48.7017 42.4667 48.8323 41.3705 48.7029C41.3705 48.7029 40.4024 44.6737 40.2136 44.3036C40.2136 44.3036 44.7182 40.6772 45.1694 39.748L49.3047 41.4996Z" fill="#424242"/>
<path d="M41.937 48.9664C41.7473 48.9664 41.5543 48.9615 41.3581 48.9518L41.1727 48.9421L41.129 48.7612C40.7573 47.2147 40.1202 44.6673 39.9926 44.4164L39.9009 44.2364L40.0581 44.109C41.8516 42.6656 44.633 40.2846 44.9465 39.6397L45.0494 39.4277L49.5583 41.3361L49.5534 41.5063C49.4449 43.4039 48.7328 45.2172 47.5212 46.6817C46.8152 47.4491 45.9489 48.0516 44.9838 48.4465C44.0186 48.8413 42.9784 49.0188 41.937 48.9664ZM41.5682 48.4616C42.5985 48.5655 43.6388 48.429 44.6073 48.0628C45.5759 47.6966 46.4463 47.1106 47.15 46.351C48.2447 45.0167 48.9061 43.3801 49.0458 41.66L45.2672 40.06C43.7942 41.6213 42.2036 43.0673 40.5093 44.3853C40.7617 45.1468 41.361 47.6037 41.5682 48.4616H41.5682Z" fill="#181818"/>
<path d="M52.0615 36.6074C52.0602 36.6187 52.0575 36.6297 52.0533 36.6403C51.6874 38.5151 50.7229 40.2205 49.3047 41.5001L45.1694 39.7486C45.1694 39.7486 44.4966 33.4333 43.791 32.685L46.7694 27.9814C48.0225 28.3894 49.234 28.9153 50.3877 29.5521L50.3959 29.5603C50.5026 29.8234 52.4636 34.3954 52.0615 36.6074Z" fill="white"/>
<path d="M49.3571 41.7917L44.9384 39.9203L44.9229 39.7744C44.6662 37.3652 44.0824 33.356 43.6108 32.8551L43.4778 32.7141L46.6654 27.6816L46.8507 27.7458C48.1371 28.1558 49.3774 28.6982 50.5517 29.3643L50.626 29.4655C51.2641 30.9993 52.6548 34.6457 52.3103 36.629L52.2889 36.7194C51.9082 38.6325 50.9215 40.3722 49.4749 41.6809L49.3571 41.7917ZM45.4013 39.576L49.2517 41.2062C50.5658 39.9788 51.46 38.3688 51.8075 36.6046L51.8173 36.5618C52.1623 34.6632 50.6585 30.8378 50.1897 29.7105C49.1336 29.1276 48.0231 28.649 46.874 28.2817L44.0892 32.6781C44.7346 33.8063 45.2635 38.3126 45.4013 39.576Z" fill="#181818"/>
<path d="M45.1695 39.7487C44.7183 40.6779 40.2138 44.3042 40.2138 44.3042C37.8672 44.148 33.5104 42.1745 33.5104 42.1745L32.0581 35.3741C33.6465 33.6163 35.3783 31.9935 37.2354 30.5225C39.5008 30.9728 41.7024 31.6991 43.7911 32.6851C44.4967 33.4334 45.1695 39.7487 45.1695 39.7487Z" fill="#E6E6E6"/>
<path d="M40.294 44.5585L40.1975 44.5517C37.8333 44.3951 33.5874 42.4829 33.4079 42.4012L33.2933 42.3497L31.791 35.3126L31.8624 35.2212C33.4602 33.4456 35.2058 31.8086 37.0802 30.3278L37.1685 30.2568L37.2802 30.2773C39.5672 30.7348 41.7903 31.4681 43.9009 32.4608L43.9717 32.5134C44.6981 33.2847 45.3027 38.6536 45.4168 39.7226L45.4246 39.7936L45.393 39.8578C44.931 40.809 40.8351 44.1228 40.3697 44.4982L40.294 44.5585ZM33.7267 41.9985C35.7701 42.9433 37.9225 43.6316 40.1349 44.0479C41.8521 42.7405 43.4515 41.2851 44.9145 39.6983C44.6583 37.325 44.0983 33.4938 43.6364 32.8859C41.6148 31.9402 39.4888 31.236 37.3024 30.7879C35.522 32.2019 33.8578 33.7562 32.3257 35.4361L33.7267 41.9985Z" fill="#181818"/>
<path d="M46.7694 27.9812L43.791 32.6848C41.7024 31.6987 39.5007 30.9724 37.2353 30.5221C37.0838 28.5502 36.7959 26.5912 36.3738 24.6591C38.2176 23.7097 40.265 23.2243 42.3388 23.2448C42.3485 23.2524 42.3596 23.258 42.3716 23.2612C44.2159 24.434 45.7297 26.0587 46.7694 27.9812Z" fill="#424242"/>
<path d="M43.8815 33.0065L43.6816 32.9083C41.6126 31.9348 39.4331 31.216 37.1909 30.7675L37.0002 30.7325L36.9876 30.539C36.836 28.5803 36.5502 26.6343 36.1321 24.7148L36.0923 24.5397L36.2451 24.4463C38.1252 23.471 40.2162 22.973 42.334 22.9961L42.4354 22.9941L42.4922 23.0476C44.3735 24.2438 45.9194 25.899 46.9847 27.8573L47.0604 27.9877L43.8815 33.0065ZM37.4704 30.3133C39.6177 30.7592 41.7073 31.4477 43.6991 32.3656L46.4786 27.977C45.4699 26.1597 44.0274 24.6201 42.2797 23.4951C40.3328 23.5046 38.4123 23.9461 36.6567 24.7877C37.045 26.6104 37.3168 28.456 37.4704 30.3133Z" fill="#181818"/>
<path d="M36.4232 52.5966C33.0863 52.645 29.8103 51.6998 27.0121 49.8811C24.214 48.0624 22.02 45.4524 20.7094 42.3833C19.3988 39.3141 19.0307 35.9245 19.652 32.6455C20.2733 29.3666 21.856 26.3466 24.1986 23.9697C26.5412 21.5927 29.5378 19.9664 32.8074 19.2974C36.077 18.6285 39.4716 18.9472 42.5595 20.2131C45.6474 21.479 48.2889 23.6347 50.1481 26.4062C52.0073 29.1776 53.0001 32.4394 53.0002 35.7767C53.0271 40.2038 51.297 44.4609 48.1893 47.614C45.0816 50.7672 40.8502 52.5591 36.4232 52.5966ZM36.4232 19.7048C33.234 19.6567 30.1026 20.5584 27.4275 22.2953C24.7523 24.0321 22.6544 26.5256 21.4005 29.4583C20.1467 32.3911 19.7937 35.6306 20.3865 38.7645C20.9792 41.8985 22.4909 44.7853 24.7292 47.0575C26.9675 49.3298 29.8312 50.8848 32.9559 51.5247C36.0806 52.1645 39.325 51.8604 42.2763 50.6508C45.2276 49.4413 47.7523 47.3811 49.5293 44.7324C51.3062 42.0837 52.255 38.9663 52.2549 35.7767C52.2816 31.5476 50.6299 27.4805 47.662 24.4675C44.694 21.4546 40.6523 19.7418 36.4232 19.7048Z" fill="#181818"/>
</svg>
