<svg width="72" height="72" viewBox="0 0 72 72" fill="none" xmlns="http://www.w3.org/2000/svg">
<path d="M50.1691 5H21.8713V67H50.1691V5Z" fill="#E6E6E6"/>
<path d="M49.6637 5.5V66.5H22.3768V5.5H49.6637ZM50.1691 5H21.8713V67H50.1691V5Z" fill="white"/>
<path d="M46.8464 5H25.1943V67H46.8464V5Z" fill="#E6E6E6"/>
<path d="M46.341 5.5V66.5H25.6998V5.5H46.341ZM46.8464 5H25.1943V67H46.8464V5Z" fill="white"/>
<path d="M46.8464 5H25.1943V67H46.8464V5Z" fill="#E6E6E6"/>
<path d="M46.341 5.5V66.5H25.6998V5.5H46.341ZM46.8464 5H25.1943V67H46.8464V5Z" fill="white"/>
<path d="M46.8461 52.9834H25.1941V19.4834H36.0201H46.8461V52.9834Z" fill="#E6E6E6"/>
<path d="M46.341 19.9824V52.4824H25.6998V19.9824H46.341ZM46.8464 19.4824H25.1943V52.9824H46.8464V19.4824Z" fill="white"/>
<path d="M36.273 19.4824H35.7676V52.9824H36.273V19.4824Z" fill="white"/>
<path d="M14.369 9.57328C8.37248 13.6163 6.55059 21.3065 12.048 29.2894C13.7087 31.6964 15.753 33.8146 18.0994 35.5598C20.6648 37.4672 23.6894 38.4591 26.5541 39.8122C29.1469 41.0531 31.6313 42.5086 33.9814 44.1636C36.3406 45.6274 38.4248 47.4935 40.1395 49.6771L42.6534 47.9821C41.4091 45.9431 40.5137 43.7109 40.0039 41.3773C39.2488 38.5958 38.7241 35.7569 38.4349 32.8893C38.1229 29.7495 38.4358 26.6591 37.7121 23.5548C36.9615 20.3661 35.622 17.3457 33.7626 14.6488C28.2652 6.66588 20.3655 5.53026 14.369 9.57328ZM33.4334 37.2573C27.5287 41.2384 17.8627 35.9572 12.8832 28.7263C8.11988 21.8094 8.94152 14.4427 14.938 10.3996C20.9345 6.35658 28.1641 8.29505 32.9274 15.2119C37.9069 22.4428 39.3382 33.2762 33.4334 37.2573L33.4334 37.2573ZM37.9517 35.5783C38.2572 37.7428 38.6995 39.8857 39.276 41.9943C39.5933 43.1484 39.9258 44.3245 40.3466 45.4664C40.4314 45.6888 40.4387 45.9333 40.3672 46.1603C40.2957 46.3873 40.1497 46.5835 39.9527 46.7172C39.7519 46.8506 39.5124 46.9132 39.272 46.895C39.0316 46.8768 38.8042 46.7789 38.6257 46.6169C37.4107 45.5721 36.1371 44.5974 34.8112 43.6976C33.2699 42.6313 31.7321 41.6594 30.1956 40.7956C30.1031 40.7441 30.0295 40.6645 29.9855 40.5683C29.9415 40.4721 29.9293 40.3643 29.9508 40.2607C29.9722 40.1571 30.0262 40.0631 30.1048 39.9923C30.1835 39.9215 30.2826 39.8777 30.3879 39.8672C31.7649 39.708 33.0838 39.2212 34.2341 38.4478C35.3845 37.6743 36.3328 36.6365 36.9998 35.4214C37.0496 35.327 37.1278 35.2507 37.2234 35.2033C37.319 35.1559 37.427 35.1397 37.5323 35.157C37.6375 35.1744 37.7347 35.2244 37.81 35.3C37.8852 35.3756 37.9348 35.473 37.9517 35.5783L37.9517 35.5783Z" fill="#CCA761"/>
<path d="M21.5576 7.29692C25.8607 7.29692 30.2911 9.60792 33.7626 14.6489C35.622 17.3459 36.9615 20.3663 37.7121 23.5549C38.4357 26.6592 38.1229 29.7496 38.4349 32.8894C38.7241 35.757 39.2488 38.596 40.0039 41.3775C40.5137 43.711 41.4091 45.9433 42.6534 47.9822L40.1395 49.6772C38.4248 47.4936 36.3406 45.6275 33.9814 44.1637C31.6313 42.5087 29.1468 41.0532 26.5541 39.8123C23.6893 38.4592 20.6648 37.4673 18.0993 35.5599C15.7529 33.8147 13.7087 31.6964 12.048 29.2895C6.55058 21.3065 8.37246 13.6163 14.369 9.57333C16.4828 8.11103 18.9874 7.31791 21.5576 7.29692H21.5576ZM28.7116 38.6245C30.3875 38.6561 32.0336 38.1795 33.4334 37.2574C39.3382 33.2762 37.9069 22.4429 32.9274 15.212C29.8222 10.7027 25.6695 8.30936 21.4929 8.30968C19.1474 8.33052 16.8627 9.05899 14.938 10.3997C8.94152 14.4427 8.11988 21.8095 12.8831 28.7264C16.6822 34.2431 23.2083 38.6246 28.7116 38.6246V38.6245ZM39.3594 46.8987C39.5306 46.899 39.6993 46.8576 39.851 46.7782C40.0027 46.6987 40.1327 46.5835 40.2299 46.4425C40.3271 46.3015 40.3885 46.139 40.4088 45.9689C40.4292 45.7989 40.4078 45.6265 40.3466 45.4666C39.9257 44.3246 39.5933 43.1486 39.276 41.9944C38.6995 39.8859 38.2572 37.7429 37.9517 35.5784C37.935 35.4587 37.8752 35.3491 37.7834 35.2705C37.6916 35.1918 37.5741 35.1494 37.4532 35.1513C37.3603 35.1512 37.2691 35.1763 37.1892 35.2238C37.1094 35.2714 37.0439 35.3398 36.9998 35.4216C36.3328 36.6367 35.3844 37.6745 34.2341 38.448C33.0838 39.2214 31.7649 39.7082 30.3879 39.8674C30.2826 39.8779 30.1834 39.9217 30.1048 39.9925C30.0261 40.0633 29.9722 40.1573 29.9507 40.2609C29.9292 40.3645 29.9414 40.4723 29.9854 40.5685C30.0295 40.6647 30.1031 40.7443 30.1955 40.7958C31.7321 41.6596 33.2698 42.6315 34.8112 43.6978C36.1371 44.5976 37.4107 45.5723 38.6257 46.617C38.8275 46.7976 39.0886 46.8978 39.3594 46.8987V46.8987ZM21.5576 6.54691C18.8356 6.57039 16.1831 7.40863 13.942 8.95358C7.07326 13.5847 6.06032 21.9267 11.4214 29.7117C13.127 32.1884 15.2294 34.3668 17.6438 36.1594C19.5721 37.4863 21.6493 38.5824 23.8329 39.4254C24.6236 39.7658 25.4411 40.1177 26.2274 40.4891C28.7814 41.7125 31.229 43.1467 33.5447 44.7767C35.8299 46.1885 37.8499 47.99 39.5129 50.0994L39.9399 50.7194L40.5665 50.2969C43.3749 48.4034 43.3749 48.4034 43.4082 48.0523L43.4337 47.7833L43.2799 47.56C42.0822 45.5914 41.2225 43.4361 40.7363 41.1837C39.9922 38.4415 39.4748 35.6428 39.1894 32.8159C39.0749 31.6637 39.0458 30.4872 39.0177 29.3494C39.0346 27.3475 38.8447 25.3492 38.4509 23.3863C37.6756 20.108 36.2983 17.0021 34.3891 14.2266C30.9787 9.27424 26.4217 6.54688 21.5576 6.54688V6.54691ZM28.7116 37.8745C23.7218 37.8745 17.3286 33.8495 13.5097 28.3041C8.99951 21.7547 9.74511 14.8086 15.365 11.0195C17.1621 9.76086 19.299 9.07747 21.493 9.05968C25.4842 9.05968 29.4236 11.456 32.3009 15.6342C38.2538 24.2786 37.4505 33.6413 33.0065 36.6376C31.733 37.4749 30.2354 37.9062 28.7116 37.8745L28.7116 37.8745ZM31.1913 40.4987C32.4347 40.2591 33.6168 39.771 34.667 39.0636C35.7173 38.3563 36.6139 37.4443 37.3033 36.3822C37.6086 38.3392 38.0227 40.2777 38.5437 42.1887C38.8594 43.3368 39.203 44.5531 39.6343 45.7234C39.6614 45.7889 39.6655 45.8616 39.6457 45.9296C39.626 45.9976 39.5837 46.0569 39.5257 46.0976C39.4767 46.1311 39.4187 46.1489 39.3593 46.1486C39.2752 46.1475 39.1944 46.1156 39.1323 46.059C37.8949 44.9957 36.5986 44.0031 35.2495 43.0858C33.8711 42.1322 32.5099 41.2645 31.1914 40.4987L31.1913 40.4987Z" fill="#795E2E"/>
<path d="M28.702 38.7494C26.6408 38.6996 24.6141 38.209 22.7583 37.3104C18.7426 35.3971 15.3007 32.4612 12.7782 28.7972C7.97077 21.8153 8.80989 14.3808 14.867 10.2968C16.2362 9.32468 17.8029 8.66646 19.4555 8.36904C21.1081 8.07162 22.8059 8.14231 24.4281 8.57609C27.9887 9.66625 31.0411 11.9957 33.0321 15.1425C38.0449 22.4223 39.4718 33.3378 33.5045 37.3617C32.0802 38.2979 30.4061 38.7817 28.702 38.7494ZM21.479 8.43205C19.1628 8.45465 16.9076 9.17682 15.0092 10.5038C9.07737 14.5033 8.26445 21.7983 12.9875 28.6567C15.4837 32.2833 18.89 35.1895 22.8645 37.0834C26.939 38.9462 30.6675 38.9726 33.3624 37.1547C39.2064 33.2143 37.7686 22.4653 32.8229 15.2831C30.8658 12.1861 27.8643 9.89231 24.362 8.8173C23.422 8.56331 22.4527 8.43379 21.479 8.43205Z" fill="#181818"/>
<path d="M28.702 38.7494C26.6408 38.6996 24.6141 38.209 22.7583 37.3104C18.7426 35.3971 15.3007 32.4612 12.7782 28.7972C7.97077 21.8153 8.80989 14.3808 14.867 10.2968C16.2362 9.32468 17.8029 8.66646 19.4555 8.36904C21.1081 8.07162 22.8059 8.14231 24.4281 8.57609C27.9887 9.66625 31.0411 11.9957 33.0321 15.1425C38.0449 22.4223 39.4718 33.3378 33.5045 37.3617C32.0802 38.2979 30.4061 38.7817 28.702 38.7494ZM21.479 8.43205C19.1628 8.45465 16.9076 9.17682 15.0092 10.5038C9.07737 14.5033 8.26445 21.7983 12.9875 28.6567C15.4837 32.2833 18.89 35.1895 22.8645 37.0834C26.939 38.9462 30.6675 38.9726 33.3624 37.1547C39.2064 33.2143 37.7686 22.4653 32.8229 15.2831C30.8658 12.1861 27.8643 9.89231 24.362 8.8173C23.422 8.56331 22.4527 8.43379 21.479 8.43205Z" fill="#181818"/>
<path d="M53.1608 62.6191C52.8432 63.1782 52.3775 63.6388 51.8149 63.95C51.3131 64.3554 50.7099 64.6157 50.0706 64.7025C49.9345 64.7128 49.7981 64.6868 49.6754 64.6271C49.5526 64.5674 49.4479 64.4762 49.372 64.3628C49.2529 64.1626 49.162 63.947 49.1018 63.7221C48.9384 63.2723 48.7371 62.8373 48.4999 62.4217L41.5229 52.2901C41.1701 51.7778 40.8339 51.2542 40.5118 50.7331L40.4804 50.6697C40.4132 50.5605 40.3914 50.4293 40.4194 50.3042C40.4474 50.1791 40.5231 50.0699 40.6305 49.9997L42.7993 48.5495C42.9048 48.4773 43.0342 48.4486 43.1603 48.4696C43.2864 48.4906 43.3996 48.5595 43.476 48.662L43.564 48.772C43.9078 49.2179 44.2431 49.6695 44.5561 50.124L51.59 60.3382C51.891 60.7124 52.2268 61.0573 52.593 61.3682C52.8672 61.6069 53.4456 61.9672 53.1608 62.6191Z" fill="#503D1C"/>
<path d="M43.0807 48.4629C43.1575 48.4627 43.2334 48.4806 43.3021 48.5152C43.3707 48.5497 43.4303 48.5999 43.476 48.6617L43.564 48.7718C43.9078 49.2177 44.2431 49.6692 44.556 50.1237L51.59 60.3379C51.891 60.7122 52.2268 61.0571 52.5929 61.368C52.8672 61.6066 53.4455 61.967 53.1607 62.6188C52.8432 63.178 52.3774 63.6385 51.8148 63.9498C51.313 64.3552 50.7098 64.6155 50.0706 64.7023L50.0491 64.7025C49.9164 64.7094 49.7842 64.6817 49.6655 64.6221C49.5468 64.5625 49.4456 64.4731 49.3719 64.3626C49.2528 64.1624 49.1619 63.9468 49.1017 63.7219C48.9384 63.2721 48.737 62.837 48.4999 62.4214L41.5229 52.2899C41.1701 51.7775 40.8339 51.2539 40.5118 50.7329L40.4803 50.6694C40.4132 50.5602 40.3913 50.4291 40.4194 50.3039C40.4474 50.1788 40.5231 50.0696 40.6304 49.9994L42.7993 48.5492C42.8824 48.493 42.9804 48.463 43.0807 48.4629L43.0807 48.4629ZM43.0807 47.7129H43.0806C42.8282 47.7127 42.5814 47.7881 42.3723 47.9295L40.2059 49.3781C39.9444 49.5503 39.7579 49.8153 39.6842 50.1197C39.6104 50.4241 39.6549 50.745 39.8087 51.0179L39.8311 51.0631L39.8466 51.0944L39.865 51.1242C40.232 51.7178 40.5693 52.2372 40.8964 52.7121L47.8734 62.8436C48.0762 63.2123 48.2504 63.5961 48.3944 63.9916L48.4129 64.051C48.4866 64.3108 48.5987 64.5581 48.7454 64.7848C48.8898 64.9959 49.0847 65.1676 49.3124 65.2842C49.5401 65.4008 49.7934 65.4587 50.0491 65.4524C50.8498 65.3754 51.6112 65.0688 52.2418 64.5695C52.9295 64.1808 53.4915 63.6033 53.8614 62.9052C54.0012 62.5403 54.0096 62.1382 53.885 61.7678C53.7605 61.3974 53.5109 61.082 53.179 60.8758L53.0938 60.8048C52.766 60.5278 52.4653 60.2204 52.1956 59.8867L45.1826 49.7015C44.8919 49.2793 44.5596 48.8265 44.1668 48.317L44.0705 48.1964C43.9536 48.0453 43.8036 47.9232 43.6319 47.8393C43.4603 47.7555 43.2717 47.7123 43.0807 47.7129L43.0807 47.7129Z" fill="#231400"/>
<path d="M48.3184 62.7901L48.2507 62.294L48.2754 62.292C48.6505 62.2603 49.7922 62.1636 52.1219 60.5928L52.4062 61.0059C49.9674 62.6509 48.726 62.7554 48.3184 62.7901Z" fill="#231400"/>
<path d="M47.1857 61.0864L47.1487 60.5874C48.4484 60.3966 49.6785 59.8793 50.7241 59.084L51.0232 59.4873C49.9043 60.3441 48.5819 60.8951 47.1857 61.0864Z" fill="#231400"/>
<path d="M46.0458 59.3945L45.9624 58.9014C47.2442 58.6653 48.4577 58.1477 49.5152 57.3857L49.836 57.7725C48.7122 58.5939 47.416 59.1487 46.0458 59.3945Z" fill="#231400"/>
<path d="M44.929 57.7139L44.856 57.2188C46.1337 56.9915 47.343 56.4761 48.392 55.7119L48.7039 56.1055C47.5877 56.9276 46.2952 57.4783 44.929 57.7139Z" fill="#231400"/>
<path d="M43.7428 56.0215L43.6653 55.5273C44.9497 55.2961 46.1667 54.7824 47.2284 54.0234L47.5414 54.416C46.4134 55.2324 45.1144 55.7814 43.7428 56.0215Z" fill="#231400"/>
<path d="M42.5277 54.3418L42.4719 53.8447C43.7857 53.6286 45.0275 53.0975 46.0913 52.2969L46.3973 52.6953C45.2634 53.5556 43.9338 54.1213 42.5277 54.3418Z" fill="#231400"/>
<path d="M41.3615 52.6294L41.3245 52.1304C42.6331 51.9476 43.8728 51.4316 44.9246 50.6318L45.2267 51.0322C44.1009 51.8949 42.7678 52.4457 41.3615 52.6294Z" fill="#231400"/>
<path d="M10.4049 16.5637L10.2639 16.3567L22.2929 8.30273L22.4339 8.50973L10.4049 16.5637Z" fill="#181818"/>
<path d="M9.92398 18.6474L9.78198 18.4404L24.446 8.6084L24.588 8.8154L9.92398 18.6474Z" fill="#181818"/>
<path d="M9.89102 20.373L9.74902 20.166L26.082 9.20898L26.224 9.41599L9.89102 20.373Z" fill="#181818"/>
<path d="M9.95696 21.7581L9.81396 21.5511L27.284 9.82715L27.426 10.0341L9.95696 21.7581Z" fill="#181818"/>
<path d="M10.2509 23.1534L10.1089 22.9464L28.4889 10.6084L28.6309 10.8154L10.2509 23.1534Z" fill="#181818"/>
<path d="M10.5929 24.2954L10.4509 24.0884L29.4759 11.3164L29.6179 11.5234L10.5929 24.2954Z" fill="#181818"/>
<path d="M11.0121 25.3866L10.8701 25.1796L30.3501 12.1006L30.4921 12.3076L11.0121 25.3866Z" fill="#181818"/>
<path d="M11.506 26.4265L11.364 26.2195L31.147 12.9365L31.289 13.1435L11.506 26.4265Z" fill="#181818"/>
<path d="M12.102 27.4543L11.96 27.2473L31.895 13.8613L32.037 14.0683L12.102 27.4543Z" fill="#181818"/>
<path d="M12.672 28.443L12.53 28.236L32.617 14.748L32.759 14.955L12.672 28.443Z" fill="#181818"/>
<path d="M13.4079 29.4315L13.2649 29.2245L33.3219 15.7715L33.4639 15.9795L13.4079 29.4315Z" fill="#181818"/>
<path d="M14.1549 30.3554L14.0129 30.1484L33.9559 16.7734L34.0979 16.9804L14.1549 30.3554Z" fill="#181818"/>
<path d="M14.9931 31.3288L14.8511 31.1218L34.5271 17.9258L34.6691 18.1328L14.9931 31.3288Z" fill="#181818"/>
<path d="M15.9191 32.3527L15.7771 32.1457L35.1131 19.1787L35.2551 19.3857L15.9191 32.3527Z" fill="#181818"/>
<path d="M16.986 33.3371L16.844 33.1301L35.687 20.4961L35.829 20.7031L16.986 33.3371Z" fill="#181818"/>
<path d="M18.2961 34.4323L18.1531 34.2253L36.1621 22.1543L36.3041 22.3613L18.2961 34.4323Z" fill="#181818"/>
<path d="M19.7961 35.5628L19.6541 35.3558L36.7141 23.9238L36.8561 24.1308L19.7961 35.5628Z" fill="#181818"/>
<path d="M21.423 36.5536L21.281 36.3466L37.014 25.8096L37.156 26.0166L21.423 36.5536Z" fill="#181818"/>
<path d="M23.9799 37.6873L23.8379 37.4803L37.2199 28.5283L37.3609 28.7353L23.9799 37.6873Z" fill="#181818"/>
<path d="M32.7519 37.6655L14.3279 10.9115L14.5369 10.7715L32.9619 37.5245L32.7519 37.6655Z" fill="#181818"/>
<path d="M31.8909 38.0262L13.6279 11.5072L13.8379 11.3662L32.0999 37.8862L31.8909 38.0262Z" fill="#181818"/>
<path d="M30.698 38.3912L12.759 12.3402L12.968 12.2002L30.907 38.2502L30.698 38.3912Z" fill="#181818"/>
<path d="M29.3639 38.6312L11.8889 13.2562L12.0989 13.1152L29.5729 38.4902L29.3639 38.6312Z" fill="#181818"/>
<path d="M27.927 38.7205L11.156 14.3675L11.366 14.2275L28.136 38.5795L27.927 38.7205Z" fill="#181818"/>
<path d="M26.308 38.5477L10.572 15.6967L10.781 15.5557L26.518 38.4077L26.308 38.5477Z" fill="#181818"/>
<path d="M24.292 38.0404L10.002 17.2894L10.212 17.1484L24.501 37.8994L24.292 38.0404Z" fill="#181818"/>
<path d="M21.874 36.8668L9.729 19.2308L9.939 19.0908L22.084 36.7268L21.874 36.8668Z" fill="#181818"/>
<path d="M33.8139 36.9487L15.3899 10.1947L15.5999 10.0537L34.0229 36.8087L33.8139 36.9487Z" fill="#181818"/>
<path d="M34.5451 36.2362L16.2241 9.63219L16.4341 9.49219L34.7541 36.0962L34.5451 36.2362Z" fill="#181818"/>
<path d="M35.3321 35.3628L17.3081 9.1898L17.5181 9.0498L35.5411 35.2218L35.3321 35.3628Z" fill="#181818"/>
<path d="M36.006 34.0842L18.564 8.75623L18.773 8.61523L36.215 33.9432L36.006 34.0842Z" fill="#181818"/>
<path d="M36.5279 32.8258L19.7639 8.4818L19.9729 8.3418L36.7369 32.6848L36.5279 32.8258Z" fill="#181818"/>
<path d="M36.95 31.1813L21.304 8.46131L21.513 8.32031L37.159 31.0413L36.95 31.1813Z" fill="#181818"/>
<path d="M37.1771 29.1727L22.9331 8.48766L23.1421 8.34766L37.3871 29.0327L37.1771 29.1727Z" fill="#181818"/>
<path d="M37.0159 26.4386L24.9419 8.90565L25.1509 8.76465L37.2249 26.2976L37.0159 26.4386Z" fill="#181818"/>
<path d="M43.1425 48.4183L40.3972 50.2692L39.9772 49.6594C39.9679 49.6459 39.9614 49.6306 39.958 49.6145C39.9546 49.5984 39.9544 49.5818 39.9575 49.5657C39.9606 49.5495 39.9669 49.5341 39.976 49.5204C39.9851 49.5067 39.9968 49.4949 40.0105 49.4858L42.547 47.7756C42.5747 47.7569 42.6087 47.7499 42.6415 47.7561C42.6744 47.7622 42.7035 47.7811 42.7226 47.8085L43.1425 48.4183Z" fill="#503D1C"/>
<path d="M42.6181 47.7539C42.6386 47.7539 42.6589 47.7588 42.6771 47.7683C42.6953 47.7779 42.7109 47.7917 42.7226 47.8086L43.1425 48.4183L40.3972 50.2692L39.9773 49.6594C39.9679 49.6459 39.9614 49.6306 39.958 49.6145C39.9546 49.5984 39.9545 49.5818 39.9576 49.5657C39.9607 49.5495 39.9669 49.5341 39.976 49.5204C39.9851 49.5067 39.9968 49.4949 40.0105 49.4858L42.547 47.7756C42.568 47.7615 42.5927 47.7539 42.618 47.7539L42.6181 47.7539ZM42.618 47.0039C42.4405 47.0036 42.2671 47.0566 42.12 47.1559L39.5836 48.8661C39.4879 48.9301 39.406 49.0126 39.3424 49.1085C39.2788 49.2045 39.235 49.3122 39.2133 49.4252C39.1916 49.5383 39.1926 49.6545 39.2162 49.7672C39.2398 49.8799 39.2855 49.9868 39.3507 50.0817L39.7707 50.6915L40.1976 51.3115L40.8242 50.8891L43.5695 49.0381L44.1958 48.6158L43.769 47.9961L43.3491 47.3863C43.2674 47.2681 43.1582 47.1715 43.0308 47.1049C42.9034 47.0383 42.7618 47.0037 42.6181 47.004L42.618 47.0039Z" fill="#231400"/>
</svg>
