<svg width="72" height="72" viewBox="0 0 72 72" fill="none" xmlns="http://www.w3.org/2000/svg">
<path d="M33.6079 23.2428C33.6237 22.9442 33.7053 22.6527 33.8468 22.3893C33.9884 22.1258 34.1863 21.8969 34.4266 21.7188C34.6668 21.5407 34.9434 21.4179 35.2366 21.359C35.5298 21.3002 35.8324 21.3069 36.1227 21.3785C36.0134 20.2513 37.2526 19.9045 37.2526 19.9045C36.0498 17.1731 38.0545 16.1759 38.0545 16.1759C39.0385 12.5775 41.9179 14.355 41.9179 14.355C46.0365 13.2278 47.3486 17.6066 47.3486 17.6066C47.6287 17.3249 47.9684 17.1096 48.3428 16.9764C48.7171 16.8433 49.1165 16.7958 49.5116 16.8374C49.9068 16.879 50.2875 17.0086 50.6259 17.2168C50.9644 17.4249 51.2518 17.7063 51.4671 18.0402C51.8859 18.1113 52.2797 18.288 52.6113 18.5535C52.9429 18.819 53.2014 19.1645 53.3624 19.5576C56.424 19.0374 56.9343 22.289 56.9343 22.289C57.3013 22.1225 57.7156 22.0922 58.103 22.2034C58.4903 22.3146 58.8254 22.5601 59.0483 22.896C60.2875 22.0722 61.7818 22.896 61.4538 24.847C61.1258 26.798 58.866 25.8441 58.866 25.8441C58.0528 26.2792 57.1517 26.5247 56.2302 26.5622C55.3087 26.5997 54.3906 26.4284 53.5447 26.0609C53.1575 26.2459 52.7288 26.3272 52.3008 26.2968C51.8727 26.2664 51.4599 26.1254 51.1027 25.8875C47.8224 28.5755 42.4282 26.2777 42.4282 26.2777C41.6503 26.7486 40.7553 26.9903 39.8461 26.975C38.937 26.9596 38.0506 26.6879 37.2891 26.191C36.9664 26.4246 36.589 26.5712 36.1932 26.6167C35.7975 26.6623 35.3967 26.6053 35.0293 26.4511C31.1294 27.8818 30.0725 25.7574 30.0725 25.7574C30.0725 25.7574 27.9221 26.928 27.2296 25.4106C26.5371 23.8932 27.7398 22.7659 29.6351 23.2428C30.1743 22.8563 30.8324 22.6721 31.4939 22.7226C32.2264 22.7518 32.9454 22.9288 33.6079 23.2428Z" fill="#E6E6E6"/>
<path d="M59.9977 66.5049H10.5002V66.9999H59.9977V66.5049Z" fill="#D1D1D1"/>
<path d="M31.2892 29.2545V66.4828H15.9451V29.2545C15.9451 27.1649 16.064 25.6963 17.6279 24.1981C18.5677 23.3207 19.3482 22.2868 19.9346 21.1426C20.2525 20.5474 20.4445 19.8932 20.4989 19.2206L20.8849 5.85507C20.8876 5.72575 20.941 5.60266 21.0336 5.51232C21.1262 5.42198 21.2506 5.37162 21.3799 5.37207H25.8544C25.9838 5.37162 26.1081 5.42198 26.2007 5.51232C26.2933 5.60266 26.3467 5.72575 26.3494 5.85507L26.7354 19.2206C26.7906 19.8917 26.9791 20.5451 27.2898 21.1426C27.8767 22.2891 28.6609 23.3234 29.6064 24.1981C31.1703 25.6963 31.2892 27.1649 31.2892 29.2545Z" fill="#BD716D"/>
<path d="M31.2859 35.3828H15.9297V53.5676H31.2859V35.3828Z" fill="white"/>
<path d="M31.5333 53.8146H15.6819V35.1348H31.5333V53.8146ZM16.177 53.3196H31.0381V35.6298H16.177V53.3196Z" fill="#181818"/>
<path d="M54.2061 66.5004H38.2781C38.2781 65.6921 38.3868 65.8893 41.5548 65.288C44.7226 64.6867 45.0196 64.1841 45.3957 62.8042C45.7621 61.4341 45.5937 54.1797 45.5937 51.2227C45.6262 50.3992 45.4532 49.5806 45.0903 48.8406C44.7274 48.1007 44.186 47.4628 43.5149 46.9844C44.2763 47.6632 45.2478 48.0598 46.2667 48.108C47.1779 48.0751 48.0536 47.7464 48.7614 47.1717C48.1464 47.6463 47.6551 48.2625 47.3293 48.9678C47.0036 49.6731 46.8531 50.4467 46.8905 51.2227C46.8905 54.1797 46.7223 61.434 47.0984 62.8041C47.4648 64.1841 47.7715 64.6867 50.9395 65.288C54.1072 65.8893 54.2061 65.6921 54.2061 66.5004Z" fill="#E6E6E6"/>
<path d="M54.4537 66.748H38.0303V66.5005C38.0303 65.6536 38.2778 65.6111 39.8895 65.3345C40.3121 65.262 40.8425 65.1711 41.5084 65.0445C44.6934 64.4403 44.8288 63.9424 45.1567 62.7396C45.4367 61.6926 45.3917 56.8092 45.3622 53.5781C45.354 52.6654 45.3462 51.8484 45.3462 51.2229C45.3806 50.4337 45.2156 49.6486 44.8666 48.9399C44.5176 48.2313 43.9957 47.6219 43.3492 47.1681L43.6707 46.792C44.3173 47.4444 45.188 47.8262 46.1059 47.86C47.0238 47.8937 47.9202 47.5769 48.613 46.9738L48.9292 47.3538C48.3386 47.8045 47.8669 48.3925 47.5548 49.0667C47.2427 49.7409 47.0997 50.481 47.1382 51.2229C47.1382 51.8398 47.131 52.6422 47.1227 53.5404C47.0932 56.7851 47.0487 61.6878 47.3374 62.7387C47.6561 63.9414 47.7881 64.4384 50.9857 65.0446C51.6477 65.1702 52.1752 65.2611 52.5959 65.3336C54.2061 65.6101 54.4537 65.6526 54.4537 66.5006V66.748ZM38.5467 66.253H53.9377C53.873 66.0558 53.6065 66.0094 52.5117 65.8218C52.0891 65.7493 51.5587 65.6575 50.8929 65.5318C47.6614 64.9179 47.26 64.3784 46.8592 62.8683C46.5526 61.7526 46.5962 57.0035 46.6276 53.5356C46.6358 52.6393 46.643 51.8379 46.643 51.2229C46.5832 50.118 46.901 49.0256 47.5444 48.1253C46.6973 48.4397 45.7642 48.4325 44.9221 48.105C45.5811 49.0061 45.9061 50.1085 45.8413 51.223C45.8413 51.8466 45.8491 52.6626 45.8573 53.5743C45.8892 57.0268 45.9323 61.7555 45.6349 62.8683C45.2229 64.3804 44.8192 64.9208 41.6012 65.5318C40.9315 65.6585 40.3982 65.7503 39.9731 65.8228C38.8789 66.0103 38.6115 66.0567 38.5467 66.253L38.5467 66.253Z" fill="#B1B1B1"/>
<path d="M54.7506 39.2475C54.7109 39.3855 54.6022 39.6911 54.4337 40.1149C54.3051 40.4204 54.1369 40.795 53.9291 41.1991C53.8597 41.3371 53.7903 41.4751 53.7111 41.6131C53.5528 41.899 53.3846 42.2045 53.1866 42.5101C53.0479 42.7368 52.8896 42.9734 52.7211 43.2099C52.5529 43.4464 52.3747 43.683 52.1865 43.9196C52.0162 44.1392 51.8345 44.3497 51.6422 44.5504C51.4107 44.809 51.1662 45.0557 50.9097 45.2896C50.1177 46.0092 49.4347 46.571 48.8604 47.0934C48.8299 47.1227 48.7967 47.1491 48.7614 47.1723C48.0535 47.747 47.1779 48.0757 46.2667 48.1087C45.2478 48.0605 44.2763 47.6638 43.5148 46.985C43.5049 46.985 43.495 46.9751 43.4851 46.9653C43.463 46.9519 43.4429 46.9352 43.4257 46.916C43.2574 46.7582 43.0792 46.6005 42.8911 46.4429C42.7625 46.3246 42.6238 46.2063 42.4853 46.088C42.1982 45.8416 41.9011 45.5755 41.5843 45.2896C41.3271 45.0531 41.0796 44.8066 40.8517 44.5504C40.6594 44.3497 40.4777 44.1391 40.3072 43.9196C40.1192 43.683 39.9411 43.4464 39.7728 43.2099C39.6044 42.9734 39.4461 42.7368 39.3076 42.5101C39.1094 42.2045 38.9412 41.899 38.7829 41.6131C38.7036 41.4751 38.6343 41.3371 38.5651 41.1991C38.3573 40.795 38.1888 40.4204 38.0603 40.1149C37.8918 39.6911 37.783 39.3855 37.7434 39.2475C36.2288 34.1123 38.6144 25.0146 39.2977 22.7969H53.1963C53.8696 25.0146 56.2652 34.1123 54.7506 39.2475Z" fill="#E6E6E6"/>
<path d="M46.2669 48.3561C45.2193 48.3206 44.2162 47.9237 43.428 47.2327H43.4092L43.3362 47.164C43.3059 47.1435 43.2779 47.1198 43.2525 47.0935C43.091 46.9417 42.916 46.787 42.7322 46.6323C42.5978 46.5095 42.4609 46.3925 42.3246 46.2765C42.0354 46.028 41.7366 45.7602 41.4184 45.4731C41.1551 45.2333 40.9042 44.9803 40.6665 44.7151C40.4704 44.5103 40.2851 44.2953 40.1114 44.0712C39.9229 43.8343 39.742 43.5936 39.5713 43.3528C39.3992 43.1131 39.2377 42.8704 39.0965 42.6384C38.9089 42.3493 38.7449 42.0544 38.5907 41.7779C38.4867 41.5942 38.4152 41.4521 38.3441 41.3109C38.1642 40.9609 37.9916 40.5906 37.832 40.2107C37.6744 39.8143 37.553 39.4817 37.5056 39.3163C35.7857 33.4845 39.0283 22.8312 39.0612 22.7248L39.1149 22.5498H53.3802L53.4334 22.7258C53.5669 23.1657 56.6842 33.5629 54.9885 39.3173C54.9406 39.4827 54.8197 39.8153 54.664 40.2068C54.5025 40.5906 54.3299 40.9609 54.1495 41.3128C54.0789 41.452 54.0074 41.5942 53.9256 41.7363C53.7545 42.0457 53.5886 42.3444 53.3947 42.6441C53.2564 42.8704 53.0944 43.113 52.9228 43.3538C52.7521 43.5935 52.5711 43.8336 52.3798 44.074C52.2051 44.2996 52.0187 44.5158 51.8213 44.7218C51.586 44.9842 51.3376 45.2346 51.0771 45.4721C50.6473 45.8626 50.2503 46.2068 49.8847 46.523C49.5757 46.7898 49.29 47.0373 49.0274 47.2761C48.9883 47.313 48.9462 47.3466 48.9017 47.3767C48.1542 47.9827 47.2287 48.3267 46.2669 48.3561ZM43.6514 46.7773L43.6707 46.7928C44.3174 47.4451 45.188 47.827 46.1059 47.8607C47.0239 47.8945 47.9202 47.5776 48.613 46.9745C48.6388 46.9581 48.6631 46.9393 48.6855 46.9185C48.9597 46.669 49.2484 46.4186 49.5607 46.1479C49.9234 45.8347 50.3175 45.4934 50.743 45.1066C50.9932 44.879 51.2316 44.6385 51.4572 44.3864C51.6457 44.1896 51.8237 43.9831 51.9905 43.7676C52.1786 43.5327 52.3537 43.2997 52.5195 43.0667C52.6844 42.8347 52.8396 42.6036 52.9755 42.3812C53.1665 42.0853 53.3266 41.7963 53.4774 41.5246C53.5732 41.3564 53.6409 41.222 53.7081 41.0886C53.8836 40.7463 54.0509 40.3867 54.2056 40.0193C54.3806 39.5784 54.4793 39.2961 54.5127 39.1791L54.5132 39.1781C56.0712 33.8954 53.4368 24.4951 53.0118 23.0449H39.4823C39.0718 24.4449 36.4215 33.8906 37.9809 39.1781C38.0148 39.2961 38.1134 39.5784 38.2904 40.0231C38.4432 40.3867 38.6105 40.7463 38.7856 41.0866C38.8537 41.222 38.9209 41.3564 38.9978 41.4908C39.1724 41.805 39.3305 42.0902 39.5157 42.3754C39.6545 42.6036 39.8092 42.8346 39.9741 43.0657C40.1404 43.2997 40.316 43.5327 40.5007 43.7647C40.6662 43.979 40.8432 44.1842 41.0307 44.3796C41.2583 44.6342 41.4989 44.8769 41.7517 45.1066C42.0655 45.3909 42.3614 45.6548 42.6467 45.9004C42.7869 46.0193 42.9276 46.1401 43.0587 46.26C43.2419 46.4137 43.4237 46.5742 43.5954 46.7367L43.6514 46.7773Z" fill="#B1B1B1"/>
<path d="M54.434 40.1152C54.3054 40.4208 54.1372 40.7953 53.9294 41.1995C53.86 41.3374 53.7906 41.4755 53.7114 41.6135C53.5531 41.8993 53.3849 42.2049 53.1869 42.5104C53.0482 42.7372 52.8899 42.9737 52.7214 43.2103C52.5532 43.4468 52.375 43.6834 52.1868 43.92C52.0165 44.1395 51.8348 44.3501 51.6425 44.5507C51.4109 44.8093 51.1665 45.056 50.91 45.29C50.118 46.0095 49.435 46.5714 48.8607 47.0937C48.8497 47.1148 48.8324 47.132 48.8112 47.143C48.7914 47.1529 48.7815 47.1627 48.7617 47.1726C48.0538 47.7474 47.1782 48.0761 46.267 48.109C45.248 48.0608 44.2766 47.6641 43.5151 46.9853C43.5052 46.9853 43.4953 46.9755 43.4854 46.9656C43.4633 46.9522 43.4432 46.9356 43.426 46.9163C43.2577 46.7586 43.0795 46.6009 42.8914 46.4432C42.866 46.4302 42.8427 46.4135 42.822 46.3939C42.7132 46.2954 42.6042 46.1968 42.4856 46.0884C42.1984 45.8419 41.9014 45.5759 41.5846 45.29C41.3274 45.0534 41.0799 44.807 40.852 44.5507C40.6597 44.35 40.478 44.1395 40.3075 43.92C40.1195 43.6833 39.9414 43.4468 39.7731 43.2103C39.6047 42.9737 39.4464 42.7372 39.3079 42.5104C39.1097 42.2049 38.9415 41.8993 38.7832 41.6135C38.7039 41.4755 38.6345 41.3375 38.5654 41.1995C38.3576 40.7953 38.1891 40.4208 38.0605 40.1152H54.434Z" fill="#BD716D"/>
<path d="M46.2669 48.3558C45.2193 48.3204 44.2163 47.9234 43.4281 47.2324H43.4092L43.3362 47.1637C43.3059 47.1432 43.2779 47.1195 43.2525 47.0932C43.0935 46.9433 42.9213 46.7906 42.74 46.6388L42.7405 46.6398C42.7047 46.6208 42.6723 46.596 42.6447 46.5663L42.3184 46.2704C42.0355 46.0278 41.7367 45.76 41.4185 45.4728C41.1552 45.2331 40.9042 44.9801 40.6666 44.7148C40.4704 44.51 40.2852 44.2951 40.1115 44.0709C39.9229 43.8341 39.7421 43.5933 39.5714 43.3526C39.3992 43.1128 39.2377 42.8701 39.0965 42.6381C38.9089 42.349 38.745 42.0541 38.5907 41.7776C38.4867 41.5939 38.4152 41.4518 38.3442 41.3106C38.1643 40.9606 37.9917 40.5904 37.8321 40.2104L37.6875 39.8672H54.8067L54.6621 40.2104C54.5026 40.5904 54.3299 40.9606 54.1496 41.3126C54.079 41.4518 54.0074 41.5939 53.9257 41.736C53.7545 42.0454 53.5887 42.3442 53.3948 42.6439C53.2565 42.8701 53.0945 43.1128 52.9228 43.3535C52.7522 43.5933 52.5712 43.8334 52.3798 44.0738C52.2051 44.2993 52.0187 44.5156 51.8214 44.7216C51.5861 44.984 51.3377 45.2344 51.0772 45.4718C50.6473 45.8624 50.2503 46.2066 49.8848 46.5227C49.5758 46.7896 49.29 47.0371 49.0275 47.2759C49.0352 47.2778 48.9951 47.3281 48.9191 47.3649C48.1674 47.9767 47.2356 48.3248 46.2669 48.3558ZM43.6515 46.777L43.6708 46.7925C44.3174 47.4449 45.1881 47.8267 46.106 47.8604C47.0239 47.8942 47.9203 47.5774 48.6131 46.9742L48.6938 46.9104C48.9598 46.6687 49.2484 46.4183 49.5608 46.1476C49.9235 45.8344 50.3175 45.4931 50.7431 45.1064C50.9933 44.8787 51.2317 44.6383 51.4572 44.3861C51.6457 44.1893 51.8238 43.9828 51.9906 43.7673C52.1787 43.5324 52.3537 43.2994 52.5196 43.0664C52.6845 42.8344 52.8397 42.6033 52.9756 42.3809C53.1666 42.0851 53.3266 41.796 53.4775 41.5243C53.5732 41.3561 53.641 41.2217 53.7082 41.0883C53.8286 40.8534 53.9451 40.6107 54.0563 40.3622H38.4379C38.5492 40.6107 38.6651 40.8521 38.7856 41.0864C38.8538 41.2217 38.921 41.3561 38.9979 41.4905C39.1724 41.8047 39.3306 42.0899 39.5158 42.3751C39.6545 42.6033 39.8093 42.8344 39.9741 43.0654C40.1405 43.2994 40.316 43.5324 40.5007 43.7644C40.6663 43.9787 40.8432 44.184 41.0307 44.3793C41.2583 44.634 41.499 44.8766 41.7517 45.1063C42.0655 45.3906 42.3615 45.6545 42.6467 45.9001L43.0505 46.253C43.242 46.4135 43.4238 46.574 43.5955 46.7364L43.6515 46.777ZM48.7025 46.9201L48.688 46.9278L48.7025 46.9201Z" fill="#B1B1B1"/>
<path d="M26.6859 17.3873H20.5483L20.8848 5.85507C20.8875 5.72575 20.9409 5.60266 21.0335 5.51232C21.126 5.42198 21.2504 5.37162 21.3798 5.37207H25.8543C25.9837 5.37162 26.108 5.42198 26.2006 5.51232C26.2932 5.60266 26.3466 5.72575 26.3493 5.85507L26.6859 17.3873Z" fill="#424242"/>
<path d="M26.9402 17.6337H20.293L20.6368 5.84723C20.64 5.65294 20.7198 5.4678 20.859 5.33216C20.9981 5.19651 21.1852 5.12136 21.3795 5.12308H25.8541C26.0494 5.12182 26.2372 5.19806 26.3764 5.33508C26.5155 5.4721 26.5946 5.65872 26.5964 5.854L26.9402 17.6337ZM20.8026 17.1387H26.4305L26.1012 5.86076C26.0996 5.79616 26.0728 5.73475 26.0267 5.68948C25.9806 5.64421 25.9188 5.61861 25.8541 5.61809H21.3795C21.3158 5.61817 21.2547 5.64269 21.2086 5.6866C21.1625 5.7305 21.1351 5.79043 21.1319 5.854L20.8026 17.1387Z" fill="white"/>
<path d="M31.6601 66.854H15.5732V29.2545C15.5732 27.145 15.7024 25.5275 17.371 23.9303C18.2785 23.0829 19.0325 22.085 19.5997 20.9805C19.8963 20.4302 20.076 19.8246 20.1277 19.2016L20.5131 5.84403C20.5173 5.61758 20.6106 5.40193 20.7728 5.24391C20.9351 5.08588 21.1531 4.99824 21.3796 5.00003H25.8543C26.0823 4.99883 26.3016 5.08813 26.4639 5.24835C26.6263 5.40856 26.7184 5.62662 26.7203 5.8547L27.1066 19.2093C27.1597 19.8278 27.3352 20.4296 27.623 20.9796C28.1915 22.0865 28.9495 23.0851 29.8628 23.9303C31.531 25.5275 31.6601 27.145 31.6601 29.2545L31.6601 66.854ZM16.316 66.1115H30.9174V29.2545C30.9174 27.2097 30.812 25.8668 29.3493 24.4659C28.3722 23.56 27.5617 22.4896 26.9548 21.3034C26.622 20.6614 26.4212 19.9592 26.3644 19.2383L25.9776 5.86533C25.9772 5.8328 25.964 5.80172 25.941 5.77876C25.9179 5.75581 25.8868 5.7428 25.8543 5.74254H21.3796C21.3486 5.74219 21.3187 5.75355 21.2957 5.77435C21.2727 5.79515 21.2585 5.82384 21.2558 5.8547L20.87 19.2306C20.8147 19.9575 20.609 20.665 20.266 21.3083C19.6606 22.4899 18.8554 23.5578 17.886 24.4649C16.4214 25.8668 16.316 27.2097 16.316 29.2545L16.316 66.1115Z" fill="#181818"/>
<path d="M26.5952 6.95215H20.6389V9.06683H26.5952V6.95215Z" fill="#424242"/>
<path d="M26.595 6.95203V9.0667H20.6387V6.95203H26.595ZM27.0901 6.45703H20.1436V9.56171H27.0901V6.45703Z" fill="#181818"/>
<path d="M26.5504 17.0537H20.4819V17.5487H26.5504V17.0537Z" fill="#181818"/>
</svg>
